ply
format ascii 1.0
element vertex 184
property float x
property float y
property float z
element face 160
property list uchar int vertex_index
end_header
-38.071434 -41.270241 -36.773037
-40.938885 -15.782024 -46.216919
-40.005787 -33.775089 -34.083305
-40.303734 -9.312509 -50.098518
-38.867271 -23.187622 -49.788956
-39.665184 -34.542099 -37.800674
-40.180519 -29.017462 -41.89233
-40.299145 -22.53377 -46.101982
-39.831398 -15.828982 -50.347713
-38.905758 -9.105255 -54.087238
-38.608288 -19.793247 -51.74696
-40.412197 -31.125914 -36.137508
-39.876816 -34.167648 -36.00177
-40.268471 -31.328106 -38.023739
-39.979607 -31.829456 -39.827049
-40.524799 -28.583057 -40.011906
-40.730644 -22.36227 -44.268723
-40.672714 -19.165483 -46.235291
-40.143288 -19.080093 -48.27169
-40.472122 -15.701791 -48.329456
-39.673531 -9.29282 -52.168461
-40.6954 -12.627949 -48.128792
-39.416855 -36.745037 -33.723434
-39.193546 -37.479275 -35.427414
-38.949425 -37.83783 -37.285831
-39.325989 -35.078426 -39.470695
-39.595089 -32.222286 -41.57449
-39.747978 -29.050079 -43.860054
-40.680859 -25.567198 -42.15218
-40.315754 -25.811922 -43.958614
-39.775597 -25.903763 -45.971699
-39.697292 -22.633665 -48.022499
-39.451275 -19.414379 -50.077881
-39.058445 -16.023115 -52.157135
-40.115601 -12.561457 -50.335724
-39.429237 -12.543749 -52.248779
-38.044302 -19.785713 -52.681044
-38.363911 -18.081572 -52.785099
-40.510216 -29.709342 -38.134224
-40.340334 -31.22701 -37.080624
-40.582079 -29.608246 -37.191108
-40.63838 -28.336818 -39.128308
-40.396635 -29.955582 -39.017823
-40.510216 -29.709342 -38.134224
-40.983126 -17.48432 -45.280299
-41.083664 -15.946219 -45.193409
-40.805799 -17.473754 -46.226105
-40.85004 -19.17605 -45.289485
-40.983126 -17.48432 -45.280299
-37.532299 -43.077621 -36.555769
-37.239569 -44.432823 -35.465496
-37.778704 -42.625442 -35.682764
-38.53274 -24.827135 -49.639155
-38.989988 -24.726635 -48.717794
-39.711321 -35.260063 -33.903369
-39.449509 -36.564222 -32.801713
-39.743975 -35.079249 -32.981649
-40.851439 -23.988229 -42.254927
-40.817697 -25.349858 -41.25211
-38.744591 -10.953812 -54.04721
-39.006331 -12.67306 -53.127981
-39.167497 -10.824502 -53.168008
-38.44697 -9.093712 -54.985792
-38.744591 -10.953812 -54.04721
-38.265749 -21.43806 -51.66889
-38.39524 -23.135247 -50.689888
-38.73778 -21.490434 -50.767958
-37.701763 -21.430526 -52.602974
-38.265749 -21.43806 -51.66889
-38.044302 -19.785713 -52.681044
-40.879005 -20.774443 -44.306201
-40.876331 -22.385765 -43.313198
-40.701679 -20.763876 -45.252007
-40.879005 -20.774443 -44.306201
-40.85004 -19.17605 -45.289485
-39.750101 -7.588977 -51.99745
-39.988632 -9.302665 -51.133489
-40.065203 -7.598821 -50.962479
-39.39294 -7.490861 -53.045483
-39.750101 -7.588977 -51.99745
-39.009054 -7.397078 -54.004871
-39.289644 -9.199037 -53.127849
-39.39294 -7.490861 -53.045483
-38.526087 -7.314607 -55.082241
-39.009054 -7.397078 -54.004871
-40.047632 -33.492935 -33.205429
-39.743975 -35.079249 -32.981649
-40.259287 -32.220459 -34.273454
-40.047632 -33.492935 -33.205429
-40.462492 -30.895871 -35.300556
-40.208992 -32.450502 -35.110406
-40.259287 -32.220459 -34.273454
-40.641054 -29.45342 -36.276032
-40.462492 -30.895871 -35.300556
-40.582079 -29.608246 -37.191108
-40.641054 -29.45342 -36.276032
-41.003357 -14.211094 -46.143062
-41.083664 -15.946219 -45.193409
-40.881614 -12.634056 -47.098999
-40.817143 -14.204987 -47.172855
-41.003357 -14.211094 -46.143062
-40.729028 -10.966618 -48.056921
-40.881614 -12.634056 -47.098999
-40.533195 -9.308898 -49.041784
-40.499567 -10.970229 -49.113655
-40.729028 -10.966618 -48.056921
-40.326679 -7.664025 -49.916551
-40.533195 -9.308898 -49.041784
-40.088149 -5.950336 -50.780512
-40.065203 -7.598821 -50.962479
-40.326679 -7.664025 -49.916551
-37.82054 -41.59415 -37.657928
-38.295913 -39.87784 -37.884899
-38.53274 -24.827135 -49.639155
-38.39524 -23.135247 -50.689888
-38.23217 -41.011538 -35.879658
-37.778704 -42.625442 -35.682764
-39.093767 -38.14284 -32.640076
-39.126421 -37.962025 -31.718356
-39.449509 -36.564222 -32.801713
-39.037312 -38.382301 -33.473358
-39.093767 -38.14284 -32.640076
-38.925657 -38.74942 -34.325348
-39.037312 -38.382301 -33.473358
-39.3052 -37.112156 -34.575424
-38.793226 -39.116055 -35.206846
-38.925657 -38.74942 -34.325348
-38.671166 -39.295332 -36.136055
-38.793226 -39.116055 -35.206846
-39.071485 -37.658552 -36.356623
-38.51043 -39.554035 -37.029434
-38.23217 -41.011538 -35.879658
-38.671166 -39.295332 -36.136055
-38.734909 -38.161634 -38.141296
-38.295913 -39.87784 -37.884899
-38.51043 -39.554035 -37.029434
-38.923191 -36.781932 -39.233728
-38.734909 -38.161634 -38.141296
-39.137707 -36.458128 -38.378263
-39.094669 -35.315593 -40.32971
-38.923191 -36.781932 -39.233728
-39.229219 -33.887524 -41.381608
-39.094669 -35.315593 -40.32971
-39.460539 -33.650356 -40.522593
-39.324703 -32.38649 -42.497656
-39.229219 -33.887524 -41.381608
-39.401148 -30.800387 -43.640438
-39.324703 -32.38649 -42.497656
-39.671534 -30.636182 -42.717272
-39.436804 -29.331921 -44.678444
-39.401148 -30.800387 -43.640438
-40.739667 -26.857788 -40.181973
-40.63838 -28.336818 -39.128308
-40.602829 -27.075128 -41.082043
-40.739667 -26.857788 -40.181973
-40.817697 -25.349858 -41.25211
-40.705751 -23.964734 -43.210452
-40.851439 -23.988229 -42.254927
-40.876331 -22.385765 -43.313198
-39.450613 -27.758763 -45.734267
-39.436804 -29.331921 -44.678444
-39.761787 -27.476921 -44.915876
-39.444151 -26.084705 -46.809166
-39.450613 -27.758763 -45.734267
-39.404998 -24.449656 -47.834566
-39.444151 -26.084705 -46.809166
-39.736444 -24.268714 -46.997099
-39.282281 -22.910643 -48.905727
-38.989988 -24.726635 -48.717794
-39.404998 -24.449656 -47.834566
-38.588989 -16.196506 -52.990187
-38.363911 -18.081572 -52.785099
-38.833366 -17.908181 -51.952047
-38.820934 -14.412743 -53.082159
-39.243841 -14.283432 -52.202957
-39.006331 -12.67306 -53.127981
-38.588989 -16.196506 -52.990187
-38.820934 -14.412743 -53.082159
-38.067299 -7.303064 -55.980795
-38.44697 -9.093712 -54.985792
-38.526087 -7.314607 -55.082241
-37.281405 -43.401531 -37.44066
-37.532299 -43.077621 -36.555769
-37.82054 -41.59415 -37.657928
3 37 36 10
3 38 13 39
3 40 39 11
3 38 39 40
3 41 15 42
3 43 42 13
3 41 42 43
3 1 44 45
3 1 46 48
3 46 17 47
3 46 47 48
3 1 19 17
3 0 49 51
3 49 50 51
3 4 52 53
3 2 54 56
3 54 22 55
3 54 55 56
3 5 23 12
3 5 24 23
3 5 25 24
3 6 26 14
3 6 27 26
3 57 28 58
3 7 29 16
3 7 30 29
3 7 31 30
3 8 32 18
3 8 33 32
3 3 34 21
3 9 35 20
3 9 59 61
3 61 60 35
3 59 60 61
3 9 62 63
3 10 64 66
3 66 65 4
3 64 65 66
3 69 68 10
3 67 68 69
3 11 12 2
3 13 12 11
3 13 5 12
3 13 14 5
3 15 14 13
3 15 6 14
3 70 16 71
3 17 72 74
3 72 16 73
3 72 73 74
3 17 7 16
3 17 18 7
3 19 18 17
3 19 8 18
3 75 20 76
3 77 76 3
3 75 76 77
3 78 20 79
3 80 9 81
3 82 81 20
3 80 81 82
3 84 83 9
3 85 2 86
3 87 2 88
3 89 11 90
3 91 90 2
3 89 90 91
3 92 11 93
3 95 94 11
3 96 1 97
3 98 21 99
3 100 99 1
3 98 99 100
3 101 21 102
3 103 3 104
3 105 104 21
3 103 104 105
3 106 3 107
3 110 109 3
3 108 109 110
3 112 111 0
3 114 113 4
3 115 0 116
3 22 117 119
3 117 118 119
3 22 120 121
3 12 22 2
3 23 22 12
3 23 122 124
3 124 123 22
3 122 123 124
3 23 125 126
3 24 127 129
3 129 128 23
3 127 128 129
3 24 130 132
3 130 0 131
3 130 131 132
3 24 133 135
3 135 134 0
3 133 134 135
3 25 136 138
3 138 137 24
3 136 137 138
3 25 139 140
3 14 25 5
3 26 25 14
3 26 141 143
3 143 142 25
3 141 142 143
3 26 144 145
3 27 146 148
3 148 147 26
3 146 147 148
3 27 149 150
3 151 15 152
3 28 153 155
3 153 15 154
3 153 154 155
3 28 6 15
3 16 156 158
3 156 28 157
3 156 157 158
3 29 28 16
3 29 6 28
3 29 27 6
3 30 27 29
3 30 159 161
3 161 160 27
3 159 160 161
3 30 162 163
3 31 164 166
3 166 165 30
3 164 165 166
3 31 167 169
3 167 4 168
3 167 168 169
3 18 31 7
3 32 31 18
3 32 4 31
3 32 10 4
3 33 10 32
3 33 170 172
3 172 171 10
3 170 171 172
3 21 19 1
3 34 19 21
3 34 8 19
3 20 34 3
3 35 34 20
3 35 8 34
3 35 33 8
3 173 33 174
3 175 174 35
3 173 174 175
3 177 176 33
3 180 179 9
3 178 179 180
3 183 182 0
3 181 182 183
