ply
format ascii 1.0
element vertex 351
property float x
property float y
property float z
element face 369
property list uchar int vertex_index
end_header
-16.923676 -84.235611 -6.667034
-8.513668 -83.872902 12.558245
-12.81342 -85.705833 3.303697
2.525414 -81.119591 21.738148
-3.991147 -78.475258 21.557755
-0.860119 -88.189552 11.685755
-5.231377 -92.470871 2.063604
-9.736647 -79.295883 17.786531
-7.41392 -76.677887 22.109728
-6.23589 -81.360313 17.294996
-2.512331 -83.379791 16.673834
-4.713886 -86.16597 12.079474
-2.975256 -90.765991 6.865397
-6.977102 -88.232773 7.362405
-14.92994 -85.290909 -1.648702
-11.503941 -89.4888 -2.310582
-13.506767 -88.99572 -7.00481
-12.020826 -81.035355 13.240738
-10.72578 -85.30603 7.878253
-14.099521 -81.784157 8.573771
-5.237975 -73.543556 26.158257
-2.075928 -74.902924 26.071005
-0.723555 -79.910118 21.380772
0.869652 -84.819092 16.625425
2.842339 -89.746735 11.812254
1.037653 -92.742287 6.815278
-9.366228 -89.221115 2.598867
-16.191671 -86.120514 -9.189253
-9.169416 -81.525337 15.28721
-7.978746 -80.417358 17.497725
-7.359486 -82.764709 14.900207
-5.46796 -83.770775 14.733373
-6.579157 -85.109772 12.291476
-5.810007 -87.393089 9.641006
-7.784057 -86.066032 9.971106
-15.955028 -84.790207 -4.081941
-14.280503 -87.138245 -4.401417
-15.308077 -86.640648 -6.876408
-14.517137 -88.476433 -9.349261
-12.569847 -78.881439 15.816228
-13.721192 -79.384262 13.528535
-13.109643 -81.426582 11.065588
3.38546 -79.44799 24.194218
-5.678368 -77.680054 21.745237
-6.320217 -75.286232 24.016361
-4.636004 -75.870644 24.054274
-3.655777 -74.368179 25.947613
-3.054983 -76.771194 23.737928
-1.360098 -77.419159 23.777672
-2.282485 -79.036575 21.647644
-1.769449 -85.707054 14.268
-0.821582 -84.061943 16.670765
-0.006705 -86.547577 14.150608
1.869632 -87.352249 14.181757
0.935863 -88.965958 11.70663
1.971608 -91.258972 9.385991
0.058957 -90.535652 9.194467
-4.177681 -91.708298 4.430247
-2.111796 -92.980072 4.203487
-11.933471 -85.395096 5.75528
-10.113287 -87.196007 5.338229
-11.094454 -87.535011 2.99401
-10.588598 -91.422569 -4.880975
-9.537365 -91.54068 -2.727271
1.88555 -78.65966 24.125069
-10.168532 -77.238441 20.022713
-9.114195 -75.872253 22.185541
-8.439875 -78.184906 19.921852
-6.783738 -79.041985 19.755249
-5.097005 -80.115982 19.282516
-3.282255 -80.918282 19.152884
-4.374097 -82.40979 16.948366
-3.629466 -84.743813 14.498324
-2.751555 -87.216164 11.864134
-1.918549 -89.532265 9.317228
-3.944591 -88.329216 9.645768
-4.951408 -89.536736 7.150014
-6.127394 -90.357445 4.744124
-13.900772 -85.562469 0.866377
-12.137626 -87.661209 0.489213
-13.25526 -87.402382 -1.82315
-12.554434 -89.232475 -4.532724
-11.637207 -91.1791 -7.156346
-12.750072 -90.692184 -9.482378
-13.651198 -90.270187 -11.783888
-11.902051 -75.972343 20.296206
-11.374712 -78.129875 18.026047
-10.896426 -80.257706 15.578413
-10.263785 -82.515793 12.941604
-9.60905 -84.732674 10.231458
-11.393857 -83.16468 10.630816
-12.437106 -83.487488 8.49643
-13.557265 -83.683075 5.934038
-14.570761 -83.650391 3.487957
-7.950288 -74.4189 24.251728
-4.203575 -71.850159 28.169161
-2.711999 -72.474968 28.201368
-1.129136 -73.199806 28.249325
-0.538789 -75.678215 26.004622
0.273352 -78.089409 23.847916
0.973312 -80.58622 21.467165
-1.560601 -81.691887 19.029902
0.122389 -82.331467 19.08873
1.816904 -83.139961 19.041109
2.716361 -85.579887 16.733273
3.718962 -88.028122 14.412292
-0.97543 -91.817787 6.775949
0.134193 -93.974648 4.415334
-8.916321 -86.812859 7.618987
-8.268197 -88.781715 5.003623
-7.294092 -90.936905 2.330425
-10.340299 -89.623627 -0.00715
-8.426311 -91.33004 -0.159474
-6.306195 -93.081047 -0.462017
-17.350874 -83.933708 -7.837532
-16.984872 -84.876159 -9.098641
-16.557673 -85.178063 -7.928144
-14.454976 -78.652729 13.50335
-13.928113 -78.387955 14.783818
-14.170654 -79.620861 12.338021
-14.454976 -78.652729 13.50335
3.376277 -81.392746 21.966788
3.8063 -80.556946 23.194823
2.955437 -80.283791 22.966183
2.99448 -82.359875 20.599303
3.376277 -81.392746 21.966788
-4.133045 -93.23264 1.892476
-3.606197 -92.851353 3.075797
-4.704529 -92.089585 3.246925
-4.730263 -93.533211 0.69365
-4.133045 -93.23264 1.892476
-9.497903 -92.51152 -5.096991
-10.119515 -92.362922 -6.195054
1.45668 -77.45166 25.196034
2.247857 -77.771339 25.352097
-14.545284 -89.07962 -11.723453
-14.084167 -89.37331 -10.566574
-14.978254 -88.182743 -10.506139
-15.049176 -88.730469 -12.937652
-14.155091 -89.921036 -12.998088
-14.545284 -89.07962 -11.723453
-12.424177 -76.454727 19.209429
-12.688689 -75.365123 20.345179
-12.160508 -77.533493 18.074349
-11.638382 -77.051109 19.161127
-12.424177 -76.454727 19.209429
-15.37755 -82.583493 3.538877
-14.868229 -82.733242 4.727899
-15.075628 -83.53698 2.21601
-15.37755 -82.583493 3.538877
-6.043551 -73.177574 26.213231
-6.584672 -74.048912 25.142283
-5.779096 -74.414894 25.087309
-5.549437 -72.342929 27.173913
-6.043551 -73.177574 26.213231
-4.720775 -72.696857 27.163709
-5.032237 -71.496231 28.179364
-5.549437 -72.342929 27.173913
3.793203 -90.000599 12.053892
4.231515 -89.141292 13.353912
3.280651 -88.887428 13.112273
3.470627 -90.883305 10.738567
3.793203 -90.000599 12.053892
2.132053 -93.146431 6.950864
2.599031 -92.404774 8.236221
1.50463 -92.00063 8.100634
1.667235 -93.823864 5.685794
2.761635 -94.228008 5.821381
2.132053 -93.146431 6.950864
-0.37157 -94.57433 3.071901
-0.988801 -93.47736 4.309411
-1.494565 -94.077042 2.965978
0.704181 -95.051685 3.178593
-0.37157 -94.57433 3.071901
-7.960814 -92.330669 -1.520386
-8.981838 -91.43536 -1.443372
-8.516341 -92.43599 -2.804285
-6.900756 -93.206173 -1.671658
-7.366253 -92.205544 -0.310746
-7.960814 -92.330669 -1.520386
-5.856264 -94.047379 -1.796896
-6.900756 -93.206173 -1.671658
-16.694702 -85.68483 -10.314317
-15.81552 -87.004784 -10.426135
-17.487903 -84.440475 -10.223705
-16.694702 -85.68483 -10.314317
-16.984872 -84.876159 -9.098641
-15.81552 -87.004784 -10.426135
-14.978254 -88.182743 -10.506139
-15.354404 -87.298474 -9.269257
-13.35244 -78.136543 15.927664
-12.758075 -77.909275 16.96944
-13.145519 -79.132851 14.672382
-13.35244 -78.136543 15.927664
-13.928113 -78.387955 14.783818
-13.86488 -80.642021 11.106548
-13.415418 -80.405422 12.297061
-14.170654 -79.620861 12.338021
-14.359818 -80.820808 9.86064
-13.604582 -81.605369 9.819679
-13.86488 -80.642021 11.106548
4.174705 -79.663563 24.508543
3.718946 -78.446713 25.590391
4.174705 -79.663563 24.508543
3.8063 -80.556946 23.194823
-2.573255 -93.48724 2.962417
-3.144738 -92.344185 4.316867
-3.606197 -92.851353 3.075797
-1.494565 -94.077042 2.965978
-2.573255 -93.48724 2.962417
-8.972286 -92.570575 -4.020139
-10.062981 -91.481624 -3.804123
-9.497903 -92.51152 -5.096991
-8.516341 -92.43599 -2.804285
-8.972286 -92.570575 -4.020139
2.997812 -78.165504 25.386672
3.718946 -78.446713 25.590391
2.635505 -79.053825 24.159644
2.997812 -78.165504 25.386672
2.247857 -77.771339 25.352097
-9.641364 -76.555347 21.104127
-9.921093 -75.419467 22.231722
-10.448262 -76.102562 21.150308
-10.64382 -92.241188 -7.33274
-10.119515 -92.362922 -6.195054
-11.112903 -91.300835 -6.018661
-11.211035 -92.079479 -8.524909
-10.64382 -92.241188 -7.33274
-11.767467 -91.836021 -9.687925
-11.211035 -92.079479 -8.524909
-12.193639 -90.935642 -8.319362
-12.260489 -91.648651 -10.859643
-11.767467 -91.836021 -9.687925
-12.711051 -91.437653 -12.010398
-12.260489 -91.648651 -10.859643
-13.200635 -90.481186 -10.633133
-13.26575 -91.077529 -13.133972
-12.711051 -91.437653 -12.010398
-13.26575 -91.077529 -13.133972
-14.155091 -89.921036 -12.998088
-17.658485 -83.018982 -6.561792
-17.171115 -83.37727 -5.258205
-12.091017 -74.827106 21.476265
-12.877655 -74.219887 21.525238
-12.688689 -75.365123 20.345179
-11.315021 -75.469513 21.287054
-12.091017 -74.827106 21.476265
-11.035291 -76.605392 20.15946
-10.448262 -76.102562 21.150308
-11.315021 -75.469513 21.287054
-11.972279 -78.505657 16.921138
-12.160508 -77.533493 18.074349
-12.758075 -77.909275 16.96944
-14.850189 -80.858517 8.681439
-14.359818 -80.820808 9.86064
-14.632609 -81.800125 7.270806
-14.850189 -80.858517 8.681439
-14.361481 -82.749584 5.95094
-13.828393 -82.733616 7.253905
-14.632609 -81.800125 7.270806
-14.064013 -83.666733 4.710998
-14.361481 -82.749584 5.95094
-14.868229 -82.733242 4.727899
-14.740634 -84.493019 0.905219
-14.235767 -84.60643 2.177167
-15.075628 -83.53698 2.21601
-15.255218 -84.357239 -0.35232
-14.415356 -85.426689 -0.391162
-14.740634 -84.493019 0.905219
-15.75439 -84.099888 -1.505767
-15.255218 -84.357239 -0.35232
-16.266934 -83.849537 -2.722386
-15.442484 -85.040558 -2.865321
-15.75439 -84.099888 -1.505767
-16.686791 -83.654568 -3.965658
-16.266934 -83.849537 -2.722386
-17.171115 -83.37727 -5.258205
-16.439352 -84.512909 -5.374487
-16.686791 -83.654568 -3.965658
-17.350874 -83.933708 -7.837532
-17.658485 -83.018982 -6.561792
-9.388051 -74.686585 23.29633
-9.921093 -75.419467 22.231722
-8.806097 -73.959908 24.329424
-9.388051 -74.686585 23.29633
-8.532241 -75.145577 23.218635
-8.227583 -73.245564 25.284325
-8.806097 -73.959908 24.329424
-7.399707 -73.615246 25.259967
-7.135252 -74.852566 24.134045
-6.584672 -74.048912 25.142283
-8.227583 -73.245564 25.284325
-7.399707 -73.615246 25.259967
-4.576102 -70.607052 29.146864
-5.032237 -71.496231 28.179364
-3.804568 -70.908684 29.212622
-4.576102 -70.607052 29.146864
-3.058779 -71.221089 29.228725
-3.804568 -70.908684 29.212622
-3.457787 -72.162564 28.185264
-2.281541 -71.648331 29.210891
-2.628322 -70.394451 30.238249
-3.058779 -71.221089 29.228725
-1.49011 -72.01075 29.23487
-2.281541 -71.648331 29.210891
-1.920567 -72.837387 28.225347
-0.780567 -72.242638 29.413463
-1.49011 -72.01075 29.23487
-0.439161 -73.455234 28.374336
-0.780567 -72.242638 29.413463
-0.143988 -74.694439 27.251984
-0.439161 -73.455234 28.374336
-0.833962 -74.43901 27.126973
0.24451 -75.960938 26.135811
-0.143988 -74.694439 27.251984
0.650581 -77.166535 25.057458
0.24451 -75.960938 26.135811
-0.132718 -76.883812 24.926269
1.079451 -78.374535 23.986493
1.45668 -77.45166 25.196034
0.650581 -77.166535 25.057458
2.640225 -83.37006 19.250784
2.99448 -82.359875 20.599303
2.171159 -82.129776 20.389629
3.089954 -84.590023 18.096866
2.640225 -83.37006 19.250784
2.266633 -84.359924 17.887191
3.61365 -85.857029 16.937721
3.089954 -84.590023 18.096866
4.11495 -87.081146 15.77723
3.61365 -85.857029 16.937721
3.217662 -86.804004 15.572783
4.649259 -88.277244 14.672501
4.11495 -87.081146 15.77723
4.649259 -88.277244 14.672501
4.231515 -89.141292 13.353912
3.035262 -91.639423 9.525436
3.470627 -90.883305 10.738567
2.406973 -90.502854 10.599123
3.035262 -91.639423 9.525436
2.599031 -92.404774 8.236221
1.215505 -94.440044 4.485822
1.667235 -93.823864 5.685794
0.585923 -93.358468 5.615306
1.215505 -94.440044 4.485822
0.704181 -95.051685 3.178593
-5.267672 -93.838299 -0.569161
-4.730263 -93.533211 0.69365
-5.768786 -92.775959 0.800794
-5.267672 -93.838299 -0.569161
-5.856264 -94.047379 -1.796896
3 0 114 116
3 116 115 27
3 114 115 116
3 1 30 28
3 1 32 30
3 1 34 32
3 0 37 35
3 0 27 37
3 117 40 118
3 120 119 40
3 3 121 123
3 123 122 42
3 121 122 123
3 3 124 125
3 4 45 43
3 4 47 45
3 4 49 47
3 5 52 50
3 5 54 52
3 5 56 54
3 6 126 128
3 128 127 57
3 126 127 128
3 6 129 130
3 2 61 59
3 132 131 62
3 133 64 134
3 7 67 65
3 9 68 29
3 9 69 68
3 9 71 69
3 11 72 31
3 11 73 72
3 11 75 73
3 13 76 33
3 13 77 76
3 14 80 78
3 16 81 36
3 16 82 81
3 16 83 82
3 135 84 136
3 137 136 38
3 135 136 137
3 140 139 84
3 138 139 140
3 141 85 142
3 143 86 144
3 145 144 85
3 143 144 145
3 17 87 39
3 17 88 87
3 17 90 88
3 19 91 41
3 19 92 91
3 146 93 147
3 149 148 93
3 8 94 66
3 20 150 152
3 152 151 44
3 150 151 152
3 20 153 154
3 20 155 157
3 155 95 156
3 155 156 157
3 21 96 46
3 21 97 96
3 21 98 97
3 22 99 48
3 22 100 99
3 10 101 70
3 23 102 51
3 23 103 102
3 23 104 103
3 24 105 53
3 24 158 160
3 160 159 105
3 158 159 160
3 24 161 162
3 25 163 165
3 165 164 55
3 163 164 165
3 25 166 168
3 166 167 168
3 12 106 74
3 169 107 170
3 171 170 58
3 169 170 171
3 173 172 107
3 18 108 89
3 26 109 60
3 26 110 109
3 15 111 79
3 174 112 175
3 176 175 63
3 174 175 176
3 177 113 178
3 179 178 112
3 177 178 179
3 181 180 113
3 27 182 183
3 186 185 27
3 184 185 186
3 28 29 7
3 30 29 28
3 30 9 29
3 30 31 9
3 32 31 30
3 32 11 31
3 32 33 11
3 34 33 32
3 34 13 33
3 35 36 14
3 37 36 35
3 37 16 36
3 37 38 16
3 27 38 37
3 27 187 189
3 189 188 38
3 187 188 189
3 190 39 191
3 40 192 194
3 192 39 193
3 192 193 194
3 40 17 39
3 40 41 17
3 195 41 196
3 197 196 40
3 195 196 197
3 198 19 199
3 200 199 41
3 198 199 200
3 42 201 202
3 204 203 42
3 43 44 8
3 45 44 43
3 45 20 44
3 45 46 20
3 47 46 45
3 47 21 46
3 47 48 21
3 49 48 47
3 49 22 48
3 50 51 10
3 52 51 50
3 52 23 51
3 52 53 23
3 54 53 52
3 54 24 53
3 54 55 24
3 56 55 54
3 56 25 55
3 57 58 12
3 205 58 206
3 207 206 57
3 205 206 207
3 209 208 58
3 59 60 18
3 61 60 59
3 61 26 60
3 62 63 15
3 210 63 211
3 212 211 62
3 210 211 212
3 214 213 63
3 215 42 216
3 64 217 219
3 217 42 218
3 217 218 219
3 64 3 42
3 65 220 222
3 220 66 221
3 220 221 222
3 67 66 65
3 67 8 66
3 29 67 7
3 68 67 29
3 68 8 67
3 68 43 8
3 69 43 68
3 69 4 43
3 69 70 4
3 71 70 69
3 71 10 70
3 31 71 9
3 72 71 31
3 72 10 71
3 72 50 10
3 73 50 72
3 73 5 50
3 73 74 5
3 75 74 73
3 75 12 74
3 33 75 11
3 76 75 33
3 76 12 75
3 76 57 12
3 77 57 76
3 77 6 57
3 78 79 2
3 80 79 78
3 80 15 79
3 36 80 14
3 81 80 36
3 81 15 80
3 81 62 15
3 82 62 81
3 82 223 225
3 225 224 62
3 223 224 225
3 82 226 227
3 83 228 230
3 230 229 82
3 228 229 230
3 83 231 232
3 38 83 16
3 84 83 38
3 84 233 235
3 235 234 83
3 233 234 235
3 84 236 237
3 239 238 84
3 241 240 0
3 85 242 244
3 242 243 244
3 85 245 246
3 85 247 249
3 247 65 248
3 247 248 249
3 86 65 85
3 86 7 65
3 39 250 252
3 250 86 251
3 250 251 252
3 87 86 39
3 87 7 86
3 87 28 7
3 88 28 87
3 88 1 28
3 88 89 1
3 90 89 88
3 90 18 89
3 41 90 17
3 91 90 41
3 91 18 90
3 91 59 18
3 92 59 91
3 92 2 59
3 253 19 254
3 255 19 256
3 257 92 258
3 259 258 19
3 257 258 259
3 93 260 262
3 260 92 261
3 260 261 262
3 93 2 92
3 93 78 2
3 263 78 264
3 265 264 93
3 263 264 265
3 266 14 267
3 268 267 78
3 266 267 268
3 269 14 270
3 271 35 272
3 273 272 14
3 271 272 273
3 274 35 275
3 276 0 277
3 278 277 35
3 276 277 278
3 280 279 0
3 66 281 282
3 94 283 285
3 285 284 66
3 283 284 285
3 94 286 287
3 44 94 8
3 288 94 289
3 290 289 44
3 288 289 290
3 292 291 94
3 95 293 294
3 95 295 296
3 46 95 20
3 96 95 46
3 96 297 299
3 299 298 95
3 297 298 299
3 96 300 302
3 300 301 302
3 97 303 305
3 305 304 96
3 303 304 305
3 97 306 307
3 97 308 309
3 98 310 312
3 312 311 97
3 310 311 312
3 98 313 314
3 48 98 21
3 99 98 48
3 99 315 317
3 317 316 98
3 315 316 317
3 99 318 320
3 318 64 319
3 318 319 320
3 100 64 99
3 100 3 64
3 70 49 4
3 101 49 70
3 101 22 49
3 51 101 10
3 102 101 51
3 102 22 101
3 102 100 22
3 103 100 102
3 103 3 100
3 103 321 323
3 323 322 3
3 321 322 323
3 104 324 326
3 326 325 103
3 324 325 326
3 104 327 328
3 53 104 23
3 105 104 53
3 105 329 331
3 331 330 104
3 329 330 331
3 105 332 333
3 335 334 105
3 55 336 338
3 338 337 24
3 336 337 338
3 340 339 55
3 74 56 5
3 106 56 74
3 106 25 56
3 58 106 12
3 107 106 58
3 107 25 106
3 107 341 343
3 343 342 25
3 341 342 343
3 345 344 107
3 89 34 1
3 108 34 89
3 108 13 34
3 60 108 18
3 109 108 60
3 109 13 108
3 109 77 13
3 110 77 109
3 110 6 77
3 79 61 2
3 111 61 79
3 111 26 61
3 63 111 15
3 112 111 63
3 112 26 111
3 112 110 26
3 113 110 112
3 113 6 110
3 113 346 348
3 348 347 6
3 346 347 348
3 350 349 113
