ply
format ascii 1.0
element vertex 317
property float x
property float y
property float z
element face 319
property list uchar int vertex_index
end_header
16.068132 -40.252865 -53.615582
27.748724 -50.834244 -46.198147
17.538254 -63.814774 -45.53101
21.987591 -46.646782 -50.853413
10.959805 -31.836931 -55.518749
18.9021 -22.793791 -60.080601
15.070443 -71.774887 -43.054119
14.557706 -61.259823 -47.250092
12.412229 -23.045351 -59.037655
25.664482 -58.671597 -43.276459
19.035744 -43.696529 -52.434822
23.585749 -37.930248 -53.811813
20.670744 -34.879635 -55.424686
17.777033 -31.291735 -56.784306
20.662912 -65.208527 -43.268372
22.88903 -57.499294 -45.882118
24.780582 -49.137985 -48.799194
19.818455 -55.50359 -48.069241
16.792009 -52.575684 -49.724289
13.970145 -49.30135 -50.766426
11.473126 -45.518597 -51.529053
13.364879 -36.351845 -54.576813
14.957343 -27.261711 -57.975075
26.647997 -54.892033 -44.751038
17.474382 -42.163548 -53.025089
19.749537 -39.361832 -53.879433
18.372089 -37.687775 -54.528343
19.111776 -33.531048 -55.993645
16.889463 -35.846832 -55.13018
16.277065 -67.905556 -44.289001
17.833305 -68.504852 -43.249786
19.188473 -64.567314 -44.462936
21.752913 -61.467236 -44.564247
20.308739 -60.582439 -45.759605
21.207172 -56.640972 -47.092377
18.651875 -59.67635 -46.809402
13.107967 -59.764748 -47.85656
15.721155 -56.883976 -48.479774
14.286835 -55.33313 -49.066299
15.452662 -50.875393 -50.33342
12.794396 -53.827404 -49.474178
10.039312 -36.126534 -53.899845
11.209859 -38.490673 -53.485329
12.14874 -34.195538 -55.040752
14.310564 -31.876041 -56.226074
12.971775 -29.731743 -56.721954
12.915442 -18.960501 -60.768799
14.202544 -21.045616 -60.21114
23.248127 -48.191212 -49.844685
24.275347 -43.633789 -51.353214
24.23345 -33.621815 -55.348423
19.223537 -18.788105 -61.705647
13.432566 -70.904671 -44.077538
14.756147 -67.011429 -45.197376
16.07761 -62.680134 -46.445267
13.234561 -65.571053 -46.069195
11.658593 -64.270844 -46.667229
9.879539 -29.056679 -56.134983
11.817808 -27.253681 -57.324623
10.654131 -24.766039 -57.904034
11.196833 -20.739254 -59.606697
24.478964 -62.512089 -41.82674
20.384369 -45.476707 -51.637829
22.72595 -42.260281 -52.346973
21.284252 -40.844341 -53.166439
21.971169 -36.479103 -54.676167
22.788231 -32.036945 -56.244526
21.209846 -30.685802 -56.955624
19.799265 -29.040844 -57.651985
18.299976 -26.990986 -58.415894
23.15094 -61.921021 -43.360939
24.296722 -58.050072 -44.721325
25.414186 -53.960155 -46.145168
26.203585 -50.21788 -47.537449
23.775311 -53.606384 -47.255119
22.342728 -52.340801 -48.458328
20.789097 -51.141479 -49.461407
17.203476 -58.245487 -47.758862
18.349556 -54.115433 -48.961815
19.311781 -49.985107 -50.228905
17.920269 -48.198322 -51.028065
16.504154 -46.522827 -51.641525
15.112739 -44.835297 -52.132511
12.638331 -47.501801 -51.156498
13.798998 -42.640766 -52.68235
12.544366 -40.742317 -53.073925
14.77583 -38.104649 -54.203793
15.605727 -33.777695 -55.739498
16.272509 -29.468578 -57.336975
16.972197 -25.328871 -58.958233
13.692744 -25.160751 -58.527248
15.570946 -23.24168 -59.58844
17.411747 -21.276392 -60.585995
25.120913 -39.449203 -52.779079
28.360481 -51.152392 -45.507519
27.810118 -53.181286 -44.783964
27.19836 -52.863138 -45.474592
28.896745 -49.147741 -46.228926
28.360481 -51.152392 -45.507519
28.156083 -48.921158 -46.926859
28.896745 -49.147741 -46.228926
12.931082 -56.925878 -48.638405
13.697401 -57.548939 -48.46143
12.341648 -59.141688 -48.033535
12.184863 -56.173016 -48.842344
13.540616 -54.580267 -49.270239
12.931082 -56.925878 -48.638405
10.499558 -33.981732 -54.709297
9.514354 -34.878407 -54.124891
9.974601 -32.733605 -54.934343
13.834692 -17.976053 -61.359253
13.180072 -16.9421 -61.657643
25.3042 -32.074294 -55.688143
24.536875 -31.371192 -56.179199
19.763846 -21.641015 -60.548338
19.571227 -23.744234 -59.708199
19.062818 -20.790948 -60.893124
19.924565 -19.638172 -61.360861
19.763846 -21.641015 -60.548338
12.753113 -70.224403 -44.51557
12.000388 -72.279789 -43.948091
13.414904 -68.277783 -45.075489
14.094356 -68.95805 -44.637457
12.753113 -70.224403 -44.51557
12.65411 -67.557594 -45.511398
13.995354 -66.291241 -45.633285
13.414904 -68.277783 -45.075489
10.288767 -65.642933 -46.3468
11.054726 -66.414055 -46.095886
10.939261 -63.565372 -46.874981
10.288767 -65.642933 -46.3468
9.328287 -27.944135 -56.333861
8.854587 -30.204092 -55.398029
9.715583 -25.798815 -57.218386
10.266835 -26.911359 -57.019509
9.328287 -27.944135 -56.333861
10.656988 -19.516602 -59.918884
10.294007 -21.629546 -58.968534
11.486855 -18.660998 -60.524512
10.656988 -19.516602 -59.918884
26.261217 -59.006502 -42.446352
25.668458 -60.926749 -41.721492
25.071723 -60.591843 -42.5516
15.788902 -72.113922 -42.489123
15.229941 -73.911225 -41.866064
14.511481 -73.57219 -42.431061
20.02328 -67.079208 -42.637375
18.608477 -68.727371 -42.628082
19.248109 -66.85669 -43.259079
21.392415 -65.410934 -42.587419
20.02328 -67.079208 -42.637375
21.906926 -63.564774 -43.314656
22.636429 -63.767182 -42.633703
21.392415 -65.410934 -42.587419
12.055729 -46.510199 -51.342776
11.38469 -48.77772 -50.642666
10.802087 -47.786118 -50.828943
15.795752 -21.187053 -60.43511
14.886745 -22.143648 -59.89979
15.111551 -20.089022 -60.74646
16.716153 -20.20441 -60.933887
16.491346 -22.259036 -60.087217
15.795752 -21.187053 -60.43511
17.591353 -19.238407 -61.428194
16.716153 -20.20441 -60.933887
26.031402 -47.578346 -48.875318
26.742904 -48.118294 -48.244446
25.492083 -49.677932 -48.168322
27.292381 -55.176981 -43.993302
26.800624 -57.066763 -43.256012
26.156239 -56.781815 -44.013749
27.292381 -55.176981 -43.993302
27.810118 -53.181286 -44.783964
10.31081 -46.513537 -51.041574
10.802087 -47.786118 -50.828943
9.055414 -37.224155 -53.275046
9.514354 -34.878407 -54.124891
9.547391 -38.445787 -53.089822
9.055414 -37.224155 -53.275046
10.624586 -37.308604 -53.692587
10.132665 -39.627857 -52.882565
9.547391 -38.445787 -53.089822
14.478243 -19.018611 -61.080423
13.558993 -20.003059 -60.48997
13.834692 -17.976053 -61.359253
15.111551 -20.089022 -60.74646
14.478243 -19.018611 -61.080423
24.471839 -46.542431 -50.054129
25.238066 -47.015817 -49.531384
24.014354 -48.664598 -49.321939
24.985449 -44.26372 -50.808394
24.471839 -46.542431 -50.054129
23.761737 -45.912501 -50.59895
25.436901 -42.059408 -51.574499
24.985449 -44.26372 -50.808394
25.048642 -34.286898 -54.863106
24.724792 -36.441114 -54.094801
23.909599 -35.776032 -54.580118
25.048642 -34.286898 -54.863106
25.3042 -32.074294 -55.688143
20.082589 -17.746039 -62.130145
19.924565 -19.638172 -61.360861
19.359282 -17.056957 -62.423398
20.082589 -17.746039 -62.130145
13.694723 -73.155815 -42.994575
14.511481 -73.57219 -42.431061
12.875785 -72.720707 -43.506285
12.000388 -72.279789 -43.948091
14.251504 -71.339779 -43.565828
13.694723 -73.155815 -42.994575
12.875785 -72.720707 -43.506285
11.84271 -67.06416 -45.796869
12.65411 -67.557594 -45.511398
12.446577 -64.920949 -46.368212
11.84271 -67.06416 -45.796869
11.054726 -66.414055 -46.095886
11.663948 -61.312325 -47.469646
12.38328 -62.017796 -47.261894
10.939261 -63.565372 -46.874981
12.341648 -59.141688 -48.033535
11.663948 -61.312325 -47.469646
9.434468 -31.34348 -55.24246
8.854587 -30.204092 -55.398029
10.419672 -30.446805 -55.826866
9.974601 -32.733605 -54.934343
9.434468 -31.34348 -55.24246
10.022656 -23.642938 -58.117203
9.715583 -25.798815 -57.218386
10.925482 -22.752646 -58.755365
10.022656 -23.642938 -58.117203
10.294007 -21.629546 -58.968534
12.34616 -17.771621 -61.105563
12.056138 -19.849877 -60.187748
11.486855 -18.660998 -60.524512
13.180072 -16.9421 -61.657643
12.34616 -17.771621 -61.105563
25.116222 -62.614956 -41.033525
23.915014 -64.389346 -41.0173
25.116222 -62.614956 -41.033525
25.668458 -60.926749 -41.721492
26.261217 -59.006502 -42.446352
26.800624 -57.066763 -43.256012
23.814265 -30.578757 -56.627251
24.536875 -31.371192 -56.179199
23.510841 -32.82938 -55.796475
23.058234 -30.010717 -57.000768
23.814265 -30.578757 -56.627251
22.269042 -29.335145 -57.356318
23.058234 -30.010717 -57.000768
21.999038 -31.361373 -56.600075
21.498362 -28.472013 -57.793621
22.269042 -29.335145 -57.356318
20.793071 -27.649534 -58.141801
21.498362 -28.472013 -57.793621
20.504555 -29.863323 -57.303804
20.019809 -26.86776 -58.493891
20.793071 -27.649534 -58.141801
19.270164 -25.842831 -58.875845
20.019809 -26.86776 -58.493891
19.04962 -28.015915 -58.03394
18.601038 -24.892388 -59.248248
19.571227 -23.744234 -59.708199
19.270164 -25.842831 -58.875845
17.170333 -70.478904 -42.586956
15.788902 -72.113922 -42.489123
16.451874 -70.13987 -43.151953
17.170333 -70.478904 -42.586956
18.608477 -68.727371 -42.628082
23.300441 -64.062715 -41.866603
23.915014 -64.389346 -41.0173
23.814952 -62.216555 -42.59384
23.300441 -64.062715 -41.866603
22.636429 -63.767182 -42.633703
11.539788 -55.085921 -49.063879
12.184863 -56.173016 -48.842344
12.179092 -52.824365 -49.684441
11.539788 -55.085921 -49.063879
12.766966 -50.561338 -50.330565
13.382271 -51.564377 -50.120302
12.179092 -52.824365 -49.684441
12.101059 -49.661564 -50.5256
11.38469 -48.77772 -50.642666
13.304238 -48.401575 -50.961462
12.766966 -50.561338 -50.330565
12.101059 -49.661564 -50.5256
10.92378 -44.19367 -51.782944
10.31081 -46.513537 -51.041574
10.792147 -40.679709 -52.761082
10.132665 -39.627857 -52.882565
11.4594 -41.805531 -52.55538
10.792147 -40.679709 -52.761082
11.877112 -39.616495 -53.279627
12.008746 -43.130457 -52.301489
10.92378 -44.19367 -51.782944
11.4594 -41.805531 -52.55538
18.497248 -17.994264 -61.98802
18.317642 -20.032249 -61.145821
17.591353 -19.238407 -61.428194
19.359282 -17.056957 -62.423398
18.497248 -17.994264 -61.98802
27.383513 -48.612976 -47.59651
28.156083 -48.921158 -46.926859
26.976154 -50.526062 -46.867798
27.383513 -48.612976 -47.59651
26.742904 -48.118294 -48.244446
26.031402 -47.578346 -48.875318
25.238066 -47.015817 -49.531384
25.859684 -39.967115 -52.287431
25.436901 -42.059408 -51.574499
24.69813 -41.541496 -52.066147
25.492373 -37.200592 -53.578434
24.353331 -38.689725 -53.295446
24.724792 -36.441114 -54.094801
26.253201 -37.775175 -53.063574
25.492373 -37.200592 -53.578434
25.859684 -39.967115 -52.287431
26.253201 -37.775175 -53.063574
3 1 94 96
3 96 95 23
3 94 95 96
3 1 97 98
3 1 99 100
3 0 26 24
3 0 28 26
3 2 31 29
3 2 33 31
3 2 35 33
3 101 38 102
3 103 102 36
3 101 102 103
3 104 40 105
3 106 105 38
3 104 105 106
3 4 107 109
3 107 41 108
3 107 108 109
3 4 43 41
3 4 45 43
3 111 110 46
3 3 49 48
3 113 112 50
3 5 114 115
3 5 116 118
3 116 51 117
3 116 117 118
3 119 52 120
3 121 53 122
3 123 122 52
3 121 122 123
3 124 55 125
3 126 125 53
3 124 125 126
3 127 56 128
3 130 129 56
3 131 57 132
3 133 59 134
3 135 134 57
3 133 134 135
3 136 60 137
3 139 138 60
3 9 140 142
3 142 141 61
3 140 141 142
3 10 64 62
3 12 65 25
3 12 66 65
3 12 67 66
3 13 68 27
3 13 69 68
3 6 143 145
3 143 144 145
3 14 146 148
3 148 147 30
3 146 147 148
3 14 149 150
3 14 151 153
3 151 70 152
3 151 152 153
3 15 71 32
3 15 72 71
3 15 74 72
3 17 75 34
3 17 76 75
3 7 77 54
3 18 78 37
3 18 79 78
3 18 80 79
3 19 81 39
3 19 82 81
3 20 154 156
3 154 83 155
3 154 155 156
3 20 84 83
3 21 85 42
3 21 86 85
3 21 87 86
3 22 88 44
3 22 89 88
3 8 90 58
3 157 91 158
3 159 158 47
3 157 158 159
3 160 92 161
3 162 161 91
3 160 161 162
3 164 163 92
3 16 165 167
3 167 166 73
3 165 166 167
3 11 93 63
3 23 168 170
3 170 169 9
3 168 169 170
3 172 171 23
3 24 25 10
3 26 25 24
3 26 12 25
3 26 27 12
3 28 27 26
3 28 13 27
3 29 30 6
3 31 30 29
3 31 14 30
3 31 32 14
3 33 32 31
3 33 15 32
3 33 34 15
3 35 34 33
3 35 17 34
3 36 37 7
3 38 37 36
3 38 18 37
3 38 39 18
3 40 39 38
3 40 19 39
3 173 20 174
3 41 175 176
3 41 177 178
3 41 179 181
3 179 42 180
3 179 180 181
3 43 42 41
3 43 21 42
3 43 44 21
3 45 44 43
3 45 22 44
3 46 47 8
3 182 47 183
3 184 183 46
3 182 183 184
3 186 185 47
3 48 187 189
3 189 188 16
3 187 188 189
3 49 190 192
3 192 191 48
3 190 191 192
3 49 193 194
3 50 195 197
3 197 196 11
3 195 196 197
3 199 198 50
3 51 200 201
3 51 202 203
3 204 6 205
3 52 206 207
3 52 208 210
3 208 6 209
3 208 209 210
3 52 29 6
3 53 29 52
3 53 2 29
3 53 54 2
3 55 54 53
3 55 7 54
3 211 55 212
3 56 213 215
3 213 55 214
3 213 214 215
3 56 7 55
3 56 36 7
3 216 36 217
3 218 217 56
3 216 217 218
3 220 219 36
3 57 221 222
3 57 223 225
3 223 4 224
3 223 224 225
3 57 58 4
3 59 58 57
3 59 8 58
3 226 59 227
3 60 228 230
3 228 59 229
3 228 229 230
3 60 8 59
3 60 46 8
3 231 46 232
3 233 232 60
3 231 232 233
3 235 234 46
3 61 236 237
3 239 238 61
3 241 240 9
3 62 63 3
3 64 63 62
3 64 11 63
3 25 64 10
3 65 64 25
3 65 11 64
3 65 50 11
3 66 50 65
3 66 242 244
3 244 243 50
3 242 243 244
3 66 245 246
3 67 247 249
3 249 248 66
3 247 248 249
3 67 250 251
3 27 67 12
3 68 67 27
3 68 252 254
3 254 253 67
3 252 253 254
3 68 255 256
3 69 257 259
3 259 258 68
3 257 258 259
3 69 260 262
3 260 5 261
3 260 261 262
3 30 263 265
3 265 264 6
3 263 264 265
3 267 266 30
3 268 61 269
3 70 270 272
3 270 61 271
3 270 271 272
3 70 9 61
3 32 70 14
3 71 70 32
3 71 9 70
3 71 23 9
3 72 23 71
3 72 1 23
3 72 73 1
3 74 73 72
3 74 16 73
3 34 74 15
3 75 74 34
3 75 16 74
3 75 48 16
3 76 48 75
3 76 3 48
3 54 35 2
3 77 35 54
3 77 17 35
3 37 77 7
3 78 77 37
3 78 17 77
3 78 76 17
3 79 76 78
3 79 3 76
3 79 62 3
3 80 62 79
3 80 10 62
3 39 80 18
3 81 80 39
3 81 10 80
3 81 24 10
3 82 24 81
3 82 0 24
3 273 40 274
3 275 40 276
3 277 19 278
3 279 278 40
3 277 278 279
3 83 280 281
3 83 282 284
3 282 19 283
3 282 283 284
3 83 82 19
3 84 82 83
3 84 0 82
3 285 20 286
3 42 287 288
3 85 289 291
3 291 290 42
3 289 290 291
3 85 292 294
3 292 20 293
3 292 293 294
3 85 84 20
3 86 84 85
3 86 0 84
3 86 28 0
3 87 28 86
3 87 13 28
3 44 87 21
3 88 87 44
3 88 13 87
3 88 69 13
3 89 69 88
3 89 5 69
3 58 45 4
3 90 45 58
3 90 22 45
3 47 90 8
3 91 90 47
3 91 22 90
3 91 89 22
3 92 89 91
3 92 5 89
3 92 51 5
3 295 51 296
3 297 296 92
3 295 296 297
3 299 298 51
3 73 300 302
3 302 301 1
3 300 301 302
3 304 303 73
3 306 305 16
3 63 49 3
3 93 49 63
3 93 307 309
3 309 308 49
3 307 308 309
3 310 93 311
3 312 311 11
3 310 311 312
3 313 93 314
3 316 315 93
