ply
format ascii 1.0
element vertex 375
property float x
property float y
property float z
element face 393
property list uchar int vertex_index
end_header
-27.877342 8.522047 -4.472547
-39.500278 7.73863 5.445869
-33.407303 17.995834 -4.516971
-34.620991 7.441425 -0.618486
-21.671423 11.27799 -7.197966
-40.039631 -1.300337 11.390576
-36.119534 -2.380083 4.530548
-29.457264 -2.240732 -0.758959
-36.181309 17.391493 -2.405836
-25.102388 3.658598 -4.400133
-24.521759 9.650179 -5.899381
-39.84058 3.068338 8.322819
-38.54417 -1.864094 7.710533
-38.120876 2.672256 4.97876
-31.341251 8.024161 -2.837941
-32.025028 2.360278 -0.594369
-28.602093 2.854141 -2.622851
-26.096237 -1.675228 -2.796333
-30.828434 13.523044 -4.642313
-27.317522 14.599846 -6.091542
-38.901203 12.48189 2.674172
-37.531322 7.520549 2.173289
-36.868679 12.46729 -0.357445
-34.050972 12.78219 -2.803934
-24.169693 16.266848 -7.278676
-35.33614 2.303087 1.913295
-32.896492 -2.424332 1.60635
-40.389343 -0.779312 15.360809
-40.559887 3.487138 12.282909
-40.448719 7.925953 9.293069
-39.992809 12.504619 6.410278
-26.43009 6.031105 -4.400391
-24.78997 6.678267 -5.179717
-26.234123 9.044352 -5.187624
-39.716896 5.294865 6.966039
-39.089474 2.861164 6.575329
-38.918587 5.42007 5.125198
-29.601202 8.28354 -3.721084
-29.970516 5.454178 -2.719788
-28.218344 5.80934 -3.615824
-26.85965 3.395839 -3.5711
-32.176266 15.696325 -4.606751
-30.431383 16.372345 -5.470312
-38.527824 14.794084 1.43483
-38.011017 12.46099 1.098098
-37.658947 14.89941 -0.074221
-34.851204 17.481974 -3.5242
-35.282635 15.097109 -2.615889
-33.778435 15.422246 -3.714493
-32.513988 13.010849 -3.744674
-21.94702 8.249401 -6.588009
-20.436295 12.220563 -7.85292
-25.72699 15.318289 -6.686572
-37.488075 -2.099271 6.125241
-36.145973 7.563379 0.634229
-36.547276 5.076269 2.004812
-35.084717 4.889398 0.699982
-30.793257 -0.034166 -0.582904
-32.523613 -0.118598 0.568835
-31.104406 -2.539201 0.365637
-24.649992 -1.140036 -3.692255
-39.478806 -4.802936 20.522594
-39.862099 -2.578506 18.842733
-40.214806 -2.920077 16.849894
-40.127403 -0.529962 17.354288
-40.459686 3.694628 14.41656
-40.533714 5.728069 12.798567
-40.541267 5.676572 10.704239
-40.501453 7.933075 11.312746
-24.003374 1.466783 -4.477865
-23.613596 4.322773 -5.184362
-23.301462 7.411372 -5.893969
-23.03857 10.652661 -6.596693
-39.983829 0.912081 9.884554
-39.410198 -1.661795 9.493997
-39.287842 0.586465 8.081003
-38.280209 0.405898 6.229454
-37.075424 0.197866 4.61124
-32.971989 7.55426 -1.779579
-33.415203 4.930536 -0.579464
-31.743887 5.138356 -1.691217
-30.356649 2.666224 -1.668957
-29.069523 0.331347 -1.677563
-27.80625 -1.987069 -1.781919
-27.253912 0.573247 -2.685371
-25.648254 1.064464 -3.589045
-29.333113 11.055344 -4.585247
-27.671764 11.490211 -5.280514
-29.085018 14.092861 -5.423588
-28.829338 17.020529 -6.139329
-39.238781 10.217085 4.024858
-38.616364 7.611697 3.719054
-38.345833 10.064389 2.385626
-37.217918 9.95652 0.885408
-35.839073 9.988238 -0.533
-36.571625 14.977857 -1.422911
-35.537395 12.581017 -1.664766
-34.330372 10.102192 -1.76168
-32.826096 10.208201 -2.7372
-31.103401 10.694918 -3.754903
-25.95673 12.045493 -5.950358
-24.450115 12.931572 -6.584192
-22.867392 13.812187 -7.223685
-21.465918 14.755341 -7.8345
-37.836128 4.956495 3.599668
-36.808842 2.648104 3.277489
-35.674801 -0.029201 3.146898
-33.826878 2.358537 0.64383
-34.154797 -0.130982 1.809175
-34.529045 -2.594119 3.020749
-40.289539 -3.10611 14.838898
-40.366585 -1.078226 13.453386
-40.344227 1.594564 15.761678
-40.506557 1.374895 13.822619
-40.37466 1.006544 11.793427
-40.348747 3.217144 10.280334
-40.273651 5.53391 8.800261
-40.106907 7.939588 7.254344
-40.285824 10.174545 7.977438
-39.891243 10.089865 5.914655
-39.60236 12.458812 4.554694
-39.216599 14.676932 3.179051
-32.648097 18.235802 -4.925693
-32.032578 17.086047 -4.970582
-32.791784 16.846079 -4.561861
-37.909549 16.02757 0.158352
-38.093385 14.846747 0.680304
-38.343988 15.974908 0.912877
-21.174655 10.156372 -7.241572
-21.312453 8.642077 -6.936593
-21.809221 9.763696 -6.892988
-21.053859 11.749277 -7.525443
-20.557091 10.627658 -7.569049
-21.174655 10.156372 -7.241572
-39.80576 -2.574673 11.242233
-40.047767 -2.428217 12.144689
-36.322297 -3.494495 5.196422
-37.006567 -3.354089 5.993768
-36.803804 -2.239677 5.327894
-35.547512 -3.658735 4.395293
-36.322297 -3.494495 5.196422
-29.765548 -3.554963 -0.230839
-30.589119 -3.704198 0.33146
-30.280835 -2.389966 -0.196661
-28.968501 -3.412999 -0.782803
-29.765548 -3.554963 -0.230839
-24.264929 -2.146606 -3.80664
-23.946649 -0.946784 -4.131278
-39.728556 -1.495262 19.122949
-39.546741 -2.583331 19.877313
-39.861208 -0.47099 18.378727
-39.994751 -1.554234 18.09851
-39.728556 -1.495262 19.122949
-40.397238 6.880001 13.117749
-40.379927 5.76046 13.877907
-40.381107 7.982504 12.374838
-40.517584 6.830572 12.055657
-40.397238 6.880001 13.117749
-29.585546 18.174172 -6.109631
-29.630361 16.696437 -5.80482
-30.386568 17.85008 -5.775123
-28.762944 18.493083 -6.421922
-29.585546 18.174172 -6.109631
-36.376467 16.184675 -1.914373
-36.924566 16.100846 -1.261684
-36.729408 17.307664 -1.753146
-21.415949 16.475527 -8.113714
-22.111277 15.958484 -7.825596
-20.84644 15.25697 -8.141661
-21.415949 16.475527 -8.113714
-38.652086 -3.01693 8.455192
-39.0851 -2.91578 9.346924
-38.977184 -1.762944 8.602265
-33.119074 -3.618615 2.16342
-33.93535 -3.703509 2.87062
-33.712769 -2.509226 2.313549
-26.467763 -2.932538 -2.35016
-27.322769 -3.088458 -1.842952
-26.951243 -1.831148 -2.289126
-39.572401 -5.956258 20.248022
-39.723124 -4.913845 19.484878
-40.202041 2.679929 16.160517
-40.125698 1.572564 16.806002
-40.139316 11.339582 7.193858
-40.212384 11.317053 8.190618
-40.065876 12.48209 7.407038
-39.209705 15.87451 3.496982
-39.420926 14.790853 4.110063
-39.011612 15.877951 2.612127
-39.209705 15.87451 3.496982
-31.160137 17.424057 -5.402363
-31.303824 16.034335 -5.038531
-32.032578 17.086047 -4.970582
-30.386568 17.85008 -5.775123
-31.160137 17.424057 -5.402363
-21.49828 7.108124 -6.633601
-21.648499 5.570607 -6.318081
-22.097238 6.711885 -6.272489
-21.49828 7.108124 -6.633601
-21.312453 8.642077 -6.936593
-19.989372 11.077369 -7.942094
-20.557091 10.627658 -7.569049
-19.900399 12.803418 -8.196839
-19.989372 11.077369 -7.942094
-26.434538 16.568835 -6.729874
-26.522256 14.959067 -6.389057
-27.229804 16.209614 -6.432359
-25.666328 16.937675 -6.992418
-26.434538 16.568835 -6.729874
-24.88768 17.411955 -7.28847
-24.948341 15.792568 -6.982624
-25.666328 16.937675 -6.992418
-37.597717 -3.241253 6.765473
-38.125765 -3.123664 7.558119
-38.016123 -1.981682 6.917887
-37.597717 -3.241253 6.765473
-37.006567 -3.354089 5.993768
-31.418481 -3.677665 0.909203
-32.314523 -3.62023 1.529559
-32.000449 -2.481766 0.985993
-31.418481 -3.677665 0.909203
-30.589119 -3.704198 0.33146
-24.968049 -2.508375 -3.30529
-25.691171 -2.775971 -2.85733
-25.373114 -1.407632 -3.244294
-24.968049 -2.508375 -3.30529
-24.264929 -2.146606 -3.80664
-39.355095 -3.695546 20.717244
-39.105463 -4.706291 21.529038
-39.670452 -3.690721 19.682664
-39.355095 -3.695546 20.717244
-39.546741 -2.583331 19.877313
-39.914771 -3.80163 18.644947
-39.723124 -4.913845 19.484878
-39.670452 -3.690721 19.682664
-40.038453 -2.749291 17.846314
-40.091124 -3.972415 17.648528
-39.914771 -3.80163 18.644947
-40.342912 4.74374 14.686903
-40.259771 3.729961 15.487958
-40.4967 4.711348 13.607564
-40.342912 4.74374 14.686903
-40.379927 5.76046 13.877907
-39.886522 13.701018 6.723607
-40.065876 12.48209 7.407038
-39.809031 13.704697 5.725677
-39.886522 13.701018 6.723607
-33.258556 19.355762 -4.828238
-33.908276 19.083512 -4.417422
-36.496168 18.417278 -2.225726
-36.729408 17.307664 -1.753146
-35.917895 18.488542 -2.850455
-36.496168 18.417278 -2.225726
-35.252842 18.533782 -3.409638
-35.516256 17.436734 -2.965018
-35.917895 18.488542 -2.850455
-34.630226 18.826582 -3.921036
-35.252842 18.533782 -3.409638
-33.908276 19.083512 -4.417422
-34.129254 17.738904 -4.020586
-34.630226 18.826582 -3.921036
-23.319341 1.791557 -4.887001
-23.623341 0.356625 -4.524083
-23.124451 3.219552 -5.240249
-23.319341 1.791557 -4.887001
-23.808485 2.894778 -4.831114
-22.930526 4.74857 -5.570666
-23.124451 3.219552 -5.240249
-22.774459 6.29287 -5.925469
-22.930526 4.74857 -5.570666
-23.457529 5.867072 -5.539166
-22.624241 7.830387 -6.240989
-22.097238 6.711885 -6.272489
-22.774459 6.29287 -5.925469
-23.623341 0.356625 -4.524083
-23.946649 -0.946784 -4.131278
-24.326683 0.163373 -4.08506
-27.985712 17.419956 -6.456253
-27.229804 16.209614 -6.432359
-28.07343 15.810187 -6.115436
-27.985712 17.419956 -6.456253
-28.762944 18.493083 -6.421922
-32.648097 18.235802 -4.925693
-33.258556 19.355762 -4.828238
-37.468227 16.061622 -0.587339
-37.909549 16.02757 0.158352
-37.115286 14.938633 -0.748566
-37.468227 16.061622 -0.587339
-36.924566 16.100846 -1.261684
-24.195155 17.9958 -7.555217
-24.88768 17.411955 -7.28847
-23.463164 16.714237 -7.547684
-24.195155 17.9958 -7.555217
-22.812014 15.486907 -7.520188
-23.518542 15.039517 -7.251181
-23.463164 16.714237 -7.547684
-22.166655 14.283764 -7.529092
-22.812014 15.486907 -7.520188
-22.111277 15.958484 -7.825596
-20.331629 13.98958 -8.150871
-20.951107 13.487952 -7.84371
-20.84644 15.25697 -8.141661
-19.900399 12.803418 -8.196839
-20.331629 13.98958 -8.150871
-39.491043 -2.755402 10.293944
-39.80576 -2.574673 11.242233
-39.724914 -1.481066 10.442286
-39.491043 -2.755402 10.293944
-39.0851 -2.91578 9.346924
-38.652086 -3.01693 8.455192
-38.125765 -3.123664 7.558119
-34.752268 -3.765753 3.640394
-35.547512 -3.658735 4.395293
-35.32429 -2.487101 3.775648
-34.752268 -3.765753 3.640394
-33.93535 -3.703509 2.87062
-33.119074 -3.618615 2.16342
-32.314523 -3.62023 1.529559
-28.142994 -3.286167 -1.294284
-28.968501 -3.412999 -0.782803
-28.631757 -2.1139 -1.270439
-28.142994 -3.286167 -1.294284
-27.322769 -3.088458 -1.842952
-26.467763 -2.932538 -2.35016
-25.691171 -2.775971 -2.85733
-39.270292 -5.844148 21.273932
-39.105463 -4.706291 21.529038
-39.270292 -5.844148 21.273932
-39.572401 -5.956258 20.248022
-40.190863 -4.073405 16.615262
-40.091124 -3.972415 17.648528
-40.228229 -4.166422 15.609764
-40.190863 -4.073405 16.615262
-40.252173 -3.013094 15.844396
-40.178949 -4.354738 14.704749
-40.228229 -4.166422 15.609764
-40.172721 -3.331104 13.868849
-40.178949 -4.354738 14.704749
-40.211244 -2.317162 13.176094
-40.172721 -3.331104 13.868849
-40.328062 -2.092168 14.146142
-40.203108 -1.189281 12.421981
-40.047767 -2.428217 12.144689
-40.211244 -2.317162 13.176094
-40.017286 0.5103 17.602307
-39.861208 -0.47099 18.378727
-40.235815 0.532301 16.557983
-40.017286 0.5103 17.602307
-40.125698 1.572564 16.806002
-40.401956 2.644596 15.089119
-40.202041 2.679929 16.160517
-40.259771 3.729961 15.487958
-40.334299 9.110627 11.689972
-40.381107 7.982504 12.374838
-40.433104 9.077898 10.663819
-40.334299 9.110627 11.689972
-40.406736 9.074337 9.65398
-40.475086 7.929514 10.302907
-40.433104 9.077898 10.663819
-40.325289 10.198633 8.996165
-40.212384 11.317053 8.190618
-40.367272 9.050249 8.635253
-40.406736 9.074337 9.65398
-40.325289 10.198633 8.996165
-39.613806 13.681793 4.797885
-39.797584 12.481715 5.482486
-39.809031 13.704697 5.725677
-39.40948 13.567872 3.866872
-39.613806 13.681793 4.797885
-39.420926 14.790853 4.110063
-38.667225 15.936527 1.740017
-38.872212 14.735508 2.306941
-39.011612 15.877951 2.612127
-38.343988 15.974908 0.912877
-38.667225 15.936527 1.740017
3 0 33 31
3 1 36 34
3 0 39 37
3 0 31 39
3 2 122 124
3 124 123 41
3 122 123 124
3 125 45 126
3 127 126 43
3 125 126 127
3 2 48 46
3 2 41 48
3 4 128 130
3 130 129 50
3 128 129 130
3 4 131 133
3 131 51 132
3 131 132 133
3 5 134 135
3 6 136 138
3 138 137 53
3 136 137 138
3 6 139 140
3 3 56 54
3 7 59 57
3 7 141 143
3 143 142 59
3 141 142 143
3 7 144 145
3 147 146 60
3 148 62 149
3 150 64 151
3 152 151 62
3 150 151 152
3 153 66 154
3 155 68 156
3 157 156 66
3 155 156 157
3 9 70 69
3 10 71 32
3 10 72 71
3 11 75 73
3 13 76 35
3 13 77 76
3 14 80 78
3 16 81 38
3 16 82 81
3 16 84 82
3 9 85 40
3 9 69 85
3 18 88 86
3 158 89 159
3 160 159 42
3 158 159 160
3 162 161 89
3 20 92 90
3 22 93 44
3 22 94 93
3 8 163 165
3 163 95 164
3 163 164 165
3 23 96 47
3 23 97 96
3 23 98 97
3 18 99 49
3 18 86 99
3 19 100 87
3 24 101 52
3 24 102 101
3 166 103 167
3 169 168 103
3 12 170 172
3 172 171 74
3 170 171 172
3 21 104 91
3 25 105 55
3 25 106 105
3 15 107 79
3 26 108 58
3 26 109 108
3 26 173 175
3 175 174 109
3 173 174 175
3 17 176 178
3 178 177 83
3 176 177 178
3 180 179 61
3 27 110 63
3 27 111 110
3 181 112 182
3 28 113 65
3 28 114 113
3 28 115 114
3 29 116 67
3 29 117 116
3 30 183 185
3 183 118 184
3 183 184 185
3 30 119 118
3 30 120 119
3 186 121 187
3 189 188 121
3 31 32 9
3 33 32 31
3 33 10 32
3 34 35 11
3 36 35 34
3 36 13 35
3 37 38 14
3 39 38 37
3 39 16 38
3 39 40 16
3 31 40 39
3 31 9 40
3 41 42 18
3 190 42 191
3 192 191 41
3 190 191 192
3 194 193 42
3 43 44 20
3 45 44 43
3 45 22 44
3 46 47 8
3 48 47 46
3 48 23 47
3 48 49 23
3 41 49 48
3 41 18 49
3 50 195 197
3 195 196 197
3 199 198 50
3 51 200 201
3 51 202 203
3 204 52 205
3 206 205 19
3 204 205 206
3 207 52 208
3 209 24 210
3 211 210 52
3 209 210 211
3 53 212 214
3 214 213 12
3 212 213 214
3 216 215 53
3 54 55 21
3 56 55 54
3 56 25 55
3 57 58 15
3 59 58 57
3 59 26 58
3 59 217 219
3 219 218 26
3 217 218 219
3 221 220 59
3 60 222 224
3 224 223 17
3 222 223 224
3 226 225 60
3 227 61 228
3 62 229 231
3 229 61 230
3 229 230 231
3 62 232 234
3 234 233 61
3 232 233 234
3 62 235 237
3 235 63 236
3 235 236 237
3 64 63 62
3 64 27 63
3 238 65 239
3 66 240 242
3 240 65 241
3 240 241 242
3 66 28 65
3 66 67 28
3 68 67 66
3 68 29 67
3 243 30 244
3 246 245 30
3 248 247 2
3 249 8 250
3 251 8 252
3 253 46 254
3 255 254 8
3 253 254 255
3 256 46 257
3 258 2 259
3 260 259 46
3 258 259 260
3 69 261 262
3 70 263 265
3 265 264 69
3 263 264 265
3 70 266 267
3 32 70 9
3 71 70 32
3 71 268 270
3 270 269 70
3 268 269 270
3 71 271 273
3 271 50 272
3 271 272 273
3 72 50 71
3 72 4 50
3 73 74 5
3 75 74 73
3 75 12 74
3 35 75 11
3 76 75 35
3 76 12 75
3 76 53 12
3 77 53 76
3 77 6 53
3 78 79 3
3 80 79 78
3 80 15 79
3 38 80 14
3 81 80 38
3 81 15 80
3 81 57 15
3 82 57 81
3 82 7 57
3 82 83 7
3 84 83 82
3 84 17 83
3 40 84 16
3 85 84 40
3 85 17 84
3 85 60 17
3 69 60 85
3 69 274 276
3 276 275 60
3 274 275 276
3 86 87 0
3 88 87 86
3 88 19 87
3 42 88 18
3 89 88 42
3 89 19 88
3 89 277 279
3 279 278 19
3 277 278 279
3 281 280 89
3 283 282 2
3 90 91 1
3 92 91 90
3 92 21 91
3 44 92 20
3 93 92 44
3 93 21 92
3 93 54 21
3 94 54 93
3 94 3 54
3 284 45 285
3 95 286 288
3 286 45 287
3 286 287 288
3 95 22 45
3 47 95 8
3 96 95 47
3 96 22 95
3 96 94 22
3 97 94 96
3 97 3 94
3 97 78 3
3 98 78 97
3 98 14 78
3 49 98 23
3 99 98 49
3 99 14 98
3 99 37 14
3 86 37 99
3 86 0 37
3 87 33 0
3 100 33 87
3 100 10 33
3 52 100 19
3 101 100 52
3 101 10 100
3 101 72 10
3 102 72 101
3 102 4 72
3 289 24 290
3 291 24 292
3 293 102 294
3 295 294 24
3 293 294 295
3 103 296 298
3 296 102 297
3 296 297 298
3 103 4 102
3 103 51 4
3 299 51 300
3 301 300 103
3 299 300 301
3 303 302 51
3 74 304 306
3 306 305 5
3 304 305 306
3 308 307 74
3 310 309 12
3 91 36 1
3 104 36 91
3 104 13 36
3 55 104 21
3 105 104 55
3 105 13 104
3 105 77 13
3 106 77 105
3 106 6 77
3 79 56 3
3 107 56 79
3 107 25 56
3 58 107 15
3 108 107 58
3 108 25 107
3 108 106 25
3 109 106 108
3 109 6 106
3 109 311 313
3 313 312 6
3 311 312 313
3 315 314 109
3 317 316 26
3 83 318 320
3 320 319 7
3 318 319 320
3 322 321 83
3 324 323 17
3 61 325 326
3 328 327 61
3 63 329 330
3 110 331 333
3 333 332 63
3 331 332 333
3 110 334 335
3 110 336 337
3 111 338 340
3 340 339 110
3 338 339 340
3 111 341 343
3 341 5 342
3 341 342 343
3 344 64 345
3 112 346 348
3 346 64 347
3 346 347 348
3 112 27 64
3 65 349 351
3 349 112 350
3 349 350 351
3 113 112 65
3 113 27 112
3 113 111 27
3 114 111 113
3 114 5 111
3 114 73 5
3 115 73 114
3 115 11 73
3 67 115 28
3 116 115 67
3 116 11 115
3 116 34 11
3 117 34 116
3 117 1 34
3 352 68 353
3 354 68 355
3 356 29 357
3 358 357 68
3 356 357 358
3 118 359 360
3 118 361 363
3 361 29 362
3 361 362 363
3 118 117 29
3 119 117 118
3 119 1 117
3 119 90 1
3 120 90 119
3 120 20 90
3 364 120 365
3 366 365 30
3 364 365 366
3 121 367 369
3 367 120 368
3 367 368 369
3 121 20 120
3 121 43 20
3 370 43 371
3 372 371 121
3 370 371 372
3 374 373 43
