ply
format ascii 1.0
element vertex 409
property float x
property float y
property float z
element face 422
property list uchar int vertex_index
end_header
-30.25631 -47.579952 43.311703
-28.25598 -55.553238 55.227112
-29.876299 -34.131741 56.108456
-29.181307 -27.797338 39.302681
-29.182905 -37.098438 63.974663
-29.843697 -41.794971 49.206223
-29.609426 -39.194122 41.523518
-29.219492 -30.772476 47.589344
-26.997787 -47.709526 63.193691
-29.647066 -45.25441 56.799969
-30.304245 -49.540039 45.868557
-29.761133 -38.003506 52.577393
-29.492466 -36.586491 48.378136
-29.560789 -32.412601 51.76609
-26.067099 -43.412228 66.610977
-29.844246 -35.648846 60.223473
-29.377169 -41.397194 60.605721
-29.826128 -39.828651 56.842674
-29.932043 -43.617485 52.997238
-29.314665 -33.885502 40.290981
-29.611273 -32.627914 36.429089
-26.935791 -33.577995 69.82058
-27.569595 -38.21994 67.246864
-30.046663 -44.9575 45.943802
-29.674246 -40.41692 45.23476
-29.285299 -35.064003 44.325485
-27.688938 -51.830311 59.389771
-28.170582 -42.529236 64.059044
-28.74552 -46.69762 60.241333
-29.175537 -50.609451 56.305775
-29.925571 -48.785744 52.870377
-30.120882 -46.823128 49.367805
-30.290636 -48.414486 44.395828
-29.797871 -36.07457 54.407066
-29.655348 -35.347607 52.160301
-29.748796 -33.385689 54.020523
-29.922941 -34.841213 58.151684
-29.829319 -37.682209 58.443874
-29.863997 -36.965126 56.39793
-29.841349 -38.919613 54.608162
-29.219557 -30.974016 39.845196
-29.421467 -33.23727 38.381706
-29.379889 -30.247162 37.831554
-26.402266 -31.296583 70.947701
-27.975637 -33.387836 68.610741
-29.945307 -43.562263 47.48959
-29.874851 -42.810604 45.597618
-29.760921 -41.144623 47.220753
-29.335569 -33.796673 47.9132
-29.367495 -35.844116 46.312138
-29.214903 -32.96402 45.934856
-29.148682 -32.307873 43.83342
-27.310057 -49.840157 61.39904
-28.502781 -37.749283 65.704666
-27.88516 -40.362949 65.724236
-28.6824 -39.86972 64.168343
-29.513643 -43.207878 58.757797
-29.064079 -43.964039 60.665615
-29.28577 -45.950462 58.611668
-28.930758 -48.765701 58.385632
-29.455669 -47.982487 56.636444
-29.637136 -49.682877 54.6353
-29.792673 -46.987293 54.852161
-29.907804 -42.519764 51.090694
-30.018545 -45.212341 51.202271
-30.000925 -44.342651 49.385609
-30.103762 -45.906937 47.612614
-29.797785 -41.680805 42.015568
-29.938995 -29.128216 34.099121
-30.262135 -50.659782 47.408707
-29.777618 -39.916378 50.904858
-29.667645 -39.274017 48.71698
-29.633112 -37.314678 50.443455
-29.482063 -34.34026 49.996632
-29.370855 -31.630707 49.537815
-25.263262 -45.715752 66.091682
-26.549551 -45.488312 65.030594
-29.597763 -36.527077 62.145729
-29.24826 -39.423859 62.387104
-29.634338 -38.619595 60.455513
-29.689041 -40.571571 58.704197
-29.763678 -42.625511 56.741138
-29.85597 -44.332726 54.912971
-29.864845 -41.568356 54.827007
-29.859524 -40.876343 52.823097
-29.451815 -36.653717 40.828156
-29.664007 -38.818283 39.543297
-29.524313 -36.100918 38.916233
-29.665274 -35.538692 36.943779
-25.566799 -33.770176 70.796364
-26.045921 -36.234825 69.68293
-26.523405 -38.537075 68.3853
-27.250443 -35.883148 68.645561
-28.297064 -35.526741 67.181747
-29.028313 -34.876801 65.691887
-29.534822 -34.347233 63.930462
-30.16828 -46.456112 44.445995
-30.143206 -45.989388 42.939182
-30.010063 -44.453358 44.260212
-29.816442 -42.147861 43.815514
-29.613148 -39.70005 43.401485
-29.557243 -38.545647 46.765751
-29.465492 -37.780785 44.82074
-29.421541 -37.089523 42.888443
-29.266308 -34.365482 42.19775
-29.141117 -31.438042 41.786777
-29.069838 -28.397903 41.241211
-26.967955 -54.327328 58.684059
-27.955404 -53.865364 57.338066
-26.855886 -40.883766 66.991814
-27.290445 -42.867664 65.446831
-27.618801 -45.117905 63.733147
-28.870567 -41.910965 62.500454
-28.478809 -44.536362 62.239254
-27.973583 -47.205254 61.865929
-28.231993 -49.121754 60.114025
-28.532822 -51.183609 57.984734
-28.78303 -53.027946 55.900856
-29.398132 -52.249535 54.184704
-29.795996 -51.412022 52.51289
-30.042192 -50.27224 51.01025
-29.955311 -46.242455 53.130249
-30.070663 -47.704647 51.15448
-30.171989 -49.212856 49.350105
-30.215942 -48.195698 47.668877
-30.201982 -47.217491 46.004543
-29.617123 -29.3908 35.942303
-29.8722 -32.14727 34.566132
-30.260061 -47.648777 42.638827
-30.294806 -48.411096 43.045429
-30.294806 -48.411096 43.045429
-30.311969 -48.828363 43.587492
-30.273473 -47.997219 43.853766
-27.93609 -56.74597 54.811571
-27.772073 -55.873162 55.925867
-29.160679 -30.438068 46.488985
-29.158385 -31.53384 45.661741
-29.217197 -31.868248 46.7621
-26.583813 -48.954813 62.909851
-26.370634 -47.828111 63.816114
-27.153922 -48.774841 62.296366
-26.739947 -50.020128 62.012525
-26.583813 -48.954813 62.909851
-29.715196 -40.250053 40.845662
-29.809376 -41.493395 41.091687
-29.703606 -40.437463 41.769543
-30.310989 -50.704701 45.643944
-30.289934 -51.264572 46.414019
-30.28319 -50.099911 46.638632
-25.66518 -44.56399 66.35133
-25.031824 -44.568165 66.825104
-25.433742 -43.416403 67.084751
-29.747609 -33.957811 35.697294
-29.77461 -35.4132 35.954639
-29.638274 -34.083303 36.686434
-28.565829 -34.099247 67.211151
-28.13635 -34.457289 67.896244
-28.405115 -33.029795 67.925648
-28.931453 -33.774277 66.466221
-28.662689 -35.201771 66.436817
-28.565829 -34.099247 67.211151
-29.694313 -32.975671 63.841636
-29.500072 -33.213532 64.755701
-29.701009 -33.91333 62.996603
-29.694313 -32.975671 63.841636
-29.094083 -30.325004 42.524511
-29.1449 -31.872957 42.810098
-29.097866 -30.75992 43.547832
-29.058444 -28.804935 42.251728
-29.105477 -29.917972 41.513994
-29.094083 -30.325004 42.524511
-27.328446 -53.07882 59.036915
-26.811969 -53.267537 59.69072
-27.17246 -52.019028 60.043576
-30.144311 -45.918322 42.08845
-30.061442 -44.964407 42.759903
-29.774009 -39.899849 38.886841
-29.715041 -38.607172 38.53212
-29.640628 -27.8137 35.773083
-29.492168 -28.285148 36.729645
-30.054901 -31.843505 33.549513
-29.905597 -30.637743 34.332627
-30.088299 -30.333978 33.316007
-30.007005 -33.34136 33.825217
-30.054901 -31.843505 33.549513
-30.32211 -49.427788 44.187004
-30.328915 -49.990565 44.923369
-30.297441 -48.977262 45.132193
-30.32211 -49.427788 44.187004
-30.311969 -48.828363 43.587492
-25.887279 -42.18894 67.338436
-25.433742 -43.416403 67.084751
-26.824305 -30.048677 70.915821
-26.139744 -30.103167 71.382844
-27.039651 -31.114957 70.397785
-26.824305 -30.048677 70.915821
-27.306413 -32.255663 69.834225
-26.669028 -32.437289 70.384141
-27.039651 -31.114957 70.397785
-27.826337 -32.160584 69.229306
-27.455714 -33.482916 69.215661
-27.306413 -32.255663 69.834225
-28.297382 -31.938549 68.591351
-27.826337 -32.160584 69.229306
-28.405115 -33.029795 67.925648
-28.297382 -31.938549 68.591351
-29.125274 -31.205767 44.611023
-29.181793 -32.635947 44.884138
-29.158385 -31.53384 45.661741
-29.097866 -30.75992 43.547832
-29.125274 -31.205767 44.611023
-26.98302 -51.023951 61.04821
-26.739947 -50.020128 62.012525
-27.499498 -50.835234 60.394406
-27.17246 -52.019028 60.043576
-26.98302 -51.023951 61.04821
-29.8944 -42.685554 41.365296
-29.888731 -42.810115 42.298096
-29.8944 -42.685554 41.365296
-29.809376 -41.493395 41.091687
-30.000426 -27.502612 33.892032
-29.801564 -27.682409 34.851492
-30.148839 -28.803681 33.137932
-30.000426 -27.502612 33.892032
-30.298142 -30.009443 32.354819
-30.088299 -30.333978 33.316007
-30.148839 -28.803681 33.137932
-30.229789 -51.910608 47.18684
-30.203536 -51.157246 48.203045
-30.229789 -51.910608 47.18684
-30.289934 -51.264572 46.414019
-30.310989 -50.704701 45.643944
-30.328915 -49.990565 44.923369
-24.536771 -45.716355 66.50119
-25.031824 -44.568165 66.825104
-24.791697 -46.866528 65.744572
-24.536771 -45.716355 66.50119
-25.503372 -46.831225 65.26511
-24.791697 -46.866528 65.744572
-26.146516 -46.717505 64.734566
-25.503372 -46.831225 65.26511
-25.906407 -45.602032 65.561138
-26.773669 -46.598919 64.112143
-26.370634 -47.828111 63.816114
-26.146516 -46.717505 64.734566
-29.645194 -37.24849 38.218588
-29.715041 -38.607172 38.53212
-29.59416 -37.459601 39.229765
-29.715674 -36.967377 37.232361
-29.645194 -37.24849 38.218588
-29.594794 -35.819805 37.930006
-29.794151 -36.783876 36.221083
-29.715674 -36.967377 37.232361
-29.794151 -36.783876 36.221083
-29.77461 -35.4132 35.954639
-28.348374 -56.440049 54.132395
-28.63111 -55.152472 54.46331
-29.884412 -32.63241 55.929905
-29.936191 -33.066975 56.921671
-25.681406 -31.372107 71.32267
-26.139744 -30.103167 71.382844
-25.263672 -32.608904 71.247001
-25.681406 -31.372107 71.32267
-25.984533 -32.533379 70.872032
-24.775718 -33.903881 71.09214
-25.263672 -32.608904 71.247001
-25.122273 -35.115088 70.606674
-24.775718 -33.903881 71.09214
-25.361833 -36.347412 70.049958
-25.122273 -35.115088 70.606674
-25.80636 -35.0025 70.239647
-25.616557 -37.479397 69.512474
-25.361833 -36.347412 70.049958
-26.284663 -37.38595 69.034115
-25.855299 -38.630522 68.863659
-25.616557 -37.479397 69.512474
-29.246817 -33.478316 65.636414
-28.931453 -33.774277 66.466221
-29.281568 -34.612017 64.811174
-29.246817 -33.478316 65.636414
-29.500072 -33.213532 64.755701
-29.73248 -35.003252 62.104236
-29.566292 -35.437155 63.038095
-29.701009 -33.91333 62.996603
-29.855722 -34.564137 61.143108
-29.721004 -36.087961 61.184601
-29.73248 -35.003252 62.104236
-29.92366 -34.250769 60.072974
-29.855722 -34.564137 61.143108
-29.963008 -33.846953 59.037079
-29.883593 -35.24503 59.187579
-29.92366 -34.250769 60.072974
-29.959513 -33.421711 57.943285
-29.963008 -33.846953 59.037079
-29.936191 -33.066975 56.921671
-29.89962 -34.486477 57.13007
-29.959513 -33.421711 57.943285
-29.274261 -27.488416 38.409834
-29.188512 -26.102854 39.08338
-27.93609 -56.74597 54.811571
-28.348374 -56.440049 54.132395
-29.99487 -44.196392 43.420418
-30.061442 -44.964407 42.759903
-30.076634 -45.221373 43.599697
-29.898059 -43.043644 43.198069
-29.99487 -44.196392 43.420418
-29.913252 -43.30061 44.037863
-29.807113 -41.914333 42.915541
-29.888731 -42.810115 42.298096
-29.898059 -43.043644 43.198069
-29.82066 -32.259383 54.885938
-29.812548 -33.758715 55.064489
-29.884412 -32.63241 55.929905
-29.723637 -31.884254 53.732547
-29.82066 -32.259383 54.885938
-29.629634 -31.397711 52.605331
-29.654792 -32.899145 52.893306
-29.723637 -31.884254 53.732547
-29.524623 -30.960733 51.499586
-29.629634 -31.397711 52.605331
-29.429656 -30.569786 50.385449
-29.465822 -32.021654 50.651953
-29.524623 -30.960733 51.499586
-29.331716 -30.098289 49.32
-29.429656 -30.569786 50.385449
-29.256035 -29.669174 48.345764
-29.295173 -31.201591 48.56358
-29.331716 -30.098289 49.32
-29.174594 -29.225448 47.244346
-29.256035 -29.669174 48.345764
-29.160679 -30.438068 46.488985
-29.174594 -29.225448 47.244346
-29.03425 -27.132986 42.0539
-29.058444 -28.804935 42.251728
-29.059904 -26.919432 41.032204
-29.03425 -27.132986 42.0539
-29.115638 -26.61915 40.062939
-29.125573 -28.09762 40.271946
-29.059904 -26.919432 41.032204
-29.188512 -26.102854 39.08338
-29.115638 -26.61915 40.062939
-26.383347 -54.49296 59.242233
-26.811969 -53.267537 59.69072
-26.54628 -55.551018 58.197607
-26.383347 -54.49296 59.242233
-27.128061 -55.260207 57.654341
-26.54628 -55.551018 58.197607
-27.621785 -55.029224 56.981344
-27.128061 -55.260207 57.654341
-27.46168 -54.096346 58.011062
-28.105692 -54.709301 56.282589
-27.772073 -55.873162 55.925867
-27.621785 -55.029224 56.981344
-26.115431 -39.751363 68.225597
-25.855299 -38.630522 68.863659
-26.281672 -40.924709 67.528854
-26.115431 -39.751363 68.225597
-26.689646 -39.71042 67.688557
-26.461492 -42.147997 66.801396
-25.887279 -42.18894 67.338436
-26.281672 -40.924709 67.528854
-28.894635 -53.889826 54.800182
-28.63111 -55.152472 54.46331
-28.519505 -54.290592 55.563984
-29.202186 -53.50062 53.942107
-28.894635 -53.889826 54.800182
-29.090581 -52.63874 55.04278
-29.462373 -53.129862 53.134647
-29.202186 -53.50062 53.942107
-29.661305 -52.711106 52.298741
-29.462373 -53.129862 53.134647
-29.597064 -51.830779 53.348797
-29.853359 -52.158333 51.503838
-29.661305 -52.711106 52.298741
-29.976458 -51.588442 50.752517
-29.853359 -52.158333 51.503838
-29.919094 -50.842131 51.76157
-30.093564 -50.963474 50.003816
-29.976458 -51.588442 50.752517
-30.158462 -50.433782 49.173744
-30.093564 -50.963474 50.003816
-30.10709 -49.742548 50.180177
-30.217062 -49.936319 48.379406
-30.203536 -51.157246 48.203045
-30.158462 -50.433782 49.173744
-30.203509 -46.853495 42.452566
-30.260061 -47.648777 42.638827
-30.199758 -46.78467 43.125443
-30.203509 -46.853495 42.452566
-30.144311 -45.918322 42.08845
-29.742487 -40.062134 39.855551
-29.715196 -40.250053 40.845662
-29.636716 -39.006203 40.533408
-29.742487 -40.062134 39.855551
-29.774009 -39.899849 38.886841
-29.373551 -28.713328 37.67427
-29.280598 -29.02225 38.567117
-29.274261 -27.488416 38.409834
-29.498506 -29.818981 36.886928
-29.373551 -28.713328 37.67427
-29.492168 -28.285148 36.729645
-29.778059 -29.259508 35.020712
-29.640628 -27.8137 35.773083
-29.801564 -27.682409 34.851492
-29.878073 -33.717489 34.765816
-29.747609 -33.957811 35.697294
-29.741737 -32.387592 35.497611
-29.878073 -33.717489 34.765816
-30.007005 -33.34136 33.825217
3 0 128 129
3 0 130 132
3 132 131 32
3 130 131 132
3 1 133 134
3 2 35 33
3 2 38 36
3 2 33 38
3 3 42 40
3 5 47 45
3 7 50 48
3 7 135 137
3 137 136 50
3 135 136 137
3 8 138 139
3 8 140 142
3 140 52 141
3 140 141 142
3 4 55 53
3 9 58 56
3 9 60 58
3 9 62 60
3 5 65 63
3 5 45 65
3 6 143 145
3 145 144 67
3 143 144 145
3 10 146 148
3 148 147 69
3 146 147 148
3 11 72 70
3 13 73 34
3 13 74 73
3 14 149 151
3 149 75 150
3 149 150 151
3 14 76 75
3 15 79 77
3 17 80 37
3 17 81 80
3 17 83 81
3 11 84 39
3 11 70 84
3 19 87 85
3 20 88 41
3 20 152 154
3 154 153 88
3 152 153 154
3 21 89 43
3 21 90 89
3 21 92 90
3 155 93 156
3 157 156 44
3 155 156 157
3 158 94 159
3 160 159 93
3 158 159 160
3 161 95 162
3 164 163 95
3 23 98 96
3 24 99 46
3 24 100 99
3 12 101 71
3 25 102 49
3 25 103 102
3 25 104 103
3 165 105 166
3 167 166 51
3 165 166 167
3 168 106 169
3 170 169 105
3 168 169 170
3 26 171 173
3 171 107 172
3 171 172 173
3 26 108 107
3 22 109 91
3 27 110 54
3 27 111 110
3 16 112 78
3 28 113 57
3 28 114 113
3 28 115 114
3 29 116 59
3 29 117 116
3 29 118 117
3 30 119 61
3 30 120 119
3 18 121 82
3 31 122 64
3 31 123 122
3 31 124 123
3 23 125 66
3 23 96 125
3 175 174 97
3 177 176 86
3 178 126 179
3 180 127 181
3 182 181 68
3 180 181 182
3 184 183 127
3 32 185 187
3 187 186 10
3 185 186 187
3 189 188 32
3 33 34 11
3 35 34 33
3 35 13 34
3 190 14 191
3 36 37 15
3 38 37 36
3 38 17 37
3 38 39 17
3 33 39 38
3 33 11 39
3 40 41 19
3 42 41 40
3 42 20 41
3 192 43 193
3 194 43 195
3 196 21 197
3 198 197 43
3 196 197 198
3 199 44 200
3 201 200 21
3 199 200 201
3 202 44 203
3 205 204 44
3 45 46 23
3 47 46 45
3 47 24 46
3 48 49 12
3 50 49 48
3 50 25 49
3 50 51 25
3 206 51 207
3 208 207 50
3 206 207 208
3 210 209 51
3 52 211 212
3 52 213 215
3 213 26 214
3 213 214 215
3 53 54 22
3 55 54 53
3 55 27 54
3 56 57 16
3 58 57 56
3 58 28 57
3 58 59 28
3 60 59 58
3 60 29 59
3 60 61 29
3 62 61 60
3 62 30 61
3 63 64 18
3 65 64 63
3 65 31 64
3 65 66 31
3 45 66 65
3 45 23 66
3 67 216 217
3 219 218 67
3 220 68 221
3 222 68 223
3 226 225 68
3 224 225 226
3 69 227 228
3 230 229 69
3 232 231 10
3 70 71 5
3 72 71 70
3 72 12 71
3 34 72 11
3 73 72 34
3 73 12 72
3 73 48 12
3 74 48 73
3 74 7 48
3 75 233 234
3 75 235 236
3 75 237 238
3 76 239 241
3 241 240 75
3 239 240 241
3 76 242 244
3 242 8 243
3 242 243 244
3 77 78 4
3 79 78 77
3 79 16 78
3 37 79 15
3 80 79 37
3 80 16 79
3 80 56 16
3 81 56 80
3 81 9 56
3 81 82 9
3 83 82 81
3 83 18 82
3 39 83 17
3 84 83 39
3 84 18 83
3 84 63 18
3 70 63 84
3 70 5 63
3 85 86 6
3 87 86 85
3 87 245 247
3 247 246 86
3 245 246 247
3 41 87 19
3 88 87 41
3 88 248 250
3 250 249 87
3 248 249 250
3 88 251 252
3 254 253 88
3 256 255 1
3 258 257 2
3 43 259 260
3 89 261 263
3 263 262 43
3 261 262 263
3 89 264 265
3 89 266 267
3 90 268 270
3 270 269 89
3 268 269 270
3 90 271 272
3 90 273 275
3 273 91 274
3 273 274 275
3 92 91 90
3 92 22 91
3 44 92 21
3 93 92 44
3 93 22 92
3 93 53 22
3 94 53 93
3 94 4 53
3 276 94 277
3 95 278 280
3 278 94 279
3 278 279 280
3 95 4 94
3 95 77 4
3 281 77 282
3 283 282 95
3 281 282 283
3 284 15 285
3 286 285 77
3 284 285 286
3 287 15 288
3 289 36 290
3 291 290 15
3 289 290 291
3 292 36 293
3 294 2 295
3 296 295 36
3 294 295 296
3 298 297 3
3 300 299 1
3 96 97 0
3 98 97 96
3 98 301 303
3 303 302 97
3 301 302 303
3 46 98 23
3 99 98 46
3 99 304 306
3 306 305 98
3 304 305 306
3 99 307 309
3 307 67 308
3 307 308 309
3 100 67 99
3 100 6 67
3 71 47 5
3 101 47 71
3 101 24 47
3 49 101 12
3 102 101 49
3 102 24 101
3 102 100 24
3 103 100 102
3 103 6 100
3 103 85 6
3 104 85 103
3 104 19 85
3 51 104 25
3 105 104 51
3 105 19 104
3 105 40 19
3 106 40 105
3 106 3 40
3 310 35 311
3 312 311 2
3 310 311 312
3 313 35 314
3 315 13 316
3 317 316 35
3 315 316 317
3 318 13 319
3 320 74 321
3 322 321 13
3 320 321 322
3 323 74 324
3 325 7 326
3 327 326 74
3 325 326 327
3 328 7 329
3 331 330 7
3 332 106 333
3 334 106 335
3 336 3 337
3 338 337 106
3 336 337 338
3 340 339 3
3 107 341 342
3 107 343 344
3 107 345 346
3 108 347 349
3 349 348 107
3 347 348 349
3 108 350 352
3 350 1 351
3 350 351 352
3 91 353 354
3 109 355 357
3 357 356 91
3 355 356 357
3 109 358 360
3 358 14 359
3 358 359 360
3 54 109 22
3 110 109 54
3 110 14 109
3 110 76 14
3 111 76 110
3 111 8 76
3 78 55 4
3 112 55 78
3 112 27 55
3 57 112 16
3 113 112 57
3 113 27 112
3 113 111 27
3 114 111 113
3 114 8 111
3 114 52 8
3 115 52 114
3 115 26 52
3 59 115 28
3 116 115 59
3 116 26 115
3 116 108 26
3 117 108 116
3 117 1 108
3 117 361 363
3 363 362 1
3 361 362 363
3 118 364 366
3 366 365 117
3 364 365 366
3 118 367 368
3 61 118 29
3 119 118 61
3 119 369 371
3 371 370 118
3 369 370 371
3 119 372 373
3 120 374 376
3 376 375 119
3 374 375 376
3 120 377 378
3 82 62 9
3 121 62 82
3 121 30 62
3 64 121 18
3 122 121 64
3 122 30 121
3 122 120 30
3 123 120 122
3 123 379 381
3 381 380 120
3 379 380 381
3 123 382 384
3 382 69 383
3 382 383 384
3 124 69 123
3 124 10 69
3 66 124 31
3 125 124 66
3 125 10 124
3 125 32 10
3 96 32 125
3 96 0 32
3 97 385 387
3 387 386 0
3 385 386 387
3 389 388 97
3 86 390 392
3 392 391 6
3 390 391 392
3 394 393 86
3 395 42 396
3 397 396 3
3 395 396 397
3 126 398 400
3 398 42 399
3 398 399 400
3 126 20 42
3 68 401 403
3 401 126 402
3 401 402 403
3 127 126 68
3 127 20 126
3 127 404 406
3 406 405 20
3 404 405 406
3 408 407 127
