ply
format ascii 1.0
element vertex 153
property float x
property float y
property float z
element face 125
property list uchar int vertex_index
end_header
35.547741 -37.839806 -46.011456
33.972427 -45.630245 -42.836975
34.857605 -19.433697 -55.986134
35.270535 -46.513367 -39.087589
36.83567 -39.206902 -42.446362
36.51329 -29.862684 -49.340591
34.382202 -27.779234 -52.791004
34.698872 -42.052441 -44.408627
35.478233 -42.485828 -42.677288
36.236477 -38.587696 -44.297421
37.529099 -35.372566 -43.92709
36.908474 -34.628716 -45.836403
37.362427 -30.781147 -47.445267
35.992432 -34.008961 -47.744385
32.99527 -45.163841 -44.604057
33.869907 -41.162849 -46.160355
34.52541 -37.139961 -47.81456
33.515812 -18.572008 -57.452484
36.566429 -43.428593 -38.566628
34.667152 -46.217312 -40.98391
36.129211 -42.935974 -40.690201
36.922554 -25.849354 -50.821693
35.063446 -33.038177 -49.474491
35.518314 -28.922586 -51.078964
35.832661 -24.903648 -52.648933
34.667114 -23.722582 -54.364014
32.472871 -44.851942 -45.40719
32.023717 -46.871389 -44.594645
32.91019 -42.851446 -46.185339
33.432588 -43.163345 -45.382206
32.472871 -44.851942 -45.40719
33.317745 -40.851074 -46.956081
32.91019 -42.851446 -46.185339
34.849342 -17.408171 -56.771166
35.494346 -17.913564 -55.924408
34.186708 -19.002852 -56.719309
34.178446 -16.977326 -57.504341
34.849342 -17.408171 -56.771166
35.454127 -46.740595 -38.049724
34.773933 -48.301317 -38.240923
35.918482 -44.97098 -38.827109
36.102074 -45.198208 -37.789244
35.454127 -46.740595 -38.049724
34.319789 -45.923778 -41.910443
33.87696 -47.73062 -41.116444
33.529598 -47.437086 -42.042977
37.060663 -39.572187 -41.370738
36.707434 -41.436723 -40.492657
36.48244 -41.071438 -41.568281
37.387554 -37.7323 -42.182353
37.060663 -39.572187 -41.370738
38.024546 -33.837774 -43.734533
37.78047 -33.423617 -44.75882
37.125631 -28.322242 -49.188591
37.550199 -28.781473 -48.240929
36.937858 -30.321916 -48.392929
36.717922 -27.856019 -50.081142
37.330263 -26.315576 -49.929142
37.125631 -28.322242 -49.188591
34.249874 -34.744062 -49.411686
34.794428 -35.089069 -48.644526
33.980856 -36.794954 -48.581721
34.950258 -28.35091 -51.934984
34.74681 -30.528782 -51.071321
34.178754 -29.957107 -51.927341
35.441742 -20.086143 -55.125132
35.494346 -17.913564 -55.924408
34.512552 -48.175885 -39.16811
34.773933 -48.301317 -38.240923
37.470157 -33.051693 -45.713476
37.78047 -33.423617 -44.75882
37.218787 -35.000641 -44.881746
37.13545 -32.704932 -46.640835
37.697134 -31.127908 -46.517908
37.470157 -33.051693 -45.713476
33.580467 -29.405127 -52.693569
34.178754 -29.957107 -51.927341
33.752994 -27.414105 -53.478817
33.580467 -29.405127 -52.693569
33.082918 -47.202635 -42.942825
33.529598 -47.437086 -42.042977
32.59434 -46.969432 -43.826366
32.023717 -46.871389 -44.594645
33.483849 -45.397043 -43.720516
33.082918 -47.202635 -42.942825
32.59434 -46.969432 -43.826366
33.645497 -38.83963 -47.783184
34.197659 -39.151405 -46.987458
33.317745 -40.851074 -46.956081
33.980856 -36.794954 -48.581721
33.645497 -38.83963 -47.783184
33.483352 -16.288601 -58.345831
34.178446 -16.977326 -57.504341
32.814691 -17.836296 -58.230271
33.483352 -16.288601 -58.345831
36.691168 -43.572648 -37.596905
36.102074 -45.198208 -37.789244
37.086424 -41.836331 -38.431601
36.691168 -43.572648 -37.596905
34.210861 -48.027857 -40.11627
33.87696 -47.73062 -41.116444
34.968844 -46.36534 -40.03575
34.512552 -48.175885 -39.16811
34.210861 -48.027857 -40.11627
36.926043 -41.683033 -39.43087
36.34782 -43.182283 -39.628415
36.707434 -41.436723 -40.492657
37.086424 -41.836331 -38.431601
36.926043 -41.683033 -39.43087
37.734268 -35.815132 -42.922716
37.387554 -37.7323 -42.182353
37.182384 -37.289734 -43.186726
37.734268 -35.815132 -42.922716
38.024546 -33.837774 -43.734533
37.917864 -29.145947 -47.265215
37.697134 -31.127908 -46.517908
37.917864 -29.145947 -47.265215
37.550199 -28.781473 -48.240929
37.44619 -24.220844 -50.769689
37.330263 -26.315576 -49.929142
36.994026 -23.900148 -51.629959
37.44619 -24.220844 -50.769689
34.519376 -32.586578 -50.269085
34.249874 -34.744062 -49.411686
35.29088 -30.980382 -50.276727
34.519376 -32.586578 -50.269085
34.74681 -30.528782 -51.071321
36.449079 -23.427295 -52.543579
36.994026 -23.900148 -51.629959
36.377607 -25.376501 -51.735313
35.92927 -22.821118 -53.456531
36.449079 -23.427295 -52.543579
35.346497 -22.230585 -54.314072
35.92927 -22.821118 -53.456531
35.249887 -24.313115 -53.506473
34.76236 -21.578139 -55.175074
35.441742 -20.086143 -55.125132
35.346497 -22.230585 -54.314072
33.89545 -25.385779 -54.265322
34.524658 -25.750908 -53.577509
33.752994 -27.414105 -53.478817
34.010013 -23.301383 -55.086436
33.89545 -25.385779 -54.265322
34.105259 -21.15694 -55.897496
34.76236 -21.578139 -55.175074
34.010013 -23.301383 -55.086436
33.434362 -20.726096 -56.630671
34.186708 -19.002852 -56.719309
34.105259 -21.15694 -55.897496
32.73139 -20.032397 -57.398018
33.434362 -20.726096 -56.630671
32.814691 -17.836296 -58.230271
32.73139 -20.032397 -57.398018
3 0 9 7
3 0 11 9
3 0 13 11
3 26 14 27
3 28 15 29
3 30 29 14
3 28 29 30
3 32 31 15
3 2 33 34
3 2 35 37
3 35 17 36
3 35 36 37
3 3 38 39
3 3 40 42
3 40 18 41
3 40 41 42
3 1 43 45
3 43 19 44
3 43 44 45
3 4 20 8
3 4 46 48
3 48 47 20
3 46 47 48
3 4 49 50
3 52 51 10
3 5 53 55
3 55 54 12
3 53 54 55
3 5 56 58
3 56 21 57
3 56 57 58
3 59 22 60
3 61 60 16
3 59 60 61
3 6 62 64
3 62 23 63
3 62 63 64
3 6 24 23
3 6 25 24
3 65 2 66
3 67 3 68
3 7 8 1
3 9 8 7
3 9 4 8
3 9 10 4
3 11 10 9
3 11 69 71
3 71 70 10
3 69 70 71
3 11 72 74
3 72 12 73
3 72 73 74
3 13 12 11
3 13 5 12
3 75 6 76
3 78 77 6
3 79 1 80
3 14 81 82
3 14 83 85
3 83 1 84
3 83 84 85
3 14 7 1
3 15 7 14
3 15 0 7
3 15 16 0
3 86 16 87
3 88 87 15
3 86 87 88
3 90 89 16
3 17 91 92
3 17 93 94
3 18 95 96
3 18 97 98
3 19 99 100
3 19 101 103
3 101 3 102
3 101 102 103
3 8 19 1
3 20 19 8
3 20 3 19
3 20 18 3
3 104 18 105
3 106 105 20
3 104 105 106
3 108 107 18
3 10 109 111
3 111 110 4
3 109 110 111
3 113 112 10
3 12 114 115
3 117 116 12
3 21 118 119
3 21 120 121
3 16 13 0
3 22 13 16
3 22 5 13
3 122 22 123
3 23 124 126
3 124 22 125
3 124 125 126
3 23 5 22
3 23 21 5
3 24 21 23
3 24 127 129
3 129 128 21
3 127 128 129
3 24 130 131
3 25 132 134
3 134 133 24
3 132 133 134
3 25 135 137
3 135 2 136
3 135 136 137
3 138 25 139
3 140 139 6
3 138 139 140
3 141 25 142
3 143 2 144
3 145 144 25
3 143 144 145
3 146 17 147
3 148 147 2
3 146 147 148
3 149 17 150
3 152 151 17
