ply
format ascii 1.0
element vertex 326
property float x
property float y
property float z
element face 350
property list uchar int vertex_index
end_header
0.428223 62.079052 -47.410851
6.071878 88.000343 -44.613766
8.540997 63.255203 -50.456841
3.89147 50.611832 -51.221378
3.332971 75.180359 -47.06218
12.8407 77.410286 -49.363594
16.534964 90.682693 -45.302849
12.955297 63.173347 -51.139145
10.150247 56.249138 -51.45237
1.092664 85.593727 -43.327217
-0.041718 79.493652 -44.523949
4.63765 81.683571 -46.237087
8.038297 76.455521 -48.535767
9.787875 83.392479 -47.374176
2.232996 91.40303 -41.03204
4.374492 62.968815 -49.228149
2.407654 56.58334 -49.430809
6.403233 56.612938 -50.766125
7.560699 49.784714 -51.964203
1.968162 68.288681 -47.405254
6.146541 69.685287 -48.985294
10.779076 70.376343 -50.104755
15.383924 70.827072 -50.568146
7.675148 93.81398 -41.953545
13.173433 95.469955 -42.175282
11.458139 89.683609 -45.356598
14.863297 84.293373 -47.86274
17.670345 78.048195 -49.468719
15.06919 63.478512 -51.231594
3.534416 86.81102 -44.062176
2.880333 83.728889 -44.886951
5.417623 84.93959 -45.557938
7.283359 82.55114 -46.939156
8.041951 85.97612 -46.078285
-0.283489 58.905254 -47.507839
-0.423398 89.877251 -40.333939
0.176132 92.401253 -39.035789
6.499353 62.96479 -49.959423
5.317925 59.803925 -50.007427
7.389494 59.807594 -50.587509
10.875859 52.734257 -51.822826
9.011549 52.889877 -51.684776
1.548251 77.462692 -45.803909
0.935283 74.258408 -46.022064
0.478861 70.934067 -46.230518
2.535097 71.862312 -47.198895
3.922356 69.103958 -48.214756
4.896991 72.377853 -48.151958
10.39942 77.000694 -49.016449
9.621163 73.604095 -49.418224
11.999143 73.969505 -49.822144
13.085855 70.794601 -50.398693
14.254725 74.301788 -50.044601
14.976637 93.271469 -43.837879
12.161475 92.686913 -43.87851
14.131002 90.339096 -45.409489
13.359569 87.361961 -46.644241
15.862379 87.555275 -46.729485
18.672007 81.405151 -48.631306
3.241642 53.629696 -50.355186
1.470138 53.705803 -49.632935
2.162569 50.770496 -50.671871
10.738596 63.452293 -50.850136
9.428241 59.71788 -51.008495
11.526132 59.83041 -51.277443
0.412305 82.667572 -43.95816
2.197864 80.630165 -45.436699
3.963081 78.495941 -46.713665
5.6514 75.894768 -47.869003
6.442631 79.2911 -47.473331
8.987713 79.934113 -48.079395
11.443811 80.602898 -48.455406
18.320171 87.911064 -46.470192
-0.870078 87.050667 -41.546886
1.655059 88.654442 -42.267807
4.238458 89.870667 -42.945858
2.34351 62.481956 -48.409122
1.471908 59.395813 -48.454041
3.398034 59.614597 -49.331532
4.330126 56.595242 -50.172081
5.230478 53.56218 -50.956295
8.245755 56.315083 -51.184509
7.063345 53.083477 -51.408825
5.717938 50.250023 -51.661701
6.188073 46.783661 -52.384338
-0.708805 64.583618 -46.301495
-0.074422 67.779205 -46.302536
1.221365 65.096603 -47.43853
3.284893 65.675865 -48.397457
5.351889 66.251617 -49.15834
7.508834 66.73381 -49.789162
7.212125 73.208107 -48.831486
8.421195 70.351181 -49.58078
9.672305 66.790909 -50.309887
11.948254 67.047005 -50.671349
14.090514 67.166206 -50.880527
16.449327 66.899994 -50.977127
2.860618 93.976059 -39.542622
4.922545 92.819748 -41.498955
6.675768 91.000839 -43.347797
10.404963 94.89267 -42.03965
9.530905 91.943611 -43.728783
8.603617 89.106705 -44.950279
10.639567 86.651993 -46.476181
12.465988 84.109276 -47.665737
13.777616 80.999077 -48.697304
17.237043 84.722961 -47.757648
16.353613 81.368675 -48.748978
15.23005 77.769081 -49.517792
16.633537 74.475143 -50.110813
17.606625 70.833992 -50.566978
0.7273 56.37286 -48.637569
15.411193 61.406948 -51.35441
16.117114 63.128315 -51.240175
0.072367 60.492153 -47.459345
-0.837379 60.136398 -46.895218
-0.481522 61.723297 -46.846724
-0.654705 92.915932 -37.953075
-1.063214 91.704445 -38.614645
10.169579 51.112091 -51.958864
11.053156 50.645376 -51.993357
15.7558 91.977081 -44.570364
16.251252 93.364182 -43.75016
17.030416 92.069794 -44.482645
0.752485 84.13065 -43.642688
-0.474831 83.458225 -43.172512
-0.134651 84.921302 -42.85704
-1.798088 87.703675 -40.557323
-2.042631 86.259365 -41.089475
-1.33502 65.697842 -45.701441
-1.567728 64.149242 -45.701514
-1.118111 78.853752 -43.976056
-0.952435 80.404056 -43.742405
3.341929 95.269142 -38.654803
1.932159 94.503578 -38.44496
6.298846 93.316864 -41.72625
5.294519 94.071095 -40.723884
6.67082 94.56821 -40.951179
13.618415 96.802853 -41.117086
14.499892 95.712704 -42.088131
12.260541 96.367363 -41.27014
13.618415 96.802853 -41.117086
11.789198 95.181312 -42.107466
10.876306 96.078721 -41.202324
12.260541 96.367363 -41.27014
18.451088 84.618336 -47.669485
17.778607 86.317013 -47.11392
18.992652 86.212387 -47.025757
18.695191 70.563835 -50.506301
18.292943 72.582783 -50.292315
18.092616 68.776043 -50.732023
18.695191 70.563835 -50.506301
0.61078 53.548069 -49.228043
0.966271 52.229979 -49.813881
14.399055 61.52932 -51.340584
13.342109 61.376738 -51.294359
14.012244 63.32593 -51.18537
14.399055 61.52932 -51.340584
15.411193 61.406948 -51.35441
-1.092087 58.702585 -46.956772
-0.837379 60.136398 -46.895218
-0.651773 57.474266 -47.564952
-1.092087 58.702585 -46.956772
-1.362979 90.442444 -39.26372
-1.574748 89.116967 -39.95085
-0.123633 91.139252 -39.684864
-1.362979 90.442444 -39.26372
-1.063214 91.704445 -38.614645
9.237424 51.189901 -51.889839
9.943704 52.812067 -51.753801
10.169579 51.112091 -51.958864
8.511999 49.63732 -52.029552
8.286124 51.337295 -51.824489
9.237424 51.189901 -51.889839
7.78081 48.140124 -52.216711
8.511999 49.63732 -52.029552
0.446347 76.851528 -45.292755
-0.348638 77.867008 -44.652775
0.753267 78.478172 -45.163929
0.139863 75.249386 -45.401832
0.446347 76.851528 -45.292755
1.241767 75.86055 -45.912987
-0.097968 73.738255 -45.472309
0.139863 75.249386 -45.401832
0.707072 72.596238 -46.126291
-0.326179 72.076085 -45.576536
-0.097968 73.738255 -45.472309
8.120631 95.190582 -41.036659
6.67082 94.56821 -40.951179
15.401495 94.613461 -42.919429
16.251252 93.364182 -43.75016
14.075035 94.370712 -43.00658
14.499892 95.712704 -42.088131
15.401495 94.613461 -42.919429
19.828741 81.201103 -48.499237
19.168571 82.95943 -48.106314
19.340817 79.595139 -48.959537
19.828741 81.201103 -48.499237
18.839986 77.916661 -49.378244
18.171176 79.726673 -49.050013
19.340817 79.595139 -48.959537
18.324803 76.189884 -49.743185
18.839986 77.916661 -49.378244
1.312486 50.762325 -50.333349
0.966271 52.229979 -49.813881
1.816353 52.23815 -50.152403
12.627527 59.705269 -51.363508
12.240714 61.501879 -51.208294
13.342109 61.376738 -51.294359
11.857232 57.9406 -51.448942
12.627527 59.705269 -51.363508
11.169289 56.149963 -51.536406
10.83819 58.039774 -51.364907
11.857232 57.9406 -51.448942
11.532095 54.392523 -51.721633
10.513053 54.491698 -51.637598
11.169289 56.149963 -51.536406
11.777918 52.317847 -51.861343
11.532095 54.392523 -51.721633
11.053156 50.645376 -51.993357
11.777918 52.317847 -51.861343
-0.725423 81.991017 -43.459511
-0.474831 83.458225 -43.172512
0.185293 81.080612 -44.241055
-0.952435 80.404056 -43.742405
-0.725423 81.991017 -43.459511
17.7864 90.790168 -45.123345
17.030416 92.069794 -44.482645
18.679004 89.404354 -45.707016
17.427567 89.296878 -45.886521
17.7864 90.790168 -45.123345
19.435709 87.877552 -46.295276
18.679004 89.404354 -45.707016
18.992652 86.212387 -47.025757
19.435709 87.877552 -46.295276
3.340314 49.206524 -51.457716
4.193055 49.118346 -51.632496
-1.116022 85.649773 -41.966875
-2.042631 86.259365 -41.089475
0.111293 86.322197 -42.437051
-0.134651 84.921302 -42.85704
-1.116022 85.649773 -41.966875
-0.646738 88.463959 -40.940413
-1.798088 87.703675 -40.557323
-1.574748 89.116967 -39.95085
5.106289 48.937441 -51.852657
4.193055 49.118346 -51.632496
4.804704 50.430927 -51.44154
5.341357 47.20426 -52.213976
5.106289 48.937441 -51.852657
5.953005 48.516842 -52.02302
5.563813 45.602539 -52.62417
5.341357 47.20426 -52.213976
7.094497 46.639597 -52.426778
6.874386 48.284188 -52.17427
7.78081 48.140124 -52.216711
6.425314 45.245737 -52.680194
7.094497 46.639597 -52.426778
5.563813 45.602539 -52.62417
6.425314 45.245737 -52.680194
-1.050037 62.97558 -46.292046
-1.567728 64.149242 -45.701514
-0.140291 63.331335 -46.856173
-0.481522 61.723297 -46.846724
-1.050037 62.97558 -46.292046
-1.118111 78.853752 -43.976056
-0.348638 77.867008 -44.652775
-0.486178 70.463657 -45.667591
-0.326179 72.076085 -45.576536
-0.76282 68.886226 -45.7036
-0.486178 70.463657 -45.667591
0.202219 69.356636 -46.266527
-1.017828 67.295635 -45.701962
-0.76282 68.886226 -45.7036
-0.391614 66.181411 -46.302016
-1.33502 65.697842 -45.701441
-1.017828 67.295635 -45.701962
16.807183 64.839056 -51.112942
16.117114 63.128315 -51.240175
15.759259 65.189253 -51.10436
0.589916 93.716175 -38.191544
-0.654705 92.915932 -37.953075
1.518375 93.188656 -39.289206
0.589916 93.716175 -38.191544
1.932159 94.503578 -38.44496
4.263555 94.64925 -39.745718
3.341929 95.269142 -38.654803
3.891582 93.397904 -40.520789
4.263555 94.64925 -39.745718
5.294519 94.071095 -40.723884
9.485539 95.729927 -41.079712
10.876306 96.078721 -41.202324
9.040056 94.353325 -41.996598
8.120631 95.190582 -41.036659
9.485539 95.729927 -41.079712
17.954525 83.064056 -48.194477
18.451088 84.618336 -47.669485
19.168571 82.95943 -48.106314
17.806399 74.403358 -50.064232
17.151941 76.261669 -49.789766
18.324803 76.189884 -49.743185
17.120081 72.654567 -50.338895
17.806399 74.403358 -50.064232
18.292943 72.582783 -50.292315
17.513967 66.809044 -50.937098
17.027976 68.866993 -50.772053
18.092616 68.776043 -50.732023
17.871823 64.748106 -51.072912
16.807183 64.839056 -51.112942
17.513967 66.809044 -50.937098
-0.146378 56.208069 -48.129818
-0.651773 57.474266 -47.564952
0.221905 57.639057 -48.072704
0.239361 54.881597 -48.73036
1.098719 55.039332 -49.135252
0.61078 53.548069 -49.228043
-0.146378 56.208069 -48.129818
0.239361 54.881597 -48.73036
2.475864 49.285856 -51.182963
3.027019 50.691164 -50.946624
3.340314 49.206524 -51.457716
1.655475 49.375929 -50.933487
2.475864 49.285856 -51.182963
1.96877 47.891289 -51.444579
1.312486 50.762325 -50.333349
1.655475 49.375929 -50.933487
3 113 112 28
3 1 31 29
3 1 33 31
3 0 114 116
3 114 34 115
3 114 115 116
3 117 36 118
3 2 39 37
3 120 119 40
3 4 43 42
3 4 45 43
3 4 47 45
3 5 50 48
3 5 52 50
3 6 121 123
3 121 53 122
3 121 122 123
3 6 55 53
3 6 57 55
3 3 61 59
3 7 64 62
3 9 124 126
3 124 65 125
3 124 125 126
3 11 66 30
3 11 67 66
3 11 69 67
3 13 70 32
3 13 71 70
3 127 73 128
3 14 74 35
3 14 75 74
3 15 78 76
3 17 79 38
3 17 80 79
3 8 81 63
3 18 82 41
3 18 83 82
3 18 84 83
3 129 85 130
3 10 131 132
3 19 86 44
3 19 87 86
3 19 88 87
3 20 89 46
3 20 90 89
3 12 91 68
3 21 92 49
3 21 93 92
3 21 94 93
3 22 95 51
3 22 96 95
3 133 97 134
3 23 135 137
3 135 98 136
3 135 136 137
3 23 99 98
3 24 138 139
3 24 140 141
3 24 142 144
3 142 100 143
3 142 143 144
3 25 101 54
3 25 102 101
3 25 103 102
3 26 104 56
3 26 105 104
3 145 106 146
3 147 146 72
3 145 146 147
3 27 107 58
3 27 108 107
3 27 109 108
3 148 110 149
3 151 150 110
3 16 111 77
3 153 152 60
3 28 154 156
3 156 155 7
3 154 155 156
3 158 157 28
3 29 30 9
3 31 30 29
3 31 11 30
3 31 32 11
3 33 32 31
3 33 13 32
3 34 159 160
3 34 161 162
3 163 35 164
3 36 165 167
3 165 35 166
3 165 166 167
3 36 14 35
3 37 38 15
3 39 38 37
3 39 17 38
3 40 41 8
3 168 41 169
3 170 169 40
3 168 169 170
3 171 18 172
3 173 172 41
3 171 172 173
3 175 174 18
3 42 176 178
3 178 177 10
3 176 177 178
3 43 179 181
3 181 180 42
3 179 180 181
3 43 182 183
3 43 184 186
3 184 44 185
3 184 185 186
3 45 44 43
3 45 19 44
3 45 46 19
3 47 46 45
3 47 20 46
3 48 49 12
3 50 49 48
3 50 21 49
3 50 51 21
3 52 51 50
3 52 22 51
3 187 23 188
3 53 189 190
3 53 191 193
3 191 24 192
3 191 192 193
3 53 54 24
3 55 54 53
3 55 25 54
3 55 56 25
3 57 56 55
3 57 26 56
3 194 58 195
3 196 58 197
3 198 27 199
3 200 199 58
3 198 199 200
3 202 201 27
3 59 60 16
3 61 60 59
3 61 203 205
3 205 204 60
3 203 204 205
3 62 63 2
3 64 63 62
3 64 8 63
3 206 64 207
3 208 207 7
3 206 207 208
3 209 64 210
3 211 8 212
3 213 212 64
3 211 212 213
3 214 40 215
3 216 215 8
3 214 215 216
3 217 40 218
3 220 219 40
3 65 221 222
3 65 223 225
3 223 10 224
3 223 224 225
3 30 65 9
3 66 65 30
3 66 10 65
3 66 42 10
3 67 42 66
3 67 4 42
3 67 68 4
3 69 68 67
3 69 12 68
3 32 69 11
3 70 69 32
3 70 12 69
3 70 48 12
3 71 48 70
3 71 5 48
3 226 6 227
3 228 72 229
3 230 229 6
3 228 229 230
3 231 72 232
3 234 233 72
3 236 235 3
3 73 237 238
3 73 239 241
3 239 9 240
3 239 240 241
3 35 242 244
3 242 73 243
3 242 243 244
3 74 73 35
3 74 9 73
3 74 29 9
3 75 29 74
3 75 1 29
3 76 77 0
3 78 77 76
3 78 16 77
3 38 78 15
3 79 78 38
3 79 16 78
3 79 59 16
3 80 59 79
3 80 3 59
3 63 39 2
3 81 39 63
3 81 17 39
3 41 81 8
3 82 81 41
3 82 17 81
3 82 80 17
3 83 80 82
3 83 3 80
3 83 245 247
3 247 246 3
3 245 246 247
3 84 248 250
3 250 249 83
3 248 249 250
3 84 251 252
3 253 84 254
3 255 254 18
3 253 254 255
3 256 84 257
3 259 258 84
3 85 260 261
3 85 262 264
3 262 0 263
3 262 263 264
3 266 265 10
3 44 267 268
3 86 269 271
3 271 270 44
3 269 270 271
3 86 272 273
3 86 274 276
3 274 85 275
3 274 275 276
3 87 85 86
3 87 0 85
3 87 76 0
3 88 76 87
3 88 15 76
3 46 88 19
3 89 88 46
3 89 15 88
3 89 37 15
3 90 37 89
3 90 2 37
3 68 47 4
3 91 47 68
3 91 20 47
3 49 91 12
3 92 91 49
3 92 20 91
3 92 90 20
3 93 90 92
3 93 2 90
3 93 62 2
3 94 62 93
3 94 7 62
3 51 94 21
3 95 94 51
3 95 7 94
3 95 28 7
3 96 28 95
3 96 277 279
3 279 278 28
3 277 278 279
3 280 36 281
3 97 282 284
3 282 36 283
3 282 283 284
3 97 14 36
3 285 97 286
3 98 287 289
3 287 97 288
3 287 288 289
3 98 14 97
3 98 75 14
3 99 75 98
3 99 1 75
3 100 290 291
3 100 292 294
3 292 23 293
3 292 293 294
3 54 100 24
3 101 100 54
3 101 23 100
3 101 99 23
3 102 99 101
3 102 1 99
3 102 33 1
3 103 33 102
3 103 13 33
3 56 103 25
3 104 103 56
3 104 13 103
3 104 71 13
3 105 71 104
3 105 5 71
3 72 57 6
3 106 57 72
3 106 26 57
3 58 295 297
3 295 106 296
3 295 296 297
3 107 106 58
3 107 26 106
3 107 105 26
3 108 105 107
3 108 5 105
3 108 52 5
3 109 52 108
3 109 22 52
3 298 109 299
3 300 299 27
3 298 299 300
3 110 301 303
3 301 109 302
3 301 302 303
3 110 22 109
3 110 96 22
3 304 96 305
3 306 305 110
3 304 305 306
3 309 308 96
3 307 308 309
3 77 34 0
3 111 34 77
3 111 310 312
3 312 311 34
3 310 311 312
3 60 111 16
3 313 111 314
3 315 314 60
3 313 314 315
3 317 316 111
3 318 61 319
3 320 319 3
3 318 319 320
3 321 61 322
3 321 322 323
3 325 324 61
