ply
format ascii 1.0
element vertex 404
property float x
property float y
property float z
element face 344
property list uchar int vertex_index
end_header
-36.557617 42.758991 13.262677
-36.23748 9.134612 22.224791
-35.186871 58.668724 6.534682
-36.351521 60.144604 -31.192137
-36.924149 26.342411 18.664936
-35.574638 70.367165 -22.593025
-37.630531 44.434753 7.488549
-35.851204 60.519714 0.547992
-34.785595 68.031776 -2.786148
-35.184544 69.514633 -9.318459
-35.353409 41.0303 18.477612
-35.551529 32.37114 21.230562
-36.858196 34.499058 16.277618
-38.306709 27.956951 13.472498
-34.938328 48.759846 15.631475
-35.998081 50.823803 9.877137
-36.841595 52.719406 3.933721
-35.508774 70.194176 -16.176226
-35.463085 24.337927 23.412035
-38.160015 19.23481 16.018391
-37.367821 39.511211 11.985182
-37.90564 40.447441 9.09131
-37.089249 43.666286 10.540902
-34.483131 67.409515 0.391394
-35.958332 42.015713 15.884727
-36.09848 37.874977 17.419367
-36.722713 38.899921 14.766443
-37.484669 35.673397 13.520698
-36.658207 60.924652 -28.206261
-36.509228 55.601166 -32.375877
-35.966171 54.620663 -34.937447
-35.905712 59.553169 -33.968266
-35.608166 54.83622 8.173018
-36.443279 51.745476 7.013088
-36.016811 55.671703 5.318001
-36.09605 61.465462 -2.650477
-36.67952 57.33353 -0.772066
-35.393112 69.838142 -12.790357
-36.208061 29.287645 20.117735
-35.502934 28.251904 22.501852
-36.240479 25.162737 21.003225
-36.095592 21.114414 22.096098
-36.844265 21.805738 19.820078
-37.536598 22.802845 17.497717
-36.236786 66.245102 -23.912889
-36.176731 65.555428 -26.903728
-35.9856 64.801605 -30.033173
-35.643471 64.262085 -32.979923
-35.518196 59.787434 3.513445
-35.043137 63.467766 1.906961
-35.299477 64.301941 -0.962934
-35.584816 64.990303 -4.337529
-35.751976 65.804565 -7.507118
-34.977951 68.880943 -5.902857
-35.456287 36.677925 20.025362
-36.185326 33.61544 18.830004
-36.886074 30.528727 17.616112
-37.606544 27.2288 16.218353
-37.60387 31.363972 14.885789
-38.206436 32.287548 12.224018
-35.747314 45.881504 14.417443
-36.279102 46.773212 11.757179
-35.461063 49.940109 12.799889
-35.156357 53.710651 11.174404
-34.786663 57.3582 9.725929
-35.166645 44.852615 17.142178
-35.222416 53.224716 -37.526497
-36.808544 47.618462 8.846822
-37.216919 48.653805 5.957278
-36.307896 56.826107 2.368718
-35.638351 69.997482 -19.442211
-35.675121 12.315855 23.801481
-35.906666 16.700529 23.053345
-38.235218 23.74913 14.916195
-36.098289 7.03733 22.434802
-35.820009 8.547473 23.289014
-36.644987 58.295741 -30.374759
-36.79833 58.685765 -28.881821
-36.504864 60.534628 -29.699199
-36.430374 57.872885 -31.784007
-36.723841 56.024022 -30.966629
-36.644987 58.295741 -30.374759
-36.532541 59.687055 -3.354476
-36.239658 61.649689 -4.263941
-35.905712 68.306134 -23.252957
-36.269649 66.265854 -22.314985
-35.938575 68.326886 -21.655053
-35.817183 67.518151 -27.789839
-35.860189 67.810658 -26.279821
-35.721617 67.141239 -29.354561
-36.081165 65.178517 -28.468451
-35.817183 67.518151 -27.789839
-35.632658 66.776855 -30.798385
-35.721617 67.141239 -29.354561
-38.00065 42.836874 6.840179
-38.138205 40.843218 7.641559
-37.768085 42.441097 8.289929
-37.831396 44.948955 5.957415
-38.00065 42.836874 6.840179
-34.656266 64.799191 2.679007
-34.890343 62.955408 3.414309
-35.404848 38.854112 19.251487
-35.130293 38.130526 20.50083
-35.078854 40.306713 19.726954
-38.172314 34.230219 11.423347
-37.845552 33.980473 12.872358
-37.81143 35.923144 12.071687
-38.519441 32.535141 10.734894
-38.172314 34.230219 11.423347
-34.748309 55.02025 11.877123
-34.933615 53.14566 12.533228
-34.563462 56.844025 11.152886
-34.97151 55.534425 10.450166
-34.748309 55.02025 11.877123
-35.052487 46.80623 16.386827
-34.797402 46.157358 17.73536
-34.683243 48.110974 16.980008
-35.27195 55.858456 -37.112766
-35.594294 53.92269 -36.231972
-35.643828 56.556429 -35.818241
-34.91903 55.231105 -38.318638
-35.27195 55.858456 -37.112766
-35.451346 63.773363 -34.257174
-35.280337 66.212834 -33.765428
-37.245911 51.057663 3.324861
-37.433573 49.024862 4.33664
-37.029257 50.686605 4.945499
-36.938603 55.366663 0.078925
-37.104839 55.648323 -1.553306
-35.577166 67.808651 -10.038068
-35.860882 65.953617 -9.132397
-35.46826 67.659599 -8.412789
-35.825819 68.274372 -15.224106
-35.767988 68.096355 -13.531171
-35.450943 70.016159 -14.483291
-35.891903 68.240002 -16.843734
-35.825819 68.274372 -15.224106
-35.573563 70.095829 -17.809219
-35.956692 68.141655 -18.476726
-35.891903 68.240002 -16.843734
-35.415869 14.097365 24.4585
-35.29936 11.852999 24.77476
-35.194599 31.833014 22.481802
-35.1956 33.918273 21.837649
-35.143168 25.749132 24.077471
-35.163092 27.70612 23.62238
-35.48301 26.294916 22.956944
-35.10656 23.618707 24.533752
-35.143168 25.749132 24.077471
-35.413568 22.240568 23.834395
-35.057043 21.521348 24.956111
-35.10656 23.618707 24.533752
-36.295103 17.176089 21.931718
-36.001129 18.907471 22.574722
-36.389566 19.383032 21.453094
-36.181513 15.023581 22.369287
-36.295103 17.176089 21.931718
-38.093149 17.16237 16.454802
-37.790407 18.877067 17.27142
-38.450565 17.480603 15.156074
-38.093149 17.16237 16.454802
-35.559143 70.216526 -24.12447
-35.232658 72.177048 -23.469442
-37.63673 39.979326 10.538246
-38.021915 38.310165 9.856993
-37.753006 37.84205 11.303929
-34.131391 68.571545 1.260711
-34.376262 66.770065 1.921224
-34.238582 69.213291 -0.416549
-34.131391 68.571545 1.260711
-33.886843 70.375321 0.452768
-34.389814 69.524421 -2.00532
-34.634363 67.720645 -1.197377
-34.238582 69.213291 -0.416549
-34.48348 70.04784 -3.61785
-34.389814 69.524421 -2.00532
-37.753006 37.84205 11.303929
-37.81143 35.923144 12.071687
-37.426245 37.592304 12.75294
-34.824601 50.670258 14.761764
-34.579843 49.968773 16.216549
-34.579843 49.968773 16.216549
-34.683243 48.110974 16.980008
-34.324759 49.319901 17.565083
-36.980463 58.870726 -27.324789
-36.74679 61.284569 -26.715278
-36.980463 58.870726 -27.324789
-36.79833 58.685765 -28.881821
-36.797552 53.51333 -31.514246
-36.723841 56.024022 -30.966629
-36.501938 53.025858 -32.8736
-36.797552 53.51333 -31.514246
-36.2377 55.110914 -33.656662
-36.23041 52.535607 -34.154385
-36.501938 53.025858 -32.8736
-35.613598 59.022682 -35.333651
-35.643828 56.556429 -35.818241
-35.935941 57.086916 -34.452856
-36.824276 57.621089 -2.41527
-36.387785 59.399496 -1.711272
-36.532541 59.687055 -3.354476
-37.104839 55.648323 -1.553306
-36.824276 57.621089 -2.41527
-35.004936 71.519482 -12.024815
-35.288828 69.676388 -11.054408
-34.900652 71.357727 -10.288867
-35.08894 71.653851 -13.621985
-35.004936 71.519482 -12.024815
-35.146771 71.831868 -15.31492
-35.450943 70.016159 -14.483291
-35.08894 71.653851 -13.621985
-35.198511 71.961075 -16.977455
-35.146771 71.831868 -15.31492
-36.763903 19.728693 20.315084
-36.389566 19.383032 21.453094
-36.469929 21.460076 20.958088
-37.132532 20.162532 19.172263
-36.763903 19.728693 20.315084
-37.478699 20.661085 18.011083
-37.132532 20.162532 19.172263
-37.190432 22.304292 18.658898
-37.848306 21.018828 16.758054
-37.790407 18.877067 17.27142
-37.478699 20.661085 18.011083
-38.605362 26.101563 12.833678
-38.587436 28.356597 12.172248
-36.57826 64.227779 -23.035799
-36.269649 66.265854 -22.314985
-36.536079 63.944794 -24.568592
-36.57826 64.227779 -23.035799
-35.890217 68.155495 -24.784402
-35.905712 68.306134 -23.252957
-35.559143 70.216526 -24.12447
-36.206758 65.900265 -25.408309
-35.890217 68.155495 -24.784402
-35.860189 67.810658 -26.279821
-36.506052 63.599957 -26.064011
-36.536079 63.944794 -24.568592
-36.206758 65.900265 -25.408309
-36.417469 63.24004 -27.554994
-36.74679 61.284569 -26.715278
-36.506052 63.599957 -26.064011
-35.461593 66.507095 -32.27176
-35.814535 64.531845 -31.506548
-35.632658 66.776855 -30.798385
-35.280337 66.212834 -33.765428
-35.461593 66.507095 -32.27176
-38.274008 38.709623 8.442013
-38.021915 38.310165 9.856993
-38.274008 38.709623 8.442013
-38.138205 40.843218 7.641559
-35.127873 61.115242 4.217551
-35.352533 59.228079 5.024064
-34.96221 60.555887 5.72817
-35.280667 61.6276 2.710203
-35.127873 61.115242 4.217551
-34.890343 62.955408 3.414309
-34.763134 65.43864 1.149177
-34.656266 64.799191 2.679007
-34.376262 66.770065 1.921224
-35.984041 63.412109 -5.107467
-36.239658 61.649689 -4.263941
-35.840433 63.227882 -3.494003
-35.668396 65.397434 -5.922324
-36.067621 63.81924 -6.692261
-35.984041 63.412109 -5.107467
-34.579658 70.472423 -5.176204
-34.881773 68.456359 -4.344502
-34.48348 70.04784 -3.61785
-34.697845 70.785801 -6.88932
-34.579658 70.472423 -5.176204
-34.801142 71.102646 -8.597121
-35.081248 69.197788 -7.610658
-34.697845 70.785801 -6.88932
-34.900652 71.357727 -10.288867
-34.801142 71.102646 -8.597121
-35.14798 36.071665 21.235049
-35.130293 38.130526 20.50083
-35.503908 34.524532 20.627962
-35.1956 33.918273 21.837649
-35.14798 36.071665 21.235049
-38.5373 30.521895 11.548008
-38.587436 28.356597 12.172248
-38.256572 30.12225 12.848258
-38.5373 30.521895 11.548008
-38.519441 32.535141 10.734894
-35.085968 51.260389 13.34597
-35.199696 49.349978 14.215682
-34.824601 50.670258 14.761764
-35.30871 51.82538 11.987146
-35.085968 51.260389 13.34597
-34.933615 53.14566 12.533228
-34.393177 58.676327 10.406448
-34.563462 56.844025 11.152886
-34.593694 59.240026 8.907165
-34.393177 58.676327 10.406448
-34.793798 59.895288 7.311541
-34.986767 58.013462 8.130306
-34.593694 59.240026 8.907165
-34.96221 60.555887 5.72817
-34.793798 59.895288 7.311541
-34.984206 42.237919 19.154603
-35.078854 40.306713 19.726954
-34.890823 44.149076 18.486886
-34.797402 46.157358 17.73536
-35.260027 42.941457 17.809895
-34.984206 42.237919 19.154603
-34.890823 44.149076 18.486886
-35.860363 52.004559 -35.424768
-36.23041 52.535607 -34.154385
-35.488486 51.306585 -36.719293
-35.860363 52.004559 -35.424768
-35.594294 53.92269 -36.231972
-35.048147 50.678581 -37.87101
-35.488486 51.306585 -36.719293
-34.78785 52.718495 -38.651912
-35.048147 50.678581 -37.87101
-34.78785 52.718495 -38.651912
-34.91903 55.231105 -38.318638
-35.582466 61.418905 -34.751345
-35.774591 61.907627 -33.474094
-35.451346 63.773363 -34.257174
-35.613598 59.022682 -35.333651
-35.582466 61.418905 -34.751345
-36.466493 7.416563 21.474198
-36.636522 9.565385 21.12573
-37.62459 47.058481 5.19178
-37.831396 44.948955 5.957415
-37.423725 46.544279 6.722913
-37.62459 47.058481 5.19178
-37.433573 49.024862 4.33664
-36.752791 55.112952 1.649317
-36.493708 57.079819 0.798326
-36.938603 55.366663 0.078925
-37.01964 53.059601 2.431818
-36.574745 54.772756 3.151219
-36.752791 55.112952 1.649317
-37.245911 51.057663 3.324861
-37.01964 53.059601 2.431818
-36.169979 64.013063 -8.27531
-36.067621 63.81924 -6.692261
-36.169979 64.013063 -8.27531
-35.860882 65.953617 -9.132397
-35.68145 67.970405 -11.774017
-35.577166 67.808651 -10.038068
-35.288828 69.676388 -11.054408
-35.68145 67.970405 -11.774017
-35.767988 68.096355 -13.531171
-35.970432 68.142044 -20.079646
-35.956692 68.141655 -18.476726
-35.606494 70.182323 -21.017618
-35.938575 68.326886 -21.655053
-35.970432 68.142044 -20.079646
-35.2633 71.862728 -18.610448
-35.573563 70.095829 -17.809219
-35.198511 71.961075 -16.977455
-35.28479 71.931888 -20.281204
-35.2633 71.862728 -18.610448
-35.252933 72.11673 -21.856611
-35.606494 70.182323 -21.017618
-35.28479 71.931888 -20.281204
-35.232658 72.177048 -23.469442
-35.252933 72.11673 -21.856611
-35.538829 10.138094 24.077359
-35.29936 11.852999 24.77476
-35.9563 10.725234 23.013136
-35.820009 8.547473 23.289014
-35.538829 10.138094 24.077359
-35.170302 29.773396 23.117447
-35.194599 31.833014 22.481802
-35.527231 30.311522 21.866207
-35.170302 29.773396 23.117447
-35.163092 27.70612 23.62238
-35.729822 20.628811 23.176426
-35.413568 22.240568 23.834395
-35.779339 22.726171 22.754067
-35.635359 18.421869 23.65505
-35.729822 20.628811 23.176426
-36.001129 18.907471 22.574722
-35.531641 16.289702 24.084432
-35.635359 18.421869 23.65505
-35.790893 14.508192 23.427413
-35.415869 14.097365 24.4585
-35.531641 16.289702 24.084432
-36.06574 12.831245 22.743355
-35.790893 14.508192 23.427413
-36.181513 15.023581 22.369287
-36.34692 11.240623 21.955011
-35.9563 10.725234 23.013136
-36.06574 12.831245 22.743355
-36.636522 9.565385 21.12573
-36.34692 11.240623 21.955011
-38.569617 23.997653 13.555527
-38.270964 25.85304 14.194346
-38.605362 26.101563 12.833678
-38.531182 21.98165 14.158055
-38.569617 23.997653 13.555527
-38.49358 19.72449 14.709153
-38.197617 21.49197 15.467293
-38.531182 21.98165 14.158055
-38.450565 17.480603 15.156074
-38.49358 19.72449 14.709153
-36.098289 7.03733 22.434802
-36.466493 7.416563 21.474198
3 0 22 20
3 0 26 24
3 0 20 26
3 1 74 75
3 3 76 78
3 78 77 28
3 76 77 78
3 3 79 81
3 79 29 80
3 79 80 81
3 3 31 29
3 2 34 32
3 83 82 35
3 4 40 38
3 4 42 40
3 4 43 42
3 5 84 86
3 84 44 85
3 84 85 86
3 87 45 88
3 89 46 90
3 91 90 45
3 89 90 91
3 93 92 46
3 6 94 96
3 96 95 21
3 94 95 96
3 6 97 98
3 99 49 100
3 8 50 23
3 8 51 50
3 8 53 51
3 10 101 103
3 101 54 102
3 101 102 103
3 12 55 25
3 12 56 55
3 12 58 56
3 104 59 105
3 106 105 27
3 104 105 106
3 108 107 59
3 14 62 60
3 109 63 110
3 111 64 112
3 113 112 63
3 111 112 113
3 14 114 116
3 114 65 115
3 114 115 116
3 14 60 65
3 117 66 118
3 119 118 30
3 117 118 119
3 121 120 66
3 123 122 47
3 15 67 61
3 16 68 33
3 16 124 126
3 126 125 68
3 124 125 126
3 7 69 48
3 128 127 36
3 9 129 131
3 131 130 52
3 129 130 131
3 17 132 134
3 134 133 37
3 132 133 134
3 17 135 136
3 17 137 139
3 137 70 138
3 137 138 139
3 140 71 141
3 11 142 143
3 18 144 146
3 146 145 39
3 144 145 146
3 18 147 148
3 18 149 151
3 149 150 151
3 152 72 153
3 154 153 41
3 152 153 154
3 156 155 72
3 19 157 158
3 19 159 160
3 13 73 57
3 162 161 5
3 20 163 165
3 163 21 164
3 163 164 165
3 22 21 20
3 22 6 21
3 166 23 167
3 168 23 169
3 168 169 170
3 171 8 172
3 173 172 23
3 171 172 173
3 175 174 8
3 24 25 10
3 26 25 24
3 26 12 25
3 26 27 12
3 20 27 26
3 20 176 178
3 178 177 27
3 176 177 178
3 180 179 14
3 181 14 182
3 181 182 183
3 28 184 185
3 187 186 28
3 29 188 189
3 29 190 191
3 29 192 194
3 192 30 193
3 192 193 194
3 31 30 29
3 31 195 197
3 197 196 30
3 195 196 197
3 32 33 15
3 34 33 32
3 34 16 33
3 35 36 7
3 198 36 199
3 200 199 35
3 198 199 200
3 202 201 36
3 203 37 204
3 205 204 9
3 203 204 205
3 206 37 207
3 208 17 209
3 210 209 37
3 208 209 210
3 212 211 17
3 38 39 11
3 40 39 38
3 40 18 39
3 40 41 18
3 42 41 40
3 42 213 215
3 215 214 41
3 213 214 215
3 42 216 217
3 43 218 220
3 220 219 42
3 218 219 220
3 43 221 223
3 221 19 222
3 221 222 223
3 225 224 13
3 44 226 227
3 44 228 229
3 230 44 231
3 232 231 5
3 230 231 232
3 45 233 235
3 233 44 234
3 233 234 235
3 45 236 238
3 238 237 44
3 236 237 238
3 45 239 241
3 239 28 240
3 239 240 241
3 46 28 45
3 46 3 28
3 46 47 3
3 242 47 243
3 244 243 46
3 242 243 244
3 246 245 47
3 21 247 248
3 250 249 21
3 251 48 252
3 253 252 2
3 251 252 253
3 49 254 256
3 254 48 255
3 254 255 256
3 49 7 48
3 23 257 259
3 257 49 258
3 257 258 259
3 50 49 23
3 50 7 49
3 50 35 7
3 51 35 50
3 51 260 262
3 262 261 35
3 260 261 262
3 51 263 265
3 263 52 264
3 263 264 265
3 53 52 51
3 53 9 52
3 266 53 267
3 268 267 8
3 266 267 268
3 269 53 270
3 271 9 272
3 273 272 53
3 271 272 273
3 275 274 9
3 54 276 277
3 54 278 280
3 278 11 279
3 278 279 280
3 25 54 10
3 55 54 25
3 55 11 54
3 55 38 11
3 56 38 55
3 56 4 38
3 56 57 4
3 58 57 56
3 58 13 57
3 27 58 12
3 59 58 27
3 59 13 58
3 59 281 283
3 283 282 13
3 281 282 283
3 285 284 59
3 60 61 0
3 62 61 60
3 62 15 61
3 286 62 287
3 288 287 14
3 286 287 288
3 63 289 291
3 289 62 290
3 289 290 291
3 63 15 62
3 63 32 15
3 64 32 63
3 64 2 32
3 292 64 293
3 294 64 295
3 296 2 297
3 298 297 64
3 296 297 298
3 300 299 2
3 301 10 302
3 65 303 304
3 65 305 307
3 305 10 306
3 305 306 307
3 65 24 10
3 60 24 65
3 60 0 24
3 30 308 309
3 66 310 312
3 312 311 30
3 310 311 312
3 66 313 314
3 66 315 316
3 318 317 66
3 47 31 3
3 319 31 320
3 321 320 47
3 319 320 321
3 323 322 31
3 325 324 1
3 61 22 0
3 67 22 61
3 67 6 22
3 33 67 15
3 68 67 33
3 68 6 67
3 68 326 328
3 328 327 6
3 326 327 328
3 330 329 68
3 48 34 2
3 69 34 48
3 69 16 34
3 36 69 7
3 331 69 332
3 333 332 36
3 331 332 333
3 334 16 335
3 336 335 69
3 334 335 336
3 338 337 16
3 52 339 340
3 342 341 52
3 37 343 345
3 345 344 9
3 343 344 345
3 347 346 37
3 70 348 349
3 70 350 352
3 350 5 351
3 350 351 352
3 353 70 354
3 355 354 17
3 353 354 355
3 356 70 357
3 358 5 359
3 360 359 70
3 358 359 360
3 362 361 5
3 71 363 364
3 71 365 367
3 365 1 366
3 365 366 367
3 39 368 370
3 370 369 11
3 368 369 370
3 372 371 39
3 41 373 375
3 375 374 18
3 373 374 375
3 72 376 378
3 378 377 41
3 376 377 378
3 72 379 380
3 72 381 383
3 381 71 382
3 381 382 383
3 384 71 385
3 386 385 72
3 384 385 386
3 387 1 388
3 389 388 71
3 387 388 389
3 391 390 1
3 57 43 4
3 73 43 57
3 73 19 43
3 392 73 393
3 394 393 13
3 392 393 394
3 395 73 396
3 397 19 398
3 399 398 73
3 397 398 399
3 401 400 19
3 403 402 1
