ply
format ascii 1.0
element vertex 225
property float x
property float y
property float z
element face 213
property list uchar int vertex_index
end_header
-32.943993 -22.93224 24.612963
-32.956169 -34.974724 17.389816
-34.725315 -7.571092 23.840374
-31.628489 -24.175354 28.310228
-32.097111 -29.785362 25.104902
-32.176178 -35.558521 21.661152
-33.21207 -28.946411 21.177011
-31.670443 -41.552063 18.071678
-31.98892 -40.977417 13.571249
-33.804829 -15.400208 24.36441
-35.37492 -14.186156 20.383707
-34.325211 -21.748318 20.748053
-34.236252 -28.302549 17.057055
-33.542397 -34.348831 13.058416
-32.279133 -23.29682 26.514225
-31.901575 -26.879765 26.742411
-32.50341 -26.281773 24.918062
-32.637669 -29.472332 23.16316
-33.141235 -25.980898 22.893354
-32.56155 -35.495132 19.4387
-31.983608 -38.639599 19.914385
-32.298904 -38.327686 17.66518
-31.873751 -41.183186 15.821004
-32.563076 -38.006104 15.449482
-33.499241 -12.400336 25.872349
-34.299377 -11.689994 24.005854
-34.856617 -18.194395 20.51557
-35.003426 -21.184126 18.679302
-34.383114 -25.014132 18.85804
-34.924133 -24.47003 16.92919
-32.903915 -37.33844 11.091843
-30.834949 -27.863527 30.327185
-31.338087 -27.67362 28.505127
-31.559782 -30.409834 26.971987
-31.728361 -33.061836 25.321177
-31.757275 -35.869675 23.760973
-32.188328 -32.63118 23.46032
-32.673912 -32.449375 21.348959
-33.130039 -32.09296 19.384472
-35.174362 -3.455963 23.494326
-32.68848 -19.647682 26.270332
-31.673717 -38.829308 22.057241
-33.055962 -16.268673 26.111597
-33.404144 -19.460886 24.329313
-35.985363 -2.566291 21.548225
-35.533501 -6.735352 21.929586
-35.83765 -10.104767 20.270731
-35.051994 -11.009907 22.204809
-34.598415 -14.952834 22.358053
-34.155319 -18.428497 22.522778
-33.62463 -22.282011 22.766977
-33.797836 -25.277775 20.918295
-33.741425 -28.533949 19.220119
-33.581722 -31.609491 17.370806
-33.979107 -31.31171 15.137114
-33.265751 -34.721581 15.271471
-32.764774 -37.678776 13.28133
-32.063736 -40.670712 11.358313
-34.308628 -8.011918 24.786788
-34.518175 -5.932894 24.663191
-34.512346 -9.630543 23.923114
-34.095659 -10.071369 24.869528
-34.308628 -8.011918 24.786788
-35.303099 -20.980604 17.621589
-35.261982 -19.353306 18.654882
-35.263452 -22.623556 16.746533
-34.96378 -22.827078 17.804246
-35.303099 -20.980604 17.621589
-31.483288 -25.924487 28.407677
-31.205968 -26.088155 29.279096
-31.351169 -24.339022 29.181646
-35.337711 -1.353602 23.407815
-34.953837 -1.800501 24.306654
-32.50293 -18.180061 27.118458
-32.340389 -20.063215 27.154062
-30.731324 -29.475803 30.520027
-30.949933 -29.363002 29.59314
-31.578585 -41.586715 19.136139
-31.735167 -40.130483 20.057493
-31.827025 -40.095831 18.993032
-31.388991 -43.061745 18.275216
-31.578585 -41.586715 19.136139
-31.460908 -42.848566 17.156803
-31.388991 -43.061745 18.275216
-31.630029 -42.531603 13.76659
-31.572444 -42.634487 14.891467
-31.931335 -41.080302 14.696127
-31.636298 -42.388668 12.651569
-31.630029 -42.531603 13.76659
-36.162598 -4.340271 20.695692
-36.392864 -2.250889 20.470316
-35.936667 -6.424802 20.886373
-35.759432 -4.650822 21.738906
-36.162598 -4.340271 20.695692
-35.606285 -12.145461 20.327219
-35.966724 -11.837589 19.308213
-35.735359 -13.878284 19.364701
-33.760752 -32.83027 14.097765
-34.149161 -31.10761 14.032523
-33.930806 -32.62617 12.993174
-32.083759 -40.459086 10.235693
-32.483825 -39.004576 11.225078
-32.503849 -38.792949 10.102458
-31.680734 -41.983408 10.408354
-32.083759 -40.459086 10.235693
-33.695591 -10.42654 25.802775
-33.282625 -10.834014 26.740757
-33.899309 -12.045165 24.939101
-33.695591 -10.42654 25.802775
-34.095659 -10.071369 24.869528
-35.447729 -15.854321 19.507084
-35.735359 -13.878284 19.364701
-35.188578 -17.858441 19.573016
-35.115769 -16.190275 20.449638
-35.447729 -15.854321 19.507084
-34.930021 -19.68926 19.597436
-35.188578 -17.858441 19.573016
-35.261982 -19.353306 18.654882
-33.641678 -34.160995 11.968406
-33.930806 -32.62617 12.993174
-33.322437 -35.6558 10.985119
-33.223156 -35.843635 12.075129
-33.641678 -34.160995 11.968406
-32.940221 -37.157198 9.983186
-33.322437 -35.6558 10.985119
-32.503849 -38.792949 10.102458
-32.940221 -37.157198 9.983186
-30.954399 -26.183109 30.190124
-30.674356 -26.441564 31.140751
-31.086518 -27.768574 29.416156
-30.954399 -26.183109 30.190124
-31.205968 -26.088155 29.279096
-31.201502 -29.268048 28.682111
-30.949933 -29.363002 29.59314
-31.086518 -27.768574 29.416156
-31.312349 -30.636155 27.915541
-31.201502 -29.268048 28.682111
-31.448935 -29.041727 27.738557
-31.420913 -32.018005 27.069001
-31.312349 -30.636155 27.915541
-31.505203 -33.344006 26.243596
-31.420913 -32.018005 27.069001
-31.644071 -31.735835 26.146582
-31.542237 -34.753422 25.500978
-31.505203 -33.344006 26.243596
-31.742818 -34.465756 24.541075
-31.556694 -36.157341 24.720876
-31.542237 -34.753422 25.500978
-34.742699 -3.87533 24.490167
-34.953837 -1.800501 24.306654
-34.949838 -5.513528 23.66735
-34.518175 -5.932894 24.663191
-34.742699 -3.87533 24.490167
-31.475893 -22.653697 29.095693
-31.351169 -24.339022 29.181646
-31.810393 -22.327051 28.17401
-31.475893 -22.653697 29.095693
-32.135716 -21.887784 27.276008
-31.953811 -23.736087 27.412226
-31.810393 -22.327051 28.17401
-32.483807 -21.472251 26.392278
-32.135716 -21.887784 27.276008
-32.340389 -20.063215 27.154062
-30.596816 -28.171337 31.251964
-30.674356 -26.441564 31.140751
-30.596816 -28.171337 31.251964
-30.731324 -29.475803 30.520027
-31.555386 -37.521418 23.921212
-31.556694 -36.157341 24.720876
-31.513607 -39.001234 23.069346
-31.555386 -37.521418 23.921212
-31.715496 -37.349491 22.909107
-31.455236 -40.430779 22.174554
-31.513607 -39.001234 23.069346
-31.580222 -40.225338 21.12892
-31.828663 -38.734454 20.985813
-31.735167 -40.130483 20.057493
-31.455236 -40.430779 22.174554
-31.580222 -40.225338 21.12892
-31.562562 -42.664127 16.031466
-31.460908 -42.848566 17.156803
-31.772097 -41.367624 16.946341
-31.562562 -42.664127 16.031466
-31.572444 -42.634487 14.891467
-33.116911 -12.811372 26.752486
-33.282625 -10.834014 26.740757
-32.895271 -14.745541 26.87211
-33.116911 -12.811372 26.752486
-33.277602 -14.334504 25.991973
-32.686671 -16.490557 27.039091
-32.895271 -14.745541 26.87211
-32.872221 -17.958177 26.190964
-32.50293 -18.180061 27.118458
-32.686671 -16.490557 27.039091
-36.163322 -0.672082 21.365905
-36.392864 -2.250889 20.470316
-35.743212 -0.908766 22.434764
-36.163322 -0.672082 21.365905
-35.579863 -3.011127 22.521276
-35.337711 -1.353602 23.407815
-35.743212 -0.908766 22.434764
-36.233921 -9.761268 19.165062
-35.966724 -11.837589 19.308213
-36.088741 -8.109509 20.056945
-36.233921 -9.761268 19.165062
-35.685575 -8.42006 21.100158
-35.936667 -6.424802 20.886373
-36.088741 -8.109509 20.056945
-35.164898 -24.381037 15.791242
-35.263452 -22.623556 16.746533
-34.820465 -26.110491 15.909649
-35.164898 -24.381037 15.791242
-34.476524 -28.02675 15.973581
-34.580192 -26.38629 16.993122
-34.820465 -26.110491 15.909649
-34.347952 -29.531331 15.013611
-34.149161 -31.10761 14.032523
-34.10768 -29.80713 16.097085
-34.476524 -28.02675 15.973581
-34.347952 -29.531331 15.013611
-31.673706 -42.235315 11.545101
-31.636298 -42.388668 12.651569
-32.026328 -40.824065 12.464781
-31.673706 -42.235315 11.545101
-31.680734 -41.983408 10.408354
3 0 16 14
3 0 18 16
3 1 21 19
3 1 23 21
3 2 58 59
3 2 60 62
3 60 25 61
3 60 61 62
3 63 27 64
3 65 29 66
3 67 66 27
3 65 66 67
3 3 68 70
3 68 32 69
3 68 69 70
3 4 33 15
3 4 34 33
3 4 36 34
3 6 37 17
3 6 38 37
3 71 39 72
3 73 40 74
3 76 75 31
3 5 41 35
3 7 77 79
3 79 78 20
3 77 78 79
3 7 80 81
3 7 82 83
3 8 84 86
3 86 85 22
3 84 85 86
3 8 87 88
3 9 42 24
3 9 43 42
3 89 44 90
3 91 45 92
3 93 92 44
3 91 92 93
3 10 94 96
3 94 46 95
3 94 95 96
3 10 47 46
3 10 48 47
3 11 49 26
3 11 50 49
3 11 51 50
3 12 52 28
3 12 53 52
3 13 97 99
3 97 54 98
3 97 98 99
3 13 55 54
3 13 56 55
3 100 57 101
3 102 101 30
3 100 101 102
3 104 103 57
3 14 15 3
3 16 15 14
3 16 4 15
3 16 17 4
3 18 17 16
3 18 6 17
3 19 20 5
3 21 20 19
3 21 7 20
3 21 22 7
3 23 22 21
3 23 8 22
3 105 24 106
3 25 107 109
3 107 24 108
3 107 108 109
3 25 9 24
3 110 10 111
3 112 26 113
3 114 113 10
3 112 113 114
3 27 115 117
3 115 26 116
3 115 116 117
3 27 11 26
3 27 28 11
3 29 28 27
3 29 12 28
3 118 13 119
3 120 30 121
3 122 121 13
3 120 121 122
3 123 30 124
3 126 125 30
3 127 31 128
3 32 129 131
3 129 31 130
3 129 130 131
3 32 132 134
3 134 133 31
3 132 133 134
3 15 32 3
3 33 32 15
3 33 135 137
3 137 136 32
3 135 136 137
3 33 138 139
3 34 140 142
3 142 141 33
3 140 141 142
3 34 143 144
3 34 145 147
3 145 35 146
3 145 146 147
3 36 35 34
3 36 5 35
3 17 36 4
3 37 36 17
3 37 5 36
3 37 19 5
3 38 19 37
3 38 1 19
3 39 148 149
3 39 150 152
3 150 2 151
3 150 151 152
3 153 3 154
3 155 3 156
3 157 14 158
3 159 158 3
3 157 158 159
3 40 160 162
3 160 14 161
3 160 161 162
3 40 0 14
3 31 163 164
3 166 165 31
3 35 167 168
3 41 169 171
3 171 170 35
3 169 170 171
3 41 172 173
3 20 41 5
3 174 41 175
3 176 175 20
3 174 175 176
3 178 177 41
3 22 179 181
3 181 180 7
3 179 180 181
3 183 182 22
3 24 184 185
3 42 186 188
3 188 187 24
3 186 187 188
3 42 189 190
3 42 191 193
3 191 40 192
3 191 192 193
3 43 40 42
3 43 0 40
3 44 194 195
3 44 196 197
3 44 198 200
3 198 39 199
3 198 199 200
3 45 39 44
3 45 2 39
3 46 201 202
3 46 203 204
3 46 205 207
3 205 45 206
3 205 206 207
3 47 45 46
3 47 2 45
3 47 25 2
3 48 25 47
3 48 9 25
3 26 48 10
3 49 48 26
3 49 9 48
3 49 43 9
3 50 43 49
3 50 0 43
3 50 18 0
3 51 18 50
3 51 6 18
3 28 51 11
3 52 51 28
3 52 6 51
3 52 38 6
3 53 38 52
3 53 1 38
3 208 29 209
3 210 29 211
3 212 12 213
3 214 213 29
3 212 213 214
3 54 215 216
3 54 217 219
3 217 12 218
3 217 218 219
3 54 53 12
3 55 53 54
3 55 1 53
3 55 23 1
3 56 23 55
3 56 8 23
3 30 56 13
3 57 56 30
3 57 8 56
3 57 220 222
3 222 221 8
3 220 221 222
3 224 223 57
