ply
format ascii 1.0
element vertex 425
property float x
property float y
property float z
element face 317
property list uchar int vertex_index
end_header
37.624447 10.544029 18.289042
38.860489 -3.581702 11.502884
36.592594 -13.051272 16.618452
39.089962 11.955677 13.647869
-0.463821 17.815088 -64.416985
36.918377 1.750181 19.392809
38.51786 3.662129 14.908507
37.607395 -5.061646 15.995049
37.812187 -12.193052 12.140688
37.306957 -18.964251 7.964729
-2.821368 34.313457 -59.129707
0.390806 8.129424 -61.821903
1.669844 -11.687292 -52.442436
0.583619 -4.28968 -57.012108
36.519794 -2.231184 19.773752
37.360729 -1.626348 17.576582
36.850452 -5.786882 18.123135
37.2668 -12.634413 14.349133
37.669376 -15.635006 9.992383
36.977856 -19.569475 10.24658
36.553646 -22.781061 8.198047
38.700939 -0.182735 13.379071
39.136292 4.044271 12.620554
-1.362426 33.091492 -59.346081
-2.758374 32.393452 -60.719402
-1.209497 30.978241 -60.665501
-1.211174 26.769709 -63.08247
-1.18924 24.592184 -64.005333
-0.799357 15.395554 -64.88855
-7.769883 37.597733 -55.191444
-6.168692 37.361446 -56.242058
0.031372 13.174026 -63.44976
0.30153 0.726419 -59.478928
37.30534 6.073011 18.897108
38.112263 6.804276 16.650806
37.755436 2.623369 17.183393
38.079365 -0.801874 15.505771
38.26162 -4.42381 13.835085
37.134258 -9.078538 16.306681
37.806602 -8.445017 14.121718
38.389191 -7.965984 11.739535
38.283871 -11.437221 9.902328
12.239736 -32.67281 -35.768799
37.011692 13.972909 19.938313
36.743946 9.484996 20.586048
36.450951 5.077491 21.00316
38.82325 7.838205 14.394766
-4.567989 36.895367 -57.008053
-3.073621 36.194904 -57.552059
-4.419457 35.200489 -58.789108
-1.160645 28.832415 -61.933243
-0.268046 10.53866 -63.4622
0.079628 5.555388 -61.575603
-0.540332 8.111807 -63.317223
38.019644 11.004818 17.123787
37.742123 12.797452 17.933091
0.218068 -4.375015 -57.616964
0.514148 -5.67607 -56.604095
36.439443 -6.067771 19.170829
36.685123 -4.009033 18.948444
36.274114 -4.289922 19.996138
36.781199 -19.65963 11.424581
37.107433 -17.863104 11.239677
36.61661 -21.370914 10.415408
36.781199 -19.65963 11.424581
39.07123 -1.647455 11.196008
38.991455 0.052028 12.134101
38.780714 -1.882219 12.440977
-0.593679 32.441769 -59.251272
-0.696262 33.643492 -58.633065
-0.517215 31.385143 -59.910983
-1.285961 32.034866 -60.005791
-0.593679 32.441769 -59.251272
-0.617572 23.573948 -63.59786
-0.561403 24.77805 -63.178047
-0.665095 22.382988 -64.036158
-1.236763 23.401224 -64.44363
-0.617572 23.573948 -63.59786
-1.471439 14.056942 -65.680988
-1.377612 15.348649 -65.663856
-0.893183 14.103847 -64.905682
-7.083296 38.265114 -54.665803
-7.880894 38.247498 -54.085292
-7.194307 38.914879 -53.559652
-6.282701 38.146971 -55.191111
-6.969288 37.47959 -55.716751
-7.083296 38.265114 -54.665803
39.179769 14.297679 13.247429
38.943976 16.253861 14.022174
38.854168 13.911859 14.422613
39.378412 12.544007 12.485938
39.179769 14.297679 13.247429
0.557474 13.205246 -62.618652
0.201623 14.365894 -63.303693
0.574757 -0.450664 -58.533015
0.69871 0.738756 -58.780358
36.863426 -11.064905 16.462567
36.751398 -9.38365 17.382689
36.480566 -11.370017 17.538574
37.664152 -16.898808 7.867982
37.845361 -15.234186 8.881809
37.488166 -17.299629 8.978556
37.394035 -18.750109 6.820818
37.664152 -16.898808 7.867982
37.009063 -20.701402 6.890165
37.394035 -18.750109 6.820818
36.243237 -24.393932 7.035587
36.16872 -24.573222 8.214643
11.844178 -33.4002 -36.180884
12.588684 -34.149321 -35.365715
11.464896 -31.854552 -36.627274
11.844178 -33.4002 -36.180884
36.709682 15.662792 20.641314
37.127442 16.212058 19.512002
36.317591 8.894538 21.590727
36.476668 11.135183 21.275208
36.171093 6.690785 21.799284
36.597448 7.281244 20.794604
36.317591 8.894538 21.590727
39.307024 6.360077 12.259998
39.402884 4.38631 11.435539
-3.89649 37.480715 -56.458338
-4.689236 37.752329 -56.086025
-2.947495 35.254181 -58.340883
-2.289938 35.749949 -57.690942
-2.163812 34.809225 -58.479766
-3.57606 33.898508 -59.84052
-4.375105 34.342024 -59.670221
-3.620413 34.756973 -58.959407
-3.425015 32.048587 -61.441628
-2.678014 31.419244 -61.429974
-0.503171 28.073813 -61.645033
-0.468202 29.214398 -61.090931
-1.920267 27.560254 -63.356928
-1.853966 26.48162 -63.919905
-1.001151 18.820321 -65.049405
-0.90406 20.009218 -64.812258
-0.366729 19.003985 -64.179839
0.55674 9.426761 -61.866173
0.859527 8.265636 -61.067307
0.06138 9.334042 -62.642052
0.227314 10.631379 -62.686321
0.55674 9.426761 -61.866173
-0.072833 4.287311 -61.398536
0.368712 4.413421 -60.691303
0.216251 3.145344 -60.514236
-1.074874 7.987293 -64.063195
-0.69339 6.805865 -63.176914
-0.953682 9.245093 -64.187294
-1.074874 7.987293 -64.063195
1.699262 -10.405537 -52.807329
2.018064 -11.632302 -51.859375
1.34652 -10.604817 -53.366113
1.375938 -9.323063 -53.731006
1.699262 -10.405537 -52.807329
38.752402 11.710642 14.8032
38.854168 13.911859 14.422613
0.333297 -3.100385 -57.922157
0.465479 -1.769419 -58.209654
0.715801 -2.958714 -57.299605
0.333297 -3.100385 -57.922157
0.218068 -4.375015 -57.616964
36.967858 -14.576871 14.488245
36.929697 -12.842842 15.483792
36.630754 -14.7853 15.622905
37.251906 -14.395573 13.290954
36.967858 -14.576871 14.488245
37.524599 -14.174892 12.186731
37.539494 -12.413733 13.24491
37.251906 -14.395573 13.290954
37.453193 -15.895869 11.112578
37.740781 -13.914029 11.066536
37.524599 -14.174892 12.186731
37.323616 -17.602241 10.119481
37.453193 -15.895869 11.112578
37.107433 -17.863104 11.239677
36.404505 -22.976706 9.391142
36.765751 -21.175268 9.222314
36.61661 -21.370914 10.415408
36.16872 -24.573222 8.214643
36.404505 -22.976706 9.391142
39.209131 2.165532 11.754843
38.918616 1.930768 12.999813
38.991455 0.052028 12.134101
39.402884 4.38631 11.435539
39.209131 2.165532 11.754843
-1.434341 34.198243 -58.587953
-0.696262 33.643492 -58.633065
-2.091897 33.702475 -59.237894
-2.163812 34.809225 -58.479766
-1.434341 34.198243 -58.587953
-1.903576 30.711638 -61.403023
-2.678014 31.419244 -61.429974
-1.983935 31.685847 -60.692452
-0.57237 25.866812 -62.716616
-0.528435 27.04246 -62.219646
-1.200207 25.680946 -63.543901
-0.57237 25.866812 -62.716616
-0.561403 24.77805 -63.178047
-1.842999 25.392857 -64.381336
-1.853966 26.48162 -63.919905
-1.200207 25.680946 -63.543901
-1.894228 24.36782 -64.905124
-1.842999 25.392857 -64.381336
-1.894228 24.36782 -64.905124
-1.236763 23.401224 -64.44363
-1.249912 16.477189 -65.497608
-1.082144 17.686955 -65.261826
-0.631589 16.605321 -64.652767
-1.249912 16.477189 -65.497608
-1.377612 15.348649 -65.663856
0.679464 6.964463 -60.978828
0.859527 8.265636 -61.067307
2.013838 -12.91836 -51.501772
2.018064 -11.632302 -51.859375
36.21887 -13.393681 17.650706
36.480566 -11.370017 17.538574
36.303558 -15.039274 16.713237
36.21887 -13.393681 17.650706
35.929834 -15.381683 17.745491
36.630754 -14.7853 15.622905
36.303558 -15.039274 16.713237
-8.576968 37.537954 -54.60215
-8.687979 38.18772 -53.495998
-7.880894 38.247498 -54.085292
-8.496649 37.009783 -55.729547
-8.576968 37.537954 -54.60215
-7.759781 36.931766 -56.255323
-8.486547 36.343817 -56.793426
-8.496649 37.009783 -55.729547
-6.959186 36.813623 -56.78063
-7.759781 36.931766 -56.255323
-6.969288 37.47959 -55.716751
-6.125018 36.599987 -57.231282
-6.959186 36.813623 -56.78063
39.081837 -3.505248 10.215836
38.852404 -5.397651 10.506811
0.088668 17.95216 -63.610241
-0.366729 19.003985 -64.179839
-0.045974 16.686425 -63.787306
0.088668 17.95216 -63.610241
-0.213742 15.476658 -64.023089
-0.631589 16.605321 -64.652767
-0.045974 16.686425 -63.787306
-0.383993 14.28479 -64.169155
-0.213742 15.476658 -64.023089
0.201623 14.365894 -63.303693
-0.477819 12.993083 -64.186286
-0.893183 14.103847 -64.905682
-0.383993 14.28479 -64.169155
0.479663 1.998936 -59.642966
0.69871 0.738756 -58.780358
0.038118 1.872826 -60.350199
0.216251 3.145344 -60.514236
0.479663 1.998936 -59.642966
0.192252 -0.592335 -59.155568
0.574757 -0.450664 -58.533015
0.465479 -1.769419 -58.209654
-0.121482 0.615371 -60.148068
0.192252 -0.592335 -59.155568
0.038118 1.872826 -60.350199
-0.121482 0.615371 -60.148068
36.609495 -7.737823 18.290916
36.439443 -6.067771 19.170829
36.992355 -7.43271 17.214908
36.609495 -7.737823 18.290916
36.751398 -9.38365 17.382689
38.616754 -7.589792 10.625136
38.852404 -5.397651 10.506811
38.62484 -5.773843 11.621209
38.564094 -9.325411 9.706533
38.616754 -7.589792 10.625136
38.336531 -9.701602 10.820932
38.44528 -11.210804 8.674499
38.564094 -9.325411 9.706533
38.152609 -13.135293 8.836782
37.976624 -13.536113 9.947356
37.845361 -15.234186 8.881809
38.44528 -11.210804 8.674499
38.152609 -13.135293 8.836782
36.632408 -22.609807 7.006824
37.009063 -20.701402 6.890165
36.930301 -20.872656 8.081388
36.321999 -24.222677 5.844363
36.632408 -22.609807 7.006824
36.243237 -24.393932 7.035587
0.959776 -4.143668 -56.392361
0.715801 -2.958714 -57.299605
0.869101 -5.466492 -56.047835
0.959776 -4.143668 -56.392361
0.799631 -6.852882 -55.639822
0.514148 -5.67607 -56.604095
0.869101 -5.466492 -56.047835
13.028553 -33.384254 -34.918608
12.588684 -34.149321 -35.365715
12.713732 -31.875174 -35.343287
13.502549 -32.586619 -34.493095
13.028553 -33.384254 -34.918608
11.948029 -31.241414 -36.16516
12.713732 -31.875174 -35.343287
11.173189 -30.423157 -37.023634
11.948029 -31.241414 -36.16516
11.464896 -31.854552 -36.627274
37.435745 14.511892 18.757727
37.127442 16.212058 19.512002
37.31807 12.258469 19.113678
37.742123 12.797452 17.933091
37.435745 14.511892 18.757727
36.61054 13.37914 20.95134
36.709682 15.662792 20.641314
36.877819 11.728953 20.26218
36.61054 13.37914 20.95134
36.476668 11.135183 21.275208
36.019598 4.5836 21.976019
36.171093 6.690785 21.799284
36.273768 3.032213 21.180313
36.019598 4.5836 21.976019
36.50748 1.368558 20.375138
36.684664 3.413836 20.197985
36.273768 3.032213 21.180313
36.308189 -0.622124 20.565609
36.719085 -0.240501 19.583281
36.50748 1.368558 20.375138
36.090015 -2.733495 20.75241
36.308189 -0.622124 20.565609
35.87841 -1.124436 21.544267
36.274114 -4.289922 19.996138
36.090015 -2.733495 20.75241
38.263552 9.134942 16.304668
38.019644 11.004818 17.123787
37.868355 8.674152 17.469924
38.619045 9.651906 15.176649
38.263552 9.134942 16.304668
38.467757 7.321241 15.522786
38.956606 9.896941 14.021318
38.752402 11.710642 14.8032
38.619045 9.651906 15.176649
39.150503 8.257044 13.147104
38.979771 5.941238 13.50766
39.307024 6.360077 12.259998
39.283859 10.31578 12.773655
38.956606 9.896941 14.021318
39.150503 8.257044 13.147104
39.378412 12.544007 12.485938
39.283859 10.31578 12.773655
39.07123 -1.647455 11.196008
39.081837 -3.505248 10.215836
-5.489588 37.985368 -55.703028
-6.282701 38.146971 -55.191111
-5.368341 37.128406 -56.625056
-5.489588 37.985368 -55.703028
-4.689236 37.752329 -56.086025
-5.324666 36.366947 -57.614279
-6.125018 36.599987 -57.231282
-5.368341 37.128406 -56.625056
-2.405466 36.778307 -56.96821
-2.289938 35.749949 -57.690942
-3.149306 37.130483 -56.730341
-2.405466 36.778307 -56.96821
-3.820805 36.545136 -57.280056
-3.89649 37.480715 -56.458338
-3.149306 37.130483 -56.730341
-5.2504 35.519509 -58.504807
-5.324666 36.366947 -57.614279
-4.493723 36.047928 -57.89858
-5.139781 34.749321 -59.469786
-5.2504 35.519509 -58.504807
-5.139781 34.749321 -59.469786
-4.375105 34.342024 -59.670221
-3.544563 32.938506 -60.635368
-3.57606 33.898508 -59.84052
-2.789871 33.353454 -59.924554
-3.544563 32.938506 -60.635368
-3.425015 32.048587 -61.441628
-0.492628 30.287311 -60.45706
-0.517215 31.385143 -59.910983
-1.185071 29.905328 -61.299372
-0.492628 30.287311 -60.45706
-0.468202 29.214398 -61.090931
-1.87915 29.638725 -62.036894
-1.903576 30.711638 -61.403023
-1.185071 29.905328 -61.299372
-1.185909 27.801062 -62.507857
-0.503171 28.073813 -61.645033
-0.528435 27.04246 -62.219646
-1.895002 28.591608 -62.782314
-1.185909 27.801062 -62.507857
-1.920267 27.560254 -63.356928
-2.613507 29.397918 -62.885965
-1.87915 29.638725 -62.036894
-1.895002 28.591608 -62.782314
-1.619474 18.692189 -65.894246
-1.001151 18.820321 -65.049405
-1.082144 17.686955 -65.261826
0.377023 11.949061 -62.680101
0.557474 13.205246 -62.618652
-0.118337 11.856343 -63.45598
0.377023 11.949061 -62.680101
0.227314 10.631379 -62.686321
-0.627528 11.6754 -64.192507
-0.477819 12.993083 -64.186286
-0.118337 11.856343 -63.45598
0.523875 5.677445 -60.855678
0.368712 4.413421 -60.691303
0.235217 6.842406 -61.698753
0.679464 6.964463 -60.978828
0.523875 5.677445 -60.855678
-0.38341 5.527655 -62.306105
-0.072833 4.287311 -61.398536
-0.230352 6.833597 -62.446413
-0.38341 5.527655 -62.306105
-0.69339 6.805865 -63.176914
-0.817539 10.45852 -64.259783
-0.404189 9.325233 -63.389712
-0.953682 9.245093 -64.187294
-0.627528 11.6754 -64.192507
-0.817539 10.45852 -64.259783
1.682847 -13.098502 -52.023768
2.013838 -12.91836 -51.501772
2.026841 -14.329571 -51.083103
1.300946 -11.844411 -53.039676
1.682847 -13.098502 -52.023768
1.313948 -13.255622 -52.621008
1.34652 -10.604817 -53.366113
1.300946 -11.844411 -53.039676
3 0 54 55
3 57 56 13
3 58 16 59
3 60 59 14
3 58 59 60
3 61 19 62
3 64 63 19
3 1 65 67
3 67 66 21
3 65 66 67
3 68 23 69
3 70 25 71
3 72 71 23
3 70 71 72
3 73 27 74
3 77 76 27
3 75 76 77
3 80 79 28
3 78 79 80
3 81 29 82
3 81 82 83
3 84 30 85
3 86 85 29
3 84 85 86
3 3 87 89
3 87 88 89
3 3 90 91
3 92 31 93
3 94 32 95
3 5 35 33
3 7 36 15
3 7 37 36
3 2 96 98
3 96 38 97
3 96 97 98
3 8 39 17
3 8 40 39
3 8 41 40
3 9 99 101
3 101 100 18
3 99 100 101
3 9 102 103
3 9 104 105
3 107 106 20
3 108 42 109
3 111 110 42
3 112 43 113
3 114 44 115
3 116 45 117
3 118 117 44
3 116 117 118
3 6 46 34
3 120 119 22
3 121 47 122
3 10 123 125
3 123 48 124
3 123 124 125
3 10 49 48
3 10 126 128
3 128 127 49
3 126 127 128
3 130 129 24
3 131 50 132
3 134 133 26
3 4 135 137
3 135 136 137
3 11 138 139
3 11 140 142
3 140 51 141
3 140 141 142
3 143 52 144
3 143 144 145
3 146 53 147
3 149 148 53
3 12 150 151
3 12 152 154
3 152 153 154
3 155 3 156
3 13 157 159
3 157 158 159
3 161 160 13
3 14 15 5
3 16 15 14
3 16 7 15
3 162 17 163
3 164 163 2
3 162 163 164
3 165 17 166
3 167 8 168
3 169 168 17
3 167 168 169
3 170 18 171
3 172 171 8
3 170 171 172
3 19 173 175
3 173 18 174
3 173 174 175
3 19 9 18
3 19 20 9
3 176 20 177
3 178 177 19
3 176 177 178
3 180 179 20
3 21 22 6
3 181 22 182
3 183 182 21
3 181 182 183
3 185 184 22
3 23 186 187
3 23 188 190
3 188 10 189
3 188 189 190
3 23 24 10
3 25 24 23
3 25 191 193
3 193 192 24
3 191 192 193
3 194 26 195
3 27 196 198
3 196 26 197
3 196 197 198
3 27 199 201
3 201 200 26
3 199 200 201
3 27 202 203
3 205 204 27
3 28 206 208
3 208 207 4
3 206 207 208
3 210 209 28
3 211 11 212
3 213 12 214
3 215 2 216
3 217 2 218
3 217 218 219
3 221 220 2
3 29 222 224
3 222 223 224
3 29 225 226
3 29 227 229
3 227 228 229
3 30 230 232
3 232 231 29
3 230 231 232
3 30 233 234
3 236 235 1
3 237 4 238
3 239 4 240
3 241 28 242
3 243 242 4
3 241 242 243
3 31 244 246
3 244 28 245
3 244 245 246
3 31 247 249
3 249 248 28
3 247 248 249
3 32 250 251
3 32 252 254
3 252 253 254
3 255 32 256
3 255 256 257
3 258 32 259
3 261 260 32
3 33 34 0
3 35 34 33
3 35 6 34
3 15 35 5
3 36 35 15
3 36 6 35
3 36 21 6
3 37 21 36
3 37 1 21
3 262 16 263
3 38 264 266
3 264 16 265
3 264 265 266
3 38 7 16
3 17 38 2
3 39 38 17
3 39 7 38
3 39 37 7
3 40 37 39
3 40 1 37
3 40 267 269
3 269 268 1
3 267 268 269
3 41 270 272
3 272 271 40
3 270 271 272
3 41 273 274
3 18 41 8
3 275 41 276
3 277 276 18
3 275 276 277
3 279 278 41
3 20 280 282
3 282 281 9
3 280 281 282
3 285 284 20
3 283 284 285
3 286 13 287
3 288 13 289
3 292 291 13
3 290 291 292
3 42 293 294
3 42 295 297
3 295 296 297
3 42 298 299
3 302 301 42
3 300 301 302
3 43 303 304
3 43 305 307
3 305 0 306
3 305 306 307
3 308 43 309
3 44 310 312
3 310 43 311
3 310 311 312
3 44 0 43
3 44 33 0
3 45 33 44
3 45 5 33
3 313 45 314
3 315 45 316
3 317 5 318
3 319 318 45
3 317 318 319
3 320 14 321
3 322 321 5
3 320 321 322
3 323 14 324
3 323 324 325
3 327 326 14
3 34 328 330
3 330 329 0
3 328 329 330
3 46 331 333
3 333 332 34
3 331 332 333
3 46 334 336
3 334 3 335
3 334 335 336
3 22 46 6
3 337 46 338
3 339 338 22
3 337 338 339
3 340 3 341
3 342 341 46
3 340 341 342
3 344 343 3
3 346 345 1
3 347 30 348
3 47 349 351
3 349 30 350
3 349 350 351
3 47 352 354
3 354 353 30
3 352 353 354
3 48 355 356
3 48 357 358
3 48 359 361
3 359 47 360
3 359 360 361
3 49 47 48
3 49 362 364
3 364 363 47
3 362 363 364
3 49 365 366
3 368 367 49
3 24 369 371
3 371 370 10
3 369 370 371
3 373 372 24
3 374 25 375
3 50 376 378
3 376 25 377
3 376 377 378
3 50 379 381
3 381 380 25
3 379 380 381
3 26 382 384
3 382 50 383
3 382 383 384
3 385 50 386
3 387 386 26
3 385 386 387
3 390 389 50
3 388 389 390
3 393 392 4
3 391 392 393
3 394 31 395
3 51 396 398
3 396 31 397
3 396 397 398
3 51 399 401
3 401 400 31
3 399 400 401
3 52 402 403
3 52 404 406
3 404 11 405
3 404 405 406
3 407 52 408
3 53 409 411
3 409 52 410
3 409 410 411
3 53 11 52
3 53 51 11
3 412 51 413
3 414 413 53
3 412 413 414
3 416 415 51
3 417 12 418
3 417 418 419
3 420 12 421
3 420 421 422
3 424 423 12
