ply
format ascii 1.0
element vertex 308
property float x
property float y
property float z
element face 323
property list uchar int vertex_index
end_header
8.068407 -106.496765 -26.862942
18.45204 -103.946091 -3.958584
-2.49782 -102.116959 -26.627516
9.305859 -104.359985 -7.274822
18.276472 -105.967598 -24.5306
9.72654 -101.70636 -34.078468
14.941969 -107.783859 -16.144697
4.244252 -105.710678 -17.944674
13.528371 -106.939674 -25.92083
14.586184 -104.587967 -29.646275
9.205939 -104.803146 -30.733791
19.496836 -106.79863 -14.569916
17.028271 -106.424858 -10.203042
7.036388 -105.585159 -12.707526
2.611563 -104.816689 -26.962103
3.856463 -103.669327 -31.030836
-1.657042 -101.291603 -30.598034
15.446519 -101.934677 0.28699
14.259993 -104.842834 -5.923816
16.937471 -107.568161 -20.446619
11.904139 -107.84864 -22.002497
12.322142 -106.703316 -11.825753
9.54961 -107.3647 -17.382526
6.333303 -106.778236 -22.660522
1.120807 -104.618324 -22.608416
10.813178 -106.864502 -26.553596
11.427529 -106.036369 -28.50857
8.706732 -105.822113 -28.856512
19.922195 -104.413567 -5.92662
19.287006 -105.742355 -9.257984
17.887228 -105.275253 -7.047871
3.180239 -103.412788 -10.950101
0.080697 -103.63459 -26.764885
0.677643 -103.319412 -28.905088
-1.860321 -101.996124 -28.591955
12.353367 -103.371925 -31.928507
14.672652 -102.852257 -31.416559
17.310493 -107.468399 -15.398019
18.415262 -107.327644 -17.437475
16.044741 -107.845985 -18.464344
14.37619 -107.895363 -21.248823
13.42686 -107.992859 -19.013405
11.869246 -104.770767 -6.66754
13.304401 -105.862999 -8.799057
10.853 -105.660316 -9.516443
5.858966 -105.890373 -15.516201
8.3917 -106.643906 -15.077843
6.991976 -106.725319 -17.84549
8.121883 -107.274323 -20.124725
5.380045 -106.43074 -20.328308
3.783697 -105.853683 -22.919361
2.794988 -105.358154 -20.442392
-4.874846 -100.550201 -25.970016
-4.421638 -100.42691 -27.997015
16.027714 -106.562744 -25.414045
16.425116 -105.468903 -27.246523
13.95665 -105.944893 -27.936756
11.883516 -104.849754 -30.338013
9.572403 -103.416359 -32.48661
18.386219 -106.750832 -12.320333
16.066742 -107.24939 -13.173309
8.372651 -105.205933 -10.174886
5.748119 -104.38279 -10.520716
4.455441 -104.741379 -13.270732
3.188539 -104.795151 -15.656637
1.69587 -104.530365 -18.028126
5.181368 -105.728485 -27.11084
5.910875 -105.209503 -29.130924
3.250808 -104.401505 -29.072153
1.151217 -102.697861 -30.825544
-1.078841 -100.589417 -32.41687
-3.985619 -100.031883 -29.936777
-3.604576 -99.302048 -31.871162
17.032303 -103.090042 -1.839478
16.42178 -104.575439 -5.03845
14.933629 -103.441696 -2.728243
12.660426 -103.613586 -3.779226
10.324411 -103.421059 -4.545989
16.819601 -103.935768 -28.989017
6.669156 -104.407318 -30.974333
20.569849 -106.426666 -16.545891
19.268938 -106.883797 -19.464859
17.777386 -106.945442 -22.409737
15.389393 -107.419662 -23.281807
12.84868 -107.548241 -24.030035
10.078869 -107.341171 -24.568773
15.670832 -105.798248 -8.123006
14.698797 -106.734512 -11.087778
13.546637 -107.389473 -13.99631
9.763679 -106.339165 -12.437372
10.937304 -107.192818 -14.754261
12.207331 -107.740791 -16.830616
10.821257 -107.798737 -19.682859
9.196856 -107.49865 -22.277464
7.297889 -106.819359 -24.774437
4.502385 -105.95018 -24.987249
1.900536 -104.876991 -24.878393
-0.593443 -103.577621 -24.694206
0.077136 -103.959328 -20.456448
-1.572693 -103.079559 -22.597624
-2.99217 -102.08815 -24.481449
19.353096 -103.468662 -3.36318
18.639634 -103.176559 -2.378315
19.187117 -104.179829 -4.942602
20.088173 -103.702401 -4.347198
19.353096 -103.468662 -3.36318
18.449886 -105.319603 -25.482778
19.354038 -105.475937 -24.005803
10.999168 -101.605259 -33.815172
12.312582 -102.438041 -32.740192
11.039953 -102.539142 -33.003487
9.816088 -100.741642 -34.743854
10.999168 -101.605259 -33.815172
-5.716292 -99.728642 -26.635647
-5.928256 -99.735588 -25.71876
5.03582 -103.638706 -9.376264
6.319454 -104.104649 -9.234766
3.137486 -104.152767 -13.398309
3.81784 -104.077084 -12.110416
2.499884 -103.488472 -12.237993
2.504034 -104.179654 -14.591261
3.82199 -104.768265 -14.463684
3.137486 -104.152767 -13.398309
1.912836 -104.162739 -15.739905
2.504034 -104.179654 -14.591261
-5.099166 -99.302642 -29.573539
-4.203628 -100.229397 -28.966896
-5.317176 -99.500156 -28.603659
-4.755667 -98.048012 -32.411207
-4.86689 -98.520355 -31.501339
-3.532507 -98.731701 -32.772073
-4.755667 -98.048012 -32.411207
16.455599 -101.661838 0.851711
15.650053 -101.107399 1.792318
16.239411 -102.51236 -0.776244
17.24849 -102.239521 -0.211523
16.455599 -101.661838 0.851711
11.908881 -102.833778 -2.612631
12.954731 -102.873607 -2.229379
10.740873 -102.737515 -2.996012
11.492418 -103.517323 -4.162608
11.908881 -102.833778 -2.612631
15.879898 -102.536381 -30.910908
14.674378 -101.913303 -32.125699
20.033342 -106.612648 -15.557904
20.996339 -106.099579 -15.061432
20.459832 -106.285561 -14.073444
-0.364874 -103.555687 -19.299516
0.886503 -104.244846 -19.242287
0.444493 -103.841206 -18.085355
-2.767164 -102.274658 -22.433842
-2.002991 -102.748649 -21.504458
-3.476902 -101.778954 -23.375754
-2.282431 -102.583855 -23.539537
-2.767164 -102.274658 -22.433842
-4.210364 -101.214485 -24.230807
-3.476902 -101.778954 -23.375754
20.804985 -103.857452 -5.443834
20.088173 -103.702401 -4.347198
20.545075 -104.556877 -7.035837
20.804985 -103.857452 -5.443834
19.604601 -105.077961 -7.592302
20.22748 -105.221272 -8.701519
20.545075 -104.556877 -7.035837
2.517961 -102.627578 -9.744888
3.75188 -103.153706 -9.590957
1.88959 -102.759983 -10.985489
2.517961 -102.627578 -9.744888
2.499884 -103.488472 -12.237993
1.88959 -102.759983 -10.985489
14.622598 -101.276458 1.247991
15.650053 -101.107399 1.792318
14.347778 -102.034153 -0.19627
14.622598 -101.276458 1.247991
13.472224 -102.178207 -32.484217
13.513009 -103.112091 -31.672533
12.312582 -102.438041 -32.740192
14.674378 -101.913303 -32.125699
13.472224 -102.178207 -32.484217
4.018838 -103.080021 -31.977105
2.626498 -102.649449 -31.884589
-5.489688 -99.666996 -27.649146
-4.648242 -100.488556 -26.983516
-5.716292 -99.728642 -26.635647
-5.317176 -99.500156 -28.603659
-5.489688 -99.666996 -27.649146
19.997253 -106.337215 -12.980011
20.459832 -106.285561 -14.073444
19.892339 -105.809078 -10.324046
20.22748 -105.221272 -8.701519
19.441945 -106.313316 -11.85522
19.892339 -105.809078 -10.324046
18.836613 -106.246594 -10.789158
18.941527 -106.774731 -13.445124
19.997253 -106.337215 -12.980011
19.441945 -106.313316 -11.85522
7.63172 -104.516221 -9.061851
8.839255 -104.782959 -8.724854
8.098324 -104.093246 -7.611819
7.060385 -104.794362 -10.347801
7.63172 -104.516221 -9.061851
6.319454 -104.104649 -9.234766
4.464179 -103.897789 -10.735409
5.03582 -103.638706 -9.376264
3.75188 -103.153706 -9.590957
1.166501 -104.030346 -16.92565
2.442204 -104.662758 -16.842382
1.912836 -104.162739 -15.739905
0.444493 -103.841206 -18.085355
1.166501 -104.030346 -16.92565
1.273875 -102.163715 -31.781943
2.626498 -102.649449 -31.884589
2.50384 -103.183594 -30.92819
0.158846 -101.109493 -32.577606
1.273875 -102.163715 -31.781943
0.036188 -101.643639 -31.621207
-1.018466 -99.91301 -33.352888
0.158846 -101.109493 -32.577606
-5.057411 -98.885273 -30.534146
-5.099166 -99.302642 -29.573539
-3.795097 -99.666966 -30.90397
-5.057411 -98.885273 -30.534146
-4.86689 -98.520355 -31.501339
-2.269639 -99.375385 -33.044928
-2.341708 -99.945732 -32.144016
-3.532507 -98.731701 -32.772073
-1.018466 -99.91301 -33.352888
-2.269639 -99.375385 -33.044928
17.929765 -102.748535 -1.318762
17.24849 -102.239521 -0.211523
17.742171 -103.518067 -2.899031
18.639634 -103.176559 -2.378315
17.929765 -102.748535 -1.318762
14.091333 -102.787662 -1.703887
15.190074 -102.688187 -1.220627
14.347778 -102.034153 -0.19627
13.797027 -103.527641 -3.253735
14.091333 -102.787662 -1.703887
12.954731 -102.873607 -2.229379
9.577737 -102.591671 -3.380697
10.740873 -102.737515 -2.996012
9.144384 -103.145168 -4.754188
9.577737 -102.591671 -3.380697
8.635108 -103.614632 -6.118605
9.815135 -103.890522 -5.910405
9.144384 -103.145168 -4.754188
8.098324 -104.093246 -7.611819
8.635108 -103.614632 -6.118605
17.524209 -105.070256 -26.840739
18.449886 -105.319603 -25.482778
17.350794 -105.71825 -25.888562
17.721451 -104.303688 -27.711987
17.524209 -105.070256 -26.840739
16.622358 -104.702336 -28.11777
17.956395 -103.523674 -28.409377
17.721451 -104.303688 -27.711987
16.953372 -103.078136 -29.697136
15.746126 -103.394013 -30.202788
15.879898 -102.536381 -30.910908
17.956395 -103.523674 -28.409377
16.953372 -103.078136 -29.697136
5.425185 -103.449016 -31.948854
5.26281 -104.038322 -31.002585
4.018838 -103.080021 -31.977105
6.815378 -103.801083 -31.847103
5.425185 -103.449016 -31.948854
8.08377 -103.998997 -31.726832
7.937548 -104.605232 -30.854062
6.815378 -103.801083 -31.847103
8.267002 -103.305603 -32.603241
9.389171 -104.109752 -31.6102
8.08377 -103.998997 -31.726832
8.365974 -102.483986 -33.459333
8.267002 -103.305603 -32.603241
8.443043 -101.628986 -34.255262
9.649472 -102.56136 -33.282539
8.365974 -102.483986 -33.459333
8.52675 -100.661049 -35.005261
8.443043 -101.628986 -34.255262
9.816088 -100.741642 -34.743854
8.52675 -100.661049 -35.005261
19.090269 -106.019295 -23.132753
19.354038 -105.475937 -24.005803
21.501558 -105.799976 -16.028337
20.996339 -106.099579 -15.061432
20.901574 -106.14349 -17.60387
21.501558 -105.799976 -16.028337
20.251118 -106.372055 -19.063355
20.901574 -106.14349 -17.60387
19.919393 -106.655231 -18.005375
19.586502 -106.477395 -20.599882
20.251118 -106.372055 -19.063355
18.840726 -106.508217 -22.072321
19.586502 -106.477395 -20.599882
18.523162 -106.91462 -20.937298
18.026929 -106.45652 -23.470168
19.090269 -106.019295 -23.132753
18.840726 -106.508217 -22.072321
-1.178076 -103.188534 -20.43387
-0.364874 -103.555687 -19.299516
-0.747778 -103.519443 -21.527036
-1.178076 -103.188534 -20.43387
-2.002991 -102.748649 -21.504458
-5.151702 -100.44551 -24.975091
-3.933508 -101.319176 -25.225732
-4.210364 -101.214485 -24.230807
-5.928256 -99.735588 -25.71876
-5.151702 -100.44551 -24.975091
3 0 27 25
3 1 101 102
3 1 103 105
3 103 28 104
3 103 104 105
3 1 30 28
3 2 34 32
3 4 106 107
3 5 108 110
3 110 109 35
3 108 109 110
3 5 111 112
3 6 39 37
3 6 41 39
3 3 44 42
3 7 47 45
3 7 49 47
3 7 51 49
3 114 113 52
3 8 56 54
3 10 57 26
3 10 58 57
3 12 59 29
3 12 60 59
3 115 62 116
3 117 63 118
3 119 118 31
3 117 118 119
3 120 64 121
3 122 121 63
3 120 121 122
3 124 123 64
3 14 68 66
3 16 69 33
3 16 70 69
3 125 71 126
3 127 126 53
3 125 126 127
3 128 72 129
3 131 130 72
3 17 132 133
3 17 134 136
3 134 73 135
3 134 135 136
3 17 75 73
3 137 76 138
3 139 77 140
3 141 140 76
3 139 140 141
3 9 78 55
3 143 142 36
3 15 79 67
3 11 144 146
3 144 80 145
3 144 145 146
3 19 81 38
3 19 82 81
3 19 83 82
3 20 84 40
3 20 85 84
3 18 86 74
3 21 87 43
3 21 88 87
3 13 89 61
3 22 90 46
3 22 91 90
3 22 92 91
3 23 93 48
3 23 94 93
3 23 95 94
3 24 96 50
3 24 97 96
3 147 98 148
3 149 148 65
3 147 148 149
3 150 99 151
3 152 100 153
3 154 153 99
3 152 153 154
3 156 155 100
3 25 26 8
3 27 26 25
3 27 10 26
3 28 157 158
3 28 159 160
3 28 161 163
3 161 29 162
3 161 162 163
3 30 29 28
3 30 12 29
3 164 31 165
3 166 31 167
3 169 168 31
3 32 33 14
3 34 33 32
3 34 16 33
3 170 17 171
3 173 172 17
3 35 36 9
3 174 36 175
3 176 175 35
3 174 175 176
3 178 177 36
3 180 179 15
3 37 38 11
3 39 38 37
3 39 19 38
3 39 40 19
3 41 40 39
3 41 20 40
3 42 43 18
3 44 43 42
3 44 21 43
3 45 46 13
3 47 46 45
3 47 22 46
3 47 48 22
3 49 48 47
3 49 23 48
3 49 50 23
3 51 50 49
3 51 24 50
3 52 53 2
3 181 53 182
3 183 182 52
3 181 182 183
3 185 184 53
3 54 55 4
3 56 55 54
3 56 9 55
3 26 56 8
3 57 56 26
3 57 9 56
3 57 35 9
3 58 35 57
3 58 5 35
3 186 11 187
3 29 188 189
3 59 190 192
3 192 191 29
3 190 191 192
3 59 193 195
3 193 11 194
3 193 194 195
3 59 37 11
3 60 37 59
3 60 6 37
3 196 61 197
3 198 197 3
3 196 197 198
3 62 199 201
3 199 61 200
3 199 200 201
3 62 13 61
3 31 202 204
3 202 62 203
3 202 203 204
3 63 62 31
3 63 13 62
3 63 45 13
3 64 45 63
3 64 7 45
3 64 65 7
3 205 65 206
3 207 206 64
3 205 206 207
3 209 208 65
3 66 67 0
3 68 67 66
3 68 15 67
3 33 68 14
3 69 68 33
3 69 15 68
3 69 210 212
3 212 211 15
3 210 211 212
3 70 213 215
3 215 214 69
3 213 214 215
3 70 216 217
3 53 34 2
3 71 34 53
3 71 16 34
3 218 71 219
3 72 220 222
3 220 71 221
3 220 221 222
3 72 16 71
3 72 70 16
3 223 70 224
3 225 224 72
3 223 224 225
3 227 226 70
3 73 228 229
3 73 230 232
3 230 1 231
3 230 231 232
3 73 74 1
3 75 74 73
3 75 18 74
3 233 75 234
3 235 234 17
3 233 234 235
3 76 236 238
3 236 75 237
3 236 237 238
3 76 18 75
3 76 42 18
3 77 42 76
3 77 3 42
3 239 77 240
3 241 77 242
3 243 3 244
3 245 244 77
3 243 244 245
3 247 246 3
3 55 248 250
3 250 249 4
3 248 249 250
3 78 251 253
3 253 252 55
3 251 252 253
3 78 254 255
3 36 78 9
3 256 78 257
3 258 257 36
3 256 257 258
3 260 259 78
3 67 27 0
3 79 27 67
3 79 10 27
3 261 79 262
3 263 262 15
3 261 262 263
3 264 79 265
3 266 10 267
3 268 267 79
3 266 267 268
3 269 58 270
3 271 270 10
3 269 270 271
3 272 58 273
3 274 5 275
3 276 275 58
3 274 275 276
3 277 5 278
3 280 279 5
3 281 4 282
3 80 283 284
3 80 285 286
3 38 80 11
3 81 80 38
3 81 287 289
3 289 288 80
3 287 288 289
3 81 290 291
3 82 292 294
3 294 293 81
3 292 293 294
3 82 295 297
3 295 4 296
3 295 296 297
3 82 54 4
3 83 54 82
3 83 8 54
3 40 83 19
3 84 83 40
3 84 8 83
3 84 25 8
3 85 25 84
3 85 0 25
3 74 30 1
3 86 30 74
3 86 12 30
3 43 86 18
3 87 86 43
3 87 12 86
3 87 60 12
3 88 60 87
3 88 6 60
3 61 44 3
3 89 44 61
3 89 21 44
3 46 89 13
3 90 89 46
3 90 21 89
3 90 88 21
3 91 88 90
3 91 6 88
3 91 41 6
3 92 41 91
3 92 20 41
3 48 92 22
3 93 92 48
3 93 20 92
3 93 85 20
3 94 85 93
3 94 0 85
3 94 66 0
3 95 66 94
3 95 14 66
3 50 95 23
3 96 95 50
3 96 14 95
3 96 32 14
3 97 32 96
3 97 2 32
3 65 51 7
3 98 51 65
3 98 24 51
3 298 98 299
3 99 300 302
3 300 98 301
3 300 301 302
3 99 24 98
3 99 97 24
3 100 97 99
3 100 2 97
3 100 52 2
3 303 52 304
3 305 304 100
3 303 304 305
3 307 306 52
