ply
format ascii 1.0
element vertex 344
property float x
property float y
property float z
element face 361
property list uchar int vertex_index
end_header
-19.85149 60.060127 11.610872
-23.578011 39.386906 22.603563
-14.665742 43.935627 36.078884
-21.216518 49.666595 17.918818
-20.608797 36.295681 31.915516
-18.378927 47.556782 27.370935
-16.412539 58.567551 21.310192
-22.045267 55.076435 10.067436
-21.499311 60.367989 6.798752
-23.660219 45.265499 15.582672
-22.366194 44.364166 20.420612
-19.45927 28.735476 37.837536
-18.643772 34.369404 36.273705
-13.578707 49.660172 33.608532
-16.728571 45.936859 31.820663
-15.570231 51.660728 29.143379
-17.230291 53.083824 24.679205
-14.596293 57.398819 25.856632
-11.300931 47.370781 37.59655
-22.646637 50.299992 12.98011
-20.399378 54.953178 14.927234
-22.0868 38.164299 27.425068
-17.792118 40.157444 34.162186
-19.465733 42.030052 29.861626
-20.934267 43.386276 25.314398
-19.818083 48.673485 22.842939
-18.840611 54.17387 19.834064
-18.089542 59.762161 16.375959
-15.737265 64.269371 17.362207
-20.970552 57.597786 10.832828
-21.758017 57.680012 8.508609
-20.726587 60.261856 9.073582
-24.296034 39.853184 20.21093
-23.644421 42.347988 19.100946
-22.976398 41.791706 21.58036
-18.057674 30.167896 39.05999
-19.084162 31.636562 37.031822
-17.599657 33.046658 38.353344
-13.049191 52.861027 31.938391
-14.550749 50.805798 31.443377
-14.070861 53.823551 29.748749
-14.986986 54.509731 27.702885
-13.559896 56.759003 28.08864
-22.479349 47.383091 16.677761
-23.166224 47.745907 14.193177
-21.971304 49.911903 15.431138
-21.552689 52.537239 13.972322
-20.823156 52.28371 16.349052
-21.325523 37.388939 29.722715
-15.116285 40.78178 37.411957
-16.709974 39.114819 36.354881
-16.211285 41.833809 35.400024
-17.55962 46.880398 29.616255
-18.114237 44.042576 30.875494
-18.883419 44.91795 28.652472
-20.226538 42.811153 27.563253
-19.693636 45.489162 26.324953
-20.399063 46.112186 23.952032
-19.11972 48.123642 25.144903
-16.757318 55.8965 23.061951
-18.030899 53.671181 22.307909
-17.66353 56.379192 20.589684
-18.50535 56.911953 18.061516
-17.25396 59.131397 18.939047
-16.927547 61.978344 16.986025
-16.037577 61.553246 19.305664
-22.507328 57.81765 6.129217
-24.284817 42.825825 16.691759
-23.009825 44.853249 18.004848
-21.71291 47.148453 19.208242
-20.140375 32.455135 35.044941
-19.656942 35.458336 34.103889
-14.12292 46.784561 34.905136
-15.800562 44.771656 34.057034
-15.263539 47.710091 32.746677
-16.130737 48.880867 30.503874
-17.019032 49.625351 28.283195
-17.817059 50.229504 26.09672
-16.449862 52.443848 26.863903
-15.933756 55.179516 25.393349
-15.41745 58.204418 23.641695
-15.092987 61.020981 21.674393
-14.080734 60.459194 24.022612
-13.025334 45.443451 37.01498
-12.459031 48.532131 35.687256
-18.745298 62.689205 12.010348
-22.285923 52.706581 11.618886
-21.229401 55.003696 12.518824
-20.186964 57.351616 13.233629
-22.901264 38.781448 24.920216
-17.16032 36.054554 37.433578
-18.18766 37.250668 35.341316
-19.157974 38.323917 33.135468
-17.236401 43.014862 33.119633
-18.659649 41.19593 32.019234
-19.985907 39.091743 31.103298
-20.738852 40.100838 28.773323
-21.566948 40.62722 26.407824
-22.213827 41.340885 24.084423
-21.616917 43.978474 22.920649
-21.061977 46.632187 21.621941
-20.486423 49.24461 20.443571
-18.544508 50.930195 23.760773
-19.257769 51.530872 21.385586
-20.056347 51.920414 18.862295
-19.578426 54.722042 17.390099
-19.280441 57.409939 15.60899
-19.017481 59.925705 13.904263
-17.863993 62.252277 14.556855
-16.606937 64.824615 14.990619
-14.768692 63.69236 19.812254
-23.937022 39.620045 21.407246
-24.621853 38.652687 20.71768
-24.262842 38.419548 21.913997
-17.056574 32.483241 39.262491
-17.828665 31.607277 38.706667
-17.285582 31.043859 39.615814
-13.284116 54.826049 30.056607
-13.560026 53.342289 30.84357
-12.773281 54.344787 31.151429
-13.028634 56.293775 29.226553
-13.815379 55.291277 28.918695
-13.284116 54.826049 30.056607
-12.796387 57.801726 28.326093
-13.028634 56.293775 29.226553
-21.258926 35.444172 31.27386
-20.843101 34.887472 32.407663
-20.96716 36.84231 30.819116
-21.617289 35.990801 30.17746
-21.258926 35.444172 31.27386
-22.43078 55.130777 8.854302
-22.569183 53.860861 9.646903
-21.940532 60.210135 5.603318
-22.444541 58.934965 5.26855
-22.003319 59.09282 6.463985
-24.593227 41.685152 17.217678
-24.961191 41.804071 16.028261
-19.973433 29.268759 36.857027
-20.1788 27.880803 37.194851
-11.531514 45.812603 38.282166
-10.834519 45.2598 39.228382
-10.603936 46.817978 38.542766
-12.163132 46.407116 37.305765
-12.393716 44.848938 37.991381
-11.531514 45.812603 38.282166
-18.599756 64.054163 11.096583
-18.160146 63.784658 12.38663
-24.012425 45.443556 14.30058
-24.319616 44.208593 14.911417
-23.24908 49.157944 12.380747
-23.508874 47.880902 12.987281
-22.90643 49.02295 13.586644
-23.033501 50.291092 11.804418
-23.24908 49.157944 12.380747
-22.46628 51.503287 12.299498
-22.853144 51.494387 11.123806
-23.033501 50.291092 11.804418
-22.771282 37.133281 26.783791
-22.375166 36.77171 27.964419
-22.494032 38.472873 26.172642
-23.178514 37.441856 25.531365
-22.771282 37.133281 26.783791
-16.400162 36.911487 37.929178
-16.595772 35.458225 38.41925
-15.507143 65.685577 16.474175
-15.941979 65.9632 15.288381
-16.172101 64.546993 16.176413
-14.208535 63.45545 21.036119
-14.93084 62.35667 20.743323
-14.370683 62.11976 21.967189
-24.944295 38.985739 19.514156
-24.621853 38.652687 20.71768
-24.598836 40.198831 18.977263
-24.944295 38.985739 19.514156
-23.970228 41.100586 19.655938
-24.273029 41.446234 18.422272
-24.598836 40.198831 18.977263
-13.342792 58.199202 27.197045
-13.86099 58.519109 26.081041
-14.078094 57.078911 26.972636
-13.342792 58.199202 27.197045
-12.796387 57.801726 28.326093
-10.456245 48.369766 37.772461
-10.603936 46.817978 38.542766
-11.044037 48.962953 36.85792
-10.456245 48.369766 37.772461
-21.994528 36.384029 29.113242
-21.617289 35.990801 30.17746
-21.706162 37.776619 28.573892
-22.375166 36.77171 27.964419
-21.994528 36.384029 29.113242
-15.91313 39.948299 36.883419
-16.174989 38.44162 37.38983
-15.378144 39.2751 37.918368
-22.287155 56.432566 8.074889
-22.43078 55.130777 8.854302
-21.901642 56.378223 9.288023
-22.661811 56.501385 6.885193
-22.287155 56.432566 8.074889
-22.132672 57.748831 7.318913
-23.001922 56.544891 5.744094
-22.661811 56.501385 6.885193
-22.885061 57.760941 4.936709
-23.001922 56.544891 5.744094
-22.822274 58.878256 4.076042
-22.885061 57.760941 4.936709
-22.444541 58.934965 5.26855
-24.631915 42.988757 15.465961
-25.308288 41.967003 14.802463
-24.961191 41.804071 16.028261
-23.972518 44.045662 16.137215
-24.319616 44.208593 14.911417
-24.631915 42.988757 15.465961
-23.964619 42.586906 17.896352
-24.593227 41.685152 17.217678
-24.273029 41.446234 18.422272
-19.785878 30.719302 36.45417
-19.973433 29.268759 36.857027
-19.271716 30.186019 37.434679
-20.313985 31.128588 35.460729
-19.785878 30.719302 36.45417
-19.612268 32.045848 36.038381
-20.826987 31.624782 34.391287
-20.313985 31.128588 35.460729
-20.608891 32.967199 33.972376
-20.826987 31.624782 34.391287
-20.367174 34.4688 33.50185
-20.608891 32.967199 33.972376
-19.898658 33.956736 34.574415
-20.132869 35.877009 33.009703
-20.843101 34.887472 32.407663
-20.367174 34.4688 33.50185
-13.864556 61.838867 23.141298
-14.370683 62.11976 21.967189
-14.586861 60.740088 22.848502
-13.60321 60.049297 25.164031
-14.338513 58.929006 24.939622
-13.86099 58.519109 26.081041
-13.331118 61.47538 24.336165
-13.60321 60.049297 25.164031
-13.864556 61.838867 23.141298
-13.331118 61.47538 24.336165
-23.880212 38.141468 23.141711
-24.262842 38.419548 21.913997
-14.538647 40.117044 38.407622
-15.378144 39.2751 37.918368
-14.339681 41.622812 37.800921
-14.538647 40.117044 38.407622
-14.11441 43.199736 37.134384
-14.891013 42.358703 36.745421
-14.339681 41.622812 37.800921
-13.294206 43.953648 37.602432
-12.393716 44.848938 37.991381
-13.845538 44.689539 36.546932
-14.11441 43.199736 37.134384
-13.294206 43.953648 37.602432
-11.623088 49.543628 35.903272
-11.879981 47.951456 36.641903
-11.044037 48.962953 36.85792
-12.220262 50.077411 34.913134
-11.623088 49.543628 35.903272
-12.7801 50.641432 33.873772
-13.018869 49.096152 34.647894
-12.220262 50.077411 34.913134
-12.515342 52.24186 33.038701
-13.313949 51.260599 32.773461
-12.7801 50.641432 33.873772
-12.232484 53.796498 32.24825
-12.515342 52.24186 33.038701
-12.773281 54.344787 31.151429
-12.232484 53.796498 32.24825
-19.622932 27.358107 38.177059
-20.1788 27.880803 37.194851
-18.890084 28.092518 38.831533
-19.622932 27.358107 38.177059
-18.189286 28.808728 39.44276
-18.758472 29.451686 38.448763
-18.890084 28.092518 38.831533
-17.405884 29.647598 40.046869
-18.189286 28.808728 39.44276
-16.633793 30.523561 40.602694
-17.285582 31.043859 39.615814
-17.405884 29.647598 40.046869
-19.196906 62.689976 10.867857
-19.750002 61.375436 10.668119
-19.298394 61.374666 11.81061
-19.196906 62.689976 10.867857
-18.599756 64.054163 11.096583
-23.765427 46.68376 13.605832
-24.012425 45.443556 14.30058
-23.413221 46.505703 14.887925
-23.765427 46.68376 13.605832
-23.508874 47.880902 12.987281
-22.689511 52.675934 10.422628
-22.853144 51.494387 11.123806
-22.165595 53.891508 10.843161
-22.569183 53.860861 9.646903
-22.689511 52.675934 10.422628
-23.541839 37.838739 24.300038
-23.178514 37.441856 25.531365
-23.239638 39.084177 23.76189
-23.880212 38.141468 23.141711
-23.541839 37.838739 24.300038
-16.815441 33.954278 38.879133
-17.056574 32.483241 39.262491
-17.379988 34.550606 37.893461
-16.815441 33.954278 38.879133
-16.595772 35.458225 38.41925
-16.935147 37.584687 36.894229
-16.400162 36.911487 37.929178
-16.174989 38.44162 37.38983
-17.719494 63.566194 13.659884
-18.160146 63.784658 12.38663
-18.304645 62.470741 13.283601
-17.090966 64.852363 13.876766
-17.719494 63.566194 13.659884
-17.235465 63.538446 14.773737
-16.469899 66.161495 14.010506
-17.090966 64.852363 13.876766
-16.469899 66.161495 14.010506
-15.941979 65.9632 15.288381
-14.041885 64.806923 20.069845
-14.208535 63.45545 21.036119
-14.559605 65.0891 18.885073
-14.041885 64.806923 20.069845
-13.832797 66.203663 19.142664
-15.043892 65.377606 17.66005
-15.252979 63.980866 18.587231
-14.559605 65.0891 18.885073
-15.507143 65.685577 16.474175
-15.043892 65.377606 17.66005
-20.187551 61.476301 9.399473
-20.289038 60.160992 10.342227
-19.750002 61.375436 10.668119
-20.603366 61.630792 8.154931
-20.187551 61.476301 9.399473
-20.989728 61.683859 7.017516
-21.112949 60.314923 7.936167
-20.603366 61.630792 8.154931
-21.443185 61.551203 5.856255
-20.989728 61.683859 7.017516
-20.933602 62.867073 6.075019
-21.940532 60.210135 5.603318
-21.443185 61.551203 5.856255
3 0 31 29
3 1 111 113
3 111 32 112
3 111 112 113
3 1 34 32
3 114 37 115
3 116 115 35
3 114 115 116
3 117 40 118
3 119 118 38
3 117 118 119
3 120 42 121
3 122 121 40
3 120 121 122
3 124 123 42
3 3 45 43
3 3 47 45
3 4 125 126
3 4 127 129
3 127 48 128
3 127 128 129
3 2 51 49
3 5 54 52
3 5 56 54
3 5 58 56
3 6 61 59
3 6 63 61
3 6 65 63
3 7 130 131
3 8 66 30
3 8 132 134
3 134 133 66
3 132 133 134
3 135 67 136
3 10 68 33
3 10 69 68
3 11 137 138
3 12 70 36
3 12 71 70
3 13 74 72
3 15 75 39
3 15 76 75
3 15 78 76
3 17 79 41
3 17 80 79
3 17 82 80
3 18 139 141
3 139 140 141
3 18 142 144
3 142 83 143
3 142 143 144
3 18 84 83
3 146 145 85
3 9 147 148
3 19 149 151
3 151 150 44
3 149 150 151
3 19 152 153
3 19 154 156
3 154 86 155
3 154 155 156
3 20 87 46
3 20 88 87
3 21 157 158
3 21 159 161
3 159 89 160
3 159 160 161
3 162 90 163
3 22 91 50
3 22 92 91
3 14 93 73
3 23 94 53
3 23 95 94
3 23 96 95
3 24 97 55
3 24 98 97
3 24 99 98
3 25 100 57
3 25 101 100
3 16 102 77
3 26 103 60
3 26 104 103
3 26 105 104
3 27 106 62
3 27 107 106
3 27 108 107
3 28 109 64
3 28 164 166
3 166 165 109
3 164 165 166
3 167 110 168
3 169 168 81
3 167 168 169
3 29 30 7
3 31 30 29
3 31 8 30
3 32 170 171
3 32 172 173
3 32 174 176
3 174 33 175
3 174 175 176
3 34 33 32
3 34 10 33
3 35 36 11
3 37 36 35
3 37 12 36
3 38 39 13
3 40 39 38
3 40 15 39
3 40 41 15
3 42 41 40
3 42 17 41
3 42 177 179
3 179 178 17
3 177 178 179
3 181 180 42
3 182 18 183
3 185 184 18
3 43 44 9
3 45 44 43
3 45 19 44
3 45 46 19
3 47 46 45
3 47 20 46
3 48 186 187
3 48 188 190
3 188 21 189
3 188 189 190
3 49 191 193
3 191 50 192
3 191 192 193
3 51 50 49
3 51 22 50
3 52 53 14
3 54 53 52
3 54 23 53
3 54 55 23
3 56 55 54
3 56 24 55
3 56 57 24
3 58 57 56
3 58 25 57
3 59 60 16
3 61 60 59
3 61 26 60
3 61 62 26
3 63 62 61
3 63 27 62
3 63 64 27
3 65 64 63
3 65 28 64
3 30 194 196
3 196 195 7
3 194 195 196
3 66 197 199
3 199 198 30
3 197 198 199
3 66 200 201
3 66 202 203
3 206 205 66
3 204 205 206
3 67 207 209
3 207 208 209
3 67 210 212
3 210 9 211
3 210 211 212
3 33 213 215
3 213 67 214
3 213 214 215
3 68 67 33
3 68 9 67
3 68 43 9
3 69 43 68
3 69 3 43
3 36 216 218
3 218 217 11
3 216 217 218
3 70 219 221
3 221 220 36
3 219 220 221
3 70 222 223
3 70 224 225
3 71 226 228
3 228 227 70
3 226 227 228
3 71 229 231
3 229 4 230
3 229 230 231
3 72 73 2
3 74 73 72
3 74 14 73
3 39 74 13
3 75 74 39
3 75 14 74
3 75 52 14
3 76 52 75
3 76 5 52
3 76 77 5
3 78 77 76
3 78 16 77
3 41 78 15
3 79 78 41
3 79 16 78
3 79 59 16
3 80 59 79
3 80 6 59
3 80 81 6
3 82 81 80
3 82 232 234
3 234 233 81
3 232 233 234
3 235 82 236
3 237 236 17
3 235 236 237
3 238 82 239
3 241 240 82
3 242 1 243
3 244 49 245
3 246 49 247
3 248 2 249
3 250 249 49
3 248 249 250
3 83 251 252
3 83 253 255
3 253 2 254
3 253 254 255
3 83 72 2
3 84 72 83
3 84 13 72
3 256 84 257
3 258 257 18
3 256 257 258
3 259 84 260
3 261 13 262
3 263 262 84
3 261 262 263
3 264 38 265
3 266 265 13
3 264 265 266
3 267 38 268
3 270 269 38
3 271 11 272
3 273 11 274
3 275 35 276
3 277 276 11
3 275 276 277
3 278 35 279
3 282 281 35
3 280 281 282
3 85 283 285
3 285 284 0
3 283 284 285
3 287 286 85
3 44 288 290
3 290 289 9
3 288 289 290
3 292 291 44
3 86 293 294
3 86 295 297
3 295 7 296
3 295 296 297
3 46 86 19
3 87 86 46
3 87 7 86
3 87 29 7
3 88 29 87
3 88 0 29
3 89 298 299
3 89 300 302
3 300 1 301
3 300 301 302
3 303 37 304
3 90 305 307
3 305 37 306
3 305 306 307
3 90 12 37
3 50 308 310
3 308 90 309
3 308 309 310
3 91 90 50
3 91 12 90
3 91 71 12
3 92 71 91
3 92 4 71
3 73 51 2
3 93 51 73
3 93 22 51
3 53 93 14
3 94 93 53
3 94 22 93
3 94 92 22
3 95 92 94
3 95 4 92
3 95 48 4
3 96 48 95
3 96 21 48
3 55 96 23
3 97 96 55
3 97 21 96
3 97 89 21
3 98 89 97
3 98 1 89
3 98 34 1
3 99 34 98
3 99 10 34
3 57 99 24
3 100 99 57
3 100 10 99
3 100 69 10
3 101 69 100
3 101 3 69
3 77 58 5
3 102 58 77
3 102 25 58
3 60 102 16
3 103 102 60
3 103 25 102
3 103 101 25
3 104 101 103
3 104 3 101
3 104 47 3
3 105 47 104
3 105 20 47
3 62 105 26
3 106 105 62
3 106 20 105
3 106 88 20
3 107 88 106
3 107 0 88
3 107 85 0
3 108 85 107
3 108 311 313
3 313 312 85
3 311 312 313
3 64 108 27
3 109 108 64
3 109 314 316
3 316 315 108
3 314 315 316
3 109 317 318
3 320 319 109
3 81 65 6
3 110 65 81
3 110 28 65
3 321 110 322
3 323 110 324
3 323 324 325
3 326 28 327
3 328 327 110
3 326 327 328
3 330 329 28
3 331 31 332
3 333 332 0
3 331 332 333
3 334 31 335
3 336 8 337
3 338 337 31
3 336 337 338
3 339 8 340
3 339 340 341
3 343 342 8
