ply
format ascii 1.0
element vertex 165
property float x
property float y
property float z
element face 155
property list uchar int vertex_index
end_header
25.885391 12.901059 -70.331955
30.48975 -1.073428 -65.342247
24.37088 7.073595 -70.170547
34.668114 -11.356591 -59.116707
33.698982 -3.117537 -62.362423
31.651331 -8.788216 -62.323772
28.288628 -7.03097 -64.677353
29.768728 12.012524 -67.697067
32.067852 4.689155 -65.258591
28.552561 6.129224 -68.059029
26.763741 0.452781 -67.652771
25.108635 10.102015 -70.419189
33.450893 -14.005194 -59.239178
33.139454 -10.187976 -60.809769
31.909554 -12.976199 -60.70089
30.321888 -11.895532 -62.00779
32.123539 -2.080468 -63.946957
32.986767 0.85626 -63.843174
31.275679 1.932207 -65.473106
30.365316 5.838687 -66.807907
29.580635 2.719475 -66.794373
27.612946 3.23903 -67.988892
28.747688 -0.374093 -66.522072
23.69669 4.158694 -69.688644
35.626282 -8.191032 -59.07132
35.144917 -3.974267 -60.664051
34.306477 -7.111215 -60.752548
32.881584 -6.204051 -62.254906
31.186708 -5.005483 -63.808205
29.487879 -3.963211 -65.106041
29.914116 -7.938358 -63.60688
35.953426 -12.198713 -57.512581
34.84108 -15.382644 -57.556198
27.933945 12.350042 -69.080772
31.060152 8.423479 -66.498329
29.105152 9.121027 -68.089653
27.224487 9.583654 -69.312004
26.492895 6.721782 -69.242821
25.608347 3.969526 -69.017921
24.910152 1.056279 -68.475304
27.63847 -3.217019 -66.208427
25.775747 -2.512399 -67.115738
24.764555 13.066735 -70.861999
25.051419 14.396248 -70.795547
25.497013 11.501537 -70.375572
24.376177 11.667213 -70.905617
24.764555 13.066735 -70.861999
32.011562 -15.038391 -59.854473
32.680223 -13.490696 -59.970034
32.782232 -15.552889 -59.123618
31.19987 -14.556987 -60.509337
32.011562 -15.038391 -59.854473
23.358918 7.126717 -70.483615
23.657184 8.713675 -70.718498
24.033785 5.616144 -69.929596
23.021823 5.669266 -70.242664
23.358918 7.126717 -70.483615
29.495579 -11.486028 -62.54306
29.575997 -13.422852 -61.777264
36.497047 -12.801611 -56.632166
36.39809 -10.835373 -57.350092
34.849342 -17.408171 -56.771166
35.486084 -15.888037 -56.70944
34.178446 -16.977326 -57.504341
34.849342 -17.408171 -56.771166
29.090143 13.58922 -68.177993
30.078972 13.176341 -67.342208
28.851337 12.181283 -68.38892
28.172752 13.757979 -68.869846
29.090143 13.58922 -68.177993
34.116757 -1.613902 -62.22641
34.839724 -2.042267 -61.377224
34.421949 -3.545902 -61.513237
32.894543 4.240747 -64.382042
33.354 2.324299 -63.674334
32.52731 2.772708 -64.550883
32.436356 5.996626 -65.002015
32.894543 4.240747 -64.382042
31.564002 6.556317 -65.87846
31.932505 7.863788 -65.621883
32.436356 5.996626 -65.002015
25.244496 -3.964477 -66.778732
26.134249 -4.280719 -66.406811
24.821121 -2.203667 -67.479255
25.244496 -3.964477 -66.778732
24.026061 10.227885 -70.842819
24.376177 11.667213 -70.905617
24.739757 8.587805 -70.294868
23.657184 8.713675 -70.718498
24.026061 10.227885 -70.842819
30.406038 -14.016653 -61.162786
31.115721 -12.435865 -61.35434
31.19987 -14.556987 -60.509337
29.575997 -13.422852 -61.777264
30.406038 -14.016653 -61.162786
30.697536 11.513362 -66.842865
30.078972 13.176341 -67.342208
27.39069 -6.540005 -65.187618
27.702528 -8.459644 -64.390961
22.692864 4.256185 -69.948986
23.021823 5.669266 -70.242664
23.297714 2.807884 -69.402664
22.692864 4.256185 -69.948986
35.385599 -6.08265 -59.867686
35.796919 -4.615399 -59.699492
36.037602 -6.723781 -58.903126
29.291694 -9.507442 -63.342605
30.118002 -9.916945 -62.807335
29.495579 -11.486028 -62.54306
28.478949 -9.053748 -63.877842
29.101372 -7.484664 -64.142117
29.291694 -9.507442 -63.342605
27.702528 -8.459644 -64.390961
28.478949 -9.053748 -63.877842
26.103686 14.333174 -70.218338
25.051419 14.396248 -70.795547
36.234518 -8.831533 -58.129462
36.037602 -6.723781 -58.903126
35.789854 -10.194872 -58.29195
36.234518 -8.831533 -58.129462
36.39809 -10.835373 -57.350092
36.042257 -14.296072 -56.687631
36.497047 -12.801611 -56.632166
35.397253 -13.790679 -57.53439
36.042257 -14.296072 -56.687631
35.486084 -15.888037 -56.70944
33.483352 -16.288601 -58.345831
34.145986 -14.693919 -58.397688
34.178446 -16.977326 -57.504341
32.814691 -17.836296 -58.230271
32.782232 -15.552889 -59.123618
33.483352 -16.288601 -58.345831
27.127963 14.057665 -69.592747
28.172752 13.757979 -68.869846
26.909668 12.62555 -69.706363
26.103686 14.333174 -70.218338
27.127963 14.057665 -69.592747
35.529206 -2.671637 -60.415104
35.796919 -4.615399 -59.699492
35.529206 -2.671637 -60.415104
34.839724 -2.042267 -61.377224
33.760649 0.372997 -62.966786
34.116757 -1.613902 -62.22641
33.342875 -1.130638 -63.102798
33.760649 0.372997 -62.966786
33.354 2.324299 -63.674334
31.343247 9.718839 -66.243496
31.932505 7.863788 -65.621883
30.41444 10.218001 -67.097698
30.697536 11.513362 -66.842865
31.343247 9.718839 -66.243496
23.904446 1.256676 -68.795994
23.297714 2.807884 -69.402664
24.303421 2.607486 -69.081974
27.065611 -4.633029 -65.953156
27.963549 -5.123995 -65.44289
27.39069 -6.540005 -65.187618
26.707109 -2.864709 -66.662082
27.065611 -4.633029 -65.953156
26.134249 -4.280719 -66.406811
24.388323 -0.419328 -68.159038
25.342949 -0.72806 -67.795521
24.821121 -2.203667 -67.479255
23.904446 1.256676 -68.795994
24.388323 -0.419328 -68.159038
3 0 42 43
3 0 44 46
3 44 11 45
3 44 45 46
3 47 14 48
3 49 48 12
3 47 48 49
3 51 50 14
3 1 18 16
3 1 20 18
3 1 22 20
3 2 52 53
3 2 54 56
3 54 23 55
3 54 55 56
3 3 26 24
3 5 27 13
3 5 28 27
3 5 30 28
3 58 57 15
3 59 31 60
3 61 32 62
3 64 63 32
3 7 65 66
3 7 67 69
3 67 33 68
3 67 68 69
3 4 70 72
3 72 71 25
3 70 71 72
3 8 73 75
3 75 74 17
3 73 74 75
3 8 76 77
3 8 78 80
3 78 34 79
3 78 79 80
3 9 35 19
3 9 36 35
3 9 37 36
3 10 38 21
3 10 39 38
3 6 40 29
3 81 41 82
3 84 83 41
3 11 85 86
3 11 87 89
3 87 2 88
3 87 88 89
3 12 13 3
3 14 13 12
3 14 5 13
3 14 15 5
3 90 15 91
3 92 91 14
3 90 91 92
3 94 93 15
3 95 7 96
3 16 17 4
3 18 17 16
3 18 8 17
3 18 19 8
3 20 19 18
3 20 9 19
3 20 21 9
3 22 21 20
3 22 10 21
3 98 97 6
3 23 99 100
3 23 101 102
3 24 103 105
3 103 25 104
3 103 104 105
3 26 25 24
3 26 4 25
3 13 26 3
3 27 26 13
3 27 4 26
3 27 16 4
3 28 16 27
3 28 1 16
3 28 29 1
3 30 29 28
3 30 6 29
3 15 30 5
3 106 30 107
3 108 107 15
3 106 107 108
3 109 6 110
3 111 110 30
3 109 110 111
3 113 112 6
3 114 0 115
3 116 24 117
3 31 118 120
3 118 24 119
3 118 119 120
3 31 3 24
3 121 31 122
3 32 123 125
3 123 31 124
3 123 124 125
3 32 3 31
3 32 12 3
3 126 12 127
3 128 127 32
3 126 127 128
3 131 130 12
3 129 130 131
3 33 132 133
3 33 134 136
3 134 0 135
3 134 135 136
3 25 137 138
3 140 139 25
3 17 141 143
3 143 142 4
3 141 142 143
3 145 144 17
3 34 146 147
3 34 148 150
3 148 7 149
3 148 149 150
3 19 34 8
3 35 34 19
3 35 7 34
3 35 33 7
3 36 33 35
3 36 0 33
3 36 11 0
3 37 11 36
3 37 2 11
3 21 37 9
3 38 37 21
3 38 2 37
3 38 23 2
3 39 23 38
3 39 151 153
3 153 152 23
3 151 152 153
3 29 22 1
3 40 22 29
3 40 10 22
3 154 40 155
3 156 155 6
3 154 155 156
3 41 157 159
3 157 40 158
3 157 158 159
3 41 10 40
3 41 39 10
3 160 39 161
3 162 161 41
3 160 161 162
3 164 163 39
