ply
format ascii 1.0
element vertex 157
property float x
property float y
property float z
element face 130
property list uchar int vertex_index
end_header
9.896015 -36.803749 -38.542763
17.379654 -39.698597 -30.032179
14.369769 -37.285191 -33.409447
11.448619 -34.12759 -36.592968
8.582203 -30.703056 -39.91106
5.929104 -26.74507 -43.39579
7.130352 -33.014774 -41.797718
15.851645 -38.415821 -31.778559
12.06302 -37.118362 -35.980076
10.57549 -35.518318 -37.635612
9.976767 -32.418808 -38.255642
9.174673 -33.576511 -39.238201
7.774426 -31.62042 -40.932674
8.497135 -34.905781 -40.150379
16.834236 -36.595184 -30.77832
15.352971 -35.365559 -32.414837
13.81737 -34.095699 -34.068417
12.937631 -35.625832 -34.962631
10.690056 -31.036295 -37.485748
9.30476 -29.352339 -39.092964
7.985895 -27.706898 -40.711697
6.658536 -25.812624 -42.471973
7.221211 -28.751331 -41.634155
6.416376 -29.724216 -42.685398
7.845899 -36.306568 -41.040562
6.371161 -34.150986 -42.792042
5.43125 -23.603191 -44.272083
10.235753 -36.161034 -38.089188
10.998411 -37.12644 -37.241514
10.658674 -37.769155 -37.69509
17.106945 -38.14689 -30.40525
17.596024 -37.241324 -29.895931
17.868733 -38.79303 -29.522861
11.844178 -33.4002 -36.180884
12.588684 -34.149321 -35.365715
12.193125 -34.876711 -35.7778
11.069337 -32.581942 -37.039358
11.464896 -31.854552 -36.627274
11.844178 -33.4002 -36.180884
6.439732 -31.874402 -42.686299
6.082743 -30.229123 -43.130139
6.773364 -31.369495 -42.241558
8.227415 -38.12668 -40.691033
8.56037 -37.33034 -40.233448
5.981253 -34.621767 -43.272898
6.744524 -35.817516 -42.383391
5.697677 -32.965045 -43.646755
5.981253 -34.621767 -43.272898
16.199551 -40.077812 -31.38915
16.615649 -39.057209 -30.905369
16.963555 -40.7192 -30.51596
15.509586 -39.400086 -32.176189
16.199551 -40.077812 -31.38915
14.768648 -38.83477 -32.991633
15.110707 -37.850506 -32.594003
15.509586 -39.400086 -32.176189
11.742176 -37.926462 -36.413746
12.491723 -38.768774 -35.589037
11.319255 -36.31834 -36.807844
11.742176 -37.926462 -36.413746
10.998411 -37.12644 -37.241514
5.311294 -25.539062 -44.330711
5.538985 -27.022569 -43.930633
10.344583 -38.559 -38.149277
10.658674 -37.769155 -37.69509
9.585427 -37.57893 -38.984549
10.344583 -38.559 -38.149277
17.417977 -35.675493 -30.234368
18.179765 -36.321632 -29.351979
17.596024 -37.241324 -29.895931
16.615187 -35.088516 -31.128247
17.417977 -35.675493 -30.234368
15.874554 -34.473703 -31.946506
16.615187 -35.088516 -31.128247
16.093604 -35.980372 -31.596578
15.065571 -33.88912 -32.816248
15.874554 -34.473703 -31.946506
14.297771 -33.25419 -33.643038
15.065571 -33.88912 -32.816248
14.585171 -34.730629 -33.241627
13.502549 -32.586619 -34.493095
14.297771 -33.25419 -33.643038
13.993835 -38.085854 -33.847217
14.768648 -38.83477 -32.991633
12.840461 -38.002439 -35.132532
12.491723 -38.768774 -35.589037
13.277767 -37.256175 -34.62381
12.840461 -38.002439 -35.132532
12.500325 -36.372097 -35.471353
13.6537 -36.455512 -34.186039
13.993835 -38.085854 -33.847217
13.277767 -37.256175 -34.62381
13.028553 -33.384254 -34.918608
13.377501 -34.860765 -34.515524
12.588684 -34.149321 -35.365715
13.502549 -32.586619 -34.493095
13.028553 -33.384254 -34.918608
11.173189 -30.423157 -37.023634
11.464896 -31.854552 -36.627274
10.440863 -29.557439 -37.855372
11.173189 -30.423157 -37.023634
9.748216 -28.715461 -38.65898
10.440863 -29.557439 -37.855372
9.997408 -30.194317 -38.289356
9.048644 -27.971037 -39.482181
9.748216 -28.715461 -38.65898
8.389212 -27.148316 -40.291548
9.048644 -27.971037 -39.482181
8.645328 -28.529618 -39.902331
7.713614 -26.213239 -41.160048
8.389212 -27.148316 -40.291548
7.322216 -26.759761 -41.591835
7.049934 -25.266102 -42.040185
7.713614 -26.213239 -41.160048
5.782621 -28.512142 -43.575437
5.538985 -27.022569 -43.930633
6.17274 -28.234643 -43.040594
5.782621 -28.512142 -43.575437
6.082743 -30.229123 -43.130139
8.885987 -36.629946 -39.788356
9.196575 -35.854765 -39.346571
9.585427 -37.57893 -38.984549
8.171517 -35.606174 -40.595471
8.885987 -36.629946 -39.788356
8.56037 -37.33034 -40.233448
7.481893 -36.895308 -41.50765
8.227415 -38.12668 -40.691033
7.10853 -35.228777 -41.916302
7.481893 -36.895308 -41.50765
6.744524 -35.817516 -42.383391
6.060136 -32.442508 -43.183461
6.439732 -31.874402 -42.686299
6.750756 -33.58288 -42.29488
6.060136 -32.442508 -43.183461
5.697677 -32.965045 -43.646755
18.097807 -40.350361 -29.156899
17.868733 -38.79303 -29.522861
18.586886 -39.444794 -28.64758
17.654812 -41.328114 -29.679431
18.097807 -40.350361 -29.156899
17.238714 -42.348717 -30.163212
16.963555 -40.7192 -30.51596
17.654812 -41.328114 -29.679431
6.426831 -24.274496 -42.919485
7.049934 -25.266102 -42.040185
5.813188 -23.169779 -43.81954
6.426831 -24.274496 -42.919485
6.044893 -24.707907 -43.372028
5.246178 -22.114841 -44.710184
5.813188 -23.169779 -43.81954
5.062368 -23.968123 -44.768858
5.680177 -25.17413 -43.833937
5.311294 -25.539062 -44.330711
4.870829 -22.499417 -45.18777
5.062368 -23.968123 -44.768858
5.246178 -22.114841 -44.710184
4.870829 -22.499417 -45.18777
3 0 27 29
3 27 9 28
3 27 28 29
3 0 11 9
3 0 13 11
3 1 30 32
3 30 14 31
3 30 31 32
3 2 15 7
3 2 16 15
3 3 17 8
3 3 33 35
3 35 34 17
3 33 34 35
3 3 36 38
3 36 18 37
3 36 37 38
3 4 19 10
3 4 20 19
3 4 22 20
3 6 23 12
3 6 39 41
3 41 40 23
3 39 40 41
3 42 24 43
3 44 25 45
3 47 46 25
3 5 26 21
3 48 7 49
3 50 49 1
3 48 49 50
3 51 7 52
3 53 2 54
3 55 54 7
3 53 54 55
3 56 8 57
3 9 58 60
3 58 8 59
3 58 59 60
3 9 3 8
3 9 10 3
3 11 10 9
3 11 4 10
3 11 12 4
3 13 12 11
3 13 6 12
3 62 61 5
3 63 0 64
3 66 65 0
3 14 67 69
3 67 68 69
3 14 70 71
3 7 14 1
3 15 14 7
3 15 72 74
3 74 73 14
3 72 73 74
3 15 75 76
3 16 77 79
3 79 78 15
3 77 78 79
3 16 80 81
3 82 2 83
3 8 84 85
3 17 86 88
3 88 87 8
3 86 87 88
3 17 89 91
3 89 2 90
3 89 90 91
3 17 16 2
3 92 16 93
3 94 93 17
3 92 93 94
3 96 95 16
3 18 97 98
3 18 99 100
3 10 18 3
3 19 18 10
3 19 101 103
3 103 102 18
3 101 102 103
3 19 104 105
3 20 106 108
3 108 107 19
3 106 107 108
3 20 109 110
3 20 111 113
3 111 21 112
3 111 112 113
3 22 21 20
3 22 5 21
3 12 22 4
3 23 22 12
3 23 5 22
3 23 114 116
3 116 115 5
3 114 115 116
3 118 117 23
3 119 13 120
3 121 120 0
3 119 120 121
3 24 122 124
3 122 13 123
3 122 123 124
3 24 6 13
3 125 24 126
3 25 127 129
3 127 24 128
3 127 128 129
3 25 6 24
3 25 130 132
3 132 131 6
3 130 131 132
3 134 133 25
3 135 1 136
3 135 136 137
3 138 1 139
3 142 141 1
3 140 141 142
3 21 143 144
3 26 145 147
3 147 146 21
3 145 146 147
3 26 148 149
3 150 26 151
3 152 151 5
3 150 151 152
3 153 26 154
3 156 155 26
