ply
format ascii 1.0
element vertex 300
property float x
property float y
property float z
element face 297
property list uchar int vertex_index
end_header
6.100946 -75.283157 -43.880764
-2.884538 -57.549728 -44.318584
3.057129 -39.254333 -50.354649
11.57533 -58.518627 -48.21051
0.713821 -67.793343 -44.556896
6.784005 -49.827591 -49.415119
-1.714025 -37.096523 -47.613861
12.07366 -69.544136 -44.953602
8.918941 -67.015022 -46.026371
-4.316864 -71.051247 -42.32341
-1.217598 -62.793388 -44.502861
3.956108 -58.907135 -46.86668
1.827839 -54.057178 -46.934647
7.097048 -35.729259 -53.045143
0.247922 -48.342819 -47.145363
-0.910508 -42.824429 -47.39175
-2.482189 -76.163712 -42.414017
3.291743 -71.915138 -44.489082
6.355738 -63.151051 -46.654583
9.086836 -54.36895 -48.939476
4.75309 -44.73962 -49.840061
9.055471 -40.765041 -52.2798
7.825049 -76.527367 -43.333401
10.56821 -73.654907 -43.818645
9.038397 -72.532494 -44.469589
10.450859 -68.557266 -45.524544
7.514924 -71.139153 -44.974503
-4.338158 -61.447243 -43.186855
-3.738294 -64.447723 -43.215878
-1.985681 -60.041 -44.487419
0.281168 -58.451004 -45.666817
-0.543482 -55.513336 -45.700871
-4.352693 -48.686481 -44.341534
-2.356387 -47.093464 -45.8587
-2.776134 -44.15942 -45.93425
-1.767084 -69.530838 -43.500706
-3.341725 -73.530006 -42.455215
-0.726491 -71.994148 -43.539921
0.462739 -74.060356 -43.546906
1.858765 -69.923691 -44.553291
4.643038 -67.717415 -45.502201
3.480265 -65.586159 -45.637703
5.346334 -54.23542 -48.111568
6.537027 -56.510445 -47.976276
7.823985 -52.256229 -49.153854
10.131048 -50.053638 -50.128834
9.148494 -47.508476 -50.554096
1.626958 -44.079948 -48.608829
2.568639 -46.480339 -48.576138
3.772247 -42.156319 -50.017494
8.989397 -33.63028 -54.349937
8.071516 -38.321777 -52.650246
-3.085865 -41.418121 -45.978622
-3.351477 -38.434525 -45.984768
10.219929 -62.859901 -47.082733
-2.73891 -67.025787 -43.398121
-0.212936 -65.21833 -44.587593
2.329852 -63.322826 -45.686634
1.329421 -60.747746 -45.742386
2.913883 -56.455856 -46.951649
4.288744 -51.982033 -48.205414
4.989758 -37.714027 -51.639008
-1.245034 -52.795891 -45.727772
-1.860472 -49.915653 -45.785557
-0.379221 -45.598507 -47.266052
1.036837 -41.121704 -48.876022
-1.313932 -39.925663 -47.551521
0.330239 -38.432556 -48.95723
3.09022 -77.789627 -43.170517
1.907869 -75.723915 -43.51627
4.644066 -73.825943 -44.235687
6.029855 -69.629295 -45.288635
7.349791 -65.45446 -46.315037
8.904506 -60.930973 -47.459866
5.006652 -61.259529 -46.732525
7.638885 -58.757885 -47.749413
10.28518 -56.344437 -48.65358
11.563787 -51.821327 -49.894703
1.061433 -51.084671 -47.081593
3.364985 -49.24321 -48.377678
5.690564 -47.264706 -49.631397
5.99103 -40.263908 -51.386536
6.947749 -42.643188 -51.129894
8.008877 -45.365128 -50.787418
10.374434 -42.868744 -52.036835
-3.611348 -59.498486 -43.752719
-4.645358 -59.940325 -43.146912
-3.918548 -57.991568 -43.712776
-4.465924 -47.156221 -44.374285
-5.263708 -49.160367 -43.612971
-3.677645 -44.892691 -45.170643
-3.564414 -46.42295 -45.137892
-4.465924 -47.156221 -44.374285
12.931082 -56.925878 -48.638405
12.341648 -59.141688 -48.033535
12.184863 -56.173016 -48.842344
12.931082 -56.925878 -48.638405
9.514354 -34.878407 -54.124891
9.974601 -32.733605 -54.934343
-4.089739 -38.908915 -45.212168
-4.04283 -40.526592 -45.213017
12.753113 -70.224403 -44.51557
12.000388 -72.279789 -43.948091
11.320935 -71.599521 -44.386123
13.414904 -68.277783 -45.075489
12.753113 -70.224403 -44.51557
12.65411 -67.557594 -45.511398
13.414904 -68.277783 -45.075489
10.288767 -65.642933 -46.3468
11.054726 -66.414055 -46.095886
9.6849 -67.786144 -45.775458
9.569435 -64.937461 -46.554552
10.939261 -63.565372 -46.874981
10.288767 -65.642933 -46.3468
-2.886178 -50.789081 -45.071869
-2.556635 -52.104031 -45.129568
0.950147 -36.23987 -49.821101
0.110628 -37.069096 -49.04579
1.275183 -37.590274 -49.720486
0.950147 -36.23987 -49.821101
1.69596 -78.878948 -42.763838
2.449899 -79.674659 -42.629532
-5.140032 -73.058056 -41.776097
-5.591711 -71.87714 -41.662909
-3.797516 -76.868935 -41.863947
-4.227284 -75.552082 -41.884546
-2.911957 -74.846859 -42.434616
-3.264678 -78.096153 -41.88122
-3.797516 -76.868935 -41.863947
-1.769929 -77.096936 -42.455376
-3.264678 -78.096153 -41.88122
11.38469 -48.77772 -50.642666
10.802087 -47.786118 -50.828943
9.19663 -75.091137 -43.576023
9.962889 -75.643417 -43.202571
8.591309 -77.079647 -42.95995
-5.452628 -62.144785 -42.508555
-4.645358 -59.940325 -43.146912
-5.198115 -63.577911 -42.558846
-5.452628 -62.144785 -42.508555
-4.038226 -62.947483 -43.201366
-4.898183 -65.078151 -42.573357
-5.198115 -63.577911 -42.558846
-5.112601 -50.679363 -43.648058
-5.263708 -49.160367 -43.612971
-4.132288 -50.174495 -44.349857
-5.112601 -50.679363 -43.648058
-3.35454 -47.889972 -45.100117
-3.134135 -49.377987 -45.108441
-4.132288 -50.174495 -44.349857
-0.911504 -36.401079 -48.374105
-1.141228 -34.993101 -48.412001
10.31081 -46.513537 -51.041574
10.802087 -47.786118 -50.828943
9.639771 -48.781057 -50.341465
9.055414 -37.224155 -53.275046
8.530456 -35.976028 -53.500091
9.514354 -34.878407 -54.124891
9.547391 -38.445787 -53.089822
8.563493 -39.543409 -52.465023
9.055414 -37.224155 -53.275046
10.132665 -39.627857 -52.882565
9.547391 -38.445787 -53.089822
-3.910025 -42.01839 -45.209944
-3.832511 -43.522041 -45.192829
-3.218671 -39.926323 -45.981695
-3.910025 -42.01839 -45.209944
-4.04283 -40.526592 -45.213017
-3.469199 -37.007511 -45.93816
-4.089739 -38.908915 -45.212168
-4.207461 -37.481901 -45.16556
-2.737737 -36.426972 -46.754151
-3.469199 -37.007511 -45.93816
-1.91901 -35.75797 -47.568697
-2.532751 -37.765524 -46.799315
-2.737737 -36.426972 -46.754151
-1.141228 -34.993101 -48.412001
-1.91901 -35.75797 -47.568697
11.443607 -74.095825 -43.376838
9.962889 -75.643417 -43.202571
12.875785 -72.720707 -43.506285
11.443607 -74.095825 -43.376838
12.000388 -72.279789 -43.948091
11.84271 -67.06416 -45.796869
12.65411 -67.557594 -45.511398
11.262259 -69.050701 -45.239073
11.84271 -67.06416 -45.796869
11.054726 -66.414055 -46.095886
11.663948 -61.312325 -47.469646
10.939261 -63.565372 -46.874981
10.89763 -60.689264 -47.646621
12.341648 -59.141688 -48.033535
11.663948 -61.312325 -47.469646
-4.802713 -69.867421 -42.209427
-5.591711 -71.87714 -41.662909
-4.513427 -66.565658 -42.655661
-4.898183 -65.078151 -42.573357
-4.013736 -67.854691 -42.746783
-4.513427 -66.565658 -42.655661
-3.238602 -65.736755 -43.307
-3.527887 -69.038517 -42.860765
-4.802713 -69.867421 -42.209427
-4.013736 -67.854691 -42.746783
4.547441 -36.251844 -51.818022
4.023443 -38.48418 -50.996828
3.581126 -37.021997 -51.175843
5.50166 -35.433027 -52.50143
4.547441 -36.251844 -51.818022
6.555305 -34.440643 -53.204498
6.043403 -36.721643 -52.342075
5.50166 -35.433027 -52.50143
7.463342 -33.540382 -53.85311
6.555305 -34.440643 -53.204498
8.409516 -32.490893 -54.505506
8.043223 -34.679769 -53.69754
7.463342 -33.540382 -53.85311
9.434468 -31.34348 -55.24246
8.409516 -32.490893 -54.505506
9.974601 -32.733605 -54.934343
9.434468 -31.34348 -55.24246
-3.068668 -55.921068 -44.396082
-3.918548 -57.991568 -43.712776
-2.248916 -53.54415 -45.100676
-2.064786 -55.172809 -45.023178
-3.068668 -55.921068 -44.396082
-1.552753 -51.355772 -45.756664
-2.248916 -53.54415 -45.100676
-2.556635 -52.104031 -45.129568
-2.108429 -48.504559 -45.822128
-2.886178 -50.789081 -45.071869
-3.134135 -49.377987 -45.108441
-2.930999 -42.78877 -45.956436
-3.677645 -44.892691 -45.170643
-3.832511 -43.522041 -45.192829
-0.711458 -37.815649 -48.342935
-1.513978 -38.511093 -47.582691
-0.911504 -36.401079 -48.374105
-0.491847 -39.179109 -48.254376
-0.711458 -37.815649 -48.342935
0.110628 -37.069096 -49.04579
1.628481 -38.934849 -49.679882
0.683538 -39.77713 -48.916626
1.275183 -37.590274 -49.720486
2.638628 -38.001163 -50.419196
2.046983 -40.188018 -49.615336
1.628481 -38.934849 -49.679882
3.581126 -37.021997 -51.175843
2.638628 -38.001163 -50.419196
7.163768 -78.399609 -42.766631
8.591309 -77.079647 -42.95995
6.343324 -77.744972 -43.089832
7.163768 -78.399609 -42.766631
5.481273 -77.122867 -43.363514
6.962998 -75.905262 -43.607083
6.343324 -77.744972 -43.089832
3.97591 -78.376103 -43.00839
2.449899 -79.674659 -42.629532
4.595583 -76.536392 -43.52564
5.481273 -77.122867 -43.363514
3.97591 -78.376103 -43.00839
-4.652462 -74.297436 -41.841999
-5.140032 -73.058056 -41.776097
-3.829294 -72.290627 -42.389313
-5.538021 -76.319512 -41.27133
-4.652462 -74.297436 -41.841999
-4.227284 -75.552082 -41.884546
-0.297465 -76.045257 -43.021821
-1.769929 -77.096936 -42.455376
-1.009725 -75.112034 -42.980462
0.4251 -76.877037 -43.006502
-0.297465 -76.045257 -43.021821
1.185304 -74.892135 -43.531588
1.104785 -77.846092 -42.936715
0.4251 -76.877037 -43.006502
2.499045 -76.756771 -43.343393
1.69596 -78.878948 -42.763838
1.104785 -77.846092 -42.936715
11.539788 -55.085921 -49.063879
12.184863 -56.173016 -48.842344
10.930255 -57.431532 -48.432045
12.179092 -52.824365 -49.684441
11.539788 -55.085921 -49.063879
10.924484 -54.082882 -49.274141
12.766966 -50.561338 -50.330565
12.179092 -52.824365 -49.684441
12.101059 -49.661564 -50.5256
10.847417 -50.937483 -50.011769
11.38469 -48.77772 -50.642666
12.766966 -50.561338 -50.330565
12.101059 -49.661564 -50.5256
10.92378 -44.19367 -51.782944
10.31081 -46.513537 -51.041574
9.761464 -45.18861 -51.295466
10.792147 -40.679709 -52.761082
9.714953 -41.816892 -52.158318
10.132665 -39.627857 -52.882565
11.4594 -41.805531 -52.55538
10.792147 -40.679709 -52.761082
10.92378 -44.19367 -51.782944
11.4594 -41.805531 -52.55538
3 0 24 22
3 0 26 24
3 1 85 87
3 85 27 86
3 85 86 87
3 1 29 27
3 1 31 29
3 88 32 89
3 90 34 91
3 92 91 32
3 90 91 92
3 3 93 94
3 3 95 96
3 4 37 35
3 4 39 37
3 4 41 39
3 5 44 42
3 5 46 44
3 2 49 47
3 98 97 50
3 99 53 100
3 7 101 103
3 103 102 23
3 101 102 103
3 7 104 105
3 7 106 107
3 8 108 110
3 110 109 25
3 108 109 110
3 8 111 113
3 111 54 112
3 111 112 113
3 10 55 28
3 10 56 55
3 10 58 56
3 12 59 30
3 12 60 59
3 114 63 115
3 15 64 33
3 15 65 64
3 6 66 52
3 116 67 117
3 119 118 67
3 120 68 121
3 9 122 123
3 16 124 126
3 126 125 36
3 124 125 126
3 16 127 128
3 16 129 130
3 17 69 38
3 17 70 69
3 17 71 70
3 18 72 40
3 18 73 72
3 11 74 57
3 19 75 43
3 19 76 75
3 19 77 76
3 132 131 45
3 14 78 62
3 20 79 48
3 20 80 79
3 13 81 61
3 21 82 51
3 21 83 82
3 21 84 83
3 22 133 135
3 133 23 134
3 133 134 135
3 24 23 22
3 24 7 23
3 24 25 7
3 26 25 24
3 26 8 25
3 27 136 137
3 27 138 139
3 27 140 142
3 140 28 141
3 140 141 142
3 29 28 27
3 29 10 28
3 29 30 10
3 31 30 29
3 31 12 30
3 32 143 144
3 32 145 146
3 32 147 149
3 147 33 148
3 147 148 149
3 34 33 32
3 34 15 33
3 151 150 6
3 35 36 9
3 37 36 35
3 37 16 36
3 37 38 16
3 39 38 37
3 39 17 38
3 39 40 17
3 41 40 39
3 41 18 40
3 42 43 11
3 44 43 42
3 44 19 43
3 44 45 19
3 46 45 44
3 46 152 154
3 154 153 45
3 152 153 154
3 47 48 14
3 49 48 47
3 49 20 48
3 50 51 13
3 155 51 156
3 157 156 50
3 155 156 157
3 158 21 159
3 160 159 51
3 158 159 160
3 162 161 21
3 163 52 164
3 53 165 167
3 165 52 166
3 165 166 167
3 53 6 52
3 168 53 169
3 168 169 170
3 171 53 172
3 173 6 174
3 175 174 53
3 173 174 175
3 177 176 6
3 23 178 179
3 182 181 23
3 180 181 182
3 25 183 185
3 185 184 7
3 183 184 185
3 187 186 25
3 54 188 189
3 54 190 192
3 190 3 191
3 190 191 192
3 193 9 194
3 28 195 196
3 55 197 199
3 199 198 28
3 197 198 199
3 55 200 202
3 200 9 201
3 200 201 202
3 55 35 9
3 56 35 55
3 56 4 35
3 56 57 4
3 58 57 56
3 58 11 57
3 30 58 10
3 59 58 30
3 59 11 58
3 59 42 11
3 60 42 59
3 60 5 42
3 203 61 204
3 205 204 2
3 203 204 205
3 206 61 207
3 208 13 209
3 210 209 61
3 208 209 210
3 211 13 212
3 213 50 214
3 215 214 13
3 213 214 215
3 216 50 217
3 219 218 50
3 220 1 221
3 222 62 223
3 224 223 1
3 222 223 224
3 63 225 227
3 225 62 226
3 225 226 227
3 63 14 62
3 33 228 230
3 228 63 229
3 228 229 230
3 64 63 33
3 64 14 63
3 64 47 14
3 65 47 64
3 65 2 47
3 52 231 233
3 231 34 232
3 231 232 233
3 66 34 52
3 66 15 34
3 234 66 235
3 236 235 6
3 234 235 236
3 67 237 239
3 237 66 238
3 237 238 239
3 67 15 66
3 67 65 15
3 240 65 241
3 242 241 67
3 240 241 242
3 243 2 244
3 245 244 65
3 243 244 245
3 247 246 2
3 248 22 249
3 250 22 251
3 252 0 253
3 254 253 22
3 252 253 254
3 68 255 256
3 68 257 259
3 257 0 258
3 257 258 259
3 36 260 262
3 262 261 9
3 260 261 262
3 265 264 36
3 263 264 265
3 38 266 268
3 268 267 16
3 266 267 268
3 69 269 271
3 271 270 38
3 269 270 271
3 69 272 273
3 69 274 276
3 274 68 275
3 274 275 276
3 70 68 69
3 70 0 68
3 70 26 0
3 71 26 70
3 71 8 26
3 40 71 17
3 72 71 40
3 72 8 71
3 72 54 8
3 73 54 72
3 73 3 54
3 57 41 4
3 74 41 57
3 74 18 41
3 43 74 11
3 75 74 43
3 75 18 74
3 75 73 18
3 76 73 75
3 76 3 73
3 76 277 279
3 279 278 3
3 277 278 279
3 77 280 282
3 282 281 76
3 280 281 282
3 77 283 284
3 45 77 19
3 285 77 286
3 287 286 45
3 285 286 287
3 289 288 77
3 62 31 1
3 78 31 62
3 78 12 31
3 48 78 14
3 79 78 48
3 79 12 78
3 79 60 12
3 80 60 79
3 80 5 60
3 61 49 2
3 81 49 61
3 81 20 49
3 51 81 13
3 82 81 51
3 82 20 81
3 82 80 20
3 83 80 82
3 83 5 80
3 83 46 5
3 84 46 83
3 84 290 292
3 292 291 46
3 290 291 292
3 293 84 294
3 295 294 21
3 293 294 295
3 296 84 297
3 299 298 84
