ply
format ascii 1.0
element vertex 244
property float x
property float y
property float z
element face 225
property list uchar int vertex_index
end_header
3.494565 -32.773403 54.145683
5.534077 -38.742508 48.015987
3.620145 -46.232735 48.108727
0.585663 -40.66106 54.810001
4.541667 -35.765102 51.002163
3.215162 -39.657055 51.285931
2.002051 -36.702885 54.514824
6.260242 -32.209545 50.236755
6.994066 -35.30447 47.384754
0.495434 -33.664352 57.915089
5.806861 -44.876945 45.588436
4.446854 -42.494755 48.250599
2.129244 -43.52206 51.281773
-0.688813 -45.060829 54.453842
7.770079 -38.428646 44.868626
7.415576 -45.313759 43.490562
4.027141 -34.206413 52.614204
3.337073 -36.245918 52.677231
2.637853 -34.771576 54.458622
4.912695 -32.409683 52.193497
5.342753 -34.058594 50.624363
6.017538 -40.242882 46.689587
5.562464 -42.004002 46.757183
4.986874 -40.628265 48.114429
1.945301 -40.190536 53.015373
2.59162 -41.650593 51.393009
1.3 -42.249611 53.053288
0.753235 -44.385731 52.846764
0.002332 -42.857708 54.609165
-3.102862 -44.361954 57.795681
6.240627 -36.959934 47.715675
7.351031 -36.920483 46.075893
6.609311 -38.575558 46.450218
4.809292 -45.609371 46.716171
4.444884 -47.564919 46.588322
5.021417 -37.222099 49.511929
4.440931 -39.14299 49.568592
3.84332 -37.700264 51.174206
2.595533 -38.209209 52.910591
1.288566 -38.703487 54.670795
6.661859 -33.725498 48.746414
5.821226 -35.485813 49.105503
2.053467 -33.059933 56.079952
6.728937 -44.359047 44.503403
5.121879 -43.755192 46.840508
4.061019 -44.322926 48.170506
3.858583 -41.029831 49.704502
3.329 -43.033367 49.717899
2.799835 -45.017662 49.700958
1.549598 -45.756237 51.119637
1.24713 -35.209541 56.277313
0.528622 -37.223335 56.417263
-1.541001 -43.521473 56.325214
-2.252099 -45.825802 56.005806
8.111146 -35.203182 45.81583
8.480861 -36.774277 44.593193
6.580737 -46.069378 44.344299
7.415907 -44.622312 43.608139
7.780378 -44.850499 43.155653
4.20363 -32.591543 53.16959
4.673149 -31.598472 52.983408
3.964084 -31.780332 53.959501
6.700407 -31.296805 50.117982
6.025259 -31.428318 51.045275
6.880358 -32.098163 49.362965
7.320524 -31.185424 49.244192
6.700407 -31.296805 50.117982
6.46105 -32.967522 49.491585
7.081167 -32.85614 48.617794
6.880358 -32.098163 49.362965
-0.252897 -45.778204 53.522095
0.468127 -45.440655 52.718556
0.032211 -44.72328 53.650303
-0.970708 -46.121809 54.250443
-0.252897 -45.778204 53.522095
-0.224994 -37.500749 57.30917
0.105891 -36.469135 57.293
0.171852 -38.201655 56.485937
-0.224994 -37.500749 57.30917
-1.98457 -42.772658 57.240747
-1.181192 -42.399666 56.396376
-2.998921 -46.181135 56.670502
-2.67748 -45.093878 56.900744
-3.424303 -45.449211 57.565439
-2.511133 -46.916987 55.690729
-2.998921 -46.181135 56.670502
7.552606 -35.253826 46.600292
7.965116 -34.397482 46.450907
7.406576 -34.448126 47.235368
8.312575 -38.374834 44.199547
8.667966 -37.547649 44.06183
8.12547 -37.601461 44.730909
7.93429 -39.219475 44.38319
8.312575 -38.374834 44.199547
7.851585 -45.697016 42.956968
7.780378 -44.850499 43.155653
7.425385 -46.180996 43.335319
7.851585 -45.697016 42.956968
5.351486 -31.528387 52.023646
4.673149 -31.598472 52.983408
5.586469 -32.309614 51.215126
6.025259 -31.428318 51.045275
5.351486 -31.528387 52.023646
5.790001 -41.123442 46.723385
6.079157 -41.767118 46.087772
6.306694 -40.886558 46.053975
0.089297 -34.689644 58.041913
-0.316317 -33.903744 58.825726
-3.569596 -43.559172 58.727421
-2.7655 -43.192898 57.975981
-3.923331 -44.689466 58.529459
-3.569596 -43.559172 58.727421
-4.244772 -45.776724 58.299217
-3.424303 -45.449211 57.565439
-3.923331 -44.689466 58.529459
6.859667 -39.295462 45.823689
7.440051 -39.222006 45.032893
7.189695 -38.502102 45.659422
6.563781 -40.129124 45.943373
6.859667 -39.295462 45.823689
6.313424 -39.40922 46.569902
6.306694 -40.886558 46.053975
6.563781 -40.129124 45.943373
5.198201 -46.195213 46.056021
5.696986 -45.829 45.492153
5.308077 -45.243158 46.152304
5.015997 -47.172987 45.992096
5.198201 -46.195213 46.056021
4.627088 -46.587145 46.652247
4.929909 -48.15835 45.82686
5.015997 -47.172987 45.992096
7.240473 -33.65864 47.916199
7.081167 -32.85614 48.617794
6.827962 -34.514984 48.065584
7.406576 -34.448126 47.235368
7.240473 -33.65864 47.916199
3.461523 -47.333567 47.904027
3.019814 -46.706753 48.721903
2.518991 -32.126143 55.852354
2.774016 -32.916668 55.112817
3.23954 -31.982879 54.885219
1.733131 -32.355865 56.801391
2.518991 -32.126143 55.852354
0.954114 -32.658074 57.71896
1.27445 -33.362143 56.997521
1.733131 -32.355865 56.801391
0.133396 -32.83706 58.658162
0.954114 -32.658074 57.71896
0.592077 -31.830782 58.462032
-0.678354 -33.076452 59.568798
-0.316317 -33.903744 58.825726
0.133396 -32.83706 58.658162
3.23954 -31.982879 54.885219
3.964084 -31.780332 53.959501
6.868067 -43.625625 44.489639
7.072587 -44.144956 44.114559
6.439749 -43.779342 45.028376
6.868067 -43.625625 44.489639
5.978711 -44.038291 45.570892
6.267899 -44.617996 45.045919
6.439749 -43.779342 45.028376
5.856513 -42.60182 46.155266
6.079157 -41.767118 46.087772
5.63622 -43.477415 46.196928
5.856513 -42.60182 46.155266
5.342172 -42.879597 46.798845
5.46437 -44.316069 46.214472
5.978711 -44.038291 45.570892
5.63622 -43.477415 46.196928
2.609659 -46.099216 49.518018
3.019814 -46.706753 48.721903
3.20999 -45.625198 48.904843
1.984541 -46.468504 50.227358
2.609659 -46.099216 49.518018
2.174716 -45.38695 50.410297
1.344963 -46.834204 50.887799
1.984541 -46.468504 50.227358
0.866309 -46.125908 51.854992
1.151417 -45.070984 51.9832
0.468127 -45.440655 52.718556
1.344963 -46.834204 50.887799
0.866309 -46.125908 51.854992
0.465145 -35.462238 57.223025
0.871282 -34.436947 57.096201
0.089297 -34.689644 58.041913
0.887876 -36.216438 56.347288
0.465145 -35.462238 57.223025
0.105891 -36.469135 57.293
0.551824 -38.941731 55.612703
0.908594 -37.963411 55.544029
0.171852 -38.201655 56.485937
0.200373 -39.920517 55.682306
0.937115 -39.682274 54.740398
0.551824 -38.941731 55.612703
-0.11786 -40.969459 55.638769
0.200373 -39.920517 55.682306
-0.409525 -42.067784 55.538351
0.293998 -41.759384 54.709583
-0.11786 -40.969459 55.638769
-0.769335 -43.189591 55.46719
-0.409525 -42.067784 55.538351
-1.181192 -42.399666 56.396376
-2.321931 -43.941713 57.060448
-1.98457 -42.772658 57.240747
-2.7655 -43.192898 57.975981
-1.75235 -46.504295 55.026425
-0.970708 -46.121809 54.250443
-1.470456 -45.443315 55.229824
-1.75235 -46.504295 55.026425
-2.511133 -46.916987 55.690729
8.576432 -34.333002 45.63414
7.965116 -34.397482 46.450907
8.71819 -35.148663 45.041767
8.576432 -34.333002 45.63414
8.903048 -35.93421 44.430448
8.71819 -35.148663 45.041767
8.296004 -35.988729 45.204511
9.084105 -36.704742 43.886738
8.903048 -35.93421 44.430448
9.084105 -36.704742 43.886738
8.667966 -37.547649 44.06183
7.93429 -39.219475 44.38319
7.440051 -39.222006 45.032893
7.072256 -44.836403 43.996983
7.415907 -44.622312 43.608139
7.072587 -44.144956 44.114559
7.007966 -46.558806 43.762188
7.425385 -46.180996 43.335319
6.998157 -45.691569 43.91743
6.083924 -46.425217 44.870085
6.193799 -45.473162 44.966368
5.696986 -45.829 45.492153
6.547959 -47.05072 44.173561
6.083924 -46.425217 44.870085
6.975187 -47.540148 43.59145
7.007966 -46.558806 43.762188
6.547959 -47.05072 44.173561
3.873892 -47.999659 47.143824
4.032514 -46.898827 47.348524
3.461523 -47.333567 47.904027
4.346484 -48.579678 46.36083
3.873892 -47.999659 47.143824
4.929909 -48.15835 45.82686
4.346484 -48.579678 46.36083
3 57 15 58
3 0 18 16
3 0 59 61
3 59 19 60
3 59 60 61
3 0 16 19
3 1 23 21
3 3 26 24
3 3 28 26
3 1 32 30
3 1 21 32
3 2 34 33
3 4 37 35
3 6 38 17
3 6 39 38
3 7 62 63
3 7 64 66
3 64 65 66
3 7 67 69
3 67 40 68
3 67 68 69
3 4 41 20
3 4 35 41
3 11 44 22
3 11 45 44
3 5 46 36
3 12 47 25
3 12 48 47
3 12 49 48
3 13 70 72
3 72 71 27
3 70 71 72
3 13 73 74
3 9 50 42
3 75 51 76
3 78 77 51
3 79 52 80
3 81 53 82
3 83 82 29
3 81 82 83
3 85 84 53
3 8 86 88
3 86 54 87
3 86 87 88
3 14 55 31
3 14 89 91
3 91 90 55
3 89 90 91
3 14 92 93
3 10 56 43
3 15 94 95
3 15 96 97
3 16 17 4
3 18 17 16
3 18 6 17
3 19 98 99
3 19 100 102
3 100 7 101
3 100 101 102
3 19 20 7
3 16 20 19
3 16 4 20
3 21 103 105
3 103 22 104
3 103 104 105
3 23 22 21
3 23 11 22
3 24 25 5
3 26 25 24
3 26 12 25
3 26 27 12
3 28 27 26
3 28 13 27
3 107 106 9
3 108 29 109
3 110 29 111
3 114 113 29
3 112 113 114
3 30 31 8
3 32 31 30
3 32 14 31
3 32 115 117
3 117 116 14
3 115 116 117
3 21 118 120
3 120 119 32
3 118 119 120
3 21 121 122
3 33 123 125
3 125 124 10
3 123 124 125
3 34 126 128
3 128 127 33
3 126 127 128
3 34 129 130
3 35 36 1
3 37 36 35
3 37 5 36
3 17 37 4
3 38 37 17
3 38 5 37
3 38 24 5
3 39 24 38
3 39 3 24
3 40 131 132
3 40 133 135
3 133 8 134
3 133 134 135
3 20 40 7
3 41 40 20
3 41 8 40
3 41 30 8
3 35 30 41
3 35 1 30
3 137 136 2
3 138 42 139
3 140 139 0
3 138 139 140
3 141 42 142
3 143 9 144
3 145 144 42
3 143 144 145
3 146 9 147
3 146 147 148
3 151 150 9
3 149 150 151
3 152 0 153
3 154 43 155
3 156 43 157
3 158 10 159
3 160 159 43
3 158 159 160
3 22 161 162
3 44 163 165
3 165 164 22
3 163 164 165
3 44 166 168
3 166 10 167
3 166 167 168
3 44 33 10
3 45 33 44
3 45 2 33
3 36 23 1
3 46 23 36
3 46 11 23
3 25 46 5
3 47 46 25
3 47 11 46
3 47 45 11
3 48 45 47
3 48 2 45
3 48 169 171
3 171 170 2
3 169 170 171
3 49 172 174
3 174 173 48
3 172 173 174
3 49 175 176
3 27 49 12
3 177 49 178
3 179 178 27
3 177 178 179
3 181 180 49
3 42 18 0
3 50 18 42
3 50 6 18
3 182 50 183
3 184 183 9
3 182 183 184
3 51 185 187
3 185 50 186
3 185 186 187
3 51 6 50
3 51 39 6
3 188 39 189
3 190 189 51
3 188 189 190
3 191 3 192
3 193 192 39
3 191 192 193
3 194 3 195
3 196 28 197
3 198 197 3
3 196 197 198
3 52 199 201
3 199 28 200
3 199 200 201
3 52 13 28
3 29 202 204
3 202 52 203
3 202 203 204
3 53 52 29
3 53 13 52
3 53 205 207
3 207 206 13
3 205 206 207
3 209 208 53
3 54 210 211
3 54 212 213
3 31 54 8
3 55 54 31
3 55 214 216
3 216 215 54
3 214 215 216
3 55 217 218
3 220 219 55
3 222 221 14
3 43 223 225
3 223 15 224
3 223 224 225
3 56 15 43
3 56 226 228
3 228 227 15
3 226 227 228
3 229 56 230
3 231 230 10
3 229 230 231
3 232 56 233
3 236 235 56
3 234 235 236
3 237 34 238
3 239 238 2
3 237 238 239
3 240 34 241
3 243 242 34
