ply
format ascii 1.0
element vertex 410
property float x
property float y
property float z
element face 436
property list uchar int vertex_index
end_header
-1.705941 -19.812298 63.275246
-18.701809 -20.501606 72.546547
1.093861 -26.374512 59.709003
-6.65915 -27.719862 66.274071
-25.796379 -19.191626 72.919617
-22.731609 -29.296371 72.574257
-4.25333 -13.161744 64.99894
-10.288034 -20.637838 68.845894
-14.865417 -29.061817 70.875069
-0.417335 -23.080317 61.876362
-2.644738 -27.127972 63.142376
-4.295952 -23.785295 64.929474
-27.289171 -23.501492 71.804977
2.256576 -19.292833 60.107498
-8.447008 -12.97634 67.537064
-14.607885 -20.80146 71.01075
-12.822462 -24.628128 70.17421
-16.967342 -24.756392 71.938988
2.382372 -29.706482 57.06509
-1.073466 -30.399834 60.845951
-4.592476 -31.13199 64.067032
-8.53687 -31.923498 67.012871
-22.415789 -20.094465 73.264671
-20.846024 -24.764627 72.931
-24.442186 -24.392229 72.944099
-25.877222 -28.90975 71.817986
-3.098703 -16.461046 64.361488
-6.062756 -20.232412 66.310081
-7.461201 -16.718571 67.13047
-11.731345 -16.872232 69.516716
-15.831589 -16.478472 71.445625
-0.083357 -12.666403 62.207878
-8.460896 -24.316534 67.743202
-10.731577 -28.345467 68.85582
-18.980417 -29.389965 72.200577
-1.072774 -21.441219 62.642334
-2.335075 -23.49773 63.431858
-3.130436 -21.840387 64.211891
0.388691 -19.525158 61.652359
0.946215 -21.239485 60.971775
-7.175261 -9.317345 66.538322
-16.706627 -20.554874 71.871635
-15.82087 -22.63381 71.540749
-17.8123 -22.617956 72.262871
1.683231 -28.063255 58.531219
0.677542 -30.048798 59.009941
-0.06238 -28.436176 60.340675
-4.558112 -27.304966 64.726326
-3.651413 -29.106884 63.654873
-5.563407 -29.426306 65.20311
-6.481363 -31.608952 65.546738
-7.487998 -29.910954 66.586014
-24.185513 -19.676935 73.243446
-23.457142 -22.175219 73.206734
-25.072132 -21.914856 72.991821
-26.6665 -26.359314 71.818321
2.190876 -24.480795 59.098942
-3.670027 -14.833074 64.704948
-5.188239 -16.590034 65.730194
-5.919257 -14.852036 66.122536
-10.1878 -14.936815 68.61541
-12.191845 -14.771313 69.68045
-13.797919 -16.715097 70.540298
-14.254835 -14.639167 70.693459
-2.580448 -11.146122 63.796986
-2.093553 -12.918709 63.586956
-1.437472 -14.574886 63.203979
-8.119344 -20.584009 67.593666
-7.205517 -22.244772 67.013901
-9.37696 -22.490088 68.334572
-13.946602 -26.688946 70.635139
-11.742883 -26.421598 69.55191
-12.857335 -28.560192 69.98645
-11.68952 -30.435606 69.180595
-13.74955 -30.886076 70.177635
-21.820204 -27.070957 72.851624
-19.905493 -27.037422 72.619209
-20.815746 -29.394135 72.510643
0.330327 -24.759407 60.878048
-0.756314 -26.773201 61.467625
-1.445637 -25.065933 62.450714
-3.394804 -25.392035 64.053101
-5.509945 -25.671385 65.655548
-26.583904 -21.297421 72.470825
4.235347 -18.813049 58.412254
2.955258 -20.854485 59.219044
1.581754 -22.806707 60.110058
-4.637064 -11.226827 65.117676
-6.386183 -13.004566 66.312386
-6.826108 -11.157506 66.462364
-8.915255 -11.121485 67.699539
-12.499977 -20.718729 70.013
-11.658921 -22.64426 69.600212
-13.722088 -22.734989 70.626312
-14.856568 -24.608133 71.118637
-15.90883 -26.82935 71.460472
-0.228641 -32.009769 59.401234
-1.775797 -28.72917 62.000099
-2.784225 -30.733299 62.491901
-20.664888 -20.229118 73.030006
-19.827812 -22.445436 72.82682
-21.685602 -22.570265 73.13578
-22.766026 -24.543596 73.086464
-23.640934 -26.815575 72.817802
-25.914734 -24.012203 72.534775
-25.183992 -26.683018 72.488815
-24.342794 -29.280848 72.335777
-24.960546 -31.447632 71.697639
-2.419301 -18.0837 63.872707
-3.814223 -20.01438 64.799828
-4.622452 -18.421524 65.380966
-6.727767 -18.478716 66.727745
-8.964898 -18.710287 68.06665
-8.013052 -14.847589 67.37542
-9.573976 -16.709558 68.347855
-11.013186 -18.718441 69.20005
-13.086824 -18.720579 70.256584
-15.216393 -18.776155 71.238472
-17.250532 -18.503551 72.045532
-17.984324 -16.382675 72.266594
-19.236782 -18.267111 72.687294
-21.213518 -17.920395 73.128067
-23.034773 -17.644781 73.312653
-24.668699 -16.970472 73.222946
-0.93678 -16.224888 62.851269
-5.083067 -21.903862 65.614502
-6.415874 -23.961885 66.428825
-7.582821 -26.099566 67.074165
-10.583485 -24.4002 68.993935
-9.50428 -26.283833 68.283783
-8.68831 -28.222052 67.61264
-9.625246 -30.22863 67.984238
-18.929575 -24.7542 72.541245
-17.949684 -27.071138 72.142059
-16.927092 -28.987225 71.663658
-19.768932 -31.696321 72.036087
-17.845306 -31.452621 71.649979
-15.92987 -31.176094 71.064156
-0.658625 -19.668728 62.463802
0.013493 -18.735084 62.008156
-1.033823 -18.878654 62.8196
1.994576 -26.202191 58.782412
2.543084 -25.255333 58.477381
1.642368 -25.427653 59.403973
1.388546 -27.218884 59.120111
2.289261 -27.046563 58.19352
1.994576 -26.202191 58.782412
-12.504984 -13.772854 69.800067
-11.390923 -13.912195 69.217144
-13.536479 -13.706781 70.306572
-13.22334 -14.70524 70.186954
-12.504984 -13.772854 69.800067
2.931579 -18.296627 59.651725
1.929965 -18.397174 60.478323
3.245961 -19.052941 59.259876
3.920965 -18.056735 58.804103
2.931579 -18.296627 59.651725
-5.921309 -10.270301 65.835926
-5.731586 -11.192166 65.79002
-4.826788 -10.304962 65.163582
-9.136052 -10.157435 67.762551
-8.045258 -10.219415 67.118931
-8.266055 -9.255365 67.181942
-9.972181 -11.079997 68.293244
-9.136052 -10.157435 67.762551
-4.826788 -10.304962 65.163582
-3.815806 -10.296924 64.518648
1.897584 -30.679139 57.29396
2.683443 -30.449418 56.344923
-1.507055 -31.424822 61.009974
-1.084643 -32.229789 60.287615
-0.651054 -31.204801 60.123593
-4.15925 -32.019436 63.461963
-3.255124 -31.820091 62.674398
-3.68835 -30.932644 63.279466
-5.072499 -32.218013 64.247712
-4.15925 -32.019436 63.461963
-7.990459 -32.814349 66.446415
-6.962706 -32.657076 65.713348
-7.509117 -31.766225 66.279805
-8.958101 -33.067307 67.090938
-7.990459 -32.814349 66.446415
3.214958 -29.468186 56.078024
2.885283 -28.705326 56.847601
2.683443 -30.449418 56.344923
3.214958 -29.468186 56.078024
-18.942647 -16.129135 72.546303
-18.133091 -15.167769 72.284104
-19.568876 -17.071353 72.756653
-18.610553 -17.324893 72.476944
-18.942647 -16.129135 72.546303
-20.557244 -16.897995 72.97704
-20.22515 -18.093753 72.90768
-19.568876 -17.071353 72.756653
-23.252174 -16.334675 73.300793
-22.413401 -16.556283 73.248185
-24.069136 -15.997521 73.255939
-23.851736 -17.307626 73.267799
-23.252174 -16.334675 73.300793
0.75798 -11.740492 61.568352
-0.25788 -11.801317 62.279382
1.008772 -12.532322 61.417789
0.75798 -11.740492 61.568352
0.267763 -13.473693 61.972986
1.008772 -12.532322 61.417789
-11.137561 -31.41183 68.724517
-12.145588 -31.568566 69.266354
-20.14698 -32.826237 71.867943
-20.687006 -31.589808 72.138015
-17.281014 -32.53545 71.30328
-18.239996 -32.659706 71.541798
-16.323296 -32.397187 71.010368
-16.887588 -31.314357 71.357067
-17.281014 -32.53545 71.30328
-15.347701 -32.183899 70.680313
-16.323296 -32.397187 71.010368
0.996023 -18.513336 61.250754
0.013493 -18.735084 62.008156
1.322634 -19.408996 60.879928
1.929965 -18.397174 60.478323
0.996023 -18.513336 61.250754
-6.289782 -8.441192 65.915756
-6.095886 -9.35022 65.873905
-7.312691 -8.371028 66.546329
-6.289782 -8.441192 65.915756
-8.266055 -9.255365 67.181942
-7.312691 -8.371028 66.546329
-27.269434 -26.190162 71.346267
-26.977835 -24.930403 71.811649
-27.58077 -24.76125 71.339596
-26.956422 -27.580043 71.351132
-27.269434 -26.190162 71.346267
-26.561783 -28.855261 71.350964
-26.271861 -27.634532 71.818153
-26.956422 -27.580043 71.351132
-26.139744 -30.103167 71.382844
-26.561783 -28.855261 71.350964
3.070384 -24.243388 58.232851
2.857349 -23.448313 58.698984
3.070384 -24.243388 58.232851
2.543084 -25.255333 58.477381
2.535712 -27.883713 57.580665
2.289261 -27.046563 58.19352
2.032802 -28.884869 57.798154
2.885283 -28.705326 56.847601
2.535712 -27.883713 57.580665
-10.388901 -13.994946 68.684624
-9.317404 -13.956577 68.076237
-9.518505 -13.014709 68.145451
-11.189823 -14.854064 69.14793
-10.388901 -13.994946 68.684624
-11.390923 -13.912195 69.217144
-1.506425 -11.041176 63.073937
-1.772834 -10.236341 63.18955
-1.262978 -11.92747 62.968922
-1.506425 -11.041176 63.073937
-2.337001 -12.032415 63.691971
-1.088455 -12.792556 62.897417
-0.25788 -11.801317 62.279382
-1.262978 -11.92747 62.968922
-13.175603 -31.793802 69.764873
-12.145588 -31.568566 69.266354
-12.719535 -30.660841 69.679115
-26.870696 -19.928375 72.390934
-26.190142 -20.244523 72.695221
-26.476934 -18.875477 72.61533
-27.247048 -21.056885 72.030911
-26.870696 -19.928375 72.390934
-27.599681 -22.158921 71.697986
-26.936538 -22.399456 72.137901
-27.247048 -21.056885 72.030911
-27.867363 -23.349743 71.264362
-27.599681 -22.158921 71.697986
-27.58077 -24.76125 71.339596
-27.867363 -23.349743 71.264362
4.913498 -17.920708 57.941083
3.920965 -18.056735 58.804103
5.125971 -18.743594 57.579797
4.913498 -17.920708 57.941083
4.487576 -19.682094 57.984607
5.125971 -18.743594 57.579797
3.847532 -20.702812 58.388002
4.487576 -19.682094 57.984607
3.595302 -19.833767 58.815649
3.239541 -21.635158 58.759035
3.847532 -20.702812 58.388002
2.552789 -22.611269 59.204542
3.239541 -21.635158 58.759035
2.268506 -21.830596 59.664551
1.886315 -23.643751 59.6045
2.857349 -23.448313 58.698984
2.552789 -22.611269 59.204542
-7.000685 -10.237426 66.500343
-5.921309 -10.270301 65.835926
-6.095886 -9.35022 65.873905
-9.752629 -12.087281 68.226688
-9.518505 -13.014709 68.145451
-8.681131 -12.048913 67.618302
-9.752629 -12.087281 68.226688
-9.972181 -11.079997 68.293244
-2.787498 -10.256571 63.858303
-1.772834 -10.236341 63.18955
-3.608756 -11.186474 64.457331
-2.787498 -10.256571 63.858303
-3.815806 -10.296924 64.518648
-22.168344 -30.389833 72.4071
-23.027493 -30.49984 72.329792
1.045168 -30.850297 58.266386
1.897584 -30.679139 57.29396
1.529957 -29.87764 58.037515
0.592077 -31.830782 58.462032
1.045168 -30.850297 58.266386
0.22445 -31.029283 59.205588
0.133396 -32.83706 58.658162
0.592077 -31.830782 58.462032
-0.678354 -33.076452 59.568798
0.133396 -32.83706 58.658162
-0.678354 -33.076452 59.568798
-1.084643 -32.229789 60.287615
-2.362435 -31.591555 61.832949
-1.507055 -31.424822 61.009974
-1.928845 -30.566567 61.668926
-2.362435 -31.591555 61.832949
-3.255124 -31.820091 62.674398
-6.016942 -32.456494 64.987565
-5.072499 -32.218013 64.247712
-5.536919 -31.370471 64.806885
-6.016942 -32.456494 64.987565
-6.962706 -32.657076 65.713348
-23.833086 -30.492079 72.210552
-23.027493 -30.49984 72.329792
-23.537202 -29.288609 72.455017
-24.141962 -31.575471 71.891483
-23.833086 -30.492079 72.210552
-24.65167 -30.36424 72.016708
-24.472592 -32.742609 71.542778
-24.141962 -31.575471 71.891483
-25.681406 -31.372107 71.32267
-25.418884 -30.178691 71.757812
-26.139744 -30.103167 71.382844
-25.263672 -32.608904 71.247001
-25.681406 -31.372107 71.32267
-24.472592 -32.742609 71.542778
-25.263672 -32.608904 71.247001
-14.497912 -13.530371 70.763413
-13.536479 -13.706781 70.306572
-15.285025 -14.46031 71.139733
-14.497912 -13.530371 70.763413
-16.073401 -15.379963 71.515816
-15.043212 -15.55882 71.069542
-15.285025 -14.46031 71.139733
-17.149769 -15.332064 71.9263
-18.133091 -15.167769 72.284104
-16.907957 -16.430574 71.85611
-16.073401 -15.379963 71.515816
-17.149769 -15.332064 71.9263
-21.502773 -16.694091 73.155891
-20.557244 -16.897995 72.97704
-22.124146 -17.782588 73.22036
-21.502773 -16.694091 73.155891
-22.413401 -16.556283 73.248185
-24.832959 -15.560393 73.179527
-24.069136 -15.997521 73.255939
-25.379742 -16.641874 73.049926
-24.832959 -15.560393 73.179527
-25.943583 -17.752451 72.898262
-25.232539 -18.081049 73.071281
-25.379742 -16.641874 73.049926
-26.476934 -18.875477 72.61533
-25.943583 -17.752451 72.898262
-0.409295 -14.427935 62.471036
0.267763 -13.473693 61.972986
-0.760414 -13.620645 62.705928
-0.158948 -15.252936 62.294681
-0.409295 -14.427935 62.471036
-1.187126 -15.399887 63.027624
0.062248 -16.095889 62.111649
-0.158948 -15.252936 62.294681
-0.649242 -17.08495 62.607611
0.062248 -16.095889 62.111649
-1.390503 -18.014356 63.11833
-0.649242 -17.08495 62.607611
-1.67804 -17.154294 63.361988
-2.062621 -18.947999 63.573977
-1.033823 -18.878654 62.8196
-1.390503 -18.014356 63.11833
-10.105424 -31.308342 68.126339
-10.657383 -30.332118 68.582416
-11.137561 -31.41183 68.724517
-9.561236 -32.155776 67.640656
-9.081058 -31.076064 67.498555
-10.105424 -31.308342 68.126339
-8.958101 -33.067307 67.090938
-9.561236 -32.155776 67.640656
-21.210413 -30.438715 72.375293
-21.773677 -29.345253 72.54245
-22.168344 -30.389833 72.4071
-20.292339 -30.545228 72.273365
-21.210413 -30.438715 72.375293
-20.687006 -31.589808 72.138015
-19.201809 -32.781556 71.734852
-20.14698 -32.826237 71.867943
-18.807119 -31.574471 71.843033
-19.201809 -32.781556 71.734852
-18.239996 -32.659706 71.541798
-14.257541 -32.03889 70.237053
-14.83971 -31.031085 70.620895
-15.347701 -32.183899 70.680313
-13.175603 -31.793802 69.764873
-14.257541 -32.03889 70.237053
3 0 37 35
3 0 138 140
3 138 38 139
3 138 139 140
3 0 35 38
3 1 43 41
3 2 46 44
3 3 49 47
3 3 51 49
3 4 54 52
3 2 141 143
3 143 142 56
3 141 142 143
3 2 144 146
3 144 44 145
3 144 145 146
3 6 59 57
3 147 61 148
3 149 63 150
3 151 150 61
3 149 150 151
3 6 65 64
3 6 57 65
3 7 69 67
3 8 72 70
3 8 74 72
3 5 77 75
3 9 80 78
3 11 81 36
3 11 82 81
3 13 152 153
3 13 154 156
3 154 84 155
3 154 155 156
3 13 85 84
3 9 86 39
3 9 78 86
3 157 89 158
3 159 158 87
3 157 158 159
3 160 90 161
3 162 161 40
3 160 161 162
3 164 163 90
3 165 87 166
3 15 93 91
3 17 94 42
3 17 95 94
3 18 167 168
3 19 96 45
3 19 169 171
3 171 170 96
3 169 170 171
3 10 97 79
3 20 98 48
3 20 172 174
3 174 173 98
3 172 173 174
3 20 175 176
3 21 177 179
3 179 178 50
3 177 178 179
3 21 180 181
3 22 101 99
3 24 102 53
3 24 103 102
3 12 104 83
3 25 105 55
3 25 106 105
3 25 107 106
3 18 182 183
3 18 184 185
3 26 110 108
3 28 111 58
3 28 112 111
3 14 113 88
3 29 114 60
3 29 115 114
3 29 116 115
3 30 117 62
3 30 118 117
3 186 119 187
3 188 120 189
3 190 189 119
3 188 189 190
3 191 121 192
3 193 192 120
3 191 192 193
3 194 122 195
3 196 123 197
3 198 197 122
3 196 197 198
3 31 199 200
3 31 201 202
3 31 203 204
3 26 124 66
3 26 108 124
3 27 125 109
3 32 126 68
3 32 127 126
3 16 128 92
3 33 129 71
3 33 130 129
3 33 131 130
3 206 205 73
3 23 132 100
3 34 133 76
3 34 134 133
3 207 135 208
3 209 136 210
3 211 137 212
3 213 212 136
3 211 212 213
3 215 214 137
3 35 36 9
3 37 36 35
3 37 11 36
3 38 216 217
3 38 218 220
3 218 13 219
3 218 219 220
3 38 39 13
3 35 39 38
3 35 9 39
3 221 40 222
3 223 40 224
3 226 225 40
3 41 42 15
3 43 42 41
3 43 17 42
3 44 45 18
3 46 45 44
3 46 19 45
3 47 48 10
3 49 48 47
3 49 20 48
3 49 50 20
3 51 50 49
3 51 21 50
3 52 53 22
3 54 53 52
3 54 24 53
3 227 55 228
3 229 228 12
3 227 228 229
3 230 55 231
3 232 25 233
3 234 233 55
3 232 233 234
3 236 235 25
3 56 237 238
3 240 239 56
3 44 241 242
3 44 243 245
3 243 18 244
3 243 244 245
3 57 58 26
3 59 58 57
3 59 28 58
3 246 60 247
3 248 247 14
3 246 247 248
3 61 249 251
3 249 60 250
3 249 250 251
3 61 29 60
3 61 62 29
3 63 62 61
3 63 30 62
3 64 252 253
3 65 254 256
3 256 255 64
3 254 255 256
3 65 257 259
3 257 31 258
3 257 258 259
3 65 66 31
3 57 66 65
3 57 26 66
3 67 68 27
3 69 68 67
3 69 32 68
3 70 71 16
3 72 71 70
3 72 33 71
3 72 73 33
3 74 73 72
3 74 260 262
3 262 261 73
3 260 261 262
3 75 76 23
3 77 76 75
3 77 34 76
3 78 79 2
3 80 79 78
3 80 10 79
3 36 80 9
3 81 80 36
3 81 10 80
3 81 47 10
3 82 47 81
3 82 3 47
3 263 83 264
3 265 264 4
3 263 264 265
3 266 83 267
3 268 12 269
3 270 269 83
3 268 269 270
3 271 12 272
3 274 273 12
3 84 275 276
3 84 277 278
3 84 279 280
3 85 281 283
3 283 282 84
3 281 282 283
3 85 284 285
3 39 85 13
3 86 85 39
3 86 286 288
3 288 287 85
3 286 287 288
3 86 289 291
3 289 56 290
3 289 290 291
3 78 56 86
3 78 2 56
3 87 88 6
3 89 88 87
3 89 14 88
3 40 292 294
3 292 89 293
3 292 293 294
3 90 89 40
3 90 14 89
3 90 295 297
3 297 296 14
3 295 296 297
3 299 298 90
3 300 64 301
3 87 302 304
3 302 64 303
3 302 303 304
3 87 6 64
3 91 92 7
3 93 92 91
3 93 16 92
3 42 93 15
3 94 93 42
3 94 16 93
3 94 70 16
3 95 70 94
3 95 8 70
3 306 305 5
3 45 307 309
3 309 308 18
3 307 308 309
3 96 310 312
3 312 311 45
3 310 311 312
3 96 313 314
3 96 315 316
3 318 317 96
3 79 46 2
3 97 46 79
3 97 19 46
3 48 97 10
3 98 97 48
3 98 19 97
3 98 319 321
3 321 320 19
3 319 320 321
3 323 322 98
3 50 324 326
3 326 325 20
3 324 325 326
3 328 327 50
3 99 100 1
3 101 100 99
3 101 23 100
3 53 101 22
3 102 101 53
3 102 23 101
3 102 75 23
3 103 75 102
3 103 5 75
3 83 54 4
3 104 54 83
3 104 24 54
3 55 104 12
3 105 104 55
3 105 24 104
3 105 103 24
3 106 103 105
3 106 5 103
3 106 329 331
3 331 330 5
3 329 330 331
3 107 332 334
3 334 333 106
3 332 333 334
3 107 335 336
3 337 107 338
3 339 338 25
3 337 338 339
3 340 107 341
3 343 342 107
3 108 109 0
3 110 109 108
3 110 27 109
3 58 110 26
3 111 110 58
3 111 27 110
3 111 67 27
3 112 67 111
3 112 7 67
3 88 59 6
3 113 59 88
3 113 28 59
3 60 113 14
3 114 113 60
3 114 28 113
3 114 112 28
3 115 112 114
3 115 7 112
3 115 91 7
3 116 91 115
3 116 15 91
3 62 116 29
3 117 116 62
3 117 15 116
3 117 41 15
3 118 41 117
3 118 1 41
3 344 63 345
3 346 63 347
3 348 30 349
3 350 349 63
3 348 349 350
3 119 351 352
3 119 353 355
3 353 30 354
3 353 354 355
3 119 118 30
3 120 118 119
3 120 1 118
3 120 99 1
3 121 99 120
3 121 22 99
3 356 121 357
3 122 358 360
3 358 121 359
3 358 359 360
3 122 22 121
3 122 52 22
3 123 52 122
3 123 4 52
3 361 123 362
3 363 123 364
3 365 4 366
3 367 366 123
3 365 366 367
3 369 368 4
3 66 370 372
3 372 371 31
3 370 371 372
3 124 373 375
3 375 374 66
3 373 374 375
3 124 376 377
3 124 378 379
3 108 380 382
3 382 381 124
3 380 381 382
3 108 383 385
3 383 0 384
3 383 384 385
3 109 37 0
3 125 37 109
3 125 11 37
3 68 125 27
3 126 125 68
3 126 11 125
3 126 82 11
3 127 82 126
3 127 3 82
3 92 69 7
3 128 69 92
3 128 32 69
3 71 128 16
3 129 128 71
3 129 32 128
3 129 127 32
3 130 127 129
3 130 3 127
3 130 51 3
3 131 51 130
3 131 21 51
3 73 131 33
3 386 131 387
3 388 387 73
3 386 387 388
3 389 21 390
3 391 390 131
3 389 390 391
3 393 392 21
3 100 43 1
3 132 43 100
3 132 17 43
3 76 132 23
3 133 132 76
3 133 17 132
3 133 95 17
3 134 95 133
3 134 8 95
3 394 77 395
3 396 395 5
3 394 395 396
3 135 397 399
3 397 77 398
3 397 398 399
3 135 34 77
3 400 135 401
3 136 402 404
3 402 135 403
3 402 403 404
3 136 34 135
3 136 134 34
3 137 134 136
3 137 8 134
3 137 74 8
3 405 74 406
3 407 406 137
3 405 406 407
3 409 408 74
