ply
format ascii 1.0
element vertex 320
property float x
property float y
property float z
element face 331
property list uchar int vertex_index
end_header
12.478655 -47.428043 65.574913
10.853793 -37.379246 68.559677
5.400711 -43.54546 62.578861
18.231579 -40.954174 69.235191
19.510447 -50.830311 64.663269
13.569278 -52.253834 63.359028
10.115498 -50.51738 62.524101
1.97026 -41.435383 60.071304
3.196808 -46.210274 58.6404
15.37199 -44.299522 67.829086
18.834322 -46.071259 67.136925
16.174751 -49.428185 65.606544
17.082218 -54.169426 62.998779
11.60846 -42.551586 67.283546
8.823862 -45.507172 64.422073
7.830026 -40.434162 65.875008
4.380248 -38.507881 63.845657
0.887597 -36.540356 61.186855
20.951933 -37.31424 69.914566
17.602711 -35.632572 70.825378
14.540233 -39.155506 69.433479
6.588973 -48.453671 60.881695
-2.431768 -34.686447 58.191589
21.347628 -42.243301 67.961082
22.03373 -47.293816 65.329704
13.014209 -49.771549 64.578651
11.881118 -51.488346 63.020416
11.154855 -48.973431 64.101776
0.459006 -40.514225 58.754276
1.003449 -42.938072 58.005428
13.88667 -45.809517 66.843369
15.626675 -46.889503 66.764778
14.352724 -48.390678 65.768257
14.818931 -50.962635 64.52636
11.137199 -39.919727 67.969154
9.690183 -41.486115 66.679596
9.25404 -38.974094 67.265373
5.663373 -37.05777 65.39817
2.648253 -37.634529 62.557041
2.140936 -35.298855 62.917759
14.252918 -36.47707 70.065048
12.797435 -38.319321 69.131393
13.061337 -40.877033 68.45385
7.033007 -44.498394 63.545383
7.602786 -46.962971 62.711555
5.937502 -46.05513 61.729847
2.37036 -47.713863 56.502949
3.870318 -48.629726 57.742992
-1.396242 -33.231064 60.058582
-3.092381 -32.459454 58.451965
19.568209 -38.964138 69.741058
21.157667 -39.718491 69.01757
19.830875 -41.520363 68.786888
19.174068 -48.402393 65.984871
20.481045 -46.572083 66.467361
20.855101 -49.06245 65.106163
22.29538 -49.783604 63.889153
21.043781 -51.630276 63.653141
14.110575 -54.536942 62.097202
12.406111 -53.759129 61.815922
10.680036 -52.881096 61.336876
8.993317 -51.901966 60.715485
3.723953 -42.488808 61.451958
4.26261 -44.901299 60.695873
2.547905 -43.772907 59.421444
1.647028 -45.273315 57.306168
16.710608 -42.736744 68.593399
18.447296 -43.522812 68.257782
17.119181 -45.280342 67.600494
17.394876 -47.732807 66.505257
17.860758 -50.235184 65.240959
18.283594 -52.65094 63.87455
16.677618 -51.822243 64.363167
15.398443 -53.265293 63.315422
12.067972 -44.955959 66.53109
10.685493 -46.332832 65.208481
10.184985 -44.042004 65.961716
8.358665 -42.969143 65.252151
6.556659 -41.971012 64.319305
7.503707 -38.003773 66.453568
6.11147 -39.445011 64.954758
4.792028 -40.978668 63.219917
3.105136 -39.948853 62.037819
1.451599 -38.939381 60.741089
-0.175736 -38.0494 59.287785
19.322493 -36.400261 70.556793
17.792866 -38.323841 70.099922
16.049955 -37.384018 70.225945
16.419531 -40.045631 69.49633
15.039695 -41.631454 68.756134
13.603518 -43.427547 67.729187
9.419018 -48.006496 63.530037
8.304234 -49.468136 61.788742
7.249779 -50.742352 59.950504
4.869884 -47.260258 59.878597
5.486351 -49.656712 58.884491
0.309535 -34.266041 61.471462
-0.826219 -35.644131 59.663769
20.116426 -44.051941 67.702774
21.663071 -44.847187 66.688225
18.643324 -54.967949 62.427479
-0.011056 -41.243107 57.684725
-0.326682 -40.030342 58.009813
2.716187 -34.452427 63.692065
3.014622 -35.686853 63.582292
11.825614 -37.849283 68.845535
12.570848 -37.065953 69.354221
11.599027 -36.595915 69.068363
2.735722 -48.953884 56.011347
2.003925 -48.46796 55.393988
-3.440542 -31.369163 58.54557
-2.58849 -31.67236 59.353679
19.708945 -52.0988 63.889273
20.475613 -52.498783 63.384208
20.277114 -51.230294 64.158205
0.92091 -44.833715 56.61331
1.325238 -44.105694 57.655798
0.599121 -43.666094 56.96294
1.275439 -46.069099 56.207667
0.92091 -44.833715 56.61331
7.269177 -36.7925 66.625882
8.212873 -37.252322 67.104394
18.462602 -36.016417 70.691085
19.147627 -35.168412 70.88742
18.287736 -34.784567 71.021713
5.06305 -50.397949 57.809253
4.678335 -49.143219 58.313741
4.255033 -49.884456 57.238504
5.905472 -50.903234 58.391466
5.06305 -50.397949 57.809253
0.009706 -33.054113 61.604057
0.880693 -33.579512 62.262598
-2.107744 -35.954706 57.946725
-1.30497 -36.433548 58.682816
-1.628993 -35.165289 58.927679
21.70049 -37.540902 69.489056
22.338312 -36.435105 69.571076
21.589755 -36.208443 69.996586
21.930017 -41.296892 68.004318
21.835037 -40.034487 68.532562
21.252648 -40.980896 68.489326
22.073831 -42.498481 67.402206
21.930017 -41.296892 68.004318
22.560472 -46.317617 65.388691
22.375142 -45.094303 66.067951
21.8484 -46.070501 66.008965
22.672489 -47.581436 64.674305
22.560472 -46.317617 65.388691
22.934515 -50.031598 63.188502
22.407445 -51.00424 63.129986
0.261165 -42.45503 57.3103
0.731228 -41.726149 58.379852
-0.011056 -41.243107 57.684725
0.599121 -43.666094 56.96294
0.261165 -42.45503 57.3103
5.45085 -35.778128 65.591938
6.349011 -36.319498 66.098183
4.775841 -36.566311 64.822498
5.45085 -35.778128 65.591938
4.134278 -37.291366 64.046242
5.02181 -37.782826 64.621914
4.775841 -36.566311 64.822498
3.26828 -36.854691 63.401933
3.514251 -38.071205 63.201349
4.134278 -37.291366 64.046242
2.394595 -36.466692 62.7374
3.26828 -36.854691 63.401933
3.014622 -35.686853 63.582292
17.483926 -34.327954 71.102939
18.287736 -34.784567 71.021713
13.298589 -36.144827 69.821049
14.157 -35.276196 70.293278
13.525177 -37.398195 69.59822
13.298589 -36.144827 69.821049
12.570848 -37.065953 69.354221
3.485701 -49.411816 56.631369
3.120339 -48.171795 57.122971
2.735722 -48.953884 56.011347
4.255033 -49.884456 57.238504
3.485701 -49.411816 56.631369
-1.74042 -32.058166 60.156988
-0.843182 -32.536624 60.897617
-1.187361 -31.363726 60.996023
-2.244312 -32.845259 59.255274
-1.74042 -32.058166 60.156988
-2.58849 -31.67236 59.353679
21.781645 -51.927576 63.01198
22.407445 -51.00424 63.129986
21.669581 -50.70694 63.771147
21.248165 -52.805746 62.856521
21.781645 -51.927576 63.01198
21.248165 -52.805746 62.856521
20.475613 -52.498783 63.384208
17.284973 -55.333912 62.24441
16.487055 -54.83939 62.487274
9.887916 -36.940058 68.157448
10.636173 -36.114233 68.745971
10.636173 -36.114233 68.745971
11.599027 -36.595915 69.068363
13.592948 -55.31123 61.296322
14.400317 -55.703863 61.376579
12.740716 -54.922324 61.155682
13.592948 -55.31123 61.296322
13.258343 -54.148036 61.956562
11.865863 -54.476677 60.943461
12.740716 -54.922324 61.155682
11.002826 -54.037661 60.703937
11.865863 -54.476677 60.943461
11.543073 -53.320113 61.576399
10.148798 -53.560942 60.408043
11.002826 -54.037661 60.703937
9.305438 -53.071377 60.097347
10.148798 -53.560942 60.408043
9.836676 -52.391531 61.02618
8.464793 -52.515537 59.763461
9.305438 -53.071377 60.097347
1.637105 -47.289373 55.806057
2.008694 -46.493589 56.904559
1.275439 -46.069099 56.207667
2.003925 -48.46796 55.393988
1.637105 -47.289373 55.806057
15.645167 -54.387324 62.645595
16.487055 -54.83939 62.487274
16.24033 -53.71736 63.1571
15.001234 -55.023148 62.036485
15.645167 -54.387324 62.645595
14.754509 -53.901117 62.706312
14.400317 -55.703863 61.376579
15.001234 -55.023148 62.036485
9.08804 -37.737482 67.510296
10.053916 -38.17667 67.912525
9.887916 -36.940058 68.157448
8.378874 -38.488934 66.859471
9.08804 -37.737482 67.510296
8.212873 -37.252322 67.104394
6.58354 -37.530772 65.925869
7.269177 -36.7925 66.625882
6.349011 -36.319498 66.098183
-0.644054 -38.797929 58.276567
-0.326682 -40.030342 58.009813
0.141635 -39.281813 59.02103
20.860484 -35.954886 70.343209
21.589755 -36.208443 69.996586
20.045764 -35.497896 70.664322
19.147627 -35.168412 70.88742
20.137213 -36.85725 70.23568
20.860484 -35.954886 70.343209
20.045764 -35.497896 70.664322
16.762897 -35.26511 70.813526
17.483926 -34.327954 71.102939
15.088 -35.687359 70.433361
14.157 -35.276196 70.293278
15.986519 -36.140833 70.51381
15.088 -35.687359 70.433361
15.151436 -36.930544 70.145497
16.826333 -36.508295 70.525661
16.762897 -35.26511 70.813526
15.986519 -36.140833 70.51381
7.593024 -51.93573 59.38097
8.464793 -52.515537 59.763461
8.121548 -51.322159 60.332994
6.787186 -51.446055 58.924473
6.368065 -50.199532 59.417497
5.905472 -50.903234 58.391466
7.593024 -51.93573 59.38097
6.787186 -51.446055 58.924473
1.796393 -34.095919 62.985746
2.716187 -34.452427 63.692065
1.225235 -34.782448 62.19461
1.796393 -34.095919 62.985746
0.880693 -33.579512 62.262598
-0.543354 -33.748553 60.765022
0.009706 -33.054113 61.604057
-0.843182 -32.536624 60.897617
-0.979729 -37.636183 58.494823
-0.500978 -36.846766 59.475777
-1.30497 -36.433548 58.682816
-0.644054 -38.797929 58.276567
-0.979729 -37.636183 58.494823
-3.962728 -31.986412 57.615357
-3.440542 -31.369163 58.54557
-3.609409 -33.144333 57.45239
-3.962728 -31.986412 57.615357
-3.279103 -34.257829 57.322203
-2.762074 -33.572951 58.321777
-3.609409 -33.144333 57.45239
-2.854888 -35.449272 57.226049
-3.279103 -34.257829 57.322203
-2.107744 -35.954706 57.946725
-2.854888 -35.449272 57.226049
21.803357 -38.743027 69.040558
21.70049 -37.540902 69.489056
21.0548 -38.516365 69.466068
21.803357 -38.743027 69.040558
21.835037 -40.034487 68.532562
22.231552 -43.800424 66.765777
22.073831 -42.498481 67.402206
21.50535 -43.545244 67.324654
22.231552 -43.800424 66.765777
22.375142 -45.094303 66.067951
22.803314 -48.82633 63.95403
22.672489 -47.581436 64.674305
22.164555 -48.53871 64.609429
22.803314 -48.82633 63.95403
22.934515 -50.031598 63.188502
19.095519 -53.009115 63.494913
19.708945 -52.0988 63.889273
18.89702 -51.740626 64.26891
19.275384 -54.16762 62.771377
19.095519 -53.009115 63.494913
18.463459 -53.809444 63.151015
19.444654 -55.305203 62.005529
19.275384 -54.16762 62.771377
18.065526 -55.733173 61.958759
17.862771 -54.568687 62.713129
17.284973 -55.333912 62.24441
18.851784 -56.081839 61.648968
18.065526 -55.733173 61.958759
19.444654 -55.305203 62.005529
18.851784 -56.081839 61.648968
3 0 27 25
3 102 101 28
3 0 32 30
3 0 25 32
3 1 36 34
3 103 39 104
3 1 105 107
3 105 41 106
3 105 106 107
3 1 34 41
3 2 45 43
3 109 108 46
3 110 49 111
3 3 52 50
3 4 55 53
3 4 57 55
3 4 112 114
3 114 113 57
3 112 113 114
3 5 59 58
3 6 60 26
3 6 61 60
3 7 64 62
3 115 65 116
3 117 116 29
3 115 116 117
3 119 118 65
3 9 68 66
3 11 69 31
3 11 70 69
3 11 72 70
3 5 73 33
3 5 58 73
3 13 76 74
3 15 77 35
3 15 78 77
3 120 79 121
3 16 80 37
3 16 81 80
3 16 82 81
3 17 83 38
3 17 84 83
3 19 122 124
3 122 85 123
3 122 123 124
3 19 86 85
3 20 87 40
3 20 88 87
3 20 89 88
3 13 90 42
3 13 74 90
3 14 91 75
3 21 92 44
3 21 93 92
3 8 94 63
3 125 95 126
3 127 126 47
3 125 126 127
3 129 128 95
3 130 96 131
3 22 97 48
3 22 132 134
3 134 133 97
3 132 133 134
3 18 135 137
3 135 136 137
3 23 138 140
3 140 139 51
3 138 139 140
3 23 141 142
3 10 98 67
3 24 99 54
3 24 143 145
3 145 144 99
3 143 144 145
3 24 146 147
3 149 148 56
3 12 100 71
3 25 26 5
3 27 26 25
3 27 6 26
3 28 29 7
3 150 29 151
3 152 151 28
3 150 151 152
3 154 153 29
3 30 31 9
3 32 31 30
3 32 11 31
3 32 33 11
3 25 33 32
3 25 5 33
3 34 35 13
3 36 35 34
3 36 15 35
3 155 37 156
3 157 37 158
3 159 16 160
3 161 160 37
3 159 160 161
3 162 38 163
3 164 163 16
3 162 163 164
3 39 165 167
3 165 38 166
3 165 166 167
3 39 17 38
3 168 19 169
3 170 40 171
3 41 172 174
3 172 40 173
3 172 173 174
3 41 20 40
3 41 42 20
3 34 42 41
3 34 13 42
3 43 44 14
3 45 44 43
3 45 21 44
3 46 47 8
3 175 47 176
3 177 176 46
3 175 176 177
3 179 178 47
3 180 48 181
3 180 181 182
3 49 183 185
3 183 48 184
3 183 184 185
3 49 22 48
3 50 51 18
3 52 51 50
3 52 23 51
3 53 54 10
3 55 54 53
3 55 24 54
3 55 56 24
3 57 56 55
3 57 186 188
3 188 187 56
3 186 187 188
3 57 189 190
3 192 191 57
3 194 193 12
3 196 195 1
3 197 1 198
3 58 199 200
3 59 201 203
3 203 202 58
3 201 202 203
3 59 204 205
3 26 59 5
3 60 59 26
3 60 206 208
3 208 207 59
3 206 207 208
3 60 209 210
3 61 211 213
3 213 212 60
3 211 212 213
3 61 214 215
3 62 63 2
3 64 63 62
3 64 8 63
3 29 64 7
3 65 64 29
3 65 8 64
3 65 46 8
3 216 46 217
3 218 217 65
3 216 217 218
3 220 219 46
3 66 67 3
3 68 67 66
3 68 10 67
3 31 68 9
3 69 68 31
3 69 10 68
3 69 53 10
3 70 53 69
3 70 4 53
3 70 71 4
3 72 71 70
3 72 12 71
3 33 72 11
3 73 72 33
3 73 12 72
3 73 221 223
3 223 222 12
3 221 222 223
3 58 224 226
3 226 225 73
3 224 225 226
3 58 227 228
3 74 75 0
3 76 75 74
3 76 14 75
3 35 76 13
3 77 76 35
3 77 14 76
3 77 43 14
3 78 43 77
3 78 2 43
3 229 36 230
3 231 230 1
3 229 230 231
3 79 232 234
3 232 36 233
3 232 233 234
3 79 15 36
3 37 235 237
3 235 79 236
3 235 236 237
3 80 79 37
3 80 15 79
3 80 78 15
3 81 78 80
3 81 2 78
3 81 62 2
3 82 62 81
3 82 7 62
3 38 82 16
3 83 82 38
3 83 7 82
3 83 28 7
3 84 28 83
3 84 238 240
3 240 239 28
3 238 239 240
3 241 18 242
3 85 243 244
3 85 245 247
3 245 18 246
3 245 246 247
3 85 50 18
3 86 50 85
3 86 3 50
3 248 19 249
3 40 250 251
3 87 252 254
3 254 253 40
3 252 253 254
3 87 255 257
3 255 19 256
3 255 256 257
3 87 86 19
3 88 86 87
3 88 3 86
3 88 66 3
3 89 66 88
3 89 9 66
3 42 89 20
3 90 89 42
3 90 9 89
3 90 30 9
3 74 30 90
3 74 0 30
3 75 27 0
3 91 27 75
3 91 6 27
3 44 91 14
3 92 91 44
3 92 6 91
3 92 61 6
3 93 61 92
3 93 258 260
3 260 259 61
3 258 259 260
3 63 45 2
3 94 45 63
3 94 21 45
3 47 94 8
3 95 94 47
3 95 21 94
3 95 93 21
3 261 93 262
3 263 262 95
3 261 262 263
3 265 264 93
3 266 39 267
3 96 268 270
3 268 39 269
3 268 269 270
3 96 17 39
3 48 271 273
3 271 96 272
3 271 272 273
3 97 96 48
3 97 17 96
3 97 84 17
3 274 84 275
3 276 275 97
3 274 275 276
3 278 277 84
3 279 49 280
3 281 49 282
3 283 22 284
3 285 284 49
3 283 284 285
3 286 22 287
3 289 288 22
3 51 290 292
3 292 291 18
3 290 291 292
3 294 293 51
3 67 52 3
3 98 52 67
3 98 23 52
3 54 98 10
3 99 98 54
3 99 23 98
3 99 295 297
3 297 296 23
3 295 296 297
3 299 298 99
3 56 300 302
3 302 301 24
3 300 301 302
3 304 303 56
3 71 305 307
3 307 306 4
3 305 306 307
3 100 308 310
3 310 309 71
3 308 309 310
3 100 311 312
3 313 100 314
3 315 314 12
3 313 314 315
3 316 100 317
3 319 318 100
