ply
format ascii 1.0
element vertex 350
property float x
property float y
property float z
element face 365
property list uchar int vertex_index
end_header
-40.854156 -27.051092 -31.189356
-40.892967 -4.314759 -44.579628
-41.312664 -16.522045 -31.491121
-41.5033 -16.346043 -38.409542
-41.078243 -6.745286 -36.599899
-40.751961 -28.090578 -38.244709
-38.449287 7.455056 -49.990658
-41.320469 -11.756359 -34.176125
-40.085308 -32.84095 -30.470539
-40.886517 -27.711653 -34.663876
-41.366756 -10.273982 -41.831375
-41.407295 -16.073793 -42.180225
-41.099709 -9.827952 -45.705181
-40.325157 -3.343539 -49.076515
-41.228054 -21.500549 -31.502493
-41.323757 -21.847139 -34.827824
-41.430607 -16.313349 -34.823971
-41.400963 -11.167083 -37.714474
-41.075302 -5.427233 -40.516647
-41.32814 -22.037544 -38.532181
-41.022018 -22.40926 -42.357674
-40.770954 -26.527296 -27.83823
-41.081215 -21.365959 -28.067022
-40.36562 0.200357 -43.033047
-39.123188 5.649806 -45.004761
-39.93689 1.782361 -47.414135
-38.994411 3.045355 -52.323814
-40.52602 -29.926132 -30.919689
-40.538624 -30.284712 -32.647312
-40.906567 -27.159702 -32.976913
-41.171169 -7.216521 -43.218262
-41.263306 -9.788437 -43.785225
-41.002464 -6.785673 -45.467327
-40.743034 -6.432964 -47.569061
-40.664776 -3.790097 -46.843323
-41.294315 -18.936306 -31.471123
-41.356709 -19.011496 -33.149738
-41.376816 -16.582043 -33.172836
-41.231068 -9.21704 -35.415405
-41.359913 -11.29455 -35.95623
-41.264301 -8.744244 -37.253216
-41.280666 -8.330132 -39.068043
-41.091457 -6.063686 -38.526081
-41.449753 -19.090704 -36.617668
-41.362423 -21.672283 -36.746967
-41.463329 -18.902107 -38.638161
-41.228443 -16.110413 -44.169899
-41.272774 -19.125179 -42.396996
-41.027367 -19.186617 -44.343678
-40.461281 -28.759459 -26.014383
-40.727318 -26.183292 -26.185152
-40.97039 -23.898647 -28.045895
-40.447578 -0.683244 -40.642769
-38.80175 6.758472 -47.526718
-39.592838 3.867786 -46.317577
-39.282852 4.575381 -48.739433
-39.569691 2.260707 -49.878342
-38.782154 5.435423 -51.215832
-41.348286 -14.32365 -32.912933
-41.263245 -12.023964 -32.598297
-41.183926 -9.684094 -33.676533
-41.046635 -7.487441 -34.674236
-39.568634 -35.675228 -30.206739
-39.482162 -36.383408 -31.879992
-40.089478 -33.210781 -32.327553
-40.512787 -30.665829 -34.463604
-40.869911 -27.780926 -36.414555
-41.476997 -13.180511 -40.05032
-41.48708 -16.059196 -40.299019
-41.42746 -13.134743 -42.031219
-41.303879 -12.966815 -43.979691
-41.067829 -12.640163 -46.069206
-40.762657 -9.305288 -47.98505
-40.349625 -6.01554 -49.734585
-39.829727 -2.947532 -51.387348
-37.398792 10.353299 -51.237289
-37.865173 8.27117 -52.614086
-36.755062 11.147137 -53.875381
-41.08989 -24.183409 -31.442499
-41.137657 -24.3561 -33.102261
-41.286873 -21.572193 -33.202034
-41.408836 -19.08741 -34.84177
-41.479248 -16.275242 -36.613041
-41.397449 -13.9559 -34.592697
-41.442017 -13.644893 -36.289902
-41.480186 -13.575704 -38.153076
-41.409321 -10.72381 -39.675499
-41.266014 -7.929244 -41.077808
-41.018883 -4.859139 -42.483898
-41.170376 -24.547274 -34.912704
-41.161304 -24.819752 -36.598289
-41.085293 -25.13269 -38.48204
-41.404556 -19.191654 -40.472958
-41.228767 -22.176413 -40.46291
-40.954536 -25.132519 -40.352039
-40.512341 -29.488916 -29.293306
-40.456909 -29.321037 -27.540022
-40.804672 -26.87364 -29.494459
-41.018707 -24.231546 -29.650208
-41.15152 -21.627409 -29.722044
-41.221493 -18.997854 -29.815321
-40.980839 -21.265554 -26.499134
-40.83316 -4.230248 -37.573933
-40.820168 -3.380647 -39.501835
-40.766285 -2.514736 -41.642525
-40.686184 -2.01669 -43.85548
-39.814529 2.962544 -43.997623
-40.234257 0.804351 -45.17667
-40.473228 -1.316062 -46.238697
-40.172928 -0.740762 -48.457302
-39.760735 -0.331553 -50.710258
-39.173923 0.227505 -52.978043
-38.087631 6.17526 -53.867886
-40.510216 -29.709342 -38.134224
-40.582079 -29.608246 -37.191108
-40.63838 -28.336818 -39.128308
-40.510216 -29.709342 -38.134224
-40.983126 -17.48432 -45.280299
-41.127905 -17.648515 -44.256788
-41.083664 -15.946219 -45.193409
-40.85004 -19.17605 -45.289485
-40.983126 -17.48432 -45.280299
-40.691456 -26.058629 -25.321018
-40.569328 -27.349628 -25.236719
-40.807034 -25.022509 -26.253504
-40.691456 -26.058629 -25.321018
-38.625518 7.106764 -48.758688
-38.335642 8.107956 -48.148623
-38.15941 8.456247 -49.380593
-41.218878 -12.194288 -31.818339
-41.267807 -13.129672 -31.970475
-41.091334 -8.926146 -33.360426
-41.152077 -9.958627 -32.881338
-41.022688 -7.82782 -33.859278
-41.11528 -8.585767 -34.175384
-41.091334 -8.926146 -33.360426
-36.807034 11.695438 -51.79232
-37.102436 11.177707 -50.518892
-36.485169 12.092357 -53.111366
-37.076927 10.750218 -52.556335
-36.807034 11.695438 -51.79232
-39.449509 -36.564222 -32.801713
-39.743975 -35.079249 -32.981649
-40.851439 -23.988229 -42.254927
-40.817697 -25.349858 -41.25211
-40.988277 -23.770889 -41.354856
-40.276922 -30.796033 -28.236695
-40.301167 -30.907964 -29.061342
-40.897011 -21.205115 -25.624948
-40.882176 -22.400098 -25.543146
-40.647305 -2.906845 -38.025902
-40.661184 -3.496134 -37.03124
-40.640809 -2.482045 -38.989853
-40.826664 -3.805447 -38.537884
-40.647305 -2.906845 -38.025902
-38.797491 6.449523 -44.366669
-38.686268 7.002179 -45.607508
-39.223913 5.076085 -43.821737
-38.797491 6.449523 -44.366669
-39.468858 4.306175 -44.501192
-39.569584 3.732455 -43.318168
-39.223913 5.076085 -43.821737
-37.576488 7.641455 -54.545496
-37.976402 7.223215 -53.240986
-37.46526 8.68941 -53.918596
-40.879005 -20.774443 -44.306201
-40.876331 -22.385765 -43.313198
-41.024693 -20.797939 -43.350676
-40.879005 -20.774443 -44.306201
-40.85004 -19.17605 -45.289485
-40.43631 -28.637711 -25.151334
-40.253044 -29.949281 -24.976544
-40.594299 -27.471376 -26.099767
-40.43631 -28.637711 -25.151334
-40.569328 -27.349628 -25.236719
-40.92857 -23.880187 -27.183876
-40.848854 -25.04097 -27.115524
-40.807034 -25.022509 -26.253504
-40.983982 -22.613843 -27.19444
-41.025802 -22.632303 -28.056459
-40.92857 -23.880187 -27.183876
-40.225631 0.110996 -40.040634
-40.454514 -1.133344 -39.56032
-40.214088 0.561661 -41.129948
-40.225631 0.110996 -40.040634
-40.173109 1.003462 -42.325086
-40.406599 -0.241443 -41.837908
-40.214088 0.561661 -41.129948
-38.525549 7.556512 -46.868487
-38.335642 8.107956 -48.148623
-38.962469 6.204139 -46.26574
-38.686268 7.002179 -45.607508
-38.525549 7.556512 -46.868487
-41.310327 -14.279515 -32.127793
-41.330475 -15.422847 -32.202027
-41.292516 -15.378712 -31.416887
-41.305765 -13.173807 -32.755615
-41.310327 -14.279515 -32.127793
-41.267807 -13.129672 -31.970475
-41.191736 -11.128561 -32.34222
-41.218878 -12.194288 -31.818339
-41.223585 -10.854029 -33.137415
-41.191736 -11.128561 -32.34222
-41.152077 -9.958627 -32.881338
-39.525398 -36.029318 -31.043366
-39.170209 -37.643541 -30.810372
-39.213446 -37.289451 -29.973745
-40.047632 -33.492935 -33.205429
-39.743975 -35.079249 -32.981649
-39.78582 -34.797095 -32.103773
-40.259287 -32.220459 -34.273454
-40.047632 -33.492935 -33.205429
-40.301133 -31.938305 -33.395578
-40.462492 -30.895871 -35.300556
-40.259287 -32.220459 -34.273454
-40.641054 -29.45342 -36.276032
-40.462492 -30.895871 -35.300556
-40.691349 -29.223377 -35.439079
-40.810936 -27.935752 -37.329632
-40.582079 -29.608246 -37.191108
-40.641054 -29.45342 -36.276032
-41.003357 -14.211094 -46.143062
-41.083664 -15.946219 -45.193409
-41.148136 -14.375288 -45.119552
-40.881614 -12.634056 -47.098999
-41.003357 -14.211094 -46.143062
-40.729028 -10.966618 -48.056921
-40.881614 -12.634056 -47.098999
-40.915243 -10.972725 -47.027128
-40.533195 -9.308898 -49.041784
-40.729028 -10.966618 -48.056921
-40.326679 -7.664025 -49.916551
-40.533195 -9.308898 -49.041784
-40.556141 -7.660414 -48.859818
-40.088149 -5.950336 -50.780512
-40.326679 -7.664025 -49.916551
-39.828199 -4.416332 -51.606893
-40.088149 -5.950336 -50.780512
-40.089676 -4.481536 -50.560967
-39.510092 -2.786396 -52.485014
-39.828199 -4.416332 -51.606893
-37.634163 9.905369 -50.003908
-37.102436 11.177707 -50.518892
-37.924039 8.904177 -50.613974
-38.15941 8.456247 -49.380593
-37.634163 9.905369 -50.003908
-36.910204 10.127393 -54.549244
-37.46526 8.68941 -53.918596
-37.310118 9.709153 -53.244733
-36.106848 12.547616 -54.441205
-36.485169 12.092357 -53.111366
-36.3058 11.61301 -55.139272
-36.106848 12.547616 -54.441205
-36.910204 10.127393 -54.549244
-36.3058 11.61301 -55.139272
-39.126421 -37.962025 -31.718356
-39.170209 -37.643541 -30.810372
-39.126421 -37.962025 -31.718356
-39.449509 -36.564222 -32.801713
-40.739667 -26.857788 -40.181973
-40.63838 -28.336818 -39.128308
-40.853248 -26.611548 -39.298374
-40.739667 -26.857788 -40.181973
-40.817697 -25.349858 -41.25211
-40.851439 -23.988229 -42.254927
-40.876331 -22.385765 -43.313198
-39.233267 -36.977993 -29.082895
-39.213446 -37.289451 -29.973745
-39.564796 -35.453899 -29.31424
-39.233267 -36.977993 -29.082895
-39.823133 -34.03676 -29.44614
-39.826971 -34.258089 -30.338639
-39.564796 -35.453899 -29.31424
-40.08765 -32.58398 -29.649958
-39.823133 -34.03676 -29.44614
-40.308007 -31.126571 -29.874533
-40.305664 -31.383541 -30.695114
-40.08765 -32.58398 -29.649958
-40.519181 -29.707524 -30.106498
-40.308007 -31.126571 -29.874533
-40.301167 -30.907964 -29.061342
-40.259428 -30.141168 -25.778721
-40.253044 -29.949281 -24.976544
-40.257242 -30.421957 -26.541541
-40.259428 -30.141168 -25.778721
-40.459095 -29.040248 -26.777203
-40.249206 -30.712093 -27.360053
-40.257242 -30.421957 -26.541541
-40.484625 -29.404977 -28.416664
-40.276922 -30.796033 -28.236695
-40.249206 -30.712093 -27.360053
-40.933794 -22.56364 -26.410496
-40.882176 -22.400098 -25.543146
-41.031027 -21.315756 -27.283078
-40.983982 -22.613843 -27.19444
-40.933794 -22.56364 -26.410496
-40.976813 -20.056855 -26.54409
-40.897011 -21.205115 -25.624948
-41.054699 -20.039327 -27.381191
-40.976813 -20.056855 -26.54409
-41.104887 -20.08953 -28.165135
-41.031027 -21.315756 -27.283078
-41.054699 -20.039327 -27.381191
-41.175026 -18.905477 -29.039284
-41.151354 -20.181907 -28.941172
-41.104887 -20.08953 -28.165135
-41.224173 -17.761773 -29.855148
-41.175026 -18.905477 -29.039284
-41.269758 -16.523868 -30.693047
-41.267078 -17.759949 -30.653221
-41.224173 -17.761773 -29.855148
-41.292516 -15.378712 -31.416887
-41.269758 -16.523868 -30.693047
-40.917183 -6.804013 -34.240469
-41.022688 -7.82782 -33.859278
-40.933127 -6.321908 -35.15262
-40.917183 -6.804013 -34.240469
-40.948931 -5.95083 -36.115451
-41.062439 -7.116364 -35.637068
-40.933127 -6.321908 -35.15262
-40.826389 -4.693311 -36.602469
-40.661184 -3.496134 -37.03124
-40.955702 -5.487767 -37.086916
-40.948931 -5.95083 -36.115451
-40.826389 -4.693311 -36.602469
-40.633873 -2.031945 -40.072302
-40.640809 -2.482045 -38.989853
-40.454514 -1.133344 -39.56032
-39.897564 2.384555 -42.807374
-39.569584 3.732455 -43.318168
-40.090075 1.58145 -43.515335
-40.173109 1.003462 -42.325086
-39.897564 2.384555 -42.807374
-39.182189 -1.198878 -53.280361
-39.510092 -2.786396 -52.485014
-39.501825 -1.360013 -52.182696
-37.691456 6.456731 -55.033814
-37.576488 7.641455 -54.545496
-38.176651 4.92774 -54.300776
-37.691456 6.456731 -55.033814
-38.630041 3.362788 -53.52874
-38.541021 4.610307 -53.09585
-38.176651 4.92774 -54.300776
-38.719797 1.953863 -53.855854
-39.084167 1.63643 -52.650928
-38.630041 3.362788 -53.52874
-38.798515 0.42122 -54.099646
-38.719797 1.953863 -53.855854
-39.182189 -1.198878 -53.280361
-38.798515 0.42122 -54.099646
3 0 29 27
3 1 32 30
3 1 34 32
3 2 37 35
3 4 40 38
3 4 42 40
3 5 113 114
3 5 115 116
3 3 45 43
3 117 48 118
3 119 118 46
3 117 118 119
3 121 120 48
3 122 50 123
3 125 124 50
3 6 126 128
3 126 53 127
3 126 127 128
3 6 55 53
3 6 57 55
3 129 59 130
3 131 60 132
3 133 61 134
3 135 134 60
3 133 134 135
3 8 64 62
3 9 65 28
3 9 66 65
3 10 69 67
3 12 70 31
3 12 71 70
3 12 72 71
3 13 73 33
3 13 74 73
3 136 75 137
3 138 77 139
3 140 139 75
3 138 139 140
3 14 80 78
3 16 81 36
3 16 82 81
3 7 83 58
3 17 84 39
3 17 85 84
3 17 86 85
3 18 87 41
3 18 88 87
3 142 141 63
3 15 89 79
3 19 90 44
3 19 91 90
3 11 92 68
3 20 93 47
3 20 94 93
3 20 143 145
3 145 144 94
3 143 144 145
3 146 95 147
3 21 96 49
3 21 97 96
3 21 98 97
3 22 99 51
3 22 100 99
3 148 101 149
3 150 102 151
3 152 103 153
3 154 153 102
3 152 153 154
3 23 104 52
3 23 105 104
3 24 155 156
3 24 157 158
3 24 159 161
3 159 106 160
3 159 160 161
3 25 107 54
3 25 108 107
3 25 109 108
3 26 110 56
3 26 111 110
3 162 112 163
3 164 163 76
3 162 163 164
3 27 28 8
3 29 28 27
3 29 9 28
3 30 31 10
3 32 31 30
3 32 12 31
3 32 33 12
3 34 33 32
3 34 13 33
3 35 36 14
3 37 36 35
3 37 16 36
3 38 39 7
3 40 39 38
3 40 17 39
3 40 41 17
3 42 41 40
3 42 18 41
3 43 44 15
3 45 44 43
3 45 19 44
3 46 47 11
3 48 47 46
3 48 20 47
3 48 165 167
3 167 166 20
3 165 166 167
3 169 168 48
3 170 49 171
3 50 172 174
3 172 49 173
3 172 173 174
3 50 21 49
3 50 51 21
3 175 51 176
3 177 176 50
3 175 176 177
3 178 22 179
3 180 179 51
3 178 179 180
3 181 52 182
3 183 52 184
3 185 23 186
3 187 186 52
3 185 186 187
3 53 188 189
3 53 190 192
3 190 24 191
3 190 191 192
3 53 54 24
3 55 54 53
3 55 25 54
3 55 56 25
3 57 56 55
3 57 26 56
3 193 58 194
3 195 194 2
3 193 194 195
3 59 196 198
3 196 58 197
3 196 197 198
3 59 7 58
3 199 59 200
3 60 201 203
3 201 59 202
3 201 202 203
3 60 7 59
3 60 38 7
3 61 38 60
3 61 4 38
3 62 204 206
3 204 63 205
3 204 205 206
3 64 63 62
3 64 207 209
3 209 208 63
3 207 208 209
3 28 64 8
3 65 64 28
3 65 210 212
3 212 211 64
3 210 211 212
3 65 213 214
3 66 215 217
3 217 216 65
3 215 216 217
3 66 218 220
3 218 5 219
3 218 219 220
3 67 68 3
3 69 68 67
3 69 11 68
3 31 69 10
3 70 69 31
3 70 11 69
3 70 46 11
3 71 46 70
3 71 221 223
3 223 222 46
3 221 222 223
3 71 224 225
3 72 226 228
3 228 227 71
3 226 227 228
3 72 229 230
3 33 72 12
3 73 72 33
3 73 231 233
3 233 232 72
3 231 232 233
3 73 234 235
3 74 236 238
3 238 237 73
3 236 237 238
3 74 239 240
3 75 241 242
3 75 243 245
3 243 6 244
3 243 244 245
3 75 76 6
3 77 76 75
3 77 246 248
3 248 247 76
3 246 247 248
3 249 77 250
3 251 77 252
3 254 253 77
3 78 79 0
3 80 79 78
3 80 15 79
3 36 80 14
3 81 80 36
3 81 15 80
3 81 43 15
3 82 43 81
3 82 3 43
3 58 37 2
3 83 37 58
3 83 16 37
3 39 83 7
3 84 83 39
3 84 16 83
3 84 82 16
3 85 82 84
3 85 3 82
3 85 67 3
3 86 67 85
3 86 10 67
3 41 86 17
3 87 86 41
3 87 10 86
3 87 30 10
3 88 30 87
3 88 1 30
3 63 255 256
3 258 257 63
3 79 29 0
3 89 29 79
3 89 9 29
3 44 89 15
3 90 89 44
3 90 9 89
3 90 66 9
3 91 66 90
3 91 5 66
3 68 45 3
3 92 45 68
3 92 19 45
3 47 92 11
3 93 92 47
3 93 19 92
3 93 91 19
3 94 91 93
3 94 5 91
3 94 259 261
3 261 260 5
3 259 260 261
3 263 262 94
3 265 264 20
3 266 62 267
3 268 62 269
3 270 8 271
3 272 271 62
3 270 271 272
3 273 8 274
3 275 27 276
3 277 276 8
3 275 276 277
3 95 278 280
3 278 27 279
3 278 279 280
3 95 0 27
3 49 281 282
3 96 283 285
3 285 284 49
3 283 284 285
3 96 286 287
3 96 288 290
3 288 95 289
3 288 289 290
3 97 95 96
3 97 0 95
3 97 78 0
3 98 78 97
3 98 14 78
3 51 98 21
3 99 98 51
3 99 14 98
3 99 35 14
3 100 35 99
3 100 2 35
3 101 291 292
3 101 293 295
3 293 22 294
3 293 294 295
3 296 101 297
3 298 101 299
3 300 22 301
3 302 301 101
3 300 301 302
3 303 100 304
3 305 304 22
3 303 304 305
3 306 100 307
3 308 2 309
3 310 309 100
3 308 309 310
3 312 311 2
3 313 61 314
3 315 61 316
3 317 4 318
3 319 318 61
3 317 318 319
3 102 320 321
3 102 322 324
3 322 4 323
3 322 323 324
3 102 42 4
3 103 42 102
3 103 18 42
3 52 325 327
3 325 103 326
3 325 326 327
3 104 103 52
3 104 18 103
3 104 88 18
3 105 88 104
3 105 1 88
3 106 328 329
3 106 330 332
3 330 23 331
3 330 331 332
3 54 106 24
3 107 106 54
3 107 23 106
3 107 105 23
3 108 105 107
3 108 1 105
3 108 34 1
3 109 34 108
3 109 13 34
3 56 109 25
3 110 109 56
3 110 13 109
3 110 74 13
3 111 74 110
3 111 333 335
3 335 334 74
3 333 334 335
3 76 57 6
3 112 57 76
3 112 26 57
3 336 112 337
3 338 112 339
3 340 26 341
3 342 341 112
3 340 341 342
3 343 111 344
3 345 344 26
3 343 344 345
3 346 111 347
3 349 348 111
