ply
format ascii 1.0
element vertex 223
property float x
property float y
property float z
element face 215
property list uchar int vertex_index
end_header
-18.978903 31.235666 -55.964214
-16.351032 32.634373 -45.223782
-12.158587 36.035004 -53.208157
-9.223415 36.421833 -56.267651
-21.283123 29.123161 -51.259705
-24.901787 26.412086 -51.858982
-22.619364 28.788076 -56.704132
-15.863613 32.509529 -59.865494
-19.703669 30.309891 -61.035988
-20.802202 26.273697 -41.237179
-19.582142 29.372225 -46.121399
-17.705412 31.926714 -50.551952
-14.527227 34.722736 -49.632317
-15.367661 33.638031 -54.621101
-12.458892 34.373253 -58.26487
-23.640783 27.622568 -61.34885
-20.237146 30.276564 -53.75568
-21.963499 29.052063 -54.040504
-20.753042 30.070211 -56.497902
-17.035488 31.376993 -42.960323
-18.659056 29.580902 -43.520718
-17.906435 31.005362 -45.76339
-18.795174 30.693476 -48.562763
-17.106144 32.194191 -47.972828
-13.444411 35.440586 -51.586628
-15.004953 34.127617 -52.181789
-13.740808 34.762047 -54.135967
-13.98726 34.11198 -56.655563
-12.241705 35.248821 -55.766846
-25.653883 26.275723 -54.36116
-26.700317 24.914463 -51.749317
-21.681076 29.032627 -61.324738
-10.628271 37.401691 -52.369743
-10.724831 36.34314 -54.90593
-9.384053 37.478176 -54.012856
-22.235195 27.778261 -48.901733
-23.155521 27.735691 -51.623295
-23.757341 27.741024 -54.203449
-24.476732 27.408251 -56.623264
-17.565969 31.96435 -58.008965
-19.390017 30.850161 -58.604221
-17.876892 31.420053 -60.425117
-21.901876 26.235067 -43.722687
-19.164497 28.100416 -41.052757
-20.174253 27.915201 -43.519901
-21.240883 27.792826 -46.144302
-20.483887 29.204264 -48.647346
-19.499706 30.512426 -51.083267
-18.436855 31.550161 -53.33345
-15.561421 33.72551 -47.571583
-16.042601 33.334057 -50.194923
-16.695051 32.820965 -52.737755
-17.137104 32.436069 -55.50111
-15.752689 33.057411 -57.290756
-14.060684 33.48555 -59.088245
-10.776276 35.353924 -57.327274
-21.199478 29.686329 -59.019997
-23.251936 28.283726 -58.932568
-25.237129 26.744162 -58.899155
-25.564991 26.056959 -61.150555
-12.801499 35.737795 -52.397392
-12.669156 36.187624 -51.146335
-12.026245 36.484833 -51.9571
-26.566804 25.482327 -54.194116
-26.045615 26.041441 -55.477087
-9.97521 38.065027 -51.998962
-10.582033 37.919929 -51.159329
-9.353101 38.103269 -52.820518
-10.006162 37.439933 -53.191299
-9.97521 38.065027 -51.998962
-21.566632 25.422469 -41.172012
-20.897101 25.499499 -39.916326
-21.352039 26.254382 -42.479933
-22.116469 25.403154 -42.414766
-21.566632 25.422469 -41.172012
-18.405441 29.014043 -40.893879
-18.59776 28.277235 -39.683249
-14.289303 35.053942 -48.270229
-13.808772 35.454718 -49.336499
-15.044324 34.224123 -48.60195
-14.8064 34.555329 -47.239863
-14.289303 35.053942 -48.270229
-12.526501 33.930832 -59.458178
-13.327397 33.486981 -59.869865
-13.259788 33.929401 -58.676558
-25.332163 25.691145 -50.546244
-24.447291 26.423305 -50.562957
-27.130254 24.159827 -50.414447
-27.62135 24.072772 -51.580225
-26.583058 25.093733 -60.972115
-25.83145 25.442124 -62.091499
-27.300787 24.654671 -59.851589
-26.282719 25.617897 -60.030029
-26.583058 25.093733 -60.972115
-16.016594 32.121443 -61.041719
-15.084781 32.606291 -60.615286
-20.151965 26.451927 -39.973009
-20.897101 25.499499 -39.916326
-17.847272 30.478947 -43.240521
-18.152721 29.754286 -42.127859
-17.340936 30.652331 -41.847662
-13.267364 35.813643 -50.313654
-12.669156 36.187624 -51.146335
-13.985819 35.081661 -50.609472
-13.808772 35.454718 -49.336499
-13.267364 35.813643 -50.313654
-9.221993 35.821827 -57.427977
-8.486547 36.343817 -56.793426
-27.090021 24.801697 -52.888195
-26.1771 25.595093 -53.055239
-26.566804 25.482327 -54.194116
-27.62135 24.072772 -51.580225
-27.090021 24.801697 -52.888195
-20.820243 29.303333 -62.279521
-20.692373 29.671259 -61.180363
-19.831539 29.941965 -62.135146
-21.855902 28.58898 -62.425398
-20.820243 29.303333 -62.279521
-22.835756 27.88395 -62.437454
-22.66093 28.327598 -61.336794
-21.855902 28.58898 -62.425398
-16.609193 31.640363 -41.678719
-17.340936 30.652331 -41.847662
-16.278519 32.351758 -42.821428
-16.609193 31.640363 -41.678719
-15.936291 32.980448 -43.953158
-16.69326 32.005683 -44.092053
-16.278519 32.351758 -42.821428
-11.261087 37.168177 -51.537893
-10.582033 37.919929 -51.159329
-11.393429 36.718348 -52.78895
-12.026245 36.484833 -51.9571
-11.261087 37.168177 -51.537893
-8.687979 38.18772 -53.495998
-9.353101 38.103269 -52.820518
-8.576968 37.537954 -54.60215
-8.687979 38.18772 -53.495998
-8.496649 37.009783 -55.729547
-9.303734 36.950004 -55.140254
-8.576968 37.537954 -54.60215
-8.486547 36.343817 -56.793426
-8.496649 37.009783 -55.729547
-23.113996 27.106392 -49.084333
-22.60711 27.054232 -47.679454
-23.574158 27.085107 -50.445114
-23.113996 27.106392 -49.084333
-22.695358 27.756976 -50.262514
-24.028654 27.073888 -51.741138
-24.447291 26.423305 -50.562957
-23.574158 27.085107 -50.445114
-25.45704 26.607705 -56.608139
-26.045615 26.041441 -55.477087
-25.065307 26.841987 -55.492212
-17.023233 31.576704 -61.321531
-16.870252 31.964791 -60.145305
-16.016594 32.121443 -61.041719
-17.934669 31.061107 -61.682153
-17.023233 31.576704 -61.321531
-18.848057 30.506025 -61.987589
-18.790281 30.864972 -60.730553
-17.934669 31.061107 -61.682153
-19.831539 29.941965 -62.135146
-18.848057 30.506025 -61.987589
-22.762221 25.454154 -43.808172
-22.116469 25.403154 -42.414766
-22.440451 26.282635 -45.089931
-22.762221 25.454154 -43.808172
-19.333112 27.365286 -39.880798
-18.59776 28.277235 -39.683249
-19.98335 27.187056 -41.144968
-20.151965 26.451927 -39.973009
-19.333112 27.365286 -39.880798
-18.911777 28.840659 -42.286738
-18.405441 29.014043 -40.893879
-18.152721 29.754286 -42.127859
-22.109954 27.061514 -46.300739
-22.440451 26.282635 -45.089931
-21.571379 27.013947 -44.933495
-21.738039 27.785544 -47.523018
-22.60711 27.054232 -47.679454
-22.109954 27.061514 -46.300739
-15.643663 33.478224 -45.019016
-15.936291 32.980448 -43.953158
-15.248857 34.023792 -46.192917
-14.8064 34.555329 -47.239863
-15.956226 33.179941 -46.397683
-15.643663 33.478224 -45.019016
-15.248857 34.023792 -46.192917
-14.183317 33.094302 -60.226661
-15.084781 32.606291 -60.615286
-14.962149 32.99754 -59.476869
-14.183317 33.094302 -60.226661
-13.327397 33.486981 -59.869865
-9.998424 35.287872 -57.957789
-9.999845 35.887878 -56.797463
-9.221993 35.821827 -57.427977
-10.861895 34.866532 -58.424996
-9.998424 35.287872 -57.957789
-11.703204 34.376196 -58.893794
-11.617584 34.863588 -57.796072
-10.861895 34.866532 -58.424996
-12.526501 33.930832 -59.458178
-11.703204 34.376196 -58.893794
-26.231428 24.942334 -50.491411
-25.332163 25.691145 -50.546244
-25.801052 25.663274 -51.804149
-26.231428 24.942334 -50.491411
-27.130254 24.159827 -50.414447
-25.837238 26.275661 -57.746084
-25.45704 26.607705 -56.608139
-24.85693 27.076206 -57.761209
-23.885953 27.089022 -62.355337
-22.835756 27.88395 -62.437454
-24.848057 26.306218 -62.256189
-25.83145 25.442124 -62.091499
-24.602887 26.839764 -61.249702
-23.885953 27.089022 -62.355337
-24.848057 26.306218 -62.256189
-26.118789 25.961498 -58.90433
-25.40106 26.40056 -60.024855
-26.282719 25.617897 -60.030029
-25.837238 26.275661 -57.746084
-26.118789 25.961498 -58.90433
3 0 18 16
3 1 21 19
3 1 23 21
3 2 60 62
3 60 24 61
3 60 61 62
3 2 26 24
3 2 28 26
3 64 63 29
3 65 32 66
3 67 34 68
3 69 68 32
3 67 68 69
3 4 36 35
3 6 37 17
3 6 38 37
3 7 41 39
3 9 70 71
3 9 72 74
3 72 42 73
3 72 73 74
3 75 43 76
3 10 44 20
3 10 45 44
3 10 46 45
3 11 47 22
3 11 48 47
3 12 77 78
3 12 79 81
3 79 49 80
3 79 80 81
3 12 50 49
3 13 51 25
3 13 52 51
3 13 53 52
3 14 54 27
3 14 82 84
3 84 83 54
3 82 83 84
3 3 55 33
3 5 85 86
3 88 87 30
3 8 56 40
3 15 57 31
3 15 58 57
3 89 59 90
3 93 92 59
3 91 92 93
3 16 17 4
3 18 17 16
3 18 6 17
3 95 94 7
3 96 9 97
3 19 98 100
3 98 20 99
3 98 99 100
3 21 20 19
3 21 10 20
3 21 22 10
3 23 22 21
3 23 11 22
3 24 101 102
3 24 103 105
3 103 12 104
3 103 104 105
3 24 25 12
3 26 25 24
3 26 13 25
3 26 27 13
3 28 27 26
3 28 14 27
3 107 106 3
3 29 30 5
3 108 30 109
3 110 109 29
3 108 109 110
3 112 111 30
3 113 31 114
3 115 114 8
3 113 114 115
3 116 31 117
3 118 15 119
3 120 119 31
3 118 119 120
3 121 19 122
3 123 19 124
3 125 1 126
3 127 126 19
3 125 126 127
3 32 128 129
3 32 130 132
3 130 2 131
3 130 131 132
3 32 33 2
3 34 33 32
3 34 3 33
3 133 34 134
3 135 34 136
3 137 3 138
3 139 138 34
3 137 138 139
3 141 140 3
3 35 142 143
3 36 144 146
3 146 145 35
3 144 145 146
3 36 147 149
3 147 5 148
3 147 148 149
3 17 36 4
3 37 36 17
3 37 5 36
3 37 29 5
3 38 29 37
3 38 150 152
3 152 151 29
3 150 151 152
3 39 40 0
3 41 40 39
3 41 8 40
3 153 41 154
3 155 154 7
3 153 154 155
3 156 41 157
3 158 8 159
3 160 159 41
3 158 159 160
3 162 161 8
3 42 163 164
3 42 165 166
3 43 167 168
3 43 169 171
3 169 9 170
3 169 170 171
3 20 172 174
3 172 43 173
3 172 173 174
3 44 43 20
3 44 9 43
3 44 42 9
3 45 42 44
3 45 175 177
3 177 176 42
3 175 176 177
3 45 178 180
3 178 35 179
3 178 179 180
3 46 35 45
3 46 4 35
3 22 46 10
3 47 46 22
3 47 4 46
3 47 16 4
3 48 16 47
3 48 0 16
3 181 1 182
3 49 183 184
3 49 185 187
3 185 1 186
3 185 186 187
3 49 23 1
3 50 23 49
3 50 11 23
3 25 50 12
3 51 50 25
3 51 11 50
3 51 48 11
3 52 48 51
3 52 0 48
3 52 39 0
3 53 39 52
3 53 7 39
3 27 53 13
3 54 53 27
3 54 7 53
3 54 188 190
3 190 189 7
3 188 189 190
3 192 191 54
3 33 28 2
3 55 28 33
3 55 14 28
3 193 55 194
3 195 194 3
3 193 194 195
3 196 55 197
3 198 14 199
3 200 199 55
3 198 199 200
3 202 201 14
3 30 203 205
3 205 204 5
3 203 204 205
3 207 206 30
3 40 18 0
3 56 18 40
3 56 6 18
3 31 56 8
3 57 56 31
3 57 6 56
3 57 38 6
3 58 38 57
3 58 208 210
3 210 209 38
3 208 209 210
3 211 15 212
3 59 213 214
3 59 215 217
3 215 15 216
3 215 216 217
3 59 58 15
3 218 58 219
3 220 219 59
3 218 219 220
3 222 221 58
