ply
format ascii 1.0
element vertex 273
property float x
property float y
property float z
element face 280
property list uchar int vertex_index
end_header
-1.238522 98.245697 -6.819683
10.599897 99.449577 7.455632
8.411523 103.935837 -5.295657
-5.166464 97.577583 -17.938803
5.280593 104.559265 -17.699146
-3.058753 98.472717 -12.488165
-0.068096 101.372604 -17.994732
1.902848 101.947395 -12.238676
12.884407 105.233406 -3.281443
11.842654 106.533417 -9.919051
-3.719533 93.989616 -1.438025
-5.889757 94.488991 -6.922797
-7.972806 94.286812 -12.374844
0.738994 97.389542 -1.089141
3.489361 101.404915 -6.326842
5.32098 100.30748 -0.426163
9.585421 102.109344 1.176534
-7.272789 95.689697 -22.750813
-1.883642 99.942245 -23.337965
3.362089 103.244049 -23.393318
6.984588 104.742287 -11.446501
-2.125009 98.48909 -9.705277
-0.712253 100.206894 -12.430669
0.29399 100.197754 -9.470554
14.575011 106.348656 -5.514352
-2.516292 96.220543 -4.153698
-4.859214 94.26622 -4.154461
-3.596316 96.393684 -6.823238
-4.594728 96.513161 -9.66145
12.117036 101.259338 5.530342
12.493215 99.66201 8.734569
1.703526 96.785629 1.616633
3.112203 99.089844 -1.026867
3.752653 98.083168 2.011795
8.535782 98.930542 6.300978
8.149196 100.191422 3.521379
10.180657 100.882446 4.408236
11.711999 102.75399 2.054606
-0.496335 95.22821 1.330866
-6.216718 96.772263 -20.459303
-4.628001 97.885994 -23.178078
-3.622553 98.856285 -20.787525
2.521458 103.016357 -17.794071
1.767259 102.569687 -20.613472
4.430274 104.092789 -20.553782
6.996816 105.365433 -20.364178
5.932065 102.777 -5.918616
5.15592 103.178726 -8.888484
7.515206 104.336975 -8.348886
11.055572 106.749619 -13.203153
-6.742817 95.921799 -15.074112
-7.642972 95.438034 -17.782761
-4.247229 98.040581 -15.295433
-2.57043 99.612152 -18.156494
-1.724841 99.971481 -15.334179
0.942195 101.774918 -14.978737
3.573378 103.404945 -14.928534
10.707986 104.767288 -4.481716
10.091319 105.381149 -7.65489
12.475616 106.062828 -6.726413
14.110758 107.042809 -9.195177
-5.968351 92.065132 -1.545491
-7.100202 92.314774 -4.288916
-8.184419 92.319946 -6.741756
-7.085246 94.338135 -9.583746
-5.553524 96.42305 -12.360616
-0.224565 97.895088 -3.886913
1.19871 99.909302 -6.478389
2.015805 99.449287 -3.687173
4.433203 101.009186 -3.502922
6.815951 102.234093 -2.881204
5.970698 99.287056 2.614665
7.440195 101.253609 0.399438
9.09626 103.161514 -2.021607
11.343106 103.901825 -1.145968
13.361618 104.212311 0.10965
-1.566891 95.746933 -1.405931
-0.999856 100.756645 -20.881685
0.710434 101.670441 -23.426765
2.674007 101.760498 -9.2959
4.535974 103.495995 -11.90514
6.078831 104.741547 -14.575558
9.398023 105.727036 -10.643668
8.68903 105.919647 -14.049932
7.895255 105.799881 -17.292286
3.14894 96.99908 3.198122
2.72809 97.434399 1.814214
2.124376 96.350311 3.000541
2.124376 96.350311 3.000541
1.020033 95.604744 2.802277
15.179267 107.108837 -8.596039
14.342885 106.695733 -7.354764
15.411394 106.761761 -6.755627
14.930878 107.360566 -10.429555
15.179267 107.108837 -8.596039
-4.843942 93.027374 -1.491758
-5.456772 91.882652 -0.311584
-4.332363 92.844894 -0.257851
6.283387 98.761601 3.98878
5.316124 98.254521 3.714582
13.538208 103.570865 1.774499
12.536808 103.48315 1.082128
12.713399 102.841705 2.746977
14.354598 104.2398 0.780629
13.538208 103.570865 1.774499
-6.435815 96.180542 -24.099545
-6.722065 95.691624 -25.283035
-7.559039 95.200779 -23.934303
-2.360494 99.369228 -24.571835
-3.732673 98.341103 -24.491891
-3.255822 98.914119 -23.258021
-1.087052 100.256256 -24.627922
-2.360494 99.369228 -24.571835
2.899955 102.729816 -24.743053
1.574128 101.943013 -24.759776
2.036262 102.457245 -23.410041
4.341781 103.479317 -24.804972
2.899955 102.729816 -24.743053
9.61879 106.370968 -15.33496
9.872301 106.334633 -13.626542
10.802061 106.785954 -14.91157
9.221903 106.311085 -16.956136
8.292143 105.859764 -15.671109
9.61879 106.370968 -15.33496
8.853661 106.16639 -18.545846
9.221903 106.311085 -16.956136
-9.129282 93.115059 -12.176742
-8.63929 93.254658 -10.942221
-8.392712 94.627609 -22.582266
-8.012576 95.087219 -21.390934
-7.559039 95.200779 -23.934303
-8.392712 94.627609 -22.582266
14.80724 105.876805 -3.705556
13.729709 105.791031 -4.397898
13.961938 105.31918 -2.589102
15.65248 106.377488 -4.941147
14.80724 105.876805 -3.705556
15.411394 106.761761 -6.755627
15.65248 106.377488 -4.941147
13.167051 101.360889 6.159852
12.915917 102.094379 4.484846
13.355141 100.562225 7.761965
13.167051 101.360889 6.159852
12.305125 100.460674 7.132456
13.385713 99.660946 9.387463
13.355141 100.562225 7.761965
8.342489 99.560982 4.911179
7.372637 99.213784 4.442137
7.565929 98.583343 5.831936
12.915917 102.094379 4.484846
12.713399 102.841705 2.746977
11.914518 102.006664 3.792474
-0.079898 94.826034 2.659393
-1.119553 94.052444 2.524542
0.603596 96.00692 1.47375
-0.079898 94.826034 2.659393
1.020033 95.604744 2.802277
5.240248 104.363239 -21.93746
4.706155 103.93887 -23.357228
3.896181 103.668419 -21.97355
6.523519 104.999561 -21.842658
5.240248 104.363239 -21.93746
5.713545 104.729111 -20.45898
7.894692 105.609585 -21.634922
6.523519 104.999561 -21.842658
12.235252 107.05909 -12.894812
11.449113 106.641518 -11.561102
12.628792 106.950989 -11.252761
11.948798 107.113567 -14.625704
12.235252 107.05909 -12.894812
10.802061 106.785954 -14.91157
11.948798 107.113567 -14.625704
-7.911803 94.828751 -14.958215
-8.526797 94.011257 -13.608581
-7.357812 95.104305 -13.724478
-8.36188 94.586869 -16.31254
-7.911803 94.828751 -14.958215
-7.192894 95.679916 -16.428437
-8.829483 94.280361 -17.498653
-8.36188 94.586869 -16.31254
-8.197667 94.961388 -18.906908
-8.829483 94.280361 -17.498653
-7.48454 95.628502 -20.245179
-8.197667 94.961388 -18.906908
-6.929845 96.105148 -19.121032
-6.744753 96.23098 -21.605058
-8.012576 95.087219 -21.390934
-7.48454 95.628502 -20.245179
10.722399 98.629185 8.919293
9.830687 98.540588 8.23818
7.900567 98.013691 7.180978
7.565929 98.583343 5.831936
8.79863 98.28107 7.660853
7.900567 98.013691 7.180978
9.830687 98.540588 8.23818
9.567839 99.19006 6.878305
8.79863 98.28107 7.660853
13.762844 107.205685 -10.890824
12.628792 106.950989 -11.252761
12.976706 106.788113 -9.557114
13.762844 107.205685 -10.890824
14.930878 107.360566 -10.429555
-6.531987 90.853054 -0.258861
-5.456772 91.882652 -0.311584
-7.030195 91.112747 -1.648337
-6.531987 90.853054 -0.258861
-7.59612 91.237568 -3.020049
-7.030195 91.112747 -1.648337
-6.534277 92.189953 -2.917204
-8.196553 91.206593 -4.187518
-7.59612 91.237568 -3.020049
-8.738661 91.209179 -5.413938
-8.196553 91.206593 -4.187518
-7.642311 92.31736 -5.515336
-9.226667 91.285908 -6.751976
-8.738661 91.209179 -5.413938
-8.745096 92.271225 -8.125677
-9.226667 91.285908 -6.751976
-8.19551 93.280319 -9.546672
-8.745096 92.271225 -8.125677
-7.634832 93.32904 -8.162751
-7.529026 94.312473 -10.979295
-8.63929 93.254658 -10.942221
-8.19551 93.280319 -9.546672
11.669058 98.735401 9.558761
11.546556 99.555793 8.095101
10.722399 98.629185 8.919293
12.542623 98.729404 10.285294
11.669058 98.735401 9.558761
13.385713 99.660946 9.387463
12.542623 98.729404 10.285294
4.207102 97.652577 3.413147
3.14894 96.99908 3.198122
4.861675 98.685112 2.31323
4.207102 97.652577 3.413147
5.316124 98.254521 3.714582
7.059947 99.739239 3.068022
6.283387 98.761601 3.98878
7.372637 99.213784 4.442137
14.200544 104.808632 -0.893555
13.961938 105.31918 -2.589102
13.123012 104.722859 -1.585897
14.200544 104.808632 -0.893555
14.354598 104.2398 0.780629
-3.262381 93.731087 -0.179869
-4.332363 92.844894 -0.257851
-1.650782 94.350383 1.204576
-1.119553 94.052444 2.524542
-2.18606 94.609745 -0.163822
-1.650782 94.350383 1.204576
-1.031613 95.487572 -0.037532
-2.643212 94.868274 -1.421978
-3.262381 93.731087 -0.179869
-2.18606 94.609745 -0.163822
-5.113421 97.27869 -24.313178
-6.435815 96.180542 -24.099545
-5.950395 96.787846 -22.964446
-5.113421 97.27869 -24.313178
-3.732673 98.341103 -24.491891
0.209985 101.120354 -24.672322
-1.087052 100.256256 -24.627922
-0.586604 100.806343 -23.382365
0.209985 101.120354 -24.672322
1.574128 101.943013 -24.759776
4.341781 103.479317 -24.804972
4.706155 103.93887 -23.357228
8.404441 105.949165 -20.081792
7.446035 105.582657 -18.828232
8.853661 106.16639 -18.545846
7.894692 105.609585 -21.634922
8.404441 105.949165 -20.081792
-9.129282 93.115059 -12.176742
-8.526797 94.011257 -13.608581
3 0 23 21
3 0 27 25
3 0 21 27
3 1 30 29
3 85 33 86
3 87 86 31
3 85 86 87
3 1 36 34
3 1 29 36
3 88 31 89
3 3 41 39
3 4 44 42
3 4 45 44
3 2 48 46
3 3 51 50
3 3 39 51
3 5 54 52
3 7 55 22
3 7 56 55
3 8 59 57
3 90 60 91
3 92 91 24
3 90 91 92
3 94 93 60
3 10 95 97
3 95 61 96
3 95 96 97
3 11 62 26
3 11 63 62
3 11 64 63
3 5 65 28
3 5 52 65
3 13 68 66
3 15 69 32
3 15 70 69
3 98 71 99
3 16 72 35
3 16 73 72
3 16 74 73
3 100 75 101
3 102 101 37
3 100 101 102
3 104 103 75
3 13 76 38
3 13 66 76
3 17 105 107
3 105 106 107
3 18 108 110
3 110 109 40
3 108 109 110
3 18 111 112
3 6 77 53
3 19 78 43
3 19 113 115
3 115 114 78
3 113 114 115
3 19 116 117
3 14 79 67
3 20 80 47
3 20 81 80
3 9 82 58
3 118 83 119
3 120 119 49
3 118 119 120
3 121 84 122
3 123 122 83
3 121 122 123
3 125 124 84
3 12 126 127
3 17 128 129
3 17 130 131
3 21 22 5
3 23 22 21
3 23 7 22
3 132 24 133
3 134 133 8
3 132 133 134
3 135 24 136
3 138 137 24
3 25 26 10
3 27 26 25
3 27 11 26
3 27 28 11
3 21 28 27
3 21 5 28
3 29 139 140
3 30 141 143
3 143 142 29
3 141 142 143
3 30 144 145
3 31 32 13
3 33 32 31
3 33 15 32
3 34 146 148
3 146 35 147
3 146 147 148
3 36 35 34
3 36 16 35
3 36 37 16
3 29 37 36
3 29 149 151
3 151 150 37
3 149 150 151
3 152 38 153
3 31 154 156
3 154 38 155
3 154 155 156
3 31 13 38
3 39 40 17
3 41 40 39
3 41 18 40
3 42 43 6
3 44 43 42
3 44 19 43
3 44 157 159
3 159 158 19
3 157 158 159
3 45 160 162
3 162 161 44
3 160 161 162
3 45 163 164
3 46 47 14
3 48 47 46
3 48 20 47
3 165 49 166
3 167 166 9
3 165 166 167
3 168 49 169
3 171 170 49
3 50 172 174
3 174 173 12
3 172 173 174
3 51 175 177
3 177 176 50
3 175 176 177
3 51 178 179
3 51 180 181
3 39 182 184
3 184 183 51
3 182 183 184
3 39 185 187
3 185 17 186
3 185 186 187
3 189 188 1
3 190 34 191
3 192 34 193
3 194 1 195
3 196 195 34
3 194 195 196
3 52 53 3
3 54 53 52
3 54 6 53
3 22 54 5
3 55 54 22
3 55 6 54
3 55 42 6
3 56 42 55
3 56 4 42
3 57 58 2
3 59 58 57
3 59 9 58
3 24 59 8
3 60 59 24
3 60 9 59
3 60 197 199
3 199 198 9
3 197 198 199
3 201 200 60
3 61 202 203
3 61 204 205
3 26 61 10
3 62 61 26
3 62 206 208
3 208 207 61
3 206 207 208
3 62 209 210
3 63 211 213
3 213 212 62
3 211 212 213
3 63 214 215
3 63 216 217
3 64 218 220
3 220 219 63
3 218 219 220
3 64 221 223
3 221 12 222
3 221 222 223
3 28 64 11
3 65 64 28
3 65 12 64
3 65 50 12
3 52 50 65
3 52 3 50
3 224 30 225
3 226 225 1
3 224 225 226
3 227 30 228
3 230 229 30
3 66 67 0
3 68 67 66
3 68 14 67
3 32 68 13
3 69 68 32
3 69 14 68
3 69 46 14
3 70 46 69
3 70 2 46
3 231 33 232
3 71 233 235
3 233 33 234
3 233 234 235
3 71 15 33
3 35 236 238
3 236 71 237
3 236 237 238
3 72 71 35
3 72 15 71
3 72 70 15
3 73 70 72
3 73 2 70
3 73 57 2
3 74 57 73
3 74 8 57
3 37 74 16
3 75 74 37
3 75 8 74
3 75 239 241
3 241 240 8
3 239 240 241
3 243 242 75
3 244 10 245
3 38 246 247
3 76 248 250
3 250 249 38
3 248 249 250
3 76 251 253
3 251 10 252
3 251 252 253
3 76 25 10
3 66 25 76
3 66 0 25
3 40 254 256
3 256 255 17
3 254 255 256
3 258 257 40
3 53 41 3
3 77 41 53
3 77 18 41
3 43 77 6
3 78 77 43
3 78 18 77
3 78 259 261
3 261 260 18
3 259 260 261
3 263 262 78
3 265 264 19
3 67 23 0
3 79 23 67
3 79 7 23
3 47 79 14
3 80 79 47
3 80 7 79
3 80 56 7
3 81 56 80
3 81 4 56
3 58 48 2
3 82 48 58
3 82 20 48
3 49 82 9
3 83 82 49
3 83 20 82
3 83 81 20
3 84 81 83
3 84 4 81
3 84 45 4
3 266 45 267
3 268 267 84
3 266 267 268
3 270 269 45
3 272 271 12
