ply
format ascii 1.0
element vertex 216
property float x
property float y
property float z
element face 209
property list uchar int vertex_index
end_header
33.986862 77.297798 -3.607514
35.919476 62.233814 3.785294
32.941936 72.365532 10.272032
34.214092 56.881264 16.166777
35.605537 71.166519 -6.558722
34.975819 70.017479 0.173495
32.336483 68.95459 17.239071
33.6036 64.767365 13.428356
32.926422 84.017014 -7.198544
32.492401 82.45298 -0.00657
32.09594 79.942139 7.022026
33.461067 75.197563 3.536027
34.353146 67.700417 6.714783
35.130203 59.750206 10.012327
34.225994 78.022629 -7.15813
34.998035 74.998993 -8.448271
34.777664 74.354836 -5.135904
35.328487 70.546402 -3.172059
34.502705 73.703392 -1.824459
32.307915 87.420204 -9.251736
31.980791 85.879723 -1.952825
31.831661 84.740814 1.56221
32.260311 74.632767 12.354632
31.890514 78.426666 10.583602
32.544037 76.073418 8.778028
32.732857 77.826698 5.196697
33.203629 73.990273 6.787739
33.906593 71.448586 5.263692
33.601963 70.149796 8.529138
33.916985 60.921635 14.81
34.31427 62.520214 11.654436
34.689579 58.310608 13.111275
34.514038 52.482162 17.468895
35.79937 66.962425 -1.216169
35.494114 65.947479 2.056111
32.052788 72.600029 15.810389
32.632568 70.848091 13.696326
33.242649 68.567703 12.145799
32.957657 66.808472 15.299694
33.241608 62.945156 16.740982
33.531307 59.018608 17.952675
33.803638 54.910789 19.138382
33.694511 81.315926 -9.07971
33.499916 80.586014 -5.41211
32.121979 86.902679 -5.646619
32.704193 83.408348 -3.647305
33.197815 80.081924 -1.806683
31.474987 81.909981 9.015697
31.636959 83.475601 5.331906
32.274574 81.430611 3.450373
32.997044 78.864143 1.745546
33.721203 76.445557 -0.113533
34.171696 72.804245 1.848241
34.645592 69.061966 3.506626
35.079632 65.143478 5.31889
33.960979 66.508125 10.029053
34.719131 63.827847 8.499495
35.536598 61.230743 6.772254
35.981651 56.979092 8.358863
32.020258 88.847031 -10.277029
32.408958 87.492382 -10.993203
36.348896 60.728277 3.02408
36.113625 62.64967 2.181332
36.158831 60.25441 4.512458
36.348896 60.728277 3.02408
31.492618 85.777825 2.559296
31.562612 86.385601 0.734033
34.603426 55.615559 15.310634
34.841169 56.330231 13.782883
34.451836 57.595936 14.639026
34.364065 54.681713 16.817836
34.753399 53.416008 15.961693
34.603426 55.615559 15.310634
35.72635 71.355114 -8.14772
35.4226 73.271351 -9.092495
35.301786 73.082756 -7.503497
36.031505 69.406418 -7.157611
35.72635 71.355114 -8.14772
35.857383 69.341221 -5.474981
36.031505 69.406418 -7.157611
32.194636 70.77731 16.52473
31.919401 71.684658 17.562308
32.061249 69.861939 18.276649
33.073063 62.069177 18.246193
32.942721 64.078539 17.553871
33.217912 60.105903 18.85204
33.386457 60.981882 17.346829
33.073063 62.069177 18.246193
33.337095 58.110607 19.448795
33.217912 60.105903 18.85204
33.310467 82.66647 -8.139127
33.395603 82.932541 -9.898309
33.011558 84.283085 -8.957726
31.784173 87.968208 -4.754274
31.825004 88.479607 -6.650697
33.903951 52.833179 19.761405
33.579923 53.975103 20.617037
34.612015 76.510811 -7.8032
34.732714 76.675098 -9.516692
34.346693 78.186916 -8.871621
32.215015 67.861344 18.908862
32.061249 69.861939 18.276649
32.490158 67.083256 17.802915
32.215015 67.861344 18.908862
32.702305 85.98468 -9.984322
32.408958 87.492382 -10.993203
32.617169 85.718609 -8.22514
33.011558 84.283085 -8.957726
32.702305 85.98468 -9.984322
31.637177 86.955056 -1.023485
31.713579 87.45673 -2.907376
31.906226 85.310269 -0.195307
31.637177 86.955056 -1.023485
31.562612 86.385601 0.734033
32.075412 76.529717 11.469117
31.782214 77.514759 12.448269
31.967112 75.617809 13.333784
35.103766 56.94973 12.280105
35.324078 57.669529 10.730632
34.909891 59.030407 11.561801
35.103766 56.94973 12.280105
34.841169 56.330231 13.782883
34.885677 51.261877 16.682302
34.753399 53.416008 15.961693
34.603214 50.414555 18.140813
34.885677 51.261877 16.682302
35.155035 74.924251 -10.090896
34.732714 76.675098 -9.516692
35.155035 74.924251 -10.090896
35.4226 73.271351 -9.092495
35.718858 69.031162 -3.781649
35.857383 69.341221 -5.474981
35.467012 70.85646 -4.865391
35.9543 67.239174 -2.803704
35.718858 69.031162 -3.781649
35.563929 68.754413 -2.194114
36.237294 65.322925 -1.973463
35.9543 67.239174 -2.803704
36.053572 65.013975 -0.3194
36.237294 65.322925 -1.973463
35.900944 64.506502 1.316741
36.053572 65.013975 -0.3194
35.646742 66.454952 0.419971
35.706795 64.090647 2.920702
36.113625 62.64967 2.181332
35.900944 64.506502 1.316741
31.785621 73.452309 16.83607
31.919401 71.684658 17.562308
31.863351 74.60144 15.061663
31.785621 73.452309 16.83607
32.156549 73.616398 14.082511
31.967112 75.617809 13.333784
31.863351 74.60144 15.061663
32.800745 66.010197 16.833227
32.64707 67.881531 16.269382
32.490158 67.083256 17.802915
33.099632 64.876814 16.020338
32.800745 66.010197 16.833227
32.942721 64.078539 17.553871
33.47326 56.056697 20.041649
33.667473 56.964698 18.545528
33.337095 58.110607 19.448795
33.579923 53.975103 20.617037
33.47326 56.056697 20.041649
33.78055 81.49778 -10.734279
33.395603 82.932541 -9.898309
34.080951 79.833565 -9.832411
33.78055 81.49778 -10.734279
33.960252 79.669277 -8.11892
34.346693 78.186916 -8.871621
34.080951 79.833565 -9.832411
31.917972 88.738369 -8.453255
32.020258 88.847031 -10.277029
32.214947 87.161441 -7.449177
31.917972 88.738369 -8.453255
31.825004 88.479607 -6.650697
32.051385 86.391201 -3.799722
31.784173 87.968208 -4.754274
31.713579 87.45673 -2.907376
31.593006 79.28149 11.71094
31.782214 77.514759 12.448269
31.385242 81.023147 10.926987
31.593006 79.28149 11.71094
31.68275 80.168323 9.79965
31.172966 82.758145 10.106858
31.385242 81.023147 10.926987
31.218515 83.697152 8.250577
31.172966 82.758145 10.106858
31.299501 84.479962 6.408682
31.218515 83.697152 8.250577
31.555973 82.692791 7.173801
31.395268 85.145218 4.444144
31.299501 84.479962 6.408682
31.73431 84.108207 3.447058
31.492618 85.777825 2.559296
31.395268 85.145218 4.444144
35.967392 59.752874 6.005938
36.158831 60.25441 4.512458
35.728037 61.732278 5.278774
36.189919 57.627049 6.799243
35.967392 59.752874 6.005938
35.759124 59.104917 7.565558
36.398981 55.495069 7.680581
36.189919 57.627049 6.799243
35.749802 56.283972 9.903899
35.555927 58.364649 9.185595
35.324078 57.669529 10.730632
36.172834 54.914574 9.109475
35.749802 56.283972 9.903899
36.398981 55.495069 7.680581
36.172834 54.914574 9.109475
34.259152 51.618865 18.926662
34.158838 53.696476 18.303638
33.903951 52.833179 19.761405
34.603214 50.414555 18.140813
34.259152 51.618865 18.926662
3 0 16 14
3 0 18 16
3 59 19 60
3 1 61 62
3 1 63 64
3 65 21 66
3 2 24 22
3 2 26 24
3 2 28 26
3 3 31 29
3 3 67 69
3 69 68 31
3 67 68 69
3 3 70 72
3 70 32 71
3 70 71 72
3 4 73 75
3 75 74 15
3 73 74 75
3 4 76 77
3 4 78 79
3 5 33 17
3 5 34 33
3 6 80 82
3 80 35 81
3 80 81 82
3 6 36 35
3 6 38 36
3 83 39 84
3 85 40 86
3 87 86 39
3 85 86 87
3 89 88 40
3 8 90 92
3 90 42 91
3 90 91 92
3 8 43 42
3 93 44 94
3 9 45 20
3 9 46 45
3 10 47 23
3 10 48 47
3 10 49 48
3 11 50 25
3 11 51 50
3 11 52 51
3 12 53 27
3 12 54 53
3 7 55 37
3 13 56 30
3 13 57 56
3 13 58 57
3 96 95 41
3 14 97 99
3 97 15 98
3 97 98 99
3 16 15 14
3 16 4 15
3 16 17 4
3 18 17 16
3 18 5 17
3 100 6 101
3 103 102 6
3 19 104 105
3 19 106 108
3 106 8 107
3 106 107 108
3 109 20 110
3 21 111 113
3 111 20 112
3 111 112 113
3 21 9 20
3 22 114 116
3 114 23 115
3 114 115 116
3 24 23 22
3 24 10 23
3 24 25 10
3 26 25 24
3 26 11 25
3 26 27 11
3 28 27 26
3 28 12 27
3 29 30 7
3 31 30 29
3 31 13 30
3 31 117 119
3 119 118 13
3 117 118 119
3 121 120 31
3 32 122 123
3 32 124 125
3 15 126 127
3 129 128 15
3 17 130 132
3 132 131 4
3 130 131 132
3 33 133 135
3 135 134 17
3 133 134 135
3 33 136 137
3 33 138 139
3 34 140 142
3 142 141 33
3 140 141 142
3 34 143 145
3 143 1 144
3 143 144 145
3 35 146 147
3 35 148 149
3 35 150 152
3 150 22 151
3 150 151 152
3 36 22 35
3 36 2 22
3 36 37 2
3 38 37 36
3 38 7 37
3 153 38 154
3 155 154 6
3 153 154 155
3 39 156 158
3 156 38 157
3 156 157 158
3 39 7 38
3 39 29 7
3 40 29 39
3 40 3 29
3 40 41 3
3 159 41 160
3 161 160 40
3 159 160 161
3 163 162 41
3 42 164 165
3 42 166 167
3 42 168 170
3 168 14 169
3 168 169 170
3 43 14 42
3 43 0 14
3 171 19 172
3 44 173 175
3 173 19 174
3 173 174 175
3 44 8 19
3 20 176 178
3 176 44 177
3 176 177 178
3 45 44 20
3 45 8 44
3 45 43 8
3 46 43 45
3 46 0 43
3 23 179 180
3 47 181 183
3 183 182 23
3 181 182 183
3 47 184 185
3 47 186 187
3 48 188 190
3 190 189 47
3 188 189 190
3 48 191 192
3 48 193 195
3 193 21 194
3 193 194 195
3 49 21 48
3 49 9 21
3 25 49 10
3 50 49 25
3 50 9 49
3 50 46 9
3 51 46 50
3 51 0 46
3 51 18 0
3 52 18 51
3 52 5 18
3 27 52 11
3 53 52 27
3 53 5 52
3 53 34 5
3 54 34 53
3 54 1 34
3 37 28 2
3 55 28 37
3 55 12 28
3 30 55 7
3 56 55 30
3 56 12 55
3 56 54 12
3 57 54 56
3 57 1 54
3 57 196 198
3 198 197 1
3 196 197 198
3 58 199 201
3 201 200 57
3 199 200 201
3 58 202 203
3 204 58 205
3 206 205 13
3 204 205 206
3 207 58 208
3 210 209 58
3 41 32 3
3 211 32 212
3 213 212 41
3 211 212 213
3 215 214 32
