ply
format ascii 1.0
element vertex 284
property float x
property float y
property float z
element face 282
property list uchar int vertex_index
end_header
18.294693 -79.099602 -34.138062
28.818604 -64.21405 -23.774693
23.351063 -66.266602 -40.207859
16.919661 -84.011948 -17.351959
22.104193 -76.273903 -25.493099
27.310711 -65.971901 -32.64283
26.161314 -68.709404 -19.651012
20.525904 -77.855659 -29.94315
24.612293 -71.583359 -29.260714
23.051771 -72.491745 -33.439953
20.89072 -72.819649 -37.405621
18.223669 -72.564224 -40.608006
20.627153 -78.05249 -16.474716
22.983088 -74.669159 -20.450842
19.525682 -80.417 -21.332428
17.835657 -82.692017 -26.305971
15.772902 -84.417488 -30.613451
14.503583 -86.599838 -12.908927
25.678474 -70.236252 -24.562843
28.381254 -65.161041 -28.466724
25.675638 -66.314034 -36.640617
25.020105 -70.415031 -17.520441
19.440319 -78.63829 -32.049412
21.697147 -75.344818 -31.857836
20.720789 -75.858078 -33.741543
18.801405 -81.066231 -16.817284
20.007652 -79.436417 -18.852571
18.137707 -82.432999 -19.538263
16.667393 -84.593636 -24.408291
15.558591 -85.850563 -26.61834
16.838875 -83.615372 -28.649744
22.632225 -75.46788 -23.09421
24.386555 -72.422211 -22.435818
23.962822 -73.224174 -24.981594
26.019854 -68.759766 -30.991749
26.555178 -68.389397 -28.781849
27.933546 -65.568123 -30.609177
29.669582 -62.488285 -30.12262
22.131191 -69.608421 -38.824654
23.457764 -69.416603 -37.023201
24.700874 -66.093849 -38.592308
27.585575 -65.736107 -19.255476
27.512278 -66.462296 -21.622158
15.035872 -86.747894 -17.827045
16.166517 -85.351723 -19.893585
21.216982 -77.353386 -27.787317
23.293398 -74.115013 -27.414692
22.627337 -74.680618 -29.676561
23.922586 -72.077438 -31.328295
25.260424 -69.219391 -33.002384
19.596809 -76.135895 -35.698902
18.401325 -76.066238 -37.588867
19.596748 -72.76506 -39.125645
20.896448 -69.208794 -40.546619
16.507362 -72.452957 -41.924126
19.383648 -68.94989 -42.006378
22.121918 -65.613342 -41.906467
23.433336 -73.456734 -17.896551
21.846567 -76.330986 -18.426727
21.317543 -77.527519 -20.962931
20.743635 -78.544395 -23.349962
17.518753 -83.462769 -21.999548
18.837978 -81.465019 -23.847012
20.022552 -79.515762 -25.745384
19.11277 -80.487709 -28.066036
18.222921 -81.14093 -30.273985
17.057547 -81.844757 -32.392143
19.332655 -79.730499 -14.191824
17.603743 -82.57151 -14.824482
16.406734 -83.83918 -12.380869
15.737069 -85.343613 -15.03654
13.793812 -88.065125 -15.511607
24.622719 -71.674568 -19.925697
25.909058 -69.628242 -22.112616
27.329134 -67.171562 -24.081055
25.2113 -70.961082 -26.980335
26.960142 -67.912994 -26.504644
28.639805 -64.779701 -26.185272
29.96419 -62.160965 -27.965006
21.942652 -72.878937 -35.506855
24.333321 -69.57679 -35.00774
26.51232 -66.303528 -34.662838
24.36768 -71.391468 -16.497545
25.069199 -69.962986 -16.25325
29.512562 -62.694038 -23.550993
28.866893 -63.860798 -22.578088
29.454451 -63.022011 -24.728512
29.512562 -62.694038 -23.550993
14.373423 -87.394936 -26.738579
15.020884 -86.725696 -25.582561
15.0135 -86.330536 -27.666638
14.373423 -87.394936 -26.738579
28.260915 -64.363928 -32.469195
28.572333 -64.162039 -31.452368
27.622129 -65.770012 -31.626003
26.873444 -67.222756 -19.453244
26.973551 -66.705216 -18.239437
26.261421 -68.191864 -18.437205
14.5311 -87.524406 -19.013939
13.961018 -88.172165 -17.901205
17.063035 -77.667133 -37.698442
17.737848 -77.674976 -36.825876
18.910209 -72.664642 -39.866826
18.280971 -74.433819 -39.147972
17.594431 -74.3334 -39.889153
15.788902 -72.113922 -42.489123
15.229941 -73.911225 -41.866064
20.02328 -67.079208 -42.637375
18.608477 -68.727371 -42.628082
21.392415 -65.410934 -42.587419
20.752783 -67.281616 -41.956423
20.02328 -67.079208 -42.637375
22.636429 -63.767182 -42.633703
21.392415 -65.410934 -42.587419
21.23686 -77.191738 -17.450722
21.996195 -75.809784 -17.068017
21.386488 -76.670536 -16.092012
16.493939 -84.92234 -22.121317
16.842635 -84.407246 -20.946567
15.817821 -85.866817 -21.068336
18.730746 -80.454086 -13.13286
19.539008 -79.073101 -12.813417
17.86629 -81.874592 -13.449189
18.468199 -81.151004 -14.508153
18.730746 -80.454086 -13.13286
15.455158 -85.219509 -12.644898
15.835335 -84.377667 -11.294123
14.88376 -85.757995 -11.558152
30.453661 -60.949491 -30.020246
30.291863 -61.046667 -31.112267
25.690817 -69.044678 -17.37192
25.069199 -69.962986 -16.25325
25.59071 -69.562218 -18.585726
26.261421 -68.191864 -18.437205
25.690817 -69.044678 -17.37192
16.892654 -74.210483 -40.565252
17.594431 -74.3334 -39.889153
15.575285 -86.097233 -24.477536
16.068259 -85.487774 -23.325688
16.112992 -85.222099 -25.513315
15.575285 -86.097233 -24.477536
15.020884 -86.725696 -25.582561
15.653642 -85.212941 -28.682339
16.198733 -84.732968 -27.634042
15.0135 -86.330536 -27.666638
15.120655 -85.613999 -29.664193
16.305889 -84.01643 -29.631597
15.653642 -85.212941 -28.682339
13.938134 -87.073799 -11.852415
14.88376 -85.757995 -11.558152
13.468899 -87.970104 -13.10931
13.938134 -87.073799 -11.852415
29.440351 -62.62212 -31.209089
28.801564 -64.028204 -30.365899
28.572333 -64.162039 -31.452368
30.291863 -61.046667 -31.112267
29.440351 -62.62212 -31.209089
27.584901 -65.352631 -18.066728
26.973551 -66.705216 -18.239437
28.187957 -64.37332 -19.088133
27.584901 -65.352631 -18.066728
28.250379 -64.621826 -20.31848
28.187957 -64.37332 -19.088133
28.21373 -64.984921 -21.501821
28.250379 -64.621826 -20.31848
27.548927 -66.099201 -20.438817
28.165441 -65.338173 -22.698425
28.866893 -63.860798 -22.578088
28.21373 -64.984921 -21.501821
15.096422 -86.826321 -20.04721
15.601194 -86.049809 -18.860315
14.5311 -87.524406 -19.013939
15.817821 -85.866817 -21.068336
15.096422 -86.826321 -20.04721
24.552271 -64.492213 -40.224085
23.915014 -64.389346 -41.0173
18.33559 -77.709805 -35.880893
18.945751 -77.617749 -34.918482
17.684532 -79.191658 -35.100473
18.999067 -76.101067 -36.643884
18.33559 -77.709805 -35.880893
17.737848 -77.674976 -36.825876
17.683259 -76.084407 -38.379583
17.063035 -77.667133 -37.698442
18.999037 -74.415649 -38.357256
17.683259 -76.084407 -38.379583
18.280971 -74.433819 -39.147972
16.0345 -74.15485 -41.223313
15.229941 -73.911225 -41.866064
17.365516 -72.50859 -41.266066
16.892654 -74.210483 -40.565252
16.0345 -74.15485 -41.223313
17.170333 -70.478904 -42.586956
15.788902 -72.113922 -42.489123
17.945505 -70.701424 -41.965252
17.170333 -70.478904 -42.586956
18.608477 -68.727371 -42.628082
23.300441 -64.062715 -41.866603
23.915014 -64.389346 -41.0173
22.736491 -65.939972 -41.057163
23.300441 -64.062715 -41.866603
22.636429 -63.767182 -42.633703
22.78958 -74.372658 -16.802929
23.574296 -72.912319 -16.685599
22.639952 -74.89386 -18.161639
22.78958 -74.372658 -16.802929
21.996195 -75.809784 -17.068017
17.093073 -84.028202 -23.203919
16.493939 -84.92234 -22.121317
16.068259 -85.487774 -23.325688
14.590477 -85.87849 -30.769932
15.120655 -85.613999 -29.664193
15.208879 -84.662624 -31.626101
14.590477 -85.87849 -30.769932
15.851202 -83.376259 -32.515447
16.415225 -83.131123 -31.502797
15.208879 -84.662624 -31.626101
16.415852 -82.076938 -33.399494
15.851202 -83.376259 -32.515447
17.034425 -80.704361 -34.272453
17.67612 -80.47218 -33.265102
16.415852 -82.076938 -33.399494
17.684532 -79.191658 -35.100473
17.034425 -80.704361 -34.272453
20.754084 -77.538822 -15.067294
21.386488 -76.670536 -16.092012
20.106835 -78.377826 -13.925849
19.539008 -79.073101 -12.813417
19.979904 -78.891494 -15.33327
20.754084 -77.538822 -15.067294
20.106835 -78.377826 -13.925849
16.740372 -83.036579 -11.097036
15.835335 -84.377667 -11.294123
17.267786 -82.508426 -12.227383
16.740372 -83.036579 -11.097036
17.005239 -83.205345 -13.602676
17.86629 -81.874592 -13.449189
17.267786 -82.508426 -12.227383
13.339988 -88.830781 -16.743486
13.961018 -88.172165 -17.901205
14.414842 -87.406509 -16.669326
13.114014 -88.702747 -14.41065
14.148698 -87.332482 -14.210267
13.468899 -87.970104 -13.10931
12.765862 -89.393063 -15.716487
13.114014 -88.702747 -14.41065
13.339988 -88.830781 -16.743486
12.765862 -89.393063 -15.716487
24.22672 -71.935882 -17.708496
24.36768 -71.391468 -16.497545
23.574296 -72.912319 -16.685599
29.365051 -63.304836 -25.933802
29.454451 -63.022011 -24.728512
28.729205 -64.496876 -24.979982
30.027244 -61.995468 -26.823669
29.365051 -63.304836 -25.933802
29.301997 -63.470333 -27.075139
30.725307 -60.565815 -27.809674
30.027244 -61.995468 -26.823669
30.600966 -60.785832 -28.94144
29.816886 -62.324625 -29.043813
30.453661 -60.949491 -30.020246
30.725307 -60.565815 -27.809674
30.600966 -60.785832 -28.94144
25.227176 -64.405836 -39.416309
24.025968 -66.180226 -39.400084
24.552271 -64.492213 -40.224085
25.787487 -64.543556 -38.456631
25.227176 -64.405836 -39.416309
26.274869 -64.653649 -37.480785
25.188256 -66.203942 -37.616462
25.787487 -64.543556 -38.456631
26.724702 -64.723702 -36.498193
26.274869 -64.653649 -37.480785
27.143043 -64.718448 -35.509304
26.093979 -66.308781 -35.651727
26.724702 -64.723702 -36.498193
27.501165 -64.721657 -34.51157
27.143043 -64.718448 -35.509304
27.90036 -64.555844 -33.501566
26.911516 -66.137715 -33.652834
27.501165 -64.721657 -34.51157
28.260915 -64.363928 -32.469195
27.90036 -64.555844 -33.501566
3 82 21 83
3 0 24 22
3 1 84 85
3 1 86 87
3 3 27 25
3 88 29 89
3 91 90 29
3 4 33 31
3 5 36 34
3 5 92 94
3 94 93 36
3 92 93 94
3 2 40 38
3 6 95 97
3 95 41 96
3 95 96 97
3 6 42 41
3 99 98 43
3 7 47 45
3 9 48 23
3 9 49 48
3 100 51 101
3 11 102 104
3 102 52 103
3 102 103 104
3 11 53 52
3 105 54 106
3 107 55 108
3 109 56 110
3 111 110 55
3 109 110 111
3 113 112 56
3 12 114 116
3 114 58 115
3 114 115 116
3 14 59 26
3 14 60 59
3 117 61 118
3 119 118 44
3 117 118 119
3 15 62 28
3 15 63 62
3 15 64 63
3 16 65 30
3 16 66 65
3 120 67 121
3 122 68 123
3 124 123 67
3 122 123 124
3 17 125 127
3 125 69 126
3 125 126 127
3 17 70 69
3 17 71 70
3 13 72 57
3 18 73 32
3 18 74 73
3 8 75 46
3 19 76 35
3 19 77 76
3 19 78 77
3 129 128 37
3 10 79 50
3 20 80 39
3 20 81 80
3 21 130 131
3 21 132 134
3 132 6 133
3 132 133 134
3 22 23 7
3 24 23 22
3 24 9 23
3 135 11 136
3 25 26 12
3 27 26 25
3 27 14 26
3 137 28 138
3 29 139 141
3 139 28 140
3 139 140 141
3 29 15 28
3 29 30 15
3 142 30 143
3 144 143 29
3 142 143 144
3 145 16 146
3 147 146 30
3 145 146 147
3 148 17 149
3 151 150 17
3 31 32 13
3 33 32 31
3 33 18 32
3 34 35 8
3 36 35 34
3 36 19 35
3 36 37 19
3 152 37 153
3 154 153 36
3 152 153 154
3 156 155 37
3 38 39 10
3 40 39 38
3 40 20 39
3 41 157 158
3 41 159 160
3 41 161 162
3 42 163 165
3 165 164 41
3 163 164 165
3 42 166 168
3 166 1 167
3 166 167 168
3 43 44 3
3 169 44 170
3 171 170 43
3 169 170 171
3 173 172 44
3 45 46 4
3 47 46 45
3 47 8 46
3 23 47 7
3 48 47 23
3 48 8 47
3 48 34 8
3 49 34 48
3 49 5 34
3 175 174 2
3 176 50 177
3 178 177 0
3 176 177 178
3 51 179 181
3 179 50 180
3 179 180 181
3 51 10 50
3 182 51 183
3 52 184 186
3 184 51 185
3 184 185 186
3 52 10 51
3 52 38 10
3 53 38 52
3 53 2 38
3 54 187 188
3 54 189 191
3 189 11 190
3 189 190 191
3 192 54 193
3 55 194 196
3 194 54 195
3 194 195 196
3 55 11 54
3 55 53 11
3 56 53 55
3 56 2 53
3 56 197 199
3 199 198 2
3 197 198 199
3 201 200 56
3 202 57 203
3 58 204 206
3 204 57 205
3 204 205 206
3 58 13 57
3 26 58 12
3 59 58 26
3 59 13 58
3 59 31 13
3 60 31 59
3 60 4 31
3 44 27 3
3 61 27 44
3 61 14 27
3 28 207 209
3 207 61 208
3 207 208 209
3 62 61 28
3 62 14 61
3 62 60 14
3 63 60 62
3 63 4 60
3 63 45 4
3 64 45 63
3 64 7 45
3 30 64 15
3 65 64 30
3 65 7 64
3 65 22 7
3 66 22 65
3 66 0 22
3 210 16 211
3 212 16 213
3 214 66 215
3 216 215 16
3 214 215 216
3 217 66 218
3 219 0 220
3 221 220 66
3 219 220 221
3 223 222 0
3 224 12 225
3 67 226 227
3 67 228 230
3 228 12 229
3 228 229 230
3 67 25 12
3 68 25 67
3 68 3 25
3 69 231 232
3 69 233 234
3 69 235 237
3 235 68 236
3 235 236 237
3 70 68 69
3 70 3 68
3 70 43 3
3 71 43 70
3 71 238 240
3 240 239 43
3 238 239 240
3 241 71 242
3 243 242 17
3 241 242 243
3 244 71 245
3 247 246 71
3 57 248 250
3 248 21 249
3 248 249 250
3 72 21 57
3 72 6 21
3 32 72 13
3 73 72 32
3 73 6 72
3 73 42 6
3 74 42 73
3 74 1 42
3 46 33 4
3 75 33 46
3 75 18 33
3 35 75 8
3 76 75 35
3 76 18 75
3 76 74 18
3 77 74 76
3 77 1 74
3 77 251 253
3 253 252 1
3 251 252 253
3 78 254 256
3 256 255 77
3 254 255 256
3 78 257 258
3 37 78 19
3 259 78 260
3 261 260 37
3 259 260 261
3 263 262 78
3 50 24 0
3 79 24 50
3 79 9 24
3 39 79 10
3 80 79 39
3 80 9 79
3 80 49 9
3 81 49 80
3 81 5 49
3 264 40 265
3 266 265 2
3 264 265 266
3 267 40 268
3 269 20 270
3 271 270 40
3 269 270 271
3 272 20 273
3 274 81 275
3 276 275 20
3 274 275 276
3 277 81 278
3 279 5 280
3 281 280 81
3 279 280 281
3 283 282 5
