ply
format ascii 1.0
element vertex 235
property float x
property float y
property float z
element face 221
property list uchar int vertex_index
end_header
39.5797 -25.612141 -44.669739
37.065498 -21.950941 -52.438225
37.606419 -40.244068 -38.296574
39.961639 -17.78157 -47.515701
38.83165 -15.906879 -51.750401
38.677418 -23.707695 -48.72784
37.616055 -41.245693 -34.191025
38.523846 -7.824811 -54.611595
37.040668 -13.404509 -55.751751
39.879856 -27.247772 -40.531132
38.493286 -35.994282 -33.140953
38.932564 -34.645615 -37.337467
38.788998 -33.248566 -41.484043
38.031841 -31.474669 -45.590549
40.053471 -22.965076 -43.953007
40.21862 -19.304037 -45.34705
39.832397 -21.720409 -46.074406
39.455429 -20.599991 -48.132099
39.242729 -24.457029 -46.750683
39.251904 -8.830779 -52.581474
38.081738 -18.644064 -52.233353
38.076599 -14.467805 -53.767605
37.185268 -17.595953 -54.069225
36.131088 -16.393431 -55.862682
36.025879 -20.738588 -54.26413
39.77721 -28.442705 -38.358952
37.67157 -40.824638 -36.234497
38.313168 -38.066277 -35.727001
38.37151 -37.424889 -37.745716
38.936241 -33.967625 -39.420464
38.207458 -37.01524 -39.839569
39.937626 -13.975526 -49.025154
39.416729 -12.860793 -51.182663
39.487328 -16.716003 -49.703609
38.892719 -19.802931 -50.077648
37.969826 -22.592335 -50.717686
37.436039 -41.553074 -32.043888
36.800751 -44.383057 -32.327553
36.835262 -44.274315 -34.409672
36.815907 -43.716702 -36.627182
37.570992 -6.553785 -56.727051
38.759483 -11.710772 -53.205364
37.861423 -10.712534 -55.261074
36.842754 -9.472034 -57.187603
40.170311 -23.771093 -41.873409
39.791176 -26.537354 -42.595753
38.166042 -38.452343 -33.748096
38.764126 -35.395012 -35.188435
39.323315 -31.934965 -36.733391
39.466656 -30.962809 -38.920517
39.411461 -30.325216 -41.036995
39.275185 -29.318251 -43.065926
37.285656 -39.937473 -40.295113
37.939438 -36.257698 -41.918343
38.519993 -32.302982 -43.541977
38.928562 -28.601706 -45.063248
38.473301 -27.510746 -47.085163
37.737972 -26.781799 -49.036591
39.52964 -9.431907 -51.537577
39.421559 -7.516414 -52.171412
39.695932 -28.724815 -37.344296
39.8731 -27.14474 -37.983429
40.131186 -16.505039 -47.12809
40.259676 -17.266272 -46.043765
40.09013 -18.542803 -46.431376
39.949632 -15.878548 -48.270427
40.119179 -14.602017 -47.882817
40.131186 -16.505039 -47.12809
36.300444 -46.04965 -31.453795
36.6782 -44.555502 -31.253686
36.381811 -45.665008 -34.657769
36.378079 -45.867458 -33.604679
36.372134 -45.386202 -35.766523
36.825585 -43.995508 -35.518427
36.381811 -45.665008 -34.657769
38.313647 -5.852448 -55.363453
38.524536 -4.379618 -55.040818
38.734735 -6.351982 -54.28896
38.047419 -7.189298 -55.669323
37.83722 -5.216935 -56.421181
38.313647 -5.852448 -55.363453
36.497047 -12.801611 -56.632166
36.39809 -10.835373 -57.350092
36.941711 -11.438271 -56.469677
34.849342 -17.408171 -56.771166
35.486084 -15.888037 -56.70944
35.494346 -17.913564 -55.924408
40.025083 -25.509433 -41.20227
40.143968 -24.380178 -40.768694
39.998741 -26.118518 -40.097555
38.629257 -34.616522 -32.922041
38.334551 -36.126717 -32.164299
38.798237 -34.27218 -33.940382
38.629257 -34.616522 -32.922041
37.060663 -39.572187 -41.370738
36.707434 -41.436723 -40.492657
37.387554 -37.7323 -42.182353
37.612547 -38.097585 -41.106728
37.060663 -39.572187 -41.370738
38.275917 -31.888825 -44.566263
38.024546 -33.837774 -43.734533
37.78047 -33.423617 -44.75882
37.125631 -28.322242 -49.188591
37.550199 -28.781473 -48.240929
37.330263 -26.315576 -49.929142
37.125631 -28.322242 -49.188591
40.136046 -21.134557 -44.650029
40.294125 -19.739618 -44.324428
40.21155 -21.570138 -43.627407
39.098765 -6.854966 -53.273899
39.421559 -7.516414 -52.171412
38.887875 -8.327795 -53.596535
38.734735 -6.351982 -54.28896
39.098765 -6.854966 -53.273899
35.441742 -20.086143 -55.125132
35.494346 -17.913564 -55.924408
36.078484 -18.566009 -55.063406
39.947418 -26.715984 -39.011465
39.8731 -27.14474 -37.983429
39.828533 -27.845239 -39.445042
39.998741 -26.118518 -40.097555
39.947418 -26.715984 -39.011465
38.171043 -37.476345 -32.342681
38.334551 -36.126717 -32.164299
38.012309 -37.608779 -31.366027
37.470157 -33.051693 -45.713476
37.78047 -33.423617 -44.75882
37.697134 -31.127908 -46.517908
37.470157 -33.051693 -45.713476
40.349957 -17.901815 -44.973337
40.294125 -19.739618 -44.324428
40.349957 -17.901815 -44.973337
40.259676 -17.266272 -46.043765
40.084349 -12.662005 -48.622145
40.119179 -14.602017 -47.882817
39.872501 -12.004281 -49.759417
40.084349 -12.662005 -48.622145
39.677177 -13.418159 -50.103909
39.612053 -11.446914 -50.838171
39.872501 -12.004281 -49.759417
36.995844 -43.140511 -31.111854
37.273573 -41.696966 -30.928202
37.118395 -42.968066 -32.185721
36.995844 -43.140511 -31.111854
36.6782 -44.555502 -31.253686
36.360823 -45.92183 -32.56362
36.300444 -46.04965 -31.453795
36.818006 -44.328686 -33.368612
36.360823 -45.92183 -32.56362
36.378079 -45.867458 -33.604679
37.320517 -4.419869 -57.497656
37.83722 -5.216935 -56.421181
37.009957 -5.905158 -57.730992
37.320517 -4.419869 -57.497656
39.334316 -10.845786 -51.882069
39.52964 -9.431907 -51.537577
39.612053 -11.446914 -50.838171
36.645837 -7.364282 -57.961268
37.009957 -5.905158 -57.730992
37.206873 -8.01291 -56.957327
36.234518 -8.831533 -58.129462
36.037602 -6.723781 -58.903126
36.645837 -7.364282 -57.961268
36.234518 -8.831533 -58.129462
36.39809 -10.835373 -57.350092
36.042257 -14.296072 -56.687631
36.497047 -12.801611 -56.632166
36.585878 -14.89897 -55.807216
36.042257 -14.296072 -56.687631
35.486084 -15.888037 -56.70944
40.277962 -22.467389 -41.540472
40.143968 -24.380178 -40.768694
40.26997 -21.973146 -42.587608
40.277962 -22.467389 -41.540472
40.111891 -23.368085 -42.913208
40.21155 -21.570138 -43.627407
40.26997 -21.973146 -42.587608
37.64242 -40.255741 -31.794149
37.273573 -41.696966 -30.928202
38.007421 -38.705376 -32.646253
37.64242 -40.255741 -31.794149
37.80104 -40.002708 -32.895992
38.329664 -37.223312 -33.444524
38.171043 -37.476345 -32.342681
38.007421 -38.705376 -32.646253
38.933657 -33.972545 -34.964123
38.798237 -34.27218 -33.940382
38.628706 -35.694647 -34.164694
39.213251 -32.242522 -35.736601
38.933657 -33.972545 -34.964123
39.04372 -33.664988 -35.960913
39.468985 -30.470945 -36.531515
39.213251 -32.242522 -35.736601
39.550263 -30.188835 -37.546171
39.695932 -28.724815 -37.344296
39.468985 -30.470945 -36.531515
36.226813 -45.342263 -36.819521
36.372134 -45.386202 -35.766523
36.691168 -43.572648 -37.596905
36.226813 -45.342263 -36.819521
36.102074 -45.198208 -37.789244
37.086424 -41.836331 -38.431601
37.211163 -41.980385 -37.461878
36.691168 -43.572648 -37.596905
36.926043 -41.683033 -39.43087
36.707434 -41.436723 -40.492657
37.446038 -40.09077 -39.295844
37.086424 -41.836331 -38.431601
36.926043 -41.683033 -39.43087
37.734268 -35.815132 -42.922716
37.387554 -37.7323 -42.182353
38.229715 -34.28034 -42.73016
37.734268 -35.815132 -42.922716
38.024546 -33.837774 -43.734533
37.917864 -29.145947 -47.265215
38.252571 -29.492708 -46.337856
37.697134 -31.127908 -46.517908
38.105637 -27.146273 -48.060877
37.917864 -29.145947 -47.265215
37.550199 -28.781473 -48.240929
37.44619 -24.220844 -50.769689
37.853899 -24.687067 -49.877139
37.330263 -26.315576 -49.929142
36.994026 -23.900148 -51.629959
37.517662 -22.271638 -51.577956
37.44619 -24.220844 -50.769689
36.449079 -23.427295 -52.543579
36.994026 -23.900148 -51.629959
35.92927 -22.821118 -53.456531
36.545688 -21.344765 -53.351178
36.449079 -23.427295 -52.543579
35.346497 -22.230585 -54.314072
35.92927 -22.821118 -53.456531
35.441742 -20.086143 -55.125132
35.346497 -22.230585 -54.314072
3 0 16 14
3 0 18 16
3 58 19 59
3 1 22 20
3 1 24 22
3 60 25 61
3 2 28 26
3 2 30 28
3 3 62 64
3 64 63 15
3 62 63 64
3 3 65 67
3 65 31 66
3 65 66 67
3 3 33 31
3 5 34 17
3 5 35 34
3 68 37 69
3 70 38 71
3 72 39 73
3 74 73 38
3 72 73 74
3 7 75 77
3 75 76 77
3 7 78 80
3 78 40 79
3 78 79 80
3 4 41 32
3 8 42 21
3 8 43 42
3 8 81 83
3 83 82 43
3 81 82 83
3 86 85 23
3 84 85 86
3 9 87 89
3 87 44 88
3 87 88 89
3 9 45 44
3 10 90 91
3 10 92 93
3 6 46 36
3 11 47 27
3 11 48 47
3 11 49 48
3 12 50 29
3 12 51 50
3 94 52 95
3 96 53 97
3 98 97 52
3 96 97 98
3 13 99 101
3 99 54 100
3 99 100 101
3 13 55 54
3 13 56 55
3 102 57 103
3 105 104 57
3 14 106 108
3 106 15 107
3 106 107 108
3 16 15 14
3 16 3 15
3 16 17 3
3 18 17 16
3 18 5 17
3 19 109 110
3 19 111 113
3 111 7 112
3 111 112 113
3 20 21 4
3 22 21 20
3 22 8 21
3 22 23 8
3 24 23 22
3 24 114 116
3 116 115 23
3 114 115 116
3 25 117 118
3 25 119 121
3 119 9 120
3 119 120 121
3 122 10 123
3 122 123 124
3 26 27 6
3 28 27 26
3 28 11 27
3 28 29 11
3 30 29 28
3 30 12 29
3 125 13 126
3 128 127 13
3 15 129 130
3 132 131 15
3 31 133 134
3 31 135 136
3 31 137 139
3 137 32 138
3 137 138 139
3 33 32 31
3 33 4 32
3 17 33 3
3 34 33 17
3 34 4 33
3 34 20 4
3 35 20 34
3 35 1 20
3 140 36 141
3 37 142 144
3 142 36 143
3 142 143 144
3 37 6 36
3 145 37 146
3 38 147 149
3 147 37 148
3 147 148 149
3 38 6 37
3 38 26 6
3 39 26 38
3 39 2 26
3 40 150 151
3 40 152 153
3 32 154 156
3 154 19 155
3 154 155 156
3 41 19 32
3 41 7 19
3 21 41 4
3 42 41 21
3 42 7 41
3 42 40 7
3 43 40 42
3 43 157 159
3 159 158 40
3 157 158 159
3 43 160 162
3 160 161 162
3 164 163 43
3 23 165 167
3 167 166 8
3 165 166 167
3 169 168 23
3 44 170 171
3 44 172 173
3 44 174 176
3 174 14 175
3 174 175 176
3 45 14 44
3 45 0 14
3 36 177 178
3 46 179 181
3 181 180 36
3 179 180 181
3 46 182 184
3 182 10 183
3 182 183 184
3 27 46 6
3 47 46 27
3 47 10 46
3 47 185 187
3 187 186 10
3 185 186 187
3 48 188 190
3 190 189 47
3 188 189 190
3 48 191 192
3 48 193 195
3 193 25 194
3 193 194 195
3 49 25 48
3 49 9 25
3 29 49 11
3 50 49 29
3 50 9 49
3 50 45 9
3 51 45 50
3 51 0 45
3 196 39 197
3 198 39 199
3 198 199 200
3 201 2 202
3 203 202 39
3 201 202 203
3 52 204 205
3 52 206 208
3 206 2 207
3 206 207 208
3 52 30 2
3 53 30 52
3 53 12 30
3 209 53 210
3 54 211 213
3 211 53 212
3 211 212 213
3 54 12 53
3 54 51 12
3 55 51 54
3 55 0 51
3 55 18 0
3 56 18 55
3 56 5 18
3 214 56 215
3 216 215 13
3 214 215 216
3 57 217 219
3 217 56 218
3 217 218 219
3 57 5 56
3 57 35 5
3 220 35 221
3 222 221 57
3 220 221 222
3 223 1 224
3 225 224 35
3 223 224 225
3 226 1 227
3 228 24 229
3 230 229 1
3 228 229 230
3 231 24 232
3 234 233 24
