ply
format ascii 1.0
element vertex 244
property float x
property float y
property float z
element face 237
property list uchar int vertex_index
end_header
35.251774 74.728706 -29.485252
34.891945 78.149864 -17.150377
37.730816 56.991535 -31.88072
31.906696 90.640808 -18.394314
36.657757 66.092178 -30.737013
38.014523 60.375942 -26.90686
36.687061 69.010109 -25.347551
34.467392 78.351204 -10.585112
36.09425 71.548927 -13.021619
35.054012 71.127975 -34.803547
36.178795 62.327629 -35.637371
33.677296 82.797043 -27.553072
35.20657 76.87793 -23.473619
33.604973 84.124329 -21.292713
33.304699 84.646027 -14.40182
36.515285 70.676376 -19.415249
36.937683 52.896965 -36.164242
35.98859 70.364426 -30.241577
36.744541 67.438286 -28.197266
36.032642 71.723618 -27.423742
34.508133 77.079956 -31.546761
35.182793 73.091354 -32.31126
35.860332 68.717712 -32.906887
32.858891 86.352684 -26.534008
33.652386 83.651932 -24.466658
32.831413 87.102814 -23.143023
31.851446 90.502861 -14.825294
32.642452 87.72699 -16.465326
32.510002 87.56456 -12.73467
33.096695 84.549156 -10.716907
38.118553 52.598324 -32.232391
35.079475 77.589317 -20.325422
35.910515 73.657623 -21.533669
35.692108 74.595032 -18.485397
36.957729 59.846523 -33.8386
36.641998 57.445164 -35.928757
37.414169 55.164314 -34.056297
37.685104 50.711281 -34.404972
32.038017 90.117867 -21.732052
37.252731 61.46109 -31.396265
37.963135 58.623947 -29.369631
37.386333 63.090336 -28.881775
37.367191 64.879997 -26.134258
34.65992 78.539909 -13.948483
35.515148 74.864128 -15.097593
35.312035 74.84951 -11.733521
35.847164 71.543709 -9.736718
34.817635 69.180954 -36.957321
35.321682 64.503387 -37.514629
35.674328 66.62825 -35.293503
36.500786 64.280174 -33.22192
34.469872 78.879616 -28.709417
35.23978 76.041801 -26.611242
34.461525 79.910599 -25.738579
34.436264 80.480591 -22.52887
34.282665 81.144852 -19.357969
32.763779 87.517197 -19.810713
33.498737 84.420387 -17.987503
34.109486 81.456238 -15.903296
33.866589 81.679634 -12.388849
35.945286 73.081223 -24.66501
36.615986 70.045616 -22.4195
36.358719 71.071007 -16.31179
35.780922 59.815563 -37.750633
36.156891 55.028019 -37.821484
36.325054 50.438694 -37.937187
37.171982 48.440914 -36.148109
32.416416 88.40588 -24.207572
32.845152 86.727749 -24.838515
32.430155 88.030815 -25.903064
32.121302 88.919208 -12.018496
32.180724 89.03371 -13.779982
31.792023 90.388359 -13.063808
32.408958 87.492382 -10.993203
32.121302 88.919208 -12.018496
32.430155 88.030815 -25.903064
32.421002 87.574658 -27.5096
38.069013 55.593712 -30.914428
38.262882 53.397106 -31.090263
37.924684 54.794929 -32.056556
37.011555 67.508461 -24.326636
37.351619 65.443405 -24.719989
37.027126 66.945053 -25.740904
35.72635 71.355114 -8.14772
35.4226 73.271351 -9.092495
36.152319 69.595013 -8.746609
35.72635 71.355114 -8.14772
34.59018 72.356777 -35.74334
34.709432 73.302658 -34.504148
34.935823 70.154465 -35.880434
34.471991 71.383266 -36.820227
34.59018 72.356777 -35.74334
33.395603 82.932541 -9.898309
33.011558 84.283085 -8.957726
33.70805 81.978893 -29.082093
33.276411 83.949883 -28.649512
34.073584 80.83833 -28.131245
34.104338 80.02018 -29.660265
33.70805 81.978893 -29.082093
38.301071 58.009029 -27.211585
38.275378 57.133032 -28.442971
37.988829 59.499944 -28.138246
36.882528 68.779495 -19.935105
36.932879 68.464115 -21.43723
36.565635 70.360996 -20.917375
37.80829 48.483875 -34.400465
38.018337 49.615965 -33.522638
34.732714 76.675098 -9.516692
34.346693 78.186916 -8.871621
34.436493 76.278649 -32.875755
34.094046 78.284695 -32.448967
34.773823 74.284347 -33.258005
34.436493 76.278649 -32.875755
34.845463 75.085655 -31.92901
35.118403 72.109665 -33.557403
34.709432 73.302658 -34.504148
34.773823 74.284347 -33.258005
32.702305 85.98468 -9.984322
32.803348 86.056858 -11.725789
32.408958 87.492382 -10.993203
33.011558 84.283085 -8.957726
32.702305 85.98468 -9.984322
32.867209 85.727703 -28.13998
32.421002 87.574658 -27.5096
33.268093 84.574863 -27.04354
33.276411 83.949883 -28.649512
32.867209 85.727703 -28.13998
38.415701 51.263416 -31.387738
38.235062 50.559486 -32.436348
38.415701 51.263416 -31.387738
38.262882 53.397106 -31.090263
38.330282 58.71109 -26.012761
38.036776 60.930395 -25.522205
36.522154 69.615166 -13.634296
36.391089 69.74641 -12.019485
38.235062 50.559486 -32.436348
38.018337 49.615965 -33.522638
37.901829 51.654803 -33.318681
31.599234 91.40804 -22.684388
32.019718 89.913407 -23.502086
31.601451 91.592098 -20.982827
31.599234 91.40804 -22.684388
31.535791 91.853569 -19.313958
31.972357 90.379338 -20.063183
31.601451 91.592098 -20.982827
31.494452 91.974411 -17.496791
31.535791 91.853569 -19.313958
31.466826 91.905438 -15.712281
31.879071 90.571834 -16.609804
31.494452 91.974411 -17.496791
31.441277 91.810104 -14.020998
31.466826 91.905438 -15.712281
31.792023 90.388359 -13.063808
31.441277 91.810104 -14.020998
37.71311 63.182423 -25.135904
38.036776 60.930395 -25.522205
37.690857 62.62797 -26.520559
37.71311 63.182423 -25.135904
37.351619 65.443405 -24.719989
35.155035 74.924251 -10.090896
34.889713 76.600357 -11.159316
34.732714 76.675098 -9.516692
35.5796 73.196609 -10.735119
35.155035 74.924251 -10.090896
35.4226 73.271351 -9.092495
36.267545 69.743801 -10.377035
36.391089 69.74641 -12.019485
35.970707 71.546318 -11.379168
36.267545 69.743801 -10.377035
36.152319 69.595013 -8.746609
34.307555 70.222488 -37.970122
34.471991 71.383266 -36.820227
34.608107 67.99488 -38.08127
34.307555 70.222488 -37.970122
35.069659 66.842171 -37.235975
34.86013 65.656097 -38.359924
34.608107 67.99488 -38.08127
32.434715 88.610341 -22.437537
32.416416 88.40588 -24.207572
32.019718 89.913407 -23.502086
33.78055 81.49778 -10.734279
33.481642 83.114395 -11.552878
33.395603 82.932541 -9.898309
34.080951 79.833565 -9.832411
34.16699 80.015419 -11.486981
33.78055 81.49778 -10.734279
34.346693 78.186916 -8.871621
34.080951 79.833565 -9.832411
34.123469 79.12035 -31.078937
34.094046 78.284695 -32.448967
34.489002 77.979786 -30.128089
34.123469 79.12035 -31.078937
34.104338 80.02018 -29.660265
38.185173 56.409918 -29.658883
38.069013 55.593712 -30.914428
37.846975 57.807741 -30.625175
38.185173 56.409918 -29.658883
38.275378 57.133032 -28.442971
38.301071 58.009029 -27.211585
38.330282 58.71109 -26.012761
36.976017 68.026214 -22.86261
37.011555 67.508461 -24.326636
36.651523 69.527862 -23.883525
36.976017 68.026214 -22.86261
36.932879 68.464115 -21.43723
36.654388 69.376205 -15.279381
36.226484 71.309967 -14.666704
36.522154 69.615166 -13.634296
36.760067 69.158474 -16.940588
36.654388 69.376205 -15.279381
36.83835 68.961159 -18.492318
36.437002 70.873692 -17.863519
36.760067 69.158474 -16.940588
36.882528 68.779495 -19.935105
36.83835 68.961159 -18.492318
35.081171 63.223463 -38.530733
34.86013 65.656097 -38.359924
35.310791 60.879551 -38.648735
35.081171 63.223463 -38.530733
35.551302 62.159475 -37.632631
35.503067 58.512552 -38.666399
35.310791 60.879551 -38.648735
35.691052 56.11878 -38.701825
35.503067 58.512552 -38.666399
35.968907 57.421791 -37.786058
35.810413 53.704929 -38.694411
35.691052 56.11878 -38.701825
35.894495 51.410267 -38.752262
35.810413 53.704929 -38.694411
36.240972 52.733356 -37.879335
35.935068 48.794422 -38.706213
35.894495 51.410267 -38.752262
36.3805 48.044462 -37.872511
35.935068 48.794422 -38.706213
36.803964 47.045572 -36.977972
36.3805 48.044462 -37.872511
36.748518 49.439804 -37.042648
37.21566 46.221249 -36.130281
36.803964 47.045572 -36.977972
37.55173 47.348692 -35.272033
37.428543 49.576098 -35.27654
37.80829 48.483875 -34.400465
37.21566 46.221249 -36.130281
37.55173 47.348692 -35.272033
3 0 19 17
3 0 21 20
3 0 17 21
3 67 25 68
3 69 68 23
3 67 68 69
3 70 28 71
3 72 71 26
3 70 71 72
3 74 73 28
3 75 23 76
3 2 77 79
3 79 78 30
3 77 78 79
3 1 33 31
3 2 36 34
3 2 30 36
3 4 41 39
3 6 42 18
3 6 80 82
3 82 81 42
3 80 81 82
3 7 45 43
3 83 46 84
3 86 85 46
3 9 87 88
3 9 89 91
3 89 47 90
3 89 90 91
3 9 49 47
3 4 50 22
3 4 39 50
3 11 53 51
3 13 54 24
3 13 55 54
3 3 56 38
3 14 57 27
3 14 58 57
3 14 59 58
3 93 92 29
3 11 94 95
3 11 96 98
3 96 51 97
3 96 97 98
3 5 99 101
3 101 100 40
3 99 100 101
3 12 60 52
3 15 61 32
3 15 102 104
3 104 103 61
3 102 103 104
3 8 62 44
3 10 63 48
3 16 64 35
3 16 65 64
3 16 66 65
3 106 105 37
3 17 18 4
3 19 18 17
3 19 6 18
3 108 107 7
3 20 109 110
3 21 111 113
3 113 112 20
3 111 112 113
3 21 114 116
3 114 9 115
3 114 115 116
3 21 22 9
3 17 22 21
3 17 4 22
3 23 24 11
3 25 24 23
3 25 13 24
3 26 27 3
3 28 27 26
3 28 14 27
3 28 29 14
3 117 29 118
3 119 118 28
3 117 118 119
3 121 120 29
3 23 122 123
3 23 124 126
3 124 11 125
3 124 125 126
3 30 127 128
3 130 129 30
3 132 131 5
3 31 32 12
3 33 32 31
3 33 15 32
3 134 133 8
3 34 35 10
3 36 35 34
3 36 16 35
3 36 37 16
3 30 37 36
3 30 135 137
3 137 136 37
3 135 136 137
3 138 38 139
3 140 38 141
3 142 3 143
3 144 143 38
3 142 143 144
3 145 3 146
3 147 26 148
3 149 148 3
3 147 148 149
3 150 26 151
3 153 152 26
3 39 40 2
3 41 40 39
3 41 5 40
3 18 41 4
3 42 41 18
3 42 5 41
3 42 154 156
3 156 155 5
3 154 155 156
3 158 157 42
3 43 44 1
3 45 44 43
3 45 8 44
3 159 45 160
3 161 160 7
3 159 160 161
3 46 162 164
3 162 45 163
3 162 163 164
3 46 8 45
3 46 165 167
3 167 166 8
3 165 166 167
3 169 168 46
3 47 170 171
3 47 172 173
3 47 174 176
3 174 48 175
3 174 175 176
3 49 48 47
3 49 10 48
3 22 49 9
3 50 49 22
3 50 10 49
3 50 34 10
3 39 34 50
3 39 2 34
3 51 52 0
3 53 52 51
3 53 12 52
3 24 53 11
3 54 53 24
3 54 12 53
3 54 31 12
3 55 31 54
3 55 1 31
3 38 177 179
3 177 25 178
3 177 178 179
3 56 25 38
3 56 13 25
3 27 56 3
3 57 56 27
3 57 13 56
3 57 55 13
3 58 55 57
3 58 1 55
3 58 43 1
3 59 43 58
3 59 7 43
3 29 59 14
3 180 59 181
3 182 181 29
3 180 181 182
3 183 7 184
3 185 184 59
3 183 184 185
3 187 186 7
3 188 20 189
3 51 190 192
3 190 20 191
3 190 191 192
3 51 0 20
3 40 193 195
3 195 194 2
3 193 194 195
3 197 196 40
3 199 198 5
3 52 19 0
3 60 19 52
3 60 6 19
3 32 60 12
3 61 60 32
3 61 6 60
3 61 200 202
3 202 201 6
3 200 201 202
3 204 203 61
3 44 33 1
3 62 33 44
3 62 15 33
3 205 62 206
3 207 206 8
3 205 206 207
3 208 62 209
3 210 15 211
3 212 211 62
3 210 211 212
3 214 213 15
3 48 215 216
3 63 217 219
3 219 218 48
3 217 218 219
3 63 220 221
3 35 63 10
3 64 63 35
3 64 222 224
3 224 223 63
3 222 223 224
3 64 225 226
3 65 227 229
3 229 228 64
3 227 228 229
3 65 230 231
3 65 232 233
3 66 234 236
3 236 235 65
3 234 235 236
3 66 237 238
3 37 66 16
3 239 66 240
3 241 240 37
3 239 240 241
3 243 242 66
