ply
format ascii 1.0
element vertex 459
property float x
property float y
property float z
element face 452
property list uchar int vertex_index
end_header
1.06962 -31.75075 -48.935802
-12.750035 17.574854 -72.861137
-6.76012 -0.361538 -66.780869
-12.801277 5.704574 -70.912178
-11.925368 -7.628088 -65.659599
-9.220489 -20.672253 -59.134983
-4.264316 -33.963917 -52.170731
-3.623931 -20.480474 -56.128201
-9.186964 14.850807 -71.942596
-12.944426 11.835321 -72.415161
-9.500757 9.080718 -71.096199
-9.549664 2.792621 -69.19696
-6.547618 5.488169 -68.749542
-14.323195 -13.193902 -63.818836
-7.051416 -27.35829 -55.643158
-1.582843 -25.898825 -52.691551
-12.681582 22.662584 -72.072296
-9.006163 19.921186 -71.754951
-4.647791 -4.043397 -63.830811
-6.850972 -5.937109 -64.513565
-5.003318 -9.456858 -61.766895
-12.505415 -0.959878 -68.54464
-9.40145 -3.326544 -66.758804
-8.864308 -9.341716 -63.934467
-10.916285 -14.121056 -62.532845
1.780784 -39.488113 -47.077805
-0.895213 -40.709908 -48.668201
-1.398603 -33.27002 -50.595955
-4.035622 -26.768621 -54.203163
-6.255561 -20.72658 -57.71521
-5.532864 -14.918756 -59.731121
-7.720047 12.925487 -71.105476
-9.328588 11.915546 -71.626671
-7.84172 10.107585 -70.668625
-7.947641 7.299314 -70.019516
0.734063 -28.094727 -49.976421
-0.448227 -25.311844 -51.814434
-0.313894 -28.915182 -50.794243
-14.770402 23.609974 -71.770592
-9.054275 22.265598 -71.293602
-7.320583 20.682253 -70.815292
-7.423162 18.23859 -71.174164
-4.79875 -6.682404 -62.819904
-14.757195 18.781399 -72.869324
-16.772387 16.937103 -72.79451
-14.760119 15.918777 -72.938942
-12.932677 8.744529 -71.765381
-14.753386 10.001472 -72.177872
-14.639701 6.671329 -71.360023
-14.480613 3.253332 -70.313347
-14.220756 -0.07944 -69.129059
-12.628029 2.313453 -69.775253
-8.030794 1.473084 -68.123993
-9.461782 -0.169651 -68.05896
-8.077904 -1.498571 -66.986488
-8.072165 -4.611405 -65.690643
-6.858318 -3.296299 -65.641991
-13.207275 -10.257468 -64.829948
-12.573621 -13.600041 -63.237255
-11.443507 -10.864321 -64.116325
-9.879335 -11.402729 -63.385937
-10.312817 -8.479524 -64.827156
-2.683875 -37.336884 -50.431309
-1.241956 -36.769386 -49.690746
-2.819561 -33.577686 -51.445652
-2.800595 -29.899485 -52.442337
-4.107867 -30.397272 -53.107018
-8.282699 -24.007294 -57.426285
-6.681116 -23.853331 -56.726383
-7.767795 -20.665674 -58.50082
-7.186303 -17.832533 -59.39785
-2.465732 -19.961924 -55.371304
-3.487518 -17.255354 -57.261753
-4.38977 -14.511329 -59.103313
-4.678249 -17.630632 -58.009796
-10.96317 16.166597 -72.554253
-12.776244 14.85146 -72.782883
-10.964426 13.311333 -72.31134
-11.168496 10.484849 -71.871552
-11.118714 7.582562 -71.153954
-11.081817 4.42388 -70.18895
-9.447683 6.055997 -70.244644
-8.077204 4.386619 -69.179787
-6.749812 2.59266 -67.890617
-5.688683 -30.941902 -53.796352
-7.36434 -31.027212 -54.566246
-8.661219 -27.641798 -56.262844
-9.90476 -23.840937 -58.158379
-1.554357 -22.694452 -53.626385
-2.640972 -23.050808 -54.454205
-14.674154 21.333971 -72.473877
-12.8408 20.125566 -72.656624
-10.803935 23.755224 -71.386749
-10.85291 21.289162 -72.113335
-10.904679 18.936874 -72.469185
-9.256043 17.528887 -72.042122
-7.584242 15.804073 -71.287956
-5.337302 3.764224 -67.390007
-5.567104 0.854044 -66.502876
-4.51328 -1.251544 -64.87175
-5.706857 -2.09557 -65.432915
-5.750908 -4.875681 -64.297531
-5.857636 -7.635052 -63.170193
-6.86904 -8.702463 -63.309917
-5.995003 -10.341696 -62.063797
-14.736757 12.949386 -72.68779
-16.595766 11.076011 -72.330154
-12.307514 -4.269605 -67.175636
-10.994002 1.043265 -68.978058
-10.907389 -2.14277 -67.711525
-10.639251 -5.376387 -66.281097
-9.194623 -6.529078 -65.30925
-7.931568 -7.52239 -64.358017
-7.703669 -10.111396 -63.095947
1.326275 -35.482399 -48.061417
0.424161 -40.064941 -47.954445
0.189342 -36.320454 -48.798466
-0.097388 -32.614124 -49.770565
-1.494761 -29.625389 -51.589207
-2.762808 -26.368622 -53.473381
-3.836855 -23.56082 -55.161739
-5.473346 -27.277382 -54.871563
-5.161162 -23.751949 -55.936134
-4.852588 -20.710621 -56.893307
-5.879116 -17.862352 -58.678337
-6.677036 -15.049882 -60.344715
-5.194695 -12.20616 -60.696598
-7.065751 10.647771 -70.345425
-7.780883 11.516536 -70.887051
-7.004914 12.056722 -70.56385
-7.160542 9.281302 -70.109139
-7.065751 10.647771 -70.345425
0.901841 -29.922739 -49.456112
1.385541 -29.471144 -49.048811
1.553319 -31.299155 -48.528502
-6.472523 21.041407 -70.175365
-7.279724 21.860936 -70.487274
-6.577006 19.820033 -70.461097
-6.472523 21.041407 -70.175365
-3.474095 -35.650401 -51.30102
-3.469426 -37.608517 -50.785244
-4.259647 -35.922033 -51.654955
-8.915119 -19.114178 -59.655195
-8.188772 -19.110889 -59.338113
-8.494142 -20.668964 -58.817901
-7.418038 -32.865884 -54.027907
-6.593391 -32.706451 -53.70348
-9.504242 -27.526504 -56.63369
-8.852405 -29.488788 -55.716875
-9.695429 -29.373493 -56.087721
-10.126012 -25.626073 -57.581457
-9.282989 -25.741368 -57.210611
-9.504242 -27.526504 -56.63369
-9.846946 24.101932 -70.926567
-10.813339 24.797681 -70.906181
-6.784002 16.142117 -70.813449
-7.503702 17.021331 -71.23106
-6.703462 17.359375 -70.756553
-6.83401 14.857551 -70.777432
-6.784002 16.142117 -70.813449
-4.831807 2.702854 -66.608933
-4.731321 4.135829 -67.021603
-4.946708 1.247764 -66.165367
-5.452203 2.309134 -66.946441
-4.831807 2.702854 -66.608933
-4.580535 -2.64747 -64.351281
-4.030622 -2.335396 -63.990246
-4.097877 -3.731323 -63.469776
-17.748759 15.893008 -72.612652
-16.717755 15.502122 -72.754429
-16.499227 9.446794 -71.996242
-15.674576 10.538742 -72.254013
-15.578038 8.909524 -71.920101
-17.549078 9.908399 -72.005875
-16.499227 9.446794 -71.996242
-13.254976 -2.164001 -68.196106
-14.112647 -1.723782 -68.488315
-13.363086 -0.519659 -68.836849
-12.406464 -2.614742 -67.860138
-13.156025 -3.818865 -67.511604
-13.254976 -2.164001 -68.196106
-13.92283 -14.930674 -63.002697
-14.8385 -14.775168 -63.264257
-11.360017 -15.636335 -62.022315
-12.188685 -15.375827 -62.374519
-11.744953 -13.860549 -62.88505
-10.554893 -15.848453 -61.665165
-11.360017 -15.636335 -62.022315
-10.156047 -14.338445 -62.169463
-10.554893 -15.848453 -61.665165
-8.696313 -10.703606 -63.252724
-9.203827 -11.734113 -62.978459
-9.371821 -10.372222 -63.660202
-8.283988 -9.726556 -63.515207
-8.115994 -11.088446 -62.833464
-8.696313 -10.703606 -63.252724
2.347046 -39.039426 -46.678005
2.633328 -40.958568 -46.237455
1.55353 -37.485256 -47.569611
2.119791 -37.036569 -47.169811
2.347046 -39.039426 -46.678005
-0.733394 -42.669119 -48.22274
-1.653651 -41.051851 -49.025553
0.023639 -42.441659 -47.81384
-0.733394 -42.669119 -48.22274
-0.235526 -40.387424 -48.311323
0.683326 -42.119175 -47.456963
0.023639 -42.441659 -47.81384
-7.321031 -15.042545 -60.667349
-6.931669 -16.441208 -59.871282
-7.575665 -16.433871 -60.193917
-7.002641 -13.762895 -61.092612
-7.321031 -15.042545 -60.667349
-5.882605 -13.698792 -60.489103
-5.71352 -12.342495 -60.971842
-5.363779 -13.562458 -60.213859
-7.213503 7.877166 -69.784584
-7.89468 8.703449 -70.344071
-7.160542 9.281302 -70.109139
-6.513491 6.971594 -69.149597
-7.24763 6.393741 -69.384529
-7.213503 7.877166 -69.784584
1.193388 -27.795635 -49.52874
1.385541 -29.471144 -49.048811
0.645841 -26.371549 -50.44149
1.193388 -27.795635 -49.52874
0.142918 -26.703285 -50.895427
0.054697 -24.980108 -51.360496
0.645841 -26.371549 -50.44149
-14.717654 24.698484 -71.242718
-15.741707 24.066804 -71.41161
-13.766571 24.249502 -71.496574
-14.717654 24.698484 -71.242718
-12.722161 23.775807 -71.647426
-13.725992 23.136279 -71.921444
-13.766571 24.249502 -71.496574
-8.14657 22.652608 -70.726429
-8.972116 23.357119 -70.879994
-8.187429 21.473925 -71.054447
-8.14657 22.652608 -70.726429
-7.279724 21.860936 -70.487274
-6.628296 18.598202 -70.640534
-7.371873 19.460421 -70.994728
-6.577006 19.820033 -70.461097
-6.703462 17.359375 -70.756553
-6.628296 18.598202 -70.640534
-4.170666 -5.080275 -62.969906
-4.097877 -3.731323 -63.469776
-4.246145 -6.399779 -62.464453
-4.72327 -5.362901 -63.325357
-4.170666 -5.080275 -62.969906
-4.377766 -7.712664 -62.020275
-4.246145 -6.399779 -62.464453
-3.825161 -7.430039 -61.664823
-4.48005 -9.099891 -61.49377
-4.901034 -8.069631 -62.293399
-4.377766 -7.712664 -62.020275
-15.764791 17.859251 -72.831917
-16.776472 18.384999 -72.666851
-15.768876 19.307147 -72.704258
-15.711621 14.992959 -72.826645
-16.717755 15.502122 -72.754429
-15.766253 16.42794 -72.866726
-15.521195 7.244453 -71.511177
-15.578038 8.909524 -71.920101
-14.696544 8.3364 -71.768947
-15.557307 5.573645 -71.057766
-15.521195 7.244453 -71.511177
-15.477763 3.864647 -70.534427
-15.557307 5.573645 -71.057766
-14.560157 4.962331 -70.836685
-15.298388 2.113032 -69.973206
-15.477763 3.864647 -70.534427
-14.350684 1.586946 -69.721203
-15.16846 0.446646 -69.381062
-15.298388 2.113032 -69.973206
1.973396 -41.258941 -46.693953
2.633328 -40.958568 -46.237455
-2.547982 -39.365339 -49.907106
-3.469426 -37.608517 -50.785244
-1.789544 -39.023396 -49.549755
-1.653651 -41.051851 -49.025553
-2.547982 -39.365339 -49.907106
-7.898027 -17.694318 -59.786628
-7.477049 -19.249104 -58.949335
-8.188772 -19.110889 -59.338113
-7.575665 -16.433871 -60.193917
-7.898027 -17.694318 -59.786628
-2.43766 -18.301033 -55.953164
-1.977705 -19.682872 -54.997576
-2.948554 -16.947748 -56.898388
-2.43766 -18.301033 -55.953164
-2.976625 -18.608639 -56.316529
-3.388034 -15.703086 -57.800546
-2.948554 -16.947748 -56.898388
-3.938644 -15.883342 -58.182533
-3.83916 -14.331073 -58.721327
-3.388034 -15.703086 -57.800546
-15.214094 -12.884264 -64.10045
-14.8385 -14.775168 -63.264257
-14.639073 -11.411123 -64.62565
-15.214094 -12.884264 -64.10045
-14.081112 -9.942906 -65.131206
-13.765235 -11.725685 -64.324392
-14.639073 -11.411123 -64.62565
-13.3936 -8.554417 -65.592884
-14.081112 -9.942906 -65.131206
-12.752646 -7.239727 -66.00771
-12.566322 -8.942778 -65.244774
-13.3936 -8.554417 -65.592884
-5.043379 -34.174803 -52.505723
-4.259647 -35.922033 -51.654955
-5.755562 -32.663795 -53.318533
-4.9765 -32.45291 -52.983542
-5.043379 -34.174803 -52.505723
-6.526511 -30.984557 -54.181299
-5.755562 -32.663795 -53.318533
-6.593391 -32.706451 -53.70348
-8.203966 -31.181494 -54.868576
-7.418038 -32.865884 -54.027907
-8.01278 -29.334505 -55.414545
-8.203966 -31.181494 -54.868576
-8.852405 -29.488788 -55.716875
-0.506466 -23.633981 -52.331089
0.054697 -24.980108 -51.360496
-1.05953 -22.325285 -53.237065
-0.506466 -23.633981 -52.331089
-1.001292 -24.003148 -52.72041
-1.522018 -21.049136 -54.125117
-1.05953 -22.325285 -53.237065
-2.010045 -21.328188 -54.498845
-1.977705 -19.682872 -54.997576
-1.522018 -21.049136 -54.125117
-15.793913 22.946813 -71.858067
-15.741707 24.066804 -71.41161
-15.745788 21.808811 -72.209709
-15.793913 22.946813 -71.858067
-14.722278 22.471972 -72.122234
-15.727356 20.583433 -72.506535
-15.745788 21.808811 -72.209709
-14.715674 20.057685 -72.671601
-15.768876 19.307147 -72.704258
-15.727356 20.583433 -72.506535
-11.783337 24.322127 -71.304653
-10.813339 24.797681 -70.906181
-11.742759 23.208904 -71.729523
-12.722161 23.775807 -71.647426
-11.783337 24.322127 -71.304653
-9.929105 23.010411 -71.340176
-9.846946 24.101932 -70.926567
-8.972116 23.357119 -70.879994
-6.901912 13.418258 -70.686192
-7.652145 14.36478 -71.196716
-6.83401 14.857551 -70.777432
-7.004914 12.056722 -70.56385
-6.901912 13.418258 -70.686192
1.772601 -33.283698 -48.032516
1.553319 -31.299155 -48.528502
2.256301 -32.832104 -47.625215
-5.852248 6.076435 -68.459587
-6.513491 6.971594 -69.149597
-5.247091 5.214462 -67.77982
-4.731321 4.135829 -67.021603
-5.94246 4.626196 -68.069774
-5.852248 6.076435 -68.459587
-5.247091 5.214462 -67.77982
-3.943185 -0.859455 -64.498623
-4.030622 -2.335396 -63.990246
-4.419796 0.19497 -65.349804
-3.849701 0.587059 -64.976677
-3.943185 -0.859455 -64.498623
-5.040192 -0.19875 -65.687313
-4.946708 1.247764 -66.165367
-4.419796 0.19497 -65.349804
-6.419343 -10.543483 -62.223669
-6.856362 -9.723866 -62.846729
-6.432021 -9.52208 -62.686857
-17.806429 17.354535 -72.566971
-16.776472 18.384999 -72.666851
-17.806429 17.354535 -72.566971
-17.748759 15.893008 -72.612652
-15.699941 13.508263 -72.701069
-15.711621 14.992959 -72.826645
-14.748438 14.434082 -72.813366
-16.629445 12.571575 -72.522251
-15.699941 13.508263 -72.701069
-15.666262 12.012698 -72.508972
-17.650547 11.488774 -72.256931
-16.629445 12.571575 -72.522251
-17.650547 11.488774 -72.256931
-17.549078 9.908399 -72.005875
-15.065635 -1.33312 -68.738506
-15.16846 0.446646 -69.381062
-15.065635 -1.33312 -68.738506
-14.112647 -1.723782 -68.488315
-12.943719 -5.560486 -66.765728
-13.156025 -3.818865 -67.511604
-12.116441 -5.948847 -66.417618
-12.752646 -7.239727 -66.00771
-12.943719 -5.560486 -66.765728
-6.856362 -9.723866 -62.846729
-7.273676 -10.428333 -62.739744
-7.286354 -9.40693 -63.202932
-10.77534 -23.818989 -58.475393
-10.126012 -25.626073 -57.581457
-10.398685 -22.271908 -58.955639
-10.77534 -23.818989 -58.475393
-10.056549 -20.687566 -59.443941
-9.562625 -22.256595 -58.646681
-10.398685 -22.271908 -58.955639
-13.048043 -15.133744 -62.711906
-13.92283 -14.930674 -63.002697
-13.448408 -13.396971 -63.528045
-13.048043 -15.133744 -62.711906
-12.188685 -15.375827 -62.374519
-9.706995 -19.124052 -59.966234
-10.056549 -20.687566 -59.443941
-8.915119 -19.114178 -59.655195
-9.706995 -19.124052 -59.966234
-9.637573 -12.979282 -62.596008
-10.156047 -14.338445 -62.169463
-10.39781 -12.761893 -62.959391
-9.637573 -12.979282 -62.596008
-9.203827 -11.734113 -62.978459
-7.515957 -11.293653 -62.468227
-8.115994 -11.088446 -62.833464
-7.273676 -10.428333 -62.739744
-7.515957 -11.293653 -62.468227
1.900929 -35.149523 -47.595323
2.119791 -37.036569 -47.169811
1.197948 -33.616574 -48.49861
1.772601 -33.283698 -48.032516
1.900929 -35.149523 -47.595323
1.295084 -41.547355 -47.132273
1.55425 -43.60159 -46.634791
0.683326 -42.119175 -47.456963
1.102472 -39.776527 -47.516125
1.973396 -41.258941 -46.693953
1.295084 -41.547355 -47.132273
-6.454691 -13.764356 -60.795901
-5.882605 -13.698792 -60.489103
-6.10495 -14.984319 -60.037918
-6.454691 -13.764356 -60.795901
-7.002641 -13.762895 -61.092612
-4.58111 -10.555847 -60.953856
-4.48005 -9.099891 -61.49377
-4.274336 -13.083082 -59.622065
-3.83916 -14.331073 -58.721327
-4.676798 -11.930498 -60.418707
-4.274336 -13.083082 -59.622065
-4.792233 -13.358745 -59.899956
-5.099006 -10.831509 -61.231746
-4.58111 -10.555847 -60.953856
-4.676798 -11.930498 -60.418707
-6.113675 -11.410262 -61.655442
-5.594849 -11.273928 -61.380198
-5.71352 -12.342495 -60.971842
-6.419343 -10.543483 -62.223669
-6.113675 -11.410262 -61.655442
3 127 33 128
3 129 128 31
3 127 128 129
3 131 130 33
3 0 132 134
3 132 35 133
3 132 133 134
3 0 37 35
3 135 40 136
3 138 137 40
3 1 45 43
3 3 48 46
3 3 49 48
3 3 51 49
3 2 54 52
3 2 56 54
3 4 59 57
3 4 61 59
3 6 139 141
3 139 62 140
3 139 140 141
3 6 64 62
3 6 66 64
3 5 69 67
3 5 142 144
3 144 143 69
3 142 143 144
3 7 72 71
3 7 74 72
3 8 77 75
3 10 78 32
3 10 79 78
3 10 81 79
3 12 82 34
3 12 83 82
3 145 85 146
3 147 86 148
3 147 148 149
3 150 87 151
3 152 151 86
3 150 151 152
3 15 88 36
3 15 89 88
3 16 90 38
3 16 91 90
3 153 92 154
3 17 93 39
3 17 94 93
3 17 95 94
3 155 96 156
3 157 156 41
3 155 156 157
3 159 158 96
3 160 97 161
3 162 98 163
3 164 163 97
3 162 163 164
3 18 165 167
3 165 99 166
3 165 166 167
3 18 100 99
3 18 101 100
3 20 102 42
3 20 104 102
3 169 168 44
3 9 105 76
3 170 106 171
3 172 171 47
3 170 171 172
3 174 173 106
3 21 175 177
3 177 176 50
3 175 176 177
3 21 178 180
3 178 107 179
3 178 179 180
3 11 108 80
3 22 109 53
3 22 110 109
3 22 111 110
3 19 112 55
3 19 103 112
3 13 181 182
3 24 183 185
3 185 184 58
3 183 184 185
3 24 186 187
3 24 188 189
3 23 190 192
3 192 191 60
3 190 191 192
3 23 193 195
3 193 113 194
3 193 194 195
3 25 196 197
3 25 198 200
3 198 114 199
3 198 199 200
3 26 201 202
3 26 203 204
3 26 205 207
3 205 115 206
3 205 206 207
3 27 116 63
3 27 117 116
3 27 118 117
3 28 119 65
3 28 120 119
3 14 121 84
3 29 122 68
3 29 123 122
3 29 124 123
3 208 125 209
3 210 209 70
3 208 209 210
3 212 211 125
3 30 126 73
3 30 213 215
3 215 214 126
3 213 214 215
3 31 32 8
3 33 32 31
3 33 10 32
3 33 34 10
3 216 34 217
3 218 217 33
3 216 217 218
3 219 12 220
3 221 220 34
3 219 220 221
3 35 222 223
3 35 224 225
3 35 226 228
3 226 36 227
3 226 227 228
3 37 36 35
3 37 15 36
3 229 38 230
3 231 38 232
3 233 16 234
3 235 234 38
3 233 234 235
3 236 39 237
3 40 238 240
3 238 39 239
3 238 239 240
3 40 17 39
3 40 41 17
3 241 41 242
3 243 242 40
3 241 242 243
3 245 244 41
3 246 18 247
3 248 42 249
3 250 249 18
3 248 249 250
3 251 42 252
3 251 252 253
3 254 20 255
3 256 255 42
3 254 255 256
3 43 257 259
3 257 44 258
3 257 258 259
3 45 44 43
3 45 260 262
3 262 261 44
3 260 261 262
3 46 47 9
3 48 47 46
3 48 263 265
3 265 264 47
3 263 264 265
3 48 266 267
3 49 268 270
3 270 269 48
3 268 269 270
3 49 271 272
3 49 273 275
3 273 50 274
3 273 274 275
3 51 50 49
3 51 21 50
3 52 53 11
3 54 53 52
3 54 22 53
3 54 55 22
3 56 55 54
3 56 19 55
3 57 58 13
3 59 58 57
3 59 24 58
3 59 60 24
3 61 60 59
3 61 23 60
3 276 25 277
3 62 278 279
3 62 280 282
3 280 26 281
3 280 281 282
3 62 63 26
3 64 63 62
3 64 27 63
3 64 65 27
3 66 65 64
3 66 28 65
3 67 68 14
3 69 68 67
3 69 29 68
3 69 70 29
3 283 70 284
3 285 284 69
3 283 284 285
3 287 286 70
3 71 288 289
3 72 290 292
3 292 291 71
3 290 291 292
3 72 293 294
3 72 295 297
3 295 73 296
3 295 296 297
3 74 73 72
3 74 30 73
3 75 76 1
3 77 76 75
3 77 9 76
3 32 77 8
3 78 77 32
3 78 9 77
3 78 46 9
3 79 46 78
3 79 3 46
3 79 80 3
3 81 80 79
3 81 11 80
3 34 81 10
3 82 81 34
3 82 11 81
3 82 52 11
3 83 52 82
3 83 2 52
3 298 13 299
3 300 13 301
3 302 57 303
3 304 303 13
3 302 303 304
3 305 57 306
3 307 4 308
3 309 308 57
3 307 308 309
3 310 6 311
3 312 84 313
3 314 313 6
3 312 313 314
3 85 315 317
3 315 84 316
3 315 316 317
3 85 14 84
3 318 85 319
3 86 320 322
3 320 85 321
3 320 321 322
3 86 14 85
3 86 67 14
3 87 67 86
3 87 5 67
3 36 323 324
3 88 325 327
3 327 326 36
3 325 326 327
3 88 328 329
3 88 330 332
3 330 71 331
3 330 331 332
3 89 71 88
3 89 7 71
3 38 333 334
3 90 335 337
3 337 336 38
3 335 336 337
3 90 338 339
3 90 340 342
3 340 43 341
3 340 341 342
3 91 43 90
3 91 1 43
3 92 343 344
3 92 345 347
3 345 16 346
3 345 346 347
3 39 348 350
3 348 92 349
3 348 349 350
3 93 92 39
3 93 16 92
3 93 91 16
3 94 91 93
3 94 1 91
3 94 75 1
3 95 75 94
3 95 8 75
3 41 95 17
3 96 95 41
3 96 8 95
3 96 31 8
3 351 31 352
3 353 352 96
3 351 352 353
3 355 354 31
3 356 0 357
3 356 357 358
3 359 12 360
3 97 361 362
3 97 363 365
3 363 12 364
3 363 364 365
3 97 83 12
3 98 83 97
3 98 2 83
3 99 366 367
3 99 368 370
3 368 369 370
3 99 371 373
3 371 98 372
3 371 372 373
3 100 98 99
3 100 2 98
3 100 56 2
3 101 56 100
3 101 19 56
3 42 101 18
3 102 101 42
3 102 19 101
3 102 103 19
3 104 103 102
3 104 374 376
3 376 375 103
3 374 375 376
3 44 377 378
3 380 379 44
3 76 45 1
3 105 45 76
3 105 381 383
3 383 382 45
3 381 382 383
3 47 105 9
3 106 105 47
3 106 384 386
3 386 385 105
3 384 385 386
3 106 387 388
3 390 389 106
3 50 391 392
3 394 393 50
3 107 395 396
3 107 397 399
3 397 4 398
3 397 398 399
3 80 51 3
3 108 51 80
3 108 21 51
3 53 108 11
3 109 108 53
3 109 21 108
3 109 107 21
3 110 107 109
3 110 4 107
3 110 61 4
3 111 61 110
3 111 23 61
3 55 111 22
3 112 111 55
3 112 23 111
3 112 113 23
3 103 113 112
3 103 400 402
3 402 401 113
3 400 401 402
3 403 87 404
3 405 87 406
3 407 5 408
3 409 408 87
3 407 408 409
3 58 410 412
3 412 411 13
3 410 411 412
3 414 413 58
3 415 5 416
3 418 417 5
3 60 419 421
3 421 420 24
3 419 420 421
3 423 422 60
3 113 424 425
3 113 426 427
3 114 428 429
3 114 430 432
3 430 0 431
3 430 431 432
3 115 433 435
3 433 434 435
3 115 436 438
3 436 25 437
3 436 437 438
3 63 115 26
3 116 115 63
3 116 25 115
3 116 114 25
3 117 114 116
3 117 0 114
3 117 37 0
3 118 37 117
3 118 15 37
3 65 118 27
3 119 118 65
3 119 15 118
3 119 89 15
3 120 89 119
3 120 7 89
3 84 66 6
3 121 66 84
3 121 28 66
3 68 121 14
3 122 121 68
3 122 28 121
3 122 120 28
3 123 120 122
3 123 7 120
3 123 74 7
3 124 74 123
3 124 30 74
3 70 124 29
3 125 124 70
3 125 30 124
3 125 439 441
3 441 440 30
3 439 440 441
3 443 442 125
3 444 20 445
3 73 446 447
3 126 448 450
3 450 449 73
3 448 449 450
3 126 451 453
3 451 20 452
3 451 452 453
3 126 104 20
3 454 104 455
3 456 455 126
3 454 455 456
3 458 457 104
