ply
format ascii 1.0
element vertex 298
property float x
property float y
property float z
element face 295
property list uchar int vertex_index
end_header
17.895477 64.619911 12.352779
15.545517 49.600792 29.705029
16.405222 57.49765 21.21616
20.437086 46.882549 21.449648
14.580656 40.85466 37.192436
20.079683 39.249615 29.300928
13.288664 55.283989 28.989338
13.818754 59.17453 24.915638
15.866565 53.824894 25.49358
18.331011 52.021599 21.678217
18.074366 48.392963 25.652281
12.647458 50.984779 33.203598
14.640801 62.874943 20.349319
17.030182 61.089516 16.930931
18.847372 55.616779 17.283394
20.730972 50.227123 17.38242
12.049823 46.320259 37.007191
15.046732 45.4566 33.668957
16.927521 35.536198 36.942368
17.397396 40.208748 33.512035
17.741404 44.423916 29.831848
18.662889 61.807434 12.78803
14.377128 52.338749 29.535007
14.651973 54.405891 27.349312
15.72296 51.636135 27.663019
16.948404 50.991817 25.735163
16.830929 48.95187 27.795416
11.224832 51.502258 34.657021
15.14249 58.24839 23.187777
14.201027 61.118164 22.612343
15.511042 60.143635 20.872066
15.845042 62.066593 18.630064
16.654057 59.436184 19.072697
17.960876 58.314373 17.111954
17.623932 56.614166 19.284441
19.404268 49.486614 21.46723
19.531454 51.296856 19.429926
20.588539 48.612297 19.327236
21.789268 47.80331 16.99942
11.678641 43.82394 38.848984
13.273825 43.508499 37.268364
13.547051 45.922371 35.448135
14.763262 43.361774 35.457031
16.465105 33.072056 38.75161
18.593918 37.665192 33.163345
18.862528 39.684113 31.326647
17.675871 42.362255 31.547384
18.898741 41.967701 29.531708
18.975166 43.989799 27.671665
13.55574 57.181293 27.015272
14.791891 56.509033 25.329725
16.125931 55.577118 23.445669
17.316078 54.764942 21.565342
17.116594 52.772636 23.771135
18.212313 50.214405 23.635725
19.276936 47.618073 23.593773
14.151381 38.459232 38.991692
11.843157 55.789501 30.786556
13.041798 53.041462 31.122534
14.193273 50.222996 31.49765
16.697044 65.572571 14.126828
16.246204 63.865547 16.379568
17.491898 62.754623 14.634254
18.279747 60.105305 14.956531
19.165285 57.413158 15.049315
18.544113 53.824547 19.552589
19.72547 52.919746 17.466169
10.529931 46.587906 38.451008
10.876238 49.154583 36.56461
12.429284 48.637321 35.095684
13.955415 48.126827 33.401493
15.308945 47.526524 31.754154
15.475688 35.763268 38.734589
15.724091 38.184692 37.181252
18.385803 35.337345 34.903198
17.228119 37.864231 35.227669
15.969618 40.533665 35.502396
16.2272 42.787987 33.67741
16.390676 44.97414 31.861778
16.600927 46.984833 29.912432
17.882854 46.48671 27.79553
19.183483 45.675755 25.674051
20.307207 45.041752 23.612707
18.471995 64.108671 11.480733
18.121315 65.440514 11.251162
18.279183 63.213673 12.570404
18.855701 62.702433 11.698358
18.471995 64.108671 11.480733
10.432662 51.742119 35.380806
10.625749 52.786672 34.488127
21.0535 46.44986 20.310262
21.129227 47.314734 19.249056
20.512813 47.747423 20.388442
13.92724 42.181579 37.2304
13.080839 42.38438 38.11486
13.734255 41.057461 38.076897
19.471106 39.466864 30.313788
19.39369 38.414006 31.23973
20.002268 38.196756 30.22687
20.095861 40.279947 28.421199
19.505389 41.63899 28.536589
19.489212 40.608658 29.416318
13.422202 56.232641 28.002305
12.858746 57.529009 27.861631
12.725209 56.580357 28.848664
13.996945 37.170171 39.779112
13.355587 38.606399 39.780909
11.094303 56.10347 31.546404
11.241896 57.278811 30.487175
12.844628 52.01312 32.163066
12.244295 53.41581 31.95869
12.047125 52.387468 32.999222
16.04258 66.138183 14.981197
16.281136 66.996956 13.83286
13.33488 60.524817 24.651189
13.157536 59.54035 25.741134
13.95911 63.313055 21.237785
13.739223 62.434666 22.369297
14.420914 61.996554 21.480831
14.183806 64.234274 20.088411
13.95911 63.313055 21.237785
14.828996 63.831553 19.217411
14.183806 64.234274 20.088411
19.438156 55.140834 16.244197
19.597113 56.039024 15.127157
19.006329 56.514969 16.166355
20.784492 51.163601 16.380292
20.281742 52.509912 16.422167
20.228221 51.573435 17.424295
21.298745 49.89953 16.209271
20.784492 51.163601 16.380292
22.351574 47.381882 15.934913
22.304476 46.56567 16.93986
19.0703 35.147527 33.896937
18.876806 34.081282 34.834904
19.70681 44.424389 25.635652
19.079324 44.832777 26.672858
19.602652 43.581411 26.634459
20.268672 44.107388 24.604979
19.745345 45.358754 24.643379
19.70681 44.424389 25.635652
19.257357 61.303388 11.809949
19.45017 62.198387 10.720278
18.855701 62.702433 11.698358
19.072994 60.493978 12.845066
19.257357 61.303388 11.809949
11.335812 52.646208 33.725933
10.625749 52.786672 34.488127
11.936145 51.243519 33.930309
12.047125 52.387468 32.999222
11.335812 52.646208 33.725933
21.729591 46.91024 18.085148
21.188904 48.207803 18.163328
21.129227 47.314734 19.249056
22.244799 45.6726 18.025588
22.304476 46.56567 16.93986
21.729591 46.91024 18.085148
12.283248 42.542101 38.90517
11.483975 42.578199 39.697977
12.476233 43.666219 38.058674
12.283248 42.542101 38.90517
13.080839 42.38438 38.11486
17.003436 31.830855 38.605358
16.274504 31.845477 39.507019
16.812835 30.604275 39.360767
17.219248 33.017004 37.763388
17.003436 31.830855 38.605358
17.450457 34.249075 36.858767
16.696313 34.304127 37.846989
17.219248 33.017004 37.763388
19.259385 37.404545 32.158079
19.174357 36.311451 33.02701
18.728223 38.674653 32.244996
19.259385 37.404545 32.158079
19.39369 38.414006 31.23973
19.543602 42.650039 27.606568
18.936954 42.97875 28.601686
19.505389 41.63899 28.536589
19.602652 43.581411 26.634459
19.543602 42.650039 27.606568
13.026029 58.543731 26.790951
12.858746 57.529009 27.861631
13.687247 58.177911 25.965455
13.157536 59.54035 25.741134
13.026029 58.543731 26.790951
13.519618 39.859747 38.976524
13.355587 38.606399 39.780909
14.366018 39.656946 38.092064
13.734255 41.057461 38.076897
13.519618 39.859747 38.976524
20.658821 37.989418 29.119281
20.002268 38.196756 30.22687
20.697015 39.046368 28.184981
20.658821 37.989418 29.119281
17.479297 66.019356 12.149501
18.121315 65.440514 11.251162
17.705134 66.839958 11.047884
12.002455 56.833112 29.747273
11.241896 57.278811 30.487175
12.565911 55.536745 29.887947
12.725209 56.580357 28.848664
12.002455 56.833112 29.747273
11.644975 54.789829 31.790701
11.094303 56.10347 31.546404
12.442477 54.415481 30.954545
11.644975 54.789829 31.790701
12.244295 53.41581 31.95869
16.88008 66.495686 13.036525
16.281136 66.996956 13.83286
17.296261 65.096241 13.239804
17.479297 66.019356 12.149501
16.88008 66.495686 13.036525
13.526017 61.496634 23.499541
13.33488 60.524817 24.651189
14.009891 60.146347 23.76399
13.526017 61.496634 23.499541
13.739223 62.434666 22.369297
15.431117 63.427377 18.357784
14.828996 63.831553 19.217411
15.242921 62.470768 19.489691
15.631698 64.326854 17.232535
15.431117 63.427377 18.357784
16.045623 62.96607 17.504816
15.81716 65.284672 16.107567
15.631698 64.326854 17.232535
16.471624 64.719059 15.253198
16.04258 66.138183 14.981197
15.81716 65.284672 16.107567
18.881423 59.642914 13.929317
19.072994 60.493978 12.845066
18.471318 60.95637 13.87228
19.324192 58.296841 13.975709
18.881423 59.642914 13.929317
18.722516 58.759231 15.002923
19.714645 56.955833 14.083916
19.324192 58.296841 13.975709
19.714645 56.955833 14.083916
19.597113 56.039024 15.127157
19.877205 53.792318 16.335584
19.438156 55.140834 16.244197
19.286421 54.268263 17.374782
19.877205 53.792318 16.335584
20.281742 52.509912 16.422167
21.827893 48.687624 16.017771
21.298745 49.89953 16.209271
21.26012 49.015217 17.19092
22.390199 48.266196 14.953264
21.827893 48.687624 16.017771
22.351574 47.381882 15.934913
10.857903 43.968038 39.561371
11.483975 42.578199 39.697977
10.283548 45.350021 39.362383
10.857903 43.968038 39.561371
11.104286 45.205923 38.649996
9.71516 46.822613 39.078646
10.283548 45.350021 39.362383
9.917991 48.068832 38.186539
9.10322 48.303539 38.814177
9.71516 46.822613 39.078646
10.091144 49.352171 37.24334
9.917991 48.068832 38.186539
10.703084 47.871245 37.507809
10.258365 50.568281 36.334601
10.091144 49.352171 37.24334
11.050535 50.328421 35.610816
10.432662 51.742119 35.380806
10.258365 50.568281 36.334601
15.697173 33.192257 39.619892
15.506571 31.965678 40.375301
16.274504 31.845477 39.507019
15.202464 34.537863 39.611382
15.697173 33.192257 39.619892
15.970396 34.417662 38.743099
14.659098 35.822189 39.65056
15.202464 34.537863 39.611382
14.813534 37.11125 38.863141
13.996945 37.170171 39.779112
14.659098 35.822189 39.65056
18.179597 34.149648 35.839182
18.876806 34.081282 34.834904
17.656662 35.436771 35.922783
17.450457 34.249075 36.858767
18.179597 34.149648 35.839182
18.48986 36.501268 34.033271
19.0703 35.147527 33.896937
19.174357 36.311451 33.02701
20.095861 40.279947 28.421199
20.697015 39.046368 28.184981
20.883795 43.784472 23.457743
20.268672 44.107388 24.604979
20.896128 44.720463 22.474182
20.883795 43.784472 23.457743
21.472716 43.463183 22.319218
20.961068 45.640861 21.392653
20.372146 45.96215 22.531177
20.896128 44.720463 22.474182
21.0535 46.44986 20.310262
20.961068 45.640861 21.392653
3 0 83 84
3 0 85 87
3 85 21 86
3 85 86 87
3 1 24 22
3 1 26 24
3 88 27 89
3 2 30 28
3 2 32 30
3 2 34 32
3 3 37 35
3 3 90 92
3 92 91 37
3 90 91 92
3 4 93 95
3 93 40 94
3 93 94 95
3 4 42 40
3 5 96 98
3 96 45 97
3 96 97 98
3 5 47 45
3 5 99 101
3 101 100 47
3 99 100 101
3 6 102 104
3 102 49 103
3 102 103 104
3 8 50 23
3 8 51 50
3 8 53 51
3 10 54 25
3 10 55 54
3 105 56 106
3 107 57 108
3 11 109 111
3 109 58 110
3 109 110 111
3 11 59 58
3 112 60 113
3 7 114 115
3 12 116 118
3 118 117 29
3 116 117 118
3 12 119 120
3 12 121 122
3 13 61 31
3 13 62 61
3 13 63 62
3 14 64 33
3 14 123 125
3 125 124 64
3 123 124 125
3 9 65 52
3 15 66 36
3 15 126 128
3 128 127 66
3 126 127 128
3 15 129 130
3 132 131 38
3 16 67 39
3 16 68 67
3 16 69 68
3 17 70 41
3 17 71 70
3 18 72 43
3 18 73 72
3 133 74 134
3 19 75 44
3 19 76 75
3 19 77 76
3 20 78 46
3 20 79 78
3 20 80 79
3 135 81 136
3 137 136 48
3 135 136 137
3 138 82 139
3 140 139 81
3 138 139 140
3 21 141 143
3 141 142 143
3 21 144 145
3 22 23 6
3 24 23 22
3 24 8 23
3 24 25 8
3 26 25 24
3 26 10 25
3 27 146 147
3 27 148 150
3 148 11 149
3 148 149 150
3 28 29 7
3 30 29 28
3 30 12 29
3 30 31 12
3 32 31 30
3 32 13 31
3 32 33 13
3 34 33 32
3 34 14 33
3 35 36 9
3 37 36 35
3 37 15 36
3 37 38 15
3 151 38 152
3 153 152 37
3 151 152 153
3 156 155 38
3 154 155 156
3 157 39 158
3 40 159 161
3 159 39 160
3 159 160 161
3 40 16 39
3 40 41 16
3 42 41 40
3 42 17 41
3 162 43 163
3 162 163 164
3 165 43 166
3 167 18 168
3 169 168 43
3 167 168 169
3 170 44 171
3 45 172 174
3 172 44 173
3 172 173 174
3 45 19 44
3 45 46 19
3 47 46 45
3 47 20 46
3 47 48 20
3 175 48 176
3 177 176 47
3 175 176 177
3 179 178 48
3 49 180 181
3 49 182 184
3 182 7 183
3 182 183 184
3 23 49 6
3 50 49 23
3 50 7 49
3 50 28 7
3 51 28 50
3 51 2 28
3 51 52 2
3 53 52 51
3 53 9 52
3 25 53 8
3 54 53 25
3 54 9 53
3 54 35 9
3 55 35 54
3 55 3 35
3 56 185 186
3 56 187 189
3 187 4 188
3 187 188 189
3 190 5 191
3 193 192 5
3 194 0 195
3 194 195 196
3 57 197 198
3 57 199 201
3 199 6 200
3 199 200 201
3 202 57 203
3 58 204 206
3 204 57 205
3 204 205 206
3 58 6 57
3 58 22 6
3 59 22 58
3 59 1 22
3 60 207 208
3 60 209 211
3 209 0 210
3 209 210 211
3 29 212 214
3 214 213 7
3 212 213 214
3 216 215 29
3 31 217 219
3 219 218 12
3 217 218 219
3 61 220 222
3 222 221 31
3 220 221 222
3 61 223 224
3 61 225 227
3 225 60 226
3 225 226 227
3 62 60 61
3 62 0 60
3 62 21 0
3 63 21 62
3 63 228 230
3 230 229 21
3 228 229 230
3 33 63 13
3 64 63 33
3 64 231 233
3 233 232 63
3 231 232 233
3 64 234 235
3 237 236 64
3 52 34 2
3 65 34 52
3 65 14 34
3 36 65 9
3 66 65 36
3 66 14 65
3 66 238 240
3 240 239 14
3 238 239 240
3 242 241 66
3 38 243 245
3 245 244 15
3 243 244 245
3 248 247 38
3 246 247 248
3 39 249 250
3 67 251 253
3 253 252 39
3 251 252 253
3 67 254 255
3 67 256 258
3 256 257 258
3 68 259 261
3 261 260 67
3 259 260 261
3 68 262 263
3 68 264 266
3 264 27 265
3 264 265 266
3 69 27 68
3 69 11 27
3 41 69 16
3 70 69 41
3 70 11 69
3 70 59 11
3 71 59 70
3 71 1 59
3 43 267 269
3 267 268 269
3 72 270 272
3 272 271 43
3 270 271 272
3 72 273 274
3 72 275 277
3 275 56 276
3 275 276 277
3 73 56 72
3 73 4 56
3 74 278 279
3 74 280 282
3 280 18 281
3 280 281 282
3 44 283 285
3 283 74 284
3 283 284 285
3 75 74 44
3 75 18 74
3 75 73 18
3 76 73 75
3 76 4 73
3 76 42 4
3 77 42 76
3 77 17 42
3 46 77 19
3 78 77 46
3 78 17 77
3 78 71 17
3 79 71 78
3 79 1 71
3 79 26 1
3 80 26 79
3 80 10 26
3 48 80 20
3 81 80 48
3 81 10 80
3 81 55 10
3 82 55 81
3 82 3 55
3 287 286 5
3 288 82 289
3 290 82 291
3 290 291 292
3 293 3 294
3 295 294 82
3 293 294 295
3 297 296 3
