ply
format ascii 1.0
element vertex 310
property float x
property float y
property float z
element face 287
property list uchar int vertex_index
end_header
-8.31771 55.473354 -37.535313
-10.057684 75.500885 -36.069984
-10.481638 85.392593 -33.229332
-8.804253 64.58567 -36.722088
-5.429057 58.986427 -42.559673
-10.309491 55.793217 -31.664524
-9.898586 89.508171 -30.724237
-13.47189 84.828743 -28.69005
-9.439204 70.031128 -36.483856
-7.148571 68.059822 -39.666817
-10.54792 80.51181 -34.97044
-13.309158 80.754715 -30.896868
-8.43711 59.540775 -36.999607
-7.24448 57.127369 -39.797474
-7.102482 62.294254 -39.65414
-9.769308 60.7901 -33.986305
-9.247067 56.001606 -34.891094
-6.220437 53.947021 -42.580463
-8.603057 53.853657 -37.120415
-8.456818 52.171177 -38.188198
-8.085259 54.195 -38.482601
-7.774937 91.817268 -31.359959
-11.364575 89.269501 -28.195992
-9.761084 72.735992 -36.335934
-8.514183 71.983841 -38.013641
-8.733464 74.69207 -37.790123
-11.407918 75.885155 -34.179047
-10.507637 83.142448 -34.255684
-12.027311 85.355888 -30.924883
-13.482472 82.954926 -29.825516
-12.11084 83.121323 -32.001137
-11.923061 80.913383 -32.987633
-8.619085 61.997494 -36.771351
-7.887463 61.117905 -38.211536
-7.972935 63.720787 -38.165058
-9.710503 65.489243 -35.155617
-10.161243 63.302505 -33.690353
-9.373532 62.714607 -35.270397
-9.094725 60.237484 -35.512299
-10.062067 53.429501 -32.453697
-9.599533 53.652729 -34.033096
-9.79201 56.000435 -33.276203
-6.467909 58.190048 -41.086422
-6.726932 55.661461 -41.135189
-5.830415 56.410885 -42.495304
-10.223072 87.588699 -32.07922
-8.608879 87.626839 -34.254837
-8.076806 89.902832 -33.068192
-11.82733 87.308884 -29.647316
-9.13873 67.315514 -36.552589
-8.054045 66.435173 -38.240547
-8.323514 69.127014 -38.069057
-7.22965 70.9534 -39.622467
-10.35761 78.054276 -35.581688
-8.823518 77.389091 -37.54858
-13.028385 78.348747 -31.703077
-11.715031 78.448624 -33.678337
-8.340112 57.303658 -37.264259
-7.889067 56.257618 -38.504299
-7.823612 58.561676 -38.395931
-7.122219 59.69416 -39.729752
-6.214765 60.828148 -41.171318
-7.097524 64.999397 -39.663189
-6.153462 63.539082 -41.067589
-10.674875 58.336212 -31.077101
-10.451955 60.804565 -32.325623
-10.047321 58.47126 -32.820919
-9.492382 58.213482 -34.283951
-8.878113 57.885883 -35.881119
-8.735191 55.741337 -36.353699
-9.078972 53.773941 -35.700096
-7.511405 54.807365 -39.735538
-7.134723 53.262539 -41.090168
-5.208245 54.556831 -43.938324
-10.523949 74.402576 -35.319687
-11.199066 74.594711 -34.374218
-10.732801 75.69302 -35.124516
-9.909384 74.118438 -36.202959
-10.375649 73.02013 -35.452662
-10.523949 74.402576 -35.319687
-9.615672 85.329914 -34.364088
-9.628671 84.204842 -34.877264
-10.494637 84.267521 -33.742508
-10.185779 54.611359 -32.059111
-10.300726 53.256723 -31.581714
-10.424438 54.438581 -31.187128
-8.398736 51.233927 -38.871044
-8.171925 52.314244 -38.921768
-6.846606 91.824562 -32.631342
-6.593718 92.852154 -31.707495
-7.288769 72.266762 -39.540829
-7.871916 71.468621 -38.818054
-7.931036 72.781982 -38.736415
-6.590651 71.748963 -40.317556
-7.288769 72.266762 -39.540829
-9.83927 69.092998 -35.637682
-9.998442 70.432853 -35.659414
-9.288967 68.673321 -36.518223
-9.689032 67.735191 -35.672049
-9.83927 69.092998 -35.637682
-9.745398 80.298302 -35.995594
-9.650243 79.069535 -36.301218
-10.452765 79.283043 -35.276064
-7.694548 87.452316 -35.412804
-7.505922 88.610516 -34.816942
-14.119594 83.622883 -28.176533
-14.08772 84.563534 -27.569716
-13.975441 80.506615 -29.813771
-14.062098 81.60672 -29.278095
-13.395815 81.854821 -30.361192
-13.79465 79.521107 -30.278754
-13.975441 80.506615 -29.813771
-13.168772 79.551731 -31.299973
-13.654264 78.318123 -30.681859
-13.79465 79.521107 -30.278754
-5.555028 64.255381 -41.772104
-6.114209 65.026541 -41.065365
-5.671187 62.757256 -41.770569
-5.555028 64.255381 -41.772104
-8.083963 76.930363 -38.413822
-8.103473 78.336257 -38.206854
-10.925666 59.715401 -30.863659
-11.002651 58.386467 -30.203675
-6.505384 52.701576 -42.588161
-6.962528 52.359335 -41.843014
-6.67758 53.60478 -41.835316
-4.621029 54.754675 -44.602328
-4.928596 55.869894 -43.942889
-8.529937 53.012417 -37.654307
-8.7209 51.916635 -37.465908
-8.79402 52.757875 -36.932017
-7.986146 53.326155 -39.06897
-8.171925 52.314244 -38.921768
-8.271038 53.183088 -38.3354
-8.643545 91.586772 -30.133063
-8.836761 90.66272 -31.042098
-9.705369 90.432224 -29.815202
-7.459125 92.742546 -30.464436
-8.643545 91.586772 -30.133063
-6.593718 92.852154 -31.707495
-7.459125 92.742546 -30.464436
-11.178428 90.030342 -27.290729
-12.126722 88.819031 -26.982688
-10.438364 90.312889 -28.55108
-11.178428 90.030342 -27.290729
-9.705369 90.432224 -29.815202
-10.631581 89.388836 -29.460114
-10.438364 90.312889 -28.55108
-8.040676 74.136097 -38.624657
-7.931036 72.781982 -38.736415
-8.623824 73.337955 -37.901882
-11.812835 74.821552 -33.441088
-12.06004 75.975277 -33.187145
-11.812835 74.821552 -33.441088
-11.199066 74.594711 -34.374218
-10.159382 71.785286 -35.585453
-10.375649 73.02013 -35.452662
-9.600144 71.38356 -36.409895
-9.998442 70.432853 -35.659414
-10.159382 71.785286 -35.585453
-9.743879 82.868972 -35.291588
-9.76402 81.553653 -35.648966
-10.527779 81.827129 -34.613062
-9.743879 82.868972 -35.291588
-9.628671 84.204842 -34.877264
-6.611763 67.286911 -40.364979
-6.593273 68.849514 -40.351107
-9.935873 64.395874 -34.422985
-10.425043 64.628822 -33.521961
-10.199673 65.722191 -34.254593
-10.211927 52.089835 -32.092431
-10.300726 53.256723 -31.581714
-10.00196 52.228569 -32.952074
-10.211927 52.089835 -32.092431
-9.8308 53.541115 -33.243397
-9.770692 52.340183 -33.741774
-10.00196 52.228569 -32.952074
-8.68503 51.033109 -38.094799
-8.7209 51.916635 -37.465908
-8.626948 50.09586 -38.777645
-8.68503 51.033109 -38.094799
-8.398736 51.233927 -38.871044
-7.239885 89.748513 -34.223619
-7.505922 88.610516 -34.816942
-8.342842 88.764836 -33.661515
-6.99754 90.867344 -33.485459
-7.925871 90.86005 -32.214075
-6.846606 91.824562 -32.631342
-7.239885 89.748513 -34.223619
-6.99754 90.867344 -33.485459
-13.37144 85.766014 -27.982335
-14.08772 84.563534 -27.569716
-12.317782 87.986393 -27.735306
-12.126722 88.819031 -26.982688
-12.54916 87.006085 -28.460968
-12.317782 87.986393 -27.735306
-11.595952 88.289193 -28.921654
-12.64961 86.068814 -29.168683
-13.37144 85.766014 -27.982335
-12.54916 87.006085 -28.460968
-6.633813 70.296303 -40.328932
-6.593273 68.849514 -40.351107
-7.18911 69.506611 -39.644642
-6.633813 70.296303 -40.328932
-6.590651 71.748963 -40.317556
-9.974919 66.822056 -34.973562
-10.199673 65.722191 -34.254593
-9.424616 66.402378 -35.854103
-9.974919 66.822056 -34.973562
-9.689032 67.735191 -35.672049
-10.573692 55.74299 -30.827942
-10.424438 54.438581 -31.187128
-5.039001 58.084692 -43.253563
-4.850526 59.554865 -43.193281
-8.883197 78.736942 -37.284664
-9.590564 77.721683 -36.565134
-9.650243 79.069535 -36.301218
-8.103473 78.336257 -38.206854
-8.883197 78.736942 -37.284664
-9.745398 80.298302 -35.995594
-9.76402 81.553653 -35.648966
-8.679292 86.447037 -34.876841
-9.615672 85.329914 -34.364088
-9.545258 86.509716 -33.742085
-8.679292 86.447037 -34.876841
-7.694548 87.452316 -35.412804
-14.124885 82.685975 -28.744266
-14.119594 83.622883 -28.176533
-13.477181 83.891835 -29.257783
-14.124885 82.685975 -28.744266
-14.062098 81.60672 -29.278095
-13.479262 77.153481 -30.960915
-13.654264 78.318123 -30.681859
-12.870273 77.207073 -31.949161
-13.479262 77.153481 -30.960915
-12.213596 77.257012 -32.936791
-12.870273 77.207073 -31.949161
-12.371708 78.398685 -32.690707
-11.561474 77.166889 -33.928692
-12.06004 75.975277 -33.187145
-12.213596 77.257012 -32.936791
-6.586239 65.756698 -40.363165
-7.123048 66.529609 -39.665003
-6.611763 67.286911 -40.364979
-6.625493 64.269239 -40.365389
-6.586239 65.756698 -40.363165
-6.114209 65.026541 -41.065365
-5.701838 61.401789 -41.822434
-6.184114 62.183615 -41.119453
-5.671187 62.757256 -41.770569
-5.308984 60.480929 -42.516611
-5.821911 59.907287 -41.865495
-5.701838 61.401789 -41.822434
-4.850526 59.554865 -43.193281
-5.308984 60.480929 -42.516611
-8.038937 75.581852 -38.534593
-8.778491 76.040581 -37.669352
-8.083963 76.930363 -38.413822
-8.040676 74.136097 -38.624657
-8.038937 75.581852 -38.534593
-10.756384 57.014488 -30.53423
-11.002651 58.386467 -30.203675
-10.492183 57.064715 -31.370812
-10.573692 55.74299 -30.827942
-10.756384 57.014488 -30.53423
-10.56075 63.441534 -32.857236
-10.425043 64.628822 -33.521961
-10.706106 62.192564 -32.174872
-10.56075 63.441534 -32.857236
-10.306599 62.053535 -33.007988
-10.814205 60.949577 -31.48792
-10.706106 62.192564 -32.174872
-10.563415 59.570388 -31.701362
-10.925666 59.715401 -30.863659
-10.814205 60.949577 -31.48792
-9.53601 52.604481 -34.555145
-9.770692 52.340183 -33.741774
-9.27573 52.665087 -35.388645
-9.53601 52.604481 -34.555145
-9.339253 53.713335 -34.866596
-9.031977 52.718018 -36.221857
-9.27573 52.665087 -35.388645
-8.841014 53.813799 -36.410256
-8.79402 52.757875 -36.932017
-9.031977 52.718018 -36.221857
-7.699218 53.632337 -39.695438
-7.986146 53.326155 -39.06897
-7.798332 54.501182 -39.10907
-7.510877 52.859924 -40.372753
-7.699218 53.632337 -39.695438
-7.323064 54.034952 -40.412853
-7.365654 52.059374 -41.133489
-7.510877 52.859924 -40.372753
-7.365654 52.059374 -41.133489
-6.962528 52.359335 -41.843014
-5.239681 56.796921 -43.221379
-5.629736 57.698656 -42.527488
-5.039001 58.084692 -43.253563
-5.51933 55.483858 -43.216814
-5.239681 56.796921 -43.221379
-4.928596 55.869894 -43.942889
-4.901499 53.538488 -44.697691
-4.621029 54.754675 -44.602328
-5.508741 53.241427 -43.997837
-4.901499 53.538488 -44.697691
-6.014837 52.936521 -43.318906
-5.714341 54.251926 -43.259394
-5.508741 53.241427 -43.997837
-6.505384 52.701576 -42.588161
-6.014837 52.936521 -43.318906
3 0 20 18
3 1 25 23
3 1 74 76
3 76 75 26
3 74 75 76
3 1 77 79
3 77 23 78
3 77 78 79
3 2 80 82
3 82 81 27
3 80 81 82
3 2 30 28
3 2 27 30
3 3 34 32
3 3 37 35
3 3 32 37
3 5 83 85
3 83 39 84
3 83 84 85
3 5 41 39
3 4 44 42
3 87 86 19
3 6 47 45
3 89 88 21
3 6 48 22
3 6 45 48
3 8 51 49
3 90 52 91
3 92 91 24
3 90 91 92
3 94 93 52
3 8 95 96
3 8 97 99
3 97 49 98
3 97 98 99
3 10 100 102
3 102 101 53
3 100 101 102
3 104 103 46
3 7 105 106
3 11 107 109
3 109 108 29
3 107 108 109
3 11 110 111
3 11 112 114
3 112 55 113
3 112 113 114
3 10 56 31
3 10 53 56
3 12 59 57
3 14 60 33
3 14 61 60
3 9 62 50
3 115 63 116
3 118 117 63
3 120 119 54
3 121 64 122
3 15 65 36
3 15 66 65
3 15 67 66
3 12 68 38
3 12 57 68
3 16 70 40
3 16 69 70
3 13 71 58
3 17 72 43
3 17 123 125
3 125 124 72
3 123 124 125
3 126 73 127
3 18 128 130
3 128 19 129
3 128 129 130
3 20 19 18
3 20 131 133
3 133 132 19
3 131 132 133
3 134 21 135
3 136 135 6
3 134 135 136
3 137 21 138
3 140 139 21
3 141 22 142
3 143 22 144
3 145 6 146
3 147 146 22
3 145 146 147
3 23 24 8
3 25 24 23
3 25 148 150
3 150 149 24
3 148 149 150
3 26 151 152
3 154 153 26
3 23 155 156
3 23 157 159
3 157 8 158
3 157 158 159
3 27 160 162
3 162 161 10
3 160 161 162
3 164 163 27
3 28 29 7
3 30 29 28
3 30 11 29
3 30 31 11
3 27 31 30
3 27 10 31
3 32 33 12
3 34 33 32
3 34 14 33
3 166 165 9
3 35 167 169
3 167 36 168
3 167 168 169
3 37 36 35
3 37 15 36
3 37 38 15
3 32 38 37
3 32 12 38
3 39 170 171
3 39 172 173
3 39 174 176
3 174 40 175
3 174 175 176
3 41 40 39
3 41 16 40
3 42 43 13
3 44 43 42
3 44 17 43
3 19 177 178
3 181 180 19
3 179 180 181
3 45 46 2
3 47 46 45
3 47 182 184
3 184 183 46
3 182 183 184
3 21 47 6
3 185 47 186
3 187 186 21
3 185 186 187
3 189 188 47
3 190 7 191
3 22 192 193
3 48 194 196
3 196 195 22
3 194 195 196
3 48 197 199
3 197 7 198
3 197 198 199
3 48 28 7
3 45 28 48
3 45 2 28
3 49 50 3
3 51 50 49
3 51 9 50
3 24 51 8
3 52 51 24
3 52 9 51
3 52 200 202
3 202 201 9
3 200 201 202
3 204 203 52
3 205 35 206
3 49 207 209
3 207 35 208
3 207 208 209
3 49 3 35
3 210 5 211
3 213 212 4
3 53 54 1
3 214 54 215
3 216 215 53
3 214 215 216
3 218 217 54
3 220 219 10
3 46 221 223
3 223 222 2
3 221 222 223
3 225 224 46
3 29 226 228
3 228 227 7
3 226 227 228
3 230 229 29
3 55 231 232
3 55 233 234
3 31 55 11
3 56 55 31
3 56 235 237
3 237 236 55
3 235 236 237
3 56 238 240
3 238 26 239
3 238 239 240
3 53 26 56
3 53 1 26
3 57 58 0
3 59 58 57
3 59 13 58
3 33 59 12
3 60 59 33
3 60 13 59
3 60 42 13
3 61 42 60
3 61 4 42
3 50 34 3
3 62 34 50
3 62 14 34
3 241 62 242
3 243 242 9
3 241 242 243
3 63 244 246
3 244 62 245
3 244 245 246
3 63 14 62
3 63 61 14
3 247 61 248
3 249 248 63
3 247 248 249
3 250 4 251
3 252 251 61
3 250 251 252
3 254 253 4
3 54 25 1
3 255 25 256
3 257 256 54
3 255 256 257
3 259 258 25
3 64 260 261
3 64 262 264
3 262 5 263
3 262 263 264
3 36 265 266
3 65 267 269
3 269 268 36
3 267 268 269
3 65 270 271
3 65 272 274
3 272 64 273
3 272 273 274
3 66 64 65
3 66 5 64
3 66 41 5
3 67 41 66
3 67 16 41
3 38 67 15
3 68 67 38
3 68 16 67
3 68 69 16
3 57 69 68
3 57 0 69
3 40 275 276
3 70 277 279
3 279 278 40
3 277 278 279
3 70 280 281
3 70 282 284
3 282 18 283
3 282 283 284
3 69 18 70
3 69 0 18
3 58 20 0
3 71 20 58
3 71 285 287
3 287 286 20
3 285 286 287
3 43 71 13
3 72 71 43
3 72 288 290
3 290 289 71
3 288 289 290
3 72 291 292
3 294 293 72
3 295 44 296
3 297 296 4
3 295 296 297
3 73 298 300
3 298 44 299
3 298 299 300
3 73 17 44
3 301 73 302
3 303 73 304
3 305 17 306
3 307 306 73
3 305 306 307
3 309 308 17
