ply
format ascii 1.0
element vertex 160
property float x
property float y
property float z
element face 145
property list uchar int vertex_index
end_header
28.418846 42.980377 -2.256566
27.613411 43.819984 4.249182
29.964918 36.789482 -2.400556
28.344809 38.882763 -4.846082
27.085135 48.761185 -2.233202
27.439148 46.279339 0.972162
29.191891 40.838833 0.668763
27.329922 45.01899 -5.0907
26.468983 40.559093 -7.078228
26.635607 49.058334 1.014436
28.701376 41.131886 4.055698
28.521675 42.351337 2.343
29.535343 39.652267 2.227862
27.732899 45.849308 -2.318344
27.299459 47.206047 -3.806404
27.92128 43.944172 -3.747542
27.896463 36.440971 -5.762179
27.419052 39.749889 -6.020877
26.802599 37.018089 -6.770744
27.712917 42.465958 5.992639
29.169872 39.820263 -2.44979
28.577095 40.818111 -3.642381
29.191162 37.714428 -3.693779
28.899818 35.463608 -4.74452
26.445721 51.878365 -2.456095
27.328457 47.39851 -0.724955
28.073044 44.601231 -0.691259
27.569986 44.956432 2.591153
28.338732 43.436836 0.719962
28.923843 41.594913 -0.906583
29.739634 38.807507 -1.024694
26.766167 50.195015 -3.817081
26.838831 48.254715 -5.250027
26.653486 46.243656 -6.372164
27.841303 41.950832 -4.943255
27.026741 42.897949 -6.214925
26.161036 43.87616 -7.373199
29.703381 39.036169 3.007561
29.11836 40.392077 3.14178
29.286397 39.775979 3.921479
30.069307 38.304855 2.120642
29.703381 39.036169 3.007561
26.949812 35.349767 -6.637333
27.349531 36.72953 -6.266462
27.496744 35.061208 -6.13305
26.34303 35.778364 -7.06145
26.949812 35.349767 -6.637333
27.765087 41.783266 6.879808
27.152363 43.070486 7.069031
28.278162 41.224282 5.851797
27.765087 41.783266 6.879808
29.170825 33.964479 -4.649416
29.365987 35.177915 -4.154026
28.590913 34.298395 -5.168853
29.170825 33.964479 -4.649416
27.591698 44.388208 3.420167
27.082857 45.70475 3.560549
27.10457 45.136526 4.389563
25.970554 41.051504 -7.576628
25.81658 42.710037 -7.724113
26.31501 42.217626 -7.225713
29.898537 35.840852 -2.982044
30.320782 35.372156 -2.414296
26.196773 49.800345 1.974215
26.239274 50.492266 1.091913
26.625709 48.413282 1.91183
26.196773 49.800345 1.974215
27.02748 47.023785 1.890694
27.037377 47.668836 0.993299
26.625709 48.413282 1.91183
29.860495 38.803892 1.35633
29.688768 39.397175 0.576781
29.363617 40.24555 1.448313
29.860495 38.803892 1.35633
30.069307 38.304855 2.120642
26.249026 37.569347 -7.231472
26.082219 39.339849 -7.385215
26.635791 38.788591 -6.924486
26.249026 37.569347 -7.231472
26.34303 35.778364 -7.06145
27.125403 44.404815 5.253022
27.10457 45.136526 4.389563
27.175156 43.727802 6.12475
27.152363 43.070486 7.069031
27.663164 43.142971 5.12091
27.125403 44.404815 5.253022
27.175156 43.727802 6.12475
28.772391 40.557246 4.883327
28.207147 41.798922 5.024169
28.278162 41.224282 5.851797
29.286397 39.775979 3.921479
28.772391 40.557246 4.883327
29.51166 36.303325 -3.628655
29.57804 37.251955 -3.047168
29.898537 35.840852 -2.982044
29.04549 36.589018 -4.21915
29.51166 36.303325 -3.628655
29.365987 35.177915 -4.154026
28.089236 34.787077 -5.677682
28.398141 35.952289 -5.253349
28.590913 34.298395 -5.168853
27.496744 35.061208 -6.13305
28.089236 34.787077 -5.677682
26.176467 52.61517 -1.60172
26.134709 53.407022 -2.448948
26.504516 51.169936 -1.555775
26.176467 52.61517 -1.60172
26.824223 49.611345 -1.444328
26.765428 50.319775 -2.344648
26.504516 51.169936 -1.555775
26.599459 49.75992 0.179491
26.239274 50.492266 1.091913
26.945884 48.930008 -0.690204
26.599459 49.75992 0.179491
26.982032 48.228422 0.14474
27.206796 48.079847 -1.479078
26.824223 49.611345 -1.444328
26.945884 48.930008 -0.690204
27.092899 46.362331 2.700189
27.082857 45.70475 3.560549
27.504567 45.617885 1.781657
27.02748 47.023785 1.890694
27.092899 46.362331 2.700189
29.96264 38.381512 -0.269948
29.465762 39.82317 -0.177965
29.688768 39.397175 0.576781
30.169343 37.401154 -1.043978
29.96264 38.381512 -0.269948
30.281985 36.392142 -1.731909
29.852276 37.798495 -1.712625
30.169343 37.401154 -1.043978
30.637849 34.974816 -1.745649
30.320782 35.372156 -2.414296
30.281985 36.392142 -1.731909
26.330675 52.605061 -3.274058
26.134709 53.407022 -2.448948
26.490897 51.763386 -3.954551
26.330675 52.605061 -3.274058
26.605944 51.03669 -3.136588
26.57135 50.786514 -4.640059
26.490897 51.763386 -3.954551
26.607681 49.816364 -5.356532
26.57135 50.786514 -4.640059
26.802499 49.224865 -4.533554
26.545173 48.788528 -5.978365
26.607681 49.816364 -5.356532
26.452501 47.782999 -6.539433
26.545173 48.788528 -5.978365
26.746158 47.249185 -5.811096
26.254571 46.667456 -7.050937
26.452501 47.782999 -6.539433
26.008346 45.483707 -7.551455
26.254571 46.667456 -7.050937
26.407261 45.059908 -6.872681
25.684998 44.314138 -7.945336
26.008346 45.483707 -7.551455
25.684998 44.314138 -7.945336
25.81658 42.710037 -7.724113
25.970554 41.051504 -7.576628
26.082219 39.339849 -7.385215
3 37 12 38
3 39 38 10
3 37 38 39
3 41 40 12
3 0 15 13
3 42 18 43
3 44 43 16
3 42 43 44
3 46 45 18
3 47 19 48
3 50 49 19
3 2 22 20
3 51 23 52
3 54 53 23
3 5 25 9
3 5 26 25
3 1 55 57
3 55 27 56
3 55 56 57
3 6 28 11
3 6 29 28
3 6 30 29
3 4 31 24
3 7 32 14
3 7 33 32
3 3 34 21
3 8 35 17
3 8 36 35
3 8 58 60
3 60 59 36
3 58 59 60
3 62 61 2
3 63 9 64
3 65 9 66
3 67 5 68
3 69 68 9
3 67 68 69
3 10 11 1
3 12 11 10
3 12 6 11
3 12 70 72
3 72 71 6
3 70 71 72
3 74 73 12
3 13 14 4
3 15 14 13
3 15 7 14
3 16 17 3
3 18 17 16
3 18 8 17
3 18 75 77
3 77 76 8
3 75 76 77
3 79 78 18
3 80 1 81
3 19 82 83
3 19 84 86
3 84 1 85
3 84 85 86
3 19 10 1
3 87 10 88
3 89 88 19
3 87 88 89
3 91 90 10
3 20 21 0
3 22 21 20
3 22 3 21
3 92 22 93
3 94 93 2
3 92 93 94
3 23 95 97
3 95 22 96
3 95 96 97
3 23 3 22
3 23 16 3
3 98 16 99
3 100 99 23
3 98 99 100
3 102 101 16
3 103 24 104
3 105 24 106
3 107 4 108
3 109 108 24
3 107 108 109
3 9 110 111
3 25 112 114
3 114 113 9
3 112 113 114
3 25 115 117
3 115 4 116
3 115 116 117
3 25 13 4
3 26 13 25
3 26 0 13
3 27 118 119
3 27 120 122
3 120 5 121
3 120 121 122
3 11 27 1
3 28 27 11
3 28 5 27
3 28 26 5
3 29 26 28
3 29 0 26
3 29 20 0
3 30 20 29
3 30 2 20
3 123 30 124
3 125 124 6
3 123 124 125
3 126 30 127
3 128 2 129
3 130 129 30
3 128 129 130
3 133 132 2
3 131 132 133
3 24 134 135
3 31 136 138
3 138 137 24
3 136 137 138
3 31 139 140
3 14 31 4
3 32 31 14
3 32 141 143
3 143 142 31
3 141 142 143
3 32 144 145
3 33 146 148
3 148 147 32
3 146 147 148
3 33 149 150
3 21 15 0
3 34 15 21
3 34 7 15
3 17 34 3
3 35 34 17
3 35 7 34
3 35 33 7
3 36 33 35
3 36 151 153
3 153 152 33
3 151 152 153
3 36 154 155
3 157 156 36
3 159 158 8
