ply
format ascii 1.0
element vertex 434
property float x
property float y
property float z
element face 477
property list uchar int vertex_index
end_header
-25.16872 -56.253098 26.075338
-35.786701 -43.277035 20.051643
-27.498064 -47.885513 30.29166
-30.96493 -50.367477 23.137405
-32.757977 -42.375534 28.029186
-37.121796 -42.093597 10.197
-36.693016 -35.222507 24.837915
-38.52737 -35.706154 16.404354
-38.312817 -34.029602 6.911961
-28.20936 -43.878731 31.664782
-30.291883 -45.397324 29.220285
-30.707226 -41.432194 30.731134
-26.754641 -56.944942 21.809433
-33.551647 -46.972687 21.595568
-32.145267 -50.410793 18.576178
-34.610695 -46.72879 16.894213
-35.289314 -46.100449 11.973898
-36.586639 -43.036373 15.150571
-23.308544 -54.558453 29.548283
-34.692616 -34.605007 28.39769
-38.794327 -31.710592 18.778147
-38.859272 -31.604057 14.350604
-38.612087 -35.074757 11.718349
-26.513111 -52.16663 28.325857
-28.17454 -53.396786 24.637085
-29.420673 -49.510765 27.131546
-32.107094 -46.42466 25.912924
-34.482925 -43.067539 24.457907
-37.525028 -40.539471 5.181339
-32.690239 -38.19949 29.835768
-34.890442 -38.908554 26.624008
-36.413857 -39.539013 22.797838
-38.058491 -31.188473 22.824379
-37.967056 -35.534634 20.753374
-37.494442 -39.451233 18.311321
-37.965866 -39.217937 13.488289
-38.148464 -38.227379 8.658536
-38.17207 -36.546329 3.638548
-37.890221 -32.363922 2.275804
-28.512203 -41.965977 32.153328
-29.551363 -42.691601 31.206131
-29.550619 -40.884499 31.817438
-24.450005 -58.264996 24.783661
-25.237003 -58.590904 22.687149
-25.962767 -56.752083 24.051783
-34.753021 -45.046638 20.928299
-34.173851 -46.818802 19.351665
-35.265038 -45.003941 18.606007
-35.638165 -44.931793 16.085316
-36.244583 -43.209984 17.636999
-24.241158 -55.521526 27.958008
-22.725975 -56.73867 28.520321
-23.686008 -57.488506 26.804346
-38.94865 -29.659445 15.461941
-38.737331 -29.554924 13.292209
-38.672501 -31.493637 12.127586
-27.03356 -49.989273 29.407742
-28.005367 -50.767578 27.816273
-28.591608 -48.704792 28.79409
-31.536337 -43.92926 28.693848
-31.307096 -45.878563 27.65309
-32.557396 -44.376144 26.975971
-33.340916 -44.921761 25.066978
-33.727291 -42.717842 26.29192
-26.411894 -46.923309 31.492367
-25.871124 -49.148529 30.79014
-25.509115 -51.27594 29.864683
-29.586998 -51.942795 23.874224
-28.873425 -53.701134 22.493481
-30.222784 -52.156998 21.75004
-36.270885 -44.147865 11.002405
-36.512039 -43.59866 8.536114
-36.80994 -42.733025 5.954223
-37.292652 -41.511436 7.635438
-31.494761 -37.887096 31.036245
-35.778927 -34.919861 26.710941
-34.840565 -36.803482 27.577749
-35.861469 -37.064003 25.74671
-35.790569 -39.068115 24.778715
-36.652409 -37.400921 23.788774
-38.70549 -33.769276 17.503698
-38.464905 -33.507599 19.820192
-38.337036 -35.544151 18.654757
-37.761372 -37.560452 19.675318
-38.090542 -37.556763 17.475328
-37.771633 -39.441525 15.943411
-38.293022 -37.481583 15.08565
-38.484467 -34.753174 9.23592
-38.413391 -36.756435 10.296845
-38.358009 -36.120754 7.743586
-38.178322 -37.406017 6.110194
-38.264214 -35.333164 5.276776
-38.053257 -33.356209 0.631082
-27.931589 -45.814461 31.02319
-29.018129 -46.645287 29.724621
-29.307438 -44.638161 30.549328
-30.535831 -43.444454 30.03973
-31.688835 -42.029385 29.524349
-26.015266 -58.617622 20.405827
-32.275539 -48.731438 22.383272
-31.652178 -50.392567 20.923384
-32.923763 -48.687984 20.127474
-33.453213 -48.494339 17.914227
-34.964962 -46.495682 14.499435
-35.987003 -44.594765 13.587056
-36.847095 -42.723145 12.678541
-21.692345 -55.779167 30.035757
-36.57827 -33.064228 25.841284
-38.907505 -31.771839 16.578114
-38.801495 -33.591404 15.32487
-38.64061 -35.377132 14.138489
-38.756294 -33.379597 13.151299
-38.589291 -33.173965 10.766335
-38.357819 -32.726086 8.554228
-25.848656 -54.178249 27.318857
-26.739391 -54.741879 25.419029
-27.415785 -52.770145 26.675549
-28.824266 -51.546597 25.892311
-30.297014 -49.952011 25.234255
-30.001656 -47.347626 28.213957
-30.792917 -47.973888 26.582865
-31.658291 -48.338352 24.566601
-32.881954 -46.809315 23.819277
-34.057716 -45.097519 23.131559
-35.190575 -43.269474 22.313223
-23.853319 -52.34296 30.465805
-24.852428 -53.401371 29.010521
-27.394007 -55.235683 23.393894
-30.830784 -52.083961 19.585985
-30.574135 -39.51527 31.416849
-31.763634 -39.974598 30.245968
-32.874542 -40.253483 28.927032
-33.692806 -36.409054 29.199005
-33.852825 -38.48991 28.369801
-33.83519 -40.678631 27.419706
-34.778965 -40.954025 25.613325
-35.520947 -41.271748 23.662544
-36.143528 -41.502403 21.502798
-37.420135 -33.089157 23.956648
-38.525227 -31.410936 20.838598
-38.039783 -33.31868 21.942509
-37.410004 -35.347927 22.920059
-37.276829 -37.456566 21.859495
-37.020397 -39.547985 20.63674
-36.665131 -41.47554 19.282349
-37.057003 -41.382206 16.926514
-37.351116 -41.141319 14.503412
-37.565105 -40.748569 12.034211
-38.40387 -37.147011 12.740726
-38.11195 -38.684471 11.064146
-37.712578 -40.24707 9.489106
-37.86277 -39.407684 6.936963
-37.939056 -38.648987 4.414774
-38.037354 -37.62748 1.976408
-38.113922 -33.314796 4.616249
-38.157425 -34.417007 2.928319
-38.17094 -35.503414 1.261124
-29.108764 -40.658384 32.154595
-29.031411 -41.425238 31.985383
-28.589557 -41.199123 32.322541
-28.589557 -41.199123 32.322541
-28.067932 -41.421681 32.52208
-38.586792 -28.622226 12.699697
-38.773832 -28.583154 13.781273
-38.559544 -29.524908 12.155966
-38.586792 -28.622226 12.699697
-27.478164 -44.339379 31.904012
-27.735396 -43.288353 32.120792
-28.070474 -44.846596 31.343986
-27.339279 -45.307243 31.583216
-27.478164 -44.339379 31.904012
-27.066148 -56.982566 20.636258
-26.696461 -57.818906 19.934455
-26.384954 -57.781282 21.10763
-34.20937 -47.565059 16.122425
-33.630629 -48.447834 16.632431
-34.031954 -47.611565 17.40422
-34.787829 -46.612236 15.696824
-34.386503 -47.448505 14.925035
-34.20937 -47.565059 16.122425
-22.500445 -55.16881 29.79202
-22.022029 -54.665463 30.430703
-22.830129 -54.055105 30.186966
-21.971037 -57.375997 28.74071
-22.480666 -57.764026 27.926358
-36.512848 -31.862252 26.248626
-36.09713 -32.84395 26.699974
-38.475538 -32.146242 10.306636
-38.630896 -32.333801 11.44696
-38.517144 -31.306078 10.987262
-38.359803 -31.922303 9.200582
-38.473555 -32.950026 9.660281
-38.475538 -32.146242 10.306636
-24.094151 -51.295797 30.842973
-23.296551 -51.779445 31.082426
-28.521155 -54.491936 21.817736
-29.191485 -53.728688 21.36946
-34.941502 -46.75787 11.124987
-34.756197 -47.030571 12.413958
-37.305975 -41.151359 4.317316
-36.948431 -42.248137 4.703758
-37.167484 -41.636248 5.567781
-37.60109 -40.097753 3.914557
-37.305975 -41.151359 4.317316
-30.378548 -38.549244 31.748484
-29.978082 -39.352396 31.868045
-34.192711 -35.50703 28.798347
-33.56492 -35.365244 29.55292
-34.064825 -34.463221 29.152262
-37.68355 -31.071108 23.869232
-38.00168 -30.111776 23.332411
-37.739313 -32.138815 23.390514
-37.364372 -32.02145 24.435367
-37.68355 -31.071108 23.869232
-38.659777 -31.560764 19.808373
-38.698502 -30.422062 20.24924
-38.833052 -30.57189 19.219015
-37.80858 -31.837437 3.12098
-37.640047 -31.362993 1.991808
-38.002071 -32.839359 3.446026
-37.920431 -32.312874 4.291203
-37.80858 -31.837437 3.12098
-38.175346 -34.877901 0.086545
-38.112099 -34.429811 0.946103
-38.116505 -33.804299 -0.228475
-38.159769 -35.917635 0.39799
-38.175346 -34.877901 0.086545
-27.886817 -42.331976 32.365065
-28.067932 -41.421681 32.52208
-28.360782 -42.922354 31.909055
-27.735396 -43.288353 32.120792
-27.886817 -42.331976 32.365065
-24.843504 -58.42795 23.735405
-24.535066 -59.3927 22.967128
-24.141566 -59.229746 24.015384
-22.960683 -58.138945 27.068371
-22.480666 -57.764026 27.926358
-23.205991 -57.113588 27.662333
-23.384003 -58.512169 26.129988
-22.960683 -58.138945 27.068371
-23.766002 -58.900413 25.119646
-23.384003 -58.512169 26.129988
-24.068007 -57.876751 25.794003
-24.141566 -59.229746 24.015384
-23.766002 -58.900413 25.119646
-38.879492 -28.635414 14.866139
-38.991123 -28.692864 15.972874
-38.84299 -29.607185 14.377075
-38.879492 -28.635414 14.866139
-38.773832 -28.583154 13.781273
-38.527129 -30.494264 11.573654
-38.704916 -30.52428 12.709898
-38.559544 -29.524908 12.155966
-38.517144 -31.306078 10.987262
-38.527129 -30.494264 11.573654
-25.623501 -47.408213 31.725678
-25.820967 -46.317289 32.025275
-25.353116 -48.520823 31.374564
-25.623501 -47.408213 31.725678
-26.141509 -48.035919 31.141254
-25.103054 -49.698582 31.005141
-25.353116 -48.520823 31.374564
-25.69012 -50.212235 30.327412
-24.922049 -50.762287 30.542412
-25.103054 -49.698582 31.005141
-29.866164 -52.95662 20.99774
-29.191485 -53.728688 21.36946
-29.548105 -52.929066 22.121761
-31.753708 -51.178368 17.779261
-32.390533 -50.287183 17.363636
-35.949127 -44.822212 10.158182
-35.458342 -45.798504 10.643929
-35.780099 -45.124157 11.488152
-36.069704 -44.54761 8.925037
-35.949127 -44.822212 10.158182
-36.391462 -43.873263 9.76926
-36.225043 -44.189097 7.604524
-36.069704 -44.54761 8.925037
-36.660989 -43.165842 7.245169
-36.373993 -43.756279 6.313579
-36.225043 -44.189097 7.604524
-31.321934 -36.88713 31.34796
-30.838861 -37.735157 31.558183
-31.972919 -37.000986 30.790721
-31.321934 -36.88713 31.34796
-32.570658 -37.157183 30.190483
-32.0925 -38.043293 30.436007
-31.972919 -37.000986 30.790721
-38.292675 -30.224582 22.296652
-38.00168 -30.111776 23.332411
-37.787249 -31.829892 1.168777
-37.640047 -31.362993 1.991808
-37.868767 -32.326036 0.346416
-37.971739 -32.860066 1.453443
-37.787249 -31.829892 1.168777
-38.009175 -32.756397 -0.491049
-37.868767 -32.326036 0.346416
-38.116505 -33.804299 -0.228475
-38.009175 -32.756397 -0.491049
-26.579431 -45.861668 31.817805
-25.820967 -46.317289 32.025275
-27.171741 -46.368885 31.257779
-26.579431 -45.861668 31.817805
-27.339279 -45.307243 31.583216
-24.907425 -59.494152 21.87013
-24.535066 -59.3927 22.967128
-25.296557 -59.507511 20.729468
-24.907425 -59.494152 21.87013
-25.626134 -58.604263 21.546488
-25.639675 -59.482224 19.588796
-25.296557 -59.507511 20.729468
-26.293201 -58.630703 19.215286
-25.639675 -59.482224 19.588796
-26.293201 -58.630703 19.215286
-26.696461 -57.818906 19.934455
-33.044506 -49.328956 17.03266
-32.390533 -50.287183 17.363636
-32.79924 -49.452566 18.245202
-33.044506 -49.328956 17.03266
-33.630629 -48.447834 16.632431
-34.594021 -47.228188 13.676727
-34.386503 -47.448505 14.925035
-35.127138 -46.298065 13.236667
-34.756197 -47.030571 12.413958
-34.594021 -47.228188 13.676727
-21.15725 -55.168869 30.714223
-22.022029 -54.665463 30.430703
-20.909234 -56.351437 30.259408
-21.15725 -55.168869 30.714223
-21.454222 -56.896246 29.498428
-22.20916 -56.258919 29.278039
-21.971037 -57.375997 28.74071
-20.909234 -56.351437 30.259408
-21.454222 -56.896246 29.498428
-34.561605 -33.504364 28.77111
-34.064825 -34.463221 29.152262
-35.154303 -33.614339 27.978177
-34.561605 -33.504364 28.77111
-35.697458 -33.771766 27.134802
-35.235771 -34.762434 27.554316
-35.154303 -33.614339 27.978177
-36.178599 -33.992044 26.276112
-35.697458 -33.771766 27.134802
-36.09713 -32.84395 26.699974
-38.891859 -30.748928 18.19955
-38.833052 -30.57189 19.219015
-38.96902 -29.723354 16.541447
-38.991123 -28.692864 15.972874
-38.948448 -30.779552 17.099533
-38.96902 -29.723354 16.541447
-38.928078 -30.715642 16.020027
-38.850916 -31.741215 17.678131
-38.891859 -30.748928 18.19955
-38.948448 -30.779552 17.099533
-23.102516 -52.947359 30.645727
-23.296551 -51.779445 31.082426
-23.580931 -53.450706 30.007044
-22.830129 -54.055105 30.186966
-23.102516 -52.947359 30.645727
-24.681217 -51.80945 30.165244
-24.094151 -51.295797 30.842973
-24.922049 -50.762287 30.542412
-27.781447 -55.259211 22.267943
-28.133716 -54.468409 22.943687
-28.521155 -54.491936 21.817736
-27.461763 -56.11384 21.475712
-27.074324 -56.090312 22.601664
-27.781447 -55.259211 22.267943
-27.066148 -56.982566 20.636258
-27.461763 -56.11384 21.475712
-30.170164 -52.920101 19.915712
-29.866164 -52.95662 20.99774
-30.526784 -52.12048 20.668012
-31.096467 -52.014952 18.284165
-31.488025 -51.247377 19.081081
-31.753708 -51.178368 17.779261
-30.448377 -52.863438 18.726057
-31.096467 -52.014952 18.284165
-30.170164 -52.920101 19.915712
-30.448377 -52.863438 18.726057
-34.941502 -46.75787 11.124987
-35.458342 -45.798504 10.643929
-36.553653 -43.272625 5.01495
-36.373993 -43.756279 6.313579
-36.553653 -43.272625 5.01495
-36.948431 -42.248137 4.703758
-29.466324 -40.03701 32.06834
-29.108764 -40.658384 32.154595
-30.062377 -40.199884 31.617143
-29.466324 -40.03701 32.06834
-29.978082 -39.352396 31.868045
-31.034448 -38.701183 31.226547
-30.378548 -38.549244 31.748484
-30.838861 -37.735157 31.558183
-33.071941 -36.261965 29.872101
-33.56492 -35.365244 29.55292
-33.191522 -37.304272 29.517387
-32.570658 -37.157183 30.190483
-33.071941 -36.261965 29.872101
-36.943439 -32.008986 25.377685
-36.512848 -31.862252 26.248626
-36.999203 -33.076693 24.898966
-36.943439 -32.008986 25.377685
-37.364372 -32.02145 24.435367
-38.526043 -30.335814 21.303762
-38.698502 -30.422062 20.24924
-38.291859 -31.299704 21.831488
-38.292675 -30.224582 22.296652
-38.526043 -30.335814 21.303762
-37.808104 -39.152512 3.531275
-37.60109 -40.097753 3.914557
-37.732042 -39.594229 4.798057
-37.857253 -38.641758 2.312092
-37.808104 -39.152512 3.531275
-37.988205 -38.138233 3.195591
-37.95233 -38.076721 1.082138
-37.857253 -38.641758 2.312092
-38.173703 -31.698855 8.12181
-38.359803 -31.922303 9.200582
-38.209024 -32.394503 7.439514
-38.173703 -31.698855 8.12181
-38.186523 -33.046261 6.61838
-38.335318 -33.377844 7.733094
-38.209024 -32.394503 7.439514
-38.087076 -32.688858 5.470524
-37.920431 -32.312874 4.291203
-38.213369 -33.672199 5.764105
-38.186523 -33.046261 6.61838
-38.087076 -32.688858 5.470524
-38.092976 -36.979668 0.755632
-38.104147 -36.565447 1.618766
-38.159769 -35.917635 0.39799
-37.95233 -38.076721 1.082138
-38.092976 -36.979668 0.755632
3 157 41 158
3 159 158 39
3 157 158 159
3 160 39 161
3 0 44 42
3 1 47 45
3 1 49 47
3 0 52 50
3 0 42 52
3 162 54 163
3 165 164 54
3 2 58 56
3 4 61 59
3 4 63 61
3 2 65 64
3 2 56 65
3 3 69 67
3 5 71 70
3 5 73 71
3 6 77 75
3 6 79 77
3 7 82 80
3 7 84 82
3 7 86 84
3 8 89 87
3 8 91 89
3 9 95 93
3 11 96 40
3 11 97 96
3 9 166 167
3 9 168 170
3 168 93 169
3 168 169 170
3 12 98 43
3 12 171 173
3 173 172 98
3 171 172 173
3 13 101 99
3 15 102 46
3 15 174 176
3 176 175 102
3 174 175 176
3 15 177 179
3 177 103 178
3 177 178 179
3 17 104 48
3 17 105 104
3 18 180 182
3 180 106 181
3 180 181 182
3 184 183 51
3 185 107 186
3 21 108 53
3 21 109 108
3 21 111 109
3 187 112 188
3 189 188 55
3 187 188 189
3 190 113 191
3 192 191 112
3 190 191 192
3 23 116 114
3 25 117 57
3 25 118 117
3 10 119 94
3 26 120 60
3 26 121 120
3 26 122 121
3 27 123 62
3 27 124 123
3 193 125 194
3 23 126 66
3 23 114 126
3 24 127 115
3 196 195 68
3 14 128 100
3 16 197 198
3 28 199 201
3 201 200 72
3 199 200 201
3 28 202 203
3 204 129 205
3 29 130 74
3 29 131 130
3 19 206 208
3 206 132 207
3 206 207 208
3 30 133 76
3 30 134 133
3 30 135 134
3 31 136 78
3 31 137 136
3 32 209 210
3 32 211 213
3 211 138 212
3 211 212 213
3 20 214 216
3 214 139 215
3 214 215 216
3 33 140 81
3 33 141 140
3 33 142 141
3 34 143 83
3 34 144 143
3 34 145 144
3 35 146 85
3 35 147 146
3 22 148 110
3 36 149 88
3 36 150 149
3 36 151 150
3 37 152 90
3 37 153 152
3 38 217 218
3 38 219 221
3 219 154 220
3 219 220 221
3 38 155 154
3 222 156 223
3 224 223 92
3 222 223 224
3 226 225 156
3 39 40 9
3 41 40 39
3 41 11 40
3 39 227 228
3 39 229 231
3 229 9 230
3 229 230 231
3 42 232 234
3 232 43 233
3 232 233 234
3 44 43 42
3 44 12 43
3 45 46 13
3 47 46 45
3 47 15 46
3 47 48 15
3 49 48 47
3 49 17 48
3 50 51 18
3 52 51 50
3 52 235 237
3 237 236 51
3 235 236 237
3 52 238 239
3 42 240 242
3 242 241 52
3 240 241 242
3 42 243 244
3 245 53 246
3 54 247 249
3 247 53 248
3 247 248 249
3 54 21 53
3 54 55 21
3 250 55 251
3 252 251 54
3 250 251 252
3 254 253 55
3 56 57 23
3 58 57 56
3 58 25 57
3 59 60 10
3 61 60 59
3 61 26 60
3 61 62 26
3 63 62 61
3 63 27 62
3 64 255 256
3 65 257 259
3 259 258 64
3 257 258 259
3 65 260 261
3 65 262 264
3 262 66 263
3 262 263 264
3 56 66 65
3 56 23 66
3 67 68 24
3 69 68 67
3 69 265 267
3 267 266 68
3 265 266 267
3 269 268 14
3 70 270 272
3 272 271 16
3 270 271 272
3 71 273 275
3 275 274 70
3 273 274 275
3 71 276 277
3 71 278 280
3 278 72 279
3 278 279 280
3 73 72 71
3 73 28 72
3 281 74 282
3 283 74 284
3 285 29 286
3 287 286 74
3 285 286 287
3 75 76 19
3 77 76 75
3 77 30 76
3 77 78 30
3 79 78 77
3 79 31 78
3 288 32 289
3 80 81 20
3 82 81 80
3 82 33 81
3 82 83 33
3 84 83 82
3 84 34 83
3 84 85 34
3 86 85 84
3 86 35 85
3 87 88 22
3 89 88 87
3 89 36 88
3 89 90 36
3 91 90 89
3 91 37 90
3 290 38 291
3 292 92 293
3 294 293 38
3 292 293 294
3 295 92 296
3 298 297 92
3 93 94 2
3 95 94 93
3 95 10 94
3 40 95 9
3 96 95 40
3 96 10 95
3 96 59 10
3 97 59 96
3 97 4 59
3 299 64 300
3 93 301 303
3 301 64 302
3 301 302 303
3 93 2 64
3 43 304 305
3 98 306 308
3 308 307 43
3 306 307 308
3 98 309 310
3 98 311 312
3 314 313 98
3 99 100 3
3 101 100 99
3 101 14 100
3 46 101 13
3 102 101 46
3 102 14 101
3 102 315 317
3 317 316 14
3 315 316 317
3 319 318 102
3 103 320 321
3 103 322 324
3 322 16 323
3 322 323 324
3 48 103 15
3 104 103 48
3 104 16 103
3 104 70 16
3 105 70 104
3 105 5 70
3 106 325 326
3 106 327 328
3 51 106 18
3 329 106 330
3 331 330 51
3 329 330 331
3 333 332 106
3 334 19 335
3 336 19 337
3 338 75 339
3 340 339 19
3 338 339 340
3 107 341 343
3 341 75 342
3 341 342 343
3 107 6 75
3 344 20 345
3 53 346 347
3 108 348 350
3 350 349 53
3 348 349 350
3 108 351 353
3 351 20 352
3 351 352 353
3 108 80 20
3 109 80 108
3 109 7 80
3 109 110 7
3 111 110 109
3 111 22 110
3 55 111 21
3 112 111 55
3 112 22 111
3 112 87 22
3 113 87 112
3 113 8 87
3 114 115 0
3 116 115 114
3 116 24 115
3 57 116 23
3 117 116 57
3 117 24 116
3 117 67 24
3 118 67 117
3 118 3 67
3 94 58 2
3 119 58 94
3 119 25 58
3 60 119 10
3 120 119 60
3 120 25 119
3 120 118 25
3 121 118 120
3 121 3 118
3 121 99 3
3 122 99 121
3 122 13 99
3 62 122 26
3 123 122 62
3 123 13 122
3 123 45 13
3 124 45 123
3 124 1 45
3 125 354 355
3 125 356 358
3 356 18 357
3 356 357 358
3 66 359 361
3 359 125 360
3 359 360 361
3 126 125 66
3 126 18 125
3 126 50 18
3 114 50 126
3 114 0 50
3 115 44 0
3 127 44 115
3 127 12 44
3 68 127 24
3 362 127 363
3 364 363 68
3 362 363 364
3 365 12 366
3 367 366 127
3 365 366 367
3 369 368 12
3 100 69 3
3 128 69 100
3 128 370 372
3 372 371 69
3 370 371 372
3 373 128 374
3 375 374 14
3 373 374 375
3 376 128 377
3 379 378 128
3 381 380 16
3 72 382 383
3 385 384 72
3 386 41 387
3 129 388 390
3 388 41 389
3 388 389 390
3 129 11 41
3 74 391 393
3 391 129 392
3 391 392 393
3 130 129 74
3 130 11 129
3 130 97 11
3 131 97 130
3 131 4 97
3 132 394 395
3 132 396 398
3 396 29 397
3 396 397 398
3 76 132 19
3 133 132 76
3 133 29 132
3 133 131 29
3 134 131 133
3 134 4 131
3 134 63 4
3 135 63 134
3 135 27 63
3 78 135 30
3 136 135 78
3 136 27 135
3 136 124 27
3 137 124 136
3 137 1 124
3 399 107 400
3 138 401 403
3 401 107 402
3 401 402 403
3 138 6 107
3 139 404 405
3 139 406 408
3 406 32 407
3 406 407 408
3 81 139 20
3 140 139 81
3 140 32 139
3 140 138 32
3 141 138 140
3 141 6 138
3 141 79 6
3 142 79 141
3 142 31 79
3 83 142 33
3 143 142 83
3 143 31 142
3 143 137 31
3 144 137 143
3 144 1 137
3 144 49 1
3 145 49 144
3 145 17 49
3 85 145 34
3 146 145 85
3 146 17 145
3 146 105 17
3 147 105 146
3 147 5 105
3 110 86 7
3 148 86 110
3 148 35 86
3 88 148 22
3 149 148 88
3 149 35 148
3 149 147 35
3 150 147 149
3 150 5 147
3 150 73 5
3 151 73 150
3 151 28 73
3 90 151 36
3 152 151 90
3 152 28 151
3 152 409 411
3 411 410 28
3 409 410 411
3 153 412 414
3 414 413 152
3 412 413 414
3 153 415 416
3 417 113 418
3 419 113 420
3 421 8 422
3 423 422 113
3 421 422 423
3 154 424 425
3 154 426 428
3 426 8 427
3 426 427 428
3 154 91 8
3 155 91 154
3 155 37 91
3 92 155 38
3 156 155 92
3 156 37 155
3 156 153 37
3 429 153 430
3 431 430 156
3 429 430 431
3 433 432 153
