ply
format ascii 1.0
element vertex 332
property float x
property float y
property float z
element face 350
property list uchar int vertex_index
end_header
-16.575109 -62.446892 -32.293568
-10.660212 -48.886456 -38.201885
-10.898592 -61.805645 -38.74511
-4.579156 -45.625961 -44.407036
-14.979403 -49.184036 -32.005592
-9.805895 -36.817955 -37.712406
-9.450857 -73.842491 -39.524006
-7.698593 -41.340847 -41.149689
-7.791169 -47.397781 -41.401192
-4.828001 -39.383305 -44.439568
-14.497495 -43.310581 -31.828531
-12.360336 -43.123436 -34.952835
-12.124 -37.494144 -34.596733
-17.125031 -68.918205 -32.614697
-7.038153 -59.72694 -41.725544
-10.48 -67.909874 -39.049583
-6.058072 -65.70858 -41.930836
-13.646776 -55.960278 -35.294994
-14.111869 -62.310497 -35.530373
-10.865894 -55.092682 -38.526669
-7.708489 -53.701511 -41.493649
-3.911883 -51.66251 -44.358181
-18.286215 -61.740097 -29.058355
-15.778894 -55.703659 -32.100464
-12.905939 -49.157032 -35.200829
-10.15792 -42.502815 -38.007824
-14.207091 -68.971558 -35.942856
-13.712633 -75.351883 -36.547565
-6.363271 -37.759575 -42.57954
-6.305643 -40.581055 -42.797871
-14.267151 -40.308304 -31.905655
-13.224238 -40.284054 -33.331291
-13.271041 -37.643181 -33.109188
-17.8643 -65.282333 -30.818516
-16.811989 -65.693512 -32.542168
-4.952558 -58.433407 -43.106968
-6.567098 -62.842327 -41.830254
-12.212186 -52.471405 -36.671833
-12.287104 -55.396145 -36.939537
-10.743895 -51.842186 -38.40757
-6.277355 -46.531689 -42.886848
-7.81196 -50.458946 -41.431019
-6.174724 -49.634254 -42.884407
-5.872509 -52.672245 -42.954582
-19.333326 -64.218704 -27.509958
-16.19173 -52.327755 -30.584137
-16.595594 -55.446129 -30.604361
-15.362678 -52.463013 -32.058372
-14.340109 -52.360714 -33.6735
-13.970863 -49.172031 -33.610291
-11.082416 -39.891201 -36.307491
-11.277216 -42.96944 -36.498878
-9.95146 -39.502735 -37.862514
-8.691544 -38.927059 -39.553383
-12.57311 -62.12352 -37.176888
-14.073483 -65.492851 -35.855618
-12.482464 -65.465096 -37.4123
-9.975579 -70.915695 -39.321178
-12.150687 -71.692177 -37.772743
-11.570338 -74.66349 -38.146584
-11.003132 -77.717873 -38.388958
-8.51925 -76.390923 -39.88578
-9.190685 -45.134857 -39.634136
-9.248404 -48.113167 -39.834526
-7.834178 -44.455067 -41.217522
-6.249998 -43.432846 -42.926018
-4.734184 -42.61866 -44.441265
-14.668897 -46.108089 -31.954475
-13.718508 -46.249756 -33.451618
-13.381064 -43.062782 -33.441982
-12.135638 -40.041344 -34.828419
-10.946214 -37.21376 -36.165707
-8.953876 -60.792675 -40.333176
-10.671221 -64.756172 -38.942528
-8.627194 -63.77634 -40.466354
-8.433457 -67.033607 -40.459522
-7.640601 -69.857513 -40.786942
-6.866558 -72.703033 -41.002407
-5.288561 -68.683594 -42.095444
-15.145644 -59.127144 -33.76886
-15.379721 -62.259693 -33.958847
-13.839079 -58.964676 -35.468739
-12.401284 -58.601009 -37.116325
-10.959164 -58.574551 -38.6105
-9.333726 -51.29047 -39.937172
-9.3461 -54.693581 -40.041553
-9.319484 -57.93121 -40.090019
-7.503763 -56.722126 -41.554264
-5.520941 -55.718002 -42.979004
-3.252798 -54.292408 -44.473579
-18.722483 -64.865105 -29.108154
-17.431574 -61.931854 -30.771881
-17.802464 -58.348122 -29.027931
-17.100025 -58.796234 -30.554188
-16.119091 -58.921116 -32.268578
-14.754063 -55.711182 -33.705235
-13.321709 -52.480186 -35.183395
-11.812364 -49.03389 -36.709999
-12.603438 -46.142879 -35.109131
-11.528109 -45.903446 -36.614483
-10.437547 -45.758015 -38.088734
-9.018455 -42.021435 -39.499084
-7.593148 -38.433243 -41.005962
-15.57011 -65.808731 -34.196873
-15.7354 -69.11348 -34.355015
-15.742469 -72.372185 -34.606426
-12.503695 -68.695885 -37.471157
-14.117677 -72.37484 -36.164967
-15.713305 -75.570984 -34.790451
-5.963199 -75.064865 -41.228783
-5.67269 -37.180191 -43.420395
-5.692162 -35.843338 -43.357265
-14.364539 -38.996488 -31.756147
-14.833171 -40.261797 -31.144022
-13.866484 -37.663927 -32.357914
-13.769096 -38.975742 -32.507421
-14.364539 -38.996488 -31.756147
-4.645358 -59.940325 -43.146912
-3.918548 -57.991568 -43.712776
-4.465924 -47.156221 -44.374285
-5.263708 -49.160367 -43.612971
-5.37694 -47.630107 -43.645722
-3.677645 -44.892691 -45.170643
-4.465924 -47.156221 -44.374285
-15.585566 -50.755896 -31.294864
-16.046506 -50.793314 -30.528793
-15.440342 -49.221455 -31.239521
-9.207382 -36.544426 -38.526198
-9.280165 -37.886816 -38.601252
-9.878678 -38.160345 -37.78746
-4.089739 -38.908915 -45.212168
-4.04283 -40.526592 -45.213017
-4.781092 -41.000982 -44.440416
-15.060488 -44.70545 -31.137766
-14.933397 -43.109791 -31.171911
-14.583196 -44.709335 -31.891503
-15.146189 -46.104204 -31.200738
-15.060488 -44.70545 -31.137766
-17.813707 -70.539608 -31.881276
-17.708348 -68.855621 -31.739628
-17.181431 -70.620525 -32.754436
-17.813707 -70.539608 -31.881276
-2.886178 -50.789081 -45.071869
-2.556635 -52.104031 -45.129568
-3.58234 -52.977459 -44.41588
-17.577628 -56.787503 -29.051832
-18.086118 -57.952956 -28.279514
-7.500972 -37.015898 -40.98267
-8.142346 -38.680151 -40.279672
-8.05017 -37.262806 -40.25638
-6.896116 -36.619018 -41.793663
-7.500972 -37.015898 -40.98267
-14.562881 -77.052105 -35.831629
-15.563217 -77.161655 -34.953072
-14.712969 -75.461433 -35.669008
-5.140032 -73.058056 -41.776097
-6.414879 -73.883949 -41.115595
-5.591711 -71.87714 -41.662909
-5.643876 -38.590931 -43.529561
-6.334457 -39.170315 -42.688705
-5.67269 -37.180191 -43.420395
-4.905055 -37.992056 -44.350409
-5.566822 -39.98218 -43.618719
-5.643876 -38.590931 -43.529561
-4.207461 -37.481901 -45.16556
-4.905055 -37.992056 -44.350409
-14.818225 -41.608652 -31.210473
-14.833171 -40.261797 -31.144022
-14.382323 -41.809443 -31.867093
-14.933397 -43.109791 -31.171911
-14.818225 -41.608652 -31.210473
-18.077983 -67.037685 -30.841538
-18.501516 -66.685779 -30.003436
-17.551828 -67.243274 -31.703363
-18.077983 -67.037685 -30.841538
-17.338144 -65.487922 -31.680342
-16.96851 -67.305858 -32.578432
-17.708348 -68.855621 -31.739628
-17.551828 -67.243274 -31.703363
-5.452628 -62.144785 -42.508555
-5.759828 -60.637867 -42.468611
-4.645358 -59.940325 -43.146912
-5.198115 -63.577911 -42.558846
-6.312585 -64.275453 -41.880545
-5.452628 -62.144785 -42.508555
-4.898183 -65.078151 -42.573357
-5.198115 -63.577911 -42.558846
-5.112601 -50.679363 -43.648058
-6.023617 -51.15325 -42.919494
-5.263708 -49.160367 -43.612971
-4.132288 -50.174495 -44.349857
-4.892196 -52.167378 -43.656382
-5.112601 -50.679363 -43.648058
-3.134135 -49.377987 -45.108441
-4.132288 -50.174495 -44.349857
-19.564148 -63.754762 -26.692626
-19.793534 -65.369278 -26.733551
-19.112696 -62.599306 -27.458844
-19.564148 -63.754762 -26.692626
-18.589141 -61.360003 -28.233042
-18.80977 -62.9794 -28.284157
-19.112696 -62.599306 -27.458844
-16.572978 -52.135035 -29.838014
-16.046506 -50.793314 -30.528793
-16.772261 -53.777319 -29.829935
-16.572978 -52.135035 -29.838014
-16.393662 -53.886942 -30.594249
-16.974193 -55.336506 -29.840047
-16.772261 -53.777319 -29.829935
-8.650206 -37.598978 -39.446686
-9.321502 -39.214897 -38.707949
-9.280165 -37.886816 -38.601252
-8.05017 -37.262806 -40.25638
-8.650206 -37.598978 -39.446686
-12.392635 -76.448925 -37.515419
-13.463783 -76.793121 -36.715909
-12.641485 -75.007687 -37.347074
-12.109032 -77.976116 -37.636606
-12.392635 -76.448925 -37.515419
-11.286735 -76.190681 -38.267771
-11.79824 -79.377144 -37.787924
-12.109032 -77.976116 -37.636606
-10.568096 -78.936264 -38.560461
-11.79824 -79.377144 -37.787924
-9.326155 -78.272789 -39.308872
-10.568096 -78.936264 -38.560461
-9.761191 -77.054398 -39.137369
-8.087815 -77.709049 -39.984535
-9.326155 -78.272789 -39.308872
-3.910025 -42.01839 -45.209944
-3.832511 -43.522041 -45.192829
-4.65667 -44.12231 -44.42415
-3.910025 -42.01839 -45.209944
-4.04283 -40.526592 -45.213017
-4.089739 -38.908915 -45.212168
-4.207461 -37.481901 -45.16556
-15.285089 -47.683481 -31.213963
-15.146189 -46.104204 -31.200738
-14.82415 -47.646062 -31.980033
-15.440342 -49.221455 -31.239521
-15.285089 -47.683481 -31.213963
-4.802713 -69.867421 -42.209427
-5.591711 -71.87714 -41.662909
-6.077559 -70.693314 -41.548925
-4.513427 -66.565658 -42.655661
-5.673317 -67.196087 -42.01314
-4.898183 -65.078151 -42.573357
-4.013736 -67.854691 -42.746783
-4.513427 -66.565658 -42.655661
-4.802713 -69.867421 -42.209427
-4.013736 -67.854691 -42.746783
-3.068668 -55.921068 -44.396082
-3.918548 -57.991568 -43.712776
-4.102678 -56.362908 -43.790273
-2.248916 -53.54415 -45.100676
-3.068668 -55.921068 -44.396082
-2.248916 -53.54415 -45.100676
-2.556635 -52.104031 -45.129568
-2.886178 -50.789081 -45.071869
-3.134135 -49.377987 -45.108441
-3.677645 -44.892691 -45.170643
-3.832511 -43.522041 -45.192829
-19.565596 -65.816502 -27.52794
-19.793534 -65.369278 -26.733551
-19.260175 -66.139702 -28.327039
-19.565596 -65.816502 -27.52794
-19.027904 -64.541905 -28.309056
-18.930607 -66.477165 -29.148255
-19.260175 -66.139702 -28.327039
-18.293391 -65.073719 -29.963335
-18.501516 -66.685779 -30.003436
-18.930607 -66.477165 -29.148255
-18.347265 -59.664015 -28.21783
-18.086118 -57.952956 -28.279514
-18.044339 -60.044109 -29.043143
-18.589141 -61.360003 -28.233042
-18.347265 -59.664015 -28.21783
-17.199029 -56.897126 -29.816146
-17.577628 -56.787503 -29.051832
-16.974193 -55.336506 -29.840047
-6.281177 -36.282184 -42.580452
-6.97821 -38.096409 -41.792751
-6.896116 -36.619018 -41.793663
-5.692162 -35.843338 -43.357265
-6.281177 -36.282184 -42.580452
-13.299131 -36.384907 -33.080527
-13.866484 -37.663927 -32.357914
-12.701435 -36.303657 -33.80546
-13.299131 -36.384907 -33.080527
-12.127914 -36.229139 -34.549233
-12.69752 -37.568663 -33.852961
-12.701435 -36.303657 -33.80546
-11.543183 -36.140422 -35.284603
-12.127914 -36.229139 -34.549233
-10.95429 -36.000231 -36.06909
-11.535107 -37.353952 -35.38122
-11.543183 -36.140422 -35.284603
-10.361622 -35.751314 -36.839291
-10.95429 -36.000231 -36.06909
-9.791462 -35.553411 -37.61264
-10.376054 -37.015857 -36.939056
-10.361622 -35.751314 -36.839291
-9.204403 -35.288503 -38.399801
-9.791462 -35.553411 -37.61264
-9.207382 -36.544426 -38.526198
-9.204403 -35.288503 -38.399801
-16.486615 -70.718163 -33.624595
-17.181431 -70.620525 -32.754436
-16.430215 -69.015842 -33.484856
-16.49015 -72.347515 -33.750301
-16.486615 -70.718163 -33.624595
-15.738934 -70.742832 -34.480721
-16.497667 -73.973053 -33.886726
-16.49015 -72.347515 -33.750301
-16.483085 -75.572452 -33.978739
-16.497667 -73.973053 -33.886726
-15.727887 -73.971585 -34.698438
-16.43681 -77.259552 -34.112781
-16.483085 -75.572452 -33.978739
-16.43681 -77.259552 -34.112781
-15.563217 -77.161655 -34.953072
-14.562881 -77.052105 -35.831629
-13.463783 -76.793121 -36.715909
-6.809789 -77.04602 -40.656036
-8.087815 -77.709049 -39.984535
-7.241224 -75.727894 -40.557282
-4.652462 -74.297436 -41.841999
-5.140032 -73.058056 -41.776097
-5.538021 -76.319512 -41.27133
-4.652462 -74.297436 -41.841999
-6.809789 -77.04602 -40.656036
-5.538021 -76.319512 -41.27133
3 111 110 28
3 112 30 113
3 114 32 115
3 116 115 30
3 114 115 116
3 0 34 33
3 118 117 35
3 1 39 37
3 3 42 40
3 3 119 121
3 121 120 42
3 119 120 121
3 3 122 123
3 4 124 126
3 124 45 125
3 124 125 126
3 4 47 45
3 4 49 47
3 5 52 50
3 5 127 129
3 129 128 52
3 127 128 129
3 2 56 54
3 6 59 57
3 6 60 59
3 6 61 60
3 7 64 62
3 9 65 29
3 9 66 65
3 9 130 132
3 132 131 66
3 130 131 132
3 10 133 134
3 10 135 137
3 135 67 136
3 135 136 137
3 10 69 67
3 12 70 31
3 12 71 70
3 13 138 139
3 13 140 141
3 14 74 72
3 16 75 36
3 16 76 75
3 16 78 76
3 17 81 79
3 19 82 38
3 19 83 82
3 8 84 63
3 20 85 41
3 20 86 85
3 20 87 86
3 21 88 43
3 21 89 88
3 21 142 144
3 144 143 89
3 142 143 144
3 22 90 44
3 22 91 90
3 145 92 146
3 23 93 46
3 23 94 93
3 23 95 94
3 24 96 48
3 24 97 96
3 11 98 68
3 25 99 51
3 25 100 99
3 25 101 100
3 147 102 148
3 149 148 53
3 147 148 149
3 151 150 102
3 18 103 80
3 26 104 55
3 26 105 104
3 15 106 73
3 27 107 58
3 27 108 107
3 27 152 154
3 154 153 108
3 152 153 154
3 155 109 156
3 157 156 77
3 155 156 157
3 28 29 7
3 158 29 159
3 160 159 28
3 158 159 160
3 161 9 162
3 163 162 29
3 161 162 163
3 165 164 9
3 30 166 167
3 30 168 170
3 168 10 169
3 168 169 170
3 30 31 10
3 32 31 30
3 32 12 31
3 33 171 172
3 34 173 175
3 175 174 33
3 173 174 175
3 34 176 178
3 176 13 177
3 176 177 178
3 35 36 14
3 179 36 180
3 181 180 35
3 179 180 181
3 182 16 183
3 184 183 36
3 182 183 184
3 186 185 16
3 37 38 17
3 39 38 37
3 39 19 38
3 40 41 8
3 42 41 40
3 42 20 41
3 42 43 20
3 187 43 188
3 189 188 42
3 187 188 189
3 190 21 191
3 192 191 43
3 190 191 192
3 194 193 21
3 195 44 196
3 197 44 198
3 199 22 200
3 201 200 44
3 199 200 201
3 45 202 203
3 45 204 205
3 45 206 208
3 206 46 207
3 206 207 208
3 47 46 45
3 47 23 46
3 47 48 23
3 49 48 47
3 49 24 48
3 50 51 11
3 52 51 50
3 52 25 51
3 52 53 25
3 209 53 210
3 211 210 52
3 209 210 211
3 213 212 53
3 54 55 18
3 56 55 54
3 56 26 55
3 57 58 15
3 59 58 57
3 59 27 58
3 59 214 216
3 216 215 27
3 214 215 216
3 60 217 219
3 219 218 59
3 217 218 219
3 60 220 221
3 60 222 223
3 61 224 226
3 226 225 60
3 224 225 226
3 61 227 228
3 62 63 1
3 64 63 62
3 64 8 63
3 29 64 7
3 65 64 29
3 65 8 64
3 65 40 8
3 66 40 65
3 66 3 40
3 66 229 231
3 231 230 3
3 229 230 231
3 233 232 66
3 235 234 9
3 67 236 237
3 67 238 240
3 238 4 239
3 238 239 240
3 67 68 4
3 69 68 67
3 69 11 68
3 31 69 10
3 70 69 31
3 70 11 69
3 70 50 11
3 71 50 70
3 71 5 50
3 72 73 2
3 74 73 72
3 74 15 73
3 36 74 14
3 75 74 36
3 75 15 74
3 75 57 15
3 76 57 75
3 76 6 57
3 76 77 6
3 78 77 76
3 78 241 243
3 243 242 77
3 241 242 243
3 244 78 245
3 246 245 16
3 244 245 246
3 247 78 248
3 250 249 78
3 79 80 0
3 81 80 79
3 81 18 80
3 38 81 17
3 82 81 38
3 82 18 81
3 82 54 18
3 83 54 82
3 83 2 54
3 63 39 1
3 84 39 63
3 84 19 39
3 41 84 8
3 85 84 41
3 85 19 84
3 85 83 19
3 86 83 85
3 86 2 83
3 86 72 2
3 87 72 86
3 87 14 72
3 43 87 20
3 88 87 43
3 88 14 87
3 88 35 14
3 89 35 88
3 89 251 253
3 253 252 35
3 251 252 253
3 89 254 255
3 257 256 89
3 259 258 21
3 261 260 3
3 44 262 263
3 90 264 266
3 266 265 44
3 264 265 266
3 90 267 268
3 90 269 271
3 269 33 270
3 269 270 271
3 91 33 90
3 91 0 33
3 92 272 273
3 92 274 276
3 274 22 275
3 274 275 276
3 46 277 279
3 277 92 278
3 277 278 279
3 93 92 46
3 93 22 92
3 93 91 22
3 94 91 93
3 94 0 91
3 94 79 0
3 95 79 94
3 95 17 79
3 48 95 23
3 96 95 48
3 96 17 95
3 96 37 17
3 97 37 96
3 97 1 37
3 68 49 4
3 98 49 68
3 98 24 49
3 51 98 11
3 99 98 51
3 99 24 98
3 99 97 24
3 100 97 99
3 100 1 97
3 100 62 1
3 101 62 100
3 101 7 62
3 53 101 25
3 102 101 53
3 102 7 101
3 102 28 7
3 280 28 281
3 282 281 102
3 280 281 282
3 284 283 28
3 285 32 286
3 287 32 288
3 289 12 290
3 291 290 32
3 289 290 291
3 292 12 293
3 294 71 295
3 296 295 12
3 294 295 296
3 297 71 298
3 299 5 300
3 301 300 71
3 299 300 301
3 302 5 303
3 305 304 5
3 80 34 0
3 103 34 80
3 103 13 34
3 55 103 18
3 104 103 55
3 104 13 103
3 104 306 308
3 308 307 13
3 306 307 308
3 105 309 311
3 311 310 104
3 309 310 311
3 105 312 313
3 73 56 2
3 106 56 73
3 106 26 56
3 58 106 15
3 107 106 58
3 107 26 106
3 107 105 26
3 108 105 107
3 108 314 316
3 316 315 105
3 314 315 316
3 108 317 318
3 320 319 108
3 322 321 27
3 77 61 6
3 109 61 77
3 109 323 325
3 325 324 61
3 323 324 325
3 326 109 327
3 328 109 329
3 331 330 109
