ply
format ascii 1.0
element vertex 139
property float x
property float y
property float z
element face 117
property list uchar int vertex_index
end_header
4.192447 1.464197 -64.315552
4.485586 14.074 -67.914154
2.406734 15.91398 -65.41259
2.399963 4.149558 -62.92609
4.38378 7.966296 -66.592293
6.877362 11.333016 -69.608589
3.377861 12.09609 -66.312279
3.367403 8.98342 -65.647995
4.455795 10.946624 -67.375572
5.571274 9.674022 -68.190063
5.65862 12.701612 -68.883423
2.325157 12.973505 -64.991356
3.400791 15.018707 -66.71579
5.33193 3.177706 -66.037338
1.477161 -1.032351 -59.718678
2.356532 0.976919 -61.804794
3.266929 2.66871 -63.646534
2.386391 7.18167 -63.8139
3.356908 5.936368 -64.806267
4.261058 4.704139 -65.493065
5.339029 6.420121 -67.097672
3.510202 17.694641 -66.9524
4.708848 16.839224 -68.357475
6.06612 18.47094 -69.673103
5.887183 15.655773 -69.449387
7.149692 14.395432 -70.317337
4.12329 -0.293576 -63.590526
3.670867 0.500545 -63.353543
2.365946 14.443742 -65.201973
1.868248 13.462342 -64.352034
1.909037 14.932579 -64.56265
5.905196 2.377319 -66.213093
5.934642 4.155973 -66.854904
1.124693 -0.381329 -59.341389
1.11192 -1.906455 -58.79372
0.759451 -1.255434 -58.416432
2.378248 2.563238 -62.365442
1.960942 1.501698 -61.360946
1.982657 3.088017 -61.921594
2.416506 8.697156 -64.238081
1.948364 7.668134 -63.257858
6.778045 9.777773 -69.157997
6.125001 8.948276 -68.448734
6.224318 10.503519 -68.899326
7.533893 10.619573 -69.86227
6.778045 9.777773 -69.157997
4.177246 18.631811 -67.686481
3.584326 19.054774 -66.953179
4.776569 18.204103 -68.389019
4.109525 17.266933 -67.654937
4.177246 18.631811 -67.686481
6.690576 17.857655 -70.16647
6.817868 19.324015 -70.211182
6.601108 16.450072 -70.054611
5.976652 17.063356 -69.561245
6.690576 17.857655 -70.16647
7.232362 15.819902 -70.488586
6.518438 15.025602 -69.883362
6.601108 16.450072 -70.054611
1.915525 16.30955 -64.689811
1.909037 14.932579 -64.56265
1.96892 4.647821 -62.403728
1.982657 3.088017 -61.921594
3.372632 10.539755 -65.980137
2.907012 9.598031 -65.155128
2.912241 11.154366 -65.48727
1.885125 11.995296 -64.133581
1.868248 13.462342 -64.352034
2.385889 11.593073 -64.826809
1.885125 11.995296 -64.133581
2.851509 12.534797 -65.651817
2.912241 11.154366 -65.48727
2.385889 11.593073 -64.826809
5.244753 1.547835 -65.367344
4.675012 0.69108 -64.506451
4.762188 2.320952 -65.176445
5.244753 1.547835 -65.367344
5.905196 2.377319 -66.213093
1.432163 -2.718686 -59.060537
1.11192 -1.906455 -58.79372
1.846741 -1.664486 -60.079329
1.432163 -2.718686 -59.060537
1.521256 0.497063 -60.317888
1.124693 -0.381329 -59.341389
1.916847 -0.027716 -60.761736
1.521256 0.497063 -60.317888
1.960942 1.501698 -61.360946
2.286427 -0.659851 -61.122387
1.846741 -1.664486 -60.079329
1.916847 -0.027716 -60.761736
2.75291 0.256906 -62.098163
2.286427 -0.659851 -61.122387
3.208108 1.102801 -63.019034
2.75291 0.256906 -62.098163
2.811731 1.822815 -62.725664
3.729688 2.066453 -63.981043
3.670867 0.500545 -63.353543
3.208108 1.102801 -63.019034
1.962134 6.163877 -62.847634
1.948364 7.668134 -63.257858
2.393177 5.665614 -63.369995
1.96892 4.647821 -62.403728
1.962134 6.163877 -62.847634
2.876897 8.082545 -64.730947
2.416506 8.697156 -64.238081
2.907012 9.598031 -65.155128
5.938192 5.777181 -67.385071
5.934642 4.155973 -66.854904
5.335479 4.798914 -66.567505
6.008878 7.321326 -67.902538
5.455151 8.047072 -67.643867
6.125001 8.948276 -68.448734
5.938192 5.777181 -67.385071
6.008878 7.321326 -67.902538
2.432911 17.324765 -65.457657
1.915525 16.30955 -64.689811
2.984645 18.215096 -66.227562
3.584326 19.054774 -66.953179
2.958468 16.80431 -66.182495
2.432911 17.324765 -65.457657
2.984645 18.215096 -66.227562
6.170488 19.807578 -69.645905
6.817868 19.324015 -70.211182
5.455205 19.01996 -69.046833
6.170488 19.807578 -69.645905
5.387484 17.655082 -69.015289
4.776569 18.204103 -68.389019
5.455205 19.01996 -69.046833
7.924016 15.193091 -70.878597
7.232362 15.819902 -70.488586
7.801892 13.693946 -70.616291
7.924016 15.193091 -70.878597
7.665727 12.162738 -70.261917
7.013527 12.864224 -69.962963
7.801892 13.693946 -70.616291
7.533893 10.619573 -69.86227
7.665727 12.162738 -70.261917
4.12329 -0.293576 -63.590526
4.675012 0.69108 -64.506451
3 1 8 6
3 1 10 8
3 0 26 27
3 2 28 30
3 28 11 29
3 28 29 30
3 2 12 11
3 32 31 13
3 33 14 34
3 33 34 35
3 3 36 38
3 36 15 37
3 36 37 38
3 3 16 15
3 39 17 40
3 4 18 7
3 4 19 18
3 4 20 19
3 5 41 43
3 43 42 9
3 41 42 43
3 5 44 45
3 46 21 47
3 48 22 49
3 50 49 21
3 48 49 50
3 51 23 52
3 53 24 54
3 55 54 23
3 53 54 55
3 56 25 57
3 58 57 24
3 56 57 58
3 59 2 60
3 61 3 62
3 6 63 65
3 63 7 64
3 63 64 65
3 8 7 6
3 8 4 7
3 8 9 4
3 10 9 8
3 10 5 9
3 11 66 67
3 11 68 69
3 11 70 72
3 70 6 71
3 70 71 72
3 12 6 11
3 12 1 6
3 13 73 75
3 75 74 0
3 73 74 75
3 77 76 13
3 14 78 79
3 14 80 81
3 82 14 83
3 15 84 86
3 84 14 85
3 84 85 86
3 15 87 89
3 89 88 14
3 87 88 89
3 15 90 91
3 16 92 94
3 94 93 15
3 92 93 94
3 16 95 97
3 95 0 96
3 95 96 97
3 17 98 99
3 17 100 102
3 100 3 101
3 100 101 102
3 7 103 105
3 103 17 104
3 103 104 105
3 18 17 7
3 18 3 17
3 18 16 3
3 19 16 18
3 19 0 16
3 19 13 0
3 20 13 19
3 20 106 108
3 108 107 13
3 106 107 108
3 9 20 4
3 109 20 110
3 111 110 9
3 109 110 111
3 113 112 20
3 114 2 115
3 21 116 117
3 21 118 120
3 118 2 119
3 118 119 120
3 21 12 2
3 22 12 21
3 22 1 12
3 23 121 122
3 23 123 124
3 23 125 127
3 125 22 126
3 125 126 127
3 24 22 23
3 24 1 22
3 24 10 1
3 25 10 24
3 25 5 10
3 128 25 129
3 130 25 131
3 132 5 133
3 134 133 25
3 132 133 134
3 136 135 5
3 138 137 0
