ply
format ascii 1.0
element vertex 349
property float x
property float y
property float z
element face 384
property list uchar int vertex_index
end_header
13.532147 -51.377697 -35.660637
5.284311 -63.261143 -42.738468
15.805842 -43.734325 -31.982767
7.138631 -42.793209 -42.071037
18.739723 -57.543106 -29.198486
17.440735 -66.569321 -32.810265
14.103431 -74.049858 -36.925785
10.640833 -58.37178 -39.203419
2.803171 -47.152935 -45.388348
14.648417 -47.624504 -33.821999
12.920426 -40.419186 -35.197998
11.748159 -43.88327 -36.968464
8.608932 -39.946793 -40.341503
10.361174 -47.234612 -38.87606
19.932846 -69.351608 -29.514053
9.716108 -69.168526 -39.992256
12.324917 -66.329567 -38.05328
8.233278 -61.277424 -41.027729
6.755357 -53.280136 -42.250496
4.000534 -55.181374 -43.922779
3.943786 -37.333996 -45.444675
17.258169 -50.660244 -30.653603
16.378572 -54.726231 -32.434322
20.265797 -64.835007 -27.601389
18.25127 -62.401558 -30.920311
15.535528 -59.183659 -34.183075
16.036272 -70.574142 -34.921654
14.101505 -62.792057 -36.221325
12.265871 -54.922184 -37.46051
8.745481 -50.29435 -40.653225
5.138675 -44.887985 -43.86578
14.156552 -49.671257 -34.694786
13.262482 -46.099277 -35.378105
12.653308 -47.618698 -36.290611
11.126179 -45.569462 -37.871342
11.962225 -49.205231 -37.261276
5.79713 -67.195511 -42.30468
8.152143 -70.190788 -40.939384
7.41484 -66.076859 -41.446491
9.032491 -65.401031 -40.448307
6.889623 -62.222946 -41.857174
6.08135 -58.24662 -42.497791
4.610614 -59.388432 -43.298958
16.547457 -41.739803 -30.999741
15.167526 -40.38435 -32.573818
11.421333 -38.734562 -36.847416
7.885916 -41.199341 -41.234653
7.117887 -37.484047 -41.974739
6.379678 -38.88158 -42.845222
4.901145 -36.340462 -44.513298
5.505625 -40.126881 -43.747276
18.077032 -54.276741 -29.840096
16.916779 -53.01136 -31.425356
17.667986 -56.526627 -30.803358
18.794392 -68.139534 -31.178839
19.138132 -66.012291 -30.191189
17.959534 -64.593384 -31.777885
16.974285 -60.902557 -32.555092
16.530275 -63.120056 -33.477154
16.937239 -74.364693 -34.345654
15.206796 -72.57811 -35.888271
11.432717 -62.536251 -38.662495
13.266739 -64.676933 -37.165009
12.364466 -60.653931 -37.767826
13.277717 -58.938858 -36.74316
11.526135 -56.698471 -38.331581
10.574135 -52.792248 -39.027271
9.57785 -54.305981 -40.006474
4.737559 -50.149864 -43.826588
5.923331 -49.056782 -43.030109
4.09701 -46.172024 -44.586105
3.485872 -42.429024 -45.397106
2.166007 -43.02977 -46.310101
15.16262 -45.552044 -32.937275
14.406464 -42.161774 -33.566406
13.813068 -44.092342 -34.470181
12.368957 -42.292072 -36.044189
10.793152 -40.314251 -37.755791
9.27484 -38.354111 -39.426334
10.1569 -41.87167 -38.666405
9.608177 -43.67445 -39.447334
8.701573 -44.847233 -40.510189
20.88813 -70.281097 -27.716372
18.372461 -70.256142 -32.14423
10.490581 -73.084496 -39.506184
11.982602 -71.8498 -38.478333
13.176112 -70.139008 -37.504005
11.101586 -67.688019 -39.028275
10.254048 -63.871845 -39.600864
9.51198 -59.884964 -40.130661
8.62503 -55.781155 -40.805847
7.523223 -57.318996 -41.592793
5.480403 -54.257038 -43.079388
3.339926 -51.178654 -44.645798
3.546649 -63.962856 -43.591965
2.891646 -60.128643 -44.161541
13.617902 -38.886517 -34.284988
3.424856 -33.767197 -46.281246
2.475583 -34.816647 -47.12923
16.473492 -47.012867 -31.381731
15.991785 -49.131744 -32.238316
15.551397 -51.215469 -33.086987
15.016281 -53.224113 -34.052525
19.522537 -61.241806 -28.390268
20.096495 -66.996529 -28.57312
19.375645 -63.795258 -29.241579
18.563292 -60.185192 -29.968857
17.342272 -58.575344 -31.637726
15.989229 -57.094936 -33.310432
14.560484 -55.176296 -34.868374
17.752005 -72.461334 -33.237125
16.935999 -68.805519 -33.74292
14.235209 -68.660728 -36.519436
15.155871 -66.813507 -35.48703
15.914079 -65.019348 -34.471607
14.948956 -61.156322 -35.134014
13.968444 -57.097164 -35.796661
13.024535 -53.338371 -36.469334
11.393695 -51.048897 -38.063885
9.663605 -48.875103 -39.71817
8.013909 -46.544407 -41.260216
7.74319 -51.684963 -41.522549
6.955364 -47.733383 -42.227757
6.214614 -43.944897 -42.961224
4.506823 -41.14513 -44.642262
2.913307 -38.59074 -46.278206
2.522916 -56.273613 -44.648689
10.998411 -37.12644 -37.241514
10.658674 -37.769155 -37.69509
18.408378 -55.909924 -29.519291
18.611044 -54.853454 -29.014162
18.94239 -56.486637 -28.693357
14.445238 -75.882199 -36.72665
13.45432 -74.885372 -37.452863
15.081061 -75.210037 -36.143753
14.445238 -75.882199 -36.72665
14.655114 -73.313984 -36.407028
15.632744 -74.474163 -35.624996
15.081061 -75.210037 -36.143753
18.83294 -72.038319 -31.794517
19.068051 -71.045086 -31.253675
2.667841 -64.471857 -43.956474
3.797331 -65.955232 -43.357658
2.366474 -62.502907 -44.247879
2.667841 -64.471857 -43.956474
8.227415 -38.12668 -40.691033
8.56037 -37.33034 -40.233448
8.941886 -39.150452 -39.883919
6.744524 -35.817516 -42.383391
6.354616 -36.288297 -42.864247
17.508686 -49.577618 -30.200599
17.827807 -51.255104 -29.861674
16.865831 -48.836556 -31.017667
17.116347 -47.753929 -30.564663
17.508686 -49.577618 -30.200599
20.306861 -63.520344 -27.178304
20.606645 -65.097485 -26.77773
19.894167 -63.038407 -27.995829
19.935231 -61.723743 -27.572744
20.306861 -63.520344 -27.178304
2.347046 -39.039426 -46.678005
3.19959 -40.509882 -45.837656
2.633328 -40.958568 -46.237455
2.119791 -37.036569 -47.169811
2.347046 -39.039426 -46.678005
1.569325 -56.479463 -45.108173
2.707281 -58.201128 -44.405115
1.75369 -58.406978 -44.864599
6.974637 -68.69315 -41.622032
7.322082 -70.656391 -41.370977
6.144575 -69.158752 -42.053625
16.199551 -40.077812 -31.38915
16.963555 -40.7192 -30.51596
15.509586 -39.400086 -32.176189
16.199551 -40.077812 -31.38915
15.857492 -41.062077 -31.78678
14.768648 -38.83477 -32.991633
15.509586 -39.400086 -32.176189
11.742176 -37.926462 -36.413746
12.491723 -38.768774 -35.589037
12.17088 -39.576874 -36.022707
11.742176 -37.926462 -36.413746
10.998411 -37.12644 -37.241514
5.985512 -36.987064 -43.299488
6.354616 -36.288297 -42.864247
6.748782 -38.182813 -42.409981
5.640411 -37.611021 -43.67926
5.246245 -35.716505 -44.133526
5.985512 -36.987064 -43.299488
18.237238 -53.063353 -29.45492
18.611044 -54.853454 -29.014162
17.6676 -52.468492 -30.246849
17.827807 -51.255104 -29.861674
18.237238 -53.063353 -29.45492
20.610606 -66.393196 -27.183161
20.606645 -65.097485 -26.77773
16.497965 -75.367455 -34.853688
17.42088 -76.252029 -34.005335
16.072018 -73.471401 -35.116962
16.497965 -75.367455 -34.853688
15.632744 -74.474163 -35.624996
1.973396 -41.258941 -46.693953
2.633328 -40.958568 -46.237455
2.82594 -42.729397 -45.853604
10.344583 -38.559 -38.149277
10.658674 -37.769155 -37.69509
11.107242 -39.524406 -37.301603
10.033996 -39.334181 -38.591062
9.585427 -37.57893 -38.984549
10.344583 -38.559 -38.149277
19.241086 -58.213103 -28.349748
18.94239 -56.486637 -28.693357
21.293849 -71.951538 -27.243364
21.269883 -70.631362 -26.76902
20.862603 -71.506275 -28.146061
21.293849 -71.951538 -27.243364
20.384961 -71.04153 -29.044902
20.410488 -69.816352 -28.615212
20.862603 -71.506275 -28.146061
19.848244 -70.592819 -29.938587
20.384961 -71.04153 -29.044902
19.279016 -69.986782 -30.77098
19.363619 -68.745571 -30.346446
19.848244 -70.592819 -29.938587
18.583427 -69.197838 -31.661535
19.279016 -69.986782 -30.77098
19.068051 -71.045086 -31.253675
8.551054 -72.244991 -40.67708
7.322082 -70.656391 -41.370977
9.720273 -73.691845 -39.96048
8.551054 -72.244991 -40.67708
9.321362 -71.637642 -40.222784
10.962579 -75.062054 -39.210633
9.720273 -73.691845 -39.96048
11.647895 -74.402691 -38.743063
10.962579 -75.062054 -39.210633
12.393905 -73.785343 -38.229138
11.647895 -74.402691 -38.743063
11.236591 -72.467148 -38.992258
13.043017 -72.949829 -37.702059
13.45432 -74.885372 -37.452863
12.393905 -73.785343 -38.229138
4.922572 -67.57156 -42.714016
6.144575 -69.158752 -42.053625
4.671889 -65.579183 -42.948323
4.922572 -67.57156 -42.714016
3.797331 -65.955232 -43.357658
2.038972 -60.5858 -44.532667
3.219148 -62.045749 -43.876753
2.366474 -62.502907 -44.247879
1.75369 -58.406978 -44.864599
2.038972 -60.5858 -44.532667
13.993835 -38.085854 -33.847217
14.768648 -38.83477 -32.991633
14.392714 -39.635433 -33.429403
12.840461 -38.002439 -35.132532
13.269164 -39.652851 -34.741493
12.491723 -38.768774 -35.589037
13.277767 -37.256175 -34.62381
12.840461 -38.002439 -35.132532
13.993835 -38.085854 -33.847217
13.277767 -37.256175 -34.62381
8.885987 -36.629946 -39.788356
9.585427 -37.57893 -38.984549
8.885987 -36.629946 -39.788356
8.56037 -37.33034 -40.233448
7.481893 -36.895308 -41.50765
8.227415 -38.12668 -40.691033
7.863409 -38.71542 -41.158121
7.481893 -36.895308 -41.50765
6.744524 -35.817516 -42.383391
4.580657 -34.494644 -44.964655
5.246245 -35.716505 -44.133526
3.842513 -33.208012 -45.848629
4.580657 -34.494644 -44.964655
4.163 -35.05383 -45.397272
3.198807 -32.041584 -46.710861
3.842513 -33.208012 -45.848629
2.730938 -32.307379 -47.201223
3.198807 -32.041584 -46.710861
2.256301 -32.832104 -47.625215
2.730938 -32.307379 -47.201223
2.95022 -34.291922 -46.705238
1.772601 -33.283698 -48.032516
2.256301 -32.832104 -47.625215
17.238714 -42.348717 -30.163212
16.963555 -40.7192 -30.51596
16.852197 -43.432846 -30.68132
17.238714 -42.348717 -30.163212
16.481389 -44.430107 -31.172833
16.176649 -42.737064 -31.491254
16.852197 -43.432846 -30.68132
16.815214 -46.069378 -30.872315
17.116347 -47.753929 -30.564663
16.139667 -45.373596 -31.682249
16.481389 -44.430107 -31.172833
16.815214 -46.069378 -30.872315
19.632493 -60.062452 -27.945639
19.935231 -61.723743 -27.572744
19.13113 -59.392456 -28.794377
19.241086 -58.213103 -28.349748
19.632493 -60.062452 -27.945639
20.921773 -69.116241 -27.240652
21.269883 -70.631362 -26.76902
20.525956 -67.473957 -27.669027
20.921773 -69.116241 -27.240652
20.492313 -68.638813 -28.144746
20.181146 -65.915768 -28.087255
20.610606 -66.393196 -27.183161
20.525956 -67.473957 -27.669027
17.790682 -75.15823 -33.471652
17.42088 -76.252029 -34.005335
18.198065 -74.20655 -32.917387
17.790682 -75.15823 -33.471652
17.344622 -73.413014 -33.79139
18.522712 -73.140915 -32.340965
18.198065 -74.20655 -32.917387
18.062233 -71.358738 -32.690677
18.83294 -72.038319 -31.794517
18.522712 -73.140915 -32.340965
1.900929 -35.149523 -47.595323
2.694445 -36.703693 -46.703718
2.119791 -37.036569 -47.169811
1.772601 -33.283698 -48.032516
1.900929 -35.149523 -47.595323
1.336674 -54.464699 -45.4431
1.569325 -56.479463 -45.108173
2.161372 -54.166949 -45.046949
1.336674 -54.464699 -45.4431
2.900181 -53.620829 -44.683994
3.261725 -55.727493 -44.285734
2.161372 -54.166949 -45.046949
2.569877 -51.619469 -45.045504
3.67023 -53.180014 -44.284289
2.900181 -53.620829 -44.683994
2.337481 -49.603296 -45.416712
2.569877 -51.619469 -45.045504
2.069103 -47.590437 -45.787987
3.071549 -49.165795 -45.017073
2.337481 -49.603296 -45.416712
1.872831 -45.663172 -46.173914
2.069103 -47.590437 -45.787987
1.55425 -43.60159 -46.634791
2.484589 -45.091352 -45.849225
1.872831 -45.663172 -46.173914
1.295084 -41.547355 -47.132273
1.55425 -43.60159 -46.634791
1.973396 -41.258941 -46.693953
1.295084 -41.547355 -47.132273
3 0 33 31
3 0 35 33
3 1 38 36
3 1 40 38
3 1 42 40
3 2 44 43
3 128 127 45
3 3 48 46
3 3 50 48
3 4 129 131
3 129 51 130
3 129 130 131
3 4 53 51
3 5 56 54
3 5 58 56
3 6 132 133
3 6 134 135
3 6 136 138
3 136 60 137
3 136 137 138
3 7 63 61
3 7 65 63
3 7 67 65
3 8 70 68
3 8 72 70
3 9 75 73
3 11 76 32
3 11 77 76
3 11 79 77
3 13 80 34
3 13 81 80
3 139 83 140
3 15 84 37
3 15 85 84
3 15 87 85
3 17 88 39
3 17 89 88
3 17 91 89
3 19 92 41
3 19 93 92
3 141 94 142
3 144 143 94
3 10 96 74
3 12 145 147
3 147 146 78
3 145 146 147
3 149 148 47
3 20 97 49
3 20 98 97
3 21 150 151
3 21 152 154
3 152 99 153
3 152 153 154
3 21 100 99
3 22 101 52
3 22 102 101
3 23 155 156
3 23 157 159
3 157 103 158
3 157 158 159
3 14 104 82
3 24 105 55
3 24 106 105
3 24 107 106
3 25 108 57
3 25 109 108
3 26 110 59
3 26 111 110
3 16 112 86
3 27 113 62
3 27 114 113
3 27 115 114
3 28 116 64
3 28 117 116
3 28 118 117
3 29 119 66
3 29 120 119
3 18 121 90
3 30 122 69
3 30 123 122
3 30 124 123
3 160 125 161
3 162 161 71
3 160 161 162
3 164 163 125
3 165 126 166
3 167 166 95
3 165 166 167
3 31 32 9
3 33 32 31
3 33 11 32
3 33 34 11
3 35 34 33
3 35 13 34
3 36 168 170
3 168 37 169
3 168 169 170
3 38 37 36
3 38 15 37
3 38 39 15
3 40 39 38
3 40 17 39
3 40 41 17
3 42 41 40
3 42 19 41
3 43 171 172
3 44 173 175
3 175 174 43
3 173 174 175
3 44 176 177
3 45 178 180
3 180 179 10
3 178 179 180
3 182 181 45
3 46 47 12
3 48 47 46
3 48 183 185
3 185 184 47
3 183 184 185
3 48 186 188
3 186 49 187
3 186 187 188
3 50 49 48
3 50 20 49
3 51 189 190
3 51 191 193
3 191 21 192
3 191 192 193
3 51 52 21
3 53 52 51
3 53 22 52
3 194 23 195
3 54 55 14
3 56 55 54
3 56 24 55
3 56 57 24
3 58 57 56
3 58 25 57
3 196 59 197
3 60 198 200
3 198 59 199
3 198 199 200
3 60 26 59
3 61 62 16
3 63 62 61
3 63 27 62
3 63 64 27
3 65 64 63
3 65 28 64
3 65 66 28
3 67 66 65
3 67 29 66
3 68 69 18
3 70 69 68
3 70 30 69
3 70 71 30
3 72 71 70
3 72 201 203
3 203 202 71
3 201 202 203
3 73 74 2
3 75 74 73
3 75 10 74
3 32 75 9
3 76 75 32
3 76 10 75
3 76 45 10
3 77 45 76
3 77 204 206
3 206 205 45
3 204 205 206
3 77 207 209
3 207 78 208
3 207 208 209
3 79 78 77
3 79 12 78
3 34 79 11
3 80 79 34
3 80 12 79
3 80 46 12
3 81 46 80
3 81 3 46
3 210 4 211
3 212 82 213
3 214 82 215
3 216 14 217
3 218 217 82
3 216 217 218
3 219 14 220
3 221 54 222
3 223 222 14
3 221 222 223
3 83 224 226
3 224 54 225
3 224 225 226
3 83 5 54
3 37 227 228
3 84 229 231
3 231 230 37
3 229 230 231
3 84 232 233
3 84 234 235
3 85 236 238
3 238 237 84
3 236 237 238
3 85 239 241
3 239 6 240
3 239 240 241
3 85 86 6
3 87 86 85
3 87 16 86
3 39 87 15
3 88 87 39
3 88 16 87
3 88 61 16
3 89 61 88
3 89 7 61
3 89 90 7
3 91 90 89
3 91 18 90
3 41 91 17
3 92 91 41
3 92 18 91
3 92 68 18
3 93 68 92
3 93 8 68
3 242 36 243
3 94 244 246
3 244 36 245
3 244 245 246
3 94 1 36
3 94 95 1
3 247 95 248
3 249 248 94
3 247 248 249
3 251 250 95
3 74 44 2
3 96 44 74
3 96 252 254
3 254 253 44
3 252 253 254
3 255 96 256
3 257 256 10
3 255 256 257
3 258 96 259
3 261 260 96
3 78 262 263
3 265 264 78
3 47 266 268
3 268 267 12
3 266 267 268
3 270 269 47
3 49 271 272
3 97 273 275
3 275 274 49
3 273 274 275
3 97 276 277
3 97 278 279
3 98 280 282
3 282 281 97
3 280 281 282
3 98 283 284
3 285 43 286
3 287 43 288
3 289 2 290
3 291 290 43
3 289 290 291
3 99 292 293
3 99 294 296
3 294 2 295
3 294 295 296
3 99 73 2
3 100 73 99
3 100 9 73
3 52 100 21
3 101 100 52
3 101 9 100
3 101 31 9
3 102 31 101
3 102 0 31
3 103 297 298
3 103 299 301
3 299 4 300
3 299 300 301
3 82 302 303
3 104 304 306
3 306 305 82
3 304 305 306
3 104 307 309
3 307 23 308
3 307 308 309
3 55 104 14
3 105 104 55
3 105 23 104
3 105 103 23
3 106 103 105
3 106 4 103
3 106 53 4
3 107 53 106
3 107 22 53
3 57 107 24
3 108 107 57
3 108 22 107
3 108 102 22
3 109 102 108
3 109 0 102
3 59 310 311
3 110 312 314
3 314 313 59
3 312 313 314
3 110 315 316
3 110 317 319
3 317 83 318
3 317 318 319
3 111 83 110
3 111 5 83
3 86 60 6
3 112 60 86
3 112 26 60
3 62 112 16
3 113 112 62
3 113 26 112
3 113 111 26
3 114 111 113
3 114 5 111
3 114 58 5
3 115 58 114
3 115 25 58
3 64 115 27
3 116 115 64
3 116 25 115
3 116 109 25
3 117 109 116
3 117 0 109
3 117 35 0
3 118 35 117
3 118 13 35
3 66 118 28
3 119 118 66
3 119 13 118
3 119 81 13
3 120 81 119
3 120 3 81
3 90 67 7
3 121 67 90
3 121 29 67
3 69 121 18
3 122 121 69
3 122 29 121
3 122 120 29
3 123 120 122
3 123 3 120
3 123 50 3
3 124 50 123
3 124 20 50
3 71 124 30
3 125 124 71
3 125 20 124
3 125 98 20
3 320 98 321
3 322 321 125
3 320 321 322
3 324 323 98
3 95 42 1
3 126 42 95
3 126 19 42
3 325 126 326
3 327 126 328
3 329 19 330
3 331 330 126
3 329 330 331
3 332 93 333
3 334 333 19
3 332 333 334
3 335 93 336
3 337 8 338
3 339 338 93
3 337 338 339
3 340 8 341
3 342 72 343
3 344 343 8
3 342 343 344
3 345 72 346
3 348 347 72
