ply
format ascii 1.0
element vertex 354
property float x
property float y
property float z
element face 385
property list uchar int vertex_index
end_header
-5.615634 -5.567433 65.239586
10.124616 -4.246849 53.798054
-6.357863 2.839046 64.646378
1.014855 1.89239 59.770714
13.381823 11.506841 48.180542
15.411247 4.006504 47.748859
8.3695 2.706044 54.154182
2.369556 -5.473902 59.869808
-5.016511 -9.383096 65.209488
9.84403 11.034431 51.377651
11.004788 6.98488 51.178875
7.417706 6.46936 54.219276
-2.104294 -1.94912 62.497784
1.758745 -1.888355 59.817875
-1.658374 -5.845347 62.678066
-0.96522 -9.326559 62.582115
12.860421 -0.151283 50.881336
16.335743 0.84257 47.485794
13.646678 -3.237981 50.611561
-6.078414 -1.480106 65.076447
3.750777 6.151599 57.051296
0.175642 6.075081 59.633076
-2.68223 2.22377 62.293983
16.661121 12.050678 44.85001
17.722254 8.388598 44.521973
14.366384 7.548608 48.029163
11.982138 3.259226 51.03326
9.367294 -0.768292 53.942329
4.618875 2.093827 57.139339
5.51197 -1.499527 57.049797
6.367429 -4.95191 56.877922
3.145173 -8.887344 59.680485
-5.404302 -7.565038 65.29319
-7.45012 -7.424711 66.554337
8.620498 8.774754 52.822678
6.865528 8.596045 54.237732
-3.874174 -3.67579 63.901405
-1.932951 -3.871426 62.62785
-3.603167 -5.608146 63.940079
-3.275092 -7.603749 63.933304
11.413383 -2.111134 52.440365
13.334541 -1.646889 50.687092
11.938288 -3.600567 52.174644
-6.120203 0.700569 64.813156
-4.748544 4.427287 63.324966
-3.012949 4.202665 62.192558
-4.584855 2.297548 63.570122
-4.266916 0.305844 63.652199
15.070654 11.775023 46.512337
15.587392 9.754637 46.408546
13.890604 9.507561 48.096378
9.762389 4.79783 52.638477
11.591844 5.123685 51.020962
10.204387 2.961864 52.609566
10.709494 1.228855 52.499306
8.915031 0.82031 54.048023
2.428572 4.132977 58.38736
4.377028 4.126841 56.966095
2.88646 2.08488 58.406651
2.014986 -3.763595 59.896053
3.636446 -1.664283 58.446594
4.025486 -3.443121 58.419937
5.963316 -3.162093 56.95343
4.416553 -5.213886 58.369045
4.734769 -6.914995 58.328064
2.852693 -7.068313 59.716164
-0.432403 -10.93623 62.350887
14.29453 13.810588 46.846004
15.996037 14.121001 45.09412
16.543566 6.086507 46.210934
18.18248 6.602326 44.434826
17.135336 4.547993 45.947712
-6.42817 5.060481 64.313141
11.60829 11.253731 49.831478
12.212879 9.286004 49.681377
10.497473 9.091067 51.212978
9.246928 6.829669 52.685032
7.977189 4.640095 54.11639
-0.522384 -0.100053 61.152451
1.442986 0.059547 59.754055
-0.147586 -1.904294 61.150993
-0.001338 -3.784585 61.301163
0.402819 -5.581734 61.250282
0.78358 -7.409337 61.202068
-1.143618 -7.543667 62.522774
-2.994549 -9.36702 63.919621
14.220551 1.932722 49.278587
15.972477 2.488223 47.516602
14.656358 0.412232 49.152447
15.097411 -1.145405 48.996284
-5.7811 -3.569889 65.134926
5.05117 8.449192 55.637547
1.906838 6.149865 58.388405
0.549561 3.981029 59.753132
-1.232384 4.102648 60.981361
-0.865054 1.910796 61.085514
-2.49681 -0.009341 62.499058
-4.107669 -1.743687 63.820053
8.568425 -6.207008 55.28236
10.462182 -5.732622 53.662075
18.282232 12.346998 43.067879
18.876719 10.54535 42.82399
17.253719 10.149956 44.63295
16.083881 7.911573 46.288261
14.888692 5.695516 47.903931
12.705714 7.218869 49.630825
13.169128 5.373999 49.566891
13.750614 3.710717 49.365673
12.474393 1.621573 50.909618
11.176085 -0.37392 52.3792
9.764546 -2.429164 53.866596
5.608573 6.408314 55.62077
6.115299 4.290843 55.629211
6.55992 2.323413 55.636925
3.198408 0.034002 58.506634
5.066117 0.233964 57.111488
7.051937 0.558679 55.558289
7.398347 -1.140699 55.564396
7.856734 -2.826051 55.450848
8.344755 -4.411748 55.271309
6.794105 -6.559666 56.727772
5.228418 -8.448533 58.097996
1.150546 -9.028178 61.110817
1.599317 -10.81458 60.928825
17.59123 2.956328 45.833019
6.499594 9.633349 54.302831
7.459779 9.719183 53.548721
-7.136403 1.976669 65.26585
-7.017573 0.907431 65.34924
-6.239033 1.769808 64.729767
13.838176 12.658714 47.513273
13.45186 13.667534 47.662094
12.995506 12.515661 48.329363
-7.238231 5.324706 64.775398
-6.503205 6.049512 64.170536
-6.503205 6.049512 64.170536
-5.688349 5.868797 63.672297
-5.921309 -10.270301 65.835926
-4.826788 -10.304962 65.163582
-4.826788 -10.304962 65.163582
-3.815806 -10.296924 64.518648
-4.00553 -9.375058 64.564554
10.366912 12.144035 50.710608
9.443676 12.088151 51.48513
10.72616 11.144081 50.604564
11.249042 12.253685 49.937521
10.366912 12.144035 50.710608
14.453798 -3.063027 49.847391
15.179164 -2.016739 49.039753
14.372044 -2.191693 49.803922
-6.948842 -2.454884 65.739311
-6.800185 -3.499776 65.768551
-5.929757 -2.524998 65.105686
1.04124 6.112473 59.01074
1.682357 7.182847 58.339365
0.816759 7.145455 58.961701
8.814428 -7.009982 55.135811
7.846065 -7.210468 55.941757
3.408734 -9.678241 59.537468
4.450356 -9.458835 58.746223
4.186795 -8.667938 58.88924
0.75798 -11.740492 61.568352
0.583457 -10.875405 61.639856
-0.25788 -11.801317 62.279382
1.008772 -12.532322 61.417789
1.850109 -11.606411 60.778263
0.75798 -11.740492 61.568352
17.15014 13.177248 44.088785
16.817597 14.212409 44.21084
16.328579 13.085839 44.972065
17.471677 12.198838 43.958945
17.960695 13.325408 43.197719
17.15014 13.177248 44.088785
18.50837 8.514513 43.662897
19.085603 9.592889 42.813906
18.299487 9.466974 43.672982
19.026879 6.781244 43.50716
18.434261 5.771287 44.362047
11.341835 -5.55291 52.881811
10.67644 -6.538384 53.530649
-6.289782 -8.441192 65.915756
-6.095886 -9.35022 65.873905
-5.210407 -8.474067 65.251339
-7.312691 -8.371028 66.546329
-6.289782 -8.441192 65.915756
-6.427211 -7.494874 65.923764
-8.403485 -8.309048 67.18995
-8.266055 -9.255365 67.181942
-7.312691 -8.371028 66.546329
8.337263 9.808537 52.841195
9.232264 9.904592 52.100165
8.949029 10.938376 52.118681
7.743013 8.685399 53.530205
8.337263 9.808537 52.841195
7.459779 9.719183 53.548721
8.949029 10.938376 52.118681
9.443676 12.088151 51.48513
-7.031861 -0.250684 65.513558
-7.010967 -1.341022 65.645203
-6.099309 -0.389768 64.944802
-7.031861 -0.250684 65.513558
-7.017573 0.907431 65.34924
-0.040338 7.14662 59.56603
0.816759 7.145455 58.961701
-3.880746 4.314976 62.758762
-3.153891 5.292365 62.083942
-4.021689 5.404676 62.650147
-1.506425 -11.041176 63.073937
-0.698811 -10.131394 62.466501
-1.772834 -10.236341 63.18955
-1.262978 -11.92747 62.968922
-1.506425 -11.041176 63.073937
-0.25788 -11.801317 62.279382
-1.262978 -11.92747 62.968922
13.909188 14.932082 46.972042
13.45186 13.667534 47.662094
14.728262 15.01884 46.159717
13.909188 14.932082 46.972042
15.145283 13.965794 45.970062
15.579016 15.174047 45.283775
14.728262 15.01884 46.159717
17.910688 4.744121 45.11849
18.434261 5.771287 44.362047
17.658908 5.575159 45.191269
17.089198 0.97933 46.726731
16.487277 -0.041997 47.494695
-7.187945 4.245413 64.93293
-7.152792 3.134695 65.099548
-6.393016 3.949764 64.47976
-7.187945 4.245413 64.93293
-7.238231 5.324706 64.775398
-4.848536 5.5522 63.178209
-4.021689 5.404676 62.650147
-5.588357 4.743884 63.819054
-4.848536 5.5522 63.178209
-5.688349 5.868797 63.672297
-5.921309 -10.270301 65.835926
-6.095886 -9.35022 65.873905
-2.787498 -10.256571 63.858303
-1.772834 -10.236341 63.18955
-1.979885 -9.346789 63.250868
-2.787498 -10.256571 63.858303
-3.815806 -10.296924 64.518648
12.10874 12.389106 49.154831
11.249042 12.253685 49.937521
12.495057 11.380286 49.00601
12.995506 12.515661 48.329363
12.10874 12.389106 49.154831
15.868111 -1.035985 48.249941
16.487277 -0.041997 47.494695
15.716577 -0.151417 48.241039
15.868111 -1.035985 48.249941
15.179164 -2.016739 49.039753
-6.723041 -4.48335 65.82188
-6.640308 -5.482121 65.874211
-5.698367 -4.568661 65.187256
-6.723041 -4.48335 65.82188
-6.800185 -3.499776 65.768551
-6.948842 -2.454884 65.739311
-7.010967 -1.341022 65.645203
-7.136403 1.976669 65.26585
-7.152792 3.134695 65.099548
4.686047 9.495033 55.68593
5.592415 9.559922 55.002739
4.168703 8.393353 56.295429
4.686047 9.495033 55.68593
3.518506 7.244557 57.002304
4.400974 7.300396 56.344421
4.168703 8.393353 56.295429
2.596537 7.24369 57.670858
1.682357 7.182847 58.339365
2.828807 6.150732 57.71985
3.518506 7.244557 57.002304
2.596537 7.24369 57.670858
-0.690086 6.146895 60.22354
-0.040338 7.14662 59.56603
-2.284381 5.210686 61.503281
-3.153891 5.292365 62.083942
-1.394099 5.160678 60.897682
-2.284381 5.210686 61.503281
-2.122666 4.152656 61.586959
-0.528371 5.088864 60.307219
-0.690086 6.146895 60.22354
-1.394099 5.160678 60.897682
9.761306 -6.77279 54.325668
9.515303 -5.969815 54.472217
8.814428 -7.009982 55.135811
10.67644 -6.538384 53.530649
9.761306 -6.77279 54.325668
-7.557551 -6.410761 66.531586
-6.532877 -6.496072 65.896962
-6.640308 -5.482121 65.874211
-8.43162 -7.267505 67.128239
-7.557551 -6.410761 66.531586
-8.403485 -8.309048 67.18995
-8.43162 -7.267505 67.128239
18.579476 11.446174 42.945934
19.362923 11.593887 42.043919
19.06568 12.494711 42.165863
5.958349 8.522619 54.93764
6.499594 9.633349 54.302831
5.592415 9.559922 55.002739
6.958906 -7.386796 56.664463
7.846065 -7.210468 55.941757
7.681265 -6.383337 56.005066
6.176062 -8.33123 57.349575
6.958906 -7.386796 56.664463
6.011261 -7.504099 57.412884
5.406498 -9.300258 58.003815
6.176062 -8.33123 57.349575
5.406498 -9.300258 58.003815
4.450356 -9.458835 58.746223
2.635806 -10.641858 60.161638
3.408734 -9.678241 59.537468
2.372245 -9.850962 60.304655
2.635806 -10.641858 60.161638
1.850109 -11.606411 60.778263
16.426289 15.274017 44.386326
15.579016 15.174047 45.283775
16.426289 15.274017 44.386326
16.817597 14.212409 44.21084
18.759925 13.424413 42.289219
17.960695 13.325408 43.197719
19.06568 12.494711 42.165863
18.759925 13.424413 42.289219
19.656489 10.650886 41.940354
19.362923 11.593887 42.043919
19.656489 10.650886 41.940354
19.085603 9.592889 42.813906
18.738484 7.621377 43.619324
18.50837 8.514513 43.662897
17.952367 7.495462 44.4784
18.738484 7.621377 43.619324
19.026879 6.781244 43.50716
18.138635 3.948288 45.061144
17.910688 4.744121 45.11849
17.363283 3.752161 45.890366
17.716941 2.036209 45.900343
16.963487 1.899449 46.659407
17.089198 0.97933 46.726731
18.354636 3.120664 45.030403
17.716941 2.036209 45.900343
18.138635 3.948288 45.061144
18.354636 3.120664 45.030403
12.079888 -4.486882 52.138095
11.200235 -4.666595 52.91836
11.341835 -5.55291 52.881811
12.934083 -4.305589 51.356554
12.792483 -3.419274 51.393102
12.079888 -4.486882 52.138095
13.796834 -4.063337 50.558436
12.934083 -4.305589 51.356554
14.453798 -3.063027 49.847391
13.796834 -4.063337 50.558436
3 0 33 32
3 125 35 126
3 0 38 36
3 0 32 38
3 1 42 40
3 2 127 129
3 129 128 43
3 127 128 129
3 2 46 44
3 2 43 46
3 4 50 48
3 6 53 51
3 6 55 53
3 3 58 56
3 7 61 59
3 7 63 61
3 7 65 63
3 4 130 132
3 130 67 131
3 130 131 132
3 4 48 67
3 5 71 69
3 134 133 72
3 135 72 136
3 8 137 138
3 9 75 73
3 11 76 34
3 11 77 76
3 12 80 78
3 14 81 37
3 14 82 81
3 14 84 82
3 8 85 39
3 8 139 141
3 141 140 85
3 139 140 141
3 9 142 143
3 9 144 146
3 144 73 145
3 144 145 146
3 16 88 86
3 18 89 41
3 18 147 149
3 149 148 89
3 147 148 149
3 19 150 152
3 152 151 90
3 150 151 152
3 21 153 155
3 153 92 154
3 153 154 155
3 21 93 92
3 22 94 45
3 22 95 94
3 22 96 95
3 19 97 47
3 19 90 97
3 157 156 98
3 23 102 100
3 25 103 49
3 25 104 103
3 10 105 74
3 26 106 52
3 26 107 106
3 26 108 107
3 27 109 54
3 27 110 109
3 20 111 91
3 28 112 57
3 28 113 112
3 13 114 79
3 29 115 60
3 29 116 115
3 29 117 116
3 30 118 62
3 30 119 118
3 30 120 119
3 31 121 64
3 31 158 160
3 160 159 121
3 158 159 160
3 15 122 83
3 161 123 162
3 163 162 66
3 161 162 163
3 166 165 123
3 164 165 166
3 23 167 169
3 169 168 68
3 167 168 169
3 23 170 172
3 170 100 171
3 170 171 172
3 24 173 175
3 175 174 101
3 173 174 175
3 177 176 70
3 17 124 87
3 179 178 99
3 32 180 182
3 182 181 8
3 180 181 182
3 33 183 185
3 185 184 32
3 183 184 185
3 33 186 188
3 186 187 188
3 189 34 190
3 191 190 9
3 189 190 191
3 35 192 194
3 192 34 193
3 192 193 194
3 35 11 34
3 36 37 12
3 38 37 36
3 38 14 37
3 38 39 14
3 32 39 38
3 32 8 39
3 195 9 196
3 40 41 16
3 42 41 40
3 42 18 41
3 43 197 199
3 199 198 19
3 197 198 199
3 201 200 43
3 202 21 203
3 44 204 206
3 204 45 205
3 204 205 206
3 46 45 44
3 46 22 45
3 46 47 22
3 43 47 46
3 43 19 47
3 48 49 23
3 50 49 48
3 50 25 49
3 51 52 10
3 53 52 51
3 53 26 52
3 53 54 26
3 55 54 53
3 55 27 54
3 56 57 20
3 58 57 56
3 58 28 57
3 59 60 13
3 61 60 59
3 61 29 60
3 61 62 29
3 63 62 61
3 63 30 62
3 63 64 30
3 65 64 63
3 65 31 64
3 207 66 208
3 209 208 15
3 207 208 209
3 210 66 211
3 213 212 66
3 67 214 215
3 67 216 217
3 67 218 220
3 218 68 219
3 218 219 220
3 48 68 67
3 48 23 68
3 69 70 24
3 71 70 69
3 71 221 223
3 223 222 70
3 221 222 223
3 225 224 17
3 72 226 228
3 228 227 2
3 226 227 228
3 230 229 72
3 231 44 232
3 72 233 235
3 233 44 234
3 233 234 235
3 72 2 44
3 237 236 8
3 73 74 4
3 75 74 73
3 75 10 74
3 34 75 9
3 76 75 34
3 76 10 75
3 76 51 10
3 77 51 76
3 77 6 51
3 78 79 3
3 80 79 78
3 80 13 79
3 37 80 12
3 81 80 37
3 81 13 80
3 81 59 13
3 82 59 81
3 82 7 59
3 82 83 7
3 84 83 82
3 84 15 83
3 39 84 14
3 85 84 39
3 85 15 84
3 85 238 240
3 240 239 15
3 238 239 240
3 242 241 85
3 73 243 244
3 73 245 247
3 245 4 246
3 245 246 247
3 86 87 5
3 88 87 86
3 88 17 87
3 41 88 16
3 89 88 41
3 89 17 88
3 89 248 250
3 250 249 17
3 248 249 250
3 252 251 89
3 90 253 255
3 255 254 0
3 253 254 255
3 257 256 90
3 259 258 19
3 261 260 2
3 262 91 263
3 264 91 265
3 266 20 267
3 268 267 91
3 266 267 268
3 92 269 270
3 92 271 273
3 271 20 272
3 271 272 273
3 92 56 20
3 93 56 92
3 93 3 56
3 274 21 275
3 45 276 277
3 94 278 280
3 280 279 45
3 278 279 280
3 94 281 283
3 281 21 282
3 281 282 283
3 94 93 21
3 95 93 94
3 95 3 93
3 95 78 3
3 96 78 95
3 96 12 78
3 47 96 22
3 97 96 47
3 97 12 96
3 97 36 12
3 90 36 97
3 90 0 36
3 98 99 1
3 284 99 285
3 286 285 98
3 284 285 286
3 288 287 99
3 289 33 290
3 291 290 0
3 289 290 291
3 292 33 293
3 295 294 33
3 100 296 298
3 296 101 297
3 296 297 298
3 102 101 100
3 102 24 101
3 49 102 23
3 103 102 49
3 103 24 102
3 103 69 24
3 104 69 103
3 104 5 69
3 74 50 4
3 105 50 74
3 105 25 50
3 52 105 10
3 106 105 52
3 106 25 105
3 106 104 25
3 107 104 106
3 107 5 104
3 107 86 5
3 108 86 107
3 108 16 86
3 54 108 26
3 109 108 54
3 109 16 108
3 109 40 16
3 110 40 109
3 110 1 40
3 91 299 301
3 299 35 300
3 299 300 301
3 111 35 91
3 111 11 35
3 57 111 20
3 112 111 57
3 112 11 111
3 112 77 11
3 113 77 112
3 113 6 77
3 79 58 3
3 114 58 79
3 114 28 58
3 60 114 13
3 115 114 60
3 115 28 114
3 115 113 28
3 116 113 115
3 116 6 113
3 116 55 6
3 117 55 116
3 117 27 55
3 62 117 29
3 118 117 62
3 118 27 117
3 118 110 27
3 119 110 118
3 119 1 110
3 119 98 1
3 120 98 119
3 120 302 304
3 304 303 98
3 302 303 304
3 64 120 30
3 121 120 64
3 121 305 307
3 307 306 120
3 305 306 307
3 121 308 309
3 311 310 121
3 83 65 7
3 122 65 83
3 122 31 65
3 66 122 15
3 123 122 66
3 123 31 122
3 123 312 314
3 314 313 31
3 312 313 314
3 316 315 123
3 68 317 318
3 320 319 68
3 100 321 322
3 100 323 324
3 101 325 326
3 328 327 101
3 70 329 331
3 331 330 24
3 329 330 331
3 333 332 70
3 87 71 5
3 124 71 87
3 124 334 336
3 336 335 71
3 334 335 336
3 337 124 338
3 339 338 17
3 337 338 339
3 340 124 341
3 343 342 124
3 99 42 1
3 344 42 345
3 346 345 99
3 344 345 346
3 347 18 348
3 349 348 42
3 347 348 349
3 350 18 351
3 353 352 18
