ply
format ascii 1.0
element vertex 324
property float x
property float y
property float z
element face 285
property list uchar int vertex_index
end_header
-17.242313 30.304398 -11.91748
-14.465016 35.458904 -15.865112
-12.704807 40.438828 -21.537243
-17.490927 38.197914 -12.931623
-15.704782 32.956635 -13.680019
-21.580307 32.411098 -10.102205
-11.487615 41.542786 -35.49815
-10.439343 43.210075 -39.474957
-15.851169 25.287655 -12.684733
-14.758267 28.065895 -14.86841
-13.977738 30.601898 -17.48362
-13.420637 33.027588 -20.512766
-13.481248 38.18961 -18.552414
-19.298061 35.260773 -11.402924
-12.987142 35.406891 -23.904795
-12.598077 37.648617 -27.662374
-12.160514 39.632729 -31.681627
-11.056221 42.303848 -37.519855
-17.165035 26.580164 -11.487574
-16.465195 24.191166 -11.844658
-16.405926 28.075508 -12.31564
-15.055541 34.152512 -14.696052
-15.108044 30.213139 -14.185631
-14.557589 31.872013 -15.358909
-14.336168 29.296797 -16.126179
-14.089011 33.171097 -16.597887
-13.69401 34.360935 -17.905735
-13.9672 36.915478 -17.111568
-21.586914 36.015961 -10.441039
-20.35763 33.745182 -10.726745
-20.503605 37.280502 -11.057575
-12.99744 36.742798 -21.007111
-13.169099 34.40115 -22.106884
-12.721889 37.845955 -22.613056
-12.242721 39.791214 -26.202906
-12.383564 38.709053 -29.627024
-17.326473 34.137619 -12.40717
-16.431013 31.751501 -12.769647
-16.535057 35.682106 -13.27213
-22.795238 34.661854 -9.840927
-22.879477 38.247314 -10.019423
-12.317601 38.992512 -35.639534
-11.900513 39.956127 -37.527935
-11.385362 40.809872 -39.515213
-15.696145 29.066067 -13.213643
-15.273086 26.399645 -13.702236
-15.042773 24.304506 -14.480832
-14.694542 25.637678 -15.617998
-14.382858 26.967554 -16.972878
-14.138363 28.22607 -18.481714
-13.93973 29.476204 -20.112247
-13.671797 31.883804 -18.950274
-13.317772 35.478882 -19.463528
-13.058972 39.278133 -20.050997
-18.074059 28.824739 -11.187551
-19.197153 31.473398 -10.961879
-18.20051 32.704082 -11.642625
-18.28299 36.457561 -12.13089
-13.724003 31.004671 -21.839811
-13.57262 32.240467 -23.577852
-13.448875 33.382374 -25.448629
-12.780246 36.62899 -25.876959
-13.296394 34.551006 -27.325846
-13.150291 35.645256 -29.339624
-12.922072 36.854191 -31.382977
-12.701741 37.820717 -33.564117
-11.857535 40.618622 -33.568779
-21.134189 38.513039 -10.865471
-21.04526 36.648231 -10.749307
-21.675844 37.880768 -10.557203
-20.57867 39.122978 -11.223712
-21.134189 38.513039 -10.865471
-23.40297 35.690134 -9.635424
-23.4542 34.02515 -9.552664
-23.44509 37.482864 -9.724672
-22.837358 36.454584 -9.930175
-23.40297 35.690134 -9.635424
-10.580179 42.429254 -40.455922
-11.053189 41.229153 -40.47605
-10.912353 42.009974 -39.495085
-15.94183 23.443914 -12.470446
-16.248843 22.895669 -12.050409
-16.158182 24.73941 -12.264696
-15.687754 24.074454 -12.965406
-15.94183 23.443914 -12.470446
-18.588859 28.22862 -10.847983
-18.045293 26.966833 -10.962673
-20.965691 31.236978 -10.199898
-21.560966 30.647409 -9.921411
-17.087041 38.852161 -13.371721
-17.575386 40.047713 -13.195402
-10.879586 43.267461 -36.635511
-11.271918 41.923317 -36.509003
-11.095283 42.88693 -35.624659
-10.656227 43.533851 -37.598278
-10.879586 43.267461 -36.635511
-10.347787 43.986965 -38.575829
-10.747782 42.756962 -38.497406
-10.656227 43.533851 -37.598278
-16.815115 25.385665 -11.666116
-16.84527 23.394377 -11.411839
-17.195189 24.588876 -11.233297
-19.988387 38.012449 -11.413085
-19.385615 37.002584 -11.585759
-19.900833 36.270637 -11.230249
-19.988387 38.012449 -11.413085
-20.57867 39.122978 -11.223712
-12.00781 41.513947 -26.490756
-12.157011 41.077249 -25.5487
-12.116915 40.32543 -27.119645
-12.00781 41.513947 -26.490756
-12.294593 39.254131 -27.849379
-12.420399 38.719915 -26.93264
-12.116915 40.32543 -27.119645
-12.187337 39.784349 -28.831705
-12.49082 38.178835 -28.644699
-12.294593 39.254131 -27.849379
-12.056286 40.255964 -29.81992
-12.187337 39.784349 -28.831705
-11.944761 40.717802 -30.847222
-12.272039 39.170891 -30.654325
-12.056286 40.255964 -29.81992
-11.802623 41.137283 -31.821814
-11.944761 40.717802 -30.847222
-16.609106 37.594257 -13.541974
-17.012992 36.94001 -13.101876
-17.087041 38.852161 -13.371721
-16.157576 36.226647 -13.732206
-16.609106 37.594257 -13.541974
-15.742439 34.863911 -13.936151
-16.119919 34.31937 -13.476074
-16.157576 36.226647 -13.732206
-15.417818 35.461849 -14.444167
-15.380161 33.554574 -14.188035
-15.742439 34.863911 -13.936151
-15.059663 36.100768 -14.998803
-15.417818 35.461849 -14.444167
-14.764401 36.753963 -15.583333
-14.760279 34.805708 -15.280582
-15.059663 36.100768 -14.998803
-14.462931 37.495592 -16.184961
-14.764401 36.753963 -15.583333
-22.21539 31.720002 -9.817801
-21.560966 30.647409 -9.921411
-22.822856 32.84538 -9.687162
-23.4542 34.02515 -9.552664
-22.187773 33.536476 -9.971566
-22.21539 31.720002 -9.817801
-22.822856 32.84538 -9.687162
-22.322125 38.996445 -10.346395
-21.675844 37.880768 -10.557203
-22.233196 37.131637 -10.230231
-12.546212 40.842451 -22.340424
-12.607458 42.156559 -21.89338
-12.630168 38.200914 -36.634823
-12.816826 37.67823 -35.612223
-12.421625 38.682722 -37.579023
-12.630168 38.200914 -36.634823
-12.109057 39.47432 -36.583734
-12.144263 39.245753 -38.602728
-12.421625 38.682722 -37.579023
-11.886688 39.672625 -39.596367
-12.144263 39.245753 -38.602728
-11.642938 40.382999 -38.521574
-11.56867 40.137206 -40.624342
-11.886688 39.672625 -39.596367
-11.56867 40.137206 -40.624342
-11.053189 41.229153 -40.47605
-10.030351 44.412584 -39.455702
-10.347787 43.986965 -38.575829
-10.094342 43.584536 -40.392598
-10.030351 44.412584 -39.455702
-10.580179 42.429254 -40.455922
-10.094342 43.584536 -40.392598
-16.552266 22.229307 -11.596947
-16.84527 23.394377 -11.411839
-16.552266 22.229307 -11.596947
-16.248843 22.895669 -12.050409
-15.398712 24.630448 -13.474158
-15.687754 24.074454 -12.965406
-15.562127 25.84365 -13.193485
-15.283556 23.582879 -13.863456
-15.398712 24.630448 -13.474158
-15.157929 25.352075 -14.091534
-15.25754 22.471982 -14.205346
-15.283556 23.582879 -13.863456
-15.091054 23.171508 -14.848695
-15.25754 22.471982 -14.205346
-14.916939 23.838093 -15.417278
-15.091054 23.171508 -14.848695
-14.868658 24.971092 -15.049415
-14.789331 24.535548 -16.128031
-14.916939 23.838093 -15.417278
-14.633489 25.200486 -16.80547
-14.789331 24.535548 -16.128031
-14.5387 26.302616 -16.295438
-14.525386 25.946875 -17.558625
-14.633489 25.200486 -16.80547
-14.403138 26.576133 -18.313043
-14.525386 25.946875 -17.558625
-14.260611 27.596812 -17.727296
-14.344283 27.197615 -19.162188
-14.403138 26.576133 -18.313043
-14.039047 28.851137 -19.296981
-14.244966 27.822682 -19.977455
-14.344283 27.197615 -19.162188
-14.214023 38.223879 -16.808189
-14.216108 36.187191 -16.48834
-14.462931 37.495592 -16.184961
-13.946573 38.755059 -17.4133
-14.214023 38.223879 -16.808189
-13.703598 39.392125 -18.133722
-13.724224 37.552544 -17.831991
-13.946573 38.755059 -17.4133
-13.435719 39.950463 -18.855589
-13.703598 39.392125 -18.133722
-13.224581 40.494724 -19.604881
-13.27011 38.733871 -19.301705
-13.435719 39.950463 -18.855589
-12.993379 41.16329 -20.367047
-13.224581 40.494724 -19.604881
-12.816296 41.743638 -21.110169
-12.881889 39.85848 -20.79412
-12.993379 41.16329 -20.367047
-12.607458 42.156559 -21.89338
-12.816296 41.743638 -21.110169
-17.590781 25.844546 -11.112684
-17.195189 24.588876 -11.233297
-17.619547 27.702452 -11.337563
-17.590781 25.844546 -11.112684
-18.045293 26.966833 -10.962673
-20.354353 31.90402 -10.512168
-20.965691 31.236978 -10.199898
-20.968969 33.07814 -10.414475
-19.774114 30.768127 -10.629735
-20.354353 31.90402 -10.512168
-19.777392 32.60929 -10.844312
-19.150406 29.55295 -10.735148
-19.774114 30.768127 -10.629735
-18.635606 30.149068 -11.074715
-18.588859 28.22862 -10.847983
-19.150406 29.55295 -10.735148
-18.878079 37.600978 -11.949742
-18.790526 35.859167 -11.766907
-19.385615 37.002584 -11.585759
-18.396483 38.366992 -12.351723
-18.878079 37.600978 -11.949742
-18.000451 39.237169 -12.752089
-17.886958 37.327737 -12.531257
-18.396483 38.366992 -12.351723
-17.575386 40.047713 -13.195402
-18.000451 39.237169 -12.752089
-23.510033 39.200714 -9.710978
-23.44509 37.482864 -9.724672
-22.924567 39.986757 -10.074686
-23.510033 39.200714 -9.710978
-22.322125 38.996445 -10.346395
-22.924567 39.986757 -10.074686
-14.18591 28.50681 -20.843792
-14.244966 27.822682 -19.977455
-14.078046 29.271043 -21.707574
-14.18591 28.50681 -20.843792
-13.831867 30.240437 -20.976029
-14.018937 29.957345 -22.569938
-14.078046 29.271043 -21.707574
-13.943246 30.575243 -23.438959
-14.018937 29.957345 -22.569938
-13.648312 31.622569 -22.708832
-13.919328 31.152385 -24.391492
-13.943246 30.575243 -23.438959
-13.857455 31.723338 -25.326881
-13.919328 31.152385 -24.391492
-13.510748 32.81142 -24.513241
-13.801932 32.388794 -26.323791
-13.857455 31.723338 -25.326881
-12.554752 39.546015 -22.878331
-12.713348 39.142392 -22.07515
-12.546212 40.842451 -22.340424
-12.589144 38.408043 -23.509691
-12.554752 39.546015 -22.878331
-12.72177 37.188511 -24.15556
-12.854515 36.626423 -23.258926
-12.589144 38.408043 -23.509691
-12.34956 39.380673 -25.304616
-12.157011 41.077249 -25.5487
-12.618322 37.79956 -25.141642
-12.34956 39.380673 -25.304616
-12.511484 38.210102 -26.039932
-12.883694 36.017941 -24.890877
-12.72177 37.188511 -24.15556
-12.618322 37.79956 -25.141642
-13.725691 32.97311 -27.2624
-13.801932 32.388794 -26.323791
-13.372635 33.96669 -26.387237
-13.635108 33.670786 -28.223802
-13.725691 32.97311 -27.2624
-13.562057 34.217911 -29.230691
-13.635108 33.670786 -28.223802
-13.223342 35.098131 -28.332735
-13.499986 34.813704 -30.372857
-13.562057 34.217911 -29.230691
-13.385877 35.418171 -31.394534
-13.499986 34.813704 -30.372857
-13.036181 36.249724 -30.3613
-13.273041 36.033696 -32.494772
-13.385877 35.418171 -31.394534
-13.162876 36.516959 -33.585342
-13.273041 36.033696 -32.494772
-12.811906 37.337454 -32.473547
-13.008896 37.092333 -34.574514
-13.162876 36.516959 -33.585342
-12.509671 38.406615 -34.601826
-12.816826 37.67823 -35.612223
-13.008896 37.092333 -34.574514
-11.651133 41.63023 -32.76539
-12.009024 40.125675 -32.625203
-11.802623 41.137283 -31.821814
-11.475175 42.092472 -33.681394
-11.651133 41.63023 -32.76539
-11.290215 42.554554 -34.64608
-11.672575 41.080704 -34.533465
-11.475175 42.092472 -33.681394
-11.095283 42.88693 -35.624659
-11.290215 42.554554 -34.64608
3 0 20 18
3 1 23 21
3 1 25 23
3 1 27 25
3 67 30 68
3 69 68 28
3 67 68 69
3 71 70 30
3 2 33 31
3 3 38 36
3 72 39 73
3 74 40 75
3 76 75 39
3 74 75 76
3 6 42 41
3 7 43 17
3 7 77 79
3 79 78 43
3 77 78 79
3 8 80 82
3 82 81 19
3 80 81 82
3 8 83 84
3 4 44 37
3 9 45 22
3 9 46 45
3 9 47 46
3 10 48 24
3 10 49 48
3 10 51 49
3 12 52 26
3 12 53 52
3 85 54 86
3 5 87 88
3 13 55 29
3 13 56 55
3 13 57 56
3 11 58 50
3 14 59 32
3 14 60 59
3 15 61 34
3 15 62 61
3 15 63 62
3 16 64 35
3 16 65 64
3 16 66 65
3 90 89 3
3 91 17 92
3 93 92 6
3 91 92 93
3 94 17 95
3 96 7 97
3 98 97 17
3 96 97 98
3 18 99 101
3 99 19 100
3 99 100 101
3 20 19 18
3 20 8 19
3 21 22 4
3 23 22 21
3 23 9 22
3 23 24 9
3 25 24 23
3 25 10 24
3 25 26 10
3 27 26 25
3 27 12 26
3 28 29 5
3 30 29 28
3 30 13 29
3 30 102 104
3 104 103 13
3 102 103 104
3 106 105 30
3 31 32 11
3 33 32 31
3 33 14 32
3 107 34 108
3 109 34 110
3 111 15 112
3 113 112 34
3 111 112 113
3 114 35 115
3 116 115 15
3 114 115 116
3 117 35 118
3 119 16 120
3 121 120 35
3 119 120 121
3 123 122 16
3 36 37 0
3 38 37 36
3 38 4 37
3 124 38 125
3 126 125 3
3 124 125 126
3 127 38 128
3 129 4 130
3 131 130 38
3 129 130 131
3 132 21 133
3 134 133 4
3 132 133 134
3 135 21 136
3 137 1 138
3 139 138 21
3 137 138 139
3 141 140 1
3 142 5 143
3 39 144 145
3 39 146 148
3 146 5 147
3 146 147 148
3 39 28 5
3 40 28 39
3 40 149 151
3 151 150 28
3 149 150 151
3 153 152 2
3 41 154 155
3 42 156 158
3 158 157 41
3 156 157 158
3 42 159 160
3 17 42 6
3 43 42 17
3 43 161 163
3 163 162 42
3 161 162 163
3 43 164 165
3 167 166 43
3 168 7 169
3 170 7 171
3 173 172 7
3 19 174 175
3 177 176 19
3 37 20 0
3 44 20 37
3 44 8 20
3 22 44 4
3 45 44 22
3 45 8 44
3 45 178 180
3 180 179 8
3 178 179 180
3 46 181 183
3 183 182 45
3 181 182 183
3 46 184 185
3 46 186 187
3 47 188 190
3 190 189 46
3 188 189 190
3 47 191 192
3 24 47 9
3 48 47 24
3 48 193 195
3 195 194 47
3 193 194 195
3 48 196 197
3 49 198 200
3 200 199 48
3 198 199 200
3 49 201 202
3 49 203 205
3 203 50 204
3 203 204 205
3 51 50 49
3 51 11 50
3 26 51 10
3 52 51 26
3 52 11 51
3 52 31 11
3 53 31 52
3 53 2 31
3 206 27 207
3 208 207 1
3 206 207 208
3 209 27 210
3 211 12 212
3 213 212 27
3 211 212 213
3 214 12 215
3 216 53 217
3 218 217 12
3 216 217 218
3 219 53 220
3 221 2 222
3 223 222 53
3 221 222 223
3 225 224 2
3 226 18 227
3 54 228 230
3 228 18 229
3 228 229 230
3 54 0 18
3 29 231 233
3 233 232 5
3 231 232 233
3 55 234 236
3 236 235 29
3 234 235 236
3 55 237 238
3 55 239 241
3 239 54 240
3 239 240 241
3 56 54 55
3 56 0 54
3 56 36 0
3 57 36 56
3 57 3 36
3 242 57 243
3 244 243 13
3 242 243 244
3 245 57 246
3 247 3 248
3 249 248 57
3 247 248 249
3 251 250 3
3 252 40 253
3 254 40 255
3 257 256 40
3 50 258 259
3 58 260 262
3 262 261 50
3 260 261 262
3 58 263 264
3 32 58 11
3 59 58 32
3 59 265 267
3 267 266 58
3 265 266 267
3 59 268 269
3 60 270 272
3 272 271 59
3 270 271 272
3 60 273 274
3 275 33 276
3 277 276 2
3 275 276 277
3 278 33 279
3 280 14 281
3 282 281 33
3 280 281 282
3 34 283 284
3 61 285 287
3 287 286 34
3 285 286 287
3 61 288 290
3 288 14 289
3 288 289 290
3 61 60 14
3 62 60 61
3 62 291 293
3 293 292 60
3 291 292 293
3 62 294 295
3 63 296 298
3 298 297 62
3 296 297 298
3 63 299 300
3 35 63 15
3 64 63 35
3 64 301 303
3 303 302 63
3 301 302 303
3 64 304 305
3 65 306 308
3 308 307 64
3 306 307 308
3 65 309 310
3 65 311 313
3 311 41 312
3 311 312 313
3 66 41 65
3 66 6 41
3 314 66 315
3 316 315 16
3 314 315 316
3 317 66 318
3 319 6 320
3 321 320 66
3 319 320 321
3 323 322 6
