ply
format ascii 1.0
element vertex 423
property float x
property float y
property float z
element face 374
property list uchar int vertex_index
end_header
-23.183678 -35.539219 -21.133478
-28.231169 -42.448837 -7.817873
-19.024477 -36.995758 -26.068794
-35.602772 -20.777082 16.563877
-33.866611 -33.575588 8.662981
-25.853567 -39.158489 -15.450316
-20.285074 -41.054153 -23.573526
-21.331852 -36.277668 -23.335026
-36.761177 -12.980636 16.233282
-36.602573 -19.558672 12.450837
-35.07333 -27.442982 12.743294
-35.576469 -26.558393 8.401858
-33.860035 -32.84024 4.315682
-24.646072 -44.633011 -14.858837
-27.139229 -40.754791 -11.920429
-32.103783 -40.247459 9.113073
-31.976341 -39.533031 4.897191
-31.59189 -38.552734 0.196476
-30.975916 -37.467976 -4.091496
-30.055363 -36.052746 -8.423282
-24.474083 -37.103031 -18.702137
-22.763803 -37.246151 -21.136366
-21.791363 -37.93544 -22.261726
-22.341518 -35.892647 -22.136429
-37.23801 -15.88939 12.128123
-36.897842 -19.467447 10.249481
-36.175629 -23.166845 10.480657
-36.395481 -22.806618 8.170152
-26.860823 -44.770969 -9.600348
-26.374763 -43.894638 -11.49216
-27.69615 -41.721016 -9.89005
-19.675491 -39.015839 -24.841257
-17.8515 -37.276409 -27.469843
-36.163795 -17.076633 16.495277
-36.095798 -13.570411 18.345694
-35.520538 -17.522486 18.630461
-34.547058 -30.605764 10.756207
-34.319214 -30.903509 12.927932
-33.740959 -33.97316 10.878396
-32.976528 -36.975956 8.874529
-32.097927 -39.793953 7.000101
-32.983574 -36.608402 6.775462
-32.726215 -35.905838 2.144089
-32.541813 -35.309177 -0.122747
-31.306482 -38.012047 -2.036044
-29.486902 -35.314571 -10.415439
-25.19582 -41.88834 -15.2371
-21.246975 -40.327633 -22.359158
-20.759981 -38.443581 -23.519991
-20.251902 -36.640984 -24.613415
-30.015837 -45.184879 3.124067
-37.310215 -8.793183 15.902531
-37.353878 -12.309558 14.105537
-36.718754 -16.554165 14.419988
-36.097767 -20.507984 14.453678
-35.405663 -24.292044 14.653295
-35.849663 -23.616879 12.617841
-35.400803 -26.802679 10.74834
-34.771572 -29.964445 8.594901
-33.942795 -33.08746 6.628521
-34.860798 -29.534946 6.429333
-25.178089 -45.666363 -13.096697
-25.838125 -42.848392 -13.386092
-26.560301 -39.911167 -13.680256
-28.718391 -43.120125 -5.615512
-24.058655 -34.304733 -20.387127
-36.630192 -9.41777 18.059393
-34.716797 -27.750952 14.890108
-31.056915 -42.722347 5.16644
-30.931459 -42.103222 2.890738
-32.89856 -36.275684 4.531454
-31.822947 -39.077507 2.585059
-30.667322 -41.731903 0.648234
-30.379299 -41.177322 -1.630559
-29.996037 -40.676765 -3.879376
-29.627003 -39.930859 -6.029637
-30.522121 -36.805908 -6.374519
-29.112274 -39.308964 -8.171144
-28.590982 -38.465965 -10.208059
-28.015779 -37.714199 -12.046179
-27.232885 -37.052235 -14.035019
-27.9125 -34.161083 -14.386786
-26.532913 -36.180721 -15.782736
-25.766338 -35.429729 -17.416981
-24.973495 -34.67635 -18.950575
-23.792509 -36.152569 -20.075718
-23.509621 -46.331577 -16.359138
-23.351236 -38.407879 -19.887129
-37.038539 -19.166469 9.064233
-37.261892 -17.380465 10.085612
-36.787359 -20.836054 8.024569
-36.646661 -21.137033 9.209816
-37.038539 -19.166469 9.064233
-36.459297 -22.575359 6.95352
-36.787359 -20.836054 8.024569
-27.545996 -43.609903 -8.70911
-27.108581 -45.124971 -8.584278
-27.793754 -43.963905 -7.693041
-18.809557 -38.250282 -26.13248
-19.135064 -39.260323 -25.518711
-19.349984 -38.005798 -25.455025
-18.437989 -37.136083 -26.769319
-18.223069 -38.390608 -26.833004
-18.809557 -38.250282 -26.13248
-35.303099 -20.980604 17.621589
-35.261982 -19.353306 18.654882
-35.561655 -19.149784 17.597169
-35.263452 -22.623556 16.746533
-35.303099 -20.980604 17.621589
-33.070444 -33.499018 -0.179364
-33.156021 -33.787422 0.928527
-32.453169 -34.899506 -1.179679
-33.070444 -33.499018 -0.179364
-25.222777 -39.999014 -16.16149
-24.893904 -41.36394 -16.054882
-25.524694 -40.523415 -15.343708
-25.533589 -38.611889 -16.276877
-25.222777 -39.999014 -16.16149
-21.747649 -39.948499 -21.740671
-21.518161 -41.125763 -21.724824
-30.090536 -45.473669 4.198134
-29.558404 -46.774271 3.278397
-37.583687 -12.17734 12.995908
-37.639629 -10.314583 13.823349
-25.411257 -46.198879 -12.175402
-24.882019 -47.091259 -12.909713
-20.103387 -42.370281 -23.591236
-20.55607 -42.070688 -22.933322
-28.92069 -43.378472 -4.576994
-28.231946 -44.70645 -5.543941
-24.13427 -33.231275 -20.673536
-24.653716 -33.340643 -19.931258
-35.966724 -11.837589 19.308213
-35.735359 -13.878284 19.364701
-34.149161 -31.10761 14.032523
-33.930806 -32.62617 12.993174
-32.083759 -40.459086 10.235693
-32.503849 -38.792949 10.102458
-31.700758 -41.771782 9.285734
-32.083759 -40.459086 10.235693
-31.660137 -41.604971 8.194926
-31.700758 -41.771782 9.285734
-30.288742 -36.429327 -7.3989
-30.986565 -35.238384 -6.45464
-30.753186 -34.861803 -7.479021
-28.351365 -36.279305 -12.263442
-28.75134 -36.514385 -11.230809
-29.086927 -35.079491 -11.448072
-27.959918 -35.948323 -13.257862
-27.624332 -37.383217 -13.040599
-28.351365 -36.279305 -12.263442
-27.516539 -33.795192 -15.27072
-28.227886 -32.720404 -14.589215
-26.826745 -34.805011 -15.968695
-27.222707 -35.170902 -15.084761
-27.516539 -33.795192 -15.27072
-26.443458 -34.429516 -16.785818
-26.149625 -35.805225 -16.599858
-26.826745 -34.805011 -15.968695
-25.111136 -33.526452 -19.212982
-25.608116 -33.768198 -18.384936
-24.653716 -33.340643 -19.931258
-24.516075 -34.490541 -19.668851
-25.111136 -33.526452 -19.212982
-24.077846 -45.482294 -15.608988
-23.804427 -46.890246 -15.436457
-24.372653 -46.040963 -14.686307
-23.91266 -37.755455 -19.294633
-23.670244 -39.033705 -19.149349
-24.231668 -38.381281 -18.556854
-22.277583 -37.590795 -21.699046
-22.019843 -38.752403 -21.691955
-22.506063 -38.407758 -21.129275
-37.431976 -15.591437 11.024933
-37.525753 -13.967256 12.0072
-37.067926 -17.678418 11.188802
-37.431976 -15.591437 11.024933
-37.261892 -17.380465 10.085612
-36.038809 -24.470537 7.155299
-35.629303 -26.346424 7.271152
-35.985975 -24.682505 8.286005
-36.038809 -24.470537 7.155299
-36.459297 -22.575359 6.95352
-26.482547 -46.192878 -9.46931
-27.108581 -45.124971 -8.584278
-26.252624 -45.751182 -10.427228
-26.482547 -46.192878 -9.46931
-26.617793 -44.332803 -10.546254
-26.009594 -45.313017 -11.373133
-26.252624 -45.751182 -10.427228
-19.477949 -40.290155 -24.886674
-19.782741 -41.309313 -24.252809
-19.980283 -40.034996 -24.207391
-19.477949 -40.290155 -24.886674
-19.135064 -39.260323 -25.518711
-17.718394 -38.594034 -27.482046
-18.223069 -38.390608 -26.833004
-17.272218 -37.384058 -28.169802
-17.718394 -38.594034 -27.482046
-35.447729 -15.854321 19.507084
-35.735359 -13.878284 19.364701
-35.808168 -15.546449 18.488078
-35.188578 -17.858441 19.573016
-35.447729 -15.854321 19.507084
-35.188578 -17.858441 19.573016
-35.261982 -19.353306 18.654882
-33.641678 -34.160995 11.968406
-33.930806 -32.62617 12.993174
-34.030086 -32.438334 11.903164
-33.322437 -35.6558 10.985119
-33.641678 -34.160995 11.968406
-32.940221 -37.157198 9.983186
-33.322437 -35.6558 10.985119
-33.358744 -35.474558 9.876463
-32.540155 -38.611707 8.993801
-32.503849 -38.792949 10.102458
-32.940221 -37.157198 9.983186
-33.248222 -34.085752 2.061945
-33.293125 -34.373039 3.229885
-33.815132 -32.552954 3.147741
-32.634014 -35.607507 1.010671
-33.248222 -34.085752 2.061945
-33.156021 -33.787422 0.928527
-31.835504 -36.25094 -2.136328
-31.924147 -36.660612 -1.079395
-32.453169 -34.899506 -1.179679
-31.67022 -35.978905 -3.164054
-31.141199 -37.740012 -3.06377
-31.835504 -36.25094 -2.136328
-30.499711 -34.462475 -8.548964
-30.753186 -34.861803 -7.479021
-30.21548 -34.093388 -9.545042
-29.771133 -35.683658 -9.41936
-30.499711 -34.462475 -8.548964
-29.88819 -33.751873 -10.589845
-30.21548 -34.093388 -9.545042
-29.086927 -35.079491 -11.448072
-29.88819 -33.751873 -10.589845
-24.608995 -42.685412 -15.955324
-24.334122 -44.057747 -15.766192
-24.920946 -43.260676 -15.047968
-24.608995 -42.685412 -15.955324
-24.893904 -41.36394 -16.054882
-24.843846 -37.58416 -17.902787
-24.231668 -38.381281 -18.556854
-21.03702 -41.707428 -22.326138
-21.518161 -41.125763 -21.724824
-20.766025 -40.690893 -22.966342
-20.55607 -42.070688 -22.933322
-21.03702 -41.707428 -22.326138
-21.519169 -39.131536 -22.310442
-21.747649 -39.948499 -21.740671
-22.019843 -38.752403 -21.691955
-29.436003 -46.524433 2.21139
-29.558404 -46.774271 3.278397
-29.840723 -45.103471 2.008812
-29.436003 -46.524433 2.21139
-37.617798 -8.556396 14.721846
-37.548168 -6.908787 15.652286
-37.332047 -10.551371 15.004034
-37.617798 -8.556396 14.721846
-37.639629 -10.314583 13.823349
-37.295944 -14.099474 13.11683
-37.583687 -12.17734 12.995908
-37.525753 -13.967256 12.0072
-35.271467 -27.834701 6.28489
-35.218634 -28.04667 7.415596
-35.629303 -26.346424 7.271152
-34.842918 -29.374706 5.290936
-35.271467 -27.834701 6.28489
-34.342537 -31.027353 4.23411
-34.360416 -31.187593 5.372507
-34.842918 -29.374706 5.290936
-33.815132 -32.552954 3.147741
-34.342537 -31.027353 4.23411
-24.638661 -46.557638 -13.805236
-24.882019 -47.091259 -12.909713
-24.912081 -45.149687 -13.977767
-24.372653 -46.040963 -14.686307
-24.638661 -46.557638 -13.805236
-25.776426 -44.780501 -12.294429
-25.411257 -46.198879 -12.175402
-26.009594 -45.313017 -11.373133
-20.103387 -42.370281 -23.591236
-19.782741 -41.309313 -24.252809
-28.037365 -44.299549 -6.591861
-28.231946 -44.70645 -5.543941
-28.47478 -42.784481 -6.716692
-27.793754 -43.963905 -7.693041
-28.037365 -44.299549 -6.591861
-23.595841 -34.174753 -21.044064
-23.158353 -34.791996 -21.417239
-23.621167 -34.921976 -20.760303
-23.595841 -34.174753 -21.044064
-24.13427 -33.231275 -20.673536
-37.19598 -7.061112 16.839968
-37.548168 -6.908787 15.652286
-36.855969 -7.373406 17.918399
-37.19598 -7.061112 16.839968
-36.970203 -9.105477 16.980962
-36.485012 -7.766011 18.951276
-36.855969 -7.373406 17.918399
-36.233921 -9.761268 19.165062
-36.362995 -11.494091 18.202544
-35.966724 -11.837589 19.308213
-36.485012 -7.766011 18.951276
-36.233921 -9.761268 19.165062
-35.164898 -24.381037 15.791242
-35.263452 -22.623556 16.746533
-35.504217 -22.534563 15.608586
-34.820465 -26.110491 15.909649
-35.164898 -24.381037 15.791242
-35.06123 -26.021498 14.771701
-34.476524 -28.02675 15.973581
-34.820465 -26.110491 15.909649
-34.347952 -29.531331 15.013611
-34.518006 -29.32723 13.90902
-34.149161 -31.10761 14.032523
-34.476524 -28.02675 15.973581
-34.347952 -29.531331 15.013611
-31.657208 -41.378218 7.13844
-31.660137 -41.604971 8.194926
-32.100855 -40.020706 8.056587
-31.136702 -42.842415 6.22161
-31.657208 -41.378218 7.13844
-31.577421 -41.25815 6.08327
-30.611075 -44.242403 5.219321
-31.136702 -42.842415 6.22161
-30.536376 -43.953613 4.145253
-30.090536 -45.473669 4.198134
-30.611075 -44.242403 5.219321
-30.298534 -43.562643 1.892147
-29.840723 -45.103471 2.008812
-30.473648 -43.644051 3.007402
-30.166466 -43.376984 0.770895
-30.298534 -43.562643 1.892147
-30.799391 -41.917563 1.769486
-30.058026 -42.985342 -0.354622
-30.166466 -43.376984 0.770895
-29.914015 -42.708051 -1.494019
-30.058026 -42.985342 -0.354622
-30.523311 -41.454612 -0.491163
-29.751143 -42.40707 -2.584517
-29.914015 -42.708051 -1.494019
-29.559513 -42.156791 -3.708926
-29.751143 -42.40707 -2.584517
-30.187668 -40.927043 -2.754968
-29.357214 -41.898445 -4.747444
-28.92069 -43.378472 -4.576994
-29.559513 -42.156791 -3.708926
-31.452889 -35.804947 -4.262942
-31.67022 -35.978905 -3.164054
-31.225991 -35.473913 -5.404453
-30.986565 -35.238384 -6.45464
-30.749018 -37.136942 -5.233008
-31.452889 -35.804947 -4.262942
-31.225991 -35.473913 -5.404453
-28.647847 -32.99011 -13.650862
-28.227886 -32.720404 -14.589215
-28.299726 -34.502747 -13.433746
-28.647847 -32.99011 -13.650862
-27.572693 -35.606659 -14.210902
-27.959918 -35.948323 -13.257862
-28.299726 -34.502747 -13.433746
-25.873261 -37.123005 -16.443086
-25.533589 -38.611889 -16.276877
-26.19324 -37.669605 -15.616526
-25.489974 -36.747509 -17.260209
-25.873261 -37.123005 -16.443086
-26.149625 -35.805225 -16.599858
-25.12021 -36.26638 -18.059559
-24.843846 -37.58416 -17.902787
-25.489974 -36.747509 -17.260209
-26.004538 -34.144887 -17.618139
-26.443458 -34.429516 -16.785818
-25.369917 -35.053039 -18.183778
-26.004538 -34.144887 -17.618139
-25.608116 -33.768198 -18.384936
-23.282219 -47.809326 -16.185399
-23.804427 -46.890246 -15.436457
-23.053615 -47.01721 -17.019772
-23.282219 -47.809326 -16.185399
-23.765896 -44.90703 -16.516343
-24.077846 -45.482294 -15.608988
-24.334122 -44.057747 -15.766192
-23.234862 -45.596636 -17.217256
-23.765896 -44.90703 -16.516343
-23.053615 -47.01721 -17.019772
-23.234862 -45.596636 -17.217256
-23.085718 -39.631952 -19.853895
-23.670244 -39.033705 -19.149349
-22.799779 -38.988623 -20.504656
-23.085718 -39.631952 -19.853895
-23.057519 -37.827015 -20.511747
-22.506063 -38.407758 -21.129275
-22.799779 -38.988623 -20.504656
-22.737273 -34.96871 -21.918715
-22.762598 -35.715933 -21.634954
-23.158353 -34.791996 -21.417239
-22.22618 -35.033478 -22.545379
-22.737273 -34.96871 -21.918715
-21.721347 -35.225988 -23.144678
-21.836685 -36.085157 -22.735727
-22.22618 -35.033478 -22.545379
-21.145077 -35.371037 -23.811886
-21.721347 -35.225988 -23.144678
-20.605103 -35.552695 -24.45108
-20.791877 -36.459326 -23.974221
-21.145077 -35.371037 -23.811886
-19.987018 -35.638817 -25.169837
-20.605103 -35.552695 -24.45108
-19.373306 -35.816204 -25.897526
-19.63819 -36.818371 -25.341105
-19.987018 -35.638817 -25.169837
-18.73644 -35.8938 -26.62671
-19.373306 -35.816204 -25.897526
-18.149951 -36.034126 -27.327235
-18.437989 -37.136083 -26.769319
-18.73644 -35.8938 -26.62671
-17.53974 -36.082813 -28.022128
-18.149951 -36.034126 -27.327235
-17.272218 -37.384058 -28.169802
-17.53974 -36.082813 -28.022128
3 0 23 21
3 88 25 89
3 90 27 91
3 92 91 25
3 90 91 92
3 94 93 27
3 1 95 97
3 95 28 96
3 95 96 97
3 1 30 28
3 2 98 100
3 100 99 31
3 98 99 100
3 2 101 103
3 101 32 102
3 101 102 103
3 3 35 33
3 3 104 106
3 106 105 35
3 104 105 106
3 3 107 108
3 4 38 36
3 4 39 38
3 4 41 39
3 109 43 110
3 112 111 43
3 5 113 115
3 115 114 46
3 113 114 115
3 5 116 117
3 118 47 119
3 7 48 22
3 7 49 48
3 120 50 121
3 122 52 123
3 9 53 24
3 9 54 53
3 9 56 54
3 11 57 26
3 11 58 57
3 11 60 58
3 124 61 125
3 14 62 29
3 14 63 62
3 6 126 127
3 128 64 129
3 131 130 65
3 8 66 51
3 133 132 34
3 10 67 55
3 135 134 37
3 15 136 137
3 15 138 139
3 15 140 141
3 16 68 40
3 16 69 68
3 12 70 59
3 17 71 42
3 17 72 71
3 17 73 72
3 18 74 44
3 18 75 74
3 19 142 144
3 142 76 143
3 142 143 144
3 19 77 76
3 19 78 77
3 145 79 146
3 147 146 45
3 145 146 147
3 148 80 149
3 150 149 79
3 148 149 150
3 151 81 152
3 153 82 154
3 155 154 81
3 153 154 155
3 156 83 157
3 158 157 82
3 156 157 158
3 159 84 160
3 161 65 162
3 163 162 84
3 161 162 163
3 13 164 166
3 164 86 165
3 164 165 166
3 20 167 169
3 167 87 168
3 167 168 169
3 20 85 87
3 21 170 172
3 170 22 171
3 170 171 172
3 23 22 21
3 23 7 22
3 173 24 174
3 25 175 177
3 175 24 176
3 175 176 177
3 25 9 24
3 25 26 9
3 27 26 25
3 27 11 26
3 27 178 180
3 180 179 11
3 178 179 180
3 182 181 27
3 28 183 184
3 28 185 186
3 28 187 189
3 187 29 188
3 187 188 189
3 30 29 28
3 30 14 29
3 31 190 192
3 192 191 6
3 190 191 192
3 194 193 31
3 32 195 196
3 32 197 198
3 33 34 8
3 35 34 33
3 35 199 201
3 201 200 34
3 199 200 201
3 35 202 203
3 205 204 35
3 36 37 10
3 38 37 36
3 38 206 208
3 208 207 37
3 206 207 208
3 38 209 210
3 39 211 213
3 213 212 38
3 211 212 213
3 39 214 216
3 214 15 215
3 214 215 216
3 39 40 15
3 41 40 39
3 41 16 40
3 217 42 218
3 219 218 12
3 217 218 219
3 43 220 222
3 220 42 221
3 220 221 222
3 43 17 42
3 43 44 17
3 223 44 224
3 225 224 43
3 223 224 225
3 226 18 227
3 228 227 44
3 226 227 228
3 229 19 230
3 231 45 232
3 233 232 19
3 231 232 233
3 234 45 235
3 237 236 45
3 46 238 240
3 240 239 13
3 238 239 240
3 242 241 46
3 243 20 244
3 47 245 246
3 47 247 249
3 247 6 248
3 247 248 249
3 22 250 252
3 250 47 251
3 250 251 252
3 48 47 22
3 48 6 47
3 48 31 6
3 49 31 48
3 49 2 31
3 50 253 254
3 50 255 256
3 257 51 258
3 52 259 261
3 259 51 260
3 259 260 261
3 52 8 51
3 24 262 264
3 262 52 263
3 262 263 264
3 53 52 24
3 53 8 52
3 53 33 8
3 54 33 53
3 54 3 33
3 54 55 3
3 56 55 54
3 56 10 55
3 26 56 9
3 57 56 26
3 57 10 56
3 57 36 10
3 58 36 57
3 58 4 36
3 58 59 4
3 60 59 58
3 60 12 59
3 265 60 266
3 267 266 11
3 265 266 267
3 268 60 269
3 270 12 271
3 272 271 60
3 270 271 272
3 274 273 12
3 61 275 276
3 61 277 279
3 277 13 278
3 277 278 279
3 29 280 282
3 280 61 281
3 280 281 282
3 62 61 29
3 62 13 61
3 62 46 13
3 63 46 62
3 63 5 46
3 284 283 6
3 64 285 286
3 64 287 289
3 287 1 288
3 287 288 289
3 65 290 292
3 292 291 0
3 290 291 292
3 294 293 65
3 51 295 296
3 66 297 299
3 299 298 51
3 297 298 299
3 66 300 301
3 34 66 8
3 302 66 303
3 304 303 34
3 302 303 304
3 306 305 66
3 55 307 309
3 309 308 3
3 307 308 309
3 67 310 312
3 312 311 55
3 310 311 312
3 67 313 314
3 37 67 10
3 315 67 316
3 317 316 37
3 315 316 317
3 319 318 67
3 40 320 322
3 322 321 15
3 320 321 322
3 68 323 325
3 325 324 40
3 323 324 325
3 68 326 327
3 68 328 330
3 328 50 329
3 328 329 330
3 69 50 68
3 69 331 333
3 333 332 50
3 331 332 333
3 59 41 4
3 70 41 59
3 70 16 41
3 42 70 12
3 71 70 42
3 71 16 70
3 71 69 16
3 72 69 71
3 72 334 336
3 336 335 69
3 334 335 336
3 72 337 338
3 73 339 341
3 341 340 72
3 339 340 341
3 73 342 343
3 44 73 17
3 74 73 44
3 74 344 346
3 346 345 73
3 344 345 346
3 74 347 349
3 347 64 348
3 347 348 349
3 75 64 74
3 75 1 64
3 350 18 351
3 76 352 353
3 76 354 356
3 354 18 355
3 354 355 356
3 76 75 18
3 77 75 76
3 77 1 75
3 77 30 1
3 78 30 77
3 78 14 30
3 45 78 19
3 79 78 45
3 79 14 78
3 79 63 14
3 80 63 79
3 80 5 63
3 81 357 358
3 81 359 360
3 81 361 363
3 361 80 362
3 361 362 363
3 82 80 81
3 82 5 80
3 82 364 366
3 366 365 5
3 364 365 366
3 83 367 369
3 369 368 82
3 367 368 369
3 83 370 372
3 370 20 371
3 370 371 372
3 373 83 374
3 84 375 377
3 375 83 376
3 375 376 377
3 84 20 83
3 84 85 20
3 65 85 84
3 65 0 85
3 86 378 379
3 86 380 381
3 382 86 383
3 384 383 13
3 382 383 384
3 385 86 386
3 388 387 86
3 87 389 390
3 87 391 392
3 87 393 395
3 393 21 394
3 393 394 395
3 85 21 87
3 85 0 21
3 396 23 397
3 398 397 0
3 396 397 398
3 399 23 400
3 401 7 402
3 403 402 23
3 401 402 403
3 404 7 405
3 406 49 407
3 408 407 7
3 406 407 408
3 409 49 410
3 411 2 412
3 413 412 49
3 411 412 413
3 414 2 415
3 416 32 417
3 418 417 2
3 416 417 418
3 419 32 420
3 422 421 32
