ply
format ascii 1.0
element vertex 362
property float x
property float y
property float z
element face 377
property list uchar int vertex_index
end_header
19.849127 12.642424 41.263847
32.180099 13.522241 26.477575
35.715122 24.628529 10.689259
25.919222 13.59818 33.838985
22.996117 21.442839 34.727409
29.044535 21.139059 26.407442
34.859829 19.846241 18.602417
22.820293 13.175031 37.669136
23.96962 9.666069 37.376129
20.932266 9.068628 40.917347
18.452728 16.502609 41.912357
20.002111 21.151148 38.775917
21.614717 16.977177 38.033085
24.589615 17.30575 34.169796
30.736271 17.376837 26.219358
32.030979 20.748652 22.330256
33.593971 16.795958 22.775997
37.525612 21.748247 7.494498
37.83844 20.065977 11.325344
29.048443 13.749343 30.081121
27.012207 10.042154 33.893505
27.007992 25.292892 26.887321
25.906731 21.295849 30.759251
27.566795 17.467093 30.265463
33.194679 26.780291 14.496835
29.841433 24.90353 22.649263
32.844326 23.885817 18.435104
35.616108 22.363123 14.530934
37.478729 18.062624 15.281532
21.300669 12.911549 39.53017
21.9606 11.132167 39.233715
20.43626 10.756422 41.056717
19.237617 14.501828 41.510559
20.019526 16.836351 40.011192
20.804052 14.882208 39.598244
22.302345 15.044436 37.753933
31.33634 15.379067 26.533663
32.18721 16.988773 24.547197
32.953354 15.119183 24.642256
35.598045 25.601166 8.830927
36.451904 24.211031 7.114697
36.69521 23.369459 8.989029
37.719036 21.075163 9.308796
36.827374 22.333782 10.996354
27.450386 13.712362 31.979658
28.065136 12.034418 31.945797
26.535313 11.868447 33.748734
22.90246 7.553801 39.173584
21.515133 21.233072 36.796707
20.630144 23.428986 37.187466
22.070946 23.445435 35.207695
23.615004 23.579861 32.955944
25.047516 23.421677 30.946447
24.442547 21.349201 32.778297
25.301983 15.371654 33.958382
26.023222 17.478609 32.259769
26.820295 15.488737 32.035297
28.323029 15.466757 30.192444
28.041208 23.218369 26.620659
28.433296 25.078291 24.782841
29.455662 23.080395 24.578438
33.487041 20.27401 20.473635
32.392159 22.434404 20.484482
33.889709 21.725994 18.594809
34.307655 23.049641 16.531269
35.343327 21.10425 16.538914
36.615669 20.233486 14.799624
36.223743 19.014879 16.915203
24.35219 13.409813 35.771637
24.999886 11.692884 35.568928
23.373524 11.453943 37.517715
22.527927 9.403725 39.058983
21.432514 7.317049 40.820351
17.658449 18.848171 42.211292
19.239531 18.85811 40.386333
20.888239 19.077171 38.30838
22.396809 19.208447 36.337147
23.827532 19.393833 34.395557
23.177105 17.160759 36.018314
23.691189 15.171882 36.014992
29.915092 19.18767 26.305815
30.499741 21.116968 24.328094
31.425591 19.088272 24.301588
32.884773 18.779787 22.455362
34.403698 18.218773 20.62895
35.760193 17.752987 18.853052
30.598675 13.69078 28.28233
29.590677 11.980919 30.242712
25.423588 9.818369 35.716537
25.538952 25.393175 29.131512
26.5354 23.231735 28.855194
27.476776 21.207249 28.593082
25.276352 19.343868 32.488663
26.735073 19.387157 30.507359
28.378426 19.357443 28.298918
29.131672 17.328875 28.313931
29.841173 15.502716 28.312883
34.443295 27.863047 8.61166
34.503075 26.915628 10.575847
16.856541 16.427034 43.678532
17.639158 14.303818 43.32756
19.294487 8.640429 42.803822
19.871277 6.960163 42.579494
34.569027 25.656631 12.591704
28.776726 26.928774 22.803534
30.272945 26.397703 20.673859
30.947502 22.775278 22.507015
31.348289 24.436226 20.53615
31.640278 26.027943 18.553425
33.135429 25.289465 16.432346
34.44437 24.472116 14.584446
35.744198 23.462873 12.667699
36.811012 21.264696 12.920585
37.751667 19.136806 13.225969
37.111107 16.872108 17.223616
32.45115 12.614448 26.622463
32.913088 13.38862 25.648092
32.913088 13.38862 25.648092
33.299715 14.187091 24.730432
32.566727 14.320712 25.559916
23.119121 6.761338 39.174504
22.356333 6.551265 40.032478
34.374918 16.57177 21.816168
34.779781 17.283178 20.742645
33.998835 17.507365 21.702473
37.346193 22.068364 6.6426
36.80934 23.299756 6.452699
36.988758 22.979639 7.304597
37.810812 20.827223 6.857916
37.346193 22.068364 6.6426
37.986775 20.572707 7.756064
38.271974 19.651683 7.119483
37.810812 20.827223 6.857916
38.238882 19.411307 10.551253
38.17918 19.9159 9.542979
37.778738 20.57057 10.31707
38.276898 18.947682 11.55974
38.238882 19.411307 10.551253
27.82009 10.135582 32.976601
28.346555 11.131714 32.002747
27.538671 11.038286 32.919651
27.313843 9.164402 33.902923
27.82009 10.135582 32.976601
19.594302 22.239242 38.935295
19.25731 21.105594 39.699997
20.372468 25.773567 36.613153
20.127309 24.645025 37.40106
20.875303 24.557527 36.399559
24.766733 25.549182 30.235879
25.012224 26.516463 29.293308
33.872761 28.502634 9.539718
33.803085 29.04214 8.626153
33.902651 28.028924 10.521812
34.473185 27.389338 9.593754
33.872761 28.502634 9.539718
16.009268 16.327064 44.575981
16.448317 17.560542 43.839619
17.15014 13.177248 44.088785
16.817597 14.212409 44.21084
17.960695 13.325408 43.197719
17.15014 13.177248 44.088785
18.50837 8.514513 43.662897
19.085603 9.592889 42.813906
19.278659 5.950206 43.434381
19.026879 6.781244 43.50716
18.434261 5.771287 44.362047
20.070134 6.140841 42.569564
19.278659 5.950206 43.434381
33.237302 27.39088 13.510387
32.558604 27.853962 14.572419
33.881853 26.218461 13.54427
33.924476 26.82905 12.557821
33.237302 27.39088 13.510387
27.185859 26.267555 25.919429
26.434124 26.343404 27.121527
37.970068 17.61285 14.53959
38.106537 18.149941 13.511809
37.615198 18.599715 14.25375
36.824286 16.325223 18.178028
36.43565 17.312548 18.038334
36.148829 16.765663 18.992747
33.708813 15.015607 23.71178
34.029122 15.853994 22.778651
33.273663 15.95757 23.709126
33.708813 15.015607 23.71178
33.299715 14.187091 24.730432
36.024974 24.906098 7.972812
35.877825 25.419269 7.007271
35.450895 26.114337 7.865386
23.657061 7.74509 38.304279
24.190641 8.801224 37.405552
23.43604 8.609935 38.274856
23.657061 7.74509 38.304279
23.119121 6.761338 39.174504
21.595704 24.565751 35.409673
20.875303 24.557527 36.399559
21.350545 23.43721 36.197581
22.334979 24.502367 34.362019
21.595704 24.565751 35.409673
23.107008 24.569579 33.236143
22.334979 24.502367 34.362019
22.842975 23.512648 34.08182
23.804759 24.642525 32.148095
23.107008 24.569579 33.236143
24.33126 23.500769 31.951196
24.521015 24.563433 31.143346
23.804759 24.642525 32.148095
32.575724 27.079277 15.492752
32.558604 27.853962 14.572419
21.62136 6.432888 40.855862
22.356333 6.551265 40.032478
22.167487 7.435425 39.996967
18.085479 19.954106 41.417685
17.261704 19.969225 42.356304
18.87602 19.959075 40.505205
18.085479 19.954106 41.417685
18.44899 18.853141 41.298812
19.620821 20.004629 39.581125
19.25731 21.105594 39.699997
18.87602 19.959075 40.505205
35.458029 17.050285 19.854696
35.081946 17.98588 19.741001
34.779781 17.283178 20.742645
36.148829 16.765663 18.992747
35.458029 17.050285 19.854696
34.374918 16.57177 21.816168
34.029122 15.853994 22.778651
36.290676 24.516547 6.223376
35.877825 25.419269 7.007271
36.290676 24.516547 6.223376
36.80934 23.299756 6.452699
38.083487 20.236165 8.663213
37.986775 20.572707 7.756064
37.622324 21.411705 8.401647
38.083487 20.236165 8.663213
38.17918 19.9159 9.542979
30.848652 12.797084 28.421401
31.639364 12.712815 27.519023
31.389387 13.60651 27.379953
30.344653 11.942153 29.401592
30.848652 12.797084 28.421401
30.094676 12.83585 29.262521
29.917265 11.014509 30.308508
30.344653 11.942153 29.401592
29.109325 11.104965 31.151204
28.827906 12.007669 31.094254
28.346555 11.131714 32.002747
29.917265 11.014509 30.308508
29.109325 11.104965 31.151204
24.917624 8.877374 36.575756
24.696604 9.742219 36.546333
24.190641 8.801224 37.405552
25.670254 8.97886 35.738163
24.917624 8.877374 36.575756
26.464564 9.090753 34.826647
26.217897 9.930262 34.805021
25.670254 8.97886 35.738163
27.313843 9.164402 33.902923
26.464564 9.090753 34.826647
19.908319 23.378161 38.14107
19.594302 22.239242 38.935295
20.316128 22.290067 37.981691
19.908319 23.378161 38.14107
20.127309 24.645025 37.40106
25.699604 26.393546 28.243623
25.012224 26.516463 29.293308
26.273472 25.343033 28.009417
26.434124 26.343404 27.121527
25.699604 26.393546 28.243623
25.293234 24.407426 30.038979
24.766733 25.549182 30.235879
24.521015 24.563433 31.143346
34.281235 28.416815 7.721737
33.803085 29.04214 8.626153
34.87352 27.245278 7.755752
34.71146 27.799045 6.86583
34.281235 28.416815 7.721737
35.02067 26.732107 8.721294
35.450895 26.114337 7.865386
34.87352 27.245278 7.755752
19.362923 11.593887 42.043919
19.06568 12.494711 42.165863
16.849271 18.77111 43.105999
17.261704 19.969225 42.356304
17.257495 17.637602 42.944912
16.849271 18.77111 43.105999
16.448317 17.560542 43.839619
16.426289 15.274017 44.386326
16.009268 16.327064 44.575981
15.579016 15.174047 45.283775
17.24785 15.365426 43.503046
16.426289 15.274017 44.386326
16.817597 14.212409 44.21084
18.759925 13.424413 42.289219
18.438387 14.402823 42.41906
17.960695 13.325408 43.197719
19.06568 12.494711 42.165863
19.543372 13.572126 41.387203
18.759925 13.424413 42.289219
32.45115 12.614448 26.622463
31.639364 12.712815 27.519023
19.656489 10.650886 41.940354
20.142694 11.699423 41.160282
19.362923 11.593887 42.043919
19.865374 9.698425 41.930269
19.656489 10.650886 41.940354
19.085603 9.592889 42.813906
18.738484 7.621377 43.619324
18.50837 8.514513 43.662897
19.582882 7.800296 42.691658
18.738484 7.621377 43.619324
19.026879 6.781244 43.50716
20.850752 6.319284 41.689993
20.651896 7.138606 41.699922
20.070134 6.140841 42.569564
21.62136 6.432888 40.855862
20.850752 6.319284 41.689993
33.891501 27.458548 11.549893
33.902651 28.028924 10.521812
34.536051 26.28613 11.583775
33.891501 27.458548 11.549893
33.924476 26.82905 12.557821
27.898511 26.160255 24.867189
27.185859 26.267555 25.919429
27.720644 25.185592 25.835081
28.070226 27.085496 23.877535
27.898511 26.160255 24.867189
28.605011 26.003532 23.793188
28.161551 28.035559 22.959416
28.070226 27.085496 23.877535
28.918404 27.788435 21.79948
28.161551 28.035559 22.959416
29.666513 27.5229 20.734642
28.918404 27.788435 21.79948
29.524836 26.663238 21.738696
30.400667 27.210041 19.657165
29.666513 27.5229 20.734642
31.084333 27.025161 18.596948
30.400667 27.210041 19.657165
30.956612 26.212823 19.613642
31.798523 26.703103 17.521048
31.084333 27.025161 18.596948
32.546098 26.333864 16.460508
31.798523 26.703103 17.521048
32.387853 25.658704 17.492885
33.165054 26.034878 15.46459
32.575724 27.079277 15.492752
32.546098 26.333864 16.460508
38.233511 18.483096 12.510053
38.276898 18.947682 11.55974
37.795053 19.601391 12.275657
38.233511 18.483096 12.510053
38.106537 18.149941 13.511809
37.436945 15.874427 17.469373
36.824286 16.325223 18.178028
37.658243 16.466189 16.476845
37.436945 15.874427 17.469373
37.842054 17.061447 15.505803
37.294918 17.467366 16.252574
37.658243 16.466189 16.476845
37.970068 17.61285 14.53959
37.842054 17.061447 15.505803
3 0 31 29
3 0 34 32
3 0 29 34
3 1 115 116
3 1 38 36
3 1 117 119
3 119 118 38
3 117 118 119
3 2 41 39
3 2 43 41
3 3 46 44
3 121 120 47
3 4 50 48
3 4 51 50
3 4 53 51
3 3 56 54
3 3 44 56
3 5 60 58
3 6 63 61
3 6 65 63
3 6 67 65
3 7 70 68
3 9 71 30
3 9 72 71
3 10 74 73
3 12 75 33
3 12 76 75
3 12 78 76
3 7 79 35
3 7 68 79
3 14 82 80
3 16 83 37
3 16 84 83
3 16 122 124
3 124 123 84
3 122 123 124
3 17 125 127
3 127 126 40
3 125 126 127
3 17 128 129
3 17 130 132
3 130 131 132
3 18 133 135
3 135 134 42
3 133 134 135
3 18 136 137
3 19 87 86
3 20 138 140
3 140 139 45
3 138 139 140
3 20 141 142
3 8 88 69
3 11 143 144
3 147 146 49
3 145 146 147
3 148 89 149
3 22 90 52
3 22 91 90
3 13 92 77
3 23 93 55
3 23 94 93
3 23 95 94
3 19 96 57
3 19 86 96
3 150 97 151
3 152 98 153
3 154 153 97
3 152 153 154
3 155 99 156
3 157 100 158
3 160 159 100
3 161 101 162
3 163 102 164
3 163 164 165
3 167 166 102
3 24 168 169
3 24 170 172
3 170 103 171
3 170 171 172
3 21 173 174
3 25 104 59
3 25 105 104
3 15 106 81
3 26 107 62
3 26 108 107
3 26 109 108
3 27 110 64
3 27 111 110
3 27 112 111
3 28 113 66
3 28 175 177
3 177 176 113
3 175 176 177
3 178 114 179
3 180 179 85
3 178 179 180
3 29 30 7
3 31 30 29
3 31 9 30
3 32 33 10
3 34 33 32
3 34 12 33
3 34 35 12
3 29 35 34
3 29 7 35
3 36 37 14
3 38 37 36
3 38 16 37
3 38 181 183
3 183 182 16
3 181 182 183
3 185 184 38
3 39 186 188
3 186 40 187
3 186 187 188
3 41 40 39
3 41 17 40
3 41 42 17
3 43 42 41
3 43 18 42
3 44 45 19
3 46 45 44
3 46 20 45
3 47 189 191
3 191 190 8
3 189 190 191
3 193 192 47
3 48 49 11
3 50 49 48
3 50 194 196
3 196 195 49
3 194 195 196
3 50 197 198
3 51 199 201
3 201 200 50
3 199 200 201
3 51 202 203
3 51 204 206
3 204 52 205
3 204 205 206
3 53 52 51
3 53 22 52
3 54 55 13
3 56 55 54
3 56 23 55
3 56 57 23
3 44 57 56
3 44 19 57
3 207 24 208
3 58 59 21
3 60 59 58
3 60 25 59
3 61 62 15
3 63 62 61
3 63 26 62
3 63 64 26
3 65 64 63
3 65 27 64
3 65 66 27
3 67 66 65
3 67 28 66
3 68 69 3
3 70 69 68
3 70 8 69
3 30 70 7
3 71 70 30
3 71 8 70
3 71 47 8
3 72 47 71
3 72 209 211
3 211 210 47
3 209 210 211
3 73 212 213
3 74 214 216
3 216 215 73
3 214 215 216
3 74 217 219
3 217 11 218
3 217 218 219
3 33 74 10
3 75 74 33
3 75 11 74
3 75 48 11
3 76 48 75
3 76 4 48
3 76 77 4
3 78 77 76
3 78 13 77
3 35 78 12
3 79 78 35
3 79 13 78
3 79 54 13
3 68 54 79
3 68 3 54
3 80 81 5
3 82 81 80
3 82 15 81
3 37 82 14
3 83 82 37
3 83 15 82
3 83 61 15
3 84 61 83
3 84 6 61
3 84 85 6
3 220 85 221
3 222 221 84
3 220 221 222
3 224 223 85
3 226 225 16
3 40 227 228
3 230 229 40
3 42 231 233
3 233 232 17
3 231 232 233
3 235 234 42
3 86 236 238
3 238 237 1
3 236 237 238
3 87 239 241
3 241 240 86
3 239 240 241
3 87 242 243
3 45 87 19
3 244 87 245
3 246 245 45
3 244 245 246
3 248 247 87
3 69 46 3
3 88 46 69
3 88 20 46
3 249 88 250
3 251 250 8
3 249 250 251
3 252 88 253
3 254 20 255
3 256 255 88
3 254 255 256
3 258 257 20
3 49 259 261
3 261 260 11
3 259 260 261
3 263 262 49
3 89 264 265
3 89 266 268
3 266 21 267
3 266 267 268
3 52 269 271
3 269 89 270
3 269 270 271
3 90 89 52
3 90 21 89
3 90 58 21
3 91 58 90
3 91 5 58
3 77 53 4
3 92 53 77
3 92 22 53
3 55 92 13
3 93 92 55
3 93 22 92
3 93 91 22
3 94 91 93
3 94 5 91
3 94 80 5
3 95 80 94
3 95 14 80
3 57 95 23
3 96 95 57
3 96 14 95
3 96 36 14
3 86 36 96
3 86 1 36
3 97 272 273
3 97 274 276
3 274 275 276
3 97 277 279
3 277 39 278
3 277 278 279
3 98 39 97
3 98 2 39
3 281 280 0
3 282 73 283
3 99 284 286
3 284 73 285
3 284 285 286
3 99 10 73
3 287 99 288
3 287 288 289
3 100 290 292
3 290 99 291
3 290 291 292
3 100 10 99
3 100 32 10
3 293 32 294
3 295 294 100
3 293 294 295
3 296 0 297
3 298 297 32
3 296 297 298
3 300 299 1
3 301 31 302
3 303 302 0
3 301 302 303
3 101 304 306
3 304 31 305
3 304 305 306
3 101 9 31
3 307 101 308
3 102 309 311
3 309 101 310
3 309 310 311
3 102 9 101
3 102 72 9
3 312 72 313
3 314 313 102
3 312 313 314
3 316 315 72
3 317 98 318
3 103 319 321
3 319 98 320
3 319 320 321
3 103 2 98
3 59 322 324
3 324 323 21
3 322 323 324
3 104 325 327
3 327 326 59
3 325 326 327
3 104 328 329
3 104 330 331
3 105 332 334
3 334 333 104
3 332 333 334
3 105 335 336
3 81 60 5
3 106 60 81
3 106 25 60
3 62 106 15
3 107 106 62
3 107 25 106
3 107 105 25
3 108 105 107
3 108 337 339
3 339 338 105
3 337 338 339
3 108 340 341
3 109 342 344
3 344 343 108
3 342 343 344
3 109 345 347
3 345 24 346
3 345 346 347
3 64 109 26
3 110 109 64
3 110 24 109
3 110 103 24
3 111 103 110
3 111 2 103
3 111 43 2
3 112 43 111
3 112 18 43
3 66 112 27
3 113 112 66
3 113 18 112
3 113 348 350
3 350 349 18
3 348 349 350
3 352 351 113
3 85 67 6
3 114 67 85
3 114 28 67
3 353 114 354
3 355 114 356
3 357 28 358
3 359 358 114
3 357 358 359
3 361 360 28
