ply
format ascii 1.0
element vertex 280
property float x
property float y
property float z
element face 255
property list uchar int vertex_index
end_header
15.770384 19.823299 -21.647617
20.06815 4.045437 -9.326323
22.518356 0.688836 -5.017037
19.400257 8.12622 -14.9815
17.28134 12.324363 -15.566113
17.489849 10.650105 -12.690426
22.503397 -0.258792 -8.620264
22.024481 2.037099 -11.47241
18.187336 8.668803 -10.156691
21.065975 2.133911 -7.043036
23.337385 -2.154346 -6.094872
17.253422 14.378525 -18.777065
19.42083 10.597263 -18.446175
19.646107 5.857807 -11.942741
24.645819 -3.610777 -3.826251
16.192823 21.389696 -24.076124
16.351789 19.627478 -22.872217
23.863245 -2.184386 -8.344473
23.59919 -1.038158 -9.763303
21.536572 3.220647 -5.657043
20.681847 3.941954 -6.614969
21.684855 1.50374 -5.983401
22.117867 -0.007904 -6.548535
22.724457 -0.781831 -5.505849
16.304306 16.377657 -18.777014
16.35218 15.413348 -17.360813
18.302597 10.11979 -15.240389
18.244198 11.296176 -16.905071
19.393126 9.331918 -16.686668
20.717873 8.831404 -18.373735
20.591246 7.576759 -16.548811
19.078606 6.283673 -9.784349
18.775032 7.154504 -10.990305
19.871992 4.823431 -10.622087
22.040707 3.119056 -13.042845
22.526503 2.595079 -4.761594
16.36735 14.660743 -15.927656
17.436422 11.269319 -14.102243
18.351774 9.137512 -13.672262
21.277113 1.729652 -8.921646
20.940063 2.815601 -10.190002
22.184511 0.894605 -9.985554
23.334837 0.252174 -11.221595
19.477989 5.480424 -8.615496
20.026939 4.630994 -7.587741
20.53878 2.992309 -8.176007
21.661848 0.787009 -7.747064
22.820599 -1.182826 -7.330189
24.137857 -3.164264 -6.907279
16.419107 18.308096 -21.679235
16.371529 17.289221 -20.292524
17.280674 15.448832 -20.287537
18.330015 13.661294 -20.298004
17.275352 13.285766 -17.206757
18.295666 12.446203 -18.645491
19.455776 11.952368 -20.239605
17.794098 9.657481 -11.390041
18.552258 8.106492 -12.344067
19.522022 6.955884 -13.478999
20.860252 3.809629 -11.738295
20.778837 4.945787 -13.287456
20.740295 6.164931 -14.92329
23.503845 -1.553699 -4.483349
23.927114 -2.957685 -4.970535
16.061087 19.725389 -22.259917
15.948788 20.469141 -22.640391
15.658086 20.567051 -22.028092
24.459018 -2.513184 -8.946036
24.529431 -3.058891 -8.173319
15.964509 16.249491 -16.806342
15.919257 16.671231 -17.517906
16.569515 21.485694 -24.975138
16.699348 20.493609 -24.337995
22.668641 3.697538 -4.714972
22.101888 3.927886 -5.110955
17.463135 10.959712 -13.396335
17.051505 12.15206 -13.602756
17.078218 11.842453 -12.896848
24.06476 -0.607933 -11.164734
23.467014 -0.392992 -10.492449
24.196936 -1.253099 -10.435588
24.087343 -0.011704 -11.97435
24.06476 -0.607933 -11.164734
19.317171 6.389838 -8.328495
19.037406 6.739161 -8.833201
15.965273 17.878218 -19.674257
16.008924 18.258628 -20.409861
20.071029 10.441552 -19.316924
20.088502 11.119104 -20.213639
19.438303 11.274815 -19.34289
21.403914 8.794165 -19.290684
21.392859 8.030605 -18.352352
17.990717 9.163142 -10.773366
17.553884 10.569441 -11.017011
17.750502 10.075102 -10.400336
21.402178 4.653479 -13.978576
21.409772 4.032421 -13.16515
22.033113 3.740113 -13.856271
21.382908 5.263051 -14.796493
20.759566 5.555359 -14.105373
21.402178 4.653479 -13.978576
21.377285 6.009123 -15.737897
21.382908 5.263051 -14.796493
24.541418 -2.880597 -3.624108
25.126791 -3.968796 -3.251177
24.074832 -2.582238 -4.1548
23.97043 -1.852058 -3.952657
24.541418 -2.880597 -3.624108
16.836078 18.179612 -22.442375
16.87212 17.477866 -21.762124
15.869305 21.35025 -23.242345
15.732997 22.427862 -23.773532
16.272306 20.508587 -23.47417
15.869305 21.35025 -23.242345
15.948788 20.469141 -22.640391
16.77883 19.6125 -23.736042
16.699348 20.493609 -24.337995
16.272306 20.508587 -23.47417
17.206263 11.485678 -12.245021
17.078218 11.842453 -12.896848
24.326991 -1.94007 -9.655451
23.731217 -1.611272 -9.053888
24.459018 -2.513184 -8.946036
24.196936 -1.253099 -10.435588
24.326991 -1.94007 -9.655451
21.109209 3.581301 -6.136006
20.6672 4.948874 -6.462156
21.094562 4.588221 -5.983193
15.89532 17.153385 -18.226007
15.931662 17.422436 -18.916502
16.328243 15.895502 -18.068914
15.89532 17.153385 -18.226007
15.919257 16.671231 -17.517906
21.329545 7.403282 -17.43989
21.392859 8.030605 -18.352352
20.65456 8.204081 -17.461273
22.723291 2.242449 -12.942251
22.032594 2.578078 -12.257627
22.715178 1.70147 -12.157033
22.702095 2.940681 -13.804907
22.723291 2.242449 -12.942251
22.033113 3.740113 -13.856271
22.702095 2.940681 -13.804907
25.297225 -4.665013 -3.513921
25.126791 -3.968796 -3.251177
24.934258 -4.289098 -4.085689
25.297225 -4.665013 -3.513921
16.07518 22.46384 -24.710744
15.732997 22.427862 -23.773532
16.451871 22.559838 -25.609758
16.07518 22.46384 -24.710744
16.569515 21.485694 -24.975138
21.606922 4.24067 -5.55868
21.094562 4.588221 -5.983193
22.031537 2.907863 -5.209319
21.606922 4.24067 -5.55868
22.101888 3.927886 -5.110955
16.044824 15.482248 -15.380292
15.972094 15.873188 -16.089764
16.4356 14.207308 -15.197703
16.044824 15.482248 -15.380292
16.892595 13.039118 -15.016931
16.824345 13.492553 -15.746885
16.4356 14.207308 -15.197703
16.970137 12.511596 -14.284996
17.051505 12.15206 -13.602756
17.358881 11.796841 -14.834178
16.892595 13.039118 -15.016931
16.970137 12.511596 -14.284996
23.370356 0.809008 -12.031626
22.715178 1.70147 -12.157033
22.679659 1.144637 -11.347003
23.370356 0.809008 -12.031626
24.087343 -0.011704 -11.97435
17.98972 9.703384 -9.866248
17.750502 10.075102 -10.400336
18.39208 8.33335 -9.603798
17.98972 9.703384 -9.866248
18.837715 7.140785 -9.417627
18.632971 7.476238 -9.97052
18.39208 8.33335 -9.603798
19.278298 5.882048 -9.199922
18.837715 7.140785 -9.417627
19.037406 6.739161 -8.833201
20.278878 5.19531 -6.869646
20.6672 4.948874 -6.462156
19.951423 5.53983 -7.356032
20.278878 5.19531 -6.869646
20.354393 4.286474 -7.101355
19.591646 5.965123 -7.814618
19.951423 5.53983 -7.356032
19.752464 5.055709 -8.101619
19.317171 6.389838 -8.328495
19.591646 5.965123 -7.814618
24.666736 -3.54883 -7.454722
24.529431 -3.058891 -8.173319
24.000551 -2.674325 -7.625876
15.708351 19.525667 -21.087407
15.452202 20.479906 -21.28661
15.452202 20.479906 -21.28661
15.658086 20.567051 -22.028092
16.032713 18.768065 -21.103216
16.094746 19.065697 -21.663426
15.708351 19.525667 -21.087407
16.395318 17.798659 -20.985879
16.032713 18.768065 -21.103216
16.008924 18.258628 -20.409861
16.84833 16.968428 -21.068769
16.87212 17.477866 -21.762124
16.395318 17.798659 -20.985879
16.337917 16.833439 -19.534769
15.965273 17.878218 -19.674257
15.931662 17.422436 -18.916502
17.302903 16.048234 -21.066275
16.84833 16.968428 -21.068769
16.826102 16.369027 -20.290031
17.81774 15.193416 -21.086508
17.302903 16.048234 -21.066275
18.34241 14.299647 -21.091741
17.81774 15.193416 -21.086508
17.805345 14.555063 -20.29277
18.933521 13.50017 -21.166257
18.34241 14.299647 -21.091741
16.359765 15.037045 -16.644234
15.964509 16.249491 -16.806342
15.972094 15.873188 -16.089764
19.496401 12.645707 -21.137058
18.933521 13.50017 -21.166257
18.892896 12.806831 -20.268805
20.096637 11.851869 -21.101108
19.496401 12.645707 -21.137058
20.096637 11.851869 -21.101108
20.088502 11.119104 -20.213639
20.719551 9.558622 -19.280704
20.071029 10.441552 -19.316924
20.069351 9.714333 -18.409955
20.719551 9.558622 -19.280704
21.403914 8.794165 -19.290684
17.358387 10.989366 -11.594829
17.553884 10.569441 -11.017011
17.641973 10.153793 -12.040233
17.206263 11.485678 -12.245021
17.358387 10.989366 -11.594829
21.302761 6.715037 -16.550658
20.665771 6.870845 -15.736051
21.377285 6.009123 -15.737897
21.329545 7.403282 -17.43989
21.302761 6.715037 -16.550658
23.078411 2.333697 -4.333379
22.668641 3.697538 -4.714972
22.97668 1.368072 -4.429659
23.078411 2.333697 -4.333379
22.972606 0.41495 -4.557381
22.52243 1.641958 -4.889316
22.97668 1.368072 -4.429659
23.465351 -0.706317 -4.290537
23.97043 -1.852058 -3.952657
23.0111 -0.432431 -4.750193
22.972606 0.41495 -4.557381
23.465351 -0.706317 -4.290537
24.574906 -3.962553 -4.657832
24.286466 -3.284231 -4.398393
24.934258 -4.289098 -4.085689
24.306952 -3.588197 -5.280427
24.574906 -3.962553 -4.657832
24.012087 -3.186527 -5.842595
23.63225 -2.556015 -5.532704
24.306952 -3.588197 -5.280427
24.412323 -3.691486 -6.248799
23.737621 -2.659305 -6.501075
24.012087 -3.186527 -5.842595
24.847189 -4.092878 -6.752345
24.412323 -3.691486 -6.248799
24.666736 -3.54883 -7.454722
24.847189 -4.092878 -6.752345
16.802419 18.839303 -23.038866
16.385448 18.967787 -22.275726
16.836078 18.179612 -22.442375
16.77883 19.6125 -23.736042
16.802419 18.839303 -23.038866
3 0 64 66
3 64 16 65
3 64 65 66
3 68 67 17
3 2 21 19
3 2 23 21
3 69 25 70
3 3 28 26
3 3 30 28
3 1 33 31
3 72 71 15
3 73 35 74
3 5 75 77
3 75 37 76
3 75 76 77
3 5 38 37
3 6 41 39
3 78 42 79
3 80 79 18
3 78 79 80
3 82 81 42
3 83 43 84
3 9 44 20
3 9 45 44
3 9 46 45
3 10 47 22
3 10 48 47
3 85 50 86
3 11 51 24
3 11 52 51
3 4 53 36
3 12 54 27
3 12 55 54
3 12 87 89
3 89 88 55
3 87 88 89
3 91 90 29
3 8 92 94
3 92 56 93
3 92 93 94
3 13 57 32
3 13 58 57
3 7 59 40
3 95 60 96
3 97 96 34
3 95 96 97
3 98 61 99
3 100 99 60
3 98 99 100
3 102 101 61
3 14 103 104
3 14 105 107
3 105 62 106
3 105 106 107
3 14 63 62
3 109 108 49
3 110 15 111
3 16 112 114
3 112 15 113
3 112 113 114
3 16 115 117
3 117 116 15
3 115 116 117
3 118 5 119
3 17 18 6
3 120 18 121
3 122 121 17
3 120 121 122
3 124 123 18
3 19 125 127
3 125 20 126
3 125 126 127
3 21 20 19
3 21 9 20
3 21 22 9
3 23 22 21
3 23 10 22
3 128 24 129
3 25 130 132
3 130 24 131
3 130 131 132
3 25 11 24
3 26 27 4
3 28 27 26
3 28 12 27
3 28 29 12
3 30 29 28
3 30 133 135
3 135 134 29
3 133 134 135
3 31 32 8
3 33 32 31
3 33 13 32
3 136 34 137
3 138 137 7
3 136 137 138
3 139 34 140
3 142 141 34
3 143 14 144
3 146 145 14
3 15 147 148
3 151 150 15
3 149 150 151
3 152 19 153
3 35 154 156
3 154 19 155
3 154 155 156
3 35 2 19
3 157 36 158
3 159 36 160
3 161 4 162
3 163 162 36
3 161 162 163
3 37 164 165
3 37 166 168
3 166 4 167
3 166 167 168
3 37 26 4
3 38 26 37
3 38 3 26
3 39 40 1
3 41 40 39
3 41 7 40
3 18 41 6
3 42 41 18
3 42 7 41
3 42 169 171
3 171 170 7
3 169 170 171
3 173 172 42
3 174 8 175
3 176 8 177
3 178 31 179
3 180 179 8
3 178 179 180
3 43 181 183
3 181 31 182
3 181 182 183
3 43 1 31
3 20 184 185
3 44 186 188
3 188 187 20
3 186 187 188
3 44 189 190
3 44 191 193
3 191 43 192
3 191 192 193
3 45 43 44
3 45 1 43
3 45 39 1
3 46 39 45
3 46 6 39
3 22 46 9
3 47 46 22
3 47 6 46
3 47 17 6
3 48 17 47
3 48 194 196
3 196 195 17
3 194 195 196
3 198 197 0
3 199 0 200
3 201 49 202
3 203 202 0
3 201 202 203
3 50 204 206
3 204 49 205
3 204 205 206
3 50 207 209
3 209 208 49
3 207 208 209
3 24 210 212
3 210 50 211
3 210 211 212
3 51 50 24
3 51 213 215
3 215 214 50
3 213 214 215
3 51 216 217
3 52 218 220
3 220 219 51
3 218 219 220
3 52 221 222
3 36 223 225
3 223 25 224
3 223 224 225
3 53 25 36
3 53 11 25
3 27 53 4
3 54 53 27
3 54 11 53
3 54 52 11
3 55 52 54
3 55 226 228
3 228 227 52
3 226 227 228
3 55 229 230
3 232 231 55
3 29 233 235
3 235 234 12
3 233 234 235
3 237 236 29
3 56 238 239
3 56 240 242
3 240 5 241
3 240 241 242
3 32 56 8
3 57 56 32
3 57 5 56
3 57 38 5
3 58 38 57
3 58 3 38
3 40 33 1
3 59 33 40
3 59 13 33
3 34 59 7
3 60 59 34
3 60 13 59
3 60 58 13
3 61 58 60
3 61 3 58
3 61 30 3
3 243 30 244
3 245 244 61
3 243 244 245
3 247 246 30
3 248 35 249
3 250 35 251
3 252 2 253
3 254 253 35
3 252 253 254
3 62 255 256
3 62 257 259
3 257 2 258
3 257 258 259
3 62 23 2
3 63 23 62
3 63 10 23
3 260 63 261
3 262 261 14
3 260 261 262
3 263 63 264
3 265 10 266
3 267 266 63
3 265 266 267
3 268 48 269
3 270 269 10
3 268 269 270
3 271 48 272
3 274 273 48
3 49 16 0
3 275 16 276
3 277 276 49
3 275 276 277
3 279 278 16
