ply
format ascii 1.0
element vertex 285
property float x
property float y
property float z
element face 249
property list uchar int vertex_index
end_header
-17.605505 15.61138 -10.025839
-14.550202 26.169161 -19.842663
-15.472306 20.639458 -13.92986
-14.154989 31.395214 -27.198954
-17.229885 11.084056 -10.922724
-14.88412 23.433418 -16.638063
-16.230066 16.608232 -15.998266
-16.190016 19.445681 -19.333155
-16.212175 22.463911 -23.036602
-16.180943 25.545992 -27.059589
-14.313872 28.910019 -23.300066
-16.327145 17.919907 -11.827921
-19.945221 6.868007 -7.458177
-19.364504 13.386274 -8.540758
-16.545025 13.870604 -13.204623
-13.849681 33.982151 -31.40609
-17.919403 12.246794 -9.531073
-17.680931 10.016174 -9.983852
-17.260456 13.346479 -10.407122
-14.667913 24.926197 -18.144371
-15.379498 21.401518 -17.92137
-15.278069 22.798264 -19.421021
-16.167105 21.002132 -21.078781
-15.265424 24.079512 -21.217133
-15.2485 25.413963 -23.072367
-14.43209 27.537416 -21.575338
-21.049541 5.966846 -6.679193
-20.677887 9.034754 -7.285177
-19.542448 9.934175 -8.031267
-15.871095 19.315071 -12.786996
-16.281216 15.923846 -12.44264
-15.955761 17.196974 -13.574436
-15.140961 28.375967 -27.197815
-14.987549 29.965441 -29.308411
-14.826483 31.343603 -31.318218
-13.973822 32.790565 -29.121758
-15.139335 22.038509 -15.216558
-15.683294 18.643145 -14.938807
-15.497595 19.997566 -16.303665
-16.110556 18.263489 -17.575699
-16.221636 23.984699 -25.035986
-15.170922 26.961756 -25.035849
-14.266035 30.064302 -25.205132
-17.403137 18.962492 -10.472685
-16.882185 16.781879 -10.910749
-16.639336 20.267448 -11.349235
-16.03249 21.600172 -12.25616
-15.524339 22.861252 -13.246079
-19.019033 7.798271 -8.258024
-18.702837 10.968656 -8.725841
-18.417536 14.470013 -9.254356
-20.226963 15.758598 -8.448822
-19.133871 16.941877 -9.106687
-18.231232 18.119215 -9.765924
-16.740219 14.422385 -11.3614
-16.818712 12.578685 -12.040328
-16.34495 15.244954 -14.526538
-13.624011 35.2132 -33.606567
-21.174655 10.156372 -7.241572
-21.312453 8.642077 -6.936593
-20.557091 10.627658 -7.569049
-21.174655 10.156372 -7.241572
-17.521123 9.522567 -10.712371
-17.746646 8.988626 -10.242935
-17.455408 10.550115 -10.453288
-17.345545 10.21989 -11.253473
-17.521123 9.522567 -10.712371
-16.623398 17.987429 -19.18544
-16.583668 17.396333 -18.306711
-16.150286 18.854585 -18.454427
-16.685151 18.676762 -20.092936
-16.623398 17.987429 -19.18544
-16.719313 21.018609 -22.913642
-16.696777 20.28772 -21.934731
-16.18964 21.733021 -22.057691
-16.753868 21.843246 -23.960685
-16.719313 21.018609 -22.913642
-16.216905 23.224305 -24.036294
-16.758598 22.603639 -24.960377
-16.753868 21.843246 -23.960685
-16.93234 21.432519 -11.164127
-17.021237 19.61497 -10.91096
-17.314241 20.78004 -10.725853
-15.94183 23.443914 -12.470446
-16.248843 22.895669 -12.050409
-15.687754 24.074454 -12.965406
-15.778415 22.230712 -12.751119
-15.94183 23.443914 -12.470446
-20.17461 5.349499 -7.177387
-20.72677 4.898919 -6.787895
-20.497381 6.417427 -7.068685
-19.724292 5.798292 -7.5973
-20.17461 5.349499 -7.177387
-19.482127 7.333139 -7.858101
-19.261198 6.263424 -7.997224
-19.724292 5.798292 -7.5973
-20.796472 16.977156 -8.420875
-20.84644 15.25697 -8.141661
-19.122821 18.74224 -9.34423
-19.659759 18.034381 -9.022338
-18.671501 19.330909 -9.673849
-18.682551 17.530546 -9.436305
-19.122821 18.74224 -9.34423
-18.183864 19.878529 -10.000816
-18.671501 19.330909 -9.673849
-16.904968 12.20896 -13.021034
-17.041812 11.563001 -12.438887
-16.681869 13.224645 -12.622476
-16.748258 24.98086 -28.05261
-16.781955 24.17111 -27.063262
-14.276315 33.262652 -32.479235
-14.764716 31.943378 -32.435299
-14.338082 32.662877 -31.362154
-13.736846 34.597676 -32.506328
-14.16348 33.878176 -33.579473
-14.276315 33.262652 -32.479235
-17.800167 11.131484 -9.757462
-17.984461 9.471841 -9.529784
-18.103697 10.587151 -9.303394
-21.49828 7.108124 -6.633601
-21.648499 5.570607 -6.318081
-20.863714 7.5008 -6.982185
-21.49828 7.108124 -6.633601
-21.312453 8.642077 -6.936593
-19.989372 11.077369 -7.942094
-20.110167 9.484464 -7.658222
-20.557091 10.627658 -7.569049
-19.900399 12.803418 -8.196839
-19.453476 11.660224 -8.286013
-19.989372 11.077369 -7.942094
-16.629351 15.082821 -15.886554
-16.626399 15.803846 -16.660773
-15.621697 27.763129 -28.200118
-16.141689 26.348141 -28.131005
-15.660952 26.96098 -27.128702
-15.544991 28.557865 -29.255416
-15.621697 27.763129 -28.200118
-15.064255 29.170704 -28.253113
-15.49857 29.302201 -30.350274
-15.544991 28.557865 -29.255416
-14.907016 30.654522 -30.313315
-15.418038 29.991283 -31.355178
-15.49857 29.302201 -30.350274
-17.947432 8.490672 -9.750851
-17.984461 9.471841 -9.529784
-17.947432 8.490672 -9.750851
-17.746646 8.988626 -10.242935
-16.566644 16.631474 -17.449489
-16.626399 15.803846 -16.660773
-16.170311 17.435861 -16.786983
-16.566644 16.631474 -17.449489
-16.583668 17.396333 -18.306711
-16.673696 19.454988 -20.965749
-16.685151 18.676762 -20.092936
-16.17856 20.223906 -20.205968
-16.673696 19.454988 -20.965749
-16.696777 20.28772 -21.934731
-16.802301 23.390463 -26.051461
-16.758598 22.603639 -24.960377
-16.20129 24.765345 -26.047787
-16.781955 24.17111 -27.063262
-16.802301 23.390463 -26.051461
-16.552266 22.229307 -11.596947
-16.93234 21.432519 -11.164127
-16.335913 20.93381 -11.802698
-16.552266 22.229307 -11.596947
-16.248843 22.895669 -12.050409
-15.398712 24.630448 -13.474158
-15.687754 24.074454 -12.965406
-15.283556 23.582879 -13.863456
-15.398712 24.630448 -13.474158
-15.25754 22.471982 -14.205346
-15.498323 21.750355 -13.587969
-15.283556 23.582879 -13.863456
-15.091054 23.171508 -14.848695
-15.30582 21.338984 -14.573209
-15.25754 22.471982 -14.205346
-14.916939 23.838093 -15.417278
-15.091054 23.171508 -14.848695
-14.789331 24.535548 -16.128031
-15.011727 22.735964 -15.92731
-14.916939 23.838093 -15.417278
-14.633489 25.200486 -16.80547
-14.789331 24.535548 -16.128031
-14.525386 25.946875 -17.558625
-14.776017 24.179807 -17.391217
-14.633489 25.200486 -16.80547
-14.403138 26.576133 -18.313043
-14.525386 25.946875 -17.558625
-14.344283 27.197615 -19.162188
-14.609058 25.547679 -18.993517
-14.403138 26.576133 -18.313043
-14.244966 27.822682 -19.977455
-14.344283 27.197615 -19.162188
-21.241576 4.448057 -6.389691
-21.648499 5.570607 -6.318081
-21.241576 4.448057 -6.389691
-20.72677 4.898919 -6.787895
-18.921776 6.726659 -8.4101
-19.261198 6.263424 -7.997224
-18.653512 8.362889 -8.66687
-18.921776 6.726659 -8.4101
-18.495414 9.948082 -8.900778
-18.653512 8.362889 -8.66687
-18.860935 9.383463 -8.491933
-18.31112 11.607725 -9.128457
-18.103697 10.587151 -9.303394
-18.495414 9.948082 -8.900778
-20.331629 13.98958 -8.150871
-20.84644 15.25697 -8.141661
-19.795734 14.572436 -8.49479
-19.900399 12.803418 -8.196839
-20.331629 13.98958 -8.150871
-20.206305 17.442741 -8.693405
-20.796472 16.977156 -8.420875
-19.680417 16.350237 -8.777755
-20.206305 17.442741 -8.693405
-19.659759 18.034381 -9.022338
-17.769817 20.300168 -10.354197
-17.817184 18.540854 -10.119305
-18.183864 19.878529 -10.000816
-17.314241 20.78004 -10.725853
-17.769817 20.300168 -10.354197
-17.139958 10.967204 -11.812275
-17.345545 10.21989 -11.253473
-17.024299 11.831371 -11.481526
-17.139958 10.967204 -11.812275
-17.041812 11.563001 -12.438887
-16.686793 14.401181 -15.15069
-16.287508 15.926593 -15.262402
-16.629351 15.082821 -15.886554
-16.699156 13.723128 -14.373752
-16.686793 14.401181 -15.15069
-16.799194 13.035953 -13.712795
-16.444987 14.557779 -13.865581
-16.699156 13.723128 -14.373752
-16.904968 12.20896 -13.021034
-16.799194 13.035953 -13.712795
-16.748258 24.98086 -28.05261
-16.141689 26.348141 -28.131005
-15.359089 30.656824 -32.43033
-15.418038 29.991283 -31.355178
-15.359089 30.656824 -32.43033
-14.764716 31.943378 -32.435299
-14.028257 34.512183 -34.66674
-14.16348 33.878176 -33.579473
-13.470031 35.788574 -34.595739
-14.028257 34.512183 -34.66674
-14.18591 28.50681 -20.843792
-14.491146 26.853288 -20.709001
-14.244966 27.822682 -19.977455
-14.078046 29.271043 -21.707574
-14.18591 28.50681 -20.843792
-14.018937 29.957345 -22.569938
-14.372981 28.223717 -22.437702
-14.078046 29.271043 -21.707574
-13.943246 30.575243 -23.438959
-14.018937 29.957345 -22.569938
-13.919328 31.152385 -24.391492
-14.289953 29.487161 -24.252599
-13.943246 30.575243 -23.438959
-13.857455 31.723338 -25.326881
-13.919328 31.152385 -24.391492
-13.801932 32.388794 -26.323791
-14.210512 30.729758 -26.202043
-13.857455 31.723338 -25.326881
-13.725691 32.97311 -27.2624
-13.801932 32.388794 -26.323791
-13.635108 33.670786 -28.223802
-14.064405 32.092889 -28.160356
-13.725691 32.97311 -27.2624
-13.562057 34.217911 -29.230691
-13.635108 33.670786 -28.223802
-13.499986 34.813704 -30.372857
-13.911752 33.386358 -30.263924
-13.562057 34.217911 -29.230691
-13.385877 35.418171 -31.394534
-13.499986 34.813704 -30.372857
-13.273041 36.033696 -32.494772
-13.736846 34.597676 -32.506328
-13.385877 35.418171 -31.394534
-13.162876 36.516959 -33.585342
-13.273041 36.033696 -32.494772
-13.470031 35.788574 -34.595739
-13.162876 36.516959 -33.585342
3 0 18 16
3 1 21 19
3 1 23 21
3 1 25 23
3 58 27 59
3 61 60 27
3 2 31 29
3 3 33 32
3 3 35 33
3 4 62 64
3 64 63 17
3 62 63 64
3 4 65 66
3 5 38 36
3 7 39 20
3 7 67 69
3 69 68 39
3 67 68 69
3 7 70 71
3 8 72 74
3 74 73 22
3 72 73 74
3 8 75 76
3 8 77 79
3 77 40 78
3 77 78 79
3 10 41 24
3 10 42 41
3 80 45 81
3 82 81 43
3 80 81 82
3 83 46 84
3 85 47 86
3 87 86 46
3 85 86 87
3 12 88 90
3 90 89 26
3 88 89 90
3 12 91 92
3 12 93 95
3 93 48 94
3 93 94 95
3 13 49 28
3 13 50 49
3 96 51 97
3 98 52 99
3 100 53 101
3 102 101 52
3 100 101 102
3 104 103 53
3 11 54 44
3 14 55 30
3 14 105 107
3 107 106 55
3 105 106 107
3 6 56 37
3 9 108 109
3 15 110 112
3 112 111 34
3 110 111 112
3 15 113 115
3 113 57 114
3 113 114 115
3 16 116 118
3 116 17 117
3 116 117 118
3 18 17 16
3 18 4 17
3 19 20 5
3 21 20 19
3 21 7 20
3 21 22 7
3 23 22 21
3 23 8 22
3 23 24 8
3 25 24 23
3 25 10 24
3 119 26 120
3 27 121 123
3 121 26 122
3 121 122 123
3 27 12 26
3 27 28 12
3 124 28 125
3 126 125 27
3 124 125 126
3 127 13 128
3 129 128 28
3 127 128 129
3 29 30 11
3 31 30 29
3 31 14 30
3 131 130 6
3 32 132 134
3 134 133 9
3 132 133 134
3 33 135 137
3 137 136 32
3 135 136 137
3 33 138 139
3 33 140 142
3 140 34 141
3 140 141 142
3 35 34 33
3 35 15 34
3 17 143 144
3 146 145 17
3 36 37 2
3 38 37 36
3 38 6 37
3 20 38 5
3 39 38 20
3 39 6 38
3 39 147 149
3 149 148 6
3 147 148 149
3 151 150 39
3 22 152 154
3 154 153 7
3 152 153 154
3 156 155 22
3 40 157 158
3 40 159 161
3 159 9 160
3 159 160 161
3 24 40 8
3 41 40 24
3 41 9 40
3 41 32 9
3 42 32 41
3 42 3 32
3 43 44 0
3 45 44 43
3 45 11 44
3 162 45 163
3 46 164 166
3 164 45 165
3 164 165 166
3 46 11 45
3 46 29 11
3 47 29 46
3 47 2 29
3 167 47 168
3 169 47 170
3 171 2 172
3 173 172 47
3 171 172 173
3 174 36 175
3 176 175 2
3 174 175 176
3 177 36 178
3 179 5 180
3 181 180 36
3 179 180 181
3 182 5 183
3 184 19 185
3 186 185 5
3 184 185 186
3 187 19 188
3 189 1 190
3 191 190 19
3 189 190 191
3 193 192 1
3 26 194 195
3 197 196 26
3 48 198 199
3 48 200 201
3 28 48 12
3 49 48 28
3 49 202 204
3 204 203 48
3 202 203 204
3 49 205 207
3 205 16 206
3 205 206 207
3 50 16 49
3 50 0 16
3 51 208 209
3 51 210 212
3 210 13 211
3 210 211 212
3 213 51 214
3 52 215 217
3 215 51 216
3 215 216 217
3 52 13 51
3 52 50 13
3 53 50 52
3 53 0 50
3 53 43 0
3 218 43 219
3 220 219 53
3 218 219 220
3 222 221 43
3 44 18 0
3 54 18 44
3 54 4 18
3 30 54 11
3 55 54 30
3 55 4 54
3 55 223 225
3 225 224 4
3 223 224 225
3 227 226 55
3 37 31 2
3 56 31 37
3 56 14 31
3 228 56 229
3 230 229 6
3 228 229 230
3 231 56 232
3 233 14 234
3 235 234 56
3 233 234 235
3 237 236 14
3 239 238 9
3 34 240 241
3 243 242 34
3 57 244 245
3 57 246 247
3 248 25 249
3 250 249 1
3 248 249 250
3 251 25 252
3 253 10 254
3 255 254 25
3 253 254 255
3 256 10 257
3 258 42 259
3 260 259 10
3 258 259 260
3 261 42 262
3 263 3 264
3 265 264 42
3 263 264 265
3 266 3 267
3 268 35 269
3 270 269 3
3 268 269 270
3 271 35 272
3 273 15 274
3 275 274 35
3 273 274 275
3 276 15 277
3 278 57 279
3 280 279 15
3 278 279 280
3 281 57 282
3 284 283 57
