ply
format ascii 1.0
element vertex 316
property float x
property float y
property float z
element face 332
property list uchar int vertex_index
end_header
9.49479 -92.019287 -38.589031
-10.531129 -87.559296 -37.855034
-0.95809 -99.236603 -34.288906
-10.308064 -93.674995 -30.995928
-0.520756 -91.619301 -39.965099
-6.212714 -98.573402 -29.210302
-5.823657 -93.87664 -36.327194
-0.573233 -96.072983 -37.362751
-5.578633 -90.007874 -39.349476
-5.679011 -84.995712 -41.839607
-10.728344 -83.214699 -40.653412
-5.906757 -96.793976 -32.951252
-10.434052 -91.04084 -34.601368
4.165641 -86.246147 -41.361771
14.676105 -100.97435 -32.834839
9.903337 -97.442581 -36.644398
4.475083 -101.046852 -34.621716
4.850385 -97.174904 -37.524044
4.762329 -92.296753 -39.678894
-0.823787 -86.014946 -42.043507
-13.919643 -90.553543 -28.0872
-14.472732 -88.062889 -31.839426
-14.946329 -84.845421 -35.3643
-15.45074 -80.579834 -38.731098
-15.622813 -75.745621 -41.756474
-8.035105 -90.909233 -37.192734
-5.645329 -92.091309 -37.915234
-8.224399 -88.639679 -38.786564
-8.191621 -86.659058 -40.068016
-10.70395 -85.386665 -39.319492
12.106048 -94.41848 -36.916595
-8.270576 -96.263908 -30.149776
-6.129204 -97.738663 -31.131516
-8.270308 -95.224236 -32.037449
-8.159814 -94.03978 -33.86618
-10.36563 -92.441185 -32.885384
1.476408 -83.367432 -42.462181
12.271796 -101.504158 -33.551876
12.226271 -99.25325 -34.971485
9.905636 -99.776924 -35.409241
1.396533 -101.62957 -32.738342
4.181213 -102.490715 -32.923374
1.627065 -100.210159 -34.580544
-0.42621 -94.079094 -38.701927
2.10867 -96.680313 -37.612022
2.14809 -94.52726 -38.843281
4.862638 -94.820648 -38.697739
2.033328 -92.031097 -39.963215
1.981451 -89.233543 -40.957081
-0.516142 -88.956726 -41.073612
-8.279974 -81.535057 -42.534279
-5.947546 -82.149307 -42.86507
-16.11002 -86.623817 -30.317049
-16.497889 -85.095375 -32.13995
-14.782145 -86.476616 -33.609962
-16.816711 -83.424828 -33.967274
-17.450085 -79.444809 -37.409939
-17.620592 -77.24292 -39.08226
-15.707624 -78.035034 -40.314842
-10.192053 -94.709595 -29.121645
-3.376241 -96.72924 -35.370251
-0.766206 -97.725319 -35.93782
-3.202791 -95.084595 -36.97179
-3.000137 -93.170525 -38.459755
-2.973127 -90.949799 -39.777489
-3.11145 -88.358376 -40.987804
-5.691044 -87.553223 -40.661739
-8.20812 -84.202438 -41.370625
-10.759895 -80.605408 -41.999779
-3.460438 -98.161354 -33.672985
-5.801837 -95.504166 -34.697468
-8.223894 -92.545181 -35.497025
-10.516444 -89.313278 -36.329231
6.85334 -89.269562 -40.059319
9.241844 -89.079773 -39.27412
6.591212 -86.123589 -40.696289
12.369174 -97.034393 -35.926708
9.79179 -94.875702 -37.673786
6.961601 -103.194847 -32.719872
7.159545 -101.551613 -34.432056
2.066098 -98.645241 -36.185349
4.75334 -99.242828 -36.186031
7.32696 -99.615738 -35.932053
7.451573 -97.437386 -37.179874
7.428234 -95.081421 -38.231319
7.10275 -92.290977 -39.241299
4.423502 -89.289993 -40.627422
1.706067 -86.387085 -41.772945
-0.999648 -83.000717 -42.846344
-3.290149 -85.550964 -42.063587
-3.43031 -82.726189 -42.953884
-12.107747 -92.233589 -29.659866
-15.801844 -87.85743 -28.402931
-14.144505 -89.493286 -29.965118
-12.448741 -90.859703 -31.505774
-12.602352 -89.52639 -33.268539
-12.629021 -88.121216 -34.996841
-12.856964 -86.158356 -36.742882
-17.056942 -81.594307 -35.787552
-15.03616 -82.993973 -37.13554
-13.015305 -84.052261 -38.391628
-13.297605 -81.798569 -39.779968
-13.215068 -79.517677 -41.229565
-13.465159 -76.723671 -42.534504
10.648022 -91.791493 -38.158304
11.953651 -92.991089 -37.322086
10.800419 -93.218884 -37.752813
1.445494 -81.760822 -42.738321
0.194195 -81.579803 -42.997299
10.999168 -101.605259 -33.815172
12.312582 -102.438041 -32.740192
9.816088 -100.741642 -34.743854
11.088716 -100.640541 -34.480559
10.999168 -101.605259 -33.815172
-8.383146 -80.064942 -43.058842
-9.640617 -79.612743 -42.860225
-17.554668 -83.447605 -32.319097
-17.334916 -84.309899 -31.314085
-17.71408 -82.612332 -33.23276
-16.6573 -84.260102 -33.053612
-17.554668 -83.447605 -32.319097
-18.811875 -75.35099 -39.254514
-18.621976 -76.597133 -38.433471
-17.755843 -75.916675 -39.890627
-18.811875 -75.35099 -39.254514
-10.262671 -94.963921 -28.197355
-9.283738 -95.823933 -28.693942
-5.099166 -99.302642 -29.573539
-5.317176 -99.500156 -28.603659
-4.755667 -98.048012 -32.411207
-4.86689 -98.520355 -31.501339
-6.017981 -97.26632 -32.041384
-4.683597 -97.477665 -33.312118
-3.532507 -98.731701 -32.772073
-4.755667 -98.048012 -32.411207
15.881624 -101.597428 -31.620048
14.674378 -101.913303 -32.125699
15.843077 -100.619072 -32.314405
15.881624 -101.597428 -31.620048
14.684787 -99.92041 -33.418663
15.843077 -100.619072 -32.314405
-4.717202 -80.991059 -43.364313
-4.688928 -82.437748 -42.909477
-5.97582 -80.702618 -43.319906
-3.562362 -81.068924 -43.384815
-4.717202 -80.991059 -43.364313
-12.977511 -91.810531 -27.929271
-13.704131 -91.101097 -27.200277
-13.013695 -91.393566 -28.873533
-12.071563 -92.650554 -28.715605
-12.977511 -91.810531 -27.929271
-16.768915 -86.403908 -28.500048
-16.596183 -86.945805 -27.546592
-18.212826 -79.841335 -35.891571
-18.048163 -80.773494 -35.04657
10.235768 -88.693585 -38.887405
8.979732 -87.334575 -39.614446
13.090739 -93.937649 -36.537796
13.342876 -95.346463 -36.009438
13.090739 -93.937649 -36.537796
11.953651 -92.991089 -37.322086
2.703399 -83.282413 -42.196894
4.048015 -84.721771 -41.646688
2.821025 -84.806789 -41.911976
2.703399 -83.282413 -42.196894
1.445494 -81.760822 -42.738321
13.472224 -102.178207 -32.484217
12.312582 -102.438041 -32.740192
13.473951 -101.239254 -33.193358
14.674378 -101.913303 -32.125699
13.472224 -102.178207 -32.484217
2.788873 -102.060142 -32.830858
4.018838 -103.080021 -31.977105
2.626498 -102.649449 -31.884589
-7.216932 -80.372066 -43.224238
-7.11376 -81.842182 -42.699675
-8.383146 -80.064942 -43.058842
-5.97582 -80.702618 -43.319906
-7.216932 -80.372066 -43.224238
-14.692143 -89.725895 -27.311594
-13.704131 -91.101097 -27.200277
-17.140981 -85.074119 -30.402634
-16.923002 -85.787102 -29.457107
-16.303954 -85.859596 -31.228499
-17.140981 -85.074119 -30.402634
-17.334916 -84.309899 -31.314085
-18.536723 -77.698078 -37.597311
-18.409398 -78.766587 -36.702765
-17.535339 -78.343864 -38.246099
-18.536723 -77.698078 -37.597311
-18.621976 -76.597133 -38.433471
-16.799359 -76.312732 -40.506918
-16.664108 -77.638977 -39.698551
-17.755843 -75.916675 -39.890627
-16.756954 -75.168026 -41.227734
-15.665218 -76.890327 -41.035658
-16.799359 -76.312732 -40.506918
-6.385226 -98.740242 -28.255789
-5.317176 -99.500156 -28.603659
-7.294068 -97.755837 -28.73827
-6.385226 -98.740242 -28.255789
-8.322999 -96.60109 -29.208008
-7.241645 -97.418655 -29.680039
-7.294068 -97.755837 -28.73827
-9.231314 -95.486751 -29.635711
-8.322999 -96.60109 -29.208008
-9.283738 -95.823933 -28.693942
-10.880577 -79.147919 -42.592975
-9.640617 -79.612743 -42.860225
-9.519934 -81.070233 -42.267029
1.273875 -102.163715 -31.781943
2.626498 -102.649449 -31.884589
0.158846 -101.109493 -32.577606
1.273875 -102.163715 -31.781943
-1.018466 -99.91301 -33.352888
0.219222 -100.433087 -33.513624
0.158846 -101.109493 -32.577606
-5.057411 -98.885273 -30.534146
-5.099166 -99.302642 -29.573539
-6.170959 -98.156033 -30.170909
-5.057411 -98.885273 -30.534146
-4.86689 -98.520355 -31.501339
-2.269639 -99.375385 -33.044928
-3.532507 -98.731701 -32.772073
-2.209264 -98.698979 -33.980945
-1.018466 -99.91301 -33.352888
-2.269639 -99.375385 -33.044928
7.654416 -85.856483 -40.325531
8.979732 -87.334575 -39.614446
7.916528 -87.601681 -39.985205
5.260801 -84.660492 -41.313947
5.378426 -86.184868 -41.02903
4.048015 -84.721771 -41.646688
6.342363 -84.405293 -40.997456
5.260801 -84.660492 -41.313947
7.654416 -85.856483 -40.325531
6.342363 -84.405293 -40.997456
13.45987 -99.05986 -34.486986
14.684787 -99.92041 -33.418663
13.451188 -100.1138 -33.903162
13.531322 -97.950432 -34.964597
13.45987 -99.05986 -34.486986
12.297722 -98.143822 -35.449096
13.474439 -96.654419 -35.514494
13.531322 -97.950432 -34.964597
12.237611 -95.726437 -36.421651
13.342876 -95.346463 -36.009438
13.474439 -96.654419 -35.514494
5.425185 -103.449016 -31.948854
4.018838 -103.080021 -31.977105
6.815378 -103.801083 -31.847103
5.425185 -103.449016 -31.948854
5.571407 -102.842781 -32.821623
8.08377 -103.998997 -31.726832
6.815378 -103.801083 -31.847103
8.267002 -103.305603 -32.603241
8.08377 -103.998997 -31.726832
8.365974 -102.483986 -33.459333
8.267002 -103.305603 -32.603241
7.060573 -102.37323 -33.575964
8.443043 -101.628986 -34.255262
8.365974 -102.483986 -33.459333
8.52675 -100.661049 -35.005261
8.443043 -101.628986 -34.255262
7.243252 -100.583675 -35.182055
8.616298 -99.696331 -35.670647
9.816088 -100.741642 -34.743854
8.52675 -100.661049 -35.005261
-1.043832 -81.396446 -43.18938
0.194195 -81.579803 -42.997299
0.23838 -83.184074 -42.654263
-2.347031 -81.206188 -43.331045
-2.214979 -82.863453 -42.900114
-3.562362 -81.068924 -43.384815
-1.043832 -81.396446 -43.18938
-2.347031 -81.206188 -43.331045
-11.113716 -93.888557 -28.446494
-10.262671 -94.963921 -28.197355
-11.1499 -93.471592 -29.390756
-11.113716 -93.888557 -28.446494
-12.071563 -92.650554 -28.715605
-15.633243 -88.377838 -27.469459
-16.596183 -86.945805 -27.546592
-14.860743 -89.205487 -28.245065
-14.692143 -89.725895 -27.311594
-15.633243 -88.377838 -27.469459
-15.955932 -87.240623 -29.35999
-16.768915 -86.403908 -28.500048
-16.923002 -85.787102 -29.457107
-17.928047 -81.688755 -34.136431
-17.71408 -82.612332 -33.23276
-16.936827 -82.509568 -34.877413
-17.928047 -81.688755 -34.136431
-18.048163 -80.773494 -35.04657
-17.253514 -80.519558 -36.598745
-18.212826 -79.841335 -35.891571
-18.409398 -78.766587 -36.702765
-12.233209 -77.207051 -42.860338
-10.880577 -79.147919 -42.592975
-12.112527 -78.664539 -42.267141
-16.795728 -73.821877 -42.007439
-16.756954 -75.168026 -41.227734
-15.715236 -74.265133 -42.4622
-16.795728 -73.821877 -42.007439
-14.636409 -74.754158 -42.851215
-14.543986 -76.234646 -42.145489
-15.715236 -74.265133 -42.4622
-13.438707 -75.365478 -43.15379
-14.636409 -74.754158 -42.851215
-12.233209 -77.207051 -42.860338
-13.438707 -75.365478 -43.15379
10.521549 -90.321736 -38.500849
10.648022 -91.791493 -38.158304
9.368317 -90.54953 -38.931576
10.521549 -90.321736 -38.500849
10.235768 -88.693585 -38.887405
3 1 27 25
3 1 29 27
3 0 104 106
3 106 105 30
3 104 105 106
3 3 33 31
3 3 35 33
3 108 107 36
3 109 37 110
3 111 39 112
3 113 112 37
3 111 112 113
3 2 42 40
3 4 45 43
3 4 47 45
3 4 49 47
3 115 114 50
3 116 53 117
3 118 55 119
3 120 119 53
3 118 119 120
3 121 57 122
3 124 123 57
3 125 59 126
3 6 62 60
3 8 63 26
3 8 64 63
3 8 66 64
3 10 67 28
3 10 68 67
3 5 127 128
3 11 129 131
3 131 130 32
3 129 130 131
3 11 132 134
3 132 69 133
3 132 133 134
3 11 70 69
3 12 71 34
3 12 72 71
3 13 75 73
3 14 135 136
3 14 137 138
3 14 139 140
3 15 76 38
3 15 77 76
3 16 78 41
3 16 79 78
3 7 80 61
3 17 81 44
3 17 82 81
3 17 83 82
3 18 84 46
3 18 85 84
3 18 86 85
3 19 87 48
3 19 88 87
3 9 89 65
3 141 90 142
3 143 142 51
3 141 142 143
3 145 144 90
3 20 146 147
3 20 148 150
3 148 91 149
3 148 149 150
3 151 92 152
3 21 93 52
3 21 94 93
3 21 95 94
3 22 96 54
3 22 97 96
3 153 98 154
3 23 99 56
3 23 100 99
3 23 101 100
3 24 102 58
3 24 103 102
3 156 155 74
3 25 26 6
3 27 26 25
3 27 8 26
3 27 28 8
3 29 28 27
3 29 10 28
3 30 157 158
3 160 159 30
3 31 32 5
3 33 32 31
3 33 11 32
3 33 34 11
3 35 34 33
3 35 12 34
3 36 161 163
3 163 162 13
3 161 162 163
3 165 164 36
3 37 166 167
3 37 168 170
3 168 14 169
3 168 169 170
3 37 38 14
3 39 38 37
3 39 15 38
3 40 171 173
3 171 41 172
3 171 172 173
3 42 41 40
3 42 16 41
3 43 44 7
3 45 44 43
3 45 17 44
3 45 46 17
3 47 46 45
3 47 18 46
3 47 48 18
3 49 48 47
3 49 19 48
3 50 51 9
3 174 51 175
3 176 175 50
3 174 175 176
3 178 177 51
3 179 20 180
3 181 52 182
3 53 183 185
3 183 52 184
3 183 184 185
3 53 21 52
3 53 54 21
3 55 54 53
3 55 22 54
3 186 56 187
3 57 188 190
3 188 56 189
3 188 189 190
3 57 23 56
3 57 58 23
3 191 58 192
3 193 192 57
3 191 192 193
3 194 24 195
3 196 195 58
3 194 195 196
3 197 5 198
3 199 5 200
3 201 31 202
3 203 202 5
3 201 202 203
3 59 204 206
3 204 31 205
3 204 205 206
3 59 3 31
3 60 61 2
3 62 61 60
3 62 7 61
3 26 62 6
3 63 62 26
3 63 7 62
3 63 43 7
3 64 43 63
3 64 4 43
3 64 65 4
3 66 65 64
3 66 9 65
3 28 66 8
3 67 66 28
3 67 9 66
3 67 50 9
3 68 50 67
3 68 207 209
3 209 208 50
3 207 208 209
3 210 40 211
3 212 40 213
3 214 2 215
3 216 215 40
3 214 215 216
3 32 217 219
3 219 218 5
3 217 218 219
3 221 220 32
3 69 222 223
3 69 224 226
3 224 2 225
3 224 225 226
3 69 60 2
3 70 60 69
3 70 6 60
3 34 70 11
3 71 70 34
3 71 6 70
3 71 25 6
3 72 25 71
3 72 1 25
3 73 74 0
3 75 74 73
3 75 227 229
3 229 228 74
3 227 228 229
3 230 75 231
3 232 231 13
3 230 231 232
3 233 75 234
3 236 235 75
3 38 237 239
3 239 238 14
3 237 238 239
3 76 240 242
3 242 241 38
3 240 241 242
3 76 243 244
3 76 245 247
3 245 30 246
3 245 246 247
3 77 30 76
3 77 0 30
3 41 248 249
3 78 250 252
3 252 251 41
3 250 251 252
3 78 253 254
3 78 255 256
3 79 257 259
3 259 258 78
3 257 258 259
3 79 260 261
3 61 42 2
3 80 42 61
3 80 16 42
3 44 80 7
3 81 80 44
3 81 16 80
3 81 79 16
3 82 79 81
3 82 262 264
3 264 263 79
3 262 263 264
3 82 265 267
3 265 39 266
3 265 266 267
3 83 39 82
3 83 15 39
3 46 83 17
3 84 83 46
3 84 15 83
3 84 77 15
3 85 77 84
3 85 0 77
3 85 73 0
3 86 73 85
3 86 13 73
3 48 86 18
3 87 86 48
3 87 13 86
3 87 36 13
3 88 36 87
3 88 268 270
3 270 269 36
3 268 269 270
3 65 49 4
3 89 49 65
3 89 19 49
3 51 89 9
3 90 89 51
3 90 19 89
3 90 88 19
3 271 88 272
3 273 272 90
3 271 272 273
3 275 274 88
3 276 59 277
3 91 278 280
3 278 59 279
3 278 279 280
3 91 3 59
3 92 281 282
3 92 283 285
3 283 20 284
3 283 284 285
3 52 286 288
3 286 92 287
3 286 287 288
3 93 92 52
3 93 20 92
3 93 91 20
3 94 91 93
3 94 3 91
3 94 35 3
3 95 35 94
3 95 12 35
3 54 95 21
3 96 95 54
3 96 12 95
3 96 72 12
3 97 72 96
3 97 1 72
3 289 55 290
3 98 291 293
3 291 55 292
3 291 292 293
3 98 22 55
3 56 294 296
3 294 98 295
3 294 295 296
3 99 98 56
3 99 22 98
3 99 97 22
3 100 97 99
3 100 1 97
3 100 29 1
3 101 29 100
3 101 10 29
3 58 101 23
3 102 101 58
3 102 10 101
3 102 68 10
3 103 68 102
3 103 297 299
3 299 298 68
3 297 298 299
3 300 24 301
3 302 24 303
3 304 103 305
3 306 305 24
3 304 305 306
3 307 103 308
3 310 309 103
3 74 311 313
3 313 312 0
3 311 312 313
3 315 314 74
