ply
format ascii 1.0
element vertex 315
property float x
property float y
property float z
element face 315
property list uchar int vertex_index
end_header
-35.71254 5.955745 -33.671429
-33.328671 18.055944 -54.324146
-35.62368 12.578288 -43.489056
-39.240383 -2.015003 -32.002193
-39.374805 3.492263 -40.35334
-26.437347 25.807159 -56.593014
-37.71714 2.026229 -32.794827
-39.435688 0.749735 -35.940037
-37.850533 5.252274 -37.116966
-34.718033 15.661375 -48.927128
-37.1945 10.985902 -47.233059
-36.215275 13.037577 -52.347351
-35.81068 9.522044 -38.487129
-33.331966 13.245205 -39.56628
-32.952892 16.664684 -45.039085
-31.885509 19.619295 -50.279228
-40.271809 -6.003226 -31.156153
-38.908882 -5.160671 -28.373888
-37.252541 -1.478537 -28.588411
-40.433952 -3.765021 -34.538658
-40.461449 -1.583443 -38.477871
-37.751331 8.238634 -42.008495
-28.542383 23.231081 -51.411133
-30.134697 22.172674 -55.720894
-36.80022 4.049635 -33.293846
-37.852345 3.643771 -34.963711
-36.9188 5.703595 -35.494644
-34.178158 16.815443 -51.749401
-35.544605 14.501575 -50.655506
-34.85762 15.583912 -53.507957
-31.727417 16.736208 -42.641525
-31.474077 18.379986 -45.410995
-32.485943 18.194319 -47.61813
-30.929216 19.993189 -48.09679
-39.838665 -4.087892 -31.607931
-40.380497 -4.879296 -32.820217
-39.881004 -2.57876 -33.388493
-39.443592 2.127249 -38.120739
-40.041492 -0.385984 -37.239525
-40.003685 0.905235 -39.438499
-39.980598 1.806566 -41.617126
-35.817028 10.984971 -40.881687
-36.886391 8.948271 -40.239307
-36.708614 10.580544 -42.867329
-37.869534 9.457439 -48.770527
-38.249348 8.354552 -46.210255
-27.479725 24.688931 -54.027073
-29.257669 22.992296 -53.672691
-28.275146 24.120434 -56.292229
-38.528267 -0.05176 -32.306358
-39.32312 -0.430967 -33.991886
-38.638462 1.549098 -34.373512
-38.687191 3.059661 -36.505051
-38.701275 4.473219 -38.748886
-35.240433 14.158099 -46.117165
-36.531174 11.853601 -45.417568
-36.070374 13.296434 -48.050255
-36.80608 12.002115 -49.800495
-35.895779 7.668418 -36.067261
-34.641201 9.613635 -36.521893
-34.642422 11.446124 -39.112057
-34.497395 13.118017 -41.56234
-33.213245 15.056194 -42.368198
-34.330482 14.684947 -44.262466
-33.898998 16.290949 -46.987915
-33.368156 17.680769 -49.638908
-32.67646 18.983116 -52.449699
-40.622204 -7.94486 -30.70755
-39.697853 -5.507413 -29.868782
-39.09882 -3.548468 -30.177135
-37.900776 -5.017299 -26.6768
-38.17041 -3.314109 -28.531826
-38.322792 -1.60382 -30.343061
-37.437901 0.400145 -30.614351
-40.710163 -6.985559 -32.162888
-40.787731 -6.120586 -33.806702
-40.819618 -5.156374 -35.631004
-39.988235 -1.46048 -35.287548
-40.489208 -2.762019 -36.488548
-36.960201 7.395923 -37.922604
-37.926498 6.641074 -39.562843
-38.691589 5.791342 -41.280792
-37.547523 9.646242 -44.612942
-38.471794 7.249239 -43.728577
-39.324638 4.502365 -42.638714
-29.276018 21.705935 -48.534332
-30.231335 21.523579 -50.92799
-31.021225 21.050186 -52.990505
-31.718367 20.261372 -55.257343
-27.000448 25.178835 -58.909504
-28.899616 23.30147 -58.400822
-30.649509 21.293655 -57.88089
-33.663443 17.322145 -55.169849
-34.427917 16.086129 -54.761755
-34.093145 16.819928 -53.916051
-30.660001 19.2305 -45.592554
-30.827665 18.399409 -44.236221
-30.387571 20.037102 -46.935451
-31.201647 19.186588 -46.753892
-30.660001 19.2305 -45.592554
-38.335642 8.107956 -48.148623
-38.15941 8.456247 -49.380593
-26.958536 25.248045 -55.310043
-26.566804 25.482327 -54.194116
-26.045615 26.041441 -55.477087
-36.807034 11.695438 -51.79232
-37.102436 11.177707 -50.518892
-36.510677 12.519846 -51.073923
-36.485169 12.092357 -53.111366
-36.807034 11.695438 -51.79232
-33.955435 9.519502 -35.43618
-34.591043 8.698684 -35.309042
-33.987194 12.345664 -39.339168
-34.022046 11.403121 -38.044579
-33.366817 12.302661 -38.27169
-39.303368 -5.334042 -29.121335
-39.583101 -6.272726 -28.956368
-39.188615 -6.099355 -28.208922
-37.3046 -5.064802 -25.752382
-37.767078 -5.907489 -25.777047
-37.711475 -2.396323 -28.560119
-37.584192 -3.248836 -27.649415
-37.125258 -2.331049 -27.677708
-40.647305 -2.906845 -38.025902
-40.661184 -3.496134 -37.03124
-40.475329 -2.172731 -37.48321
-40.640809 -2.482045 -38.989853
-40.647305 -2.906845 -38.025902
-38.797491 6.449523 -44.366669
-38.360571 7.801896 -44.969416
-38.686268 7.002179 -45.607508
-39.223913 5.076085 -43.821737
-38.898216 5.875802 -43.183645
-38.797491 6.449523 -44.366669
-39.569584 3.732455 -43.318168
-39.223913 5.076085 -43.821737
-28.051288 23.318136 -50.245356
-27.62135 24.072772 -51.580225
-28.909201 22.468508 -49.972732
-28.418105 22.555563 -48.806955
-28.051288 23.318136 -50.245356
-27.300787 24.654671 -59.851589
-26.282719 25.617897 -60.030029
-28.250371 23.715989 -59.597248
-27.950032 24.240153 -58.655163
-27.300787 24.654671 -59.851589
-30.982372 20.549039 -58.682417
-30.057173 21.669204 -59.155273
-31.566011 20.090966 -57.42839
-30.982372 20.549039 -58.682417
-35.158126 14.766004 -54.257493
-35.836954 13.492836 -53.677191
-35.536447 14.310745 -52.927654
-35.158126 14.766004 -54.257493
-34.427917 16.086129 -54.761755
-32.651769 13.16722 -38.461601
-33.366817 12.302661 -38.27169
-30.954335 17.57752 -42.851486
-31.098176 16.64639 -41.49851
-31.600747 17.558097 -44.02626
-30.954335 17.57752 -42.851486
-30.827665 18.399409 -44.236221
-38.765438 -5.989159 -27.443119
-39.188615 -6.099355 -28.208922
-36.610003 -1.380128 -27.766618
-37.125258 -2.331049 -27.677708
-36.788296 -0.503544 -28.773524
-36.610003 -1.380128 -27.766618
-40.225631 0.110996 -40.040634
-40.454514 -1.133344 -39.56032
-40.232567 -0.339104 -38.958185
-40.214088 0.561661 -41.129948
-40.225631 0.110996 -40.040634
-39.992142 1.3559 -40.527812
-40.173109 1.003462 -42.325086
-40.214088 0.561661 -41.129948
-38.525549 7.556512 -46.868487
-38.059441 8.905995 -47.490391
-38.335642 8.107956 -48.148623
-38.686268 7.002179 -45.607508
-38.525549 7.556512 -46.868487
-27.090021 24.801697 -52.888195
-26.566804 25.482327 -54.194116
-28.011054 23.960006 -52.719103
-27.62135 24.072772 -51.580225
-27.090021 24.801697 -52.888195
-37.634163 9.905369 -50.003908
-37.337807 10.729777 -49.285511
-37.102436 11.177707 -50.518892
-38.15941 8.456247 -49.380593
-37.634163 9.905369 -50.003908
-36.106848 12.547616 -54.441205
-36.485169 12.092357 -53.111366
-35.836954 13.492836 -53.677191
-25.45704 26.607705 -56.608139
-26.045615 26.041441 -55.477087
-35.218333 7.726076 -35.081726
-35.804159 6.812081 -34.869345
-35.126713 6.869739 -33.88381
-35.26849 8.641027 -36.294577
-35.218333 7.726076 -35.081726
-34.591043 8.698684 -35.309042
-34.021435 10.486877 -36.749496
-33.955435 9.519502 -35.43618
-34.641812 10.529879 -37.816975
-34.021435 10.486877 -36.749496
-34.022046 11.403121 -38.044579
-32.668262 14.067702 -39.790194
-32.651769 13.16722 -38.461601
-31.865988 15.813204 -41.327816
-31.098176 16.64639 -41.49851
-32.608902 14.973197 -41.191153
-31.865988 15.813204 -41.327816
-32.470331 15.896201 -42.504862
-33.272605 14.150699 -40.967239
-32.668262 14.067702 -39.790194
-32.608902 14.973197 -41.191153
-40.580798 -8.601282 -30.00627
-40.72159 -8.678241 -30.536144
-40.390333 -7.68769 -30.103243
-40.580798 -8.601282 -30.00627
-40.215136 -6.716873 -30.327545
-40.447007 -6.974043 -30.931852
-40.390333 -7.68769 -30.103243
-39.928158 -6.468966 -29.683859
-39.583101 -6.272726 -28.956368
-39.984831 -5.755319 -30.512467
-40.215136 -6.716873 -30.327545
-39.928158 -6.468966 -29.683859
-38.261385 -5.917473 -26.594575
-37.767078 -5.907489 -25.777047
-38.404829 -5.088985 -27.525344
-38.765438 -5.989159 -27.443119
-38.261385 -5.917473 -26.594575
-37.449375 -4.10043 -26.721902
-37.3046 -5.064802 -25.752382
-38.035593 -4.165704 -27.604313
-37.449375 -4.10043 -26.721902
-37.584192 -3.248836 -27.649415
-36.880976 0.435797 -29.786494
-37.345221 -0.539196 -29.601381
-36.788296 -0.503544 -28.773524
-36.973278 1.372666 -30.814534
-36.880976 0.435797 -29.786494
-37.112898 2.185707 -31.904772
-37.57752 1.213187 -31.704589
-36.973278 1.372666 -30.814534
-36.654438 3.197411 -32.154282
-37.25868 3.037932 -33.044337
-37.112898 2.185707 -31.904772
-36.140631 4.116779 -32.353878
-36.654438 3.197411 -32.154282
-35.59679 5.069835 -32.54267
-36.25638 5.00269 -33.482638
-36.140631 4.116779 -32.353878
-35.058293 5.934559 -32.747931
-35.59679 5.069835 -32.54267
-35.126713 6.869739 -33.88381
-35.058293 5.934559 -32.747931
-40.77256 -8.388434 -31.13796
-40.72159 -8.678241 -30.536144
-40.81654 -7.908784 -31.86563
-40.77256 -8.388434 -31.13796
-40.666184 -7.46521 -31.435219
-40.854452 -7.576879 -32.603604
-40.81654 -7.908784 -31.86563
-40.893236 -7.144392 -33.425511
-40.854452 -7.576879 -32.603604
-40.748947 -6.553073 -32.984795
-40.917183 -6.804013 -34.240469
-40.893236 -7.144392 -33.425511
-40.933127 -6.321908 -35.15262
-40.917183 -6.804013 -34.240469
-40.803674 -5.63848 -34.718853
-40.948931 -5.95083 -36.115451
-40.933127 -6.321908 -35.15262
-40.826389 -4.693311 -36.602469
-40.654413 -3.959197 -36.059776
-40.661184 -3.496134 -37.03124
-40.948931 -5.95083 -36.115451
-40.826389 -4.693311 -36.602469
-40.640809 -2.482045 -38.989853
-40.454514 -1.133344 -39.56032
-39.897564 2.384555 -42.807374
-39.652618 3.154466 -42.12792
-39.569584 3.732455 -43.318168
-40.173109 1.003462 -42.325086
-39.897564 2.384555 -42.807374
-28.670993 21.777903 -47.374767
-28.418105 22.555563 -48.806955
-29.560972 20.893475 -47.154223
-28.670993 21.777903 -47.374767
-30.102617 20.849562 -48.315561
-30.387571 20.037102 -46.935451
-29.560972 20.893475 -47.154223
-25.837238 26.275661 -57.746084
-25.45704 26.607705 -56.608139
-26.118789 25.961498 -58.90433
-26.282719 25.617897 -60.030029
-26.718897 25.492997 -57.751259
-25.837238 26.275661 -57.746084
-26.118789 25.961498 -58.90433
-29.182226 22.673112 -59.415239
-28.250371 23.715989 -59.597248
-29.774563 22.297562 -58.140856
-29.182226 22.673112 -59.415239
-30.057173 21.669204 -59.155273
-32.10044 19.574824 -56.116617
-31.183938 20.777514 -56.569116
-31.566011 20.090966 -57.42839
-32.905592 18.47211 -55.650019
-32.523519 19.158658 -54.790745
-32.10044 19.574824 -56.116617
-33.663443 17.322145 -55.169849
-32.905592 18.47211 -55.650019
3 0 26 24
3 1 29 27
3 1 92 94
3 94 93 29
3 92 93 94
3 95 31 96
3 97 33 98
3 99 98 31
3 97 98 99
3 3 36 34
3 4 39 37
3 4 40 39
3 2 43 41
3 101 100 44
3 5 102 104
3 102 46 103
3 102 103 104
3 5 48 46
3 6 51 49
3 8 52 25
3 8 53 52
3 9 56 54
3 11 57 28
3 11 105 107
3 107 106 57
3 105 106 107
3 11 108 109
3 110 59 111
3 13 112 114
3 112 60 113
3 112 113 114
3 13 61 60
3 14 62 30
3 14 63 62
3 14 64 63
3 15 65 32
3 15 66 65
3 17 115 117
3 115 68 116
3 115 116 117
3 17 69 68
3 118 70 119
3 18 120 122
3 120 71 121
3 120 121 122
3 18 72 71
3 18 73 72
3 16 74 67
3 19 75 35
3 19 76 75
3 7 77 50
3 20 78 38
3 20 123 125
3 125 124 78
3 123 124 125
3 20 126 127
3 12 79 58
3 21 80 42
3 21 81 80
3 10 82 55
3 128 83 129
3 130 129 45
3 128 129 130
3 131 84 132
3 133 132 83
3 131 132 133
3 135 134 84
3 22 136 137
3 22 138 140
3 138 85 139
3 138 139 140
3 22 86 85
3 23 87 47
3 23 88 87
3 141 89 142
3 143 90 144
3 145 144 89
3 143 144 145
3 146 91 147
3 149 148 91
3 24 25 6
3 26 25 24
3 26 8 25
3 27 28 9
3 29 28 27
3 29 11 28
3 29 150 152
3 152 151 11
3 150 151 152
3 154 153 29
3 155 13 156
3 157 30 158
3 31 159 161
3 159 30 160
3 159 160 161
3 31 14 30
3 31 32 14
3 33 32 31
3 33 15 32
3 162 17 163
3 164 18 165
3 167 166 18
3 34 35 16
3 36 35 34
3 36 19 35
3 37 38 7
3 39 38 37
3 39 20 38
3 39 168 170
3 170 169 20
3 168 169 170
3 40 171 173
3 173 172 39
3 171 172 173
3 40 174 175
3 41 42 12
3 43 42 41
3 43 21 42
3 44 45 10
3 176 45 177
3 178 177 44
3 176 177 178
3 180 179 45
3 46 181 182
3 46 183 185
3 183 22 184
3 183 184 185
3 46 47 22
3 48 47 46
3 48 23 47
3 49 50 3
3 51 50 49
3 51 7 50
3 25 51 6
3 52 51 25
3 52 7 51
3 52 37 7
3 53 37 52
3 53 4 37
3 54 55 2
3 56 55 54
3 56 10 55
3 28 56 9
3 57 56 28
3 57 10 56
3 57 44 10
3 186 44 187
3 188 187 57
3 186 187 188
3 190 189 44
3 193 192 11
3 191 192 193
3 194 5 195
3 196 58 197
3 198 197 0
3 196 197 198
3 59 199 201
3 199 58 200
3 199 200 201
3 59 12 58
3 202 59 203
3 60 204 206
3 204 59 205
3 204 205 206
3 60 12 59
3 60 41 12
3 61 41 60
3 61 2 41
3 207 13 208
3 30 209 210
3 62 211 213
3 213 212 30
3 211 212 213
3 62 214 216
3 214 13 215
3 214 215 216
3 62 61 13
3 63 61 62
3 63 2 61
3 63 54 2
3 64 54 63
3 64 9 54
3 32 64 14
3 65 64 32
3 65 9 64
3 65 27 9
3 66 27 65
3 66 1 27
3 217 67 218
3 219 67 220
3 221 16 222
3 223 222 67
3 221 222 223
3 68 224 225
3 68 226 228
3 226 16 227
3 226 227 228
3 68 34 16
3 69 34 68
3 69 3 34
3 70 229 230
3 70 231 233
3 231 17 232
3 231 232 233
3 234 70 235
3 71 236 238
3 236 70 237
3 236 237 238
3 71 17 70
3 71 69 17
3 72 69 71
3 72 3 69
3 72 49 3
3 73 49 72
3 73 6 49
3 239 73 240
3 241 240 18
3 239 240 241
3 242 73 243
3 244 6 245
3 246 245 73
3 244 245 246
3 247 24 248
3 249 248 6
3 247 248 249
3 250 24 251
3 252 0 253
3 254 253 24
3 252 253 254
3 255 0 256
3 258 257 0
3 67 259 260
3 74 261 263
3 263 262 67
3 261 262 263
3 74 264 265
3 35 74 16
3 75 74 35
3 75 266 268
3 268 267 74
3 266 267 268
3 75 269 270
3 76 271 273
3 273 272 75
3 271 272 273
3 76 274 275
3 50 36 3
3 77 36 50
3 77 19 36
3 38 77 7
3 78 77 38
3 78 19 77
3 78 76 19
3 276 76 277
3 278 277 78
3 276 277 278
3 280 279 76
3 282 281 20
3 58 26 0
3 79 26 58
3 79 8 26
3 42 79 12
3 80 79 42
3 80 8 79
3 80 53 8
3 81 53 80
3 81 4 53
3 55 43 2
3 82 43 55
3 82 21 43
3 45 82 10
3 83 82 45
3 83 21 82
3 83 81 21
3 84 81 83
3 84 4 81
3 84 40 4
3 283 40 284
3 285 284 84
3 283 284 285
3 287 286 40
3 85 288 289
3 85 290 291
3 85 292 294
3 292 33 293
3 292 293 294
3 86 33 85
3 86 15 33
3 47 86 22
3 87 86 47
3 87 15 86
3 87 66 15
3 88 66 87
3 88 1 66
3 295 5 296
3 89 297 298
3 89 299 301
3 299 5 300
3 299 300 301
3 89 48 5
3 90 48 89
3 90 23 48
3 302 90 303
3 91 304 306
3 304 90 305
3 304 305 306
3 91 23 90
3 91 88 23
3 307 88 308
3 309 308 91
3 307 308 309
3 310 1 311
3 312 311 88
3 310 311 312
3 314 313 1
