ply
format ascii 1.0
element vertex 415
property float x
property float y
property float z
element face 300
property list uchar int vertex_index
end_header
-37.786121 -5.02439 15.402042
0.692506 6.22479 -60.777744
8.721534 39.164883 -55.98106
-37.813496 -12.045122 11.886278
-0.993494 -9.481371 -52.675064
-37.775749 10.77282 17.798691
-37.148602 2.135204 19.017345
-38.578583 3.749203 14.401203
-36.68354 17.651649 20.810091
-36.339832 -6.114251 19.843159
2.620105 21.305305 -65.465645
1.41134 13.951179 -63.712711
-37.625942 -15.293484 9.921744
-0.015407 -4.694543 -55.878014
-38.487514 11.649628 15.392035
-38.195587 7.320016 16.22994
-38.846668 7.980533 13.838536
0.785864 3.281712 -60.006958
-37.420799 18.519325 18.524448
-37.518654 -1.518917 17.247429
-36.800365 -1.935486 19.392408
-37.081745 -5.329041 17.777405
7.037131 39.107323 -56.521713
2.64557 23.762403 -64.968193
0.626379 9.057108 -61.456264
1.445093 11.017087 -63.275806
-37.925381 -8.319608 13.541162
-1.377998 -12.684284 -51.175453
-37.035564 9.996158 20.026669
-36.695507 5.698514 20.723604
-37.481785 6.244594 18.469662
-37.912785 2.849533 16.700842
-38.183182 -0.632514 15.08495
-38.795494 -0.151855 12.611951
-38.405285 -4.187432 13.083847
-38.388954 -7.826348 11.378254
0.013434 -1.643433 -56.97023
-36.45636 13.346634 21.68523
-37.269493 14.388973 19.31628
-38.026283 15.089929 16.891212
-38.741116 15.726396 14.293756
-36.341282 1.222127 21.183586
4.75338 36.890324 -58.64267
2.787381 34.07991 -59.875027
2.36236 31.878521 -60.966568
2.059709 29.705238 -61.887184
1.801364 27.241745 -62.712559
2.459088 18.73555 -65.502724
-2.73509 -16.902384 -48.139992
-37.038539 -19.166469 9.064233
-37.261892 -17.380465 10.085612
-37.40259 -17.079487 8.900365
-0.101342 -6.305632 -55.208044
0.269697 -5.310574 -56.176518
-38.991312 9.951121 13.329258
-38.667091 9.815081 14.615285
-38.811735 11.785668 14.106007
0.34895 5.33483 -59.90354
0.289694 6.810075 -60.257562
0.739185 4.753251 -60.392351
0.395629 3.863291 -59.518147
0.34895 5.33483 -59.90354
1.115191 5.685437 -61.329555
1.161871 4.213898 -60.944162
0.739185 4.753251 -60.392351
8.152764 39.812123 -55.306486
8.397386 40.366383 -54.268332
8.966155 39.719143 -54.942905
7.879333 39.136103 -56.251386
7.310562 39.783343 -55.576813
8.152764 39.812123 -55.306486
0.6 10.572191 -61.749916
0.202161 9.623409 -60.876996
1.009356 11.552181 -62.659687
1.035736 10.037097 -62.366035
0.6 10.572191 -61.749916
1.868248 13.462342 -64.352034
1.909037 14.932579 -64.56265
-37.583687 -12.17734 12.995908
-37.639629 -10.314583 13.823349
-37.869439 -10.182365 12.71372
-1.28346 -8.759526 -52.420334
-0.890521 -7.912922 -53.334856
-1.405656 -10.203318 -51.796694
-1.28346 -8.759526 -52.420334
-1.185746 -11.082828 -51.925258
-1.597908 -11.804775 -51.046888
-1.405656 -10.203318 -51.796694
-38.838377 -1.918003 11.690668
-39.037048 0.097014 11.38479
-38.643272 -3.935792 11.926616
-38.600389 -2.169644 12.847899
-38.838377 -1.918003 11.690668
-38.635107 -5.75525 11.073819
-38.39712 -6.00689 12.231051
-38.643272 -3.935792 11.926616
0.392829 -0.68687 -57.967165
0.035703 -0.081791 -57.549074
0.415099 0.874772 -58.546009
0.759451 -1.255434 -58.416432
0.380056 -2.211996 -57.419497
0.392829 -0.68687 -57.967165
-36.295103 17.176089 21.931718
-36.389566 19.383032 21.453094
-36.56995 15.499142 21.247661
-36.181513 15.023581 22.369287
-36.295103 17.176089 21.931718
-38.093149 17.16237 16.454802
-37.723541 16.804627 17.70783
-37.790407 18.877067 17.27142
-38.450565 17.480603 15.156074
-38.383699 15.408162 15.592484
-38.093149 17.16237 16.454802
-36.162598 -4.340271 20.695692
-36.392864 -2.250889 20.470316
-36.570099 -4.024869 19.617784
-35.936667 -6.424802 20.886373
-36.162598 -4.340271 20.695692
4.545135 35.919032 -59.421872
5.412117 36.370016 -59.422581
3.756755 35.624872 -59.341811
3.965 36.596165 -58.562609
4.545135 35.919032 -59.421872
3.562136 34.513824 -60.03805
2.982 35.190958 -59.178787
3.756755 35.624872 -59.341811
2.932993 31.357111 -61.833793
3.125135 32.390918 -61.267586
2.781668 30.27047 -62.294101
2.211034 30.79188 -61.426876
2.932993 31.357111 -61.833793
2.321152 26.769005 -63.541769
2.427691 27.883951 -63.15123
2.243874 25.471315 -63.88014
1.724086 25.944056 -63.05093
2.321152 26.769005 -63.541769
2.058233 21.627782 -64.620672
2.070966 22.85633 -64.371947
2.632837 22.533854 -65.216919
2.030254 20.357132 -64.717848
2.058233 21.627782 -64.620672
2.539597 20.020428 -65.484184
1.949745 19.072254 -64.736388
2.030254 20.357132 -64.717848
-2.282278 -16.31877 -48.963946
-2.494247 -15.392375 -48.812613
-2.041435 -14.80876 -49.636566
0.940337 14.442645 -63.009603
0.99248 13.019227 -62.87814
1.417828 15.32815 -63.839872
0.940337 14.442645 -63.009603
1.915525 16.30955 -64.689811
1.909037 14.932579 -64.56265
1.417828 15.32815 -63.839872
-37.431976 -15.591437 11.024933
-37.525753 -13.967256 12.0072
-37.719719 -13.669303 10.904011
-37.431976 -15.591437 11.024933
-37.261892 -17.380465 10.085612
-0.401477 -5.519509 -54.936331
-0.362041 -4.091874 -55.482811
-0.487411 -7.130597 -54.266361
-0.401477 -5.519509 -54.936331
-0.101342 -6.305632 -55.208044
-0.590385 -8.699046 -53.606569
-0.890521 -7.912922 -53.334856
-0.487411 -7.130597 -54.266361
-0.745105 -10.231204 -52.895296
-0.590385 -8.699046 -53.606569
0.421918 2.380782 -59.067438
0.395629 3.863291 -59.518147
0.779044 1.775702 -59.485529
0.415099 0.874772 -58.546009
0.421918 2.380782 -59.067438
1.175607 2.654095 -60.462029
0.779044 1.775702 -59.485529
1.175607 2.654095 -60.462029
1.161871 4.213898 -60.944162
-36.763903 19.728693 20.315084
-36.389566 19.383032 21.453094
-37.132532 20.162532 19.172263
-37.05217 18.085487 19.667269
-36.763903 19.728693 20.315084
-37.478699 20.661085 18.011083
-37.132532 20.162532 19.172263
-37.790407 18.877067 17.27142
-37.478699 20.661085 18.011083
6.471909 39.796547 -55.827252
6.745341 40.472566 -54.882351
7.310562 39.783343 -55.576813
6.194353 38.94006 -56.724039
6.471909 39.796547 -55.827252
3.306526 24.613619 -65.509716
2.743255 25.029334 -64.669586
3.40421 25.88055 -65.211109
3.200509 23.434784 -65.765575
3.306526 24.613619 -65.509716
3.187776 22.206235 -66.014301
2.632837 22.533854 -65.216919
3.200509 23.434784 -65.765575
3.139278 20.860106 -66.209801
3.187776 22.206235 -66.014301
0.256631 8.226235 -60.596823
0.202161 9.623409 -60.876996
0.659442 7.640949 -61.117004
0.289694 6.810075 -60.257562
0.256631 8.226235 -60.596823
1.068358 8.605853 -62.07904
1.101422 7.189694 -61.73978
0.659442 7.640949 -61.117004
1.477715 9.585843 -62.988811
1.068358 8.605853 -62.07904
1.035736 10.037097 -62.366035
1.945857 10.614864 -63.969034
1.477715 9.585843 -62.988811
1.428216 12.484133 -63.494259
1.009356 11.552181 -62.659687
0.99248 13.019227 -62.87814
1.885125 11.995296 -64.133581
1.428216 12.484133 -63.494259
1.868248 13.462342 -64.352034
2.385889 11.593073 -64.826809
1.945857 10.614864 -63.969034
1.885125 11.995296 -64.133581
-37.617798 -8.556396 14.721846
-37.548168 -6.908787 15.652286
-37.855751 -6.671999 14.471602
-37.617798 -8.556396 14.721846
-37.639629 -10.314583 13.823349
-37.583687 -12.17734 12.995908
-37.525753 -13.967256 12.0072
9.560871 39.07671 -55.613729
8.966155 39.719143 -54.942905
9.805492 39.63097 -54.575575
-1.815701 -13.283325 -50.330343
-1.597908 -11.804775 -51.046888
-1.603733 -14.20972 -50.481676
-2.041435 -14.80876 -49.636566
-1.815701 -13.283325 -50.330343
-0.937358 -11.83266 -52.14549
-1.185746 -11.082828 -51.925258
-0.745105 -10.231204 -52.895296
-1.138793 -13.451946 -51.411354
-0.937358 -11.83266 -52.14549
-1.603733 -14.20972 -50.481676
-1.138793 -13.451946 -51.411354
-36.865536 7.847336 20.375136
-36.466493 7.416563 21.474198
-36.636522 9.565385 21.12573
-39.146619 8.147569 12.486355
-38.991312 9.951121 13.329258
-38.995798 6.082972 12.91331
-39.146619 8.147569 12.486355
-38.861756 3.967307 13.194644
-38.712626 5.864868 14.11987
-38.995798 6.082972 12.91331
-38.970211 2.016777 12.300017
-39.037048 0.097014 11.38479
-38.687038 1.798674 13.506577
-38.861756 3.967307 13.194644
-38.970211 2.016777 12.300017
-38.577736 -7.542276 10.245795
-38.635107 -5.75525 11.073819
-38.312853 -9.561956 10.455487
-38.577736 -7.542276 10.245795
-38.025124 -11.671343 10.709499
-38.101225 -9.935735 11.632266
-38.312853 -9.561956 10.455487
-37.931347 -13.295524 9.727232
-37.719719 -13.669303 10.904011
-38.025124 -11.671343 10.709499
-37.758506 -15.066468 8.715334
-37.931347 -13.295524 9.727232
-37.40259 -17.079487 8.900365
-37.758506 -15.066468 8.715334
-0.339691 -0.987804 -56.59293
0.035703 -0.081791 -57.549074
-0.347621 -2.566319 -56.028919
-0.339691 -0.987804 -56.59293
-0.000987 -3.168988 -56.424122
-0.362041 -4.091874 -55.482811
-0.347621 -2.566319 -56.028919
0.365636 -3.737552 -56.873389
-0.000987 -3.168988 -56.424122
0.380056 -2.211996 -57.419497
0.269697 -5.310574 -56.176518
0.365636 -3.737552 -56.873389
1.115191 5.685437 -61.329555
1.101422 7.189694 -61.73978
-36.06574 12.831245 22.743355
-36.181513 15.023581 22.369287
-36.34692 11.240623 21.955011
-36.06574 12.831245 22.743355
-36.745962 11.671396 20.85595
-36.636522 9.565385 21.12573
-36.34692 11.240623 21.955011
-38.938536 13.824052 13.556867
-38.811735 11.785668 14.106007
-38.614315 13.688012 14.842896
-38.784131 17.970283 13.846835
-38.450565 17.480603 15.156074
-38.49358 19.72449 14.709153
-39.035456 16.026884 13.041987
-38.784131 17.970283 13.846835
-38.938536 13.824052 13.556867
-39.035456 16.026884 13.041987
-36.327303 5.31928 21.684209
-36.098289 7.03733 22.434802
-36.466493 7.416563 21.474198
-36.150191 3.081087 21.9142
-36.327303 5.31928 21.684209
-36.518394 3.46032 20.953595
-35.921171 0.985443 22.252445
-36.150191 3.081087 21.9142
-36.163322 -0.672082 21.365905
-36.570824 -0.35668 20.287997
-36.392864 -2.250889 20.470316
-35.743212 -0.908766 22.434764
-35.921171 0.985443 22.252445
-36.163322 -0.672082 21.365905
-37.19598 -7.061112 16.839968
-37.433933 -5.176716 16.589724
-37.548168 -6.908787 15.652286
-36.855969 -7.373406 17.918399
-37.19598 -7.061112 16.839968
-36.485012 -7.766011 18.951276
-36.710788 -5.721646 18.810282
-36.855969 -7.373406 17.918399
-36.088741 -8.109509 20.056945
-36.485012 -7.766011 18.951276
-36.233921 -9.761268 19.165062
-35.936667 -6.424802 20.886373
-36.088741 -8.109509 20.056945
9.292288 38.575762 -56.738401
9.560871 39.07671 -55.613729
10.131625 38.487589 -56.371071
8.449949 38.535162 -56.998282
9.292288 38.575762 -56.738401
7.607748 38.506382 -57.268608
7.879333 39.136103 -56.251386
8.449949 38.535162 -56.998282
6.752485 38.340668 -57.443678
7.607748 38.506382 -57.268608
5.909707 38.173405 -57.646004
6.194353 38.94006 -56.724039
6.752485 38.340668 -57.443678
5.610609 37.232169 -58.504157
5.412117 36.370016 -59.422581
5.052478 37.83156 -57.784517
5.909707 38.173405 -57.646004
5.610609 37.232169 -58.504157
4.217268 37.628172 -57.838059
5.052478 37.83156 -57.784517
4.217268 37.628172 -57.838059
3.965 36.596165 -58.562609
2.220959 34.717928 -59.096975
2.982 35.190958 -59.178787
2.042314 33.522869 -59.657347
2.220959 34.717928 -59.096975
3.337646 33.491613 -60.721816
3.562136 34.513824 -60.03805
2.57487 32.979215 -60.420798
3.337646 33.491613 -60.721816
3.125135 32.390918 -61.267586
1.829804 32.422174 -60.203118
2.042314 33.522869 -59.657347
2.57487 32.979215 -60.420798
1.620304 31.265088 -60.595182
1.829804 32.422174 -60.203118
1.468979 30.178446 -61.05549
1.620304 31.265088 -60.595182
2.211034 30.79188 -61.426876
1.425254 28.942323 -61.519621
1.468979 30.178446 -61.05549
2.556864 29.115698 -62.738542
2.781668 30.27047 -62.294101
1.930536 28.473492 -62.299871
2.556864 29.115698 -62.738542
2.427691 27.883951 -63.15123
1.296082 27.710576 -61.932308
1.425254 28.942323 -61.519621
1.930536 28.473492 -62.299871
1.197124 26.419632 -62.22665
1.296082 27.710576 -61.932308
1.197124 26.419632 -62.22665
1.724086 25.944056 -63.05093
2.146189 24.204384 -64.178747
2.243874 25.471315 -63.88014
2.743255 25.029334 -64.669586
2.146189 24.204384 -64.178747
2.070966 22.85633 -64.371947
1.941701 17.720335 -64.734879
1.949745 19.072254 -64.736388
2.432911 17.324765 -65.457657
1.915525 16.30955 -64.689811
1.941701 17.720335 -64.734879
3.058769 19.575229 -66.228341
2.539597 20.020428 -65.484184
3.139278 20.860106 -66.209801
2.984645 18.215096 -66.227562
3.058769 19.575229 -66.228341
3.584326 19.054774 -66.953179
2.432911 17.324765 -65.457657
2.984645 18.215096 -66.227562
-2.971759 -16.074058 -47.953091
-2.494247 -15.392375 -48.812613
-3.257861 -17.62497 -47.246943
-2.971759 -16.074058 -47.953091
-2.594898 -17.972478 -48.209113
-2.282278 -16.31877 -48.963946
-3.084629 -18.552697 -47.374927
-2.594898 -17.972478 -48.209113
-3.6074 -19.275283 -46.481878
-3.257861 -17.62497 -47.246943
-3.084629 -18.552697 -47.374927
3 51 50 12
3 49 50 51
3 53 52 13
3 54 16 55
3 56 55 14
3 54 55 56
3 1 57 58
3 1 59 61
3 59 17 60
3 59 60 61
3 1 62 64
3 64 63 17
3 62 63 64
3 0 21 19
3 2 65 67
3 65 66 67
3 2 68 70
3 68 22 69
3 68 69 70
3 71 24 72
3 73 25 74
3 75 74 24
3 73 74 75
3 77 76 11
3 3 78 80
3 80 79 26
3 78 79 80
3 4 81 82
3 4 83 84
3 4 85 87
3 85 27 86
3 85 86 87
3 5 30 28
3 7 31 15
3 7 32 31
3 88 33 89
3 90 34 91
3 92 91 33
3 90 91 92
3 93 35 94
3 95 94 34
3 93 94 95
3 96 36 97
3 96 97 98
3 101 100 36
3 99 100 101
3 8 102 103
3 8 104 106
3 104 37 105
3 104 105 106
3 8 38 37
3 107 39 108
3 109 108 18
3 107 108 109
3 110 40 111
3 112 111 39
3 110 111 112
3 6 41 29
3 9 113 115
3 115 114 20
3 113 114 115
3 9 116 117
3 118 42 119
3 122 121 42
3 120 121 122
3 123 43 124
3 123 124 125
3 126 44 127
3 128 45 129
3 130 129 44
3 128 129 130
3 131 46 132
3 135 134 46
3 133 134 135
3 10 136 138
3 138 137 23
3 136 137 138
3 10 139 140
3 10 141 143
3 141 47 142
3 141 142 143
3 144 48 145
3 144 145 146
3 147 11 148
3 149 11 150
3 153 152 11
3 151 152 153
3 12 154 156
3 156 155 3
3 154 155 156
3 158 157 12
3 13 159 160
3 163 162 13
3 161 162 163
3 164 4 165
3 164 165 166
3 168 167 4
3 14 15 5
3 16 15 14
3 16 7 15
3 17 169 170
3 17 171 173
3 171 172 173
3 17 174 175
3 177 176 17
3 178 8 179
3 180 18 181
3 182 181 8
3 180 181 182
3 183 18 184
3 186 185 18
3 19 20 6
3 21 20 19
3 21 9 20
3 22 187 189
3 187 188 189
3 22 190 191
3 192 23 193
3 192 193 194
3 195 23 196
3 197 10 198
3 199 198 23
3 197 198 199
3 201 200 10
3 24 202 203
3 24 204 206
3 204 1 205
3 204 205 206
3 24 207 209
3 209 208 1
3 207 208 209
3 25 210 212
3 212 211 24
3 210 211 212
3 25 213 214
3 11 215 217
3 215 25 216
3 215 216 217
3 218 25 219
3 220 219 11
3 218 219 220
3 223 222 25
3 221 222 223
3 26 224 226
3 226 225 0
3 224 225 226
3 228 227 26
3 230 229 3
3 231 2 232
3 231 232 233
3 27 234 235
3 27 236 238
3 236 237 238
3 239 27 240
3 241 240 4
3 239 240 241
3 242 27 243
3 245 244 27
3 28 246 248
3 246 29 247
3 246 247 248
3 30 29 28
3 30 6 29
3 15 30 5
3 31 30 15
3 31 6 30
3 31 19 6
3 32 19 31
3 32 0 19
3 249 16 250
3 251 16 252
3 253 7 254
3 255 254 16
3 253 254 255
3 33 256 257
3 33 258 260
3 258 7 259
3 258 259 260
3 33 32 7
3 34 32 33
3 34 0 32
3 34 26 0
3 35 26 34
3 35 3 26
3 261 35 262
3 263 35 264
3 265 3 266
3 267 266 35
3 265 266 267
3 268 12 269
3 270 269 3
3 268 269 270
3 271 12 272
3 274 273 12
3 36 275 276
3 36 277 278
3 36 279 281
3 279 13 280
3 279 280 281
3 282 13 283
3 284 283 36
3 282 283 284
3 286 285 13
3 288 287 1
3 37 289 290
3 37 291 292
3 37 293 295
3 293 28 294
3 293 294 295
3 38 28 37
3 38 5 28
3 18 38 8
3 39 38 18
3 39 5 38
3 39 14 5
3 40 14 39
3 40 296 298
3 298 297 14
3 296 297 298
3 299 40 300
3 299 300 301
3 302 40 303
3 305 304 40
3 29 306 308
3 306 307 308
3 41 309 311
3 311 310 29
3 309 310 311
3 41 312 313
3 20 41 6
3 314 41 315
3 316 315 20
3 314 315 316
3 319 318 41
3 317 318 319
3 320 21 321
3 322 321 0
3 320 321 322
3 323 21 324
3 325 9 326
3 327 326 21
3 325 326 327
3 328 9 329
3 328 329 330
3 332 331 9
3 333 2 334
3 333 334 335
3 336 2 337
3 338 22 339
3 340 339 2
3 338 339 340
3 341 22 342
3 345 344 22
3 343 344 345
3 42 346 347
3 42 348 350
3 348 349 350
3 42 351 352
3 354 353 42
3 43 355 356
3 43 357 358
3 359 43 360
3 44 361 363
3 361 43 362
3 361 362 363
3 44 364 366
3 366 365 43
3 364 365 366
3 44 367 368
3 45 369 371
3 371 370 44
3 369 370 371
3 45 372 373
3 374 45 375
3 46 376 378
3 376 45 377
3 376 377 378
3 46 379 381
3 381 380 45
3 379 380 381
3 46 382 383
3 385 384 46
3 23 386 388
3 386 387 388
3 390 389 23
3 47 391 392
3 47 393 395
3 393 394 395
3 396 47 397
3 398 397 10
3 396 397 398
3 399 47 400
3 399 400 401
3 403 402 47
3 48 404 405
3 48 406 407
3 408 48 409
3 410 48 411
3 414 413 48
3 412 413 414
