ply
format ascii 1.0
element vertex 291
property float x
property float y
property float z
element face 295
property list uchar int vertex_index
end_header
38.146439 4.984714 -55.381714
20.862814 30.432262 -66.592545
27.592367 22.52809 -67.409126
36.448921 -5.256531 -58.734932
34.278999 17.908381 -58.964634
33.300034 10.04835 -64.121323
24.841261 29.23443 -63.631645
24.309872 26.913759 -67.612785
28.169298 25.463573 -64.078575
36.390953 14.951215 -53.972595
36.463966 12.091782 -57.384892
33.974552 14.739419 -62.05098
36.045441 7.987721 -60.01115
17.311832 32.951874 -64.818291
20.002258 27.557709 -70.059341
23.614697 23.210972 -70.383331
26.940033 18.080448 -69.445061
37.640228 -0.025716 -57.346146
34.063869 20.01952 -54.883167
31.532309 23.085693 -59.599281
31.221857 20.666122 -63.584019
30.748594 16.637402 -66.169365
35.164154 2.61628 -61.630436
26.590982 28.381725 -61.695366
26.612595 27.476673 -63.82317
28.368721 26.414793 -61.979412
37.371181 8.722048 -56.433353
36.336811 10.136719 -58.785507
37.196438 6.522566 -57.732761
21.069075 31.384092 -64.652138
18.905462 31.819551 -65.875343
18.68676 30.612694 -67.796036
18.232042 29.184244 -69.486504
20.444698 29.082575 -68.550247
26.055609 24.890894 -67.530785
23.965036 25.253073 -69.149048
25.630735 23.021351 -69.017525
25.255157 20.827904 -70.074203
27.287302 20.44384 -68.595917
35.376198 16.554075 -56.651966
35.298714 17.552578 -54.625507
34.21077 19.186487 -57.026764
32.836929 21.714661 -57.268963
32.935894 20.669828 -59.417801
31.485939 21.974819 -61.701477
32.871983 19.360552 -61.306713
33.681496 12.536137 -63.240288
32.385315 15.853809 -64.266541
32.059975 13.599341 -65.253853
30.389215 14.340158 -66.98735
31.626343 11.014199 -65.988663
37.070042 -2.285953 -58.268261
36.465218 1.515784 -59.598286
35.913494 -1.369007 -60.166157
23.088844 30.774553 -63.002312
22.898943 29.957058 -65.220886
22.481474 28.788553 -67.371223
24.589342 28.294838 -65.711327
26.314247 26.347883 -65.898613
28.029886 24.004044 -65.861229
36.502754 13.62056 -55.757469
35.475624 15.001388 -58.216251
34.218517 16.407833 -60.573395
35.384357 13.236418 -59.736996
35.0527 11.380279 -61.183815
34.823158 8.801751 -62.072746
22.206472 27.277985 -69.023392
21.82028 25.535286 -70.382034
26.321981 15.765289 -70.104721
38.807869 1.131798 -54.119324
37.981022 2.472739 -56.436207
38.55912 -1.265739 -55.146084
38.103447 -3.880084 -56.115311
29.937199 25.286951 -59.772915
29.993853 24.360083 -61.82251
29.803097 23.275856 -63.741028
29.585808 21.555431 -65.528748
32.737717 17.741945 -62.833057
31.150503 18.72913 -64.895729
29.29332 19.730604 -66.832802
28.962889 17.553076 -67.833138
28.411558 15.165916 -68.65892
36.921764 4.051274 -58.723217
35.685165 5.350591 -60.920387
34.295856 6.513942 -62.953407
34.534531 -0.110267 -62.090397
33.721233 3.792339 -63.505493
32.804859 7.304097 -64.745438
27.426811 27.792603 -60.749571
26.617781 28.598232 -60.511551
28.31568 26.809137 -60.891594
27.479852 27.398259 -61.837389
27.426811 27.792603 -60.749571
38.167651 6.109524 -54.74469
38.521727 4.185833 -54.184871
37.75881 6.853381 -55.907533
37.780022 7.978191 -55.27051
38.167651 6.109524 -54.74469
23.965052 30.004492 -63.316979
24.009622 30.341477 -62.130825
24.885831 29.571416 -62.445492
36.48336 12.856171 -56.57118
36.97421 12.00646 -55.370192
36.954816 11.242071 -56.183903
17.438783 33.361841 -63.688288
18.288047 32.799932 -64.287273
16.508821 33.45655 -64.21171
17.438783 33.361841 -63.688288
16.315226 32.940929 -65.290722
16.508821 33.45655 -64.21171
18.963636 27.44995 -70.484527
18.078528 28.263218 -70.198109
19.11715 28.370976 -69.772922
19.840119 26.532004 -70.701267
18.963636 27.44995 -70.484527
22.530037 23.334854 -70.90921
21.632829 24.497011 -70.908562
22.717489 24.373129 -70.382683
23.330959 22.219712 -70.835491
22.530037 23.334854 -70.90921
25.803956 18.356214 -70.149818
24.961518 19.729942 -70.464389
26.097595 19.454176 -69.759632
26.631007 16.922868 -69.774891
25.49493 17.198634 -70.479648
25.803956 18.356214 -70.149818
39.046154 -0.761657 -53.505922
39.104034 0.489545 -53.014845
38.921779 -1.960426 -54.019303
38.683494 -0.06697 -54.632704
39.046154 -0.761657 -53.505922
38.313647 -5.852448 -55.363453
38.524536 -4.379618 -55.040818
37.83722 -5.216935 -56.421181
38.313647 -5.852448 -55.363453
36.293829 15.412166 -52.978517
36.785799 14.09976 -52.78976
34.524353 19.229864 -53.684477
35.141775 17.996393 -53.555646
34.681292 18.786049 -54.754337
33.88695 20.331713 -53.779325
34.524353 19.229864 -53.684477
33.324837 21.208633 -55.012121
33.88695 20.331713 -53.779325
31.38436 23.576229 -58.592048
32.03667 22.890713 -57.42689
32.184619 22.400177 -58.434122
30.734754 24.186322 -59.686098
30.586806 24.676858 -58.678866
31.38436 23.576229 -58.592048
29.090143 13.58922 -68.177993
29.400386 14.753037 -67.823135
30.078972 13.176341 -67.342208
28.172752 13.757979 -68.869846
29.090143 13.58922 -68.177993
34.116757 -1.613902 -62.22641
34.839724 -2.042267 -61.377224
32.894543 4.240747 -64.382042
33.354 2.324299 -63.674334
32.436356 5.996626 -65.002015
33.263046 5.548218 -64.125465
32.894543 4.240747 -64.382042
31.932505 7.863788 -65.621883
32.436356 5.996626 -65.002015
25.760692 29.145063 -61.477352
26.617781 28.598232 -60.511551
25.716121 28.808077 -62.663505
24.885831 29.571416 -62.445492
25.760692 29.145063 -61.477352
37.408424 9.557204 -55.708134
37.780022 7.978191 -55.27051
36.917574 10.406915 -56.909122
36.954816 11.242071 -56.183903
37.408424 9.557204 -55.708134
20.166668 32.016042 -64.204197
21.170513 31.726101 -63.52821
19.084862 32.233771 -64.815799
20.166668 32.016042 -64.204197
19.987268 31.601821 -65.26374
18.108647 32.385712 -65.346817
18.288047 32.799932 -64.287273
19.084862 32.233771 -64.815799
17.889742 31.836103 -66.400093
17.092927 32.402264 -65.871567
18.108647 32.385712 -65.346817
17.780391 31.232674 -67.360439
17.889742 31.836103 -66.400093
18.796111 31.216123 -66.83569
17.579881 30.566615 -68.246357
17.780391 31.232674 -67.360439
18.459401 29.898469 -68.64127
17.352522 29.85239 -69.091591
17.579881 30.566615 -68.246357
30.697536 11.513362 -66.842865
30.078972 13.176341 -67.342208
31.007779 12.677179 -66.488007
23.086645 31.056252 -61.810982
24.009622 30.341477 -62.130825
22.180397 31.421332 -62.703297
23.086645 31.056252 -61.810982
22.07896 31.079322 -63.827225
21.170513 31.726101 -63.52821
22.180397 31.421332 -62.703297
36.876217 13.450997 -53.717384
36.785799 14.09976 -52.78976
36.932118 12.78567 -54.609821
36.97421 12.00646 -55.370192
36.446854 14.285887 -54.865032
36.876217 13.450997 -53.717384
36.932118 12.78567 -54.609821
35.796919 -4.615399 -59.699492
36.037602 -6.723781 -58.903126
16.315226 32.940929 -65.290722
17.092927 32.402264 -65.871567
17.167912 28.990985 -69.878483
17.352522 29.85239 -69.091591
17.167912 28.990985 -69.878483
18.078528 28.263218 -70.198109
20.74913 25.520793 -70.862614
19.840119 26.532004 -70.701267
20.911269 26.546498 -70.220687
20.74913 25.520793 -70.862614
21.632829 24.497011 -70.908562
24.15119 21.028177 -70.680927
23.330959 22.219712 -70.835491
24.434927 22.019438 -70.228767
24.15119 21.028177 -70.680927
24.961518 19.729942 -70.464389
25.269714 15.828363 -70.68193
25.49493 17.198634 -70.479648
26.103686 14.333174 -70.218338
25.051419 14.396248 -70.795547
25.269714 15.828363 -70.68193
38.852442 2.259374 -53.553676
39.104034 0.489545 -53.014845
38.477154 3.058256 -54.750519
38.521727 4.185833 -54.184871
38.852442 2.259374 -53.553676
38.752372 -3.072446 -54.556204
38.921779 -1.960426 -54.019303
38.331283 -2.572912 -55.630697
38.752372 -3.072446 -54.556204
38.524536 -4.379618 -55.040818
37.320517 -4.419869 -57.497656
37.586745 -3.083019 -57.191786
37.83722 -5.216935 -56.421181
37.009957 -5.905158 -57.730992
36.759481 -3.771242 -58.501597
37.320517 -4.419869 -57.497656
36.645837 -7.364282 -57.961268
37.009957 -5.905158 -57.730992
36.037602 -6.723781 -58.903126
36.645837 -7.364282 -57.961268
35.747709 16.712847 -53.304974
36.293829 15.412166 -52.978517
35.844834 16.251897 -54.299051
35.747709 16.712847 -53.304974
35.141775 17.996393 -53.555646
32.711366 22.056203 -56.205019
33.324837 21.208633 -55.012121
33.450399 20.86709 -56.076065
32.711366 22.056203 -56.205019
32.03667 22.890713 -57.42689
29.828401 25.612372 -58.662348
30.586806 24.676858 -58.678866
29.099919 26.245216 -59.788345
29.828401 25.612372 -58.662348
29.15296 25.850872 -60.876164
28.31568 26.809137 -60.891594
29.099919 26.245216 -59.788345
27.127963 14.057665 -69.592747
27.36677 15.465602 -69.381821
28.172752 13.757979 -68.869846
26.103686 14.333174 -70.218338
27.127963 14.057665 -69.592747
35.529206 -2.671637 -60.415104
36.181207 -3.312769 -59.450544
35.796919 -4.615399 -59.699492
35.224013 -0.739637 -61.128277
35.529206 -2.671637 -60.415104
34.839724 -2.042267 -61.377224
33.760649 0.372997 -62.966786
34.116757 -1.613902 -62.22641
34.127882 1.841036 -62.797945
33.760649 0.372997 -62.966786
33.354 2.324299 -63.674334
31.343247 9.718839 -66.243496
32.215601 9.159148 -65.367051
31.932505 7.863788 -65.621883
30.697536 11.513362 -66.842865
31.343247 9.718839 -66.243496
3 88 23 89
3 90 25 91
3 92 91 23
3 90 91 92
3 0 93 94
3 0 95 97
3 95 26 96
3 95 96 97
3 0 28 26
3 1 30 29
3 1 31 30
3 1 33 31
3 2 36 34
3 2 38 36
3 4 41 39
3 4 43 41
3 4 45 43
3 5 48 46
3 5 50 48
3 3 53 51
3 6 98 100
3 98 54 99
3 98 99 100
3 6 55 54
3 6 57 55
3 8 58 24
3 8 59 58
3 10 101 103
3 101 60 102
3 101 102 103
3 10 61 60
3 10 63 61
3 12 64 27
3 12 65 64
3 13 104 105
3 13 106 107
3 13 108 109
3 14 110 112
3 112 111 32
3 110 111 112
3 14 113 114
3 7 66 56
3 15 67 35
3 15 115 117
3 117 116 67
3 115 116 117
3 15 118 119
3 16 120 122
3 122 121 37
3 120 121 122
3 16 123 125
3 123 68 124
3 123 124 125
3 126 69 127
3 128 71 129
3 130 129 69
3 128 129 130
3 131 72 132
3 134 133 72
3 9 135 136
3 18 137 139
3 139 138 40
3 137 138 139
3 18 140 141
3 18 142 143
3 19 144 146
3 146 145 42
3 144 145 146
3 19 147 149
3 147 73 148
3 147 148 149
3 19 74 73
3 20 75 44
3 20 76 75
3 11 77 62
3 21 78 47
3 21 79 78
3 21 80 79
3 150 81 151
3 152 151 49
3 150 151 152
3 154 153 81
3 17 82 70
3 22 83 52
3 22 84 83
3 155 85 156
3 157 86 158
3 159 87 160
3 161 160 86
3 159 160 161
3 163 162 87
3 23 164 165
3 23 166 168
3 166 6 167
3 166 167 168
3 23 24 6
3 25 24 23
3 25 8 24
3 26 169 170
3 26 171 173
3 171 10 172
3 171 172 173
3 26 27 10
3 28 27 26
3 28 12 27
3 29 174 175
3 30 176 178
3 178 177 29
3 176 177 178
3 30 179 181
3 179 13 180
3 179 180 181
3 30 182 184
3 184 183 13
3 182 183 184
3 31 185 187
3 187 186 30
3 185 186 187
3 31 188 189
3 31 190 192
3 190 32 191
3 190 191 192
3 33 32 31
3 33 14 32
3 34 35 7
3 36 35 34
3 36 15 35
3 36 37 15
3 38 37 36
3 38 16 37
3 39 40 9
3 41 40 39
3 41 18 40
3 41 42 18
3 43 42 41
3 43 19 42
3 43 44 19
3 45 44 43
3 45 20 44
3 46 47 11
3 48 47 46
3 48 21 47
3 48 49 21
3 50 49 48
3 50 193 195
3 195 194 49
3 193 194 195
3 51 52 17
3 53 52 51
3 53 22 52
3 54 196 197
3 54 198 199
3 54 200 202
3 200 29 201
3 200 201 202
3 55 29 54
3 55 1 29
3 55 56 1
3 57 56 55
3 57 7 56
3 24 57 6
3 58 57 24
3 58 7 57
3 58 34 7
3 59 34 58
3 59 2 34
3 203 9 204
3 60 205 206
3 60 207 209
3 207 9 208
3 207 208 209
3 60 39 9
3 61 39 60
3 61 4 39
3 61 62 4
3 63 62 61
3 63 11 62
3 27 63 10
3 64 63 27
3 64 11 63
3 64 46 11
3 65 46 64
3 65 5 46
3 211 210 3
3 213 212 13
3 32 214 215
3 217 216 32
3 56 33 1
3 66 33 56
3 66 14 33
3 35 66 7
3 67 66 35
3 67 14 66
3 67 218 220
3 220 219 14
3 218 219 220
3 222 221 67
3 37 223 225
3 225 224 15
3 223 224 225
3 227 226 37
3 68 228 229
3 68 230 232
3 230 231 232
3 69 233 234
3 69 235 237
3 235 0 236
3 235 236 237
3 69 70 0
3 71 70 69
3 71 17 70
3 238 71 239
3 72 240 242
3 240 71 241
3 240 241 242
3 72 17 71
3 72 51 17
3 243 51 244
3 245 244 72
3 243 244 245
3 246 3 247
3 248 247 51
3 246 247 248
3 249 3 250
3 252 251 3
3 40 253 255
3 255 254 9
3 253 254 255
3 257 256 40
3 42 258 260
3 260 259 18
3 258 259 260
3 262 261 42
3 73 263 264
3 73 265 266
3 73 267 269
3 267 25 268
3 267 268 269
3 74 25 73
3 74 8 25
3 44 74 19
3 75 74 44
3 75 8 74
3 75 59 8
3 76 59 75
3 76 2 59
3 62 45 4
3 77 45 62
3 77 20 45
3 47 77 11
3 78 77 47
3 78 20 77
3 78 76 20
3 79 76 78
3 79 2 76
3 79 38 2
3 80 38 79
3 80 16 38
3 49 80 21
3 81 80 49
3 81 16 80
3 81 68 16
3 270 68 271
3 272 271 81
3 270 271 272
3 274 273 68
3 70 28 0
3 82 28 70
3 82 12 28
3 52 82 17
3 83 82 52
3 83 12 82
3 83 65 12
3 84 65 83
3 84 5 65
3 275 53 276
3 277 276 3
3 275 276 277
3 85 278 280
3 278 53 279
3 278 279 280
3 85 22 53
3 281 85 282
3 86 283 285
3 283 85 284
3 283 284 285
3 86 22 85
3 86 84 22
3 87 84 86
3 87 5 84
3 87 50 5
3 286 50 287
3 288 287 87
3 286 287 288
3 290 289 50
