ply
format ascii 1.0
element vertex 353
property float x
property float y
property float z
element face 374
property list uchar int vertex_index
end_header
22.26025 36.877525 -9.669761
13.616772 63.721127 -29.478897
18.19656 53.280712 -17.263811
17.85008 39.389153 -12.964732
22.180426 50.754559 -12.457651
17.848545 65.371368 -22.929783
14.636176 53.064007 -22.716206
20.23797 58.714775 -17.024744
20.22164 52.321171 -14.792441
22.100956 57.598915 -14.359391
19.181787 70.756538 -22.565262
19.962627 64.853264 -19.624519
18.133541 59.228004 -19.883966
19.938396 38.36356 -11.271214
14.57956 70.055809 -29.649315
12.78918 57.141319 -29.257292
14.6113 46.744373 -19.787746
16.216801 47.156544 -17.219398
16.022404 40.050598 -14.947287
17.969681 46.319054 -14.927681
20.058363 45.267227 -12.837152
22.270069 43.819027 -10.88036
16.974373 70.715004 -26.082842
15.74374 64.860641 -26.065336
14.371665 58.862766 -26.065094
16.239489 59.5797 -22.878349
16.312969 53.503117 -19.834763
24.454746 42.271545 -9.008092
21.125063 61.201984 -16.737223
21.220482 58.145012 -15.628071
21.599535 66.680138 -17.512644
20.690273 67.344292 -19.248234
20.946884 64.289825 -17.968859
20.151924 61.73027 -18.236612
21.075941 37.710609 -10.471559
19.998117 34.848824 -10.518187
21.101271 33.993126 -9.788115
14.164993 66.81144 -29.455788
13.418033 69.296349 -31.311409
13.066776 66.201965 -31.202488
12.64622 63.140968 -31.237436
12.331841 59.79958 -31.124735
13.137113 60.561111 -29.457836
14.55934 43.637192 -18.582399
17.163034 50.274097 -17.262556
17.076397 46.846458 -16.039871
18.148699 49.876629 -15.999745
21.20487 51.486485 -13.590063
20.123447 48.835987 -13.790211
21.206051 48.044014 -12.649862
21.207581 44.649414 -11.825382
22.258392 47.512661 -11.642811
18.599554 68.173264 -22.812336
18.055317 70.837929 -24.415762
17.493259 67.87059 -24.411831
16.360886 67.88929 -26.195862
16.781414 65.304855 -24.55039
16.071316 62.239033 -24.396055
17.105888 62.588253 -22.8846
18.242468 56.297394 -18.46217
17.229429 56.566132 -19.915546
17.234175 53.539322 -18.546772
16.208885 50.32951 -18.556698
16.893179 39.708092 -13.898707
16.83197 36.395668 -13.062675
24.288727 45.724792 -9.540741
25.695454 38.120605 -7.692201
14.530756 56.009827 -24.395248
13.796035 55.35516 -25.859201
13.933605 52.487541 -24.181986
19.274225 55.957729 -17.104431
19.195576 52.60083 -15.918395
20.250637 55.406349 -15.817501
21.28142 54.877392 -14.525978
22.164471 54.113285 -13.334833
20.25951 70.234413 -20.601553
19.679983 67.94249 -21.056145
18.911671 65.160439 -21.273045
18.087669 62.308872 -21.302843
19.118572 62.019691 -19.743494
19.175457 59.066166 -18.465439
18.88308 39.078072 -12.118745
17.812559 35.799919 -12.104878
18.848093 35.138111 -11.249489
14.675196 50.075207 -21.179207
15.297237 43.942677 -17.320148
15.247519 40.469807 -16.144688
16.062157 43.697437 -16.119675
16.900276 43.126747 -14.943327
17.849234 42.844849 -13.937879
19.125355 49.364151 -14.855288
18.941742 45.75832 -13.874448
18.902458 42.333397 -12.931304
20.046642 41.930634 -12.006659
21.078001 41.173645 -11.157403
22.225979 40.227104 -10.253781
15.794732 70.544006 -27.878056
15.292986 67.633896 -27.826452
14.669551 64.575035 -27.821325
14.066859 61.309525 -27.727379
15.066796 61.957108 -26.045341
15.245916 59.124676 -24.425308
15.393492 56.284443 -22.760935
17.190121 59.602352 -21.389267
16.315296 56.561348 -21.286615
15.425617 53.316936 -21.234964
15.403001 50.227158 -19.809736
15.327348 46.926277 -18.480412
23.201443 50.218281 -11.319223
23.297346 46.77972 -10.604115
23.365755 43.119675 -9.959093
23.448404 39.736423 -9.408023
25.472124 41.543915 -8.075027
24.567543 38.737659 -8.550353
23.47188 36.136311 -8.90751
13.513748 57.972019 -27.653648
13.123526 54.824585 -27.536762
21.570281 60.987392 -16.045189
21.4694 62.444494 -16.588959
21.380311 63.988414 -17.204777
21.27321 65.484982 -17.740752
21.706637 65.183571 -16.976669
21.4694 62.444494 -16.588959
21.035974 62.745904 -17.353041
21.380311 63.988414 -17.204777
22.274703 35.103635 -9.388049
21.695214 33.661436 -9.447226
21.68076 35.435325 -9.728938
14.287752 40.547872 -18.069028
14.279827 42.088873 -18.673223
14.567265 42.096192 -17.978203
20.701866 69.992878 -19.734828
20.405659 71.476502 -20.408551
19.446275 33.288684 -10.526179
19.977304 32.936818 -10.177843
14.206834 71.214576 -30.43259
14.812805 71.542336 -29.579993
12.956891 70.404335 -32.193474
12.827398 68.794774 -32.16798
12.436438 56.824347 -30.196649
12.207768 58.153477 -31.130371
12.56051 58.47045 -30.191014
12.634218 55.627859 -29.337972
12.281475 55.310886 -30.27733
12.436438 56.824347 -30.196649
14.3243 46.754133 -20.512394
14.356248 48.41955 -21.208125
14.643248 48.40979 -20.483477
18.851672 72.093018 -23.322733
19.394751 71.942322 -22.334353
17.20801 72.102684 -25.983483
17.748482 72.164147 -25.149943
17.514845 70.776466 -25.249302
16.576337 71.988361 -26.958702
17.20801 72.102684 -25.983483
16.384552 70.629505 -26.980449
15.986517 71.902862 -27.856309
16.576337 71.988361 -26.958702
15.613758 38.556606 -15.043856
15.226315 38.76621 -15.642556
15.634962 40.260203 -15.545987
17.33983 32.45179 -11.741392
17.324338 34.205815 -12.137429
17.82805 34.045895 -11.708842
23.665275 49.618105 -10.719181
23.623819 51.307209 -11.003405
23.713227 47.898825 -10.361626
23.249395 48.499 -10.961669
23.665275 49.618105 -10.719181
25.970554 41.051504 -7.576628
25.81658 42.710037 -7.724113
24.651229 36.984222 -8.325038
25.131498 38.429132 -8.121277
25.215184 36.675695 -7.895962
24.103397 35.683548 -8.503616
24.019711 37.436985 -8.728931
24.651229 36.984222 -8.325038
23.567701 34.398463 -8.636978
24.103397 35.683548 -8.503616
13.214709 53.479902 -26.73682
13.459781 55.089872 -26.697981
13.550963 53.74519 -25.898039
12.949046 53.159679 -27.611314
13.214709 53.479902 -26.73682
21.61799 59.458906 -15.490613
21.172773 59.673498 -16.182647
21.570281 60.987392 -16.045189
22.058228 59.185857 -14.856272
21.660719 57.871963 -14.993731
21.61799 59.458906 -15.490613
21.144904 67.012215 -18.380439
20.917248 68.547818 -19.058169
21.371879 68.215741 -18.190373
20.528881 32.508968 -9.812807
19.977304 32.936818 -10.177843
20.549694 34.420975 -10.153151
21.129925 32.132289 -9.467688
20.528881 32.508968 -9.812807
21.129925 32.132289 -9.467688
21.695214 33.661436 -9.447226
12.651769 67.247581 -32.11352
12.827398 68.794774 -32.16798
13.242404 67.749157 -31.256949
12.540097 65.767906 -32.055166
12.651769 67.247581 -32.11352
12.329819 64.237408 -32.07264
12.540097 65.767906 -32.055166
12.856498 64.671467 -31.219962
12.18592 62.546 -32.07018
12.329819 64.237408 -32.07264
12.489031 61.470274 -31.181086
12.028731 60.875305 -32.013829
12.18592 62.546 -32.07018
14.280064 43.635399 -19.280499
14.306044 45.18899 -19.883173
14.58532 45.190782 -19.185072
14.280064 43.635399 -19.280499
14.279827 42.088873 -18.673223
16.418031 38.085341 -13.949219
15.982643 38.256594 -14.473508
16.457791 39.879345 -14.422997
16.387426 36.429129 -13.531202
16.418031 38.085341 -13.949219
16.862575 38.05188 -13.480691
16.419138 34.764727 -13.081571
16.387426 36.429129 -13.531202
24.661443 46.894132 -9.230402
24.208917 47.371361 -9.82994
24.748843 45.238455 -9.029107
24.661443 46.894132 -9.230402
24.831853 43.511831 -8.762783
24.371737 43.998169 -9.274417
24.748843 45.238455 -9.029107
26.249026 37.569347 -7.231472
26.082219 39.339849 -7.385215
25.789458 36.329622 -7.522178
26.249026 37.569347 -7.231472
26.34303 35.778364 -7.06145
25.215184 36.675695 -7.895962
25.789458 36.329622 -7.522178
13.619749 52.31138 -25.059432
13.550963 53.74519 -25.898039
13.86482 53.921351 -25.020593
19.933612 71.681259 -21.352499
20.405659 71.476502 -20.408551
19.720648 70.495475 -21.583407
19.394751 71.942322 -22.334353
19.933612 71.681259 -21.352499
20.474891 68.789353 -19.924893
20.701866 69.992878 -19.734828
20.917248 68.547818 -19.058169
18.345817 33.71499 -11.281147
17.82805 34.045895 -11.708842
18.330326 35.469015 -11.677183
18.871263 33.433328 -10.891831
19.423105 34.993468 -10.883838
19.446275 33.288684 -10.526179
18.345817 33.71499 -11.281147
18.871263 33.433328 -10.891831
13.626071 70.834846 -31.263638
14.206834 71.214576 -30.43259
13.998797 69.676079 -30.480362
13.626071 70.834846 -31.263638
12.956891 70.404335 -32.193474
11.923499 59.218706 -32.037741
12.028731 60.875305 -32.013829
11.923499 59.218706 -32.037741
12.207768 58.153477 -31.130371
14.335625 49.874615 -21.933864
14.316116 51.369015 -22.702364
14.655686 51.569607 -21.947707
14.335625 49.874615 -21.933864
14.356248 48.41955 -21.208125
14.3243 46.754133 -20.512394
14.306044 45.18899 -19.883173
15.272378 42.206242 -16.732418
14.911354 40.512499 -16.759348
14.936214 42.248934 -17.347078
18.288437 72.133713 -24.247983
18.851672 72.093018 -23.322733
18.618552 70.797234 -23.490512
18.288437 72.133713 -24.247983
17.748482 72.164147 -25.149943
15.420391 71.786434 -28.694363
15.986517 71.902862 -27.856309
15.187146 70.299907 -28.763686
14.812805 71.542336 -29.579993
15.420391 71.786434 -28.694363
14.936214 42.248934 -17.347078
14.567265 42.096192 -17.978203
14.928289 43.789935 -17.951273
21.805938 67.801964 -17.239085
21.371879 68.215741 -18.190373
22.004135 66.291969 -16.66817
21.805938 67.801964 -17.239085
21.706637 65.183571 -16.976669
22.004135 66.291969 -16.66817
14.902644 38.743235 -16.198338
14.911354 40.512499 -16.759348
14.902644 38.743235 -16.198338
15.226315 38.76621 -15.642556
15.613758 38.556606 -15.043856
15.982643 38.256594 -14.473508
16.834043 34.503689 -12.616328
17.322264 36.097794 -12.583776
17.324338 34.205815 -12.137429
16.419138 34.764727 -13.081571
16.834043 34.503689 -12.616328
22.471363 58.756223 -14.119819
22.058228 59.185857 -14.856272
22.53884 57.147165 -13.658311
22.471363 58.756223 -14.119819
22.570597 55.40435 -13.146033
22.132714 55.8561 -13.847112
22.53884 57.147165 -13.658311
22.634591 53.746446 -12.701237
22.570597 55.40435 -13.146033
22.642569 52.067083 -12.262646
22.172449 52.433922 -12.896242
22.634591 53.746446 -12.701237
23.153078 51.798944 -11.693431
23.623819 51.307209 -11.003405
22.690935 50.48642 -11.888437
22.642569 52.067083 -12.262646
23.153078 51.798944 -11.693431
23.793036 46.252256 -10.072428
23.713227 47.898825 -10.361626
24.208917 47.371361 -9.82994
25.340542 43.148016 -8.29625
25.81658 42.710037 -7.724113
24.963435 41.90773 -8.541559
24.831853 43.511831 -8.762783
25.340542 43.148016 -8.29625
25.583789 39.83226 -7.883614
25.970554 41.051504 -7.576628
26.082219 39.339849 -7.385215
22.880518 34.733029 -9.006923
22.274703 35.103635 -9.388049
22.866065 36.506918 -9.288635
22.880518 34.733029 -9.006923
23.567701 34.398463 -8.636978
12.801391 54.469492 -28.477708
12.634218 55.627859 -29.337972
12.956353 55.982952 -28.397027
12.801391 54.469492 -28.477708
12.949046 53.159679 -27.611314
13.96483 51.080782 -23.435254
14.28489 52.775774 -23.449096
14.316116 51.369015 -22.702364
13.669104 50.859691 -24.291087
13.96483 51.080782 -23.435254
13.619749 52.31138 -25.059432
13.669104 50.859691 -24.291087
3 118 117 28
3 119 32 120
3 121 120 30
3 119 120 121
3 122 28 123
3 124 123 32
3 122 123 124
3 0 36 34
3 0 125 127
3 127 126 36
3 125 126 127
3 1 39 37
3 1 40 39
3 1 42 40
3 130 129 43
3 128 129 130
3 2 46 44
3 4 49 47
3 4 51 49
3 5 54 52
3 5 56 54
3 5 58 56
3 2 61 59
3 2 44 61
3 3 64 63
3 6 69 67
3 7 72 70
3 9 73 29
3 9 74 73
3 131 75 132
3 11 76 31
3 11 77 76
3 11 79 77
3 7 80 33
3 7 70 80
3 13 83 81
3 134 133 35
3 14 135 136
3 138 137 38
3 15 139 141
3 141 140 41
3 139 140 141
3 15 142 144
3 142 143 144
3 16 145 147
3 147 146 84
3 145 146 147
3 17 87 85
3 19 88 45
3 19 89 88
3 8 90 71
3 20 91 48
3 20 92 91
3 20 93 92
3 21 94 50
3 21 95 94
3 10 148 149
3 22 150 152
3 152 151 53
3 150 151 152
3 22 153 154
3 22 155 157
3 155 96 156
3 155 156 157
3 23 97 55
3 23 98 97
3 23 100 98
3 25 101 57
3 25 102 101
3 12 103 78
3 26 104 60
3 26 105 104
3 26 106 105
3 17 107 62
3 17 85 107
3 18 158 160
3 160 159 86
3 158 159 160
3 163 162 82
3 161 162 163
3 164 108 165
3 166 109 167
3 168 167 108
3 166 167 168
3 27 110 65
3 27 111 110
3 169 112 170
3 171 113 172
3 173 172 66
3 171 172 173
3 174 114 175
3 176 175 113
3 174 175 176
3 178 177 114
3 24 115 99
3 179 116 180
3 181 180 68
3 179 180 181
3 183 182 116
3 28 29 7
3 184 29 185
3 186 185 28
3 184 185 186
3 187 9 188
3 189 188 29
3 187 188 189
3 30 190 192
3 190 31 191
3 190 191 192
3 32 31 30
3 32 11 31
3 32 33 11
3 28 33 32
3 28 7 33
3 34 35 13
3 36 35 34
3 36 193 195
3 195 194 35
3 193 194 195
3 36 196 197
3 199 198 36
3 37 38 14
3 39 38 37
3 39 200 202
3 202 201 38
3 200 201 202
3 39 203 204
3 40 205 207
3 207 206 39
3 205 206 207
3 40 208 209
3 40 210 212
3 210 41 211
3 210 211 212
3 42 41 40
3 42 15 41
3 43 213 215
3 215 214 16
3 213 214 215
3 217 216 43
3 44 45 17
3 46 45 44
3 46 19 45
3 47 48 8
3 49 48 47
3 49 20 48
3 49 50 20
3 51 50 49
3 51 21 50
3 52 53 10
3 54 53 52
3 54 22 53
3 54 55 22
3 56 55 54
3 56 23 55
3 56 57 23
3 58 57 56
3 58 25 57
3 59 60 12
3 61 60 59
3 61 26 60
3 61 62 26
3 44 62 61
3 44 17 62
3 63 218 220
3 220 219 18
3 218 219 220
3 64 221 223
3 223 222 63
3 221 222 223
3 64 224 225
3 226 65 227
3 228 65 229
3 230 27 231
3 232 231 65
3 230 231 232
3 233 66 234
3 235 66 236
3 235 236 237
3 239 238 66
3 67 68 24
3 69 68 67
3 69 240 242
3 242 241 68
3 240 241 242
3 70 71 2
3 72 71 70
3 72 8 71
3 29 72 7
3 73 72 29
3 73 8 72
3 73 47 8
3 74 47 73
3 74 4 47
3 75 243 244
3 75 245 247
3 245 10 246
3 245 246 247
3 31 248 250
3 248 75 249
3 248 249 250
3 76 75 31
3 76 10 75
3 76 52 10
3 77 52 76
3 77 5 52
3 77 78 5
3 79 78 77
3 79 12 78
3 33 79 11
3 80 79 33
3 80 12 79
3 80 59 12
3 70 59 80
3 70 2 59
3 81 82 3
3 83 82 81
3 83 251 253
3 253 252 82
3 251 252 253
3 35 83 13
3 254 83 255
3 256 255 35
3 254 255 256
3 258 257 83
3 38 259 261
3 261 260 14
3 259 260 261
3 263 262 38
3 41 264 265
3 267 266 41
3 84 268 270
3 270 269 6
3 268 269 270
3 272 271 84
3 274 273 16
3 85 275 277
3 275 86 276
3 275 276 277
3 87 86 85
3 87 18 86
3 45 87 17
3 88 87 45
3 88 18 87
3 88 63 18
3 89 63 88
3 89 3 63
3 71 46 2
3 90 46 71
3 90 19 46
3 48 90 8
3 91 90 48
3 91 19 90
3 91 89 19
3 92 89 91
3 92 3 89
3 92 81 3
3 93 81 92
3 93 13 81
3 50 93 20
3 94 93 50
3 94 13 93
3 94 34 13
3 95 34 94
3 95 0 34
3 53 278 280
3 280 279 10
3 278 279 280
3 282 281 53
3 96 283 284
3 96 285 287
3 285 14 286
3 285 286 287
3 55 96 22
3 97 96 55
3 97 14 96
3 97 37 14
3 98 37 97
3 98 1 37
3 98 99 1
3 100 99 98
3 100 24 99
3 57 100 23
3 101 100 57
3 101 24 100
3 101 67 24
3 102 67 101
3 102 6 67
3 78 58 5
3 103 58 78
3 103 25 58
3 60 103 12
3 104 103 60
3 104 25 103
3 104 102 25
3 105 102 104
3 105 6 102
3 105 84 6
3 106 84 105
3 106 16 84
3 62 106 26
3 107 106 62
3 107 16 106
3 107 43 16
3 85 43 107
3 85 288 290
3 290 289 43
3 288 289 290
3 291 30 292
3 293 30 294
3 296 295 30
3 86 297 298
3 300 299 86
3 302 301 18
3 82 64 3
3 303 64 304
3 305 304 82
3 303 304 305
3 307 306 64
3 308 9 309
3 310 9 311
3 312 74 313
3 314 313 9
3 312 313 314
3 315 74 316
3 317 4 318
3 319 318 74
3 317 318 319
3 108 320 321
3 108 322 324
3 322 4 323
3 322 323 324
3 108 51 4
3 109 51 108
3 109 21 51
3 65 325 327
3 325 109 326
3 325 326 327
3 110 109 65
3 110 21 109
3 110 95 21
3 111 95 110
3 111 0 95
3 112 328 329
3 112 330 332
3 330 27 331
3 330 331 332
3 66 333 335
3 333 112 334
3 333 334 335
3 113 112 66
3 113 27 112
3 113 111 27
3 114 111 113
3 114 0 111
3 114 336 338
3 338 337 0
3 336 337 338
3 340 339 114
3 99 42 1
3 115 42 99
3 115 15 42
3 68 115 24
3 116 115 68
3 116 15 115
3 116 341 343
3 343 342 15
3 341 342 343
3 345 344 116
3 346 69 347
3 348 347 6
3 346 347 348
3 349 69 350
3 352 351 69
