ply
format ascii 1.0
element vertex 266
property float x
property float y
property float z
element face 267
property list uchar int vertex_index
end_header
2.772925 53.295296 40.94252
-1.288523 30.260149 53.570263
-4.593953 53.987244 45.228649
0.758372 42.165726 47.515606
8.013113 41.775982 43.099159
5.774394 30.873129 49.107857
-0.995671 53.621956 43.1618
-3.874609 35.774654 52.950863
-2.765766 41.644817 49.801121
-0.18109 36.045143 50.63409
3.306156 36.336552 48.521873
2.217687 30.846048 51.288765
10.467188 36.233299 43.619461
11.28931 41.332458 40.54697
13.842508 35.881111 40.566532
-1.924144 47.765381 46.568802
1.756518 47.752068 44.39233
5.356935 47.466351 42.240967
4.313901 41.889858 45.554981
6.910278 36.361706 46.260399
9.409134 31.010269 46.495052
8.900389 47.05732 39.706284
0.939901 53.449768 42.046135
-2.529289 33.033375 53.230003
-2.017225 35.894512 51.769825
-0.761123 33.229218 52.100395
1.078981 33.390003 50.975025
0.466789 30.34971 52.497681
11.620174 33.529312 43.72385
12.20854 36.119041 42.113556
-1.043934 41.755119 48.73101
-2.355607 44.672344 48.226334
-0.610096 44.798622 47.136482
-0.01707 47.741539 45.446941
1.285083 44.978718 45.954868
3.19169 44.839027 44.894741
2.587378 42.009319 46.532074
4.623231 33.583103 48.827213
5.138613 36.198353 47.478867
6.441901 33.436329 47.730656
8.144506 33.617252 46.481953
7.619519 30.915119 47.847588
6.761874 44.509434 42.714851
7.116526 47.248554 41.067535
8.363266 44.504532 41.498569
12.887854 41.260262 38.961357
-2.771922 54.036572 44.049236
-4.09962 56.99638 43.343479
-4.54774 41.789856 50.841797
-3.283696 38.718636 51.365707
-1.529684 38.777988 50.287312
0.321558 38.994133 49.126522
2.070436 39.053871 48.106884
1.54898 36.165264 49.599243
2.933554 33.510651 49.859951
4.009546 30.700018 50.275337
9.20853 38.912663 43.482811
9.620565 41.62191 41.893131
10.87817 38.855186 42.114273
12.559792 38.753567 40.570126
-4.162342 44.769539 49.292774
-3.679669 47.639046 47.699631
-3.289096 50.944664 45.905888
-1.401097 50.728672 44.858109
0.378345 50.818493 43.741356
2.277631 50.476902 42.741653
4.059948 50.45644 41.592628
3.619395 47.627762 43.309082
4.971613 44.664822 43.865101
6.219596 41.827263 44.356365
3.913468 39.004585 47.056412
5.688412 39.152855 45.894855
7.510586 39.000839 44.722752
8.754783 36.131393 45.028294
10.005816 33.583794 45.070351
6.963823 28.122286 49.244255
5.78974 49.952286 40.635483
10.037165 44.112137 40.273758
14.92924 33.312458 40.488174
2.050935 54.843824 40.558708
1.134423 54.92106 41.110515
1.856413 53.372532 41.494327
2.973073 54.598641 40.068531
2.050935 54.843824 40.558708
3.696715 53.1506 40.379831
2.973073 54.598641 40.068531
-1.908906 31.646762 53.400133
-2.80771 31.573741 53.975536
-2.187328 30.187128 54.145666
12.479079 33.440271 42.946653
12.248125 32.279877 43.619659
-5.319192 55.541742 44.896457
-5.52292 53.992538 45.832325
13.080839 42.38438 38.11486
13.734255 41.057461 38.076897
-1.609625 55.185854 42.717505
-2.497751 55.393162 43.161223
-1.883796 53.829264 43.605518
-4.707354 35.601488 53.550117
-4.063222 34.243949 53.687496
-4.470135 37.231353 52.723005
-4.707354 35.601488 53.550117
-3.579153 37.246645 52.158285
-4.174679 38.703345 51.930428
-4.470135 37.231353 52.723005
13.996945 37.170171 39.779112
13.355587 38.606399 39.780909
13.20115 37.317339 40.568329
-4.784275 58.456964 42.985596
-3.872747 58.466187 42.379063
10.307948 30.878563 45.810488
10.606288 32.165325 45.098137
9.707475 32.297032 45.782702
7.49256 26.842415 49.265282
6.61644 26.755806 49.910362
7.855452 28.148004 48.595225
7.49256 26.842415 49.265282
8.227502 48.44035 39.515165
7.335571 48.535967 40.195791
8.008458 47.152937 40.38691
9.10322 48.303539 38.814177
8.227502 48.44035 39.515165
15.506571 31.965678 40.375301
14.72527 31.969885 41.249947
0.288399 54.902836 41.672819
-0.679387 54.98893 42.230652
-0.027885 53.535862 42.603967
0.288399 54.902836 41.672819
1.134423 54.92106 41.110515
-3.390562 32.87331 53.827066
-2.80771 31.573741 53.975536
-3.201949 34.404015 53.090433
-4.063222 34.243949 53.687496
-3.390562 32.87331 53.827066
12.773262 34.735136 42.141506
11.914357 34.824177 42.918703
12.479079 33.440271 42.946653
13.590246 34.616171 41.367994
13.025524 36.000076 41.340044
12.773262 34.735136 42.141506
12.283248 42.542101 38.90517
11.483975 42.578199 39.697977
12.088582 41.29636 39.754164
12.283248 42.542101 38.90517
13.080839 42.38438 38.11486
-3.1616 56.873066 42.808344
-3.435771 55.516476 43.696358
-2.497751 55.393162 43.161223
-3.872747 58.466187 42.379063
-3.1616 56.873066 42.808344
-1.609625 55.185854 42.717505
-0.679387 54.98893 42.230652
-4.806701 40.238954 51.668473
-5.492208 41.632445 51.516754
-3.915718 40.254246 51.103752
-4.806701 40.238954 51.668473
-4.174679 38.703345 51.930428
13.519618 39.859747 38.976524
12.723823 40.006914 39.765742
13.355587 38.606399 39.780909
13.734255 41.057461 38.076897
13.519618 39.859747 38.976524
-1.564966 28.846245 54.272085
-2.187328 30.187128 54.145666
-0.719098 28.896543 53.737608
-1.564966 28.846245 54.272085
-5.072026 57.046311 43.953873
-5.319192 55.541742 44.896457
-4.346787 55.491812 44.286064
-5.072026 57.046311 43.953873
-4.784275 58.456964 42.985596
-4.794528 52.416889 46.128628
-5.52292 53.992538 45.832325
-5.192789 43.163386 50.651463
-5.492208 41.632445 51.516754
-5.00009 44.653227 49.876951
-5.192789 43.163386 50.651463
-4.355041 43.279697 50.067285
-4.821241 46.309763 49.017414
-5.00009 44.653227 49.876951
-4.579904 47.744517 48.220843
-4.821241 46.309763 49.017414
-3.921005 46.204293 48.496202
-4.337386 49.24279 47.364119
-4.579904 47.744517 48.220843
-4.1421 50.8956 46.467247
-4.337386 49.24279 47.364119
-3.484382 49.291855 46.802759
-3.941524 52.465954 45.567268
-4.794528 52.416889 46.128628
-4.1421 50.8956 46.467247
11.413467 32.138084 44.424886
10.812995 33.556553 44.397101
10.606288 32.165325 45.098137
12.248125 32.279877 43.619659
11.413467 32.138084 44.424886
0.158558 28.941324 53.201317
-0.410867 30.30493 53.033972
-0.719098 28.896543 53.737608
1.037311 29.117831 52.609451
0.158558 28.941324 53.201317
1.912759 29.366 52.004993
1.342238 30.597879 51.893223
1.037311 29.117831 52.609451
2.76963 29.3923 51.475494
1.912759 29.366 52.004993
3.66556 29.319285 50.968781
3.113617 30.773033 50.782051
2.76963 29.3923 51.475494
4.582576 29.45257 50.348503
3.66556 29.319285 50.968781
5.465 29.539125 49.764763
4.89197 30.786573 49.691597
4.582576 29.45257 50.348503
6.059714 28.163704 49.832962
6.61644 26.755806 49.910362
6.369108 29.497707 49.176056
5.465 29.539125 49.764763
6.059714 28.163704 49.832962
8.1833 29.54442 47.896891
7.291671 29.518702 48.545922
7.855452 28.148004 48.595225
9.078107 29.591995 47.220623
8.514326 30.962694 47.17132
8.1833 29.54442 47.896891
9.961211 29.609025 46.527166
9.078107 29.591995 47.220623
10.307948 30.878563 45.810488
9.961211 29.609025 46.527166
4.340227 51.731172 40.704885
3.696715 53.1506 40.379831
3.416437 51.875868 41.267574
5.205123 51.479095 40.226312
4.340227 51.731172 40.704885
4.924844 50.204363 41.114055
6.036252 51.363884 39.659155
5.205123 51.479095 40.226312
6.672178 49.887833 39.979765
6.453133 48.60042 40.851509
7.335571 48.535967 40.195791
6.036252 51.363884 39.659155
6.672178 49.887833 39.979765
10.857903 43.968038 39.561371
10.663238 42.722297 40.410364
11.483975 42.578199 39.697977
10.283548 45.350021 39.362383
10.857903 43.968038 39.561371
9.71516 46.822613 39.078646
9.468777 45.584728 39.990021
10.283548 45.350021 39.362383
9.10322 48.303539 38.814177
9.71516 46.822613 39.078646
14.133612 33.331845 41.328815
14.72527 31.969885 41.249947
14.385874 34.596784 40.527353
13.590246 34.616171 41.367994
14.133612 33.331845 41.328815
15.697173 33.192257 39.619892
15.506571 31.965678 40.375301
15.202464 34.537863 39.611382
15.697173 33.192257 39.619892
14.659098 35.822189 39.65056
14.385874 34.596784 40.527353
15.202464 34.537863 39.611382
13.996945 37.170171 39.779112
14.659098 35.822189 39.65056
3 0 79 81
3 81 80 22
3 79 80 81
3 0 82 83
3 0 84 85
3 1 86 88
3 86 23 87
3 86 87 88
3 1 25 23
3 1 27 25
3 90 89 28
3 2 91 92
3 3 32 30
3 3 34 32
3 3 36 34
3 5 39 37
3 5 41 39
3 4 44 42
3 94 93 45
3 6 95 97
3 97 96 46
3 95 96 97
3 7 98 99
3 7 100 101
3 7 102 104
3 102 49 103
3 102 103 104
3 9 50 24
3 9 51 50
3 9 53 51
3 11 54 26
3 11 55 54
3 12 58 56
3 14 59 29
3 14 105 107
3 107 106 59
3 105 106 107
3 109 108 47
3 8 60 48
3 15 61 31
3 15 62 61
3 15 63 62
3 16 64 33
3 16 65 64
3 16 67 65
3 18 68 35
3 18 69 68
3 10 70 52
3 19 71 38
3 19 72 71
3 19 73 72
3 20 74 40
3 20 110 112
3 112 111 74
3 110 111 112
3 113 75 114
3 116 115 75
3 17 76 66
3 21 117 119
3 119 118 43
3 117 118 119
3 21 120 121
3 13 77 57
3 122 78 123
3 22 124 126
3 126 125 6
3 124 125 126
3 128 127 22
3 23 129 130
3 23 131 133
3 131 7 132
3 131 132 133
3 23 24 7
3 25 24 23
3 25 9 24
3 25 26 9
3 27 26 25
3 27 11 26
3 28 29 12
3 134 29 135
3 136 135 28
3 134 135 136
3 137 14 138
3 139 138 29
3 137 138 139
3 30 31 8
3 32 31 30
3 32 15 31
3 32 33 15
3 34 33 32
3 34 16 33
3 34 35 16
3 36 35 34
3 36 18 35
3 37 38 10
3 39 38 37
3 39 19 38
3 39 40 19
3 41 40 39
3 41 20 40
3 42 43 17
3 44 43 42
3 44 21 43
3 45 140 142
3 142 141 13
3 140 141 142
3 144 143 45
3 46 47 2
3 145 47 146
3 147 146 46
3 145 146 147
3 149 148 47
3 151 150 6
3 152 48 153
3 49 154 156
3 154 48 155
3 154 155 156
3 49 8 48
3 24 49 7
3 50 49 24
3 50 8 49
3 50 30 8
3 51 30 50
3 51 3 30
3 51 52 3
3 53 52 51
3 53 10 52
3 26 53 9
3 54 53 26
3 54 10 53
3 54 37 10
3 55 37 54
3 55 5 37
3 56 57 4
3 58 57 56
3 58 13 57
3 29 58 12
3 59 58 29
3 59 13 58
3 59 45 13
3 157 45 158
3 159 158 59
3 157 158 159
3 161 160 45
3 162 1 163
3 165 164 1
3 47 166 168
3 168 167 2
3 166 167 168
3 170 169 47
3 171 2 172
3 48 173 174
3 60 175 177
3 177 176 48
3 175 176 177
3 60 178 179
3 31 60 8
3 61 60 31
3 61 180 182
3 182 181 60
3 180 181 182
3 61 183 184
3 62 185 187
3 187 186 61
3 185 186 187
3 62 188 190
3 188 2 189
3 188 189 190
3 62 46 2
3 63 46 62
3 63 6 46
3 33 63 15
3 64 63 33
3 64 6 63
3 64 22 6
3 65 22 64
3 65 0 22
3 65 66 0
3 67 66 65
3 67 17 66
3 35 67 16
3 68 67 35
3 68 17 67
3 68 42 17
3 69 42 68
3 69 4 42
3 52 36 3
3 70 36 52
3 70 18 36
3 38 70 10
3 71 70 38
3 71 18 70
3 71 69 18
3 72 69 71
3 72 4 69
3 72 56 4
3 73 56 72
3 73 12 56
3 40 73 19
3 74 73 40
3 74 12 73
3 74 28 12
3 191 28 192
3 193 192 74
3 191 192 193
3 195 194 28
3 196 27 197
3 198 197 1
3 196 197 198
3 199 27 200
3 201 11 202
3 203 202 27
3 201 202 203
3 204 11 205
3 206 55 207
3 208 207 11
3 206 207 208
3 209 55 210
3 211 5 212
3 213 212 55
3 211 212 213
3 75 214 215
3 75 216 218
3 216 5 217
3 216 217 218
3 75 41 5
3 219 41 220
3 221 220 75
3 219 220 221
3 222 20 223
3 224 223 41
3 222 223 224
3 225 20 226
3 228 227 20
3 66 229 231
3 231 230 0
3 229 230 231
3 76 232 234
3 234 233 66
3 232 233 234
3 76 235 236
3 43 76 17
3 237 76 238
3 239 238 43
3 237 238 239
3 241 240 76
3 57 44 4
3 77 44 57
3 77 21 44
3 242 77 243
3 244 243 13
3 242 243 244
3 245 77 246
3 247 21 248
3 249 248 77
3 247 248 249
3 251 250 21
3 78 252 253
3 78 254 256
3 254 14 255
3 254 255 256
3 257 78 258
3 259 78 260
3 261 14 262
3 263 262 78
3 261 262 263
3 265 264 14
