ply
format ascii 1.0
element vertex 291
property float x
property float y
property float z
element face 285
property list uchar int vertex_index
end_header
18.380379 -75.978767 39.37735
14.339238 -69.500122 46.93486
8.055037 -67.669212 43.143166
17.45923 -69.539162 48.370213
15.568207 -66.695 51.522911
23.304192 -76.120277 36.762051
14.918705 -76.318474 37.641666
17.161051 -79.616432 33.89843
3.744562 -69.108902 36.384705
21.540104 -74.38279 40.961971
19.529839 -72.156036 44.837795
16.365402 -72.94574 43.211971
13.018601 -72.568825 41.593388
20.451853 -78.329552 35.679592
12.589016 -66.023926 50.214123
11.08876 -68.795135 45.039532
9.842236 -71.69191 39.76606
6.773019 -70.696617 37.716133
16.93854 -66.6231 52.15398
24.620121 -74.522942 37.075699
23.840202 -73.913193 39.363663
13.341187 -76.092697 36.894279
21.068401 -71.452019 45.356308
20.093483 -70.175491 47.450195
15.968526 -69.638184 47.714577
16.92461 -71.166138 45.949745
15.250311 -71.227173 45.09457
14.740462 -72.998413 42.264549
13.71288 -71.06459 44.274975
23.622629 -78.937874 31.950346
20.007986 -75.383087 40.143154
21.050337 -76.41555 38.251579
19.411304 -77.254799 37.500988
18.221245 -81.100464 31.941833
8.645674 -66.158691 45.828033
10.281526 -66.836487 46.824024
9.557757 -68.330299 44.011551
10.402909 -70.244057 42.33353
8.865372 -69.725021 41.353081
5.207861 -69.812035 37.094978
6.054552 -72.096024 35.174061
7.600712 -72.810463 35.902248
18.946566 -69.052246 49.145981
18.015371 -67.901855 50.668999
16.508627 -68.136482 50.012142
15.032201 -68.12838 49.296638
24.102518 -76.695366 34.647915
22.777054 -78.32428 34.038589
16.623911 -76.289703 38.514732
17.624338 -77.770927 36.66296
15.998035 -78.027756 35.760777
2.354689 -68.448639 35.755836
3.136237 -70.863419 33.763569
23.003269 -73.071487 41.651382
22.068514 -72.326141 43.549217
20.639816 -73.387001 42.828854
19.025797 -74.057648 42.17675
18.578142 -70.755157 46.833214
17.944468 -72.61573 44.157188
17.364433 -74.536026 41.278133
15.643588 -74.705345 40.351604
13.927128 -74.4627 39.624069
12.353611 -74.160782 38.796143
22.469343 -75.261581 38.976089
21.937334 -77.447205 36.16058
21.314936 -79.518303 33.498306
18.804428 -79.036453 34.941174
19.790344 -80.33165 32.937149
14.129432 -66.584511 50.753635
13.439178 -67.919281 48.436275
11.862854 -67.322723 47.822891
12.652705 -69.209808 45.982849
12.085433 -70.710449 43.371273
11.368999 -72.230507 40.577988
10.763442 -73.831932 37.784592
4.461299 -67.553093 39.012798
5.88597 -68.384827 39.638493
7.309548 -68.989166 40.53371
8.262441 -71.149246 38.782673
9.144264 -73.275574 36.910271
24.063364 -72.761151 40.69628
24.413141 -73.152199 39.471651
13.030914 -76.993782 35.407722
12.509607 -75.988926 36.35716
20.292476 -69.210262 48.641908
20.796411 -69.724742 47.735184
23.408006 -80.015598 30.620102
22.928646 -79.71775 31.632781
5.770688 -72.997017 33.789142
5.32712 -71.809216 34.781267
6.503349 -73.226566 34.222773
5.770688 -72.997017 33.789142
18.141025 -67.080436 51.71473
18.703106 -67.611118 50.998392
1.644775 -68.10897 35.47649
1.949095 -67.295177 36.619024
1.239181 -66.955509 36.339678
2.779184 -71.661152 32.562834
2.411081 -70.466904 33.570808
3.528391 -72.015575 32.794534
2.779184 -71.661152 32.562834
22.274076 -71.291546 44.790979
22.735489 -71.673054 43.813789
19.577799 -81.368313 31.467234
19.005795 -80.716057 32.439491
18.793249 -81.75272 30.969576
20.305749 -80.97607 31.800863
19.577799 -81.368313 31.467234
13.359224 -66.304219 50.483879
13.696343 -65.638302 51.599007
12.926135 -65.35801 51.329251
4.102931 -68.330997 37.698752
3.731421 -67.216404 38.595501
3.373052 -67.994309 37.281454
8.835962 -74.138955 35.465832
8.372488 -73.043019 36.40626
8.064186 -73.906399 34.961821
9.611555 -74.347786 35.947428
8.835962 -74.138955 35.465832
17.101567 -65.878761 53.09575
17.60261 -66.441059 52.45722
16.492839 -65.98209 52.80322
17.101567 -65.878761 53.09575
15.807672 -66.01804 52.487686
16.253373 -66.65905 51.838445
16.492839 -65.98209 52.80322
24.8031 -73.457074 38.327669
25.150955 -73.64893 37.148933
24.230162 -74.218068 38.219681
24.8031 -73.457074 38.327669
24.413141 -73.152199 39.471651
13.829306 -77.085437 35.839603
14.618064 -77.198326 36.213296
14.129946 -76.205585 37.267972
13.829306 -77.085437 35.839603
13.030914 -76.993782 35.407722
21.28387 -70.363007 46.68824
21.774019 -70.854485 45.694525
20.580942 -70.813755 46.403251
21.28387 -70.363007 46.68824
20.796411 -69.724742 47.735184
24.002665 -79.145035 30.923963
24.234475 -78.028988 32.177005
23.788042 -80.222759 29.593719
24.002665 -79.145035 30.923963
23.408006 -80.015598 30.620102
17.36202 -81.321789 31.455313
17.691148 -80.358448 32.920131
16.831923 -80.579773 32.433612
17.938105 -82.11615 30.457832
17.36202 -81.321789 31.455313
18.793249 -81.75272 30.969576
17.938105 -82.11615 30.457832
12.122796 -65.045304 50.989071
12.926135 -65.35801 51.329251
9.4636 -66.497589 46.326028
9.824542 -65.845555 47.587139
9.006616 -65.506657 47.089143
4.903774 -70.667221 35.741726
4.476211 -69.460468 36.739841
4.172125 -70.315655 35.386589
5.631207 -70.954029 36.134519
4.903774 -70.667221 35.741726
5.32712 -71.809216 34.781267
7.276429 -73.583786 34.586866
6.827632 -72.453243 35.538155
6.503349 -73.226566 34.222773
8.064186 -73.906399 34.961821
7.276429 -73.583786 34.586866
19.168704 -68.186313 50.236883
19.719018 -68.64864 49.489801
18.480968 -68.47705 49.90749
19.168704 -68.186313 50.236883
18.703106 -67.611118 50.998392
17.476955 -67.262477 51.41149
18.141025 -67.080436 51.71473
17.60261 -66.441059 52.45722
24.951716 -74.744137 35.936106
25.48255 -73.870125 36.009341
25.150955 -73.64893 37.148933
24.692915 -75.830349 34.722214
24.951716 -74.744137 35.936106
24.36132 -75.609154 35.861807
24.474419 -76.907734 33.52579
24.692915 -75.830349 34.722214
23.862573 -77.81662 33.29913
24.234475 -78.028988 32.177005
24.474419 -76.907734 33.52579
22.505859 -79.410954 32.676902
22.928646 -79.71775 31.632781
23.199841 -78.631077 32.994467
15.15773 -78.052967 35.272852
15.45837 -77.173115 36.701222
14.618064 -77.198326 36.213296
15.761126 -78.942227 34.357995
15.15773 -78.052967 35.272852
16.342634 -79.736565 33.426821
16.579543 -78.822094 34.829603
15.761126 -78.942227 34.357995
16.831923 -80.579773 32.433612
16.342634 -79.736565 33.426821
8.198452 -64.997757 46.749918
9.006616 -65.506657 47.089143
7.901046 -65.795704 45.381935
8.198452 -64.997757 46.749918
7.605728 -66.550964 44.039502
8.350355 -66.913951 44.485599
7.901046 -65.795704 45.381935
2.678116 -67.664177 36.96702
1.949095 -67.295177 36.619024
3.049626 -68.778771 36.07027
3.373052 -67.994309 37.281454
2.678116 -67.664177 36.96702
2.020307 -69.259514 34.566942
1.644775 -68.10897 35.47649
1.310393 -68.919846 34.287596
2.745463 -69.656029 34.759703
2.020307 -69.259514 34.566942
2.411081 -70.466904 33.570808
3.867962 -71.192914 34.076021
4.172125 -70.315655 35.386589
3.440399 -69.98616 35.074137
3.867962 -71.192914 34.076021
3.528391 -72.015575 32.794534
23.202866 -72.045727 42.864872
23.644897 -72.340298 41.840139
22.535891 -72.698814 42.600299
23.202866 -72.045727 42.864872
22.735489 -71.673054 43.813789
21.568458 -71.88908 44.452762
22.274076 -71.291546 44.790979
21.774019 -70.854485 45.694525
19.520024 -69.613868 48.298088
20.292476 -69.210262 48.641908
19.719018 -68.64864 49.489801
12.015819 -75.022968 37.308093
12.509607 -75.988926 36.35716
12.847399 -75.126739 37.845211
23.421736 -73.49234 40.507523
24.063364 -72.761151 40.69628
23.644897 -72.340298 41.840139
21.7748 -80.007965 32.406761
22.505859 -79.410954 32.676902
22.045995 -78.921291 33.768448
21.068045 -80.569397 32.081441
20.55264 -79.924976 33.217727
20.305749 -80.97607 31.800863
21.7748 -80.007965 32.406761
21.068045 -80.569397 32.081441
15.151335 -65.926292 52.241766
15.807672 -66.01804 52.487686
14.431948 -65.871048 51.857128
13.696343 -65.638302 51.599007
14.848819 -66.639756 51.138273
15.151335 -65.926292 52.241766
14.431948 -65.871048 51.857128
11.80451 -65.730259 49.825666
12.122796 -65.045304 50.989071
10.650765 -66.136539 48.130617
9.824542 -65.845555 47.587139
11.441429 -66.379658 48.63005
10.650765 -66.136539 48.130617
11.07219 -67.079605 47.323458
12.225935 -66.673325 49.018507
11.80451 -65.730259 49.825666
11.441429 -66.379658 48.63005
11.220735 -74.858543 36.802317
12.015819 -75.022968 37.308093
11.558526 -73.996357 38.290368
7.270309 -67.236744 42.751076
7.605728 -66.550964 44.039502
4.046759 -66.461922 39.822792
3.731421 -67.216404 38.595501
4.773221 -66.84977 40.236494
4.046759 -66.461922 39.822792
5.485557 -67.265636 40.549341
4.773221 -66.84977 40.236494
5.173635 -67.96896 39.325645
6.185776 -67.594551 40.998739
5.485557 -67.265636 40.549341
6.897564 -67.896721 41.446348
6.185776 -67.594551 40.998739
6.597759 -68.686996 40.086101
7.682293 -68.329189 41.838438
7.270309 -67.236744 42.751076
6.897564 -67.896721 41.446348
10.421143 -74.625965 36.384589
9.953853 -73.553753 37.347431
9.611555 -74.347786 35.947428
11.220735 -74.858543 36.802317
10.421143 -74.625965 36.384589
3 80 20 81
3 83 82 21
3 84 23 85
3 1 26 24
3 1 28 26
3 87 86 29
3 0 32 30
3 2 36 34
3 2 38 36
3 88 40 89
3 91 90 40
3 92 43 93
3 4 44 18
3 4 45 44
3 5 46 19
3 5 47 46
3 6 50 48
3 94 51 95
3 94 95 96
3 97 52 98
3 100 99 52
3 101 54 102
3 10 55 22
3 10 56 55
3 3 57 42
3 11 58 25
3 11 59 58
3 11 60 59
3 12 61 27
3 12 62 61
3 9 63 53
3 13 64 31
3 13 65 64
3 7 66 49
3 103 67 104
3 105 104 33
3 103 104 105
3 107 106 67
3 14 108 110
3 108 68 109
3 108 109 110
3 14 69 68
3 15 70 35
3 15 71 70
3 15 72 71
3 16 73 37
3 16 74 73
3 8 111 113
3 111 75 112
3 111 112 113
3 17 76 39
3 17 77 76
3 17 78 77
3 114 79 115
3 116 115 41
3 114 115 116
3 118 117 79
3 119 18 120
3 121 18 122
3 123 4 124
3 125 124 18
3 123 124 125
3 126 19 127
3 20 128 130
3 128 19 129
3 128 129 130
3 20 5 19
3 21 131 133
3 133 132 6
3 131 132 133
3 135 134 21
3 136 22 137
3 23 138 140
3 138 22 139
3 138 139 140
3 23 10 22
3 24 25 3
3 26 25 24
3 26 11 25
3 26 27 11
3 28 27 26
3 28 12 27
3 29 141 142
3 145 144 29
3 143 144 145
3 30 31 9
3 32 31 30
3 32 13 31
3 146 33 147
3 148 147 7
3 146 147 148
3 149 33 150
3 152 151 33
3 153 14 154
3 34 155 157
3 155 35 156
3 155 156 157
3 36 35 34
3 36 15 35
3 36 37 15
3 38 37 36
3 38 16 37
3 158 39 159
3 160 159 8
3 158 159 160
3 40 161 163
3 161 39 162
3 161 162 163
3 40 17 39
3 40 41 17
3 164 41 165
3 166 165 40
3 164 165 166
3 168 167 41
3 169 42 170
3 43 171 173
3 171 42 172
3 171 172 173
3 43 3 42
3 18 174 176
3 174 43 175
3 174 175 176
3 44 43 18
3 44 3 43
3 44 24 3
3 45 24 44
3 45 1 24
3 19 177 179
3 177 178 179
3 46 180 182
3 182 181 19
3 180 181 182
3 46 183 184
3 46 185 187
3 185 29 186
3 185 186 187
3 47 29 46
3 47 188 190
3 190 189 29
3 188 189 190
3 48 49 0
3 50 49 48
3 50 7 49
3 191 50 192
3 193 192 6
3 191 192 193
3 194 50 195
3 196 7 197
3 198 197 50
3 196 197 198
3 200 199 7
3 201 34 202
3 203 34 204
3 205 2 206
3 207 206 34
3 205 206 207
3 51 208 209
3 51 210 212
3 210 8 211
3 210 211 212
3 213 51 214
3 213 214 215
3 52 216 218
3 216 51 217
3 216 217 218
3 52 8 51
3 52 219 221
3 221 220 8
3 219 220 221
3 223 222 52
3 224 53 225
3 54 226 228
3 226 53 227
3 226 227 228
3 54 9 53
3 22 229 231
3 229 54 230
3 229 230 231
3 55 54 22
3 55 9 54
3 55 30 9
3 56 30 55
3 56 0 30
3 42 232 234
3 232 23 233
3 232 233 234
3 57 23 42
3 57 10 23
3 25 57 3
3 58 57 25
3 58 10 57
3 58 56 10
3 59 56 58
3 59 0 56
3 59 48 0
3 60 48 59
3 60 6 48
3 27 60 11
3 61 60 27
3 61 6 60
3 61 21 6
3 62 21 61
3 62 235 237
3 237 236 21
3 235 236 237
3 53 238 240
3 238 20 239
3 238 239 240
3 63 20 53
3 63 5 20
3 31 63 9
3 64 63 31
3 64 5 63
3 64 47 5
3 65 47 64
3 65 241 243
3 243 242 47
3 241 242 243
3 49 32 0
3 66 32 49
3 66 13 32
3 33 66 7
3 67 66 33
3 67 13 66
3 67 65 13
3 244 65 245
3 246 245 67
3 244 245 246
3 248 247 65
3 249 4 250
3 68 251 252
3 68 253 255
3 253 4 254
3 253 254 255
3 68 45 4
3 69 45 68
3 69 1 45
3 256 14 257
3 35 258 259
3 70 260 262
3 262 261 35
3 260 261 262
3 70 263 265
3 263 14 264
3 263 264 265
3 70 69 14
3 71 69 70
3 71 1 69
3 71 28 1
3 72 28 71
3 72 12 28
3 37 72 15
3 73 72 37
3 73 12 72
3 73 62 12
3 74 62 73
3 74 266 268
3 268 267 62
3 266 267 268
3 269 2 270
3 75 271 272
3 75 273 274
3 39 75 8
3 76 75 39
3 76 275 277
3 277 276 75
3 275 276 277
3 76 278 279
3 77 280 282
3 282 281 76
3 280 281 282
3 77 283 285
3 283 2 284
3 283 284 285
3 77 38 2
3 78 38 77
3 78 16 38
3 41 78 17
3 79 78 41
3 79 16 78
3 79 74 16
3 286 74 287
3 288 287 79
3 286 287 288
3 290 289 74
