ply
format ascii 1.0
element vertex 164
property float x
property float y
property float z
element face 146
property list uchar int vertex_index
end_header
-34.803654 -2.069832 -61.390511
-38.119534 -16.369896 -53.823238
-28.766459 11.198074 -67.609978
-36.782867 -9.115779 -57.746185
-35.585186 -16.464455 -57.098129
-33.813293 -9.224426 -60.943027
-31.51689 -2.265918 -64.361755
-32.095146 4.61782 -64.751823
-28.325191 4.519611 -67.584152
-35.910645 -5.696893 -59.54026
-35.369129 -9.311517 -59.424595
-34.428814 -5.537462 -61.233139
-32.794743 -5.770606 -62.643429
-33.252125 -2.127849 -62.975212
-37.480316 -19.778179 -53.615128
-34.093899 -16.668741 -58.394855
-30.433409 8.14599 -66.32444
-30.292589 4.719998 -66.287941
-28.569187 8.017735 -67.764694
-37.559052 -12.741993 -55.765774
-36.949673 -16.283846 -55.577034
-36.302456 -12.857765 -57.4319
-34.743309 -12.915552 -59.060596
-30.995699 -6.084503 -63.830608
-29.717655 -2.472282 -65.476662
-26.880306 10.843429 -68.953255
-36.240108 -19.987324 -55.118862
-38.583424 -12.80237 -54.007183
-37.988182 -9.08217 -55.884346
-37.152542 -5.579572 -57.810719
-33.595612 1.27291 -63.051601
-31.899225 1.306768 -64.645561
-30.040985 1.259541 -66.023506
-28.079994 0.886048 -67.087692
-26.568693 7.664855 -68.941177
-26.361372 4.235392 -68.549263
-37.799925 -18.074038 -53.719183
-38.044302 -19.785713 -52.681044
-38.363911 -18.081572 -52.785099
-33.660438 -18.569759 -58.023458
-33.206234 -16.901051 -58.958368
-29.728547 11.12658 -66.754704
-28.867495 12.587741 -67.352303
-29.599934 9.672032 -66.967209
-30.562022 9.600538 -66.111934
-29.728547 11.12658 -66.754704
-33.463369 -11.280477 -60.610521
-33.928377 -13.12604 -59.669306
-34.278301 -11.069989 -60.001812
-32.966057 -9.424392 -61.531864
-33.463369 -11.280477 -60.610521
-38.744591 -10.953812 -54.04721
-39.006331 -12.67306 -53.127981
-38.44697 -9.093712 -54.985792
-38.285803 -10.94227 -54.945764
-38.744591 -10.953812 -54.04721
-37.230837 -3.880407 -57.819134
-37.649479 -5.551766 -56.943981
-36.629255 -3.833124 -58.769997
-37.230837 -3.880407 -57.819134
-32.882251 4.709821 -63.919384
-32.148174 6.285147 -64.682643
-32.845379 2.945365 -63.901712
-33.632485 3.037365 -63.069273
-32.882251 4.709821 -63.919384
-25.675499 9.136128 -69.514927
-26.7245 9.254142 -68.947216
-25.831305 10.725415 -69.520966
-25.352474 3.974982 -68.892514
-25.532386 5.723688 -69.148266
-26.228378 2.338567 -68.206009
-25.352474 3.974982 -68.892514
-37.701763 -21.430526 -52.602974
-38.044302 -19.785713 -52.681044
-37.096449 -21.624869 -53.377099
-37.701763 -21.430526 -52.602974
-34.466042 -18.387915 -57.440748
-35.211685 -18.285773 -56.792385
-34.839543 -16.566598 -57.746492
-34.032581 -20.288934 -57.069351
-34.466042 -18.387915 -57.440748
-33.660438 -18.569759 -58.023458
-31.317306 8.049232 -65.468952
-30.562022 9.600538 -66.111934
-31.264277 6.381905 -65.538131
-32.148174 6.285147 -64.682643
-31.317306 8.049232 -65.468952
-33.603672 -15.002634 -59.336435
-34.418604 -14.792147 -58.727725
-33.928377 -13.12604 -59.669306
-33.206234 -16.901051 -58.958368
-33.603672 -15.002634 -59.336435
-32.456781 -7.697482 -62.382065
-32.966057 -9.424392 -61.531864
-33.304018 -7.497516 -61.793228
-31.55726 -7.854431 -62.975654
-32.456781 -7.697482 -62.382065
-31.895221 -5.927554 -63.237018
-30.60392 -7.9801 -63.506666
-31.55726 -7.854431 -62.975654
-30.016008 -6.156044 -64.343515
-30.60392 -7.9801 -63.506666
-29.376985 -4.349933 -65.166542
-30.016008 -6.156044 -64.343515
-30.356677 -4.278392 -64.653635
-28.730581 -2.618264 -65.934151
-29.376985 -4.349933 -65.166542
-27.867361 12.636648 -68.171001
-28.867495 12.587741 -67.352303
-26.924284 12.459325 -68.84264
-27.823383 11.020751 -68.281616
-27.867361 12.636648 -68.171001
-25.924461 12.242002 -69.499058
-26.924284 12.459325 -68.84264
-25.831305 10.725415 -69.520966
-25.924461 12.242002 -69.499058
-36.476345 -21.729441 -54.128965
-37.096449 -21.624869 -53.377099
-36.860212 -19.882752 -54.366995
-35.539146 -20.047207 -55.802751
-35.912647 -18.22589 -56.108496
-35.211685 -18.285773 -56.792385
-35.769575 -21.980862 -54.80208
-35.539146 -20.047207 -55.802751
-36.476345 -21.729441 -54.128965
-35.769575 -21.980862 -54.80208
-38.588989 -16.196506 -52.990187
-38.363911 -18.081572 -52.785099
-38.820934 -14.412743 -53.082159
-39.006331 -12.67306 -53.127981
-38.351479 -14.586133 -53.915211
-38.588989 -16.196506 -52.990187
-38.820934 -14.412743 -53.082159
-38.067299 -7.303064 -55.980795
-38.44697 -9.093712 -54.985792
-37.570362 -7.330871 -56.847532
-38.067299 -7.303064 -55.980795
-37.649479 -5.551766 -56.943981
-36.008307 -3.891785 -59.634768
-36.531593 -5.638232 -58.675489
-36.629255 -3.833124 -58.769997
-35.454811 -2.078254 -60.559893
-35.35715 -3.883363 -60.465385
-36.008307 -3.891785 -59.634768
-34.934302 -0.305576 -61.366366
-35.454811 -2.078254 -60.559893
-34.330281 1.365795 -62.196911
-33.632485 3.037365 -63.069273
-34.199633 -0.398461 -62.221056
-34.934302 -0.305576 -61.366366
-34.330281 1.365795 -62.196911
-27.911751 -0.9391 -66.739666
-28.730581 -2.618264 -65.934151
-28.898824 -0.793117 -66.282177
-25.636046 7.438419 -69.344223
-25.675499 9.136128 -69.514927
-26.465032 5.950124 -68.74522
-25.636046 7.438419 -69.344223
-25.532386 5.723688 -69.148266
-27.087689 0.663895 -67.475223
-27.220683 2.56072 -67.818478
-26.228378 2.338567 -68.206009
-27.911751 -0.9391 -66.739666
-27.087689 0.663895 -67.475223
3 0 11 9
3 0 13 11
3 1 36 38
3 36 14 37
3 36 37 38
3 40 39 15
3 2 41 42
3 2 43 45
3 43 16 44
3 43 44 45
3 2 18 16
3 3 21 19
3 5 22 10
3 5 46 48
3 48 47 22
3 46 47 48
3 5 49 50
3 6 23 12
3 6 24 23
3 4 26 20
3 51 27 52
3 53 28 54
3 55 54 27
3 53 54 55
3 56 29 57
3 59 58 29
3 7 60 61
3 7 62 64
3 62 30 63
3 62 63 64
3 7 31 30
3 8 32 17
3 8 33 32
3 65 34 66
3 67 66 25
3 65 66 67
3 68 35 69
3 71 70 35
3 9 10 3
3 11 10 9
3 11 5 10
3 11 12 5
3 13 12 11
3 13 6 12
3 14 72 73
3 14 74 75
3 15 76 78
3 78 77 4
3 76 77 78
3 81 80 15
3 79 80 81
3 16 82 83
3 16 84 86
3 84 7 85
3 84 85 86
3 16 17 7
3 18 17 16
3 18 8 17
3 19 20 1
3 21 20 19
3 21 4 20
3 10 21 3
3 22 21 10
3 22 4 21
3 22 15 4
3 87 15 88
3 89 88 22
3 87 88 89
3 91 90 15
3 12 92 94
3 94 93 5
3 92 93 94
3 23 95 97
3 97 96 12
3 95 96 97
3 23 98 99
3 23 100 101
3 24 102 104
3 104 103 23
3 102 103 104
3 24 105 106
3 107 2 108
3 109 25 110
3 111 110 2
3 109 110 111
3 112 25 113
3 115 114 25
3 20 14 1
3 26 14 20
3 26 116 118
3 118 117 14
3 116 117 118
3 119 26 120
3 121 120 4
3 119 120 121
3 122 26 123
3 125 124 26
3 126 1 127
3 27 128 129
3 27 130 132
3 130 1 131
3 130 131 132
3 27 19 1
3 28 19 27
3 28 3 19
3 133 28 134
3 29 135 137
3 135 28 136
3 135 136 137
3 29 3 28
3 29 9 3
3 138 9 139
3 140 139 29
3 138 139 140
3 141 0 142
3 143 142 9
3 141 142 143
3 144 0 145
3 30 146 147
3 30 148 150
3 148 0 149
3 148 149 150
3 30 13 0
3 31 13 30
3 31 6 13
3 17 31 7
3 32 31 17
3 32 6 31
3 32 24 6
3 33 24 32
3 33 151 153
3 153 152 24
3 151 152 153
3 25 18 2
3 34 18 25
3 34 8 18
3 154 34 155
3 35 156 158
3 156 34 157
3 156 157 158
3 35 8 34
3 35 33 8
3 159 33 160
3 161 160 35
3 159 160 161
3 163 162 33
