ply
format ascii 1.0
element vertex 251
property float x
property float y
property float z
element face 250
property list uchar int vertex_index
end_header
33.974335 -22.29842 20.886658
36.028435 -6.34866 20.218523
33.552994 -34.407307 12.772553
31.026176 -25.521042 28.425035
31.740616 -36.802692 21.136841
35.04092 -14.470881 20.673992
35.382965 -21.024178 16.931101
34.119644 -28.335255 16.925949
31.392347 -42.443401 16.873192
32.309242 -40.169319 8.41226
34.314442 -8.517431 23.879028
33.358864 -16.176083 24.431366
31.728838 -17.807615 28.056768
32.49411 -23.713829 24.614931
31.60264 -31.055868 24.87591
32.850925 -29.76342 20.983223
32.687004 -35.680317 17.051748
31.914778 -41.406208 12.596824
34.538067 -18.34815 20.77087
35.274223 -17.809429 18.846045
34.692825 -21.749527 18.908791
34.73103 -24.898167 16.96513
34.103897 -25.384352 18.983583
32.987156 -37.430534 10.656374
33.44577 -9.221714 25.702673
33.858635 -12.534002 24.092846
33.002247 -13.088028 25.962057
30.692245 -22.613098 29.977278
31.398664 -21.631502 28.151449
32.131248 -20.807047 26.379284
31.735815 -24.706959 26.498917
31.254753 -37.393257 23.187166
31.179281 -34.562557 25.056236
31.714636 -34.118538 22.991096
32.232925 -30.473278 22.853346
32.275597 -33.529713 20.963116
32.842556 -32.652042 19.113817
32.211723 -36.336933 19.069344
31.678877 -41.923466 14.661827
31.305691 -44.040005 10.368873
35.548183 -10.457225 20.473856
36.368538 -9.688763 18.458696
35.845146 -13.73609 18.682959
34.640163 -27.89234 14.850358
33.878143 -31.536198 14.973412
30.405008 -26.233526 30.283609
31.265781 -40.064766 21.098257
31.644657 -39.612106 19.0714
31.090235 -42.913628 19.085094
35.660236 -3.235806 21.731068
34.718185 -4.339013 23.723812
35.182095 -7.412165 22.083214
34.728619 -11.332889 22.303534
34.241215 -15.307996 22.489481
33.755188 -19.083277 22.637241
32.532017 -17.131203 26.213457
32.95369 -19.950277 24.468594
33.239925 -23.08238 22.716713
30.164976 -29.66045 30.605402
30.72146 -29.090542 28.640221
30.985546 -31.86331 26.898989
31.368286 -28.210587 26.665966
32.057606 -27.457605 24.686195
32.74107 -26.874805 22.750132
33.444683 -26.202557 20.78684
33.480991 -29.148462 18.969831
33.378864 -32.166977 16.990089
33.107018 -35.242306 14.893708
32.031998 -39.138458 16.896536
32.398544 -38.532246 14.856899
32.729095 -37.932598 12.786251
32.151215 -40.734661 10.512744
31.402889 -43.477345 8.262374
36.439443 -6.067771 19.170829
36.274114 -4.289922 19.996138
33.676743 -34.299971 11.630793
33.916697 -32.808081 12.753764
33.270075 -35.91892 11.714464
33.393823 -35.811585 10.572703
33.676743 -34.299971 11.630793
32.983767 -9.857492 26.626663
33.20949 -7.789896 26.475414
32.762005 -11.790648 26.756355
33.224008 -11.154871 25.832365
32.983767 -9.857492 26.626663
35.698744 -19.025726 16.869562
35.644373 -17.418352 17.827034
35.328594 -19.416804 17.888573
35.704866 -20.666837 15.886768
35.698744 -19.025726 16.869562
35.361519 -22.617391 15.900063
35.704866 -20.666837 15.886768
30.121595 -26.704363 31.229605
30.220913 -24.93713 31.073598
31.018225 -41.803253 21.125777
31.052102 -40.454635 22.151455
30.930453 -43.227684 20.119196
31.178008 -41.489197 20.091676
31.018225 -41.803253 21.125777
36.751398 -9.38365 17.382689
36.480566 -11.370017 17.538574
32.301178 -40.065334 7.210863
32.71868 -38.645567 8.337395
31.880268 -41.541311 7.247794
32.301178 -40.065334 7.210863
35.40616 -1.702298 22.564949
35.87841 -1.124436 21.544267
35.624334 0.409073 22.378148
34.516313 -6.428222 23.80142
34.278877 -4.843003 24.616802
34.077005 -6.932212 24.69441
31.52559 -16.498425 28.808421
31.359518 -18.3211 28.920326
31.944051 -16.037701 27.87685
31.52559 -16.498425 28.808421
32.130428 -17.469409 27.135112
32.345641 -15.699495 26.955194
31.944051 -16.037701 27.87685
30.309855 -31.062101 29.731952
30.075086 -31.36499 30.720256
30.588096 -30.777147 28.749362
30.443218 -29.375496 29.622812
30.309855 -31.062101 29.731952
30.992022 -44.992339 8.22426
31.35429 -43.758675 9.315624
30.943424 -45.273668 9.27751
30.965253 -44.77723 7.066557
30.992022 -44.992339 8.22426
33.057637 -37.276174 9.459452
33.393823 -35.811585 10.572703
32.648199 -38.799926 9.534317
32.71868 -38.645567 8.337395
33.057637 -37.276174 9.459452
33.642669 -7.284353 25.606233
33.20949 -7.789896 26.475414
33.880106 -8.869573 24.790851
34.077005 -6.932212 24.69441
33.642669 -7.284353 25.606233
30.841221 -20.723841 29.880581
30.493728 -21.2602 30.772526
31.194431 -20.233044 28.967666
30.841221 -20.723841 29.880581
31.045454 -22.1223 29.064363
31.563751 -19.719558 28.104109
31.359518 -18.3211 28.920326
31.194431 -20.233044 28.967666
31.217017 -35.977907 24.121701
31.001501 -36.306442 25.050487
31.039237 -37.721792 24.115952
31.344568 -43.485332 14.678955
31.535612 -42.183433 15.767509
31.201303 -43.7453 15.784637
31.419992 -43.271324 13.563134
31.344568 -43.485332 14.678955
31.537942 -43.012695 12.530632
31.796827 -41.664837 13.629326
31.419992 -43.271324 13.563134
31.233398 -44.329594 11.416657
31.610234 -42.723107 11.482848
31.537942 -43.012695 12.530632
30.902725 -45.645306 10.33176
31.233398 -44.329594 11.416657
30.943424 -45.273668 9.27751
30.902725 -45.645306 10.33176
36.21887 -13.393681 17.650706
36.480566 -11.370017 17.538574
36.106842 -11.712426 18.570828
35.929834 -15.381683 17.745491
35.559685 -15.77276 18.764502
35.644373 -17.418352 17.827034
36.21887 -13.393681 17.650706
35.929834 -15.381683 17.745491
35.035551 -24.554386 15.917077
35.361519 -22.617391 15.900063
35.056997 -22.961172 16.948116
34.990118 -26.051472 14.859691
35.035551 -24.554386 15.917077
34.685597 -26.395254 15.907744
34.85238 -27.737194 13.788154
34.990118 -26.051472 14.859691
34.460281 -29.550598 13.792667
34.85238 -27.737194 13.788154
34.079271 -31.372526 13.854194
34.460281 -29.550598 13.792667
34.259153 -29.714269 14.911885
33.715569 -32.971753 13.872982
33.916697 -32.808081 12.753764
34.079271 -31.372526 13.854194
30.364531 -23.126916 30.920433
30.493728 -21.2602 30.772526
30.548626 -24.423312 30.130443
30.364531 -23.126916 30.920433
30.220913 -24.93713 31.073598
31.046588 -39.118881 23.195909
31.039237 -37.721792 24.115952
31.260267 -38.729011 22.142712
31.046588 -39.118881 23.195909
31.052102 -40.454635 22.151455
30.841057 -44.50022 19.022364
30.930453 -43.227684 20.119196
30.950912 -44.207079 18.04439
30.841057 -44.50022 19.022364
31.101968 -43.971965 16.938439
31.241291 -42.678515 17.979143
30.950912 -44.207079 18.04439
31.201303 -43.7453 15.784637
31.101968 -43.971965 16.938439
36.609495 -7.737823 18.290916
36.439443 -6.067771 19.170829
36.198487 -8.018712 19.33861
36.609495 -7.737823 18.290916
36.751398 -9.38365 17.382689
36.090015 -2.733495 20.75241
35.87841 -1.124436 21.544267
35.844335 -4.792233 20.974795
36.274114 -4.289922 19.996138
36.090015 -2.733495 20.75241
34.457228 -2.763766 24.5517
34.278877 -4.843003 24.616802
34.935135 -2.253901 23.561321
34.457228 -2.763766 24.5517
35.189211 -3.787409 22.72744
35.40616 -1.702298 22.564949
34.935135 -2.253901 23.561321
32.580755 -13.677908 26.829495
32.762005 -11.790648 26.756355
32.767132 -15.109616 26.087757
32.580755 -13.677908 26.829495
32.345641 -15.699495 26.955194
29.928525 -30.190176 31.532759
30.075086 -31.36499 30.720256
30.001579 -28.417825 31.390502
29.928525 -30.190176 31.532759
30.284992 -27.946988 30.444505
30.121595 -26.704363 31.229605
30.001579 -28.417825 31.390502
30.922693 -34.977308 26.038159
31.001501 -36.306442 25.050487
30.825826 -33.627685 26.959535
30.922693 -34.977308 26.038159
31.082414 -33.212933 25.977612
30.72014 -32.163531 27.878746
30.825826 -33.627685 26.959535
30.853503 -30.476926 27.769605
30.588096 -30.777147 28.749362
30.72014 -32.163531 27.878746
31.427091 -43.195324 7.172851
31.880268 -41.541311 7.247794
31.856065 -41.823332 8.337317
31.427091 -43.195324 7.172851
30.965253 -44.77723 7.066557
3 0 20 18
3 0 22 20
3 1 73 74
3 2 75 76
3 2 77 79
3 77 23 78
3 77 78 79
3 80 24 81
3 82 26 83
3 84 83 24
3 82 83 84
3 3 28 27
3 3 30 28
3 4 33 31
3 4 35 33
3 4 37 35
3 5 42 40
3 6 85 87
3 87 86 19
3 85 86 87
3 6 88 89
3 6 90 91
3 7 43 21
3 7 44 43
3 92 45 93
3 94 46 95
3 96 48 97
3 98 97 46
3 96 97 98
3 100 99 41
3 9 101 102
3 9 103 104
3 105 49 106
3 105 106 107
3 10 108 110
3 108 50 109
3 108 109 110
3 10 51 50
3 10 52 51
3 11 53 25
3 11 54 53
3 12 111 112
3 12 113 114
3 12 115 117
3 115 55 116
3 115 116 117
3 13 56 29
3 13 57 56
3 118 58 119
3 120 59 121
3 122 121 58
3 120 121 122
3 14 60 32
3 14 61 60
3 14 62 61
3 15 63 34
3 15 64 63
3 15 65 64
3 16 66 36
3 16 67 66
3 8 68 47
3 17 69 38
3 17 70 69
3 17 71 70
3 123 72 124
3 125 124 39
3 123 124 125
3 127 126 72
3 18 19 5
3 20 19 18
3 20 6 19
3 20 21 6
3 22 21 20
3 22 7 21
3 23 128 129
3 23 130 132
3 130 9 131
3 130 131 132
3 24 133 134
3 24 135 137
3 135 10 136
3 135 136 137
3 24 25 10
3 26 25 24
3 26 11 25
3 27 138 139
3 28 140 142
3 142 141 27
3 140 141 142
3 28 143 145
3 143 12 144
3 143 144 145
3 28 29 12
3 30 29 28
3 30 13 29
3 31 146 148
3 146 32 147
3 146 147 148
3 33 32 31
3 33 14 32
3 33 34 14
3 35 34 33
3 35 15 34
3 35 36 15
3 37 36 35
3 37 16 36
3 149 38 150
3 151 150 8
3 149 150 151
3 152 38 153
3 154 17 155
3 156 155 38
3 154 155 156
3 157 39 158
3 159 158 17
3 157 158 159
3 160 39 161
3 163 162 39
3 40 41 1
3 42 41 40
3 42 164 166
3 166 165 41
3 164 165 166
3 19 42 5
3 167 42 168
3 169 168 19
3 167 168 169
3 171 170 42
3 21 172 174
3 174 173 6
3 172 173 174
3 43 175 177
3 177 176 21
3 175 176 177
3 43 178 179
3 43 180 181
3 44 182 184
3 184 183 43
3 182 183 184
3 44 185 187
3 185 2 186
3 185 186 187
3 188 27 189
3 45 190 192
3 190 27 191
3 190 191 192
3 45 3 27
3 193 31 194
3 46 195 197
3 195 31 196
3 195 196 197
3 46 4 31
3 46 47 4
3 48 47 46
3 48 8 47
3 198 48 199
3 200 48 201
3 202 8 203
3 204 203 48
3 202 203 204
3 206 205 8
3 41 207 209
3 209 208 1
3 207 208 209
3 211 210 41
3 49 212 213
3 49 214 216
3 214 1 215
3 214 215 216
3 50 217 218
3 50 219 220
3 50 221 223
3 221 49 222
3 221 222 223
3 51 49 50
3 51 1 49
3 51 40 1
3 52 40 51
3 52 5 40
3 25 52 10
3 53 52 25
3 53 5 52
3 53 18 5
3 54 18 53
3 54 0 18
3 224 26 225
3 55 226 228
3 226 26 227
3 226 227 228
3 55 11 26
3 29 55 12
3 56 55 29
3 56 11 55
3 56 54 11
3 57 54 56
3 57 0 54
3 58 229 230
3 58 231 232
3 58 233 235
3 233 45 234
3 233 234 235
3 59 45 58
3 59 3 45
3 32 236 237
3 60 238 240
3 240 239 32
3 238 239 240
3 60 241 242
3 60 243 245
3 243 59 244
3 243 244 245
3 61 59 60
3 61 3 59
3 61 30 3
3 62 30 61
3 62 13 30
3 34 62 14
3 63 62 34
3 63 13 62
3 63 57 13
3 64 57 63
3 64 0 57
3 64 22 0
3 65 22 64
3 65 7 22
3 36 65 15
3 66 65 36
3 66 7 65
3 66 44 7
3 67 44 66
3 67 2 44
3 47 37 4
3 68 37 47
3 68 16 37
3 38 68 8
3 69 68 38
3 69 16 68
3 69 67 16
3 70 67 69
3 70 2 67
3 70 23 2
3 71 23 70
3 71 9 23
3 39 71 17
3 72 71 39
3 72 9 71
3 72 246 248
3 248 247 9
3 246 247 248
3 250 249 72
