ply
format ascii 1.0
element vertex 404
property float x
property float y
property float z
element face 409
property list uchar int vertex_index
end_header
24.247095 9.638888 -4.673269
36.641014 8.518458 3.185251
40.303638 8.885671 9.317939
40.348381 1.189379 15.894937
19.403397 11.557962 -7.448521
30.506926 8.720724 -1.543802
28.686516 20.817019 -4.745104
38.353561 17.856066 5.136202
40.869465 8.787722 12.716676
40.571171 4.811531 12.371601
40.733307 5.508382 15.518954
21.550123 10.362241 -6.022833
33.766495 8.313269 0.670713
31.733643 3.285143 0.777332
34.752598 3.399236 3.130344
20.195299 23.925512 -8.576906
38.94191 8.641575 6.243279
37.498096 3.654954 6.026077
39.485149 4.28959 9.097581
27.339838 9.001128 -3.196563
25.488531 3.909325 -3.038204
28.357309 3.459891 -1.378173
18.472181 18.176514 -8.689671
20.740166 17.124336 -7.336986
23.358868 15.938428 -6.108847
26.35968 14.932059 -4.804254
29.64995 14.371533 -3.264957
32.714741 13.963493 -1.440982
35.647717 13.823578 0.923218
36.686092 18.63166 1.968557
38.001537 13.48786 3.795793
39.574043 13.127286 6.955619
40.881977 7.023566 13.986848
22.841787 10.05877 -5.360593
22.104624 7.656668 -5.391988
23.378239 7.180956 -4.663148
35.205048 8.411438 1.816845
34.286911 5.88457 1.845213
35.76506 5.882321 3.172767
39.711094 8.702167 7.750458
39.197086 6.28582 7.552872
39.986229 6.613249 9.182186
40.519398 3.008048 14.026739
40.213913 2.652378 12.386121
28.902306 8.605126 -2.360826
27.737858 6.169209 -2.363871
29.401955 5.827757 -1.401584
37.822716 1.443328 7.536306
36.60928 1.318764 5.933776
18.160326 21.506798 -9.304261
20.396177 20.431572 -7.968085
21.703032 19.992001 -7.365677
22.038139 16.492252 -6.7021
22.990953 19.388012 -6.7912
27.151794 21.078035 -5.466533
25.937727 18.148092 -5.513575
27.512602 17.930315 -4.853378
27.984238 14.677717 -4.08987
29.108881 17.384121 -4.059056
32.256737 16.95969 -2.24197
33.690865 16.805107 -1.192468
34.172058 13.979621 -0.394431
35.06953 16.323895 0.047039
37.427723 16.051382 2.857065
38.301151 15.6707 4.331423
38.892254 13.270468 5.3536
39.015087 15.498898 5.958756
40.694817 8.785225 11.024148
40.504761 6.718512 10.826216
40.801186 6.835083 12.458958
40.76054 5.072699 13.980565
40.591286 3.408828 15.635812
20.415445 11.143226 -6.736683
20.967751 8.007919 -6.110141
32.185516 8.377358 -0.446914
31.029858 5.818552 -0.447948
32.692749 5.772476 0.663872
33.328022 3.314257 1.947869
33.888168 0.754244 3.333774
30.167566 20.243294 -3.912253
37.871464 8.641675 4.622924
37.114998 6.075465 4.559154
38.285854 6.147512 6.084343
38.565735 3.827164 7.547598
38.836246 1.703825 9.164092
40.15118 4.580669 10.731474
39.675117 2.268946 10.787337
25.738052 9.110221 -3.930309
24.818535 6.602633 -3.866493
26.274675 6.293883 -3.109717
30.009371 3.331115 -0.365439
36.253773 3.551307 4.568626
35.315113 1.050275 4.591131
18.91157 14.86362 -8.05164
19.196918 20.92815 -8.613367
19.543169 17.598213 -7.979899
19.901121 14.422801 -7.392573
21.076744 13.758564 -6.709657
22.342155 13.183116 -6.067821
23.658747 12.65385 -5.446149
24.422136 18.702602 -6.163783
24.749077 15.417619 -5.504853
25.206629 12.259515 -4.762065
26.781961 11.805683 -4.033105
28.422337 11.721244 -3.298103
29.967579 11.415853 -2.482389
30.702097 17.141705 -3.205956
31.181591 14.241516 -2.431258
31.703632 11.244583 -1.483003
33.331478 11.129239 -0.400931
34.800919 11.209645 0.705628
36.196381 11.077176 2.020424
36.309967 16.278839 1.359302
36.948921 13.610269 2.359555
37.424633 11.129517 3.384004
38.454811 11.08395 4.837113
39.344952 10.975943 6.457502
40.019257 10.993119 8.131495
40.084522 12.970192 8.74171
40.449383 10.888995 9.773938
40.297375 1.807937 17.459362
40.263277 0.985263 15.039099
40.348786 1.894598 14.104999
40.43389 2.098714 14.960838
40.195854 0.11516 15.921501
40.263277 0.985263 15.039099
19.244808 10.449502 -7.587063
18.963141 11.949286 -7.839666
37.446321 0.305461 7.546704
37.966583 0.395359 8.332457
18.076727 23.18891 -9.597517
17.705835 21.836077 -9.683458
22.272208 21.386215 -7.361147
21.598248 21.666064 -7.657502
22.916168 21.08422 -7.073909
22.346992 19.690006 -7.078438
22.272208 21.386215 -7.361147
27.919155 20.947527 -5.105818
27.712049 22.564613 -5.384259
28.479411 22.434105 -5.023544
34.069533 18.01293 -0.947005
33.407725 18.255713 -1.539174
34.758865 17.772324 -0.327252
34.380198 16.564501 -0.572715
34.069533 18.01293 -0.947005
37.982191 18.143776 4.349266
37.94079 19.173588 4.82454
38.327356 16.763383 4.733812
37.955986 17.051093 3.946877
37.982191 18.143776 4.349266
21.890949 6.45868 -5.426152
22.457701 6.228333 -5.030169
39.709903 1.279738 11.650658
39.944515 2.460662 11.586729
39.979301 1.471454 12.450049
39.353775 1.043481 10.7713
39.709903 1.279738 11.650658
27.634358 3.506136 -1.789748
27.324632 4.860795 -2.282598
28.047584 4.81455 -1.871022
27.983949 2.258794 -1.318465
27.634358 3.506136 -1.789748
35.573057 -0.058823 5.343413
35.962196 1.184519 5.262453
36.22014 0.075421 6.014736
34.912265 -0.189831 4.669973
35.573057 -0.058823 5.343413
18.235483 16.78093 -8.751845
18.017823 18.423471 -9.059466
18.691876 16.520067 -8.370656
18.455178 15.124483 -8.43283
18.235483 16.78093 -8.751845
19.696109 22.426831 -8.595136
19.118749 22.672675 -8.910956
19.61794 24.171356 -8.892726
25.03594 20.126327 -6.149777
24.293804 20.478758 -6.478759
31.180378 18.554279 -3.091078
30.434832 18.6925 -3.559105
30.913113 20.105074 -3.444227
36.315016 19.998179 1.682793
36.717106 19.878824 2.403879
36.138403 18.824013 1.248725
36.315016 19.998179 1.682793
36.49803 17.45525 1.66393
35.95034 17.647602 0.944098
36.138403 18.824013 1.248725
40.227947 12.82215 9.650472
39.991675 13.863851 9.164732
40.410377 11.781551 10.166586
40.266953 11.929593 9.257824
40.227947 12.82215 9.650472
40.569223 10.778481 10.62367
40.410377 11.781551 10.166586
40.157521 2.205755 18.205814
40.365563 2.864471 17.322131
24.780849 4.131248 -3.458156
24.445851 5.477901 -3.8723
25.153533 5.255979 -3.452349
40.859598 7.838299 14.154091
40.875721 7.905644 13.351762
40.853342 8.720378 13.519005
40.821831 7.191556 14.701342
40.859598 7.838299 14.154091
40.747495 6.433964 15.467396
40.807642 6.265974 14.752901
40.821831 7.191556 14.701342
23.094508 5.990476 -4.665749
22.457701 6.228333 -5.030169
22.741432 7.418812 -5.027568
40.196043 1.716763 13.28469
40.366656 2.830213 13.20643
40.348786 1.894598 14.104999
39.979301 1.471454 12.450049
40.196043 1.716763 13.28469
31.260326 2.124967 0.802709
32.063437 2.093237 1.405115
36.839603 0.24318 6.745439
37.215998 1.381046 6.735041
37.446321 0.305461 7.546704
36.22014 0.075421 6.014736
36.839603 0.24318 6.745439
17.861896 20.088614 -9.366761
17.407404 20.417893 -9.745958
17.705835 21.836077 -9.683458
18.316254 19.841656 -8.996966
18.017823 18.423471 -9.059466
17.861896 20.088614 -9.366761
20.94482 21.88585 -7.958706
20.295738 22.178542 -8.272495
20.844381 23.63282 -8.263116
21.049605 20.211786 -7.666881
20.94482 21.88585 -7.958706
21.598248 21.666064 -7.657502
26.989357 22.820365 -5.751608
27.712049 22.564613 -5.384259
26.400769 21.314044 -5.801152
26.989357 22.820365 -5.751608
26.54476 19.613063 -5.490054
25.793735 19.849072 -5.824673
26.400769 21.314044 -5.801152
32.69066 18.333005 -2.063925
31.957698 18.463272 -2.609085
32.973801 16.882399 -1.717219
32.69066 18.333005 -2.063925
33.407725 18.255713 -1.539174
37.148457 18.531573 2.765444
36.717106 19.878824 2.403879
37.519272 17.241434 3.209698
37.056908 17.341521 2.412811
37.148457 18.531573 2.765444
37.864437 15.861041 3.594244
37.519272 17.241434 3.209698
37.955986 17.051093 3.946877
25.179468 2.773338 -3.039351
25.862564 2.602203 -2.591631
20.176139 9.962162 -6.824922
19.670116 10.16953 -7.180841
19.909421 11.350594 -7.092602
20.452292 8.394509 -6.511651
20.176139 9.962162 -6.824922
20.691598 9.575572 -6.423412
20.810151 6.981856 -6.209742
20.452292 8.394509 -6.511651
21.322512 6.634306 -5.785229
21.536188 7.832293 -5.751065
21.890949 6.45868 -5.426152
20.810151 6.981856 -6.209742
21.322512 6.634306 -5.785229
32.860626 2.107794 1.990384
32.063437 2.093237 1.405115
32.530833 3.2997 1.362601
33.140699 0.827788 2.683337
32.860626 2.107794 1.990384
33.608095 2.034251 2.640821
33.443176 -0.40496 3.347231
33.140699 0.827788 2.683337
20.167896 25.700013 -8.86586
19.61794 24.171356 -8.892726
20.767879 25.406064 -8.560377
20.167896 25.700013 -8.86586
20.844381 23.63282 -8.263116
20.767879 25.406064 -8.560377
29.20041 22.141108 -4.606891
28.479411 22.434105 -5.023544
29.940935 21.854245 -4.190466
29.427041 20.530156 -4.328679
29.20041 22.141108 -4.606891
30.626895 21.677524 -3.739556
29.940935 21.854245 -4.190466
30.913113 20.105074 -3.444227
30.626895 21.677524 -3.739556
38.224787 18.881133 5.678769
37.94079 19.173588 4.82454
38.590745 17.79504 5.9853
38.224787 18.881133 5.678769
38.473349 0.525608 9.14635
37.966583 0.395359 8.332457
38.329481 1.573576 8.350199
38.93434 0.76092 9.959677
39.255682 1.986385 9.975715
39.353775 1.043481 10.7713
38.473349 0.525608 9.14635
38.93434 0.76092 9.959677
19.244808 10.449502 -7.587063
19.670116 10.16953 -7.180841
26.593041 4.923132 -2.65552
27.006266 6.231546 -2.736794
27.324632 4.860795 -2.282598
26.199968 3.730853 -2.619764
25.881603 5.101604 -3.073961
26.593041 4.923132 -2.65552
25.862564 2.602203 -2.591631
26.199968 3.730853 -2.619764
30.39819 2.147953 0.231323
30.871507 3.308129 0.205947
31.260326 2.124967 0.802709
29.57106 2.147476 -0.322965
30.39819 2.147953 0.231323
28.745029 2.211863 -0.829332
29.18334 3.395503 -0.871806
29.57106 2.147476 -0.322965
27.983949 2.258794 -1.318465
28.745029 2.211863 -0.829332
34.198793 -0.337847 4.041294
34.601641 0.902259 3.962452
34.912265 -0.189831 4.669973
33.443176 -0.40496 3.347231
34.198793 -0.337847 4.041294
18.717227 13.602114 -8.141225
18.455178 15.124483 -8.43283
19.157483 13.210791 -7.750081
18.963141 11.949286 -7.839666
18.717227 13.602114 -8.141225
18.600454 22.961999 -9.256403
18.076727 23.18891 -9.597517
18.678622 21.217474 -8.958814
18.600454 22.961999 -9.256403
19.118749 22.672675 -8.910956
23.578212 20.821462 -6.792467
22.916168 21.08422 -7.073909
23.706544 19.045307 -6.477491
23.578212 20.821462 -6.792467
24.293804 20.478758 -6.478759
25.179931 18.425347 -5.838679
25.03594 20.126327 -6.149777
25.793735 19.849072 -5.824673
31.479417 17.050697 -2.723963
31.180378 18.554279 -3.091078
31.957698 18.463272 -2.609085
35.330122 17.67013 0.287967
34.758865 17.772324 -0.327252
35.689749 16.301367 0.703171
35.330122 17.67013 0.287967
35.95034 17.647602 0.944098
38.921509 16.616456 6.396577
38.684324 16.677482 5.547479
38.590745 17.79504 5.9853
39.280294 15.370921 6.834647
38.921509 16.616456 6.396577
39.559773 14.185115 7.333079
39.294565 14.313092 6.457187
39.280294 15.370921 6.834647
39.815012 14.106568 8.226124
39.991675 13.863851 9.164732
39.829283 13.048739 7.848664
39.559773 14.185115 7.333079
39.815012 14.106568 8.226124
40.691941 9.726596 11.248774
40.5721 9.83711 10.399043
40.569223 10.778481 10.62367
40.779264 9.727844 12.095039
40.782141 8.786473 11.870412
40.691941 9.726596 11.248774
40.798994 9.582794 12.973694
40.779264 9.727844 12.095039
40.853342 8.720378 13.519005
40.798994 9.582794 12.973694
40.609993 5.752153 16.215637
40.747495 6.433964 15.467396
40.583528 4.714694 16.351927
40.609993 5.752153 16.215637
40.512518 3.664917 16.410356
40.662296 4.458605 15.577383
40.583528 4.714694 16.351927
40.44433 2.608383 16.547587
40.512518 3.664917 16.410356
40.365563 2.864471 17.322131
40.106093 1.078439 18.34949
40.157521 2.205755 18.205814
40.19829 0.737754 17.566807
40.106093 1.078439 18.34949
40.223793 0.428476 16.784595
40.322878 1.498658 16.677149
40.19829 0.737754 17.566807
40.195854 0.11516 15.921501
40.223793 0.428476 16.784595
23.725704 5.767063 -4.270627
24.098387 6.891794 -4.26482
24.445851 5.477901 -3.8723
23.094508 5.990476 -4.665749
23.725704 5.767063 -4.270627
24.780849 4.131248 -3.458156
25.179468 2.773338 -3.039351
3 0 35 33
3 1 38 36
3 2 41 39
3 3 121 123
3 123 122 42
3 121 122 123
3 3 124 125
3 4 126 127
3 5 46 44
3 129 128 47
3 130 49 131
3 132 51 133
3 134 53 135
3 136 135 51
3 134 135 136
3 6 137 139
3 137 54 138
3 137 138 139
3 6 56 54
3 6 58 56
3 140 60 141
3 142 62 143
3 144 143 60
3 142 143 144
3 7 145 146
3 7 147 149
3 147 64 148
3 147 148 149
3 7 66 64
3 8 69 67
3 10 70 32
3 10 71 70
3 11 73 72
3 151 150 34
3 12 76 74
3 14 77 37
3 14 78 77
3 16 82 80
3 18 83 40
3 18 84 83
3 9 85 68
3 152 86 153
3 154 153 43
3 152 153 154
3 156 155 86
3 19 89 87
3 21 157 159
3 159 158 45
3 157 158 159
3 21 160 161
3 13 90 75
3 17 91 81
3 162 92 163
3 164 163 48
3 162 163 164
3 166 165 92
3 22 167 168
3 22 169 171
3 169 93 170
3 169 170 171
3 15 172 174
3 172 94 173
3 172 173 174
3 23 95 50
3 23 96 95
3 23 97 96
3 24 98 52
3 24 99 98
3 175 100 176
3 25 101 55
3 25 102 101
3 25 103 102
3 26 104 57
3 26 105 104
3 177 106 178
3 179 178 79
3 177 178 179
3 27 107 59
3 27 108 107
3 27 109 108
3 28 110 61
3 28 111 110
3 29 180 181
3 29 182 183
3 29 184 186
3 184 112 185
3 184 185 186
3 30 113 63
3 30 114 113
3 30 115 114
3 31 116 65
3 31 117 116
3 187 118 188
3 189 119 190
3 191 190 118
3 189 190 191
3 193 192 119
3 194 120 195
3 20 196 198
3 198 197 88
3 196 197 198
3 199 32 200
3 201 200 8
3 199 200 201
3 202 32 203
3 204 10 205
3 206 205 32
3 204 205 206
3 33 34 11
3 35 34 33
3 35 207 209
3 209 208 34
3 207 208 209
3 36 37 12
3 38 37 36
3 38 14 37
3 39 40 16
3 41 40 39
3 41 18 40
3 42 43 9
3 210 43 211
3 212 211 42
3 210 211 212
3 214 213 43
3 44 45 19
3 46 45 44
3 46 21 45
3 216 215 13
3 47 48 17
3 217 48 218
3 219 218 47
3 217 218 219
3 221 220 48
3 49 222 224
3 222 223 224
3 49 225 227
3 225 22 226
3 225 226 227
3 228 50 229
3 230 229 15
3 228 229 230
3 51 231 233
3 231 50 232
3 231 232 233
3 51 23 50
3 51 52 23
3 53 52 51
3 53 24 52
3 54 234 235
3 54 236 237
3 54 238 240
3 238 55 239
3 238 239 240
3 56 55 54
3 56 25 55
3 56 57 25
3 58 57 56
3 58 26 57
3 241 59 242
3 60 243 245
3 243 59 244
3 243 244 245
3 60 27 59
3 60 61 27
3 62 61 60
3 62 28 61
3 246 29 247
3 248 63 249
3 250 249 29
3 248 249 250
3 64 251 253
3 251 63 252
3 251 252 253
3 64 30 63
3 64 65 30
3 66 65 64
3 66 31 65
3 255 254 20
3 67 68 2
3 69 68 67
3 69 9 68
3 32 69 8
3 70 69 32
3 70 9 69
3 70 42 9
3 71 42 70
3 71 3 42
3 72 256 258
3 258 257 4
3 256 257 258
3 73 259 261
3 261 260 72
3 259 260 261
3 73 262 263
3 34 73 11
3 264 73 265
3 266 265 34
3 264 265 266
3 268 267 73
3 74 75 5
3 76 75 74
3 76 13 75
3 37 76 12
3 77 76 37
3 77 13 76
3 77 269 271
3 271 270 13
3 269 270 271
3 78 272 274
3 274 273 77
3 272 273 274
3 78 275 276
3 277 15 278
3 279 15 280
3 282 281 15
3 283 6 284
3 285 79 286
3 287 286 6
3 285 286 287
3 288 79 289
3 291 290 79
3 292 7 293
3 295 294 7
3 80 81 1
3 82 81 80
3 82 17 81
3 40 82 16
3 83 82 40
3 83 17 82
3 83 47 17
3 84 47 83
3 84 296 298
3 298 297 47
3 296 297 298
3 68 41 2
3 85 41 68
3 85 18 41
3 43 85 9
3 86 85 43
3 86 18 85
3 86 84 18
3 299 84 300
3 301 300 86
3 299 300 301
3 303 302 84
3 305 304 4
3 87 88 0
3 89 88 87
3 89 20 88
3 45 89 19
3 306 89 307
3 308 307 45
3 306 307 308
3 309 20 310
3 311 310 89
3 309 310 311
3 313 312 20
3 75 46 5
3 90 46 75
3 90 21 46
3 314 90 315
3 316 315 13
3 314 315 316
3 317 90 318
3 319 21 320
3 321 320 90
3 319 320 321
3 323 322 21
3 81 38 1
3 91 38 81
3 91 14 38
3 48 91 17
3 92 91 48
3 92 14 91
3 92 78 14
3 324 78 325
3 326 325 92
3 324 325 326
3 328 327 78
3 93 329 330
3 93 331 333
3 331 4 332
3 331 332 333
3 334 49 335
3 94 336 338
3 336 49 337
3 336 337 338
3 94 22 49
3 50 94 15
3 95 94 50
3 95 22 94
3 95 93 22
3 96 93 95
3 96 4 93
3 96 72 4
3 97 72 96
3 97 11 72
3 52 97 23
3 98 97 52
3 98 11 97
3 98 33 11
3 99 33 98
3 99 0 33
3 339 53 340
3 100 341 343
3 341 53 342
3 341 342 343
3 100 24 53
3 55 344 346
3 344 100 345
3 344 345 346
3 101 100 55
3 101 24 100
3 101 99 24
3 102 99 101
3 102 0 99
3 102 87 0
3 103 87 102
3 103 19 87
3 57 103 25
3 104 103 57
3 104 19 103
3 104 44 19
3 105 44 104
3 105 5 44
3 79 58 6
3 106 58 79
3 106 26 58
3 59 347 349
3 347 106 348
3 347 348 349
3 107 106 59
3 107 26 106
3 107 105 26
3 108 105 107
3 108 5 105
3 108 74 5
3 109 74 108
3 109 12 74
3 61 109 27
3 110 109 61
3 110 12 109
3 110 36 12
3 111 36 110
3 111 1 36
3 350 62 351
3 112 352 354
3 352 62 353
3 352 353 354
3 112 28 62
3 63 112 29
3 113 112 63
3 113 28 112
3 113 111 28
3 114 111 113
3 114 1 111
3 114 80 1
3 115 80 114
3 115 16 80
3 65 115 30
3 116 115 65
3 116 16 115
3 116 39 16
3 117 39 116
3 117 2 39
3 355 66 356
3 357 356 7
3 355 356 357
3 358 66 359
3 360 31 361
3 362 361 66
3 360 361 362
3 118 363 364
3 118 365 367
3 365 31 366
3 365 366 367
3 118 117 31
3 119 117 118
3 119 2 117
3 119 67 2
3 368 67 369
3 370 369 119
3 368 369 370
3 371 8 372
3 373 372 67
3 371 372 373
3 374 8 375
3 377 376 8
3 378 10 379
3 380 10 381
3 382 71 383
3 384 383 10
3 382 383 384
3 120 385 387
3 385 71 386
3 385 386 387
3 120 3 71
3 388 120 389
3 390 120 391
3 392 3 393
3 394 393 120
3 392 393 394
3 396 395 3
3 88 35 0
3 397 35 398
3 399 398 88
3 397 398 399
3 401 400 35
3 403 402 20
