ply
format ascii 1.0
element vertex 538
property float x
property float y
property float z
element face 601
property list uchar int vertex_index
end_header
27.88249 -51.488163 22.418795
32.03632 -46.313946 2.848225
25.181982 -63.198639 5.220664
30.473499 -49.771957 13.076292
28.759089 -54.314346 4.617265
26.557398 -57.894836 14.693075
34.409782 -42.123169 10.690858
23.197321 -59.401428 24.048048
18.126045 -58.624001 31.275383
33.449738 -41.561481 -6.668163
33.373386 -42.90332 -13.601711
30.897354 -49.327156 -4.97667
28.102551 -58.23151 -4.486025
22.161306 -66.345245 15.38036
35.36631 -38.881149 0.518288
29.41334 -50.786205 17.970602
28.592932 -53.67477 13.790315
27.288977 -54.820549 18.849569
32.756821 -44.025486 -2.000645
32.130287 -45.416927 -5.6668
31.253023 -47.924278 -1.173066
26.982544 -58.811298 5.167779
28.278776 -56.313053 0.146767
26.649162 -60.759274 0.300434
20.689924 -63.274128 24.279385
22.732786 -63.150143 19.943859
20.288153 -66.966393 19.8615
33.204086 -44.289604 6.746021
34.970131 -40.642727 5.493009
33.730171 -42.524506 1.752104
34.241039 -40.388474 -3.139416
34.040043 -43.068382 -17.2066
31.328461 -48.207134 8.065269
30.450722 -50.07671 3.724384
29.533957 -52.160542 8.983748
27.672958 -56.398506 9.775071
25.846378 -60.577957 10.193383
32.485699 -45.825512 11.820914
25.587397 -55.478523 23.300623
23.345854 -55.58173 27.326441
20.845013 -59.351677 27.882378
33.100403 -42.560341 -10.006482
32.082386 -46.348438 -9.447665
29.787685 -52.010712 -0.289427
29.590221 -53.695114 -4.74908
29.824432 -54.966801 -9.120174
25.053951 -59.045673 19.555435
24.471151 -62.148918 15.150663
23.717495 -65.165901 10.276885
21.462564 -69.389992 10.112025
36.212406 -38.504616 9.459366
28.736103 -51.106037 20.307314
28.395607 -52.712029 18.426554
27.6353 -53.113667 20.742941
32.38982 -45.209572 0.301034
31.967396 -46.024849 -1.598413
31.575012 -47.200333 0.815197
26.119856 -60.951584 5.232709
26.798853 -59.791786 2.653439
25.858818 -62.158142 2.717435
25.639484 -63.287445 0.378612
24.841087 -64.551201 2.850424
20.529753 -65.163689 22.121494
32.563919 -45.396576 4.816173
33.419666 -43.554409 4.157205
32.90823 -44.329056 2.200301
33.208797 -43.266773 -0.28913
30.919678 -49.050636 10.546816
30.408516 -50.207996 8.381431
29.97526 -51.040546 11.071548
27.623068 -55.663651 14.324915
28.087557 -55.12635 11.867941
27.123903 -57.208885 12.366598
26.791348 -58.420429 10.056858
26.1453 -59.378345 12.505647
31.066553 -48.256462 15.010644
31.496387 -47.734596 12.587518
31.891314 -47.061523 9.990712
24.586147 -53.523724 26.998264
19.478399 -56.761757 31.048695
20.814457 -57.08815 29.509375
19.56311 -58.977528 29.657728
19.54817 -61.248802 27.952229
18.297436 -60.671711 29.782911
33.210838 -42.091011 -8.274493
31.513727 -47.3419 -5.386721
32.043388 -45.913734 -7.599627
31.478485 -47.914127 -7.34429
31.586897 -48.357826 -9.34177
30.960705 -49.824585 -7.218238
29.599363 -52.189312 4.312162
30.06706 -51.071472 1.809088
29.301073 -53.11821 2.091855
28.165508 -57.254055 -2.153021
28.956207 -54.948971 -2.384809
28.899969 -55.843697 -4.553214
29.645582 -54.441776 -6.957314
28.918768 -56.671711 -6.682129
24.383457 -57.546837 23.648479
25.388813 -57.158466 21.572193
24.202528 -59.302673 21.81023
22.520903 -64.714142 17.674274
23.66449 -62.702179 17.61812
23.337185 -64.372803 15.086377
24.084679 -63.70142 12.802189
22.976078 -65.821831 12.893865
34.937828 -41.000256 12.670247
35.942551 -39.023914 11.957237
35.337772 -40.29361 10.044924
35.15126 -39.862427 3.016033
35.785599 -38.87582 4.696416
36.144768 -37.05088 -0.184023
35.576752 -37.744205 -2.154844
33.835949 -40.902573 -4.96288
34.542767 -39.097637 -5.572425
34.130558 -39.699703 -7.176671
30.032433 -50.229916 15.60285
29.55986 -51.634472 13.560315
29.009008 -52.295315 15.891614
28.030106 -54.223434 16.378128
26.928076 -56.419529 16.792324
30.493095 -48.770229 17.456223
33.09943 -42.809177 -4.449766
32.757164 -43.544811 -6.117002
32.402336 -44.699036 -3.842277
31.696793 -46.667633 -3.537965
31.036873 -48.583954 -2.968326
27.876877 -56.566517 4.864453
28.526299 -55.198452 2.386975
27.675882 -57.469704 2.633521
27.468784 -58.536415 0.388858
27.318892 -59.640644 -2.074916
27.315126 -60.511124 -4.632484
26.436592 -61.991863 -2.075879
22.065151 -61.2995 24.105967
23.074295 -61.303257 21.899658
21.843153 -63.23048 22.091276
21.562073 -65.079437 19.912224
21.20142 -66.81813 17.720352
33.82394 -43.210583 8.711473
34.670372 -41.514317 8.058107
34.099991 -42.431694 5.981092
34.328918 -41.638985 3.654596
34.553768 -40.713512 1.192199
34.801083 -39.600906 -1.398527
33.979748 -41.521832 -0.649508
33.505157 -42.150826 -2.681058
32.945705 -44.910931 -13.389242
33.280804 -45.080322 -15.270889
31.65896 -47.36808 5.39098
31.229485 -48.187794 3.199863
30.859177 -49.16642 5.7988
29.9849 -51.200169 6.35598
29.117609 -53.254341 6.782555
29.048916 -53.039577 11.453352
28.618608 -54.229828 9.405051
28.243116 -55.357269 7.152933
27.338839 -57.556713 7.374288
26.41507 -59.737766 7.748748
25.443991 -62.012047 7.823333
32.872761 -45.092854 9.176329
32.21941 -46.317177 7.309988
26.951611 -51.568302 24.5194
26.768702 -53.356003 22.963686
25.787264 -53.541862 24.936985
24.583097 -55.511524 25.365265
23.385437 -57.470081 25.689859
22.114717 -55.373871 29.057556
22.119587 -57.541473 27.585403
22.063883 -59.532684 25.971697
20.861414 -61.360992 26.079279
33.135853 -42.89138 -11.677826
32.630596 -43.946789 -7.961556
32.605293 -44.3512 -9.710897
32.696949 -44.722195 -11.491427
32.227291 -46.811134 -11.371207
30.82107 -49.106674 1.261634
30.512604 -49.967323 -0.698046
30.328341 -50.742004 -2.762786
29.06691 -54.101727 -0.217705
29.628977 -52.905994 -2.571822
30.259054 -51.497097 -4.920266
30.32128 -52.11837 -7.050738
26.508072 -55.135277 21.217255
26.155546 -56.940891 19.312677
25.830467 -58.581028 17.201342
23.942516 -61.105534 19.725735
24.766827 -60.70528 17.321779
25.59054 -59.924557 14.878469
25.160204 -61.505356 12.627895
24.792213 -62.87495 10.401901
24.523935 -64.093559 7.792337
19.884388 -68.849098 17.438011
20.96492 -68.343376 15.185879
20.577124 -69.989502 12.528157
21.890675 -67.807037 12.720992
22.650238 -67.213715 10.370509
23.397835 -66.47834 7.74351
24.15626 -65.485542 5.336138
35.61541 -39.580559 7.360206
34.978313 -38.559555 -3.922264
28.406861 -50.547436 22.238417
27.952388 -50.61355 23.264719
28.309297 -51.2971 21.363055
28.833667 -50.356373 21.182676
28.406861 -50.547436 22.238417
33.330288 -41.826246 -7.471328
33.512751 -41.178663 -8.498054
33.632201 -40.913898 -7.694889
28.146699 -58.59951 -5.706948
28.554808 -57.81961 -6.805
28.510659 -57.451611 -5.584077
35.693922 -38.397457 1.397622
35.586397 -38.888096 2.646494
35.258785 -39.371788 1.767161
35.755539 -37.966014 0.167132
36.083151 -37.482322 1.046466
35.693922 -38.397457 1.397622
33.632201 -40.913898 -7.694889
33.972611 -39.983009 -7.949143
33.790148 -40.630592 -6.922417
33.686183 -42.026629 -14.500208
33.549955 -42.044191 -13.587044
29.953218 -49.778217 17.713413
30.139447 -48.990154 18.650829
29.59957 -49.998142 18.908018
25.567009 -63.843281 -0.970703
25.151134 -64.459423 0.29003
32.897419 -46.067413 -14.281257
33.113254 -44.995627 -14.330065
32.729869 -45.982717 -13.340433
32.777014 -45.180531 12.75692
32.266903 -46.116422 13.152645
32.964168 -44.90695 11.489497
32.777014 -45.180531 12.75692
32.67923 -45.459183 10.498622
33.157699 -44.540621 10.167205
32.964168 -44.90695 11.489497
25.796996 -52.559169 25.742126
26.369438 -52.555082 24.728192
26.379169 -51.572389 25.533333
21.442811 -55.109047 29.911289
22.066349 -54.252926 29.696329
19.486404 -62.211874 27.131225
18.81064 -62.041708 28.112908
26.379169 -51.572389 25.533333
26.92747 -50.699763 25.311551
33.350907 -41.80336 -10.927499
33.358317 -41.672324 -10.15149
33.118128 -42.72586 -10.842154
33.368631 -41.968879 -11.763171
33.350907 -41.80336 -10.927499
31.66692 -48.637989 -10.28954
31.329541 -49.405359 -9.319405
30.14109 -53.852257 -9.134225
30.051665 -53.589744 -8.052796
29.735007 -54.704288 -8.038744
30.271813 -54.114157 -10.267647
30.14109 -53.852257 -9.134225
29.933358 -55.297277 -10.252202
30.271813 -54.114157 -10.267647
27.320712 -60.942015 -5.779964
26.845053 -61.749197 -4.642779
19.765577 -69.626019 16.13328
19.21582 -69.780307 17.286463
20.305844 -69.373158 15.007214
20.424654 -68.596237 16.311945
19.765577 -69.626019 16.13328
21.019844 -69.689747 11.320091
20.368679 -70.792008 11.147945
20.811399 -70.492253 9.939879
23.238684 -67.13787 6.399528
22.825378 -67.604953 7.665204
23.617897 -66.641471 5.195842
23.777048 -65.981941 6.539824
23.238684 -67.13787 6.399528
23.995278 -66.136966 4.079235
23.617897 -66.641471 5.195842
36.486156 -37.90119 10.423412
36.351229 -38.160839 11.672347
36.077478 -38.764265 10.708301
36.619089 -37.600378 9.105346
36.486156 -37.90119 10.423412
36.119095 -38.33056 5.720731
36.204662 -37.947826 4.447486
34.885866 -38.210884 -5.928061
34.644272 -38.57164 -6.660322
34.200648 -42.043068 -17.195133
33.850819 -43.060074 -16.307493
29.260951 -50.158058 20.076374
28.833667 -50.356373 21.182676
29.074722 -50.946121 19.138958
29.59957 -49.998142 18.908018
29.260951 -50.158058 20.076374
24.751936 -65.091301 1.525936
25.151134 -64.459423 0.29003
25.240285 -63.919323 1.614518
19.902079 -65.164479 23.212738
20.609839 -64.218908 23.20044
19.982165 -64.219698 24.291684
19.837851 -66.094292 22.090194
19.902079 -65.164479 23.212738
19.717052 -66.995644 20.960197
20.408953 -66.065041 20.991497
19.837851 -66.094292 22.090194
31.55733 -47.331897 14.747509
31.272194 -47.610655 15.99367
31.772247 -47.070965 13.535946
31.55733 -47.331897 14.747509
31.28147 -47.995529 13.799081
31.991043 -46.780054 12.204216
32.266903 -46.116422 13.152645
31.772247 -47.070965 13.535946
24.579911 -52.520861 27.652556
25.196438 -52.5501 26.772765
23.960279 -53.50527 27.853707
24.579911 -52.520861 27.652556
23.340133 -54.534273 28.017795
23.966 -54.552727 27.162352
23.960279 -53.50527 27.853707
20.146428 -56.924954 30.279035
20.792681 -55.966186 30.137198
20.124652 -55.80299 30.906858
18.185272 -61.753163 29.02825
18.81064 -62.041708 28.112908
18.922803 -60.960256 28.86757
33.413534 -41.437658 -9.285495
33.512751 -41.178663 -8.498054
33.15562 -42.325676 -9.140487
33.358317 -41.672324 -10.15149
33.413534 -41.437658 -9.285495
31.016445 -50.138739 -8.257639
31.329541 -49.405359 -9.319405
31.273801 -49.091206 -8.280004
28.993963 -57.030978 -7.882586
29.446795 -56.178522 -9.101609
29.3716 -55.819256 -7.901152
28.993963 -57.030978 -7.882586
28.554808 -57.81961 -6.805
21.254877 -70.171166 8.680802
20.811399 -70.492253 9.939879
21.857742 -69.060779 8.849462
21.254877 -70.171166 8.680802
35.44019 -40.012085 12.313742
35.710487 -39.339224 13.229321
35.208126 -40.327394 13.585826
35.903566 -38.394792 3.486686
35.468429 -39.369124 3.856225
35.586397 -38.888096 2.646494
36.204662 -37.947826 4.447486
35.903566 -38.394792 3.486686
36.465858 -36.567445 0.693335
36.083151 -37.482322 1.046466
36.520122 -36.104248 -0.557975
36.465858 -36.567445 0.693335
36.217083 -36.523832 -1.477435
36.520122 -36.104248 -0.557975
35.933075 -36.870494 -2.462846
36.217083 -36.523832 -1.477435
35.86076 -37.397543 -1.169434
35.642454 -37.242464 -3.387591
35.933075 -36.870494 -2.462846
34.438167 -38.872673 -7.462445
34.644272 -38.57164 -6.660322
34.336663 -39.39867 -6.374548
34.269396 -39.124436 -8.208229
34.438167 -38.872673 -7.462445
34.269396 -39.124436 -8.208229
33.972611 -39.983009 -7.949143
34.400717 -42.070749 -18.107532
34.294928 -43.01034 -18.236267
30.685674 -48.00201 18.425058
30.139447 -48.990154 18.650829
30.985465 -47.867539 17.216459
30.685674 -48.00201 18.425058
30.779824 -48.513345 16.233434
31.272194 -47.610655 15.99367
30.985465 -47.867539 17.216459
19.382934 -55.58507 31.664053
20.124652 -55.80299 30.906858
18.75899 -56.517044 31.791722
19.382934 -55.58507 31.664053
18.082813 -57.448166 31.905065
18.802222 -57.692879 31.162039
18.75899 -56.517044 31.791722
26.405786 -62.489567 -3.364477
26.845053 -61.749197 -4.642779
26.875859 -61.251494 -3.354182
25.965563 -63.19549 -2.197948
26.038038 -62.639654 -0.848634
25.567009 -63.843281 -0.970703
26.405786 -62.489567 -3.364477
25.965563 -63.19549 -2.197948
33.303649 -43.981348 -14.398814
33.51749 -42.977542 -14.505049
33.159546 -43.907125 -13.495476
33.471199 -44.066044 -15.339638
33.303649 -43.981348 -14.398814
33.113254 -44.995627 -14.330065
33.660424 -44.074352 -16.238745
33.850819 -43.060074 -16.307493
33.471199 -44.066044 -15.339638
33.10442 -46.13059 -15.330156
32.897419 -46.067413 -14.281257
33.505342 -45.140236 -16.310312
33.10442 -46.13059 -15.330156
33.884962 -44.134266 -17.278168
33.660424 -44.074352 -16.238745
33.505342 -45.140236 -16.310312
34.294928 -43.01034 -18.236267
33.884962 -44.134266 -17.278168
34.742498 -41.19405 13.963883
35.208126 -40.327394 13.585826
34.491949 -41.848997 12.922319
34.742498 -41.19405 13.963883
34.227926 -42.410454 11.932624
34.673805 -41.561712 11.680553
34.491949 -41.848997 12.922319
33.92621 -43.055779 10.92447
34.227926 -42.410454 11.932624
33.633289 -43.599486 9.934777
34.116861 -42.666876 9.701166
33.92621 -43.055779 10.92447
33.34835 -44.151719 8.943901
33.633289 -43.599486 9.934777
33.157699 -44.540621 10.167205
25.186706 -53.532793 25.967624
25.796996 -52.559169 25.742126
25.196438 -52.5501 26.772765
22.724564 -54.430343 28.883353
22.066349 -54.252926 29.696329
22.730286 -55.477801 28.191999
23.340133 -54.534273 28.017795
22.724564 -54.430343 28.883353
21.464587 -56.23101 29.283465
21.442811 -55.109047 29.911289
20.792681 -55.966186 30.137198
20.143026 -62.267969 26.19475
20.204792 -61.304897 27.015754
19.486404 -62.211874 27.131225
20.057282 -63.224537 25.294803
20.775669 -62.31756 25.179332
20.143026 -62.267969 26.19475
19.982165 -64.219698 24.291684
20.057282 -63.224537 25.294803
17.406699 -58.263226 32.069077
18.082813 -57.448166 31.905065
17.462069 -59.419663 31.373931
17.406699 -58.263226 32.069077
17.547764 -60.443517 30.627695
18.211741 -59.647856 30.529147
17.462069 -59.419663 31.373931
17.566662 -61.491524 29.869393
17.547764 -60.443517 30.627695
18.185272 -61.753163 29.02825
17.566662 -61.491524 29.869393
27.486949 -50.65362 24.315022
26.92747 -50.699763 25.311551
27.417051 -51.528233 23.469098
27.952388 -50.61355 23.264719
27.486949 -50.65362 24.315022
33.431188 -42.038221 -12.625101
33.368631 -41.968879 -11.763171
33.25462 -42.89735 -12.639768
33.549955 -42.044191 -13.587044
33.431188 -42.038221 -12.625101
32.370663 -46.932819 -12.331416
32.729869 -45.982717 -13.340433
32.586498 -45.861033 -12.380225
31.987118 -47.864643 -11.304258
31.907094 -47.58448 -10.356489
31.66692 -48.637989 -10.28954
32.370663 -46.932819 -12.331416
31.987118 -47.864643 -11.304258
30.696733 -51.285631 -8.173889
31.016445 -50.138739 -8.257639
30.640993 -50.971477 -7.134488
30.389514 -52.428041 -8.099507
29.983431 -53.280073 -7.004026
30.051665 -53.589744 -8.052796
30.696733 -51.285631 -8.173889
30.389514 -52.428041 -8.099507
29.933358 -55.297277 -10.252202
29.446795 -56.178522 -9.101609
27.752986 -59.739317 -5.780177
28.146699 -58.59951 -5.706948
27.708838 -59.371317 -4.559254
27.752986 -59.739317 -5.780177
27.320712 -60.942015 -5.779964
19.579921 -67.921642 19.787245
19.717052 -66.995644 20.960197
19.378039 -68.862995 18.575501
19.21582 -69.780307 17.286463
20.086271 -67.907746 18.649755
19.579921 -67.921642 19.787245
19.378039 -68.862995 18.575501
19.901645 -71.003242 12.428919
20.368679 -70.792008 11.147945
20.111946 -70.196221 13.678353
19.901645 -71.003242 12.428919
20.771022 -69.166439 13.857018
20.305844 -69.373158 15.007214
20.111946 -70.196221 13.678353
22.451579 -67.972641 8.978703
22.056401 -68.301853 10.241267
21.857742 -69.060779 8.849462
23.024037 -66.846027 9.057009
22.451579 -67.972641 8.978703
22.825378 -67.604953 7.665204
24.337692 -65.669796 2.836378
24.498674 -65.018372 4.093281
23.995278 -66.136966 4.079235
24.751936 -65.091301 1.525936
24.337692 -65.669796 2.836378
36.158495 -38.431469 12.97008
35.710487 -39.339224 13.229321
36.158495 -38.431469 12.97008
36.351229 -38.160839 11.672347
36.034 -38.68293 7.052626
35.700504 -39.228189 6.028311
36.119095 -38.33056 5.720731
36.332498 -38.144959 8.102206
35.913908 -39.042587 8.409786
36.034 -38.68293 7.052626
36.619089 -37.600378 9.105346
36.332498 -38.144959 8.102206
35.343235 -37.650139 -4.271301
35.642454 -37.242464 -3.387591
35.277532 -38.15188 -3.038554
35.103639 -37.941843 -5.102981
34.76054 -38.828596 -4.747345
34.885866 -38.210884 -5.928061
35.343235 -37.650139 -4.271301
35.103639 -37.941843 -5.102981
33.686183 -42.026629 -14.500208
33.51749 -42.977542 -14.505049
34.200648 -42.043068 -17.195133
34.400717 -42.070749 -18.107532
3 0 53 51
3 0 201 202
3 0 203 205
3 203 51 204
3 203 204 205
3 1 56 54
3 2 59 57
3 2 61 59
3 1 65 63
3 1 54 65
3 3 69 67
3 5 72 70
3 5 74 72
3 3 76 75
3 3 67 76
3 8 81 79
3 8 83 81
3 9 206 208
3 206 84 207
3 206 207 208
3 11 87 85
3 11 89 87
3 4 92 90
3 12 95 93
3 12 97 95
3 12 209 211
3 211 210 97
3 209 210 211
3 7 100 98
3 13 103 101
3 13 105 103
3 6 108 106
3 14 212 214
3 214 213 109
3 212 213 214
3 14 215 217
3 215 111 216
3 215 216 217
3 14 112 111
3 9 115 113
3 9 218 220
3 220 219 115
3 218 219 220
3 10 221 222
3 15 118 116
3 17 119 52
3 17 120 119
3 15 223 225
3 223 121 224
3 223 224 225
3 15 116 121
3 18 124 122
3 20 125 55
3 20 126 125
3 21 129 127
3 23 130 58
3 23 131 130
3 23 133 131
3 227 226 60
3 24 136 134
3 26 137 62
3 26 138 137
3 27 141 139
3 29 142 64
3 29 143 142
3 29 145 143
3 18 146 66
3 18 122 146
3 228 148 229
3 230 229 147
3 228 229 230
3 32 151 149
3 34 152 68
3 34 153 152
3 16 154 117
3 35 155 71
3 35 156 155
3 35 157 156
3 36 158 73
3 36 159 158
3 37 231 232
3 37 233 234
3 37 235 237
3 235 160 236
3 235 236 237
3 32 161 77
3 32 149 161
3 238 164 239
3 240 239 162
3 238 239 240
3 39 165 78
3 39 166 165
3 241 167 242
3 40 168 80
3 40 169 168
3 40 170 169
3 244 243 82
3 245 162 246
3 41 247 248
3 41 249 251
3 249 171 250
3 249 250 251
3 19 172 123
3 42 173 86
3 42 174 173
3 42 175 174
3 253 252 88
3 33 176 150
3 43 177 91
3 43 178 177
3 22 179 128
3 44 180 94
3 44 181 180
3 44 182 181
3 45 254 256
3 256 255 96
3 254 255 256
3 45 257 258
3 45 259 260
3 262 261 132
3 38 183 163
3 46 184 99
3 46 185 184
3 25 186 135
3 47 187 102
3 47 188 187
3 47 189 188
3 48 190 104
3 48 191 190
3 263 192 264
3 265 193 266
3 267 266 192
3 265 266 267
3 49 268 270
3 268 194 269
3 268 269 270
3 49 195 194
3 49 196 195
3 271 197 272
3 273 198 274
3 275 274 197
3 273 274 275
3 277 276 198
3 50 278 280
3 280 279 107
3 278 279 280
3 50 281 282
3 28 199 140
3 284 283 110
3 30 200 144
3 286 285 114
3 31 287 288
3 51 52 15
3 53 52 51
3 53 17 52
3 51 289 290
3 51 291 293
3 291 15 292
3 291 292 293
3 54 55 18
3 56 55 54
3 56 20 55
3 57 58 21
3 59 58 57
3 59 23 58
3 59 60 23
3 61 60 59
3 61 294 296
3 296 295 60
3 294 295 296
3 297 62 298
3 299 298 24
3 297 298 299
3 300 62 301
3 302 26 303
3 304 303 62
3 302 303 304
3 63 64 27
3 65 64 63
3 65 29 64
3 65 66 29
3 54 66 65
3 54 18 66
3 67 68 32
3 69 68 67
3 69 34 68
3 70 71 16
3 72 71 70
3 72 35 71
3 72 73 35
3 74 73 72
3 74 36 73
3 75 305 306
3 76 307 309
3 309 308 75
3 307 308 309
3 76 310 312
3 310 37 311
3 310 311 312
3 76 77 37
3 67 77 76
3 67 32 77
3 313 78 314
3 315 78 316
3 317 39 318
3 319 318 78
3 317 318 319
3 79 320 322
3 320 80 321
3 320 321 322
3 81 80 79
3 81 40 80
3 81 82 40
3 83 82 81
3 83 323 325
3 325 324 82
3 323 324 325
3 84 326 327
3 84 328 330
3 328 41 329
3 328 329 330
3 85 86 19
3 87 86 85
3 87 42 86
3 87 88 42
3 89 88 87
3 89 331 333
3 333 332 88
3 331 332 333
3 90 91 33
3 92 91 90
3 92 43 91
3 93 94 22
3 95 94 93
3 95 44 94
3 95 96 44
3 97 96 95
3 97 45 96
3 97 334 336
3 336 335 45
3 334 335 336
3 338 337 97
3 98 99 38
3 100 99 98
3 100 46 99
3 101 102 25
3 103 102 101
3 103 47 102
3 103 104 47
3 105 104 103
3 105 48 104
3 339 49 340
3 342 341 49
3 106 343 345
3 343 107 344
3 343 344 345
3 108 107 106
3 108 50 107
3 109 110 28
3 346 110 347
3 348 347 109
3 346 347 348
3 350 349 110
3 111 351 352
3 111 353 354
3 111 355 356
3 112 357 359
3 359 358 111
3 357 358 359
3 112 360 361
3 113 114 30
3 115 114 113
3 115 362 364
3 364 363 114
3 362 363 364
3 115 365 366
3 368 367 115
3 370 369 31
3 116 117 3
3 118 117 116
3 118 16 117
3 52 118 15
3 119 118 52
3 119 16 118
3 119 70 16
3 120 70 119
3 120 5 70
3 121 371 372
3 121 373 374
3 121 375 377
3 375 75 376
3 375 376 377
3 116 75 121
3 116 3 75
3 378 79 379
3 380 79 381
3 382 8 383
3 384 383 79
3 382 383 384
3 122 123 9
3 124 123 122
3 124 19 123
3 55 124 18
3 125 124 55
3 125 19 124
3 125 85 19
3 126 85 125
3 126 11 85
3 127 128 4
3 129 128 127
3 129 22 128
3 58 129 21
3 130 129 58
3 130 22 129
3 130 93 22
3 131 93 130
3 131 12 93
3 131 132 12
3 133 132 131
3 133 385 387
3 387 386 132
3 385 386 387
3 60 133 23
3 388 133 389
3 390 389 60
3 388 389 390
3 392 391 133
3 134 135 7
3 136 135 134
3 136 25 135
3 62 136 24
3 137 136 62
3 137 25 136
3 137 101 25
3 138 101 137
3 138 13 101
3 139 140 6
3 141 140 139
3 141 28 140
3 64 141 27
3 142 141 64
3 142 28 141
3 142 109 28
3 143 109 142
3 143 14 109
3 143 144 14
3 145 144 143
3 145 30 144
3 66 145 29
3 146 145 66
3 146 30 145
3 146 113 30
3 122 113 146
3 122 9 113
3 147 393 395
3 395 394 10
3 393 394 395
3 148 396 398
3 398 397 147
3 396 397 398
3 148 399 401
3 399 31 400
3 399 400 401
3 402 148 403
3 404 148 405
3 406 31 407
3 408 407 148
3 406 407 408
3 410 409 31
3 149 150 1
3 151 150 149
3 151 33 150
3 68 151 32
3 152 151 68
3 152 33 151
3 152 90 33
3 153 90 152
3 153 4 90
3 117 69 3
3 154 69 117
3 154 34 69
3 71 154 16
3 155 154 71
3 155 34 154
3 155 153 34
3 156 153 155
3 156 4 153
3 156 127 4
3 157 127 156
3 157 21 127
3 73 157 35
3 158 157 73
3 158 21 157
3 158 57 21
3 159 57 158
3 159 2 57
3 411 106 412
3 413 106 414
3 415 6 416
3 417 416 106
3 415 416 417
3 418 6 419
3 420 139 421
3 422 421 6
3 420 421 422
3 160 423 425
3 423 139 424
3 423 424 425
3 160 27 139
3 77 160 37
3 161 160 77
3 161 27 160
3 161 63 27
3 149 63 161
3 149 1 63
3 162 163 0
3 164 163 162
3 164 38 163
3 78 426 428
3 426 164 427
3 426 427 428
3 165 164 78
3 165 38 164
3 165 98 38
3 166 98 165
3 166 7 98
3 167 429 430
3 167 431 433
3 431 39 432
3 431 432 433
3 80 434 436
3 434 167 435
3 434 435 436
3 168 167 80
3 168 39 167
3 168 166 39
3 169 166 168
3 169 7 166
3 169 134 7
3 170 134 169
3 170 24 134
3 82 170 40
3 437 170 438
3 439 438 82
3 437 438 439
3 440 24 441
3 442 441 170
3 440 441 442
3 444 443 24
3 445 8 446
3 447 8 448
3 449 83 450
3 451 450 8
3 449 450 451
3 452 83 453
3 455 454 83
3 162 456 457
3 162 458 460
3 458 0 459
3 458 459 460
3 171 461 462
3 171 463 465
3 463 10 464
3 463 464 465
3 123 84 9
3 172 84 123
3 172 41 84
3 86 172 19
3 173 172 86
3 173 41 172
3 173 171 41
3 174 171 173
3 174 10 171
3 174 147 10
3 175 147 174
3 175 466 468
3 468 467 147
3 466 467 468
3 88 175 42
3 469 175 470
3 471 470 88
3 469 470 471
3 473 472 175
3 150 56 1
3 176 56 150
3 176 20 56
3 91 176 33
3 177 176 91
3 177 20 176
3 177 126 20
3 178 126 177
3 178 11 126
3 128 92 4
3 179 92 128
3 179 43 92
3 94 179 22
3 180 179 94
3 180 43 179
3 180 178 43
3 181 178 180
3 181 11 178
3 181 89 11
3 182 89 181
3 182 474 476
3 476 475 89
3 474 475 476
3 96 182 44
3 477 182 478
3 479 478 96
3 477 478 479
3 481 480 182
3 483 482 45
3 132 484 486
3 486 485 12
3 484 485 486
3 488 487 132
3 163 53 0
3 183 53 163
3 183 17 53
3 99 183 38
3 184 183 99
3 184 17 183
3 184 120 17
3 185 120 184
3 185 5 120
3 135 100 7
3 186 100 135
3 186 46 100
3 102 186 25
3 187 186 102
3 187 46 186
3 187 185 46
3 188 185 187
3 188 5 185
3 188 74 5
3 189 74 188
3 189 36 74
3 104 189 47
3 190 189 104
3 190 36 189
3 190 159 36
3 191 159 190
3 191 2 159
3 489 26 490
3 192 491 492
3 192 493 495
3 493 26 494
3 493 494 495
3 192 138 26
3 193 138 192
3 193 13 138
3 194 496 497
3 194 498 499
3 194 500 502
3 500 193 501
3 500 501 502
3 195 193 194
3 195 13 193
3 195 105 13
3 196 105 195
3 196 48 105
3 503 196 504
3 505 504 49
3 503 504 505
3 197 506 508
3 506 196 507
3 506 507 508
3 197 48 196
3 197 191 48
3 198 191 197
3 198 2 191
3 198 61 2
3 509 61 510
3 511 510 198
3 509 510 511
3 513 512 61
3 107 514 515
3 517 516 107
3 140 108 6
3 199 108 140
3 199 50 108
3 110 199 28
3 518 199 519
3 520 519 110
3 518 519 520
3 521 50 522
3 523 522 199
3 521 522 523
3 525 524 50
3 144 112 14
3 200 112 144
3 200 526 528
3 528 527 112
3 526 527 528
3 114 200 30
3 529 200 530
3 531 530 114
3 529 530 531
3 533 532 200
3 535 534 10
3 537 536 31
