ply
format ascii 1.0
element vertex 290
property float x
property float y
property float z
element face 245
property list uchar int vertex_index
end_header
16.637897 14.193645 -11.092503
14.797931 28.089905 -25.86307
15.576838 17.085634 -16.251871
15.273171 23.466028 -23.47094
20.652552 5.955794 -6.309343
15.901013 15.705831 -13.546598
16.03688 28.409618 -30.050537
17.789938 12.889524 -9.063014
19.156353 7.299252 -8.041495
14.479213 23.106113 -20.167067
15.559017 18.467215 -19.05599
14.366546 22.344215 -17.263119
16.806643 19.147751 -10.227717
15.545788 21.310804 -22.408566
16.212353 14.988063 -12.259239
16.666588 13.034801 -13.10327
16.922676 12.321252 -11.799616
15.005258 30.74239 -29.151543
15.386925 28.252796 -27.951511
18.522884 12.340609 -8.23081
18.379601 10.022124 -8.607068
19.08622 9.341042 -7.725604
14.379296 22.641563 -18.683058
17.563465 18.670429 -9.429261
15.486334 17.929113 -17.674999
15.017047 25.7784 -24.618792
15.695475 25.833874 -26.645046
15.957536 23.537985 -25.345364
19.936834 8.781098 -6.913162
21.677273 5.260693 -5.460317
15.722299 16.303753 -14.832928
16.503851 13.753873 -14.467749
15.651365 30.838766 -31.55899
17.162601 13.496894 -10.019548
17.313669 11.481401 -10.643981
17.792105 10.737965 -9.575804
18.596823 7.997897 -9.050905
19.875908 6.448666 -7.124324
15.13402 21.136513 -20.925602
15.646318 19.228035 -20.527197
14.96555 20.644585 -19.509972
14.857209 20.282162 -18.096081
14.903612 19.679321 -16.747414
14.517402 21.757034 -15.890824
15.051956 19.001766 -15.30711
15.240808 18.645809 -13.964992
15.570667 17.994093 -12.800394
16.035353 17.117704 -11.649257
16.569969 16.465635 -10.611567
17.226845 16.005323 -9.656914
17.998785 15.385346 -8.81402
14.493759 25.688774 -22.734564
14.819618 23.130459 -21.726257
15.948788 20.469141 -22.640391
15.658086 20.567051 -22.028092
15.092428 28.171351 -26.907291
14.929557 29.493011 -27.49732
14.63506 29.411565 -26.4531
19.244808 10.449502 -7.587063
18.804552 10.840826 -7.978207
18.963141 11.949286 -7.839666
15.964509 16.249491 -16.806342
15.919257 16.671231 -17.517906
15.531586 17.507373 -16.963435
22.244025 5.030345 -5.064334
21.890949 6.45868 -5.426152
22.101888 3.927886 -5.110955
22.244025 5.030345 -5.064334
17.051505 12.15206 -13.602756
17.078218 11.842453 -12.896848
16.437912 28.513217 -31.260099
16.245155 29.727792 -32.014326
15.844123 29.624192 -30.804763
16.066751 25.901308 -27.669612
16.197039 24.781385 -26.948895
19.317171 6.389838 -8.328495
19.037406 6.739161 -8.833201
18.876588 7.648575 -8.5462
14.620615 21.606536 -15.258615
14.416398 23.122584 -15.584152
14.887892 20.228902 -14.966758
14.784679 20.3794 -15.598967
14.620615 21.606536 -15.258615
14.982318 20.050923 -14.295699
15.146382 18.823788 -14.636051
14.887892 20.228902 -14.966758
15.561125 19.227483 -12.495384
15.324585 19.503528 -13.073629
15.793468 18.789288 -11.919816
15.80301 17.555898 -12.224826
15.561125 19.227483 -12.495384
16.464489 19.392187 -10.697197
16.610575 20.794064 -10.567781
16.688306 17.806693 -10.419642
16.346152 18.051129 -10.889122
16.464489 19.392187 -10.697197
18.235483 16.78093 -8.751845
17.781125 17.027887 -9.12164
18.017823 18.423471 -9.059466
18.455178 15.124483 -8.43283
18.235483 16.78093 -8.751845
14.196099 26.949548 -22.424397
14.366224 26.996441 -23.315571
14.649415 23.118286 -20.946662
14.48925 24.359689 -21.410463
14.319047 24.347516 -20.630868
15.965273 17.878218 -19.674257
16.008924 18.258628 -20.409861
15.602668 18.847625 -19.791594
17.553884 10.569441 -11.017011
17.750502 10.075102 -10.400336
15.869305 21.35025 -23.242345
15.732997 22.427862 -23.773532
15.409479 22.388416 -22.939753
15.869305 21.35025 -23.242345
15.948788 20.469141 -22.640391
17.206263 11.485678 -12.245021
17.078218 11.842453 -12.896848
16.794632 12.678026 -12.451443
14.738724 30.737808 -28.097336
14.58118 32.082203 -28.779884
15.196091 29.497593 -28.551527
14.738724 30.737808 -28.097336
14.929557 29.493011 -27.49732
20.6672 4.948874 -6.462156
21.094562 4.588221 -5.983193
14.186107 23.95004 -19.051786
14.429254 22.873838 -19.425062
14.236065 24.182315 -19.793791
14.18115 23.79002 -18.297332
14.186107 23.95004 -19.051786
14.174774 23.641346 -17.587362
14.372921 22.492889 -17.973088
14.18115 23.79002 -18.297332
17.028993 20.656554 -10.145186
16.610575 20.794064 -10.567781
17.407404 20.417893 -9.745958
17.185054 18.90909 -9.828489
17.028993 20.656554 -10.145186
17.861896 20.088614 -9.366761
17.407404 20.417893 -9.745958
18.017823 18.423471 -9.059466
17.861896 20.088614 -9.366761
14.236065 24.182315 -19.793791
14.319047 24.347516 -20.630868
15.89532 17.153385 -18.226007
15.931662 17.422436 -18.916502
15.522676 18.198164 -18.365495
15.89532 17.153385 -18.226007
15.919257 16.671231 -17.517906
16.328069 23.63344 -26.299053
16.197039 24.781385 -26.948895
15.826505 24.68593 -25.995205
16.07518 22.46384 -24.710744
15.615353 23.502007 -24.408152
15.732997 22.427862 -23.773532
16.451871 22.559838 -25.609758
16.07518 22.46384 -24.710744
16.328069 23.63344 -26.299053
16.451871 22.559838 -25.609758
20.176139 9.962162 -6.824922
19.670116 10.16953 -7.180841
20.452292 8.394509 -6.511651
20.176139 9.962162 -6.824922
20.810151 6.981856 -6.209742
20.294693 7.368446 -6.611252
20.452292 8.394509 -6.511651
21.322512 6.634306 -5.785229
21.890949 6.45868 -5.426152
21.164912 5.608244 -5.88483
20.810151 6.981856 -6.209742
21.322512 6.634306 -5.785229
21.606922 4.24067 -5.55868
21.094562 4.588221 -5.983193
21.164912 5.608244 -5.88483
21.606922 4.24067 -5.55868
22.101888 3.927886 -5.110955
16.044824 15.482248 -15.380292
15.972094 15.873188 -16.089764
15.649569 16.694693 -15.5424
16.4356 14.207308 -15.197703
16.044824 15.482248 -15.380292
16.113075 15.028813 -14.650339
16.892595 13.039118 -15.016931
16.4356 14.207308 -15.197703
16.970137 12.511596 -14.284996
16.58522 13.394337 -13.785509
17.051505 12.15206 -13.602756
16.892595 13.039118 -15.016931
16.970137 12.511596 -14.284996
14.839678 31.956494 -29.893964
14.58118 32.082203 -28.779884
15.162731 32.004682 -31.097687
14.839678 31.956494 -29.893964
15.328311 30.790578 -30.355266
15.409819 32.086066 -32.299026
15.162731 32.004682 -31.097687
15.968839 30.966215 -32.766464
15.409819 32.086066 -32.299026
15.968839 30.966215 -32.766464
16.245155 29.727792 -32.014326
15.912475 27.110769 -28.322845
15.5412 27.043335 -27.298279
16.066751 25.901308 -27.669612
16.237453 27.18918 -29.372357
15.711903 28.331207 -29.001024
15.912475 27.110769 -28.322845
16.610737 27.450744 -30.528054
16.237453 27.18918 -29.372357
16.437912 28.513217 -31.260099
16.610737 27.450744 -30.528054
17.98972 9.703384 -9.866248
17.750502 10.075102 -10.400336
17.552887 11.109683 -10.109893
18.39208 8.33335 -9.603798
17.98972 9.703384 -9.866248
18.194464 9.367931 -9.313354
18.837715 7.140785 -9.417627
18.39208 8.33335 -9.603798
18.837715 7.140785 -9.417627
19.037406 6.739161 -8.833201
19.511527 9.06107 -7.319383
19.244808 10.449502 -7.587063
19.670116 10.16953 -7.180841
20.278878 5.19531 -6.869646
20.26423 6.20223 -6.716833
20.6672 4.948874 -6.462156
19.951423 5.53983 -7.356032
20.278878 5.19531 -6.869646
19.591646 5.965123 -7.814618
19.51613 6.873959 -7.582909
19.951423 5.53983 -7.356032
19.317171 6.389838 -8.328495
19.591646 5.965123 -7.814618
15.390169 20.182274 -20.726399
15.708351 19.525667 -21.087407
15.452202 20.479906 -21.28661
14.234402 23.491091 -16.885779
14.174774 23.641346 -17.587362
14.30983 23.197501 -16.199632
14.416398 23.122584 -15.584152
14.441974 22.050624 -16.576971
14.234402 23.491091 -16.885779
14.30983 23.197501 -16.199632
15.159655 19.829386 -13.655928
14.982318 20.050923 -14.295699
15.405738 18.319951 -13.382693
15.159655 19.829386 -13.655928
15.324585 19.503528 -13.073629
16.078844 18.377164 -11.407967
15.793468 18.789288 -11.919816
16.302661 16.791669 -11.130412
16.078844 18.377164 -11.407967
16.346152 18.051129 -10.889122
18.717227 13.602114 -8.141225
18.260835 13.862977 -8.522415
18.455178 15.124483 -8.43283
18.963141 11.949286 -7.839666
18.717227 13.602114 -8.141225
14.40233 29.470848 -25.450284
14.63506 29.411565 -26.4531
14.51831 28.197007 -24.879824
14.40233 29.470848 -25.450284
14.627868 27.041254 -24.257685
14.907489 26.934153 -25.240931
14.51831 28.197007 -24.879824
14.755403 25.733587 -23.676678
14.627868 27.041254 -24.257685
14.366224 26.996441 -23.315571
14.326321 25.638846 -21.914617
14.196099 26.949548 -22.424397
14.656689 24.409616 -22.23041
14.326321 25.638846 -21.914617
14.48925 24.359689 -21.410463
15.452202 20.479906 -21.28661
15.658086 20.567051 -22.028092
15.339904 21.223658 -21.667084
16.032713 18.768065 -21.103216
15.708351 19.525667 -21.087407
16.032713 18.768065 -21.103216
16.008924 18.258628 -20.409861
15.965273 17.878218 -19.674257
15.931662 17.422436 -18.916502
15.964509 16.249491 -16.806342
15.972094 15.873188 -16.089764
17.358387 10.989366 -11.594829
17.118173 11.901326 -11.221799
17.553884 10.569441 -11.017011
17.206263 11.485678 -12.245021
17.358387 10.989366 -11.594829
3 54 53 13
3 0 16 14
3 1 55 57
3 55 18 56
3 55 56 57
3 58 21 59
3 60 59 19
3 58 59 60
3 2 61 63
3 63 62 24
3 61 62 63
3 3 27 25
3 64 29 65
3 67 66 29
3 5 31 30
3 69 68 15
3 6 32 17
3 6 70 72
3 72 71 32
3 70 71 72
3 74 73 26
3 7 35 33
3 8 36 20
3 8 75 77
3 77 76 36
3 75 76 77
3 4 37 28
3 9 40 38
3 11 41 22
3 11 42 41
3 78 43 79
3 80 44 81
3 82 81 43
3 80 81 82
3 83 45 84
3 85 84 44
3 83 84 85
3 86 46 87
3 88 47 89
3 90 89 46
3 88 89 90
3 12 91 92
3 12 93 95
3 93 48 94
3 93 94 95
3 12 49 48
3 96 50 97
3 98 97 23
3 96 97 98
3 100 99 50
3 101 51 102
3 9 103 105
3 103 52 104
3 103 104 105
3 9 38 52
3 10 106 108
3 108 107 39
3 106 107 108
3 110 109 34
3 13 111 113
3 113 112 3
3 111 112 113
3 115 114 13
3 14 15 5
3 16 15 14
3 16 116 118
3 118 117 15
3 116 117 118
3 119 17 120
3 18 121 123
3 121 17 122
3 121 122 123
3 18 6 17
3 19 20 7
3 21 20 19
3 21 8 20
3 125 124 4
3 126 22 127
3 128 127 9
3 126 127 128
3 129 22 130
3 131 11 132
3 133 132 22
3 131 132 133
3 134 12 135
3 136 23 137
3 138 137 12
3 136 137 138
3 139 23 140
3 142 141 23
3 143 9 144
3 24 145 147
3 147 146 10
3 145 146 147
3 149 148 24
3 25 26 1
3 27 26 25
3 27 150 152
3 152 151 26
3 150 151 152
3 153 27 154
3 155 154 3
3 153 154 155
3 156 27 157
3 159 158 27
3 160 28 161
3 162 28 163
3 164 4 165
3 166 165 28
3 164 165 166
3 29 167 168
3 29 169 171
3 169 4 170
3 169 170 171
3 29 172 174
3 174 173 4
3 172 173 174
3 176 175 29
3 30 177 179
3 179 178 2
3 177 178 179
3 31 180 182
3 182 181 30
3 180 181 182
3 31 183 184
3 15 31 5
3 185 31 186
3 187 186 15
3 185 186 187
3 189 188 31
3 17 190 191
3 32 192 194
3 194 193 17
3 192 193 194
3 32 195 196
3 32 197 198
3 200 199 32
3 26 18 1
3 201 18 202
3 203 202 26
3 201 202 203
3 204 6 205
3 206 205 18
3 204 205 206
3 207 6 208
3 210 209 6
3 33 34 0
3 35 34 33
3 35 211 213
3 213 212 34
3 211 212 213
3 20 35 7
3 36 35 20
3 36 214 216
3 216 215 35
3 214 215 216
3 36 217 218
3 220 219 36
3 28 221 223
3 221 21 222
3 221 222 223
3 37 21 28
3 37 8 21
3 224 37 225
3 226 225 4
3 224 225 226
3 227 37 228
3 229 8 230
3 231 230 37
3 229 230 231
3 233 232 8
3 38 234 236
3 234 39 235
3 234 235 236
3 40 39 38
3 40 10 39
3 22 40 9
3 41 40 22
3 41 10 40
3 41 24 10
3 42 24 41
3 42 2 24
3 237 11 238
3 43 239 240
3 43 241 243
3 241 11 242
3 241 242 243
3 43 42 11
3 44 42 43
3 44 2 42
3 44 30 2
3 45 30 44
3 45 5 30
3 244 45 245
3 46 246 248
3 246 45 247
3 246 247 248
3 46 5 45
3 46 14 5
3 47 14 46
3 47 0 14
3 249 47 250
3 48 251 253
3 251 47 252
3 251 252 253
3 48 0 47
3 48 33 0
3 49 33 48
3 49 7 33
3 23 49 12
3 50 49 23
3 50 7 49
3 50 19 7
3 254 19 255
3 256 255 50
3 254 255 256
3 258 257 19
3 259 1 260
3 261 1 262
3 263 25 264
3 265 264 1
3 263 264 265
3 51 266 268
3 266 25 267
3 266 267 268
3 51 3 25
3 269 51 270
3 52 271 273
3 271 51 272
3 271 272 273
3 52 3 51
3 52 13 3
3 38 13 52
3 38 274 276
3 276 275 13
3 274 275 276
3 39 277 278
3 280 279 39
3 282 281 10
3 284 283 2
3 34 16 0
3 285 16 286
3 287 286 34
3 285 286 287
3 289 288 16
