ply
format ascii 1.0
element vertex 55
property float x
property float y
property float z
element face 41
property list uchar int vertex_index
end_header
5.193264 24.683403 -67.696266
4.844291 19.568981 -68.420563
3.967481 25.464836 -66.051239
3.755447 23.107164 -66.562958
3.65845 20.414907 -66.953957
4.999506 22.270979 -68.183655
6.444367 23.733667 -69.198982
6.274857 21.144217 -69.618706
4.580373 25.074119 -66.873752
4.751486 26.269414 -66.529709
5.364377 25.878698 -67.352222
4.177246 18.631811 -67.686481
3.584326 19.054774 -66.953179
4.251371 19.991944 -67.68726
4.776569 18.204103 -68.389019
4.177246 18.631811 -67.686481
7.040348 21.978507 -70.057148
6.359612 22.438942 -69.408844
7.125103 23.273232 -69.847286
4.11874 26.583926 -65.709778
4.751486 26.269414 -66.529709
3.40421 25.88055 -65.211109
4.11874 26.583926 -65.709778
3.306526 24.613619 -65.509716
3.40421 25.88055 -65.211109
3.200509 23.434784 -65.765575
3.306526 24.613619 -65.509716
3.861464 24.286 -66.307098
3.187776 22.206235 -66.014301
3.200509 23.434784 -65.765575
3.706949 21.761035 -66.758457
3.139278 20.860106 -66.209801
3.187776 22.206235 -66.014301
6.000464 25.448251 -68.138797
5.364377 25.878698 -67.352222
6.626016 24.973384 -68.890155
5.818815 24.208535 -68.447624
6.000464 25.448251 -68.138797
7.252337 24.429127 -69.589576
6.626016 24.973384 -68.890155
7.125103 23.273232 -69.847286
7.252337 24.429127 -69.589576
3.058769 19.575229 -66.228341
3.139278 20.860106 -66.209801
3.058769 19.575229 -66.228341
3.584326 19.054774 -66.953179
6.922237 20.660654 -70.183983
7.040348 21.978507 -70.057148
6.170488 19.807578 -69.645905
6.922237 20.660654 -70.183983
5.455205 19.01996 -69.046833
5.559574 20.356599 -69.019634
6.170488 19.807578 -69.645905
4.776569 18.204103 -68.389019
5.455205 19.01996 -69.046833
3 0 8 10
3 8 2 9
3 8 9 10
3 0 3 2
3 0 5 3
3 1 11 13
3 13 12 4
3 11 12 13
3 1 14 15
3 16 7 17
3 18 17 6
3 16 17 18
3 2 19 20
3 2 21 22
3 2 23 24
3 3 25 27
3 27 26 2
3 25 26 27
3 3 28 29
3 3 30 32
3 30 4 31
3 30 31 32
3 5 4 3
3 5 1 4
3 33 0 34
3 35 6 36
3 37 36 0
3 35 36 37
3 38 6 39
3 41 40 6
3 4 42 43
3 45 44 4
3 6 5 0
3 7 5 6
3 7 1 5
3 46 7 47
3 48 7 49
3 50 1 51
3 52 51 7
3 50 51 52
3 54 53 1
