ply
format ascii 1.0
element vertex 373
property float x
property float y
property float z
element face 369
property list uchar int vertex_index
end_header
6.71544 -90.80027 12.810859
11.678028 -75.885155 35.820042
-0.431999 -71.285469 30.577602
14.020739 -91.408318 16.246325
22.234663 -80.497627 31.315216
15.98154 -83.53714 27.983366
9.24291 -83.251648 24.040882
5.486824 -73.89801 32.404224
10.502793 -91.340057 14.456697
5.405323 -94.311111 7.394632
13.787008 -79.894897 31.921806
12.569909 -83.671753 25.989107
10.526009 -79.48587 29.998857
2.422131 -72.458885 31.362099
4.052433 -77.445435 26.986565
1.02781 -76.24366 26.267
23.441442 -85.830673 21.802263
21.369745 -84.526756 26.041298
19.365253 -82.404976 29.99732
18.285086 -86.530235 24.153614
14.938189 -87.47007 22.107159
11.575616 -87.564949 20.126755
7.893029 -87.004333 18.331787
8.52766 -75.002335 34.021393
7.240499 -78.642372 28.189003
5.865163 -82.210838 22.710762
4.510939 -86.134171 17.142168
8.66953 -91.213882 13.496856
9.893643 -93.225006 11.570768
7.944204 -92.98793 10.72721
5.909659 -92.497604 10.137292
14.317424 -78.078178 34.784927
12.72064 -77.894867 33.921165
12.068871 -79.752792 30.897408
11.107236 -77.680634 32.892879
0.23215 -69.493523 32.850807
1.685925 -70.070389 33.378048
1.003218 -71.83416 30.96384
1.727626 -74.396378 28.721764
0.250813 -73.710663 28.499346
15.788897 -91.180939 17.20532
23.193382 -81.093323 29.289858
22.788746 -83.359085 26.416742
21.925486 -82.474388 28.64262
16.502794 -81.543114 30.968794
17.654964 -83.131836 28.973831
18.871313 -84.427826 27.135191
17.104103 -85.146805 26.024597
16.608959 -87.188568 23.047678
15.498302 -85.456764 25.130835
10.954672 -83.630539 24.881063
12.053413 -85.723427 22.889526
10.341923 -85.557266 21.913515
9.744467 -87.412834 19.097404
8.591988 -85.162704 21.132078
4.599687 -71.522408 34.388474
6.952146 -74.357109 33.271484
7.788525 -76.704086 31.126209
6.260625 -76.21743 30.309311
4.963951 -79.879135 24.822868
4.227141 -81.665901 22.195429
5.178773 -84.111877 19.962334
3.463546 -83.600159 19.460459
12.329015 -91.487717 15.307596
15.524218 -79.856697 32.955212
14.875317 -81.745445 30.000572
14.226105 -83.618958 27.073446
13.171846 -81.64296 29.133221
11.444212 -81.663055 27.860085
9.792293 -81.358528 26.926407
3.920545 -73.167732 31.825499
4.774911 -75.506737 29.839647
3.266203 -74.911644 29.286079
2.610163 -76.883018 26.579126
24.589737 -83.987709 22.270126
-1.224255 -68.902596 32.44083
23.744249 -83.782669 24.360657
22.436079 -85.32003 23.907949
21.000208 -86.613426 23.226795
20.821154 -81.620491 30.664577
20.41423 -83.57946 27.973032
19.890059 -85.63665 25.168894
19.511461 -87.705956 22.293329
17.851374 -88.541901 21.28894
16.3111 -89.257378 20.066072
14.500979 -89.47213 19.143475
13.816111 -85.565269 24.186989
13.257843 -87.60775 21.092009
12.739014 -89.515724 18.208704
11.048181 -89.523201 17.198641
9.132096 -89.286247 16.278299
7.477905 -89.027145 15.524429
10.078845 -75.419998 34.984585
9.461475 -77.225548 32.022507
8.871815 -79.019836 29.159241
8.124981 -80.881027 26.138174
5.616795 -77.96032 27.632008
6.51147 -80.396896 25.407501
7.560087 -82.900208 23.159803
6.800982 -84.654953 20.444799
6.220961 -86.650917 17.625475
5.579556 -88.526367 14.932711
-1.851084 -70.821693 30.220415
4.744067 -90.254463 12.295531
4.098916 -92.019875 9.66488
3.226453 -93.550575 7.086451
12.199334 -76.890011 34.870604
13.030914 -76.993782 35.407722
12.509607 -75.988926 36.35716
14.744894 -92.284813 15.262132
15.628973 -92.171123 15.74163
14.904818 -91.294628 16.725822
22.714022 -80.795475 30.302537
23.408006 -80.015598 30.620102
22.928646 -79.71775 31.632781
5.770688 -72.997017 33.789142
5.32712 -71.809216 34.781267
5.043256 -72.710209 33.396349
6.219485 -74.127559 32.837854
6.503349 -73.226566 34.222773
5.770688 -72.997017 33.789142
3.376277 -81.392746 21.966788
3.8063 -80.556946 23.194823
2.99448 -82.359875 20.599303
3.845343 -82.63303 20.827944
3.376277 -81.392746 21.966788
11.152584 -92.358051 13.442854
12.065694 -92.431881 13.868304
11.415904 -91.413887 14.882147
10.597026 -94.239166 10.5446
9.598337 -94.168487 10.09509
6.080422 -95.391616 6.270094
6.377896 -94.530063 7.685323
4.952725 -95.039524 6.073891
6.080422 -95.391616 6.270094
2.779184 -71.661152 32.562834
2.411081 -70.466904 33.570808
2.054028 -71.264637 32.370074
3.171338 -72.813309 31.593799
3.528391 -72.015575 32.794534
2.779184 -71.661152 32.562834
1.45668 -77.45166 25.196034
2.247857 -77.771339 25.352097
1.818986 -76.563339 26.423063
23.889272 -86.001141 20.69136
24.46342 -85.079658 20.925291
24.015589 -84.909191 22.036195
-1.572663 -67.667355 33.368969
-0.882683 -67.954281 33.599233
23.8709 -82.723557 25.727283
24.246107 -82.902424 24.61215
19.577799 -81.368313 31.467234
18.793249 -81.75272 30.969576
20.093204 -82.012733 30.330948
20.305749 -80.97607 31.800863
19.577799 -81.368313 31.467234
8.835962 -74.138955 35.465832
8.064186 -73.906399 34.961821
9.303252 -75.211167 34.502989
9.611555 -74.347786 35.947428
8.835962 -74.138955 35.465832
-2.628322 -70.394451 30.238249
-2.245337 -69.520496 31.227492
3.793203 -90.000599 12.053892
4.231515 -89.141292 13.353912
3.470627 -90.883305 10.738567
4.421492 -91.137169 10.980206
3.793203 -90.000599 12.053892
2.132053 -93.146431 6.950864
2.599031 -92.404774 8.236221
2.761635 -94.228008 5.821381
2.132053 -93.146431 6.950864
8.623618 -94.049949 9.673311
9.598337 -94.168487 10.09509
8.918924 -93.106468 11.148989
7.647336 -93.868473 9.351612
8.623618 -94.049949 9.673311
6.630064 -93.62331 9.056653
7.647336 -93.868473 9.351612
6.926932 -92.742767 10.432251
5.657491 -93.404358 8.765962
6.377896 -94.530063 7.685323
6.630064 -93.62331 9.056653
13.829306 -77.085437 35.839603
14.618064 -77.198326 36.213296
13.519032 -77.986523 34.353046
13.829306 -77.085437 35.839603
13.030914 -76.993782 35.407722
0.959037 -69.781956 33.114428
1.310393 -68.919846 34.287596
0.583506 -68.631412 34.023976
23.335486 -86.889671 20.397496
22.789809 -86.628395 21.464011
16.526958 -91.936947 16.240423
16.669971 -90.907364 17.74673
16.526958 -91.936947 16.240423
15.628973 -92.171123 15.74163
23.788042 -80.222759 29.593719
23.408006 -80.015598 30.620102
23.595467 -81.378884 28.191884
23.788042 -80.222759 29.593719
22.991064 -82.226204 27.8533
23.393149 -82.511764 26.755326
23.595467 -81.378884 28.191884
17.36202 -81.321789 31.455313
16.831923 -80.579773 32.433612
17.938105 -82.11615 30.457832
17.36202 -81.321789 31.455313
17.078879 -82.337475 29.971312
18.510109 -82.768406 29.485575
18.793249 -81.75272 30.969576
17.938105 -82.11615 30.457832
4.903774 -70.667221 35.741726
4.172125 -70.315655 35.386589
4.903774 -70.667221 35.741726
5.32712 -71.809216 34.781267
7.276429 -73.583786 34.586866
6.503349 -73.226566 34.222773
7.739903 -74.679722 33.646439
8.064186 -73.906399 34.961821
7.276429 -73.583786 34.586866
4.174705 -79.663563 24.508543
4.508192 -78.662285 25.904716
3.718946 -78.446713 25.590391
4.595546 -80.772518 23.509149
4.174705 -79.663563 24.508543
3.8063 -80.556946 23.194823
13.021623 -92.428887 14.332177
13.867485 -92.389187 14.801541
13.174877 -91.448017 15.77696
13.021623 -92.428887 14.332177
12.065694 -92.431881 13.868304
10.848009 -93.300525 11.99989
11.152584 -92.358051 13.442854
10.198218 -92.282532 13.013732
10.848009 -93.300525 11.99989
10.597026 -94.239166 10.5446
22.505859 -79.410954 32.676902
22.928646 -79.71775 31.632781
15.15773 -78.052967 35.272852
14.618064 -77.198326 36.213296
15.761126 -78.942227 34.357995
15.15773 -78.052967 35.272852
14.920821 -78.967437 33.870069
16.342634 -79.736565 33.426821
15.761126 -78.942227 34.357995
16.013506 -80.699905 31.962003
16.831923 -80.579773 32.433612
16.342634 -79.736565 33.426821
2.020307 -69.259514 34.566942
1.310393 -68.919846 34.287596
2.020307 -69.259514 34.566942
2.411081 -70.466904 33.570808
3.867962 -71.192914 34.076021
4.172125 -70.315655 35.386589
4.260116 -72.34507 33.106987
3.867962 -71.192914 34.076021
3.528391 -72.015575 32.794534
2.997812 -78.165504 25.386672
3.718946 -78.446713 25.590391
3.331298 -77.164227 26.782846
2.997812 -78.165504 25.386672
2.247857 -77.771339 25.352097
24.918779 -84.121914 21.102063
25.007751 -83.009472 22.520846
24.918779 -84.121914 21.102063
24.46342 -85.079658 20.925291
23.889272 -86.001141 20.69136
23.335486 -86.889671 20.397496
12.015819 -75.022968 37.308093
12.509607 -75.988926 36.35716
-0.15448 -68.249744 33.804222
0.583506 -68.631412 34.023976
-0.496053 -69.198059 32.645819
-0.15448 -68.249744 33.804222
-0.882683 -67.954281 33.599233
14.744894 -92.284813 15.262132
13.867485 -92.389187 14.801541
24.668851 -83.004944 23.566885
25.007751 -83.009472 22.520846
24.166993 -83.885189 23.315392
24.668851 -83.004944 23.566885
24.246107 -82.902424 24.61215
23.266497 -83.570877 25.3887
23.8709 -82.723557 25.727283
23.393149 -82.511764 26.755326
22.287128 -86.373074 22.516854
22.789809 -86.628395 21.464011
22.938761 -85.575352 22.855106
21.569192 -87.019772 22.176277
22.287128 -86.373074 22.516854
21.718144 -85.966728 23.567372
20.865153 -87.640133 21.810449
21.569192 -87.019772 22.176277
21.7748 -80.007965 32.406761
22.505859 -79.410954 32.676902
21.068045 -80.569397 32.081441
20.305749 -80.97607 31.800863
21.527909 -81.059059 30.989897
21.7748 -80.007965 32.406761
21.068045 -80.569397 32.081441
20.120779 -88.186398 21.343716
20.865153 -87.640133 21.810449
20.255834 -87.159691 22.760062
19.327193 -88.757115 20.823783
20.120779 -88.186398 21.343716
18.497149 -89.175087 20.321589
19.327193 -88.757115 20.823783
18.681418 -88.123929 21.791134
17.70121 -89.587845 19.78854
18.497149 -89.175087 20.321589
16.931073 -89.945583 19.177107
17.70121 -89.587845 19.78854
17.081237 -88.89964 20.677506
16.049999 -90.219158 18.635696
16.669971 -90.907364 17.74673
16.931073 -89.945583 19.177107
11.220735 -74.858543 36.802317
12.015819 -75.022968 37.308093
10.421143 -74.625965 36.384589
9.611555 -74.347786 35.947428
10.878436 -75.652577 35.402314
11.220735 -74.858543 36.802317
10.421143 -74.625965 36.384589
-1.931922 -68.560947 32.3377
-1.572663 -67.667355 33.368969
-1.53767 -69.862144 31.330622
-1.931922 -68.560947 32.3377
-2.245337 -69.520496 31.227492
-2.281541 -71.648331 29.210891
-2.628322 -70.394451 30.238249
-1.49011 -72.01075 29.23487
-2.281541 -71.648331 29.210891
-0.780567 -72.242638 29.413463
-1.141541 -71.053581 30.399009
-1.49011 -72.01075 29.23487
-0.439161 -73.455234 28.374336
-0.090593 -72.498066 29.538474
-0.780567 -72.242638 29.413463
-0.143988 -74.694439 27.251984
-0.439161 -73.455234 28.374336
0.24451 -75.960938 26.135811
0.639311 -74.977161 27.383173
-0.143988 -74.694439 27.251984
0.650581 -77.166535 25.057458
0.24451 -75.960938 26.135811
1.45668 -77.45166 25.196034
0.650581 -77.166535 25.057458
2.640225 -83.37006 19.250784
2.99448 -82.359875 20.599303
3.089954 -84.590023 18.096866
2.640225 -83.37006 19.250784
3.61365 -85.857029 16.937721
3.987242 -84.867165 18.301313
3.089954 -84.590023 18.096866
4.11495 -87.081146 15.77723
3.61365 -85.857029 16.937721
4.649259 -88.277244 14.672501
5.045248 -87.330269 16.03744
4.11495 -87.081146 15.77723
5.161812 -89.390415 13.614121
4.649259 -88.277244 14.672501
4.231515 -89.141292 13.353912
3.035262 -91.639423 9.525436
3.470627 -90.883305 10.738567
3.662685 -92.785225 8.375666
3.035262 -91.639423 9.525436
2.599031 -92.404774 8.236221
3.863289 -94.659256 5.919801
4.952725 -95.039524 6.073891
4.315888 -93.930843 7.240541
3.863289 -94.659256 5.919801
2.761635 -94.228008 5.821381
3 0 29 27
3 0 30 29
3 1 106 108
3 106 32 107
3 106 107 108
3 1 34 32
3 2 37 35
3 2 39 37
3 3 109 111
3 111 110 40
3 109 110 111
3 4 112 114
3 112 41 113
3 112 113 114
3 4 43 41
3 5 45 44
3 5 47 45
3 5 49 47
3 6 52 50
3 6 54 52
3 7 115 117
3 117 116 55
3 115 116 117
3 7 118 120
3 118 56 119
3 118 119 120
3 7 58 56
3 121 60 122
3 123 62 124
3 125 124 60
3 123 124 125
3 8 126 128
3 128 127 63
3 126 127 128
3 130 129 28
3 9 131 132
3 9 133 134
3 10 64 31
3 10 65 64
3 10 67 65
3 12 68 33
3 12 69 68
3 13 135 137
3 137 136 36
3 135 136 137
3 13 138 140
3 138 70 139
3 138 139 140
3 13 72 70
3 15 73 38
3 15 141 143
3 143 142 73
3 141 142 143
3 16 144 146
3 146 145 74
3 144 145 146
3 147 75 148
3 149 76 150
3 17 77 42
3 17 78 77
3 18 151 152
3 18 153 155
3 153 79 154
3 153 154 155
3 18 80 79
3 19 81 46
3 19 82 81
3 19 83 82
3 20 84 48
3 20 85 84
3 11 86 66
3 21 87 51
3 21 88 87
3 21 89 88
3 22 90 53
3 22 91 90
3 23 156 157
3 23 158 160
3 158 92 159
3 158 159 160
3 23 93 92
3 24 94 57
3 24 95 94
3 14 96 71
3 25 97 59
3 25 98 97
3 25 99 98
3 26 100 61
3 26 101 100
3 161 102 162
3 163 103 164
3 165 104 166
3 167 166 103
3 165 166 167
3 168 105 169
3 171 170 105
3 27 28 8
3 29 28 27
3 29 172 174
3 174 173 28
3 172 173 174
3 29 175 176
3 30 177 179
3 179 178 29
3 177 178 179
3 30 180 182
3 180 9 181
3 180 181 182
3 183 31 184
3 32 185 187
3 185 31 186
3 185 186 187
3 32 10 31
3 32 33 10
3 34 33 32
3 34 12 33
3 35 188 190
3 188 36 189
3 188 189 190
3 37 36 35
3 37 13 36
3 37 38 13
3 39 38 37
3 39 15 38
3 192 191 16
3 40 193 194
3 196 195 40
3 41 197 198
3 41 199 200
3 41 201 203
3 201 42 202
3 201 202 203
3 43 42 41
3 43 17 42
3 44 204 205
3 45 206 208
3 208 207 44
3 206 207 208
3 45 209 211
3 209 18 210
3 209 210 211
3 45 46 18
3 47 46 45
3 47 19 46
3 47 48 19
3 49 48 47
3 49 20 48
3 50 51 11
3 52 51 50
3 52 21 51
3 52 53 21
3 54 53 52
3 54 22 53
3 55 212 213
3 215 214 55
3 56 216 217
3 56 218 220
3 218 23 219
3 218 219 220
3 56 57 23
3 58 57 56
3 58 24 57
3 221 59 222
3 223 222 14
3 221 222 223
3 60 224 226
3 224 59 225
3 224 225 226
3 60 25 59
3 60 61 25
3 62 61 60
3 62 26 61
3 63 227 229
3 229 228 3
3 227 228 229
3 231 230 63
3 28 232 234
3 234 233 8
3 232 233 234
3 236 235 28
3 237 4 238
3 31 239 240
3 64 241 243
3 243 242 31
3 241 242 243
3 64 244 245
3 64 246 248
3 246 44 247
3 246 247 248
3 65 44 64
3 65 5 44
3 65 66 5
3 67 66 65
3 67 11 66
3 33 67 10
3 68 67 33
3 68 11 67
3 68 50 11
3 69 50 68
3 69 6 50
3 36 249 250
3 252 251 36
3 253 55 254
3 70 255 257
3 255 55 256
3 255 256 257
3 70 7 55
3 70 71 7
3 72 71 70
3 72 14 71
3 38 72 13
3 73 72 38
3 73 14 72
3 73 258 260
3 260 259 14
3 258 259 260
3 262 261 73
3 74 263 264
3 266 265 74
3 268 267 16
3 269 1 270
3 271 35 272
3 75 273 275
3 273 35 274
3 273 274 275
3 75 2 35
3 277 276 3
3 278 74 279
3 76 280 282
3 280 74 281
3 280 281 282
3 76 16 74
3 42 283 285
3 283 76 284
3 283 284 285
3 77 76 42
3 77 16 76
3 77 286 288
3 288 287 16
3 286 287 288
3 78 289 291
3 291 290 77
3 289 290 291
3 78 292 293
3 294 4 295
3 79 296 297
3 79 298 300
3 298 4 299
3 298 299 300
3 79 43 4
3 80 43 79
3 80 17 43
3 46 80 18
3 81 80 46
3 81 17 80
3 81 78 17
3 82 78 81
3 82 301 303
3 303 302 78
3 301 302 303
3 82 304 305
3 83 306 308
3 308 307 82
3 306 307 308
3 83 309 310
3 48 83 19
3 84 83 48
3 84 311 313
3 313 312 83
3 311 312 313
3 84 314 316
3 314 40 315
3 314 315 316
3 85 40 84
3 85 3 40
3 66 49 5
3 86 49 66
3 86 20 49
3 51 86 11
3 87 86 51
3 87 20 86
3 87 85 20
3 88 85 87
3 88 3 85
3 88 63 3
3 89 63 88
3 89 8 63
3 53 89 21
3 90 89 53
3 90 8 89
3 90 27 8
3 91 27 90
3 91 0 27
3 317 1 318
3 92 319 320
3 92 321 323
3 321 1 322
3 321 322 323
3 92 34 1
3 93 34 92
3 93 12 34
3 57 93 23
3 94 93 57
3 94 12 93
3 94 69 12
3 95 69 94
3 95 6 69
3 71 58 7
3 96 58 71
3 96 24 58
3 59 96 14
3 97 96 59
3 97 24 96
3 97 95 24
3 98 95 97
3 98 6 95
3 98 54 6
3 99 54 98
3 99 22 54
3 61 99 25
3 100 99 61
3 100 22 99
3 100 91 22
3 101 91 100
3 101 0 91
3 324 75 325
3 102 326 328
3 326 75 327
3 326 327 328
3 102 2 75
3 329 102 330
3 331 102 332
3 333 2 334
3 335 334 102
3 333 334 335
3 336 39 337
3 338 337 2
3 336 337 338
3 339 39 340
3 341 15 342
3 343 342 39
3 341 342 343
3 344 15 345
3 347 346 15
3 348 62 349
3 350 62 351
3 352 26 353
3 354 353 62
3 352 353 354
3 355 26 356
3 357 101 358
3 359 358 26
3 357 358 359
3 103 360 362
3 360 101 361
3 360 361 362
3 103 0 101
3 103 30 0
3 104 30 103
3 104 9 30
3 363 104 364
3 105 365 367
3 365 104 366
3 365 366 367
3 105 9 104
3 105 368 370
3 370 369 9
3 368 369 370
3 372 371 105
