ply
format ascii 1.0
element vertex 284
property float x
property float y
property float z
element face 274
property list uchar int vertex_index
end_header
-22.949369 -7.076767 -6.347281
-21.881517 -2.0132 -11.443166
-23.243307 -0.753532 -4.570301
-19.391895 2.872742 -8.127129
-18.007877 7.659054 -12.466965
-18.0562 13.802598 -18.963219
-22.167473 -4.850245 -8.655448
-22.247456 5.174368 -5.956969
-18.287991 8.927508 -9.075715
-18.463007 5.149936 -10.052222
-18.339746 16.929882 -22.7379
-22.523855 -4.445214 -5.145306
-20.953787 -2.415253 -7.155027
-20.926704 0.954433 -6.367955
-20.105057 -0.186176 -9.313561
-19.78841 2.471994 -11.942013
-19.885981 5.477718 -15.039108
-17.879644 10.739916 -15.518682
-20.310457 8.561144 -18.545399
-20.656376 12.235103 -22.515949
-22.461229 -5.975803 -7.444369
-22.656956 -2.595284 -4.861673
-21.646196 -1.750081 -5.769053
-21.969961 0.204934 -5.501103
-23.879866 -3.153177 -3.921026
-20.098532 0.264577 -7.617939
-20.448156 -1.321406 -8.158638
-19.573792 1.341 -8.623466
-18.187748 6.366603 -11.236007
-18.939486 3.784047 -10.903828
-18.899349 4.935702 -12.30174
-19.823906 3.832954 -13.3978
-18.781252 6.472972 -13.627369
-17.022732 14.99946 -17.32328
-17.028635 13.557409 -15.774843
-18.021559 12.057032 -17.191223
-18.992441 9.394492 -16.877457
-19.099089 11.037191 -18.608725
-20.484564 10.297009 -20.415476
-19.350479 12.591399 -20.554586
-21.922567 -3.437702 -9.982494
-22.635307 2.116331 -5.296136
-18.82452 5.655047 -8.562175
-18.854284 3.98446 -9.093593
-18.213932 6.96517 -9.51785
-17.812361 7.961078 -10.502017
-17.461205 9.355723 -11.584221
-17.05678 16.529177 -19.037724
-18.243303 15.249807 -20.823168
-17.180286 17.907843 -20.852716
-17.22645 19.573307 -22.790682
-17.295561 21.22258 -24.884769
-22.55933 -5.830946 -5.68811
-21.896975 -4.791251 -6.665595
-21.626213 -3.407423 -6.155072
-20.792128 -0.896766 -6.705948
-20.067993 1.941562 -7.233884
-21.433611 2.929269 -6.100189
-20.403999 3.830991 -6.896597
-19.503363 4.728576 -7.736423
-21.391771 -3.709436 -7.760344
-21.078905 -2.605996 -8.926779
-20.877304 -1.294034 -10.24443
-19.228737 2.400791 -9.719756
-19.854162 1.188882 -10.597087
-20.77906 0.18494 -11.680681
-20.893139 1.544826 -13.212447
-20.902803 3.205958 -14.737059
-21.213978 4.71208 -16.545692
-17.264912 10.547316 -12.837445
-17.053362 12.201303 -14.220966
-17.911816 9.189933 -13.990303
-18.882116 7.851509 -15.208751
-20.042727 7.115457 -16.792494
-21.409838 6.408063 -18.332033
-19.4585 14.378564 -22.489334
-22.705299 -6.526285 -6.895825
-23.067075 -7.076576 -7.293557
-23.311145 -7.627058 -6.745013
-23.542631 -8.168115 -6.156078
-23.256771 -7.540335 -5.796828
-23.311145 -7.627058 -6.745013
-23.542631 -8.168115 -6.156078
-22.532229 -2.336374 -12.091272
-22.506577 -3.115697 -11.31599
-21.934176 -1.305652 -12.202065
-22.532229 -2.336374 -12.091272
-23.561587 -1.953354 -4.245664
-24.264929 -2.146606 -3.80664
-23.946649 -0.946784 -4.131278
-22.662138 -5.218523 -9.218918
-22.748746 -5.899802 -8.518154
-22.04502 -4.143973 -9.318971
-22.539685 -4.512251 -9.882441
-22.662138 -5.218523 -9.218918
-17.521123 9.522567 -10.712371
-17.746646 8.988626 -10.242935
-17.345545 10.21989 -11.253473
-17.636783 8.6584 -11.043119
-17.521123 9.522567 -10.712371
-16.623398 17.987429 -19.18544
-16.583668 17.396333 -18.306711
-16.685151 18.676762 -20.092936
-17.118533 17.21851 -19.94522
-16.623398 17.987429 -19.18544
-16.719313 21.018609 -22.913642
-16.696777 20.28772 -21.934731
-16.753868 21.843246 -23.960685
-17.261005 20.397944 -23.837725
-16.719313 21.018609 -22.913642
-16.758598 22.603639 -24.960377
-16.753868 21.843246 -23.960685
-20.17461 5.349499 -7.177387
-20.72677 4.898919 -6.787895
-19.724292 5.798292 -7.5973
-19.953681 4.279784 -7.31651
-20.17461 5.349499 -7.177387
-19.261198 6.263424 -7.997224
-19.724292 5.798292 -7.5973
-22.936464 -5.543333 -4.908641
-23.018914 -4.792705 -4.666303
-22.541593 -5.13808 -5.416708
-22.954201 -6.236199 -5.180044
-22.936464 -5.543333 -4.908641
-16.904968 12.20896 -13.021034
-17.041812 11.563001 -12.438887
-21.017485 8.349889 -19.438975
-21.567175 7.273349 -19.332292
-20.860148 7.484604 -18.438716
-21.312647 11.115004 -22.447427
-21.226741 10.145957 -21.397191
-20.57047 11.266056 -21.465713
-21.455029 12.032211 -23.5154
-21.312647 11.115004 -22.447427
-22.895624 -6.46258 -7.912614
-23.067075 -7.076576 -7.293557
-22.314351 -5.413024 -8.049909
-22.748746 -5.899802 -8.518154
-22.895624 -6.46258 -7.912614
-17.984461 9.471841 -9.529784
-18.103697 10.587151 -9.303394
-21.648499 5.570607 -6.318081
-22.097238 6.711885 -6.272489
-24.582986 -3.514946 -3.419676
-24.264929 -2.146606 -3.80664
-24.263579 -4.401478 -3.578079
-24.582986 -3.514946 -3.419676
-23.696919 -4.146687 -4.054163
-24.263579 -4.401478 -3.578079
-23.085465 -3.86774 -4.524487
-23.696919 -4.146687 -4.054163
-23.268411 -2.87423 -4.391349
-22.590406 -3.520249 -5.003489
-23.018914 -4.792705 -4.666303
-23.085465 -3.86774 -4.524487
-17.025683 14.278434 -16.549062
-16.629351 15.082821 -15.886554
-16.626399 15.803846 -16.660773
-19.018374 16.509774 -23.694894
-18.403768 17.764575 -23.767176
-22.527102 -3.827948 -10.585654
-22.539685 -4.512251 -9.882441
-21.902042 -2.725451 -10.71283
-22.506577 -3.115697 -11.31599
-22.527102 -3.827948 -10.585654
-23.319341 1.791557 -4.887001
-22.939307 0.6814 -4.933218
-23.623341 0.356625 -4.524083
-23.124451 3.219552 -5.240249
-23.319341 1.791557 -4.887001
-22.930526 4.74857 -5.570666
-22.441381 3.64535 -5.626552
-23.124451 3.219552 -5.240249
-22.774459 6.29287 -5.925469
-22.930526 4.74857 -5.570666
-22.097238 6.711885 -6.272489
-22.774459 6.29287 -5.925469
-23.623341 0.356625 -4.524083
-23.946649 -0.946784 -4.131278
-17.947432 8.490672 -9.750851
-18.250962 7.946339 -9.296782
-17.984461 9.471841 -9.529784
-18.013146 7.463124 -10.009933
-17.947432 8.490672 -9.750851
-17.746646 8.988626 -10.242935
-16.566644 16.631474 -17.449489
-16.626399 15.803846 -16.660773
-17.039756 15.764318 -18.180502
-16.566644 16.631474 -17.449489
-16.583668 17.396333 -18.306711
-16.673696 19.454988 -20.965749
-16.685151 18.676762 -20.092936
-17.203368 18.740575 -21.821699
-16.673696 19.454988 -20.965749
-16.696777 20.28772 -21.934731
-17.84712 19.086287 -23.793568
-18.403768 17.764575 -23.767176
-17.783098 18.251594 -22.764291
-17.881676 19.910924 -24.840611
-17.84712 19.086287 -23.793568
-17.261005 20.397944 -23.837725
-17.960276 20.738444 -25.952107
-17.881676 19.910924 -24.840611
-17.339264 22.009403 -25.975852
-17.960276 20.738444 -25.952107
-16.802301 23.390463 -26.051461
-17.339264 22.009403 -25.975852
-16.758598 22.603639 -24.960377
-21.241576 4.448057 -6.389691
-21.840533 4.051819 -6.028579
-21.648499 5.570607 -6.318081
-20.918805 3.38013 -6.498393
-21.241576 4.448057 -6.389691
-20.72677 4.898919 -6.787895
-18.921776 6.726659 -8.4101
-19.163941 5.191812 -8.149299
-19.261198 6.263424 -7.997224
-18.653512 8.362889 -8.66687
-18.556255 7.291277 -8.818945
-18.921776 6.726659 -8.4101
-18.495414 9.948082 -8.900778
-18.653512 8.362889 -8.66687
-18.103697 10.587151 -9.303394
-18.495414 9.948082 -8.900778
-23.061751 -6.917424 -5.467242
-22.954201 -6.236199 -5.180044
-22.75435 -6.453857 -6.017696
-23.256771 -7.540335 -5.796828
-23.061751 -6.917424 -5.467242
-21.382948 -0.206583 -12.320823
-21.934176 -1.305652 -12.202065
-21.330289 -0.91413 -11.561923
-21.439987 0.473361 -13.086706
-21.382948 -0.206583 -12.320823
-20.8361 0.864883 -12.446564
-21.501492 1.288019 -13.906803
-21.439987 0.473361 -13.086706
-21.506324 2.118585 -14.66911
-21.501492 1.288019 -13.906803
-20.897971 2.375392 -13.974753
-21.638212 2.909904 -15.536604
-21.506324 2.118585 -14.66911
-21.793799 3.662966 -16.44092
-21.638212 2.909904 -15.536604
-21.058391 3.959019 -15.641375
-21.956902 4.543052 -17.416821
-21.793799 3.662966 -16.44092
-17.139958 10.967204 -11.812275
-17.345545 10.21989 -11.253473
-17.363059 9.951519 -12.210833
-17.139958 10.967204 -11.812275
-17.041812 11.563001 -12.438887
-16.686793 14.401181 -15.15069
-16.629351 15.082821 -15.886554
-16.699156 13.723128 -14.373752
-16.686793 14.401181 -15.15069
-17.040999 12.879356 -14.997905
-16.799194 13.035953 -13.712795
-16.699156 13.723128 -14.373752
-17.159137 11.374309 -13.529205
-16.904968 12.20896 -13.021034
-16.799194 13.035953 -13.712795
-22.054831 5.391044 -18.309991
-21.956902 4.543052 -17.416821
-21.311908 5.560072 -17.438862
-22.160089 6.286691 -19.232193
-22.054831 5.391044 -18.309991
-22.160089 6.286691 -19.232193
-21.567175 7.273349 -19.332292
-21.104538 9.217822 -20.374013
-21.017485 8.349889 -19.438975
-20.39751 9.429077 -19.480438
-21.104538 9.217822 -20.374013
-21.226741 10.145957 -21.397191
-19.577751 15.234115 -23.570611
-18.899123 15.654223 -22.613617
-19.018374 16.509774 -23.694894
-20.170924 14.138891 -23.491888
-19.577751 15.234115 -23.570611
-20.769862 13.06716 -23.505195
-20.057438 13.306833 -22.502641
-20.170924 14.138891 -23.491888
-21.455029 12.032211 -23.5154
-20.769862 13.06716 -23.505195
3 0 76 78
3 76 20 77
3 76 77 78
3 0 79 80
3 0 81 82
3 1 83 84
3 1 85 86
3 2 23 21
3 2 87 89
3 87 24 88
3 87 88 89
3 2 21 24
3 3 27 25
3 4 30 28
3 4 32 30
3 5 35 33
3 5 37 35
3 5 39 37
3 6 90 91
3 6 92 94
3 92 40 93
3 92 93 94
3 8 44 42
3 95 45 96
3 97 46 98
3 99 98 45
3 97 98 99
3 100 47 101
3 102 49 103
3 104 103 47
3 102 103 104
3 105 50 106
3 107 51 108
3 109 108 50
3 107 108 109
3 111 110 51
3 11 54 52
3 13 55 22
3 13 56 55
3 7 57 41
3 112 58 113
3 114 59 115
3 116 115 58
3 114 115 116
3 118 117 59
3 11 119 120
3 11 121 123
3 121 52 122
3 121 122 123
3 12 60 53
3 14 61 26
3 14 62 61
3 9 63 43
3 15 64 29
3 15 65 64
3 15 66 65
3 16 67 31
3 16 68 67
3 124 69 125
3 17 70 34
3 17 71 70
3 17 72 71
3 18 73 36
3 18 74 73
3 18 126 128
3 128 127 74
3 126 127 128
3 19 129 131
3 131 130 38
3 129 130 131
3 19 132 133
3 10 75 48
3 20 134 135
3 20 136 138
3 136 6 137
3 136 137 138
3 140 139 8
3 21 22 11
3 23 22 21
3 23 13 22
3 142 141 7
3 24 143 144
3 24 145 146
3 24 147 148
3 21 149 151
3 151 150 24
3 149 150 151
3 21 152 154
3 152 11 153
3 152 153 154
3 25 26 12
3 27 26 25
3 27 14 26
3 28 29 9
3 30 29 28
3 30 15 29
3 30 31 15
3 32 31 30
3 32 16 31
3 33 155 157
3 155 34 156
3 155 156 157
3 35 34 33
3 35 17 34
3 35 36 17
3 37 36 35
3 37 18 36
3 37 38 18
3 39 38 37
3 39 19 38
3 159 158 10
3 40 160 161
3 40 162 164
3 162 1 163
3 162 163 164
3 165 41 166
3 167 166 2
3 165 166 167
3 168 41 169
3 170 7 171
3 172 171 41
3 170 171 172
3 173 7 174
3 176 175 7
3 177 2 178
3 42 43 3
3 44 43 42
3 44 9 43
3 179 44 180
3 181 180 8
3 179 180 181
3 45 182 184
3 182 44 183
3 182 183 184
3 45 9 44
3 45 28 9
3 46 28 45
3 46 4 28
3 185 33 186
3 47 187 189
3 187 33 188
3 187 188 189
3 47 5 33
3 47 48 5
3 49 48 47
3 49 10 48
3 190 49 191
3 50 192 194
3 192 49 193
3 192 193 194
3 50 10 49
3 50 195 197
3 197 196 10
3 195 196 197
3 51 198 200
3 200 199 50
3 198 199 200
3 51 201 202
3 51 203 204
3 207 206 51
3 205 206 207
3 52 53 0
3 54 53 52
3 54 12 53
3 22 54 11
3 55 54 22
3 55 12 54
3 55 25 12
3 56 25 55
3 56 3 25
3 41 23 2
3 57 23 41
3 57 13 23
3 208 57 209
3 210 209 7
3 208 209 210
3 58 211 213
3 211 57 212
3 211 212 213
3 58 13 57
3 58 56 13
3 59 56 58
3 59 3 56
3 59 42 3
3 214 42 215
3 216 215 59
3 214 215 216
3 217 8 218
3 219 218 42
3 217 218 219
3 220 8 221
3 223 222 8
3 52 224 225
3 52 226 228
3 226 0 227
3 226 227 228
3 53 20 0
3 60 20 53
3 60 6 20
3 26 60 12
3 61 60 26
3 61 6 60
3 61 40 6
3 62 40 61
3 62 1 40
3 43 27 3
3 63 27 43
3 63 14 27
3 29 63 9
3 64 63 29
3 64 14 63
3 64 62 14
3 65 62 64
3 65 1 62
3 65 229 231
3 231 230 1
3 229 230 231
3 66 232 234
3 234 233 65
3 232 233 234
3 66 235 236
3 31 66 15
3 67 66 31
3 67 237 239
3 239 238 66
3 237 238 239
3 67 240 241
3 68 242 244
3 244 243 67
3 242 243 244
3 68 245 246
3 247 46 248
3 69 249 251
3 249 46 250
3 249 250 251
3 69 4 46
3 34 252 253
3 70 254 256
3 256 255 34
3 254 255 256
3 70 257 258
3 70 259 261
3 259 69 260
3 259 260 261
3 71 69 70
3 71 4 69
3 71 32 4
3 72 32 71
3 72 16 32
3 36 72 17
3 73 72 36
3 73 16 72
3 73 68 16
3 74 68 73
3 74 262 264
3 264 263 68
3 262 263 264
3 74 265 266
3 268 267 74
3 38 269 271
3 271 270 18
3 269 270 271
3 273 272 38
3 48 39 5
3 75 39 48
3 75 19 39
3 274 75 275
3 276 275 10
3 274 275 276
3 277 75 278
3 279 19 280
3 281 280 75
3 279 280 281
3 283 282 19
