ply
format ascii 1.0
element vertex 99
property float x
property float y
property float z
element face 76
property list uchar int vertex_index
end_header
31.950472 -44.540043 -46.210323
29.502285 -42.636364 -49.250134
26.598454 -40.485027 -51.795784
28.972239 -51.470539 -44.816891
31.052164 -48.578938 -44.585232
30.044765 -47.461239 -46.259705
30.759689 -43.622879 -47.815693
28.563442 -47.008072 -47.655571
25.695551 -44.89365 -50.263573
32.193409 -48.775024 -43.048676
32.765583 -40.539299 -47.751808
27.282223 -46.018707 -48.951443
27.968506 -41.832039 -50.542313
28.360481 -51.152392 -45.507519
27.810118 -53.181286 -44.783964
28.896745 -49.147741 -46.228926
29.508502 -49.465889 -45.538298
28.360481 -51.152392 -45.507519
28.156083 -48.921158 -46.926859
29.304104 -47.234656 -46.957638
28.896745 -49.147741 -46.228926
31.142426 -50.528233 -43.081066
31.67631 -50.749434 -42.19623
32.472871 -44.851942 -45.40719
32.023717 -46.871389 -44.594645
31.501318 -46.55949 -45.397778
32.91019 -42.851446 -46.185339
32.472871 -44.851942 -45.40719
32.358027 -42.539671 -46.981065
33.317745 -40.851074 -46.956081
32.91019 -42.851446 -46.185339
30.559092 -41.040388 -49.300375
31.187794 -41.533645 -48.583155
30.130987 -43.129621 -48.532914
29.844181 -40.593954 -50.027384
30.559092 -41.040388 -49.300375
26.031402 -47.578346 -48.875318
26.742904 -48.118294 -48.244446
27.685313 -38.986477 -51.950599
28.37034 -39.659982 -51.323864
27.28348 -41.158533 -51.169049
28.454502 -53.466234 -44.026228
27.292381 -55.176981 -43.993302
27.810118 -53.181286 -44.783964
29.531841 -51.87599 -43.965174
28.454502 -53.466234 -44.026228
30.012201 -50.024738 -44.701061
30.571804 -50.430189 -43.849345
29.531841 -51.87599 -43.965174
24.471839 -46.542431 -50.054129
25.238066 -47.015817 -49.531384
24.985449 -44.26372 -50.808394
24.471839 -46.542431 -50.054129
25.436901 -42.059408 -51.574499
26.147002 -42.689339 -51.029679
24.985449 -44.26372 -50.808394
32.640089 -49.009476 -42.148827
31.67631 -50.749434 -42.19623
33.082918 -47.202635 -42.942825
33.529598 -47.437086 -42.042977
32.640089 -49.009476 -42.148827
31.622787 -48.676981 -43.816954
31.142426 -50.528233 -43.081066
30.571804 -50.430189 -43.849345
32.59434 -46.969432 -43.826366
31.622787 -48.676981 -43.816954
32.023717 -46.871389 -44.594645
33.082918 -47.202635 -42.942825
32.59434 -46.969432 -43.826366
33.645497 -38.83963 -47.783184
33.317745 -40.851074 -46.956081
33.100943 -38.494623 -48.550344
33.980856 -36.794954 -48.581721
33.645497 -38.83963 -47.783184
32.190741 -39.991855 -48.551212
31.762636 -42.081089 -47.78375
31.187794 -41.533645 -48.583155
33.100943 -38.494623 -48.550344
32.190741 -39.991855 -48.551212
27.383513 -48.612976 -47.59651
28.156083 -48.921158 -46.926859
27.922832 -46.51339 -48.303507
27.383513 -48.612976 -47.59651
26.742904 -48.118294 -48.244446
26.488887 -45.456179 -49.607508
26.031402 -47.578346 -48.875318
25.238066 -47.015817 -49.531384
29.077292 -40.191792 -50.673474
29.844181 -40.593954 -50.027384
28.735396 -42.234201 -49.896224
29.077292 -40.191792 -50.673474
28.37034 -39.659982 -51.323864
25.859684 -39.967115 -52.287431
25.436901 -42.059408 -51.574499
26.991971 -38.293087 -52.571926
25.859684 -39.967115 -52.287431
26.253201 -37.775175 -53.063574
27.685313 -38.986477 -51.950599
26.991971 -38.293087 -52.571926
3 13 3 14
3 15 5 16
3 17 16 3
3 15 16 17
3 18 7 19
3 20 19 5
3 18 19 20
3 21 9 22
3 0 23 25
3 25 24 4
3 23 24 25
3 0 26 27
3 0 28 30
3 28 10 29
3 28 29 30
3 1 31 33
3 33 32 6
3 31 32 33
3 1 34 35
3 36 11 37
3 2 12 8
3 2 38 40
3 40 39 12
3 38 39 40
3 3 41 43
3 41 42 43
3 3 44 45
3 3 46 48
3 46 4 47
3 46 47 48
3 5 4 3
3 5 0 4
3 5 6 0
3 7 6 5
3 7 1 6
3 49 8 50
3 51 8 52
3 53 2 54
3 55 54 8
3 53 54 55
3 9 56 57
3 9 58 60
3 58 59 60
3 4 61 63
3 61 9 62
3 61 62 63
3 64 9 65
3 66 65 4
3 64 65 66
3 68 67 9
3 10 69 70
3 10 71 73
3 71 72 73
3 6 10 0
3 74 10 75
3 76 75 6
3 74 75 76
3 78 77 10
3 79 7 80
3 11 81 83
3 81 7 82
3 81 82 83
3 11 1 7
3 8 84 86
3 84 11 85
3 84 85 86
3 12 11 8
3 12 1 11
3 12 87 89
3 89 88 1
3 87 88 89
3 91 90 12
3 92 2 93
3 94 2 95
3 94 95 96
3 98 97 2
