ply
format ascii 1.0
element vertex 232
property float x
property float y
property float z
element face 220
property list uchar int vertex_index
end_header
32.710022 32.633732 30.191038
32.203079 16.492239 31.775785
35.042782 40.333519 20.745323
35.085522 22.957891 24.228546
33.841343 36.391468 25.709501
35.155422 31.607134 22.757944
33.820042 28.320108 27.048565
31.714117 28.251171 34.318779
32.524269 24.414171 31.127384
33.569168 19.921293 28.230526
35.825813 51.419228 12.958061
34.69239 48.346947 18.812731
33.680122 44.811066 24.024483
32.703709 40.775536 29.105204
31.890848 36.093418 33.641811
33.282059 34.660492 27.905951
33.833714 32.442276 26.45751
33.220081 30.425209 28.63942
31.616838 24.455755 34.411282
35.685932 41.517422 18.245043
35.11837 27.411501 23.611044
32.388767 20.456524 31.463072
33.050346 22.510324 29.583685
32.85339 18.357513 30.085608
35.517952 55.588852 11.448936
34.99276 54.349854 14.454491
35.257317 50.041592 15.895709
33.51025 48.905571 23.218172
33.062977 46.979771 25.860565
33.188625 43.059196 26.50919
31.54776 33.670586 35.651218
34.437191 38.247711 23.323044
35.169037 35.891838 21.695677
34.493984 34.154076 24.136148
34.456215 29.953587 25.027479
34.426075 25.511326 25.686646
32.194389 30.585867 32.295639
32.624004 28.533714 30.732756
32.08036 26.395029 32.689529
31.963526 22.449471 32.927387
31.77742 18.513315 33.244919
33.128735 26.385094 29.226027
33.71307 24.094635 27.699345
34.293129 21.369091 26.345594
33.325253 15.786341 28.803053
34.121449 17.264151 26.887569
34.968086 18.708443 24.807878
36.104115 47.198143 14.300833
35.472759 45.977161 17.09753
34.927681 44.340557 19.664051
34.004265 50.755569 20.384428
34.171375 46.773766 21.424692
34.315571 42.493721 22.450365
33.747654 40.57196 25.039557
33.217918 38.824799 27.403309
32.722134 36.618088 29.716021
32.262672 42.39674 30.901253
32.267792 38.344173 31.508736
32.257374 34.568691 31.899698
31.846264 32.386688 33.8964
35.443076 38.820966 19.993024
35.764651 39.412918 18.742884
35.364357 40.925471 19.495183
35.464502 23.725504 23.166901
35.480926 25.952309 22.858149
35.101946 25.184696 23.919795
35.418732 21.501107 23.515014
35.464502 23.725504 23.166901
34.603426 55.615559 15.310634
34.841169 56.330231 13.782883
34.753399 53.416008 15.961693
34.603426 55.615559 15.310634
32.81156 47.767404 26.794781
32.9921 48.968836 25.451556
32.864494 45.738035 27.139943
32.81156 47.767404 26.794781
31.696524 21.591316 33.843044
31.790182 23.452613 33.669335
31.52318 22.594459 34.584992
31.603471 19.623238 34.00181
31.870473 20.481393 33.086153
31.696524 21.591316 33.843044
35.53062 32.422845 21.497625
35.537428 34.565197 20.966491
35.16223 33.749486 22.22681
33.214493 13.698459 28.971512
32.961935 14.839134 29.666332
34.431812 15.895801 26.155196
34.012095 15.284217 27.119393
34.855131 16.617947 25.11535
34.544767 17.986297 25.847724
34.431812 15.895801 26.155196
35.27289 17.218453 24.126779
34.855131 16.617947 25.11535
36.094915 52.134642 11.409074
35.940984 54.219454 10.654511
35.671882 53.50404 12.203499
36.247783 50.028957 12.183067
36.094915 52.134642 11.409074
35.964964 49.308685 13.629447
36.386934 47.918415 12.854453
36.247783 50.028957 12.183067
33.680237 51.897493 21.24006
33.903951 52.833179 19.761405
32.083696 43.156004 31.80135
32.241915 44.420664 30.556168
32.07932 37.218795 32.575273
32.084421 39.145083 32.407394
31.895948 38.019705 33.473932
31.50177 31.832586 35.752214
31.393633 32.511313 36.596287
31.470349 25.33409 35.223692
31.665478 26.353463 34.365031
31.518988 27.231798 35.177441
31.388111 23.488184 35.330585
31.470349 25.33409 35.223692
31.52318 22.594459 34.584992
31.388111 23.488184 35.330585
36.095236 40.254202 17.418693
35.977411 42.332852 16.952631
36.095236 40.254202 17.418693
35.764651 39.412918 18.742884
35.48935 28.22878 22.464171
35.507875 30.326597 22.037622
35.136896 29.509318 23.184494
35.48935 28.22878 22.464171
35.480926 25.952309 22.858149
35.103766 56.94973 12.280105
35.324078 57.669529 10.730632
35.255356 54.969353 12.951714
35.103766 56.94973 12.280105
34.841169 56.330231 13.782883
34.885677 51.261877 16.682302
35.125039 52.195723 15.1751
34.753399 53.416008 15.961693
34.603214 50.414555 18.140813
34.974854 49.19427 17.35422
34.885677 51.261877 16.682302
33.215736 49.931736 24.130359
33.433229 50.972494 22.656932
33.286614 47.942671 24.539369
33.215736 49.931736 24.130359
32.9921 48.968836 25.451556
32.927318 43.777748 27.464256
33.125801 45.019483 26.184877
32.864494 45.738035 27.139943
32.68486 42.635918 28.762262
32.946167 41.917366 27.807197
32.927318 43.777748 27.464256
31.750784 36.783926 34.485097
31.895948 38.019705 33.473932
31.57924 35.57251 35.489801
31.719304 34.882002 34.646514
31.750784 36.783926 34.485097
31.435562 34.385881 36.532705
31.57924 35.57251 35.489801
31.393633 32.511313 36.596287
31.435562 34.385881 36.532705
32.400849 15.192083 31.152698
32.068596 14.525846 31.972852
31.49194 17.687413 34.149344
31.603471 19.623238 34.00181
31.66918 16.667129 33.387518
31.49194 17.687413 34.149344
31.88201 15.656591 32.652951
31.99025 17.502777 32.510352
31.66918 16.667129 33.387518
32.068596 14.525846 31.972852
31.88201 15.656591 32.652951
35.506203 36.600126 20.468201
35.443076 38.820966 19.993024
35.10591 38.112679 21.2205
35.506203 36.600126 20.468201
35.537428 34.565197 20.966491
35.53062 32.422845 21.497625
35.507875 30.326597 22.037622
32.726004 16.12472 30.30761
32.528234 17.424876 30.930696
32.400849 15.192083 31.152698
33.089321 17.071927 29.44433
32.726004 16.12472 30.30761
32.961935 14.839134 29.666332
33.613996 14.545312 28.077135
33.214493 13.698459 28.971512
33.723351 16.525246 27.845311
33.613996 14.545312 28.077135
34.012095 15.284217 27.119393
35.360014 19.376383 23.80468
35.418732 21.501107 23.515014
35.026804 20.833167 24.518212
35.360014 19.376383 23.80468
35.27289 17.218453 24.126779
35.749802 56.283972 9.903899
35.324078 57.669529 10.730632
35.749802 56.283972 9.903899
35.940984 54.219454 10.654511
36.515417 45.704494 13.599079
36.386934 47.918415 12.854453
36.186503 45.173212 14.980526
36.515417 45.704494 13.599079
35.870824 44.562721 16.378875
36.186503 45.173212 14.980526
35.788437 46.587652 15.699181
35.579346 43.747292 17.671287
35.977411 42.332852 16.952631
35.870824 44.562721 16.378875
34.259152 51.618865 18.926662
33.903951 52.833179 19.761405
34.348327 49.551258 19.598579
34.603214 50.414555 18.140813
34.259152 51.618865 18.926662
33.757257 49.83057 21.8013
33.680237 51.897493 21.24006
33.433229 50.972494 22.656932
32.464342 43.44652 29.660287
32.241915 44.420664 30.556168
32.483191 41.586138 30.003228
32.68486 42.635918 28.762262
32.464342 43.44652 29.660287
32.081861 41.171366 32.103653
32.083696 43.156004 31.80135
32.265232 40.370457 31.204994
32.081861 41.171366 32.103653
32.084421 39.145083 32.407394
31.651022 31.190638 34.874805
31.697012 33.028637 34.773809
31.50177 31.832586 35.752214
31.584949 29.122879 35.085994
31.780191 30.318929 34.10759
31.651022 31.190638 34.874805
31.518988 27.231798 35.177441
31.584949 29.122879 35.085994
3 0 17 15
3 2 60 62
3 62 61 19
3 60 61 62
3 3 63 65
3 65 64 20
3 63 64 65
3 3 66 67
3 1 23 21
3 68 25 69
3 71 70 25
3 72 28 73
3 75 74 28
3 4 33 31
3 6 34 16
3 6 35 34
3 7 38 36
3 76 39 77
3 78 77 18
3 76 77 78
3 79 40 80
3 81 80 39
3 79 80 81
3 5 82 84
3 84 83 32
3 82 83 84
3 8 41 37
3 9 42 22
3 9 43 42
3 85 44 86
3 87 45 88
3 89 46 90
3 91 90 45
3 89 90 91
3 93 92 46
3 10 94 96
3 96 95 24
3 94 95 96
3 10 97 98
3 10 99 101
3 99 47 100
3 99 100 101
3 11 48 26
3 11 49 48
3 102 50 103
3 12 51 27
3 12 52 51
3 12 53 52
3 13 54 29
3 13 55 54
3 104 56 105
3 14 106 108
3 106 57 107
3 106 107 108
3 14 58 57
3 14 59 58
3 110 109 30
3 15 16 4
3 17 16 15
3 17 6 16
3 111 18 112
3 113 112 7
3 111 112 113
3 114 18 115
3 117 116 18
3 19 118 119
3 121 120 19
3 20 122 124
3 124 123 5
3 122 123 124
3 126 125 20
3 21 22 8
3 23 22 21
3 23 9 22
3 127 24 128
3 25 129 131
3 129 24 130
3 129 130 131
3 25 10 24
3 25 26 10
3 132 26 133
3 134 133 25
3 132 133 134
3 135 11 136
3 137 136 26
3 135 136 137
3 138 27 139
3 28 140 142
3 140 27 141
3 140 141 142
3 28 12 27
3 28 29 12
3 143 29 144
3 145 144 28
3 143 144 145
3 146 13 147
3 148 147 29
3 146 147 148
3 149 14 150
3 151 30 152
3 153 152 14
3 151 152 153
3 154 30 155
3 157 156 30
3 31 32 2
3 33 32 31
3 33 5 32
3 16 33 4
3 34 33 16
3 34 5 33
3 34 20 5
3 35 20 34
3 35 3 20
3 159 158 1
3 36 37 0
3 38 37 36
3 38 8 37
3 18 38 7
3 39 38 18
3 39 8 38
3 39 21 8
3 40 21 39
3 40 1 21
3 160 40 161
3 162 40 163
3 164 1 165
3 166 165 40
3 164 165 166
3 168 167 1
3 32 169 171
3 171 170 2
3 169 170 171
3 173 172 32
3 175 174 5
3 37 17 0
3 41 17 37
3 41 6 17
3 22 41 8
3 42 41 22
3 42 6 41
3 42 35 6
3 43 35 42
3 43 3 35
3 176 23 177
3 178 177 1
3 176 177 178
3 44 179 181
3 179 23 180
3 179 180 181
3 44 9 23
3 182 44 183
3 45 184 186
3 184 44 185
3 184 185 186
3 45 9 44
3 45 43 9
3 46 43 45
3 46 3 43
3 46 187 189
3 189 188 3
3 187 188 189
3 191 190 46
3 24 192 193
3 195 194 24
3 47 196 197
3 47 198 199
3 26 47 10
3 48 47 26
3 48 200 202
3 202 201 47
3 200 201 202
3 48 203 205
3 203 19 204
3 203 204 205
3 49 19 48
3 49 2 19
3 50 206 207
3 50 208 210
3 208 11 209
3 208 209 210
3 27 211 213
3 211 50 212
3 211 212 213
3 51 50 27
3 51 11 50
3 51 49 11
3 52 49 51
3 52 2 49
3 52 31 2
3 53 31 52
3 53 4 31
3 29 53 12
3 54 53 29
3 54 4 53
3 54 15 4
3 55 15 54
3 55 0 15
3 56 214 215
3 56 216 218
3 216 13 217
3 216 217 218
3 219 56 220
3 57 221 223
3 221 56 222
3 221 222 223
3 57 13 56
3 57 55 13
3 58 55 57
3 58 0 55
3 58 36 0
3 59 36 58
3 59 7 36
3 30 59 14
3 224 59 225
3 226 225 30
3 224 225 226
3 227 7 228
3 229 228 59
3 227 228 229
3 231 230 7
