ply
format ascii 1.0
element vertex 390
property float x
property float y
property float z
element face 384
property list uchar int vertex_index
end_header
-6.843683 -10.74527 -62.383541
-20.432407 -62.292732 -45.57317
-28.580629 -46.380283 -48.593632
-20.368896 -48.652779 -51.138393
-19.038015 -34.023529 -56.430283
-16.433535 -19.774059 -61.522663
-24.212152 -66.239059 -40.191845
-20.290768 -68.04528 -42.717564
-24.452887 -60.613495 -43.740314
-24.459753 -47.493191 -50.316505
-24.089113 -40.552235 -53.361557
-19.797119 -41.395226 -53.808765
-23.296955 -33.438408 -56.34388
-10.347265 -27.411209 -57.004536
-16.037224 -69.874748 -44.38171
-16.001539 -63.777351 -46.796658
-24.603632 -54.302795 -47.051357
-20.528307 -55.74474 -48.374836
-16.064484 -56.799313 -49.111538
-15.908419 -49.393059 -51.333698
-15.596308 -42.041618 -53.544415
-15.008171 -34.774292 -55.77737
-22.002359 -26.064127 -59.332886
-18.035213 -26.700003 -59.047825
-14.14992 -27.223017 -58.221031
-12.654007 -20.124052 -60.543137
-7.965026 -15.035209 -60.989983
-24.486235 -63.327522 -41.995358
-26.218077 -40.071442 -52.846855
-25.749887 -36.548092 -54.509483
-23.796566 -36.940258 -54.878551
-25.469246 -32.694847 -56.175087
-10.8951 -30.995068 -55.965652
-17.891094 -74.590431 -40.698994
-20.45392 -65.017265 -44.231689
-18.276924 -68.963867 -43.602409
-18.264578 -66.098114 -44.965599
-16.089151 -66.884857 -45.59623
-18.385418 -62.720352 -46.366329
-28.446625 -49.896118 -46.762093
-26.53936 -53.587826 -46.137482
-26.593084 -50.250496 -47.881756
-22.357233 -48.172939 -50.804646
-22.475016 -51.540051 -49.374207
-20.33695 -52.337257 -49.776516
-18.278963 -56.257652 -48.874928
-18.378965 -52.583817 -50.132149
-16.174675 -53.058712 -50.23698
-18.196682 -49.007175 -51.347927
-19.566303 -37.443657 -55.218647
-17.738365 -41.501339 -53.841896
-17.446541 -38.018055 -54.988239
-15.524817 -38.269047 -54.722
-17.038942 -34.176601 -56.257977
-18.368309 -19.190048 -61.985489
-19.199406 -22.948847 -60.569042
-17.333475 -23.007454 -60.383163
-16.086992 -26.858742 -58.740253
-15.351362 -23.562218 -59.850536
-13.380198 -23.822151 -59.296257
-14.506966 -20.124405 -61.016026
-8.60975 -17.556103 -60.175407
-22.135139 -69.681572 -39.941753
-20.021545 -71.015076 -41.135414
-22.331778 -67.049156 -41.599251
-22.326283 -64.477661 -43.189476
-22.552197 -61.458302 -44.69466
-26.446632 -47.150009 -49.516434
-26.361168 -43.695786 -51.179165
-24.284149 -44.122364 -51.835049
-22.236708 -44.503654 -52.280399
-20.173035 -44.924473 -52.51709
-22.027487 -40.735458 -53.766407
-21.557281 -37.356579 -55.103298
-21.181763 -33.683743 -56.500252
-17.294174 -15.708885 -63.261028
-15.353804 -16.356434 -62.709679
-17.968643 -71.898132 -42.258404
-15.807659 -72.784645 -43.167927
-24.652098 -57.444839 -45.385246
-22.596664 -58.327919 -46.249352
-24.561825 -50.897346 -48.719975
-22.653791 -54.869938 -47.838688
-20.533926 -59.068707 -46.975609
-18.277325 -59.673912 -47.617489
-16.049492 -60.083256 -48.06144
-17.983139 -45.441158 -52.535282
-15.914693 -45.547909 -52.492146
-13.604139 -42.133579 -53.239819
-13.447295 -38.471313 -54.301701
-13.110537 -34.467857 -55.482433
-22.71332 -29.5769 -57.914185
-20.63158 -29.917707 -57.92823
-21.197311 -22.581553 -60.728931
-19.984327 -26.262249 -59.315311
-18.547195 -30.458036 -57.693859
-16.494661 -30.525164 -57.469593
-14.590939 -30.857952 -57.025776
-12.691176 -30.773354 -56.596489
-12.194607 -27.286283 -57.670605
-11.64592 -23.797041 -58.792408
-10.89261 -20.702879 -59.752899
-13.522465 -16.667446 -62.186558
-11.803748 -17.151613 -61.511784
-10.193501 -17.575851 -60.797485
-9.39581 -14.555834 -61.80608
-8.528319 -12.065496 -62.57098
-7.328245 -12.475909 -61.840508
-6.232346 -12.478829 -61.247086
-26.599346 -34.659853 -55.010334
-26.793624 -36.265743 -54.236998
-26.459025 -32.733231 -55.843136
-25.609566 -34.62147 -55.342285
-26.599346 -34.659853 -55.010334
-11.048077 -32.84075 -55.421999
-10.10124 -32.899485 -55.079611
-18.947126 -74.024746 -40.062882
-17.755843 -75.916675 -39.890627
-18.811875 -75.35099 -39.254514
-29.435899 -46.097311 -48.099575
-29.427214 -44.442438 -49.0215
-28.513627 -48.1382 -47.677863
-29.368896 -47.855228 -47.183806
-29.435899 -46.097311 -48.099575
-8.915119 -19.114178 -59.655195
-8.188772 -19.110889 -59.338113
-24.083838 -67.429039 -39.360094
-25.113473 -65.602882 -39.535044
-23.173645 -67.960316 -40.066799
-23.045331 -69.150295 -39.235048
-24.083838 -67.429039 -39.360094
-27.296287 -41.58449 -51.693342
-27.352566 -43.376705 -50.809544
-17.705 -13.931673 -64.010465
-18.366036 -15.576811 -63.391916
-16.699583 -14.141756 -63.821546
-17.705 -13.931673 -64.010465
-9.504242 -27.526504 -56.63369
-9.695429 -29.373493 -56.087721
-10.126012 -25.626073 -57.581457
-9.504242 -27.526504 -56.63369
-14.724739 -71.941017 -44.077393
-14.609957 -73.395965 -43.470501
-15.922441 -71.329696 -43.774818
-14.800939 -70.364845 -44.670007
-14.724739 -71.941017 -44.077393
-14.819393 -65.771206 -46.4165
-14.863199 -67.324959 -45.816287
-16.045345 -65.331104 -46.196444
-14.929817 -64.027839 -46.960712
-14.819393 -65.771206 -46.4165
-14.923203 -58.886933 -48.617304
-14.915707 -60.528904 -48.092255
-16.056988 -58.441284 -48.586489
-14.982218 -57.022589 -49.12847
-14.923203 -58.886933 -48.617304
-14.949322 -51.4711 -50.732671
-15.08245 -53.303927 -50.184313
-16.041547 -51.225886 -50.785339
-14.869838 -49.608093 -51.226926
-14.949322 -51.4711 -50.732671
-14.674291 -43.986214 -52.862778
-14.833483 -45.739359 -52.336643
-15.755501 -43.794764 -53.018281
-14.600224 -42.087598 -53.392117
-13.678206 -44.032194 -52.71048
-14.674291 -43.986214 -52.862778
-22.357839 -27.820513 -58.623536
-23.386153 -27.584064 -58.60132
-23.030673 -25.827678 -59.310671
-20.733796 -20.82116 -61.423821
-21.802996 -20.612097 -61.464664
-13.92283 -14.930674 -63.002697
-14.438135 -16.51194 -62.448118
-14.8385 -14.775168 -63.264257
-11.360017 -15.636335 -62.022315
-12.188685 -15.375827 -62.374519
-10.554893 -15.848453 -61.665165
-10.998625 -17.363732 -61.154635
-11.360017 -15.636335 -62.022315
-10.156047 -14.338445 -62.169463
-9.794656 -16.065843 -61.301783
-10.554893 -15.848453 -61.665165
-8.696313 -10.703606 -63.252724
-9.203827 -11.734113 -62.978459
-8.115994 -11.088446 -62.833464
-8.696313 -10.703606 -63.252724
-7.321031 -15.042545 -60.667349
-7.575665 -16.433871 -60.193917
-7.646636 -13.755559 -61.415245
-7.002641 -13.762895 -61.092612
-7.321031 -15.042545 -60.667349
-5.882605 -13.698792 -60.489103
-5.71352 -12.342495 -60.971842
-25.23675 -64.261714 -40.502976
-25.113473 -65.602882 -39.535044
-25.373792 -62.805946 -41.404732
-24.349193 -64.78329 -41.093602
-25.23675 -64.261714 -40.502976
-25.505748 -61.392305 -42.285179
-25.373792 -62.805946 -41.404732
-25.489074 -60.035291 -43.157657
-24.469561 -61.970509 -42.867836
-25.505748 -61.392305 -42.285179
-27.027718 -38.027418 -53.405683
-27.224742 -39.772318 -52.527187
-25.983982 -38.309767 -53.678169
-27.027718 -38.027418 -53.405683
-26.793624 -36.265743 -54.236998
-9.969346 -31.165422 -55.568279
-10.10124 -32.899485 -55.079611
-10.621182 -29.203139 -56.485094
-9.695429 -29.373493 -56.087721
-9.969346 -31.165422 -55.568279
-16.799359 -76.312732 -40.506918
-17.755843 -75.916675 -39.890627
-16.756954 -75.168026 -41.227734
-16.799359 -76.312732 -40.506918
-29.363532 -49.446258 -46.230179
-29.368896 -47.855228 -47.183806
-28.451789 -51.357423 -45.892144
-29.363532 -49.446258 -46.230179
-27.492992 -51.741972 -46.449787
-27.498157 -53.203277 -45.579838
-28.451789 -51.357423 -45.892144
-22.684298 -24.077985 -60.043774
-23.030673 -25.827678 -59.310671
-18.783857 -21.069448 -61.277265
-19.734844 -21.004807 -61.343876
-19.319295 -19.125407 -62.052099
-7.898027 -17.694318 -59.786628
-8.188772 -19.110889 -59.338113
-8.287388 -16.295656 -60.582695
-7.575665 -16.433871 -60.193917
-7.898027 -17.694318 -59.786628
-22.003626 -70.910564 -39.086657
-23.045331 -69.150295 -39.235048
-21.069149 -71.570317 -39.684261
-22.003626 -70.910564 -39.086657
-21.078342 -70.348324 -40.538584
-20.012352 -72.237068 -40.281092
-21.069149 -71.570317 -39.684261
-28.462297 -44.718954 -49.516777
-29.427214 -44.442438 -49.0215
-27.395298 -45.103817 -49.978178
-27.51363 -46.765146 -49.055033
-28.462297 -44.718954 -49.516777
-26.4039 -45.422897 -50.347799
-27.395298 -45.103817 -49.978178
-27.352566 -43.376705 -50.809544
-26.289623 -41.883614 -52.01301
-27.296287 -41.58449 -51.693342
-27.224742 -39.772318 -52.527187
-18.903104 -17.317392 -62.754147
-19.319295 -19.125407 -62.052099
-17.831242 -17.449466 -62.623259
-18.903104 -17.317392 -62.754147
-18.366036 -15.576811 -63.391916
-15.729398 -14.46553 -63.545872
-16.323989 -16.03266 -62.985354
-16.699583 -14.141756 -63.821546
-14.8385 -14.775168 -63.264257
-15.729398 -14.46553 -63.545872
-6.419343 -10.543483 -62.223669
-6.856362 -9.723866 -62.846729
-6.856362 -9.723866 -62.846729
-7.273676 -10.428333 -62.739744
-18.956319 -72.802753 -40.917204
-18.947126 -74.024746 -40.062882
-20.012352 -72.237068 -40.281092
-16.795728 -73.821877 -42.007439
-16.756954 -75.168026 -41.227734
-17.929868 -73.244281 -41.478699
-15.715236 -74.265133 -42.4622
-16.795728 -73.821877 -42.007439
-16.888151 -72.341388 -42.713166
-14.636409 -74.754158 -42.851215
-15.715236 -74.265133 -42.4622
-14.636409 -74.754158 -42.851215
-14.609957 -73.395965 -43.470501
-14.826903 -68.8699 -45.277268
-14.800939 -70.364845 -44.670007
-16.063187 -68.379802 -44.98897
-14.826903 -68.8699 -45.277268
-14.863199 -67.324959 -45.816287
-25.551387 -58.608511 -44.019628
-25.489074 -60.035291 -43.157657
-26.594623 -55.095676 -45.218212
-27.498157 -53.203277 -45.579838
-25.650993 -57.024183 -44.842095
-26.594623 -55.095676 -45.218212
-25.595729 -55.516333 -45.761364
-24.552492 -59.029167 -44.56278
-25.551387 -58.608511 -44.019628
-25.650993 -57.024183 -44.842095
-14.953793 -62.180792 -47.593103
-14.929817 -64.027839 -46.960712
-16.025516 -61.930304 -47.429049
-14.953793 -62.180792 -47.593103
-14.915707 -60.528904 -48.092255
-15.037313 -55.152288 -49.691191
-14.982218 -57.022589 -49.12847
-16.11958 -54.929012 -49.674259
-15.037313 -55.152288 -49.691191
-15.08245 -53.303927 -50.184313
-14.872975 -47.685519 -51.806151
-14.869838 -49.608093 -51.226926
-15.911556 -47.470484 -51.912922
-14.872975 -47.685519 -51.806151
-14.833483 -45.739359 -52.336643
-12.671131 -44.129511 -52.510069
-13.678206 -44.032194 -52.71048
-12.628908 -42.198467 -53.017643
-12.671131 -44.129511 -52.510069
-12.550486 -40.367334 -53.548584
-12.628908 -42.198467 -53.017643
-13.525717 -40.302446 -53.77076
-12.429589 -38.526918 -54.036625
-12.550486 -40.367334 -53.548584
-12.26121 -36.52519 -54.626991
-12.429589 -38.526918 -54.036625
-13.278916 -36.469585 -54.892067
-12.155795 -34.577145 -55.180389
-12.26121 -36.52519 -54.626991
-26.192747 -30.763628 -56.757689
-26.459025 -32.733231 -55.843136
-25.133328 -30.96004 -56.948314
-26.192747 -30.763628 -56.757689
-24.047182 -31.33182 -57.032711
-24.3831 -33.066628 -56.259484
-25.133328 -30.96004 -56.948314
-23.755364 -29.401066 -57.817864
-23.386153 -27.584064 -58.60132
-23.005138 -31.507654 -57.129033
-24.047182 -31.33182 -57.032711
-23.755364 -29.401066 -57.817864
-22.281774 -22.336698 -60.741797
-21.802996 -20.612097 -61.464664
-21.599835 -24.32284 -60.030909
-22.684298 -24.077985 -60.043774
-22.281774 -22.336698 -60.741797
-20.198358 -22.7652 -60.648987
-20.733796 -20.82116 -61.423821
-19.734844 -21.004807 -61.343876
-11.946115 -32.729893 -55.737417
-12.155795 -34.577145 -55.180389
-12.900856 -32.620606 -56.039461
-11.793138 -30.884211 -56.28107
-11.048077 -32.84075 -55.421999
-11.946115 -32.729893 -55.737417
-10.77534 -23.818989 -58.475393
-10.126012 -25.626073 -57.581457
-10.996593 -25.604125 -57.898472
-10.398685 -22.271908 -58.955639
-10.77534 -23.818989 -58.475393
-11.269265 -22.24996 -59.272654
-10.056549 -20.687566 -59.443941
-10.398685 -22.271908 -58.955639
-13.048043 -15.133744 -62.711906
-13.92283 -14.930674 -63.002697
-12.663107 -16.90953 -61.849171
-13.048043 -15.133744 -62.711906
-12.188685 -15.375827 -62.374519
-9.706995 -19.124052 -59.966234
-10.056549 -20.687566 -59.443941
-10.543055 -19.139365 -60.275192
-9.401625 -17.565977 -60.486446
-8.915119 -19.114178 -59.655195
-9.706995 -19.124052 -59.966234
-9.637573 -12.979282 -62.596008
-10.156047 -14.338445 -62.169463
-8.962065 -13.310665 -62.18853
-9.637573 -12.979282 -62.596008
-9.203827 -11.734113 -62.978459
-7.515957 -11.293653 -62.468227
-7.928282 -12.270702 -62.205744
-8.115994 -11.088446 -62.833464
-7.273676 -10.428333 -62.739744
-7.085964 -11.610589 -62.112025
-7.515957 -11.293653 -62.468227
-6.454691 -13.764356 -60.795901
-5.882605 -13.698792 -60.489103
-6.780295 -12.477369 -61.543797
-6.454691 -13.764356 -60.795901
-7.002641 -13.762895 -61.092612
-6.113675 -11.410262 -61.655442
-5.71352 -12.342495 -60.971842
-6.538015 -11.612049 -61.815314
-6.419343 -10.543483 -62.223669
-6.113675 -11.410262 -61.655442
3 109 29 110
3 111 31 112
3 113 112 29
3 111 112 113
3 114 32 115
3 116 33 117
3 116 117 118
3 1 36 34
3 1 38 36
3 2 119 120
3 2 121 123
3 121 39 122
3 121 122 123
3 2 41 39
3 3 44 42
3 3 46 44
3 3 48 46
3 4 51 49
3 4 53 51
3 5 56 54
3 5 58 56
3 5 60 58
3 124 61 125
3 6 126 127
3 6 128 130
3 128 62 129
3 128 129 130
3 6 64 62
3 8 65 27
3 8 66 65
3 131 68 132
3 10 69 28
3 10 70 69
3 10 72 70
3 12 73 30
3 12 74 73
3 133 75 134
3 136 135 75
3 13 137 138
3 13 139 140
3 7 77 63
3 14 78 35
3 14 141 143
3 143 142 78
3 141 142 143
3 14 144 145
3 15 146 148
3 148 147 37
3 146 147 148
3 15 149 150
3 16 79 40
3 16 80 79
3 9 81 67
3 17 82 43
3 17 83 82
3 17 84 83
3 18 85 45
3 18 151 153
3 153 152 85
3 151 152 153
3 18 154 155
3 19 156 158
3 158 157 47
3 156 157 158
3 19 159 160
3 11 86 71
3 20 87 50
3 20 161 163
3 163 162 87
3 161 162 163
3 20 164 166
3 164 88 165
3 164 165 166
3 21 89 52
3 21 90 89
3 22 167 169
3 167 91 168
3 167 168 169
3 22 92 91
3 170 93 171
3 23 94 55
3 23 95 94
3 23 96 95
3 24 97 57
3 24 98 97
3 24 99 98
3 25 100 59
3 25 101 100
3 172 102 173
3 174 173 76
3 172 173 174
3 175 103 176
3 177 104 178
3 179 178 103
3 177 178 179
3 180 105 181
3 182 181 104
3 180 181 182
3 183 106 184
3 186 185 106
3 26 187 188
3 26 189 191
3 189 107 190
3 189 190 191
3 192 108 193
3 194 6 195
3 196 27 197
3 198 197 6
3 196 197 198
3 199 27 200
3 201 8 202
3 203 202 27
3 201 202 203
3 204 28 205
3 29 206 208
3 206 28 207
3 206 207 208
3 29 10 28
3 29 30 10
3 31 30 29
3 31 12 30
3 32 209 210
3 32 211 213
3 211 13 212
3 211 212 213
3 33 214 215
3 33 216 217
3 34 35 7
3 36 35 34
3 36 14 35
3 36 37 14
3 38 37 36
3 38 15 37
3 39 218 219
3 39 220 221
3 39 222 224
3 222 40 223
3 222 223 224
3 41 40 39
3 41 16 40
3 42 43 9
3 44 43 42
3 44 17 43
3 44 45 17
3 46 45 44
3 46 18 45
3 46 47 18
3 48 47 46
3 48 19 47
3 49 50 11
3 51 50 49
3 51 20 50
3 51 52 20
3 53 52 51
3 53 21 52
3 225 22 226
3 54 227 229
3 227 55 228
3 227 228 229
3 56 55 54
3 56 23 55
3 56 57 23
3 58 57 56
3 58 24 57
3 58 59 24
3 60 59 58
3 60 25 59
3 61 230 231
3 61 232 234
3 232 26 233
3 232 233 234
3 62 235 236
3 62 237 238
3 62 239 241
3 239 63 240
3 239 240 241
3 64 63 62
3 64 7 63
3 27 64 6
3 65 64 27
3 65 7 64
3 65 34 7
3 66 34 65
3 66 1 34
3 242 2 243
3 244 67 245
3 246 245 2
3 244 245 246
3 68 247 249
3 247 67 248
3 247 248 249
3 68 9 67
3 28 250 252
3 250 68 251
3 250 251 252
3 69 68 28
3 69 9 68
3 69 42 9
3 70 42 69
3 70 3 42
3 70 71 3
3 72 71 70
3 72 11 71
3 30 72 10
3 73 72 30
3 73 11 72
3 73 49 11
3 74 49 73
3 74 4 49
3 253 54 254
3 75 255 257
3 255 54 256
3 255 256 257
3 75 5 54
3 75 76 5
3 258 76 259
3 260 259 75
3 258 259 260
3 262 261 76
3 263 0 264
3 265 0 266
3 63 267 269
3 267 33 268
3 267 268 269
3 77 33 63
3 77 270 272
3 272 271 33
3 270 271 272
3 35 77 7
3 78 77 35
3 78 273 275
3 275 274 77
3 273 274 275
3 78 276 277
3 279 278 78
3 37 280 282
3 282 281 14
3 280 281 282
3 284 283 37
3 285 8 286
3 40 287 288
3 79 289 291
3 291 290 40
3 289 290 291
3 79 292 294
3 292 8 293
3 292 293 294
3 79 66 8
3 80 66 79
3 80 1 66
3 67 41 2
3 81 41 67
3 81 16 41
3 43 81 9
3 82 81 43
3 82 16 81
3 82 80 16
3 83 80 82
3 83 1 80
3 83 38 1
3 84 38 83
3 84 15 38
3 45 84 17
3 85 84 45
3 85 15 84
3 85 295 297
3 297 296 15
3 295 296 297
3 299 298 85
3 47 300 302
3 302 301 18
3 300 301 302
3 304 303 47
3 71 48 3
3 86 48 71
3 86 19 48
3 50 86 11
3 87 86 50
3 87 19 86
3 87 305 307
3 307 306 19
3 305 306 307
3 309 308 87
3 88 310 311
3 88 312 313
3 52 88 20
3 89 88 52
3 89 314 316
3 316 315 88
3 314 315 316
3 89 317 318
3 90 319 321
3 321 320 89
3 319 320 321
3 90 322 323
3 324 31 325
3 326 31 327
3 328 12 329
3 330 329 31
3 328 329 330
3 91 331 332
3 91 333 335
3 333 12 334
3 333 334 335
3 91 74 12
3 92 74 91
3 92 4 74
3 93 336 337
3 93 338 340
3 338 22 339
3 338 339 340
3 55 341 343
3 341 93 342
3 341 342 343
3 94 93 55
3 94 22 93
3 94 92 22
3 95 92 94
3 95 4 92
3 95 53 4
3 96 53 95
3 96 21 53
3 57 96 23
3 97 96 57
3 97 21 96
3 97 90 21
3 98 90 97
3 98 344 346
3 346 345 90
3 344 345 346
3 98 347 349
3 347 32 348
3 347 348 349
3 99 32 98
3 99 13 32
3 59 99 24
3 100 99 59
3 100 13 99
3 100 350 352
3 352 351 13
3 350 351 352
3 101 353 355
3 355 354 100
3 353 354 355
3 101 356 357
3 76 60 5
3 102 60 76
3 102 25 60
3 358 102 359
3 103 360 362
3 360 102 361
3 360 361 362
3 103 25 102
3 103 101 25
3 104 101 103
3 104 363 365
3 365 364 101
3 363 364 365
3 104 366 368
3 366 61 367
3 366 367 368
3 105 61 104
3 105 26 61
3 369 105 370
3 106 371 373
3 371 105 372
3 371 372 373
3 106 26 105
3 106 107 26
3 374 107 375
3 376 375 106
3 374 375 376
3 377 0 378
3 379 378 107
3 377 378 379
3 380 108 381
3 107 382 384
3 382 108 383
3 382 383 384
3 107 0 108
3 108 385 386
3 108 387 389
3 387 0 388
3 387 388 389
