ply
format ascii 1.0
element vertex 533
property float x
property float y
property float z
element face 626
property list uchar int vertex_index
end_header
-20.491482 -70.482437 12.900571
-29.928886 -54.889572 6.584838
-26.910576 -64.305252 -8.372621
-18.85857 -77.224236 3.743697
-22.269123 -74.375648 -6.571964
-23.434107 -68.189117 2.256902
-34.725185 -46.925648 3.07241
-16.963409 -69.923317 22.262154
-15.18876 -77.921196 13.478166
-25.109913 -62.664818 10.161342
-27.884697 -56.969296 17.029402
-33.102451 -49.748081 13.573205
-27.804794 -59.345737 -0.554578
-19.684063 -73.804207 8.439642
-21.167767 -72.875641 3.310316
-21.908773 -69.651794 7.750471
-18.903002 -70.663979 17.689867
-16.038322 -74.007416 18.181486
-17.983549 -74.311752 13.506019
-17.042963 -78.0084 8.755372
-25.264084 -60.346825 18.771765
-24.687418 -69.210152 -7.316487
-24.212572 -72.123886 -11.593782
-26.578667 -66.990463 -12.278324
-27.523331 -58.704865 8.215512
-26.363373 -61.219803 4.762958
-28.778736 -57.003357 2.803868
-17.995033 -80.628281 -1.194451
-19.734228 -79.358368 -6.266637
-20.604429 -75.891136 -1.407728
-22.825748 -71.328384 -2.093705
-25.041176 -66.465782 -3.106242
-32.400726 -50.975357 4.77749
-31.214645 -52.906216 1.115092
-33.5858 -48.834354 -0.366076
-13.953752 -72.548782 22.551977
-12.946303 -76.937111 18.122652
-16.18434 -81.516594 3.589798
-21.458265 -67.181198 16.689079
-22.731258 -66.723831 11.761
-23.879786 -63.641113 15.283465
-26.406662 -59.870857 13.627431
-28.839619 -56.289505 11.958484
-29.509544 -53.756241 20.24544
-30.495937 -53.494175 15.241746
-31.42565 -52.492249 10.147347
-33.840145 -48.696014 8.406509
-35.938046 -44.779533 6.672934
-24.116106 -65.417435 6.377168
-25.523722 -63.850594 0.951156
-27.224144 -61.765274 -4.371099
-30.166882 -55.013664 -2.323419
-29.549377 -57.050438 -5.947886
-29.250834 -59.189922 -9.70512
-20.102331 -72.079643 10.752866
-20.743073 -71.870506 8.194816
-21.182184 -70.203293 10.324494
-19.767414 -70.650368 15.251424
-18.479481 -72.497597 15.546447
-19.331064 -72.378777 13.139159
-18.882761 -74.074371 11.067651
-17.778072 -83.631805 -9.00803
-25.824518 -66.69178 -7.78218
-25.572514 -68.256645 -9.837978
-26.767792 -65.634895 -10.377374
-27.874857 -64.123062 -12.791249
-27.957811 -62.919647 -10.810432
-28.75481 -56.730389 7.434288
-28.084639 -57.98156 5.545244
-29.270298 -56.033943 4.64732
-18.439632 -78.941025 1.26365
-19.360601 -78.345985 -1.518396
-19.648674 -76.840691 1.024181
-22.292559 -70.593559 2.820699
-22.039837 -72.002251 0.664657
-23.096376 -69.747475 0.236805
-23.936007 -68.84201 -2.417841
-24.156891 -67.475502 -0.369687
-33.662094 -48.85733 3.904994
-32.951828 -50.003155 2.131161
-34.130997 -47.915207 1.243762
-15.575109 -71.140953 22.522932
-15.627682 -75.938263 15.944575
-14.537652 -75.463501 18.286001
-14.135033 -77.391647 16.039101
-14.620116 -79.85746 11.147508
-17.95426 -77.699455 6.309853
-16.592569 -79.762817 6.311508
-17.549658 -79.396095 3.813675
-17.112434 -81.10865 1.246755
-22.033566 -65.472351 18.413639
-22.730072 -65.337967 16.003857
-23.335644 -63.693043 17.748606
-26.571136 -58.643784 18.024744
-25.870579 -60.154411 16.338676
-27.131756 -58.422729 15.415279
-27.599237 -58.124233 12.695867
-28.314064 -56.789154 14.530756
-32.635799 -50.163574 16.151094
-31.36215 -51.945942 16.982344
-31.790623 -51.68499 14.395267
-30.950613 -53.086422 12.6458
-32.282478 -51.131004 11.822105
-32.6726 -50.590252 9.067323
-33.463322 -49.304409 11.005792
-35.627369 -45.496559 9.313959
-20.704163 -67.101982 19.229513
-21.084185 -76.838303 -6.55312
-20.664371 -78.467346 -8.809135
-22.019423 -75.788574 -8.906476
-23.952093 -64.636238 10.970345
-23.398926 -66.159477 9.166524
-24.540545 -64.104744 8.316545
-27.064957 -60.321053 2.053508
-25.982422 -62.377029 2.786768
-26.651953 -61.633167 0.027815
-26.343327 -62.820045 -1.650876
-27.469418 -60.544846 -2.435566
-31.856071 -51.86573 -1.359267
-30.604237 -54.043766 -0.606759
-31.45109 -52.710964 -3.227919
-30.714506 -54.773899 -6.808947
-29.268639 -58.28627 -7.685504
-30.336708 -56.810436 -10.266831
-19.263605 -75.504135 6.1908
-20.033356 -75.11702 3.520921
-20.433777 -73.403183 5.845697
-21.579556 -71.124039 5.596
-22.674105 -68.971252 4.933665
-35.716518 -44.942123 2.490939
-17.982233 -70.384621 20.064583
-16.491257 -72.005241 20.271893
-17.492882 -72.436333 17.936544
-17.133175 -74.236816 15.774312
-16.5748 -76.180504 13.642829
-16.201828 -77.944153 11.229148
-17.580059 -76.067558 11.182757
-18.434731 -75.921783 8.597299
-27.377655 -57.020191 19.463083
-33.808044 -48.401329 15.350636
-34.22308 -47.960693 12.854019
-23.494173 -71.814697 -6.932064
-23.227722 -73.28949 -9.095648
-24.406713 -70.741112 -9.309509
-25.366468 -69.643768 -11.882596
-26.247675 -60.789207 9.16764
-25.626581 -62.179394 7.458509
-26.817041 -60.119099 6.497345
-27.558023 -59.102226 3.788991
-28.213959 -58.211967 1.277575
-17.418554 -82.518929 -3.849376
-18.393295 -81.802353 -6.45655
-18.780102 -80.245781 -3.859435
-20.182991 -77.655495 -3.893081
-21.371941 -75.337364 -4.110065
-20.898453 -74.385269 0.905352
-21.766212 -73.589355 -1.781114
-22.586876 -72.834953 -4.4345
-23.758347 -70.290161 -4.794774
-24.845863 -67.858307 -5.179274
-25.958611 -65.366013 -5.667358
-31.164848 -52.95285 5.779592
-30.515694 -54.010674 3.892932
-31.756371 -51.995079 2.891877
-32.43903 -50.836559 0.267221
-33.083813 -49.703667 -2.252878
-14.973601 -73.364159 20.522171
-13.475327 -74.757904 20.394152
-15.600857 -79.932877 8.789106
-15.165697 -81.816093 5.967841
-15.580495 -83.423569 0.944062
-16.57884 -82.908867 -1.362831
-20.998333 -68.803864 14.747504
-21.601284 -68.672592 12.313879
-22.153877 -66.999069 14.160406
-23.354422 -65.102303 13.377618
-24.535555 -63.170605 12.725153
-24.567989 -62.007313 16.98765
-25.131296 -61.758873 14.522038
-25.753756 -61.251286 11.78094
-26.945223 -59.392864 10.839304
-28.128504 -57.54401 10.193412
-29.3421 -55.698845 9.30774
-28.168886 -55.282738 21.141991
-28.638203 -55.447994 18.756069
-30.065969 -53.642914 17.866129
-29.207956 -55.217426 16.161709
-29.726957 -54.813553 13.559959
-30.097689 -54.461044 10.92654
-30.649267 -53.720127 8.373816
-31.945644 -51.727551 7.47494
-33.11657 -49.853909 6.504859
-34.274841 -47.872784 5.695596
-34.593689 -47.415291 10.276077
-34.949623 -46.741035 7.597623
-35.307674 -45.938255 4.935729
-36.297367 -43.812225 4.075676
-19.442459 -68.696434 19.652126
-20.247036 -68.886238 17.221035
-19.28845 -81.063736 -8.965045
-20.214045 -80.117226 -11.305697
-22.891453 -74.902313 -11.432194
-22.284153 -68.191727 9.838132
-23.035223 -67.478271 7.139532
-23.761057 -66.742531 4.370765
-25.232008 -63.333782 5.455015
-24.87199 -64.540718 3.5732
-24.435722 -66.085373 1.665049
-25.267893 -65.114494 -1.084869
-26.112339 -64.086197 -3.595548
-26.999849 -63.088367 -6.25663
-29.974047 -54.983692 2.001979
-29.380152 -56.168785 0.275497
-28.968538 -57.189857 -1.460869
-30.962704 -53.863853 -4.906942
-29.803232 -56.032501 -4.097448
-28.608139 -58.344563 -3.369593
-28.35718 -59.437767 -5.130463
-28.185335 -60.604271 -7.107281
-28.015427 -61.777596 -8.78892
-29.101971 -60.414169 -11.476011
-17.350874 -83.933708 -7.837532
-16.984872 -84.876159 -9.098641
-16.269259 -70.532135 22.392543
-15.751231 -70.163582 23.417981
-16.44538 -69.554764 23.287592
-14.454976 -78.652729 13.50335
-13.928113 -78.387955 14.783818
-14.661897 -77.656421 14.758633
-14.904438 -78.889328 12.312837
-14.170654 -79.620861 12.338021
-14.454976 -78.652729 13.50335
-22.930652 -63.755902 18.989754
-22.684605 -64.582697 18.081122
-22.279613 -64.645556 19.322271
-22.279613 -64.645556 19.322271
-21.648724 -65.407131 19.624564
-32.042501 -51.63999 -3.599006
-31.653581 -52.288347 -2.293593
-32.244991 -51.217373 -2.66468
-30.907789 -55.617226 -10.694042
-30.417763 -56.282959 -9.384363
-30.885333 -56.052412 -11.593602
-30.907789 -55.617226 -10.694042
-35.953199 -44.326729 1.22039
-36.179518 -43.855396 2.068696
-27.066148 -56.982566 20.636258
-26.696461 -57.818906 19.934455
-34.20937 -47.565059 16.122425
-33.630629 -48.447834 16.632431
-34.386503 -47.448505 14.925035
-34.20937 -47.565059 16.122425
-26.512504 -67.611854 -13.326833
-25.906405 -68.938507 -13.128968
-25.972568 -68.317115 -12.08046
-27.130109 -66.26537 -13.526638
-26.512504 -67.611854 -13.326833
-28.401073 -63.482458 -14.088778
-28.456315 -62.856746 -13.122734
-13.370299 -72.056748 23.543703
-14.175366 -71.449649 23.540538
-13.116867 -73.115326 22.604151
-13.370299 -72.056748 23.543703
-12.424177 -76.454727 19.209429
-12.688689 -75.365123 20.345179
-13.210815 -75.847508 19.258402
-12.160508 -77.533493 18.074349
-12.424177 -76.454727 19.209429
-15.37755 -82.583493 3.538877
-14.868229 -82.733242 4.727899
-15.675019 -81.666343 4.778819
-15.882417 -82.470081 2.26693
-15.075628 -83.53698 2.21601
-15.37755 -82.583493 3.538877
-24.916037 -61.177069 17.879707
-24.242505 -62.065285 18.195306
-24.590553 -61.235041 19.087363
-28.839215 -54.51949 20.693715
-28.521155 -54.491936 21.817736
-29.191485 -53.728688 21.36946
-34.941502 -46.75787 11.124987
-34.408384 -47.687992 11.565048
-34.756197 -47.030571 12.413958
-19.670949 -67.740871 20.616339
-18.973379 -68.537525 20.780048
-20.895395 -78.812591 -11.277936
-20.439208 -79.292286 -10.057416
-21.120558 -77.987651 -10.029655
-20.656543 -79.64809 -12.527116
-20.895395 -78.812591 -11.277936
-31.412529 -53.197443 -6.243106
-31.585871 -52.706308 -5.391878
-17.487903 -84.440475 -10.223705
-16.984872 -84.876159 -9.098641
-18.235047 -83.225479 -10.197156
-17.487903 -84.440475 -10.223705
-28.497792 -62.255039 -12.132326
-28.456315 -62.856746 -13.122734
-27.916334 -63.521355 -11.80084
-14.986044 -70.745735 23.526015
-15.751231 -70.163582 23.417981
-14.76443 -71.844867 22.537455
-14.175366 -71.449649 23.540538
-14.986044 -70.745735 23.526015
-13.35244 -78.136543 15.927664
-12.758075 -77.909275 16.96944
-13.540668 -77.164379 17.080876
-13.35244 -78.136543 15.927664
-13.928113 -78.387955 14.783818
-13.86488 -80.642021 11.106548
-14.170654 -79.620861 12.338021
-14.359818 -80.820808 9.86064
-13.86488 -80.642021 11.106548
-29.866164 -52.95662 20.99774
-29.191485 -53.728688 21.36946
-31.998974 -51.054758 16.566719
-31.753708 -51.178368 17.779261
-32.390533 -50.287183 17.363636
-35.949127 -44.822212 10.158182
-35.458342 -45.798504 10.643929
-36.069704 -44.54761 8.925037
-35.949127 -44.822212 10.158182
-36.225043 -44.189097 7.604524
-35.782708 -45.138046 7.993447
-36.069704 -44.54761 8.925037
-36.373993 -43.756279 6.313579
-36.225043 -44.189097 7.604524
-20.984023 -66.221947 20.032501
-20.301801 -66.943646 20.405033
-21.368865 -66.287167 18.821576
-20.984023 -66.221947 20.032501
-21.648724 -65.407131 19.624564
-21.798084 -76.648266 -10.078326
-21.120558 -77.987651 -10.029655
-21.341897 -77.12796 -8.857805
-24.036734 -72.944008 -12.776884
-24.676681 -71.577961 -12.817954
-31.218793 -54.032971 -8.120707
-31.28843 -53.652466 -7.194109
-30.606662 -55.264691 -7.655421
-31.218793 -54.032971 -8.120707
-30.024097 -56.40296 -7.22489
-30.131941 -55.912168 -6.378417
-30.606662 -55.264691 -7.655421
-29.883728 -57.020876 -8.093699
-29.409008 -57.668354 -6.816695
-30.024097 -56.40296 -7.22489
-29.802674 -57.548353 -8.976167
-29.883728 -57.020876 -8.093699
-30.417763 -56.282959 -9.384363
-30.315108 -57.285706 -11.187594
-29.772171 -58.475448 -10.906739
-29.793771 -58.000179 -9.985976
-30.315108 -57.285706 -11.187594
-30.885333 -56.052412 -11.593602
-35.449131 -45.420795 1.566796
-34.953465 -46.412558 1.857532
-35.220852 -45.933886 2.781675
-35.449131 -45.420795 1.566796
-35.953199 -44.326729 1.22039
-24.920966 -60.372113 19.912437
-24.590553 -61.235041 19.087363
-25.639675 -59.482224 19.588796
-24.920966 -60.372113 19.912437
-26.293201 -58.630703 19.215286
-25.91761 -59.495305 18.398255
-25.639675 -59.482224 19.588796
-26.974395 -57.831987 18.743913
-26.293201 -58.630703 19.215286
-26.696461 -57.818906 19.934455
-33.044506 -49.328956 17.03266
-32.390533 -50.287183 17.363636
-33.221922 -49.282451 15.750865
-33.044506 -49.328956 17.03266
-33.630629 -48.447834 16.632431
-34.594021 -47.228188 13.676727
-34.015562 -48.181011 14.102327
-34.386503 -47.448505 14.925035
-34.756197 -47.030571 12.413958
-34.594021 -47.228188 13.676727
-25.253629 -70.337902 -12.962362
-24.676681 -71.577961 -12.817954
-24.78952 -70.883827 -11.738189
-25.253629 -70.337902 -12.962362
-25.906405 -68.938507 -13.128968
-27.778204 -64.831669 -13.7831
-27.130109 -66.26537 -13.526638
-27.226762 -65.556763 -12.534786
-27.778204 -64.831669 -13.7831
-28.401073 -63.482458 -14.088778
-17.905924 -82.160641 -5.152963
-17.658485 -83.018982 -6.561792
-17.171115 -83.37727 -5.258205
-32.858862 -50.136342 -3.111485
-32.244991 -51.217373 -2.66468
-32.469942 -50.784699 -1.806072
-34.656371 -46.907337 0.943208
-34.428091 -47.420428 2.158086
-34.953465 -46.412558 1.857532
-34.420986 -47.317114 -0.018478
-34.656371 -46.907337 0.943208
-34.148388 -47.776687 -0.823397
-33.858398 -48.37478 0.438843
-34.420986 -47.317114 -0.018478
-33.880961 -48.262241 -1.677752
-34.148388 -47.776687 -0.823397
-33.629967 -48.696898 -2.621154
-33.334806 -49.269011 -1.309477
-33.880961 -48.262241 -1.677752
-33.457355 -49.02668 -3.639943
-33.629967 -48.696898 -2.621154
-32.858862 -50.136342 -3.111485
-33.457355 -49.02668 -3.639943
-12.877655 -74.219887 21.525238
-13.116867 -73.115326 22.604151
-13.71454 -73.653343 21.473064
-12.877655 -74.219887 21.525238
-12.688689 -75.365123 20.345179
-12.160508 -77.533493 18.074349
-12.758075 -77.909275 16.96944
-14.850189 -80.858517 8.681439
-14.359818 -80.820808 9.86064
-15.110487 -79.895169 9.968307
-14.632609 -81.800125 7.270806
-14.850189 -80.858517 8.681439
-15.383277 -80.874485 7.378474
-14.361481 -82.749584 5.95094
-14.632609 -81.800125 7.270806
-14.361481 -82.749584 5.95094
-14.868229 -82.733242 4.727899
-14.740634 -84.493019 0.905219
-15.075628 -83.53698 2.21601
-15.255218 -84.357239 -0.35232
-14.740634 -84.493019 0.905219
-15.75439 -84.099888 -1.505767
-15.255218 -84.357239 -0.35232
-16.079667 -83.166218 -0.209384
-16.266934 -83.849537 -2.722386
-15.75439 -84.099888 -1.505767
-16.686791 -83.654568 -3.965658
-16.266934 -83.849537 -2.722386
-16.998697 -82.713898 -2.606103
-17.171115 -83.37727 -5.258205
-16.686791 -83.654568 -3.965658
-23.626332 -62.90815 18.575784
-22.930652 -63.755902 18.989754
-23.951816 -62.850178 17.368128
-23.626332 -62.90815 18.575784
-24.242505 -62.065285 18.195306
-27.781447 -55.259211 22.267943
-28.521155 -54.491936 21.817736
-27.461763 -56.11384 21.475712
-27.781447 -55.259211 22.267943
-27.773271 -56.151465 20.302537
-27.066148 -56.982566 20.636258
-27.461763 -56.11384 21.475712
-30.170164 -52.920101 19.915712
-29.866164 -52.95662 20.99774
-31.096467 -52.014952 18.284165
-31.753708 -51.178368 17.779261
-30.448377 -52.863438 18.726057
-31.096467 -52.014952 18.284165
-30.714059 -52.794428 17.424236
-29.787757 -53.699578 19.055785
-30.170164 -52.920101 19.915712
-30.448377 -52.863438 18.726057
-35.110529 -46.455925 9.795018
-34.941502 -46.75787 11.124987
-35.458342 -45.798504 10.643929
-36.469942 -43.290447 2.861064
-36.179518 -43.855396 2.068696
-36.006943 -44.377174 3.283307
-36.553653 -43.272625 5.01495
-36.117706 -44.295879 5.374305
-36.373993 -43.756279 6.313579
-36.692144 -42.787736 3.764484
-36.553653 -43.272625 5.01495
-36.469942 -43.290447 2.861064
-36.692144 -42.787736 3.764484
-17.213529 -68.93589 23.089806
-16.44538 -69.554764 23.287592
-17.733854 -69.150966 22.085062
-17.213529 -68.93589 23.089806
-18.243266 -69.381619 20.986276
-17.472821 -70.153969 21.163368
-17.733854 -69.150966 22.085062
-18.712346 -69.540527 19.858354
-18.243266 -69.381619 20.986276
-18.973379 -68.537525 20.780048
-20.073311 -67.899208 19.440819
-19.670949 -67.740871 20.616339
-20.301801 -66.943646 20.405033
-18.085684 -82.717079 -7.73229
-17.350874 -83.933708 -7.837532
-17.658485 -83.018982 -6.561792
-18.990236 -81.941445 -10.175663
-18.235047 -83.225479 -10.197156
-18.533261 -82.34777 -8.986538
-19.453034 -81.468189 -11.345989
-18.990236 -81.941445 -10.175663
-19.751247 -80.590481 -10.135371
-19.885211 -81.005757 -12.401011
-19.453034 -81.468189 -11.345989
-19.885211 -81.005757 -12.401011
-20.656543 -79.64809 -12.527116
-22.234099 -76.205135 -11.341185
-21.798084 -76.648266 -10.078326
-22.455438 -75.345444 -10.169335
-23.376174 -74.333222 -12.696091
-23.552013 -73.5131 -11.512988
-24.036734 -72.944008 -12.776884
-22.731901 -75.618877 -12.58829
-23.376174 -74.333222 -12.696091
-22.234099 -76.205135 -11.341185
-22.731901 -75.618877 -12.58829
-31.830064 -52.129863 -4.552366
-32.042501 -51.63999 -3.599006
-31.206897 -53.287408 -4.067431
-31.830064 -52.129863 -4.552366
-31.585871 -52.706308 -5.391878
-30.838605 -54.318876 -5.857945
-31.412529 -53.197443 -6.243106
-31.28843 -53.652466 -7.194109
-29.069872 -61.0023 -12.465115
-28.497792 -62.255039 -12.132326
-28.529891 -61.666908 -11.143221
-29.697739 -59.087572 -11.792185
-29.176403 -59.802046 -10.590566
-29.772171 -58.475448 -10.906739
-29.636461 -59.69834 -12.699003
-29.697739 -59.087572 -11.792185
-29.069872 -61.0023 -12.465115
-29.636461 -59.69834 -12.699003
3 0 56 54
3 0 59 57
3 0 54 59
3 221 61 222
3 2 64 62
3 2 66 64
3 1 69 67
3 3 72 70
3 5 75 73
3 5 77 75
3 6 80 78
3 7 223 225
3 223 81 224
3 223 224 225
3 8 84 82
3 8 226 228
3 228 227 84
3 226 227 228
3 8 229 231
3 229 85 230
3 229 230 231
3 3 88 86
3 3 70 88
3 232 92 233
3 234 233 90
3 232 233 234
3 10 95 93
3 10 97 95
3 11 100 98
3 11 102 100
3 11 104 102
3 235 90 236
3 4 109 107
3 9 112 110
3 12 115 113
3 12 117 115
3 237 120 238
3 239 238 118
3 237 238 239
3 240 123 241
3 243 242 123
3 13 126 124
3 15 127 55
3 15 128 127
3 245 244 129
3 16 132 130
3 18 133 58
3 18 134 133
3 18 136 134
3 13 137 60
3 13 124 137
3 246 138 247
3 248 139 249
3 251 250 139
3 21 143 141
3 23 144 63
3 23 252 254
3 254 253 144
3 252 253 254
3 23 255 256
3 258 257 65
3 24 147 145
3 26 148 68
3 26 149 148
3 27 152 150
3 29 153 71
3 29 154 153
3 14 155 125
3 30 156 74
3 30 157 156
3 30 158 157
3 31 159 76
3 31 160 159
3 32 163 161
3 34 164 79
3 34 165 164
3 35 259 260
3 35 261 262
3 17 166 131
3 36 167 83
3 36 263 265
3 265 264 167
3 263 264 265
3 36 266 267
3 19 168 135
3 37 169 87
3 37 268 270
3 270 269 169
3 268 269 270
3 37 271 273
3 271 170 272
3 271 272 273
3 27 171 89
3 27 150 171
3 38 174 172
3 40 175 91
3 40 176 175
3 20 274 276
3 274 177 275
3 274 275 276
3 41 178 94
3 41 179 178
3 41 180 179
3 42 181 96
3 42 182 181
3 43 277 279
3 277 183 278
3 277 278 279
3 43 184 183
3 44 185 99
3 44 186 185
3 44 187 186
3 45 188 101
3 45 189 188
3 45 190 189
3 46 191 103
3 46 192 191
3 280 193 281
3 282 281 140
3 280 281 282
3 47 194 105
3 47 195 194
3 47 196 195
3 283 197 284
3 38 198 106
3 38 172 198
3 28 199 151
3 285 200 286
3 287 286 108
3 285 286 287
3 289 288 200
3 22 201 142
3 39 202 173
3 48 203 111
3 48 204 203
3 25 205 146
3 49 206 114
3 49 207 206
3 49 208 207
3 50 209 116
3 50 210 209
3 33 211 162
3 51 212 119
3 51 213 212
3 290 214 291
3 52 215 121
3 52 216 215
3 52 217 216
3 53 218 122
3 53 219 218
3 53 220 219
3 54 55 13
3 56 55 54
3 56 15 55
3 57 58 16
3 59 58 57
3 59 18 58
3 59 60 18
3 54 60 59
3 54 13 60
3 61 292 293
3 61 294 295
3 62 63 21
3 64 63 62
3 64 23 63
3 64 65 23
3 66 65 64
3 66 296 298
3 298 297 65
3 296 297 298
3 67 68 24
3 69 68 67
3 69 26 68
3 70 71 27
3 72 71 70
3 72 29 71
3 73 74 14
3 75 74 73
3 75 30 74
3 75 76 30
3 77 76 75
3 77 31 76
3 78 79 32
3 80 79 78
3 80 34 79
3 81 299 300
3 81 301 303
3 301 35 302
3 301 302 303
3 82 83 17
3 84 83 82
3 84 36 83
3 84 304 306
3 306 305 36
3 304 305 306
3 308 307 84
3 85 309 310
3 85 311 312
3 86 87 19
3 88 87 86
3 88 37 87
3 88 89 37
3 70 89 88
3 70 27 89
3 90 91 38
3 92 91 90
3 92 40 91
3 93 94 20
3 95 94 93
3 95 41 94
3 95 96 41
3 97 96 95
3 97 42 96
3 313 43 314
3 98 315 317
3 315 99 316
3 315 316 317
3 100 99 98
3 100 44 99
3 100 101 44
3 102 101 100
3 102 45 101
3 102 103 45
3 104 103 102
3 104 46 103
3 318 105 319
3 320 105 321
3 322 47 323
3 324 323 105
3 322 323 324
3 326 325 47
3 327 106 328
3 90 329 331
3 329 106 330
3 329 330 331
3 90 38 106
3 107 108 28
3 109 108 107
3 109 332 334
3 334 333 108
3 332 333 334
3 336 335 22
3 110 111 39
3 112 111 110
3 112 48 111
3 113 114 25
3 115 114 113
3 115 49 114
3 115 116 49
3 117 116 115
3 117 50 116
3 118 119 33
3 120 119 118
3 120 51 119
3 337 121 338
3 339 121 340
3 341 52 342
3 343 342 121
3 341 342 343
3 344 122 345
3 346 345 52
3 344 345 346
3 123 347 349
3 347 122 348
3 347 348 349
3 123 53 122
3 123 350 352
3 352 351 53
3 350 351 352
3 354 353 123
3 124 125 3
3 126 125 124
3 126 14 125
3 55 126 13
3 127 126 55
3 127 14 126
3 127 73 14
3 128 73 127
3 128 5 73
3 129 355 357
3 357 356 6
3 355 356 357
3 359 358 129
3 130 131 7
3 132 131 130
3 132 17 131
3 58 132 16
3 133 132 58
3 133 17 132
3 133 82 17
3 134 82 133
3 134 8 82
3 134 135 8
3 136 135 134
3 136 19 135
3 60 136 18
3 137 136 60
3 137 19 136
3 137 86 19
3 124 86 137
3 124 3 86
3 360 20 361
3 362 20 363
3 364 93 365
3 366 365 20
3 364 365 366
3 138 367 369
3 367 93 368
3 367 368 369
3 138 10 93
3 370 98 371
3 139 372 374
3 372 98 373
3 372 373 374
3 139 11 98
3 139 140 11
3 375 140 376
3 377 376 139
3 375 376 377
3 379 378 140
3 141 142 4
3 143 142 141
3 143 22 142
3 63 143 21
3 144 143 63
3 144 22 143
3 144 380 382
3 382 381 22
3 380 381 382
3 384 383 144
3 65 385 387
3 387 386 23
3 385 386 387
3 389 388 65
3 145 146 9
3 147 146 145
3 147 25 146
3 68 147 24
3 148 147 68
3 148 25 147
3 148 113 25
3 149 113 148
3 149 12 113
3 150 390 392
3 390 151 391
3 390 391 392
3 152 151 150
3 152 28 151
3 71 152 27
3 153 152 71
3 153 28 152
3 153 107 28
3 154 107 153
3 154 4 107
3 125 72 3
3 155 72 125
3 155 29 72
3 74 155 14
3 156 155 74
3 156 29 155
3 156 154 29
3 157 154 156
3 157 4 154
3 157 141 4
3 158 141 157
3 158 21 141
3 76 158 30
3 159 158 76
3 159 21 158
3 159 62 21
3 160 62 159
3 160 2 62
3 161 162 1
3 163 162 161
3 163 33 162
3 79 163 32
3 164 163 79
3 164 33 163
3 164 118 33
3 165 118 164
3 165 393 395
3 395 394 118
3 393 394 395
3 396 80 397
3 398 397 6
3 396 397 398
3 399 80 400
3 401 34 402
3 403 402 80
3 401 402 403
3 404 34 405
3 406 165 407
3 408 407 34
3 406 407 408
3 409 165 410
3 412 411 165
3 131 81 7
3 166 81 131
3 166 35 81
3 83 166 17
3 167 166 83
3 167 35 166
3 167 413 415
3 415 414 35
3 413 414 415
3 417 416 167
3 419 418 36
3 135 85 8
3 168 85 135
3 168 420 422
3 422 421 85
3 420 421 422
3 87 168 19
3 169 168 87
3 169 423 425
3 425 424 168
3 423 424 425
3 169 426 427
3 429 428 169
3 170 430 431
3 170 432 433
3 89 170 37
3 171 170 89
3 171 434 436
3 436 435 170
3 434 435 436
3 171 437 438
3 150 439 441
3 441 440 171
3 439 440 441
3 150 442 443
3 172 173 0
3 174 173 172
3 174 39 173
3 91 174 38
3 175 174 91
3 175 39 174
3 175 110 39
3 176 110 175
3 176 9 110
3 444 92 445
3 177 446 448
3 446 92 447
3 446 447 448
3 177 40 92
3 94 177 20
3 178 177 94
3 178 40 177
3 178 176 40
3 179 176 178
3 179 9 176
3 179 145 9
3 180 145 179
3 180 24 145
3 96 180 41
3 181 180 96
3 181 24 180
3 181 67 24
3 182 67 181
3 182 1 67
3 183 449 450
3 183 451 452
3 183 453 455
3 453 138 454
3 453 454 455
3 184 138 183
3 184 10 138
3 456 43 457
3 99 458 459
3 185 460 462
3 462 461 99
3 460 461 462
3 185 463 465
3 463 43 464
3 463 464 465
3 185 184 43
3 186 184 185
3 186 10 184
3 186 97 10
3 187 97 186
3 187 42 97
3 101 187 44
3 188 187 101
3 188 42 187
3 188 182 42
3 189 182 188
3 189 1 182
3 189 161 1
3 190 161 189
3 190 32 161
3 103 190 45
3 191 190 103
3 191 32 190
3 191 78 32
3 192 78 191
3 192 6 78
3 140 104 11
3 193 104 140
3 193 46 104
3 105 466 468
3 466 193 467
3 466 467 468
3 194 193 105
3 194 46 193
3 194 192 46
3 195 192 194
3 195 6 192
3 195 129 6
3 196 129 195
3 196 469 471
3 471 470 129
3 469 470 471
3 472 196 473
3 474 473 47
3 472 473 474
3 475 196 476
3 478 477 196
3 479 7 480
3 481 7 482
3 483 130 484
3 485 484 7
3 483 484 485
3 197 486 488
3 486 130 487
3 486 487 488
3 197 16 130
3 106 489 491
3 489 197 490
3 489 490 491
3 198 197 106
3 198 16 197
3 198 57 16
3 172 57 198
3 172 0 57
3 151 492 494
3 492 61 493
3 492 493 494
3 199 61 151
3 199 495 497
3 497 496 61
3 495 496 497
3 108 199 28
3 200 199 108
3 200 498 500
3 500 499 199
3 498 499 500
3 200 501 502
3 504 503 200
3 142 109 4
3 201 109 142
3 201 505 507
3 507 506 109
3 505 506 507
3 508 201 509
3 510 509 22
3 508 509 510
3 511 201 512
3 514 513 201
3 173 56 0
3 202 56 173
3 202 15 56
3 111 202 39
3 203 202 111
3 203 15 202
3 203 128 15
3 204 128 203
3 204 5 128
3 146 112 9
3 205 112 146
3 205 48 112
3 114 205 25
3 206 205 114
3 206 48 205
3 206 204 48
3 207 204 206
3 207 5 204
3 207 77 5
3 208 77 207
3 208 31 77
3 116 208 49
3 209 208 116
3 209 31 208
3 209 160 31
3 210 160 209
3 210 2 160
3 162 69 1
3 211 69 162
3 211 26 69
3 119 211 33
3 212 211 119
3 212 26 211
3 212 149 26
3 213 149 212
3 213 12 149
3 515 120 516
3 214 517 519
3 517 120 518
3 517 518 519
3 214 51 120
3 121 520 522
3 520 214 521
3 520 521 522
3 215 214 121
3 215 51 214
3 215 213 51
3 216 213 215
3 216 12 213
3 216 117 12
3 217 117 216
3 217 50 117
3 122 217 52
3 218 217 122
3 218 50 217
3 218 210 50
3 219 210 218
3 219 2 210
3 219 66 2
3 220 66 219
3 220 523 525
3 525 524 66
3 523 524 525
3 526 220 527
3 528 527 53
3 526 527 528
3 529 220 530
3 532 531 220
