ply
format ascii 1.0
element vertex 500
property float x
property float y
property float z
element face 550
property list uchar int vertex_index
end_header
-27.10483 -67.478142 16.068674
-24.186289 -64.952263 -4.181255
-28.126276 -57.573799 12.193204
-25.757992 -66.42749 5.78307
-26.737314 -56.42067 2.631751
-25.242714 -54.099174 -6.452899
-29.665609 -45.022064 0.893556
-25.805563 -75.150398 30.607677
-26.160282 -76.479179 20.275085
-28.03867 -67.500488 26.213343
-25.985506 -76.332664 9.627645
-23.57983 -50.269066 -14.246882
-27.506269 -56.934261 7.429695
-28.682524 -51.433903 6.227519
-28.027819 -50.727699 1.476557
-27.254704 -70.736298 33.502243
-27.186232 -71.533005 28.54269
-28.358358 -66.904778 31.189766
-25.669622 -73.511909 35.689827
-26.733471 -72.109802 18.019768
-26.1341 -76.557358 14.928005
-26.309904 -71.871307 12.713911
-24.965277 -65.926804 0.646303
-23.444208 -63.552124 -8.600219
-26.526525 -48.546951 -7.228508
-24.44108 -52.474934 -10.473188
-25.644426 -46.731396 -11.254107
-27.495924 -62.643124 14.008441
-26.442709 -67.008507 10.765595
-26.806616 -62.055412 9.081034
-25.994301 -61.534626 3.997572
-25.201193 -60.841812 -0.779384
-24.431467 -59.677475 -5.343877
-26.007074 -55.446148 -1.990409
-27.363962 -49.751171 -2.853372
-29.122988 -43.636818 -3.538475
-24.516602 -79.347961 27.132442
-25.068895 -80.453682 22.136833
-26.005247 -76.137749 25.402536
-27.011244 -72.024323 23.33754
-27.640337 -67.697929 21.258211
-28.623516 -63.022011 23.921667
-28.141218 -62.854691 19.084496
-28.710236 -57.900925 17.149403
-25.566565 -80.896317 16.760914
-25.816595 -71.512871 7.653046
-23.670292 -57.985943 -9.612365
-28.942884 -51.813686 8.667343
-29.421925 -48.555153 5.77656
-27.952379 -68.373123 35.005302
-27.867884 -68.901192 32.527355
-27.380623 -69.78875 36.160297
-26.940302 -69.719925 17.068439
-26.535654 -72.099159 15.409951
-26.642878 -69.809082 14.371812
-24.580334 -65.412254 -1.786505
-23.806934 -64.341751 -6.466584
-27.35634 -45.478973 -7.568209
-26.104271 -47.614788 -9.338272
-27.796902 -59.985283 13.052801
-27.138342 -62.447247 11.485378
-27.416929 -59.919292 10.536277
-27.146355 -56.630806 5.028566
-26.681656 -59.375092 5.693918
-26.295324 -59.046486 3.286115
-25.589495 -61.165733 1.500412
-25.923128 -58.583584 0.892518
-25.52301 -58.221195 -1.415281
-26.407217 -55.862247 0.34034
-28.856169 -47.863987 1.298712
-27.679983 -50.365341 -0.690929
-28.51902 -47.341007 -1.08619
-28.168922 -46.760807 -3.344713
-29.44873 -44.238781 -1.357478
-25.164316 -77.242729 28.814245
-25.377007 -77.762466 26.289383
-25.961351 -75.578758 27.928917
-27.670776 -69.536629 27.495474
-27.127031 -71.757034 26.03393
-27.532621 -69.739754 24.867619
-27.337755 -69.985413 22.210352
-27.839197 -67.747047 23.763311
-29.107189 -60.535385 25.339033
-28.889631 -60.596878 22.876955
-28.384274 -63.009075 21.450785
-28.676815 -60.399147 20.454853
-28.374746 -60.446899 17.898106
-25.713755 -74.439308 33.170269
-24.766788 -75.597748 34.140316
-24.973513 -76.488029 31.461447
-25.707813 -78.495346 21.220081
-25.333969 -80.730583 19.544703
-25.81657 -78.758171 18.58518
-26.07513 -76.479652 12.234706
-26.115307 -66.791336 8.350996
-26.061766 -69.389748 9.226228
-25.748426 -68.902863 6.629049
-24.749502 -56.960247 -5.955163
-24.026789 -59.032734 -7.543146
-24.405689 -56.101437 -7.964967
-23.951084 -51.570629 -12.511551
-23.522429 -54.54644 -12.05981
-23.119833 -53.235298 -13.983613
-23.054817 -49.287075 -16.01166
-28.596312 -54.951279 11.621951
-27.824711 -57.347683 9.902024
-28.349817 -54.554131 9.242258
-28.060974 -54.191154 6.848154
-27.681166 -54.028515 4.449567
-27.368944 -53.489162 2.086105
-28.357233 -51.157097 3.851241
-29.100971 -48.363663 3.432726
-26.534666 -72.959213 32.146915
-26.556456 -73.493111 29.477661
-27.213539 -71.239037 31.006371
-27.80196 -69.164452 29.982622
-28.209944 -67.223579 28.685516
-26.570711 -71.24482 37.243465
-26.553862 -72.147499 34.811256
-26.4706 -74.491005 19.142654
-26.138523 -76.77713 17.61322
-26.372902 -74.545952 16.516396
-26.256893 -74.242142 13.830876
-26.105032 -74.103287 11.346196
-25.372591 -66.24662 3.247336
-25.394836 -68.788879 4.002036
-25.041233 -68.297462 1.505628
-25.885723 -51.207176 -6.822544
-24.841373 -53.442154 -8.449098
-25.421307 -50.561298 -8.915285
-24.969206 -49.623562 -10.963132
-24.585949 -48.516155 -12.722729
-24.099234 -47.448914 -14.513776
-27.300743 -65.053291 15.115637
-26.78689 -67.312317 13.467674
-26.917917 -64.911522 12.349843
-26.574505 -64.530136 9.809471
-26.210567 -64.28933 7.36253
-27.072807 -59.590294 8.116837
-26.393017 -61.928436 6.552022
-25.787428 -64.044609 4.652013
-25.42577 -63.644749 2.313702
-25.035368 -63.428429 0.019277
-24.622513 -62.849072 -2.518426
-24.225042 -62.274002 -4.87895
-24.830635 -60.282894 -3.040659
-25.100449 -57.743019 -3.799956
-25.587679 -54.926922 -4.32749
-26.988255 -53.105354 -0.256154
-26.594152 -52.66378 -2.557842
-26.198383 -52.150509 -4.727746
-26.94754 -49.314831 -4.988434
-27.745502 -46.292774 -5.47237
-24.826302 -79.959457 24.540514
-25.547924 -78.269791 23.629385
-26.113455 -76.304993 22.822184
-26.572725 -73.854897 26.939716
-26.562105 -74.144814 24.441723
-26.547974 -74.27076 21.709572
-26.874857 -72.177559 20.597673
-27.165051 -69.917183 19.763887
-27.386251 -67.665489 18.70187
-28.756262 -64.766357 30.11334
-28.547903 -65.205307 27.664165
-28.860239 -62.824394 26.460106
-28.362129 -65.268654 25.071623
-28.150269 -65.235474 22.545858
-27.863617 -65.430779 20.047216
-27.609507 -65.189278 17.596529
-27.851858 -62.656292 16.556379
-28.087679 -60.316784 15.503299
-28.429142 -57.756611 14.642009
-25.90638 -78.854225 15.738256
-26.366873 -69.476738 11.776113
-26.072813 -71.841103 10.232697
-25.912201 -73.968964 8.624833
-25.53348 -71.294823 5.06992
-23.835375 -61.779442 -7.047138
-23.485958 -60.790829 -9.09926
-23.946665 -55.32275 -10.169738
-28.213621 -67.462387 34.378019
-28.277443 -67.146805 35.617621
-28.277443 -67.146805 35.617621
-28.029795 -67.887764 36.285089
-24.241501 -66.220276 -3.76276
-24.438524 -66.450271 -2.565385
-24.383311 -65.182259 -2.98388
-24.060692 -65.975705 -4.921919
-24.241501 -66.220276 -3.76276
-23.996612 -64.647007 -5.32392
-23.871015 -65.670448 -6.064583
-24.060692 -65.975705 -4.921919
-27.108581 -45.124971 -8.584278
-27.793754 -43.963905 -7.693041
-29.036512 -59.275931 22.388458
-29.121478 -59.34679 23.59853
-28.930104 -59.177065 21.177407
-28.783223 -60.498013 21.665904
-29.036512 -59.275931 22.388458
-28.819121 -59.1763 19.996533
-28.930104 -59.177065 21.177407
-25.982561 -77.626678 9.966093
-26.027373 -77.700172 11.269623
-26.030318 -76.406158 10.931175
-25.972982 -77.486427 8.713485
-25.982561 -77.626678 9.966093
-23.137566 -51.092867 -15.005854
-22.907567 -52.575983 -14.874219
-23.349832 -51.752182 -14.115247
-23.317324 -49.77807 -15.129271
-22.875059 -50.601872 -15.888243
-23.137566 -51.092867 -15.005854
-28.749395 -53.348111 10.063614
-28.473064 -54.752705 10.432104
-28.872643 -53.546684 11.25346
-29.633104 -47.063061 4.352463
-29.261448 -48.459408 4.604643
-29.793581 -47.158806 5.52438
-30.090536 -45.473669 4.198134
-29.558404 -46.774271 3.278397
-29.633104 -47.063061 4.352463
-27.010665 -70.040451 37.947792
-26.561629 -70.734303 38.474908
-23.324937 -64.536075 -9.354726
-23.51085 -64.982506 -8.253188
-23.268372 -63.154131 -9.591121
-23.324937 -64.536075 -9.354726
-25.411257 -46.198879 -12.175402
-24.882019 -47.091259 -12.909713
-25.115187 -47.623775 -11.988418
-28.92069 -43.378472 -4.576994
-28.231946 -44.70645 -5.543941
-28.434245 -44.964796 -4.505422
-24.671452 -79.653709 25.836478
-24.39107 -80.675777 24.882874
-24.236221 -80.370029 26.178838
-28.895269 -63.757362 29.491416
-28.970917 -63.671175 30.68521
-28.791089 -63.976837 28.266829
-28.652082 -64.985832 28.888753
-28.895269 -63.757362 29.491416
-25.141573 -74.043919 36.145314
-25.645023 -72.955318 36.984886
-24.187588 -76.089764 34.529972
-24.364312 -76.551258 33.300356
-24.022785 -79.978134 27.456916
-24.367649 -78.923279 28.483053
-24.236221 -80.370029 26.178838
-24.022785 -79.978134 27.456916
-24.874884 -81.492501 21.21959
-24.680184 -81.282601 22.457535
-25.316302 -81.842594 17.182401
-25.200004 -81.759727 18.574295
-25.450267 -80.81345 18.152808
-25.474874 -81.972595 15.795446
-25.316302 -81.842594 17.182401
-25.369637 -71.15559 3.721824
-25.464158 -70.041851 4.535978
-25.300315 -69.902618 3.187882
-23.390498 -58.996992 -10.348054
-23.298331 -60.399435 -10.091501
-23.578125 -59.388386 -9.355812
-23.382741 -55.856916 -11.863784
-23.180318 -55.309696 -12.829953
-23.804427 -46.890246 -15.436457
-24.372653 -46.040963 -14.686307
-29.379417 -50.535902 9.577245
-29.045929 -51.977888 9.776156
-29.2791 -50.400013 8.377074
-29.379417 -50.535902 9.577245
-29.14892 -50.210121 7.157163
-28.812704 -51.623795 7.447431
-29.2791 -50.400013 8.377074
-29.518621 -48.770747 6.931683
-29.052225 -49.994528 6.00204
-29.14892 -50.210121 7.157163
-29.912914 -47.245662 6.689243
-29.518621 -48.770747 6.931683
-29.793581 -47.158806 5.52438
-29.912914 -47.245662 6.689243
-28.171374 -67.726422 33.139046
-27.910131 -68.637158 33.766329
-28.213621 -67.462387 34.378019
-28.41661 -66.728215 32.470251
-28.113121 -67.902985 31.85856
-28.171374 -67.726422 33.139046
-27.743916 -68.595577 36.862587
-27.415621 -69.312416 37.406208
-27.666501 -69.080937 35.5828
-27.743916 -68.595577 36.862587
-28.029795 -67.887764 36.285089
-24.619166 -66.754265 -1.414303
-24.811637 -67.011539 -0.197899
-24.772806 -65.669529 -0.570101
-24.619166 -66.754265 -1.414303
-24.438524 -66.450271 -2.565385
-23.692213 -65.377319 -7.186371
-23.871015 -65.670448 -6.064583
-23.625571 -63.946938 -7.533402
-23.51085 -64.982506 -8.253188
-23.692213 -65.377319 -7.186371
-26.482547 -46.192878 -9.46931
-26.730306 -46.546881 -8.45324
-27.108581 -45.124971 -8.584278
-26.252624 -45.751182 -10.427228
-25.874348 -47.173092 -10.29619
-26.482547 -46.192878 -9.46931
-26.009594 -45.313017 -11.373133
-26.252624 -45.751182 -10.427228
-29.230257 -59.316044 24.829569
-29.303983 -59.352276 25.997577
-28.99841 -60.566131 24.107994
-29.230257 -59.316044 24.829569
-29.121478 -59.34679 23.59853
-28.668086 -59.200176 18.71816
-28.52578 -60.423023 19.176479
-28.819121 -59.1763 19.996533
-28.835831 -57.927189 18.343809
-28.542491 -59.173912 17.523754
-28.668086 -59.200176 18.71816
-24.467675 -76.996398 31.960922
-24.364312 -76.551258 33.300356
-24.870151 -76.042889 32.800882
-24.596104 -77.493313 30.647555
-24.467675 -76.996398 31.960922
-24.691505 -77.870663 29.323954
-24.596104 -77.493313 30.647555
-25.068914 -76.865379 30.137846
-24.840459 -78.295345 27.973343
-24.367649 -78.923279 28.483053
-24.691505 -77.870663 29.323954
-26.023308 -77.596558 12.650543
-26.052793 -77.635411 13.997193
-26.104615 -76.518505 13.581356
-26.023308 -77.596558 12.650543
-26.027373 -77.700172 11.269623
-22.97902 -54.654125 -13.791854
-23.180318 -55.309696 -12.829953
-23.321131 -53.890869 -13.021712
-22.76039 -54.010578 -14.750388
-22.97902 -54.654125 -13.791854
-22.76039 -54.010578 -14.750388
-22.907567 -52.575983 -14.874219
-22.631365 -49.952766 -16.752133
-22.875059 -50.601872 -15.888243
-22.826214 -48.494959 -16.846032
-22.631365 -49.952766 -16.752133
-28.646351 -53.183909 8.954801
-28.749395 -53.348111 10.063614
-29.045929 -51.977888 9.776156
-29.436003 -46.524433 2.21139
-28.97857 -48.113825 2.365719
-29.558404 -46.774271 3.278397
-29.840723 -45.103471 2.008812
-29.260889 -46.443026 1.096134
-29.436003 -46.524433 2.21139
-26.095568 -71.821774 37.761705
-26.561629 -70.734303 38.474908
-26.120166 -72.378365 36.466646
-25.645023 -72.955318 36.984886
-26.095568 -71.821774 37.761705
-26.975667 -70.516785 36.701881
-27.010665 -70.040451 37.947792
-27.415621 -69.312416 37.406208
-25.123514 -69.656909 1.939678
-25.300315 -69.902618 3.187882
-25.218035 -68.543171 2.753832
-24.849615 -68.196868 0.231764
-25.003255 -67.112133 1.075965
-24.811637 -67.011539 -0.197899
-24.949027 -69.355663 0.67634
-24.849615 -68.196868 0.231764
-25.123514 -69.656909 1.939678
-24.949027 -69.355663 0.67634
-24.638661 -46.557638 -13.805236
-24.342591 -47.982534 -13.618253
-24.882019 -47.091259 -12.909713
-24.372653 -46.040963 -14.686307
-24.638661 -46.557638 -13.805236
-25.411257 -46.198879 -12.175402
-26.009594 -45.313017 -11.373133
-28.037365 -44.299549 -6.591861
-27.550921 -45.885874 -6.52029
-28.231946 -44.70645 -5.543941
-27.793754 -43.963905 -7.693041
-28.037365 -44.299549 -6.591861
-24.558887 -81.035488 23.659376
-24.39107 -80.675777 24.882874
-24.947598 -80.20657 23.338673
-24.680184 -81.282601 22.457535
-24.558887 -81.035488 23.659376
-28.61808 -65.760059 31.902434
-28.41661 -66.728215 32.470251
-28.817032 -64.690849 31.364221
-28.970917 -63.671175 30.68521
-28.55731 -65.835567 30.651553
-28.61808 -65.760059 31.902434
-28.817032 -64.690849 31.364221
-29.203316 -60.497957 26.620846
-29.303983 -59.352276 25.997577
-29.07984 -61.642461 27.181382
-29.203316 -60.497957 26.620846
-28.983714 -61.67989 25.899569
-28.947257 -62.78638 27.6648
-29.07984 -61.642461 27.181382
-28.704071 -64.01485 27.062136
-28.791089 -63.976837 28.266829
-28.947257 -62.78638 27.6648
-29.006186 -56.639849 17.957211
-28.835831 -57.927189 18.343809
-28.897631 -56.601256 16.740772
-29.006186 -56.639849 17.957211
-28.757084 -56.529099 15.487075
-28.569689 -57.828768 15.895706
-28.897631 -56.601256 16.740772
-28.628508 -56.491825 14.265759
-28.757084 -56.529099 15.487075
-28.477075 -56.400419 13.041356
-28.277709 -57.665205 13.417606
-28.628508 -56.491825 14.265759
-28.712094 -55.089159 12.75573
-28.361294 -56.262539 11.907577
-28.477075 -56.400419 13.041356
-28.964797 -53.690508 12.372635
-28.712094 -55.089159 12.75573
-28.872643 -53.546684 11.25346
-28.964797 -53.690508 12.372635
-24.690157 -75.086838 35.370558
-25.141573 -74.043919 36.145314
-25.218205 -74.554828 34.915071
-24.690157 -75.086838 35.370558
-24.187588 -76.089764 34.529972
-30.298534 -43.562643 1.892147
-29.840723 -45.103471 2.008812
-30.166466 -43.376984 0.770895
-30.298534 -43.562643 1.892147
-30.058026 -42.985342 -0.354622
-29.55717 -44.630423 -0.231961
-30.166466 -43.376984 0.770895
-29.914015 -42.708051 -1.494019
-30.058026 -42.985342 -0.354622
-29.751143 -42.40707 -2.584517
-29.285859 -43.937799 -2.447977
-29.914015 -42.708051 -1.494019
-29.559513 -42.156791 -3.708926
-29.751143 -42.40707 -2.584517
-28.92069 -43.378472 -4.576994
-29.559513 -42.156791 -3.708926
-25.007421 -81.630951 19.923525
-24.874884 -81.492501 21.21959
-25.201432 -80.592132 20.840768
-24.873456 -82.660095 18.953118
-25.007421 -81.630951 19.923525
-25.200004 -81.759727 18.574295
-25.938932 -78.783844 14.402318
-26.02024 -77.705792 15.33313
-26.052793 -77.635411 13.997193
-25.831197 -79.898487 14.843847
-25.938932 -78.783844 14.402318
-25.66129 -80.919533 15.355176
-25.736472 -79.875271 16.249585
-25.831197 -79.898487 14.843847
-25.474874 -81.972595 15.795446
-25.66129 -80.919533 15.355176
-25.479328 -72.382614 4.145513
-25.369637 -71.15559 3.721824
-25.611828 -72.50269 5.521826
-25.479328 -72.382614 4.145513
-25.753386 -72.611714 6.813389
-25.675038 -71.403847 6.361483
-25.611828 -72.50269 5.521826
-25.801189 -73.83976 7.299283
-25.864398 -72.740917 8.138939
-25.753386 -72.611714 6.813389
-25.883563 -75.145012 7.707358
-25.801189 -73.83976 7.299283
-25.920216 -76.326862 8.208763
-25.948853 -75.150814 9.126239
-25.883563 -75.145012 7.707358
-25.972982 -77.486427 8.713485
-25.920216 -76.326862 8.208763
-23.289247 -61.773483 -9.840642
-23.268372 -63.154131 -9.591121
-23.465083 -62.171476 -8.849739
-23.289247 -61.773483 -9.840642
-23.298331 -60.399435 -10.091501
-23.594859 -56.245071 -10.918748
-23.734547 -54.934595 -11.114774
-23.382741 -55.856916 -11.863784
-23.456672 -57.576668 -10.640061
-23.808478 -56.654347 -9.891051
-23.594859 -56.245071 -10.918748
-23.390498 -58.996992 -10.348054
-23.456672 -57.576668 -10.640061
-23.282219 -47.809326 -16.185399
-23.577025 -48.367995 -15.262718
-23.804427 -46.890246 -15.436457
-23.053615 -47.01721 -17.019772
-22.826214 -48.494959 -16.846032
-23.282219 -47.809326 -16.185399
3 181 180 49
3 182 49 183
3 0 54 52
3 1 184 186
3 186 185 55
3 184 185 186
3 1 187 188
3 1 189 191
3 189 56 190
3 189 190 191
3 193 192 57
3 2 61 59
3 4 64 62
3 4 66 64
3 4 68 66
3 6 71 69
3 6 73 71
3 7 76 74
3 9 79 77
3 9 81 79
3 194 83 195
3 196 85 197
3 198 197 83
3 196 197 198
3 200 199 85
3 7 89 87
3 7 74 89
3 8 92 90
3 10 201 203
3 203 202 93
3 201 202 203
3 10 204 205
3 3 96 94
3 5 99 97
3 11 102 100
3 11 206 208
3 208 207 102
3 206 207 208
3 11 209 211
3 209 103 210
3 209 210 211
3 212 106 213
3 214 213 104
3 212 213 214
3 13 107 47
3 13 108 107
3 13 110 108
3 215 111 216
3 217 216 48
3 215 216 217
3 220 219 111
3 218 219 220
3 15 114 112
3 17 115 50
3 17 116 115
3 221 117 222
3 15 118 51
3 15 112 118
3 19 121 119
3 21 122 53
3 21 123 122
3 22 126 124
3 23 223 224
3 23 225 226
3 24 129 127
3 26 130 58
3 26 131 130
3 26 227 229
3 229 228 131
3 227 228 229
3 27 135 133
3 29 136 60
3 29 137 136
3 12 138 105
3 30 139 63
3 30 140 139
3 30 141 140
3 31 142 65
3 31 143 142
3 31 145 143
3 33 146 67
3 33 147 146
3 14 148 109
3 34 149 70
3 34 150 149
3 34 151 150
3 35 152 72
3 35 230 232
3 232 231 152
3 230 231 232
3 36 233 235
3 233 153 234
3 233 234 235
3 38 154 75
3 38 155 154
3 16 156 113
3 39 157 78
3 39 158 157
3 39 159 158
3 40 160 80
3 40 161 160
3 236 162 237
3 238 163 239
3 240 239 162
3 238 239 240
3 41 164 82
3 41 165 164
3 41 166 165
3 42 167 84
3 42 168 167
3 42 169 168
3 43 170 86
3 43 171 170
3 18 241 242
3 244 243 88
3 36 245 246
3 36 247 248
3 37 249 250
3 44 251 253
3 253 252 91
3 251 252 253
3 44 254 255
3 20 172 120
3 28 173 134
3 45 174 95
3 45 175 174
3 256 176 257
3 258 257 125
3 256 257 258
3 32 177 144
3 46 178 98
3 46 259 261
3 261 260 178
3 259 260 261
3 25 179 128
3 263 262 101
3 265 264 132
3 266 47 267
3 268 47 269
3 270 13 271
3 272 271 47
3 270 271 272
3 273 48 274
3 275 274 13
3 273 274 275
3 276 48 277
3 279 278 48
3 49 50 15
3 280 50 281
3 282 281 49
3 280 281 282
3 283 17 284
3 285 284 50
3 283 284 285
3 286 51 287
3 49 288 290
3 288 51 289
3 288 289 290
3 49 15 51
3 52 53 19
3 54 53 52
3 54 21 53
3 55 291 293
3 293 292 22
3 291 292 293
3 295 294 55
3 56 296 297
3 56 298 300
3 298 23 299
3 298 299 300
3 57 58 24
3 301 58 302
3 303 302 57
3 301 302 303
3 304 26 305
3 306 305 58
3 304 305 306
3 308 307 26
3 59 60 27
3 61 60 59
3 61 29 60
3 62 63 12
3 64 63 62
3 64 30 63
3 64 65 30
3 66 65 64
3 66 31 65
3 66 67 31
3 68 67 66
3 68 33 67
3 69 70 14
3 71 70 69
3 71 34 70
3 71 72 34
3 73 72 71
3 73 35 72
3 74 75 36
3 76 75 74
3 76 38 75
3 77 78 16
3 79 78 77
3 79 39 78
3 79 80 39
3 81 80 79
3 81 40 80
3 309 82 310
3 83 311 313
3 311 82 312
3 311 312 313
3 83 41 82
3 83 84 41
3 85 84 83
3 85 42 84
3 85 86 42
3 314 86 315
3 316 315 85
3 314 315 316
3 317 43 318
3 319 318 86
3 317 318 319
3 87 88 18
3 89 88 87
3 89 320 322
3 322 321 88
3 320 321 322
3 89 323 324
3 74 325 327
3 327 326 89
3 325 326 327
3 74 328 330
3 328 36 329
3 328 329 330
3 90 91 37
3 92 91 90
3 92 44 91
3 93 331 333
3 333 332 20
3 331 332 333
3 335 334 93
3 94 95 28
3 96 95 94
3 96 45 95
3 97 98 32
3 99 98 97
3 99 46 98
3 100 101 25
3 102 101 100
3 102 336 338
3 338 337 101
3 336 337 338
3 102 339 340
3 342 341 102
3 103 343 344
3 103 345 346
3 104 105 2
3 106 105 104
3 106 12 105
3 47 347 349
3 347 106 348
3 347 348 349
3 107 106 47
3 107 12 106
3 107 62 12
3 108 62 107
3 108 4 62
3 108 109 4
3 110 109 108
3 110 14 109
3 48 110 13
3 111 110 48
3 111 14 110
3 111 69 14
3 350 69 351
3 352 351 111
3 350 351 352
3 353 6 354
3 355 354 69
3 353 354 355
3 112 113 7
3 114 113 112
3 114 16 113
3 50 114 15
3 115 114 50
3 115 16 114
3 115 77 16
3 116 77 115
3 116 9 77
3 117 356 357
3 117 358 360
3 358 18 359
3 358 359 360
3 51 361 363
3 361 117 362
3 361 362 363
3 118 117 51
3 118 18 117
3 118 87 18
3 112 87 118
3 112 7 87
3 119 120 8
3 121 120 119
3 121 20 120
3 53 121 19
3 122 121 53
3 122 20 121
3 122 93 20
3 123 93 122
3 123 10 93
3 124 125 3
3 126 125 124
3 126 364 366
3 366 365 125
3 364 365 366
3 367 126 368
3 369 368 22
3 367 368 369
3 370 126 371
3 373 372 126
3 127 128 5
3 129 128 127
3 129 25 128
3 58 129 24
3 130 129 58
3 130 25 129
3 130 100 25
3 131 100 130
3 131 11 100
3 131 132 11
3 374 132 375
3 376 375 131
3 374 375 376
3 378 377 132
3 380 379 26
3 133 134 0
3 135 134 133
3 135 28 134
3 60 135 27
3 136 135 60
3 136 28 135
3 136 94 28
3 137 94 136
3 137 3 94
3 105 61 2
3 138 61 105
3 138 29 61
3 63 138 12
3 139 138 63
3 139 29 138
3 139 137 29
3 140 137 139
3 140 3 137
3 140 124 3
3 141 124 140
3 141 22 124
3 65 141 30
3 142 141 65
3 142 22 141
3 142 55 22
3 143 55 142
3 143 1 55
3 143 144 1
3 145 144 143
3 145 32 144
3 67 145 31
3 146 145 67
3 146 32 145
3 146 97 32
3 147 97 146
3 147 5 97
3 109 68 4
3 148 68 109
3 148 33 68
3 70 148 14
3 149 148 70
3 149 33 148
3 149 147 33
3 150 147 149
3 150 5 147
3 150 127 5
3 151 127 150
3 151 24 127
3 72 151 34
3 152 151 72
3 152 24 151
3 152 57 24
3 381 57 382
3 383 382 152
3 381 382 383
3 385 384 57
3 153 386 387
3 153 388 390
3 388 37 389
3 388 389 390
3 75 153 36
3 154 153 75
3 154 37 153
3 154 90 37
3 155 90 154
3 155 8 90
3 113 76 7
3 156 76 113
3 156 38 76
3 78 156 16
3 157 156 78
3 157 38 156
3 157 155 38
3 158 155 157
3 158 8 155
3 158 119 8
3 159 119 158
3 159 19 119
3 80 159 39
3 160 159 80
3 160 19 159
3 160 52 19
3 161 52 160
3 161 0 52
3 391 17 392
3 162 393 394
3 162 395 397
3 395 17 396
3 395 396 397
3 162 116 17
3 163 116 162
3 163 9 116
3 82 398 399
3 164 400 402
3 402 401 82
3 400 401 402
3 164 403 404
3 164 405 407
3 405 163 406
3 405 406 407
3 165 163 164
3 165 9 163
3 165 81 9
3 166 81 165
3 166 40 81
3 84 166 41
3 167 166 84
3 167 40 166
3 167 161 40
3 168 161 167
3 168 0 161
3 168 133 0
3 169 133 168
3 169 27 133
3 86 169 42
3 170 169 86
3 170 27 169
3 170 59 27
3 171 59 170
3 171 2 59
3 408 43 409
3 410 43 411
3 412 171 413
3 414 413 43
3 412 413 414
3 415 171 416
3 417 2 418
3 419 418 171
3 417 418 419
3 420 104 421
3 422 421 2
3 420 421 422
3 423 104 424
3 426 425 104
3 88 427 429
3 429 428 18
3 427 428 429
3 431 430 88
3 432 6 433
3 434 6 435
3 436 73 437
3 438 437 6
3 436 437 438
3 439 73 440
3 441 35 442
3 443 442 73
3 441 442 443
3 444 35 445
3 447 446 35
3 91 448 450
3 450 449 37
3 448 449 450
3 453 452 91
3 451 452 453
3 120 92 8
3 172 92 120
3 172 44 92
3 454 172 455
3 456 455 20
3 454 455 456
3 457 172 458
3 459 44 460
3 461 460 172
3 459 460 461
3 463 462 44
3 134 54 0
3 173 54 134
3 173 21 54
3 95 173 28
3 174 173 95
3 174 21 173
3 174 123 21
3 175 123 174
3 175 10 123
3 125 96 3
3 176 96 125
3 176 45 96
3 464 176 465
3 466 176 467
3 468 45 469
3 470 469 176
3 468 469 470
3 471 175 472
3 473 472 45
3 471 472 473
3 474 175 475
3 476 10 477
3 478 477 175
3 476 477 478
3 480 479 10
3 144 56 1
3 177 56 144
3 177 23 56
3 98 177 32
3 178 177 98
3 178 23 177
3 178 481 483
3 483 482 23
3 481 482 483
3 485 484 178
3 128 99 5
3 179 99 128
3 179 46 99
3 101 179 25
3 486 179 487
3 488 487 101
3 486 487 488
3 489 46 490
3 491 490 179
3 489 490 491
3 493 492 46
3 132 103 11
3 494 103 495
3 496 495 132
3 494 495 496
3 499 498 103
3 497 498 499
