ply
format ascii 1.0
element vertex 149
property float x
property float y
property float z
element face 130
property list uchar int vertex_index
end_header
-6.289782 11.187957 -70.022224
-5.624463 21.40056 -69.535439
-2.159414 2.618351 -63.907612
-5.983762 16.48016 -70.338943
-3.087924 17.303749 -67.769585
-3.384457 12.300944 -67.818115
-3.849951 7.092825 -67.180244
-4.326312 1.641484 -65.827858
-6.479364 8.455018 -69.549652
-5.83343 18.957813 -70.106903
-1.700467 17.558823 -66.106667
-1.955868 15.301744 -66.439163
-3.24408 14.878356 -67.922302
-2.173439 12.766239 -66.501411
-1.899208 5.343213 -64.478088
-2.774404 7.61376 -66.20031
-2.948537 4.898462 -65.604721
-4.12534 4.507435 -66.653198
-3.156741 2.371137 -64.972229
-1.453385 0.360106 -62.134014
-6.083777 13.911029 -70.266907
-4.097815 21.582096 -68.187332
-2.867174 19.597662 -67.308289
-4.281282 19.284397 -68.797287
-4.440201 16.881516 -69.11898
-4.61153 14.455147 -69.199745
-4.791679 11.933802 -69.060951
-2.46372 10.138514 -66.427834
-3.707163 9.821133 -67.704483
-4.981862 9.24739 -68.698387
-5.156879 6.664701 -68.169632
-7.065751 10.647771 -70.345425
-7.004914 12.056722 -70.56385
-6.384573 9.821487 -69.785938
-7.160542 9.281302 -70.109139
-7.065751 10.647771 -70.345425
-6.472523 21.041407 -70.175365
-6.431664 22.22009 -69.847347
-5.728947 20.179187 -69.821171
-6.577006 19.820033 -70.461097
-6.472523 21.041407 -70.175365
-1.471439 14.056942 -65.680988
-1.377612 15.348649 -65.663856
-1.580224 12.789189 -65.712112
-2.064653 14.033991 -66.470287
-1.471439 14.056942 -65.680988
-2.029311 3.980782 -64.19285
-1.54015 4.130035 -63.577659
-1.670253 2.767604 -63.292422
-1.109905 -0.79365 -61.17622
-0.99894 0.432214 -61.475611
-1.211342 -2.176333 -60.775547
-1.554822 -1.022577 -61.733341
-1.109905 -0.79365 -61.17622
-6.784002 16.142117 -70.813449
-6.703462 17.359375 -70.756553
-6.03377 15.195595 -70.302925
-6.83401 14.857551 -70.777432
-6.784002 16.142117 -70.813449
-3.384442 21.735217 -67.406384
-4.090024 22.738937 -67.807525
-2.036569 9.000647 -65.6185
-1.915376 10.258447 -65.7426
-4.831807 2.702854 -66.608933
-4.731321 4.135829 -67.021603
-4.225826 3.07446 -66.240528
-4.946708 1.247764 -66.165367
-4.831807 2.702854 -66.608933
-7.213503 7.877166 -69.784584
-7.160542 9.281302 -70.109139
-6.513491 6.971594 -69.149597
-7.213503 7.877166 -69.784584
-6.628296 18.598202 -70.640534
-6.577006 19.820033 -70.461097
-5.908596 17.718986 -70.222923
-6.703462 17.359375 -70.756553
-6.628296 18.598202 -70.640534
-1.249912 16.477189 -65.497608
-1.082144 17.686955 -65.261826
-1.828167 16.430284 -66.272915
-1.249912 16.477189 -65.497608
-1.377612 15.348649 -65.663856
-1.372828 5.421568 -63.757347
-1.54015 4.130035 -63.577659
-1.754313 6.602996 -64.643627
-1.372828 5.421568 -63.757347
-2.336806 6.478487 -65.339199
-2.191911 7.73827 -65.504738
-1.754313 6.602996 -64.643627
-5.604213 22.502331 -69.183594
-6.431664 22.22009 -69.847347
-1.317239 1.638481 -62.405622
-0.99894 0.432214 -61.475611
-1.806399 1.489229 -63.020813
-1.670253 2.767604 -63.292422
-1.317239 1.638481 -62.405622
-1.891372 0.113253 -62.614391
-2.244387 1.242376 -63.50119
-1.806399 1.489229 -63.020813
-1.891372 0.113253 -62.614391
-1.554822 -1.022577 -61.733341
-6.901912 13.418258 -70.686192
-6.83401 14.857551 -70.777432
-6.18678 12.549493 -70.144565
-7.004914 12.056722 -70.56385
-6.901912 13.418258 -70.686192
-4.840889 22.5931 -68.50954
-4.090024 22.738937 -67.807525
-4.861139 21.491328 -68.861385
-5.604213 22.502331 -69.183594
-4.840889 22.5931 -68.50954
-1.619474 18.692189 -65.894246
-1.082144 17.686955 -65.261826
-2.202828 19.711608 -66.495057
-1.619474 18.692189 -65.894246
-2.283821 18.578243 -66.707478
-2.769121 20.743 -66.966862
-2.202828 19.711608 -66.495057
-3.482494 20.589879 -67.74781
-3.384442 21.735217 -67.406384
-2.769121 20.743 -66.966862
-1.770236 11.572309 -65.779388
-1.580224 12.789189 -65.712112
-2.31858 11.452376 -66.464623
-1.770236 11.572309 -65.779388
-1.915376 10.258447 -65.7426
-2.619062 8.876137 -66.314072
-2.036569 9.000647 -65.6185
-2.191911 7.73827 -65.504738
-5.852248 6.076435 -68.459587
-6.513491 6.971594 -69.149597
-5.818122 7.559859 -68.859642
-5.247091 5.214462 -67.77982
-4.641109 5.586068 -67.411415
-4.731321 4.135829 -67.021603
-5.852248 6.076435 -68.459587
-5.247091 5.214462 -67.77982
-2.74305 1.118769 -64.033499
-2.658078 2.494744 -64.43992
-2.244387 1.242376 -63.50119
-3.264915 0.951886 -64.548862
-2.74305 1.118769 -64.033499
-3.849701 0.587059 -64.976677
-3.741526 2.006311 -65.400044
-3.264915 0.951886 -64.548862
-4.419796 0.19497 -65.349804
-3.849701 0.587059 -64.976677
-4.946708 1.247764 -66.165367
-4.419796 0.19497 -65.349804
3 0 31 32
3 0 33 35
3 33 8 34
3 33 34 35
3 1 36 37
3 1 38 40
3 38 9 39
3 38 39 40
3 41 11 42
3 43 13 44
3 45 44 11
3 43 44 45
3 2 46 48
3 46 14 47
3 46 47 48
3 2 16 14
3 2 18 16
3 49 19 50
3 53 52 19
3 51 52 53
3 3 54 55
3 3 56 58
3 56 20 57
3 56 57 58
3 59 21 60
3 4 22 10
3 4 23 22
3 4 24 23
3 5 25 12
3 5 26 25
3 61 27 62
3 6 28 15
3 6 29 28
3 6 30 29
3 7 63 65
3 65 64 17
3 63 64 65
3 7 66 67
3 8 68 69
3 8 70 71
3 9 72 73
3 9 74 76
3 74 3 75
3 74 75 76
3 77 10 78
3 11 79 81
3 79 10 80
3 79 80 81
3 11 4 10
3 11 12 4
3 13 12 11
3 13 5 12
3 14 82 83
3 14 84 85
3 14 86 88
3 86 15 87
3 86 87 88
3 16 15 14
3 16 6 15
3 16 17 6
3 18 17 16
3 18 7 17
3 89 1 90
3 19 91 92
3 19 93 95
3 93 2 94
3 93 94 95
3 19 96 98
3 98 97 2
3 96 97 98
3 100 99 19
3 20 101 102
3 20 103 105
3 103 0 104
3 103 104 105
3 21 106 107
3 21 108 110
3 108 1 109
3 108 109 110
3 10 111 112
3 22 113 115
3 115 114 10
3 113 114 115
3 22 116 117
3 22 118 120
3 118 21 119
3 118 119 120
3 23 21 22
3 23 1 21
3 23 9 1
3 24 9 23
3 24 3 9
3 12 24 4
3 25 24 12
3 25 3 24
3 25 20 3
3 26 20 25
3 26 0 20
3 121 13 122
3 27 123 125
3 123 13 124
3 123 124 125
3 27 5 13
3 15 126 128
3 126 27 127
3 126 127 128
3 28 27 15
3 28 5 27
3 28 26 5
3 29 26 28
3 29 0 26
3 29 8 0
3 30 8 29
3 30 129 131
3 131 130 8
3 129 130 131
3 17 30 6
3 132 30 133
3 134 133 17
3 132 133 134
3 136 135 30
3 137 18 138
3 139 138 2
3 137 138 139
3 140 18 141
3 142 7 143
3 144 143 18
3 142 143 144
3 145 7 146
3 148 147 7
