ply
format ascii 1.0
element vertex 329
property float x
property float y
property float z
element face 346
property list uchar int vertex_index
end_header
-33.306313 -9.364587 -17.582508
-33.58823 -22.330196 -3.590874
-26.965027 -9.586326 -10.78345
-28.060505 -15.014726 -5.002098
-32.72282 -16.633415 -10.516335
-38.384956 -8.600811 -24.766571
-37.501328 -30.089691 -2.098256
-37.165417 -24.073114 -10.10365
-37.58604 -16.67696 -17.536863
-27.160284 -12.492417 -7.710477
-36.687065 -28.429853 1.111183
-35.937847 -26.22089 -2.822922
-37.277473 -27.440422 -6.117321
-35.459194 -23.48773 -6.696714
-32.805031 -13.106665 -13.954384
-35.318722 -16.671288 -14.001791
-35.707573 -12.916404 -17.619143
-38.01524 -12.552472 -21.312368
-30.158056 -9.834822 -13.978119
-30.812309 -18.581591 -4.287061
-32.872047 -19.579983 -7.132265
-30.063107 -16.036192 -7.439783
-29.922323 -13.096654 -10.700305
-38.43895 -28.256704 -9.744741
-38.702488 -24.702417 -13.694798
-35.201199 -20.23472 -10.35909
-37.328514 -20.503502 -13.939283
-34.132977 -23.577951 -1.74174
-35.260635 -25.424065 -1.296462
-34.850517 -24.275349 -3.217216
-35.652138 -24.920656 -4.751655
-34.489079 -22.908453 -5.162865
-33.092033 -11.312638 -15.78287
-34.350739 -12.987918 -15.854262
-34.573784 -11.072628 -17.649786
-35.969566 -10.939658 -19.4744
-28.577105 -9.855154 -12.321551
-27.294889 -14.181767 -3.994235
-28.605587 -15.990408 -3.578274
-30.027065 -17.896887 -3.043045
-29.474602 -16.872272 -4.60043
-30.424276 -17.465658 -5.795598
-28.979826 -15.657684 -6.055332
-27.077518 -11.224742 -9.183144
-28.440969 -12.884582 -9.098914
-28.410307 -11.416012 -10.639634
-29.944756 -11.505733 -12.265027
-37.106266 -29.361513 -0.395852
-37.389874 -30.362064 1.707813
-37.684277 -31.295862 0.06175
-37.965092 -32.156586 -1.613181
-37.905991 -30.909506 -3.66909
-37.196831 -25.765842 -8.185977
-37.913692 -27.901981 -7.993477
-37.944172 -26.140572 -10.042842
-38.565926 -26.461493 -11.808835
-37.953297 -24.274128 -11.920617
-32.794415 -18.246538 -8.792809
-34.138119 -20.119362 -8.661911
-33.9958 -18.431499 -10.394508
-36.49958 -16.58993 -15.819702
-36.426765 -18.496611 -14.087229
-37.515255 -18.705273 -15.812498
-38.261383 -20.716078 -15.72759
-38.379982 -18.60685 -17.598753
-38.537743 -16.526064 -19.440653
-38.224636 -10.576091 -23.074661
-26.675222 -13.142764 -5.32043
-27.541313 -13.801698 -6.346776
-26.205534 -12.018412 -6.589809
-37.376312 -8.779933 -23.022263
-37.633381 -6.797679 -24.877293
-36.257057 -27.351315 -0.760917
-36.79076 -28.073912 -2.431844
-37.343811 -28.821121 -4.019542
-36.567177 -26.797865 -4.376095
-36.427963 -25.416199 -6.347872
-36.282097 -23.741701 -8.346511
-32.804501 -14.993234 -12.24991
-34.097847 -16.71431 -12.276604
-34.128178 -14.860917 -14.007213
-35.400234 -14.73401 -15.758708
-36.698257 -14.759229 -17.581413
-37.803192 -14.673208 -19.418182
-36.929909 -12.828581 -19.394022
-37.127399 -10.806742 -21.173326
-31.672213 -9.634058 -15.678158
-32.21941 -20.420969 -3.945745
-33.17865 -20.97859 -5.449702
-31.782515 -19.164618 -5.607641
-31.500349 -17.857418 -7.213361
-31.395626 -16.406349 -8.955166
-28.619158 -14.259866 -7.617728
-29.920029 -14.549645 -9.12968
-31.348402 -14.77298 -10.691243
-31.403131 -13.151731 -12.335534
-31.501995 -11.396059 -14.014988
-37.88755 -29.509312 -5.79451
-38.330078 -30.052082 -7.50838
-34.216236 -21.525171 -6.877334
-35.223919 -21.813181 -8.525756
-36.247345 -22.13755 -10.18881
-35.294289 -18.549601 -12.235342
-36.305725 -20.33189 -12.181386
-37.211372 -22.245621 -12.095476
-38.103882 -22.536831 -13.867895
-38.87212 -22.634758 -15.781096
-33.459792 -8.365798 -18.527416
-34.054427 -9.223546 -18.518833
-33.860603 -22.954073 -2.666307
-33.450436 -22.576625 -1.980775
-33.178063 -21.952748 -2.905342
-34.054427 -9.223546 -18.518833
-34.688162 -10.077566 -18.552472
-33.940049 -10.218608 -17.616147
-27.077016 -8.848421 -11.609503
-27.883055 -8.982835 -12.378554
-27.771066 -9.72074 -11.552501
-38.503475 -7.709229 -25.63946
-38.838611 -8.678798 -25.57016
-38.76021 -9.604449 -24.755314
-38.68005 -10.592088 -23.909359
-38.304796 -9.588451 -23.920616
-38.838611 -8.678798 -25.57016
-38.76021 -9.604449 -24.755314
-26.015267 -12.181874 -5.485838
-26.32828 -12.691309 -4.859327
-25.780423 -11.619699 -6.120527
-26.440378 -12.580588 -5.95512
-26.015267 -12.181874 -5.485838
-36.904117 -7.879087 -23.031185
-36.807083 -8.848842 -22.180059
-36.682626 -9.862247 -21.255591
-36.548482 -10.8732 -20.323863
-36.10371 -9.928705 -20.406128
-36.807083 -8.848842 -22.180059
-37.251855 -9.793337 -22.097794
-36.682626 -9.862247 -21.255591
-30.267095 -8.850271 -14.914985
-31.024174 -8.749889 -15.765004
-30.915135 -9.73444 -14.828138
-31.111258 -19.148733 -3.470332
-30.718635 -18.80638 -2.848324
-30.419687 -18.239239 -3.665053
-31.51586 -19.50128 -4.116403
-31.814808 -20.068421 -3.299674
-31.111258 -19.148733 -3.470332
-37.3046 -5.064802 -25.752382
-37.767078 -5.907489 -25.777047
-37.170902 -5.954992 -24.852629
-36.892227 -28.854501 2.14815
-36.497722 -27.916311 1.789691
-37.80858 -31.837437 3.12098
-37.558407 -30.836507 2.836985
-37.640047 -31.362993 1.991808
-38.57345 -29.390614 -9.512
-38.519014 -30.288303 -8.393819
-38.384514 -29.154393 -8.626561
-38.668988 -28.474842 -10.599509
-38.57345 -29.390614 -9.512
-38.906498 -25.765982 -13.640201
-38.838217 -26.645519 -12.69722
-38.634207 -25.581955 -12.751817
-38.998132 -24.755429 -14.651864
-38.906498 -25.765982 -13.640201
-38.945366 -21.624563 -16.709585
-38.566752 -21.675418 -15.754343
-38.639997 -20.665222 -16.682832
-39.188769 -22.716745 -16.702166
-38.945366 -21.624563 -16.709585
-38.406261 -13.524858 -21.352628
-38.300238 -14.585226 -20.405535
-37.909216 -13.61284 -20.365275
-33.783571 -23.087655 -1.145944
-33.450436 -22.576625 -1.980775
-34.362339 -23.990346 -0.860023
-33.783571 -23.087655 -1.145944
-34.696806 -24.501008 -1.519101
-34.926169 -24.913403 -0.637384
-34.362339 -23.990346 -0.860023
-35.386053 -10.011081 -19.464779
-35.271675 -11.006143 -18.562093
-34.688162 -10.077566 -18.552472
-36.10371 -9.928705 -20.406128
-35.386053 -10.011081 -19.464779
-28.696652 -8.978437 -13.220142
-29.487128 -8.968271 -14.048426
-29.36758 -9.844988 -13.149835
-28.696652 -8.978437 -13.220142
-27.883055 -8.982835 -12.378554
-27.676839 -14.628419 -3.318073
-27.034085 -13.663089 -3.573359
-28.332187 -15.532739 -3.110092
-27.676839 -14.628419 -3.318073
-27.950238 -15.086088 -3.786255
-28.984067 -16.460112 -2.874302
-28.332187 -15.532739 -3.110092
-29.316326 -16.943648 -3.310659
-29.694806 -17.413351 -2.606687
-28.984067 -16.460112 -2.874302
-37.787249 -31.829892 1.168777
-37.640047 -31.362993 1.991808
-37.537076 -30.828963 0.884781
-37.868767 -32.326036 0.346416
-37.787249 -31.829892 1.168777
-38.009175 -32.756397 -0.491049
-37.868767 -32.326036 0.346416
-37.824685 -31.726224 -0.775716
-38.072422 -33.204487 -1.350607
-38.116505 -33.804299 -0.228475
-38.009175 -32.756397 -0.491049
-38.081131 -32.548773 -2.423236
-38.072422 -33.204487 -1.350607
-38.051581 -31.925233 -3.451191
-38.081131 -32.548773 -2.423236
-37.935541 -31.533046 -2.641135
-38.078035 -31.285453 -4.48192
-38.051581 -31.925233 -3.451191
-38.699297 -19.610609 -17.618414
-38.639997 -20.665222 -16.682832
-38.320683 -19.661464 -16.663171
-38.778629 -18.593483 -18.522686
-38.699297 -19.610609 -17.618414
-38.85751 -17.55309 -19.443636
-38.778629 -18.593483 -18.522686
-38.458862 -17.566457 -18.519703
-38.974239 -16.554488 -20.403166
-38.85751 -17.55309 -19.443636
-38.600935 -11.564806 -23.083079
-38.496237 -12.552996 -22.201932
-38.119938 -11.564281 -22.193514
-38.600935 -11.564806 -23.083079
-38.68005 -10.592088 -23.909359
-26.297126 -8.753118 -10.810067
-26.353633 -9.517419 -10.07599
-26.638114 -13.210811 -4.19623
-27.034085 -13.663089 -3.573359
-26.985056 -13.662266 -4.657332
-26.638114 -13.210811 -4.19623
-26.32828 -12.691309 -4.859327
-25.544581 -11.066308 -6.724268
-25.780423 -11.619699 -6.120527
-25.11947 -10.667594 -6.254987
-25.993639 -11.341238 -7.248607
-25.544581 -11.066308 -6.724268
-26.471014 -11.578241 -7.808941
-26.682909 -12.255415 -7.150143
-25.993639 -11.341238 -7.248607
-26.429631 -10.944403 -8.545274
-27.118901 -11.85858 -8.44681
-26.471014 -11.578241 -7.808941
-26.409879 -10.336628 -9.275837
-26.429631 -10.944403 -8.545274
-26.353633 -9.517419 -10.07599
-27.021273 -10.405534 -9.983297
-26.409879 -10.336628 -9.275837
-37.032652 -6.887961 -23.9587
-37.504846 -7.788806 -23.949778
-36.904117 -7.879087 -23.031185
-37.170902 -5.954992 -24.852629
-37.032652 -6.887961 -23.9587
-36.213123 -27.430438 0.840217
-36.497722 -27.916311 1.789691
-35.499909 -25.927544 -0.363606
-34.926169 -24.913403 -0.637384
-35.99812 -26.891169 -0.095833
-35.499909 -25.927544 -0.363606
-35.758846 -26.38769 -1.02869
-36.472061 -27.890584 0.175133
-36.213123 -27.430438 0.840217
-35.99812 -26.891169 -0.095833
-31.863636 -8.66238 -16.657835
-32.680686 -8.527645 -17.61001
-32.489263 -9.499322 -16.630333
-31.863636 -8.66238 -16.657835
-31.024174 -8.749889 -15.765004
-30.267095 -8.850271 -14.914985
-29.487128 -8.968271 -14.048426
-27.077016 -8.848421 -11.609503
-26.297126 -8.753118 -10.810067
-30.395503 -18.374198 -2.324291
-29.694806 -17.413351 -2.606687
-30.395503 -18.374198 -2.324291
-30.718635 -18.80638 -2.848324
-32.493653 -20.998134 -3.082777
-31.814808 -20.068421 -3.299674
-32.90382 -21.375583 -3.768309
-33.178063 -21.952748 -2.905342
-32.493653 -20.998134 -3.082777
-38.127688 -6.807663 -25.694822
-38.503475 -7.709229 -25.63946
-38.009169 -7.699245 -24.821932
-38.261385 -5.917473 -26.594575
-38.127688 -6.807663 -25.694822
-37.767078 -5.907489 -25.777047
-33.459792 -8.365798 -18.527416
-32.680686 -8.527645 -17.61001
-37.243631 -29.820606 2.446465
-36.892227 -28.854501 2.14815
-37.038469 -29.395958 1.409498
-37.243631 -29.820606 2.446465
-37.558407 -30.836507 2.836985
-38.068815 -30.585356 -5.54463
-38.078035 -31.285453 -4.48192
-37.896771 -30.209409 -4.7318
-38.290079 -30.856741 -6.401565
-38.068815 -30.585356 -5.54463
-38.108814 -29.780697 -6.651445
-38.432058 -31.088865 -7.311509
-38.290079 -30.856741 -6.401565
-38.432058 -31.088865 -7.311509
-38.519014 -30.288303 -8.393819
-38.732475 -27.577236 -11.631557
-38.668988 -28.474842 -10.599509
-38.502438 -27.359099 -10.776788
-38.732475 -27.577236 -11.631557
-38.838217 -26.645519 -12.69722
-39.082949 -23.721599 -15.695013
-38.998132 -24.755429 -14.651864
-38.787304 -23.668588 -14.737947
-39.082949 -23.721599 -15.695013
-39.188769 -22.716745 -16.702166
-38.667513 -15.511654 -20.41677
-38.170468 -15.599636 -19.429417
-38.300238 -14.585226 -20.405535
-38.974239 -16.554488 -20.403166
-38.667513 -15.511654 -20.41677
-38.406261 -13.524858 -21.352628
-38.496237 -12.552996 -22.201932
3 0 107 108
3 1 109 111
3 109 27 110
3 109 110 111
3 1 29 27
3 1 31 29
3 0 34 32
3 0 112 114
3 114 113 34
3 112 113 114
3 2 115 117
3 117 116 36
3 115 116 117
3 3 38 37
3 3 40 38
3 3 42 40
3 2 45 43
3 2 36 45
3 5 118 119
3 6 49 47
3 6 50 49
3 6 51 50
3 7 54 52
3 7 56 54
3 4 59 57
3 8 62 60
3 8 64 62
3 8 65 64
3 5 120 122
3 122 121 66
3 120 121 122
3 5 123 124
3 125 67 126
3 127 69 128
3 129 128 67
3 127 128 129
3 131 130 70
3 11 72 28
3 11 73 72
3 11 75 73
3 13 76 30
3 13 77 76
3 14 80 78
3 16 81 33
3 16 82 81
3 16 84 82
3 132 85 133
3 134 133 35
3 132 133 134
3 135 70 136
3 137 136 85
3 135 136 137
3 18 138 140
3 140 139 86
3 138 139 140
3 19 141 143
3 143 142 39
3 141 142 143
3 19 144 146
3 144 87 145
3 144 145 146
3 19 89 87
3 21 90 41
3 21 91 90
3 9 92 68
3 22 93 44
3 22 94 93
3 22 95 94
3 18 96 46
3 18 86 96
3 149 148 71
3 147 148 149
3 10 150 151
3 154 153 48
3 152 153 154
3 12 97 74
3 23 98 53
3 23 155 157
3 157 156 98
3 155 156 157
3 23 158 159
3 24 160 162
3 162 161 55
3 160 161 162
3 24 163 164
3 20 99 88
3 25 100 58
3 25 101 100
3 15 102 79
3 26 103 61
3 26 104 103
3 26 105 104
3 165 106 166
3 167 166 63
3 165 166 167
3 169 168 106
3 17 170 172
3 172 171 83
3 170 171 172
3 27 173 174
3 27 175 176
3 27 177 179
3 177 28 178
3 177 178 179
3 29 28 27
3 29 11 28
3 29 30 11
3 31 30 29
3 31 13 30
3 32 33 14
3 34 33 32
3 34 16 33
3 34 35 16
3 180 35 181
3 182 181 34
3 180 181 182
3 184 183 35
3 36 185 187
3 187 186 18
3 185 186 187
3 189 188 36
3 37 190 191
3 38 192 194
3 194 193 37
3 192 193 194
3 38 195 196
3 38 197 199
3 197 39 198
3 197 198 199
3 40 39 38
3 40 19 39
3 40 41 19
3 42 41 40
3 42 21 41
3 43 44 9
3 45 44 43
3 45 22 44
3 45 46 22
3 36 46 45
3 36 18 46
3 47 48 10
3 49 48 47
3 49 200 202
3 202 201 48
3 200 201 202
3 49 203 204
3 50 205 207
3 207 206 49
3 205 206 207
3 50 208 210
3 208 209 210
3 50 211 212
3 51 213 215
3 215 214 50
3 213 214 215
3 51 216 217
3 52 53 12
3 54 53 52
3 54 23 53
3 54 55 23
3 56 55 54
3 56 24 55
3 57 58 20
3 59 58 57
3 59 25 58
3 60 61 15
3 62 61 60
3 62 26 61
3 62 63 26
3 64 63 62
3 64 218 220
3 220 219 63
3 218 219 220
3 64 221 222
3 65 223 225
3 225 224 64
3 223 224 225
3 65 226 227
3 66 228 230
3 230 229 17
3 228 229 230
3 232 231 66
3 234 233 2
3 235 37 236
3 67 237 239
3 237 37 238
3 237 238 239
3 67 3 37
3 67 68 3
3 69 68 67
3 69 9 68
3 240 69 241
3 240 241 242
3 243 69 244
3 245 9 246
3 247 246 69
3 245 246 247
3 248 43 249
3 250 249 9
3 248 249 250
3 251 43 252
3 253 2 254
3 255 254 43
3 253 254 255
3 70 71 5
3 256 71 257
3 258 257 70
3 256 257 258
3 260 259 71
3 261 10 262
3 28 263 264
3 72 265 267
3 267 266 28
3 265 266 267
3 72 268 270
3 268 10 269
3 268 269 270
3 72 47 10
3 73 47 72
3 73 6 47
3 73 74 6
3 75 74 73
3 75 12 74
3 30 75 11
3 76 75 30
3 76 12 75
3 76 52 12
3 77 52 76
3 77 7 52
3 78 79 4
3 80 79 78
3 80 15 79
3 33 80 14
3 81 80 33
3 81 15 80
3 81 60 15
3 82 60 81
3 82 8 60
3 82 83 8
3 84 83 82
3 84 17 83
3 35 84 16
3 85 84 35
3 85 17 84
3 85 66 17
3 70 66 85
3 70 5 66
3 86 271 273
3 273 272 0
3 271 272 273
3 275 274 86
3 277 276 18
3 279 278 2
3 39 280 281
3 283 282 39
3 87 284 285
3 87 286 288
3 286 1 287
3 286 287 288
3 87 88 1
3 89 88 87
3 89 20 88
3 41 89 19
3 90 89 41
3 90 20 89
3 90 57 20
3 91 57 90
3 91 4 57
3 68 42 3
3 92 42 68
3 92 21 42
3 44 92 9
3 93 92 44
3 93 21 92
3 93 91 21
3 94 91 93
3 94 4 91
3 94 78 4
3 95 78 94
3 95 14 78
3 46 95 22
3 96 95 46
3 96 14 95
3 96 32 14
3 86 32 96
3 86 0 32
3 71 289 291
3 291 290 5
3 289 290 291
3 294 293 71
3 292 293 294
3 296 295 0
3 48 297 299
3 299 298 10
3 297 298 299
3 301 300 48
3 74 51 6
3 97 51 74
3 97 302 304
3 304 303 51
3 302 303 304
3 53 97 12
3 98 97 53
3 98 305 307
3 307 306 97
3 305 306 307
3 98 308 309
3 311 310 98
3 55 312 314
3 314 313 23
3 312 313 314
3 316 315 55
3 88 31 1
3 99 31 88
3 99 13 31
3 58 99 20
3 100 99 58
3 100 13 99
3 100 77 13
3 101 77 100
3 101 7 77
3 79 59 4
3 102 59 79
3 102 25 59
3 61 102 15
3 103 102 61
3 103 25 102
3 103 101 25
3 104 101 103
3 104 7 101
3 104 56 7
3 105 56 104
3 105 24 56
3 63 105 26
3 106 105 63
3 106 24 105
3 106 317 319
3 319 318 24
3 317 318 319
3 321 320 106
3 83 65 8
3 322 65 323
3 324 323 83
3 322 323 324
3 326 325 65
3 328 327 17
