ply
format ascii 1.0
element vertex 321
property float x
property float y
property float z
element face 354
property list uchar int vertex_index
end_header
-29.654617 83.020988 19.348715
-26.31517 92.600571 17.423901
-31.136248 59.787544 30.12051
-31.053873 71.268654 20.939232
-30.152206 71.033386 31.008354
-27.518299 81.100525 30.533821
-31.156681 80.474159 8.738324
-30.738489 65.449478 30.619287
-30.297991 64.307915 36.096447
-27.80814 74.561569 36.433292
-30.522261 77.347656 19.889576
-31.089268 76.246208 15.025334
-30.392595 82.21888 14.008677
-28.290628 88.385963 18.324577
-29.365961 87.95974 12.797784
-27.787085 93.076195 11.759596
-31.44842 60.452198 25.644772
-31.452347 65.702209 21.483551
-31.070301 65.894539 25.769442
-30.632446 71.626816 25.63863
-29.930105 77.430077 25.290958
-29.377394 69.702316 36.439724
-29.146587 76.332321 30.960665
-28.76594 82.645599 24.937893
-26.954054 87.103912 24.362591
-31.59556 70.130257 16.497641
-31.841394 74.121269 10.596179
-32.074619 77.532578 4.520561
-30.206886 86.78434 7.368105
-31.191799 84.13533 2.187132
-30.147335 80.105476 19.728046
-30.450527 80.019089 16.851994
-30.018255 82.890335 16.563951
-27.366564 90.585281 18.04302
-28.034393 90.820053 15.124949
-27.078051 93.029572 14.588721
-31.289391 60.279984 27.671223
-31.260305 63.14978 25.694815
-31.093527 62.968193 28.020948
-30.488886 68.100166 30.966827
-30.667578 68.76416 28.24222
-30.413706 71.331909 28.375963
-30.328094 74.503304 25.553288
-30.044832 74.349907 28.191622
-29.497246 66.017265 38.948128
-28.815687 68.789177 39.005859
-27.665737 77.875107 33.590511
-28.547823 75.454994 33.878208
-28.399479 78.790794 30.888126
-28.912161 79.552109 28.270863
-28.163227 82.127731 27.738882
-27.966297 84.950737 24.69676
-27.214102 84.344292 27.387957
-31.332335 57.188751 29.527542
-31.499418 57.610695 27.252522
-31.260742 68.520027 21.162115
-31.521183 67.940346 19.043335
-31.297132 71.005714 18.495399
-31.108234 78.494545 12.040297
-31.424343 75.324448 12.808066
-31.505192 77.338593 9.74626
-31.959337 75.844315 7.711316
-31.617996 79.007774 6.462151
-29.192106 90.32399 9.150364
-29.762899 87.61422 10.062943
-29.676168 89.560593 6.567805
-30.99622 59.106564 32.667133
-30.950994 62.375954 30.55508
-30.800608 61.981438 32.961533
-30.561512 64.629318 33.467709
-30.255447 67.681755 33.497597
-27.965183 71.041565 39.141525
-30.821842 74.29512 20.357199
-31.070539 73.903511 17.932491
-30.779903 77.044281 17.405954
-30.77301 79.265411 14.489414
-30.765234 81.357635 11.455886
-29.030336 85.792618 18.947142
-29.51273 85.534668 16.233694
-28.875717 88.21048 15.654643
-28.664255 90.662743 12.148792
-28.441793 92.782196 8.863921
-31.631384 60.744732 23.559401
-31.644714 62.95417 21.791636
-31.433456 63.143555 23.689522
-31.242067 65.887962 23.633705
-31.047613 68.712158 23.503447
-30.901264 65.702324 28.204948
-30.866642 68.650307 25.846161
-30.832584 71.605812 23.271048
-30.587435 74.516182 22.811871
-30.253529 77.323967 22.658699
-29.792645 80.25016 22.475266
-30.017426 63.077469 38.794369
-29.916014 66.905106 36.361675
-29.816671 70.296638 33.90057
-28.646626 72.171593 36.640785
-29.220272 73.108398 33.942715
-29.706722 73.688217 31.114573
-29.550526 77.176758 28.080429
-29.407526 80.050323 25.279652
-29.225323 83.141273 21.976236
-28.529142 85.615395 21.711691
-27.695444 87.869141 21.342249
-26.673208 89.971275 20.86282
-31.663202 58.231056 25.157494
-31.364199 73.08638 15.760335
-31.710554 72.070175 13.714223
-32.137383 70.892334 11.648635
-32.3508 72.380524 8.681271
-29.918934 85.23954 13.335111
-30.302616 84.587929 10.722775
-30.696217 83.727119 8.131042
-30.169155 88.488731 4.002756
-30.666109 85.662964 4.788229
-31.151217 82.449272 5.608305
-31.645729 80.918961 3.300825
-28.498581 67.989971 40.350386
-28.891215 66.820713 40.266954
-31.234291 58.488147 29.824026
-31.265394 56.777198 30.712701
-31.167351 58.076595 31.009185
-29.32988 90.973232 6.207633
-29.434137 89.942291 7.859084
-29.087848 91.354931 7.498912
-30.827004 60.157088 34.089878
-30.898414 60.544001 32.814333
-30.92481 58.719651 33.942678
-30.429752 64.468616 34.782078
-30.593856 62.925636 34.560753
-30.462096 62.764934 35.875122
-30.92481 58.719651 33.942678
-31.024638 57.364487 33.564685
-29.802766 62.588877 40.097938
-30.050893 61.21558 39.884113
-31.590528 65.275039 20.596696
-31.686712 63.90102 20.750739
-31.54853 64.328189 21.637594
-31.712528 68.594769 16.862088
-31.675339 67.499813 18.134934
-31.558371 69.035302 17.770488
-31.793405 69.488354 15.520815
-31.712528 68.594769 16.862088
-32.276217 75.876274 5.092009
-32.218576 75.032143 6.687386
-32.016978 76.688446 6.115939
-32.352303 76.64013 3.496063
-32.276217 75.876274 5.092009
-30.128473 89.370739 2.200952
-29.859107 89.957367 3.540564
-30.928954 84.899147 3.487681
-30.661244 86.451569 3.139597
-30.92409 85.687751 1.839049
-30.347176 62.368195 37.192642
-30.462096 62.764934 35.875122
-29.231994 65.434757 40.238089
-29.542676 64.058775 40.174818
-29.156467 67.403221 38.976993
-29.231994 65.434757 40.238089
-28.891215 66.820713 40.266954
-31.359787 55.449696 30.410859
-31.265394 56.777198 30.712701
-31.442493 55.823481 29.237637
-31.359787 55.449696 30.410859
-31.415876 57.399723 28.390032
-31.526035 56.034453 28.100127
-31.442493 55.823481 29.237637
-31.20967 84.835106 0.553878
-30.92409 85.687751 1.839049
-31.46969 83.219936 1.056029
-31.20967 84.835106 0.553878
-26.14689 93.748139 15.728965
-25.700841 93.343525 17.294834
-30.713404 61.601696 34.307665
-30.827004 60.157088 34.089878
-30.68106 63.305378 33.214621
-30.713404 61.601696 34.307665
-30.593856 62.925636 34.560753
-27.570232 70.338669 40.340156
-28.073329 69.116165 40.418219
-27.45802 72.144509 39.049736
-27.570232 70.338669 40.340156
-27.379499 73.904511 37.695619
-27.886662 72.801567 37.787408
-27.45802 72.144509 39.049736
-27.313152 75.544697 36.352108
-27.379499 73.904511 37.695619
-27.24195 77.201465 34.930718
-27.736939 76.218338 35.011902
-27.313152 75.544697 36.352108
-27.139325 78.92125 33.425911
-27.24195 77.201465 34.930718
-27.065606 80.533959 31.897566
-27.592018 79.487816 32.062166
-27.139325 78.92125 33.425911
-26.945033 82.130661 30.371496
-27.065606 80.533959 31.897566
-31.097337 57.736105 32.282497
-31.024638 57.364487 33.564685
-31.066234 59.447054 31.393822
-31.167351 58.076595 31.009185
-31.097337 57.736105 32.282497
-28.712692 92.584034 7.355691
-29.087848 91.354931 7.498912
-28.816949 91.553093 9.007143
-26.52833 93.962639 14.311375
-26.69661 92.815072 16.006311
-26.14689 93.748139 15.728965
-26.942729 94.154454 12.741293
-26.52833 93.962639 14.311375
-27.297246 94.177765 11.326731
-27.432568 93.052884 13.174159
-26.942729 94.154454 12.741293
-27.67757 94.093804 9.957525
-27.297246 94.177765 11.326731
-28.004924 93.946804 8.509688
-28.114439 92.929195 10.311758
-27.67757 94.093804 9.957525
-28.316947 93.779327 7.127402
-28.004924 93.946804 8.509688
-28.712692 92.584034 7.355691
-28.316947 93.779327 7.127402
-31.638049 61.849451 22.675519
-31.72514 61.934034 21.88877
-31.718474 60.829315 22.772653
-30.206894 61.752972 38.541603
-30.050893 61.21558 39.884113
-30.157708 63.692692 37.445408
-30.347176 62.368195 37.192642
-30.206894 61.752972 38.541603
-29.757336 64.547367 38.871249
-29.802766 62.588877 40.097938
-29.542676 64.058775 40.174818
-28.390435 69.915371 39.073692
-28.498581 67.989971 40.350386
-28.073329 69.116165 40.418219
-26.792935 83.752544 28.798564
-27.3662 82.722409 28.960889
-26.945033 82.130661 30.371496
-26.647883 85.328297 27.158054
-26.792935 83.752544 28.798564
-26.51786 86.708107 25.64537
-27.084078 85.724102 25.875274
-26.647883 85.328297 27.158054
-26.358891 88.13319 24.013321
-26.51786 86.708107 25.64537
-26.218467 89.566872 22.263435
-26.813631 88.537593 22.612705
-26.358891 88.13319 24.013321
-26.044087 90.808086 20.726638
-26.218467 89.566872 22.263435
-25.865068 92.122734 19.007179
-26.494189 91.285923 19.143361
-26.044087 90.808086 20.726638
-25.700841 93.343525 17.294834
-25.865068 92.122734 19.007179
-31.617602 56.354904 27.011193
-31.526035 56.034453 28.100127
-31.699494 56.665085 25.963679
-31.617602 56.354904 27.011193
-31.58131 57.920876 26.205008
-31.797556 57.087564 24.900804
-31.699494 56.665085 25.963679
-31.765304 58.462704 24.156467
-31.797556 57.087564 24.900804
-31.749395 59.719541 23.35742
-31.765304 58.462704 24.156467
-31.647293 59.487894 24.358448
-31.718474 60.829315 22.772653
-31.749395 59.719541 23.35742
-31.781884 62.608452 21.003782
-31.72514 61.934034 21.88877
-31.781884 62.608452 21.003782
-31.686712 63.90102 20.750739
-31.624947 66.394108 19.376588
-31.590528 65.275039 20.596696
-31.486765 66.821278 20.263443
-31.624947 66.394108 19.376588
-31.675339 67.499813 18.134934
-31.850902 70.458313 14.129106
-31.793405 69.488354 15.520815
-31.653057 71.100216 15.105932
-32.064317 69.869393 13.096312
-31.850902 70.458313 14.129106
-31.923969 71.481255 12.681429
-32.293966 69.109791 12.255356
-32.064317 69.869393 13.096312
-32.404455 69.939686 10.819909
-32.293966 69.109791 12.255356
-32.511164 70.683781 9.336227
-32.404455 69.939686 10.819909
-32.244091 71.636429 10.164953
-32.636824 71.461559 7.762783
-32.511164 70.683781 9.336227
-32.414307 73.300247 7.172364
-32.155068 74.112419 8.196293
-32.218576 75.032143 6.687386
-32.636824 71.461559 7.762783
-32.414307 73.300247 7.172364
-29.612614 90.493298 4.823088
-29.32988 90.973232 6.207633
-29.922662 89.024662 5.28528
-29.612614 90.493298 4.823088
-29.859107 89.957367 3.540564
-30.412768 87.864452 2.74686
-30.128473 89.370739 2.200952
-30.417632 87.075848 4.395492
-30.412768 87.864452 2.74686
-30.661244 86.451569 3.139597
-31.696655 81.611752 1.612876
-31.418764 82.527145 2.743978
-31.46969 83.219936 1.056029
-31.918001 79.99427 2.27681
-31.696655 81.611752 1.612876
-31.968926 80.687061 0.588862
-32.132446 78.301079 2.886678
-31.860174 79.225769 3.910693
-31.918001 79.99427 2.27681
-32.410129 77.408631 1.862181
-32.352303 76.64013 3.496063
-32.132446 78.301079 2.886678
3 0 32 30
3 1 35 33
3 2 38 36
3 4 41 39
3 4 43 41
3 117 45 118
3 5 48 46
3 5 50 48
3 5 52 50
3 2 119 121
3 119 53 120
3 119 120 121
3 2 36 53
3 3 57 55
3 6 60 58
3 6 62 60
3 122 65 123
3 124 123 63
3 122 123 124
3 125 68 126
3 127 126 66
3 125 126 127
3 8 128 130
3 128 69 129
3 128 129 130
3 8 70 69
3 131 66 132
3 10 74 72
3 12 75 31
3 12 76 75
3 13 79 77
3 15 80 34
3 15 81 80
3 16 84 82
3 18 85 37
3 18 86 85
3 7 87 67
3 19 88 40
3 19 89 88
3 19 90 89
3 20 91 42
3 20 92 91
3 133 93 134
3 21 94 44
3 21 95 94
3 9 96 71
3 22 97 47
3 22 98 97
3 22 99 98
3 23 100 49
3 23 101 100
3 23 102 101
3 24 103 51
3 24 104 103
3 16 105 54
3 16 82 105
3 17 135 137
3 137 136 83
3 135 136 137
3 25 138 140
3 140 139 56
3 138 139 140
3 25 141 142
3 11 106 73
3 26 107 59
3 26 108 107
3 26 109 108
3 27 143 145
3 145 144 61
3 143 144 145
3 27 146 147
3 14 110 78
3 28 111 64
3 28 112 111
3 148 113 149
3 29 150 152
3 150 114 151
3 150 151 152
3 29 115 114
3 29 116 115
3 153 8 154
3 30 31 10
3 32 31 30
3 32 12 31
3 33 34 13
3 35 34 33
3 35 15 34
3 36 37 16
3 38 37 36
3 38 18 37
3 39 40 7
3 41 40 39
3 41 19 40
3 41 42 19
3 43 42 41
3 43 20 42
3 155 44 156
3 45 157 159
3 157 44 158
3 157 158 159
3 45 21 44
3 46 47 9
3 48 47 46
3 48 22 47
3 48 49 22
3 50 49 48
3 50 23 49
3 50 51 23
3 52 51 50
3 52 24 51
3 53 160 161
3 53 162 163
3 53 164 166
3 164 54 165
3 164 165 166
3 36 54 53
3 36 16 54
3 55 56 17
3 57 56 55
3 57 25 56
3 58 59 11
3 60 59 58
3 60 26 59
3 60 61 26
3 62 61 60
3 62 27 61
3 63 64 14
3 65 64 63
3 65 28 64
3 167 29 168
3 170 169 29
3 172 171 1
3 66 67 2
3 68 67 66
3 68 7 67
3 173 68 174
3 69 175 177
3 175 68 176
3 175 176 177
3 69 7 68
3 69 39 7
3 70 39 69
3 70 4 39
3 178 71 179
3 180 71 181
3 182 9 183
3 184 183 71
3 182 183 184
3 185 9 186
3 187 46 188
3 189 188 9
3 187 188 189
3 190 46 191
3 192 5 193
3 194 193 46
3 192 193 194
3 196 195 5
3 66 197 198
3 66 199 201
3 199 2 200
3 199 200 201
3 72 73 3
3 74 73 72
3 74 11 73
3 31 74 10
3 75 74 31
3 75 11 74
3 75 58 11
3 76 58 75
3 76 6 58
3 77 78 0
3 79 78 77
3 79 14 78
3 34 79 13
3 80 79 34
3 80 14 79
3 80 63 14
3 81 63 80
3 81 202 204
3 204 203 63
3 202 203 204
3 205 35 206
3 207 206 1
3 205 206 207
3 208 35 209
3 210 15 211
3 212 211 35
3 210 211 212
3 213 15 214
3 215 81 216
3 217 216 15
3 215 216 217
3 218 81 219
3 221 220 81
3 82 222 224
3 222 83 223
3 222 223 224
3 84 83 82
3 84 17 83
3 37 84 16
3 85 84 37
3 85 17 84
3 85 55 17
3 86 55 85
3 86 3 55
3 67 38 2
3 87 38 67
3 87 18 38
3 40 87 7
3 88 87 40
3 88 18 87
3 88 86 18
3 89 86 88
3 89 3 86
3 89 72 3
3 90 72 89
3 90 10 72
3 42 90 19
3 91 90 42
3 91 10 90
3 91 30 10
3 92 30 91
3 92 0 30
3 93 225 226
3 93 227 229
3 227 8 228
3 227 228 229
3 44 230 232
3 230 93 231
3 230 231 232
3 94 93 44
3 94 8 93
3 94 70 8
3 95 70 94
3 95 4 70
3 71 233 235
3 233 45 234
3 233 234 235
3 96 45 71
3 96 21 45
3 47 96 9
3 97 96 47
3 97 21 96
3 97 95 21
3 98 95 97
3 98 4 95
3 98 43 4
3 99 43 98
3 99 20 43
3 49 99 22
3 100 99 49
3 100 20 99
3 100 92 20
3 101 92 100
3 101 0 92
3 101 77 0
3 102 77 101
3 102 13 77
3 51 102 23
3 103 102 51
3 103 13 102
3 103 33 13
3 104 33 103
3 104 1 33
3 236 52 237
3 238 237 5
3 236 237 238
3 239 52 240
3 241 24 242
3 243 242 52
3 241 242 243
3 244 24 245
3 246 104 247
3 248 247 24
3 246 247 248
3 249 104 250
3 251 1 252
3 253 252 104
3 251 252 253
3 255 254 1
3 54 256 257
3 105 258 260
3 260 259 54
3 258 259 260
3 105 261 262
3 105 263 264
3 82 265 267
3 267 266 105
3 265 266 267
3 82 268 269
3 83 270 271
3 273 272 83
3 56 274 276
3 276 275 17
3 274 275 276
3 278 277 56
3 73 57 3
3 106 57 73
3 106 25 57
3 59 106 11
3 107 106 59
3 107 25 106
3 107 279 281
3 281 280 25
3 279 280 281
3 108 282 284
3 284 283 107
3 282 283 284
3 108 285 286
3 108 287 288
3 109 289 291
3 291 290 108
3 289 290 291
3 109 292 293
3 61 109 26
3 294 109 295
3 296 295 61
3 294 295 296
3 298 297 109
3 78 32 0
3 110 32 78
3 110 12 32
3 64 110 14
3 111 110 64
3 111 12 110
3 111 76 12
3 112 76 111
3 112 6 76
3 299 65 300
3 113 301 303
3 301 65 302
3 301 302 303
3 113 28 65
3 304 113 305
3 114 306 308
3 306 113 307
3 306 307 308
3 114 28 113
3 114 112 28
3 115 112 114
3 115 6 112
3 115 62 6
3 116 62 115
3 116 27 62
3 309 116 310
3 311 310 29
3 309 310 311
3 312 116 313
3 312 313 314
3 315 27 316
3 317 316 116
3 315 316 317
3 320 319 27
3 318 319 320
