ply
format ascii 1.0
element vertex 215
property float x
property float y
property float z
element face 192
property list uchar int vertex_index
end_header
-10.017678 46.865871 -36.082592
-11.489249 44.129005 -28.53546
-8.984982 51.662094 -36.743618
-8.93571 47.995613 -39.415958
-12.452987 47.555382 -22.91923
-12.071302 42.363285 -24.894495
-11.580011 49.105259 -26.374393
-10.789449 50.360813 -29.872423
-11.38198 55.44355 -28.254183
-13.420305 45.363052 -19.803753
-10.87678 45.556858 -32.174492
-9.941852 51.027637 -33.450451
-11.985545 48.271912 -24.674063
-11.9248 51.694824 -25.55138
-11.474218 52.196907 -27.179245
-10.702951 44.231075 -35.751167
-10.256232 44.763855 -37.676701
-11.7729 43.236679 -26.778606
-11.991109 40.859646 -28.036385
-11.729009 41.802876 -30.012817
-11.444731 42.641838 -31.962002
-11.181571 44.964134 -30.371693
-10.539385 53.083946 -30.709732
-10.361786 50.750168 -31.731165
-9.453408 49.429028 -36.335682
-9.540197 47.329403 -37.79604
-8.913242 49.895042 -38.0014
-12.510109 43.87429 -22.249516
-12.387616 41.246075 -23.143606
-12.146056 44.878746 -23.823683
-11.784695 45.678055 -25.576559
-11.446898 46.704472 -27.250359
-11.111233 47.228924 -29.075972
-11.18947 49.643135 -28.10586
-11.029347 52.671524 -28.855457
-9.621359 45.615093 -39.436447
-9.749341 43.958996 -41.310238
-13.390189 41.711315 -19.158764
-12.927786 43.048447 -20.683096
-12.904797 46.531006 -21.36405
-12.456399 38.970131 -24.406326
-11.092814 43.566322 -33.79401
-10.468621 46.25811 -34.202938
-10.73413 47.95631 -30.97842
-10.359898 48.356289 -32.8629
-9.925537 48.920334 -34.65696
-9.472488 51.556232 -35.077194
-12.174961 52.908343 -25.212513
-12.16864 51.277341 -24.701705
-11.91243 53.302721 -26.061118
-12.174961 52.908343 -25.212513
-10.300726 53.256723 -31.581714
-10.424438 54.438581 -31.187128
-11.109937 55.568157 -29.122771
-10.93362 54.182144 -29.423409
-11.205663 54.057537 -28.55482
-9.369736 44.258549 -42.161473
-9.342992 45.117742 -41.22163
-9.852483 43.156544 -42.291191
-9.369736 44.258549 -42.161473
-13.405247 43.537183 -19.481259
-13.669069 43.054678 -18.812793
-13.684128 44.880547 -19.135288
-8.7209 51.916635 -37.465908
-8.79402 52.757875 -36.932017
-12.199013 49.565886 -24.263047
-12.219266 47.913647 -23.796647
-12.432734 49.207621 -23.38563
-11.955172 49.983368 -25.112721
-12.199013 49.565886 -24.263047
-12.16864 51.277341 -24.701705
-11.68714 53.553763 -26.875051
-11.699509 51.945865 -26.365313
-11.91243 53.302721 -26.061118
-11.64102 55.177084 -27.41252
-11.428099 53.820228 -27.716714
-11.68714 53.553763 -26.875051
-10.879586 43.267461 -36.635511
-11.095283 42.88693 -35.624659
-10.656227 43.533851 -37.598278
-10.879586 43.267461 -36.635511
-10.479592 44.497465 -36.713934
-10.347787 43.986965 -38.575829
-10.656227 43.533851 -37.598278
-8.936176 47.136051 -40.27449
-8.565646 48.282644 -40.299698
-13.731825 46.810719 -19.569957
-13.684128 44.880547 -19.135288
-13.429962 47.172077 -20.272732
-13.731825 46.810719 -19.569957
-12.00781 41.513947 -26.490756
-12.157011 41.077249 -25.5487
-11.922101 42.799982 -25.836551
-12.116915 40.32543 -27.119645
-12.00781 41.513947 -26.490756
-11.882005 42.048163 -27.407495
-12.294593 39.254131 -27.849379
-12.116915 40.32543 -27.119645
-12.187337 39.784349 -28.831705
-12.294593 39.254131 -27.849379
-12.056286 40.255964 -29.81992
-12.187337 39.784349 -28.831705
-11.860059 41.331261 -29.024601
-11.944761 40.717802 -30.847222
-12.056286 40.255964 -29.81992
-11.58687 42.222357 -30.987409
-11.802623 41.137283 -31.821814
-11.944761 40.717802 -30.847222
-10.211927 52.089835 -32.092431
-10.450585 51.917057 -31.220448
-10.300726 53.256723 -31.581714
-10.00196 52.228569 -32.952074
-10.151819 50.888903 -32.590808
-10.211927 52.089835 -32.092431
-9.770692 52.340183 -33.741774
-10.00196 52.228569 -32.952074
-8.68503 51.033109 -38.094799
-8.949112 50.778568 -37.372509
-8.7209 51.916635 -37.465908
-8.626948 50.09586 -38.777645
-8.68503 51.033109 -38.094799
-8.638182 49.146145 -39.484924
-8.924476 48.945327 -38.708679
-8.626948 50.09586 -38.777645
-8.565646 48.282644 -40.299698
-8.638182 49.146145 -39.484924
-12.448863 42.560182 -22.696561
-12.546212 40.842451 -22.340424
-12.607458 42.156559 -21.89338
-10.68864 54.388355 -30.350546
-10.784366 52.877735 -29.782595
-10.93362 54.182144 -29.423409
-10.424438 54.438581 -31.187128
-10.68864 54.388355 -30.350546
-10.030351 44.412584 -39.455702
-10.347787 43.986965 -38.575829
-9.938796 45.189474 -38.556574
-9.279001 45.945791 -40.284734
-9.278534 46.805353 -39.426203
-8.936176 47.136051 -40.27449
-9.68535 44.787045 -40.373342
-9.279001 45.945791 -40.284734
-9.342992 45.117742 -41.22163
-10.094342 43.584536 -40.392598
-10.030351 44.412584 -39.455702
-9.68535 44.787045 -40.373342
-10.235178 42.803715 -41.373562
-10.580179 42.429254 -40.455922
-10.094342 43.584536 -40.392598
-10.235178 42.803715 -41.373562
-9.852483 43.156544 -42.291191
-13.658068 41.152977 -18.436898
-13.669069 43.054678 -18.812793
-13.435719 39.950463 -18.855589
-13.658068 41.152977 -18.436898
-13.224581 40.494724 -19.604881
-13.435719 39.950463 -18.855589
-12.993379 41.16329 -20.367047
-13.224581 40.494724 -19.604881
-13.158987 42.379881 -19.92093
-12.816296 41.743638 -21.110169
-12.993379 41.16329 -20.367047
-12.718947 43.461369 -21.466306
-12.607458 42.156559 -21.89338
-12.816296 41.743638 -21.110169
-13.172208 47.756054 -21.052881
-13.162551 45.947029 -20.583901
-13.429962 47.172077 -20.272732
-12.923578 48.421287 -21.826331
-13.172208 47.756054 -21.052881
-12.697672 48.933476 -22.603921
-12.678892 47.043194 -22.14164
-12.923578 48.421287 -21.826331
-12.432734 49.207621 -23.38563
-12.697672 48.933476 -22.603921
-11.644391 56.705501 -27.954312
-11.64102 55.177084 -27.41252
-11.356204 56.940136 -28.792217
-11.644391 56.705501 -27.954312
-11.109937 55.568157 -29.122771
-11.356204 56.940136 -28.792217
-12.554752 39.546015 -22.878331
-12.546212 40.842451 -22.340424
-12.589144 38.408043 -23.509691
-12.554752 39.546015 -22.878331
-12.422007 40.108103 -23.774966
-12.72177 37.188511 -24.15556
-12.589144 38.408043 -23.509691
-12.34956 39.380673 -25.304616
-12.263851 40.666708 -24.65041
-12.157011 41.077249 -25.5487
-12.618322 37.79956 -25.141642
-12.34956 39.380673 -25.304616
-12.72177 37.188511 -24.15556
-12.618322 37.79956 -25.141642
-11.651133 41.63023 -32.76539
-11.802623 41.137283 -31.821814
-11.475175 42.092472 -33.681394
-11.651133 41.63023 -32.76539
-11.268773 43.10408 -32.878006
-11.290215 42.554554 -34.64608
-11.475175 42.092472 -33.681394
-10.897883 43.898698 -34.772588
-11.095283 42.88693 -35.624659
-11.290215 42.554554 -34.64608
-9.53601 52.604481 -34.555145
-9.70717 51.291934 -34.263823
-9.770692 52.340183 -33.741774
-9.27573 52.665087 -35.388645
-9.53601 52.604481 -34.555145
-9.031977 52.718018 -36.221857
-9.228735 51.609163 -35.910406
-9.27573 52.665087 -35.388645
-8.79402 52.757875 -36.932017
-9.031977 52.718018 -36.221857
3 47 13 48
3 50 49 13
3 0 16 15
3 1 18 17
3 1 19 18
3 1 21 19
3 52 51 22
3 2 26 24
3 4 29 27
3 6 30 12
3 6 31 30
3 6 33 31
3 8 34 14
3 8 53 55
3 55 54 34
3 53 54 55
3 3 35 25
3 56 36 57
3 59 58 36
3 9 60 62
3 60 37 61
3 60 61 62
3 9 38 37
3 9 39 38
3 5 40 28
3 10 41 20
3 10 42 41
3 7 43 32
3 11 44 23
3 11 45 44
3 11 46 45
3 64 63 2
3 65 12 66
3 67 66 4
3 65 66 67
3 13 68 70
3 68 12 69
3 68 69 70
3 13 6 12
3 13 14 6
3 71 14 72
3 73 72 13
3 71 72 73
3 74 8 75
3 76 75 14
3 74 75 76
3 15 77 78
3 16 79 81
3 81 80 15
3 79 80 81
3 16 82 83
3 85 84 3
3 86 9 87
3 89 88 9
3 17 90 92
3 92 91 5
3 90 91 92
3 18 93 95
3 95 94 17
3 93 94 95
3 18 96 97
3 18 98 99
3 19 100 102
3 102 101 18
3 100 101 102
3 19 103 104
3 19 105 107
3 105 20 106
3 105 106 107
3 21 20 19
3 21 10 20
3 22 23 7
3 108 23 109
3 110 109 22
3 108 109 110
3 111 11 112
3 113 112 23
3 111 112 113
3 115 114 11
3 24 25 0
3 26 25 24
3 26 3 25
3 116 26 117
3 118 117 2
3 116 117 118
3 119 26 120
3 121 3 122
3 123 122 26
3 121 122 123
3 125 124 3
3 27 126 128
3 126 28 127
3 126 127 128
3 29 28 27
3 29 5 28
3 12 29 4
3 30 29 12
3 30 5 29
3 30 17 5
3 31 17 30
3 31 1 17
3 31 32 1
3 33 32 31
3 33 7 32
3 14 33 6
3 34 33 14
3 34 7 33
3 34 22 7
3 129 22 130
3 131 130 34
3 129 130 131
3 133 132 22
3 25 16 0
3 35 16 25
3 35 134 136
3 136 135 16
3 134 135 136
3 137 35 138
3 139 138 3
3 137 138 139
3 36 140 142
3 140 35 141
3 140 141 142
3 36 143 145
3 145 144 35
3 143 144 145
3 36 146 148
3 146 147 148
3 150 149 36
3 37 151 152
3 37 153 154
3 37 155 156
3 38 157 159
3 159 158 37
3 157 158 159
3 38 160 161
3 38 162 164
3 162 27 163
3 162 163 164
3 39 27 38
3 39 4 27
3 165 39 166
3 167 166 9
3 165 166 167
3 168 39 169
3 170 4 171
3 172 171 39
3 170 171 172
3 174 173 4
3 175 8 176
3 177 8 178
3 180 179 8
3 28 181 182
3 40 183 185
3 185 184 28
3 183 184 185
3 40 186 187
3 188 40 189
3 190 189 5
3 188 189 190
3 191 40 192
3 194 193 40
3 20 195 196
3 41 197 199
3 199 198 20
3 197 198 199
3 41 200 201
3 41 202 204
3 202 15 203
3 202 203 204
3 42 15 41
3 42 0 15
3 32 21 1
3 43 21 32
3 43 10 21
3 23 43 7
3 44 43 23
3 44 10 43
3 44 42 10
3 45 42 44
3 45 0 42
3 45 24 0
3 46 24 45
3 46 2 24
3 205 46 206
3 207 206 11
3 205 206 207
3 208 46 209
3 210 2 211
3 212 211 46
3 210 211 212
3 214 213 2
