ply
format ascii 1.0
element vertex 425
property float x
property float y
property float z
element face 474
property list uchar int vertex_index
end_header
-16.595654 83.526215 -49.506371
-6.765751 57.933113 -51.214153
2.927184 78.868828 -42.734539
-6.702529 82.978737 -47.172256
-0.069029 90.939568 -40.453804
0.875525 56.505856 -48.405788
-14.560674 57.515198 -52.515133
-11.762963 71.395676 -51.023964
-2.588588 69.591805 -47.832043
4.265379 55.067822 -46.316799
2.547865 50.815121 -49.416855
-18.638378 76.660782 -51.205383
-15.996691 70.912514 -51.843071
-14.241638 77.431602 -50.645477
-1.573732 81.100571 -45.181126
-4.536226 76.291481 -47.717735
-0.035233 74.596062 -45.54747
1.459051 67.766273 -45.625999
-19.110708 88.902191 -47.415741
-10.802977 58.12912 -52.037537
-11.826715 51.072067 -52.550327
-8.055686 51.529736 -52.235268
-14.247037 89.571785 -46.991291
-11.767893 83.697906 -48.662773
-8.854021 89.14267 -45.823246
-3.438832 87.516159 -44.149368
1.554945 85.231987 -42.016834
-16.452955 94.610764 -44.293018
-2.77343 57.507832 -49.964939
-4.419386 51.644806 -51.651707
-0.663879 51.397968 -50.684605
-17.41732 63.821037 -52.496895
-13.417173 64.719086 -52.013199
-9.249566 64.486679 -51.137939
-9.468635 77.632179 -49.4104
-7.233221 70.844696 -49.713158
-4.837725 63.73138 -49.765312
-0.89635 62.946926 -47.997246
-5.509336 45.429459 -52.966743
-17.703928 80.101288 -50.471878
-16.419544 77.287651 -50.970776
-15.440136 80.587608 -50.176067
0.714144 80.020401 -44.038616
-0.802972 77.830536 -45.443863
1.487339 76.815414 -44.156261
2.172731 73.369881 -44.231239
-17.890198 86.257317 -48.620796
-20.09494 85.710426 -48.649761
-18.944002 82.881767 -49.726387
-19.79674 79.563545 -50.563419
-8.854052 57.915665 -51.70216
-9.372482 54.745644 -52.085327
-7.464293 54.656776 -51.781967
-12.603254 92.252396 -45.335529
-11.595066 89.381859 -46.545349
-9.880106 91.858109 -44.834846
-2.876049 92.14872 -41.51115
-4.553672 90.471786 -43.365757
-1.862305 89.58345 -42.343525
-1.012326 86.521942 -43.194019
0.56773 88.185745 -41.481819
-15.225194 92.284286 -45.708687
-0.850833 56.864525 -49.247398
-1.838057 54.337364 -50.298935
-0.002713 53.951817 -49.62112
1.98478 48.49073 -50.779663
-13.913664 71.373062 -51.481392
-14.792461 67.752106 -51.988842
-12.589473 67.984802 -51.583038
-11.233508 64.362076 -51.627773
-10.473772 67.957306 -51.093121
-9.198647 83.295815 -48.014793
-10.562094 80.665657 -49.114197
-8.026448 80.185326 -48.384502
-3.669834 73.042976 -47.846539
-6.022081 73.567802 -48.835117
-4.952454 70.354095 -48.856533
-6.001964 67.312637 -49.726002
-3.85927 66.930542 -48.866806
-2.902917 63.516415 -48.951756
-1.675629 66.032867 -47.906422
2.261515 64.489944 -45.584328
-21.256119 72.265289 -51.724701
-3.271542 48.723854 -52.092716
-5.020429 48.700668 -52.323765
-3.848085 45.791393 -52.873352
2.617516 55.982441 -47.386379
1.7049 53.487949 -48.858639
3.355834 53.122074 -47.871307
-19.454309 73.165588 -51.749004
-18.007521 70.331665 -52.066078
-17.39435 73.825668 -51.613766
-15.109642 74.331345 -51.293175
-12.894659 74.575089 -50.851902
-4.056903 82.121529 -46.228901
-5.575337 79.728851 -47.501678
-3.138084 78.964203 -46.509724
-2.277843 75.542801 -46.706951
-1.370771 72.234001 -46.742443
-0.511213 68.755745 -46.783844
0.777063 71.206596 -45.557487
2.792701 70.03476 -44.256187
-20.265886 91.250801 -45.978428
-20.797884 76.183769 -51.175865
-12.703854 58.076931 -52.308228
-13.120691 54.46204 -52.497578
-11.283476 54.665516 -52.32531
-9.949242 51.505085 -52.413765
-8.644605 48.232346 -52.62648
-15.497743 86.701103 -48.348122
-14.216624 83.63652 -49.19973
-12.940061 86.681808 -47.95298
-10.208656 86.449806 -47.337894
-7.62882 86.061577 -46.584908
-7.176699 91.272682 -44.152035
-6.125373 88.320877 -45.102158
-5.116493 85.204361 -45.817356
-2.553651 84.332214 -44.827305
0.011444 83.368294 -43.630444
2.332106 82.034286 -42.446957
-17.876764 91.734528 -46.05962
-16.618853 89.411392 -47.282467
-4.744949 57.6731 -50.659588
-5.581295 54.71954 -51.36887
-3.641996 54.516178 -50.873699
-2.55652 51.512772 -51.238144
-1.411326 48.80175 -51.725319
0.962275 51.032234 -50.157211
0.283063 48.538754 -51.37915
-15.93224 60.771633 -52.522594
-16.816013 67.202805 -52.257717
-15.50826 64.194756 -52.328018
-14.092633 61.208294 -52.322781
-12.106563 61.350842 -52.031597
-10.08689 61.230938 -51.656273
-7.971127 61.218315 -51.144226
-13.016424 80.621109 -49.753033
-11.855907 77.53775 -50.11554
-10.538908 74.371239 -50.290375
-6.935414 76.915146 -48.638054
-8.288783 74.223595 -49.602375
-9.409351 71.038704 -50.423927
-8.212267 67.651649 -50.467121
-7.001198 64.352554 -50.476158
-5.831938 60.820461 -50.5476
-3.739344 60.518024 -49.819103
-1.803137 60.214417 -48.999966
0.073874 59.767139 -48.069016
0.347067 65.481926 -46.778484
1.025079 62.423561 -46.893536
1.821054 58.957714 -47.12318
1.438593 92.442902 -38.344898
2.400241 89.655861 -39.389313
3.11901 86.818909 -40.248634
3.966633 83.85537 -40.696625
-6.137774 51.605961 -51.96748
-6.773894 48.332733 -52.530323
3.281947 77.242847 -42.746507
2.562024 76.21614 -43.457369
2.207261 77.842121 -43.4454
-10.525201 93.214505 -44.199894
-11.24168 92.055252 -45.085188
-11.886775 93.411648 -44.450235
-11.886775 93.411648 -44.450235
-13.25425 93.553799 -44.636105
-21.524008 70.346939 -51.888012
-20.634341 70.859996 -51.934382
-14.8107 55.920996 -52.560209
-15.512198 57.507246 -52.572346
-3.026858 45.90826 -52.797373
-3.559814 47.257624 -52.483034
-2.738587 47.374491 -52.407055
3.4546 71.147915 -43.551327
2.482716 71.702321 -44.243713
3.144615 72.815476 -43.538853
3.702463 69.484337 -43.554483
3.4546 71.147915 -43.551327
-20.272962 88.518616 -47.366962
-20.850552 89.69292 -46.648306
-19.688297 90.076496 -46.697085
-21.168785 85.260166 -48.58303
-20.553877 84.006385 -49.161716
-6.393975 92.211712 -43.253805
-7.782559 92.703549 -43.544583
-17.102047 95.652359 -43.460831
-15.736168 95.871193 -43.296812
-17.684497 94.366051 -44.361033
-17.102047 95.652359 -43.460831
-17.164859 93.172646 -45.176319
-18.396402 92.927933 -45.244333
-17.684497 94.366051 -44.361033
0.740468 47.344477 -51.771853
1.133922 48.514742 -51.079407
1.591327 47.320465 -51.472109
-0.108197 47.336327 -51.940815
0.740468 47.344477 -51.771853
-17.60201 62.122558 -52.562291
-18.311053 63.671083 -52.522331
-16.67478 62.296335 -52.509744
-16.859469 60.597856 -52.57514
-17.60201 62.122558 -52.562291
1.928005 61.864929 -46.333061
1.643297 63.456752 -46.238932
2.546222 62.89812 -45.678458
2.325992 60.132006 -46.447884
1.423067 60.690638 -47.008358
1.928005 61.864929 -46.333061
2.677009 58.598383 -46.534824
2.325992 60.132006 -46.447884
2.297617 92.863877 -37.249466
0.918284 93.69529 -37.729709
3.671635 88.844288 -38.776798
3.189665 90.206856 -38.384089
4.03102 87.425812 -39.206459
2.759625 88.237385 -39.818973
3.671635 88.844288 -38.776798
5.036373 82.993046 -40.045388
4.739433 84.52686 -39.816101
4.179164 82.326874 -40.939943
5.036373 82.993046 -40.045388
-12.713317 51.122886 -52.575204
-13.360305 52.817873 -52.54883
-12.473703 52.767054 -52.523953
-6.390524 45.23258 -52.978809
-7.022803 46.684218 -52.760599
-6.141615 46.881096 -52.748533
4.633223 53.728341 -46.530597
4.986648 54.793669 -45.657904
2.90472 74.493374 -43.494858
1.830035 75.092647 -44.19375
2.562024 76.21614 -43.457369
3.144615 72.815476 -43.538853
2.90472 74.493374 -43.494858
-19.978408 82.592056 -49.700029
-20.553877 84.006385 -49.161716
-19.519471 84.296097 -49.188074
-19.370371 81.222656 -50.144903
-20.404777 80.932945 -50.118546
-19.978408 82.592056 -49.700029
-3.71486 91.310253 -42.438454
-5.082461 91.811264 -42.860667
-4.24365 92.649731 -41.933363
-15.1791 94.732983 -44.114849
-15.736168 95.871193 -43.296812
-14.56522 93.569744 -44.822683
-15.839074 93.447525 -45.000853
-15.1791 94.732983 -44.114849
-13.914224 92.268341 -45.522108
-14.56522 93.569744 -44.822683
-13.25425 93.553799 -44.636105
2.768471 48.441913 -50.403825
2.266322 49.652925 -50.098259
3.050013 49.604109 -49.722421
2.431481 47.370604 -51.177159
2.768471 48.441913 -50.403825
3.215172 47.321787 -50.801321
2.038028 46.200339 -51.869605
1.591327 47.320465 -51.472109
2.431481 47.370604 -51.177159
-18.081854 65.386383 -52.431359
-18.311053 63.671083 -52.522331
2.769804 65.631325 -44.97143
1.860283 66.128108 -45.605164
2.368572 67.269489 -44.992266
3.133614 63.97639 -44.933515
2.769804 65.631325 -44.97143
2.546222 62.89812 -45.678458
3.133614 63.97639 -44.933515
-22.154303 71.596256 -51.629696
-21.963741 73.592941 -51.390229
-22.422191 69.677906 -51.793007
-22.154303 71.596256 -51.629696
-21.524008 70.346939 -51.888012
-11.953215 49.494591 -52.610016
-11.072243 49.570785 -52.611463
-3.423719 93.474587 -40.913509
-4.24365 92.649731 -41.933363
-2.028336 92.905586 -40.452421
-3.423719 93.474587 -40.913509
-0.624826 92.30101 -39.923748
-1.472539 91.544144 -40.982477
-2.028336 92.905586 -40.452421
4.17845 52.755466 -47.307851
3.810607 54.094948 -47.094053
4.633223 53.728341 -46.530597
3.768378 51.772175 -48.178855
4.17845 52.755466 -47.307851
4.590994 51.405567 -47.6154
3.364394 50.618698 -48.951629
2.951849 51.968598 -48.644081
3.768378 51.772175 -48.178855
3.050013 49.604109 -49.722421
3.364394 50.618698 -48.951629
-18.730915 71.748627 -51.907541
-19.010041 69.893185 -52.10507
-19.733435 71.310146 -51.946533
3.035397 68.403733 -44.307359
2.368572 67.269489 -44.992266
2.125876 68.900517 -44.941093
3.035397 68.403733 -44.307359
3.702463 69.484337 -43.554483
-21.348158 90.768074 -45.896735
-20.799344 92.356556 -45.099671
-21.348158 90.768074 -45.896735
-20.850552 89.69292 -46.648306
-20.765079 86.922733 -47.983973
-20.272962 88.518616 -47.366962
-19.602824 87.306309 -48.032751
-20.765079 86.922733 -47.983973
-21.168785 85.260166 -48.58303
-20.863896 79.203838 -50.496025
-20.404777 80.932945 -50.118546
-21.364469 77.51395 -50.802248
-20.863896 79.203838 -50.496025
-20.297312 77.873657 -50.869642
-21.734623 75.552181 -51.115811
-21.364469 77.51395 -50.802248
-21.027002 74.224529 -51.450283
-21.963741 73.592941 -51.390229
-21.734623 75.552181 -51.115811
-19.733435 71.310146 -51.946533
-20.634341 70.859996 -51.934382
-20.355214 72.715439 -51.736852
-10.133506 49.787295 -52.543183
-11.072243 49.570785 -52.611463
-10.887978 51.288576 -52.482046
-9.481188 48.150925 -52.64954
-10.133506 49.787295 -52.543183
-9.296924 49.868716 -52.520122
-8.785351 46.490086 -52.78639
-9.481188 48.150925 -52.64954
-9.134263 92.996262 -43.885988
-10.525201 93.214505 -44.199894
-8.528403 91.565395 -44.49344
-9.134263 92.996262 -43.885988
-7.782559 92.703549 -43.544583
-5.865185 90.872234 -43.758896
-6.393975 92.211712 -43.253805
-5.082461 91.811264 -42.860667
-19.590963 92.68607 -45.203738
-20.799344 92.356556 -45.099671
-19.071325 91.492664 -46.019024
-19.590963 92.68607 -45.203738
-18.396402 92.927933 -45.244333
-1.808479 47.413438 -52.223356
-2.738587 47.374491 -52.407055
-2.341434 48.762802 -51.909018
-0.955391 47.467825 -52.1139
-0.564132 48.670252 -51.552234
-0.108197 47.336327 -51.940815
-1.808479 47.413438 -52.223356
-0.955391 47.467825 -52.1139
-16.197981 59.135464 -52.576076
-16.859469 60.597856 -52.57514
-15.246457 59.143416 -52.518863
-15.512198 57.507246 -52.572346
-16.197981 59.135464 -52.576076
-18.376954 68.641697 -52.21595
-19.010041 69.893185 -52.10507
-17.7812 67.077267 -52.311769
-18.376954 68.641697 -52.21595
-17.411767 68.767235 -52.161897
-17.116667 65.511921 -52.377306
-18.081854 65.386383 -52.431359
-17.7812 67.077267 -52.311769
3.07524 57.110747 -46.666424
2.219285 57.470078 -47.254779
2.677009 58.598383 -46.534824
3.899172 56.653437 -46.131634
3.441448 55.525132 -46.851589
3.07524 57.110747 -46.666424
4.641221 56.247546 -45.521097
3.899172 56.653437 -46.131634
4.986648 54.793669 -45.657904
4.641221 56.247546 -45.521097
0.128985 93.052678 -38.869295
0.918284 93.69529 -37.729709
0.684782 91.691235 -39.399351
-0.624826 92.30101 -39.923748
0.128985 93.052678 -38.869295
2.708842 91.600377 -37.861881
2.297617 92.863877 -37.249466
1.919417 91.049382 -38.867106
2.708842 91.600377 -37.861881
3.189665 90.206856 -38.384089
4.315621 86.008629 -39.592106
4.03102 87.425812 -39.206459
3.542821 85.33714 -40.472629
4.315621 86.008629 -39.592106
4.739433 84.52686 -39.816101
3.3619 81.416332 -41.815109
3.149369 82.944828 -41.571791
4.179164 82.326874 -40.939943
3.65944 79.833603 -41.9589
2.629645 80.451557 -42.590748
3.3619 81.416332 -41.815109
3.949204 78.273842 -42.028715
3.65944 79.833603 -41.9589
3.281947 77.242847 -42.746507
3.949204 78.273842 -42.028715
-14.090709 54.394417 -52.551432
-14.8107 55.920996 -52.560209
-13.840682 55.988619 -52.506355
-14.090709 54.394417 -52.551432
-13.360305 52.817873 -52.54883
-12.713317 51.122886 -52.575204
-11.953215 49.494591 -52.610016
-7.958158 46.634024 -52.808678
-7.70925 48.282539 -52.578401
-7.022803 46.684218 -52.760599
-8.785351 46.490086 -52.78639
-7.958158 46.634024 -52.808678
-3.257708 44.470396 -53.240746
-3.026858 45.90826 -52.797373
-2.436481 44.587263 -53.164766
-4.026841 44.237173 -53.237276
-3.257708 44.470396 -53.240746
-4.857466 44.056206 -53.283971
-4.678711 45.610426 -52.920047
-4.026841 44.237173 -53.237276
-5.66653 43.846178 -53.236408
-4.857466 44.056206 -53.283971
-6.547717 43.649299 -53.248474
-6.390524 45.23258 -52.978809
-5.66653 43.846178 -53.236408
3 0 41 39
3 2 44 42
3 2 157 159
3 159 158 44
3 157 158 159
3 0 48 46
3 0 39 48
3 1 52 50
3 160 55 161
3 162 161 53
3 160 161 162
3 4 58 56
3 4 60 58
3 163 53 164
3 5 64 62
3 7 68 66
3 7 70 68
3 3 73 71
3 8 76 74
3 8 78 76
3 8 80 78
3 166 165 82
3 6 167 168
3 169 85 170
3 171 170 83
3 169 170 171
3 9 88 86
3 11 91 89
3 13 92 40
3 13 93 92
3 14 96 94
3 16 97 43
3 16 98 97
3 16 100 98
3 172 101 173
3 174 173 45
3 172 173 174
3 176 175 101
3 18 177 179
3 179 178 102
3 177 178 179
3 181 180 47
3 11 103 49
3 11 89 103
3 19 106 104
3 21 107 51
3 21 108 107
3 22 111 109
3 24 112 54
3 24 113 112
3 182 114 183
3 25 115 57
3 25 116 115
3 25 117 116
3 26 118 59
3 26 119 118
3 27 184 185
3 27 186 187
3 27 188 190
3 188 120 189
3 188 189 190
3 22 121 61
3 22 109 121
3 28 124 122
3 30 125 63
3 30 126 125
3 10 127 87
3 191 128 192
3 193 192 65
3 191 192 193
3 195 194 128
3 31 196 197
3 31 198 200
3 198 129 199
3 198 199 200
3 12 130 90
3 32 131 67
3 32 132 131
3 32 133 132
3 33 134 69
3 33 135 134
3 23 136 110
3 34 137 72
3 34 138 137
3 15 139 95
3 35 140 75
3 35 141 140
3 35 142 141
3 36 143 77
3 36 144 143
3 36 145 144
3 37 146 79
3 37 147 146
3 17 148 99
3 201 149 202
3 203 202 81
3 201 202 203
3 204 150 205
3 206 205 149
3 204 205 206
3 208 207 150
3 209 151 210
3 211 152 212
3 213 153 214
3 215 214 152
3 213 214 215
3 216 154 217
3 219 218 154
3 20 220 222
3 222 221 105
3 220 221 222
3 29 155 123
3 38 156 84
3 38 223 225
3 225 224 156
3 223 224 225
3 227 226 9
3 39 40 11
3 41 40 39
3 41 13 40
3 42 43 14
3 44 43 42
3 44 16 43
3 44 45 16
3 228 45 229
3 230 229 44
3 228 229 230
3 232 231 45
3 46 47 18
3 48 47 46
3 48 233 235
3 235 234 47
3 233 234 235
3 48 236 238
3 236 49 237
3 236 237 238
3 39 49 48
3 39 11 49
3 50 51 19
3 52 51 50
3 52 21 51
3 53 54 22
3 55 54 53
3 55 24 54
3 56 239 241
3 239 57 240
3 239 240 241
3 58 57 56
3 58 25 57
3 58 59 25
3 60 59 58
3 60 26 59
3 242 27 243
3 244 61 245
3 246 245 27
3 244 245 246
3 53 247 249
3 247 61 248
3 247 248 249
3 53 22 61
3 62 63 28
3 64 63 62
3 64 30 63
3 250 65 251
3 252 251 10
3 250 251 252
3 253 65 254
3 253 254 255
3 258 257 65
3 256 257 258
3 259 31 260
3 66 67 12
3 68 67 66
3 68 32 67
3 68 69 32
3 70 69 68
3 70 33 69
3 71 72 23
3 73 72 71
3 73 34 72
3 74 75 15
3 76 75 74
3 76 35 75
3 76 77 35
3 78 77 76
3 78 36 77
3 78 79 36
3 80 79 78
3 80 37 79
3 261 81 262
3 263 262 17
3 261 262 263
3 264 81 265
3 267 266 81
3 82 268 269
3 272 271 82
3 270 271 272
3 274 273 20
3 83 84 29
3 85 84 83
3 85 38 84
3 275 56 276
3 277 56 278
3 279 4 280
3 281 280 56
3 279 280 281
3 86 87 5
3 88 87 86
3 88 10 87
3 282 88 283
3 284 283 9
3 282 283 284
3 285 88 286
3 285 286 287
3 288 10 289
3 290 289 88
3 288 289 290
3 292 291 10
3 89 293 295
3 293 90 294
3 293 294 295
3 91 90 89
3 91 12 90
3 40 91 11
3 92 91 40
3 92 12 91
3 92 66 12
3 93 66 92
3 93 7 66
3 94 95 3
3 96 95 94
3 96 15 95
3 43 96 14
3 97 96 43
3 97 15 96
3 97 74 15
3 98 74 97
3 98 8 74
3 98 99 8
3 100 99 98
3 100 17 99
3 45 100 16
3 101 100 45
3 101 17 100
3 101 296 298
3 298 297 17
3 296 297 298
3 300 299 101
3 102 301 302
3 304 303 102
3 47 305 307
3 307 306 18
3 305 306 307
3 309 308 47
3 49 310 311
3 103 312 314
3 314 313 49
3 312 313 314
3 103 315 316
3 103 317 319
3 317 82 318
3 317 318 319
3 89 82 103
3 89 320 322
3 322 321 82
3 320 321 322
3 104 105 6
3 106 105 104
3 106 20 105
3 51 106 19
3 107 106 51
3 107 20 106
3 107 323 325
3 325 324 20
3 323 324 325
3 108 326 328
3 328 327 107
3 326 327 328
3 108 329 330
3 109 110 0
3 111 110 109
3 111 23 110
3 54 111 22
3 112 111 54
3 112 23 111
3 112 71 23
3 113 71 112
3 113 3 71
3 331 55 332
3 114 333 335
3 333 55 334
3 333 334 335
3 114 24 55
3 57 336 338
3 336 114 337
3 336 337 338
3 115 114 57
3 115 24 114
3 115 113 24
3 116 113 115
3 116 3 113
3 116 94 3
3 117 94 116
3 117 14 94
3 59 117 25
3 118 117 59
3 118 14 117
3 118 42 14
3 119 42 118
3 119 2 42
3 339 102 340
3 120 341 343
3 341 102 342
3 341 342 343
3 120 18 102
3 61 120 27
3 121 120 61
3 121 18 120
3 121 46 18
3 109 46 121
3 109 0 46
3 122 123 1
3 124 123 122
3 124 29 123
3 63 124 28
3 125 124 63
3 125 29 124
3 125 83 29
3 126 83 125
3 126 344 346
3 346 345 83
3 344 345 346
3 87 64 5
3 127 64 87
3 127 30 64
3 65 127 10
3 128 127 65
3 128 30 127
3 128 126 30
3 347 126 348
3 349 348 128
3 347 348 349
3 351 350 126
3 129 352 353
3 129 354 356
3 354 6 355
3 354 355 356
3 90 357 358
3 130 359 361
3 361 360 90
3 359 360 361
3 130 362 364
3 362 31 363
3 362 363 364
3 67 130 12
3 131 130 67
3 131 31 130
3 131 129 31
3 132 129 131
3 132 6 129
3 132 104 6
3 133 104 132
3 133 19 104
3 69 133 32
3 134 133 69
3 134 19 133
3 134 50 19
3 135 50 134
3 135 1 50
3 110 41 0
3 136 41 110
3 136 13 41
3 72 136 23
3 137 136 72
3 137 13 136
3 137 93 13
3 138 93 137
3 138 7 93
3 95 73 3
3 139 73 95
3 139 34 73
3 75 139 15
3 140 139 75
3 140 34 139
3 140 138 34
3 141 138 140
3 141 7 138
3 141 70 7
3 142 70 141
3 142 33 70
3 77 142 35
3 143 142 77
3 143 33 142
3 143 135 33
3 144 135 143
3 144 1 135
3 144 122 1
3 145 122 144
3 145 28 122
3 79 145 36
3 146 145 79
3 146 28 145
3 146 62 28
3 147 62 146
3 147 5 62
3 99 80 8
3 148 80 99
3 148 37 80
3 81 148 17
3 149 148 81
3 149 37 148
3 149 147 37
3 150 147 149
3 150 5 147
3 150 86 5
3 365 86 366
3 367 366 150
3 365 366 367
3 368 9 369
3 370 369 86
3 368 369 370
3 371 9 372
3 374 373 9
3 151 375 376
3 151 377 379
3 377 4 378
3 377 378 379
3 380 151 381
3 152 382 384
3 382 151 383
3 382 383 384
3 152 4 151
3 152 60 4
3 153 60 152
3 153 26 60
3 385 153 386
3 154 387 389
3 387 153 388
3 387 388 389
3 154 26 153
3 154 119 26
3 390 119 391
3 392 391 154
3 390 391 392
3 393 2 394
3 395 394 119
3 393 394 395
3 396 2 397
3 399 398 2
3 105 400 402
3 402 401 6
3 400 401 402
3 404 403 105
3 406 405 20
3 123 52 1
3 155 52 123
3 155 21 52
3 84 155 29
3 156 155 84
3 156 21 155
3 156 108 21
3 407 108 408
3 409 408 156
3 407 408 409
3 411 410 108
3 412 85 413
3 412 413 414
3 415 85 416
3 417 38 418
3 419 418 85
3 417 418 419
3 420 38 421
3 424 423 38
3 422 423 424
