ply
format ascii 1.0
element vertex 218
property float x
property float y
property float z
element face 205
property list uchar int vertex_index
end_header
15.751755 8.327668 68.620911
21.644323 -1.933055 71.769615
13.982953 -2.896601 70.126259
15.028174 2.394298 69.561989
11.07889 1.465786 67.996078
20.649199 -7.584202 72.4786
22.699854 -12.544783 72.713852
7.045488 0.672947 66.055687
19.344622 9.728672 69.395401
22.207634 4.489697 70.679359
18.732954 3.292785 70.557571
17.997944 -2.46346 71.380989
16.879362 -7.535251 71.792435
9.519076 3.67914 66.719673
19.867859 -10.009491 72.6408
21.801165 -10.000766 72.684227
17.608143 9.039458 69.108253
19.127926 6.401266 70.047722
17.248848 5.873239 69.660851
14.607818 -0.347624 69.919891
16.621016 0.056258 70.566963
16.029633 -2.686808 70.844856
17.484495 -5.072274 71.643311
15.558297 -5.334354 71.093712
15.857113 11.428617 67.953186
21.951944 1.056237 71.289299
23.517439 1.627723 70.99469
23.305161 -1.462186 71.525894
13.807569 7.611693 67.963074
15.374896 5.358217 69.103958
13.460829 4.859229 68.402924
13.0355 2.062542 68.790901
12.583067 -0.577007 69.111008
21.251268 -4.818614 72.174545
22.95018 -4.437128 71.998787
22.40135 -7.293698 72.396965
23.46328 -9.89025 72.40773
24.180847 -12.698327 72.285309
21.074097 10.437686 69.480988
22.520782 7.805233 70.018372
20.876232 7.115876 70.158897
20.564245 3.816364 70.759102
20.237543 0.663752 71.281036
16.930061 2.791883 70.160561
18.372118 0.337176 71.005463
19.866243 -2.072937 71.678642
19.376467 -4.864902 72.012825
18.811094 -7.432539 72.236404
18.125608 -9.930059 72.350517
9.036022 1.18344 67.01606
10.588119 -1.057313 68.268478
12.051579 -3.288756 69.370598
13.497211 -5.431718 70.334038
14.748004 -7.616358 71.109283
23.801466 4.790642 70.377632
8.685368 4.666861 66.036903
9.72999 4.988455 66.530929
20.450678 -11.195315 72.749115
19.58029 -11.307334 72.695141
15.804434 9.878142 68.287048
14.948179 10.992692 67.670524
14.895499 9.442217 68.004387
12.672994 5.898962 67.800656
13.634199 6.235461 68.182999
12.846364 7.275194 67.580731
12.057195 1.764164 68.39349
12.23758 3.124309 68.190964
11.259275 2.825932 67.793552
12.846364 7.275194 67.580731
13.001503 8.65879 67.332886
8.040755 0.928194 66.535874
8.282576 2.185937 66.38543
7.287308 1.93069 65.905243
10.256087 -2.289404 68.338024
9.631144 -1.198873 67.812637
10.987817 -3.405125 68.889084
11.319849 -2.173034 68.819538
10.256087 -2.289404 68.338024
13.115571 -6.585759 70.333096
12.427008 -5.535147 69.885517
13.740968 -7.678079 70.720718
14.122608 -6.524038 70.721661
13.115571 -6.585759 70.333096
19.434407 11.401649 69.035911
18.522445 11.039925 68.889522
20.209359 10.083179 69.438195
20.299145 11.756156 69.078705
19.434407 11.401649 69.035911
24.299693 1.786443 70.691506
24.125281 0.22158 71.011887
23.692691 -4.296504 71.772285
23.469964 -5.808602 72.017669
10.479368 3.932608 67.155349
9.72999 4.988455 66.530929
10.298983 2.572463 67.357876
11.259275 2.825932 67.793552
10.479368 3.932608 67.155349
21.417331 -11.190952 72.770828
20.834512 -10.005129 72.662514
20.450678 -11.195315 72.749115
21.866675 -12.462961 72.785641
22.250509 -11.272775 72.699039
21.417331 -11.190952 72.770828
7.859828 -0.333743 66.706242
6.758032 -0.407503 66.130299
15.002684 12.649235 67.288178
14.948179 10.992692 67.670524
15.903251 13.085936 67.569977
15.002684 12.649235 67.288178
16.77869 11.889898 68.168415
15.903251 13.085936 67.569977
17.654205 10.695318 68.745948
16.77869 11.889898 68.168415
16.732628 10.234037 68.53072
18.476382 9.384065 69.251827
18.522445 11.039925 68.889522
17.654205 10.695318 68.745948
24.019143 -1.323374 71.277489
24.125281 0.22158 71.011887
23.4113 0.082769 71.260292
12.450245 4.522653 67.996975
12.672994 5.898962 67.800656
13.248165 3.460885 68.596913
12.450245 4.522653 67.996975
12.23758 3.124309 68.190964
13.923407 9.08423 67.675468
13.001503 8.65879 67.332886
14.779662 7.96968 68.291993
14.895499 9.442217 68.004387
13.923407 9.08423 67.675468
23.195549 -7.236887 72.216758
23.469964 -5.808602 72.017669
22.675765 -5.865413 72.197876
23.726514 -8.535163 72.222141
23.195549 -7.236887 72.216758
22.932315 -8.591974 72.402347
24.173404 -10.01534 72.136924
23.726514 -8.535163 72.222141
24.532187 -11.419379 72.075714
24.173404 -10.01534 72.136924
23.822063 -11.294289 72.346519
24.891119 -12.809658 71.886249
24.532187 -11.419379 72.075714
6.319375 1.703875 65.412453
7.287308 1.93069 65.905243
6.011637 0.541074 65.504593
6.319375 1.703875 65.412453
6.758032 -0.407503 66.130299
6.011637 0.541074 65.504593
21.797439 9.12146 69.74968
22.60566 9.461315 69.666286
21.882317 10.777541 69.397594
18.709164 -11.267619 72.549999
19.58029 -11.307334 72.695141
18.996733 -9.969775 72.495658
8.524102 3.433787 66.237236
8.685368 4.666861 66.036903
9.277549 2.43129 66.867866
8.524102 3.433787 66.237236
8.282576 2.185937 66.38543
8.855095 -0.078497 67.186428
8.040755 0.928194 66.535874
7.859828 -0.333743 66.706242
9.812071 0.063064 67.642269
8.855095 -0.078497 67.186428
9.631144 -1.198873 67.812637
11.704193 -4.463666 69.403797
10.987817 -3.405125 68.889084
12.774395 -4.360237 69.852318
11.704193 -4.463666 69.403797
12.427008 -5.535147 69.885517
14.406273 -8.751207 71.106994
13.740968 -7.678079 70.720718
15.424618 -8.768598 71.460724
14.406273 -8.751207 71.106994
16.490296 -8.728044 71.8023
15.813683 -7.575805 71.450859
15.424618 -8.768598 71.460724
17.113419 -9.925448 72.08134
17.502485 -8.732655 72.071476
16.490296 -8.728044 71.8023
17.742664 -11.064486 72.350193
17.113419 -9.925448 72.08134
18.709164 -11.267619 72.549999
17.742664 -11.064486 72.350193
21.16701 12.113834 69.111008
20.299145 11.756156 69.078705
21.882317 10.777541 69.397594
21.16701 12.113834 69.111008
23.305729 7.993259 69.832341
22.60566 9.461315 69.666286
23.946072 6.485964 70.011971
23.305729 7.993259 69.832341
23.161124 6.297937 70.198002
24.530257 5.076908 70.039867
23.946072 6.485964 70.011971
24.441707 3.367903 70.382977
23.659453 3.209182 70.686161
24.299693 1.786443 70.691506
24.530257 5.076908 70.039867
24.441707 3.367903 70.382977
23.870182 -2.809032 71.535839
23.127671 -2.949657 71.76234
23.692691 -4.296504 71.772285
24.019143 -1.323374 71.277489
23.870182 -2.809032 71.535839
22.30147 -13.839063 72.802216
21.866675 -12.462961 72.785641
23.088166 -13.878003 72.638061
22.30147 -13.839063 72.802216
23.828663 -13.954775 72.42379
23.440351 -12.621555 72.499581
23.088166 -13.878003 72.638061
24.563849 -14.070616 72.087136
23.828663 -13.954775 72.42379
25.274121 -14.181947 71.688076
24.891119 -12.809658 71.886249
24.563849 -14.070616 72.087136
3 55 13 56
3 58 57 14
3 0 18 16
3 2 21 19
3 2 23 21
3 0 59 61
3 59 24 60
3 59 60 61
3 0 16 24
3 1 27 25
3 62 30 63
3 64 63 28
3 62 63 64
3 4 65 67
3 65 31 66
3 65 66 67
3 4 32 31
3 68 28 69
3 5 35 33
3 6 36 15
3 6 37 36
3 8 40 38
3 10 41 17
3 10 42 41
3 3 43 29
3 11 44 20
3 11 45 44
3 11 46 45
3 12 47 22
3 12 48 47
3 7 70 72
3 70 49 71
3 70 71 72
3 73 50 74
3 75 51 76
3 77 76 50
3 75 76 77
3 78 52 79
3 80 53 81
3 82 81 52
3 80 81 82
3 8 83 84
3 8 85 87
3 85 38 86
3 85 86 87
3 9 54 39
3 89 88 26
3 91 90 34
3 13 92 93
3 13 94 96
3 94 4 95
3 94 95 96
3 14 15 5
3 97 15 98
3 99 98 14
3 97 98 99
3 100 6 101
3 102 101 15
3 100 101 102
3 16 17 8
3 18 17 16
3 18 10 17
3 19 20 3
3 21 20 19
3 21 11 20
3 21 22 11
3 23 22 21
3 23 12 22
3 104 103 7
3 24 105 106
3 24 107 108
3 24 109 110
3 16 111 113
3 113 112 24
3 111 112 113
3 16 114 116
3 114 8 115
3 114 115 116
3 25 26 9
3 27 26 25
3 27 117 119
3 119 118 26
3 117 118 119
3 28 29 0
3 30 29 28
3 30 3 29
3 120 30 121
3 31 122 124
3 122 30 123
3 122 123 124
3 31 3 30
3 31 19 3
3 32 19 31
3 32 2 19
3 28 125 126
3 28 127 129
3 127 0 128
3 127 128 129
3 33 34 1
3 35 34 33
3 35 130 132
3 132 131 34
3 130 131 132
3 15 35 5
3 36 35 15
3 36 133 135
3 135 134 35
3 133 134 135
3 36 136 137
3 37 138 140
3 140 139 36
3 138 139 140
3 37 141 142
3 143 7 144
3 145 7 146
3 148 147 7
3 38 149 151
3 149 39 150
3 149 150 151
3 40 39 38
3 40 9 39
3 17 40 8
3 41 40 17
3 41 9 40
3 41 25 9
3 42 25 41
3 42 1 25
3 29 18 0
3 43 18 29
3 43 10 18
3 20 43 3
3 44 43 20
3 44 10 43
3 44 42 10
3 45 42 44
3 45 1 42
3 45 33 1
3 46 33 45
3 46 5 33
3 22 46 11
3 47 46 22
3 47 5 46
3 47 14 5
3 48 14 47
3 48 152 154
3 154 153 14
3 152 153 154
3 155 13 156
3 49 157 159
3 157 13 158
3 157 158 159
3 49 4 13
3 160 49 161
3 162 161 7
3 160 161 162
3 50 163 165
3 163 49 164
3 163 164 165
3 50 4 49
3 50 32 4
3 51 32 50
3 51 2 32
3 166 51 167
3 52 168 170
3 168 51 169
3 168 169 170
3 52 2 51
3 52 23 2
3 53 23 52
3 53 12 23
3 171 53 172
3 173 53 174
3 175 12 176
3 177 176 53
3 175 176 177
3 178 48 179
3 180 179 12
3 178 179 180
3 181 48 182
3 184 183 48
3 38 185 186
3 38 187 188
3 39 189 190
3 54 191 193
3 193 192 39
3 191 192 193
3 54 194 195
3 26 54 9
3 196 54 197
3 198 197 26
3 196 197 198
3 200 199 54
3 34 27 1
3 201 27 202
3 203 202 34
3 201 202 203
3 205 204 27
3 206 6 207
3 208 6 209
3 210 37 211
3 212 211 6
3 210 211 212
3 213 37 214
3 217 216 37
3 215 216 217
