ply
format ascii 1.0
element vertex 184
property float x
property float y
property float z
element face 176
property list uchar int vertex_index
end_header
-31.805565 60.913898 21.985905
-33.291344 73.481575 0.537523
-33.532192 53.716431 17.899597
-32.45055 67.327248 12.862076
-32.471657 57.825024 20.05521
-33.026588 60.67437 15.170556
-32.068691 63.995361 17.948811
-31.931911 55.944073 24.644115
-32.734913 51.45232 22.900045
-34.269394 66.130615 3.451054
-34.34026 56.329849 12.579843
-33.668316 63.569801 9.510971
-32.922848 70.542595 6.844294
-32.059753 59.679497 21.148384
-32.282318 60.846745 18.971643
-31.919054 62.262733 20.215927
-31.867407 58.694351 23.155439
-32.19762 56.759335 22.341602
-33.779652 69.733574 2.130028
-34.221359 51.1777 16.801624
-34.710873 52.580669 13.892052
-33.955055 54.86956 15.324269
-32.766502 63.832394 14.006853
-33.363518 61.897423 12.537248
-33.035122 65.381203 11.222381
-33.277695 67.044838 8.309391
-32.671528 68.987038 9.991183
-33.140511 52.37257 20.456516
-33.278557 48.913948 21.958454
-33.730389 50.156349 19.382532
-32.94088 56.094173 18.898537
-33.268238 57.308662 16.53821
-32.734447 59.307972 17.640991
-32.503494 62.373699 16.595057
-32.258316 65.558235 15.536892
-32.29969 53.709064 23.78437
-32.636791 54.691875 21.321169
-34.737549 62.44305 4.921658
-33.653137 58.43943 13.957865
-33.999691 59.994453 11.086966
-34.400726 61.121853 8.0884
-33.986855 64.9468 6.433579
-33.538647 68.445084 5.283829
-33.093952 72.117279 3.831921
-31.72871 64.84787 19.709841
-31.829496 67.05928 17.226534
-31.991251 68.846451 14.543989
-32.477814 74.219971 5.663456
-32.629986 75.747681 2.471565
-33.642689 72.249321 -0.343484
-33.886843 70.375321 0.452768
-33.535498 71.607574 1.333775
-33.375985 74.122055 -1.123853
-33.642689 72.249321 -0.343484
-32.1158 54.826569 24.214242
-32.165763 53.222806 24.933212
-31.981874 54.340311 25.363084
-34.656266 64.799191 2.679007
-34.890343 62.955408 3.414309
-34.503472 64.286833 4.186356
-34.748309 55.02025 11.877123
-34.933615 53.14566 12.533228
-34.525566 54.455259 13.235947
-34.563462 56.844025 11.152886
-34.748309 55.02025 11.877123
-32.801916 49.659616 23.613936
-32.569414 50.907324 24.082094
-33.364846 47.07886 22.587205
-33.606697 47.664989 21.355375
-31.590528 65.275039 20.596696
-31.686712 63.90102 20.750739
-31.712528 68.594769 16.862088
-31.675339 67.499813 18.134934
-31.793405 69.488354 15.520815
-31.910373 67.952866 15.885262
-31.712528 68.594769 16.862088
-32.276217 75.876274 5.092009
-32.218576 75.032143 6.687386
-32.352303 76.64013 3.496063
-32.5539 74.983826 4.067511
-32.276217 75.876274 5.092009
-34.131391 68.571545 1.260711
-34.376262 66.770065 1.921224
-34.024523 67.932095 2.790541
-34.131391 68.571545 1.260711
-33.886843 70.375321 0.452768
-34.466116 51.879185 15.346838
-34.824601 50.670258 14.761764
-34.579843 49.968773 16.216549
-33.832613 48.28619 20.067414
-33.606697 47.664989 21.355375
-33.504473 49.535148 20.670493
-34.079273 48.809225 18.855536
-33.832613 48.28619 20.067414
-34.324759 49.319901 17.565083
-34.079273 48.809225 18.855536
-33.975874 50.667024 18.092078
-34.579843 49.968773 16.216549
-34.324759 49.319901 17.565083
-32.351802 52.035696 24.524256
-32.165763 53.222806 24.933212
-32.517302 52.580692 23.342208
-32.569414 50.907324 24.082094
-32.351802 52.035696 24.524256
-35.127873 61.115242 4.217551
-34.96221 60.555887 5.72817
-35.127873 61.115242 4.217551
-34.890343 62.955408 3.414309
-34.656266 64.799191 2.679007
-34.376262 66.770065 1.921224
-35.085968 51.260389 13.34597
-34.824601 50.670258 14.761764
-35.085968 51.260389 13.34597
-34.933615 53.14566 12.533228
-34.393177 58.676327 10.406448
-34.563462 56.844025 11.152886
-34.169975 58.162151 11.833405
-34.593694 59.240026 8.907165
-34.393177 58.676327 10.406448
-34.200209 60.558153 9.587683
-34.793798 59.895288 7.311541
-34.593694 59.240026 8.907165
-34.569137 61.782452 6.505029
-34.96221 60.555887 5.72817
-34.793798 59.895288 7.311541
-33.073738 48.39043 23.143141
-32.801916 49.659616 23.613936
-33.006735 50.183134 22.429249
-33.073738 48.39043 23.143141
-33.364846 47.07886 22.587205
-31.72514 61.934034 21.88877
-31.718474 60.829315 22.772653
-31.833849 55.521593 25.70699
-31.981874 54.340311 25.363084
-31.797556 57.087564 24.900804
-31.833849 55.521593 25.70699
-31.765304 58.462704 24.156467
-31.899659 57.319212 23.899777
-31.797556 57.087564 24.900804
-31.749395 59.719541 23.35742
-31.765304 58.462704 24.156467
-31.718474 60.829315 22.772653
-31.836486 59.804125 22.570672
-31.749395 59.719541 23.35742
-31.781884 62.608452 21.003782
-31.86231 61.588316 21.100916
-31.72514 61.934034 21.88877
-31.823882 63.555301 19.962884
-31.781884 62.608452 21.003782
-31.686712 63.90102 20.750739
-31.624947 66.394108 19.376588
-31.590528 65.275039 20.596696
-31.779103 65.953575 18.468187
-31.624947 66.394108 19.376588
-31.675339 67.499813 18.134934
-31.850902 70.458313 14.129106
-31.793405 69.488354 15.520815
-32.064317 69.869393 13.096312
-31.850902 70.458313 14.129106
-32.293966 69.109791 12.255356
-32.2209 68.086849 13.703032
-32.064317 69.869393 13.096312
-32.404455 69.939686 10.819909
-32.561039 68.157143 11.42663
-32.293966 69.109791 12.255356
-32.511164 70.683781 9.336227
-32.404455 69.939686 10.819909
-32.636824 71.461559 7.762783
-32.797188 69.764816 8.417738
-32.511164 70.683781 9.336227
-32.414307 73.300247 7.172364
-32.218576 75.032143 6.687386
-32.700331 72.381283 6.253875
-32.636824 71.461559 7.762783
-32.414307 73.300247 7.172364
-32.410129 77.408631 1.862181
-32.352303 76.64013 3.496063
-32.712967 76.344597 0.913291
-32.410129 77.408631 1.862181
-33.043646 75.211544 -0.05373
-32.960665 74.614628 1.504544
-32.712967 76.344597 0.913291
-33.375985 74.122055 -1.123853
-33.043646 75.211544 -0.05373
3 0 15 13
3 0 13 16
3 1 49 51
3 51 50 18
3 49 50 51
3 1 52 53
3 2 21 19
3 3 24 22
3 3 26 24
3 2 29 27
3 2 19 29
3 4 32 30
3 6 33 14
3 6 34 33
3 7 54 56
3 54 35 55
3 54 55 56
3 4 36 17
3 4 30 36
3 9 57 59
3 59 58 37
3 57 58 59
3 10 60 62
3 62 61 20
3 60 61 62
3 10 63 64
3 5 38 31
3 11 39 23
3 11 40 39
3 11 41 40
3 12 42 25
3 12 43 42
3 8 65 66
3 68 67 28
3 69 44 70
3 71 45 72
3 73 46 74
3 75 74 45
3 73 74 75
3 76 47 77
3 78 48 79
3 80 79 47
3 78 79 80
3 13 14 4
3 15 14 13
3 15 6 14
3 16 17 7
3 13 17 16
3 13 4 17
3 18 81 83
3 83 82 9
3 81 82 83
3 85 84 18
3 19 86 88
3 86 20 87
3 86 87 88
3 21 20 19
3 21 10 20
3 22 23 5
3 24 23 22
3 24 11 23
3 24 25 11
3 26 25 24
3 26 12 25
3 27 28 8
3 29 28 27
3 29 89 91
3 91 90 28
3 89 90 91
3 29 92 93
3 19 94 96
3 96 95 29
3 94 95 96
3 19 97 98
3 30 31 2
3 32 31 30
3 32 5 31
3 14 32 4
3 33 32 14
3 33 5 32
3 33 22 5
3 34 22 33
3 34 3 22
3 35 99 100
3 35 101 103
3 101 8 102
3 101 102 103
3 17 35 7
3 36 35 17
3 36 8 35
3 36 27 8
3 30 27 36
3 30 2 27
3 37 104 105
3 107 106 37
3 109 108 9
3 20 110 111
3 113 112 20
3 31 21 2
3 38 21 31
3 38 10 21
3 23 38 5
3 39 38 23
3 39 10 38
3 39 114 116
3 116 115 10
3 114 115 116
3 40 117 119
3 119 118 39
3 117 118 119
3 40 120 121
3 40 122 124
3 122 37 123
3 122 123 124
3 41 37 40
3 41 9 37
3 25 41 11
3 42 41 25
3 42 9 41
3 42 18 9
3 43 18 42
3 43 1 18
3 28 125 127
3 127 126 8
3 125 126 127
3 129 128 28
3 131 130 0
3 132 7 133
3 134 7 135
3 136 16 137
3 138 137 7
3 136 137 138
3 139 16 140
3 141 0 142
3 143 142 16
3 141 142 143
3 144 15 145
3 146 145 0
3 144 145 146
3 44 147 149
3 147 15 148
3 147 148 149
3 44 6 15
3 150 44 151
3 45 152 154
3 152 44 153
3 152 153 154
3 45 6 44
3 45 34 6
3 46 34 45
3 46 3 34
3 155 46 156
3 157 46 158
3 159 3 160
3 161 160 46
3 159 160 161
3 162 26 163
3 164 163 3
3 162 163 164
3 165 26 166
3 167 12 168
3 169 168 26
3 167 168 169
3 47 170 171
3 47 172 174
3 172 12 173
3 172 173 174
3 47 43 12
3 48 43 47
3 48 1 43
3 175 48 176
3 177 48 178
3 179 1 180
3 181 180 48
3 179 180 181
3 183 182 1
