ply
format ascii 1.0
element vertex 57
property float x
property float y
property float z
element face 38
property list uchar int vertex_index
end_header
2.446621 10.212641 -64.662262
0.772224 0.269692 -58.9641
1.565351 2.026477 -60.917099
1.537877 5.146084 -61.881367
1.510337 8.154598 -62.701817
1.115191 5.685437 -61.329555
1.161871 4.213898 -60.944162
0.392829 -0.68687 -57.967165
0.415099 0.874772 -58.546009
0.759451 -1.255434 -58.416432
0.392829 -0.68687 -57.967165
1.124693 -0.381329 -59.341389
0.759451 -1.255434 -58.416432
1.960942 1.501698 -61.360946
1.982657 3.088017 -61.921594
2.416506 8.697156 -64.238081
1.948364 7.668134 -63.257858
1.978479 9.183619 -63.68204
0.779044 1.775702 -59.485529
0.415099 0.874772 -58.546009
1.175607 2.654095 -60.462029
1.168788 1.148084 -59.9406
0.779044 1.775702 -59.485529
1.551614 3.58628 -61.399233
1.175607 2.654095 -60.462029
1.161871 4.213898 -60.944162
1.96892 4.647821 -62.403728
1.982657 3.088017 -61.921594
1.551614 3.58628 -61.399233
2.907012 9.598031 -65.155128
2.912241 11.154366 -65.48727
1.068358 8.605853 -62.07904
1.101422 7.189694 -61.73978
1.477715 9.585843 -62.988811
1.068358 8.605853 -62.07904
1.945857 10.614864 -63.969034
1.978479 9.183619 -63.68204
1.477715 9.585843 -62.988811
2.385889 11.593073 -64.826809
1.945857 10.614864 -63.969034
2.912241 11.154366 -65.48727
2.385889 11.593073 -64.826809
1.521256 0.497063 -60.317888
1.124693 -0.381329 -59.341389
1.168788 1.148084 -59.9406
1.521256 0.497063 -60.317888
1.960942 1.501698 -61.360946
1.524107 6.650341 -62.291592
1.115191 5.685437 -61.329555
1.101422 7.189694 -61.73978
1.962134 6.163877 -62.847634
1.524107 6.650341 -62.291592
1.948364 7.668134 -63.257858
1.96892 4.647821 -62.403728
1.962134 6.163877 -62.847634
2.416506 8.697156 -64.238081
2.907012 9.598031 -65.155128
3 5 3 6
3 1 7 8
3 1 9 10
3 1 11 12
3 14 13 2
3 0 15 17
3 17 16 4
3 15 16 17
3 18 1 19
3 20 2 21
3 22 21 1
3 20 21 22
3 3 23 25
3 23 2 24
3 23 24 25
3 3 26 28
3 28 27 2
3 26 27 28
3 30 29 0
3 31 4 32
3 33 4 34
3 35 0 36
3 37 36 4
3 35 36 37
3 38 0 39
3 41 40 0
3 2 42 44
3 44 43 1
3 42 43 44
3 46 45 2
3 4 47 49
3 47 3 48
3 47 48 49
3 50 3 51
3 52 51 4
3 50 51 52
3 54 53 3
3 56 55 0
