ply
format ascii 1.0
element vertex 306
property float x
property float y
property float z
element face 348
property list uchar int vertex_index
end_header
5.290642 92.216187 13.272218
-8.816068 78.96788 13.594213
10.891241 91.560295 18.951277
2.545226 95.914993 4.384449
-1.356327 86.498276 13.510772
-5.845136 89.410683 3.454483
-3.82166 75.830513 22.946648
3.70708 83.655731 21.84166
7.56675 95.674789 10.602893
11.019115 95.910431 13.368349
7.819668 92.088432 15.740464
4.156519 94.127647 9.295656
6.596077 98.236145 5.362895
2.372161 89.791832 13.402618
0.439478 91.46373 8.83088
-0.078989 79.894012 22.405714
2.732856 78.019577 26.680838
6.66969 82.372482 25.617872
-5.136065 83.063683 13.382799
-7.492592 84.265625 8.705955
-3.648046 88.138855 8.493389
-1.742771 92.876678 3.718219
-6.451282 77.502815 18.296204
-2.625168 81.436203 18.206879
0.993602 85.150833 17.672796
4.716454 88.632858 17.153891
7.439555 87.762665 20.552694
10.442877 86.482727 24.33975
6.297473 93.782425 12.113779
7.773152 94.001816 13.195059
6.416703 92.254768 14.279999
4.779557 93.114494 11.496208
5.875546 95.027107 9.840781
4.022714 91.217377 13.288063
3.169619 92.048309 11.227593
0.872917 76.226959 26.836254
10.992865 93.854187 16.150442
12.725959 95.773544 14.903667
12.685988 93.59256 17.787674
12.595929 91.18634 20.68054
-3.295361 84.898491 13.294837
-4.426321 85.598259 11.003052
-2.486033 87.403915 10.982794
1.423168 93.829361 6.421281
-0.594569 92.165184 6.446232
0.336539 94.423859 3.98792
-6.75682 86.838791 6.096199
-8.727987 84.715866 6.234512
-7.93691 87.244423 3.651928
-4.334876 72.937836 25.236031
-5.595914 73.882156 23.035753
-6.943255 74.671799 20.71924
-5.091351 76.834778 20.57946
-4.610355 79.566841 18.137978
-3.359385 78.697838 20.451443
1.88303 81.841339 22.154863
0.507114 82.591637 20.08956
2.35418 84.507408 19.710264
2.893601 86.984566 17.382212
4.119692 86.23568 19.386654
5.976477 88.17852 18.823112
5.495142 85.66082 21.22859
8.127953 81.573311 27.538622
8.490949 84.411446 24.991545
10.084864 83.681168 26.94165
12.05064 85.76355 26.258385
9.061477 97.631599 9.020728
10.844901 97.808792 10.382954
9.346096 96.005295 11.782881
9.36148 94.113617 14.446612
9.318926 91.966774 17.172279
3.456579 95.14045 6.853616
4.661551 97.221985 4.814498
5.336663 96.201233 7.371848
7.265352 97.09684 8.060978
0.588178 88.360733 13.307867
-0.591574 88.973686 11.127234
1.375891 90.628204 11.160867
2.357841 93.040573 8.819763
-4.945193 91.700172 0.922323
-7.095622 89.640976 1.027769
-2.448711 75.123276 24.966482
-1.977335 77.93428 22.630943
-0.602549 77.086433 24.750261
1.305569 78.988403 24.551916
3.211356 80.824638 24.340796
5.212799 83.00473 23.796669
4.763595 80.24984 26.183411
6.277532 79.494972 28.100616
12.592032 97.796799 11.836019
-6.924756 81.056648 13.606935
-8.217258 81.646675 11.14152
-6.303894 83.655212 11.145347
-5.670479 86.013107 8.814453
-4.801167 88.712227 6.087492
-1.537338 89.840431 8.742799
-2.656881 90.571968 6.186952
-3.810238 91.255196 3.461417
-2.805229 93.472557 1.078287
-9.450929 82.142036 8.704691
-9.346306 76.220726 16.000473
-8.260613 75.390625 18.344248
-7.632069 78.2118 16.042938
-5.867499 80.24575 15.890703
-4.005965 82.185776 15.79767
-2.140708 83.986473 15.747905
-1.485879 80.644913 20.265039
-0.825469 83.368141 17.889206
-0.129666 85.91201 15.602899
1.666878 87.585075 15.443388
3.480835 89.197807 15.294015
4.975977 90.632568 14.979084
6.242092 90.421425 16.404991
7.607267 90.028549 18.075323
9.227858 89.604782 19.930048
7.032876 85.179665 23.029539
8.901155 87.141983 22.434937
10.83539 89.065567 21.822519
12.456595 88.554054 23.578854
-9.426896 79.175884 12.469497
-9.679867 77.861595 13.641404
3.14894 96.99908 3.198122
2.124376 96.350311 3.000541
2.124376 96.350311 3.000541
1.020033 95.604744 2.802277
1.440883 95.169426 4.186184
9.857001 82.074367 28.326477
9.106409 82.62724 27.240136
8.878545 81.020439 28.624963
10.818772 83.196224 27.947772
9.857001 82.074367 28.326477
-5.456772 91.882652 -0.311584
-4.332363 92.844894 -0.257851
-1.747529 74.669804 26.01921
-2.725313 73.621048 26.104281
-0.824449 75.651382 25.911099
-1.52563 76.104855 24.858371
-1.747529 74.669804 26.01921
6.013357 77.969433 29.2879
5.237708 78.413601 28.293553
6.971666 79.009502 29.078871
6.013357 77.969433 29.2879
13.560016 96.738834 14.075026
13.644261 95.699546 15.633252
6.283387 98.761601 3.98878
5.316124 98.254521 3.714582
5.628814 97.729065 5.088697
-9.655258 83.649036 6.270998
-9.261177 85.002045 4.937993
-8.072021 88.671379 1.014482
-7.59383 89.900669 -0.361707
-9.582345 74.827008 17.160303
-10.174649 75.102909 16.020054
-10.410688 73.709191 17.179884
12.987725 86.778942 25.81992
12.792754 85.298794 27.229048
0.539673 74.630527 28.001127
-0.086716 75.221645 26.954096
1.551095 75.582604 27.968441
0.539673 74.630527 28.001127
2.481065 76.478913 27.890733
1.802887 77.123268 26.758546
1.551095 75.582604 27.968441
3.46537 77.675904 27.583664
2.481065 76.478913 27.890733
13.624276 94.609055 17.075255
13.644261 95.699546 15.633252
12.705973 94.683052 16.345671
13.527854 93.39172 18.613459
13.624276 94.609055 17.075255
13.482824 92.18861 20.059891
13.527854 93.39172 18.613459
12.640958 92.38945 19.234107
13.445645 90.901947 21.579473
13.482824 92.18861 20.059891
7.372637 99.213784 4.442137
7.565929 98.583343 5.831936
-0.079898 94.826034 2.659393
-1.119553 94.052444 2.524542
-0.703116 93.650268 3.85307
-0.079898 94.826034 2.659393
1.020033 95.604744 2.802277
-8.865638 86.266323 3.646701
-9.261177 85.002045 4.937993
-8.332448 85.980144 4.94322
-5.288908 71.864239 25.259279
-4.590457 71.52232 26.272416
-5.919427 72.336399 24.15914
-5.288908 71.864239 25.259279
-4.965395 73.409996 24.135892
-6.515832 72.843006 23.014307
-5.919427 72.336399 24.15914
-6.269584 74.276977 21.877496
-7.189502 73.237827 21.856051
-6.515832 72.843006 23.014307
11.801661 84.237415 27.606139
11.067752 84.722359 26.600017
10.818772 83.196224 27.947772
12.792754 85.298794 27.229048
11.801661 84.237415 27.606139
9.953189 97.720195 9.701841
10.722399 98.629185 8.919293
9.830687 98.540588 8.23818
7.900567 98.013691 7.180978
7.565929 98.583343 5.831936
6.930715 97.666493 6.711937
8.79863 98.28107 7.660853
7.900567 98.013691 7.180978
8.163415 97.364219 8.540853
9.830687 98.540588 8.23818
8.79863 98.28107 7.660853
-6.531987 90.853054 -0.258861
-6.020407 90.670574 0.975046
-5.456772 91.882652 -0.311584
-7.030195 91.112747 -1.648337
-7.59383 89.900669 -0.361707
-6.531987 90.853054 -0.258861
-3.668395 72.528328 26.239055
-4.590457 71.52232 26.272416
-3.391794 74.030556 25.101256
-3.668395 72.528328 26.239055
-2.725313 73.621048 26.104281
0.135184 76.656696 25.793257
-0.824449 75.651382 25.911099
-0.086716 75.221645 26.954096
4.48074 78.791035 27.33495
3.748225 79.134709 26.432125
3.46537 77.675904 27.583664
5.520563 79.872406 27.142013
4.48074 78.791035 27.33495
5.237708 78.413601 28.293553
7.896876 80.048672 28.797874
7.202742 80.534142 27.819619
6.971666 79.009502 29.078871
8.878545 81.020439 28.624963
7.896876 80.048672 28.797874
11.669058 98.735401 9.558761
10.722399 98.629185 8.919293
12.542623 98.729404 10.285294
11.669058 98.735401 9.558761
11.718466 97.802796 11.109486
13.435121 98.728341 10.938188
12.542623 98.729404 10.285294
13.493053 97.750462 12.541202
12.658995 96.785171 13.369843
13.560016 96.738834 14.075026
13.435121 98.728341 10.938188
13.493053 97.750462 12.541202
4.207102 97.652577 3.413147
3.14894 96.99908 3.198122
3.603389 96.568489 4.599474
4.207102 97.652577 3.413147
5.316124 98.254521 3.714582
6.283387 98.761601 3.98878
7.372637 99.213784 4.442137
-3.262381 93.731087 -0.179869
-4.332363 92.844894 -0.257851
-3.875211 92.586365 1.000305
-1.650782 94.350383 1.204576
-2.274 93.174617 2.398253
-1.119553 94.052444 2.524542
-2.18606 94.609745 -0.163822
-1.650782 94.350383 1.204576
-3.262381 93.731087 -0.179869
-2.18606 94.609745 -0.163822
-9.127491 80.515282 11.243151
-9.426896 79.175884 12.469497
-8.516663 80.307277 12.367866
-9.744327 80.762962 10.024736
-9.127491 80.515282 11.243151
-8.834093 81.894356 9.923106
-10.335358 80.972801 8.8427
-9.744327 80.762962 10.024736
-10.016728 82.362122 7.506087
-9.089458 83.428951 7.469601
-9.655258 83.649036 6.270998
-10.335358 80.972801 8.8427
-10.016728 82.362122 7.506087
-8.492665 87.473102 2.326561
-7.516266 88.4427 2.339848
-8.072021 88.671379 1.014482
-8.865638 86.266323 3.646701
-8.492665 87.473102 2.326561
-9.944986 76.488018 14.844534
-10.174649 75.102909 16.020054
-9.081187 77.594303 14.797343
-9.679867 77.861595 13.641404
-9.944986 76.488018 14.844534
-7.808342 73.697541 20.643159
-7.189502 73.237827 21.856051
-8.467021 74.056953 19.455663
-7.808342 73.697541 20.643159
-7.601934 75.031212 19.531744
-9.039499 74.411957 18.33219
-8.467021 74.056953 19.455663
-8.803459 75.805676 17.17236
-9.582345 74.827008 17.160303
-9.039499 74.411957 18.33219
13.375978 89.585804 23.02863
13.445645 90.901947 21.579473
12.526262 89.870197 22.129697
13.190703 88.174194 24.480154
12.253618 87.158802 24.918619
12.987725 86.778942 25.81992
13.375978 89.585804 23.02863
13.190703 88.174194 24.480154
3 0 30 28
3 0 28 31
3 0 31 33
3 1 119 120
3 2 38 36
3 2 39 38
3 3 121 122
3 4 42 40
3 3 45 43
3 3 123 125
3 125 124 45
3 123 124 125
3 5 48 46
3 6 50 49
3 6 52 50
3 6 54 52
3 7 57 55
3 7 59 57
3 7 61 59
3 126 64 127
3 128 127 62
3 126 127 128
3 130 129 64
3 8 68 66
3 10 69 29
3 10 70 69
3 11 73 71
3 8 74 32
3 8 66 74
3 13 77 75
3 11 78 34
3 11 71 78
3 132 131 79
3 133 81 134
3 135 83 136
3 137 136 81
3 135 136 137
3 16 84 35
3 16 85 84
3 16 87 85
3 138 88 139
3 141 140 88
3 9 89 67
3 143 142 37
3 12 144 146
3 146 145 72
3 144 145 146
3 18 92 90
3 20 93 41
3 20 94 93
3 14 95 76
3 21 96 44
3 21 97 96
3 21 98 97
3 19 99 91
3 148 147 47
3 150 149 80
3 151 100 152
3 151 152 153
3 22 101 51
3 22 102 101
3 22 103 102
3 23 104 53
3 23 105 104
3 15 106 82
3 24 107 56
3 24 108 107
3 24 109 108
3 25 110 58
3 25 111 110
3 25 112 111
3 26 113 60
3 26 114 113
3 17 115 86
3 27 116 63
3 27 117 116
3 27 118 117
3 155 154 65
3 28 29 8
3 30 29 28
3 30 10 29
3 31 32 11
3 28 32 31
3 28 8 32
3 33 34 13
3 31 34 33
3 31 11 34
3 156 35 157
3 158 35 159
3 160 16 161
3 162 161 35
3 160 161 162
3 164 163 16
3 36 37 9
3 38 37 36
3 38 165 167
3 167 166 37
3 165 166 167
3 38 168 169
3 39 170 172
3 172 171 38
3 170 171 172
3 39 173 174
3 176 175 12
3 40 41 18
3 42 41 40
3 42 20 41
3 43 44 14
3 45 44 43
3 45 21 44
3 45 177 179
3 179 178 21
3 177 178 179
3 181 180 45
3 46 47 19
3 48 47 46
3 48 182 184
3 184 183 47
3 182 183 184
3 49 185 186
3 50 187 189
3 189 188 49
3 187 188 189
3 50 190 191
3 50 192 194
3 192 51 193
3 192 193 194
3 52 51 50
3 52 22 51
3 52 53 22
3 54 53 52
3 54 23 53
3 55 56 15
3 57 56 55
3 57 24 56
3 57 58 24
3 59 58 57
3 59 25 58
3 59 60 25
3 61 60 59
3 61 26 60
3 62 63 17
3 64 63 62
3 64 27 63
3 64 65 27
3 195 65 196
3 197 196 64
3 195 196 197
3 199 198 65
3 66 200 202
3 200 67 201
3 200 201 202
3 68 67 66
3 68 9 67
3 29 68 8
3 69 68 29
3 69 9 68
3 69 36 9
3 70 36 69
3 70 2 36
3 71 72 3
3 73 72 71
3 73 12 72
3 32 73 11
3 74 73 32
3 74 12 73
3 74 203 205
3 205 204 12
3 203 204 205
3 66 206 208
3 208 207 74
3 206 207 208
3 66 209 210
3 75 76 4
3 77 76 75
3 77 14 76
3 34 77 13
3 78 77 34
3 78 14 77
3 78 43 14
3 71 43 78
3 71 3 43
3 79 80 5
3 211 80 212
3 213 212 79
3 211 212 213
3 216 215 80
3 214 215 216
3 217 49 218
3 81 219 221
3 219 49 220
3 219 220 221
3 81 6 49
3 81 82 6
3 83 82 81
3 83 15 82
3 35 222 224
3 222 83 223
3 222 223 224
3 84 83 35
3 84 15 83
3 84 55 15
3 85 55 84
3 85 7 55
3 85 86 7
3 87 86 85
3 87 17 86
3 225 87 226
3 227 226 16
3 225 226 227
3 88 228 230
3 228 87 229
3 228 229 230
3 88 17 87
3 88 62 17
3 231 62 232
3 233 232 88
3 231 232 233
3 235 234 62
3 67 236 237
3 89 238 240
3 240 239 67
3 238 239 240
3 89 241 242
3 37 89 9
3 243 89 244
3 245 244 37
3 243 244 245
3 247 246 89
3 72 248 250
3 250 249 3
3 248 249 250
3 252 251 72
3 254 253 12
3 90 91 1
3 92 91 90
3 92 19 91
3 41 92 18
3 93 92 41
3 93 19 92
3 93 46 19
3 94 46 93
3 94 5 46
3 76 42 4
3 95 42 76
3 95 20 42
3 44 95 14
3 96 95 44
3 96 20 95
3 96 94 20
3 97 94 96
3 97 5 94
3 97 79 5
3 98 79 97
3 98 255 257
3 257 256 79
3 255 256 257
3 258 98 259
3 260 259 21
3 258 259 260
3 261 98 262
3 264 263 98
3 91 265 267
3 267 266 1
3 265 266 267
3 99 268 270
3 270 269 91
3 268 269 270
3 99 271 272
3 47 99 19
3 273 99 274
3 275 274 47
3 273 274 275
3 277 276 99
3 80 48 5
3 278 48 279
3 280 279 80
3 278 279 280
3 282 281 48
3 100 283 284
3 100 285 287
3 285 1 286
3 285 286 287
3 51 288 289
3 101 290 292
3 292 291 51
3 290 291 292
3 101 293 294
3 101 295 297
3 295 100 296
3 295 296 297
3 102 100 101
3 102 1 100
3 102 90 1
3 103 90 102
3 103 18 90
3 53 103 22
3 104 103 53
3 104 18 103
3 104 40 18
3 105 40 104
3 105 4 40
3 82 54 6
3 106 54 82
3 106 23 54
3 56 106 15
3 107 106 56
3 107 23 106
3 107 105 23
3 108 105 107
3 108 4 105
3 108 75 4
3 109 75 108
3 109 13 75
3 58 109 24
3 110 109 58
3 110 13 109
3 110 33 13
3 111 33 110
3 111 0 33
3 111 30 0
3 112 30 111
3 112 10 30
3 60 112 25
3 113 112 60
3 113 10 112
3 113 70 10
3 114 70 113
3 114 2 70
3 86 61 7
3 115 61 86
3 115 26 61
3 63 115 17
3 116 115 63
3 116 26 115
3 116 114 26
3 117 114 116
3 117 2 114
3 117 39 2
3 118 39 117
3 118 298 300
3 300 299 39
3 298 299 300
3 65 118 27
3 301 118 302
3 303 302 65
3 301 302 303
3 305 304 118
