ply
format ascii 1.0
element vertex 576
property float x
property float y
property float z
element face 641
property list uchar int vertex_index
end_header
-13.444104 -5.583815 53.716228
-25.656282 2.004882 38.759708
-36.950645 7.442912 22.150604
-31.463057 5.207117 30.751188
-37.022942 15.994127 16.656055
-17.074604 -9.923631 50.445908
-23.304344 -6.056851 43.01664
-19.728189 -1.793596 46.5956
-10.279991 -13.33072 57.117859
-29.328829 -2.925539 35.483978
-35.30928 -0.987391 27.601145
-39.595013 -0.412017 19.403166
-40.260761 8.031934 13.436931
-39.273666 17.051561 7.945505
-15.32816 -7.635264 52.20636
-18.472258 -5.743446 48.670406
-16.645546 -3.842841 50.318901
-8.182179 -11.029363 58.768543
-11.818105 -9.552151 55.685341
-13.818842 -11.541497 53.866314
-24.591703 -2.16434 41.001171
-26.350458 -4.527247 39.222931
-27.593018 -0.284941 37.033257
-34.360027 6.391604 26.527996
-33.544388 2.37894 29.041145
-36.324959 3.186116 24.871439
-37.792313 -0.420272 23.536222
-38.564373 3.653596 20.721638
-40.059856 3.765294 16.559357
-39.069538 7.928655 17.637556
-38.563087 16.538015 12.167053
-11.323769 -3.57171 55.115421
-14.752297 -1.705901 51.677036
-26.572418 6.22714 36.362522
-28.584064 3.661356 34.775482
-29.40975 7.919651 32.303429
-32.117416 9.519486 28.209078
-34.899437 10.576906 23.834059
-37.21637 11.622112 19.406425
-18.75754 -12.080532 48.184189
-21.93428 -10.285766 44.512207
-20.184536 -8.030369 46.84584
-21.572147 -3.962539 44.887562
-22.68766 0.009833 42.780327
-17.736687 0.138093 48.252892
-20.702673 2.173226 44.46603
-23.677544 4.321242 40.404427
-12.207928 -15.780277 54.97765
-15.574081 -13.885017 51.661964
-30.669878 1.110159 33.004108
-32.384689 -1.839841 31.609257
-36.621658 -4.766959 26.489426
-39.003777 12.218996 14.961895
-40.010681 12.427443 10.568467
-39.202812 17.072088 3.814914
-14.325812 -6.734282 53.080093
-16.005411 -5.740169 51.287971
-15.091003 -4.616881 52.005634
-11.630713 -6.550906 55.46246
-10.886035 -8.411018 56.358734
-12.593658 -7.5484 54.783222
-13.536139 -8.693867 54.050419
-25.158028 -0.132185 39.900829
-26.073078 -1.186904 39.040951
-26.61162 0.789429 37.945309
-35.741772 6.907486 24.318581
-35.33334 4.860558 25.747387
-36.685547 5.393034 23.476173
-37.475151 3.524188 22.86363
-37.861019 5.579551 21.356747
-38.836124 5.846169 19.230194
-38.052956 7.688344 20.015047
-12.010093 -1.790518 54.109943
-27.982792 7.063594 34.368069
-32.452324 11.539155 26.835804
-33.507305 10.005276 26.114376
-33.71283 12.192002 24.733578
-35.003468 12.733096 22.495535
-33.688591 14.406609 23.548388
-17.99966 -10.857734 49.30534
-19.608368 -10.109841 47.434814
-18.710043 -8.86497 48.588909
-19.10976 -3.848452 47.688995
-19.978714 -4.911425 46.868382
-20.642876 -2.869097 45.781349
-22.087601 -1.938328 43.926159
-21.233364 -0.735934 44.646893
-16.305601 -0.955155 49.995094
-22.175762 3.159391 42.499813
-9.206841 -12.264906 58.029545
-7.306658 -12.920019 59.532433
-8.319482 -14.156042 58.74173
-9.389677 -15.330118 57.757591
-11.298416 -14.481406 56.098488
-15.46633 -10.773527 52.182983
-14.723811 -12.738173 52.822937
-16.432583 -11.908026 51.018505
-17.211483 -13.021854 49.894863
-22.620766 -8.189086 43.858841
-24.129532 -7.325039 42.024906
-27.797604 -3.743091 37.413353
-27.20137 -5.781036 38.307129
-28.685287 -5.101746 36.512836
-30.176403 -4.372593 34.68779
-30.012764 4.606352 32.741772
-29.656277 2.487712 33.840786
-31.127628 3.257195 31.819195
-34.453754 0.779248 28.307436
-33.032337 0.256819 30.306257
-33.831886 -1.443014 29.697317
-33.279236 -3.502276 30.823378
-34.691231 -3.071093 28.922657
-35.367416 -4.943828 28.354923
-36.044888 -2.792028 26.971754
-38.833656 -0.404788 21.410622
-38.298698 -2.491943 23.068542
-39.231384 -2.588156 20.911894
-40.226139 5.792852 14.957247
-37.183651 13.793988 18.015362
-38.166176 12.021818 17.209122
-38.072121 14.130337 15.83709
-39.015335 16.793406 10.054741
-39.407936 14.44904 11.401735
-39.721317 14.647369 9.195253
-40.138943 12.459561 8.403798
-39.780235 14.897417 7.036937
-39.625252 14.904774 5.041076
-39.358482 17.111519 5.803013
-16.198978 -8.767027 51.388569
-17.85651 -7.806304 49.537407
-16.996922 -6.727878 50.384911
-17.63125 -4.712039 49.441284
-18.20281 -2.777744 48.477234
-8.964153 -9.139044 57.982838
-9.976187 -10.288774 57.300949
-11.037487 -11.319578 56.466217
-12.117716 -12.490448 55.484058
-12.820098 -10.621434 54.838493
-14.546019 -9.623602 53.131271
-23.990551 -4.035083 42.011433
-24.735605 -5.293153 41.230644
-25.494242 -3.275497 40.09745
-26.902946 -2.400342 38.275745
-28.397739 -1.689829 36.37101
-32.919556 5.864341 28.660963
-32.556183 3.890173 29.830557
-33.992039 4.388854 27.78503
-35.04044 2.822871 26.880163
-35.855896 1.098556 26.244526
-36.642025 -0.636074 25.541149
-37.140583 1.450323 24.134541
-38.232361 1.669638 22.085072
-39.220974 1.63455 19.892757
-39.907169 1.550563 17.850325
-39.4422 3.815907 18.555605
-39.630329 5.893623 17.137054
-39.786152 7.918552 15.558431
-37.887241 16.205294 14.466961
-12.357462 -4.62617 54.486282
-14.064338 -3.649436 52.774223
-13.070747 -2.670513 53.43079
-13.638837 -0.7873 52.441849
-26.175886 4.152781 37.507023
-27.156082 3.018948 36.683731
-27.563742 4.951307 35.59177
-28.940929 5.816559 33.634178
-30.434164 6.643051 31.50738
-30.82773 8.646976 30.242521
-31.917423 7.327981 29.381264
-33.325916 7.919718 27.299414
-34.651749 8.489231 25.214701
-35.981308 9.071789 22.943132
-37.192055 9.434239 20.727543
-36.174667 11.155932 21.51952
-36.095161 13.349141 20.328325
-36.015778 15.415788 19.070599
-20.415407 -11.163968 46.277882
-21.111113 -9.067391 45.674351
-21.775188 -7.021937 44.913425
-19.44536 -6.798332 47.673561
-20.954952 -5.927223 45.839794
-22.486408 -4.94255 43.92194
-23.111065 -2.897388 42.898781
-23.675613 -1.0293 41.863903
-24.173019 1.025972 40.777699
-15.615915 -2.798885 51.125626
-17.272726 -1.824614 49.241806
-18.785587 -0.732902 47.37748
-19.265511 1.121618 46.355354
-20.238674 0.13413 45.554272
-21.711861 1.136384 43.612709
-23.209318 2.153458 41.593987
-24.689402 3.246147 39.542625
-25.137314 5.264826 38.389256
-13.032259 -13.651428 54.489845
-13.906028 -14.769119 53.368004
-25.617426 -6.473927 40.217026
-28.118328 1.682735 35.913975
-29.095337 0.317899 35.100601
-29.999214 -1.005925 34.325455
-32.068516 1.82036 31.088835
-31.468325 -0.388482 32.411896
-30.860443 -2.400672 33.571327
-31.730082 -3.861214 32.774586
-32.48085 -5.420044 32.091526
-37.221226 -2.566384 25.070557
-38.195873 9.755908 18.600288
-39.044731 10.119216 16.379541
-39.722984 10.139318 14.286559
-38.818932 14.398826 13.597724
-39.598557 12.392291 12.831399
-40.167145 10.288179 12.067199
-40.364754 10.222721 10.014892
-32.447918 12.633207 26.294559
-31.822664 12.236704 27.365878
-33.078171 12.95963 25.243447
-33.082577 11.865578 25.784691
-32.447918 12.633207 26.294559
-33.066052 14.066934 24.650852
-33.70071 13.299305 24.140983
-33.078171 12.95963 25.243447
-39.728556 -1.495262 19.122949
-39.546741 -2.583331 19.877313
-39.413199 -1.500087 20.15753
-39.861208 -0.47099 18.378727
-39.728556 -1.495262 19.122949
-40.397238 6.880001 13.117749
-40.379927 5.76046 13.877907
-40.24345 6.912393 14.197089
-40.381107 7.982504 12.374838
-40.397238 6.880001 13.117749
-9.36353 -8.269968 57.548975
-8.418059 -8.601263 58.31393
-13.153925 -0.324302 52.736492
-12.824465 -1.288909 53.275896
-12.339554 -0.825911 53.570539
-13.97223 0.19371 51.865319
-13.153925 -0.324302 52.736492
-10.952946 -4.551442 55.624254
-10.474086 -3.96211 55.873729
-11.840616 -4.09894 54.800852
-11.469792 -5.078672 55.309685
-10.952946 -4.551442 55.624254
-31.472573 9.083231 29.2258
-30.922149 9.733624 29.665419
-31.566992 10.169878 28.648698
-35.448639 14.161612 20.892074
-35.549314 13.041118 21.41193
-34.902792 13.85359 21.975679
-35.408947 15.194935 20.263212
-36.05547 14.382464 19.699462
-35.448639 14.161612 20.892074
-19.586473 -11.62225 47.231036
-19.983628 -12.179009 46.596991
-19.154694 -12.63729 47.550145
-19.984092 1.647422 45.410692
-19.497327 2.129094 45.80961
-20.215908 2.654898 44.864948
-7.181949 -11.424583 59.53188
-7.604577 -10.4605 59.1376
-6.276208 -13.343239 60.296246
-6.843509 -13.886711 59.887112
-11.783414 -16.804066 55.168518
-10.925655 -17.178514 55.958396
-11.350169 -16.154725 55.767528
-12.648004 -16.319254 54.360205
-11.783414 -16.804066 55.168518
-15.126677 -14.929956 51.914165
-14.292651 -15.372007 52.767185
-14.740054 -14.327068 52.514984
-15.976679 -14.494305 51.014581
-15.126677 -14.929956 51.914165
-18.404795 -13.119681 48.368189
-17.631767 -13.590342 49.223526
-17.984511 -12.551193 49.039526
-19.154694 -12.63729 47.550145
-18.404795 -13.119681 48.368189
-22.210588 -11.010576 44.036237
-21.504413 -11.354166 44.844576
-26.793286 -6.843761 38.802729
-27.514477 -6.511024 37.963997
-33.238582 -5.283238 31.141592
-32.880043 -4.46116 31.457452
-33.637776 -4.324354 30.507518
-32.822626 -6.361471 31.788649
-33.238582 -5.283238 31.141592
-36.285717 -5.80818 27.161061
-35.658596 -5.896615 28.093809
-35.994537 -4.855393 27.422175
-36.917484 -5.805338 26.182431
-36.285717 -5.80818 27.161061
-38.023855 -3.565665 23.816463
-38.51541 -3.550795 22.802012
-40.202041 2.679929 16.160517
-40.125698 1.572564 16.806002
-39.983513 2.657928 17.204841
-40.212384 11.317053 8.190618
-40.065876 12.48209 7.407038
-39.209705 15.87451 3.496982
-39.420926 14.790853 4.110063
-39.414032 15.988431 4.427995
-39.004718 17.075529 2.930059
-39.209705 15.87451 3.496982
-11.258374 -7.480962 55.910597
-10.324471 -7.905955 56.736923
-10.69681 -6.975899 56.288786
-11.207987 -2.165373 54.853445
-11.666931 -2.681114 54.612682
-10.864825 -3.055968 55.356184
-11.572718 -1.272876 54.330766
-11.207987 -2.165373 54.853445
-12.339554 -0.825911 53.570539
-11.572718 -1.272876 54.330766
-10.864825 -3.055968 55.356184
-10.474086 -3.96211 55.873729
-27.413403 7.610451 34.874398
-27.277605 6.645367 35.365296
-26.708216 7.192225 35.871624
-28.07467 8.110668 33.879221
-27.413403 7.610451 34.874398
-28.788149 8.538697 32.846901
-28.696271 7.491623 33.335749
-28.07467 8.110668 33.879221
-31.734446 11.179713 27.962061
-31.822664 12.236704 27.365878
-32.28487 10.529321 27.522441
-31.566992 10.169878 28.648698
-31.734446 11.179713 27.962061
-34.245354 14.690346 22.502106
-34.902792 13.85359 21.975679
-34.34603 13.569852 23.021961
-15.79357 -0.422666 50.340879
-15.528949 -1.330528 50.836065
-15.016918 -0.798039 51.18185
-16.522146 0.075288 49.491161
-15.79357 -0.422666 50.340879
-17.237689 0.621912 48.62006
-17.021144 -0.408531 49.123993
-16.522146 0.075288 49.491161
-20.939324 3.20782 43.895212
-20.215908 2.654898 44.864948
-21.675868 3.700902 42.912104
-21.439217 2.666308 43.482922
-20.939324 3.20782 43.895212
-22.374963 4.148411 41.973955
-21.675868 3.700902 42.912104
-23.125855 4.729337 40.926262
-22.926653 3.740316 41.45212
-22.374963 4.148411 41.973955
-23.829202 5.325971 39.915493
-23.125855 4.729337 40.926262
-7.349922 -14.504722 59.49176
-6.843509 -13.886711 59.887112
-7.81307 -13.53803 59.137081
-7.867059 -15.150593 59.050325
-7.349922 -14.504722 59.49176
-8.402157 -15.737631 58.558256
-7.867059 -15.150593 59.050325
-8.854579 -14.74308 58.24966
-8.999257 -16.320726 57.971485
-8.402157 -15.737631 58.558256
-9.941043 -15.929645 57.157499
-8.999257 -16.320726 57.971485
-10.895412 -15.505289 56.327948
-9.941043 -15.929645 57.157499
-10.344047 -14.905762 56.928039
-11.753172 -15.130841 55.538069
-11.350169 -16.154725 55.767528
-10.895412 -15.505289 56.327948
-23.018227 -8.844955 43.313558
-22.674984 -9.893294 43.640242
-22.277523 -9.237426 44.185524
-23.77261 -8.412931 42.396591
-23.018227 -8.844955 43.313558
-23.375149 -7.757062 42.941873
-24.534415 -7.950391 41.508164
-23.77261 -8.412931 42.396591
-28.256435 -6.17138 37.066851
-27.514477 -6.511024 37.963997
-27.943328 -5.441391 37.409982
-29.090659 -5.797229 36.092237
-28.256435 -6.17138 37.066851
-29.836217 -5.432652 35.179714
-29.090659 -5.797229 36.092237
-29.430845 -4.73717 35.600313
-30.594517 -5.123121 34.28017
-29.836217 -5.432652 35.179714
-34.343773 -4.108763 29.557158
-33.637776 -4.324354 30.507518
-33.985233 -3.286684 29.873018
-35.029324 -4.00746 28.63879
-34.681866 -5.04513 29.273291
-34.343773 -4.108763 29.557158
-38.981752 -3.598902 21.723688
-38.51541 -3.550795 22.802012
-38.765041 -2.54005 21.990218
-39.355095 -3.695546 20.717244
-38.981752 -3.598902 21.723688
-39.355095 -3.695546 20.717244
-39.546741 -2.583331 19.877313
-40.342912 4.74374 14.686903
-40.259771 3.729961 15.487958
-40.142998 4.779073 15.758302
-40.342912 4.74374 14.686903
-40.379927 5.76046 13.877907
-39.886522 13.701018 6.723607
-40.065876 12.48209 7.407038
-39.959589 13.678489 7.720368
-39.702743 14.901096 6.039007
-39.809031 13.704697 5.725677
-39.886522 13.701018 6.723607
-7.995564 -9.51534 58.744748
-8.418059 -8.601263 58.31393
-8.573166 -10.084204 58.375691
-7.604577 -10.4605 59.1376
-7.995564 -9.51534 58.744748
-9.925094 -8.775031 57.170786
-9.36353 -8.269968 57.548975
-10.324471 -7.905955 56.736923
-37.308039 17.165105 14.94886
-37.455092 16.099711 15.561508
-36.875889 17.059521 16.043408
-37.705275 17.307223 13.829462
-37.308039 17.165105 14.94886
-38.043198 17.473583 12.679508
-38.225164 16.371654 13.317007
-37.705275 17.307223 13.829462
-38.336464 17.672632 11.544569
-38.043198 17.473583 12.679508
-38.562587 17.800328 10.488412
-38.789211 16.665711 11.110897
-38.336464 17.672632 11.544569
-38.79315 17.895632 9.375101
-38.562587 17.800328 10.488412
-38.922315 18.02471 8.320483
-39.1445 16.922483 9.000123
-38.79315 17.895632 9.375101
-39.044635 18.120455 7.231112
-38.922315 18.02471 8.320483
-14.460189 -0.338738 51.564257
-15.016918 -0.798039 51.18185
-14.195567 -1.246601 52.059443
-14.460189 -0.338738 51.564257
-13.97223 0.19371 51.865319
-11.106417 -6.04104 55.797774
-10.69681 -6.975899 56.288786
-11.994087 -5.588538 54.974371
-11.106417 -6.04104 55.797774
-11.469792 -5.078672 55.309685
-29.501207 8.922262 31.802247
-28.788149 8.538697 32.846901
-30.210197 9.285925 30.771793
-30.922149 9.733624 29.665419
-30.11874 8.283314 31.272975
-29.501207 8.922262 31.802247
-30.210197 9.285925 30.771793
-33.032402 15.115956 24.127455
-33.066052 14.066934 24.650852
-33.61981 15.493375 22.995578
-33.032402 15.115956 24.127455
-34.245354 14.690346 22.502106
-33.61981 15.493375 22.995578
-35.348404 16.270612 19.639459
-35.408947 15.194935 20.263212
-35.893006 16.549758 18.435791
-35.348404 16.270612 19.639459
-36.396587 16.838928 17.228518
-36.51936 15.704957 17.863327
-35.893006 16.549758 18.435791
-36.875889 17.059521 16.043408
-36.396587 16.838928 17.228518
-20.744976 -11.793267 45.727413
-19.983628 -12.179009 46.596991
-21.174844 -10.724867 45.395044
-21.504413 -11.354166 44.844576
-20.744976 -11.793267 45.727413
-17.985511 1.133424 47.707234
-17.237689 0.621912 48.62006
-18.749923 1.625186 46.758465
-19.497327 2.129094 45.80961
-18.501099 0.629856 47.304123
-17.985511 1.133424 47.707234
-18.749923 1.625186 46.758465
-24.559087 5.797764 38.907908
-24.407429 4.793034 39.396842
-23.829202 5.325971 39.915493
-25.289651 6.229154 37.896772
-24.559087 5.797764 38.907908
-26.007203 6.710311 36.883405
-25.854866 5.745983 37.375889
-25.289651 6.229154 37.896772
-26.708216 7.192225 35.871624
-26.007203 6.710311 36.883405
-6.744188 -12.369911 59.913825
-7.181949 -11.424583 59.53188
-7.744419 -11.974691 59.150488
-6.744188 -12.369911 59.913825
-6.276208 -13.343239 60.296246
-13.497054 -15.813675 53.555382
-12.648004 -16.319254 54.360205
-13.056978 -15.274698 54.172827
-13.497054 -15.813675 53.555382
-14.292651 -15.372007 52.767185
-16.795381 -14.062724 50.131031
-15.976679 -14.494305 51.014581
-16.392782 -13.453435 50.778413
-16.795381 -14.062724 50.131031
-17.631767 -13.590342 49.223526
-22.210588 -11.010576 44.036237
-22.674984 -9.893294 43.640242
-25.278361 -7.524835 40.604224
-24.534415 -7.950391 41.508164
-24.873479 -6.899483 41.120966
-26.001314 -7.190207 39.757677
-26.409398 -6.127482 39.262078
-26.793286 -6.843761 38.802729
-25.278361 -7.524835 40.604224
-26.001314 -7.190207 39.757677
-31.371356 -4.867432 33.323569
-30.594517 -5.123121 34.28017
-30.953243 -4.116904 33.731188
-31.74674 -5.646847 32.982039
-31.371356 -4.867432 33.323569
-32.105466 -4.640629 32.433056
-32.120199 -6.483787 32.618462
-31.74674 -5.646847 32.982039
-32.120199 -6.483787 32.618462
-32.822626 -6.361471 31.788649
-34.98303 -5.921424 29.011373
-34.681866 -5.04513 29.273291
-34.98303 -5.921424 29.011373
-35.658596 -5.896615 28.093809
-37.485119 -3.602885 24.81747
-37.759962 -2.529164 24.06955
-38.023855 -3.565665 23.816463
-37.185335 -4.703172 25.526905
-36.921442 -3.666672 25.779992
-37.485119 -3.602885 24.81747
-36.917484 -5.805338 26.182431
-37.185335 -4.703172 25.526905
-40.017286 0.5103 17.602307
-39.861208 -0.47099 18.378727
-39.751091 0.569273 18.626745
-40.017286 0.5103 17.602307
-40.125698 1.572564 16.806002
-40.202041 2.679929 16.160517
-40.259771 3.729961 15.487958
-40.334299 9.110627 11.689972
-40.381107 7.982504 12.374838
-40.213953 9.160056 12.752065
-40.433104 9.077898 10.663819
-40.334299 9.110627 11.689972
-40.265949 10.25545 11.041045
-40.406736 9.074337 9.65398
-40.433104 9.077898 10.663819
-40.325289 10.198633 8.996165
-40.251848 11.341141 9.209345
-40.212384 11.317053 8.190618
-40.406736 9.074337 9.65398
-40.325289 10.198633 8.996165
-39.613806 13.681793 4.797885
-39.809031 13.704697 5.725677
-39.613806 13.681793 4.797885
-39.420926 14.790853 4.110063
-39.087044 18.150433 6.159866
-39.316074 17.08154 6.874259
-39.044635 18.120455 7.231112
-39.112082 18.179794 5.139794
-39.087044 18.150433 6.159866
-39.034247 18.160078 4.145745
-39.280647 17.091804 4.808963
-39.112082 18.179794 5.139794
-38.950133 18.167757 3.222468
-39.034247 18.160078 4.145745
-39.004718 17.075529 2.930059
-38.950133 18.167757 3.222468
3 0 57 55
3 0 60 58
3 0 55 60
3 1 64 62
3 2 67 65
3 2 69 67
3 2 71 69
3 213 74 214
3 215 76 216
3 217 216 74
3 215 216 217
3 218 78 219
3 220 219 76
3 218 219 220
3 5 81 79
3 7 84 82
3 7 86 84
3 8 91 89
3 8 92 91
3 8 93 92
3 5 96 94
3 5 79 96
3 6 99 98
3 9 102 100
3 9 103 102
3 3 106 104
3 10 109 107
3 10 111 109
3 10 113 111
3 11 116 114
3 11 221 223
3 223 222 116
3 221 222 223
3 11 224 225
3 12 226 228
3 228 227 117
3 226 227 228
3 12 229 230
3 4 120 118
3 13 123 121
3 13 125 123
3 13 127 125
3 14 130 128
3 16 131 56
3 16 132 131
3 231 133 232
3 18 134 59
3 18 135 134
3 18 137 135
3 14 138 61
3 14 128 138
3 20 141 139
3 22 142 63
3 22 143 142
3 23 146 144
3 25 147 66
3 25 148 147
3 25 150 148
3 27 151 68
3 27 152 151
3 27 154 152
3 29 155 70
3 29 156 155
3 31 160 158
3 233 161 234
3 235 234 72
3 233 234 235
3 237 236 161
3 31 238 239
3 31 240 242
3 240 158 241
3 240 241 242
3 33 164 162
3 35 165 73
3 35 166 165
3 36 243 245
3 243 167 244
3 243 244 245
3 36 168 167
3 36 169 168
3 37 170 75
3 37 171 170
3 37 173 171
3 246 174 247
3 248 247 77
3 246 247 248
3 249 175 250
3 251 250 174
3 249 250 251
3 39 252 254
3 252 176 253
3 252 253 254
3 41 177 80
3 41 178 177
3 15 179 129
3 42 180 83
3 42 181 180
3 42 182 181
3 43 183 85
3 43 184 183
3 32 185 159
3 44 186 87
3 44 187 186
3 45 255 257
3 255 188 256
3 255 256 257
3 45 189 188
3 45 190 189
3 46 191 88
3 46 192 191
3 46 193 192
3 17 258 259
3 261 260 90
3 47 262 264
3 262 263 264
3 47 265 266
3 19 194 136
3 48 195 95
3 48 267 269
3 269 268 195
3 267 268 269
3 48 270 271
3 39 272 274
3 274 273 97
3 272 273 274
3 39 275 276
3 40 277 278
3 21 196 140
3 280 279 101
3 34 197 163
3 49 198 105
3 49 199 198
3 24 200 145
3 50 201 108
3 50 202 201
3 50 203 202
3 281 204 282
3 283 282 110
3 281 282 283
3 285 284 204
3 51 286 288
3 288 287 112
3 286 287 288
3 51 289 290
3 26 205 149
3 292 291 115
3 28 293 295
3 295 294 153
3 293 294 295
3 38 206 172
3 52 207 119
3 52 208 207
3 30 209 157
3 53 210 122
3 53 211 210
3 53 212 211
3 297 296 124
3 54 298 300
3 300 299 126
3 298 299 300
3 54 301 302
3 55 56 14
3 57 56 55
3 57 16 56
3 58 303 305
3 303 59 304
3 303 304 305
3 60 59 58
3 60 18 59
3 60 61 18
3 55 61 60
3 55 14 61
3 62 63 20
3 64 63 62
3 64 22 63
3 65 66 23
3 67 66 65
3 67 25 66
3 67 68 25
3 69 68 67
3 69 27 68
3 69 70 27
3 71 70 69
3 71 29 70
3 306 72 307
3 308 307 31
3 306 307 308
3 309 72 310
3 312 311 72
3 313 31 314
3 315 73 316
3 317 316 33
3 315 316 317
3 318 73 319
3 320 35 321
3 322 321 73
3 320 321 322
3 74 323 324
3 74 325 327
3 325 36 326
3 325 326 327
3 74 75 36
3 76 75 74
3 76 37 75
3 76 77 37
3 78 77 76
3 78 328 330
3 330 329 77
3 328 329 330
3 79 80 39
3 81 80 79
3 81 41 80
3 82 83 15
3 84 83 82
3 84 42 83
3 84 85 42
3 86 85 84
3 86 43 85
3 331 87 332
3 333 332 32
3 331 332 333
3 334 87 335
3 336 44 337
3 338 337 87
3 336 337 338
3 339 45 340
3 341 88 342
3 343 342 45
3 341 342 343
3 344 88 345
3 346 46 347
3 348 347 88
3 346 347 348
3 350 349 46
3 89 90 17
3 91 90 89
3 91 351 353
3 353 352 90
3 351 352 353
3 91 354 355
3 92 356 358
3 358 357 91
3 356 357 358
3 92 359 360
3 92 361 362
3 93 363 365
3 365 364 92
3 363 364 365
3 93 366 368
3 366 47 367
3 366 367 368
3 94 95 19
3 96 95 94
3 96 48 95
3 96 97 48
3 79 97 96
3 79 39 97
3 98 369 371
3 371 370 40
3 369 370 371
3 99 372 374
3 374 373 98
3 372 373 374
3 99 375 376
3 100 101 21
3 102 101 100
3 102 377 379
3 379 378 101
3 377 378 379
3 102 380 381
3 103 382 384
3 384 383 102
3 382 383 384
3 103 385 386
3 104 105 34
3 106 105 104
3 106 49 105
3 107 108 24
3 109 108 107
3 109 50 108
3 109 110 50
3 111 110 109
3 111 387 389
3 389 388 110
3 387 388 389
3 111 390 392
3 390 112 391
3 390 391 392
3 113 112 111
3 113 51 112
3 114 115 26
3 116 115 114
3 116 393 395
3 395 394 115
3 393 394 395
3 116 396 397
3 399 398 116
3 117 400 402
3 402 401 28
3 400 401 402
3 404 403 117
3 118 119 38
3 120 119 118
3 120 52 119
3 121 122 30
3 123 122 121
3 123 53 122
3 123 124 53
3 125 124 123
3 125 405 407
3 407 406 124
3 405 406 407
3 125 408 410
3 408 126 409
3 408 409 410
3 127 126 125
3 127 54 126
3 128 129 5
3 130 129 128
3 130 15 129
3 56 130 14
3 131 130 56
3 131 15 130
3 131 82 15
3 132 82 131
3 132 7 82
3 133 411 412
3 133 413 415
3 413 17 414
3 413 414 415
3 59 416 418
3 416 133 417
3 416 417 418
3 134 133 59
3 134 17 133
3 134 89 17
3 135 89 134
3 135 8 89
3 135 136 8
3 137 136 135
3 137 19 136
3 61 137 18
3 138 137 61
3 138 19 137
3 138 94 19
3 128 94 138
3 128 5 94
3 139 140 6
3 141 140 139
3 141 21 140
3 63 141 20
3 142 141 63
3 142 21 141
3 142 100 21
3 143 100 142
3 143 9 100
3 144 145 3
3 146 145 144
3 146 24 145
3 66 146 23
3 147 146 66
3 147 24 146
3 147 107 24
3 148 107 147
3 148 10 107
3 148 149 10
3 150 149 148
3 150 26 149
3 68 150 25
3 151 150 68
3 151 26 150
3 151 114 26
3 152 114 151
3 152 11 114
3 152 153 11
3 154 153 152
3 154 28 153
3 70 154 27
3 155 154 70
3 155 28 154
3 155 117 28
3 156 117 155
3 156 12 117
3 419 157 420
3 421 420 4
3 419 420 421
3 422 157 423
3 424 30 425
3 426 425 157
3 424 425 426
3 427 30 428
3 429 121 430
3 431 430 30
3 429 430 431
3 432 121 433
3 434 13 435
3 436 435 121
3 434 435 436
3 438 437 13
3 158 159 0
3 160 159 158
3 160 32 159
3 72 160 31
3 161 160 72
3 161 32 160
3 161 439 441
3 441 440 32
3 439 440 441
3 443 442 161
3 444 58 445
3 158 446 448
3 446 58 447
3 446 447 448
3 158 0 58
3 162 163 1
3 164 163 162
3 164 34 163
3 73 164 33
3 165 164 73
3 165 34 164
3 165 104 34
3 166 104 165
3 166 3 104
3 449 35 450
3 167 451 452
3 167 453 455
3 453 35 454
3 453 454 455
3 167 166 35
3 168 166 167
3 168 3 166
3 168 144 3
3 169 144 168
3 169 23 144
3 75 169 36
3 170 169 75
3 170 23 169
3 170 65 23
3 171 65 170
3 171 2 65
3 171 172 2
3 173 172 171
3 173 38 172
3 77 173 37
3 174 173 77
3 174 38 173
3 174 118 38
3 175 118 174
3 175 4 118
3 456 78 457
3 458 78 459
3 461 460 78
3 462 175 463
3 464 175 465
3 466 4 467
3 468 467 175
3 466 467 468
3 470 469 4
3 176 471 472
3 176 473 475
3 473 40 474
3 473 474 475
3 80 176 39
3 177 176 80
3 177 40 176
3 177 98 40
3 178 98 177
3 178 6 98
3 129 81 5
3 179 81 129
3 179 41 81
3 83 179 15
3 180 179 83
3 180 41 179
3 180 178 41
3 181 178 180
3 181 6 178
3 181 139 6
3 182 139 181
3 182 20 139
3 85 182 42
3 183 182 85
3 183 20 182
3 183 62 20
3 184 62 183
3 184 1 62
3 159 57 0
3 185 57 159
3 185 16 57
3 87 185 32
3 186 185 87
3 186 16 185
3 186 132 16
3 187 132 186
3 187 7 132
3 476 44 477
3 188 478 479
3 188 480 482
3 480 44 481
3 480 481 482
3 188 187 44
3 189 187 188
3 189 7 187
3 189 86 7
3 190 86 189
3 190 43 86
3 88 190 45
3 191 190 88
3 191 43 190
3 191 184 43
3 192 184 191
3 192 1 184
3 192 162 1
3 193 162 192
3 193 33 162
3 483 193 484
3 485 484 46
3 483 484 485
3 486 193 487
3 488 33 489
3 490 489 193
3 488 489 490
3 492 491 33
3 90 493 495
3 495 494 17
3 493 494 495
3 497 496 90
3 136 93 8
3 194 93 136
3 194 47 93
3 95 194 19
3 195 194 95
3 195 47 194
3 195 498 500
3 500 499 47
3 498 499 500
3 502 501 195
3 97 503 505
3 505 504 48
3 503 504 505
3 507 506 97
3 509 508 40
3 140 99 6
3 196 99 140
3 196 510 512
3 512 511 99
3 510 511 512
3 101 196 21
3 513 196 514
3 515 514 101
3 513 514 515
3 517 516 196
3 163 64 1
3 197 64 163
3 197 22 64
3 105 197 34
3 198 197 105
3 198 22 197
3 198 143 22
3 199 143 198
3 199 9 143
3 145 106 3
3 200 106 145
3 200 49 106
3 108 200 24
3 201 200 108
3 201 49 200
3 201 199 49
3 202 199 201
3 202 9 199
3 202 103 9
3 203 103 202
3 203 518 520
3 520 519 103
3 518 519 520
3 110 203 50
3 204 203 110
3 204 521 523
3 523 522 203
3 521 522 523
3 204 524 525
3 527 526 204
3 112 528 529
3 531 530 112
3 149 113 10
3 205 113 149
3 205 51 113
3 115 205 26
3 532 205 533
3 534 533 115
3 532 533 534
3 535 51 536
3 537 536 205
3 535 536 537
3 539 538 51
3 153 540 542
3 542 541 11
3 540 541 542
3 544 543 153
3 546 545 28
3 172 71 2
3 206 71 172
3 206 29 71
3 119 206 38
3 207 206 119
3 207 29 206
3 207 156 29
3 208 156 207
3 208 12 156
3 157 120 4
3 209 120 157
3 209 52 120
3 122 209 30
3 210 209 122
3 210 52 209
3 210 208 52
3 211 208 210
3 211 12 208
3 211 547 549
3 549 548 12
3 547 548 549
3 212 550 552
3 552 551 211
3 550 551 552
3 212 553 554
3 124 212 53
3 555 212 556
3 557 556 124
3 555 556 557
3 559 558 212
3 126 560 561
3 563 562 126
3 564 127 565
3 566 565 13
3 564 565 566
3 567 127 568
3 569 54 570
3 571 570 127
3 569 570 571
3 572 54 573
3 575 574 54
