ply
format ascii 1.0
element vertex 491
property float x
property float y
property float z
element face 523
property list uchar int vertex_index
end_header
-27.354795 19.371479 30.305189
-17.198212 10.592589 45.956512
-35.11507 24.750526 11.964375
-11.346878 6.223547 52.507805
-15.77923 2.084874 49.641827
-31.695795 22.519112 21.35211
-27.077841 10.260905 34.352482
-32.443512 13.727259 25.753315
-22.534742 15.368912 38.482899
-21.563957 6.250315 42.286362
-36.884892 25.444469 3.244007
-8.266015 4.103002 55.479713
-10.53962 2.151714 54.241386
-29.615925 21.017859 25.903303
-26.881182 24.32011 28.382261
-27.533676 14.69838 32.098919
-29.86791 12.04845 30.073067
-29.934385 16.585411 27.892733
-32.247177 18.119759 23.528206
-19.94381 12.913456 42.33535
-20.07147 17.801311 40.857975
-16.575878 6.095417 47.736008
-18.663134 4.163206 46.11187
-19.482025 8.480702 44.017788
-22.140652 10.542712 40.37056
-36.317749 25.182802 7.45475
-36.291824 20.258337 14.322376
-37.573227 20.98493 9.755327
-38.245049 21.330654 5.330906
-14.153295 8.329476 49.512184
-12.669014 0.138696 53.031136
-13.609387 4.104956 51.099285
-33.536545 23.87479 16.637783
-34.802116 14.974083 21.455824
-34.433891 19.35173 18.95965
-25.016638 17.375242 34.5126
-24.837931 22.240438 32.776894
-22.543154 20.158031 36.93121
-24.396023 8.44252 38.268478
-24.811153 12.837252 36.355034
-28.473806 20.285997 28.13121
-28.200516 22.737516 27.142439
-27.239651 21.7477 29.27038
-27.521336 17.01856 31.147547
-28.71196 15.854358 29.986496
-28.665688 18.06249 29.008204
-29.86351 18.805534 26.818344
-18.584778 11.91135 44.136673
-18.698315 14.35682 43.389252
-17.302372 13.033263 45.246986
-16.857405 8.309629 46.876511
-17.965891 7.316104 45.975857
-18.331093 9.39625 45.046024
-19.744896 10.656672 43.148895
-35.741947 25.039967 9.743575
-35.078304 27.118294 8.510171
-34.46312 26.866724 10.803795
-35.699425 22.558168 13.199208
-36.996037 20.73284 11.958625
-36.356812 23.015934 10.820831
-36.984333 23.141232 8.501763
-12.744125 7.188514 51.069221
-12.912009 9.390967 50.377159
-11.514824 8.287932 51.850773
-10.95718 4.158526 53.362934
-12.069392 3.037102 52.737122
-12.547916 5.135573 51.764603
-13.920815 6.247594 50.250744
-32.634159 23.30471 18.969339
-32.063694 25.567303 17.954548
-31.189913 24.969246 20.227827
-26.844013 8.157309 35.380726
-28.166548 9.157743 33.390373
-31.193005 12.934252 27.895952
-31.016569 10.820271 29.088318
-32.068302 20.404274 22.292027
-33.3578 18.71953 21.32015
-33.136375 21.017075 19.974195
-34.036118 21.637335 17.769188
-23.791945 16.240606 36.569855
-23.830181 18.774618 35.644981
-22.664261 17.719925 37.583069
-15.28154 0.109823 50.686665
-16.738691 1.10573 48.987228
-20.125492 5.117217 44.244694
-19.729143 3.136571 45.263866
-21.175974 4.242414 43.324394
-22.574165 5.137431 41.448097
-23.98086 6.330701 39.426559
-22.971985 7.363726 40.308651
-22.43718 12.890892 39.336987
-23.556242 11.621928 38.322891
-23.700825 13.95233 37.424091
-25.092682 15.119 35.219749
-37.63076 23.362352 4.162491
-37.628632 23.489517 2.271924
-9.733996 5.170419 54.079327
-10.066601 7.165518 53.310478
-8.5078 6.080489 54.786671
-9.407681 3.17032 54.857788
-30.608212 22.001535 23.618513
-30.260336 24.369364 22.45195
-29.297951 23.475182 24.809587
-27.333876 12.482167 33.216343
-28.483053 11.223175 32.20837
-28.720591 13.467319 31.00136
-29.968801 14.380502 28.904816
-31.191387 15.093775 26.836111
-32.376213 15.825304 24.706522
-31.126913 17.329247 25.727177
-30.978539 19.750612 24.513245
-21.245594 14.161083 40.44323
-21.329819 16.602568 39.646038
-20.028307 15.376603 41.582825
-18.805439 16.837313 42.617596
-16.218414 4.120798 48.631912
-17.212681 3.177841 47.905334
-17.753828 5.286197 46.749241
-19.136374 6.252377 45.0079
-20.511702 7.297572 43.185604
-21.905886 8.448339 41.24873
-20.852888 9.433357 42.201221
-21.145021 11.737624 41.229176
-36.674309 25.360483 5.322797
-35.949509 27.306625 4.225369
-36.728836 18.124916 15.43076
-37.523308 18.409151 13.191963
-38.10984 18.807249 10.922084
-38.570965 18.997858 8.695462
-38.815605 19.189348 6.516719
-38.051048 21.039953 7.553891
-37.393791 23.29179 6.307987
-15.680571 9.516026 47.761711
-15.918391 11.88544 46.950134
-14.418795 10.728676 48.680359
-14.305622 1.174721 51.288788
-11.615325 1.140019 53.640759
-13.181273 2.082622 52.040447
-14.749125 3.05037 50.34375
-15.022858 5.089121 49.525837
-15.398251 7.212796 48.610027
-34.454178 24.247566 14.223005
-33.79039 26.431965 13.170094
-32.979866 26.0676 15.494598
-29.592663 9.924873 31.301065
-33.551029 16.580141 22.442768
-34.68103 17.125437 20.208319
-35.770233 17.683729 17.800982
-35.382935 19.939631 16.625891
-34.899094 22.133488 15.521119
-26.245367 18.281506 32.423199
-26.142828 20.874073 31.416809
-25.072014 19.744267 33.50782
-23.731703 21.282671 34.834663
-21.338165 19.040848 38.901833
-18.234335 2.128755 47.161575
-25.441988 7.193483 37.404289
-25.755404 9.327297 36.320053
-23.24588 9.552616 39.324818
-24.668123 10.538129 37.273495
-25.969995 11.529703 35.310841
-26.177513 13.720789 34.275909
-26.336752 16.001781 33.215839
-25.92259 23.272934 30.56419
-32.447918 12.633207 26.294559
-31.822664 12.236704 27.365878
-31.818258 13.330756 26.824634
-33.078171 12.95963 25.243447
-32.447918 12.633207 26.294559
-33.066052 14.066934 24.650852
-33.078171 12.95963 25.243447
-36.498942 26.409435 2.73214
-36.526332 26.375201 1.756817
-36.912283 25.410235 2.268683
-36.912283 25.410235 2.268683
-37.284153 24.432759 1.782642
-37.256762 24.466993 2.757966
-8.836848 3.636661 55.168751
-8.684919 2.733472 55.518917
-8.114086 3.199814 55.829879
-27.369889 24.751404 27.255574
-28.029556 23.960107 26.635663
-27.540849 23.528813 27.76235
-26.674063 25.598119 27.914513
-27.369889 24.751404 27.255574
-18.126213 16.231957 43.528435
-18.751877 15.597067 43.003424
-18.072651 14.99171 43.914263
-18.11703 17.411994 43.229296
-18.126213 16.231957 43.528435
-35.939115 26.256598 6.852007
-36.117396 26.345439 5.78603
-36.496029 25.271642 6.388773
-34.701614 28.128884 7.986266
-34.333075 28.145646 9.166846
-12.982655 10.565846 50.027656
-12.254599 9.932507 50.809379
-10.103089 8.216826 53.019058
-9.334534 7.619383 53.760969
-13.153925 -0.324302 52.736492
-12.339554 -0.825911 53.570539
-13.487318 0.656708 52.159962
-13.97223 0.19371 51.865319
-13.153925 -0.324302 52.736492
-11.077472 1.645866 53.941073
-10.809037 0.681659 54.413516
-10.271185 1.187507 54.713829
-31.759091 26.666842 17.444423
-31.303959 26.49306 18.575108
-29.979445 25.573113 21.962352
-29.532077 25.172235 23.142131
-30.922149 9.733624 29.665419
-31.566992 10.169878 28.648698
-35.448639 14.161612 20.892074
-34.902792 13.85359 21.975679
-35.408947 15.194935 20.263212
-35.448639 14.161612 20.892074
-22.45398 21.470892 36.570032
-23.048254 22.033212 35.521759
-23.137428 20.720351 35.882936
-15.997837 13.086906 46.574883
-15.232034 12.510533 47.46207
-19.497327 2.129094 45.80961
-20.215908 2.654898 44.864948
-35.526972 28.31317 3.697106
-35.342059 28.356497 4.69708
-33.434187 27.525733 12.621694
-33.058191 27.332487 13.804603
-38.555365 20.289361 4.90374
-38.840643 19.218708 5.496647
-38.530327 20.260001 5.923813
-7.020008 3.988545 56.423956
-7.683868 4.502529 55.8027
-7.602155 3.589019 56.100969
-7.602155 3.589019 56.100969
-8.114086 3.199814 55.829879
-17.374679 14.329932 44.84313
-18.072651 14.99171 43.914263
-18.000343 13.695042 44.318119
-34.025483 28.019861 10.313657
-34.333075 28.145646 9.166846
-34.770712 26.992509 9.656983
-11.556006 9.38099 51.546186
-12.254599 9.932507 50.809379
-12.213417 8.83945 51.113966
-11.902179 -0.308269 53.791363
-12.339554 -0.825911 53.570539
-11.572718 -1.272876 54.330766
-30.867069 26.194032 19.711748
-31.303959 26.49306 18.575108
-31.626804 25.268274 19.091188
-27.413403 7.610451 34.874398
-26.708216 7.192225 35.871624
-28.07467 8.110668 33.879221
-27.413403 7.610451 34.874398
-27.50528 8.657526 34.385549
-28.788149 8.538697 32.846901
-28.07467 8.110668 33.879221
-31.734446 11.179713 27.962061
-31.104787 11.877261 28.492135
-31.822664 12.236704 27.365878
-31.566992 10.169878 28.648698
-31.734446 11.179713 27.962061
-34.245354 14.690346 22.502106
-34.902792 13.85359 21.975679
-20.073833 19.148669 40.453772
-19.457111 18.535024 41.378348
-15.79357 -0.422666 50.340879
-15.016918 -0.798039 51.18185
-16.522146 0.075288 49.491161
-15.79357 -0.422666 50.340879
-16.010115 0.607777 49.836946
-17.237689 0.621912 48.62006
-16.522146 0.075288 49.491161
-20.939324 3.20782 43.895212
-20.215908 2.654898 44.864948
-20.452559 3.689493 44.29413
-21.675868 3.700902 42.912104
-20.939324 3.20782 43.895212
-22.374963 4.148411 41.973955
-21.675868 3.700902 42.912104
-21.87507 4.689922 42.386246
-23.125855 4.729337 40.926262
-22.374963 4.148411 41.973955
-23.277513 5.734066 40.437328
-23.829202 5.325971 39.915493
-23.125855 4.729337 40.926262
-24.720619 23.535296 32.328547
-24.205794 23.021218 33.38745
-37.960678 22.370843 3.741181
-38.267823 21.354995 4.325388
-37.937905 22.346503 4.746698
-37.959614 22.434426 2.795897
-37.960678 22.370843 3.741181
-37.629696 23.425935 3.217207
-37.874665 22.433089 1.877526
-37.959614 22.434426 2.795897
-37.569563 23.406722 1.384537
-37.874665 22.433089 1.877526
-37.569563 23.406722 1.384537
-37.284153 24.432759 1.782642
-8.555134 7.076869 54.499066
-9.334534 7.619383 53.760969
-9.287201 6.623003 54.048575
-7.804761 5.491272 55.456179
-8.386907 5.091746 55.133192
-7.683868 4.502529 55.8027
-7.829068 6.481598 55.183714
-7.804761 5.491272 55.456179
-8.555134 7.076869 54.499066
-7.829068 6.481598 55.183714
-9.749201 1.742841 54.966127
-10.271185 1.187507 54.713829
-9.183232 2.252144 55.274328
-8.684919 2.733472 55.518917
-9.97365 2.661017 54.549587
-9.749201 1.742841 54.966127
-9.183232 2.252144 55.274328
-29.050885 24.725144 24.32095
-29.532077 25.172235 23.142131
-29.779143 23.922273 23.630769
-28.578273 24.32894 25.469237
-28.749234 23.106349 25.976013
-28.029556 23.960107 26.635663
-29.050885 24.725144 24.32095
-28.578273 24.32894 25.469237
-18.824095 18.053024 42.258158
-19.457111 18.535024 41.378348
-19.438454 17.319312 41.737786
-18.824095 18.053024 42.258158
-18.11703 17.411994 43.229296
-35.754995 27.31851 5.237317
-36.311909 26.333554 4.774083
-36.117396 26.345439 5.78603
-35.342059 28.356497 4.69708
-35.754995 27.31851 5.237317
-35.319393 27.224345 7.379717
-35.939115 26.256598 6.852007
-35.698026 26.150548 7.982461
-35.319393 27.224345 7.379717
-34.701614 28.128884 7.986266
-37.308039 17.165105 14.94886
-36.875889 17.059521 16.043408
-37.705275 17.307223 13.829462
-37.308039 17.165105 14.94886
-37.126072 18.267034 14.311362
-38.043198 17.473583 12.679508
-37.705275 17.307223 13.829462
-38.336464 17.672632 11.544569
-38.043198 17.473583 12.679508
-37.816574 18.6082 12.057023
-38.562587 17.800328 10.488412
-38.336464 17.672632 11.544569
-38.79315 17.895632 9.375101
-38.562587 17.800328 10.488412
-38.340402 18.902553 9.808773
-38.922315 18.02471 8.320483
-38.79315 17.895632 9.375101
-38.693285 19.093603 7.60609
-39.044635 18.120455 7.231112
-38.922315 18.02471 8.320483
-14.482236 11.932151 48.327183
-15.232034 12.510533 47.46207
-15.168593 11.307058 47.815247
-13.736048 11.2347 49.179257
-13.665402 10.059821 49.528759
-12.982655 10.565846 50.027656
-14.482236 11.932151 48.327183
-13.736048 11.2347 49.179257
-10.8272 8.778033 52.289205
-10.790713 7.726725 52.580625
-10.103089 8.216826 53.019058
-11.556006 9.38099 51.546186
-10.8272 8.778033 52.289205
-14.460189 -0.338738 51.564257
-15.016918 -0.798039 51.18185
-14.793581 0.642272 50.987726
-14.460189 -0.338738 51.564257
-13.97223 0.19371 51.865319
-11.375334 0.192393 54.096175
-10.809037 0.681659 54.413516
-12.14217 0.639357 53.335948
-11.902179 -0.308269 53.791363
-11.375334 0.192393 54.096175
-32.652929 27.150304 14.966855
-33.058191 27.332487 13.804603
-33.385128 26.249783 14.332346
-32.217177 26.91699 16.214448
-32.52178 25.817451 16.724573
-31.759091 26.666842 17.444423
-32.652929 27.150304 14.966855
-32.217177 26.91699 16.214448
-30.444234 25.873053 20.85029
-30.725124 24.669305 21.339889
-29.979445 25.573113 21.962352
-30.867069 26.194032 19.711748
-30.444234 25.873053 20.85029
-29.501207 8.922262 31.802247
-28.788149 8.538697 32.846901
-28.879606 9.541308 32.345719
-30.210197 9.285925 30.771793
-30.304616 10.372572 30.194692
-30.922149 9.733624 29.665419
-29.501207 8.922262 31.802247
-30.210197 9.285925 30.771793
-33.032402 15.115956 24.127455
-33.066052 14.066934 24.650852
-32.409863 14.776281 25.229919
-33.61981 15.493375 22.995578
-33.032402 15.115956 24.127455
-32.963621 16.202723 23.574645
-34.176572 15.777112 21.949296
-34.245354 14.690346 22.502106
-33.61981 15.493375 22.995578
-35.348404 16.270612 19.639459
-35.408947 15.194935 20.263212
-34.741573 16.04976 20.832071
-35.893006 16.549758 18.435791
-35.348404 16.270612 19.639459
-35.225631 17.404583 19.004651
-36.396587 16.838928 17.228518
-35.893006 16.549758 18.435791
-36.249534 17.904322 16.615871
-36.875889 17.059521 16.043408
-36.396587 16.838928 17.228518
-23.65268 22.542335 34.416334
-24.205794 23.021218 33.38745
-24.284817 21.761555 33.805779
-23.65268 22.542335 34.416334
-23.048254 22.033212 35.521759
-20.707181 19.768438 39.475701
-20.704818 18.421079 39.879904
-20.073833 19.148669 40.453772
-21.296908 20.326614 38.53347
-20.707181 19.768438 39.475701
-21.899403 20.885205 37.548159
-21.94066 19.59944 37.916522
-21.296908 20.326614 38.53347
-21.810228 22.198066 37.186982
-22.45398 21.470892 36.570032
-21.899403 20.885205 37.548159
-16.689827 13.660817 45.723309
-16.610381 12.459352 46.09856
-15.997837 13.086906 46.574883
-17.374679 14.329932 44.84313
-16.689827 13.660817 45.723309
-17.985511 1.133424 47.707234
-17.237689 0.621912 48.62006
-17.486513 1.617243 48.074402
-18.749923 1.625186 46.758465
-18.981739 2.632663 46.212721
-19.497327 2.129094 45.80961
-17.985511 1.133424 47.707234
-18.749923 1.625186 46.758465
-24.559087 5.797764 38.907908
-23.829202 5.325971 39.915493
-25.289651 6.229154 37.896772
-24.559087 5.797764 38.907908
-24.711424 6.762092 38.415424
-26.007203 6.710311 36.883405
-25.289651 6.229154 37.896772
-26.143 7.675396 36.392508
-26.708216 7.192225 35.871624
-26.007203 6.710311 36.883405
-36.03125 27.340513 3.222821
-36.498942 26.409435 2.73214
-36.4172 26.375547 3.734688
-36.03125 27.340513 3.222821
-35.526972 28.31317 3.697106
-33.770552 27.743113 11.438544
-34.126755 26.649345 11.986944
-33.434187 27.525733 12.621694
-34.025483 28.019861 10.313657
-33.770552 27.743113 11.438544
-25.262949 24.051544 31.222195
-25.38026 22.756686 31.670542
-24.720619 23.535296 32.328547
-25.729801 24.59077 30.139451
-25.262949 24.051544 31.222195
-26.209097 25.114358 29.048486
-26.401886 23.796522 29.473225
-25.729801 24.59077 30.139451
-26.674063 25.598119 27.914513
-26.209097 25.114358 29.048486
-39.087044 18.150433 6.159866
-39.044635 18.120455 7.231112
-39.112082 18.179794 5.139794
-39.087044 18.150433 6.159866
-38.840643 19.218708 5.496647
-38.555365 20.289361 4.90374
-38.267823 21.354995 4.325388
3 0 42 40
3 0 45 43
3 0 40 45
3 1 49 47
3 1 52 50
3 1 47 52
3 2 56 54
3 2 59 57
3 2 54 59
3 3 63 61
3 3 66 64
3 3 61 66
3 5 70 68
3 6 72 71
3 7 164 166
3 166 165 73
3 164 165 166
3 7 167 168
3 7 169 170
3 5 77 75
3 5 68 77
3 8 81 79
3 4 83 82
3 9 86 84
3 9 87 86
3 9 89 87
3 8 92 90
3 8 79 92
3 10 171 173
3 171 172 173
3 10 95 94
3 10 174 176
3 176 175 95
3 174 175 176
3 11 98 96
3 11 177 179
3 177 99 178
3 177 178 179
3 11 96 99
3 13 102 100
3 14 180 182
3 182 181 41
3 180 181 182
3 14 183 184
3 15 105 103
3 17 106 44
3 17 107 106
3 17 109 107
3 13 110 46
3 13 100 110
3 19 113 111
3 185 114 186
3 187 186 48
3 185 186 187
3 189 188 114
3 21 117 115
3 23 118 51
3 23 119 118
3 23 121 119
3 19 122 53
3 19 111 122
3 25 190 192
3 192 191 123
3 190 191 192
3 194 193 55
3 26 126 125
3 27 127 58
3 27 128 127
3 27 130 128
3 25 131 60
3 25 123 131
3 29 134 132
3 196 195 62
3 198 197 97
3 30 199 200
3 30 201 203
3 201 135 202
3 201 202 203
3 12 204 206
3 204 136 205
3 204 205 206
3 31 137 65
3 31 138 137
3 31 139 138
3 29 140 67
3 29 132 140
3 32 143 141
3 208 207 69
3 210 209 101
3 16 144 104
3 212 211 74
3 33 213 214
3 33 215 216
3 18 145 108
3 34 146 76
3 34 147 146
3 34 148 147
3 32 149 78
3 32 141 149
3 35 152 150
3 37 153 80
3 37 217 219
3 219 218 153
3 217 218 219
3 20 154 112
3 221 220 133
3 22 155 116
3 223 222 85
3 38 156 88
3 38 157 156
3 24 158 120
3 39 159 91
3 39 160 159
3 39 161 160
3 35 162 93
3 35 150 162
3 225 224 124
3 227 226 142
3 36 163 151
3 28 228 230
3 230 229 129
3 228 229 230
3 233 232 11
3 231 232 233
3 234 11 235
3 40 41 13
3 42 41 40
3 42 14 41
3 43 44 15
3 45 44 43
3 45 17 44
3 45 46 17
3 40 46 45
3 40 13 46
3 47 48 19
3 49 48 47
3 49 236 238
3 238 237 48
3 236 237 238
3 50 51 21
3 52 51 50
3 52 23 51
3 52 53 23
3 47 53 52
3 47 19 53
3 54 55 25
3 56 55 54
3 56 239 241
3 241 240 55
3 239 240 241
3 57 58 26
3 59 58 57
3 59 27 58
3 59 60 27
3 54 60 59
3 54 25 60
3 61 62 29
3 63 62 61
3 63 242 244
3 244 243 62
3 242 243 244
3 245 30 246
3 245 246 247
3 64 65 12
3 66 65 64
3 66 31 65
3 66 67 31
3 61 67 66
3 61 29 67
3 68 69 32
3 70 69 68
3 70 248 250
3 250 249 69
3 248 249 250
3 71 251 252
3 72 253 255
3 255 254 71
3 253 254 255
3 72 256 257
3 73 74 16
3 258 74 259
3 260 259 73
3 258 259 260
3 262 261 74
3 263 33 264
3 75 76 18
3 77 76 75
3 77 34 76
3 77 78 34
3 68 78 77
3 68 32 78
3 79 80 35
3 81 80 79
3 81 37 80
3 266 265 20
3 82 267 268
3 83 269 271
3 271 270 82
3 269 270 271
3 83 272 273
3 84 85 22
3 86 85 84
3 86 274 276
3 276 275 85
3 274 275 276
3 86 277 278
3 87 279 281
3 281 280 86
3 279 280 281
3 87 282 283
3 87 284 286
3 284 88 285
3 284 285 286
3 89 88 87
3 89 38 88
3 90 91 24
3 92 91 90
3 92 39 91
3 92 93 39
3 79 93 92
3 79 35 93
3 288 287 36
3 94 289 291
3 291 290 28
3 289 290 291
3 95 292 294
3 294 293 94
3 292 293 294
3 95 295 296
3 95 297 298
3 300 299 95
3 96 97 3
3 98 97 96
3 98 301 303
3 303 302 97
3 301 302 303
3 304 98 305
3 306 305 11
3 304 305 306
3 307 98 308
3 310 309 98
3 311 12 312
3 99 313 314
3 99 315 317
3 315 12 316
3 315 316 317
3 99 64 12
3 96 64 99
3 96 3 64
3 100 101 5
3 102 101 100
3 102 318 320
3 320 319 101
3 318 319 320
3 41 102 13
3 321 102 322
3 323 322 41
3 321 322 323
3 325 324 102
3 103 104 6
3 105 104 103
3 105 16 104
3 44 105 15
3 106 105 44
3 106 16 105
3 106 73 16
3 107 73 106
3 107 7 73
3 107 108 7
3 109 108 107
3 109 18 108
3 46 109 17
3 110 109 46
3 110 18 109
3 110 75 18
3 100 75 110
3 100 5 75
3 111 112 8
3 113 112 111
3 113 20 112
3 48 113 19
3 114 113 48
3 114 20 113
3 114 326 328
3 328 327 20
3 326 327 328
3 330 329 114
3 115 116 4
3 117 116 115
3 117 22 116
3 51 117 21
3 118 117 51
3 118 22 117
3 118 84 22
3 119 84 118
3 119 9 84
3 119 120 9
3 121 120 119
3 121 24 120
3 53 121 23
3 122 121 53
3 122 24 121
3 122 90 24
3 111 90 122
3 111 8 90
3 123 124 10
3 331 124 332
3 333 332 123
3 331 332 333
3 335 334 124
3 55 336 338
3 338 337 25
3 336 337 338
3 340 339 55
3 125 341 342
3 126 343 345
3 345 344 125
3 343 344 345
3 126 346 347
3 58 126 26
3 127 126 58
3 127 348 350
3 350 349 126
3 348 349 350
3 127 351 352
3 128 353 355
3 355 354 127
3 353 354 355
3 128 356 357
3 128 358 360
3 358 129 359
3 358 359 360
3 130 129 128
3 130 28 129
3 60 130 27
3 131 130 60
3 131 28 130
3 131 94 28
3 123 94 131
3 123 10 94
3 132 133 1
3 134 133 132
3 134 361 363
3 363 362 133
3 361 362 363
3 62 134 29
3 364 134 365
3 366 365 62
3 364 365 366
3 368 367 134
3 97 63 3
3 369 63 370
3 371 370 97
3 369 370 371
3 373 372 63
3 374 82 375
3 135 376 378
3 376 82 377
3 376 377 378
3 135 4 82
3 136 379 380
3 136 381 383
3 381 30 382
3 381 382 383
3 65 136 12
3 137 136 65
3 137 30 136
3 137 135 30
3 138 135 137
3 138 4 135
3 138 115 4
3 139 115 138
3 139 21 115
3 67 139 31
3 140 139 67
3 140 21 139
3 140 50 21
3 132 50 140
3 132 1 50
3 141 142 2
3 143 142 141
3 143 384 386
3 386 385 142
3 384 385 386
3 69 143 32
3 387 143 388
3 389 388 69
3 387 388 389
3 391 390 143
3 101 70 5
3 392 70 393
3 394 393 101
3 392 393 394
3 396 395 70
3 104 72 6
3 144 72 104
3 144 397 399
3 399 398 72
3 397 398 399
3 74 144 16
3 400 144 401
3 402 401 74
3 400 401 402
3 404 403 144
3 108 405 407
3 407 406 7
3 405 406 407
3 145 408 410
3 410 409 108
3 408 409 410
3 145 411 413
3 411 33 412
3 411 412 413
3 76 145 18
3 146 145 76
3 146 33 145
3 146 414 416
3 416 415 33
3 414 415 416
3 147 417 419
3 419 418 146
3 417 418 419
3 147 420 421
3 147 422 424
3 422 125 423
3 422 423 424
3 148 125 147
3 148 26 125
3 78 148 34
3 149 148 78
3 149 26 148
3 149 57 26
3 141 57 149
3 141 2 57
3 150 151 0
3 152 151 150
3 152 36 151
3 80 152 35
3 153 152 80
3 153 36 152
3 153 425 427
3 427 426 36
3 425 426 427
3 429 428 153
3 112 81 8
3 154 81 112
3 154 37 81
3 430 154 431
3 432 431 20
3 430 431 432
3 433 154 434
3 435 37 436
3 437 436 154
3 435 436 437
3 440 439 37
3 438 439 440
3 133 49 1
3 441 49 442
3 443 442 133
3 441 442 443
3 445 444 49
3 116 83 4
3 155 83 116
3 155 446 448
3 448 447 83
3 446 447 448
3 85 155 22
3 449 155 450
3 451 450 85
3 449 450 451
3 453 452 155
3 88 454 455
3 156 456 458
3 458 457 88
3 456 457 458
3 156 459 460
3 156 461 463
3 461 71 462
3 461 462 463
3 157 71 156
3 157 6 71
3 120 89 9
3 158 89 120
3 158 38 89
3 91 158 24
3 159 158 91
3 159 38 158
3 159 157 38
3 160 157 159
3 160 6 157
3 160 103 6
3 161 103 160
3 161 15 103
3 93 161 39
3 162 161 93
3 162 15 161
3 162 43 15
3 150 43 162
3 150 0 43
3 124 464 466
3 466 465 10
3 464 465 466
3 468 467 124
3 142 56 2
3 469 56 470
3 471 470 142
3 469 470 471
3 473 472 56
3 151 42 0
3 163 42 151
3 163 14 42
3 474 163 475
3 476 475 36
3 474 475 476
3 477 163 478
3 479 14 480
3 481 480 163
3 479 480 481
3 483 482 14
3 129 484 485
3 488 487 129
3 486 487 488
3 490 489 28
