ply
format ascii 1.0
element vertex 352
property float x
property float y
property float z
element face 369
property list uchar int vertex_index
end_header
25.29129 43.441563 12.326591
24.74509 29.723717 27.637377
19.046858 30.594528 36.38472
29.871418 38.420071 3.787259
30.55789 33.826382 10.943452
25.3361 36.978184 19.961866
30.528389 28.022379 18.640472
27.817257 41.100574 7.766978
30.257576 36.26186 7.253824
27.853693 38.504406 11.617403
22.015308 30.015623 32.065186
19.754797 34.95771 32.890675
22.479275 34.198952 28.454584
22.667292 38.101746 24.796415
25.195086 33.401226 23.831646
27.864557 32.384258 19.404081
27.546375 29.142345 23.115299
21.120462 25.686068 35.611652
23.994514 25.705189 31.340246
31.180286 35.166187 0.414581
32.12756 33.379108 3.48278
32.858303 31.357233 6.942034
33.302227 29.14222 10.467776
22.819685 45.32803 16.880299
20.230137 43.173023 25.597252
22.66007 41.914227 20.999083
25.324266 40.386204 16.007477
28.024189 35.55518 15.30321
30.642467 31.12365 14.780383
26.590441 42.342163 9.947253
27.756599 39.944672 9.751551
26.55802 41.011013 11.849094
23.404484 29.748302 29.915873
22.166149 32.221615 30.433994
23.533096 31.933678 28.185066
23.791945 33.952305 26.119457
24.990744 31.538469 25.816002
26.395304 31.212152 23.451984
26.140554 29.302877 25.496548
22.599012 25.559298 33.516342
30.185646 37.955517 0.484799
30.603271 36.957443 2.013422
31.69459 34.265141 1.931859
30.967407 35.927238 3.689492
30.432119 35.033619 9.133104
31.580847 33.809319 6.913429
31.795898 32.664734 8.79279
33.162876 30.221233 8.640646
31.990807 31.370298 10.710517
17.541767 30.589653 38.459106
17.973392 32.961952 36.775166
19.924852 37.143898 31.152813
20.112038 41.31028 27.54147
24.003695 37.589409 22.330412
22.68862 39.974968 22.935505
23.932426 39.516399 20.476406
24.000549 41.1427 18.502024
25.306509 38.686592 18.093269
26.628702 37.96558 15.689597
26.628475 36.387714 17.632967
29.213427 30.204437 18.953478
29.215391 31.831379 17.1441
30.586222 29.701946 16.678055
31.922529 28.927633 14.648003
31.956768 27.378263 16.48867
28.843407 39.982605 5.710956
30.054192 37.441982 5.436491
29.010548 38.693619 7.476652
29.095125 37.476833 9.361247
29.154686 36.203232 11.302219
20.543804 30.275663 34.288086
19.367809 32.825218 34.766609
20.824059 32.345364 32.670307
21.068817 34.634079 30.777164
21.237959 36.729221 28.937635
21.314346 38.843121 27.069035
22.500948 36.378273 26.674791
23.899567 35.754566 24.326385
25.275505 35.239658 21.913715
26.637714 34.614929 19.62747
26.528027 32.945034 21.580694
27.757915 30.790161 21.229279
29.060081 28.648096 20.795425
18.670025 28.258654 37.942276
20.098463 28.162766 35.989227
21.575209 27.775015 33.976128
23.006765 27.725897 31.775824
24.485497 27.639751 29.455103
25.860256 27.393917 27.355734
30.599052 35.994801 -1.063262
31.432573 33.247475 -1.129291
32.100056 32.542568 0.270615
32.751022 31.640266 1.77333
33.354568 30.668737 3.371721
31.368156 34.749283 5.191111
32.576122 32.296741 5.109304
33.71627 29.985693 5.169672
34.119175 28.970583 6.831814
24.138914 46.024681 12.534514
22.913879 46.960453 14.870406
24.015907 44.518509 14.575269
21.397306 40.660374 25.257153
21.460382 42.527191 23.30278
22.745335 43.555611 19.014759
24.035954 42.777607 16.53027
25.297949 41.962509 14.13533
26.53105 39.580761 13.838868
27.904617 37.132904 13.463628
29.224674 34.834663 13.20492
27.963408 34.094341 17.269646
29.378687 33.2309 15.039097
30.668861 32.489822 12.786793
32.018734 30.1747 12.628874
33.279926 28.001469 12.523939
27.363726 27.242218 24.951536
25.940866 42.891863 11.136922
26.00258 43.591002 10.107864
25.353005 44.140702 11.297533
29.703381 39.036169 3.007561
29.286397 39.775979 3.921479
30.237344 37.688757 2.90034
30.069307 38.304855 2.120642
29.703381 39.036169 3.007561
19.39369 38.414006 31.23973
20.002268 38.196756 30.22687
20.095861 40.279947 28.421199
19.505389 41.63899 28.536589
27.765087 41.783266 6.879808
27.204534 42.387794 7.956201
28.330332 40.54159 6.738967
28.278162 41.224282 5.851797
27.765087 41.783266 6.879808
18.445251 26.994543 38.714491
17.961209 28.170692 38.887636
20.372468 25.773567 36.613153
20.875303 24.557527 36.399559
20.609462 26.924417 35.800439
19.861469 27.011916 36.801941
20.372468 25.773567 36.613153
24.766733 25.549182 30.235879
25.012224 26.516463 29.293308
24.240005 26.67247 30.397675
33.872761 28.502634 9.539718
33.803085 29.04214 8.626153
33.232551 29.681726 9.554211
33.902651 28.028924 10.521812
33.872761 28.502634 9.539718
23.594738 47.255381 12.729594
24.211089 46.743031 11.552145
22.866782 46.144241 15.875352
22.351574 47.381882 15.934913
22.304476 46.56567 16.93986
19.0703 35.147527 33.896937
18.876806 34.081282 34.834904
19.561303 33.891464 33.828642
19.70681 44.424389 25.635652
19.602652 43.581411 26.634459
20.268672 44.107388 24.604979
19.70681 44.424389 25.635652
22.07256 43.1567 21.16737
21.472716 43.463183 22.319218
22.060226 42.220709 22.150931
22.702703 42.734919 20.006921
22.115192 43.977393 20.175208
22.07256 43.1567 21.16737
33.237302 27.39088 13.510387
32.601228 28.464551 13.585971
32.558604 27.853962 14.572419
33.924476 26.82905 12.557821
33.237302 27.39088 13.510387
27.185859 26.267555 25.919429
26.611991 27.318067 26.153635
26.434124 26.343404 27.121527
26.591125 43.008589 9.046339
26.00258 43.591002 10.107864
27.203849 41.721368 8.857115
27.204534 42.387794 7.956201
26.591125 43.008589 9.046339
21.595704 24.565751 35.409673
20.875303 24.557527 36.399559
22.334979 24.502367 34.362019
21.859737 25.622683 34.563997
21.595704 24.565751 35.409673
23.107008 24.569579 33.236143
22.334979 24.502367 34.362019
23.804759 24.642525 32.148095
23.296763 25.632244 32.428294
23.107008 24.569579 33.236143
24.521015 24.563433 31.143346
23.804759 24.642525 32.148095
29.860495 38.803892 1.35633
29.688768 39.397175 0.576781
30.394458 37.45648 1.249111
29.860495 38.803892 1.35633
30.069307 38.304855 2.120642
22.244799 45.6726 18.025588
22.304476 46.56567 16.93986
17.003436 31.830855 38.605358
16.812835 30.604275 39.360767
17.219248 33.017004 37.763388
17.003436 31.830855 38.605358
17.757579 31.775802 37.617136
17.450457 34.249075 36.858767
17.219248 33.017004 37.763388
19.259385 37.404545 32.158079
19.174357 36.311451 33.02701
19.839824 36.050804 32.021744
19.259385 37.404545 32.158079
19.39369 38.414006 31.23973
19.543602 42.650039 27.606568
19.505389 41.63899 28.536589
20.171087 42.241652 26.569361
19.602652 43.581411 26.634459
19.543602 42.650039 27.606568
32.575724 27.079277 15.492752
32.558604 27.853962 14.572419
31.939649 28.152948 15.568336
28.772391 40.557246 4.883327
28.278162 41.224282 5.851797
29.357412 39.201338 4.749108
29.286397 39.775979 3.921479
28.772391 40.557246 4.883327
20.658821 37.989418 29.119281
20.002268 38.196756 30.22687
20.581406 36.93656 30.045224
21.276153 37.786171 28.003335
20.697015 39.046368 28.184981
20.658821 37.989418 29.119281
17.397081 29.336191 39.146051
16.812835 30.604275 39.360767
18.105896 29.424153 38.200691
17.397081 29.336191 39.146051
17.961209 28.170692 38.887636
19.14725 27.05986 37.778465
18.445251 26.994543 38.714491
19.384244 28.21071 36.965751
19.14725 27.05986 37.778465
19.861469 27.011916 36.801941
25.699604 26.393546 28.243623
25.172877 27.516834 28.405419
25.012224 26.516463 29.293308
26.434124 26.343404 27.121527
25.699604 26.393546 28.243623
24.766733 25.549182 30.235879
24.521015 24.563433 31.143346
29.96264 38.381512 -0.269948
29.688768 39.397175 0.576781
30.169343 37.401154 -1.043978
29.96264 38.381512 -0.269948
30.392349 36.975159 -0.289231
30.281985 36.392142 -1.731909
30.169343 37.401154 -1.043978
30.637849 34.974816 -1.745649
30.281985 36.392142 -1.731909
31.054609 33.601152 -1.778664
30.637849 34.974816 -1.745649
31.015813 34.621138 -1.096277
31.453899 32.140866 -1.701469
31.054609 33.601152 -1.778664
31.898158 31.796491 -1.054688
31.453899 32.140866 -1.701469
32.231899 31.444038 -0.354735
31.898158 31.796491 -1.054688
31.766315 32.895021 -0.429338
32.635249 31.062944 0.320917
32.231899 31.444038 -0.354735
32.960731 30.611792 1.072275
32.635249 31.062944 0.320917
32.425539 32.091417 1.021972
33.293575 30.281402 1.774288
32.960731 30.611792 1.072275
33.595348 29.795637 2.573484
33.293575 30.281402 1.774288
33.052795 31.154502 2.572526
33.911338 29.417549 3.399897
33.595348 29.795637 2.573484
34.09219 29.076027 4.298873
33.911338 29.417549 3.399897
33.535419 30.327215 4.270696
34.344984 28.67471 5.097316
34.09219 29.076027 4.298873
34.546436 28.167155 5.928387
34.344984 28.67471 5.097316
33.917722 29.478138 6.000743
34.71146 27.799045 6.86583
34.546436 28.167155 5.928387
34.281235 28.416815 7.721737
33.641025 29.595908 7.73623
33.803085 29.04214 8.626153
34.71146 27.799045 6.86583
34.281235 28.416815 7.721737
24.776817 45.43226 11.401495
24.211089 46.743031 11.552145
24.715102 44.733122 12.430553
25.353005 44.140702 11.297533
24.776817 45.43226 11.401495
22.390199 48.266196 14.953264
22.351574 47.381882 15.934913
22.982221 47.723267 13.89754
22.390199 48.266196 14.953264
23.526397 46.492567 13.70246
23.594738 47.255381 12.729594
22.982221 47.723267 13.89754
18.179597 34.149648 35.839182
18.6706 32.893585 35.770888
18.876806 34.081282 34.834904
17.450457 34.249075 36.858767
18.179597 34.149648 35.839182
19.0703 35.147527 33.896937
19.174357 36.311451 33.02701
20.713192 40.076701 27.305253
20.095861 40.279947 28.421199
20.697015 39.046368 28.184981
20.883795 43.784472 23.457743
20.268672 44.107388 24.604979
20.845259 42.850107 24.450016
20.883795 43.784472 23.457743
21.472716 43.463183 22.319218
22.207625 44.78639 19.092818
22.115192 43.977393 20.175208
22.78251 44.44182 17.947529
22.244799 45.6726 18.025588
22.207625 44.78639 19.092818
33.891501 27.458548 11.549893
33.902651 28.028924 10.521812
33.291077 28.571844 11.495857
33.891501 27.458548 11.549893
33.924476 26.82905 12.557821
27.898511 26.160255 24.867189
27.185859 26.267555 25.919429
28.070226 27.085496 23.877535
27.898511 26.160255 24.867189
28.161551 28.035559 22.959416
27.45505 28.192281 24.033417
28.070226 27.085496 23.877535
28.918404 27.788435 21.79948
28.303228 28.895221 21.955362
28.161551 28.035559 22.959416
29.666513 27.5229 20.734642
28.918404 27.788435 21.79948
30.400667 27.210041 19.657165
29.794235 28.335237 19.717948
29.666513 27.5229 20.734642
31.084333 27.025161 18.596948
30.400667 27.210041 19.657165
31.798523 26.703103 17.521048
31.242579 27.700321 17.564571
31.084333 27.025161 18.596948
32.546098 26.333864 16.460508
31.798523 26.703103 17.521048
32.575724 27.079277 15.492752
32.546098 26.333864 16.460508
3 0 115 117
3 115 29 116
3 115 116 117
3 0 31 29
3 1 34 32
3 1 36 34
3 1 38 36
3 3 118 119
3 3 120 122
3 120 41 121
3 120 121 122
3 3 43 41
3 4 46 44
3 4 48 46
3 2 50 49
3 124 123 51
3 125 52 126
3 5 55 53
3 5 57 55
3 5 59 57
3 6 62 60
3 6 64 62
3 7 127 128
3 7 129 131
3 129 65 130
3 129 130 131
3 7 67 65
3 9 68 30
3 9 69 68
3 10 72 70
3 12 73 33
3 12 74 73
3 12 76 74
3 14 77 35
3 14 78 77
3 14 80 78
3 16 81 37
3 16 82 81
3 132 83 133
3 17 134 135
3 17 136 138
3 136 84 137
3 136 137 138
3 17 85 84
3 18 86 39
3 18 87 86
3 18 139 141
3 141 140 87
3 139 140 141
3 19 89 40
3 19 90 89
3 19 91 90
3 20 92 42
3 20 93 92
3 8 94 66
3 21 95 45
3 21 96 95
3 21 97 96
3 22 142 144
3 144 143 47
3 142 143 144
3 22 145 146
3 147 98 148
3 23 149 151
3 149 99 150
3 149 150 151
3 23 100 99
3 11 152 154
3 154 153 71
3 152 153 154
3 24 155 156
3 24 157 158
3 13 101 75
3 25 102 54
3 25 159 161
3 161 160 102
3 159 160 161
3 25 162 164
3 162 103 163
3 162 163 164
3 26 104 56
3 26 105 104
3 26 106 105
3 27 107 58
3 27 108 107
3 15 109 79
3 28 110 61
3 28 111 110
3 28 112 111
3 165 113 166
3 167 166 63
3 165 166 167
3 169 168 113
3 170 114 171
3 172 171 88
3 170 171 172
3 29 173 174
3 29 175 177
3 175 7 176
3 175 176 177
3 29 30 7
3 31 30 29
3 31 9 30
3 32 33 10
3 34 33 32
3 34 12 33
3 34 35 12
3 36 35 34
3 36 14 35
3 36 37 14
3 38 37 36
3 38 16 37
3 178 17 179
3 180 39 181
3 182 181 17
3 180 181 182
3 183 39 184
3 185 18 186
3 187 186 39
3 185 186 187
3 189 188 18
3 190 40 191
3 41 192 194
3 192 40 193
3 192 193 194
3 41 19 40
3 41 42 19
3 43 42 41
3 43 20 42
3 44 45 8
3 46 45 44
3 46 21 45
3 46 47 21
3 48 47 46
3 48 22 47
3 195 23 196
3 49 197 198
3 50 199 201
3 201 200 49
3 199 200 201
3 50 202 203
3 51 204 206
3 206 205 11
3 204 205 206
3 208 207 51
3 52 209 210
3 52 211 213
3 211 24 212
3 211 212 213
3 53 54 13
3 55 54 53
3 55 25 54
3 55 56 25
3 57 56 55
3 57 26 56
3 57 58 26
3 59 58 57
3 59 27 58
3 60 61 15
3 62 61 60
3 62 28 61
3 62 63 28
3 64 63 62
3 64 214 216
3 216 215 63
3 214 215 216
3 65 217 218
3 65 219 221
3 219 3 220
3 219 220 221
3 65 66 3
3 67 66 65
3 67 8 66
3 30 67 7
3 68 67 30
3 68 8 67
3 68 44 8
3 69 44 68
3 69 4 44
3 70 71 2
3 72 71 70
3 72 11 71
3 33 72 10
3 73 72 33
3 73 11 72
3 73 51 11
3 74 51 73
3 74 222 224
3 224 223 51
3 222 223 224
3 74 225 227
3 225 75 226
3 225 226 227
3 76 75 74
3 76 13 75
3 35 76 12
3 77 76 35
3 77 13 76
3 77 53 13
3 78 53 77
3 78 5 53
3 78 79 5
3 80 79 78
3 80 15 79
3 37 80 14
3 81 80 37
3 81 15 80
3 81 60 15
3 82 60 81
3 82 6 60
3 228 49 229
3 83 230 232
3 230 49 231
3 230 231 232
3 83 2 49
3 233 83 234
3 84 235 237
3 235 83 236
3 235 236 237
3 84 2 83
3 84 70 2
3 85 70 84
3 85 10 70
3 39 85 17
3 86 85 39
3 86 10 85
3 86 32 10
3 87 32 86
3 87 1 32
3 87 88 1
3 238 88 239
3 240 239 87
3 238 239 240
3 242 241 88
3 244 243 18
3 40 245 246
3 89 247 249
3 249 248 40
3 247 248 249
3 89 250 251
3 89 252 253
3 90 254 256
3 256 255 89
3 254 255 256
3 90 257 258
3 90 259 260
3 91 261 263
3 263 262 90
3 261 262 263
3 91 264 265
3 42 91 19
3 92 91 42
3 92 266 268
3 268 267 91
3 266 267 268
3 92 269 270
3 93 271 273
3 273 272 92
3 271 272 273
3 93 274 275
3 66 43 3
3 94 43 66
3 94 20 43
3 45 94 8
3 95 94 45
3 95 20 94
3 95 93 20
3 96 93 95
3 96 276 278
3 278 277 93
3 276 277 278
3 96 279 280
3 97 281 283
3 283 282 96
3 281 282 283
3 97 284 285
3 47 97 21
3 286 97 287
3 288 287 47
3 286 287 288
3 290 289 97
3 98 291 292
3 98 293 295
3 293 0 294
3 293 294 295
3 99 296 297
3 99 298 299
3 99 300 302
3 300 98 301
3 300 301 302
3 100 98 99
3 100 0 98
3 71 50 2
3 303 50 304
3 305 304 71
3 303 304 305
3 307 306 50
3 309 308 11
3 75 310 312
3 310 52 311
3 310 311 312
3 101 52 75
3 101 24 52
3 54 101 13
3 102 101 54
3 102 24 101
3 102 313 315
3 315 314 24
3 313 314 315
3 317 316 102
3 103 318 319
3 103 320 322
3 320 23 321
3 320 321 322
3 56 103 25
3 104 103 56
3 104 23 103
3 104 100 23
3 105 100 104
3 105 0 100
3 105 31 0
3 106 31 105
3 106 9 31
3 58 106 26
3 107 106 58
3 107 9 106
3 107 69 9
3 108 69 107
3 108 4 69
3 79 59 5
3 109 59 79
3 109 27 59
3 61 109 15
3 110 109 61
3 110 27 109
3 110 108 27
3 111 108 110
3 111 4 108
3 111 48 4
3 112 48 111
3 112 22 48
3 63 112 28
3 113 112 63
3 113 22 112
3 113 323 325
3 325 324 22
3 323 324 325
3 327 326 113
3 88 38 1
3 114 38 88
3 114 16 38
3 328 114 329
3 330 114 331
3 332 16 333
3 334 333 114
3 332 333 334
3 335 82 336
3 337 336 16
3 335 336 337
3 338 82 339
3 340 6 341
3 342 341 82
3 340 341 342
3 343 6 344
3 345 64 346
3 347 346 6
3 345 346 347
3 348 64 349
3 351 350 64
