ply
format ascii 1.0
element vertex 326
property float x
property float y
property float z
element face 289
property list uchar int vertex_index
end_header
36.065392 -3.958213 -22.754787
38.870361 -24.007097 -4.993856
36.314487 4.436263 -31.36919
38.590031 -18.491417 -14.244009
36.272453 0.144758 -27.04652
37.644947 -14.679832 -14.687207
37.809105 -17.789799 -10.319066
38.840374 -27.604895 -3.958109
38.781376 -25.249872 -8.702762
38.041851 -20.273306 -5.96818
39.100502 -26.059738 -0.022843
38.914364 -29.626381 1.357064
37.741196 -7.587218 -22.998518
37.891689 -3.79317 -26.985806
37.612267 -11.309304 -18.784641
38.600147 -15.393791 -18.451145
38.701488 -21.524841 -9.684702
35.100693 -0.08709 -24.892624
36.156525 -1.968967 -24.820013
39.090614 -27.882545 0.491024
39.144062 -28.707151 3.269231
35.238686 4.071806 -29.183372
35.248001 6.07329 -31.246416
35.224247 8.380394 -33.713692
36.25148 6.502391 -33.454865
38.283955 -9.759882 -22.708874
38.394009 -7.950801 -24.80813
36.876781 -9.482458 -18.823893
36.888897 -11.299736 -16.780018
38.222229 -16.536608 -14.573031
38.205067 -15.031516 -16.570059
38.588722 -16.931231 -16.467796
38.781326 -19.13043 -15.930923
38.553699 -22.049608 -5.499816
38.456425 -20.946489 -7.781563
38.769421 -22.776157 -7.240995
38.765919 -23.907677 -11.171582
35.18721 1.902536 -26.955925
36.269218 2.354233 -29.188488
37.701874 -16.275755 -12.48885
38.247204 -18.078711 -12.216242
38.9445 -25.803345 -4.616295
38.879215 -24.543865 -6.995698
38.79533 -26.514103 -6.418101
38.705925 -23.161985 -3.271034
38.878185 -24.229221 -0.833295
38.979553 -25.071718 -2.636971
39.026733 -26.886978 -1.98427
38.867817 -28.765045 -1.39517
38.572803 -30.510246 -0.607373
35.080387 10.547648 -36.014198
36.998775 -5.747737 -22.90127
37.076973 -3.905299 -24.830223
37.836491 -5.847726 -24.918547
36.013603 -5.887586 -20.767187
36.952774 -7.651976 -20.919136
37.652149 -9.509863 -20.831108
38.23177 -11.478628 -20.787504
37.664886 -13.156949 -16.769403
38.197777 -13.28347 -18.66684
37.897369 -19.031822 -8.195492
38.365135 -19.676401 -9.966309
38.621288 -19.999729 -11.913419
38.826336 -23.29183 -9.343863
38.791271 -21.965832 -11.579908
38.774078 -20.583303 -13.754495
37.16066 -1.762079 -27.041119
36.110959 -2.96359 -23.7874
35.602675 -2.061023 -23.819523
35.557108 -3.055646 -22.78691
39.202919 -28.146335 4.132612
39.167759 -27.823912 2.816315
38.525543 -9.861638 -23.702449
38.49161 -10.836203 -22.649
36.440281 -11.220902 -15.83177
36.439081 -10.405371 -16.816842
37.755489 -17.032777 -11.403958
37.346702 -16.101865 -11.47887
37.400318 -16.858887 -10.393978
38.557403 -22.770947 -2.316148
38.460503 -22.269158 -3.511806
38.989344 -25.144479 -0.428069
38.953458 -24.647394 0.446895
39.064617 -25.562652 0.852121
35.651867 9.615051 -35.972937
35.152317 9.464021 -34.863945
35.723797 8.531424 -34.822683
35.53729 10.683568 -37.099928
35.651867 9.615051 -35.972937
38.425213 -6.97435 -25.806971
38.631227 -8.075156 -25.739081
35.968252 -6.783184 -19.755227
35.427542 -5.955847 -19.699498
36.437838 -7.66538 -19.831201
36.483188 -6.769781 -20.843162
35.968252 -6.783184 -19.755227
37.654916 -13.91839 -15.728305
37.28407 -13.003131 -15.812293
37.274101 -13.764572 -14.771195
38.614193 -14.534165 -19.464683
38.413008 -13.479004 -19.57253
38.398962 -14.338631 -18.558993
38.726698 -15.584141 -19.353317
38.614193 -14.534165 -19.464683
37.96961 -19.652564 -7.081836
37.59876 -18.757151 -7.281287
37.671002 -19.377893 -6.167631
38.782077 -22.254155 -12.444797
38.778595 -22.936754 -11.375745
38.769402 -23.225078 -12.240635
38.773481 -21.562891 -13.532091
38.782674 -21.274567 -12.667202
38.782077 -22.254155 -12.444797
38.78214 -21.887393 -14.430417
38.782738 -20.907805 -14.652821
38.773481 -21.562891 -13.532091
35.074759 -1.120084 -23.855829
34.51729 -0.294146 -23.887328
35.628609 -1.028029 -24.856319
35.074759 -1.120084 -23.855829
35.602675 -2.061023 -23.819523
37.461483 -17.500742 -9.392674
37.400318 -16.858887 -10.393978
38.686689 -28.043738 -4.854304
38.6889 -28.600949 -3.607617
39.145979 -26.500206 1.170278
39.064617 -25.562652 0.852121
39.141035 -27.41161 1.427211
39.095558 -26.971142 0.234091
39.145979 -26.500206 1.170278
39.117338 -28.294848 1.880127
39.141035 -27.41161 1.427211
39.167759 -27.823912 2.816315
34.616434 4.873724 -29.137546
34.630693 3.807416 -28.077638
34.621092 5.874466 -30.169068
34.616434 4.873724 -29.137546
35.243344 5.072548 -30.214894
34.696632 6.946147 -31.38779
34.621092 5.874466 -30.169068
35.236124 7.226842 -32.480054
34.684755 8.099699 -32.621428
34.696632 6.946147 -31.38779
36.237414 7.592423 -34.69327
35.723797 8.531424 -34.822683
35.737864 7.441393 -33.584278
38.58057 -8.957097 -24.752077
38.338982 -8.855341 -23.758502
38.525543 -9.861638 -23.702449
38.631227 -8.075156 -25.739081
38.58057 -8.957097 -24.752077
36.433023 -9.496731 -17.83878
36.399841 -8.580621 -18.78358
36.882839 -10.391097 -17.801955
36.433023 -9.496731 -17.83878
36.439081 -10.405371 -16.816842
38.699066 -17.241324 -17.267661
38.704779 -16.472603 -18.259335
38.594434 -16.162511 -17.459471
38.795368 -18.340923 -16.999225
38.699066 -17.241324 -17.267661
38.685024 -18.030831 -16.199359
38.810732 -19.330571 -16.868688
38.795368 -18.340923 -16.999225
38.666136 -24.928603 -10.84503
38.773647 -24.578775 -9.937172
38.673865 -25.5997 -9.61062
38.681624 -24.240071 -12.027593
38.666136 -24.928603 -10.84503
38.685106 -23.557471 -13.096646
38.769402 -23.225078 -12.240635
38.681624 -24.240071 -12.027593
37.927349 -2.748157 -28.060935
38.231594 -3.949555 -27.950883
34.501028 0.724006 -24.862841
34.51729 -0.294146 -23.887328
34.544286 1.718819 -25.894491
34.501028 0.724006 -24.862841
35.143952 0.907723 -25.924275
34.604956 2.722781 -26.963914
34.544286 1.718819 -25.894491
35.212948 2.987171 -28.069648
34.630693 3.807416 -28.077638
34.604956 2.722781 -26.963914
37.298565 -14.598363 -13.659571
37.274101 -13.764572 -14.771195
37.327028 -15.396325 -12.560392
37.346702 -16.101865 -11.47887
37.673411 -15.477794 -13.588029
37.298565 -14.598363 -13.659571
37.327028 -15.396325 -12.560392
38.664168 -27.498342 -6.0843
38.817852 -27.059499 -5.188105
38.686689 -28.043738 -4.854304
38.669401 -26.87416 -7.314186
38.664168 -27.498342 -6.0843
38.662424 -26.242044 -8.456516
38.788353 -25.881988 -7.560431
38.669401 -26.87416 -7.314186
38.673865 -25.5997 -9.61062
38.662424 -26.242044 -8.456516
37.79154 -19.995881 -5.028058
37.671002 -19.377893 -6.167631
38.128466 -20.824818 -4.860379
37.79154 -19.995881 -5.028058
38.384389 -21.712969 -4.626197
38.297775 -21.161457 -5.733998
38.128466 -20.824818 -4.860379
38.629812 -22.605797 -4.385425
38.384389 -21.712969 -4.626197
38.460503 -22.269158 -3.511806
38.768428 -23.808144 0.106063
38.953458 -24.647394 0.446895
38.643534 -23.304564 -1.097278
38.768428 -23.808144 0.106063
38.792055 -23.695603 -2.052164
38.557403 -22.770947 -2.316148
38.643534 -23.304564 -1.097278
38.702622 -29.181024 -2.326148
38.6889 -28.600949 -3.607617
38.854095 -28.18497 -2.676639
38.555115 -30.053624 -1.932249
38.702622 -29.181024 -2.326148
38.72031 -29.637645 -1.001272
38.350069 -30.945921 -1.564352
38.555115 -30.053624 -1.932249
34.631134 9.169749 -33.725584
34.684755 8.099699 -32.621428
34.559204 10.253376 -34.875837
34.631134 9.169749 -33.725584
35.152317 9.464021 -34.863945
34.422569 11.302258 -35.914747
34.559204 10.253376 -34.875837
34.976835 11.595862 -37.181348
34.422569 11.302258 -35.914747
34.976835 11.595862 -37.181348
35.53729 10.683568 -37.099928
38.146454 -5.922813 -25.86218
38.11525 -6.899263 -24.863338
38.425213 -6.97435 -25.806971
38.174053 -4.895535 -26.895809
37.86409 -4.820448 -25.952177
38.146454 -5.922813 -25.86218
38.513958 -5.051919 -27.860886
38.231594 -3.949555 -27.950883
38.174053 -4.895535 -26.895809
39.142603 -29.079079 4.557201
39.202919 -28.146335 4.132612
39.20146 -28.518264 5.420582
39.018694 -29.60123 3.588291
39.142603 -29.079079 4.557201
38.903845 -30.060845 2.632207
39.029213 -29.166766 2.313147
39.018694 -29.60123 3.588291
38.725462 -30.556453 1.685976
38.903845 -30.060845 2.632207
38.554682 -30.998386 0.703758
38.743583 -30.068313 0.374845
38.725462 -30.556453 1.685976
38.330558 -31.42818 -0.322635
38.554682 -30.998386 0.703758
38.312437 -31.91632 0.988495
38.350069 -30.945921 -1.564352
38.330558 -31.42818 -0.322635
35.507939 -4.057955 -21.733311
35.557108 -3.055646 -22.78691
35.482044 -5.022641 -20.739511
35.427542 -5.955847 -19.699498
36.039498 -4.922899 -21.760987
35.507939 -4.057955 -21.733311
35.482044 -5.022641 -20.739511
36.914777 -8.567217 -19.871515
36.437838 -7.66538 -19.831201
36.399841 -8.580621 -18.78358
38.465517 -11.695577 -21.688314
38.49161 -10.836203 -22.649
38.257863 -10.619255 -21.748189
36.896076 -12.074524 -15.8176
36.440281 -11.220902 -15.83177
37.276892 -12.228343 -16.77471
36.896076 -12.074524 -15.8176
37.28407 -13.003131 -15.812293
38.430004 -12.576583 -20.632862
38.214773 -12.381049 -19.727172
38.413008 -13.479004 -19.57253
38.465517 -11.695577 -21.688314
38.430004 -12.576583 -20.632862
38.726698 -15.584141 -19.353317
38.704779 -16.472603 -18.259335
37.505615 -18.121753 -8.330887
37.59876 -18.757151 -7.281287
37.853237 -18.41081 -9.257279
37.461483 -17.500742 -9.392674
37.505615 -18.121753 -8.330887
38.786361 -20.181368 -15.741035
38.777702 -19.856867 -14.842709
38.782738 -20.907805 -14.652821
38.810732 -19.330571 -16.868688
38.786361 -20.181368 -15.741035
37.561835 -1.732611 -28.088591
37.526174 -2.777624 -27.013462
37.927349 -2.748157 -28.060935
37.193499 -0.693871 -28.132241
37.561835 -1.732611 -28.088591
37.594673 -0.664404 -29.179713
36.749395 0.259547 -28.134942
36.716556 -0.808661 -27.043819
37.193499 -0.693871 -28.132241
36.747777 1.364285 -29.205926
36.270836 1.249495 -28.117504
36.749395 0.259547 -28.134942
36.750702 2.380448 -30.213261
36.747777 1.364285 -29.205926
36.773336 3.421463 -31.303612
36.291853 3.395248 -30.278839
36.750702 2.380448 -30.213261
36.754593 4.517149 -32.400047
36.773336 3.421463 -31.303612
37.213442 3.502349 -32.334468
36.723089 5.550213 -33.442884
36.282984 5.469327 -32.412028
36.754593 4.517149 -32.400047
36.693148 6.649199 -34.626612
36.723089 5.550213 -33.442884
36.237414 7.592423 -34.69327
36.693148 6.649199 -34.626612
3 0 67 69
3 67 18 68
3 67 68 69
3 70 20 71
3 2 22 21
3 2 24 22
3 73 72 25
3 74 28 75
3 3 31 29
3 3 32 31
3 1 35 33
3 4 37 17
3 4 38 37
3 6 76 78
3 76 39 77
3 76 77 78
3 6 40 39
3 7 43 41
3 79 44 80
3 10 81 83
3 81 45 82
3 81 82 83
3 10 46 45
3 10 47 46
3 11 48 19
3 11 49 48
3 84 50 85
3 86 85 23
3 84 85 86
3 88 87 50
3 12 53 51
3 90 89 26
3 91 54 92
3 93 55 94
3 95 94 54
3 93 94 95
3 14 56 27
3 14 57 56
3 5 96 98
3 96 58 97
3 96 97 98
3 15 59 30
3 15 99 101
3 101 100 59
3 99 100 101
3 15 102 103
3 9 104 106
3 104 60 105
3 104 105 106
3 16 61 34
3 16 62 61
3 8 63 42
3 107 64 108
3 109 108 36
3 107 108 109
3 110 65 111
3 112 111 64
3 110 111 112
3 115 114 65
3 113 114 115
3 13 66 52
3 116 17 117
3 18 118 120
3 118 17 119
3 118 119 120
3 18 4 17
3 121 6 122
3 124 123 7
3 125 10 126
3 127 19 128
3 129 128 10
3 127 128 129
3 20 130 132
3 130 19 131
3 130 131 132
3 20 11 19
3 21 133 134
3 22 135 137
3 137 136 21
3 135 136 137
3 22 138 139
3 22 140 142
3 140 23 141
3 140 141 142
3 24 23 22
3 24 143 145
3 145 144 23
3 143 144 145
3 25 26 12
3 146 26 147
3 148 147 25
3 146 147 148
3 150 149 26
3 151 27 152
3 28 153 155
3 153 27 154
3 153 154 155
3 28 14 27
3 29 30 5
3 31 30 29
3 31 15 30
3 31 156 158
3 158 157 15
3 156 157 158
3 32 159 161
3 161 160 31
3 159 160 161
3 32 162 163
3 33 34 9
3 35 34 33
3 35 16 34
3 164 36 165
3 166 165 8
3 164 165 166
3 167 36 168
3 171 170 36
3 169 170 171
3 173 172 13
3 17 174 175
3 37 176 178
3 178 177 17
3 176 177 178
3 37 179 180
3 37 181 183
3 181 21 182
3 181 182 183
3 38 21 37
3 38 2 21
3 184 5 185
3 39 186 187
3 39 188 190
3 188 5 189
3 188 189 190
3 39 29 5
3 40 29 39
3 40 3 29
3 41 42 1
3 43 42 41
3 43 8 42
3 191 43 192
3 193 192 7
3 191 192 193
3 194 43 195
3 196 8 197
3 198 197 43
3 196 197 198
3 200 199 8
3 201 9 202
3 203 9 204
3 205 33 206
3 207 206 9
3 205 206 207
3 44 208 210
3 208 33 209
3 208 209 210
3 44 1 33
3 45 211 212
3 45 213 214
3 45 215 217
3 215 44 216
3 215 216 217
3 46 44 45
3 46 1 44
3 46 41 1
3 47 41 46
3 47 7 41
3 19 47 10
3 48 47 19
3 48 7 47
3 48 218 220
3 220 219 7
3 218 219 220
3 49 221 223
3 223 222 48
3 221 222 223
3 49 224 225
3 23 226 227
3 50 228 230
3 230 229 23
3 228 229 230
3 50 231 232
3 50 233 234
3 236 235 50
3 51 52 0
3 53 52 51
3 53 13 52
3 26 53 12
3 237 53 238
3 239 238 26
3 237 238 239
3 240 13 241
3 242 241 53
3 240 241 242
3 245 244 13
3 243 244 245
3 246 20 247
3 246 247 248
3 249 20 250
3 251 11 252
3 253 252 20
3 251 252 253
3 254 11 255
3 256 49 257
3 258 257 11
3 256 257 258
3 259 49 260
3 259 260 261
3 263 262 49
3 264 0 265
3 54 266 267
3 54 268 270
3 268 0 269
3 268 269 270
3 54 51 0
3 55 51 54
3 55 12 51
3 27 271 273
3 271 55 272
3 271 272 273
3 56 55 27
3 56 12 55
3 56 25 12
3 57 25 56
3 57 274 276
3 276 275 25
3 274 275 276
3 277 28 278
3 58 279 281
3 279 28 280
3 279 280 281
3 58 14 28
3 30 58 5
3 59 58 30
3 59 14 58
3 59 57 14
3 282 57 283
3 284 283 59
3 282 283 284
3 286 285 57
3 288 287 15
3 60 289 290
3 60 291 293
3 291 6 292
3 291 292 293
3 34 60 9
3 61 60 34
3 61 6 60
3 61 40 6
3 62 40 61
3 62 3 40
3 42 35 1
3 63 35 42
3 63 16 35
3 36 63 8
3 64 63 36
3 64 16 63
3 64 62 16
3 65 62 64
3 65 3 62
3 65 32 3
3 294 32 295
3 296 295 65
3 294 295 296
3 298 297 32
3 52 18 0
3 66 18 52
3 66 4 18
3 299 66 300
3 301 300 13
3 299 300 301
3 302 66 303
3 302 303 304
3 305 4 306
3 307 306 66
3 305 306 307
3 308 38 309
3 310 309 4
3 308 309 310
3 311 38 312
3 313 2 314
3 315 314 38
3 313 314 315
3 316 2 317
3 316 317 318
3 319 24 320
3 321 320 2
3 319 320 321
3 322 24 323
3 325 324 24
