ply
format ascii 1.0
element vertex 368
property float x
property float y
property float z
element face 391
property list uchar int vertex_index
end_header
-8.547819 77.601624 32.101593
4.764969 88.263931 8.058882
-2.797316 65.352928 37.504208
-0.616333 75.333694 28.217207
-6.305811 86.78952 21.062933
1.826442 82.94294 18.219578
8.847392 78.932617 14.890977
8.259385 85.666 7.341908
-3.645874 59.935993 41.414646
0.043891 59.379417 39.296467
0.977802 64.63871 35.303284
-12.570131 78.171402 34.268032
-11.745271 83.444313 28.71244
-10.559891 88.034248 22.910446
-7.552029 82.554306 26.657089
3.064672 73.832497 26.388384
0.557608 79.485023 23.221088
4.373772 77.626297 21.426958
5.526759 81.022331 16.526861
7.73339 75.665054 19.652119
0.839647 91.035126 8.539913
-5.583081 71.399277 35.140461
-4.649387 76.607101 30.181841
-1.681242 70.492157 33.056473
1.943679 69.417961 31.088472
-5.011624 90.478188 15.327094
-3.541291 81.029999 25.091055
-2.212769 85.006035 19.639391
-0.868327 88.412331 14.104456
3.28132 85.930092 13.025321
6.779299 83.847816 11.695386
-0.363103 56.355904 41.299503
1.328945 56.392353 40.174896
1.814823 59.050095 38.275482
-9.051949 75.060852 34.632309
-10.585129 78.058876 33.086212
-10.127557 80.639618 30.387253
-9.688969 83.110153 27.640539
-8.094213 80.178925 29.401022
4.916491 72.769989 25.533154
3.683187 75.801208 23.946602
5.414763 74.938408 22.991135
6.131071 76.687645 20.484112
2.812233 89.783691 8.143847
-3.251546 62.785667 39.454231
-4.952628 62.923038 40.511269
-4.710239 65.965141 38.408573
-6.074071 68.867561 37.349598
-4.074984 68.573799 36.176128
-3.595396 71.095634 33.974743
-2.197493 67.973274 35.288067
2.813831 64.114365 34.260818
1.532218 67.017975 33.221889
3.256516 66.541252 32.177532
3.79015 68.804443 29.983435
-8.43644 87.476044 21.963139
-10.037007 90.096764 20.04591
-7.991077 89.623886 19.016716
-7.190258 91.349472 16.105892
-5.7109 88.724495 18.225868
-2.545314 75.93869 29.189056
-4.12505 78.844208 27.718306
-2.033124 78.178596 26.713396
1.185716 81.208328 20.802431
-0.906036 82.196053 21.642979
-0.089078 83.929642 18.93688
-1.541867 86.746109 16.915091
0.568092 85.716293 16.140884
1.19695 87.316444 13.436546
2.423549 84.701073 15.502277
7.292968 79.932961 15.719049
6.202913 82.426689 14.128376
7.859835 81.453804 13.300328
8.467397 82.725288 11.003293
9.362027 80.452522 12.543518
6.636407 87.004822 7.544157
5.626786 89.166649 5.558418
7.483928 87.704926 5.326361
-2.22358 56.749752 42.273209
-1.826321 59.516697 40.461002
-1.349187 62.263542 38.491196
-0.817108 64.84304 36.464054
0.584199 61.955715 37.343876
2.404748 61.529709 36.296314
-12.722132 88.663422 23.685801
-11.149156 85.929008 25.694098
-8.996323 85.16021 24.988531
-6.962847 84.820869 23.810541
1.183114 74.64106 27.347393
-0.082894 77.570435 25.693584
1.773126 76.689972 24.912241
2.469775 78.578369 22.367807
3.126667 80.353386 19.824308
3.708586 82.054733 17.312267
4.911148 79.415123 18.97781
6.64254 78.380112 18.158232
8.270149 77.310715 17.329321
-7.049263 74.516426 33.693909
-6.531219 77.131332 31.089067
-5.089988 73.981422 32.747696
-3.162588 73.528503 31.724024
-1.2533 73.014755 30.720366
-0.338419 67.566696 34.238331
0.168724 69.937057 32.093739
0.66948 72.349106 29.762285
2.545964 71.634216 28.779043
4.365752 70.956322 27.675219
-6.12033 79.655815 28.458403
-5.566209 81.829582 25.87793
-4.916452 83.935883 23.143642
-1.462436 80.204498 24.231943
-2.933303 83.07666 22.434431
-4.263173 85.97094 20.308167
-3.640879 87.88858 17.438261
-3.028234 89.527245 14.736745
-2.147366 90.899696 11.963951
-0.092427 89.817741 11.361245
1.95076 88.599976 10.860655
3.883756 87.339317 10.444316
4.316193 83.61731 14.811766
5.075334 84.939316 12.300048
5.847999 86.037994 9.919147
7.506027 84.886627 9.425334
2.050935 54.843824 40.558708
1.134423 54.92106 41.110515
2.973073 54.598641 40.068531
2.251083 56.147169 39.684719
2.050935 54.843824 40.558708
6.017764 73.50338 23.669277
5.165627 73.854198 24.262144
5.768628 72.419171 24.940286
6.294458 74.377765 22.545851
6.017764 73.50338 23.669277
4.259408 89.448536 6.855673
3.28304 90.208416 6.898156
3.788601 89.023811 8.101364
3.948087 65.007448 32.689757
3.035173 65.327809 33.219175
3.726745 63.794004 33.7314
4.151982 66.212952 31.63024
3.948087 65.007448 32.689757
9.584583 78.528324 14.339053
9.8419 79.288276 13.165324
9.104709 79.692569 13.717247
-1.609625 55.185854 42.717505
-2.497751 55.393162 43.161223
2.995058 60.012893 36.815899
2.109786 60.289902 37.285898
2.700095 58.773086 37.805483
3.246707 61.308228 35.792544
2.995058 60.012893 36.815899
-12.779378 76.839562 35.545687
-11.743098 76.654602 35.042024
-13.563747 78.241447 34.798538
-12.779378 76.839562 35.545687
-13.342017 79.599148 33.423177
-13.563747 78.241447 34.798538
-12.695443 83.480606 29.285115
-11.897875 82.069034 30.166007
-12.422453 84.78397 27.748468
-12.695443 83.480606 29.285115
-11.447214 84.68666 27.203269
-12.124395 86.026318 26.239297
-12.422453 84.78397 27.748468
8.565448 75.213729 19.038021
8.833828 76.03656 17.876622
8.001769 76.487885 18.49072
0.24628 92.171093 7.436698
-0.173733 91.589226 8.828793
5.222428 90.185577 4.411541
6.179407 89.422184 4.355846
-4.557402 59.926771 42.021179
-3.872747 58.466187 42.379063
-5.926881 62.934171 41.160366
-5.73749 64.445325 40.076179
-6.576633 71.629193 35.653874
-6.822128 70.363335 36.758442
-5.828576 70.133419 36.24503
-6.316172 72.957852 34.417185
-7.309724 73.187767 34.930597
-6.576633 71.629193 35.653874
4.990632 69.539456 28.232133
4.077951 69.880382 28.829327
4.702831 68.463516 29.386241
5.257792 70.506611 27.152201
4.990632 69.539456 28.232133
-11.393369 89.427841 21.829796
-12.47449 89.742428 22.217474
-11.641012 88.348835 23.298124
-10.772651 91.402974 18.918651
-9.756061 91.154407 18.459698
-5.736224 91.752022 14.225727
-6.825541 92.187664 14.615126
-6.100941 90.91383 15.716493
-4.63915 91.264668 13.881649
-5.736224 91.752022 14.225727
8.78653 83.209358 9.96766
9.237179 82.14769 10.688162
8.680189 86.00153 6.238696
8.98402 85.100128 7.146435
0.288399 54.902836 41.672819
-0.679387 54.98893 42.230652
0.482921 56.374128 40.7372
0.288399 54.902836 41.672819
1.134423 54.92106 41.110515
2.494022 57.47604 38.735012
1.571884 57.721224 39.225189
2.251083 56.147169 39.684719
2.700095 58.773086 37.805483
2.494022 57.47604 38.735012
-9.984007 75.099327 35.224163
-9.252643 73.553711 35.971293
-10.750597 76.598339 34.451115
-9.984007 75.099327 35.224163
-9.818539 76.559864 33.859261
-11.57763 78.115139 33.677122
-11.743098 76.654602 35.042024
-10.750597 76.598339 34.451115
-11.317804 79.376316 32.352893
-12.310305 79.432579 32.943803
-11.57763 78.115139 33.677122
-11.089018 80.666687 31.003414
-11.317804 79.376316 32.352893
-10.356343 79.349247 31.736733
-10.936414 82.041966 29.549847
-11.897875 82.069034 30.166007
-11.089018 80.666687 31.003414
6.652613 75.252384 21.29234
5.772917 75.813027 21.737623
6.294458 74.377765 22.545851
7.453772 74.741088 20.876343
6.932231 76.17635 20.068115
6.652613 75.252384 21.29234
8.274781 74.411487 20.182519
7.453772 74.741088 20.876343
2.269728 90.909145 7.031921
1.283435 91.534863 7.229954
1.82594 90.409409 8.34188
2.269728 90.909145 7.031921
3.28304 90.208416 6.898156
-5.616295 65.966377 39.024831
-5.73749 64.445325 40.076179
-4.831433 64.44409 39.459921
-5.392155 67.416351 37.879086
-6.298211 67.417587 38.495344
-5.616295 65.966377 39.024831
4.4188 67.344547 30.533191
3.523333 67.672848 31.080483
4.151982 66.212952 31.63024
4.702831 68.463516 29.386241
4.4188 67.344547 30.533191
-8.733097 90.917969 17.945101
-9.756061 91.154407 18.459698
-9.014042 89.860325 19.531313
-7.590668 90.486679 17.561304
-8.332687 91.780762 16.489689
-8.733097 90.917969 17.945101
9.684494 81.011307 11.458274
9.237179 82.14769 10.688162
8.914712 81.588905 11.773405
10.12148 79.971897 12.034807
9.684494 81.011307 11.458274
10.601354 78.807651 12.656613
10.12148 79.971897 12.034807
9.8419 79.288276 13.165324
7.107978 88.691322 4.239818
6.179407 89.422184 4.355846
6.555357 88.435788 5.442389
8.292461 87.020993 5.230923
7.871657 86.685463 6.334135
8.680189 86.00153 6.238696
7.998413 87.96727 4.128179
8.292461 87.020993 5.230923
7.622463 88.953666 3.041635
7.107978 88.691322 4.239818
7.998413 87.96727 4.128179
-3.1616 56.873066 42.808344
-2.497751 55.393162 43.161223
-2.934727 58.342872 41.843927
-3.872747 58.466187 42.379063
-3.1616 56.873066 42.808344
-1.293342 56.552828 41.786356
-1.609625 55.185854 42.717505
-0.679387 54.98893 42.230652
3.451249 62.600555 34.774795
2.60929 62.822037 35.278566
3.246707 61.308228 35.792544
3.726745 63.794004 33.7314
3.451249 62.600555 34.774795
-13.342017 79.599148 33.423177
-12.310305 79.432579 32.943803
-12.910883 87.393524 25.235149
-13.725983 88.687931 24.282116
-11.935644 87.296215 24.68995
-12.910883 87.393524 25.235149
-12.124395 86.026318 26.239297
9.088668 76.8442 16.737447
9.377289 77.655151 15.518275
8.55877 78.121666 16.110149
9.088668 76.8442 16.737447
8.833828 76.03656 17.876622
8.565448 75.213729 19.038021
8.274781 74.411487 20.182519
0.24628 92.171093 7.436698
1.283435 91.534863 7.229954
4.690316 89.899895 5.605441
4.259408 89.448536 6.855673
5.195877 88.71529 6.80865
4.690316 89.899895 5.605441
5.222428 90.185577 4.411541
-5.210778 61.420293 41.569491
-4.557402 59.926771 42.021179
-4.299251 61.429516 40.962958
-5.210778 61.420293 41.569491
-5.926881 62.934171 41.160366
-7.010757 68.911808 37.960212
-6.298211 67.417587 38.495344
-7.010757 68.911808 37.960212
-6.822128 70.363335 36.758442
-8.311068 73.45998 35.399797
-9.252643 73.553711 35.971293
-8.050606 74.788639 34.163109
-8.311068 73.45998 35.399797
-7.309724 73.187767 34.930597
5.533162 71.413444 26.081169
4.641121 71.863156 26.604186
5.257792 70.506611 27.152201
5.768628 72.419171 24.940286
5.533162 71.413444 26.081169
-13.460888 89.95808 22.591121
-13.725983 88.687931 24.282116
-13.460888 89.95808 22.591121
-12.47449 89.742428 22.217474
-11.131927 90.459099 20.397528
-11.393369 89.427841 21.829796
-10.298449 89.065506 21.478178
-11.131927 90.459099 20.397528
-10.772651 91.402974 18.918651
-7.878023 92.627484 14.928378
-8.332687 91.780762 16.489689
-7.878023 92.627484 14.928378
-6.825541 92.187664 14.615126
-3.647455 90.789196 13.586474
-4.63915 91.264668 13.881649
-4.019929 90.002716 15.03192
-3.207021 91.475422 12.200077
-3.647455 90.789196 13.586474
-2.5878 90.21347 13.350348
-2.799805 92.178325 10.747248
-3.207021 91.475422 12.200077
-1.66724 91.521511 10.540812
-2.799805 92.178325 10.747248
-0.639771 90.980534 10.239459
-1.66724 91.521511 10.540812
-1.119896 90.358719 11.662598
0.37361 90.426434 9.950579
-0.173733 91.589226 8.828793
-0.639771 90.980534 10.239459
8.305845 84.290028 9.17868
7.986712 83.805958 10.214313
8.78653 83.209358 9.96766
8.682524 84.679714 8.136968
7.882706 85.276314 8.383621
8.305845 84.290028 9.17868
8.98402 85.100128 7.146435
8.682524 84.679714 8.136968
9.584583 78.528324 14.339053
9.377289 77.655151 15.518275
3 123 32 124
3 127 126 32
3 125 126 127
3 0 35 34
3 0 36 35
3 0 38 36
3 128 41 129
3 130 129 39
3 128 129 130
3 132 131 41
3 1 133 135
3 135 134 43
3 133 134 135
3 2 46 44
3 2 48 46
3 2 50 48
3 136 53 137
3 138 137 51
3 136 137 138
3 140 139 53
3 4 57 55
3 4 59 57
3 3 62 60
3 5 65 63
3 5 67 65
3 5 69 67
3 6 72 70
3 6 74 72
3 6 141 143
3 143 142 74
3 141 142 143
3 7 77 75
3 144 78 145
3 9 79 31
3 9 80 79
3 9 82 80
3 146 83 147
3 148 147 33
3 146 147 148
3 150 149 83
3 11 151 152
3 11 153 154
3 11 155 156
3 12 157 158
3 12 159 160
3 12 161 163
3 161 85 162
3 161 162 163
3 14 86 37
3 14 87 86
3 15 90 88
3 17 91 40
3 17 92 91
3 17 94 92
3 19 95 42
3 19 96 95
3 19 164 166
3 166 165 96
3 164 165 166
3 20 167 168
3 170 169 76
3 8 171 172
3 174 173 45
3 21 175 177
3 177 176 47
3 175 176 177
3 21 178 180
3 178 97 179
3 178 179 180
3 21 99 97
3 23 100 49
3 23 101 100
3 10 102 81
3 24 103 52
3 24 104 103
3 24 105 104
3 181 106 182
3 183 182 54
3 181 182 183
3 185 184 106
3 13 186 188
3 188 187 84
3 186 187 188
3 190 189 56
3 25 191 193
3 193 192 58
3 191 192 193
3 25 194 195
3 22 107 98
3 26 108 61
3 26 109 108
3 16 110 89
3 27 111 64
3 27 112 111
3 27 113 112
3 28 114 66
3 28 115 114
3 28 116 115
3 29 117 68
3 29 118 117
3 18 119 93
3 30 120 71
3 30 121 120
3 30 122 121
3 197 196 73
3 199 198 7
3 200 31 201
3 32 202 204
3 202 31 203
3 202 203 204
3 32 9 31
3 32 33 9
3 205 33 206
3 207 206 32
3 205 206 207
3 209 208 33
3 34 210 211
3 35 212 214
3 214 213 34
3 212 213 214
3 35 215 217
3 215 11 216
3 215 216 217
3 35 218 220
3 220 219 11
3 218 219 220
3 36 221 223
3 223 222 35
3 221 222 223
3 36 224 226
3 224 12 225
3 224 225 226
3 36 37 12
3 38 37 36
3 38 14 37
3 39 40 15
3 41 40 39
3 41 17 40
3 41 42 17
3 227 42 228
3 229 228 41
3 227 228 229
3 230 19 231
3 232 231 42
3 230 231 232
3 234 233 19
3 43 235 237
3 237 236 20
3 235 236 237
3 239 238 43
3 44 45 8
3 46 45 44
3 46 240 242
3 242 241 45
3 240 241 242
3 46 243 245
3 243 47 244
3 243 244 245
3 48 47 46
3 48 21 47
3 48 49 21
3 50 49 48
3 50 23 49
3 51 52 10
3 53 52 51
3 53 24 52
3 53 54 24
3 246 54 247
3 248 247 53
3 246 247 248
3 250 249 54
3 55 56 13
3 57 56 55
3 57 251 253
3 253 252 56
3 251 252 253
3 57 254 256
3 254 58 255
3 254 255 256
3 59 58 57
3 59 25 58
3 60 61 22
3 62 61 60
3 62 26 61
3 63 64 16
3 65 64 63
3 65 27 64
3 65 66 27
3 67 66 65
3 67 28 66
3 67 68 28
3 69 68 67
3 69 29 68
3 70 71 18
3 72 71 70
3 72 30 71
3 72 73 30
3 74 73 72
3 74 257 259
3 259 258 73
3 257 258 259
3 74 260 261
3 264 263 74
3 262 263 264
3 75 76 1
3 77 76 75
3 77 265 267
3 267 266 76
3 265 266 267
3 268 77 269
3 270 269 7
3 268 269 270
3 271 77 272
3 275 274 77
3 273 274 275
3 78 276 277
3 78 278 280
3 278 8 279
3 278 279 280
3 31 281 283
3 281 78 282
3 281 282 283
3 79 78 31
3 79 8 78
3 79 44 8
3 80 44 79
3 80 2 44
3 80 81 2
3 82 81 80
3 82 10 81
3 33 82 9
3 83 82 33
3 83 10 82
3 83 51 10
3 284 51 285
3 286 285 83
3 284 285 286
3 288 287 51
3 290 289 11
3 291 84 292
3 85 293 295
3 293 84 294
3 293 294 295
3 85 13 84
3 37 85 12
3 86 85 37
3 86 13 85
3 86 55 13
3 87 55 86
3 87 4 55
3 88 89 3
3 90 89 88
3 90 16 89
3 40 90 15
3 91 90 40
3 91 16 90
3 91 63 16
3 92 63 91
3 92 5 63
3 92 93 5
3 94 93 92
3 94 18 93
3 42 94 17
3 95 94 42
3 95 18 94
3 95 70 18
3 96 70 95
3 96 6 70
3 96 296 298
3 298 297 6
3 296 297 298
3 300 299 96
3 302 301 19
3 304 303 20
3 76 305 307
3 307 306 1
3 305 306 307
3 309 308 76
3 45 310 312
3 312 311 8
3 310 311 312
3 314 313 45
3 47 315 316
3 318 317 47
3 319 34 320
3 97 321 323
3 321 34 322
3 321 322 323
3 97 0 34
3 97 98 0
3 99 98 97
3 99 22 98
3 49 99 21
3 100 99 49
3 100 22 99
3 100 60 22
3 101 60 100
3 101 3 60
3 81 50 2
3 102 50 81
3 102 23 50
3 52 102 10
3 103 102 52
3 103 23 102
3 103 101 23
3 104 101 103
3 104 3 101
3 104 88 3
3 105 88 104
3 105 15 88
3 54 105 24
3 106 105 54
3 106 15 105
3 106 39 15
3 324 39 325
3 326 325 106
3 324 325 326
3 328 327 39
3 84 329 330
3 332 331 84
3 56 333 335
3 335 334 13
3 333 334 335
3 337 336 56
3 58 338 339
3 341 340 58
3 98 38 0
3 107 38 98
3 107 14 38
3 61 107 22
3 108 107 61
3 108 14 107
3 108 87 14
3 109 87 108
3 109 4 87
3 89 62 3
3 110 62 89
3 110 26 62
3 64 110 16
3 111 110 64
3 111 26 110
3 111 109 26
3 112 109 111
3 112 4 109
3 112 59 4
3 113 59 112
3 113 25 59
3 66 113 27
3 114 113 66
3 114 25 113
3 114 342 344
3 344 343 25
3 342 343 344
3 115 345 347
3 347 346 114
3 345 346 347
3 115 348 349
3 115 350 351
3 116 352 354
3 354 353 115
3 352 353 354
3 116 355 357
3 355 20 356
3 355 356 357
3 68 116 28
3 117 116 68
3 117 20 116
3 117 43 20
3 118 43 117
3 118 1 43
3 93 69 5
3 119 69 93
3 119 29 69
3 71 119 18
3 120 119 71
3 120 29 119
3 120 118 29
3 121 118 120
3 121 1 118
3 121 75 1
3 122 75 121
3 122 7 75
3 73 122 30
3 358 122 359
3 360 359 73
3 358 359 360
3 361 7 362
3 363 362 122
3 361 362 363
3 365 364 7
3 367 366 6
