ply
format ascii 1.0
element vertex 554
property float x
property float y
property float z
element face 601
property list uchar int vertex_index
end_header
23.383583 -61.577183 -10.088602
21.678465 -61.216187 -22.449066
23.400646 -51.765026 -18.603907
22.637928 -62.316193 -15.783028
26.52174 -78.315964 3.661978
26.854525 -81.101952 13.171919
20.639816 -48.63665 -25.30826
24.341116 -64.688133 -4.545337
23.079554 -69.604469 -11.6112
24.847425 -74.550476 -4.774733
22.973444 -71.862831 -18.526463
21.651636 -70.981628 -25.821669
23.457077 -57.933525 -13.914347
22.974499 -61.984226 -12.706267
22.236986 -56.401718 -20.641214
22.289967 -50.241726 -21.904734
21.134211 -54.892719 -24.017714
19.476191 -53.069351 -27.375044
20.544273 -59.824017 -25.824524
25.191818 -66.193169 -0.598374
24.324377 -69.629898 -4.588876
25.23971 -71.385612 -0.768934
26.898689 -83.860626 3.414801
26.478859 -81.894333 -1.079211
23.785191 -74.527031 -12.193254
23.01053 -71.058464 -14.940533
23.841936 -76.165886 -16.041286
22.952147 -57.362556 -17.185793
22.295982 -61.916527 -19.107161
26.8985 -79.966324 8.435533
26.810709 -85.055527 8.100346
20.021055 -42.115612 -26.681282
18.337561 -46.316967 -28.834953
23.713406 -63.121479 -7.709377
22.976645 -65.243835 -10.817216
23.482004 -67.64077 -8.117467
23.874666 -72.334259 -8.446026
24.722569 -77.336357 -9.134855
25.792192 -76.571976 -0.732241
25.724329 -79.940361 -5.375464
26.178581 -86.071556 12.771084
26.197439 -90.235931 7.300366
22.672415 -66.352478 -13.902068
22.536127 -66.991173 -17.153362
22.274584 -67.03492 -20.700199
22.627277 -72.012764 -22.16721
21.553137 -65.976151 -24.119213
23.603323 -60.080891 -10.428148
23.366957 -60.128235 -11.846946
23.177967 -61.780106 -11.236647
21.880541 -58.955822 -21.582985
21.759766 -55.810242 -22.289986
21.386349 -58.164059 -23.314629
20.767397 -57.406273 -24.99218
21.196968 -60.445435 -24.081841
25.132839 -68.900864 -0.737081
26.979176 -86.425385 3.107061
26.948692 -85.56031 0.765136
24.255747 -76.990784 -12.745765
23.779856 -75.282082 -14.137389
24.314659 -77.987106 -14.773687
22.956499 -60.135403 -14.866322
23.223579 -57.65554 -15.511898
22.776293 -59.869919 -16.436302
22.540543 -59.634197 -18.15189
22.483257 -62.184807 -17.453663
26.993479 -77.969177 10.791114
26.926149 -80.569351 10.914803
26.891983 -82.462921 8.352679
26.788939 -83.231209 10.645012
21.517502 -49.343334 -23.64967
22.246763 -47.143532 -22.621958
21.335327 -46.282696 -24.351988
20.332556 -45.358818 -26.004982
19.144764 -44.262833 -27.73498
19.565653 -47.380318 -27.07501
19.145056 -55.430168 -28.188227
18.397444 -51.849964 -29.069744
23.511276 -65.367371 -7.931517
23.858671 -66.205612 -6.30085
24.515278 -72.10173 -4.754565
24.040312 -71.059502 -6.577785
24.347418 -73.558434 -6.766995
24.253269 -74.808784 -8.765543
24.723906 -75.919601 -7.03142
26.311291 -75.574333 3.760835
25.921938 -74.736649 1.503746
26.182175 -77.370117 1.39245
26.532558 -83.583504 -3.498438
26.114813 -80.846474 -3.3057
24.932783 -88.393845 14.707877
25.661648 -86.31543 15.152015
25.619164 -88.504021 12.21826
26.165749 -88.18544 10.098989
25.588608 -90.421188 9.72554
22.962181 -67.42173 -11.192253
22.785126 -65.876648 -12.404061
22.829357 -68.121658 -12.884032
22.994762 -71.477303 -16.759771
22.749258 -69.250977 -16.155132
22.685596 -69.285141 -17.883476
22.422615 -66.839958 -18.945271
22.610788 -69.46579 -19.546381
22.820606 -74.555046 -23.137064
22.252926 -71.824875 -23.977264
22.096279 -69.123871 -23.136951
21.619335 -68.585159 -24.901207
20.947493 -65.359962 -25.954071
20.955416 -67.951385 -26.764933
23.723703 -57.966259 -12.348875
23.179291 -60.051247 -13.277062
22.800505 -62.255161 -14.134405
22.766785 -54.02755 -19.568815
22.897108 -51.002113 -20.268705
22.250095 -53.418587 -21.287924
21.642296 -52.532997 -22.98414
20.90201 -51.796303 -24.649797
19.986969 -50.811054 -26.382225
20.383471 -54.18354 -25.695969
20.024824 -56.528774 -26.60984
19.742449 -58.883099 -27.501011
24.735079 -65.469055 -2.698227
24.250471 -67.249466 -4.564541
24.701426 -67.904427 -2.619664
24.76366 -70.509819 -2.801721
25.006351 -72.890556 -2.668801
26.732582 -81.140709 3.50395
26.459679 -79.969635 1.307963
26.730106 -82.74614 1.151529
26.794088 -84.540665 -1.237729
23.369423 -71.996368 -11.843823
23.025728 -70.452995 -13.304033
23.356945 -72.821869 -13.599148
23.373747 -73.548676 -15.503492
23.392805 -74.139633 -17.323059
23.5495 -55.040203 -16.135334
23.186405 -54.625473 -17.840336
22.643188 -56.737835 -18.936117
22.262434 -59.287651 -19.842857
22.028135 -61.669128 -20.825319
26.618401 -76.43026 6.011265
26.85696 -77.203758 8.456559
26.757555 -79.124062 5.993119
26.870213 -81.877609 5.822849
26.914646 -84.488899 5.815577
26.856319 -87.173943 5.484096
23.078619 -47.736965 -20.854067
18.81596 -41.002125 -28.281618
17.92997 -42.95763 -29.326683
17.156937 -45.125889 -30.3629
18.906071 -49.640392 -28.1276
17.759203 -48.494991 -29.747595
23.513058 -62.200848 -9.051748
23.142921 -63.137932 -10.427353
23.277359 -64.172218 -9.296519
23.187765 -66.468689 -9.515725
23.249338 -68.804237 -9.798018
23.862968 -68.596954 -6.472901
23.602764 -69.868744 -8.255421
23.451944 -71.060791 -10.032616
23.808937 -73.607468 -10.363334
24.27257 -76.097084 -10.665072
24.784079 -78.682365 -11.173794
25.47961 -73.995491 -0.738328
25.327175 -75.660332 -2.903433
26.117773 -79.230576 -1.03931
25.724775 -78.361153 -3.117739
25.256466 -77.283737 -5.13819
25.235527 -78.676849 -7.304607
25.265337 -80.00486 -9.424381
26.655319 -81.649277 15.640709
25.774462 -84.296989 17.706568
26.22933 -84.13488 15.304484
26.599874 -83.53994 12.954305
26.560684 -85.734932 10.363034
26.580589 -87.690048 7.879776
22.905054 -63.702923 -11.866806
22.74095 -64.13974 -13.304108
22.608961 -64.471901 -14.905592
22.762991 -68.611504 -14.490761
22.595652 -66.713501 -15.548032
22.502085 -64.47168 -16.554726
22.38938 -64.559486 -18.143795
22.220098 -64.348541 -19.86335
21.963045 -64.051598 -21.558155
23.841221 -76.802422 -18.017645
23.309227 -74.348724 -19.263735
23.147339 -74.629135 -21.235176
22.841238 -71.91671 -20.420378
22.410927 -69.385307 -21.413363
21.974867 -66.4216 -22.380699
21.573425 -63.47839 -23.282867
21.061031 -62.961296 -24.969612
20.347925 -62.205681 -26.755219
27.0217 -87.376724 1.755678
26.962048 -87.724518 2.8988
24.56681 -78.839481 -14.01602
24.285203 -77.488945 -13.759726
24.537354 -78.34132 -13.00206
26.890337 -80.835651 12.043361
26.988883 -79.449883 12.067712
26.953071 -79.716183 13.19627
23.577675 -50.154194 -18.839475
23.849176 -50.587806 -17.950221
18.611044 -54.853454 -29.014162
18.94239 -56.486637 -28.693357
24.099894 -65.446872 -5.423094
23.931787 -65.020424 -6.252052
24.173009 -64.261685 -5.374295
26.354458 -83.032498 -4.53928
26.581791 -84.439297 -4.730876
25.229514 -89.477959 12.122664
25.275973 -88.448933 13.463069
24.886323 -89.422871 13.367472
25.214236 -90.436543 10.876304
25.603886 -89.462604 10.9719
25.229514 -89.477959 12.122664
24.4817 -63.438875 -4.492871
24.660463 -63.786605 -3.573654
24.173009 -64.261685 -5.374295
24.4817 -63.438875 -4.492871
21.952281 -71.403252 -24.899467
22.301147 -73.035164 -24.474192
22.000502 -72.61354 -25.396394
23.82805 -58.090426 -11.618339
24.073425 -56.957279 -11.788293
26.910497 -85.868424 -1.481515
26.87139 -85.050488 -0.236297
26.987799 -86.378246 -0.480083
26.844825 -85.468777 -2.549314
26.910497 -85.868424 -1.481515
25.265616 -64.951044 -0.651914
25.46622 -65.292713 0.373781
24.963448 -65.831112 -1.6483
25.037246 -64.588988 -1.70184
25.265616 -64.951044 -0.651914
23.659909 -56.652533 -14.207263
23.789293 -56.832018 -13.415771
26.713369 -75.473122 7.21169
26.55591 -75.090439 5.99397
22.700093 -45.962294 -22.064662
22.246526 -45.567312 -22.919339
20.534165 -40.984235 -26.1299
20.592203 -42.642042 -25.839442
19.904043 -40.504223 -26.971888
20.534165 -40.984235 -26.1299
19.418508 -41.558869 -27.48145
19.301496 -39.94748 -27.772057
19.904043 -40.504223 -26.971888
17.508686 -49.577618 -30.200599
18.078323 -50.172477 -29.40867
17.827807 -51.255104 -29.861674
17.116347 -47.753929 -30.564663
17.508686 -49.577618 -30.200599
25.528785 -81.302654 -9.624774
25.514768 -80.717804 -8.536506
25.285936 -80.602081 -10.546464
25.528785 -81.302654 -9.624774
26.50496 -81.812859 16.829701
26.733845 -80.560894 16.93265
25.387918 -85.364883 17.556976
25.511141 -84.276554 18.820284
26.4364 -89.886489 6.182441
26.627975 -88.613548 6.472146
26.389014 -88.962989 7.590071
23.879691 -61.999489 -7.686404
24.004807 -62.345753 -6.92836
23.613232 -62.661164 -8.380562
23.779518 -61.539174 -8.357589
23.879691 -61.999489 -7.686404
23.763022 -76.858105 -18.984555
24.038611 -78.054802 -18.489493
23.497025 -75.631256 -19.607599
23.575224 -75.575573 -18.64069
23.763022 -76.858105 -18.984555
20.306861 -63.520344 -27.178304
20.647709 -63.782821 -26.354645
20.606645 -65.097485 -26.77773
19.935231 -61.723743 -27.572744
20.306861 -63.520344 -27.178304
23.48514 -60.104563 -11.137547
23.649677 -59.171413 -11.367374
23.76786 -59.147742 -10.657975
25.363804 -67.969673 0.314557
25.162329 -67.547016 -0.667728
25.393293 -66.615826 0.383911
25.360032 -69.307297 0.314403
25.363804 -67.969673 0.314557
25.413467 -70.549671 0.298477
25.186274 -70.143238 -0.753008
25.360032 -69.307297 0.314403
27.006458 -86.944187 0.584716
26.963934 -85.992848 1.936098
27.0217 -87.376724 1.755678
26.987799 -86.378246 -0.480083
27.006458 -86.944187 0.584716
25.393293 -66.615826 0.383911
25.46622 -65.292713 0.373781
27.022548 -78.149796 12.005868
27.08118 -76.886699 11.911798
26.959814 -79.269264 10.852958
27.022548 -78.149796 12.005868
26.988883 -79.449883 12.067712
21.790807 -45.136894 -23.784354
22.246526 -45.567312 -22.919339
21.791045 -46.713114 -23.486973
21.249339 -44.725584 -24.674795
21.790807 -45.136894 -23.784354
20.747954 -44.263645 -25.501292
21.249339 -44.725584 -24.674795
20.833942 -45.820757 -25.178485
20.176806 -43.737215 -26.343132
20.592203 -42.642042 -25.839442
20.747954 -44.263645 -25.501292
18.237238 -53.063353 -29.45492
18.77125 -53.640066 -28.628985
18.611044 -54.853454 -29.014162
17.827807 -51.255104 -29.861674
18.237238 -53.063353 -29.45492
23.758089 -64.601304 -7.067385
23.612341 -64.244425 -7.820447
23.859154 -63.478358 -6.956315
23.684973 -65.786492 -7.116183
23.758089 -64.601304 -7.067385
23.931787 -65.020424 -6.252052
26.116615 -75.155491 2.63229
26.015197 -73.797364 2.551527
26.209874 -74.216206 3.680072
26.145585 -81.663983 -4.442911
26.323686 -82.214989 -3.402069
26.354458 -83.032498 -4.53928
25.950343 -81.210926 -5.477793
25.919571 -80.393417 -4.340582
26.145585 -81.663983 -4.442911
25.744264 -80.685554 -6.512047
25.950343 -81.210926 -5.477793
25.297216 -87.354637 14.929946
25.331511 -86.374104 16.279699
24.967079 -87.413311 16.05763
23.859154 -63.478358 -6.956315
24.004807 -62.345753 -6.92836
22.584988 -74.40025 -24.054091
22.92735 -75.831268 -23.56247
22.536766 -73.189961 -23.557164
22.584988 -74.40025 -24.054091
22.301147 -73.035164 -24.474192
20.610606 -66.393196 -27.183161
20.606645 -65.097485 -26.77773
20.951455 -66.655674 -26.359502
23.922605 -56.848385 -12.633035
24.073425 -56.957279 -11.788293
23.59039 -57.949892 -13.131611
23.789293 -56.832018 -13.415771
23.922605 -56.848385 -12.633035
23.54533 -59.047247 -12.097911
23.82805 -58.090426 -11.618339
23.649677 -59.171413 -11.367374
26.920119 -80.063786 14.412768
26.953071 -79.716183 13.19627
19.241086 -58.213103 -28.349748
18.94239 -56.486637 -28.693357
19.443753 -57.156633 -27.844619
26.71406 -84.990196 -3.679669
26.663323 -84.062084 -2.368084
26.844825 -85.468777 -2.549314
26.581791 -84.439297 -4.730876
26.71406 -84.990196 -3.679669
24.527687 -88.362179 15.769816
24.967079 -87.413311 16.05763
24.430537 -89.395813 14.439825
24.527687 -88.362179 15.769816
24.886323 -89.422871 13.367472
24.430537 -89.395813 14.439825
24.857444 -64.177066 -2.6501
25.037246 -64.588988 -1.70184
24.538097 -65.078594 -3.621782
24.660463 -63.786605 -3.573654
24.857444 -64.177066 -2.6501
21.675602 -72.301804 -26.296013
22.000502 -72.61354 -25.396394
21.269883 -70.631362 -26.76902
21.675602 -72.301804 -26.296013
23.643958 -52.032325 -17.705748
23.849176 -50.587806 -17.950221
23.54316 -56.51354 -15.006039
23.659909 -56.652533 -14.207263
23.340328 -57.794533 -14.713123
23.70612 -55.205872 -15.317757
23.54316 -56.51354 -15.006039
23.386539 -56.347871 -15.823616
23.935608 -53.866672 -15.581547
23.70612 -55.205872 -15.317757
23.718385 -53.669914 -16.471462
23.935608 -53.866672 -15.581547
23.536838 -53.462549 -17.323963
23.718385 -53.669914 -16.471462
23.367953 -54.832838 -16.987835
23.293526 -53.19525 -18.222122
23.643958 -52.032325 -17.705748
23.536838 -53.462549 -17.323963
26.402355 -74.662475 4.868755
26.209874 -74.216206 3.680072
26.464846 -76.002296 4.88605
26.402355 -74.662475 4.868755
26.55591 -75.090439 5.99397
27.011616 -76.624077 10.769102
27.08118 -76.886699 11.911798
26.943357 -76.241367 9.601824
27.011616 -76.624077 10.769102
26.92522 -77.586467 9.623836
26.832648 -75.859871 8.434337
26.943357 -76.241367 9.601824
26.73768 -76.817009 7.233912
26.713369 -75.473122 7.21169
26.832648 -75.859871 8.434337
26.900619 -88.098797 4.087318
26.962048 -87.724518 2.8988
26.917747 -86.799664 4.295578
23.325906 -49.772738 -19.671874
23.577675 -50.154194 -18.839475
23.148877 -51.38357 -19.436306
23.416662 -48.140163 -19.964555
23.325906 -49.772738 -19.671874
22.987863 -49.369539 -20.561386
23.557938 -46.603544 -20.234348
23.416662 -48.140163 -19.964555
23.116021 -46.25901 -21.180717
22.662691 -47.440248 -21.738012
22.700093 -45.962294 -22.064662
23.557938 -46.603544 -20.234348
23.116021 -46.25901 -21.180717
18.586886 -39.444794 -28.64758
19.301496 -39.94748 -27.772057
18.097807 -40.350361 -29.156899
18.586886 -39.444794 -28.64758
17.654812 -41.328114 -29.679431
18.097807 -40.350361 -29.156899
18.372965 -41.979878 -28.80415
17.238714 -42.348717 -30.163212
17.654812 -41.328114 -29.679431
16.852197 -43.432846 -30.68132
17.238714 -42.348717 -30.163212
17.543453 -44.041759 -29.844791
16.481389 -44.430107 -31.172833
16.852197 -43.432846 -30.68132
16.815214 -46.069378 -30.872315
17.45807 -46.81044 -30.055248
17.116347 -47.753929 -30.564663
16.481389 -44.430107 -31.172833
16.815214 -46.069378 -30.872315
24.80152 -79.187111 -12.216074
24.537354 -78.34132 -13.00206
24.519913 -77.836575 -11.959779
25.469366 -71.805179 0.301153
25.413467 -70.549671 0.298477
25.81048 -73.480698 1.437493
26.015197 -73.797364 2.551527
25.589316 -73.110119 0.316456
25.81048 -73.480698 1.437493
25.700774 -74.36607 0.382709
25.35966 -72.690551 -0.753631
25.469366 -71.805179 0.301153
25.589316 -73.110119 0.316456
25.499864 -80.053798 -7.476618
25.479928 -79.308605 -6.340035
25.744264 -80.685554 -6.512047
25.250432 -79.340855 -8.364494
25.499864 -80.053798 -7.476618
25.514768 -80.717804 -8.536506
25.045306 -79.940834 -11.42117
25.024708 -79.343613 -10.299087
25.285936 -80.602081 -10.546464
24.80152 -79.187111 -12.216074
25.045306 -79.940834 -11.42117
26.820515 -80.337448 15.647163
26.733845 -80.560894 16.93265
26.754922 -81.375614 14.406314
26.920119 -80.063786 14.412768
26.820515 -80.337448 15.647163
25.865469 -83.191299 19.035826
25.511141 -84.276554 18.820284
26.064532 -83.136714 17.86263
25.865469 -83.191299 19.035826
25.718055 -85.306209 16.429292
25.387918 -85.364883 17.556976
25.331511 -86.374104 16.279699
26.291965 -83.05566 16.661588
26.064532 -83.136714 17.86263
26.001896 -84.215935 16.505526
26.442324 -82.892078 15.472596
26.50496 -81.812859 16.829701
26.291965 -83.05566 16.661588
26.765839 -88.355495 5.274306
26.718454 -87.431995 6.681936
26.627975 -88.613548 6.472146
26.900619 -88.098797 4.087318
26.765839 -88.355495 5.274306
25.236572 -91.424026 9.400721
25.214236 -90.436543 10.876304
25.605103 -91.381867 8.334538
25.236572 -91.424026 9.400721
25.909519 -91.289238 7.121951
25.893023 -90.328559 8.512953
25.605103 -91.381867 8.334538
26.224613 -91.175415 5.918005
25.909519 -91.289238 7.121951
26.4364 -89.886489 6.182441
26.224613 -91.175415 5.918005
23.660809 -61.284172 -9.079311
23.779518 -61.539174 -8.357589
23.448321 -61.889015 -9.570175
23.596072 -60.97234 -9.597738
23.660809 -61.284172 -9.079311
23.91288 -59.231554 -9.841921
23.76786 -59.147742 -10.657975
23.705942 -60.224193 -9.767511
23.91288 -59.231554 -9.841921
23.596072 -60.97234 -9.597738
23.493453 -60.829037 -10.258375
23.705942 -60.224193 -9.767511
24.597019 -79.36465 -15.027041
24.56681 -78.839481 -14.01602
24.319609 -78.360282 -15.786988
24.597019 -79.36465 -15.027041
24.083247 -77.449672 -16.420787
24.078297 -77.076496 -15.407487
24.319609 -78.360282 -15.786988
24.08289 -77.767941 -17.408967
24.038611 -78.054802 -18.489493
23.841579 -76.484154 -17.029466
24.083247 -77.449672 -16.420787
24.08289 -77.767941 -17.408967
23.120249 -75.802273 -22.582788
22.92735 -75.831268 -23.56247
23.283615 -75.839317 -21.631844
23.120249 -75.802273 -22.582788
22.983973 -74.592091 -22.18612
23.416081 -75.771462 -20.59332
23.283615 -75.839317 -21.631844
23.228283 -74.48893 -20.249455
23.497025 -75.631256 -19.607599
23.416081 -75.771462 -20.59332
19.632493 -60.062452 -27.945639
20.045187 -60.54439 -27.128115
19.935231 -61.723743 -27.572744
19.241086 -58.213103 -28.349748
19.632493 -60.062452 -27.945639
20.921773 -69.116241 -27.240652
21.303526 -69.466507 -26.293301
21.269883 -70.631362 -26.76902
20.525956 -67.473957 -27.669027
20.921773 -69.116241 -27.240652
20.610606 -66.393196 -27.183161
20.525956 -67.473957 -27.669027
3 0 49 47
3 1 52 50
3 1 54 52
3 195 194 56
3 196 60 197
3 198 197 58
3 196 197 198
3 3 63 61
3 3 65 63
3 5 199 201
3 199 67 200
3 199 200 201
3 5 69 67
3 2 202 203
3 6 72 70
3 6 73 72
3 6 75 73
3 205 204 76
3 7 206 208
3 206 79 207
3 206 207 208
3 9 82 80
3 9 84 82
3 4 87 85
3 210 209 88
3 211 92 212
3 213 212 90
3 211 212 213
3 214 94 215
3 216 215 92
3 214 215 216
3 7 217 218
3 7 219 220
3 8 97 95
3 10 100 98
3 10 102 100
3 11 221 223
3 221 104 222
3 221 222 223
3 11 106 104
3 11 108 106
3 224 109 225
3 13 110 48
3 13 111 110
3 14 114 112
3 16 115 51
3 16 116 115
3 16 118 116
3 18 119 53
3 18 120 119
3 19 123 121
3 21 124 55
3 21 125 124
3 22 128 126
3 226 129 227
3 228 227 57
3 226 227 228
3 230 229 129
3 19 231 232
3 19 233 235
3 233 121 234
3 233 234 235
3 24 132 130
3 26 133 59
3 26 134 133
3 12 236 237
3 27 135 62
3 27 136 135
3 27 137 136
3 28 138 64
3 28 139 138
3 238 140 239
3 29 141 66
3 29 142 141
3 29 143 142
3 30 144 68
3 30 145 144
3 15 146 113
3 241 240 71
3 31 242 243
3 31 244 245
3 31 246 248
3 246 147 247
3 246 247 248
3 32 148 74
3 32 149 148
3 17 150 117
3 249 151 250
3 251 250 77
3 249 250 251
3 253 252 151
3 33 154 152
3 35 155 78
3 35 156 155
3 20 157 122
3 36 158 81
3 36 159 158
3 36 160 159
3 37 161 83
3 37 162 161
3 38 163 86
3 38 164 163
3 23 165 127
3 39 166 89
3 39 167 166
3 39 168 167
3 254 169 255
3 257 256 169
3 258 170 259
3 260 171 261
3 40 172 91
3 40 173 172
3 40 174 173
3 41 175 93
3 41 262 264
3 264 263 175
3 262 263 264
3 33 265 266
3 33 267 269
3 267 152 268
3 267 268 269
3 34 176 153
3 42 177 96
3 42 178 177
3 25 179 131
3 43 180 99
3 43 181 180
3 43 182 181
3 44 183 101
3 44 184 183
3 270 185 271
3 272 186 273
3 274 273 185
3 272 273 274
3 45 187 103
3 45 188 187
3 45 189 188
3 46 190 105
3 46 191 190
3 46 192 191
3 275 193 276
3 277 276 107
3 275 276 277
3 279 278 193
3 47 280 282
3 280 48 281
3 280 281 282
3 49 48 47
3 49 13 48
3 50 51 14
3 52 51 50
3 52 16 51
3 52 53 16
3 54 53 52
3 54 18 53
3 283 55 284
3 285 284 19
3 283 284 285
3 286 55 287
3 288 21 289
3 290 289 55
3 288 289 290
3 56 57 22
3 291 57 292
3 293 292 56
3 291 292 293
3 295 294 57
3 296 19 297
3 58 59 24
3 60 59 58
3 60 26 59
3 61 62 12
3 63 62 61
3 63 27 62
3 63 64 27
3 65 64 63
3 65 28 64
3 298 66 299
3 67 300 302
3 300 66 301
3 300 301 302
3 67 29 66
3 67 68 29
3 69 68 67
3 69 30 68
3 70 71 15
3 72 71 70
3 72 303 305
3 305 304 71
3 303 304 305
3 72 306 307
3 73 308 310
3 310 309 72
3 308 309 310
3 73 311 313
3 311 31 312
3 311 312 313
3 73 74 31
3 75 74 73
3 75 32 74
3 76 77 17
3 314 77 315
3 316 315 76
3 314 315 316
3 318 317 77
3 319 78 320
3 321 320 33
3 319 320 321
3 79 322 324
3 322 78 323
3 322 323 324
3 79 35 78
3 80 81 20
3 82 81 80
3 82 36 81
3 82 83 36
3 84 83 82
3 84 37 83
3 85 325 327
3 325 86 326
3 325 326 327
3 87 86 85
3 87 38 86
3 88 89 23
3 328 89 329
3 330 329 88
3 328 329 330
3 331 39 332
3 333 332 89
3 331 332 333
3 335 334 39
3 90 336 338
3 336 91 337
3 336 337 338
3 92 91 90
3 92 40 91
3 92 93 40
3 94 93 92
3 94 41 93
3 339 33 340
3 95 96 34
3 97 96 95
3 97 42 96
3 98 99 25
3 100 99 98
3 100 43 99
3 100 101 43
3 102 101 100
3 102 44 101
3 341 103 342
3 104 343 345
3 343 103 344
3 343 344 345
3 104 45 103
3 104 105 45
3 106 105 104
3 106 46 105
3 106 107 46
3 108 107 106
3 108 346 348
3 348 347 107
3 346 347 348
3 109 349 350
3 109 351 353
3 351 12 352
3 351 352 353
3 48 354 356
3 354 109 355
3 354 355 356
3 110 109 48
3 110 12 109
3 110 61 12
3 111 61 110
3 111 3 61
3 357 5 358
3 112 113 2
3 114 113 112
3 114 15 113
3 51 114 14
3 115 114 51
3 115 15 114
3 115 70 15
3 116 70 115
3 116 6 70
3 116 117 6
3 118 117 116
3 118 17 117
3 53 118 16
3 119 118 53
3 119 17 118
3 119 76 17
3 120 76 119
3 120 359 361
3 361 360 76
3 359 360 361
3 121 122 7
3 123 122 121
3 123 20 122
3 55 123 19
3 124 123 55
3 124 20 123
3 124 80 20
3 125 80 124
3 125 9 80
3 126 127 4
3 128 127 126
3 128 23 127
3 57 128 22
3 129 128 57
3 129 23 128
3 129 88 23
3 362 88 363
3 364 363 129
3 362 363 364
3 366 365 88
3 367 90 368
3 369 90 370
3 372 371 90
3 121 373 374
3 121 375 377
3 375 7 376
3 375 376 377
3 130 131 8
3 132 131 130
3 132 25 131
3 59 132 24
3 133 132 59
3 133 25 132
3 133 98 25
3 134 98 133
3 134 10 98
3 378 11 379
3 381 380 11
3 382 2 383
3 62 384 386
3 386 385 12
3 384 385 386
3 135 387 389
3 389 388 62
3 387 388 389
3 135 390 391
3 135 392 393
3 136 394 396
3 396 395 135
3 394 395 396
3 136 397 399
3 397 2 398
3 397 398 399
3 136 112 2
3 137 112 136
3 137 14 112
3 64 137 27
3 138 137 64
3 138 14 137
3 138 50 14
3 139 50 138
3 139 1 50
3 400 85 401
3 140 402 404
3 402 85 403
3 402 403 404
3 140 4 85
3 66 405 406
3 141 407 409
3 409 408 66
3 407 408 409
3 141 410 411
3 141 412 414
3 412 140 413
3 412 413 414
3 142 140 141
3 142 4 140
3 142 126 4
3 143 126 142
3 143 22 126
3 68 143 29
3 144 143 68
3 144 22 143
3 144 56 22
3 145 56 144
3 145 415 417
3 417 416 56
3 415 416 417
3 113 418 420
3 420 419 2
3 418 419 420
3 146 421 423
3 423 422 113
3 421 422 423
3 146 424 425
3 71 146 15
3 426 146 427
3 428 427 71
3 426 427 428
3 430 429 146
3 147 431 432
3 147 433 434
3 74 147 31
3 148 147 74
3 148 435 437
3 437 436 147
3 435 436 437
3 148 438 439
3 149 440 442
3 442 441 148
3 440 441 442
3 149 443 444
3 117 75 6
3 150 75 117
3 150 32 75
3 77 150 17
3 151 150 77
3 151 32 150
3 151 149 32
3 445 149 446
3 447 446 151
3 445 446 447
3 449 448 149
3 152 153 0
3 154 153 152
3 154 34 153
3 78 154 33
3 155 154 78
3 155 34 154
3 155 95 34
3 156 95 155
3 156 8 95
3 122 79 7
3 157 79 122
3 157 35 79
3 81 157 20
3 158 157 81
3 158 35 157
3 158 156 35
3 159 156 158
3 159 8 156
3 159 130 8
3 160 130 159
3 160 24 130
3 83 160 36
3 161 160 83
3 161 24 160
3 161 58 24
3 162 58 161
3 162 450 452
3 452 451 58
3 450 451 452
3 453 21 454
3 86 455 456
3 163 457 459
3 459 458 86
3 457 458 459
3 163 460 462
3 460 21 461
3 460 461 462
3 163 125 21
3 164 125 163
3 164 9 125
3 127 87 4
3 165 87 127
3 165 38 87
3 89 165 23
3 166 165 89
3 166 38 165
3 166 164 38
3 167 164 166
3 167 9 164
3 167 84 9
3 168 84 167
3 168 37 84
3 463 168 464
3 465 464 39
3 463 464 465
3 169 466 468
3 466 168 467
3 466 467 468
3 169 37 168
3 169 162 37
3 469 162 470
3 471 470 169
3 469 470 471
3 473 472 162
3 170 474 475
3 170 476 478
3 476 5 477
3 476 477 478
3 171 479 480
3 171 481 482
3 91 483 485
3 483 171 484
3 483 484 485
3 172 171 91
3 172 486 488
3 488 487 171
3 486 487 488
3 172 489 491
3 489 170 490
3 489 490 491
3 173 170 172
3 173 5 170
3 173 69 5
3 174 69 173
3 174 30 69
3 93 174 40
3 175 174 93
3 175 30 174
3 175 145 30
3 492 145 493
3 494 493 175
3 492 493 494
3 496 495 145
3 497 94 498
3 499 94 500
3 501 41 502
3 503 502 94
3 501 502 503
3 504 41 505
3 507 506 41
3 152 508 509
3 152 510 512
3 510 0 511
3 510 511 512
3 513 47 514
3 515 47 516
3 517 0 518
3 519 518 47
3 517 518 519
3 153 49 0
3 176 49 153
3 176 13 49
3 96 176 34
3 177 176 96
3 177 13 176
3 177 111 13
3 178 111 177
3 178 3 111
3 131 97 8
3 179 97 131
3 179 42 97
3 99 179 25
3 180 179 99
3 180 42 179
3 180 178 42
3 181 178 180
3 181 3 178
3 181 65 3
3 182 65 181
3 182 28 65
3 101 182 43
3 183 182 101
3 183 28 182
3 183 139 28
3 184 139 183
3 184 1 139
3 520 60 521
3 522 60 523
3 524 26 525
3 526 525 60
3 524 525 526
3 185 527 528
3 185 529 531
3 529 26 530
3 529 530 531
3 185 134 26
3 186 134 185
3 186 10 134
3 103 532 533
3 187 534 536
3 536 535 103
3 534 535 536
3 187 537 538
3 187 539 541
3 539 186 540
3 539 540 541
3 188 186 187
3 188 10 186
3 188 102 10
3 189 102 188
3 189 44 102
3 105 189 45
3 190 189 105
3 190 44 189
3 190 184 44
3 191 184 190
3 191 1 184
3 191 54 1
3 192 54 191
3 192 18 54
3 107 192 46
3 193 192 107
3 193 18 192
3 193 120 18
3 542 120 543
3 544 543 193
3 542 543 544
3 546 545 120
3 547 108 548
3 549 548 11
3 547 548 549
3 550 108 551
3 553 552 108
