ply
format ascii 1.0
element vertex 262
property float x
property float y
property float z
element face 270
property list uchar int vertex_index
end_header
-33.341354 75.063507 -37.426144
-30.697407 90.228012 -31.624605
-28.706581 86.888481 -42.093388
-34.917202 68.163582 -34.550934
-33.97094 76.510277 -31.939093
-26.190983 100.515488 -29.119143
-28.902172 96.306625 -27.53759
-28.199165 95.342072 -33.6035
-29.904785 89.053482 -37.215813
-26.991142 93.517403 -39.120998
-35.321484 58.492195 -36.699036
-34.001522 65.843948 -39.480652
-32.269669 72.866165 -42.119499
-32.745865 84.447144 -22.545341
-31.039124 90.894226 -25.287542
-32.598289 84.309639 -28.890684
-32.133373 83.3592 -34.851295
-31.384478 81.168968 -40.056366
-30.016071 78.717819 -44.45285
-34.686474 73.313156 -30.445654
-34.133194 77.048347 -28.853537
-24.47732 102.228279 -29.776485
-25.623453 100.024551 -32.15765
-27.228264 98.114716 -31.419777
-26.630388 97.501846 -34.455513
-27.635059 94.608315 -36.446823
-34.151325 71.680458 -36.113361
-34.518795 66.985619 -37.162266
-33.681412 70.661423 -38.744751
-33.156902 69.159531 -41.030712
-32.859203 74.029388 -39.906822
-32.034924 87.046097 -17.084789
-32.763802 84.132759 -19.0762
-31.981379 87.611122 -20.553274
-29.850863 93.454826 -29.419441
-30.048615 93.733665 -26.372389
-30.907759 90.682816 -28.455841
-31.899035 87.508064 -27.225965
-31.665115 87.548599 -30.278858
-32.454483 83.789116 -31.878056
-31.489246 86.859924 -33.18557
-29.418186 87.949234 -39.762043
-30.698605 85.154221 -38.842518
-30.142876 84.170174 -41.155159
-30.755745 80.010902 -42.406883
-29.452816 82.9328 -43.336586
-35.279716 68.752106 -31.563597
-34.508564 72.389793 -33.329777
-33.704193 75.948235 -34.729973
-24.972294 102.677475 -26.673868
-26.589895 100.807762 -26.142269
-28.041761 98.617287 -25.154776
-27.64246 98.558647 -28.34086
-28.647842 95.876663 -30.518625
-29.588701 92.863602 -32.506279
-30.313948 89.881638 -34.451759
-29.112518 92.387794 -35.36607
-28.527514 91.650818 -38.057587
-28.03425 90.255226 -40.537834
-34.615643 57.237495 -39.110779
-35.25922 63.284641 -35.534424
-34.696388 62.077545 -38.153152
-33.958977 61.173302 -40.554428
-33.265236 64.722099 -41.82132
-32.374424 68.388268 -43.19455
-31.477873 71.563553 -44.273594
-33.510769 80.913261 -21.020777
-33.511574 80.956146 -24.280287
-29.216799 96.265114 -24.221106
-30.211882 93.756058 -23.0026
-31.145891 90.801819 -21.978172
-31.933914 87.771843 -24.080988
-32.737305 84.315674 -25.854961
-33.467476 80.749107 -27.451252
-33.326473 80.520325 -30.377703
-33.114132 79.918732 -33.483505
-32.779079 79.39679 -36.185535
-31.070963 86.431595 -36.045578
-31.785322 82.527405 -37.48278
-32.404797 78.361816 -38.746632
-31.910189 77.132614 -41.122429
-31.255253 75.833107 -43.312508
-34.160177 77.274082 -27.325021
-34.487334 75.356861 -28.111623
-25.276122 99.608315 -33.660336
-24.70036 100.797744 -32.486864
-25.77959 98.346962 -34.809267
-26.126921 98.763199 -33.306582
-25.276122 99.608315 -33.660336
-26.302907 97.019573 -35.855171
-25.77959 98.346962 -34.809267
-31.635065 88.71822 -17.770398
-31.648077 88.471046 -16.158224
-31.608293 89.000732 -19.504641
-32.008151 87.328609 -18.819032
-31.635065 88.71822 -17.770398
-35.368675 69.11649 -30.119773
-35.632658 66.776855 -30.798385
-35.721617 67.141239 -29.354561
-35.27195 55.858456 -37.112766
-35.643828 56.556429 -35.818241
-34.968564 57.864845 -37.904908
-34.91903 55.231105 -38.318638
-35.27195 55.858456 -37.112766
-35.088211 65.724112 -35.042679
-35.451346 63.773363 -34.257174
-35.280337 66.212834 -33.765428
-30.226121 76.523941 -44.8927
-30.845712 75.081585 -44.322529
-30.635662 77.275463 -43.882679
-34.763973 73.489266 -28.907682
-35.072054 71.397015 -29.560802
-34.409834 75.180752 -29.649596
-34.763973 73.489266 -28.907682
-34.487334 75.356861 -28.111623
-24.127294 101.899608 -31.296281
-23.533767 102.913196 -29.973125
-25.050387 101.126415 -30.967067
-24.127294 101.899608 -31.296281
-24.70036 100.797744 -32.486864
-26.805242 95.572808 -36.850826
-27.132723 96.055081 -35.451168
-26.302907 97.019573 -35.855171
-26.483284 95.027352 -38.187914
-27.3131 94.062859 -37.783911
-26.805242 95.572808 -36.850826
-35.613598 59.022682 -35.333651
-35.643828 56.556429 -35.818241
-31.989517 86.919254 -15.435779
-31.648077 88.471046 -16.158224
-32.357832 85.479836 -16.327571
-31.989517 86.919254 -15.435779
-32.399363 85.589428 -18.080495
-32.722271 84.023167 -17.323276
-32.357832 85.479836 -16.327571
-35.461593 66.507095 -32.27176
-35.632658 66.776855 -30.798385
-35.098459 68.457844 -33.057265
-35.280337 66.212834 -33.765428
-35.461593 66.507095 -32.27176
-34.983095 71.032631 -31.004626
-35.368675 69.11649 -30.119773
-35.072054 71.397015 -29.560802
-23.860634 103.173805 -28.444602
-23.533767 102.913196 -29.973125
-24.108121 103.398403 -26.893293
-23.860634 103.173805 -28.444602
-24.724807 102.452877 -28.225176
-24.456233 103.473518 -25.271338
-24.108121 103.398403 -26.893293
-25.300278 102.64489 -25.046443
-24.456233 103.473518 -25.271338
-26.109078 101.710034 -24.780644
-25.300278 102.64489 -25.046443
-25.781095 101.742618 -26.408068
-26.822555 100.771187 -24.472755
-26.109078 101.710034 -24.780644
-27.315828 99.712525 -25.648522
-27.548489 99.67595 -23.979009
-26.822555 100.771187 -24.472755
-34.484463 54.724884 -39.444053
-34.78785 52.718495 -38.651912
-34.91903 55.231105 -38.318638
-34.205645 56.740751 -40.154784
-34.484463 54.724884 -39.444053
-35.582466 61.418905 -34.751345
-35.451346 63.773363 -34.257174
-35.290352 60.888418 -36.11673
-35.613598 59.022682 -35.333651
-35.582466 61.418905 -34.751345
-33.877312 58.708655 -40.876608
-34.205645 56.740751 -40.154784
-34.28731 59.205399 -39.832604
-33.546456 60.418144 -41.58201
-33.877312 58.708655 -40.876608
-33.199585 62.192543 -42.215456
-33.546456 60.418144 -41.58201
-33.612106 62.9477 -41.187874
-32.847378 64.144182 -42.815636
-33.199585 62.192543 -42.215456
-32.401972 65.977266 -43.502251
-32.847378 64.144182 -42.815636
-32.81983 66.555183 -42.507935
-31.976132 67.516198 -44.120031
-32.401972 65.977266 -43.502251
-31.527857 69.10384 -44.659554
-31.976132 67.516198 -44.120031
-31.926148 69.97591 -43.734072
-31.044784 70.598102 -45.210771
-31.094769 68.138389 -45.596731
-31.527857 69.10384 -44.659554
-33.088842 82.521252 -18.328435
-32.722271 84.023167 -17.323276
-33.462326 80.911503 -19.300723
-33.088842 82.521252 -18.328435
-33.137286 82.52301 -20.048488
-33.849211 79.205421 -20.253558
-33.462326 80.911503 -19.300723
-33.880585 79.156609 -21.868043
-33.849211 79.205421 -20.253558
-33.880988 79.178051 -23.497798
-33.880585 79.156609 -21.868043
-33.511172 80.934704 -22.650532
-33.849367 79.227981 -25.038396
-33.880988 79.178051 -23.497798
-28.154772 98.657395 -23.364183
-27.548489 99.67595 -23.979009
-28.742291 97.481308 -22.897348
-28.154772 98.657395 -23.364183
-28.62928 97.441201 -24.687941
-29.325375 96.167538 -22.481476
-28.742291 97.481308 -22.897348
-29.822916 94.91301 -21.872223
-29.325375 96.167538 -22.481476
-29.71434 95.010586 -23.611853
-30.319375 93.494476 -21.249491
-29.822916 94.91301 -21.872223
-30.786379 92.017357 -20.737277
-30.319375 93.494476 -21.249491
-30.678886 92.278938 -22.490386
-31.190549 90.596081 -20.21709
-30.786379 92.017357 -20.737277
-31.563635 89.20647 -21.265723
-31.608293 89.000732 -19.504641
-31.190549 90.596081 -20.21709
-33.827318 79.124462 -26.623879
-33.849367 79.227981 -25.038396
-33.489525 80.852626 -25.865769
-33.800335 78.898727 -28.152394
-34.160177 77.274082 -27.325021
-33.827318 79.124462 -26.623879
-30.957022 72.946808 -44.803072
-31.366563 73.69833 -43.793051
-30.845712 75.081585 -44.322529
-31.044784 70.598102 -45.210771
-30.957022 72.946808 -44.803072
-26.123613 94.443649 -39.406422
-26.483284 95.027352 -38.187914
-26.676583 92.873501 -40.227615
-26.123613 94.443649 -39.406422
-27.198137 91.242413 -40.936033
-27.512696 91.886314 -39.829416
-26.676583 92.873501 -40.227615
-27.611838 89.627445 -41.695499
-27.198137 91.242413 -40.936033
-27.948003 87.944073 -42.473276
-28.370416 88.571854 -41.315611
-27.611838 89.627445 -41.695499
-28.33894 86.073375 -43.170229
-27.948003 87.944073 -42.473276
-28.712057 84.095535 -43.791828
-29.079698 84.91064 -42.714987
-28.33894 86.073375 -43.170229
-29.077354 82.129311 -44.312902
-28.712057 84.095535 -43.791828
-29.358982 80.02182 -44.871035
-29.734443 80.82531 -43.894718
-29.077354 82.129311 -44.312902
-29.595928 77.857086 -45.388662
-29.358982 80.02182 -44.871035
-30.226121 76.523941 -44.8927
-29.595928 77.857086 -45.388662
3 82 20 83
3 84 22 85
3 86 24 87
3 88 87 22
3 86 87 88
3 90 89 24
3 0 28 26
3 0 30 28
3 91 31 92
3 93 33 94
3 95 94 31
3 93 94 95
3 1 36 34
3 1 38 36
3 1 40 38
3 2 43 41
3 2 45 43
3 96 46 97
3 96 97 98
3 4 47 19
3 4 48 47
3 5 49 21
3 5 50 49
3 5 52 50
3 7 53 23
3 7 54 53
3 7 56 54
3 9 57 25
3 9 58 57
3 10 99 100
3 10 101 103
3 101 59 102
3 101 102 103
3 3 104 106
3 104 60 105
3 104 105 106
3 11 61 27
3 11 62 61
3 11 63 62
3 12 64 29
3 12 65 64
3 13 66 32
3 13 67 66
3 6 68 51
3 14 69 35
3 14 70 69
3 14 71 70
3 15 72 37
3 15 73 72
3 15 74 73
3 16 75 39
3 16 76 75
3 8 77 55
3 17 78 42
3 17 79 78
3 17 80 79
3 18 81 44
3 18 107 109
3 109 108 81
3 107 108 109
3 110 19 111
3 20 112 114
3 112 19 113
3 112 113 114
3 20 4 19
3 115 21 116
3 22 117 119
3 117 21 118
3 117 118 119
3 22 5 21
3 22 23 5
3 24 23 22
3 24 7 23
3 24 25 7
3 120 25 121
3 122 121 24
3 120 121 122
3 123 9 124
3 125 124 25
3 123 124 125
3 126 10 127
3 26 27 3
3 28 27 26
3 28 11 27
3 28 29 11
3 30 29 28
3 30 12 29
3 31 128 129
3 31 130 131
3 31 132 134
3 132 32 133
3 132 133 134
3 33 32 31
3 33 13 32
3 34 35 6
3 36 35 34
3 36 14 35
3 36 37 14
3 38 37 36
3 38 15 37
3 38 39 15
3 40 39 38
3 40 16 39
3 41 42 8
3 43 42 41
3 43 17 42
3 43 44 17
3 45 44 43
3 45 18 44
3 46 135 136
3 46 137 139
3 137 3 138
3 137 138 139
3 19 140 142
3 140 46 141
3 140 141 142
3 47 46 19
3 47 3 46
3 47 26 3
3 48 26 47
3 48 0 26
3 21 143 144
3 49 145 147
3 147 146 21
3 145 146 147
3 49 148 149
3 49 150 151
3 50 152 154
3 154 153 49
3 152 153 154
3 50 155 156
3 50 157 159
3 157 51 158
3 157 158 159
3 52 51 50
3 52 6 51
3 23 52 5
3 53 52 23
3 53 6 52
3 53 34 6
3 54 34 53
3 54 1 34
3 54 55 1
3 56 55 54
3 56 8 55
3 25 56 7
3 57 56 25
3 57 8 56
3 57 41 8
3 58 41 57
3 58 2 41
3 59 160 162
3 160 161 162
3 59 163 164
3 60 165 166
3 60 167 169
3 167 10 168
3 167 168 169
3 27 60 3
3 61 60 27
3 61 10 60
3 61 59 10
3 62 59 61
3 62 170 172
3 172 171 59
3 170 171 172
3 62 173 174
3 63 175 177
3 177 176 62
3 175 176 177
3 63 178 179
3 29 63 11
3 64 63 29
3 64 180 182
3 182 181 63
3 180 181 182
3 64 183 184
3 65 185 187
3 187 186 64
3 185 186 187
3 65 188 190
3 188 189 190
3 32 191 192
3 66 193 195
3 195 194 32
3 193 194 195
3 66 196 197
3 66 198 199
3 67 200 202
3 202 201 66
3 200 201 202
3 67 203 204
3 51 205 206
3 68 207 209
3 209 208 51
3 207 208 209
3 68 210 211
3 35 68 6
3 69 68 35
3 69 212 214
3 214 213 68
3 212 213 214
3 69 215 216
3 70 217 219
3 219 218 69
3 217 218 219
3 70 220 221
3 70 222 224
3 222 33 223
3 222 223 224
3 71 33 70
3 71 13 33
3 37 71 14
3 72 71 37
3 72 13 71
3 72 67 13
3 73 67 72
3 73 225 227
3 227 226 67
3 225 226 227
3 73 228 230
3 228 20 229
3 228 229 230
3 74 20 73
3 74 4 20
3 39 74 15
3 75 74 39
3 75 4 74
3 75 48 4
3 76 48 75
3 76 0 48
3 55 40 1
3 77 40 55
3 77 16 40
3 42 77 8
3 78 77 42
3 78 16 77
3 78 76 16
3 79 76 78
3 79 0 76
3 79 30 0
3 80 30 79
3 80 12 30
3 44 80 17
3 81 80 44
3 81 12 80
3 81 65 12
3 231 65 232
3 233 232 81
3 231 232 233
3 235 234 65
3 236 9 237
3 238 9 239
3 240 58 241
3 242 241 9
3 240 241 242
3 243 58 244
3 245 2 246
3 247 246 58
3 245 246 247
3 248 2 249
3 250 45 251
3 252 251 2
3 250 251 252
3 253 45 254
3 255 18 256
3 257 256 45
3 255 256 257
3 258 18 259
3 261 260 18
