ply
format ascii 1.0
element vertex 182
property float x
property float y
property float z
element face 173
property list uchar int vertex_index
end_header
-28.936014 41.314075 3.626086
-24.155535 50.482342 8.094124
-26.425591 49.674435 -0.658565
-26.3965 41.0312 12.811983
-23.496517 55.272133 5.358971
-26.452698 45.914391 5.859587
-27.631802 45.342228 1.517394
-25.50458 50.243484 3.611285
-24.752787 54.781445 0.951244
-27.73843 41.407642 8.072361
-25.11393 45.642551 10.668223
-30.199381 39.050781 2.443402
-30.44828 38.906101 0.384937
-29.352171 41.14138 1.548129
-25.26631 48.150692 7.095661
-25.937151 48.067276 4.798837
-24.843994 50.448486 5.832579
-23.262793 57.704231 3.744201
-24.216759 55.03495 2.998191
-23.903307 57.321667 1.691683
-24.402546 57.073368 -0.447723
-27.010284 41.366043 10.468181
-26.427624 43.458801 9.355641
-25.659437 43.465202 11.763641
-26.998974 47.550243 0.350378
-27.903643 45.115089 -0.379935
-23.093098 52.645287 9.22637
-23.814709 52.795536 6.779675
-22.816294 55.18512 7.641168
-24.979012 43.151688 14.240162
-27.660791 43.598831 4.819582
-28.26549 43.284397 2.64076
-27.130276 45.592297 3.660641
-26.568998 47.805862 2.498044
-26.07976 49.911335 1.412946
-24.521191 52.764248 4.369358
-25.160248 52.407192 2.220769
-25.614714 52.116344 0.219674
-25.167356 54.438286 -1.185157
-28.322136 41.54987 5.774459
-27.046551 43.659672 7.012438
-25.829002 45.789551 8.185566
-24.618593 48.048027 9.341578
-24.36463 45.621613 13.018488
-23.851524 48.015896 11.781384
-23.420366 50.282192 10.628726
-28.644497 43.034641 0.534596
-23.468584 58.67659 1.929434
-23.58305 57.512949 2.717942
-23.148327 58.867872 2.955693
-23.749721 58.573957 0.86845
-23.468584 58.67659 1.929434
-27.092462 40.016887 12.177364
-26.720212 39.909813 13.410125
-26.703392 41.198622 11.640082
-27.399355 40.184309 11.005463
-27.092462 40.016887 12.177364
-26.854136 48.345616 -1.089561
-27.140828 47.283519 -0.585089
-26.712283 48.612339 -0.154093
-22.43078 55.130777 8.854302
-22.954696 53.915204 8.433769
-22.569183 53.860861 9.646903
-30.550371 38.594652 -0.53429
-30.072667 39.751001 -0.028992
-24.416978 57.991348 -2.334468
-24.578729 56.860224 -1.523581
-24.240795 58.204493 -1.25861
-28.41253 40.365213 7.474009
-28.063771 40.321922 8.709681
-28.030283 41.478756 6.92341
-28.704383 40.436327 6.325058
-28.41253 40.365213 7.474009
-24.012425 45.443556 14.30058
-24.671821 44.386651 13.629325
-24.319616 44.208593 14.911417
-23.24908 49.157944 12.380747
-23.508874 47.880902 12.987281
-23.033501 50.291092 11.804418
-23.635945 49.149044 11.205055
-23.24908 49.157944 12.380747
-22.853144 51.494387 11.123806
-23.033501 50.291092 11.804418
-28.383336 43.837078 -0.867344
-27.983052 44.83355 -1.327025
-30.32383 38.978441 1.414169
-30.890778 37.94252 0.821852
-30.766329 38.01486 1.851084
-29.524612 40.86864 0.552605
-30.072667 39.751001 -0.028992
-29.900225 40.023741 0.966533
-23.999341 58.449808 -0.201253
-24.152926 57.197518 0.62198
-23.749721 58.573957 0.86845
-24.240795 58.204493 -1.25861
-23.999341 58.449808 -0.201253
-27.699697 40.301122 9.907591
-27.399355 40.184309 11.005463
-27.374357 41.386843 9.270271
-28.063771 40.321922 8.709681
-27.699697 40.301122 9.907591
-27.593162 46.065942 -0.950246
-27.451308 46.332666 -0.014778
-27.140828 47.283519 -0.585089
-27.983052 44.83355 -1.327025
-27.593162 46.065942 -0.950246
-22.287155 56.432566 8.074889
-22.43078 55.130777 8.854302
-22.661811 56.501385 6.885193
-22.287155 56.432566 8.074889
-23.001922 56.544891 5.744094
-23.156405 55.228626 6.50007
-22.661811 56.501385 6.885193
-22.885061 57.760941 4.936709
-23.379655 56.488182 4.551586
-23.001922 56.544891 5.744094
-22.822274 58.878256 4.076042
-22.885061 57.760941 4.936709
-23.148327 58.867872 2.955693
-22.822274 58.878256 4.076042
-26.017032 40.906759 14.088373
-26.720212 39.909813 13.410125
-25.308288 41.967003 14.802463
-25.687756 42.091444 13.526072
-26.017032 40.906759 14.088373
-24.631915 42.988757 15.465961
-25.308288 41.967003 14.802463
-24.319616 44.208593 14.911417
-24.631915 42.988757 15.465961
-30.974469 37.777706 -0.097885
-31.416967 36.814125 0.33903
-30.890778 37.94252 0.821852
-30.974469 37.777706 -0.097885
-30.550371 38.594652 -0.53429
-26.536506 49.35211 -1.632957
-26.163685 50.725134 -1.262247
-25.758246 51.946089 -0.823128
-26.163685 50.725134 -1.262247
-26.020153 50.89539 -0.219445
-25.534568 53.107059 -1.525543
-25.758246 51.946089 -0.823128
-25.391035 53.277315 -0.482741
-25.310405 54.042566 -2.16324
-25.677616 52.71134 -2.503627
-25.534568 53.107059 -1.525543
-24.961134 55.542682 -1.892298
-24.784951 55.755827 -0.81644
-24.578729 56.860224 -1.523581
-25.310405 54.042566 -2.16324
-24.961134 55.542682 -1.892298
-30.613345 38.072865 2.883722
-30.766329 38.01486 1.851084
-29.938077 39.167828 3.536168
-30.613345 38.072865 2.883722
-29.306393 40.299475 4.12751
-29.567698 40.182428 3.034744
-29.938077 39.167828 3.536168
-28.999454 40.417372 5.201697
-28.704383 40.436327 6.325058
-28.629075 41.431973 4.700273
-29.306393 40.299475 4.12751
-28.999454 40.417372 5.201697
-23.765427 46.68376 13.605832
-24.012425 45.443556 14.30058
-24.108077 46.818754 12.399936
-23.765427 46.68376 13.605832
-23.508874 47.880902 12.987281
-22.689511 52.675934 10.422628
-23.256732 51.46374 9.927548
-22.853144 51.494387 11.123806
-22.569183 53.860861 9.646903
-22.689511 52.675934 10.422628
-29.170776 41.815271 0.045838
-29.524612 40.86864 0.552605
-28.998334 42.08801 1.041362
-28.753763 42.796854 -0.410078
-28.27407 44.074865 0.07733
-28.383336 43.837078 -0.867344
-29.170776 41.815271 0.045838
-28.753763 42.796854 -0.410078
-26.854136 48.345616 -1.089561
-26.536506 49.35211 -1.632957
3 0 13 11
3 1 16 14
3 47 19 48
3 49 48 17
3 47 48 49
3 51 50 19
3 3 52 53
3 3 54 56
3 54 21 55
3 54 55 56
3 3 23 21
3 2 57 59
3 59 58 24
3 57 58 59
3 60 28 61
3 62 61 26
3 60 61 62
3 64 63 12
3 5 32 30
3 7 33 15
3 7 34 33
3 4 35 27
3 8 36 18
3 8 37 36
3 8 38 37
3 67 66 20
3 65 66 67
3 9 68 69
3 9 70 72
3 70 39 71
3 70 71 72
3 9 40 39
3 10 41 22
3 10 42 41
3 73 43 74
3 75 74 29
3 73 74 75
3 76 44 77
3 78 45 79
3 80 79 44
3 78 79 80
3 82 81 45
3 6 46 31
3 84 83 25
3 11 85 87
3 85 12 86
3 85 86 87
3 13 12 11
3 13 88 90
3 90 89 12
3 88 89 90
3 14 15 5
3 16 15 14
3 16 7 15
3 17 18 4
3 19 18 17
3 19 8 18
3 19 20 8
3 91 20 92
3 93 92 19
3 91 92 93
3 95 94 20
3 21 96 97
3 21 98 100
3 98 9 99
3 98 99 100
3 21 22 9
3 23 22 21
3 23 10 22
3 24 25 6
3 101 25 102
3 103 102 24
3 101 102 103
3 105 104 25
3 26 27 1
3 28 27 26
3 28 4 27
3 106 28 107
3 108 28 109
3 110 4 111
3 112 111 28
3 110 111 112
3 113 17 114
3 115 114 4
3 113 114 115
3 116 17 117
3 119 118 17
3 120 3 121
3 122 29 123
3 124 123 3
3 122 123 124
3 125 29 126
3 128 127 29
3 12 129 131
3 129 130 131
3 133 132 12
3 135 134 2
3 30 31 0
3 32 31 30
3 32 6 31
3 15 32 5
3 33 32 15
3 33 6 32
3 33 24 6
3 34 24 33
3 34 2 24
3 27 16 1
3 35 16 27
3 35 7 16
3 18 35 4
3 36 35 18
3 36 7 35
3 36 34 7
3 37 34 36
3 37 2 34
3 37 136 138
3 138 137 2
3 136 137 138
3 38 139 141
3 141 140 37
3 139 140 141
3 38 142 144
3 142 143 144
3 20 38 8
3 145 38 146
3 147 146 20
3 145 146 147
3 149 148 38
3 150 11 151
3 152 11 153
3 154 0 155
3 156 155 11
3 154 155 156
3 39 157 158
3 39 159 161
3 159 0 160
3 159 160 161
3 39 30 0
3 40 30 39
3 40 5 30
3 22 40 9
3 41 40 22
3 41 5 40
3 41 14 5
3 42 14 41
3 42 1 14
3 29 23 3
3 43 23 29
3 43 10 23
3 162 43 163
3 44 164 166
3 164 43 165
3 164 165 166
3 44 10 43
3 44 42 10
3 45 42 44
3 45 1 42
3 45 26 1
3 167 26 168
3 169 168 45
3 167 168 169
3 171 170 26
3 31 13 0
3 46 13 31
3 46 172 174
3 174 173 13
3 172 173 174
3 25 46 6
3 175 46 176
3 177 176 25
3 175 176 177
3 179 178 46
3 181 180 2
