ply
format ascii 1.0
element vertex 195
property float x
property float y
property float z
element face 191
property list uchar int vertex_index
end_header
12.40216 29.470182 -69.584229
14.160055 34.945221 -62.1563
6.652677 33.162342 -63.365078
13.170174 32.682095 -66.374016
10.324112 34.595055 -63.22625
9.363743 31.342848 -66.810081
5.876871 29.188263 -66.081619
8.503469 27.561768 -69.146927
16.473003 30.520536 -68.696678
11.215096 36.88549 -59.112465
7.717324 36.479256 -59.964401
4.33689 34.947739 -60.201073
3.503626 30.835701 -62.701019
2.84094 26.296265 -64.370979
12.819632 31.105801 -68.210014
11.228525 32.109867 -66.763069
10.771897 30.406878 -68.312378
8.933672 29.466097 -68.180473
10.468771 28.553232 -69.601471
16.874022 31.852654 -66.924843
14.374416 35.766014 -59.811626
12.931535 36.724903 -58.412979
12.612229 35.82621 -60.842857
8.468931 33.829262 -63.63483
8.966242 35.450104 -61.667107
7.280224 34.849251 -61.865929
6.070855 35.849709 -60.202492
5.471135 33.989834 -61.774342
3.887911 32.903316 -61.568604
5.090261 31.990429 -63.27515
5.53549 27.073992 -67.008179
4.27 27.703016 -65.368317
13.635941 33.973907 -64.328018
12.138146 34.898861 -62.840172
11.663157 33.612778 -64.915573
9.751546 33.069759 -65.113197
7.942637 32.1633 -65.198753
6.309108 31.190796 -64.934319
7.536217 30.260632 -66.641418
7.115584 28.384626 -67.659943
15.954402 34.798359 -61.178581
15.705811 33.961227 -63.605129
15.318619 32.929985 -65.763153
14.741143 31.732271 -67.576225
14.519094 30.069538 -69.330322
13.894685 28.234507 -70.684509
16.103783 28.797726 -70.270462
9.863041 37.986641 -57.495743
10.75631 35.847855 -61.213875
9.431326 36.819286 -59.613049
8.178365 37.905441 -58.015503
6.467839 37.574013 -58.365643
4.640653 29.881056 -64.444366
3.054019 28.526157 -63.589901
12.124288 28.450603 -70.171341
11.157593 27.992128 -70.179962
11.435465 29.011707 -69.59285
4.751486 26.269414 -66.529709
5.364377 25.878698 -67.352222
7.655567 26.887434 -68.864128
6.961625 27.298863 -68.120636
7.809527 27.973197 -68.403435
8.281889 26.343178 -69.563549
7.655567 26.887434 -68.864128
16.913075 34.544663 -60.650421
16.094866 35.050932 -60.009932
16.508821 33.45655 -64.21171
16.635773 33.866518 -63.081707
17.438783 33.361841 -63.688288
16.315226 32.940929 -65.290722
15.512215 33.445606 -64.684141
16.508821 33.45655 -64.21171
11.425487 37.342726 -57.953874
12.283707 37.262432 -57.604132
12.073315 36.805196 -58.762722
10.539069 37.436065 -58.304104
10.74946 37.893301 -57.145513
11.425487 37.342726 -57.953874
4.545135 35.919032 -59.421872
5.412117 36.370016 -59.422581
5.203873 35.398724 -60.201783
3.756755 35.624872 -59.341811
4.545135 35.919032 -59.421872
3.562136 34.513824 -60.03805
3.756755 35.624872 -59.341811
2.932993 31.357111 -61.833793
3.125135 32.390918 -61.267586
3.695768 31.869508 -62.134811
2.781668 30.27047 -62.294101
2.932993 31.357111 -61.833793
2.321152 26.769005 -63.541769
2.427691 27.883951 -63.15123
2.94748 27.411211 -63.98044
2.243874 25.471315 -63.88014
2.321152 26.769005 -63.541769
13.729782 27.273784 -71.177605
14.813773 27.553695 -71.088836
10.160893 27.52022 -70.029686
9.178242 27.024487 -69.802414
9.48612 28.0575 -69.374199
10.160893 27.52022 -70.029686
11.157593 27.992128 -70.179962
17.889742 31.836103 -66.400093
17.092927 32.402264 -65.871567
17.780391 31.232674 -67.360439
17.889742 31.836103 -66.400093
17.579881 30.566615 -68.246357
16.673513 31.186595 -67.810761
17.780391 31.232674 -67.360439
17.352522 29.85239 -69.091591
17.579881 30.566615 -68.246357
13.652976 36.245458 -59.112302
13.817419 36.534193 -57.872427
14.53886 36.054749 -58.57175
4.11874 26.583926 -65.709778
4.902745 27.388504 -66.188248
4.751486 26.269414 -66.529709
3.40421 25.88055 -65.211109
3.55547 26.99964 -64.869648
4.11874 26.583926 -65.709778
2.743255 25.029334 -64.669586
3.40421 25.88055 -65.211109
6.171577 26.643546 -67.794754
6.325537 27.729309 -67.334061
6.961625 27.298863 -68.120636
6.000464 25.448251 -68.138797
5.364377 25.878698 -67.352222
6.171577 26.643546 -67.794754
8.956661 25.805898 -70.219036
8.281889 26.343178 -69.563549
9.178242 27.024487 -69.802414
15.304873 35.534759 -59.326454
14.53886 36.054749 -58.57175
15.164409 35.282186 -60.495103
15.304873 35.534759 -59.326454
16.094866 35.050932 -60.009932
16.760068 34.285084 -61.868433
16.913075 34.544663 -60.650421
15.830106 34.379793 -62.391855
16.760068 34.285084 -61.868433
16.635773 33.866518 -63.081707
16.096321 32.39132 -66.343998
16.315226 32.940929 -65.290722
17.092927 32.402264 -65.871567
15.918322 27.835304 -70.881813
14.813773 27.553695 -71.088836
14.999234 28.516117 -70.477486
17.167912 28.990985 -69.878483
16.288393 29.659131 -69.48357
17.352522 29.85239 -69.091591
17.014398 28.069959 -70.590088
17.167912 28.990985 -69.878483
18.078528 28.263218 -70.198109
15.918322 27.835304 -70.881813
17.014398 28.069959 -70.590088
13.177282 37.024313 -57.178122
13.817419 36.534193 -57.872427
13.177282 37.024313 -57.178122
12.283707 37.262432 -57.604132
10.131625 38.487589 -56.371071
10.74946 37.893301 -57.145513
9.292288 38.575762 -56.738401
10.131625 38.487589 -56.371071
8.449949 38.535162 -56.998282
9.292288 38.575762 -56.738401
9.020703 37.946041 -57.755623
7.607748 38.506382 -57.268608
8.449949 38.535162 -56.998282
6.752485 38.340668 -57.443678
7.607748 38.506382 -57.268608
7.323102 37.739727 -58.190573
5.909707 38.173405 -57.646004
6.752485 38.340668 -57.443678
5.610609 37.232169 -58.504157
6.269347 36.711861 -59.284067
5.412117 36.370016 -59.422581
5.909707 38.173405 -57.646004
5.610609 37.232169 -58.504157
3.337646 33.491613 -60.721816
3.562136 34.513824 -60.03805
4.1124 33.925528 -60.884839
3.337646 33.491613 -60.721816
3.125135 32.390918 -61.267586
2.556864 29.115698 -62.738542
2.781668 30.27047 -62.294101
3.278822 29.680929 -63.14546
2.556864 29.115698 -62.738542
2.427691 27.883951 -63.15123
2.243874 25.471315 -63.88014
2.743255 25.029334 -64.669586
12.87055 27.832765 -70.721481
12.124288 28.450603 -70.171341
13.148423 28.852345 -70.134369
12.87055 27.832765 -70.721481
13.729782 27.273784 -71.177605
3 0 16 14
3 0 18 16
3 0 54 56
3 56 55 18
3 54 55 56
3 1 22 20
3 2 25 23
3 2 27 25
3 2 29 27
3 58 57 30
3 3 34 32
3 5 35 15
3 5 36 35
3 5 38 36
3 7 39 17
3 7 59 61
3 61 60 39
3 59 60 61
3 7 62 63
3 64 40 65
3 66 41 67
3 66 67 68
3 69 42 70
3 71 70 41
3 69 70 71
3 8 43 19
3 8 44 43
3 8 46 44
3 9 72 74
3 74 73 21
3 72 73 74
3 9 75 77
3 75 47 76
3 75 76 77
3 4 48 33
3 10 49 24
3 10 50 49
3 10 51 50
3 11 78 80
3 80 79 26
3 78 79 80
3 11 81 82
3 11 83 84
3 12 85 87
3 87 86 28
3 85 86 87
3 12 88 89
3 6 52 37
3 13 53 31
3 13 90 92
3 92 91 53
3 90 91 92
3 13 93 94
3 96 95 45
3 14 15 3
3 16 15 14
3 16 5 15
3 16 17 5
3 18 17 16
3 18 7 17
3 18 97 99
3 99 98 7
3 97 98 99
3 101 100 18
3 102 19 103
3 104 19 105
3 106 8 107
3 108 107 19
3 106 107 108
3 110 109 8
3 20 111 113
3 111 21 112
3 111 112 113
3 22 21 20
3 22 9 21
3 23 24 4
3 25 24 23
3 25 10 24
3 25 26 10
3 27 26 25
3 27 11 26
3 27 28 11
3 29 28 27
3 29 12 28
3 30 31 6
3 114 31 115
3 116 115 30
3 114 115 116
3 117 13 118
3 119 118 31
3 117 118 119
3 121 120 13
3 32 33 1
3 34 33 32
3 34 4 33
3 15 34 3
3 35 34 15
3 35 4 34
3 35 23 4
3 36 23 35
3 36 2 23
3 36 37 2
3 38 37 36
3 38 6 37
3 17 38 5
3 39 38 17
3 39 6 38
3 39 30 6
3 122 30 123
3 124 123 39
3 122 123 124
3 127 126 30
3 125 126 127
3 130 129 7
3 128 129 130
3 131 20 132
3 40 133 135
3 133 20 134
3 133 134 135
3 40 1 20
3 136 40 137
3 41 138 140
3 138 40 139
3 138 139 140
3 41 1 40
3 41 32 1
3 42 32 41
3 42 3 32
3 19 141 143
3 141 42 142
3 141 142 143
3 43 42 19
3 43 3 42
3 43 14 3
3 44 14 43
3 44 0 14
3 44 45 0
3 46 45 44
3 46 144 146
3 146 145 45
3 144 145 146
3 147 46 148
3 149 148 8
3 147 148 149
3 150 46 151
3 150 151 152
3 154 153 46
3 21 155 156
3 158 157 21
3 47 159 160
3 47 161 162
3 33 22 1
3 48 22 33
3 48 9 22
3 24 48 4
3 49 48 24
3 49 9 48
3 49 47 9
3 50 47 49
3 50 163 165
3 165 164 47
3 163 164 165
3 50 166 167
3 51 168 170
3 170 169 50
3 168 169 170
3 51 171 172
3 26 51 10
3 173 51 174
3 175 174 26
3 173 174 175
3 177 176 51
3 28 178 180
3 180 179 11
3 178 179 180
3 182 181 28
3 37 29 2
3 52 29 37
3 52 12 29
3 31 52 6
3 53 52 31
3 53 12 52
3 53 183 185
3 185 184 12
3 183 184 185
3 187 186 53
3 189 188 13
3 45 190 192
3 192 191 0
3 190 191 192
3 194 193 45
