ply
format ascii 1.0
element vertex 176
property float x
property float y
property float z
element face 156
property list uchar int vertex_index
end_header
4.474018 -28.330954 -45.362991
0.303506 -18.365683 -52.774372
2.972758 -30.315971 -47.140476
2.176239 -23.441504 -49.057457
0.55762 -24.648371 -50.906559
-1.489678 -19.40382 -54.623848
5.591346 -35.092548 -43.753754
-1.361066 -13.222135 -56.654175
-3.288549 -14.150818 -58.33934
2.037019 -30.847561 -48.121201
1.652712 -27.496544 -49.081059
-3.956782 -8.742924 -61.220646
5.148866 -27.300068 -44.465477
4.693485 -24.333055 -45.265633
4.01611 -25.224817 -46.199638
1.177889 -20.8957 -50.935265
1.932117 -20.310045 -49.948269
1.027333 -17.698555 -51.895523
0.254368 -15.323114 -53.718365
-0.567769 -12.820652 -55.740295
-0.529652 -15.943672 -54.63063
-2.409589 -16.640142 -56.535023
3.730483 -29.231882 -46.298523
3.280348 -25.801311 -47.207577
2.56385 -26.783707 -48.062122
1.48949 -24.386539 -49.825985
0.407917 -21.546257 -51.812611
-0.519716 -18.871481 -53.700672
-0.564704 -21.956118 -52.847744
5.749111 -30.73403 -43.574879
5.024193 -31.779104 -44.501469
4.260169 -32.648827 -45.416012
2.936696 -22.747971 -48.047783
-2.08922 -10.792953 -58.469547
-1.437495 -16.255955 -55.648624
-2.284882 -13.682994 -57.541992
-3.104773 -11.131582 -59.41021
-4.158901 -11.654835 -60.140816
1.385541 -29.471144 -49.048811
1.553319 -31.299155 -48.528502
-3.415095 -8.519652 -60.792641
-3.825161 -7.430039 -61.664823
6.439732 -31.874402 -42.686299
6.082743 -30.229123 -43.130139
5.981253 -34.621767 -43.272898
6.744524 -35.817516 -42.383391
6.354616 -36.288297 -42.864247
5.30777 -33.435826 -44.127612
5.697677 -32.965045 -43.646755
5.981253 -34.621767 -43.272898
4.501946 -22.864349 -45.684545
4.14967 -23.212747 -46.181773
2.292281 -20.011669 -49.433662
1.8404 -18.805657 -50.39786
-1.321402 -11.714287 -57.175726
-0.924754 -11.513545 -56.718786
-0.964418 -13.021394 -56.197235
-1.725143 -12.007544 -57.561861
-1.685479 -10.499696 -58.083412
-1.321402 -11.714287 -57.175726
1.193388 -27.795635 -49.52874
1.844866 -29.172052 -48.60113
1.385541 -29.471144 -49.048811
0.645841 -26.371549 -50.44149
1.105166 -26.072457 -49.993809
1.193388 -27.795635 -49.52874
0.054697 -24.980108 -51.360496
0.645841 -26.371549 -50.44149
5.985512 -36.987064 -43.299488
6.354616 -36.288297 -42.864247
5.246245 -35.716505 -44.133526
5.985512 -36.987064 -43.299488
-4.377766 -7.712664 -62.020275
-3.825161 -7.430039 -61.664823
-4.48005 -9.099891 -61.49377
-4.377766 -7.712664 -62.020275
4.921176 -25.816561 -44.865555
5.311294 -25.539062 -44.330711
5.538985 -27.022569 -43.930633
3.810983 -23.658628 -46.648775
4.14967 -23.212747 -46.181773
4.354798 -24.778936 -45.732636
1.388008 -17.499913 -51.371487
1.8404 -18.805657 -50.39786
1.479725 -19.0043 -50.921896
1.023333 -16.244391 -52.282018
1.388008 -17.499913 -51.371487
0.63685 -15.056671 -53.193439
1.023333 -16.244391 -52.282018
0.64085 -16.510835 -52.806944
0.255346 -13.955569 -54.145536
0.63685 -15.056671 -53.193439
-0.1567 -14.071883 -54.72933
-0.155723 -12.704339 -55.156502
0.255346 -13.955569 -54.145536
-2.43766 -18.301033 -55.953164
-1.949634 -18.021981 -55.579436
-1.977705 -19.682872 -54.997576
-2.948554 -16.947748 -56.898388
-2.43766 -18.301033 -55.953164
-3.388034 -15.703086 -57.800546
-2.849069 -15.39548 -57.437182
-2.948554 -16.947748 -56.898388
-3.83916 -14.331073 -58.721327
-3.388034 -15.703086 -57.800546
-0.506466 -23.633981 -52.331089
-0.003542 -23.302245 -51.877151
0.054697 -24.980108 -51.360496
-1.05953 -22.325285 -53.237065
-0.506466 -23.633981 -52.331089
-1.522018 -21.049136 -54.125117
-1.027191 -20.679969 -53.735796
-1.05953 -22.325285 -53.237065
-1.977705 -19.682872 -54.997576
-1.522018 -21.049136 -54.125117
5.782621 -28.512142 -43.575437
5.538985 -27.022569 -43.930633
5.448989 -29.017049 -44.020178
5.782621 -28.512142 -43.575437
6.082743 -30.229123 -43.130139
6.060136 -32.442508 -43.183461
6.439732 -31.874402 -42.686299
5.386652 -31.256567 -44.038174
6.060136 -32.442508 -43.183461
5.697677 -32.965045 -43.646755
4.580657 -34.494644 -44.964655
4.925757 -33.870688 -44.584883
5.246245 -35.716505 -44.133526
3.842513 -33.208012 -45.848629
4.580657 -34.494644 -44.964655
3.198807 -32.041584 -46.710861
3.616464 -31.482399 -46.278244
3.842513 -33.208012 -45.848629
2.730938 -32.307379 -47.201223
2.504888 -30.581766 -47.630838
3.198807 -32.041584 -46.710861
2.256301 -32.832104 -47.625215
2.730938 -32.307379 -47.201223
1.553319 -31.299155 -48.528502
2.256301 -32.832104 -47.625215
5.062368 -23.968123 -44.768858
5.311294 -25.539062 -44.330711
5.062368 -23.968123 -44.768858
4.501946 -22.864349 -45.684545
3.271275 -22.420206 -47.572848
3.810983 -23.658628 -46.648775
3.476403 -23.986394 -47.123711
2.79457 -21.230632 -48.483419
2.434407 -21.529008 -48.998026
2.292281 -20.011669 -49.433662
3.271275 -22.420206 -47.572848
2.79457 -21.230632 -48.483419
-0.515813 -11.418574 -56.169626
-0.155723 -12.704339 -55.156502
-0.515813 -11.418574 -56.169626
-0.924754 -11.513545 -56.718786
-2.042908 -9.372288 -58.991387
-1.685479 -10.499696 -58.083412
-2.481314 -9.544667 -59.417091
-2.042908 -9.372288 -58.991387
-2.98909 -9.713981 -59.887422
-2.481314 -9.544667 -59.417091
-2.596996 -10.962267 -58.939878
-3.530778 -9.937253 -60.315428
-3.415095 -8.519652 -60.792641
-2.98909 -9.713981 -59.887422
-4.58111 -10.555847 -60.953856
-4.48005 -9.099891 -61.49377
-4.057842 -10.19888 -60.680731
-4.274336 -13.083082 -59.622065
-3.723725 -12.902826 -59.240078
-3.83916 -14.331073 -58.721327
-4.676798 -11.930498 -60.418707
-4.274336 -13.083082 -59.622065
-4.58111 -10.555847 -60.953856
-4.676798 -11.930498 -60.418707
3 39 38 9
3 40 11 41
3 0 14 12
3 1 17 15
3 1 18 17
3 1 20 18
3 2 24 22
3 4 25 10
3 4 26 25
3 4 28 26
3 42 29 43
3 6 44 46
3 44 45 46
3 6 47 49
3 47 30 48
3 47 48 49
3 6 31 30
3 51 50 13
3 3 32 23
3 53 52 16
3 7 54 56
3 56 55 19
3 54 55 56
3 7 57 59
3 57 33 58
3 57 58 59
3 5 34 27
3 8 35 21
3 8 36 35
3 8 37 36
3 9 10 2
3 60 10 61
3 62 61 9
3 60 61 62
3 63 4 64
3 65 64 10
3 63 64 65
3 67 66 4
3 68 6 69
3 71 70 6
3 11 72 73
3 11 74 75
3 12 76 78
3 76 13 77
3 76 77 78
3 14 13 12
3 14 79 81
3 81 80 13
3 79 80 81
3 15 16 3
3 17 16 15
3 17 82 84
3 84 83 16
3 82 83 84
3 17 85 86
3 18 87 89
3 89 88 17
3 87 88 89
3 18 90 91
3 18 92 94
3 92 19 93
3 92 93 94
3 20 19 18
3 20 7 19
3 95 21 96
3 97 96 5
3 95 96 97
3 98 21 99
3 100 8 101
3 102 101 21
3 100 101 102
3 104 103 8
3 22 23 0
3 24 23 22
3 24 3 23
3 10 24 2
3 25 24 10
3 25 3 24
3 25 15 3
3 26 15 25
3 26 1 15
3 26 27 1
3 28 27 26
3 28 5 27
3 105 28 106
3 107 106 4
3 105 106 107
3 108 28 109
3 110 5 111
3 112 111 28
3 110 111 112
3 114 113 5
3 115 12 116
3 29 117 119
3 117 12 118
3 117 118 119
3 29 0 12
3 120 29 121
3 30 122 124
3 122 29 123
3 122 123 124
3 30 0 29
3 30 22 0
3 31 22 30
3 31 2 22
3 125 31 126
3 127 126 6
3 125 126 127
3 128 31 129
3 130 2 131
3 132 131 31
3 130 131 132
3 133 9 134
3 135 134 2
3 133 134 135
3 136 9 137
3 139 138 9
3 13 140 141
3 143 142 13
3 23 14 0
3 32 14 23
3 32 144 146
3 146 145 14
3 144 145 146
3 16 32 3
3 147 32 148
3 149 148 16
3 147 148 149
3 151 150 32
3 19 152 153
3 155 154 19
3 33 156 157
3 33 158 159
3 27 20 1
3 34 20 27
3 34 7 20
3 21 34 5
3 35 34 21
3 35 7 34
3 35 33 7
3 36 33 35
3 36 160 162
3 162 161 33
3 160 161 162
3 36 163 165
3 163 11 164
3 163 164 165
3 37 11 36
3 37 166 168
3 168 167 11
3 166 167 168
3 169 37 170
3 171 170 8
3 169 170 171
3 172 37 173
3 175 174 37
