ply
format ascii 1.0
element vertex 201
property float x
property float y
property float z
element face 162
property list uchar int vertex_index
end_header
-5.021052 -33.927101 -44.134991
-14.461926 -37.684673 -31.60664
-5.337533 -24.225563 -43.484829
-16.692936 -37.491707 -28.869761
-7.408796 -35.598553 -40.959377
-12.419728 -32.357655 -34.255943
-9.778469 -31.729252 -37.428913
-7.402918 -30.551376 -40.555077
-4.982109 -36.600807 -44.26125
-3.586921 -35.580498 -45.891552
-8.608869 -36.270897 -39.339989
-11.090792 -32.299232 -35.805538
-7.478789 -28.212496 -40.424713
-6.295749 -27.279675 -42.038826
-6.297534 -29.814312 -42.087658
-5.201573 -26.502409 -43.607555
-15.593947 -37.627205 -30.208632
-6.199083 -34.804794 -42.581364
-15.925651 -34.923943 -30.059273
-14.655306 -35.192177 -31.49086
-13.32722 -35.126633 -33.051865
-12.131828 -34.964134 -34.501732
-10.962366 -34.786701 -35.972473
-9.77703 -34.288868 -37.512875
-8.68283 -28.859293 -38.867172
-8.517778 -31.086393 -39.054737
-8.602911 -33.759052 -39.087196
-7.353154 -33.072819 -40.792984
-6.247518 -32.245003 -42.315331
-5.051833 -31.228228 -43.973289
-4.228986 -23.34951 -45.141541
-5.001581 -35.263954 -44.198121
-5.67269 -37.180191 -43.420395
-5.692162 -35.843338 -43.357265
-4.374502 -33.390845 -44.966656
-4.35503 -34.727698 -45.029786
-5.001581 -35.263954 -44.198121
-14.364539 -38.996488 -31.756147
-14.833171 -40.261797 -31.144022
-14.930559 -38.949981 -30.994515
-13.866484 -37.663927 -32.357914
-14.364539 -38.996488 -31.756147
-9.207382 -36.544426 -38.526198
-9.280165 -37.886816 -38.601252
-5.816641 -25.752619 -42.761827
-6.401154 -26.278261 -41.937697
-5.922046 -24.751206 -42.660698
-2.855459 -34.999958 -46.707543
-2.982887 -33.604637 -46.690658
-16.605731 -38.883299 -28.880249
-17.139111 -38.701683 -28.182005
-16.143442 -37.559456 -29.539197
-16.056237 -38.951048 -29.549685
-16.605731 -38.883299 -28.880249
-7.500972 -37.015898 -40.98267
-8.05017 -37.262806 -40.25638
-6.80394 -35.201673 -41.77037
-6.896116 -36.619018 -41.793663
-7.500972 -37.015898 -40.98267
-15.451702 -33.790386 -30.732664
-16.194655 -33.742745 -29.937848
-14.816529 -33.924504 -31.448457
-15.290478 -35.05806 -30.775067
-15.451702 -33.790386 -30.732664
-13.06821 -32.558821 -33.51334
-12.635459 -31.191139 -34.149997
-12.873474 -33.742144 -33.653904
-13.521956 -33.94331 -32.911301
-13.06821 -32.558821 -33.51334
-8.208427 -27.492977 -39.543039
-8.896828 -27.861194 -38.695351
-5.671411 -30.553957 -43.06296
-6.272526 -31.029657 -42.201494
-5.696419 -29.338611 -42.949123
-5.073569 -30.045569 -43.891939
-5.649676 -31.736615 -43.14431
-5.671411 -30.553957 -43.06296
-3.689666 -22.764183 -46.007927
-3.831577 -21.77626 -45.875702
-4.151815 -24.402164 -45.224855
-3.689666 -22.764183 -46.007927
-5.643876 -38.590931 -43.529561
-5.67269 -37.180191 -43.420395
-4.905055 -37.992056 -44.350409
-5.643876 -38.590931 -43.529561
-4.284515 -36.090653 -45.076401
-4.207461 -37.481901 -45.16556
-4.905055 -37.992056 -44.350409
-3.657436 -34.217543 -45.844937
-4.284515 -36.090653 -45.076401
-4.35503 -34.727698 -45.029786
-2.982887 -33.604637 -46.690658
-3.657436 -34.217543 -45.844937
-17.272218 -37.384058 -28.169802
-17.139111 -38.701683 -28.182005
-17.718394 -38.594034 -27.482046
-8.650206 -37.598978 -39.446686
-9.280165 -37.886816 -38.601252
-8.008833 -35.934725 -40.149683
-8.05017 -37.262806 -40.25638
-8.650206 -37.598978 -39.446686
-11.940678 -31.130612 -34.904278
-12.635459 -31.191139 -34.149997
-11.27621 -31.101401 -35.679075
-11.75526 -32.328444 -35.030741
-11.940678 -31.130612 -34.904278
-10.58847 -30.867256 -36.476812
-11.27621 -31.101401 -35.679075
-9.932309 -30.582266 -37.2885
-10.434631 -32.014242 -36.617226
-10.58847 -30.867256 -36.476812
-6.992674 -26.744672 -41.13064
-7.606407 -27.169579 -40.32181
-6.887269 -27.746085 -41.231769
-6.992674 -26.744672 -41.13064
-6.401154 -26.278261 -41.937697
-5.148439 -27.68266 -43.709072
-5.696419 -29.338611 -42.949123
-5.749553 -28.158361 -42.847606
-3.469199 -37.007511 -45.93816
-4.207461 -37.481901 -45.16556
-3.469199 -37.007511 -45.93816
-2.855459 -34.999958 -46.707543
-5.520313 -23.254866 -43.334816
-5.922046 -24.751206 -42.660698
-15.496569 -38.921247 -30.29551
-16.056237 -38.951048 -29.549685
-15.027936 -37.655939 -30.907636
-14.930559 -38.949981 -30.994515
-15.496569 -38.921247 -30.29551
-6.281177 -36.282184 -42.580452
-6.896116 -36.619018 -41.793663
-5.610067 -34.365948 -43.358177
-5.692162 -35.843338 -43.357265
-6.281177 -36.282184 -42.580452
-16.960458 -36.190462 -28.722087
-17.272218 -37.384058 -28.169802
-17.53974 -36.082813 -28.022128
-16.576815 -34.90658 -29.316843
-16.194655 -33.742745 -29.937848
-16.309293 -36.207825 -29.464517
-16.960458 -36.190462 -28.722087
-16.576815 -34.90658 -29.316843
-14.185999 -33.976082 -32.130798
-14.816529 -33.924504 -31.448457
-13.991263 -35.159405 -32.271363
-14.185999 -33.976082 -32.130798
-13.521956 -33.94331 -32.911301
-13.299131 -36.384907 -33.080527
-13.866484 -37.663927 -32.357914
-13.894573 -36.405653 -32.329252
-12.701435 -36.303657 -33.80546
-13.299131 -36.384907 -33.080527
-12.729524 -35.045383 -33.776798
-12.127914 -36.229139 -34.549233
-12.701435 -36.303657 -33.80546
-11.543183 -36.140422 -35.284603
-12.127914 -36.229139 -34.549233
-11.547097 -34.875417 -35.237102
-10.95429 -36.000231 -36.06909
-11.543183 -36.140422 -35.284603
-10.361622 -35.751314 -36.839291
-10.95429 -36.000231 -36.06909
-10.369698 -34.537785 -36.742674
-9.791462 -35.553411 -37.61264
-10.361622 -35.751314 -36.839291
-9.38449 -29.147286 -38.007629
-8.896828 -27.861194 -38.695351
-9.230649 -30.294272 -38.148043
-9.932309 -30.582266 -37.2885
-9.38449 -29.147286 -38.007629
-8.080809 -28.535895 -39.645942
-8.208427 -27.492977 -39.543039
-7.606407 -27.169579 -40.32181
-9.204403 -35.288503 -38.399801
-9.791462 -35.553411 -37.61264
-9.189971 -34.02396 -38.300035
-8.60589 -35.014974 -39.213593
-9.207382 -36.544426 -38.526198
-9.204403 -35.288503 -38.399801
-4.912684 -22.781363 -44.211027
-5.520313 -23.254866 -43.334816
-4.35841 -22.343336 -45.039383
-3.831577 -21.77626 -45.875702
-4.783259 -23.787537 -44.313185
-4.912684 -22.781363 -44.211027
-4.35841 -22.343336 -45.039383
-4.638108 -25.978613 -44.457862
-4.715279 -24.925959 -44.374548
-4.151815 -24.402164 -45.224855
-5.148439 -27.68266 -43.709072
-4.638108 -25.978613 -44.457862
-4.463636 -29.447839 -44.789148
-5.073569 -30.045569 -43.891939
-4.45831 -30.789417 -44.800868
-4.463636 -29.447839 -44.789148
-4.442919 -32.138854 -44.88172
-5.036442 -32.577664 -44.05414
-4.45831 -30.789417 -44.800868
-4.374502 -33.390845 -44.966656
-4.442919 -32.138854 -44.88172
3 0 31 33
3 31 8 32
3 31 32 33
3 0 34 36
3 36 35 8
3 34 35 36
3 1 37 39
3 37 38 39
3 1 40 41
3 42 10 43
3 2 44 46
3 44 13 45
3 44 45 46
3 2 15 13
3 48 47 9
3 3 49 50
3 3 51 53
3 51 16 52
3 51 52 53
3 4 54 55
3 4 56 58
3 56 17 57
3 56 57 58
3 59 18 60
3 61 19 62
3 63 62 18
3 61 62 63
3 5 64 65
3 5 66 68
3 66 20 67
3 66 67 68
3 5 21 20
3 6 22 11
3 6 23 22
3 69 24 70
3 7 25 12
3 7 26 25
3 7 27 26
3 71 28 72
3 73 72 14
3 71 72 73
3 74 29 75
3 76 75 28
3 74 75 76
3 77 30 78
3 80 79 30
3 8 81 82
3 8 83 84
3 8 85 87
3 85 9 86
3 85 86 87
3 88 9 89
3 90 89 8
3 88 89 90
3 92 91 9
3 93 3 94
3 93 94 95
3 10 96 97
3 10 98 100
3 98 4 99
3 98 99 100
3 101 5 102
3 103 11 104
3 105 104 5
3 103 104 105
3 106 11 107
3 108 6 109
3 110 109 11
3 108 109 110
3 111 12 112
3 13 113 115
3 113 12 114
3 113 114 115
3 13 7 12
3 13 14 7
3 15 14 13
3 15 116 118
3 118 117 14
3 116 117 118
3 9 119 120
3 122 121 9
3 123 2 124
3 16 125 126
3 16 127 129
3 127 1 128
3 127 128 129
3 17 130 131
3 17 132 134
3 132 0 133
3 132 133 134
3 135 3 136
3 135 136 137
3 18 138 139
3 18 140 142
3 140 3 141
3 140 141 142
3 18 16 3
3 19 16 18
3 19 1 16
3 143 19 144
3 20 145 147
3 145 19 146
3 145 146 147
3 20 1 19
3 20 148 150
3 150 149 1
3 148 149 150
3 21 151 153
3 153 152 20
3 151 152 153
3 21 154 155
3 11 21 5
3 22 21 11
3 22 156 158
3 158 157 21
3 156 157 158
3 22 159 160
3 23 161 163
3 163 162 22
3 161 162 163
3 23 164 165
3 24 166 167
3 24 168 170
3 168 6 169
3 168 169 170
3 12 171 173
3 171 24 172
3 171 172 173
3 25 24 12
3 25 6 24
3 25 23 6
3 26 23 25
3 26 174 176
3 176 175 23
3 174 175 176
3 26 177 179
3 177 10 178
3 177 178 179
3 27 10 26
3 27 4 10
3 14 27 7
3 28 27 14
3 28 4 27
3 28 17 4
3 29 17 28
3 29 0 17
3 180 2 181
3 30 182 183
3 30 184 186
3 184 2 185
3 184 185 186
3 30 15 2
3 187 15 188
3 189 188 30
3 187 188 189
3 191 190 15
3 192 29 193
3 194 29 195
3 196 0 197
3 198 197 29
3 196 197 198
3 200 199 0
