ply
format ascii 1.0
element vertex 298
property float x
property float y
property float z
element face 314
property list uchar int vertex_index
end_header
-28.191431 98.320961 -8.323021
-28.983591 92.385872 5.847461
-24.744482 100.748764 3.208625
-31.234392 86.993767 -4.567086
-31.235207 90.390343 -18.456007
-22.576712 105.612068 -11.253939
-27.055216 100.734612 -22.803242
-25.563309 97.100342 10.454553
-28.665834 95.588631 -1.127128
-30.087791 90.252747 0.399149
-29.891226 93.225853 -6.740716
-31.247177 89.223572 -11.676188
-29.761171 94.916649 -13.747066
-20.218864 105.556961 -5.037243
-18.753176 107.126221 -12.092445
-23.940172 104.269562 -23.868807
-27.211994 97.097832 4.632442
-26.553703 100.285049 -2.684009
-23.72164 103.60833 -3.925313
-25.819763 102.556076 -9.871043
-21.396233 106.527 -18.196274
-24.996895 103.887115 -17.172585
-27.634859 100.13266 -15.615764
-29.43395 96.069962 -20.741846
-28.383247 97.200294 -4.716271
-29.271254 94.541412 -3.85189
-29.122097 95.839363 -7.546119
-29.841146 94.161324 -10.336623
-28.9489 96.910995 -11.244501
-25.172318 99.071533 6.727467
-26.478279 97.246078 7.410267
-26.070211 99.01741 4.08745
-26.867069 98.80883 1.07082
-25.630264 100.750397 0.26828
-30.68117 88.58683 -2.089137
-30.65638 87.240173 1.490965
-31.227541 85.534882 -1.079377
-31.74758 82.304543 -0.075073
-31.815359 83.670433 -3.468129
-31.864925 84.913979 -6.835826
-31.26123 89.895996 -15.231659
-31.944111 86.792412 -13.786769
-21.512331 105.723122 -8.086608
-22.036242 104.812248 -4.733977
-23.301147 104.657318 -7.729038
-24.792921 103.325935 -7.138597
-24.30595 104.279129 -10.759935
-19.350254 107.267334 -18.802067
-20.687073 106.62429 -21.447056
-25.628262 102.612305 -23.419018
-24.487991 104.205803 -20.620895
-26.103565 102.432358 -19.919018
-26.456966 102.081276 -16.579311
-27.378613 100.541702 -19.301983
-28.545197 98.289848 -18.310982
-28.267782 98.697502 -21.573591
-25.978609 94.895706 14.034029
-24.16227 98.619514 9.813209
-23.822733 100.360962 6.251238
-28.798223 94.19091 2.299888
-29.549059 91.426003 3.078372
-29.440935 93.044365 -0.557809
-30.03511 91.660103 -3.095836
-30.585087 90.249191 -5.616631
-31.256498 88.148743 -8.048297
-30.568569 91.309402 -9.096872
-30.568253 92.089966 -12.779449
-30.45368 92.963181 -16.238792
-18.355494 106.039505 -5.71835
-19.65238 106.4664 -8.773315
-20.825405 106.520271 -11.724869
-21.98761 105.520851 -24.582285
-23.243948 104.119331 -27.112719
-26.807407 95.279335 10.893865
-27.568054 95.111412 8.155455
-28.192101 94.776459 5.390884
-27.930174 96.635345 1.574315
-27.660912 98.194458 -2.0661
-27.342848 99.606049 -5.737809
-31.925508 85.92318 -10.396338
-23.218731 102.102486 2.566984
-20.901596 104.462822 -1.666122
-22.624973 103.582008 -1.102595
-24.218943 102.284554 -0.269434
-25.269983 102.128258 -3.568093
-26.208048 101.564331 -6.552361
-27.112648 100.584839 -9.323615
-19.981339 107.070564 -15.239723
-22.068998 106.160858 -14.760461
-22.731104 105.55513 -21.274733
-23.286501 105.403076 -17.691072
-23.823429 104.950417 -14.090109
-25.387838 103.392891 -13.572492
-26.758141 101.503143 -12.844742
-28.005812 99.184555 -11.978016
-28.785885 97.65596 -14.880081
-29.578115 95.711296 -17.214941
-30.426867 93.232895 -19.496382
-29.32988 90.973232 6.207633
-29.087848 91.354931 7.498912
-31.635065 88.71822 -17.770398
-31.648077 88.471046 -16.158224
-31.248219 90.143169 -16.843833
-31.608293 89.000732 -19.504641
-31.635065 88.71822 -17.770398
-20.282787 106.512615 -23.195605
-19.639908 106.919021 -21.756104
-19.235622 106.807346 -23.504653
-23.375034 99.206111 9.486224
-23.661611 98.173458 11.341516
-23.205265 100.076836 7.705239
-23.992501 99.490238 8.032224
-23.375034 99.206111 9.486224
-17.234845 106.081631 -5.899949
-17.639288 105.614853 -4.160654
-19.202778 106.796311 -10.43288
-18.557559 106.644192 -8.951204
-18.107957 106.974102 -10.610769
-22.917081 103.858722 -28.641241
-22.258102 104.623253 -27.46288
-30.128473 89.370739 2.200952
-29.859107 89.957367 3.540564
-29.818425 90.839375 1.73876
-30.661244 86.451569 3.139597
-30.92409 85.687751 1.839049
-31.968926 80.687061 0.588862
-32.041627 81.258252 -1.035219
-32.272986 85.121837 -13.100621
-32.312426 85.352993 -14.67856
-22.358593 102.628869 2.201856
-22.698463 101.818463 4.03369
-20.56023 105.009892 -3.351682
-19.877439 104.738384 -1.896189
-19.536072 105.285454 -3.58175
-17.622542 107.258728 -12.429925
-18.107957 106.974102 -10.610769
-31.20967 84.835106 0.553878
-30.92409 85.687751 1.839049
-30.941961 86.387528 0.205794
-31.487561 83.919713 -0.577225
-31.46969 83.219936 1.056029
-31.20967 84.835106 0.553878
-32.075516 81.941197 -2.731747
-32.041627 81.258252 -1.035219
-31.78147 82.987488 -1.771601
-32.123592 82.611344 -4.501654
-32.075516 81.941197 -2.731747
-32.148375 83.233116 -6.185503
-32.123592 82.611344 -4.501654
-31.840142 84.292206 -5.151978
-32.201864 83.743695 -7.945578
-32.148375 83.233116 -6.185503
-31.989517 86.919254 -15.435779
-31.602671 88.344204 -14.509214
-31.648077 88.471046 -16.158224
-32.357832 85.479836 -16.327571
-32.312426 85.352993 -14.67856
-31.989517 86.919254 -15.435779
-18.971498 107.240544 -20.43361
-18.231043 107.459274 -18.855812
-20.018664 106.945812 -20.124561
-18.971498 107.240544 -20.43361
-19.639908 106.919021 -21.756104
-25.53256 94.491093 15.599898
-26.14689 93.748139 15.728965
-25.339355 95.68185 13.736353
-25.53256 94.491093 15.599898
-25.131706 96.784168 11.946615
-25.770959 95.998024 12.244291
-25.339355 95.68185 13.736353
-24.431186 97.543755 11.625943
-23.661611 98.173458 11.341516
-24.862789 97.859928 10.133881
-25.131706 96.784168 11.946615
-24.431186 97.543755 11.625943
-18.604388 105.526726 -3.922303
-17.639288 105.614853 -4.160654
-19.287179 105.798233 -5.377797
-19.536072 105.285454 -3.58175
-18.604388 105.526726 -3.922303
-17.909116 106.430744 -7.423722
-17.234845 106.081631 -5.899949
-19.003937 106.252952 -7.245833
-17.909116 106.430744 -7.423722
-18.557559 106.644192 -8.951204
-21.629933 105.324012 -26.197663
-20.933055 105.960895 -24.763219
-22.615779 104.820091 -25.847502
-21.629933 105.324012 -26.197663
-22.258102 104.623253 -27.46288
-23.860634 103.173805 -28.444602
-22.917081 103.858722 -28.641241
-23.533767 102.913196 -29.973125
-24.108121 103.398403 -26.893293
-23.860634 103.173805 -28.444602
-24.456233 103.473518 -25.271338
-23.59206 104.194446 -25.490763
-24.108121 103.398403 -26.893293
-25.300278 102.64489 -25.046443
-24.784217 103.440933 -23.643912
-24.456233 103.473518 -25.271338
-26.109078 101.710034 -24.780644
-25.300278 102.64489 -25.046443
-26.822555 100.771187 -24.472755
-26.341739 101.673459 -23.11113
-26.109078 101.710034 -24.780644
-27.548489 99.67595 -23.979009
-26.822555 100.771187 -24.472755
-28.712692 92.584034 7.355691
-29.087848 91.354931 7.498912
-26.52833 93.962639 14.311375
-26.14689 93.748139 15.728965
-26.942729 94.154454 12.741293
-26.52833 93.962639 14.311375
-26.393008 95.087521 12.463947
-27.297246 94.177765 11.326731
-26.942729 94.154454 12.741293
-27.67757 94.093804 9.957525
-27.297246 94.177765 11.326731
-27.187731 95.195374 9.52466
-28.004924 93.946804 8.509688
-27.67757 94.093804 9.957525
-28.316947 93.779327 7.127402
-28.004924 93.946804 8.509688
-27.880077 94.943936 6.773169
-28.587846 93.581165 5.619172
-28.712692 92.584034 7.355691
-28.316947 93.779327 7.127402
-29.612614 90.493298 4.823088
-29.32988 90.973232 6.207633
-29.266325 91.905937 4.462917
-29.612614 90.493298 4.823088
-29.859107 89.957367 3.540564
-30.412768 87.864452 2.74686
-30.128473 89.370739 2.200952
-30.372085 88.74646 0.945057
-30.412768 87.864452 2.74686
-30.661244 86.451569 3.139597
-31.696655 81.611752 1.612876
-31.46969 83.219936 1.056029
-31.696655 81.611752 1.612876
-31.968926 80.687061 0.588862
-32.232156 84.248295 -9.725834
-32.201864 83.743695 -7.945578
-31.895217 85.418579 -8.616082
-32.263684 84.687221 -11.405406
-31.93481 86.357796 -12.091553
-32.272986 85.121837 -13.100621
-32.232156 84.248295 -9.725834
-32.263684 84.687221 -11.405406
-23.000464 100.9477 5.875816
-23.205265 100.076836 7.705239
-23.520732 101.231724 4.409111
-23.000464 100.9477 5.875816
-22.698463 101.818463 4.03369
-20.230469 104.109307 -0.117106
-19.877439 104.738384 -1.896189
-21.200026 103.809037 0.085303
-20.230469 104.109307 -0.117106
-22.061714 103.368629 0.367066
-21.200026 103.809037 0.085303
-21.763285 104.022415 -1.384359
-22.921852 102.842247 0.732195
-22.358593 102.628869 2.201856
-22.061714 103.368629 0.367066
-18.336159 107.329316 -13.845989
-17.622542 107.258728 -12.429925
-18.634698 107.399872 -17.2008
-18.231043 107.459274 -18.855812
-18.95024 107.301487 -15.419628
-18.634698 107.399872 -17.2008
-19.665796 107.168949 -17.020895
-19.367258 107.098393 -13.666084
-18.336159 107.329316 -13.845989
-18.95024 107.301487 -15.419628
-21.337342 106.07257 -23.014671
-20.282787 106.512615 -23.195605
-20.933055 105.960895 -24.763219
-28.154772 98.657395 -23.364183
-27.661499 99.716057 -22.188417
-27.548489 99.67595 -23.979009
-28.742291 97.481308 -22.897348
-28.154772 98.657395 -23.364183
-29.325375 96.167538 -22.481476
-28.850866 97.383732 -21.157719
-28.742291 97.481308 -22.897348
-29.822916 94.91301 -21.872223
-29.325375 96.167538 -22.481476
-30.319375 93.494476 -21.249491
-29.930408 94.651429 -20.119114
-29.822916 94.91301 -21.872223
-30.786379 92.017357 -20.737277
-30.319375 93.494476 -21.249491
-31.190549 90.596081 -20.21709
-30.831037 91.811619 -18.976194
-30.786379 92.017357 -20.737277
-31.608293 89.000732 -19.504641
-31.190549 90.596081 -20.21709
3 0 26 24
3 0 28 26
3 2 31 29
3 2 33 31
3 1 98 99
3 3 36 34
3 3 38 36
3 3 39 38
3 4 100 102
3 102 101 40
3 100 101 102
3 4 103 104
3 5 44 42
3 5 46 44
3 105 48 106
3 105 106 107
3 6 51 49
3 6 53 51
3 6 55 53
3 108 57 109
3 110 58 111
3 112 111 57
3 110 111 112
3 8 61 59
3 10 62 25
3 10 63 62
3 10 65 63
3 12 66 27
3 12 67 66
3 113 68 114
3 14 115 117
3 115 69 116
3 115 116 117
3 14 70 69
3 118 72 119
3 7 73 56
3 16 74 30
3 16 75 74
3 16 76 75
3 17 77 32
3 17 78 77
3 9 120 122
3 122 121 60
3 120 121 122
3 124 123 35
3 126 125 37
3 11 79 64
3 128 127 41
3 129 80 130
3 13 131 133
3 131 81 132
3 131 132 133
3 18 82 43
3 18 83 82
3 18 84 83
3 19 85 45
3 19 86 85
3 20 87 47
3 20 88 87
3 15 89 71
3 21 90 50
3 21 91 90
3 21 92 91
3 22 93 52
3 22 94 93
3 22 95 94
3 23 96 54
3 23 97 96
3 24 25 8
3 26 25 24
3 26 10 25
3 26 27 10
3 28 27 26
3 28 12 27
3 134 14 135
3 29 30 7
3 31 30 29
3 31 16 30
3 31 32 16
3 33 32 31
3 33 17 32
3 34 35 9
3 36 35 34
3 36 136 138
3 138 137 35
3 136 137 138
3 36 139 141
3 139 37 140
3 139 140 141
3 38 37 36
3 38 142 144
3 144 143 37
3 142 143 144
3 38 145 146
3 39 147 149
3 149 148 38
3 147 148 149
3 39 150 151
3 40 41 11
3 152 41 153
3 154 153 40
3 152 153 154
3 157 156 41
3 155 156 157
3 42 43 13
3 44 43 42
3 44 18 43
3 44 45 18
3 46 45 44
3 46 19 45
3 158 47 159
3 48 160 162
3 160 47 161
3 160 161 162
3 48 20 47
3 49 50 15
3 51 50 49
3 51 21 50
3 51 52 21
3 53 52 51
3 53 22 52
3 53 54 22
3 55 54 53
3 55 23 54
3 163 56 164
3 165 56 166
3 167 7 168
3 169 168 56
3 167 168 169
3 57 170 171
3 57 172 174
3 172 7 173
3 172 173 174
3 57 29 7
3 58 29 57
3 58 2 29
3 59 60 1
3 61 60 59
3 61 9 60
3 25 61 8
3 62 61 25
3 62 9 61
3 62 34 9
3 63 34 62
3 63 3 34
3 63 64 3
3 65 64 63
3 65 11 64
3 27 65 10
3 66 65 27
3 66 11 65
3 66 40 11
3 67 40 66
3 67 4 40
3 68 175 176
3 68 177 179
3 177 13 178
3 177 178 179
3 180 68 181
3 69 182 184
3 182 68 183
3 182 183 184
3 69 13 68
3 69 42 13
3 70 42 69
3 70 5 42
3 185 71 186
3 72 187 189
3 187 71 188
3 187 188 189
3 72 15 71
3 190 72 191
3 190 191 192
3 193 72 194
3 195 15 196
3 197 196 72
3 195 196 197
3 198 49 199
3 200 199 15
3 198 199 200
3 201 49 202
3 203 6 204
3 205 204 49
3 203 204 205
3 207 206 6
3 208 1 209
3 56 210 211
3 73 212 214
3 214 213 56
3 212 213 214
3 73 215 216
3 30 73 7
3 74 73 30
3 74 217 219
3 219 218 73
3 217 218 219
3 74 220 221
3 75 222 224
3 224 223 74
3 222 223 224
3 75 225 227
3 225 1 226
3 225 226 227
3 75 59 1
3 76 59 75
3 76 8 59
3 32 76 16
3 77 76 32
3 77 8 76
3 77 24 8
3 78 24 77
3 78 0 24
3 60 228 230
3 230 229 1
3 228 229 230
3 232 231 60
3 35 233 235
3 235 234 9
3 233 234 235
3 237 236 35
3 37 238 239
3 241 240 37
3 64 39 3
3 79 39 64
3 79 242 244
3 244 243 39
3 242 243 244
3 41 79 11
3 245 79 246
3 247 246 41
3 245 246 247
3 249 248 79
3 250 58 251
3 80 252 254
3 252 58 253
3 252 253 254
3 80 2 58
3 81 255 256
3 81 257 258
3 43 81 13
3 82 81 43
3 82 259 261
3 261 260 81
3 259 260 261
3 82 262 264
3 262 80 263
3 262 263 264
3 83 80 82
3 83 2 80
3 83 33 2
3 84 33 83
3 84 17 33
3 45 84 18
3 85 84 45
3 85 17 84
3 85 78 17
3 86 78 85
3 86 0 78
3 265 14 266
3 47 267 268
3 87 269 271
3 271 270 47
3 269 270 271
3 87 272 274
3 272 14 273
3 272 273 274
3 87 70 14
3 88 70 87
3 88 5 70
3 71 275 277
3 275 48 276
3 275 276 277
3 89 48 71
3 89 20 48
3 50 89 15
3 90 89 50
3 90 20 89
3 90 88 20
3 91 88 90
3 91 5 88
3 91 46 5
3 92 46 91
3 92 19 46
3 52 92 21
3 93 92 52
3 93 19 92
3 93 86 19
3 94 86 93
3 94 0 86
3 94 28 0
3 95 28 94
3 95 12 28
3 54 95 22
3 96 95 54
3 96 12 95
3 96 67 12
3 97 67 96
3 97 4 67
3 278 55 279
3 280 279 6
3 278 279 280
3 281 55 282
3 283 23 284
3 285 284 55
3 283 284 285
3 286 23 287
3 288 97 289
3 290 289 23
3 288 289 290
3 291 97 292
3 293 4 294
3 295 294 97
3 293 294 295
3 297 296 4
