ply
format ascii 1.0
element vertex 165
property float x
property float y
property float z
element face 156
property list uchar int vertex_index
end_header
-32.247368 33.835491 32.635391
-32.110786 49.336823 27.60648
-34.208519 38.426914 23.43647
-34.010738 21.842196 27.896503
-32.758366 19.700006 31.897202
-33.008766 27.836756 30.41053
-32.258957 41.879307 30.228645
-33.103737 36.12841 28.220528
-33.002907 44.06916 25.624708
-33.934837 46.416031 20.752296
-34.22905 30.090609 25.916723
-32.179825 29.535028 33.673248
-32.527699 26.724077 32.399586
-32.590248 31.145416 31.534458
-32.212242 45.657539 28.884216
-32.599705 42.964024 27.973616
-32.512333 46.802696 26.628277
-34.428158 47.462101 18.328541
-33.330856 20.785135 30.010496
-33.632324 37.474831 25.791687
-33.615372 33.347279 27.124163
-34.20145 34.277328 24.890013
-32.403915 50.362328 25.264143
-32.383118 22.555559 33.23835
-32.93681 23.900707 31.101353
-33.527012 25.062069 29.014273
-34.804298 39.583126 20.976297
-34.839672 35.465405 22.444736
-32.261749 38.046082 31.517256
-32.657864 34.99699 30.411398
-32.641483 39.055695 29.270721
-33.073154 40.093494 26.989906
-33.570919 41.297684 24.55513
-32.868919 47.866913 24.327827
-33.451134 45.243771 23.215956
-34.097458 42.479687 22.118971
-34.615002 43.445538 19.831594
-33.086761 31.833254 29.399815
-33.597549 29.294043 28.118589
-34.165836 26.089657 26.893724
-34.837669 31.294888 23.733042
-34.82325 27.160337 24.742907
-34.750034 22.899487 25.655468
-33.916153 19.787514 28.293194
-33.576212 19.258983 29.35019
-33.670797 21.313665 28.953499
-34.304831 20.263597 27.189581
-33.916153 19.787514 28.293194
-32.238718 24.06762 33.823332
-32.154592 22.03231 34.228926
-35.130293 38.130526 20.50083
-35.078854 40.306713 19.726954
-32.801916 49.659616 23.613936
-32.636417 49.114621 24.795985
-32.569414 50.907324 24.082094
-33.692986 45.829901 21.984126
-33.364846 47.07886 22.587205
-33.606697 47.664989 21.355375
-34.797402 46.157358 17.73536
-34.683243 48.110974 16.980008
-32.654662 17.554818 32.204473
-32.49177 19.07478 32.859789
-35.194599 31.833014 22.481802
-34.83867 33.380146 23.088889
-35.1956 33.918273 21.837649
-35.143168 25.749132 24.077471
-35.163092 27.70612 23.62238
-35.10656 23.618707 24.533752
-34.786642 25.029912 25.199188
-35.143168 25.749132 24.077471
-35.057043 21.521348 24.956111
-35.10656 23.618707 24.533752
-32.353762 28.129553 33.036417
-32.311008 26.151879 33.40395
-32.137072 27.557355 34.040781
-33.832613 48.28619 20.067414
-33.606697 47.664989 21.355375
-34.079273 48.809225 18.855536
-34.181498 46.939066 19.540419
-33.832613 48.28619 20.067414
-34.324759 49.319901 17.565083
-34.079273 48.809225 18.855536
-34.683243 48.110974 16.980008
-34.324759 49.319901 17.565083
-33.256925 18.731819 30.284586
-32.970681 18.189254 31.227939
-33.044611 20.24257 30.953849
-33.256925 18.731819 30.284586
-33.576212 19.258983 29.35019
-32.217876 51.549438 25.673099
-32.257351 49.849576 26.435312
-32.071312 51.036686 26.844267
-32.351802 52.035696 24.524256
-32.217876 51.549438 25.673099
-32.569414 50.907324 24.082094
-32.351802 52.035696 24.524256
-32.304146 20.502556 33.530363
-32.154592 22.03231 34.228926
-32.570742 21.127782 32.567776
-32.49177 19.07478 32.859789
-32.304146 20.502556 33.530363
-32.455409 24.639818 32.818968
-32.238718 24.06762 33.823332
-32.311008 26.151879 33.40395
-35.14798 36.071665 21.235049
-34.821985 37.524265 21.710516
-35.130293 38.130526 20.50083
-35.1956 33.918273 21.837649
-35.14798 36.071665 21.235049
-33.073738 48.39043 23.143141
-32.801916 49.659616 23.613936
-33.160027 46.555342 23.771891
-33.073738 48.39043 23.143141
-33.364846 47.07886 22.587205
-34.984206 42.237919 19.154603
-35.078854 40.306713 19.726954
-34.70965 41.514332 20.403945
-34.890823 44.149076 18.486886
-34.52158 45.453819 19.080067
-34.797402 46.157358 17.73536
-34.984206 42.237919 19.154603
-34.890823 44.149076 18.486886
-32.654662 17.554818 32.204473
-32.970681 18.189254 31.227939
-35.170302 29.773396 23.117447
-35.194599 31.833014 22.481802
-34.83046 29.227612 24.237974
-35.170302 29.773396 23.117447
-35.163092 27.70612 23.62238
-34.674478 20.792243 26.069064
-34.304831 20.263597 27.189581
-34.380386 22.370842 26.775985
-34.674478 20.792243 26.069064
-35.057043 21.521348 24.956111
-31.994727 29.006503 34.719743
-32.137072 27.557355 34.040781
-32.037094 31.165974 34.240671
-31.994727 29.006503 34.719743
-32.070865 33.316206 33.721742
-32.213597 31.68526 33.154319
-32.037094 31.165974 34.240671
-32.092548 35.206265 33.225147
-32.070865 33.316206 33.721742
-32.099739 37.31156 32.66608
-32.254559 35.940787 32.076324
-32.092548 35.206265 33.225147
-32.101235 39.330486 32.086923
-32.099739 37.31156 32.66608
-32.099839 41.247099 31.442618
-32.260353 39.962694 30.872951
-32.101235 39.330486 32.086923
-32.098534 43.146625 30.732571
-32.099839 41.247099 31.442618
-32.075176 45.035742 30.060356
-32.2356 43.768423 29.55643
-32.098534 43.146625 30.732571
-32.038697 46.966121 29.405076
-32.075176 45.035742 30.060356
-31.987969 48.805763 28.766208
-32.161514 47.497181 28.245348
-32.038697 46.966121 29.405076
-31.954703 50.583822 27.999835
-31.987969 48.805763 28.766208
-32.071312 51.036686 26.844267
-31.954703 50.583822 27.999835
3 0 13 11
3 1 16 14
3 3 43 45
3 45 44 18
3 43 44 45
3 3 46 47
3 2 21 19
3 48 23 49
3 5 24 12
3 5 25 24
3 51 50 26
3 6 30 28
3 8 31 15
3 8 32 31
3 52 33 53
3 54 53 22
3 52 53 54
3 9 55 57
3 55 34 56
3 55 56 57
3 9 35 34
3 9 36 35
3 59 58 17
3 4 60 61
3 7 37 29
3 10 38 20
3 10 39 38
3 62 40 63
3 64 63 27
3 62 63 64
3 65 41 66
3 67 42 68
3 69 68 41
3 67 68 69
3 71 70 42
3 11 72 74
3 72 12 73
3 72 73 74
3 13 12 11
3 13 5 12
3 14 15 6
3 16 15 14
3 16 8 15
3 75 9 76
3 77 17 78
3 79 78 9
3 77 78 79
3 80 17 81
3 83 82 17
3 18 84 86
3 86 85 4
3 84 85 86
3 88 87 18
3 19 20 7
3 21 20 19
3 21 10 20
3 89 22 90
3 91 90 1
3 89 90 91
3 92 22 93
3 95 94 22
3 23 96 97
3 23 98 100
3 98 4 99
3 98 99 100
3 12 101 103
3 101 23 102
3 101 102 103
3 24 23 12
3 24 4 23
3 24 18 4
3 25 18 24
3 25 3 18
3 26 27 2
3 104 27 105
3 106 105 26
3 104 105 106
3 108 107 27
3 28 29 0
3 30 29 28
3 30 7 29
3 15 30 6
3 31 30 15
3 31 7 30
3 31 19 7
3 32 19 31
3 32 2 19
3 22 16 1
3 33 16 22
3 33 8 16
3 109 33 110
3 34 111 113
3 111 33 112
3 111 112 113
3 34 8 33
3 34 32 8
3 35 32 34
3 35 2 32
3 35 26 2
3 36 26 35
3 36 114 116
3 116 115 26
3 114 115 116
3 17 36 9
3 117 36 118
3 119 118 17
3 117 118 119
3 121 120 36
3 123 122 4
3 29 13 0
3 37 13 29
3 37 5 13
3 20 37 7
3 38 37 20
3 38 5 37
3 38 25 5
3 39 25 38
3 39 3 25
3 27 21 2
3 40 21 27
3 40 10 21
3 124 40 125
3 41 126 128
3 126 40 127
3 126 127 128
3 41 10 40
3 41 39 10
3 42 39 41
3 42 3 39
3 42 129 131
3 131 130 3
3 129 130 131
3 133 132 42
3 134 11 135
3 136 11 137
3 138 0 139
3 140 139 11
3 138 139 140
3 141 0 142
3 143 28 144
3 145 144 0
3 143 144 145
3 146 28 147
3 148 6 149
3 150 149 28
3 148 149 150
3 151 6 152
3 153 14 154
3 155 154 6
3 153 154 155
3 156 14 157
3 158 1 159
3 160 159 14
3 158 159 160
3 161 1 162
3 164 163 1
