ply
format ascii 1.0
element vertex 177
property float x
property float y
property float z
element face 138
property list uchar int vertex_index
end_header
-2.205631 46.025127 -52.721394
5.678085 49.859959 -47.443665
1.197873 46.1502 -52.164555
9.456373 50.518021 -40.802959
8.445346 47.990509 -45.073193
10.754557 45.409679 -42.31078
7.50898 45.082863 -49.285118
6.41874 51.620022 -45.534763
3.552162 48.393097 -50.027988
10.410015 48.865124 -39.333252
10.025327 47.871605 -41.544857
11.017369 46.19891 -40.058113
9.34791 45.623825 -45.851059
7.931114 46.618904 -47.215084
8.950401 44.399063 -48.139172
8.03511 41.830597 -52.555729
7.583994 40.459362 -54.631912
4.180923 50.422276 -48.486404
5.107872 47.787689 -49.309052
-0.499456 46.1339 -52.50248
7.8072 50.463821 -44.219887
8.971174 49.22678 -42.94849
9.695312 46.759819 -43.682739
10.58864 44.338852 -44.620419
7.114876 49.111855 -46.24007
6.618838 47.388573 -48.193325
8.464456 43.146034 -50.429066
6.749045 52.419621 -44.643632
6.063328 53.069769 -45.266886
3.215172 47.321787 -50.801321
4.038407 47.13176 -50.530977
11.106498 46.77148 -38.883741
10.713692 47.532017 -39.695683
10.802821 48.104588 -38.521311
-3.026858 45.90826 -52.797373
-2.738587 47.374491 -52.407055
9.614655 43.905161 -47.572727
9.149155 45.011444 -46.995115
9.81341 44.517542 -46.428671
8.152764 39.812123 -55.306486
8.397386 40.366383 -54.268332
7.310562 39.783343 -55.576813
8.152764 39.812123 -55.306486
4.929504 50.141118 -47.965035
4.590994 51.405567 -47.6154
5.339576 51.124409 -47.094031
0.740468 47.344477 -51.771853
1.591327 47.320465 -51.472109
0.349208 46.14205 -52.333517
-0.108197 47.336327 -51.940815
0.740468 47.344477 -51.771853
0.874534 44.898395 -52.814787
0.02587 44.890245 -52.98375
0.349208 46.14205 -52.333517
9.213773 49.8724 -41.875725
8.654301 50.626182 -42.611635
8.8969 51.271803 -41.53887
6.782472 45.340372 -49.744213
6.337401 46.493227 -49.198317
7.063909 46.235718 -48.739221
9.044633 42.238889 -51.071381
9.207217 42.769776 -49.924606
7.504566 42.694637 -51.969166
7.232337 41.921146 -52.955951
5.709903 52.004441 -46.139579
6.063328 53.069769 -45.266886
6.048412 50.739991 -46.489214
5.339576 51.124409 -47.094031
5.709903 52.004441 -46.139579
2.768471 48.441913 -50.403825
3.050013 49.604109 -49.722421
2.768471 48.441913 -50.403825
3.215172 47.321787 -50.801321
2.038028 46.200339 -51.869605
1.591327 47.320465 -51.472109
1.691736 45.102424 -52.609272
2.038028 46.200339 -51.869605
8.622943 41.052 -53.23024
8.82996 41.581171 -52.134712
7.809552 41.144979 -53.59382
8.622943 41.052 -53.23024
8.397386 40.366383 -54.268332
7.006779 41.235529 -53.994043
7.232337 41.921146 -52.955951
7.809552 41.144979 -53.59382
6.745341 40.472566 -54.882351
7.006779 41.235529 -53.994043
6.745341 40.472566 -54.882351
7.310562 39.783343 -55.576813
3.768378 51.772175 -48.178855
4.590994 51.405567 -47.6154
3.364394 50.618698 -48.951629
3.768378 51.772175 -48.178855
3.866542 49.407686 -49.257196
3.050013 49.604109 -49.722421
3.364394 50.618698 -48.951629
4.816262 46.829055 -50.171509
4.038407 47.13176 -50.530977
4.330017 48.090393 -49.66852
-2.436481 44.587263 -53.164766
-1.656972 44.840723 -53.108931
-1.808479 47.413438 -52.223356
-2.738587 47.374491 -52.407055
-0.955391 47.467825 -52.1139
-0.108197 47.336327 -51.940815
-1.352543 46.079513 -52.611937
-1.808479 47.413438 -52.223356
-0.955391 47.467825 -52.1139
-0.803885 44.89511 -52.999474
-1.656972 44.840723 -53.108931
-1.352543 46.079513 -52.611937
-0.803885 44.89511 -52.999474
0.02587 44.890245 -52.98375
0.874534 44.898395 -52.814787
1.691736 45.102424 -52.609272
8.072314 51.244703 -43.247333
7.443276 51.84152 -43.986194
8.389187 49.845301 -43.584188
8.072314 51.244703 -43.247333
8.654301 50.626182 -42.611635
10.433775 43.875056 -45.813351
9.81341 44.517542 -46.428671
9.968275 44.981338 -45.235739
11.440513 45.369545 -39.212248
11.106498 46.77148 -38.883741
11.386346 45.017589 -40.409488
11.440513 45.369545 -39.212248
11.254939 44.622974 -41.535822
10.885963 45.804294 -41.184446
11.386346 45.017589 -40.409488
11.222506 44.220804 -42.720437
11.254939 44.622974 -41.535822
11.722889 43.434099 -41.945479
11.139548 43.68539 -43.875256
10.671598 44.874265 -43.465599
11.222506 44.220804 -42.720437
11.087911 43.285094 -45.10738
11.139548 43.68539 -43.875256
10.433775 43.875056 -45.813351
11.087911 43.285094 -45.10738
9.181207 51.987505 -40.583196
8.8969 51.271803 -41.53887
9.684465 51.198421 -39.763483
9.181207 51.987505 -40.583196
10.161286 50.371973 -39.02863
9.933194 49.691572 -40.068106
9.684465 51.198421 -39.763483
10.566854 49.506911 -38.251497
10.161286 50.371973 -39.02863
10.802821 48.104588 -38.521311
10.566854 49.506911 -38.251497
-3.026858 45.90826 -52.797373
-2.436481 44.587263 -53.164766
7.11297 51.041922 -44.877325
6.749045 52.419621 -44.643632
7.443276 51.84152 -43.986194
5.581918 46.692785 -49.75618
5.863355 47.588131 -48.751188
6.337401 46.493227 -49.198317
4.816262 46.829055 -50.171509
5.581918 46.692785 -49.75618
9.45019 43.39629 -48.77966
9.614655 43.905161 -47.572727
8.707428 43.772548 -49.284119
9.45019 43.39629 -48.77966
9.207217 42.769776 -49.924606
8.249783 42.488315 -51.492397
9.044633 42.238889 -51.071381
8.82996 41.581171 -52.134712
7.719239 43.352356 -50.905834
8.249783 42.488315 -51.492397
7.504566 42.694637 -51.969166
7.241501 44.320771 -50.333861
7.986718 44.114449 -49.857092
7.719239 43.352356 -50.905834
6.782472 45.340372 -49.744213
7.241501 44.320771 -50.333861
3 27 7 28
3 30 29 8
3 31 11 32
3 33 32 9
3 31 32 33
3 0 34 35
3 36 14 37
3 38 37 12
3 36 37 38
3 39 16 40
3 42 41 16
3 1 43 45
3 43 17 44
3 43 44 45
3 1 18 17
3 2 46 47
3 2 48 50
3 48 19 49
3 48 49 50
3 2 51 53
3 53 52 19
3 51 52 53
3 3 54 56
3 54 21 55
3 54 55 56
3 5 22 10
3 5 23 22
3 4 24 20
3 6 25 13
3 6 57 59
3 59 58 25
3 57 58 59
3 60 26 61
3 63 62 15
3 7 64 65
3 7 66 68
3 66 1 67
3 66 67 68
3 8 69 70
3 72 71 8
3 73 2 74
3 76 75 2
3 9 10 3
3 11 10 9
3 11 5 10
3 12 13 4
3 14 13 12
3 14 6 13
3 77 15 78
3 16 79 81
3 79 15 80
3 79 80 81
3 16 82 84
3 84 83 15
3 82 83 84
3 16 85 86
3 88 87 16
3 17 89 90
3 17 91 92
3 17 93 95
3 93 8 94
3 93 94 95
3 18 8 17
3 18 96 98
3 98 97 8
3 96 97 98
3 100 99 0
3 101 0 102
3 19 103 104
3 19 105 107
3 105 0 106
3 105 106 107
3 19 108 110
3 110 109 0
3 108 109 110
3 112 111 19
3 114 113 2
3 115 20 116
3 21 117 119
3 117 20 118
3 117 118 119
3 21 4 20
3 10 21 3
3 22 21 10
3 22 4 21
3 22 12 4
3 23 12 22
3 23 120 122
3 122 121 12
3 120 121 122
3 123 11 124
3 125 11 126
3 127 5 128
3 129 128 11
3 127 128 129
3 130 5 131
3 130 131 132
3 133 23 134
3 135 134 5
3 133 134 135
3 136 23 137
3 139 138 23
3 140 3 141
3 142 3 143
3 144 9 145
3 146 145 3
3 144 145 146
3 147 9 148
3 150 149 9
3 152 151 0
3 20 153 155
3 153 7 154
3 153 154 155
3 24 7 20
3 24 1 7
3 13 24 4
3 25 24 13
3 25 1 24
3 25 18 1
3 156 18 157
3 158 157 25
3 156 157 158
3 160 159 18
3 161 14 162
3 26 163 165
3 163 14 164
3 163 164 165
3 26 6 14
3 15 166 168
3 166 26 167
3 166 167 168
3 169 26 170
3 171 170 15
3 169 170 171
3 172 6 173
3 174 173 26
3 172 173 174
3 176 175 6
