ply
format ascii 1.0
element vertex 254
property float x
property float y
property float z
element face 249
property list uchar int vertex_index
end_header
-1.79265 -49.455223 53.385555
7.362097 -51.047615 42.381096
-3.972895 -58.469627 49.106659
2.334969 -55.050747 45.619778
1.140327 -47.91217 50.65596
2.95725 -50.641453 47.201324
0.219585 -52.199047 49.472378
-4.842277 -62.830578 45.80241
-1.584526 -61.135429 44.642342
-5.09106 -51.115215 55.858841
-2.982303 -53.839699 51.789841
-3.745743 -46.536469 57.335197
5.414934 -48.751781 45.065399
4.942325 -53.166389 44.013992
4.54333 -57.488674 42.202209
-0.618121 -56.726761 47.35984
1.657303 -59.540157 43.228012
-0.234018 -48.558971 52.041805
0.671358 -49.978146 50.19022
-0.808991 -50.870319 51.404549
-6.878693 -51.769974 57.10767
-5.743324 -53.368862 54.864693
-7.942528 -62.329384 48.920181
-5.469213 -47.249374 58.736214
5.58711 -46.781055 45.39587
2.594844 -52.797215 46.583237
3.969611 -51.827183 45.570477
3.683908 -54.187431 44.773617
4.713963 -55.409859 43.192135
3.364355 -56.390553 43.871948
-3.400262 -56.22958 50.405926
-1.817377 -55.327888 49.546383
-2.204402 -57.590469 48.195568
-0.340647 -62.544109 42.325829
0.009629 -60.285374 44.02211
7.458697 -48.996296 42.779686
2.419483 -47.180771 49.335079
3.3029 -48.434399 47.699326
2.027622 -49.243725 48.926292
1.533477 -51.296852 48.506935
1.236006 -53.646877 47.542355
-4.395566 -60.681412 47.509483
-2.685172 -59.787037 46.803921
-3.163903 -61.96822 45.218433
-1.958954 -63.391449 42.819084
-3.405618 -50.224274 54.706902
-2.41174 -51.616959 52.71722
-4.088093 -52.482155 53.886738
-4.509974 -54.753338 52.623882
-5.182352 -56.966248 51.482174
-5.653317 -59.271156 49.909569
-6.142193 -61.508984 48.230862
-6.655888 -63.681149 46.45784
0.18302 -46.495579 52.590347
-1.252602 -47.182789 54.047043
-2.770168 -48.008171 55.375652
-4.432891 -48.753296 56.744503
-6.093893 -49.523712 57.920994
6.51518 -48.032063 44.002823
6.377672 -50.051888 43.641178
4.248085 -49.594437 46.133339
5.190829 -50.815708 44.658604
6.14792 -52.161018 43.220589
6.088645 -54.323086 42.450748
-1.347499 -53.13818 50.57568
-0.272574 -54.466019 48.584198
0.812096 -55.843021 46.603157
-1.063422 -58.846138 46.14082
0.466159 -58.134438 45.320099
1.883126 -57.235317 44.676998
3.090118 -58.486454 42.787697
7.909994 -51.645586 41.713724
8.471965 -51.111666 41.306673
7.924068 -50.513694 41.974045
7.352162 -52.164655 42.050808
7.909994 -51.645586 41.713724
-7.172725 -53.010527 56.431576
-7.734589 -52.188839 57.547624
0.426555 -62.092033 42.118067
0.291216 -63.2106 41.210173
7.446945 -48.022265 42.979881
7.937494 -48.484106 42.393772
-2.204487 -64.450577 41.928211
-2.800037 -63.758988 43.139427
-1.366176 -64.047062 41.691963
-2.204487 -64.450577 41.928211
-5.369566 -55.182249 53.088795
-5.126649 -54.0611 53.744287
-5.986242 -54.490011 54.2092
-5.705756 -56.288704 52.517941
-4.846163 -55.859793 52.053028
-5.369566 -55.182249 53.088795
-6.521522 -59.664062 50.294899
-6.279492 -58.609274 51.045067
-6.76596 -60.782977 49.455545
-5.897755 -60.39007 49.070216
-6.521522 -59.664062 50.294899
-7.513843 -64.135038 46.678776
-7.299208 -63.005266 47.68901
-8.157163 -63.459156 47.909947
-6.86804 -64.838228 45.381447
-7.513843 -64.135038 46.678776
-0.252897 -45.778204 53.522095
0.468127 -45.440655 52.718556
-0.970708 -46.121809 54.250443
-0.534791 -46.839184 53.318695
-0.252897 -45.778204 53.522095
-2.998921 -46.181135 56.670502
-3.424303 -45.449211 57.565439
-3.257956 -47.27232 56.355424
-2.511133 -46.916987 55.690729
-2.998921 -46.181135 56.670502
-6.722081 -48.795489 58.974449
-5.781553 -48.386543 58.328604
-6.409741 -47.65832 59.382059
-7.003664 -49.895502 58.503963
-6.722081 -48.795489 58.974449
5.213316 -57.049986 41.88328
5.298633 -56.010578 42.378242
4.628647 -56.449267 42.697172
5.136118 -58.166025 41.31488
5.213316 -57.049986 41.88328
-4.241699 -63.478552 44.63109
-5.090677 -63.949793 44.839191
-6.605041 -53.809971 55.310088
-6.311008 -52.569418 55.986182
-7.172725 -53.010527 56.431576
-5.986242 -54.490011 54.2092
-6.605041 -53.809971 55.310088
-8.53358 -61.613188 50.106407
-7.666127 -61.193176 49.800205
-8.818796 -62.778508 49.15505
-8.53358 -61.613188 50.106407
-8.157163 -63.459156 47.909947
-8.818796 -62.778508 49.15505
-4.244772 -45.776724 58.299217
-3.424303 -45.449211 57.565439
-5.106507 -46.133177 58.999725
-4.607478 -46.892921 58.035705
-4.244772 -45.776724 58.299217
-6.037121 -46.529926 59.708004
-5.106507 -46.133177 58.999725
-6.409741 -47.65832 59.382059
-6.037121 -46.529926 59.708004
5.198201 -46.195213 46.056021
5.696986 -45.829 45.492153
5.015997 -47.172987 45.992096
5.198201 -46.195213 46.056021
4.929909 -48.15835 45.82686
5.501022 -47.766418 45.230635
5.015997 -47.172987 45.992096
0.601693 -60.962665 42.966207
-0.165509 -61.414741 43.173969
0.426555 -62.092033 42.118067
1.42553 -60.590057 42.569159
0.833466 -59.912765 43.625061
0.601693 -60.962665 42.966207
2.214678 -60.174808 42.28836
1.42553 -60.590057 42.569159
7.972368 -49.488035 42.17334
7.937494 -48.484106 42.393772
7.410397 -50.021956 42.580391
7.924068 -50.513694 41.974045
7.972368 -49.488035 42.17334
2.861192 -47.807585 48.517202
3.461523 -47.333567 47.904027
3.019814 -46.706753 48.721903
-3.402512 -63.047373 44.339101
-4.00309 -62.399399 45.510421
-4.241699 -63.478552 44.63109
-2.561428 -62.679834 44.018758
-3.402512 -63.047373 44.339101
-2.800037 -63.758988 43.139427
-0.557023 -63.623392 41.445335
-1.149801 -62.967779 42.572457
-1.366176 -64.047062 41.691963
0.291216 -63.2106 41.210173
-0.557023 -63.623392 41.445335
-6.044009 -57.45682 51.83137
-5.705756 -56.288704 52.517941
-5.417834 -58.118702 50.695871
-6.044009 -57.45682 51.83137
-6.279492 -58.609274 51.045067
-7.042361 -61.919184 48.575522
-6.76596 -60.782977 49.455545
-7.666127 -61.193176 49.800205
-5.997483 -64.375079 45.166906
-5.090677 -63.949793 44.839191
-5.749083 -63.255864 46.130125
-5.997483 -64.375079 45.166906
-6.86804 -64.838228 45.381447
2.609659 -46.099216 49.518018
3.019814 -46.706753 48.721903
1.984541 -46.468504 50.227358
2.609659 -46.099216 49.518018
1.344963 -46.834204 50.887799
1.779905 -47.54647 49.99552
1.984541 -46.468504 50.227358
0.866309 -46.125908 51.854992
0.468127 -45.440655 52.718556
0.661674 -47.203874 51.623154
1.344963 -46.834204 50.887799
0.866309 -46.125908 51.854992
-1.75235 -46.504295 55.026425
-0.970708 -46.121809 54.250443
-2.011385 -47.59548 54.711348
-1.75235 -46.504295 55.026425
-2.511133 -46.916987 55.690729
-7.396064 -51.018633 58.097302
-6.486293 -50.646843 57.514332
-7.003664 -49.895502 58.503963
-7.734589 -52.188839 57.547624
-7.396064 -51.018633 58.097302
6.083924 -46.425217 44.870085
5.696986 -45.829 45.492153
6.547959 -47.05072 44.173561
6.083924 -46.425217 44.870085
6.051145 -47.406559 44.699347
6.975187 -47.540148 43.59145
6.547959 -47.05072 44.173561
6.986938 -48.514179 43.391255
7.446945 -48.022265 42.979881
6.975187 -47.540148 43.59145
3.873892 -47.999659 47.143824
3.461523 -47.333567 47.904027
4.346484 -48.579678 46.36083
3.873892 -47.999659 47.143824
3.775492 -49.014418 46.916332
4.831509 -49.173109 45.599369
4.929909 -48.15835 45.82686
4.346484 -48.579678 46.36083
6.745074 -52.721357 42.470554
7.352162 -52.164655 42.050808
6.755009 -51.604316 42.800843
6.715436 -53.802391 42.085634
6.745074 -52.721357 42.470554
6.118282 -53.242052 42.835668
6.653954 -54.915863 41.709997
6.715436 -53.802391 42.085634
5.985974 -55.467192 42.007549
5.401304 -54.866473 42.821441
5.298633 -56.010578 42.378242
6.653954 -54.915863 41.709997
5.985974 -55.467192 42.007549
2.931086 -59.647957 42.068203
2.373711 -59.013306 43.007855
2.214678 -60.174808 42.28836
3.665002 -59.135908 41.875597
2.931086 -59.647957 42.068203
4.391608 -58.637018 41.582853
3.816724 -57.987564 42.494953
3.665002 -59.135908 41.875597
5.136118 -58.166025 41.31488
4.391608 -58.637018 41.582853
3 0 19 17
3 1 71 73
3 71 72 73
3 1 74 75
3 77 76 20
3 3 27 25
3 3 29 27
3 2 32 30
3 79 78 33
3 80 35 81
3 4 38 36
3 6 39 18
3 6 40 39
3 7 43 41
3 82 44 83
3 85 84 44
3 9 47 45
3 86 48 87
3 88 87 21
3 86 87 88
3 89 49 90
3 91 90 48
3 89 90 91
3 92 50 93
3 94 51 95
3 96 95 50
3 94 95 96
3 97 52 98
3 99 98 22
3 97 98 99
3 101 100 52
3 102 53 103
3 104 54 105
3 106 105 53
3 104 105 106
3 11 107 108
3 11 109 111
3 109 55 110
3 109 110 111
3 11 56 55
3 112 57 113
3 114 113 23
3 112 113 114
3 116 115 57
3 12 58 24
3 12 59 58
3 5 60 37
3 13 61 26
3 13 62 61
3 13 63 62
3 14 117 119
3 119 118 28
3 117 118 119
3 14 120 121
3 10 64 46
3 15 65 31
3 15 66 65
3 8 67 42
3 16 68 34
3 16 69 68
3 16 70 69
3 17 18 4
3 19 18 17
3 19 6 18
3 123 122 7
3 20 21 9
3 124 21 125
3 126 125 20
3 124 125 126
3 128 127 21
3 129 22 130
3 131 22 132
3 134 133 22
3 135 11 136
3 137 23 138
3 139 138 11
3 137 138 139
3 140 23 141
3 143 142 23
3 144 24 145
3 146 24 147
3 148 12 149
3 150 149 24
3 148 149 150
3 25 26 5
3 27 26 25
3 27 13 26
3 27 28 13
3 29 28 27
3 29 14 28
3 30 31 10
3 32 31 30
3 32 15 31
3 33 34 8
3 151 34 152
3 153 152 33
3 151 152 153
3 154 16 155
3 156 155 34
3 154 155 156
3 158 157 16
3 35 159 160
3 35 161 163
3 161 1 162
3 161 162 163
3 36 164 166
3 164 37 165
3 164 165 166
3 38 37 36
3 38 5 37
3 18 38 4
3 39 38 18
3 39 5 38
3 39 25 5
3 40 25 39
3 40 3 25
3 41 42 2
3 43 42 41
3 43 8 42
3 167 43 168
3 169 168 7
3 167 168 169
3 44 170 172
3 170 43 171
3 170 171 172
3 44 8 43
3 44 33 8
3 173 33 174
3 175 174 44
3 173 174 175
3 177 176 33
3 45 46 0
3 47 46 45
3 47 10 46
3 21 47 9
3 48 47 21
3 48 10 47
3 48 30 10
3 49 30 48
3 49 2 30
3 178 49 179
3 50 180 182
3 180 49 181
3 180 181 182
3 50 2 49
3 50 41 2
3 51 41 50
3 51 7 41
3 22 183 185
3 183 51 184
3 183 184 185
3 52 51 22
3 52 7 51
3 52 186 188
3 188 187 7
3 186 187 188
3 190 189 52
3 191 36 192
3 193 36 194
3 195 4 196
3 197 196 36
3 195 196 197
3 53 198 199
3 53 200 202
3 200 4 201
3 200 201 202
3 53 17 4
3 54 17 53
3 54 0 17
3 203 54 204
3 55 205 207
3 205 54 206
3 205 206 207
3 55 0 54
3 55 45 0
3 56 45 55
3 56 9 45
3 23 56 11
3 57 56 23
3 57 9 56
3 57 20 9
3 208 20 209
3 210 209 57
3 208 209 210
3 212 211 20
3 24 213 214
3 58 215 217
3 217 216 24
3 215 216 217
3 58 218 219
3 58 220 222
3 220 35 221
3 220 221 222
3 59 35 58
3 59 1 35
3 37 223 224
3 60 225 227
3 227 226 37
3 225 226 227
3 60 228 230
3 228 12 229
3 228 229 230
3 26 60 5
3 61 60 26
3 61 12 60
3 61 59 12
3 62 59 61
3 62 1 59
3 62 231 233
3 233 232 1
3 231 232 233
3 63 234 236
3 236 235 62
3 234 235 236
3 63 237 238
3 28 63 13
3 239 63 240
3 241 240 28
3 239 240 241
3 243 242 63
3 46 19 0
3 64 19 46
3 64 6 19
3 31 64 10
3 65 64 31
3 65 6 64
3 65 40 6
3 66 40 65
3 66 3 40
3 42 32 2
3 67 32 42
3 67 15 32
3 34 67 8
3 68 67 34
3 68 15 67
3 68 66 15
3 69 66 68
3 69 3 66
3 69 29 3
3 70 29 69
3 70 14 29
3 244 70 245
3 246 245 16
3 244 245 246
3 247 70 248
3 249 14 250
3 251 250 70
3 249 250 251
3 253 252 14
