ply
format ascii 1.0
element vertex 113
property float x
property float y
property float z
element face 100
property list uchar int vertex_index
end_header
32.113583 -52.85273 -39.548855
28.083681 -59.535767 -39.85675
30.091444 -52.281441 -43.113457
30.914145 -59.605049 -32.101913
29.768562 -59.855511 -36.145889
33.204552 -53.543365 -35.559166
27.936766 -55.461929 -43.235565
29.211119 -62.755955 -32.295559
30.093027 -56.348267 -39.716576
28.983376 -59.813484 -38.020496
30.925734 -56.414246 -38.01152
31.53533 -56.73315 -35.927208
32.668713 -53.413391 -37.57449
34.277332 -50.089268 -37.394257
33.75457 -49.838402 -39.248631
25.753479 -62.717823 -40.240311
26.857952 -59.341408 -41.616245
29.065042 -56.003696 -41.545025
31.159212 -52.723843 -41.343784
33.086769 -49.243927 -41.248978
26.8741 -62.993263 -38.320953
27.773767 -63.133369 -36.35577
28.490009 -63.139786 -34.360302
30.408901 -59.820995 -34.103825
32.181725 -56.450386 -33.902142
28.260915 -64.363928 -32.469195
28.572333 -64.162039 -31.452368
26.261217 -59.006502 -42.446352
25.668458 -60.926749 -41.721492
31.142426 -50.528233 -43.081066
31.67631 -50.749434 -42.19623
30.625328 -52.502642 -42.22862
31.075943 -59.507874 -31.009893
30.291863 -61.046667 -31.112267
31.689813 -58.051904 -31.943488
31.075943 -59.507874 -31.009893
33.42572 -53.490676 -34.468345
32.914307 -54.944187 -33.639833
32.693139 -54.996876 -34.730654
33.948477 -51.880933 -35.444248
33.42572 -53.490676 -34.468345
34.957525 -48.528545 -37.203058
34.773933 -48.301317 -38.240923
33.87696 -47.73062 -41.116444
33.529598 -47.437086 -42.042977
27.292381 -55.176981 -43.993302
26.800624 -57.066763 -43.256012
28.454502 -53.466234 -44.026228
27.292381 -55.176981 -43.993302
29.531841 -51.87599 -43.965174
29.014105 -53.871685 -43.174511
28.454502 -53.466234 -44.026228
30.571804 -50.430189 -43.849345
29.531841 -51.87599 -43.965174
29.440351 -62.62212 -31.209089
28.572333 -64.162039 -31.452368
30.062632 -61.180502 -32.198736
30.291863 -61.046667 -31.112267
29.440351 -62.62212 -31.209089
34.512552 -48.175885 -39.16811
34.773933 -48.301317 -38.240923
34.015951 -49.963835 -38.321444
25.116222 -62.614956 -41.033525
24.552271 -64.492213 -40.224085
23.915014 -64.389346 -41.0173
26.305715 -61.029616 -40.928278
25.116222 -62.614956 -41.033525
25.668458 -60.926749 -41.721492
27.397359 -57.401668 -42.425905
26.261217 -59.006502 -42.446352
26.800624 -57.066763 -43.256012
32.640089 -49.009476 -42.148827
32.122991 -50.983885 -41.296381
31.67631 -50.749434 -42.19623
33.529598 -47.437086 -42.042977
32.640089 -49.009476 -42.148827
31.142426 -50.528233 -43.081066
30.571804 -50.430189 -43.849345
25.227176 -64.405836 -39.416309
24.552271 -64.492213 -40.224085
25.787487 -64.543556 -38.456631
25.227176 -64.405836 -39.416309
26.313789 -62.855543 -39.280632
26.274869 -64.653649 -37.480785
25.787487 -64.543556 -38.456631
26.724702 -64.723702 -36.498193
26.274869 -64.653649 -37.480785
27.323933 -63.063316 -37.338362
27.143043 -64.718448 -35.509304
26.724702 -64.723702 -36.498193
27.501165 -64.721657 -34.51157
27.143043 -64.718448 -35.509304
28.131888 -63.136578 -35.358036
27.90036 -64.555844 -33.501566
27.501165 -64.721657 -34.51157
28.850564 -62.947871 -33.32793
28.260915 -64.363928 -32.469195
27.90036 -64.555844 -33.501566
32.323603 -56.474573 -32.843603
31.689813 -58.051904 -31.943488
31.547935 -58.027718 -33.002027
32.323603 -56.474573 -32.843603
32.914307 -54.944187 -33.639833
34.484867 -50.153885 -36.361794
33.948477 -51.880933 -35.444248
33.740942 -51.816316 -36.476712
34.484867 -50.153885 -36.361794
34.957525 -48.528545 -37.203058
34.210861 -48.027857 -40.11627
33.42067 -49.541165 -40.248805
33.87696 -47.73062 -41.116444
34.512552 -48.175885 -39.16811
34.210861 -48.027857 -40.11627
3 25 7 26
3 0 10 8
3 0 12 10
3 0 14 12
3 27 16 28
3 2 17 6
3 2 18 17
3 2 29 31
3 31 30 18
3 29 30 31
3 3 32 33
3 3 34 35
3 1 20 15
3 4 21 9
3 4 22 21
3 4 23 22
3 5 24 11
3 5 36 38
3 38 37 24
3 36 37 38
3 5 39 40
3 42 41 13
3 44 43 19
3 45 6 46
3 47 6 48
3 49 2 50
3 51 50 6
3 49 50 51
3 53 52 2
3 7 54 55
3 7 56 58
3 56 3 57
3 56 57 58
3 8 9 1
3 10 9 8
3 10 4 9
3 10 11 4
3 12 11 10
3 12 5 11
3 12 13 5
3 14 13 12
3 14 59 61
3 61 60 13
3 59 60 61
3 62 15 63
3 62 63 64
3 16 65 67
3 65 15 66
3 65 66 67
3 16 1 15
3 6 68 70
3 68 16 69
3 68 69 70
3 17 16 6
3 17 1 16
3 17 8 1
3 18 8 17
3 18 0 8
3 18 19 0
3 71 19 72
3 73 72 18
3 71 72 73
3 75 74 19
3 77 76 2
3 15 78 79
3 20 80 82
3 82 81 15
3 80 81 82
3 20 83 84
3 9 20 1
3 21 20 9
3 21 85 87
3 87 86 20
3 85 86 87
3 21 88 89
3 22 90 92
3 92 91 21
3 90 91 92
3 22 93 94
3 22 95 97
3 95 7 96
3 95 96 97
3 23 7 22
3 23 3 7
3 11 23 4
3 24 23 11
3 24 3 23
3 24 98 100
3 100 99 3
3 98 99 100
3 102 101 24
3 13 103 105
3 105 104 5
3 103 104 105
3 107 106 13
3 19 14 0
3 108 14 109
3 110 109 19
3 108 109 110
3 112 111 14
