ply
format ascii 1.0
element vertex 191
property float x
property float y
property float z
element face 172
property list uchar int vertex_index
end_header
11.195627 47.344051 -37.70937
12.320109 50.849705 -29.577995
13.085152 39.913818 -23.335815
12.51213 43.311134 -34.526249
12.694709 41.893986 -39.316936
13.519922 46.53767 -22.840754
13.568707 40.304974 -20.181709
11.673503 49.071606 -33.52227
12.545908 44.287266 -30.171745
13.305892 52.13522 -25.936878
12.793027 45.591999 -26.41678
13.051982 40.908585 -33.058899
13.222508 40.48901 -35.315857
14.000788 43.633606 -19.9786
14.000315 40.540554 -18.764048
11.971468 49.855591 -31.454344
12.158311 46.828617 -31.764126
12.342095 47.666908 -29.722593
13.191743 43.185295 -23.10483
13.08612 46.094166 -24.625647
12.952221 42.782806 -24.904093
12.842831 42.257931 -26.730568
11.909719 45.354458 -36.201923
11.863657 44.54018 -38.366383
12.605894 42.55164 -36.827606
12.479255 54.114399 -29.418653
13.996055 49.674023 -22.688522
14.037299 46.763893 -21.237043
13.546597 43.51091 -21.481443
13.284135 40.110252 -21.601994
11.755322 43.836269 -40.760864
10.723694 50.148697 -37.169743
11.093639 51.336597 -35.036572
11.414926 48.254848 -35.605137
12.010753 46.119595 -33.988762
12.53229 43.677353 -32.297432
12.941226 41.205299 -30.805103
12.774565 51.494774 -27.685867
13.404604 49.231842 -24.400188
12.960763 48.701199 -26.068371
12.605118 48.210068 -27.880659
12.60769 45.030544 -28.322273
12.838402 41.797192 -28.66954
13.398695 39.595036 -33.404871
13.276769 39.66516 -32.266917
14.287752 40.547872 -18.069028
14.279827 42.088873 -18.673223
14.012377 38.859253 -18.166103
14.287752 40.547872 -18.069028
11.106498 46.77148 -38.883741
10.802821 48.104588 -38.521311
12.145789 50.352648 -30.51617
11.955749 51.454361 -31.360335
12.13007 51.951418 -30.42216
13.059344 39.609993 -24.265034
12.992878 41.044487 -25.049172
13.018687 41.348312 -24.119954
13.129953 38.318981 -23.614857
13.059344 39.609993 -24.265034
13.793031 38.900932 -36.942602
13.347786 40.207407 -36.517634
13.667753 39.182535 -35.740825
12.634218 55.627859 -29.337972
12.281475 55.310886 -30.27733
14.3243 46.754133 -20.512394
14.356248 48.41955 -21.208125
13.45149 38.664607 -20.341604
13.309203 38.567245 -21.051747
13.426421 40.207613 -20.891852
10.538731 51.68318 -36.989586
10.318126 51.013759 -37.946875
11.383571 50.204102 -34.279421
11.303489 51.744537 -34.046976
11.593421 50.612042 -33.289825
13.214709 53.479902 -26.73682
13.550963 53.74519 -25.898039
13.040229 51.814997 -26.811372
12.949046 53.159679 -27.611314
13.214709 53.479902 -26.73682
12.967831 40.411692 -27.932233
12.840616 42.027562 -27.700054
12.970046 40.642061 -26.962747
13.043052 40.323309 -28.990138
12.967831 40.411692 -27.932233
13.483957 39.385249 -34.53335
13.137245 40.698797 -34.187378
13.398695 39.595036 -33.404871
13.667753 39.182535 -35.740825
13.483957 39.385249 -34.53335
14.280064 43.635399 -19.280499
14.306044 45.18899 -19.883173
14.000552 42.08708 -19.371324
14.280064 43.635399 -19.280499
14.279827 42.088873 -18.673223
13.80754 38.888958 -18.885002
13.591736 38.771168 -19.593833
13.784511 40.422764 -19.472879
13.80754 38.888958 -18.885002
14.012377 38.859253 -18.166103
12.687127 41.694615 -40.516832
13.145992 40.797886 -39.774843
11.742403 51.004034 -32.255862
11.955749 51.454361 -31.360335
11.822485 49.463599 -32.488307
11.593421 50.612042 -33.289825
11.742403 51.004034 -32.255862
13.619749 52.31138 -25.059432
13.550963 53.74519 -25.898039
12.938183 40.782049 -25.96241
12.897526 42.520369 -25.817331
12.992878 41.044487 -25.049172
12.970046 40.642061 -26.962747
12.938183 40.782049 -25.96241
13.039479 41.238722 -37.273508
12.914201 41.520325 -36.071731
13.347786 40.207407 -36.517634
13.083887 40.909895 -38.518173
12.650301 42.222813 -38.072271
13.039479 41.238722 -37.273508
13.145992 40.797886 -39.774843
13.083887 40.909895 -38.518173
12.209643 53.583765 -30.342489
12.281475 55.310886 -30.27733
12.399682 52.482052 -29.498324
12.13007 51.951418 -30.42216
12.209643 53.583765 -30.342489
14.335625 49.874615 -21.933864
14.316116 51.369015 -22.702364
14.016677 48.218958 -21.962782
14.335625 49.874615 -21.933864
14.356248 48.41955 -21.208125
14.019044 45.19875 -20.607822
14.3243 46.754133 -20.512394
14.306044 45.18899 -19.883173
13.23679 38.530329 -21.86393
13.137299 38.432112 -22.73084
13.184643 40.012035 -22.468905
13.23679 38.530329 -21.86393
13.309203 38.567245 -21.051747
13.45149 38.664607 -20.341604
13.591736 38.771168 -19.593833
11.440513 45.369545 -39.212248
11.106498 46.77148 -38.883741
11.529642 45.942115 -38.037876
11.386346 45.017589 -40.409488
11.440513 45.369545 -39.212248
11.809489 44.188225 -39.563623
11.254939 44.622974 -41.535822
11.386346 45.017589 -40.409488
12.217433 42.665756 -41.238796
12.225015 42.865127 -40.0389
12.687127 41.694615 -40.516832
11.722889 43.434099 -41.945479
12.217433 42.665756 -41.238796
11.254939 44.622974 -41.535822
11.722889 43.434099 -41.945479
10.566854 49.506911 -38.251497
10.318126 51.013759 -37.946875
10.959661 48.746374 -37.439556
10.802821 48.104588 -38.521311
10.566854 49.506911 -38.251497
11.002592 52.855085 -34.892615
11.303489 51.744537 -34.046976
10.723703 52.27713 -35.923001
11.002592 52.855085 -34.892615
10.908666 50.742647 -36.103157
10.538731 51.68318 -36.989586
10.723703 52.27713 -35.923001
13.221391 39.813516 -31.14002
13.276769 39.66516 -32.266917
12.996604 41.056942 -31.932001
12.801391 54.469492 -28.477708
12.634218 55.627859 -29.337972
12.62691 52.804586 -28.55226
12.801391 54.469492 -28.477708
12.949046 53.159679 -27.611314
13.96483 51.080782 -23.435254
14.316116 51.369015 -22.702364
13.669104 50.859691 -24.291087
13.96483 51.080782 -23.435254
13.70033 49.452933 -23.544355
13.355248 50.683531 -25.168533
13.619749 52.31138 -25.059432
13.669104 50.859691 -24.291087
13.094465 40.027362 -30.057919
12.889814 41.501245 -29.737322
13.043052 40.323309 -28.990138
13.221391 39.813516 -31.14002
13.094465 40.027362 -30.057919
13.129953 38.318981 -23.614857
13.137299 38.432112 -22.73084
3 44 43 11
3 45 14 46
3 48 47 14
3 0 49 50
3 1 51 53
3 51 15 52
3 51 52 53
3 1 17 15
3 2 20 18
3 2 54 56
3 56 55 20
3 54 55 56
3 2 57 58
3 3 24 22
3 61 60 12
3 59 60 61
3 62 25 63
3 64 27 65
3 6 28 13
3 6 29 28
3 6 66 68
3 68 67 29
3 66 67 68
3 4 30 23
3 69 31 70
3 7 71 73
3 71 32 72
3 71 72 73
3 7 33 32
3 7 34 33
3 8 35 16
3 8 36 35
3 9 74 75
3 9 76 78
3 76 37 77
3 76 77 78
3 5 38 26
3 10 39 19
3 10 40 39
3 10 41 40
3 79 42 80
3 81 80 21
3 79 80 81
3 83 82 42
3 11 12 3
3 84 12 85
3 86 85 11
3 84 85 86
3 88 87 12
3 89 13 90
3 14 91 93
3 91 13 92
3 91 92 93
3 14 6 13
3 14 94 96
3 96 95 6
3 94 95 96
3 98 97 14
3 100 99 4
3 15 101 102
3 15 103 105
3 103 7 104
3 103 104 105
3 15 16 7
3 17 16 15
3 17 8 16
3 106 9 107
3 18 19 5
3 20 19 18
3 20 10 19
3 20 21 10
3 108 21 109
3 110 109 20
3 108 109 110
3 112 111 21
3 22 23 0
3 24 23 22
3 24 4 23
3 12 24 3
3 113 24 114
3 115 114 12
3 113 114 115
3 116 4 117
3 118 117 24
3 116 117 118
3 120 119 4
3 25 121 122
3 25 123 125
3 123 1 124
3 123 124 125
3 126 26 127
3 27 128 130
3 128 26 129
3 128 129 130
3 27 5 26
3 13 131 133
3 131 27 132
3 131 132 133
3 28 27 13
3 28 5 27
3 28 18 5
3 29 18 28
3 29 2 18
3 29 134 136
3 136 135 2
3 134 135 136
3 138 137 29
3 140 139 6
3 23 141 143
3 143 142 0
3 141 142 143
3 30 144 146
3 146 145 23
3 144 145 146
3 30 147 148
3 149 30 150
3 151 150 4
3 149 150 151
3 152 30 153
3 155 154 30
3 31 156 157
3 31 158 160
3 158 0 159
3 158 159 160
3 32 161 162
3 32 163 164
3 32 165 167
3 165 31 166
3 165 166 167
3 33 31 32
3 33 0 31
3 33 22 0
3 34 22 33
3 34 3 22
3 16 34 7
3 35 34 16
3 35 3 34
3 35 11 3
3 36 11 35
3 36 168 170
3 170 169 11
3 168 169 170
3 171 25 172
3 37 173 175
3 173 25 174
3 173 174 175
3 37 1 25
3 26 176 177
3 38 178 180
3 180 179 26
3 178 179 180
3 38 181 183
3 181 9 182
3 181 182 183
3 19 38 5
3 39 38 19
3 39 9 38
3 39 37 9
3 40 37 39
3 40 1 37
3 40 17 1
3 41 17 40
3 41 8 17
3 21 41 10
3 42 41 21
3 42 8 41
3 42 36 8
3 184 36 185
3 186 185 42
3 184 185 186
3 188 187 36
3 190 189 2
