ply
format ascii 1.0
element vertex 351
property float x
property float y
property float z
element face 367
property list uchar int vertex_index
end_header
-30.439594 56.772732 40.354958
-28.62418 51.70229 50.272301
-28.181475 67.190765 41.694912
-24.137274 60.443935 50.229977
-29.272446 35.639534 55.586617
-30.604511 41.035095 46.523788
-31.275871 45.42873 37.081123
-27.1014 48.4921 54.393776
-26.681585 56.775021 50.605042
-24.561554 52.949036 54.198463
-27.583929 40.6422 57.192924
-28.89349 43.833179 53.30611
-30.853399 58.332737 35.218224
-30.534985 48.803738 43.921673
-30.974688 43.130459 41.740952
-30.930428 51.026707 38.860455
-31.235579 52.902145 33.734478
-29.717134 54.61322 45.447922
-29.588106 62.100285 41.401508
-28.32865 60.008324 46.232841
-26.30019 64.249832 46.402775
-30.64164 32.730015 48.698032
-30.027351 38.390343 51.436218
-29.878351 46.520771 48.80579
-31.262018 37.241623 39.496414
-31.682726 39.552341 34.888474
-31.651876 47.329689 32.205891
-31.552652 54.45821 28.947731
-26.132704 46.864983 56.139164
-25.868837 50.959438 54.410301
-26.444143 43.038006 57.542442
-27.350971 44.641693 55.818672
-30.667253 57.640324 37.846004
-30.6262 61.221954 35.653797
-30.396362 60.428474 38.288837
-30.475973 52.900623 42.302948
-30.754038 50.083042 41.319389
-30.706165 54.111916 39.629547
-30.901585 54.824692 37.017487
-29.216921 53.347965 47.871292
-29.100101 57.237221 46.041328
-28.484896 55.910938 48.323505
-25.530048 58.814377 50.44511
-26.498707 60.652107 48.512817
-25.25893 62.500114 48.385906
-23.909725 64.195724 47.973541
-29.853712 32.860802 54.402302
-30.168787 34.148136 52.207314
-29.691593 37.103001 53.492836
-28.775145 47.981556 51.736084
-29.424417 45.132927 51.189358
-29.357182 49.316883 49.479103
-29.792913 50.654785 47.206905
-28.966743 64.852249 41.528049
-30.624269 36.903191 47.701405
-30.792318 34.024994 46.470711
-30.796213 38.041164 45.445011
-31.124537 44.235855 39.430756
-31.119854 40.030144 40.717213
-31.287228 41.248238 38.328445
-31.461706 38.376995 37.142979
-31.468733 42.625359 35.930481
-31.677975 43.663902 33.586361
-31.453503 46.433842 34.611515
-31.198454 56.365646 31.89786
-31.387239 53.71064 31.294176
-32.031837 52.736549 26.082054
-27.877977 50.499527 52.325123
-27.758364 54.557911 50.413399
-26.911528 52.664066 52.56543
-25.671234 54.946949 52.510784
-24.306122 56.935173 52.185036
-27.903662 36.600506 58.334743
-28.535492 38.068027 56.557301
-29.069828 39.588482 54.615593
-28.301094 42.197575 55.333794
-28.109419 46.579292 53.781796
-30.57863 44.95282 45.267578
-30.801857 41.921921 44.207596
-30.788445 45.931103 42.86644
-30.959391 47.178715 40.372665
-31.119625 48.164509 37.88636
-31.271704 49.226429 35.383808
-31.093502 51.732876 36.368553
-31.053055 55.62241 34.462238
-30.14962 55.580112 42.890175
-30.08436 59.353691 40.973858
-29.659992 58.415359 43.475319
-29.006102 60.957405 44.035786
-28.240124 63.607868 44.081821
-27.573107 58.551838 48.436993
-27.402557 62.095745 46.501163
-27.298424 65.800766 44.169151
-30.472527 31.418575 50.808609
-30.402103 35.630348 50.058578
-30.356575 39.549503 49.0131
-29.540979 41.181644 52.452076
-29.949553 42.420338 50.228634
-30.302254 43.75507 47.755997
-30.236885 47.867188 46.365093
-30.167543 51.810802 44.826481
-30.957283 39.168102 43.082153
-31.084352 36.185764 41.904167
-31.205654 33.246494 40.603092
-31.937729 36.577038 33.814903
-31.94072 40.614891 32.65659
-31.93811 44.413944 31.236496
-31.865152 48.274704 29.925936
-31.431887 50.128475 32.964046
-31.604511 50.973763 30.662052
-31.79862 51.830822 28.39319
-31.735786 55.099113 26.769865
-25.509825 47.860449 56.094717
-25.625234 45.885014 56.933335
-25.780954 43.971525 57.634974
-25.998353 41.974199 58.349836
-25.625234 45.885014 56.933335
-26.288424 44.951495 56.840803
-25.780954 43.971525 57.634974
-29.392742 33.543323 55.988813
-29.039393 34.824505 56.561054
-29.563079 34.250168 54.994459
-29.683376 32.153958 55.396656
-29.392742 33.543323 55.988813
-28.498581 67.989971 40.350386
-28.891215 66.820713 40.266954
-28.574109 66.021507 41.61148
-31.265394 56.777198 30.712701
-31.167351 58.076595 31.009185
-32.165763 53.222806 24.933212
-31.981874 54.340311 25.363084
-27.743796 38.621353 57.763834
-27.334997 37.856037 58.59094
-27.17513 39.876884 58.02003
-30.827004 60.157088 34.089878
-30.92481 58.719651 33.942678
-30.593856 62.925636 34.560753
-30.462096 62.764934 35.875122
-30.92481 58.719651 33.942678
-31.024638 57.364487 33.564685
-30.953227 56.977574 34.840231
-26.269026 66.128101 45.130419
-26.768143 66.903569 44.013607
-26.799307 65.025299 45.285963
-30.36437 30.681553 51.949494
-30.491154 29.355244 51.224052
-29.802766 62.588877 40.097938
-30.050893 61.21558 39.884113
-29.836233 60.726988 41.187683
-30.713007 31.19657 47.984167
-30.651446 30.599795 49.053125
-30.849484 32.545645 45.763645
-30.86618 34.559077 45.301576
-31.330649 35.738943 38.960901
-31.302467 33.741378 39.51424
-31.233836 35.244058 40.049753
-31.658911 37.4587 35.543919
-31.548401 36.871027 36.671171
-31.572216 38.964668 36.015726
-31.810227 38.06469 34.351689
-31.786413 35.971049 35.007134
-31.658911 37.4587 35.543919
-25.377891 49.907677 55.230285
-26.000771 48.912211 55.274732
-25.509825 47.860449 56.094717
-24.72425 50.902476 55.124366
-25.215196 51.954237 54.304382
-25.377891 49.907677 55.230285
-26.605237 41.074787 58.194789
-25.998353 41.974199 58.349836
-27.014036 41.840103 57.367683
-27.17513 39.876884 58.02003
-26.605237 41.074787 58.194789
-30.347176 62.368195 37.192642
-30.462096 62.764934 35.875122
-30.511281 60.825214 36.971317
-25.180868 64.459038 47.142231
-25.701498 65.333897 46.150666
-25.77956 63.374973 47.39434
-24.506266 65.306843 46.936048
-25.180868 64.459038 47.142231
-24.584328 63.347919 48.179723
-23.810237 66.024719 46.770595
-24.506266 65.306843 46.936048
-29.922182 30.722029 54.858936
-29.683376 32.153958 55.396656
-30.054963 31.402666 53.74634
-29.922182 30.722029 54.858936
-30.011249 33.504469 53.304808
-30.2125 32.046333 52.648846
-30.054963 31.402666 53.74634
-29.231994 65.434757 40.238089
-29.542676 64.058775 40.174818
-29.277425 63.476267 41.464779
-29.231994 65.434757 40.238089
-28.891215 66.820713 40.266954
-30.868127 36.567161 44.788726
-30.86618 34.559077 45.301576
-30.794266 36.033079 45.957861
-31.359787 55.449696 30.410859
-31.292847 55.038143 31.596018
-31.265394 56.777198 30.712701
-31.442493 55.823481 29.237637
-31.469946 54.084425 30.120953
-31.359787 55.449696 30.410859
-31.526035 56.034453 28.100127
-31.442493 55.823481 29.237637
-32.217876 51.549438 25.673099
-32.071312 51.036686 26.844267
-32.351802 52.035696 24.524256
-32.217876 51.549438 25.673099
-32.165763 53.222806 24.933212
-27.559358 35.692982 59.18648
-27.334997 37.856037 58.59094
-28.079169 34.417847 58.878631
-27.734865 33.510323 59.730368
-27.559358 35.692982 59.18648
-28.355002 35.304991 57.935118
-28.079169 34.417847 58.878631
-28.670917 36.038752 57.046397
-28.355002 35.304991 57.935118
-28.219577 37.334266 57.446022
-28.903969 36.85378 56.071959
-29.039393 34.824505 56.561054
-28.670917 36.038752 57.046397
-30.713404 61.601696 34.307665
-30.827004 60.157088 34.089878
-30.7398 59.777345 35.43601
-30.713404 61.601696 34.307665
-30.593856 62.925636 34.560753
-27.570232 70.338669 40.340156
-28.073329 69.116165 40.418219
-27.678379 68.413269 41.61685
-31.097337 57.736105 32.282497
-31.125754 55.994028 33.180049
-31.024638 57.364487 33.564685
-31.167351 58.076595 31.009185
-31.097337 57.736105 32.282497
-27.236853 67.718269 42.853969
-27.678379 68.413269 41.61685
-27.73995 66.495766 42.932032
-27.236853 67.718269 42.853969
-26.768143 66.903569 44.013607
-26.269026 66.128101 45.130419
-25.701498 65.333897 46.150666
-30.56689 29.944074 50.108413
-30.491154 29.355244 51.224052
-30.557083 32.074295 49.753321
-30.651446 30.599795 49.053125
-30.56689 29.944074 50.108413
-30.320657 32.783355 51.507961
-30.36437 30.681553 51.949494
-30.2125 32.046333 52.648846
-30.206894 61.752972 38.541603
-30.240361 59.891082 39.631348
-30.050893 61.21558 39.884113
-30.347176 62.368195 37.192642
-30.206894 61.752972 38.541603
-29.802766 62.588877 40.097938
-29.542676 64.058775 40.174818
-28.498581 67.989971 40.350386
-28.073329 69.116165 40.418219
-23.993498 51.791685 54.960535
-24.72425 50.902476 55.124366
-23.825133 53.794655 53.981992
-23.993498 51.791685 54.960535
-23.257077 52.637304 54.744064
-23.697416 55.787723 52.975279
-24.433838 54.942104 53.19175
-23.825133 53.794655 53.981992
-23.564713 57.687504 51.959167
-23.697416 55.787723 52.975279
-23.48029 59.441885 50.981638
-24.221698 58.689554 51.207506
-23.564713 57.687504 51.959167
-23.401664 61.323412 49.882199
-23.48029 59.441885 50.981638
-23.287889 63.199306 48.75398
-24.023499 62.319829 49.101759
-23.401664 61.323412 49.882199
-23.108393 64.980038 47.633451
-23.287889 63.199306 48.75398
-23.008904 66.809033 46.430506
-23.810237 66.024719 46.770595
-23.108393 64.980038 47.633451
-30.788346 31.844059 46.870507
-30.713007 31.19657 47.984167
-30.716979 33.377505 47.584372
-30.788346 31.844059 46.870507
-30.849484 32.545645 45.763645
-30.948662 37.13063 43.607298
-30.868127 36.567161 44.788726
-30.876748 38.604633 44.263582
-31.012197 35.639461 43.018304
-30.948662 37.13063 43.607298
-31.020817 37.676933 42.49316
-31.062388 34.074134 42.391008
-31.012197 35.639461 43.018304
-31.123039 32.6045 41.740471
-31.062388 34.074134 42.391008
-31.145003 34.716129 41.25363
-31.174841 31.170694 40.979278
-31.123039 32.6045 41.740471
-31.277204 31.699874 39.878791
-31.174841 31.170694 40.979278
-31.277204 31.699874 39.878791
-31.302467 33.741378 39.51424
-31.430493 36.306629 37.784183
-31.330649 35.738943 38.960901
-31.361862 37.809309 38.319696
-31.430493 36.306629 37.784183
-31.548401 36.871027 36.671171
-31.916046 34.686979 34.311498
-31.786413 35.971049 35.007134
-32.092548 35.206265 33.225147
-32.070865 33.316206 33.721742
-31.916046 34.686979 34.311498
-32.099739 37.31156 32.66608
-32.092548 35.206265 33.225147
-32.101235 39.330486 32.086923
-32.099739 37.31156 32.66608
-31.939225 38.595965 33.235747
-32.099839 41.247099 31.442618
-32.101235 39.330486 32.086923
-32.098534 43.146625 30.732571
-32.099839 41.247099 31.442618
-31.939415 42.514418 31.946543
-32.075176 45.035742 30.060356
-32.098534 43.146625 30.732571
-32.038697 46.966121 29.405076
-32.075176 45.035742 30.060356
-31.901631 46.344324 30.581216
-31.987969 48.805763 28.766208
-32.038697 46.966121 29.405076
-31.954703 50.583822 27.999835
-31.987969 48.805763 28.766208
-31.831886 50.052763 29.159563
-31.915229 52.283685 27.237622
-32.071312 51.036686 26.844267
-31.954703 50.583822 27.999835
-31.833849 55.521593 25.70699
-31.981874 54.340311 25.363084
-31.883812 53.917831 26.425959
-31.617602 56.354904 27.011193
-31.644219 54.778661 27.858798
-31.526035 56.034453 28.100127
-31.699494 56.665085 25.963679
-31.617602 56.354904 27.011193
-31.797556 57.087564 24.900804
-31.833849 55.521593 25.70699
-31.699494 56.665085 25.963679
3 113 112 28
3 114 30 115
3 116 28 117
3 118 117 30
3 116 117 118
3 0 34 32
3 0 37 35
3 0 32 37
3 1 41 39
3 3 44 42
3 3 45 44
3 4 119 120
3 4 121 123
3 121 46 122
3 121 122 123
3 4 48 46
3 1 51 49
3 1 39 51
3 2 124 126
3 126 125 53
3 124 125 126
3 5 56 54
3 6 59 57
3 6 61 59
3 6 63 61
3 128 127 64
3 130 129 66
3 7 69 67
3 9 70 29
3 9 71 70
3 10 131 133
3 131 72 132
3 131 132 133
3 10 73 72
3 10 75 73
3 7 76 31
3 7 67 76
3 12 134 135
3 137 136 33
3 13 79 77
3 15 80 36
3 15 81 80
3 15 83 81
3 12 84 38
3 12 138 140
3 140 139 84
3 138 139 140
3 17 87 85
3 19 88 40
3 19 89 88
3 8 90 68
3 20 91 43
3 20 92 91
3 20 141 143
3 143 142 92
3 141 142 143
3 144 93 145
3 22 94 47
3 22 95 94
3 11 96 74
3 23 97 50
3 23 98 97
3 23 99 98
3 17 100 52
3 17 85 100
3 18 146 148
3 148 147 86
3 146 147 148
3 21 149 150
3 152 151 55
3 14 101 78
3 24 102 58
3 24 103 102
3 24 153 155
3 155 154 103
3 153 154 155
3 25 156 158
3 158 157 60
3 156 157 158
3 25 159 161
3 159 104 160
3 159 160 161
3 25 105 104
3 26 106 62
3 26 107 106
3 16 108 82
3 27 109 65
3 27 110 109
3 27 111 110
3 28 29 7
3 162 29 163
3 164 163 28
3 162 163 164
3 165 9 166
3 167 166 29
3 165 166 167
3 30 168 169
3 30 170 172
3 170 10 171
3 170 171 172
3 30 31 10
3 28 31 30
3 28 7 31
3 32 33 12
3 34 33 32
3 34 173 175
3 175 174 33
3 173 174 175
3 35 36 13
3 37 36 35
3 37 15 36
3 37 38 15
3 32 38 37
3 32 12 38
3 39 40 17
3 41 40 39
3 41 19 40
3 42 43 8
3 44 43 42
3 44 20 43
3 44 176 178
3 178 177 20
3 176 177 178
3 45 179 181
3 181 180 44
3 179 180 181
3 45 182 183
3 46 184 185
3 46 186 187
3 46 188 190
3 188 47 189
3 188 189 190
3 48 47 46
3 48 22 47
3 49 50 11
3 51 50 49
3 51 23 50
3 51 52 23
3 39 52 51
3 39 17 52
3 53 191 193
3 193 192 18
3 191 192 193
3 195 194 53
3 54 55 21
3 56 55 54
3 56 196 198
3 198 197 55
3 196 197 198
3 57 58 14
3 59 58 57
3 59 24 58
3 59 60 24
3 61 60 59
3 61 25 60
3 61 62 25
3 63 62 61
3 63 26 62
3 64 65 16
3 199 65 200
3 201 200 64
3 199 200 201
3 202 27 203
3 204 203 65
3 202 203 204
3 206 205 27
3 66 207 208
3 211 210 66
3 209 210 211
3 67 68 1
3 69 68 67
3 69 8 68
3 29 69 7
3 70 69 29
3 70 8 69
3 70 42 8
3 71 42 70
3 71 3 42
3 72 212 213
3 72 214 216
3 214 215 216
3 72 217 218
3 73 219 221
3 221 220 72
3 219 220 221
3 73 222 224
3 222 4 223
3 222 223 224
3 73 74 4
3 75 74 73
3 75 11 74
3 31 75 10
3 76 75 31
3 76 11 75
3 76 49 11
3 67 49 76
3 67 1 49
3 33 225 227
3 227 226 12
3 225 226 227
3 229 228 33
3 232 231 2
3 230 231 232
3 77 78 5
3 79 78 77
3 79 14 78
3 36 79 13
3 80 79 36
3 80 14 79
3 80 57 14
3 81 57 80
3 81 6 57
3 81 82 6
3 83 82 81
3 83 16 82
3 38 83 15
3 84 83 38
3 84 16 83
3 84 64 16
3 233 64 234
3 235 234 84
3 233 234 235
3 237 236 64
3 85 86 0
3 87 86 85
3 87 18 86
3 40 87 17
3 88 87 40
3 88 18 87
3 88 53 18
3 89 53 88
3 89 2 53
3 68 41 1
3 90 41 68
3 90 19 41
3 43 90 8
3 91 90 43
3 91 19 90
3 91 89 19
3 92 89 91
3 92 2 89
3 92 238 240
3 240 239 2
3 238 239 240
3 242 241 92
3 244 243 20
3 93 245 246
3 93 247 249
3 247 21 248
3 247 248 249
3 47 250 252
3 250 93 251
3 250 251 252
3 94 93 47
3 94 21 93
3 94 54 21
3 95 54 94
3 95 5 54
3 74 48 4
3 96 48 74
3 96 22 48
3 50 96 11
3 97 96 50
3 97 22 96
3 97 95 22
3 98 95 97
3 98 5 95
3 98 77 5
3 99 77 98
3 99 13 77
3 52 99 23
3 100 99 52
3 100 13 99
3 100 35 13
3 85 35 100
3 85 0 35
3 86 34 0
3 253 34 254
3 255 254 86
3 253 254 255
3 257 256 34
3 259 258 18
3 261 260 2
3 262 9 263
3 264 9 265
3 264 265 266
3 267 71 268
3 269 268 9
3 267 268 269
3 270 71 271
3 272 3 273
3 274 273 71
3 272 273 274
3 275 3 276
3 277 45 278
3 279 278 3
3 277 278 279
3 280 45 281
3 284 283 45
3 282 283 284
3 55 285 287
3 287 286 21
3 285 286 287
3 289 288 55
3 78 56 5
3 101 56 78
3 101 290 292
3 292 291 56
3 290 291 292
3 58 101 14
3 102 101 58
3 102 293 295
3 295 294 101
3 293 294 295
3 102 296 297
3 103 298 300
3 300 299 102
3 298 299 300
3 103 301 302
3 103 303 304
3 306 305 103
3 60 307 309
3 309 308 24
3 307 308 309
3 311 310 60
3 104 312 313
3 104 314 316
3 314 315 316
3 104 317 318
3 105 319 321
3 321 320 104
3 319 320 321
3 105 322 323
3 62 105 25
3 106 105 62
3 106 324 326
3 326 325 105
3 324 325 326
3 106 327 328
3 107 329 331
3 331 330 106
3 329 330 331
3 107 332 333
3 82 63 6
3 108 63 82
3 108 26 63
3 65 108 16
3 109 108 65
3 109 26 108
3 109 107 26
3 110 107 109
3 110 334 336
3 336 335 107
3 334 335 336
3 110 337 339
3 337 66 338
3 337 338 339
3 111 66 110
3 111 340 342
3 342 341 66
3 340 341 342
3 343 111 344
3 345 344 27
3 343 344 345
3 346 111 347
3 350 349 111
3 348 349 350
