ply
format ascii 1.0
element vertex 209
property float x
property float y
property float z
element face 201
property list uchar int vertex_index
end_header
32.113571 -17.100584 -59.008057
30.892057 -34.223248 -52.399582
24.8403 -29.120569 -57.009975
25.727671 -12.853556 -63.383682
33.436302 -36.449947 -49.348881
21.786877 -26.258224 -58.631618
28.830105 -14.950172 -61.546738
31.740557 -25.922327 -55.593208
27.999498 -31.772766 -54.93578
28.707493 -23.474199 -58.148159
25.632677 -20.553526 -60.325909
22.468559 -18.006666 -61.901386
22.292202 -10.866738 -64.822174
24.713245 -5.416555 -66.441727
30.490187 -16.137774 -60.317783
32.23307 -35.250206 -50.98349
33.975307 -32.134979 -51.063679
32.778732 -31.031019 -52.596134
33.123787 -27.048977 -54.16663
31.332939 -29.892118 -54.095356
25.863834 -34.951981 -54.377789
26.374949 -30.526773 -56.027863
28.379372 -27.481709 -56.598316
26.784445 -26.289219 -57.654633
27.158607 -21.931217 -59.342041
25.405973 -24.779827 -58.650532
20.240353 -24.694677 -59.335796
22.19533 -21.965256 -60.320168
20.625593 -20.488239 -61.016075
20.941641 -16.703972 -62.554642
27.116428 -9.888318 -64.104568
26.492752 -6.049039 -65.697884
25.306492 -9.116512 -64.932793
23.523939 -8.176571 -65.680847
23.929554 -11.928989 -64.143974
31.615898 -39.444412 -49.350616
30.186077 -38.551544 -50.804634
23.328238 -27.984489 -57.757011
28.669271 -11.076525 -63.078331
27.280945 -13.743756 -62.584877
33.352913 -22.880184 -55.808857
31.946968 -21.492786 -57.343552
28.772173 -37.487926 -52.105415
27.385489 -36.101147 -53.348068
29.460598 -33.240383 -53.646049
29.870333 -28.858303 -55.350533
30.336588 -24.515476 -56.97345
30.498053 -20.357914 -58.623478
28.895578 -19.244892 -59.8134
27.292568 -17.769354 -60.991299
25.783278 -16.625029 -61.874847
23.7742 -23.605106 -59.45351
24.096712 -19.255665 -61.16785
24.212074 -15.46303 -62.67749
22.513399 -14.430454 -63.355141
20.988541 -13.112321 -64.03154
32.011562 -15.038391 -59.854473
32.782232 -15.552889 -59.123618
31.301879 -16.619179 -59.66292
31.19987 -14.556987 -60.509337
32.011562 -15.038391 -59.854473
25.607625 -29.823671 -56.518919
25.3042 -32.074294 -55.688143
24.536875 -31.371192 -56.179199
19.763846 -21.641015 -60.548338
20.432973 -22.591458 -60.175936
19.571227 -23.744234 -59.708199
19.924565 -19.638172 -61.360861
19.763846 -21.641015 -60.548338
30.559092 -41.040388 -49.300375
31.187794 -41.533645 -48.583155
29.844181 -40.593954 -50.027384
30.900987 -38.997978 -50.077625
30.559092 -41.040388 -49.300375
28.749688 -13.013348 -62.312534
29.495579 -11.486028 -62.54306
29.575997 -13.422852 -61.777264
34.249874 -34.744062 -49.411686
33.980856 -36.794954 -48.581721
34.74681 -30.528782 -51.071321
34.178754 -29.957107 -51.927341
27.685313 -38.986477 -51.950599
28.37034 -39.659982 -51.323864
20.241784 -14.219065 -63.586344
20.965091 -14.908147 -63.293091
20.218333 -16.01489 -62.847895
20.288035 -12.480856 -64.311608
20.241784 -14.219065 -63.586344
25.244496 -3.964477 -66.778732
26.134249 -4.280719 -66.406811
25.602998 -5.732797 -66.069806
24.28987 -3.655745 -67.14225
25.244496 -3.964477 -66.778732
23.791605 -5.135075 -66.734783
24.28987 -3.655745 -67.14225
22.094421 -9.219307 -65.490868
22.71029 -7.874223 -65.920204
22.908071 -9.521655 -65.25151
21.559025 -10.360087 -65.096153
22.094421 -9.219307 -65.490868
30.406038 -14.016653 -61.162786
31.19987 -14.556987 -60.509337
29.660146 -15.543973 -60.93226
29.575997 -13.422852 -61.777264
30.406038 -14.016653 -61.162786
33.580467 -29.405127 -52.693569
34.178754 -29.957107 -51.927341
33.37702 -31.582999 -51.829906
32.951259 -29.039998 -53.381382
33.752994 -27.414105 -53.478817
33.580467 -29.405127 -52.693569
25.048642 -34.286898 -54.863106
24.724792 -36.441114 -54.094801
26.119391 -32.739377 -55.202826
25.048642 -34.286898 -54.863106
25.3042 -32.074294 -55.688143
20.082589 -17.746039 -62.130145
20.783617 -18.596106 -61.785359
19.924565 -19.638172 -61.360861
19.359282 -17.056957 -62.423398
20.218333 -16.01489 -62.847895
20.082589 -17.746039 -62.130145
26.80459 -7.968678 -64.901226
27.39069 -6.540005 -65.187618
27.702528 -8.459644 -64.390961
33.100943 -38.494623 -48.550344
33.980856 -36.794954 -48.581721
32.190741 -39.991855 -48.551212
31.187794 -41.533645 -48.583155
32.5261 -37.94718 -49.349749
33.100943 -38.494623 -48.550344
32.190741 -39.991855 -48.551212
23.814265 -30.578757 -56.627251
24.536875 -31.371192 -56.179199
23.058234 -30.010717 -57.000768
24.084269 -28.552529 -57.383493
23.814265 -30.578757 -56.627251
22.269042 -29.335145 -57.356318
23.058234 -30.010717 -57.000768
21.498362 -28.472013 -57.793621
22.557558 -27.121356 -58.194315
22.269042 -29.335145 -57.356318
20.793071 -27.649534 -58.141801
21.498362 -28.472013 -57.793621
20.019809 -26.86776 -58.493891
21.013615 -25.47645 -58.983707
20.793071 -27.649534 -58.141801
19.270164 -25.842831 -58.875845
20.019809 -26.86776 -58.493891
19.571227 -23.744234 -59.708199
19.270164 -25.842831 -58.875845
29.291694 -9.507442 -63.342605
29.495579 -11.486028 -62.54306
28.478949 -9.053748 -63.877842
29.291694 -9.507442 -63.342605
27.892849 -10.482422 -63.591449
27.702528 -8.459644 -64.390961
28.478949 -9.053748 -63.877842
32.814691 -17.836296 -58.230271
32.782232 -15.552889 -59.123618
34.519376 -32.586578 -50.269085
34.249874 -34.744062 -49.411686
33.705804 -34.292463 -50.20628
34.519376 -32.586578 -50.269085
34.74681 -30.528782 -51.071321
33.89545 -25.385779 -54.265322
33.752994 -27.414105 -53.478817
34.010013 -23.301383 -55.086436
33.89545 -25.385779 -54.265322
33.23835 -24.964581 -54.987744
34.105259 -21.15694 -55.897496
34.010013 -23.301383 -55.086436
33.434362 -20.726096 -56.630671
34.105259 -21.15694 -55.897496
32.73139 -20.032397 -57.398018
33.434362 -20.726096 -56.630671
32.64994 -22.186485 -56.576205
32.03027 -19.296685 -58.175804
32.814691 -17.836296 -58.230271
32.73139 -20.032397 -57.398018
29.077292 -40.191792 -50.673474
29.844181 -40.593954 -50.027384
29.479125 -38.019735 -51.455025
29.077292 -40.191792 -50.673474
28.37034 -39.659982 -51.323864
25.492373 -37.200592 -53.578434
24.724792 -36.441114 -54.094801
26.253201 -37.775175 -53.063574
25.492373 -37.200592 -53.578434
26.624662 -35.526564 -53.862928
26.991971 -38.293087 -52.571926
26.253201 -37.775175 -53.063574
28.078831 -36.794536 -52.726742
27.685313 -38.986477 -51.950599
26.991971 -38.293087 -52.571926
20.907195 -11.482878 -64.700836
21.559025 -10.360087 -65.096153
21.640372 -11.989529 -64.426857
20.907195 -11.482878 -64.700836
20.288035 -12.480856 -64.311608
27.065611 -4.633029 -65.953156
27.39069 -6.540005 -65.187618
27.065611 -4.633029 -65.953156
26.134249 -4.280719 -66.406811
23.196952 -6.515083 -66.354343
23.791605 -5.135075 -66.734783
24.118592 -6.796563 -66.061287
23.196952 -6.515083 -66.354343
22.71029 -7.874223 -65.920204
3 0 56 57
3 0 58 60
3 58 14 59
3 58 59 60
3 1 17 15
3 1 19 17
3 2 61 63
3 61 21 62
3 61 62 63
3 2 23 21
3 2 25 23
3 64 28 65
3 66 65 26
3 64 65 66
3 68 67 28
3 3 32 30
3 3 34 32
3 69 35 70
3 71 36 72
3 73 72 35
3 71 72 73
3 6 74 76
3 74 38 75
3 74 75 76
3 6 39 38
3 4 77 78
3 80 79 16
3 7 40 18
3 7 41 40
3 81 42 82
3 8 43 20
3 8 44 43
3 8 45 44
3 9 46 22
3 9 47 46
3 9 48 47
3 10 49 24
3 10 50 49
3 5 51 37
3 11 52 27
3 11 53 52
3 11 54 53
3 83 55 84
3 85 84 29
3 83 84 85
3 87 86 55
3 13 88 90
3 90 89 31
3 88 89 90
3 13 91 92
3 13 93 94
3 12 95 97
3 97 96 33
3 95 96 97
3 12 98 99
3 14 100 101
3 14 102 104
3 102 6 103
3 102 103 104
3 15 16 4
3 17 16 15
3 17 105 107
3 107 106 16
3 105 106 107
3 17 108 110
3 108 18 109
3 108 109 110
3 19 18 17
3 19 7 18
3 111 20 112
3 21 113 115
3 113 20 114
3 113 114 115
3 21 8 20
3 21 22 8
3 23 22 21
3 23 9 22
3 23 24 9
3 25 24 23
3 25 10 24
3 26 27 5
3 28 27 26
3 28 11 27
3 28 29 11
3 116 29 117
3 118 117 28
3 116 117 118
3 121 120 29
3 119 120 121
3 30 122 124
3 122 31 123
3 122 123 124
3 32 31 30
3 32 13 31
3 32 33 13
3 34 33 32
3 34 12 33
3 125 4 126
3 35 127 128
3 35 129 131
3 129 4 130
3 129 130 131
3 35 15 4
3 36 15 35
3 36 1 15
3 132 2 133
3 134 37 135
3 136 135 2
3 134 135 136
3 137 37 138
3 139 5 140
3 141 140 37
3 139 140 141
3 142 5 143
3 144 26 145
3 146 145 5
3 144 145 146
3 147 26 148
3 150 149 26
3 38 151 152
3 38 153 154
3 38 155 157
3 155 30 156
3 155 156 157
3 39 30 38
3 39 3 30
3 158 0 159
3 16 160 162
3 162 161 4
3 160 161 162
3 164 163 16
3 18 165 166
3 40 167 169
3 169 168 18
3 167 168 169
3 40 170 171
3 40 172 173
3 41 174 176
3 176 175 40
3 174 175 176
3 41 177 179
3 177 0 178
3 177 178 179
3 180 36 181
3 42 182 184
3 182 36 183
3 182 183 184
3 42 1 36
3 20 185 186
3 43 187 189
3 189 188 20
3 187 188 189
3 43 190 191
3 43 192 194
3 192 42 193
3 192 193 194
3 44 42 43
3 44 1 42
3 44 19 1
3 45 19 44
3 45 7 19
3 22 45 8
3 46 45 22
3 46 7 45
3 46 41 7
3 47 41 46
3 47 0 41
3 47 14 0
3 48 14 47
3 48 6 14
3 24 48 9
3 49 48 24
3 49 6 48
3 49 39 6
3 50 39 49
3 50 3 39
3 37 25 2
3 51 25 37
3 51 10 25
3 27 51 5
3 52 51 27
3 52 10 51
3 52 50 10
3 53 50 52
3 53 3 50
3 53 34 3
3 54 34 53
3 54 12 34
3 29 54 11
3 55 54 29
3 55 12 54
3 55 195 197
3 197 196 12
3 195 196 197
3 199 198 55
3 31 200 201
3 203 202 31
3 33 204 206
3 206 205 13
3 204 205 206
3 208 207 33
