ply
format ascii 1.0
element vertex 415
property float x
property float y
property float z
element face 414
property list uchar int vertex_index
end_header
-28.742483 12.808147 65.571426
-30.656849 24.493891 50.13282
-26.8092 28.706676 62.751804
-30.111877 18.899385 58.528404
-23.032637 20.839115 67.010742
-30.634657 12.808062 43.459309
-31.144028 29.094894 41.355465
-28.254675 32.235188 59.42252
-20.677481 16.745291 68.074921
-32.094318 25.579681 34.408314
-30.435877 21.599525 54.40723
-30.584015 13.539269 55.180496
-30.634993 16.053267 50.963768
-30.713326 18.484617 46.860271
-30.919729 20.844721 42.795479
-30.868536 26.910898 45.606598
-27.818758 20.995192 64.254913
-29.624043 15.83742 62.232548
-28.928707 24.254465 60.99065
-29.662609 27.490694 57.336735
-30.256214 29.94453 53.090378
-27.421881 9.267535 68.337631
-24.295086 13.452297 68.82756
-26.265545 17.426313 66.895538
-25.069794 25.129332 65.169983
-30.503336 10.697985 59.105877
-31.030048 15.023879 39.612534
-31.375313 23.199833 38.564407
-31.591516 31.403679 37.03791
-30.940042 35.093159 44.132442
-29.190456 8.657059 66.069366
-29.601357 10.292019 64.460266
-30.555864 22.977522 52.229198
-30.583817 18.851984 52.806202
-30.65312 20.423454 50.605385
-30.667479 17.356045 49.003239
-30.720417 21.461073 48.452282
-30.796551 22.771416 46.379276
-30.756783 25.594091 47.979691
-27.329882 24.7106 63.584084
-28.429171 22.588186 62.712048
-27.923254 26.650629 62.090065
-28.806341 34.009476 57.535492
-29.057901 29.954029 58.454933
-29.513039 31.447113 56.39101
-29.990652 28.583256 55.315571
-21.936136 18.631063 67.674713
-22.592838 15.129053 68.602928
-23.670839 17.215204 67.946899
-25.361248 15.26688 67.999481
-24.749922 18.934748 67.195312
-25.608438 21.203568 66.14003
-24.065552 23.018185 66.185669
-29.868961 17.674191 60.44244
-30.161367 13.441553 60.742447
-30.313368 14.982617 58.825211
-30.545084 11.627074 45.378468
-30.455082 8.610208 43.695766
-30.796247 13.972543 41.51749
-31.046383 24.848791 42.076183
-31.111485 22.060658 40.704006
-31.250948 26.045889 39.917747
-31.509932 27.340841 37.797642
-31.348755 30.153255 39.154491
-27.570763 30.597845 61.157986
-17.626694 16.107304 67.517975
-19.433765 14.838328 68.339394
-18.893848 18.374331 67.289711
-31.926065 21.50906 35.219501
-30.287695 20.326342 56.51627
-30.425961 16.349382 56.880009
-30.51553 17.570011 54.827126
-30.610811 14.820287 52.98037
-30.601645 11.91503 51.289162
-30.602978 13.307295 49.202785
-30.624218 14.588508 47.201378
-30.681889 15.661364 45.000202
-30.793879 16.721907 42.998245
-30.798588 19.813662 44.770573
-30.897379 23.833021 44.286518
-30.988056 27.832216 43.474571
-15.633735 17.190786 66.483658
-28.299284 16.977804 64.92495
-29.206701 14.665738 63.929466
-28.830334 18.455072 63.406452
-29.237345 20.108215 61.76704
-29.606712 21.738146 59.875584
-28.552038 28.164373 60.374592
-29.364872 25.710144 59.160641
-29.914381 23.154305 57.885376
-30.152021 24.458954 55.88179
-30.339384 25.803164 53.858524
-30.509781 27.291912 51.639496
-30.661253 28.469574 49.408218
-28.614594 7.125714 67.561981
-28.148163 11.052539 67.04287
-21.357559 13.239799 69.039444
-23.230408 11.544149 69.46624
-24.933817 9.740392 69.598648
-25.950855 11.502385 68.742981
-26.870886 13.32305 67.660011
-27.610685 15.319304 66.376869
-27.11569 19.184544 65.66256
-26.573639 22.858297 64.959122
-26.011032 26.875502 64.056641
-29.919748 11.92074 62.672573
-30.54879 12.200262 57.242565
-31.334286 16.04488 37.776043
-30.977898 18.124397 41.061596
-31.215443 19.151419 39.165947
-31.547438 20.14679 37.111942
-31.700987 24.276085 36.486202
-31.809629 28.477978 35.766239
-31.894363 32.796921 34.808094
-30.784374 29.663124 47.270302
-30.906649 31.066296 45.05658
-31.040424 31.962505 42.87785
-31.399281 34.236263 38.425388
-31.635096 35.365059 36.199364
-29.392742 33.543323 55.988813
-29.15969 32.728295 56.963251
-29.039393 34.824505 56.561054
-29.683376 32.153958 55.396656
-29.392742 33.543323 55.988813
-30.619991 11.405579 42.640669
-30.530203 9.306652 42.758898
-30.54487 10.709135 43.577537
-30.715452 13.390303 42.488399
-30.700786 11.987819 41.669759
-30.619991 11.405579 42.640669
-17.948335 18.809726 66.874393
-18.260271 17.240817 67.403843
-17.314758 17.676212 66.988526
-32.238718 24.06762 33.823332
-32.154592 22.03231 34.228926
-32.010192 23.54437 34.813907
-15.040287 16.23777 66.476642
-16.017948 15.631727 67.044915
-30.36437 30.681553 51.949494
-30.491154 29.355244 51.224052
-30.382998 28.618221 52.364937
-28.018237 8.196625 67.949806
-28.20606 6.384899 68.256218
-27.609703 7.45581 68.644043
-30.45154 9.916768 60.128395
-30.280555 11.288553 60.94668
-30.332352 12.069769 59.924162
-30.57563 8.620646 59.334772
-30.45154 9.916768 60.128395
-31.086281 13.621148 38.852868
-30.928173 12.986273 39.760454
-31.182167 15.53438 38.694288
-31.238399 14.131649 37.934622
-31.086281 13.621148 38.852868
-30.713007 31.19657 47.984167
-30.722814 29.066349 48.33926
-30.651446 30.599795 49.053125
-30.923345 33.079728 44.594511
-30.849484 32.545645 45.763645
-30.86618 34.559077 45.301576
-31.330649 35.738943 38.960901
-31.302467 33.741378 39.51424
-31.658911 37.4587 35.543919
-31.548401 36.871027 36.671171
-31.786413 35.971049 35.007134
-31.658911 37.4587 35.543919
-32.311008 26.151879 33.40395
-32.137072 27.557355 34.040781
-29.550414 7.55191 65.478931
-29.365382 6.714562 66.303714
-29.755865 8.36939 64.674381
-29.550414 7.55191 65.478931
-29.395907 9.474539 65.264816
-29.894979 9.16802 63.767233
-29.755865 8.36939 64.674381
-29.922182 30.722029 54.858936
-29.751846 30.015185 55.85329
-29.683376 32.153958 55.396656
-30.054963 31.402666 53.74634
-30.123433 29.263893 54.202974
-29.922182 30.722029 54.858936
-30.2125 32.046333 52.648846
-30.054963 31.402666 53.74634
-26.935032 8.651637 68.854656
-27.609703 7.45581 68.644043
-30.612196 11.442032 55.317487
-30.601237 12.136214 54.30549
-30.467197 9.535217 45.595976
-30.52988 11.050926 46.437416
-30.422196 8.026784 44.754625
-30.467197 9.535217 45.595976
-30.500083 10.118641 44.537117
-30.356897 6.598276 43.894947
-30.324011 6.014852 44.953806
-30.422196 8.026784 44.754625
-30.412706 7.134391 42.922455
-30.356897 6.598276 43.894947
-30.412706 7.134391 42.922455
-30.530203 9.306652 42.758898
-30.811273 12.460605 40.712933
-30.700786 11.987819 41.669759
-30.913148 14.498211 40.565012
-30.928173 12.986273 39.760454
-30.811273 12.460605 40.712933
-30.868127 36.567161 44.788726
-30.86618 34.559077 45.301576
-26.963653 31.714825 61.41606
-27.189982 29.652261 61.954895
-26.582872 30.769241 62.212969
-27.392908 32.691651 60.598101
-26.963653 31.714825 61.41606
-27.734865 33.510323 59.730368
-27.912719 31.416517 60.290253
-27.392908 32.691651 60.598101
-28.079169 34.417847 58.878631
-27.734865 33.510323 59.730368
-28.355002 35.304991 57.935118
-28.530508 33.122332 58.479006
-28.079169 34.417847 58.878631
-28.670917 36.038752 57.046397
-28.355002 35.304991 57.935118
-29.039393 34.824505 56.561054
-28.670917 36.038752 57.046397
-18.53023 15.472816 67.928685
-18.853099 13.82035 68.442612
-17.949563 14.454838 68.031903
-18.489171 20.001301 66.720169
-17.948335 18.809726 66.874393
-19.490454 19.348552 67.151222
-18.489171 20.001301 66.720169
-20.38227 18.534032 67.543827
-19.785664 17.559811 67.682316
-19.490454 19.348552 67.151222
-21.011598 19.476918 67.343723
-21.306809 17.688177 67.874817
-20.38227 18.534032 67.543827
-21.579766 20.531256 67.118649
-21.011598 19.476918 67.343723
-22.128017 21.635281 66.786663
-22.484386 19.735089 67.342727
-21.579766 20.531256 67.118649
-22.676346 22.784921 66.460895
-22.128017 21.635281 66.786663
-32.07562 19.979307 34.520938
-31.836291 19.440244 35.506956
-32.304146 20.502556 33.530363
-32.07562 19.979307 34.520938
-32.154592 22.03231 34.228926
-32.238718 24.06762 33.823332
-32.311008 26.151879 33.40395
-30.614635 12.776722 53.205427
-30.601237 12.136214 54.30549
-30.597413 14.179778 54.080433
-30.610053 11.324094 52.359823
-30.614635 12.776722 53.205427
-30.606228 13.367659 52.134766
-30.579816 9.865326 51.427098
-30.610053 11.324094 52.359823
-30.561712 10.556896 50.386022
-30.579816 9.865326 51.427098
-30.562378 11.253028 49.342834
-30.561712 10.556896 50.386022
-30.602311 12.611162 50.245973
-30.558827 11.891037 48.349575
-30.562378 11.253028 49.342834
-30.569447 12.531643 47.348872
-30.558827 11.891037 48.349575
-30.613598 13.947902 48.202081
-30.584651 13.107791 46.289923
-30.52988 11.050926 46.437416
-30.569447 12.531643 47.348872
-17.014428 15.089986 67.562073
-17.949563 14.454838 68.031903
-17.337297 13.43752 68.076
-16.630215 16.649045 67.000817
-17.014428 15.089986 67.562073
-16.017948 15.631727 67.044915
-16.318279 18.217954 66.471367
-17.314758 17.676212 66.988526
-16.630215 16.649045 67.000817
-14.698712 17.808916 65.882035
-15.040287 16.23777 66.476642
-15.339004 18.800458 65.901505
-14.698712 17.808916 65.882035
-16.318279 18.217954 66.471367
-15.339004 18.800458 65.901505
-30.56689 29.944074 50.108413
-30.585517 27.880743 50.523857
-30.491154 29.355244 51.224052
-30.651446 30.599795 49.053125
-30.56689 29.944074 50.108413
-30.36437 30.681553 51.949494
-30.2125 32.046333 52.648846
-28.775884 5.380605 67.808926
-28.20606 6.384899 68.256218
-29.077451 5.948889 67.050022
-28.775884 5.380605 67.808926
-28.902525 7.891387 66.815674
-29.365382 6.714562 66.303714
-29.077451 5.948889 67.050022
-19.767984 13.096627 68.829273
-18.853099 13.82035 68.442612
-20.729881 12.297363 69.179299
-19.767984 13.096627 68.829273
-20.395662 14.039064 68.689419
-21.661066 11.513039 69.470684
-20.729881 12.297363 69.179299
-22.59749 10.665215 69.684082
-21.661066 11.513039 69.470684
-22.293983 12.391974 69.252842
-23.500723 9.89671 69.829532
-22.59749 10.665215 69.684082
-24.352428 8.994832 69.895736
-23.500723 9.89671 69.829532
-24.082113 10.642271 69.532444
-25.192495 7.999888 69.926048
-24.352428 8.994832 69.895736
-25.691 8.888065 69.485164
-25.949677 7.147562 69.812565
-25.192495 7.999888 69.926048
-26.199519 9.769062 69.057331
-25.691 8.888065 69.485164
-25.442336 10.621389 69.170815
-26.686368 10.38496 68.540306
-26.935032 8.651637 68.854656
-26.199519 9.769062 69.057331
-23.192804 23.874457 66.048359
-23.549095 21.92865 66.598206
-22.676346 22.784921 66.460895
-23.711087 24.97949 65.653393
-23.192804 23.874457 66.048359
-24.213208 26.035064 65.14555
-24.567673 24.073759 65.677826
-23.711087 24.97949 65.653393
-24.77902 27.037936 64.66592
-24.213208 26.035064 65.14555
-25.249638 27.91102 64.10925
-25.540413 26.002417 64.613312
-24.77902 27.037936 64.66592
-25.716934 28.901375 63.547047
-25.249638 27.91102 64.10925
-26.116018 29.816962 62.894628
-26.410116 27.791089 63.404223
-25.716934 28.901375 63.547047
-26.582872 30.769241 62.212969
-26.116018 29.816962 62.894628
-30.054175 9.982381 62.873386
-29.894979 9.16802 63.767233
-29.760552 11.106379 63.56642
-30.159746 10.528146 61.911743
-30.040557 12.681147 61.70751
-30.280555 11.288553 60.94668
-30.054175 9.982381 62.873386
-30.159746 10.528146 61.911743
-30.594583 10.772528 56.348522
-30.566403 12.869765 56.21153
-30.612196 11.442032 55.317487
-30.604226 10.02096 57.419132
-30.594583 10.772528 56.348522
-30.581499 9.269821 58.350788
-30.526063 11.449123 58.174221
-30.604226 10.02096 57.419132
-30.57563 8.620646 59.334772
-30.581499 9.269821 58.350788
-31.435395 14.596782 36.990092
-31.238399 14.131649 37.934622
-31.540402 16.708154 36.785227
-31.435395 14.596782 36.990092
-31.646977 18.759109 36.453176
-31.540402 16.708154 36.785227
-31.440862 18.095835 37.443993
-31.736752 20.827925 36.165722
-31.836291 19.440244 35.506956
-31.646977 18.759109 36.453176
-31.994727 29.006503 34.719743
-32.137072 27.557355 34.040781
-31.951974 27.02883 35.087277
-32.037094 31.165974 34.240671
-31.994727 29.006503 34.719743
-31.851996 30.637449 35.287166
-32.070865 33.316206 33.721742
-32.037094 31.165974 34.240671
-30.788346 31.844059 46.870507
-30.713007 31.19657 47.984167
-30.845512 30.36471 46.163441
-30.788346 31.844059 46.870507
-30.849484 32.545645 45.763645
-30.948662 37.13063 43.607298
-30.868127 36.567161 44.788726
-31.012197 35.639461 43.018304
-30.948662 37.13063 43.607298
-31.062388 34.074134 42.391008
-30.990233 33.527832 43.505146
-31.012197 35.639461 43.018304
-31.123039 32.6045 41.740471
-31.062388 34.074134 42.391008
-31.174841 31.170694 40.979278
-31.092226 30.5287 42.116658
-31.123039 32.6045 41.740471
-31.277204 31.699874 39.878791
-31.246392 29.624074 40.254978
-31.174841 31.170694 40.979278
-31.374018 32.194759 38.78994
-31.277204 31.699874 39.878791
-31.302467 33.741378 39.51424
-31.430493 36.306629 37.784183
-31.330649 35.738943 38.960901
-31.517188 34.800661 37.312376
-31.430493 36.306629 37.784183
-31.548401 36.871027 36.671171
-31.916046 34.686979 34.311498
-31.76473 34.08099 35.503729
-31.786413 35.971049 35.007134
-32.070865 33.316206 33.721742
-31.916046 34.686979 34.311498
3 0 31 30
3 1 34 32
3 1 36 34
3 1 38 36
3 2 41 39
3 119 44 120
3 121 120 42
3 119 120 121
3 123 122 44
3 4 48 46
3 4 50 48
3 4 52 50
3 3 55 53
3 5 57 56
3 5 124 126
3 126 125 57
3 124 125 126
3 5 127 129
3 127 58 128
3 127 128 129
3 6 61 59
3 6 63 61
3 130 67 131
3 132 131 65
3 130 131 132
3 9 133 135
3 135 134 68
3 133 134 135
3 10 71 69
3 12 72 33
3 12 73 72
3 12 74 73
3 13 75 35
3 13 76 75
3 13 78 76
3 15 79 37
3 15 80 79
3 136 81 137
3 16 84 82
3 18 85 40
3 18 86 85
3 7 87 64
3 19 88 43
3 19 89 88
3 19 90 89
3 20 91 45
3 20 92 91
3 20 138 140
3 140 139 92
3 138 139 140
3 21 141 143
3 141 94 142
3 141 142 143
3 21 95 94
3 8 96 66
3 22 97 47
3 22 98 97
3 22 99 98
3 23 100 49
3 23 101 100
3 23 102 101
3 24 103 51
3 24 104 103
3 17 105 83
3 25 144 146
3 146 145 54
3 144 145 146
3 25 147 148
3 11 106 70
3 26 149 150
3 26 151 153
3 151 107 152
3 151 152 153
3 14 108 77
3 27 109 60
3 27 110 109
3 27 111 110
3 28 112 62
3 28 113 112
3 154 114 155
3 156 155 93
3 154 155 156
3 29 157 159
3 157 115 158
3 157 158 159
3 29 116 115
3 160 117 161
3 162 118 163
3 165 164 118
3 167 166 9
3 30 168 169
3 31 170 172
3 172 171 30
3 170 171 172
3 31 173 174
3 32 33 10
3 34 33 32
3 34 12 33
3 34 35 12
3 36 35 34
3 36 13 35
3 36 37 13
3 38 37 36
3 38 15 37
3 39 40 16
3 41 40 39
3 41 18 40
3 42 43 7
3 44 43 42
3 44 19 43
3 44 45 19
3 175 45 176
3 177 176 44
3 175 176 177
3 178 20 179
3 180 179 45
3 178 179 180
3 182 181 20
3 183 21 184
3 46 47 8
3 48 47 46
3 48 22 47
3 48 49 22
3 50 49 48
3 50 23 49
3 50 51 23
3 52 51 50
3 52 24 51
3 53 54 17
3 55 54 53
3 55 25 54
3 186 185 11
3 56 187 188
3 57 189 191
3 191 190 56
3 189 190 191
3 57 192 194
3 192 193 194
3 57 195 196
3 198 197 57
3 58 199 200
3 58 201 203
3 201 26 202
3 201 202 203
3 59 60 14
3 61 60 59
3 61 27 60
3 61 62 27
3 63 62 61
3 63 28 62
3 204 29 205
3 206 64 207
3 208 207 2
3 206 207 208
3 209 64 210
3 211 7 212
3 213 212 64
3 211 212 213
3 214 7 215
3 216 42 217
3 218 217 7
3 216 217 218
3 219 42 220
3 222 221 42
3 65 223 225
3 223 66 224
3 223 224 225
3 67 66 65
3 67 8 66
3 226 67 227
3 228 67 229
3 230 8 231
3 232 231 67
3 230 231 232
3 233 46 234
3 235 234 8
3 233 234 235
3 236 46 237
3 238 4 239
3 240 239 46
3 238 239 240
3 242 241 4
3 68 243 244
3 247 246 68
3 245 246 247
3 249 248 9
3 69 70 3
3 71 70 69
3 71 11 70
3 33 71 10
3 72 71 33
3 72 11 71
3 72 250 252
3 252 251 11
3 250 251 252
3 73 253 255
3 255 254 72
3 253 254 255
3 73 256 257
3 73 258 259
3 74 260 262
3 262 261 73
3 260 261 262
3 74 263 264
3 35 74 12
3 75 74 35
3 75 265 267
3 267 266 74
3 265 266 267
3 75 268 270
3 268 56 269
3 268 269 270
3 76 56 75
3 76 5 56
3 76 77 5
3 78 77 76
3 78 14 77
3 37 78 13
3 79 78 37
3 79 14 78
3 79 59 14
3 80 59 79
3 80 6 59
3 271 65 272
3 271 272 273
3 81 274 276
3 274 65 275
3 274 275 276
3 81 277 279
3 279 278 65
3 277 278 279
3 280 81 281
3 282 81 283
3 285 284 81
3 82 83 0
3 84 83 82
3 84 17 83
3 40 84 16
3 85 84 40
3 85 17 84
3 85 53 17
3 86 53 85
3 86 3 53
3 64 41 2
3 87 41 64
3 87 18 41
3 43 87 7
3 88 87 43
3 88 18 87
3 88 86 18
3 89 86 88
3 89 3 86
3 89 69 3
3 90 69 89
3 90 10 69
3 45 90 19
3 91 90 45
3 91 10 90
3 91 32 10
3 92 32 91
3 92 1 32
3 92 93 1
3 286 93 287
3 288 287 92
3 286 287 288
3 290 289 93
3 292 291 20
3 94 293 294
3 94 295 296
3 94 297 299
3 297 30 298
3 297 298 299
3 95 30 94
3 95 0 30
3 66 300 301
3 96 302 304
3 304 303 66
3 302 303 304
3 96 305 306
3 47 96 8
3 97 96 47
3 97 307 309
3 309 308 96
3 307 308 309
3 97 310 311
3 98 312 314
3 314 313 97
3 312 313 314
3 98 315 316
3 98 317 319
3 317 318 319
3 99 320 322
3 322 321 98
3 320 321 322
3 99 323 325
3 323 21 324
3 323 324 325
3 49 99 22
3 100 99 49
3 100 21 99
3 100 95 21
3 101 95 100
3 101 0 95
3 101 82 0
3 102 82 101
3 102 16 82
3 51 102 23
3 103 102 51
3 103 16 102
3 103 39 16
3 104 39 103
3 104 2 39
3 326 52 327
3 328 327 4
3 326 327 328
3 329 52 330
3 331 24 332
3 333 332 52
3 331 332 333
3 334 24 335
3 336 104 337
3 338 337 24
3 336 337 338
3 339 104 340
3 341 2 342
3 343 342 104
3 341 342 343
3 345 344 2
3 83 31 0
3 105 31 83
3 105 346 348
3 348 347 31
3 346 347 348
3 54 105 17
3 349 105 350
3 351 350 54
3 349 350 351
3 353 352 105
3 70 55 3
3 106 55 70
3 106 25 55
3 354 106 355
3 356 355 11
3 354 355 356
3 357 106 358
3 359 25 360
3 361 360 106
3 359 360 361
3 363 362 25
3 107 364 365
3 107 366 367
3 77 58 5
3 108 58 77
3 108 26 58
3 60 108 14
3 109 108 60
3 109 26 108
3 109 107 26
3 110 107 109
3 110 368 370
3 370 369 107
3 368 369 370
3 110 371 373
3 371 68 372
3 371 372 373
3 111 68 110
3 111 9 68
3 62 111 27
3 112 111 62
3 112 9 111
3 112 374 376
3 376 375 9
3 374 375 376
3 113 377 379
3 379 378 112
3 377 378 379
3 113 380 381
3 93 38 1
3 114 38 93
3 114 15 38
3 382 114 383
3 115 384 386
3 384 114 385
3 384 385 386
3 115 15 114
3 115 80 15
3 116 80 115
3 116 6 80
3 387 29 388
3 389 29 390
3 391 116 392
3 393 392 29
3 391 392 393
3 394 116 395
3 396 6 397
3 398 397 116
3 396 397 398
3 399 63 400
3 401 400 6
3 399 400 401
3 117 402 404
3 402 63 403
3 402 403 404
3 117 28 63
3 405 117 406
3 118 407 409
3 407 117 408
3 407 408 409
3 118 28 117
3 118 113 28
3 410 113 411
3 412 411 118
3 410 411 412
3 414 413 113
