ply
format ascii 1.0
element vertex 342
property float x
property float y
property float z
element face 354
property list uchar int vertex_index
end_header
29.962217 -49.84206 21.24852
29.449387 -51.87326 30.476013
28.832853 -61.562199 21.985123
28.99247 -41.623077 38.32671
30.024235 -39.170727 29.212198
30.491474 -47.552307 12.481263
28.862461 -62.504292 26.923777
29.047289 -47.425385 39.422401
29.683399 -50.743874 25.948944
29.687832 -45.75098 29.853443
30.184023 -44.451435 25.467609
30.823721 -38.050327 25.044739
30.77067 -43.54174 21.153297
30.244839 -48.768814 16.806322
29.228529 -52.733189 35.461353
29.167225 -57.76825 31.349592
29.288984 -56.790134 26.33618
29.358988 -55.617332 21.688475
29.308638 -54.865383 16.917946
28.928911 -35.113022 37.12141
29.340067 -46.703018 34.52507
29.403755 -40.554119 33.732967
29.553211 -33.918148 32.930855
30.454733 -32.463753 28.858503
30.581156 -46.507332 8.186147
29.237944 -53.664684 12.520768
29.035364 -52.621403 8.068676
28.746891 -51.545658 3.780754
28.902555 -47.878902 41.814308
29.815454 -50.317436 23.661207
29.916348 -47.647503 25.656612
30.120344 -47.270515 23.364979
30.460201 -44.021912 23.363882
30.342113 -46.81274 21.08836
30.591879 -46.086811 18.959633
30.107998 -49.306622 19.014256
29.07366 -58.034328 33.895462
28.967436 -60.585323 31.697472
28.85973 -62.139477 24.461693
29.092655 -59.618111 26.779736
29.082445 -59.394901 24.278992
29.314262 -56.40403 24.082012
29.082375 -58.719154 21.919432
29.058037 -58.021564 19.590212
28.833456 -41.952778 40.636475
28.778389 -38.881779 39.863182
28.970884 -38.459545 37.556717
29.341587 -52.340916 32.94817
29.296001 -49.803802 34.996758
29.417313 -49.369534 32.679291
29.840958 -42.367641 29.54076
29.580048 -43.225082 31.779861
29.672405 -39.848591 31.540054
29.478039 -37.107304 33.239643
29.820652 -36.62141 31.093845
29.985197 -33.06953 30.83511
30.199419 -35.701855 29.206976
31.010258 -45.047199 14.696083
31.161106 -44.619183 12.464441
30.49976 -47.250607 10.294646
28.835707 -57.267101 14.767632
29.31142 -54.090977 14.700191
28.730362 -56.546062 12.468076
28.916134 -52.018322 5.886649
28.891092 -44.886707 41.109688
29.038988 -44.625591 38.742489
29.5599 -51.399227 28.079262
29.563501 -48.859108 30.185608
29.71636 -48.375553 27.945417
29.905098 -45.221386 27.682226
30.139849 -41.959583 27.326332
30.390656 -38.571842 27.18346
30.483013 -41.197845 25.30895
30.838423 -40.844505 23.204653
30.811588 -45.50053 17.003685
30.39233 -48.083988 14.668732
29.119602 -55.598518 35.837345
29.231237 -55.266502 33.355572
29.317602 -54.806835 31.127644
29.061798 -59.94986 29.170074
29.250128 -57.08886 28.844936
29.40514 -54.320019 28.469696
29.47994 -53.846409 26.137632
29.562246 -53.260372 23.832279
29.645702 -52.693203 21.378168
29.681498 -52.447624 19.096579
29.33515 -55.326206 19.211866
28.965548 -57.648907 17.173828
29.164837 -50.142887 37.555386
29.195688 -47.352188 36.924728
29.19573 -44.135582 36.387653
29.500828 -46.277542 32.140911
29.365328 -43.628437 34.156826
29.176882 -40.870972 36.00174
29.193974 -37.747498 35.393627
29.198923 -34.652519 35.07864
29.692074 -30.719902 32.460117
30.666105 -35.392059 27.020081
30.527617 -46.077114 5.87074
29.746674 -51.856323 16.983805
29.801046 -51.230824 14.74984
29.815514 -50.702152 12.511948
29.146685 -53.122272 10.211684
29.798143 -50.177437 10.245072
29.743553 -49.646545 7.915717
29.709173 -49.005531 5.876938
29.55352 -48.608948 3.650033
28.486759 -51.203629 1.529238
28.84587 -61.867279 31.846797
28.909827 -60.740492 32.950797
28.807714 -61.222847 20.846476
28.932475 -59.801325 20.813631
28.957614 -60.140676 21.952278
28.522115 -57.969097 12.496308
28.783034 -56.906582 13.617854
28.574787 -58.329617 13.646086
31.018225 -41.803253 21.125777
31.052102 -40.454635 22.151455
30.804547 -42.193123 22.178975
30.930453 -43.227684 20.119196
31.018225 -41.803253 21.125777
29.032337 -56.955362 36.12235
29.049547 -55.694541 37.118727
28.962129 -61.227076 28.046926
28.941612 -61.385277 29.292774
28.841943 -62.662493 28.169626
28.810458 -59.039717 17.201975
29.011792 -57.835235 18.38202
28.856703 -59.226045 18.410167
28.727984 -58.791802 15.980159
28.810458 -59.039717 17.201975
28.79835 -33.918701 37.92707
28.824517 -35.4993 38.194595
28.931677 -33.586087 36.841556
28.79835 -33.918701 37.92707
29.196683 -51.438038 36.50837
29.132355 -51.657288 37.749727
29.164201 -52.952438 36.702711
29.40826 -32.570025 33.739199
29.231116 -32.937211 34.813091
29.376067 -34.285334 34.004748
29.622643 -32.319025 32.695486
29.477691 -30.970903 33.50383
29.40826 -32.570025 33.739199
30.309855 -31.062101 29.731952
30.075086 -31.36499 30.720256
30.219965 -32.766641 29.846806
30.588096 -30.777147 28.749362
30.309855 -31.062101 29.731952
30.992022 -44.992339 8.22426
30.943424 -45.273668 9.27751
30.554386 -46.292223 7.028443
30.965253 -44.77723 7.066557
30.992022 -44.992339 8.22426
29.091025 -52.871837 9.14018
28.745654 -54.369867 9.017798
28.689993 -54.119433 7.946294
28.888013 -49.27881 42.073841
28.817673 -47.994552 43.086224
28.970053 -49.213209 40.80772
28.888013 -49.27881 42.073841
29.04242 -48.986451 39.611767
28.974922 -47.652143 40.618354
28.970053 -49.213209 40.80772
28.96294 -59.464994 34.049791
29.009366 -58.173267 35.151409
29.020548 -59.309826 32.796467
28.96294 -59.464994 34.049791
28.909827 -60.740492 32.950797
28.920306 -59.452529 19.64902
29.070206 -58.370359 20.754822
28.932475 -59.801325 20.813631
28.856703 -59.226045 18.410167
28.920306 -59.452529 19.64902
28.737537 -40.780928 41.395741
28.76655 -42.228299 41.807879
28.710003 -39.245428 41.009094
28.737537 -40.780928 41.395741
28.805923 -40.417279 40.249828
28.666936 -37.80415 40.756827
28.710003 -39.245428 41.009094
28.749256 -37.383679 39.565481
28.666936 -37.80415 40.756827
28.845503 -37.172562 38.412249
28.749256 -37.383679 39.565481
28.874637 -38.670662 38.70995
28.949897 -36.786283 37.339063
28.824517 -35.4993 38.194595
28.845503 -37.172562 38.412249
31.001501 -36.306442 25.050487
31.039237 -37.721792 24.115952
31.344568 -43.485332 14.678955
31.201303 -43.7453 15.784637
31.419992 -43.271324 13.563134
31.344568 -43.485332 14.678955
31.085682 -44.833191 13.580262
31.537942 -43.012695 12.530632
31.419992 -43.271324 13.563134
31.233398 -44.329594 11.416657
31.537942 -43.012695 12.530632
30.902725 -45.645306 10.33176
31.233398 -44.329594 11.416657
30.830433 -45.934895 11.379544
30.540458 -46.878969 9.240396
30.943424 -45.273668 9.27751
30.902725 -45.645306 10.33176
28.626838 -53.746523 6.950263
28.689993 -54.119433 7.946294
28.567223 -53.444982 5.85925
28.975749 -52.319862 6.977663
28.626838 -53.746523 6.950263
28.449812 -53.23465 4.810924
28.567223 -53.444982 5.85925
28.365191 -52.998317 3.757976
28.831513 -51.78199 4.833702
28.449812 -53.23465 4.810924
28.241685 -52.731943 2.666598
28.365191 -52.998317 3.757976
28.729173 -63.879801 27.019759
28.841943 -62.662493 28.169626
28.733143 -63.756113 25.784084
28.729173 -63.879801 27.019759
28.731777 -63.573706 24.553041
28.861095 -62.321884 25.692735
28.733143 -63.756113 25.784084
28.726644 -63.260195 23.346003
28.731777 -63.573706 24.553041
28.713205 -62.971556 22.107717
28.846291 -61.850838 23.223408
28.726644 -63.260195 23.346003
28.678365 -62.680672 20.912196
28.713205 -62.971556 22.107717
28.824144 -46.623255 42.693891
28.817673 -47.994552 43.086224
28.818413 -45.127157 42.341582
28.824144 -46.623255 42.693891
28.896823 -46.382804 41.461998
28.795368 -43.695263 42.044485
28.818413 -45.127157 42.341582
28.862274 -43.419742 40.873081
28.76655 -42.228299 41.807879
28.795368 -43.695263 42.044485
31.046588 -39.118881 23.195909
31.039237 -37.721792 24.115952
30.831072 -39.447416 24.124696
31.046588 -39.118881 23.195909
31.052102 -40.454635 22.151455
30.841057 -44.50022 19.022364
30.930453 -43.227684 20.119196
30.681275 -44.814275 20.056465
30.950912 -44.207079 18.04439
30.841057 -44.50022 19.022364
30.701733 -45.79367 17.981659
31.101968 -43.971965 16.938439
30.950912 -44.207079 18.04439
30.910923 -45.273865 15.849884
31.201303 -43.7453 15.784637
31.101968 -43.971965 16.938439
29.109738 -54.385103 36.890707
29.049547 -55.694541 37.118727
29.174066 -54.165853 35.649349
29.164201 -52.952438 36.702711
29.109738 -54.385103 36.890707
29.096631 -56.816423 34.866404
29.032337 -56.955362 36.12235
29.009366 -58.173267 35.151409
28.894431 -61.703009 30.556473
28.84587 -61.867279 31.846797
29.014617 -60.267592 30.433773
28.894431 -61.703009 30.556473
28.941612 -61.385277 29.292774
28.663064 -58.600898 14.777061
28.900627 -57.458004 15.97073
28.727984 -58.791802 15.980159
28.574787 -58.329617 13.646086
28.663064 -58.600898 14.777061
28.807714 -61.222847 20.846476
28.678365 -62.680672 20.912196
29.101194 -50.345202 38.678259
29.132355 -51.657288 37.749727
29.106063 -48.784136 38.488894
29.04242 -48.986451 39.611767
29.101194 -50.345202 38.678259
29.066683 -33.355835 35.820172
28.931677 -33.586087 36.841556
29.063917 -34.88277 36.100025
29.066683 -33.355835 35.820172
29.231116 -32.937211 34.813091
29.526111 -29.311132 33.27321
29.477691 -30.970903 33.50383
29.765127 -28.947551 32.317859
29.526111 -29.311132 33.27321
29.928525 -30.190176 31.532759
29.838636 -31.894716 31.647613
30.075086 -31.36499 30.720256
30.001579 -28.417825 31.390502
29.765127 -28.947551 32.317859
29.928525 -30.190176 31.532759
30.922693 -34.977308 26.038159
30.744913 -36.721193 26.03241
31.001501 -36.306442 25.050487
30.825826 -33.627685 26.959535
30.922693 -34.977308 26.038159
30.72014 -32.163531 27.878746
30.560419 -33.927906 27.939292
30.825826 -33.627685 26.959535
30.588096 -30.777147 28.749362
30.72014 -32.163531 27.878746
30.989455 -44.495209 5.977034
31.427091 -43.195324 7.172851
30.965253 -44.77723 7.066557
30.488876 -45.84861 4.821186
30.989455 -44.495209 5.977034
28.398746 -57.763838 11.313726
28.522115 -57.969097 12.496308
28.650534 -56.269197 11.303199
28.398746 -57.763838 11.313726
28.904325 -54.828508 11.329546
28.984153 -55.105373 12.494422
28.650534 -56.269197 11.303199
28.858695 -54.557302 10.175003
28.745654 -54.369867 9.017798
29.192315 -53.393478 11.366226
28.904325 -54.828508 11.329546
28.858695 -54.557302 10.175003
30.001828 -47.114527 3.710832
30.488876 -45.84861 4.821186
30.040568 -47.343031 4.760387
29.463673 -48.421368 2.612141
30.001828 -47.114527 3.710832
28.930293 -49.718708 1.551744
29.463673 -48.421368 2.612141
29.020139 -49.906289 2.589635
28.374094 -50.951594 0.461224
28.930293 -49.718708 1.551744
28.111619 -52.560929 1.54084
28.616825 -51.374644 2.654996
28.241685 -52.731943 2.666598
27.990381 -52.316443 0.543196
28.111619 -52.560929 1.54084
28.374094 -50.951594 0.461224
27.990381 -52.316443 0.543196
3 0 31 29
3 0 33 31
3 0 35 33
3 108 37 109
3 2 40 38
3 2 42 40
3 2 110 112
3 112 111 42
3 110 111 112
3 3 45 44
3 3 46 45
3 1 49 47
3 4 52 50
3 4 54 52
3 4 56 54
3 5 58 57
3 5 59 58
3 113 62 114
3 115 114 60
3 113 114 115
3 7 64 28
3 7 65 64
3 8 68 66
3 10 69 30
3 10 70 69
3 10 72 70
3 12 73 32
3 12 116 118
3 118 117 73
3 116 117 118
3 12 119 120
3 13 74 34
3 13 75 74
3 121 76 122
3 15 77 36
3 15 78 77
3 6 123 125
3 123 79 124
3 123 124 125
3 16 80 39
3 16 81 80
3 16 82 81
3 17 83 41
3 17 84 83
3 17 86 84
3 126 87 127
3 128 127 43
3 126 127 128
3 130 129 87
3 19 131 132
3 19 133 134
3 14 135 137
3 135 88 136
3 135 136 137
3 20 89 48
3 20 90 89
3 9 91 67
3 21 92 51
3 21 93 92
3 21 94 93
3 22 95 53
3 22 138 140
3 140 139 95
3 138 139 140
3 22 141 143
3 141 96 142
3 141 142 143
3 23 144 146
3 146 145 55
3 144 145 146
3 23 147 148
3 11 97 71
3 24 149 150
3 24 151 153
3 151 98 152
3 151 152 153
3 18 99 85
3 25 100 61
3 25 101 100
3 26 154 156
3 154 102 155
3 154 155 156
3 26 103 102
3 26 104 103
3 27 105 63
3 27 106 105
3 27 107 106
3 157 28 158
3 159 28 160
3 161 7 162
3 163 162 28
3 161 162 163
3 29 30 8
3 31 30 29
3 31 10 30
3 31 32 10
3 33 32 31
3 33 12 32
3 33 34 12
3 35 34 33
3 35 13 34
3 164 36 165
3 37 166 168
3 166 36 167
3 166 167 168
3 37 15 36
3 38 39 6
3 40 39 38
3 40 16 39
3 40 41 16
3 42 41 40
3 42 17 41
3 42 43 17
3 169 43 170
3 171 170 42
3 169 170 171
3 173 172 43
3 44 174 175
3 45 176 178
3 178 177 44
3 176 177 178
3 45 179 180
3 45 181 182
3 46 183 185
3 185 184 45
3 183 184 185
3 46 186 188
3 186 19 187
3 186 187 188
3 47 48 14
3 49 48 47
3 49 20 48
3 50 51 9
3 52 51 50
3 52 21 51
3 52 53 21
3 54 53 52
3 54 22 53
3 54 55 22
3 56 55 54
3 56 23 55
3 190 189 11
3 57 191 192
3 58 193 195
3 195 194 57
3 193 194 195
3 58 196 197
3 58 198 199
3 59 200 202
3 202 201 58
3 200 201 202
3 59 203 205
3 203 24 204
3 203 204 205
3 60 61 18
3 62 61 60
3 62 25 61
3 206 26 207
3 208 63 209
3 210 209 26
3 208 209 210
3 211 63 212
3 213 27 214
3 215 214 63
3 213 214 215
3 217 216 27
3 218 6 219
3 220 6 221
3 222 38 223
3 224 223 6
3 222 223 224
3 225 38 226
3 227 2 228
3 229 228 38
3 227 228 229
3 231 230 2
3 28 232 233
3 64 234 236
3 236 235 28
3 234 235 236
3 64 237 238
3 64 239 241
3 239 44 240
3 239 240 241
3 65 44 64
3 65 3 44
3 66 67 1
3 68 67 66
3 68 9 67
3 30 68 8
3 69 68 30
3 69 9 68
3 69 50 9
3 70 50 69
3 70 4 50
3 70 71 4
3 72 71 70
3 72 11 71
3 32 72 10
3 73 72 32
3 73 11 72
3 73 242 244
3 244 243 11
3 242 243 244
3 246 245 73
3 34 247 249
3 249 248 12
3 247 248 249
3 74 250 252
3 252 251 34
3 250 251 252
3 74 253 254
3 74 255 257
3 255 57 256
3 255 256 257
3 75 57 74
3 75 5 57
3 76 258 259
3 76 260 262
3 260 14 261
3 260 261 262
3 36 263 265
3 263 76 264
3 263 264 265
3 77 76 36
3 77 14 76
3 77 47 14
3 78 47 77
3 78 1 47
3 266 37 267
3 79 268 270
3 268 37 269
3 268 269 270
3 79 15 37
3 39 79 6
3 80 79 39
3 80 15 79
3 80 78 15
3 81 78 80
3 81 1 78
3 81 66 1
3 82 66 81
3 82 8 66
3 41 82 16
3 83 82 41
3 83 8 82
3 83 29 8
3 84 29 83
3 84 0 29
3 84 85 0
3 86 85 84
3 86 18 85
3 43 86 17
3 87 86 43
3 87 18 86
3 87 60 18
3 271 60 272
3 273 272 87
3 271 272 273
3 275 274 60
3 277 276 2
3 88 278 279
3 88 280 282
3 280 7 281
3 280 281 282
3 48 88 14
3 89 88 48
3 89 7 88
3 89 65 7
3 90 65 89
3 90 3 65
3 67 49 1
3 91 49 67
3 91 20 49
3 51 91 9
3 92 91 51
3 92 20 91
3 92 90 20
3 93 90 92
3 93 3 90
3 93 46 3
3 94 46 93
3 94 19 46
3 53 94 21
3 95 94 53
3 95 19 94
3 95 283 285
3 285 284 19
3 283 284 285
3 287 286 95
3 96 288 289
3 96 290 291
3 55 96 22
3 292 96 293
3 294 293 55
3 292 293 294
3 297 296 96
3 295 296 297
3 71 56 4
3 97 56 71
3 97 23 56
3 298 97 299
3 300 299 11
3 298 299 300
3 301 97 302
3 303 23 304
3 305 304 97
3 303 304 305
3 307 306 23
3 98 308 310
3 308 309 310
3 98 311 312
3 85 35 0
3 99 35 85
3 99 13 35
3 61 99 18
3 100 99 61
3 100 13 99
3 100 75 13
3 101 75 100
3 101 5 75
3 313 62 314
3 315 62 316
3 317 25 318
3 319 318 62
3 317 318 319
3 102 320 321
3 102 322 324
3 322 25 323
3 322 323 324
3 102 101 25
3 103 101 102
3 103 5 101
3 103 59 5
3 104 59 103
3 104 24 59
3 63 104 26
3 105 104 63
3 105 24 104
3 105 98 24
3 106 98 105
3 106 325 327
3 327 326 98
3 325 326 327
3 106 328 329
3 107 330 332
3 332 331 106
3 330 331 332
3 107 333 334
3 335 107 336
3 337 336 27
3 335 336 337
3 338 107 339
3 341 340 107
