ply
format ascii 1.0
element vertex 255
property float x
property float y
property float z
element face 257
property list uchar int vertex_index
end_header
24.92609 -100.037758 -20.229496
23.773378 -92.018265 -26.208733
18.892061 -98.976685 -30.916515
23.142195 -104.366394 -12.520055
26.274145 -95.402832 -17.99958
24.640099 -96.555099 -23.492872
24.234276 -101.702904 -6.162905
21.167955 -104.700188 -8.145055
14.579705 -96.274445 -35.10228
18.143841 -93.998917 -33.185284
22.277687 -103.571602 -22.544117
22.422377 -100.465149 -25.781202
19.093189 -103.11158 -27.829737
26.320213 -98.535095 -14.314841
25.665848 -100.558197 -10.154267
24.42108 -102.791206 -16.447166
21.233299 -105.860313 -18.66185
21.933172 -96.032173 -28.613262
25.77878 -97.833405 -19.022995
25.588938 -96.102707 -20.803358
24.935934 -98.263878 -21.820751
21.687775 -103.301338 -4.961048
14.075429 -93.456818 -36.158997
24.819696 -92.006485 -23.725983
20.431604 -104.984276 -23.481007
20.734703 -103.627914 -25.213091
18.623301 -104.671608 -26.434956
26.797827 -96.099472 -13.346253
26.752047 -97.100227 -11.267365
23.734009 -103.188828 -9.287918
25.043999 -101.222252 -8.113061
24.541506 -102.64785 -11.375639
25.183088 -101.762085 -13.319915
23.931252 -103.660934 -14.399288
23.006205 -104.487144 -17.447533
22.433266 -105.173286 -15.510783
20.750521 -99.855156 -28.508131
22.35165 -98.340294 -27.162373
20.586288 -97.644356 -29.752237
26.477417 -92.897148 -17.07659
25.981268 -93.780464 -19.729366
25.279114 -94.225632 -22.286333
24.331425 -94.36721 -24.793861
23.286032 -101.731056 -3.791811
22.904221 -103.242096 -6.956967
22.284239 -104.642845 -10.274902
21.422829 -105.772491 -13.576972
20.497671 -105.875801 -11.390107
16.669634 -97.890305 -33.187286
18.52389 -96.644463 -32.170563
16.43347 -95.193832 -34.247803
23.796885 -102.05513 -21.159481
23.879354 -100.399162 -22.955843
22.501827 -102.089134 -24.149933
20.865332 -101.896362 -26.907009
19.074936 -101.285568 -29.398853
17.087143 -102.220505 -30.405256
17.01005 -100.263794 -31.79397
14.693469 -98.86647 -34.002487
26.731493 -94.523392 -15.17169
26.386234 -97.052277 -16.242144
25.774025 -99.399857 -17.144178
25.299795 -99.779839 -5.046141
25.965693 -99.175934 -7.179214
26.455929 -98.28186 -9.258206
26.146322 -99.507339 -12.164742
25.544622 -100.791 -15.200022
24.821405 -101.476311 -18.31216
23.440439 -103.458214 -19.440237
21.866934 -104.903526 -20.552517
19.904066 -106.070992 -21.734905
23.744007 -98.67025 -24.539373
23.402798 -96.584869 -26.133774
23.055128 -94.144424 -27.335508
20.121916 -95.193756 -31.021931
21.447741 -93.571518 -29.784519
24.029347 -90.833046 -25.558153
24.552506 -90.827156 -24.316778
24.296537 -92.012375 -24.967358
23.480204 -90.772301 -26.753219
24.029347 -90.833046 -25.558153
18.449886 -105.319603 -25.482778
19.527453 -104.827942 -24.957982
19.354038 -105.475937 -24.005803
26.843181 -96.476749 -9.830185
26.900294 -95.9427 -10.824608
22.669452 -101.755989 -2.848606
23.397164 -100.951862 -2.302194
15.099085 -93.000061 -35.5961
13.944349 -92.042054 -36.485478
15.881624 -101.597428 -31.620048
15.879898 -102.536381 -30.910908
14.674378 -101.913303 -32.125699
15.843077 -100.619072 -32.314405
17.048597 -101.24215 -31.099613
15.881624 -101.597428 -31.620048
14.684787 -99.92041 -33.418663
15.85176 -99.565132 -32.898229
15.843077 -100.619072 -32.314405
26.861722 -94.02549 -13.813166
26.764887 -93.26495 -14.734383
24.767035 -100.741371 -5.604523
24.923513 -99.916264 -4.023199
24.390753 -100.877797 -4.581581
20.996339 -106.099579 -15.061432
20.459832 -106.285561 -14.073444
21.167082 -92.129761 -30.284589
20.572959 -93.051914 -30.868975
21.937426 -92.568314 -29.199957
21.167082 -92.129761 -30.284589
20.970963 -103.146286 -3.864412
21.870323 -102.54113 -3.433224
20.804985 -103.857452 -5.443834
20.970963 -103.146286 -3.864412
20.088173 -103.702401 -4.347198
20.545075 -104.556877 -7.035837
21.427865 -104.000763 -6.553051
20.804985 -103.857452 -5.443834
20.22748 -105.221272 -8.701519
20.545075 -104.556877 -7.035837
13.090739 -93.937649 -36.537796
14.327567 -94.865632 -35.630639
13.342876 -95.346463 -36.009438
12.938342 -92.510258 -36.943287
13.090739 -93.937649 -36.537796
13.944349 -92.042054 -36.485478
12.938342 -92.510258 -36.943287
24.963465 -90.82177 -23.107231
25.208087 -91.948159 -22.465499
24.963465 -90.82177 -23.107231
24.552506 -90.827156 -24.316778
26.923184 -95.442322 -11.864052
26.894889 -94.81353 -12.900448
26.774937 -96.59985 -12.306809
26.923184 -95.442322 -11.864052
26.900294 -95.9427 -10.824608
18.921009 -93.265614 -32.569358
17.952182 -92.567997 -33.565579
26.294569 -92.042839 -17.904272
26.482453 -91.670693 -16.533718
26.046495 -92.484497 -19.23066
26.294569 -92.042839 -17.904272
26.229343 -93.338806 -18.402978
25.788874 -92.835148 -20.467191
26.046495 -92.484497 -19.23066
25.437796 -93.057732 -21.745674
25.788874 -92.835148 -20.467191
25.630191 -94.003048 -21.007849
25.049405 -93.116059 -23.006158
25.208087 -91.948159 -22.465499
25.437796 -93.057732 -21.745674
23.916631 -100.891873 -3.396033
23.397164 -100.951862 -2.302194
23.760154 -101.71698 -4.977358
24.390753 -100.877797 -4.581581
23.916631 -100.891873 -3.396033
22.486903 -102.516197 -4.37643
22.669452 -101.755989 -2.848606
21.870323 -102.54113 -3.433224
19.997253 -106.337215 -12.980011
20.459832 -106.285561 -14.073444
20.96025 -105.824146 -12.483539
19.892339 -105.809078 -10.324046
20.832813 -105.287994 -9.767581
20.22748 -105.221272 -8.701519
19.441945 -106.313316 -11.85522
19.892339 -105.809078 -10.324046
19.997253 -106.337215 -12.980011
19.441945 -106.313316 -11.85522
16.278105 -93.868568 -34.640503
15.254449 -94.325325 -35.2034
15.099085 -93.000061 -35.5961
17.133291 -93.271111 -34.109244
17.288655 -94.596374 -33.716544
16.278105 -93.868568 -34.640503
17.952182 -92.567997 -33.565579
17.133291 -93.271111 -34.109244
17.524209 -105.070256 -26.840739
18.449886 -105.319603 -25.482778
17.721451 -104.303688 -27.711987
17.524209 -105.070256 -26.840739
17.956395 -103.523674 -28.409377
18.858245 -103.891594 -27.132347
17.721451 -104.303688 -27.711987
16.953372 -103.078136 -29.697136
15.879898 -102.536381 -30.910908
18.090166 -102.666043 -29.117497
17.956395 -103.523674 -28.409377
16.953372 -103.078136 -29.697136
13.45987 -99.05986 -34.486986
14.684787 -99.92041 -33.418663
13.531322 -97.950432 -34.964597
13.45987 -99.05986 -34.486986
13.474439 -96.654419 -35.514494
14.636587 -97.570458 -34.552384
13.531322 -97.950432 -34.964597
13.342876 -95.346463 -36.009438
13.474439 -96.654419 -35.514494
26.637849 -92.451828 -15.686833
26.482453 -91.670693 -16.533718
26.604455 -93.71027 -16.12414
26.637849 -92.451828 -15.686833
26.764887 -93.26495 -14.734383
26.76466 -95.311432 -14.258972
26.861722 -94.02549 -13.813166
26.894889 -94.81353 -12.900448
25.418245 -98.879963 -3.490367
24.923513 -99.916264 -4.023199
25.732825 -98.697316 -4.680196
25.418245 -98.879963 -3.490367
26.065774 -98.395363 -5.746733
25.732825 -98.697316 -4.680196
25.632744 -99.477886 -6.112678
26.301406 -98.025204 -6.820427
26.065774 -98.395363 -5.746733
26.546524 -97.578167 -7.859923
26.301406 -98.025204 -6.820427
26.210811 -98.728897 -8.21871
26.695122 -97.067566 -8.825605
26.546524 -97.578167 -7.859923
26.603988 -97.691044 -10.262785
26.843181 -96.476749 -9.830185
26.695122 -97.067566 -8.825605
19.090269 -106.019295 -23.132753
19.354038 -105.475937 -24.005803
20.167835 -105.527634 -22.607956
21.501558 -105.799976 -16.028337
21.928047 -105.472889 -14.543878
20.996339 -106.099579 -15.061432
20.901574 -106.14349 -17.60387
21.833282 -105.5168 -17.086317
21.501558 -105.799976 -16.028337
20.251118 -106.372055 -19.063355
20.901574 -106.14349 -17.60387
19.586502 -106.477395 -20.599882
20.568683 -105.965653 -20.198377
20.251118 -106.372055 -19.063355
18.840726 -106.508217 -22.072321
19.586502 -106.477395 -20.599882
19.090269 -106.019295 -23.132753
18.840726 -106.508217 -22.072321
19.910046 -93.863033 -31.487682
19.132878 -94.596337 -32.103608
18.921009 -93.265614 -32.569358
20.784828 -94.382637 -30.403225
19.910046 -93.863033 -31.487682
20.572959 -93.051914 -30.868975
22.741119 -92.854767 -27.975451
22.251435 -93.857971 -28.560014
21.937426 -92.568314 -29.199957
23.100245 -91.791687 -27.412064
23.414253 -93.081345 -26.77212
22.741119 -92.854767 -27.975451
23.480204 -90.772301 -26.753219
23.100245 -91.791687 -27.412064
3 0 20 18
3 1 76 78
3 78 77 23
3 76 77 78
3 1 79 80
3 81 26 82
3 83 82 24
3 81 82 83
3 84 28 85
3 3 31 29
3 3 33 31
3 3 35 33
3 2 38 36
3 4 40 39
3 5 41 19
3 5 42 41
3 86 43 87
3 7 44 21
3 7 45 44
3 7 47 45
3 8 50 48
3 89 88 22
3 10 53 51
3 12 54 25
3 12 55 54
3 90 56 91
3 90 91 92
3 93 57 94
3 95 94 56
3 93 94 95
3 96 58 97
3 98 97 57
3 96 97 98
3 99 59 100
3 13 60 27
3 13 61 60
3 6 101 103
3 101 62 102
3 101 102 103
3 14 63 30
3 14 64 63
3 14 65 64
3 15 66 32
3 15 67 66
3 15 68 67
3 16 69 34
3 16 70 69
3 105 104 46
3 11 71 52
3 17 72 37
3 17 73 72
3 9 74 49
3 106 75 107
3 109 108 75
3 18 19 4
3 20 19 18
3 20 5 19
3 110 21 111
3 112 21 113
3 112 113 114
3 115 7 116
3 117 116 21
3 115 116 117
3 119 118 7
3 120 22 121
3 122 121 8
3 120 121 122
3 123 22 124
3 126 125 22
3 23 127 128
3 130 129 23
3 24 25 10
3 26 25 24
3 26 12 25
3 131 27 132
3 28 133 135
3 133 27 134
3 133 134 135
3 28 13 27
3 29 30 6
3 31 30 29
3 31 14 30
3 31 32 14
3 33 32 31
3 33 15 32
3 33 34 15
3 35 34 33
3 35 16 34
3 36 37 11
3 38 37 36
3 38 17 37
3 137 136 9
3 39 138 139
3 40 140 142
3 142 141 39
3 140 141 142
3 40 143 144
3 19 40 4
3 41 40 19
3 41 145 147
3 147 146 40
3 145 146 147
3 41 148 150
3 148 23 149
3 148 149 150
3 42 23 41
3 42 1 23
3 43 151 152
3 43 153 155
3 153 6 154
3 153 154 155
3 21 156 158
3 156 43 157
3 156 157 158
3 44 43 21
3 44 6 43
3 44 29 6
3 45 29 44
3 45 3 29
3 45 46 3
3 47 46 45
3 47 159 161
3 161 160 46
3 159 160 161
3 162 47 163
3 164 163 7
3 162 163 164
3 165 47 166
3 168 167 47
3 48 49 2
3 50 49 48
3 50 9 49
3 22 50 8
3 169 50 170
3 171 170 22
3 169 170 171
3 172 9 173
3 174 173 50
3 172 173 174
3 176 175 9
3 51 52 0
3 53 52 51
3 53 11 52
3 25 53 10
3 54 53 25
3 54 11 53
3 54 36 11
3 55 36 54
3 55 2 36
3 177 26 178
3 179 26 180
3 181 12 182
3 183 182 26
3 181 182 183
3 56 184 185
3 56 186 188
3 186 12 187
3 186 187 188
3 56 55 12
3 57 55 56
3 57 2 55
3 57 48 2
3 58 48 57
3 58 8 48
3 189 58 190
3 191 58 192
3 193 8 194
3 195 194 58
3 193 194 195
3 197 196 8
3 198 39 199
3 59 200 202
3 200 39 201
3 200 201 202
3 59 4 39
3 27 203 205
3 203 59 204
3 203 204 205
3 60 59 27
3 60 4 59
3 60 18 4
3 61 18 60
3 61 0 18
3 62 206 207
3 62 208 209
3 30 62 6
3 63 62 30
3 63 210 212
3 212 211 62
3 210 211 212
3 63 213 214
3 64 215 217
3 217 216 63
3 215 216 217
3 64 218 219
3 64 220 222
3 220 28 221
3 220 221 222
3 65 28 64
3 65 13 28
3 32 65 14
3 66 65 32
3 66 13 65
3 66 61 13
3 67 61 66
3 67 0 61
3 67 51 0
3 68 51 67
3 68 10 51
3 34 68 15
3 69 68 34
3 69 10 68
3 69 24 10
3 70 24 69
3 70 223 225
3 225 224 24
3 223 224 225
3 46 35 3
3 226 35 227
3 228 227 46
3 226 227 228
3 229 16 230
3 231 230 35
3 229 230 231
3 232 16 233
3 234 70 235
3 236 235 16
3 234 235 236
3 237 70 238
3 240 239 70
3 52 20 0
3 71 20 52
3 71 5 20
3 37 71 11
3 72 71 37
3 72 5 71
3 72 42 5
3 73 42 72
3 73 1 42
3 49 38 2
3 74 38 49
3 74 17 38
3 241 74 242
3 243 242 9
3 241 242 243
3 75 244 246
3 244 74 245
3 244 245 246
3 75 17 74
3 75 73 17
3 247 73 248
3 249 248 75
3 247 248 249
3 250 1 251
3 252 251 73
3 250 251 252
3 254 253 1
