ply
format ascii 1.0
element vertex 58
property float x
property float y
property float z
element face 40
property list uchar int vertex_index
end_header
-2.496759 26.193531 -64.757339
-2.671069 21.888338 -66.625435
-2.599216 24.143456 -65.804916
-1.284287 22.210264 -64.881927
-2.62936 28.3508 -63.631386
-1.538482 19.825554 -65.681824
-0.665095 22.382988 -64.036158
-1.236763 23.401224 -64.44363
-2.56306 27.272165 -64.194362
-1.920267 27.560254 -63.356928
-1.853966 26.48162 -63.919905
-3.262734 27.072729 -64.968357
-3.329035 28.151364 -64.40538
-2.56306 27.272165 -64.194362
-3.214853 26.095992 -65.531689
-3.262734 27.072729 -64.968357
-3.376651 22.892059 -67.026577
-3.340724 24.019618 -66.616318
-2.635143 23.015897 -66.215176
-3.384442 21.735217 -67.406384
-3.376651 22.892059 -67.026577
-1.001151 18.820321 -65.049405
-0.90406 20.009218 -64.812258
-1.842999 25.392857 -64.381336
-1.853966 26.48162 -63.919905
-1.894228 24.36782 -64.905124
-2.547988 25.168494 -65.281127
-1.842999 25.392857 -64.381336
-1.941752 23.17686 -65.343422
-1.894228 24.36782 -64.905124
-1.236763 23.401224 -64.44363
-1.895002 28.591608 -62.782314
-1.920267 27.560254 -63.356928
-2.613507 29.397918 -62.885965
-1.895002 28.591608 -62.782314
-3.307164 29.114526 -63.661457
-2.613507 29.397918 -62.885965
-3.307164 29.114526 -63.661457
-3.329035 28.151364 -64.40538
-3.266081 25.070954 -66.055477
-3.214853 26.095992 -65.531689
-2.547988 25.168494 -65.281127
-3.266081 25.070954 -66.055477
-3.340724 24.019618 -66.616318
-0.776963 21.201573 -64.41231
-0.665095 22.382988 -64.036158
-1.411385 21.017909 -65.281876
-0.776963 21.201573 -64.41231
-0.90406 20.009218 -64.812258
-1.619474 18.692189 -65.894246
-1.001151 18.820321 -65.049405
-2.202828 19.711608 -66.495057
-1.619474 18.692189 -65.894246
-2.769121 20.743 -66.966862
-2.104776 20.856946 -66.153629
-2.202828 19.711608 -66.495057
-3.384442 21.735217 -67.406384
-2.769121 20.743 -66.966862
3 6 3 7
3 0 8 10
3 8 4 9
3 8 9 10
3 0 11 13
3 13 12 4
3 11 12 13
3 0 14 15
3 1 16 18
3 18 17 2
3 16 17 18
3 1 19 20
3 21 5 22
3 23 0 24
3 25 2 26
3 27 26 0
3 25 26 27
3 3 28 30
3 28 2 29
3 28 29 30
3 3 1 2
3 4 31 32
3 4 33 34
3 4 35 36
3 38 37 4
3 2 39 41
3 41 40 0
3 39 40 41
3 43 42 2
3 44 3 45
3 5 46 48
3 46 3 47
3 46 47 48
3 5 1 3
3 49 5 50
3 51 5 52
3 53 1 54
3 55 54 5
3 53 54 55
3 57 56 1
