ply
format ascii 1.0
element vertex 324
property float x
property float y
property float z
element face 337
property list uchar int vertex_index
end_header
8.292495 -95.001648 -18.426027
-1.581392 -95.756882 0.864174
-1.601586 -103.52253 -18.072569
13.188255 -88.939308 -26.858818
-10.867319 -99.412415 2.218378
-6.291302 -103.33226 -8.486573
3.267058 -97.277924 -8.975891
12.886164 -89.596436 -17.975365
15.469126 -86.381912 -22.243086
10.76591 -92.408165 -22.767445
2.868836 -92.875671 0.793316
5.314561 -93.41188 -3.950365
0.770129 -97.083694 -4.3232
-1.37715 -100.678131 -8.907367
-3.908505 -99.850021 -3.992502
3.377088 -99.730598 -18.349476
5.921105 -97.601181 -22.914206
8.306421 -94.541962 -27.213413
-3.996443 -93.810524 6.179995
-8.451479 -95.627571 6.768939
-6.112347 -97.951721 1.358117
-8.719423 -101.740929 -3.17672
10.462972 -91.773712 -13.742796
7.775513 -93.183891 -8.855747
5.772447 -96.685654 -13.911062
1.010076 -100.666069 -13.64746
-4.006949 -103.959503 -13.26213
10.646975 -92.361099 -18.324572
11.883144 -91.046211 -20.493414
9.529012 -93.822456 -20.630737
0.672978 -94.439499 0.683679
1.904275 -94.990768 -1.831446
-0.435586 -96.52034 -1.715357
-1.482029 -98.484116 -4.131856
-2.739499 -97.902901 -1.651915
0.939102 -101.700386 -18.149654
2.154998 -100.947998 -20.540892
14.483176 -87.60083 -24.546782
14.468409 -86.810509 -28.714935
7.089041 -96.220184 -25.136724
-9.472711 -97.581863 4.381485
-7.274163 -96.853302 4.039747
-8.460331 -98.782593 1.766624
-7.394283 -99.845047 -0.815919
-9.812329 -100.638283 -0.472933
12.434216 -89.34037 -13.309693
4.467087 -95.32592 -6.654036
6.599729 -93.380867 -6.45061
5.656413 -95.26152 -9.079709
6.910342 -94.897903 -11.462662
4.559561 -97.074951 -11.46461
3.534567 -98.731262 -14.05277
2.24718 -99.004364 -11.44257
-3.753938 -102.087128 -8.748746
-2.732686 -102.492996 -11.256813
-5.124846 -103.685898 -10.723489
14.026328 -88.300919 -20.200834
13.125701 -89.50116 -22.596809
12.013547 -90.744431 -24.850052
-12.150612 -101.201057 -0.17686
5.09041 -91.228706 0.823478
6.372155 -91.411316 -1.56282
4.142495 -93.225838 -1.630421
3.110531 -95.333687 -4.273074
2.128168 -97.168877 -6.583265
0.967411 -99.038475 -8.906091
-0.193065 -98.847855 -6.584625
-2.720372 -100.418465 -6.468906
-5.136182 -101.659645 -6.212933
5.774169 -97.567749 -18.554779
7.087677 -96.446419 -20.795265
4.621442 -98.829239 -20.688709
3.297669 -99.982513 -22.728134
3.934412 -90.640434 3.416719
1.644017 -92.241867 3.328893
-0.610599 -93.619659 3.416801
8.511967 -94.953316 -22.899157
9.622242 -93.551872 -24.947657
10.818671 -91.791481 -27.064262
9.643164 -92.457283 -29.252613
12.091396 -89.700005 -29.071993
-2.82992 -94.906624 3.459706
-6.289961 -94.828957 6.445815
-4.997177 -95.910843 3.746554
-3.929815 -97.061111 0.947416
-4.987892 -98.976883 -1.352737
-6.378362 -100.828903 -3.414489
-7.395277 -102.61895 -5.918517
-10.999816 -102.451408 -2.995399
11.737912 -90.721001 -15.921367
9.45041 -93.414322 -16.171442
7.606184 -91.434532 -3.979192
8.706798 -91.373131 -6.409156
9.941121 -90.888733 -8.619164
9.139917 -92.579643 -11.287433
8.192605 -94.243851 -13.736418
7.059344 -95.934555 -16.166784
4.609113 -98.293709 -16.255331
2.190173 -100.341087 -16.080294
-0.219313 -102.160339 -15.879264
-0.290234 -100.891022 -11.357056
-1.577128 -102.527824 -13.608433
-2.615663 -103.763756 -15.685635
-0.996662 -103.195805 -19.179532
0.273682 -102.284733 -19.218075
-0.331242 -102.611458 -18.111111
14.373423 -87.394936 -26.738579
15.020884 -86.725696 -25.582561
13.835715 -88.270069 -25.7028
13.828332 -87.874909 -27.786876
15.0135 -86.330536 -27.666638
14.373423 -87.394936 -26.738579
-10.170015 -98.497139 3.299931
-10.672086 -97.834423 4.637624
-11.36939 -98.749699 3.55607
-6.916978 -104.044495 -9.463107
-6.33375 -104.221314 -10.581565
-5.708074 -103.509079 -9.605031
13.456246 -88.948678 -19.088099
14.5311 -87.524406 -19.013939
13.961018 -88.172165 -17.901205
1.907131 -101.078475 -22.66809
2.726333 -100.465255 -21.634513
1.335795 -101.561218 -21.574469
2.569351 -100.454994 -23.729045
1.907131 -101.078475 -22.66809
4.298922 -89.571231 4.815107
4.971839 -89.821003 3.54814
0.983712 -91.848835 4.639162
2.079346 -91.170765 4.621244
-0.143596 -92.537731 4.683116
0.516709 -92.930763 3.372847
0.983712 -91.848835 4.639162
16.493939 -84.92234 -22.121317
15.817821 -85.866817 -21.068336
10.2575 -91.358074 -30.194045
8.879977 -92.823253 -30.21315
11.481616 -89.979435 -30.103735
10.86728 -91.078644 -29.162303
10.2575 -91.358074 -30.194045
12.749723 -88.519749 -29.999203
11.481616 -89.979435 -30.103735
-2.860607 -93.226368 6.094788
-3.464685 -92.748134 7.327025
-3.413182 -94.358574 4.819851
-2.277346 -93.774418 4.734643
-2.860607 -93.226368 6.094788
-8.930294 -94.92141 8.137683
-9.553005 -95.991897 6.886451
-7.820467 -94.545895 7.94751
-8.930294 -94.92141 8.137683
-7.37072 -95.228264 6.607377
-6.739707 -94.146588 7.785948
-7.820467 -94.545895 7.94751
-12.128308 -102.617264 -2.792835
-11.575214 -101.826233 -1.586129
-12.703706 -101.992088 -1.383566
-4.603275 -104.564064 -14.226797
-3.907633 -104.466191 -15.43855
-3.311306 -103.861629 -14.473883
0.88163 -101.908539 -20.413694
1.54705 -101.324192 -19.345273
0.273682 -102.284733 -19.218075
1.335795 -101.561218 -21.574469
0.88163 -101.908539 -20.413694
15.575285 -86.097233 -24.477536
16.068259 -85.487774 -23.325688
14.976151 -86.991371 -23.394934
15.575285 -86.097233 -24.477536
15.020884 -86.725696 -25.582561
15.653642 -85.212941 -28.682339
15.0135 -86.330536 -27.666638
15.120655 -85.613999 -29.664193
15.653642 -85.212941 -28.682339
5.724228 -97.519882 -25.055875
6.505073 -96.910683 -24.025465
5.14026 -98.21038 -23.944617
6.315367 -96.740337 -26.175654
5.724228 -97.519882 -25.055875
6.924057 -95.901226 -27.213998
7.697731 -95.381073 -26.175069
6.315367 -96.740337 -26.175654
-4.546105 -93.208362 7.51055
-3.464685 -92.748134 7.327025
-10.063621 -96.969043 5.692724
-10.672086 -97.834423 4.637624
-8.962095 -96.604717 5.575212
-9.553005 -95.991897 6.886451
-10.063621 -96.969043 5.692724
12.90345 -88.444065 -12.052798
13.468899 -87.970104 -13.10931
11.836301 -89.751068 -12.129058
12.90345 -88.444065 -12.052798
10.850679 -90.967739 -12.34561
11.448594 -90.557041 -13.526245
11.836301 -89.751068 -12.129058
-5.744444 -104.361946 -11.697275
-5.185495 -104.498749 -12.966596
-4.565898 -103.8227 -11.992809
-5.744444 -104.361946 -11.697275
-6.33375 -104.221314 -10.581565
-2.359526 -104.070939 -18.91642
-2.88072 -104.272594 -17.754988
15.096422 -86.826321 -20.04721
14.5311 -87.524406 -19.013939
14.747727 -87.341415 -21.22196
15.817821 -85.866817 -21.068336
15.096422 -86.826321 -20.04721
-11.984417 -99.598324 2.424755
-11.36939 -98.749699 3.55607
-12.626064 -100.492645 1.227137
-11.508966 -100.306736 1.020759
-11.984417 -99.598324 2.424755
-13.277597 -101.294674 0.047691
-12.626064 -100.492645 1.227137
-13.753049 -100.586262 1.451687
-12.703706 -101.992088 -1.383566
-13.277597 -101.294674 0.047691
5.731283 -91.320011 -0.369671
6.751643 -90.418701 -0.176514
6.110771 -90.327396 1.016635
3.828542 -99.401047 -23.851581
5.14026 -98.21038 -23.944617
4.609387 -98.791847 -22.82117
3.828542 -99.401047 -23.851581
2.569351 -100.454994 -23.729045
-0.996662 -103.195805 -19.179532
-2.359526 -104.070939 -18.91642
5.549838 -90.115139 2.25152
6.110771 -90.327396 1.016635
4.512411 -90.93457 2.120099
5.549838 -90.115139 2.25152
4.971839 -89.821003 3.54814
3.224544 -90.370048 4.665158
4.298922 -89.571231 4.815107
2.789214 -91.44115 3.372806
3.224544 -90.370048 4.665158
2.079346 -91.170765 4.621244
16.493939 -84.92234 -22.121317
16.068259 -85.487774 -23.325688
7.643432 -94.875709 -28.23165
6.924057 -95.901226 -27.213998
6.261068 -96.234973 -28.232236
8.311803 -93.83337 -29.25125
8.879977 -92.823253 -30.21315
8.974792 -93.499623 -28.233013
7.643432 -94.875709 -28.23165
8.311803 -93.83337 -29.25125
13.93823 -87.075001 -29.820674
13.279902 -88.255257 -28.893464
12.749723 -88.519749 -29.999203
14.590477 -85.87849 -30.769932
15.120655 -85.613999 -29.664193
13.93823 -87.075001 -29.820674
-1.167685 -93.130935 4.713191
-0.143596 -92.537731 4.683116
-1.72026 -94.263141 3.438254
-1.167685 -93.130935 4.713191
-2.277346 -93.774418 4.734643
-5.692864 -93.717579 7.64346
-6.14261 -93.03521 8.983593
-6.739707 -94.146588 7.785948
-5.143202 -94.31974 6.312905
-4.546105 -93.208362 7.51055
-5.692864 -93.717579 7.64346
-11.633036 -103.222179 -4.162782
-12.128308 -102.617264 -2.792835
-10.421556 -102.937007 -4.284359
-11.633036 -103.222179 -4.162782
-9.28136 -102.581768 -4.37502
-9.85962 -102.096169 -3.08606
-10.421556 -102.937007 -4.284359
-8.619287 -103.020779 -5.745919
-8.05735 -102.179939 -4.547618
-9.28136 -102.581768 -4.37502
-8.053281 -103.422733 -7.00763
-8.619287 -103.020779 -5.745919
-7.501294 -103.779389 -8.291658
-6.84329 -102.975605 -7.202545
-8.053281 -103.422733 -7.00763
-6.916978 -104.044495 -9.463107
-7.501294 -103.779389 -8.291658
13.339988 -88.830781 -16.743486
13.961018 -88.172165 -17.901205
13.114014 -88.702747 -14.41065
13.468899 -87.970104 -13.10931
12.765862 -89.393063 -15.716487
13.114014 -88.702747 -14.41065
12.086064 -90.030686 -14.61553
12.312038 -90.158718 -16.948366
13.339988 -88.830781 -16.743486
12.765862 -89.393063 -15.716487
7.403754 -90.440098 -1.390031
6.751643 -90.418701 -0.176514
8.020769 -90.451706 -2.598217
7.403754 -90.440098 -1.390031
6.98917 -91.422924 -2.771006
8.654379 -90.383876 -3.840566
8.020769 -90.451706 -2.598217
9.204686 -90.353176 -5.055549
8.654379 -90.383876 -3.840566
8.156491 -91.403831 -5.194174
9.759842 -90.21307 -6.208838
9.204686 -90.353176 -5.055549
10.377004 -89.970871 -7.313842
9.759842 -90.21307 -6.208838
9.32396 -91.130932 -7.51416
11.04286 -89.609257 -8.476146
10.377004 -89.970871 -7.313842
10.589754 -90.52525 -9.783793
11.04286 -89.609257 -8.476146
10.189152 -91.370705 -11.117928
10.589754 -90.52525 -9.783793
9.540519 -91.734188 -9.953298
9.801445 -92.176678 -12.515114
10.850679 -90.967739 -12.34561
10.189152 -91.370705 -11.117928
-3.387759 -104.393208 -16.561521
-2.88072 -104.272594 -17.754988
-2.108624 -103.643143 -16.879102
-3.387759 -104.393208 -16.561521
-3.907633 -104.466191 -15.43855
-4.603275 -104.564064 -14.226797
-5.185495 -104.498749 -12.966596
3 0 29 27
3 1 32 30
3 1 34 32
3 2 103 105
3 105 104 35
3 103 104 105
3 3 106 108
3 108 107 37
3 106 107 108
3 3 109 111
3 109 38 110
3 109 110 111
3 4 112 114
3 112 40 113
3 112 113 114
3 4 42 40
3 4 44 42
3 6 48 46
3 6 50 48
3 6 52 50
3 5 55 53
3 5 115 117
3 117 116 55
3 115 116 117
3 7 118 120
3 118 56 119
3 118 119 120
3 9 57 28
3 9 58 57
3 10 62 60
3 12 63 31
3 12 64 63
3 12 66 64
3 14 67 33
3 14 68 67
3 15 71 69
3 121 72 122
3 123 122 36
3 121 122 123
3 125 124 72
3 126 73 127
3 128 74 129
3 130 75 131
3 132 131 74
3 130 131 132
3 8 133 134
3 16 76 70
3 17 77 39
3 17 78 77
3 135 79 136
3 137 80 138
3 139 138 79
3 137 138 139
3 141 140 80
3 18 142 143
3 18 144 146
3 144 81 145
3 144 145 146
3 19 147 148
3 19 149 150
3 19 151 153
3 151 82 152
3 151 152 153
3 20 83 41
3 20 84 83
3 20 85 84
3 21 86 43
3 21 87 86
3 154 88 155
3 156 155 59
3 154 155 156
3 22 89 45
3 22 90 89
3 11 91 61
3 23 92 47
3 23 93 92
3 23 94 93
3 24 95 49
3 24 96 95
3 24 97 96
3 25 98 51
3 25 99 98
3 13 100 65
3 26 101 54
3 26 102 101
3 26 157 159
3 159 158 102
3 157 158 159
3 27 28 7
3 29 28 27
3 29 9 28
3 30 31 10
3 32 31 30
3 32 12 31
3 32 33 12
3 34 33 32
3 34 14 33
3 35 36 15
3 160 36 161
3 162 161 35
3 160 161 162
3 164 163 36
3 37 165 167
3 167 166 8
3 165 166 167
3 169 168 37
3 38 170 171
3 38 172 173
3 174 39 175
3 176 175 16
3 174 175 176
3 177 39 178
3 179 17 180
3 181 180 39
3 179 180 181
3 182 18 183
3 40 184 185
3 40 186 188
3 186 19 187
3 186 187 188
3 40 41 19
3 42 41 40
3 42 20 41
3 42 43 20
3 44 43 42
3 44 21 43
3 189 45 190
3 191 45 192
3 193 22 194
3 195 194 45
3 193 194 195
3 46 47 11
3 48 47 46
3 48 23 47
3 48 49 23
3 50 49 48
3 50 24 49
3 50 51 24
3 52 51 50
3 52 25 51
3 53 54 13
3 55 54 53
3 55 26 54
3 55 196 198
3 198 197 26
3 196 197 198
3 200 199 55
3 202 201 2
3 56 203 204
3 56 205 207
3 205 8 206
3 205 206 207
3 28 56 7
3 57 56 28
3 57 8 56
3 57 37 8
3 58 37 57
3 58 3 37
3 208 4 209
3 210 59 211
3 212 211 4
3 210 211 212
3 213 59 214
3 213 214 215
3 217 216 59
3 60 218 220
3 218 61 219
3 218 219 220
3 62 61 60
3 62 11 61
3 31 62 10
3 63 62 31
3 63 11 62
3 63 46 11
3 64 46 63
3 64 6 46
3 64 65 6
3 66 65 64
3 66 13 65
3 33 66 12
3 67 66 33
3 67 13 66
3 67 53 13
3 68 53 67
3 68 5 53
3 69 70 0
3 71 70 69
3 71 16 70
3 36 71 15
3 72 71 36
3 72 16 71
3 72 221 223
3 223 222 16
3 221 222 223
3 225 224 72
3 227 226 2
3 228 60 229
3 73 230 232
3 230 60 231
3 230 231 232
3 73 10 60
3 233 73 234
3 74 235 237
3 235 73 236
3 235 236 237
3 74 10 73
3 74 30 10
3 75 30 74
3 75 1 30
3 239 238 8
3 70 29 0
3 76 29 70
3 76 9 29
3 39 76 16
3 77 76 39
3 77 9 76
3 77 58 9
3 78 58 77
3 78 3 58
3 240 17 241
3 240 241 242
3 79 243 244
3 79 245 247
3 245 17 246
3 245 246 247
3 79 78 17
3 80 78 79
3 80 3 78
3 80 38 3
3 248 38 249
3 250 249 80
3 248 249 250
3 253 252 38
3 251 252 253
3 254 75 255
3 81 256 258
3 256 75 257
3 256 257 258
3 81 1 75
3 82 259 261
3 259 260 261
3 82 262 264
3 262 18 263
3 262 263 264
3 41 82 19
3 83 82 41
3 83 18 82
3 83 81 18
3 84 81 83
3 84 1 81
3 84 34 1
3 85 34 84
3 85 14 34
3 43 85 20
3 86 85 43
3 86 14 85
3 86 68 14
3 87 68 86
3 87 5 68
3 59 44 4
3 88 44 59
3 88 21 44
3 265 88 266
3 267 88 268
3 269 21 270
3 271 270 88
3 269 270 271
3 272 87 273
3 274 273 21
3 272 273 274
3 275 87 276
3 277 5 278
3 279 278 87
3 277 278 279
3 281 280 5
3 282 7 283
3 45 284 285
3 89 286 288
3 288 287 45
3 286 287 288
3 89 289 291
3 289 7 290
3 289 290 291
3 89 27 7
3 90 27 89
3 90 0 27
3 61 292 293
3 91 294 296
3 296 295 61
3 294 295 296
3 91 297 298
3 47 91 11
3 92 91 47
3 92 299 301
3 301 300 91
3 299 300 301
3 92 302 303
3 93 304 306
3 306 305 92
3 304 305 306
3 93 307 308
3 93 309 310
3 94 311 313
3 313 312 93
3 311 312 313
3 94 314 316
3 314 22 315
3 314 315 316
3 49 94 23
3 95 94 49
3 95 22 94
3 95 90 22
3 96 90 95
3 96 0 90
3 96 69 0
3 97 69 96
3 97 15 69
3 51 97 24
3 98 97 51
3 98 15 97
3 98 35 15
3 99 35 98
3 99 2 35
3 65 52 6
3 100 52 65
3 100 25 52
3 54 100 13
3 101 100 54
3 101 25 100
3 101 99 25
3 102 99 101
3 102 2 99
3 102 317 319
3 319 318 2
3 317 318 319
3 321 320 102
3 323 322 26
