ply
format ascii 1.0
element vertex 198
property float x
property float y
property float z
element face 182
property list uchar int vertex_index
end_header
-35.148685 -51.245071 -27.766279
-38.858257 -38.903675 -29.740751
-31.18865 -58.61401 -18.369013
-29.037773 -61.590431 -13.45422
-37.220871 -44.971561 -28.831141
-36.772202 -46.657646 -32.181549
-38.657768 -40.019566 -33.223282
-30.784777 -61.12011 -22.07172
-33.197727 -55.278038 -22.870277
-31.318205 -56.413811 -14.626274
-33.379097 -53.253422 -19.32214
-35.463818 -49.272774 -24.088095
-33.942715 -54.462208 -27.123306
-34.820553 -52.351643 -29.500898
-38.074177 -41.988083 -29.321905
-37.956863 -42.66539 -31.029388
-38.770679 -39.540642 -31.556719
-29.998699 -61.371464 -17.831785
-29.7635 -62.674927 -19.559109
-31.028357 -59.831558 -20.177551
-32.04491 -58.132584 -22.427734
-32.221142 -56.993488 -20.706776
-30.293507 -57.760975 -12.108358
-34.444359 -51.336449 -21.720293
-35.460522 -48.580826 -22.295874
-36.429035 -46.440403 -24.646891
-37.485973 -43.980644 -34.592491
-30.07925 -60.206444 -15.849923
-36.191879 -48.197758 -28.16534
-35.98563 -49.058937 -29.952686
-37.003952 -45.917549 -30.518559
-37.767487 -43.348026 -32.746376
-38.392906 -40.752834 -34.986279
-30.472883 -62.3451 -24.020983
-31.813005 -59.274349 -24.318327
-33.02095 -56.367771 -24.794743
-34.227577 -53.277561 -25.314302
-30.170952 -58.98251 -13.921995
-31.240749 -57.52845 -16.436089
-32.39452 -54.798153 -17.017008
-32.283913 -55.955547 -18.79664
-33.373547 -54.095325 -21.153658
-34.388844 -52.241985 -23.57583
-35.326813 -50.272568 -25.85429
-36.346443 -47.313549 -26.512373
-37.291943 -44.276718 -26.994871
-35.518076 -48.066671 -21.484909
-34.981506 -49.50198 -21.158984
-35.954162 -47.151862 -22.596706
-35.518076 -48.066671 -21.484909
-37.239569 -44.432823 -35.465496
-37.778704 -42.625442 -35.682764
-28.982532 -62.216143 -14.420264
-28.401073 -63.482458 -14.088778
-28.456315 -62.856746 -13.122734
-29.558512 -60.898438 -14.652071
-29.50327 -61.524149 -15.618115
-28.982532 -62.216143 -14.420264
-30.124112 -62.566124 -21.766716
-29.613474 -63.343532 -20.51041
-30.274138 -61.897518 -20.815414
-30.62883 -61.732605 -23.046352
-29.968165 -63.178619 -22.741347
-30.124112 -62.566124 -21.766716
-32.886809 -54.025787 -18.169574
-32.918173 -53.525915 -17.292295
-33.410461 -52.75355 -18.444861
-37.320609 -43.903134 -26.126629
-36.860489 -45.358561 -25.820881
-36.889155 -44.984976 -24.952639
-37.730439 -42.741125 -27.290273
-37.320609 -43.903134 -26.126629
-36.236025 -48.252892 -32.006225
-35.842739 -49.453537 -30.891793
-36.378916 -47.858291 -31.067117
-33.786997 -54.949993 -28.081634
-33.350773 -55.945385 -26.957148
-34.225916 -53.894711 -29.27043
-33.786997 -54.949993 -28.081634
-34.381634 -53.406925 -28.312102
-34.642893 -52.774755 -30.420026
-34.225916 -53.894711 -29.27043
-28.497792 -62.255039 -12.132326
-28.456315 -62.856746 -13.122734
-29.881099 -62.023195 -18.695447
-29.250974 -63.424374 -18.423482
-29.368573 -62.772642 -17.55982
-30.315108 -57.285706 -11.187594
-29.772171 -58.475448 -10.906739
-30.863733 -56.527681 -12.514366
-30.315108 -57.285706 -11.187594
-30.885333 -56.052412 -11.593602
-31.376081 -55.8541 -13.773324
-30.805856 -57.087393 -13.367316
-30.863733 -56.527681 -12.514366
-33.940794 -51.838278 -19.672117
-33.410461 -52.75355 -18.444861
-34.473425 -50.879791 -20.871193
-33.911728 -52.294936 -20.521217
-33.940794 -51.838278 -19.672117
-34.95244 -49.958638 -22.008084
-34.473425 -50.879791 -20.871193
-34.981506 -49.50198 -21.158984
-36.438419 -46.08165 -23.772215
-35.944778 -47.510615 -23.471383
-35.954162 -47.151862 -22.596706
-36.889155 -44.984976 -24.952639
-36.438419 -46.08165 -23.772215
-36.950708 -45.687634 -34.348417
-36.593823 -47.026134 -33.142946
-37.129087 -45.319145 -33.38702
-36.950708 -45.687634 -34.348417
-37.239569 -44.432823 -35.465496
-39.170209 -37.643541 -30.810372
-39.213446 -37.289451 -29.973745
-29.462995 -62.106659 -16.609046
-29.368573 -62.772642 -17.55982
-30.038974 -60.788954 -16.840854
-29.462995 -62.106659 -16.609046
-29.50327 -61.524149 -15.618115
-38.23217 -41.011538 -35.879658
-37.778704 -42.625442 -35.682764
-37.93944 -42.366739 -34.789385
-39.126421 -37.962025 -31.718356
-38.814468 -39.222158 -30.648735
-39.170209 -37.643541 -30.810372
-39.093767 -38.14284 -32.640076
-39.126421 -37.962025 -31.718356
-39.037312 -38.382301 -33.473358
-38.714224 -39.780104 -32.39
-39.093767 -38.14284 -32.640076
-38.925657 -38.74942 -34.325348
-39.037312 -38.382301 -33.473358
-38.793226 -39.116055 -35.206846
-38.525337 -40.3862 -34.104781
-38.925657 -38.74942 -34.325348
-38.671166 -39.295332 -36.136055
-38.793226 -39.116055 -35.206846
-38.23217 -41.011538 -35.879658
-38.671166 -39.295332 -36.136055
-29.110556 -64.13644 -19.42149
-29.250974 -63.424374 -18.423482
-29.110556 -64.13644 -19.42149
-29.613474 -63.343532 -20.51041
-29.771251 -63.848362 -23.775091
-29.968165 -63.178619 -22.741347
-30.258595 -62.943962 -24.970801
-29.556964 -64.447224 -24.724908
-29.771251 -63.848362 -23.775091
-30.980466 -61.362364 -25.167615
-30.258595 -62.943962 -24.970801
-31.650528 -59.826988 -25.316287
-30.980466 -61.362364 -25.167615
-31.142944 -60.809725 -24.169655
-32.285918 -58.351456 -25.554659
-31.650528 -59.826988 -25.316287
-32.88989 -56.898167 -25.792867
-32.285918 -58.351456 -25.554659
-32.416978 -57.82106 -24.556535
-33.481832 -55.414989 -25.959024
-33.350773 -55.945385 -26.957148
-32.88989 -56.898167 -25.792867
-29.069872 -61.0023 -12.465115
-28.497792 -62.255039 -12.132326
-29.697739 -59.087572 -11.792185
-29.772171 -58.475448 -10.906739
-29.636461 -59.69834 -12.699003
-29.697739 -59.087572 -11.792185
-30.23223 -58.371742 -13.015177
-29.604363 -60.286471 -13.688108
-29.069872 -61.0023 -12.465115
-29.636461 -59.69834 -12.699003
-31.871799 -55.114975 -14.894367
-31.376081 -55.8541 -13.773324
-32.409956 -54.307146 -16.089734
-32.918173 -53.525915 -17.292295
-31.856362 -55.605982 -15.821641
-31.871799 -55.114975 -14.894367
-32.409956 -54.307146 -16.089734
-38.121555 -41.596807 -28.453789
-37.68306 -43.132401 -28.158388
-37.730439 -42.741125 -27.290273
-38.513596 -40.054603 -28.663213
-38.466217 -40.445879 -29.531328
-38.121555 -41.596807 -28.453789
-38.878079 -38.592216 -28.849901
-38.513596 -40.054603 -28.663213
-38.533417 -39.743145 -27.772362
-39.233267 -36.977993 -29.082895
-39.213446 -37.289451 -29.973745
-38.878079 -38.592216 -28.849901
-35.2602 -51.09989 -30.665899
-35.403092 -50.70529 -29.726792
-35.842739 -49.453537 -30.891793
-34.642893 -52.774755 -30.420026
-35.2602 -51.09989 -30.665899
-36.236025 -48.252892 -32.006225
-36.593823 -47.026134 -33.142946
3 0 13 12
3 1 16 14
3 2 19 17
3 2 21 19
3 46 24 47
3 49 48 24
3 51 50 26
3 3 52 54
3 52 53 54
3 3 55 57
3 55 27 56
3 55 56 57
3 4 30 28
3 6 31 15
3 6 32 31
3 7 58 60
3 60 59 18
3 58 59 60
3 7 61 63
3 61 33 62
3 61 62 63
3 7 34 33
3 8 35 20
3 8 36 35
3 9 37 22
3 9 38 37
3 10 64 66
3 64 39 65
3 64 65 66
3 10 40 39
3 10 41 40
3 11 42 23
3 11 43 42
3 11 44 43
3 67 45 68
3 69 68 25
3 67 68 69
3 71 70 45
3 5 72 74
3 74 73 29
3 72 73 74
3 12 75 76
3 13 77 79
3 79 78 12
3 77 78 79
3 13 80 81
3 82 3 83
3 14 15 4
3 16 15 14
3 16 6 15
3 17 84 86
3 84 18 85
3 84 85 86
3 19 18 17
3 19 7 18
3 19 20 7
3 21 20 19
3 21 8 20
3 87 22 88
3 89 22 90
3 89 90 91
3 92 9 93
3 94 93 22
3 92 93 94
3 95 10 96
3 97 23 98
3 99 98 10
3 97 98 99
3 24 100 102
3 100 23 101
3 100 101 102
3 24 11 23
3 24 25 11
3 103 25 104
3 105 104 24
3 103 104 105
3 107 106 25
3 26 108 110
3 110 109 5
3 108 109 110
3 112 111 26
3 114 113 1
3 115 17 116
3 27 117 119
3 117 17 118
3 117 118 119
3 27 2 17
3 28 29 0
3 30 29 28
3 30 5 29
3 15 30 4
3 31 30 15
3 31 5 30
3 31 26 5
3 32 26 31
3 32 120 122
3 122 121 26
3 120 121 122
3 123 16 124
3 125 124 1
3 123 124 125
3 126 16 127
3 128 6 129
3 130 129 16
3 128 129 130
3 131 6 132
3 133 32 134
3 135 134 6
3 133 134 135
3 136 32 137
3 139 138 32
3 18 140 141
3 143 142 18
3 33 144 145
3 33 146 148
3 146 147 148
3 33 149 150
3 34 151 153
3 153 152 33
3 151 152 153
3 34 154 155
3 20 34 7
3 35 34 20
3 35 156 158
3 158 157 34
3 156 157 158
3 35 159 161
3 159 12 160
3 159 160 161
3 36 12 35
3 36 0 12
3 162 3 163
3 22 164 165
3 37 166 168
3 168 167 22
3 166 167 168
3 37 169 171
3 169 3 170
3 169 170 171
3 37 27 3
3 38 27 37
3 38 2 27
3 172 9 173
3 39 174 175
3 39 176 178
3 176 9 177
3 176 177 178
3 39 38 9
3 40 38 39
3 40 2 38
3 40 21 2
3 41 21 40
3 41 8 21
3 23 41 10
3 42 41 23
3 42 8 41
3 42 36 8
3 43 36 42
3 43 0 36
3 43 28 0
3 44 28 43
3 44 4 28
3 25 44 11
3 45 44 25
3 45 4 44
3 45 14 4
3 179 14 180
3 181 180 45
3 179 180 181
3 182 1 183
3 184 183 14
3 182 183 184
3 185 1 186
3 185 186 187
3 190 189 1
3 188 189 190
3 29 13 0
3 191 13 192
3 193 192 29
3 191 192 193
3 195 194 13
3 197 196 5
