ply
format ascii 1.0
element vertex 375
property float x
property float y
property float z
element face 391
property list uchar int vertex_index
end_header
-17.923731 45.438148 -13.953789
-12.425122 54.121861 -24.873646
-14.900738 50.609085 -18.703987
-21.764774 39.745575 -10.673367
-19.004997 59.587944 -16.720751
-15.85246 64.37944 -23.019209
-12.48711 66.273621 -29.889446
-15.91251 40.720615 -14.79933
-14.559677 43.410576 -17.164331
-16.285452 48.088737 -16.163521
-19.313993 66.027023 -18.368132
-17.45681 62.258091 -19.724245
-17.604107 68.542824 -22.009205
-10.688843 65.955139 -33.353569
-13.653937 52.631321 -21.55051
-19.688702 42.520374 -12.161512
-24.083126 43.37822 -9.401538
-22.149315 46.471802 -10.962933
-20.173452 49.689896 -12.975215
-20.654762 56.744801 -13.944818
-18.484352 52.733833 -15.215091
-16.901487 55.529472 -17.816648
-15.353825 57.491364 -20.660889
-13.958344 59.415379 -23.849436
-15.834935 70.027657 -25.490309
-14.122559 65.401917 -26.403276
-12.566044 60.563324 -27.199631
-11.176456 61.094589 -30.650217
-17.659845 41.897511 -13.459181
-16.683155 39.506409 -13.811818
-16.854191 43.215263 -14.403956
-16.092882 44.685192 -15.49412
-17.084568 46.709709 -14.987539
-20.102865 67.706093 -17.394646
-19.27042 69.214073 -19.315285
-18.490591 67.390282 -20.155788
-18.387766 70.473465 -21.258465
-10.55768 70.834579 -34.834972
-12.41248 50.859859 -23.85203
-11.900061 54.910618 -26.570856
-14.684041 47.096119 -17.935284
-13.94795 44.398041 -18.466822
-14.043346 48.258385 -19.336161
-13.439619 48.981102 -20.741711
-14.252924 51.683689 -20.107439
-19.473169 38.744396 -11.768594
-20.653734 40.965454 -11.389849
-21.114014 47.955341 -11.929013
-21.321411 51.603271 -12.266465
-20.068932 61.410843 -15.863936
-20.827814 60.02454 -14.44767
-19.845474 58.194256 -15.2747
-19.543245 54.635159 -14.658357
-18.802691 56.339611 -15.927645
-17.665735 54.014778 -16.437744
-17.977751 57.480202 -17.237047
-16.635056 63.257915 -21.320906
-16.346647 59.945427 -20.277931
-15.631886 60.996468 -21.792269
-14.638823 58.533211 -22.24951
-14.89107 61.934082 -23.414854
-13.129295 68.877228 -29.736654
-14.034595 68.285751 -27.86471
-13.329105 65.981529 -28.137232
-13.352017 62.997948 -26.705345
-12.60647 63.544796 -28.460585
-11.91768 60.868813 -28.798819
-11.798856 63.627026 -30.206062
-15.780096 36.771187 -14.192282
-15.063786 38.049023 -15.301553
-14.460845 39.53228 -16.50481
-15.213411 41.902962 -15.878244
-15.341282 45.762302 -16.650867
-15.591695 49.429035 -17.373459
-20.123369 64.566666 -16.617033
-19.246082 62.691372 -17.414698
-18.269958 61.066505 -18.169508
-18.478825 64.159836 -19.0319
-17.679077 65.507431 -20.735655
-16.795576 66.273018 -22.40317
-12.18896 68.932205 -31.472622
-11.604223 66.272835 -31.636324
-11.222514 68.732826 -33.174057
-10.239335 68.154869 -34.791508
-10.837894 55.692764 -29.99136
-13.925947 40.594639 -17.715031
-12.942358 50.311569 -22.288612
-13.04883 53.629486 -23.192368
-18.509975 40.276424 -12.572555
-18.731424 43.855881 -13.021114
-22.969656 41.7262 -10.129949
-23.086899 45.057831 -10.164412
-21.899641 43.048851 -10.861853
-20.955971 44.621494 -11.626888
-19.908154 46.009136 -12.544272
-18.996605 47.529789 -13.517964
-20.400572 53.311069 -13.478413
-19.253963 51.145145 -14.083226
-18.126448 48.959507 -14.575479
-17.372152 50.39817 -15.667619
-16.551231 51.795357 -16.964273
-15.870951 53.159771 -18.248013
-17.232428 59.004185 -18.710884
-16.161358 56.657784 -19.17783
-15.152761 54.169891 -19.610638
-14.459661 55.075455 -21.057835
-13.801051 55.978157 -22.603994
-13.142571 56.788914 -24.271809
-17.506281 71.493088 -23.115316
-16.764822 69.329475 -23.680523
-15.923971 67.337746 -24.243851
-14.860387 70.702179 -27.392378
-14.941196 67.892677 -26.115395
-14.989541 65.061096 -24.737007
-14.12359 62.551716 -25.041231
-13.236779 59.996063 -25.520069
-12.478397 57.336563 -25.993746
-11.906801 57.967453 -27.65444
-11.330428 58.436722 -29.33025
-10.960257 63.580563 -32.02412
-19.152792 70.691761 -19.802986
-19.598537 69.9827 -18.758877
-18.711465 71.321457 -20.774577
-18.829093 69.843769 -20.286875
-19.152792 70.691761 -19.802986
-12.174961 52.908343 -25.212513
-12.16864 51.277341 -24.701705
-12.418801 52.49086 -24.362838
-12.162592 54.516239 -25.722251
-11.91243 53.302721 -26.061118
-12.174961 52.908343 -25.212513
-21.134189 38.513039 -10.865471
-21.675844 37.880768 -10.557203
-21.209254 40.355514 -11.031608
-20.57867 39.122978 -11.223712
-21.134189 38.513039 -10.865471
-21.821092 52.435394 -11.839547
-21.766972 50.674673 -11.729418
-11.940324 70.117081 -32.261478
-12.498303 70.173813 -31.322226
-11.457101 70.017391 -33.112196
-11.705737 68.832515 -32.32334
-11.940324 70.117081 -32.261478
-9.83927 69.092998 -35.637682
-10.398508 69.494724 -34.81324
-9.998442 70.432853 -35.659414
-9.689032 67.735191 -35.672049
-9.83927 69.092998 -35.637682
-11.109937 55.568157 -29.122771
-10.93362 54.182144 -29.423409
-13.669069 43.054678 -18.812793
-13.684128 44.880547 -19.135288
-24.111857 41.766167 -9.402036
-24.631801 42.542828 -9.025092
-23.526391 42.55221 -9.765743
-23.555122 40.940157 -9.766241
-24.111857 41.766167 -9.402036
-22.618107 45.764816 -10.563672
-23.117997 46.726452 -10.192664
-22.649205 47.433437 -10.591925
-21.139363 57.569437 -13.467127
-21.225889 59.209306 -13.718553
-20.741288 58.38467 -14.196244
-21.061761 55.926701 -13.303554
-21.139363 57.569437 -13.467127
-20.527667 55.027935 -13.711616
-20.934666 54.209835 -13.070352
-21.061761 55.926701 -13.303554
-17.35166 72.952766 -23.688506
-17.826034 72.440415 -22.694482
-16.299878 69.678566 -24.585416
-16.680557 70.743358 -24.291642
-16.215613 71.09245 -25.196535
-14.358944 70.874229 -28.316482
-14.68048 72.087562 -28.11943
-10.925666 59.715401 -30.863659
-11.002651 58.386467 -30.203675
-11.253442 59.765656 -29.990234
-17.1715 40.70196 -13.635499
-17.087041 38.852161 -13.371721
-17.575386 40.047713 -13.195402
-20.014759 69.228711 -17.798558
-20.405045 68.475319 -16.829352
-19.686643 68.460083 -18.354965
-20.014759 69.228711 -17.798558
-19.598537 69.9827 -18.758877
-10.773947 72.069423 -34.70218
-11.124684 71.068268 -33.942653
-10.159382 71.785286 -35.585453
-10.773947 72.069423 -34.70218
-9.998442 70.432853 -35.659414
-10.159382 71.785286 -35.585453
-12.199013 49.565886 -24.263047
-12.432734 49.207621 -23.38563
-12.199013 49.565886 -24.263047
-12.16864 51.277341 -24.701705
-11.68714 53.553763 -26.875051
-11.91243 53.302721 -26.061118
-11.64102 55.177084 -27.41252
-11.68714 53.553763 -26.875051
-13.731825 46.810719 -19.569957
-13.684128 44.880547 -19.135288
-13.995648 46.328213 -18.901491
-13.741483 48.619743 -20.038936
-13.429962 47.172077 -20.272732
-13.731825 46.810719 -19.569957
-19.988387 38.012449 -11.413085
-19.385615 37.002584 -11.585759
-20.063451 39.854925 -11.579221
-19.988387 38.012449 -11.413085
-20.57867 39.122978 -11.223712
-24.578694 44.132702 -8.928665
-24.631801 42.542828 -9.025092
-22.180923 48.108938 -11.077651
-22.649205 47.433437 -10.591925
-21.663273 48.850708 -11.560692
-21.631664 47.213572 -11.445973
-22.180923 48.108938 -11.077651
-21.217713 49.779306 -12.097739
-21.663273 48.850708 -11.560692
-21.766972 50.674673 -11.729418
-20.448373 60.717692 -15.155803
-20.847017 61.656159 -14.763349
-20.467576 62.34931 -15.471482
-15.716144 71.510563 -26.175328
-16.215613 71.09245 -25.196535
-13.581945 68.58149 -28.800682
-13.946048 69.666016 -28.552647
-13.493398 69.961754 -29.488619
-10.425043 64.628822 -33.521961
-10.199673 65.722191 -34.254593
-16.609106 37.594257 -13.541974
-17.087041 38.852161 -13.371721
-16.157576 36.226647 -13.732206
-16.609106 37.594257 -13.541974
-16.231625 38.138798 -14.00205
-15.742439 34.863911 -13.936151
-16.157576 36.226647 -13.732206
-15.417818 35.461849 -14.444167
-15.742439 34.863911 -13.936151
-15.059663 36.100768 -14.998803
-15.417818 35.461849 -14.444167
-15.421941 37.410105 -14.746918
-14.764401 36.753963 -15.583333
-15.059663 36.100768 -14.998803
-14.762315 38.790651 -15.903181
-14.462931 37.495592 -16.184961
-14.764401 36.753963 -15.583333
-22.322125 38.996445 -10.346395
-21.675844 37.880768 -10.557203
-20.483486 66.990673 -16.509411
-20.405045 68.475319 -16.829352
-20.493738 65.42096 -16.120605
-20.483486 66.990673 -16.509411
-20.113117 66.13638 -17.00584
-20.494794 63.927222 -15.848031
-20.493738 65.42096 -16.120605
-20.096151 62.988754 -16.240485
-20.467576 62.34931 -15.471482
-20.494794 63.927222 -15.848031
-12.968471 70.146324 -30.454242
-13.493398 69.961754 -29.488619
-12.659128 68.904717 -30.604638
-12.968471 70.146324 -30.454242
-12.498303 70.173813 -31.322226
-10.890097 69.783703 -34.004514
-11.457101 70.017391 -33.112196
-11.124684 71.068268 -33.942653
-9.974919 66.822056 -34.973562
-10.199673 65.722191 -34.254593
-10.464089 67.055004 -34.072539
-9.974919 66.822056 -34.973562
-9.689032 67.735191 -35.672049
-10.68864 54.388355 -30.350546
-10.93362 54.182144 -29.423409
-10.573692 55.74299 -30.827942
-10.424438 54.438581 -31.187128
-10.68864 54.388355 -30.350546
-14.214023 38.223879 -16.808189
-14.462931 37.495592 -16.184961
-13.946573 38.755059 -17.4133
-14.214023 38.223879 -16.808189
-14.193396 40.06346 -17.109921
-13.703598 39.392125 -18.133722
-13.946573 38.755059 -17.4133
-13.658068 41.152977 -18.436898
-13.936948 42.49634 -18.090927
-13.669069 43.054678 -18.812793
-13.435719 39.950463 -18.855589
-13.703598 39.392125 -18.133722
-13.658068 41.152977 -18.436898
-13.172208 47.756054 -21.052881
-13.429962 47.172077 -20.272732
-12.923578 48.421287 -21.826331
-13.172208 47.756054 -21.052881
-13.190988 49.646335 -21.515161
-12.697672 48.933476 -22.603921
-12.923578 48.421287 -21.826331
-12.677419 50.585714 -23.070321
-12.432734 49.207621 -23.38563
-12.697672 48.933476 -22.603921
-18.878079 37.600978 -11.949742
-19.385615 37.002584 -11.585759
-18.396483 38.366992 -12.351723
-18.878079 37.600978 -11.949742
-18.991572 39.51041 -12.170575
-18.000451 39.237169 -12.752089
-18.396483 38.366992 -12.351723
-18.08491 41.086968 -13.015868
-17.575386 40.047713 -13.195402
-18.000451 39.237169 -12.752089
-22.924567 39.986757 -10.074686
-23.510033 39.200714 -9.710978
-23.555122 40.940157 -9.766241
-22.367215 40.735888 -10.401658
-22.322125 38.996445 -10.346395
-22.924567 39.986757 -10.074686
-24.075976 45.007511 -9.367657
-24.578694 44.132702 -8.928665
-23.577863 45.847317 -9.749094
-23.117997 46.726452 -10.192664
-23.585012 44.218025 -9.782975
-24.075976 45.007511 -9.367657
-23.577863 45.847317 -9.749094
-21.220538 60.774653 -13.961298
-20.847017 61.656159 -14.763349
-21.220538 60.774653 -13.961298
-21.225889 59.209306 -13.718553
-21.395086 53.355936 -12.464378
-21.821092 52.435394 -11.839547
-20.860992 52.45717 -12.872439
-21.395086 53.355936 -12.464378
-20.934666 54.209835 -13.070352
-18.266777 71.930603 -21.766057
-18.711465 71.321457 -20.774577
-17.947024 70.983277 -22.186891
-18.266777 71.930603 -21.766057
-17.826034 72.440415 -22.694482
-17.051286 71.825165 -24.009039
-17.35166 72.952766 -23.688506
-17.135551 70.411282 -23.39792
-17.051286 71.825165 -24.009039
-16.680557 70.743358 -24.291642
-15.22887 71.847824 -27.126362
-14.68048 72.087562 -28.11943
-15.347661 70.364918 -26.441344
-15.716144 71.510563 -26.175328
-15.22887 71.847824 -27.126362
-14.447491 69.493965 -27.628544
-14.358944 70.874229 -28.316482
-13.946048 69.666016 -28.552647
-11.644391 56.705501 -27.954312
-11.64102 55.177084 -27.41252
-11.903431 56.439036 -27.112648
-11.356204 56.940136 -28.792217
-11.644391 56.705501 -27.954312
-11.618614 58.202088 -28.492345
-11.084161 57.064743 -29.660805
-11.109937 55.568157 -29.122771
-11.356204 56.940136 -28.792217
-10.756384 57.014488 -30.53423
-11.084161 57.064743 -29.660805
-11.002651 58.386467 -30.203675
-10.573692 55.74299 -30.827942
-10.756384 57.014488 -30.53423
-10.56075 63.441534 -32.857236
-10.82455 64.767851 -32.688845
-10.425043 64.628822 -33.521961
-10.706106 62.192564 -32.174872
-10.56075 63.441534 -32.857236
-10.814205 60.949577 -31.48792
-11.068357 62.337576 -31.337169
-10.706106 62.192564 -32.174872
-10.925666 59.715401 -30.863659
-10.814205 60.949577 -31.48792
3 0 30 28
3 0 32 30
3 120 34 121
3 122 36 123
3 124 123 34
3 122 123 124
3 1 125 127
3 127 126 38
3 125 126 127
3 1 128 130
3 128 39 129
3 128 129 130
3 2 42 40
3 2 44 42
3 3 131 132
3 3 133 135
3 133 46 134
3 133 134 135
3 136 48 137
3 4 51 49
3 4 53 51
3 4 55 53
3 5 58 56
3 5 60 58
3 6 63 61
3 6 65 63
3 6 67 65
3 7 68 29
3 7 69 68
3 7 71 69
3 9 72 31
3 9 73 72
3 10 74 33
3 10 75 74
3 10 77 75
3 12 78 35
3 12 79 78
3 138 80 139
3 140 82 141
3 142 141 80
3 140 141 142
3 143 83 144
3 145 144 37
3 143 144 145
3 147 146 83
3 148 84 149
3 8 85 70
3 151 150 41
3 14 86 43
3 14 87 86
3 15 88 45
3 15 89 88
3 16 152 153
3 16 154 156
3 154 90 155
3 154 155 156
3 17 157 159
3 157 91 158
3 157 158 159
3 17 92 91
3 17 93 92
3 18 94 47
3 18 95 94
3 19 160 162
3 162 161 50
3 160 161 162
3 19 163 164
3 19 165 167
3 165 96 166
3 165 166 167
3 20 97 52
3 20 98 97
3 20 99 98
3 21 100 54
3 21 101 100
3 11 102 76
3 22 103 57
3 22 104 103
3 22 105 104
3 23 106 59
3 23 107 106
3 168 108 169
3 24 170 172
3 170 109 171
3 170 171 172
3 24 110 109
3 173 111 174
3 25 112 62
3 25 113 112
3 25 114 113
3 26 115 64
3 26 116 115
3 26 117 116
3 27 118 66
3 27 175 177
3 177 176 118
3 175 176 177
3 13 119 81
3 28 178 180
3 178 29 179
3 178 179 180
3 30 29 28
3 30 7 29
3 30 31 7
3 32 31 30
3 32 9 31
3 181 33 182
3 34 183 185
3 183 33 184
3 183 184 185
3 34 10 33
3 34 35 10
3 36 35 34
3 36 12 35
3 186 37 187
3 188 37 189
3 191 190 37
3 38 192 193
3 195 194 38
3 39 196 197
3 39 198 199
3 40 41 8
3 42 41 40
3 42 200 202
3 202 201 41
3 200 201 202
3 42 203 205
3 203 43 204
3 203 204 205
3 44 43 42
3 44 14 43
3 206 45 207
3 46 208 210
3 208 45 209
3 208 209 210
3 46 15 45
3 211 16 212
3 213 17 214
3 215 47 216
3 217 216 17
3 215 216 217
3 48 218 220
3 218 47 219
3 218 219 220
3 48 18 47
3 49 221 223
3 221 50 222
3 221 222 223
3 51 50 49
3 51 19 50
3 51 52 19
3 53 52 51
3 53 20 52
3 53 54 20
3 55 54 53
3 55 21 54
3 56 57 11
3 58 57 56
3 58 22 57
3 58 59 22
3 60 59 58
3 60 23 59
3 224 24 225
3 61 226 228
3 226 62 227
3 226 227 228
3 63 62 61
3 63 25 62
3 63 64 25
3 65 64 63
3 65 26 64
3 65 66 26
3 67 66 65
3 67 27 66
3 230 229 13
3 29 231 232
3 68 233 235
3 235 234 29
3 233 234 235
3 68 236 237
3 68 238 239
3 69 240 242
3 242 241 68
3 240 241 242
3 69 243 244
3 69 245 247
3 245 70 246
3 245 246 247
3 71 70 69
3 71 8 70
3 31 71 7
3 72 71 31
3 72 8 71
3 72 40 8
3 73 40 72
3 73 2 40
3 248 3 249
3 33 250 251
3 74 252 254
3 254 253 33
3 252 253 254
3 74 255 256
3 74 257 259
3 257 49 258
3 257 258 259
3 75 49 74
3 75 4 49
3 75 76 4
3 77 76 75
3 77 11 76
3 35 77 10
3 78 77 35
3 78 11 77
3 78 56 11
3 79 56 78
3 79 5 56
3 260 61 261
3 80 262 264
3 262 61 263
3 262 263 264
3 80 6 61
3 80 81 6
3 82 81 80
3 82 13 81
3 37 265 267
3 265 82 266
3 265 266 267
3 83 82 37
3 83 13 82
3 83 268 270
3 270 269 13
3 268 269 270
3 272 271 83
3 84 273 274
3 84 275 277
3 275 276 277
3 70 278 279
3 85 280 282
3 282 281 70
3 280 281 282
3 85 283 284
3 41 85 8
3 285 85 286
3 287 286 41
3 285 286 287
3 290 289 85
3 288 289 290
3 43 291 292
3 86 293 295
3 295 294 43
3 293 294 295
3 86 296 297
3 86 298 300
3 298 38 299
3 298 299 300
3 87 38 86
3 87 1 38
3 45 301 302
3 88 303 305
3 305 304 45
3 303 304 305
3 88 306 307
3 88 308 310
3 308 28 309
3 308 309 310
3 89 28 88
3 89 0 28
3 90 311 313
3 311 312 313
3 90 314 316
3 314 3 315
3 314 315 316
3 317 16 318
3 91 319 320
3 91 321 323
3 321 16 322
3 321 322 323
3 91 90 16
3 92 90 91
3 92 3 90
3 92 46 3
3 93 46 92
3 93 15 46
3 47 93 17
3 94 93 47
3 94 15 93
3 94 89 15
3 95 89 94
3 95 0 89
3 50 324 325
3 327 326 50
3 328 48 329
3 96 330 332
3 330 48 331
3 330 331 332
3 96 18 48
3 52 96 19
3 97 96 52
3 97 18 96
3 97 95 18
3 98 95 97
3 98 0 95
3 98 32 0
3 99 32 98
3 99 9 32
3 54 99 20
3 100 99 54
3 100 9 99
3 100 73 9
3 101 73 100
3 101 2 73
3 76 55 4
3 102 55 76
3 102 21 55
3 57 102 11
3 103 102 57
3 103 21 102
3 103 101 21
3 104 101 103
3 104 2 101
3 104 44 2
3 105 44 104
3 105 14 44
3 59 105 22
3 106 105 59
3 106 14 105
3 106 87 14
3 107 87 106
3 107 1 87
3 333 36 334
3 108 335 337
3 335 36 336
3 335 336 337
3 108 12 36
3 338 108 339
3 109 340 342
3 340 108 341
3 340 341 342
3 109 12 108
3 109 79 12
3 110 79 109
3 110 5 79
3 111 343 344
3 111 345 347
3 345 24 346
3 345 346 347
3 62 348 350
3 348 111 349
3 348 349 350
3 112 111 62
3 112 24 111
3 112 110 24
3 113 110 112
3 113 5 110
3 113 60 5
3 114 60 113
3 114 23 60
3 64 114 25
3 115 114 64
3 115 23 114
3 115 107 23
3 116 107 115
3 116 1 107
3 116 39 1
3 117 39 116
3 117 351 353
3 353 352 39
3 351 352 353
3 66 117 26
3 118 117 66
3 118 354 356
3 356 355 117
3 354 355 356
3 118 357 359
3 357 84 358
3 357 358 359
3 360 84 361
3 362 361 118
3 360 361 362
3 364 363 84
3 81 67 6
3 119 67 81
3 119 27 67
3 365 119 366
3 367 366 13
3 365 366 367
3 368 119 369
3 370 27 371
3 372 371 119
3 370 371 372
3 374 373 27
