ply
format ascii 1.0
element vertex 228
property float x
property float y
property float z
element face 218
property list uchar int vertex_index
end_header
-39.190456 -2.62526 -53.58268
-35.007565 10.496861 -59.908096
-28.242828 21.245871 -64.30249
-37.065346 9.107649 -55.223106
-34.368629 15.029756 -57.674561
-24.44957 25.215597 -65.214546
-28.847717 16.65897 -66.45977
-37.309132 -2.181242 -57.827549
-37.452198 3.990263 -56.891773
-35.185242 4.569337 -61.085182
-27.601126 24.130507 -60.793674
-31.315235 19.804424 -59.483944
-31.949991 16.096741 -62.474487
-32.286018 10.947341 -64.116905
-35.458633 13.948095 -55.00703
-33.998215 16.588345 -56.015553
-39.826672 -5.885133 -51.826439
-39.11235 -5.688902 -53.922504
-38.146416 -5.523959 -56.077244
-38.335632 -2.36342 -55.773006
-36.129929 9.811992 -57.620647
-37.29528 6.738202 -56.199741
-36.29493 7.395437 -58.463852
-36.466637 4.315364 -58.953491
-35.197468 7.647876 -60.561531
-26.357977 23.291567 -64.944374
-26.09791 24.82729 -63.032444
-27.88802 22.89959 -62.784714
-29.464836 22.044754 -60.429657
-29.883581 20.593426 -62.003124
-31.691265 18.048475 -61.213924
-30.118694 18.852757 -63.483826
-28.968531 13.977408 -67.094627
-30.709639 13.811458 -65.313866
-30.690634 11.055087 -65.899429
-32.201202 7.952474 -64.613464
-35.856537 12.078882 -56.403164
-34.807022 12.891461 -58.80069
-20.49354 27.056665 -67.222649
-22.371431 26.940001 -65.427238
-22.725697 25.414749 -67.030914
-24.613796 23.479828 -66.959877
-26.572578 21.423712 -66.431396
-28.553568 19.203978 -65.52993
-36.105968 -2.086677 -59.729275
-38.265671 3.680221 -54.733665
-38.423107 0.614936 -55.221249
-37.424953 0.918329 -57.521038
-36.371826 1.224092 -59.428322
-35.064949 1.458679 -61.34222
-24.131124 26.555477 -63.361824
-32.482513 18.888277 -56.975891
-32.924576 17.417109 -58.719822
-33.335495 15.475577 -60.120365
-33.568474 13.294873 -61.28854
-30.362516 16.625256 -64.631783
-32.20118 13.669215 -63.407391
-33.764858 10.699701 -62.090122
-33.839809 7.909064 -62.617634
-33.669357 4.801821 -63.086945
-33.663443 17.322145 -55.169849
-34.427917 16.086129 -54.761755
-29.728547 11.12658 -66.754704
-29.829583 12.516248 -66.497028
-28.867495 12.587741 -67.352303
-30.562022 9.600538 -66.111934
-29.728547 11.12658 -66.754704
-21.751562 25.3647 -67.886246
-21.609618 26.235707 -67.126781
-20.635484 26.185657 -67.982113
-24.737913 22.459799 -67.563202
-23.677335 23.521289 -67.783897
-25.717304 21.431741 -67.298962
-25.593187 22.45177 -66.695637
-24.737913 22.459799 -67.563202
-26.780609 20.274433 -66.891533
-25.717304 21.431741 -67.298962
-37.230837 -3.880407 -57.819134
-37.649479 -5.551766 -56.943981
-37.727774 -3.8526 -56.952396
-36.70755 -2.13396 -58.778412
-36.629255 -3.833124 -58.769997
-37.230837 -3.880407 -57.819134
-37.576488 7.641455 -54.545496
-37.46526 8.68941 -53.918596
-26.583058 25.093733 -60.972115
-25.83145 25.442124 -62.091499
-26.849518 24.478898 -61.913059
-27.300787 24.654671 -59.851589
-26.583058 25.093733 -60.972115
-28.250371 23.715989 -59.597248
-27.300787 24.654671 -59.851589
-30.982372 20.549039 -58.682417
-30.057173 21.669204 -59.155273
-30.390035 20.924589 -59.9568
-31.898874 19.34635 -58.229917
-31.566011 20.090966 -57.42839
-30.982372 20.549039 -58.682417
-32.882251 4.709821 -63.919384
-32.93528 6.377147 -63.850204
-32.148174 6.285147 -64.682643
-33.632485 3.037365 -63.069273
-32.882251 4.709821 -63.919384
-35.158126 14.766004 -54.257493
-35.836954 13.492836 -53.677191
-34.728424 15.26822 -55.511291
-35.158126 14.766004 -54.257493
-34.427917 16.086129 -54.761755
-39.750101 -7.588977 -51.99745
-40.065203 -7.598821 -50.962479
-39.39294 -7.490861 -53.045483
-39.750101 -7.588977 -51.99745
-39.469511 -5.787017 -52.874471
-39.009054 -7.397078 -54.004871
-39.39294 -7.490861 -53.045483
-38.629383 -5.606431 -54.999874
-38.526087 -7.314607 -55.082241
-39.009054 -7.397078 -54.004871
-31.317306 8.049232 -65.468952
-31.445918 9.50378 -65.256446
-30.562022 9.600538 -66.111934
-32.148174 6.285147 -64.682643
-31.317306 8.049232 -65.468952
-40.088149 -5.950336 -50.780512
-40.065203 -7.598821 -50.962479
-39.828199 -4.416332 -51.606893
-40.088149 -5.950336 -50.780512
-39.510092 -2.786396 -52.485014
-39.508564 -4.255197 -52.70456
-39.828199 -4.416332 -51.606893
-36.910204 10.127393 -54.549244
-37.46526 8.68941 -53.918596
-36.106848 12.547616 -54.441205
-35.836954 13.492836 -53.677191
-36.3058 11.61301 -55.139272
-36.106848 12.547616 -54.441205
-35.657585 13.013489 -55.705097
-36.460942 10.593266 -55.813135
-36.910204 10.127393 -54.549244
-36.3058 11.61301 -55.139272
-21.432485 26.998333 -66.324944
-21.383544 27.681523 -65.357692
-20.444599 27.739855 -66.255398
-22.733286 24.48875 -67.819416
-21.751562 25.3647 -67.886246
-23.669747 24.447288 -66.995396
-22.733286 24.48875 -67.819416
-23.677335 23.521289 -67.783897
-27.771104 19.164566 -66.440799
-27.563073 20.313845 -65.980663
-26.780609 20.274433 -66.891533
-27.918178 17.892062 -66.90572
-28.700643 17.931474 -65.99485
-27.771104 19.164566 -66.440799
-27.930447 16.674308 -67.332794
-27.918178 17.892062 -66.90572
-27.990854 15.333527 -67.650222
-28.908124 15.318189 -66.777198
-27.930447 16.674308 -67.332794
-27.968396 14.026315 -67.913326
-27.990854 15.333527 -67.650222
-27.867361 12.636648 -68.171001
-28.867495 12.587741 -67.352303
-27.968396 14.026315 -67.913326
-19.429384 27.778301 -67.114186
-20.444599 27.739855 -66.255398
-19.530465 27.00747 -67.936272
-19.429384 27.778301 -67.114186
-20.635484 26.185657 -67.982113
-19.530465 27.00747 -67.936272
-38.067299 -7.303064 -55.980795
-38.526087 -7.314607 -55.082241
-38.067299 -7.303064 -55.980795
-37.649479 -5.551766 -56.943981
-36.008307 -3.891785 -59.634768
-36.629255 -3.833124 -58.769997
-35.454811 -2.078254 -60.559893
-36.008307 -3.891785 -59.634768
-39.182189 -1.198878 -53.280361
-39.510092 -2.786396 -52.485014
-37.691456 6.456731 -55.033814
-37.576488 7.641455 -54.545496
-37.180313 7.922925 -55.711424
-38.176651 4.92774 -54.300776
-37.691456 6.456731 -55.033814
-37.780475 5.209212 -55.466703
-38.630041 3.362788 -53.52874
-38.176651 4.92774 -54.300776
-38.719797 1.953863 -53.855854
-38.630041 3.362788 -53.52874
-38.798515 0.42122 -54.099646
-38.719797 1.953863 -53.855854
-38.344389 2.147578 -54.977457
-38.806781 -1.005162 -54.401965
-39.182189 -1.198878 -53.280361
-38.798515 0.42122 -54.099646
-34.934302 -0.305576 -61.366366
-35.454811 -2.078254 -60.559893
-35.585459 -0.313999 -60.535747
-22.20108 27.542666 -64.476648
-21.383544 27.681523 -65.357692
-23.080927 27.350404 -63.443941
-22.20108 27.542666 -64.476648
-23.251278 26.747739 -64.394531
-23.885953 27.089022 -62.355337
-23.080927 27.350404 -63.443941
-24.848057 26.306218 -62.256189
-25.114517 25.691384 -63.197134
-25.83145 25.442124 -62.091499
-23.885953 27.089022 -62.355337
-24.848057 26.306218 -62.256189
-29.182226 22.673112 -59.415239
-28.250371 23.715989 -59.597248
-28.532981 23.087631 -60.611666
-29.182226 22.673112 -59.415239
-30.057173 21.669204 -59.155273
-32.10044 19.574824 -56.116617
-31.566011 20.090966 -57.42839
-32.905592 18.47211 -55.650019
-32.10044 19.574824 -56.116617
-33.240364 17.738311 -56.495722
-33.663443 17.322145 -55.169849
-32.905592 18.47211 -55.650019
-34.330281 1.365795 -62.196911
-34.367153 3.13025 -62.214582
-33.632485 3.037365 -63.069273
-34.934302 -0.305576 -61.366366
-34.330281 1.365795 -62.196911
3 60 15 61
3 0 17 16
3 0 19 17
3 1 22 20
3 1 24 22
3 2 27 25
3 2 29 27
3 2 31 29
3 62 34 63
3 64 63 32
3 62 63 64
3 66 65 34
3 4 36 14
3 4 37 36
3 67 40 68
3 69 68 38
3 67 68 69
3 70 41 71
3 72 42 73
3 74 73 41
3 72 73 74
3 76 75 42
3 7 77 79
3 79 78 18
3 77 78 79
3 7 80 82
3 80 44 81
3 80 81 82
3 3 83 84
3 8 45 21
3 8 46 45
3 8 47 46
3 9 48 23
3 9 49 48
3 5 50 39
3 10 85 87
3 87 86 26
3 85 86 87
3 10 88 89
3 10 90 91
3 11 92 94
3 94 93 28
3 92 93 94
3 11 95 97
3 95 51 96
3 95 96 97
3 11 52 51
3 12 53 30
3 12 54 53
3 6 55 43
3 13 56 33
3 13 57 56
3 13 58 57
3 98 59 99
3 100 99 35
3 98 99 100
3 102 101 59
3 103 14 104
3 15 105 107
3 105 14 106
3 105 106 107
3 15 4 14
3 16 108 109
3 17 110 112
3 112 111 16
3 110 111 112
3 17 113 114
3 17 115 117
3 115 18 116
3 115 116 117
3 19 18 17
3 19 7 18
3 20 21 3
3 22 21 20
3 22 8 21
3 22 23 8
3 24 23 22
3 24 9 23
3 25 26 5
3 27 26 25
3 27 10 26
3 27 28 10
3 29 28 27
3 29 11 28
3 29 30 11
3 31 30 29
3 31 12 30
3 32 33 6
3 34 33 32
3 34 13 33
3 34 35 13
3 118 35 119
3 120 119 34
3 118 119 120
3 122 121 35
3 123 16 124
3 125 16 126
3 127 0 128
3 129 128 16
3 127 128 129
3 130 3 131
3 14 132 133
3 36 134 136
3 136 135 14
3 134 135 136
3 36 137 139
3 137 3 138
3 137 138 139
3 36 20 3
3 37 20 36
3 37 1 20
3 38 140 142
3 140 39 141
3 140 141 142
3 40 39 38
3 40 5 39
3 143 40 144
3 41 145 147
3 145 40 146
3 145 146 147
3 41 5 40
3 41 25 5
3 42 25 41
3 42 2 25
3 42 43 2
3 148 43 149
3 150 149 42
3 148 149 150
3 151 6 152
3 153 152 43
3 151 152 153
3 154 6 155
3 156 32 157
3 158 157 6
3 156 157 158
3 159 32 160
3 163 162 32
3 161 162 163
3 164 38 165
3 166 38 167
3 169 168 38
3 18 170 171
3 173 172 18
3 44 174 175
3 44 176 177
3 178 0 179
3 21 180 182
3 182 181 3
3 180 181 182
3 45 183 185
3 185 184 21
3 183 184 185
3 45 186 187
3 45 188 189
3 46 190 192
3 192 191 45
3 190 191 192
3 46 193 195
3 193 0 194
3 193 194 195
3 46 19 0
3 47 19 46
3 47 7 19
3 23 47 8
3 48 47 23
3 48 7 47
3 48 44 7
3 49 44 48
3 49 196 198
3 198 197 44
3 196 197 198
3 39 199 200
3 50 201 203
3 203 202 39
3 201 202 203
3 50 204 205
3 26 50 5
3 206 50 207
3 208 207 26
3 206 207 208
3 210 209 50
3 28 211 213
3 213 212 10
3 211 212 213
3 215 214 28
3 51 216 217
3 51 218 219
3 51 220 222
3 220 15 221
3 220 221 222
3 52 15 51
3 52 4 15
3 30 52 11
3 53 52 30
3 53 4 52
3 53 37 4
3 54 37 53
3 54 1 37
3 43 31 2
3 55 31 43
3 55 12 31
3 33 55 6
3 56 55 33
3 56 12 55
3 56 54 12
3 57 54 56
3 57 1 54
3 57 24 1
3 58 24 57
3 58 9 24
3 35 58 13
3 59 58 35
3 59 9 58
3 59 49 9
3 223 49 224
3 225 224 59
3 223 224 225
3 227 226 49
