ply
format ascii 1.0
element vertex 318
property float x
property float y
property float z
element face 278
property list uchar int vertex_index
end_header
-40.820976 -9.411622 -30.364738
-37.867306 -38.525963 0.187868
-38.772934 -32.823277 -8.968333
-40.527443 -16.775082 -24.837408
-41.174511 -12.364612 -31.03838
-40.998741 -8.168198 -33.044319
-38.298588 -35.848331 -4.579336
-40.015949 -8.907515 -27.957867
-38.179752 -34.252388 -1.088033
-38.25008 -31.6614 -5.29475
-39.018612 -20.614367 -17.638075
-39.410736 -16.582912 -21.365679
-39.7216 -12.54559 -24.757908
-40.730236 -12.592896 -27.970728
-41.08601 -16.555708 -28.264498
-41.007378 -10.615383 -30.674248
-41.120228 -10.233159 -32.086143
-40.922916 -8.832008 -31.568371
-37.35939 -40.683449 1.081506
-38.085239 -37.162586 -2.185062
-39.030315 -30.861397 -11.183345
-39.292267 -8.756786 -26.373749
-39.468349 -7.03804 -28.043955
-38.621994 -6.817647 -26.51235
-38.19717 -32.94096 -3.233292
-39.177277 -18.580116 -19.446619
-38.977234 -12.55352 -23.091497
-39.135464 -10.608086 -24.744057
-39.870163 -10.705076 -26.336912
-40.736206 -18.844652 -24.905783
-40.972786 -18.848156 -26.589046
-40.858849 -16.750599 -26.521662
-40.946201 -14.62976 -28.027925
-40.630192 -14.628054 -26.417492
-41.272369 -14.235379 -31.342653
-38.531639 -34.267433 -6.761098
-40.360996 -18.766733 -23.10384
-37.086922 -41.763248 3.453292
-37.677151 -39.656036 2.647775
-40.539391 -9.257705 -29.304991
-40.158463 -7.430519 -29.498936
-38.148598 -36.331856 -0.465143
-38.257637 -35.07354 -2.729342
-38.384407 -33.812096 -4.858406
-38.534039 -32.125648 -7.114637
-38.707951 -30.524525 -9.279259
-38.899025 -28.69298 -11.454278
-39.110508 -26.829546 -13.585605
-39.293777 -24.808441 -15.608929
-39.505417 -22.798731 -17.623236
-39.680096 -20.666029 -19.529444
-39.844807 -18.693981 -21.255749
-40.047607 -16.603752 -23.15229
-38.797283 -14.497244 -21.392887
-39.584538 -14.53852 -23.124645
-40.177887 -14.54721 -24.79561
-40.305733 -12.633281 -26.354979
-40.407566 -10.783236 -27.830948
-40.786682 -10.746344 -29.303556
-41.128559 -18.813101 -28.263247
-41.226852 -16.525692 -29.894974
-41.153229 -14.373395 -29.746855
-41.000385 -12.49432 -29.465664
-37.758627 -38.974508 -0.647417
-37.504669 -40.053252 -0.200597
-37.613348 -39.604706 0.634687
-37.976273 -37.844274 -0.998597
-37.867593 -38.29282 -1.833881
-37.758627 -38.974508 -0.647417
-38.860468 -32.982452 -9.924408
-38.685721 -33.90693 -8.727607
-38.901624 -31.842337 -10.075839
-38.989159 -32.001512 -11.031914
-38.860468 -32.982452 -9.924408
-38.503475 -7.709229 -25.63946
-38.957131 -7.787216 -26.44305
-38.838611 -8.678798 -25.57016
-38.76021 -9.604449 -24.755314
-38.68005 -10.592088 -23.909359
-38.838611 -8.678798 -25.57016
-39.213865 -9.682436 -25.558903
-38.76021 -9.604449 -24.755314
-41.218878 -12.194288 -31.818339
-41.267807 -13.129672 -31.970475
-41.22344 -13.299995 -31.190517
-41.091334 -8.926146 -33.360426
-41.152077 -9.958627 -32.881338
-41.059484 -9.200679 -32.565231
-41.022688 -7.82782 -33.859278
-41.091334 -8.926146 -33.360426
-38.287302 -36.213833 -5.448303
-38.134301 -36.915855 -4.24598
-38.415114 -35.057882 -5.670217
-38.403827 -35.423383 -6.539184
-38.287302 -36.213833 -5.448303
-40.281206 -19.769747 -22.25224
-40.463129 -19.896625 -23.084128
-37.305975 -41.151359 4.317316
-36.948431 -42.248137 4.703758
-37.60109 -40.097753 3.914557
-37.382036 -40.709642 3.050534
-37.305975 -41.151359 4.317316
-39.583101 -6.272726 -28.956368
-39.188615 -6.099355 -28.208922
-38.175346 -34.877901 0.086545
-38.116505 -33.804299 -0.228475
-38.164175 -35.292122 -0.776588
-38.159769 -35.917635 0.39799
-38.175346 -34.877901 0.086545
-38.57345 -29.390614 -9.512
-38.519014 -30.288303 -8.393819
-38.668988 -28.474842 -10.599509
-38.803488 -29.608753 -10.366768
-38.57345 -29.390614 -9.512
-38.906498 -25.765982 -13.640201
-38.838217 -26.645519 -12.69722
-38.998132 -24.755429 -14.651864
-39.202143 -25.818993 -14.597267
-38.906498 -25.765982 -13.640201
-38.945366 -21.624563 -16.709585
-38.639997 -20.665222 -16.682832
-39.262014 -21.706549 -17.630655
-39.188769 -22.716745 -16.702166
-38.945366 -21.624563 -16.709585
-38.406261 -13.524858 -21.352628
-38.300238 -14.585226 -20.405535
-37.18396 -41.139578 0.176562
-37.000953 -41.726059 1.36398
-37.18396 -41.139578 0.176562
-37.504669 -40.053252 -0.200597
-38.027626 -37.572982 -3.048843
-37.867593 -38.29282 -1.833881
-38.191913 -36.505459 -3.382199
-38.134301 -36.915855 -4.24598
-38.027626 -37.572982 -3.048843
-39.15373 -31.052578 -12.156757
-38.989159 -32.001512 -11.031914
-39.154926 -29.925133 -12.244179
-39.15373 -31.052578 -12.156757
-38.765438 -5.989159 -27.443119
-39.188615 -6.099355 -28.208922
-39.045172 -6.927843 -27.278153
-38.072422 -33.204487 -1.350607
-38.116505 -33.804299 -0.228475
-38.081131 -32.548773 -2.423236
-38.188461 -33.596674 -2.160662
-38.072422 -33.204487 -1.350607
-38.051581 -31.925233 -3.451191
-38.081131 -32.548773 -2.423236
-38.078035 -31.285453 -4.48192
-38.223625 -32.30118 -4.264021
-38.051581 -31.925233 -3.451191
-38.699297 -19.610609 -17.618414
-38.639997 -20.665222 -16.682832
-38.778629 -18.593483 -18.522686
-39.097944 -19.597242 -18.542347
-38.699297 -19.610609 -17.618414
-38.85751 -17.55309 -19.443636
-38.778629 -18.593483 -18.522686
-38.974239 -16.554488 -20.403166
-39.294006 -17.581514 -20.406149
-38.85751 -17.55309 -19.443636
-38.600935 -11.564806 -23.083079
-38.496237 -12.552996 -22.201932
-39.056349 -11.580803 -23.917777
-38.600935 -11.564806 -23.083079
-38.68005 -10.592088 -23.909359
-40.854496 -18.846404 -25.747414
-40.892984 -19.996416 -25.669904
-40.774695 -19.994664 -24.828272
-41.310327 -14.279515 -32.127793
-41.292516 -15.378712 -31.416887
-41.310327 -14.279515 -32.127793
-41.267807 -13.129672 -31.970475
-41.191736 -11.128561 -32.34222
-41.218878 -12.194288 -31.818339
-41.147369 -11.298886 -31.562261
-41.191736 -11.128561 -32.34222
-41.152077 -9.958627 -32.881338
-38.565073 -34.629008 -7.62399
-38.437261 -35.784958 -7.402076
-38.403827 -35.423383 -6.539184
-38.652287 -33.545355 -7.864715
-38.685721 -33.90693 -8.727607
-38.565073 -34.629008 -7.62399
-40.650734 -19.935585 -23.9851
-40.774695 -19.994664 -24.828272
-40.548601 -18.805692 -24.004812
-40.650734 -19.935585 -23.9851
-40.463129 -19.896625 -23.084128
-36.692144 -42.787736 3.764484
-36.553653 -43.272625 5.01495
-36.948431 -42.248137 4.703758
-36.864719 -42.265958 2.549872
-36.469942 -43.290447 2.861064
-36.692144 -42.787736 3.764484
-37.223156 -41.223349 2.267399
-37.000953 -41.726059 1.36398
-36.864719 -42.265958 2.549872
-40.580798 -8.601282 -30.00627
-40.72159 -8.678241 -30.536144
-40.680183 -9.334663 -29.834865
-40.390333 -7.68769 -30.103243
-40.580798 -8.601282 -30.00627
-40.348927 -8.344112 -29.401964
-40.215136 -6.716873 -30.327545
-40.390333 -7.68769 -30.103243
-39.928158 -6.468966 -29.683859
-39.813406 -7.234279 -28.771445
-39.583101 -6.272726 -28.956368
-40.215136 -6.716873 -30.327545
-39.928158 -6.468966 -29.683859
-38.127688 -6.807663 -25.694822
-38.503475 -7.709229 -25.63946
-38.261385 -5.917473 -26.594575
-38.127688 -6.807663 -25.694822
-38.765438 -5.989159 -27.443119
-38.261385 -5.917473 -26.594575
-37.808104 -39.152512 3.531275
-37.60109 -40.097753 3.914557
-37.857253 -38.641758 2.312092
-37.808104 -39.152512 3.531275
-37.95233 -38.076721 1.082138
-37.772228 -39.090999 1.417822
-37.857253 -38.641758 2.312092
-38.092976 -36.979668 0.755632
-38.159769 -35.917635 0.39799
-38.007952 -37.42891 -0.138637
-37.95233 -38.076721 1.082138
-38.092976 -36.979668 0.755632
-38.068815 -30.585356 -5.54463
-38.078035 -31.285453 -4.48192
-38.290079 -30.856741 -6.401565
-38.068815 -30.585356 -5.54463
-38.432058 -31.088865 -7.311509
-38.39206 -31.893524 -6.204693
-38.290079 -30.856741 -6.401565
-38.620995 -31.325086 -8.196948
-38.432058 -31.088865 -7.311509
-38.519014 -30.288303 -8.393819
-39.089281 -28.840924 -12.379646
-39.154926 -29.925133 -12.244179
-38.96467 -29.777189 -11.318811
-38.732475 -27.577236 -11.631557
-38.668988 -28.474842 -10.599509
-39.004767 -27.761263 -12.519941
-38.732475 -27.577236 -11.631557
-38.838217 -26.645519 -12.69722
-39.195023 -27.909208 -13.445309
-39.089281 -28.840924 -12.379646
-39.004767 -27.761263 -12.519941
-39.317259 -27.003416 -14.450406
-39.195023 -27.909208 -13.445309
-39.408893 -25.992863 -15.462069
-39.317259 -27.003416 -14.450406
-39.202143 -25.818993 -14.597267
-39.536415 -24.957577 -16.524981
-39.408893 -25.992863 -15.462069
-39.082949 -23.721599 -15.695013
-38.998132 -24.755429 -14.651864
-39.399597 -23.803586 -16.616082
-39.082949 -23.721599 -15.695013
-39.188769 -22.716745 -16.702166
-39.642235 -23.952723 -17.532135
-39.536415 -24.957577 -16.524981
-39.399597 -23.803586 -16.616082
-39.756046 -22.915954 -18.533147
-39.642235 -23.952723 -17.532135
-39.843386 -21.849604 -19.486251
-39.756046 -22.915954 -18.533147
-39.592757 -21.73238 -18.57634
-39.940756 -20.719394 -20.465042
-39.843386 -21.849604 -19.486251
-40.023111 -19.73337 -21.328194
-39.940756 -20.719394 -20.465042
-39.762451 -19.680005 -20.392597
-40.102902 -18.730357 -22.179794
-40.281206 -19.769747 -22.25224
-40.023111 -19.73337 -21.328194
-38.667513 -15.511654 -20.41677
-38.300238 -14.585226 -20.405535
-39.10401 -15.540078 -21.379283
-38.974239 -16.554488 -20.403166
-38.667513 -15.511654 -20.41677
-38.887259 -13.525382 -22.242192
-38.406261 -13.524858 -21.352628
-38.496237 -12.552996 -22.201932
-40.976813 -20.056855 -26.54409
-40.897011 -21.205115 -25.624948
-40.892984 -19.996416 -25.669904
-41.054699 -20.039327 -27.381191
-40.976813 -20.056855 -26.54409
-41.050673 -18.830628 -27.426147
-41.104887 -20.08953 -28.165135
-41.054699 -20.039327 -27.381191
-41.175026 -18.905477 -29.039284
-41.104887 -20.08953 -28.165135
-41.224173 -17.761773 -29.855148
-41.175026 -18.905477 -29.039284
-41.177706 -17.669396 -29.07911
-41.269758 -16.523868 -30.693047
-41.224173 -17.761773 -29.855148
-41.249611 -15.380536 -30.618814
-41.292516 -15.378712 -31.416887
-41.269758 -16.523868 -30.693047
-40.77256 -8.388434 -31.13796
-40.871946 -9.121815 -30.966555
-40.72159 -8.678241 -30.536144
-40.81654 -7.908784 -31.86563
-40.77256 -8.388434 -31.13796
-40.854452 -7.576879 -32.603604
-40.960829 -8.500103 -32.306345
-40.81654 -7.908784 -31.86563
-40.893236 -7.144392 -33.425511
-40.854452 -7.576879 -32.603604
-40.917183 -6.804013 -34.240469
-41.022688 -7.82782 -33.859278
-40.893236 -7.144392 -33.425511
3 0 17 15
3 1 63 65
3 65 64 18
3 63 64 65
3 1 66 68
3 66 19 67
3 66 67 68
3 2 69 70
3 2 71 73
3 71 20 72
3 71 72 73
3 74 23 75
3 76 75 21
3 74 75 76
3 77 27 78
3 79 21 80
3 81 80 27
3 79 80 81
3 3 31 29
3 3 33 31
3 4 82 84
3 84 83 34
3 82 83 84
3 5 85 87
3 87 86 16
3 85 86 87
3 5 88 89
3 6 90 91
3 6 92 94
3 92 35 93
3 92 93 94
3 95 36 96
3 97 37 98
3 99 38 100
3 101 100 37
3 99 100 101
3 7 40 39
3 103 102 22
3 8 104 105
3 8 106 108
3 106 41 107
3 106 107 108
3 8 42 41
3 9 43 24
3 9 44 43
3 109 45 110
3 111 46 112
3 113 112 45
3 111 112 113
3 114 47 115
3 116 48 117
3 118 117 47
3 116 117 118
3 10 119 120
3 10 121 123
3 121 49 122
3 121 122 123
3 10 50 49
3 11 51 25
3 11 52 51
3 124 53 125
3 12 54 26
3 12 55 54
3 12 56 55
3 7 57 28
3 7 39 57
3 14 59 30
3 14 60 59
3 14 61 60
3 13 62 32
3 13 58 62
3 15 16 4
3 17 16 15
3 17 5 16
3 18 126 127
3 129 128 18
3 19 130 131
3 19 132 134
3 132 6 133
3 132 133 134
3 20 135 136
3 20 137 138
3 21 22 7
3 23 22 21
3 23 139 141
3 141 140 22
3 139 140 141
3 142 8 143
3 144 24 145
3 146 145 8
3 144 145 146
3 147 24 148
3 149 9 150
3 151 150 24
3 149 150 151
3 152 10 153
3 154 25 155
3 156 155 10
3 154 155 156
3 157 25 158
3 159 11 160
3 161 160 25
3 159 160 161
3 162 26 163
3 27 164 166
3 164 26 165
3 164 165 166
3 27 12 26
3 27 28 12
3 21 28 27
3 21 7 28
3 29 167 169
3 167 30 168
3 167 168 169
3 31 30 29
3 31 14 30
3 31 32 14
3 33 32 31
3 33 13 32
3 34 170 171
3 173 172 34
3 16 174 176
3 176 175 4
3 174 175 176
3 178 177 16
3 35 179 181
3 179 180 181
3 35 182 184
3 182 2 183
3 182 183 184
3 185 29 186
3 36 187 189
3 187 29 188
3 187 188 189
3 36 3 29
3 37 190 192
3 190 191 192
3 37 193 195
3 193 194 195
3 37 196 198
3 196 18 197
3 196 197 198
3 38 18 37
3 38 1 18
3 39 199 201
3 201 200 0
3 199 200 201
3 40 202 204
3 204 203 39
3 202 203 204
3 40 205 206
3 22 40 7
3 207 40 208
3 209 208 22
3 207 208 209
3 211 210 40
3 212 23 213
3 214 23 215
3 217 216 23
3 218 38 219
3 220 38 221
3 222 1 223
3 224 223 38
3 222 223 224
3 41 225 226
3 41 227 229
3 227 1 228
3 227 228 229
3 41 19 1
3 42 19 41
3 42 6 19
3 24 42 8
3 43 42 24
3 43 6 42
3 43 35 6
3 44 35 43
3 44 2 35
3 230 9 231
3 232 9 233
3 234 44 235
3 236 235 9
3 234 235 236
3 45 237 239
3 237 44 238
3 237 238 239
3 45 2 44
3 45 20 2
3 46 20 45
3 46 240 242
3 242 241 20
3 240 241 242
3 243 46 244
3 47 245 247
3 245 46 246
3 245 246 247
3 47 248 250
3 250 249 46
3 248 249 250
3 47 251 252
3 48 253 255
3 255 254 47
3 253 254 255
3 48 256 257
3 258 48 259
3 49 260 262
3 260 48 261
3 260 261 262
3 49 263 265
3 265 264 48
3 263 264 265
3 49 266 267
3 50 268 270
3 270 269 49
3 268 269 270
3 50 271 272
3 25 50 10
3 51 50 25
3 51 273 275
3 275 274 50
3 273 274 275
3 51 276 278
3 276 36 277
3 276 277 278
3 52 36 51
3 52 3 36
3 53 279 280
3 53 281 283
3 281 11 282
3 281 282 283
3 26 284 286
3 284 53 285
3 284 285 286
3 54 53 26
3 54 11 53
3 54 52 11
3 55 52 54
3 55 3 52
3 55 33 3
3 56 33 55
3 56 13 33
3 28 56 12
3 57 56 28
3 57 13 56
3 57 58 13
3 39 58 57
3 39 0 58
3 30 287 289
3 287 288 289
3 59 290 292
3 292 291 30
3 290 291 292
3 59 293 294
3 59 295 296
3 60 297 299
3 299 298 59
3 297 298 299
3 60 300 301
3 60 302 304
3 302 34 303
3 302 303 304
3 61 34 60
3 61 4 34
3 32 61 14
3 62 61 32
3 62 4 61
3 62 15 4
3 58 15 62
3 58 0 15
3 305 17 306
3 307 306 0
3 305 306 307
3 308 17 309
3 310 5 311
3 312 311 17
3 310 311 312
3 313 5 314
3 317 316 5
3 315 316 317
