ply
format ascii 1.0
element vertex 376
property float x
property float y
property float z
element face 405
property list uchar int vertex_index
end_header
23.752235 23.350485 -38.523067
25.076122 7.595218 -22.21653
31.155298 2.423312 -22.598259
31.323774 10.515637 -31.216887
19.537027 13.339046 -22.03451
24.891895 1.17836 -14.593688
25.133251 15.203015 -30.633701
30.172199 18.961533 -40.243797
34.022701 3.543026 -26.971903
22.353867 27.379463 -42.285053
25.628757 25.264891 -43.905144
24.794682 -1.468041 -11.107872
27.859087 -1.779743 -14.568269
22.09338 10.308691 -22.046072
22.196037 13.67132 -25.934597
25.190578 11.195137 -26.316114
33.764751 12.056868 -35.815296
31.003796 14.814538 -35.816219
33.186848 16.357342 -40.675858
21.553907 21.4835 -33.383591
28.120338 4.992857 -22.296413
28.331184 8.843018 -26.606977
31.323446 6.359568 -26.798546
34.145264 7.819004 -31.529163
22.067844 7.229806 -18.330969
22.02552 4.36117 -14.669696
25.033373 4.244755 -18.36076
27.960791 1.498735 -18.365065
19.41856 16.504137 -25.31613
21.974676 17.406845 -29.618822
24.695646 19.155222 -34.581291
28.282274 12.854434 -30.941963
27.865175 16.952135 -35.228767
27.11717 21.120329 -39.650032
28.991682 23.039219 -44.991119
22.127918 24.477425 -37.709782
23.159948 25.330137 -40.40004
23.96979 26.28056 -43.111294
24.792486 24.195648 -41.06308
26.32527 -3.197081 -10.933547
26.535955 -4.550164 -9.331366
23.542295 8.99267 -22.197321
23.689213 10.612522 -24.189125
25.195612 9.322715 -24.258615
33.610828 14.195745 -38.303562
20.363384 20.796787 -30.988771
29.693041 3.773641 -22.517412
29.784473 5.586611 -24.49283
31.249643 4.268987 -24.571432
33.994183 5.675642 -29.091719
23.405874 1.365841 -12.841656
23.363482 2.762305 -14.566969
23.367144 4.276382 -16.430588
24.812096 2.716088 -16.330843
26.383698 2.873666 -18.251097
26.451361 1.266361 -16.501534
19.545048 14.855602 -23.757275
23.640038 14.344808 -28.217287
22.097754 15.480796 -27.749407
23.489656 16.203379 -30.049482
23.444567 18.113663 -32.052517
24.927778 17.060698 -32.470375
29.877695 9.597982 -28.822672
28.442745 10.880837 -28.912834
29.869276 11.8139 -31.2337
30.682852 16.92709 -38.10511
29.47027 15.974754 -35.637115
29.15543 17.941158 -37.736217
27.570478 19.007421 -37.418026
28.649492 20.049568 -39.948441
28.060644 22.197983 -42.322823
29.681162 21.013882 -42.633266
32.722466 2.965865 -24.839523
24.718578 27.21603 -46.022583
26.396519 26.119425 -46.656605
24.839849 -0.275582 -12.727106
26.389563 -0.293051 -14.619729
26.27965 -1.764397 -12.708573
20.737499 11.751369 -21.96261
20.848688 13.333374 -23.914371
22.188324 11.844989 -23.914734
23.618986 12.468911 -26.167717
25.122061 13.186759 -28.426937
32.650681 11.256026 -33.478893
31.305401 12.680673 -33.620773
32.454174 13.596669 -35.990265
32.161419 15.727716 -38.318634
31.727131 17.739569 -40.512348
31.274662 19.729752 -42.881111
21.080328 23.621603 -35.096451
22.698002 22.433542 -36.001812
26.689072 6.252254 -22.3011
26.638733 8.186471 -24.367916
28.270779 6.897289 -24.46884
29.80393 7.603901 -26.628431
31.353216 8.351406 -28.916761
32.716305 5.039026 -26.92169
32.802326 7.153602 -29.19853
32.775536 9.145329 -31.287979
34.038021 9.959105 -33.737476
20.721228 10.285841 -20.187672
22.089954 8.756927 -20.207632
23.512123 7.274281 -20.174498
22.014275 5.853314 -16.552505
23.572025 5.627775 -18.305048
24.989634 6.010427 -20.336126
26.540987 4.523632 -20.254681
28.115641 3.211416 -20.381588
29.578751 1.85161 -20.393539
27.868387 -0.180769 -16.403662
19.295418 18.317987 -26.954556
20.789867 15.005111 -25.654247
20.659441 16.802553 -27.355831
20.503557 18.676767 -29.04557
21.793085 19.39608 -31.466534
23.047857 20.258156 -33.946384
24.226883 21.341768 -36.61134
26.886471 10.049119 -26.619652
26.734922 11.924504 -28.529984
26.71191 13.946425 -30.733755
29.745249 13.908037 -33.478275
28.19692 14.872567 -33.133556
26.560402 16.035738 -32.92276
26.268265 18.065527 -34.958107
25.893593 20.148279 -37.048664
25.44245 22.292202 -39.251328
26.443382 23.292225 -41.902256
27.3039 24.197001 -44.512939
28.077101 24.924236 -47.07983
25.865786 -4.24178 -8.666766
25.795374 -3.696073 -9.439483
19.76826 20.528742 -29.823763
19.659534 21.524396 -30.615396
19.541038 14.097324 -22.895893
18.949927 14.896801 -22.821377
18.945916 14.138523 -21.959995
21.497491 28.036335 -41.779197
21.938071 26.959287 -40.914978
21.863234 28.365181 -43.143833
21.497491 28.036335 -41.779197
22.722681 27.823379 -43.753526
21.863234 28.365181 -43.143833
24.06476 -0.607933 -11.164734
24.196936 -1.253099 -10.435588
24.817266 -0.871811 -11.917489
24.087343 -0.011704 -11.97435
24.06476 -0.607933 -11.164734
27.03715 -3.226861 -11.805174
27.103819 -3.965472 -10.952084
32.933241 17.394396 -41.873381
32.203383 18.08551 -41.791626
32.456989 17.048455 -40.594103
21.317118 22.552551 -34.240021
20.515985 23.265993 -33.820475
20.752774 22.196942 -32.964044
20.071029 10.441552 -19.316924
20.088502 11.119104 -20.213639
22.078899 7.993366 -19.2693
21.403914 8.794165 -19.290684
21.392859 8.030605 -18.352352
21.402178 4.653479 -13.978576
22.033113 3.740113 -13.856271
21.382908 5.263051 -14.796493
21.402178 4.653479 -13.978576
22.019897 5.107242 -15.6111
21.377285 6.009123 -15.737897
21.382908 5.263051 -14.796493
18.820094 17.239036 -25.103678
18.877578 16.423353 -24.367578
19.356989 17.411062 -26.135343
18.758523 18.145961 -25.922891
18.820094 17.239036 -25.103678
30.934621 20.775718 -44.132116
31.678259 20.105777 -44.256804
21.825097 25.508268 -38.627342
21.306868 25.236016 -37.362048
22.341112 25.934624 -39.972471
21.825097 25.508268 -38.627342
22.643933 24.903781 -39.054911
22.756908 26.3548 -41.342546
21.938071 26.959287 -40.914978
22.341112 25.934624 -39.972471
24.924737 -2.155011 -10.327736
24.196936 -1.253099 -10.435588
24.326991 -1.94007 -9.655451
25.690031 -3.019531 -10.240573
25.559976 -2.332561 -11.02071
24.924737 -2.155011 -10.327736
26.430613 -3.873622 -10.132456
25.690031 -3.019531 -10.240573
25.795374 -3.696073 -9.439483
27.209162 -4.642014 -10.150993
27.103819 -3.965472 -10.952084
26.430613 -3.873622 -10.132456
34.242055 13.41991 -38.326031
33.687789 13.126307 -37.059429
34.319017 12.350472 -37.081897
34.062259 14.441136 -39.442066
34.242055 13.41991 -38.326031
33.850269 15.521934 -40.628214
33.398838 15.276543 -39.48971
34.062259 14.441136 -39.442066
33.607382 16.559229 -41.796144
33.850269 15.521934 -40.628214
20.157512 21.853585 -31.766634
19.659534 21.524396 -30.615396
20.958645 21.140144 -32.186181
20.752774 22.196942 -32.964044
20.157512 21.853585 -31.766634
34.616434 4.873724 -29.137546
34.008442 4.609334 -28.031811
34.630693 3.807416 -28.077638
34.621092 5.874466 -30.169068
34.616434 4.873724 -29.137546
34.696632 6.946147 -31.38779
34.069723 6.747323 -30.310441
34.621092 5.874466 -30.169068
34.684755 8.099699 -32.621428
34.696632 6.946147 -31.38779
21.329545 7.403282 -17.43989
21.392859 8.030605 -18.352352
22.723291 2.242449 -12.942251
22.715178 1.70147 -12.157033
22.702095 2.940681 -13.804907
22.723291 2.242449 -12.942251
23.384678 2.064073 -13.704313
22.694501 3.561738 -14.618333
22.033113 3.740113 -13.856271
22.702095 2.940681 -13.804907
28.598782 -1.651898 -15.541049
28.616292 -2.49027 -14.617327
18.940823 15.599086 -23.58815
18.949927 14.896801 -22.821377
19.481804 15.679869 -24.536703
18.877578 16.423353 -24.367578
18.940823 15.599086 -23.58815
32.630719 1.949492 -23.725131
31.938882 2.694589 -23.718891
31.847134 1.678216 -22.604499
33.311915 2.250484 -24.83629
32.630719 1.949492 -23.725131
33.962032 2.539064 -25.90248
33.372583 3.254446 -25.905713
33.311915 2.250484 -24.83629
34.604956 2.722781 -26.963914
33.962032 2.539064 -25.90248
34.630693 3.807416 -28.077638
34.604956 2.722781 -26.963914
23.530642 27.273927 -44.166647
22.722681 27.823379 -43.753526
23.161828 26.830012 -42.698173
23.905036 27.741662 -45.622292
23.530642 27.273927 -44.166647
24.344184 26.748295 -44.566938
24.127063 28.16391 -46.979852
23.905036 27.741662 -45.622292
25.027123 27.578573 -47.374748
24.127063 28.16391 -46.979852
25.866093 27.030271 -47.691759
25.027123 27.578573 -47.374748
25.557549 26.667727 -46.339594
26.768227 26.436413 -48.051581
25.866093 27.030271 -47.691759
23.370356 0.809008 -12.031626
22.715178 1.70147 -12.157033
24.122861 0.54513 -12.784381
23.370356 0.809008 -12.031626
24.087343 -0.011704 -11.97435
27.01434 -2.510519 -12.692687
26.30246 -2.480739 -11.82106
27.03715 -3.226861 -11.805174
27.804059 -2.518192 -13.622535
27.069368 -1.77207 -13.638421
27.01434 -2.510519 -12.692687
28.616292 -2.49027 -14.617327
27.804059 -2.518192 -13.622535
31.977148 19.080601 -42.976007
31.500896 18.734661 -41.69673
32.203383 18.08551 -41.791626
31.678259 20.105777 -44.256804
31.977148 19.080601 -42.976007
33.353775 17.596283 -42.993668
32.933241 17.394396 -41.873381
33.607382 16.559229 -41.796144
20.342677 24.325397 -34.693278
20.515985 23.265993 -33.820475
20.783073 24.808104 -36.055382
20.045421 25.511898 -35.652209
20.342677 24.325397 -34.693278
21.604123 24.049514 -36.403116
21.306868 25.236016 -37.362048
20.783073 24.808104 -36.055382
34.631134 9.169749 -33.725584
34.091642 8.889055 -32.633319
34.684755 8.099699 -32.621428
34.559204 10.253376 -34.875837
34.631134 9.169749 -33.725584
34.422569 11.302258 -35.914747
33.901386 11.007986 -34.776386
34.559204 10.253376 -34.875837
34.976835 11.595862 -37.181348
34.319017 12.350472 -37.081897
34.422569 11.302258 -35.914747
18.933521 13.50017 -21.166257
18.945916 14.138523 -21.959995
18.34241 14.299647 -21.091741
19.496401 12.645707 -21.137058
18.933521 13.50017 -21.166257
20.096637 11.851869 -21.101108
20.137263 12.545208 -21.99856
19.496401 12.645707 -21.137058
20.729363 11.018605 -21.075141
20.096637 11.851869 -21.101108
20.088502 11.119104 -20.213639
20.719551 9.558622 -19.280704
20.071029 10.441552 -19.316924
21.405591 9.521384 -20.197652
20.719551 9.558622 -19.280704
21.403914 8.794165 -19.290684
21.302761 6.715037 -16.550658
21.377285 6.009123 -15.737897
22.04106 6.54156 -17.441737
21.329545 7.403282 -17.43989
21.302761 6.715037 -16.550658
28.603431 -0.852411 -16.458746
27.863737 -0.980256 -15.485966
28.598782 -1.651898 -15.541049
28.693594 -0.058827 -17.418911
28.603431 -0.852411 -16.458746
28.739796 0.780925 -18.399612
27.914589 0.658983 -17.384363
28.693594 -0.058827 -17.418911
29.548776 0.957363 -19.413849
28.769771 1.675172 -19.379302
28.739796 0.780925 -18.399612
30.355682 1.169695 -20.498317
29.548776 0.957363 -19.413849
31.143955 1.455547 -21.600677
30.367024 2.137461 -21.495899
30.355682 1.169695 -20.498317
31.847134 1.678216 -22.604499
31.143955 1.455547 -21.600677
26.556905 -5.078858 -8.507008
25.865786 -4.24178 -8.666766
27.216321 -5.276168 -9.272374
26.556905 -5.078858 -8.507008
27.209162 -4.642014 -10.150993
27.216321 -5.276168 -9.272374
18.681088 19.096042 -26.699189
18.758523 18.145961 -25.922891
19.234277 19.289343 -27.806656
18.681088 19.096042 -26.699189
19.838347 19.468733 -28.852163
19.234277 19.289343 -27.806656
19.899487 18.497377 -28.000063
20.43347 19.736777 -30.01717
19.76826 20.528742 -29.823763
19.838347 19.468733 -28.852163
27.608518 25.838819 -48.263193
26.768227 26.436413 -48.051581
27.23681 25.521831 -46.868218
30.137871 21.417783 -44.008194
30.477912 20.371817 -42.757188
30.934621 20.775718 -44.132116
29.793131 22.430452 -45.18712
29.336422 22.02655 -43.812192
30.137871 21.417783 -44.008194
29.379568 23.396708 -46.362623
29.793131 22.430452 -45.18712
28.922277 24.339217 -47.406979
28.534391 23.981727 -46.035474
29.379568 23.396708 -46.362623
28.377902 25.261108 -48.45937
28.922277 24.339217 -47.406979
27.608518 25.838819 -48.263193
28.377902 25.261108 -48.45937
3 0 36 35
3 0 38 36
3 129 40 130
3 1 43 41
3 131 45 132
3 2 48 46
3 5 51 50
3 5 53 51
3 5 55 53
3 4 133 135
3 133 56 134
3 133 134 135
3 6 59 57
3 6 61 59
3 3 64 62
3 7 67 65
3 7 69 67
3 7 71 69
3 9 136 137
3 9 138 139
3 9 140 141
3 10 73 37
3 10 74 73
3 11 142 143
3 11 144 146
3 144 75 145
3 144 145 146
3 11 77 75
3 148 147 39
3 13 80 78
3 15 81 42
3 15 82 81
3 16 85 83
3 18 86 44
3 18 87 86
3 18 149 151
3 151 150 87
3 149 150 151
3 19 152 154
3 152 89 153
3 152 153 154
3 19 90 89
3 20 93 91
3 22 94 47
3 22 95 94
3 8 96 72
3 23 97 49
3 23 98 97
3 23 99 98
3 155 100 156
3 24 157 159
3 157 101 158
3 157 158 159
3 24 102 101
3 25 160 161
3 25 162 163
3 25 164 166
3 164 103 165
3 164 165 166
3 26 104 52
3 26 105 104
3 26 106 105
3 27 107 54
3 27 108 107
3 12 109 76
3 28 167 168
3 28 169 171
3 169 110 170
3 169 170 171
3 14 111 79
3 29 112 58
3 29 113 112
3 29 114 113
3 30 115 60
3 30 116 115
3 21 117 92
3 31 118 63
3 31 119 118
3 17 120 84
3 32 121 66
3 32 122 121
3 32 123 122
3 33 124 68
3 33 125 124
3 33 126 125
3 34 127 70
3 34 128 127
3 173 172 88
3 35 174 175
3 36 176 178
3 178 177 35
3 176 177 178
3 36 179 181
3 179 9 180
3 179 180 181
3 36 37 9
3 38 37 36
3 38 10 37
3 182 11 183
3 182 183 184
3 185 39 186
3 187 186 11
3 185 186 187
3 40 188 190
3 188 39 189
3 188 189 190
3 40 191 193
3 193 192 39
3 191 192 193
3 41 42 13
3 43 42 41
3 43 15 42
3 194 44 195
3 196 195 16
3 194 195 196
3 197 44 198
3 199 18 200
3 201 200 44
3 199 200 201
3 203 202 18
3 45 204 205
3 45 206 208
3 206 19 207
3 206 207 208
3 46 47 20
3 48 47 46
3 48 22 47
3 209 49 210
3 211 210 8
3 209 210 211
3 212 49 213
3 214 23 215
3 216 215 49
3 214 215 216
3 218 217 23
3 219 24 220
3 50 221 222
3 51 223 225
3 225 224 50
3 223 224 225
3 51 226 228
3 226 25 227
3 226 227 228
3 51 52 25
3 53 52 51
3 53 26 52
3 53 54 26
3 55 54 53
3 55 27 54
3 230 229 12
3 56 231 232
3 56 233 235
3 233 28 234
3 233 234 235
3 57 58 14
3 59 58 57
3 59 29 58
3 59 60 29
3 61 60 59
3 61 30 60
3 62 63 21
3 64 63 62
3 64 31 63
3 65 66 17
3 67 66 65
3 67 32 66
3 67 68 32
3 69 68 67
3 69 33 68
3 69 70 33
3 71 70 69
3 71 34 70
3 236 72 237
3 238 237 2
3 236 237 238
3 239 72 240
3 241 8 242
3 243 242 72
3 241 242 243
3 244 8 245
3 247 246 8
3 37 248 250
3 250 249 9
3 248 249 250
3 73 251 253
3 253 252 37
3 251 252 253
3 73 254 255
3 73 256 257
3 74 258 260
3 260 259 73
3 258 259 260
3 74 261 262
3 263 50 264
3 75 265 267
3 265 50 266
3 265 266 267
3 75 5 50
3 75 76 5
3 77 76 75
3 77 12 76
3 39 77 11
3 268 77 269
3 270 269 39
3 268 269 270
3 271 12 272
3 273 272 77
3 271 272 273
3 275 274 12
3 78 79 4
3 80 79 78
3 80 14 79
3 42 80 13
3 81 80 42
3 81 14 80
3 81 57 14
3 82 57 81
3 82 6 57
3 83 84 3
3 85 84 83
3 85 17 84
3 44 85 16
3 86 85 44
3 86 17 85
3 86 65 17
3 87 65 86
3 87 7 65
3 87 88 7
3 276 88 277
3 278 277 87
3 276 277 278
3 280 279 88
3 283 282 18
3 281 282 283
3 89 284 285
3 89 286 288
3 286 287 288
3 89 289 291
3 289 35 290
3 289 290 291
3 90 35 89
3 90 0 35
3 91 92 1
3 93 92 91
3 93 21 92
3 47 93 20
3 94 93 47
3 94 21 93
3 94 62 21
3 95 62 94
3 95 3 62
3 72 48 2
3 96 48 72
3 96 22 48
3 49 96 8
3 97 96 49
3 97 22 96
3 97 95 22
3 98 95 97
3 98 3 95
3 98 83 3
3 99 83 98
3 99 16 83
3 292 99 293
3 294 293 23
3 292 293 294
3 295 99 296
3 297 16 298
3 299 298 99
3 297 298 299
3 302 301 16
3 300 301 302
3 303 4 304
3 303 304 305
3 306 4 307
3 308 78 309
3 310 309 4
3 308 309 310
3 100 311 313
3 311 78 312
3 311 312 313
3 100 13 78
3 314 100 315
3 101 316 318
3 316 100 317
3 316 317 318
3 101 13 100
3 101 41 13
3 102 41 101
3 102 1 41
3 103 319 320
3 103 321 323
3 321 24 322
3 321 322 323
3 52 103 25
3 104 103 52
3 104 24 103
3 104 102 24
3 105 102 104
3 105 1 102
3 105 91 1
3 106 91 105
3 106 20 91
3 54 106 26
3 107 106 54
3 107 20 106
3 107 46 20
3 108 46 107
3 108 2 46
3 76 55 5
3 109 55 76
3 109 27 55
3 324 109 325
3 326 325 12
3 324 325 326
3 327 109 328
3 329 27 330
3 331 330 109
3 329 330 331
3 332 108 333
3 334 333 27
3 332 333 334
3 335 108 336
3 337 2 338
3 339 338 108
3 337 338 339
3 341 340 2
3 342 40 343
3 344 40 345
3 347 346 40
3 110 348 349
3 110 350 351
3 79 56 4
3 111 56 79
3 111 28 56
3 58 111 14
3 112 111 58
3 112 28 111
3 112 110 28
3 113 110 112
3 113 352 354
3 354 353 110
3 352 353 354
3 113 355 357
3 355 45 356
3 355 356 357
3 114 45 113
3 114 19 45
3 60 114 29
3 115 114 60
3 115 19 114
3 115 90 19
3 116 90 115
3 116 0 90
3 92 43 1
3 117 43 92
3 117 15 43
3 63 117 21
3 118 117 63
3 118 15 117
3 118 82 15
3 119 82 118
3 119 6 82
3 84 64 3
3 120 64 84
3 120 31 64
3 66 120 17
3 121 120 66
3 121 31 120
3 121 119 31
3 122 119 121
3 122 6 119
3 122 61 6
3 123 61 122
3 123 30 61
3 68 123 32
3 124 123 68
3 124 30 123
3 124 116 30
3 125 116 124
3 125 0 116
3 125 38 0
3 126 38 125
3 126 10 38
3 70 126 33
3 127 126 70
3 127 10 126
3 127 74 10
3 128 74 127
3 128 358 360
3 360 359 74
3 358 359 360
3 88 71 7
3 361 71 362
3 363 362 88
3 361 362 363
3 364 34 365
3 366 365 71
3 364 365 366
3 367 34 368
3 369 128 370
3 371 370 34
3 369 370 371
3 372 128 373
3 375 374 128
