ply
format ascii 1.0
element vertex 314
property float x
property float y
property float z
element face 268
property list uchar int vertex_index
end_header
37.48822 45.566994 10.075225
38.069183 28.118042 15.078429
36.675217 63.683426 -2.730758
38.015926 19.480251 16.780144
36.26889 43.148281 15.66022
37.893089 36.895809 12.807305
36.628368 34.670036 17.694038
36.639591 25.99419 19.743813
36.407673 17.352676 21.344315
35.891235 8.304079 22.595407
37.64864 55.829624 0.960853
36.816311 54.011047 7.002299
38.040943 46.516903 7.189978
38.313637 42.364422 8.59798
37.859798 15.050875 17.577141
38.618374 15.868041 15.197357
38.414841 11.465608 15.958531
36.504539 38.990982 16.592344
35.843369 37.308414 19.240726
35.860329 29.046059 21.317299
35.843483 24.493118 22.105255
36.587288 21.537012 20.524124
35.751942 20.044323 22.801483
35.588245 4.089708 22.948879
36.687927 67.943893 -11.017351
36.950058 67.681404 -14.246972
36.307774 63.065525 0.57737
37.195091 59.749397 -0.921485
36.778316 59.22274 2.262865
37.242393 54.986336 4.085454
36.398186 58.275005 5.239622
38.014961 32.519447 13.991349
38.744389 29.073778 12.52471
36.457474 67.646317 -7.7565
37.006176 63.973358 -5.889335
36.10923 67.515923 -4.391239
38.096451 23.616846 15.946228
38.775097 24.813583 13.482037
38.769165 20.190895 14.288168
36.92672 44.210846 12.897325
37.737209 41.124702 11.494084
37.126942 40.030132 14.138056
37.278679 35.694561 15.32766
37.367783 31.48428 16.38744
35.905819 33.238556 20.237305
36.644112 30.359497 18.828516
37.41547 26.994364 17.344936
37.375111 22.577785 18.248087
37.243191 18.451206 19.085691
35.577694 15.728464 23.445679
36.209389 12.78537 21.964367
36.096584 0.986935 21.357466
37.566807 60.098263 -4.136116
38.133797 51.592796 2.593672
37.700272 50.763622 5.567029
37.240593 49.765305 8.388026
36.364017 52.850056 9.860086
36.669754 48.638687 11.408073
38.019644 11.004818 17.123787
38.13732 13.258242 16.767836
37.742123 12.797452 17.933091
35.443076 38.820966 19.993024
35.764651 39.412918 18.742884
35.464502 23.725504 23.166901
35.480926 25.952309 22.858149
35.418732 21.501107 23.515014
35.797713 22.268721 22.453369
35.464502 23.725504 23.166901
37.116861 65.99765 -11.632544
36.998888 65.972274 -10.016646
36.348896 60.728277 3.02408
36.543045 61.144132 1.420118
36.113625 62.64967 2.181332
36.158831 60.25441 4.512458
36.588251 58.748873 3.751244
36.348896 60.728277 3.02408
36.031505 69.406418 -7.157611
36.152319 69.595013 -8.746609
35.72635 71.355114 -8.14772
35.857383 69.341221 -5.474981
36.283352 67.58112 -6.073869
36.031505 69.406418 -7.157611
38.943976 16.253861 14.022174
38.854168 13.911859 14.422613
35.53062 32.422845 21.497625
35.537428 34.565197 20.966491
36.709682 15.662792 20.641314
37.127442 16.212058 19.512002
36.825432 17.901941 20.215003
35.159935 15.127958 24.434251
35.27289 17.218453 24.126779
34.855131 16.617947 25.11535
36.050312 10.544725 22.279887
35.785049 12.311563 22.962947
35.625973 10.070917 23.278467
36.317591 8.894538 21.590727
36.476668 11.135183 21.275208
36.050312 10.544725 22.279887
36.171093 6.690785 21.799284
36.317591 8.894538 21.590727
35.624334 0.409073 22.378148
35.842415 2.538321 22.153173
35.370165 1.960459 23.173855
35.87841 -1.124436 21.544267
35.624334 0.409073 22.378148
37.055736 67.463673 -15.908179
37.343939 65.773985 -14.789223
37.848226 56.027477 -0.607722
37.621452 57.987364 -1.548891
37.421865 57.789511 0.019684
38.084705 54.058525 0.233963
37.848226 56.027477 -0.607722
37.891219 53.71121 1.777262
38.327284 51.940111 1.050373
38.084705 54.058525 0.233963
36.094915 52.134642 11.409074
35.940984 54.219454 10.654511
36.247783 50.028957 12.183067
36.516886 50.744371 10.63408
36.094915 52.134642 11.409074
36.386934 47.918415 12.854453
36.247783 50.028957 12.183067
38.20129 37.445372 11.424332
38.12335 39.559818 10.767721
37.815149 39.010255 12.150695
39.093478 25.147142 12.217233
39.071894 23.007998 12.723527
38.443678 44.842987 6.465689
38.308642 46.777138 5.72567
38.580025 42.766746 7.16969
38.443678 44.842987 6.465689
38.17729 44.440663 7.893979
38.695408 40.581986 7.925853
38.580025 42.766746 7.16969
38.752402 11.710642 14.8032
38.854168 13.911859 14.422613
38.516608 13.666825 15.577944
36.095236 40.254202 17.418693
36.386714 41.069631 16.126282
35.977411 42.332852 16.952631
36.173954 38.149698 17.916535
36.095236 40.254202 17.418693
35.764651 39.412918 18.742884
35.48935 28.22878 22.464171
35.507875 30.326597 22.037622
35.851906 26.769588 21.711277
35.48935 28.22878 22.464171
35.480926 25.952309 22.858149
35.46994 7.877099 23.533922
35.625973 10.070917 23.278467
35.318445 5.769913 23.710658
35.73974 6.196893 22.772143
35.46994 7.877099 23.533922
35.1205 3.619358 23.949352
35.318445 5.769913 23.710658
35.370165 1.960459 23.173855
35.1205 3.619358 23.949352
36.818993 67.812648 -12.632161
36.522154 69.615166 -13.634296
36.391089 69.74641 -12.019485
37.247926 65.866405 -13.247355
36.818993 67.812648 -12.632161
37.116861 65.99765 -11.632544
37.343939 65.773985 -14.789223
37.247926 65.866405 -13.247355
38.338186 33.000397 12.67378
38.27725 35.188578 12.081758
37.954025 34.707628 13.399327
38.7029 31.277562 11.940461
38.338186 33.000397 12.67378
38.379675 30.796613 13.258029
39.05269 29.478424 11.205725
38.7029 31.277562 11.940461
36.267545 69.743801 -10.377035
36.391089 69.74641 -12.019485
36.5727 67.795105 -9.386926
36.267545 69.743801 -10.377035
36.152319 69.595013 -8.746609
36.883662 65.823487 -8.386221
36.998888 65.972274 -10.016646
36.5727 67.795105 -9.386926
36.731825 65.809838 -6.822917
37.158012 63.987007 -7.452638
36.883662 65.823487 -8.386221
35.718858 69.031162 -3.781649
35.857383 69.341221 -5.474981
35.9543 67.239174 -2.803704
35.718858 69.031162 -3.781649
36.237294 65.322925 -1.973463
36.392224 65.599674 -3.560998
35.9543 67.239174 -2.803704
36.053572 65.013975 -0.3194
36.491495 63.374476 -1.076694
36.237294 65.322925 -1.973463
35.900944 64.506502 1.316741
36.053572 65.013975 -0.3194
36.113625 62.64967 2.181332
35.900944 64.506502 1.316741
39.068928 20.696654 13.126592
39.071894 23.007998 12.723527
38.772131 22.502239 13.885103
39.019371 18.415288 13.567579
38.69377 18.029468 14.742763
38.943976 16.253861 14.022174
39.068928 20.696654 13.126592
39.019371 18.415288 13.567579
35.506203 36.600126 20.468201
35.443076 38.820966 19.993024
35.874594 35.273485 19.739016
35.506203 36.600126 20.468201
35.537428 34.565197 20.966491
35.883074 31.142308 20.777302
35.53062 32.422845 21.497625
35.507875 30.326597 22.037622
37.435745 14.511892 18.757727
37.551495 16.75104 18.331416
37.127442 16.212058 19.512002
37.742123 12.797452 17.933091
37.435745 14.511892 18.757727
35.360014 19.376383 23.80468
35.418732 21.501107 23.515014
35.664818 17.886394 23.123581
35.360014 19.376383 23.80468
35.27289 17.218453 24.126779
35.469202 13.78311 23.703603
35.159935 15.127958 24.434251
35.893541 14.256917 22.705023
35.469202 13.78311 23.703603
35.785049 12.311563 22.962947
36.61054 13.37914 20.95134
36.709682 15.662792 20.641314
36.308531 15.069023 21.654341
36.61054 13.37914 20.95134
36.476668 11.135183 21.275208
36.019598 4.5836 21.976019
36.171093 6.690785 21.799284
35.73974 6.196893 22.772143
36.273768 3.032213 21.180313
36.019598 4.5836 21.976019
35.842415 2.538321 22.153173
36.50748 1.368558 20.375138
36.273768 3.032213 21.180313
36.308189 -0.622124 20.565609
36.50748 1.368558 20.375138
36.308189 -0.622124 20.565609
35.87841 -1.124436 21.544267
36.654388 69.376205 -15.279381
36.522154 69.615166 -13.634296
36.760067 69.158474 -16.940588
36.654388 69.376205 -15.279381
37.055736 67.463673 -15.908179
37.43932 62.142179 -6.577721
37.158012 63.987007 -7.452638
37.719635 60.204632 -5.701111
37.43932 62.142179 -6.577721
37.286491 62.03581 -5.012726
37.979732 58.293265 -4.751582
37.719635 60.204632 -5.701111
37.80731 58.161797 -3.156207
37.380949 59.92383 -2.528801
37.621452 57.987364 -1.548891
37.979732 58.293265 -4.751582
37.80731 58.161797 -3.156207
38.545872 49.776863 1.953523
38.327284 51.940111 1.050373
38.355069 49.315084 3.427517
38.545872 49.776863 1.953523
38.138306 48.900498 4.914195
38.355069 49.315084 3.427517
37.917034 51.178209 4.08035
37.870607 48.640262 6.378503
38.308642 46.777138 5.72567
38.138306 48.900498 4.914195
35.967392 59.752874 6.005938
36.158831 60.25441 4.512458
36.189919 57.627049 6.799243
35.967392 59.752874 6.005938
36.398981 55.495069 7.680581
36.607248 56.143026 6.12096
36.189919 57.627049 6.799243
36.172834 54.914574 9.109475
35.749802 56.283972 9.903899
35.940984 54.219454 10.654511
36.590164 53.430551 8.431192
36.398981 55.495069 7.680581
36.172834 54.914574 9.109475
36.515417 45.704494 13.599079
36.798237 46.424766 12.152699
36.386934 47.918415 12.854453
36.186503 45.173212 14.980526
36.597805 43.679564 14.278773
36.515417 45.704494 13.599079
35.870824 44.562721 16.378875
36.186503 45.173212 14.980526
35.977411 42.332852 16.952631
35.870824 44.562721 16.378875
38.411564 40.179678 9.319669
38.025423 41.744562 10.046032
38.12335 39.559818 10.767721
38.695408 40.581986 7.925853
38.411564 40.179678 9.319669
38.20129 37.445372 11.424332
38.27725 35.188578 12.081758
39.078124 27.277239 11.73857
38.759743 26.94368 13.003374
39.093478 25.147142 12.217233
39.05269 29.478424 11.205725
39.078124 27.277239 11.73857
38.263552 9.134942 16.304668
38.019644 11.004818 17.123787
38.619045 9.651906 15.176649
38.263552 9.134942 16.304668
38.752402 11.710642 14.8032
38.619045 9.651906 15.176649
3 0 13 12
3 58 16 59
3 60 59 14
3 58 59 60
3 61 18 62
3 63 20 64
3 65 22 66
3 67 66 20
3 65 66 67
3 69 68 24
3 70 28 71
3 72 71 26
3 70 71 72
3 73 30 74
3 75 74 28
3 73 74 75
3 1 32 31
3 76 33 77
3 76 77 78
3 79 35 80
3 81 80 33
3 79 80 81
3 3 38 36
3 83 82 15
3 4 41 39
3 6 42 17
3 6 43 42
3 84 44 85
3 7 45 19
3 7 46 45
3 7 47 46
3 8 48 21
3 8 86 88
3 88 87 48
3 86 87 88
3 89 49 90
3 89 90 91
3 9 92 94
3 92 50 93
3 92 93 94
3 9 95 97
3 97 96 50
3 95 96 97
3 9 98 99
3 100 51 101
3 102 101 23
3 100 101 102
3 104 103 51
3 106 105 25
3 2 52 34
3 10 107 109
3 109 108 27
3 107 108 109
3 10 110 111
3 10 112 114
3 112 53 113
3 112 113 114
3 11 54 29
3 11 55 54
3 115 56 116
3 117 57 118
3 119 118 56
3 117 118 119
3 121 120 57
3 5 122 124
3 124 123 40
3 122 123 124
3 126 125 37
3 12 127 128
3 13 129 131
3 131 130 12
3 129 130 131
3 13 132 133
3 14 15 3
3 16 15 14
3 16 134 136
3 136 135 15
3 134 135 136
3 137 17 138
3 139 138 4
3 137 138 139
3 18 140 142
3 140 17 141
3 140 141 142
3 18 6 17
3 143 19 144
3 20 145 147
3 145 19 146
3 145 146 147
3 20 7 19
3 20 21 7
3 22 21 20
3 22 8 21
3 148 9 149
3 150 23 151
3 152 151 9
3 150 151 152
3 153 23 154
3 156 155 23
3 24 157 159
3 157 25 158
3 157 158 159
3 160 25 161
3 162 161 24
3 160 161 162
3 164 163 25
3 26 27 2
3 28 27 26
3 28 10 27
3 28 29 10
3 30 29 28
3 30 11 29
3 31 165 167
3 167 166 5
3 165 166 167
3 32 168 170
3 170 169 31
3 168 169 170
3 32 171 172
3 173 24 174
3 33 175 177
3 175 24 176
3 175 176 177
3 33 178 180
3 180 179 24
3 178 179 180
3 33 181 183
3 181 34 182
3 181 182 183
3 35 34 33
3 35 2 34
3 184 35 185
3 186 35 187
3 188 2 189
3 190 189 35
3 188 189 190
3 191 26 192
3 193 192 2
3 191 192 193
3 194 26 195
3 197 196 26
3 36 37 1
3 38 37 36
3 38 198 200
3 200 199 37
3 198 199 200
3 15 38 3
3 201 38 202
3 203 202 15
3 201 202 203
3 205 204 38
3 39 40 0
3 41 40 39
3 41 5 40
3 17 41 4
3 42 41 17
3 42 5 41
3 42 31 5
3 43 31 42
3 43 1 31
3 206 18 207
3 44 208 210
3 208 18 209
3 208 209 210
3 44 6 18
3 19 211 213
3 211 44 212
3 211 212 213
3 45 44 19
3 45 6 44
3 45 43 6
3 46 43 45
3 46 1 43
3 46 36 1
3 47 36 46
3 47 3 36
3 21 47 7
3 48 47 21
3 48 3 47
3 48 14 3
3 214 14 215
3 216 215 48
3 214 215 216
3 218 217 14
3 219 22 220
3 49 221 223
3 221 22 222
3 221 222 223
3 49 8 22
3 224 49 225
3 50 226 228
3 226 49 227
3 226 227 228
3 50 8 49
3 50 229 231
3 231 230 8
3 229 230 231
3 233 232 50
3 23 234 236
3 236 235 9
3 234 235 236
3 51 237 239
3 239 238 23
3 237 238 239
3 51 240 241
3 51 242 243
3 245 244 51
3 25 246 247
3 250 249 25
3 248 249 250
3 34 251 252
3 52 253 255
3 255 254 34
3 253 254 255
3 52 256 257
3 27 52 2
3 258 52 259
3 260 259 27
3 258 259 260
3 262 261 52
3 53 263 264
3 53 265 266
3 29 53 10
3 54 53 29
3 54 267 269
3 269 268 53
3 267 268 269
3 54 270 272
3 270 12 271
3 270 271 272
3 55 12 54
3 55 0 12
3 273 30 274
3 275 30 276
3 277 11 278
3 279 278 30
3 277 278 279
3 56 280 282
3 280 281 282
3 56 283 285
3 283 11 284
3 283 284 285
3 56 55 11
3 57 55 56
3 57 0 55
3 57 39 0
3 286 39 287
3 288 287 57
3 286 287 288
3 289 4 290
3 291 290 39
3 289 290 291
3 292 4 293
3 295 294 4
3 40 13 0
3 296 13 297
3 298 297 40
3 296 297 298
3 300 299 13
3 302 301 5
3 37 32 1
3 303 32 304
3 305 304 37
3 303 304 305
3 307 306 32
3 308 16 309
3 310 16 311
3 313 312 16
