ply
format ascii 1.0
element vertex 259
property float x
property float y
property float z
element face 264
property list uchar int vertex_index
end_header
-11.768287 53.419815 50.278751
-10.292796 66.532463 41.814384
-17.61607 65.154938 46.844757
-15.249997 52.62014 52.779823
-18.125736 58.136578 51.231003
-14.528745 59.451942 48.798306
-9.453336 72.04657 37.310276
-13.404117 72.557343 39.447441
-8.236716 54.0354 47.612827
-10.992153 59.93396 46.335087
-7.409298 60.105587 43.823128
-6.522352 65.967613 39.64109
-12.55084 46.658283 53.985043
-8.937229 47.310925 51.276867
-5.480139 47.849987 48.742054
-21.428888 55.820866 53.225109
-20.939266 63.276302 48.893585
-14.050159 66.28183 44.345787
-17.009792 71.938385 41.805828
-13.552103 52.92437 51.647614
-14.894731 56.20808 50.757542
-13.095005 56.240635 49.687813
-10.916065 75.137802 35.816017
-6.451888 53.997833 46.436001
-7.794909 57.109619 45.730103
-6.044431 57.096241 44.564266
-14.355649 46.1912 55.311798
-7.210299 47.610138 49.9818
-20.109102 53.393208 54.312084
-17.841499 61.596313 49.145638
-19.508785 60.849068 50.117191
-19.297243 64.517197 47.813572
-20.659349 66.891327 46.50338
-18.993568 68.01503 45.386768
-10.575524 63.119625 44.181252
-12.441387 63.193832 45.348873
-12.079507 66.101028 43.26437
-14.900427 75.470863 37.961525
-15.224311 72.406708 40.589893
-16.702999 75.210152 39.076805
-17.067295 51.852139 54.059898
-18.368988 54.672264 53.164406
-16.631323 55.374012 52.080235
-16.37664 58.775345 50.137188
-16.055504 62.454533 47.852776
-9.879162 69.334015 39.606548
-11.883154 69.384666 40.878864
-11.52317 72.375633 38.420044
-12.988625 75.507721 36.823341
-10.006254 53.573627 49.036484
-11.297684 56.662231 48.321838
-9.562052 56.820423 47.079552
-9.131958 59.90823 45.10136
-8.847326 63.13427 43.010849
-5.468929 59.917549 42.627712
-6.901134 62.945305 41.809464
-8.412909 66.058571 40.865868
-7.947443 68.956055 38.570827
-7.570186 71.859108 36.167286
-15.66796 49.180595 54.661915
-13.864221 49.589928 53.44577
-12.032349 50.076229 52.066349
-10.274248 50.410305 50.742561
-8.533491 50.833069 49.369755
-6.7265 50.777786 48.188751
-4.995103 50.846535 47.028606
-23.088711 54.640274 53.765522
-22.823305 58.439835 51.733299
-19.757664 57.125217 52.274174
-21.236351 59.692127 51.065117
-22.666054 62.202888 49.53442
-22.30706 65.764351 47.293362
-12.741884 59.713367 47.587685
-14.217159 62.818645 46.650364
-15.764565 65.856819 45.556953
-13.68336 69.375931 41.989094
-15.525652 69.228111 43.114204
-17.20179 68.389 44.491291
-18.695072 71.300255 42.914913
-5.319192 55.541742 44.896457
-6.248159 55.547037 45.500134
-5.52292 53.992538 45.832325
-19.489333 52.154579 54.763599
-20.324105 51.550898 55.259502
-16.575674 76.683662 37.761429
-15.801713 75.340508 38.519165
-15.674388 76.814018 37.203789
-17.495817 76.496017 38.300962
-16.575674 76.683662 37.761429
-12.779378 76.839562 35.545687
-11.952345 75.322761 36.319679
-11.743098 76.654602 35.042024
-13.563747 78.241447 34.798538
-13.772994 76.909607 36.076193
-12.779378 76.839562 35.545687
-4.557402 59.926771 42.021179
-4.784275 58.456964 42.985596
-3.872747 58.466187 42.379063
-6.711743 64.456459 40.725277
-5.926881 62.934171 41.160366
-5.73749 64.445325 40.076179
-6.576633 71.629193 35.653874
-6.822128 70.363335 36.758442
-7.309724 73.187767 34.930597
-6.576633 71.629193 35.653874
-15.867246 47.408327 55.582477
-16.534129 48.676443 55.314232
-9.877664 47.292587 51.919915
-9.149634 45.681356 52.149233
-9.605739 48.860615 51.009714
-10.546174 48.842278 51.652761
-9.877664 47.292587 51.919915
-22.2588 55.23057 53.495316
-22.472877 53.401398 54.445978
-21.642966 53.991693 54.175772
-21.38249 68.06221 45.701416
-20.561752 68.716896 45.190966
-9.984007 75.099327 35.224163
-10.1847 73.592186 36.563147
-9.252643 73.553711 35.971293
-10.750597 76.598339 34.451115
-9.984007 75.099327 35.224163
-11.743098 76.654602 35.042024
-10.750597 76.598339 34.451115
-5.616295 65.966377 39.024831
-5.73749 64.445325 40.076179
-6.298211 67.417587 38.495344
-5.616295 65.966377 39.024831
-14.551687 44.408836 56.211603
-15.21109 45.913629 55.907419
-13.639477 44.731821 55.520569
-14.551687 44.408836 56.211603
-12.737073 44.965362 54.857191
-13.453245 46.424741 54.648421
-13.639477 44.731821 55.520569
-8.258956 45.870522 51.465966
-9.149634 45.681356 52.149233
-7.395491 46.020128 50.818432
-8.073764 47.460532 50.629334
-8.258956 45.870522 51.465966
-6.524069 46.073526 50.221464
-7.395491 46.020128 50.818432
-5.658988 46.193451 49.601591
-6.345219 47.730063 49.361927
-6.524069 46.073526 50.221464
-20.983073 52.777864 54.719259
-20.324105 51.550898 55.259502
-20.768995 54.607037 53.768597
-21.642966 53.991693 54.175772
-20.983073 52.777864 54.719259
-19.728862 69.278748 44.63266
-20.561752 68.716896 45.190966
-19.826459 67.453179 45.945074
-17.613931 74.920186 39.666305
-17.767328 73.284302 41.030817
-16.856395 73.574268 40.441316
-17.613931 74.920186 39.666305
-17.495817 76.496017 38.300962
-17.718142 53.262202 53.612152
-18.619276 52.794107 54.18976
-17.968429 51.384045 54.637507
-14.728895 76.891178 36.645285
-13.944526 75.489292 37.392433
-13.772994 76.909607 36.076193
-15.674388 76.814018 37.203789
-14.728895 76.891178 36.645285
-5.072026 57.046311 43.953873
-5.319192 55.541742 44.896457
-5.75668 58.506895 43.595989
-5.072026 57.046311 43.953873
-4.784275 58.456964 42.985596
-5.210778 61.420293 41.569491
-4.557402 59.926771 42.021179
-6.185032 61.431427 42.218588
-5.210778 61.420293 41.569491
-5.926881 62.934171 41.160366
-7.010757 68.911808 37.960212
-7.234897 67.461834 39.105958
-6.298211 67.417587 38.495344
-7.758814 70.407582 37.369056
-7.010757 68.911808 37.960212
-6.822128 70.363335 36.758442
-8.311068 73.45998 35.399797
-9.252643 73.553711 35.971293
-8.511761 71.952839 36.738781
-8.311068 73.45998 35.399797
-7.309724 73.187767 34.930597
-17.233797 50.012215 55.013223
-17.968429 51.384045 54.637507
-16.367628 50.516367 54.360906
-17.233797 50.012215 55.013223
-16.534129 48.676443 55.314232
-15.011805 47.685897 54.986857
-15.867246 47.408327 55.582477
-15.21109 45.913629 55.907419
-11.829844 45.216203 54.153715
-12.737073 44.965362 54.857191
-11.68447 46.966267 53.274002
-11.829844 45.216203 54.153715
-11.425224 48.67524 52.314656
-12.291595 48.367256 53.025696
-11.68447 46.966267 53.274002
-11.153299 50.243267 51.404455
-11.425224 48.67524 52.314656
-10.546174 48.842278 51.652761
-4.794528 52.416889 46.128628
-5.52292 53.992538 45.832325
-5.723496 52.422184 46.732304
-4.821241 46.309763 49.017414
-5.658988 46.193451 49.601591
-5.00009 44.653227 49.876951
-4.579904 47.744517 48.220843
-4.821241 46.309763 49.017414
-4.337386 49.24279 47.364119
-5.237621 49.348261 47.88533
-4.579904 47.744517 48.220843
-4.1421 50.8956 46.467247
-4.337386 49.24279 47.364119
-4.794528 52.416889 46.128628
-4.1421 50.8956 46.467247
-23.257077 52.637304 54.744064
-22.472877 53.401398 54.445978
-23.825133 53.794655 53.981992
-23.257077 52.637304 54.744064
-23.697416 55.787723 52.975279
-23.825133 53.794655 53.981992
-23.564713 57.687504 51.959167
-23.697416 55.787723 52.975279
-22.956008 56.540054 52.74941
-23.48029 59.441885 50.981638
-23.564713 57.687504 51.959167
-19.239045 54.032736 53.738245
-19.489333 52.154579 54.763599
-18.619276 52.794107 54.18976
-23.401664 61.323412 49.882199
-23.48029 59.441885 50.981638
-22.74468 60.321362 50.633859
-23.287889 63.199306 48.75398
-23.401664 61.323412 49.882199
-23.108393 64.980038 47.633451
-23.287889 63.199306 48.75398
-22.486557 63.98362 48.413891
-23.008904 66.809033 46.430506
-23.108393 64.980038 47.633451
-22.206345 67.498722 46.096407
-21.483204 66.327839 46.898371
-21.38249 68.06221 45.701416
-23.008904 66.809033 46.430506
-22.206345 67.498722 46.096407
-19.579614 70.92136 43.396732
-19.728862 69.278748 44.63266
-18.84432 69.657643 44.150841
-18.609968 72.965237 41.585359
-17.852432 71.61932 42.360371
-17.767328 73.284302 41.030817
-19.490631 72.489487 42.177368
-18.609968 72.965237 41.585359
-19.579614 70.92136 43.396732
-19.490631 72.489487 42.177368
3 0 21 19
3 79 25 80
3 81 80 23
3 79 80 81
3 82 28 83
3 2 31 29
3 2 33 31
3 1 36 34
3 84 39 85
3 86 85 37
3 84 85 86
3 88 87 39
3 3 42 40
3 5 43 20
3 5 44 43
3 6 47 45
3 89 48 90
3 91 90 22
3 89 90 91
3 94 93 48
3 92 93 94
3 8 51 49
3 10 52 24
3 10 53 52
3 95 54 96
3 95 96 97
3 11 98 100
3 98 55 99
3 98 99 100
3 11 56 55
3 11 57 56
3 101 58 102
3 104 103 58
3 105 59 106
3 12 60 26
3 12 61 60
3 13 107 108
3 13 109 111
3 109 62 110
3 109 110 111
3 13 63 62
3 14 64 27
3 14 65 64
3 15 112 114
3 112 66 113
3 112 113 114
3 15 67 66
3 4 68 41
3 16 69 30
3 16 70 69
3 16 71 70
3 116 115 32
3 9 72 50
3 17 73 35
3 17 74 73
3 7 75 46
3 18 76 38
3 18 77 76
3 18 78 77
3 19 20 3
3 21 20 19
3 21 5 20
3 117 22 118
3 119 118 6
3 117 118 119
3 120 22 121
3 123 122 22
3 23 24 8
3 25 24 23
3 25 10 24
3 124 11 125
3 127 126 11
3 128 26 129
3 130 26 131
3 132 12 133
3 134 133 26
3 132 133 134
3 135 13 136
3 137 27 138
3 139 138 13
3 137 138 139
3 140 27 141
3 142 14 143
3 144 143 27
3 142 143 144
3 28 145 146
3 28 147 149
3 147 15 148
3 147 148 149
3 29 30 4
3 31 30 29
3 31 16 30
3 31 32 16
3 33 32 31
3 33 150 152
3 152 151 32
3 150 151 152
3 34 35 9
3 36 35 34
3 36 17 35
3 37 38 7
3 39 38 37
3 39 18 38
3 39 153 155
3 155 154 18
3 153 154 155
3 157 156 39
3 40 158 160
3 158 41 159
3 158 159 160
3 42 41 40
3 42 4 41
3 20 42 3
3 43 42 20
3 43 4 42
3 43 29 4
3 44 29 43
3 44 2 29
3 45 46 1
3 47 46 45
3 47 7 46
3 22 47 6
3 48 47 22
3 48 7 47
3 48 37 7
3 161 37 162
3 163 162 48
3 161 162 163
3 165 164 37
3 49 50 0
3 51 50 49
3 51 9 50
3 24 51 8
3 52 51 24
3 52 9 51
3 52 34 9
3 53 34 52
3 53 1 34
3 166 25 167
3 54 168 170
3 168 25 169
3 168 169 170
3 54 10 25
3 171 54 172
3 55 173 175
3 173 54 174
3 173 174 175
3 55 10 54
3 55 53 10
3 56 53 55
3 56 1 53
3 56 45 1
3 57 45 56
3 57 6 45
3 176 57 177
3 178 177 11
3 176 177 178
3 58 179 181
3 179 57 180
3 179 180 181
3 58 6 57
3 58 182 184
3 184 183 6
3 182 183 184
3 186 185 58
3 187 40 188
3 59 189 191
3 189 40 190
3 189 190 191
3 59 3 40
3 26 192 194
3 192 59 193
3 192 193 194
3 60 59 26
3 60 3 59
3 60 19 3
3 61 19 60
3 61 0 19
3 195 12 196
3 197 12 198
3 199 61 200
3 201 200 12
3 199 200 201
3 62 202 204
3 202 61 203
3 202 203 204
3 62 0 61
3 62 49 0
3 63 49 62
3 63 8 49
3 27 63 13
3 64 63 27
3 64 8 63
3 64 23 8
3 65 23 64
3 65 205 207
3 207 206 23
3 205 206 207
3 208 14 209
3 208 209 210
3 211 14 212
3 213 65 214
3 215 214 14
3 213 214 215
3 216 65 217
3 219 218 65
3 66 220 221
3 66 222 223
3 66 224 225
3 67 226 228
3 228 227 66
3 226 227 228
3 67 229 230
3 41 231 233
3 231 28 232
3 231 232 233
3 68 28 41
3 68 15 28
3 30 68 4
3 69 68 30
3 69 15 68
3 69 67 15
3 70 67 69
3 70 234 236
3 236 235 67
3 234 235 236
3 70 237 238
3 71 239 241
3 241 240 70
3 239 240 241
3 71 242 243
3 32 71 16
3 244 71 245
3 246 245 32
3 244 245 246
3 248 247 71
3 50 21 0
3 72 21 50
3 72 5 21
3 35 72 9
3 73 72 35
3 73 5 72
3 73 44 5
3 74 44 73
3 74 2 44
3 46 36 1
3 75 36 46
3 75 17 36
3 38 75 7
3 76 75 38
3 76 17 75
3 76 74 17
3 77 74 76
3 77 2 74
3 77 33 2
3 78 33 77
3 78 249 251
3 251 250 33
3 249 250 251
3 252 78 253
3 254 253 18
3 252 253 254
3 255 78 256
3 258 257 78
