ply
format ascii 1.0
element vertex 344
property float x
property float y
property float z
element face 355
property list uchar int vertex_index
end_header
-20.597038 56.571087 -52.50872
-22.337431 46.181484 -51.025429
-15.656381 44.229809 -52.352444
-33.795647 56.244007 -41.198788
-20.012562 69.454704 -52.144062
-25.850475 62.889072 -50.949558
-28.943462 50.868393 -47.705826
-8.926097 44.747826 -52.946301
-21.577196 52.104603 -51.983803
-19.109072 44.969933 -51.817654
-18.617989 50.932861 -52.412769
-32.42952 63.566265 -43.809952
-31.657909 53.53941 -44.877621
-30.280018 60.490906 -47.194698
-27.666294 57.595451 -49.557453
-20.68285 62.491962 -52.508183
-18.054266 57.040169 -52.658085
-23.283575 67.167809 -51.824818
-23.079561 59.685081 -52.059589
-32.640152 45.786072 -42.243858
-29.77965 43.362221 -45.494568
-26.397219 40.976101 -47.930923
-25.895142 48.411285 -49.641113
-24.643322 54.417309 -51.110401
-15.302791 51.102924 -52.604153
-12.358906 44.517128 -52.71669
-21.11426 54.738537 -52.313644
-20.133144 51.60804 -52.252316
-19.71702 54.120792 -52.486156
-31.577841 66.644127 -45.045513
-31.404972 61.827423 -45.670513
-30.552885 65.232376 -46.748466
-29.485106 63.615936 -48.097626
-22.704422 42.891777 -50.36858
-17.329863 44.579933 -52.124805
-17.542717 41.377914 -51.783585
-14.018003 40.713737 -52.422291
-20.51082 65.98732 -52.372585
-19.204786 63.52113 -52.547768
-18.746387 66.951729 -52.365822
-21.791897 68.428589 -52.051323
-22.002832 64.836464 -52.242771
-34.353283 52.212273 -39.777328
-33.859699 47.287411 -40.324253
-33.359783 51.035824 -41.765717
-30.303427 52.015213 -46.454716
-30.843588 48.212837 -45.219345
-29.411924 47.13538 -46.625824
-28.156557 42.225521 -46.811428
-27.788309 45.887436 -47.85984
-26.118477 44.713097 -48.863369
-27.439455 49.706005 -48.791588
-26.836586 60.294838 -50.306664
-26.137745 55.924522 -50.458809
-25.388365 58.749348 -51.084885
-24.00839 57.364517 -51.628372
-24.500025 61.359173 -51.584633
-16.463722 57.499294 -52.629559
-16.736147 54.21265 -52.63261
-15.060726 54.326794 -52.605286
-10.317771 48.069504 -52.6726
-12.079716 47.917114 -52.669704
-10.663384 44.708912 -52.842239
-10.856547 41.36956 -52.930569
-9.254285 41.639378 -53.140289
-22.036623 49.441422 -51.560146
-20.702631 45.310886 -51.448853
-20.414408 48.658459 -51.917789
-18.854639 48.045109 -52.165565
-17.155005 47.761784 -52.373627
-33.133934 59.662987 -42.609592
-32.836365 54.718456 -43.078747
-32.177246 58.52346 -44.411606
-31.028494 56.986603 -46.074013
-29.819754 56.030151 -47.457172
-28.428303 54.349796 -48.631424
-29.044476 58.864475 -48.460003
-28.277042 62.035664 -49.263485
-27.147003 64.775856 -50.114426
-19.205109 41.638191 -51.397293
-20.693769 59.257397 -52.546005
-19.528019 56.859062 -52.608227
-19.387884 59.997948 -52.63105
-17.786699 60.42408 -52.627686
-27.253 69.452614 -49.720451
-26.008495 67.115936 -50.721592
-24.655886 69.056564 -51.210629
-24.613167 65.261009 -51.484943
-23.394396 63.319344 -51.967876
-21.971491 61.288757 -52.345383
-21.735699 57.949486 -52.357056
-32.149155 49.742466 -43.664944
-31.182667 44.486938 -44.083187
-24.493193 43.954697 -49.692688
-24.081144 47.186356 -50.435101
-26.866133 53.019619 -49.671776
-25.240274 51.435596 -50.459206
-23.615648 50.338448 -51.091991
-23.154848 53.490417 -51.631927
-22.482819 55.892414 -52.056259
-18.354422 54.032494 -52.586632
-17.035984 51.080112 -52.544601
-15.586492 47.777466 -52.5168
-13.599918 51.173706 -52.600082
-13.879304 47.696445 -52.615723
-14.069263 44.323055 -52.549976
-12.453017 41.038631 -52.69096
-7.271711 45.035702 -52.990875
-30.58229 67.432514 -46.448207
-31.065363 65.938252 -45.89699
-31.094769 68.138389 -45.596731
-30.052253 66.740318 -47.234201
-30.58229 67.432514 -46.448207
-21.619493 44.026673 -50.964733
-21.802989 42.381819 -50.636308
-22.520927 44.536631 -50.697005
-15.727449 42.590411 -52.230804
-16.56419 42.765473 -52.116985
-16.493122 44.404871 -52.238625
-14.837192 42.471773 -52.387367
-14.90826 40.832375 -52.265728
-15.727449 42.590411 -52.230804
-20.902229 68.941647 -52.097692
-21.524008 70.346939 -51.888012
-20.634341 70.859996 -51.934382
-14.8107 55.920996 -52.560209
-15.762224 55.913044 -52.617423
-15.512198 57.507246 -52.572346
-28.341017 64.355493 -49.141989
-28.881074 62.8258 -48.680555
-28.945048 65.145629 -48.55906
-27.775997 65.72559 -49.567459
-27.712023 63.40576 -49.688956
-28.341017 64.355493 -49.141989
-17.537843 39.654485 -51.586058
-16.710021 39.565259 -51.794052
-17.60201 62.122558 -52.562291
-18.495742 61.972605 -52.587727
-18.311053 63.671083 -52.522331
-16.859469 60.597856 -52.57514
-17.60201 62.122558 -52.562291
-26.558267 70.470169 -50.039562
-27.207659 71.515907 -49.449764
-25.936014 69.30183 -50.540132
-26.630747 68.284275 -50.221021
-26.558267 70.470169 -50.039562
-23.96973 68.112187 -51.517724
-23.854186 69.991894 -51.37266
-23.168031 69.047516 -51.679755
-32.810488 43.942431 -41.591328
-33.420261 44.6931 -40.631525
-33.249926 46.536741 -41.284056
-32.116594 43.29397 -42.482123
-32.810488 43.942431 -41.591328
-29.946426 41.531363 -44.890119
-30.647934 42.093721 -44.184429
-30.481158 43.92458 -44.788877
-29.11381 40.920975 -45.590706
-29.946426 41.531363 -44.890119
-26.54578 39.269836 -47.439199
-27.425449 39.894547 -46.879452
-27.276888 41.600811 -47.371175
-25.587436 38.66433 -47.964862
-26.54578 39.269836 -47.439199
-25.564653 40.581785 -48.387332
-25.587436 38.66433 -47.964862
-12.713317 51.122886 -52.575204
-13.360305 52.817873 -52.54883
-10.919113 39.667581 -52.928526
-10.132857 39.851938 -53.100205
-6.390524 45.23258 -52.978809
-7.022803 46.684218 -52.760599
-29.518364 65.932098 -47.908781
-30.018995 64.424156 -47.423046
-30.052253 66.740318 -47.234201
-28.945048 65.145629 -48.55906
-29.518364 65.932098 -47.908781
-21.916856 40.735807 -50.330179
-22.84798 41.167834 -49.999312
-21.916856 40.735807 -50.330179
-21.802989 42.381819 -50.636308
-16.670617 41.164463 -51.946375
-17.43629 42.978923 -51.954195
-16.56419 42.765473 -52.116985
-16.710021 39.565259 -51.794052
-16.670617 41.164463 -51.946375
-14.105915 39.104492 -52.305287
-14.90826 40.832375 -52.265728
-13.231177 39.11216 -52.506726
-14.105915 39.104492 -52.305287
-18.081854 65.386383 -52.431359
-18.311053 63.671083 -52.522331
-18.975586 65.236429 -52.456795
-22.422191 69.677906 -51.793007
-21.524008 70.346939 -51.888012
-22.537736 67.798199 -51.93807
-23.168031 69.047516 -51.679755
-22.422191 69.677906 -51.793007
-34.106491 49.749842 -40.05079
-34.366788 47.709929 -39.269888
-34.61358 50.172359 -38.996426
-11.198743 47.993309 -52.671152
-11.953215 49.494591 -52.610016
-11.072243 49.570785 -52.611463
-9.331726 39.986847 -53.205065
-10.132857 39.851938 -53.100205
-10.055416 41.504469 -53.035429
-19.010041 69.893185 -52.10507
-19.733435 71.310146 -51.946533
-19.733435 71.310146 -51.946533
-20.634341 70.859996 -51.934382
-10.133506 49.787295 -52.543183
-11.072243 49.570785 -52.611463
-9.481188 48.150925 -52.64954
-10.133506 49.787295 -52.543183
-8.785351 46.490086 -52.78639
-9.621934 46.408665 -52.80945
-9.481188 48.150925 -52.64954
-20.802093 43.591374 -51.176445
-21.619493 44.026673 -50.964733
-21.520031 45.746185 -51.237141
-20.053332 41.755026 -51.150665
-20.802093 43.591374 -51.176445
-19.95387 43.474539 -51.423073
-19.245706 39.922506 -51.146918
-20.053332 41.755026 -51.150665
-18.369039 39.784624 -51.392912
-18.373913 41.508052 -51.590439
-17.537843 39.654485 -51.586058
-19.245706 39.922506 -51.146918
-18.369039 39.784624 -51.392912
-34.78785 52.718495 -38.651912
-34.61358 50.172359 -38.996426
-35.048147 50.678581 -37.87101
-34.484463 54.724884 -39.444053
-34.78785 52.718495 -38.651912
-34.205645 56.740751 -40.154784
-34.074465 54.22814 -40.488058
-34.484463 54.724884 -39.444053
-33.877312 58.708655 -40.876608
-34.205645 56.740751 -40.154784
-33.546456 60.418144 -41.58201
-33.464791 57.953497 -41.90419
-33.877312 58.708655 -40.876608
-33.199585 62.192543 -42.215456
-33.546456 60.418144 -41.58201
-32.847378 64.144182 -42.815636
-32.781727 61.614626 -43.209772
-33.199585 62.192543 -42.215456
-32.401972 65.977266 -43.502251
-32.847378 64.144182 -42.815636
-31.976132 67.516198 -44.120031
-32.003681 65.105196 -44.427733
-32.401972 65.977266 -43.502251
-31.527857 69.10384 -44.659554
-31.976132 67.516198 -44.120031
-31.094769 68.138389 -45.596731
-31.527857 69.10384 -44.659554
-16.197981 59.135464 -52.576076
-17.125211 58.961687 -52.628622
-16.859469 60.597856 -52.57514
-15.512198 57.507246 -52.572346
-16.197981 59.135464 -52.576076
-18.376954 68.641697 -52.21595
-19.379475 68.203216 -52.254942
-19.010041 69.893185 -52.10507
-17.7812 67.077267 -52.311769
-18.376954 68.641697 -52.21595
-18.081854 65.386383 -52.431359
-17.7812 67.077267 -52.311769
-27.83875 70.247146 -49.126818
-27.207659 71.515907 -49.449764
-27.828995 68.063969 -49.370472
-27.83875 70.247146 -49.126818
-27.200001 67.114235 -49.917439
-27.775997 65.72559 -49.567459
-27.828995 68.063969 -49.370472
-24.488206 71.155757 -51.011492
-23.854186 69.991894 -51.37266
-25.259709 70.272144 -50.784651
-24.488206 71.155757 -51.011492
-25.33219 68.08625 -50.96611
-25.936014 69.30183 -50.540132
-25.259709 70.272144 -50.784651
-34.025375 45.25771 -39.651165
-34.366788 47.709929 -39.269888
-34.025375 45.25771 -39.651165
-33.420261 44.6931 -40.631525
-31.387851 42.644403 -43.401787
-32.116594 43.29397 -42.482123
-31.911409 45.136505 -43.163522
-31.387851 42.644403 -43.401787
-30.647934 42.093721 -44.184429
-28.302263 40.352625 -46.249136
-29.11381 40.920975 -45.590706
-28.968103 42.793871 -46.152998
-28.302263 40.352625 -46.249136
-27.425449 39.894547 -46.879452
-25.425283 42.450283 -48.853555
-25.564653 40.581785 -48.387332
-26.257848 42.844599 -48.397146
-24.612641 42.071083 -49.268215
-25.425283 42.450283 -48.853555
-25.305835 44.333897 -49.278028
-23.742366 41.699294 -49.661366
-24.612641 42.071083 -49.268215
-23.598807 43.423237 -50.030634
-22.84798 41.167834 -49.999312
-23.742366 41.699294 -49.661366
-14.090709 54.394417 -52.551432
-14.8107 55.920996 -52.560209
-14.330322 52.75025 -52.602684
-14.090709 54.394417 -52.551432
-13.360305 52.817873 -52.54883
-12.839817 49.54541 -52.634893
-12.713317 51.122886 -52.575204
-11.953215 49.494591 -52.610016
-12.448683 39.274607 -52.64106
-13.231177 39.11216 -52.506726
-13.23551 40.876184 -52.556625
-11.717347 39.502117 -52.808721
-11.654782 41.204096 -52.810764
-10.919113 39.667581 -52.928526
-12.448683 39.274607 -52.64106
-11.717347 39.502117 -52.808721
-7.958158 46.634024 -52.808678
-7.022803 46.684218 -52.760599
-8.098904 44.891764 -52.968588
-8.785351 46.490086 -52.78639
-7.958158 46.634024 -52.808678
-6.547717 43.649299 -53.248474
-6.390524 45.23258 -52.978809
-7.407058 43.430756 -53.170771
-6.547717 43.649299 -53.248474
-8.234251 43.286817 -53.148483
-8.098904 44.891764 -52.968588
-7.407058 43.430756 -53.170771
-8.398345 41.732594 -53.245477
-9.090191 43.193602 -53.043295
-8.234251 43.286817 -53.148483
-8.522996 40.212229 -53.371837
-8.398345 41.732594 -53.245477
-9.331726 39.986847 -53.205065
-8.522996 40.212229 -53.371837
3 0 28 26
3 108 31 109
3 110 109 29
3 108 109 110
3 112 111 31
3 1 113 115
3 115 114 33
3 113 114 115
3 2 116 118
3 118 117 34
3 116 117 118
3 2 119 121
3 119 36 120
3 119 120 121
3 4 39 37
3 4 122 124
3 122 40 123
3 122 123 124
3 4 37 40
3 3 44 42
3 6 47 45
3 6 49 47
3 6 51 49
3 5 54 52
3 5 56 54
3 125 59 126
3 127 126 57
3 125 126 127
3 7 62 60
3 7 64 62
3 8 67 65
3 10 68 27
3 10 69 68
3 11 72 70
3 13 73 30
3 13 74 73
3 13 76 74
3 128 77 129
3 130 129 32
3 128 129 130
3 131 78 132
3 133 132 77
3 131 132 133
3 9 79 66
3 135 134 35
3 15 82 80
3 136 83 137
3 138 137 38
3 136 137 138
3 140 139 83
3 141 84 142
3 143 85 144
3 145 144 84
3 143 144 145
3 17 146 148
3 146 86 147
3 146 147 148
3 17 87 86
3 17 88 87
3 15 89 41
3 15 80 89
3 19 149 151
3 151 150 43
3 149 150 151
3 19 152 153
3 12 91 71
3 20 92 46
3 20 154 156
3 156 155 92
3 154 155 156
3 20 157 158
3 21 159 161
3 161 160 48
3 159 160 161
3 21 162 163
3 21 164 165
3 22 93 50
3 22 94 93
3 14 95 75
3 23 96 53
3 23 97 96
3 23 98 97
3 18 99 55
3 18 90 99
3 16 100 81
3 24 101 58
3 24 102 101
3 166 103 167
3 25 104 61
3 25 105 104
3 25 106 105
3 169 168 63
3 170 107 171
3 26 27 8
3 28 27 26
3 28 10 27
3 29 30 11
3 31 30 29
3 31 13 30
3 31 32 13
3 172 32 173
3 174 173 31
3 172 173 174
3 176 175 32
3 33 177 178
3 180 179 33
3 34 35 9
3 181 35 182
3 183 182 34
3 181 182 183
3 185 184 35
3 36 186 187
3 36 188 189
3 37 38 15
3 39 38 37
3 39 190 192
3 192 191 38
3 190 191 192
3 40 193 194
3 40 195 197
3 195 17 196
3 195 196 197
3 40 41 17
3 37 41 40
3 37 15 41
3 42 198 200
3 198 43 199
3 198 199 200
3 44 43 42
3 44 19 43
3 45 46 12
3 47 46 45
3 47 20 46
3 47 48 20
3 49 48 47
3 49 21 48
3 49 50 21
3 51 50 49
3 51 22 50
3 52 53 14
3 54 53 52
3 54 23 53
3 54 55 23
3 56 55 54
3 56 18 55
3 57 58 16
3 59 58 57
3 59 24 58
3 60 201 203
3 201 61 202
3 201 202 203
3 62 61 60
3 62 25 61
3 62 63 25
3 64 63 62
3 64 204 206
3 206 205 63
3 204 205 206
3 65 66 1
3 67 66 65
3 67 9 66
3 27 67 8
3 68 67 27
3 68 9 67
3 68 34 9
3 69 34 68
3 69 2 34
3 208 207 4
3 209 4 210
3 70 71 3
3 72 71 70
3 72 12 71
3 30 72 11
3 73 72 30
3 73 12 72
3 73 45 12
3 74 45 73
3 74 6 45
3 74 75 6
3 76 75 74
3 76 14 75
3 32 76 13
3 77 76 32
3 77 14 76
3 77 52 14
3 78 52 77
3 78 5 52
3 211 60 212
3 213 60 214
3 215 7 216
3 217 216 60
3 215 216 217
3 66 218 220
3 220 219 1
3 218 219 220
3 79 221 223
3 223 222 66
3 221 222 223
3 79 224 225
3 35 79 9
3 226 79 227
3 228 227 35
3 226 227 228
3 230 229 79
3 231 42 232
3 231 232 233
3 234 42 235
3 236 3 237
3 238 237 42
3 236 237 238
3 239 3 240
3 241 70 242
3 243 242 3
3 241 242 243
3 244 70 245
3 246 11 247
3 248 247 70
3 246 247 248
3 249 11 250
3 251 29 252
3 253 252 11
3 251 252 253
3 254 29 255
3 257 256 29
3 80 81 0
3 82 81 80
3 82 16 81
3 38 82 15
3 83 82 38
3 83 16 82
3 83 57 16
3 258 57 259
3 260 259 83
3 258 259 260
3 262 261 57
3 263 39 264
3 265 264 4
3 263 264 265
3 266 39 267
3 269 268 39
3 84 270 271
3 84 272 273
3 84 274 276
3 274 78 275
3 274 275 276
3 85 78 84
3 85 5 78
3 86 277 278
3 86 279 280
3 86 281 283
3 281 85 282
3 281 282 283
3 87 85 86
3 87 5 85
3 87 56 5
3 88 56 87
3 88 18 56
3 41 88 17
3 89 88 41
3 89 18 88
3 89 90 18
3 80 90 89
3 80 0 90
3 43 284 285
3 287 286 43
3 71 44 3
3 91 44 71
3 91 19 44
3 46 91 12
3 92 91 46
3 92 19 91
3 92 288 290
3 290 289 19
3 288 289 290
3 292 291 92
3 48 293 295
3 295 294 20
3 293 294 295
3 297 296 48
3 50 298 300
3 300 299 21
3 298 299 300
3 93 301 303
3 303 302 50
3 301 302 303
3 93 304 305
3 93 306 308
3 306 33 307
3 306 307 308
3 94 33 93
3 94 1 33
3 75 51 6
3 95 51 75
3 95 22 51
3 53 95 14
3 96 95 53
3 96 22 95
3 96 94 22
3 97 94 96
3 97 1 94
3 97 65 1
3 98 65 97
3 98 8 65
3 55 98 23
3 99 98 55
3 99 8 98
3 99 26 8
3 90 26 99
3 90 0 26
3 81 28 0
3 100 28 81
3 100 10 28
3 58 100 16
3 101 100 58
3 101 10 100
3 101 69 10
3 102 69 101
3 102 2 69
3 309 59 310
3 103 311 313
3 311 59 312
3 311 312 313
3 103 24 59
3 61 314 316
3 314 103 315
3 314 315 316
3 104 103 61
3 104 24 103
3 104 102 24
3 105 102 104
3 105 2 102
3 105 36 2
3 106 36 105
3 106 317 319
3 319 318 36
3 317 318 319
3 63 106 25
3 320 106 321
3 322 321 63
3 320 321 322
3 324 323 106
3 107 325 326
3 107 327 329
3 327 7 328
3 327 328 329
3 330 107 331
3 332 107 333
3 334 7 335
3 336 335 107
3 334 335 336
3 337 64 338
3 339 338 7
3 337 338 339
3 340 64 341
3 343 342 64
