ply
format ascii 1.0
element vertex 232
property float x
property float y
property float z
element face 220
property list uchar int vertex_index
end_header
-39.779053 -25.106714 -17.441034
-39.099323 -34.481323 -16.320889
-38.937374 -36.599796 -22.968935
-40.655594 -25.933966 -24.456884
-38.25045 -37.085232 -8.223651
-39.779675 -29.787827 -17.048817
-39.980728 -30.398254 -20.523865
-40.396767 -25.486475 -21.122086
-40.813183 -21.144676 -24.750761
-40.201416 -20.77276 -21.400639
-38.003696 -38.410576 -11.715071
-39.029964 -33.680386 -12.625997
-39.279537 -28.988869 -13.305013
-38.935661 -37.631031 -26.384974
-40.041504 -32.103149 -27.180084
-39.037483 -35.415951 -19.683119
-40.044807 -31.139103 -23.938705
-39.876022 -27.361605 -17.312048
-40.119289 -27.571556 -19.183876
-40.146278 -25.346004 -19.325855
-40.369179 -23.270765 -21.196177
-40.006676 -23.033178 -19.443058
-38.598507 -34.990582 -8.486881
-38.631302 -35.510231 -10.434476
-38.948002 -33.141628 -10.880483
-39.277145 -31.243759 -13.130168
-38.247631 -39.262615 -22.457726
-38.228558 -39.873413 -24.12993
-38.919601 -37.183895 -24.735695
-39.536625 -34.845051 -26.775591
-39.518406 -34.411671 -24.995193
-38.490231 -37.031258 -15.819268
-39.054104 -35.009518 -17.925163
-40.354725 -28.22187 -22.657505
-39.99921 -30.928967 -22.254335
-40.411339 -28.515963 -24.288286
-40.886749 -23.861727 -26.321857
-39.52507 -32.032898 -16.673525
-39.543465 -32.590382 -18.405993
-39.910553 -30.05533 -18.836763
-40.271141 -27.850731 -20.950897
-40.550198 -25.701841 -22.750759
-40.783512 -23.534643 -24.587158
-40.627037 -23.288458 -22.973886
-40.565262 -21.026518 -23.064417
-38.562504 -36.531918 -14.122203
-38.147678 -37.744129 -9.94874
-38.623959 -35.984604 -12.306733
-39.071243 -34.177593 -14.524824
-39.393406 -31.923349 -14.781062
-39.582939 -29.441599 -15.240396
-39.52401 -27.177286 -15.315208
-38.8979 -38.280758 -27.959051
-39.560959 -35.232571 -28.421741
-40.089993 -32.327011 -28.829378
-38.946274 -36.135803 -21.254572
-39.583752 -32.870499 -20.252985
-39.569202 -33.356373 -21.870478
-39.54174 -33.871662 -23.398979
-40.057575 -31.522877 -25.54306
-38.860468 -32.982452 -9.924408
-38.773255 -34.066105 -9.683682
-38.685721 -33.90693 -8.727607
-38.989159 -32.001512 -11.031914
-38.860468 -32.982452 -9.924408
-40.691456 -26.058629 -25.321018
-40.569328 -27.349628 -25.236719
-40.533467 -27.224964 -24.372585
-40.771172 -24.897846 -25.38937
-40.807034 -25.022509 -26.253504
-40.691456 -26.058629 -25.321018
-40.281206 -19.769747 -22.25224
-40.463129 -19.896625 -23.084128
-40.383339 -20.899639 -22.232528
-37.931085 -38.718324 -12.646889
-37.606899 -39.629909 -11.416546
-38.2831 -37.471247 -12.918637
-38.210489 -37.778995 -13.850455
-37.931085 -38.718324 -12.646889
-38.199064 -37.414681 -9.086196
-37.902477 -38.570841 -8.741853
-37.953863 -38.241392 -7.879309
-38.547279 -39.144305 -26.03395
-38.193728 -40.265496 -24.906428
-38.58211 -38.752222 -25.257452
-38.916781 -37.955894 -27.172013
-38.528399 -39.469168 -26.820988
-38.547279 -39.144305 -26.03395
-40.276922 -30.796033 -28.236695
-40.301167 -30.907964 -29.061342
-40.065748 -32.21508 -28.004731
-38.690359 -36.747515 -19.41407
-38.711825 -36.527946 -18.589676
-38.991878 -35.775877 -20.468846
-38.644755 -37.107441 -20.199796
-38.690359 -36.747515 -19.41407
-40.897011 -21.205115 -25.624948
-40.882176 -22.400098 -25.543146
-40.798348 -22.339659 -24.668959
-37.724216 -39.26561 -10.514477
-37.606899 -39.629909 -11.416546
-39.15373 -31.052578 -12.156757
-39.112573 -32.192693 -12.005325
-38.989159 -32.001512 -11.031914
-39.154926 -29.925133 -12.244179
-39.278341 -30.116314 -13.217591
-39.15373 -31.052578 -12.156757
-38.238095 -39.568014 -23.293828
-37.820927 -41.000593 -23.031008
-37.830464 -40.695194 -22.194906
-38.438198 -37.3356 -16.65775
-38.111404 -38.30044 -15.504969
-38.720135 -36.32473 -17.710698
-38.438198 -37.3356 -16.65775
-38.772168 -36.020388 -16.872215
-39.045794 -35.212734 -18.804141
-38.711825 -36.527946 -18.589676
-38.720135 -36.32473 -17.710698
-40.43631 -28.637711 -25.151334
-40.253044 -29.949281 -24.976544
-40.228073 -29.827533 -24.113495
-40.43631 -28.637711 -25.151334
-40.569328 -27.349628 -25.236719
-40.92857 -23.880187 -27.183876
-40.807034 -25.022509 -26.253504
-40.983982 -22.613843 -27.19444
-40.92857 -23.880187 -27.183876
-40.892984 -19.996416 -25.669904
-40.774695 -19.994664 -24.828272
-38.034737 -37.911255 -7.002104
-37.953863 -38.241392 -7.879309
-38.263233 -36.832283 -7.270461
-38.034737 -37.911255 -7.002104
-38.437261 -35.784958 -7.402076
-38.424478 -36.037907 -8.355266
-38.263233 -36.832283 -7.270461
-38.565073 -34.629008 -7.62399
-38.437261 -35.784958 -7.402076
-38.685721 -33.90693 -8.727607
-38.565073 -34.629008 -7.62399
-37.839911 -40.382784 -21.325443
-37.830464 -40.695194 -22.194906
-38.243391 -39.03787 -21.583558
-37.839911 -40.382784 -21.325443
-38.588262 -37.706461 -21.839162
-38.592502 -37.931205 -22.71333
-38.243391 -39.03787 -21.583558
-40.650734 -19.935585 -23.9851
-40.774695 -19.994664 -24.828272
-40.689222 -21.085597 -23.907589
-40.650734 -19.935585 -23.9851
-40.463129 -19.896625 -23.084128
-38.174353 -38.028666 -14.698987
-38.111404 -38.30044 -15.504969
-38.526367 -36.781588 -14.970735
-38.174353 -38.028666 -14.698987
-38.210489 -37.778995 -13.850455
-37.796207 -38.932386 -9.631312
-37.902477 -38.570841 -8.741853
-38.075687 -38.077353 -10.831906
-37.724216 -39.26561 -10.514477
-37.796207 -38.932386 -9.631312
-39.089281 -28.840924 -12.379646
-39.154926 -29.925133 -12.244179
-39.195023 -27.909208 -13.445309
-39.089281 -28.840924 -12.379646
-39.317259 -27.003416 -14.450406
-39.401773 -28.083078 -14.310111
-39.195023 -27.909208 -13.445309
-39.408893 -25.992863 -15.462069
-39.317259 -27.003416 -14.450406
-39.536415 -24.957577 -16.524981
-39.651531 -26.142 -16.378121
-39.408893 -25.992863 -15.462069
-39.642235 -23.952723 -17.532135
-39.536415 -24.957577 -16.524981
-39.756046 -22.915954 -18.533147
-39.892865 -24.069946 -18.442046
-39.642235 -23.952723 -17.532135
-39.843386 -21.849604 -19.486251
-39.756046 -22.915954 -18.533147
-39.940756 -20.719394 -20.465042
-40.104046 -21.902969 -20.421849
-39.843386 -21.849604 -19.486251
-40.023111 -19.73337 -21.328194
-39.940756 -20.719394 -20.465042
-40.281206 -19.769747 -22.25224
-40.023111 -19.73337 -21.328194
-37.8219 -41.28078 -23.823854
-37.820927 -41.000593 -23.031008
-37.8219 -41.28078 -23.823854
-38.193728 -40.265496 -24.906428
-38.533417 -39.743145 -27.772362
-38.528399 -39.469168 -26.820988
-38.878079 -38.592216 -28.849901
-38.533417 -39.743145 -27.772362
-39.233267 -36.977993 -29.082895
-38.878079 -38.592216 -28.849901
-39.564796 -35.453899 -29.31424
-39.233267 -36.977993 -29.082895
-39.229429 -36.756664 -28.190396
-39.823133 -34.03676 -29.44614
-39.564796 -35.453899 -29.31424
-40.08765 -32.58398 -29.649958
-39.823133 -34.03676 -29.44614
-39.825476 -33.779791 -28.62556
-40.308007 -31.126571 -29.874533
-40.08765 -32.58398 -29.649958
-40.308007 -31.126571 -29.874533
-40.301167 -30.907964 -29.061342
-38.592713 -37.474464 -20.98198
-38.644755 -37.107441 -20.199796
-38.941824 -36.3678 -22.111753
-38.588262 -37.706461 -21.839162
-38.592713 -37.474464 -20.98198
-40.259428 -30.141168 -25.778721
-40.051191 -31.33099 -24.740882
-40.253044 -29.949281 -24.976544
-40.257242 -30.421957 -26.541541
-40.259428 -30.141168 -25.778721
-40.249206 -30.712093 -27.360053
-40.04954 -31.813013 -26.361572
-40.257242 -30.421957 -26.541541
-40.276922 -30.796033 -28.236695
-40.249206 -30.712093 -27.360053
-40.933794 -22.56364 -26.410496
-40.835131 -23.698185 -25.454507
-40.882176 -22.400098 -25.543146
-40.983982 -22.613843 -27.19444
-40.933794 -22.56364 -26.410496
-40.897011 -21.205115 -25.624948
-40.892984 -19.996416 -25.669904
3 0 19 17
3 0 21 19
3 60 24 61
3 62 61 22
3 60 61 62
3 64 63 24
3 2 28 26
3 2 30 28
3 1 32 31
3 3 35 33
3 3 65 67
3 67 66 35
3 65 66 67
3 3 68 70
3 68 36 69
3 68 69 70
3 5 39 37
3 7 40 18
3 7 41 40
3 7 43 41
3 9 44 20
3 9 71 73
3 73 72 44
3 71 72 73
3 10 74 75
3 10 76 78
3 76 45 77
3 76 77 78
3 4 79 81
3 79 46 80
3 79 80 81
3 11 47 23
3 11 48 47
3 11 49 48
3 12 50 25
3 12 51 50
3 13 82 84
3 84 83 27
3 82 83 84
3 13 85 87
3 85 52 86
3 85 86 87
3 13 53 52
3 14 54 29
3 14 88 90
3 90 89 54
3 88 89 90
3 15 91 92
3 15 93 95
3 93 55 94
3 93 94 95
3 6 56 38
3 16 57 34
3 16 58 57
3 16 59 58
3 8 96 98
3 98 97 42
3 96 97 98
3 17 18 5
3 19 18 17
3 19 7 18
3 19 20 7
3 21 20 19
3 21 9 20
3 99 10 100
3 22 23 4
3 24 23 22
3 24 11 23
3 24 25 11
3 101 25 102
3 103 102 24
3 101 102 103
3 104 12 105
3 106 105 25
3 104 105 106
3 26 107 109
3 107 27 108
3 107 108 109
3 28 27 26
3 28 13 27
3 28 29 13
3 30 29 28
3 30 14 29
3 31 110 111
3 32 112 114
3 114 113 31
3 112 113 114
3 32 115 117
3 115 15 116
3 115 116 117
3 33 34 6
3 35 34 33
3 35 16 34
3 35 118 120
3 120 119 16
3 118 119 120
3 122 121 35
3 36 123 124
3 36 125 126
3 128 127 8
3 129 4 130
3 131 4 132
3 133 22 134
3 135 134 4
3 133 134 135
3 136 22 137
3 139 138 22
3 140 26 141
3 142 26 143
3 144 2 145
3 146 145 26
3 144 145 146
3 37 38 1
3 39 38 37
3 39 6 38
3 18 39 5
3 40 39 18
3 40 6 39
3 40 33 6
3 41 33 40
3 41 3 33
3 41 42 3
3 43 42 41
3 43 8 42
3 20 43 7
3 44 43 20
3 44 8 43
3 44 147 149
3 149 148 8
3 147 148 149
3 151 150 44
3 152 31 153
3 45 154 156
3 154 31 155
3 154 155 156
3 45 1 31
3 46 157 158
3 46 159 161
3 159 10 160
3 159 160 161
3 23 46 4
3 47 46 23
3 47 10 46
3 47 45 10
3 48 45 47
3 48 1 45
3 48 37 1
3 49 37 48
3 49 5 37
3 25 49 11
3 50 49 25
3 50 5 49
3 50 17 5
3 51 17 50
3 51 0 17
3 162 12 163
3 164 12 165
3 166 51 167
3 168 167 12
3 166 167 168
3 169 51 170
3 171 0 172
3 173 172 51
3 171 172 173
3 174 0 175
3 176 21 177
3 178 177 0
3 176 177 178
3 179 21 180
3 181 9 182
3 183 182 21
3 181 182 183
3 184 9 185
3 187 186 9
3 27 188 189
3 191 190 27
3 52 192 193
3 52 194 195
3 52 196 197
3 53 198 200
3 200 199 52
3 198 199 200
3 53 201 202
3 29 53 13
3 54 53 29
3 54 203 205
3 205 204 53
3 203 204 205
3 54 206 207
3 209 208 54
3 55 210 211
3 55 212 214
3 212 2 213
3 212 213 214
3 38 32 1
3 56 32 38
3 56 15 32
3 34 56 6
3 57 56 34
3 57 15 56
3 57 55 15
3 58 55 57
3 58 2 55
3 58 30 2
3 59 30 58
3 59 14 30
3 215 59 216
3 217 216 16
3 215 216 217
3 218 59 219
3 220 14 221
3 222 221 59
3 220 221 222
3 224 223 14
3 42 36 3
3 225 36 226
3 227 226 42
3 225 226 227
3 229 228 36
3 231 230 8
