ply
format ascii 1.0
element vertex 277
property float x
property float y
property float z
element face 253
property list uchar int vertex_index
end_header
-13.316051 36.363949 -35.584911
-6.723172 41.9921 -50.233326
-11.051484 40.14505 -43.728619
-18.317924 26.944101 -36.037628
-18.624992 20.254309 -27.019445
-15.575725 31.472279 -35.687916
-17.646385 29.92767 -40.735001
-14.810169 34.042225 -40.267891
-9.174723 41.433815 -47.086212
-11.662385 37.875607 -48.197468
-9.322148 38.728363 -51.628181
-12.388013 38.535378 -39.677521
-13.58235 36.124573 -44.329529
-18.595924 23.715982 -31.446669
-16.009592 28.638962 -31.392138
-14.432503 33.811165 -35.726913
-15.270519 32.762138 -37.992081
-14.087134 34.980064 -37.828056
-8.031091 41.745293 -48.788715
-9.16335 40.095531 -49.378063
-7.974351 40.239117 -50.975651
-7.991905 38.897263 -52.979141
-6.601257 40.393776 -52.200508
-19.836557 24.808512 -36.152061
-19.501728 26.630157 -38.708839
-11.751978 39.464539 -41.733471
-12.988426 37.199242 -41.910824
-12.313851 38.0256 -44.003769
-11.893902 36.934662 -50.706043
-13.090317 36.186699 -49.04068
-18.467791 18.599268 -24.796453
-19.697002 16.089666 -24.651888
-19.823999 17.91457 -26.830278
-19.994446 19.657692 -29.157709
-19.993147 21.369558 -31.318888
-18.647655 21.963923 -29.179874
-16.102434 27.15029 -29.202421
-16.868378 29.212368 -35.895966
-18.031023 28.454054 -38.31374
-16.580814 30.560791 -38.049179
-16.182898 31.903732 -40.397114
-15.521549 33.326523 -42.682533
-10.149753 40.910599 -45.420994
-11.384958 38.885056 -45.963177
-10.302217 39.628517 -47.728668
-10.535795 38.438168 -49.948914
-17.382967 22.796227 -27.066935
-12.942736 37.409317 -37.630112
-10.721015 41.648434 -41.436886
-9.955624 42.354092 -43.272144
-9.128735 42.856636 -44.975639
-13.557428 36.205601 -39.878819
-14.224134 35.185528 -42.27549
-14.936294 34.322075 -44.814251
-12.722005 37.019463 -46.477886
-14.05138 35.385147 -46.908142
-20.883347 13.899217 -24.494442
-19.946518 23.101559 -33.671989
-18.501385 25.371069 -33.7621
-17.315573 24.415728 -29.045631
-17.225269 26.036341 -31.201534
-17.097431 27.643225 -33.543755
-15.891695 29.970045 -33.542442
-14.70295 32.543152 -33.55238
-12.669156 36.187624 -51.146335
-12.026245 36.484833 -51.9571
-9.97521 38.065027 -51.998962
-10.582033 37.919929 -51.159329
-9.928971 38.583265 -50.788547
-9.353101 38.103269 -52.820518
-9.97521 38.065027 -51.998962
-7.880894 38.247498 -54.085292
-7.194307 38.914879 -53.559652
-10.580179 42.429254 -40.455922
-11.053189 41.229153 -40.47605
-9.472877 43.456097 -43.142426
-9.852483 43.156544 -42.291191
-9.059432 43.707369 -43.994173
-9.542179 42.605364 -44.123891
-9.472877 43.456097 -43.142426
-18.405441 29.014043 -40.893879
-18.59776 28.277235 -39.683249
-17.838704 29.190862 -39.524371
-14.289303 35.053942 -48.270229
-13.570849 35.785923 -47.974411
-13.808772 35.454718 -49.336499
-14.8064 34.555329 -47.239863
-14.289303 35.053942 -48.270229
-20.990386 14.801438 -25.590721
-20.290174 14.994442 -24.573165
-20.397213 15.896663 -25.669444
-21.695493 13.76686 -25.578886
-20.990386 14.801438 -25.590721
-16.748258 24.98086 -28.05261
-17.34927 23.605978 -28.056283
-16.781955 24.17111 -27.063262
-14.276315 33.262652 -32.479235
-14.764716 31.943378 -32.435299
-14.16348 33.878176 -33.579473
-14.276315 33.262652 -32.479235
-6.498983 39.663136 -53.170336
-7.194307 38.914879 -53.559652
-7.296581 39.64552 -52.589824
-20.414278 24.766907 -37.373767
-20.575409 23.894555 -36.225681
-20.246863 25.677729 -38.652157
-20.414278 24.766907 -37.373767
-19.669142 25.719335 -37.43045
-20.151965 26.451927 -39.973009
-20.246863 25.677729 -38.652157
-18.152721 29.754286 -42.127859
-17.340936 30.652331 -41.847662
-13.267364 35.813643 -50.313654
-12.49211 36.560681 -49.873362
-12.669156 36.187624 -51.146335
-13.808772 35.454718 -49.336499
-13.267364 35.813643 -50.313654
-19.082397 17.344467 -24.72417
-19.018374 16.509774 -23.694894
-18.403768 17.764575 -23.767176
-20.460712 16.809115 -26.758639
-20.397213 15.896663 -25.669444
-19.7605 17.002118 -25.741083
-20.59194 17.658754 -27.899769
-20.460712 16.809115 -26.758639
-20.677163 18.530315 -29.063485
-20.59194 17.658754 -27.899769
-19.909222 18.786131 -27.993994
-20.683228 19.469878 -30.192457
-20.677163 18.530315 -29.063485
-19.993797 20.513625 -30.238298
-20.682578 20.325811 -31.273046
-20.683228 19.469878 -30.192457
-15.621697 27.763129 -28.200118
-16.141689 26.348141 -28.131005
-15.544991 28.557865 -29.255416
-15.621697 27.763129 -28.200118
-15.49857 29.302201 -30.350274
-16.056013 27.894626 -30.29728
-15.544991 28.557865 -29.255416
-15.418038 29.991283 -31.355178
-15.49857 29.302201 -30.350274
-16.609193 31.640363 -41.678719
-17.340936 30.652331 -41.847662
-16.914642 30.915701 -40.566057
-16.278519 32.351758 -42.821428
-16.609193 31.640363 -41.678719
-15.852224 32.615127 -41.539823
-15.936291 32.980448 -43.953158
-16.278519 32.351758 -42.821428
-11.261087 37.168177 -51.537893
-11.214849 37.686415 -50.327478
-10.582033 37.919929 -51.159329
-12.026245 36.484833 -51.9571
-11.261087 37.168177 -51.537893
-8.687979 38.18772 -53.495998
-9.353101 38.103269 -52.820518
-8.657027 38.812813 -52.303661
-8.687979 38.18772 -53.495998
-7.880894 38.247498 -54.085292
-17.84712 19.086287 -23.793568
-18.403768 17.764575 -23.767176
-17.881676 19.910924 -24.840611
-17.84712 19.086287 -23.793568
-17.960276 20.738444 -25.952107
-18.546391 19.426789 -25.907949
-17.881676 19.910924 -24.840611
-17.339264 22.009403 -25.975852
-18.003979 21.525268 -27.04319
-17.960276 20.738444 -25.952107
-16.802301 23.390463 -26.051461
-17.339264 22.009403 -25.975852
-16.781955 24.17111 -27.063262
-16.802301 23.390463 -26.051461
-12.630168 38.200914 -36.634823
-13.129393 36.886633 -36.607512
-12.816826 37.67823 -35.612223
-12.421625 38.682722 -37.579023
-12.630168 38.200914 -36.634823
-12.144263 39.245753 -38.602728
-12.665375 37.972347 -38.653816
-12.421625 38.682722 -37.579023
-11.886688 39.672625 -39.596367
-12.144263 39.245753 -38.602728
-11.56867 40.137206 -40.624342
-12.069996 38.999959 -40.705496
-11.886688 39.672625 -39.596367
-11.236496 40.556487 -41.585178
-11.56867 40.137206 -40.624342
-11.053189 41.229153 -40.47605
-10.235178 42.803715 -41.373562
-10.580179 42.429254 -40.455922
-10.33832 42.001263 -42.354515
-10.235178 42.803715 -41.373562
-9.852483 43.156544 -42.291191
-8.633737 43.899309 -44.841701
-9.059432 43.707369 -43.994173
-8.585277 43.132338 -45.817656
-8.633737 43.899309 -44.841701
-8.608271 42.420927 -46.872942
-9.151729 42.145226 -46.030926
-8.585277 43.132338 -45.817656
-8.036455 42.576666 -47.724193
-8.602907 41.589554 -47.937464
-8.608271 42.420927 -46.872942
-7.469356 42.644028 -48.566952
-8.036455 42.576666 -47.724193
-6.815397 42.767432 -49.289257
-7.377131 41.868696 -49.511021
-7.469356 42.644028 -48.566952
-19.333112 27.365286 -39.880798
-18.766376 27.542105 -38.51129
-18.59776 28.277235 -39.683249
-20.151965 26.451927 -39.973009
-19.333112 27.365286 -39.880798
-18.405441 29.014043 -40.893879
-18.152721 29.754286 -42.127859
-15.643663 33.478224 -45.019016
-15.936291 32.980448 -43.953158
-15.228922 33.824299 -43.748392
-15.248857 34.023792 -46.192917
-14.493837 34.853611 -45.861196
-14.8064 34.555329 -47.239863
-15.643663 33.478224 -45.019016
-15.248857 34.023792 -46.192917
-19.577751 15.234115 -23.570611
-19.018374 16.509774 -23.694894
-20.170924 14.138891 -23.491888
-19.577751 15.234115 -23.570611
-20.290174 14.994442 -24.573165
-20.769862 13.06716 -23.505195
-20.170924 14.138891 -23.491888
-21.568514 12.864268 -24.504646
-20.769862 13.06716 -23.505195
-21.568514 12.864268 -24.504646
-21.695493 13.76686 -25.578886
-20.690255 21.258628 -32.516902
-20.682578 20.325811 -31.273046
-20.66694 22.124628 -33.693453
-20.690255 21.258628 -32.516902
-19.969833 22.235559 -32.495439
-20.63039 23.041079 -34.985645
-20.66694 22.124628 -33.693453
-19.891537 23.955036 -34.912025
-20.575409 23.894555 -36.225681
-20.63039 23.041079 -34.985645
-16.709004 25.783009 -29.124026
-16.748258 24.98086 -28.05261
-16.141689 26.348141 -28.131005
-15.359089 30.656824 -32.43033
-15.950644 29.304503 -32.46729
-15.418038 29.991283 -31.355178
-15.297322 31.256598 -33.547411
-15.359089 30.656824 -32.43033
-14.764716 31.943378 -32.435299
-14.028257 34.512183 -34.66674
-14.567726 33.177159 -34.639646
-14.16348 33.878176 -33.579473
-13.470031 35.788574 -34.595739
-13.874277 35.087557 -35.655912
-14.028257 34.512183 -34.66674
-13.008896 37.092333 -34.574514
-13.470031 35.788574 -34.595739
-13.162876 36.516959 -33.585342
-12.816826 37.67823 -35.612223
-13.008896 37.092333 -34.574514
-6.144018 42.953568 -49.902075
-6.815397 42.767432 -49.289257
-6.046158 41.968336 -50.880173
-6.144018 42.953568 -49.902075
-5.985201 41.169174 -51.863764
-6.662215 41.192938 -51.216917
-6.046158 41.968336 -50.880173
-5.846584 40.377201 -52.729429
-5.985201 41.169174 -51.863764
-6.498983 39.663136 -53.170336
-5.846584 40.377201 -52.729429
3 0 17 15
3 1 20 18
3 1 22 20
3 3 24 23
3 2 27 25
3 65 64 28
3 4 32 30
3 4 33 32
3 4 35 33
3 5 39 37
3 7 40 16
3 7 41 40
3 8 44 42
3 10 45 19
3 10 66 68
3 68 67 45
3 66 67 68
3 10 69 70
3 72 71 21
3 73 48 74
3 75 49 76
3 77 50 78
3 79 78 49
3 77 78 79
3 6 80 82
3 82 81 38
3 80 81 82
3 11 51 47
3 12 52 26
3 12 53 52
3 9 54 43
3 83 55 84
3 85 84 29
3 83 84 85
3 87 86 55
3 88 56 89
3 90 89 31
3 88 89 90
3 92 91 56
3 13 57 34
3 13 58 57
3 93 59 94
3 95 94 46
3 93 94 95
3 14 60 36
3 14 61 60
3 14 62 61
3 96 63 97
3 99 98 63
3 15 16 5
3 17 16 15
3 17 7 16
3 18 19 8
3 20 19 18
3 20 10 19
3 20 21 10
3 22 21 20
3 22 100 102
3 102 101 21
3 100 101 102
3 23 103 104
3 24 105 107
3 107 106 23
3 105 106 107
3 24 108 109
3 111 110 6
3 25 26 11
3 27 26 25
3 27 12 26
3 28 29 9
3 112 29 113
3 114 113 28
3 112 113 114
3 116 115 29
3 30 117 119
3 117 31 118
3 117 118 119
3 32 31 30
3 32 120 122
3 122 121 31
3 120 121 122
3 32 123 124
3 33 125 127
3 127 126 32
3 125 126 127
3 33 128 129
3 33 130 132
3 130 34 131
3 130 131 132
3 35 34 33
3 35 13 34
3 133 36 134
3 135 36 136
3 137 14 138
3 139 138 36
3 137 138 139
3 141 140 14
3 37 38 3
3 39 38 37
3 39 6 38
3 16 39 5
3 40 39 16
3 40 6 39
3 40 142 144
3 144 143 6
3 142 143 144
3 41 145 147
3 147 146 40
3 145 146 147
3 41 148 149
3 42 43 2
3 44 43 42
3 44 9 43
3 19 44 8
3 45 44 19
3 45 9 44
3 45 28 9
3 150 28 151
3 152 151 45
3 150 151 152
3 154 153 28
3 21 155 157
3 157 156 10
3 155 156 157
3 159 158 21
3 160 30 161
3 162 30 163
3 164 4 165
3 166 165 30
3 164 165 166
3 167 46 168
3 169 168 4
3 167 168 169
3 170 46 171
3 173 172 46
3 174 47 175
3 176 175 0
3 174 175 176
3 177 47 178
3 179 11 180
3 181 180 47
3 179 180 181
3 182 11 183
3 184 25 185
3 186 185 11
3 184 185 186
3 48 187 189
3 187 25 188
3 187 188 189
3 48 2 25
3 190 48 191
3 49 192 194
3 192 48 193
3 192 193 194
3 49 2 48
3 49 42 2
3 50 42 49
3 50 8 42
3 195 50 196
3 197 50 198
3 199 8 200
3 201 200 50
3 199 200 201
3 202 18 203
3 204 203 8
3 202 203 204
3 205 18 206
3 207 1 208
3 209 208 18
3 207 208 209
3 38 24 3
3 210 24 211
3 212 211 38
3 210 211 212
3 214 213 24
3 216 215 6
3 47 17 0
3 51 17 47
3 51 7 17
3 26 51 11
3 52 51 26
3 52 7 51
3 52 41 7
3 53 41 52
3 53 217 219
3 219 218 41
3 217 218 219
3 43 27 2
3 54 27 43
3 54 12 27
3 29 54 9
3 55 54 29
3 55 12 54
3 55 53 12
3 220 53 221
3 222 221 55
3 220 221 222
3 224 223 53
3 31 225 226
3 56 227 229
3 229 228 31
3 227 228 229
3 56 230 231
3 56 232 233
3 235 234 56
3 34 236 237
3 57 238 240
3 240 239 34
3 238 239 240
3 57 241 242
3 57 243 245
3 243 23 244
3 243 244 245
3 58 23 57
3 58 3 23
3 46 35 4
3 59 35 46
3 59 13 35
3 36 246 248
3 246 59 247
3 246 247 248
3 60 59 36
3 60 13 59
3 60 58 13
3 61 58 60
3 61 3 58
3 61 37 3
3 62 37 61
3 62 5 37
3 249 62 250
3 251 250 14
3 249 250 251
3 63 252 254
3 252 62 253
3 252 253 254
3 63 5 62
3 63 15 5
3 255 15 256
3 257 256 63
3 255 256 257
3 258 0 259
3 260 259 15
3 258 259 260
3 261 0 262
3 261 262 263
3 265 264 0
3 266 1 267
3 268 1 269
3 270 22 271
3 272 271 1
3 270 271 272
3 273 22 274
3 276 275 22
