ply
format ascii 1.0
element vertex 284
property float x
property float y
property float z
element face 288
property list uchar int vertex_index
end_header
-16.513491 31.919823 40.171638
-4.84901 20.338627 53.584236
-9.640119 38.556789 43.594139
-11.159225 26.421392 47.196793
-3.694092 32.370285 50.033188
4.077915 38.456913 52.145973
-5.926403 41.623585 44.707417
-8.669576 44.878292 41.224606
-8.139748 23.450336 50.398663
-7.407825 29.216814 48.941814
-4.299783 26.105581 52.034351
-0.634149 28.781446 53.23756
-1.2367 22.917229 55.013878
-13.242057 35.355911 42.051838
-15.640004 37.768421 38.424778
-12.3351 41.262295 40.054142
-13.851847 29.29833 43.920803
-10.45032 32.454414 45.575375
-6.765344 35.325352 46.970512
-2.851631 38.578918 47.936779
1.014585 41.88649 48.752083
0.105205 35.04467 51.168327
3.179906 31.598673 54.430809
-6.692063 19.189861 52.693718
-6.473364 21.985044 52.005795
-6.222353 24.760918 51.275684
-4.645636 23.242298 52.796516
-2.723981 24.538723 53.55146
-3.018609 21.429667 54.408543
-11.499596 36.89056 42.89019
-12.777934 38.331814 41.110794
-11.075046 39.948502 41.81665
-12.772386 24.985491 46.337494
-14.138806 26.40336 44.662701
-12.436603 27.995838 45.627068
-12.175183 30.876917 44.806248
-10.705033 29.38188 46.531406
-5.591647 30.604479 49.582253
-7.113036 32.193527 48.012016
-5.267342 33.714653 48.560066
-4.742188 36.960464 47.522144
-3.252731 35.471275 49.033482
-1.215314 37.012188 49.571491
-1.73673 33.693947 50.643253
1.314111 30.010387 53.920979
2.627248 40.169594 50.500893
2.941888 43.63324 49.139252
4.38482 41.945068 50.807617
-7.77784 40.296764 44.114891
-9.141292 41.725643 42.467167
-7.235183 43.360115 43.019768
-9.597363 25.081516 48.824734
-9.266755 28.033768 48.076462
-7.768991 26.325403 49.714233
-5.93175 27.601414 50.478905
-3.982207 29.115671 51.122269
-2.128729 30.453552 51.705112
-2.478567 27.385332 52.672256
-0.779496 25.847166 54.256134
5.494751 36.468529 53.892765
5.850236 40.023136 52.595844
-14.917303 33.47612 41.239449
-16.031225 34.861897 39.404922
-14.454158 36.496365 40.355389
-13.96101 39.452309 39.403286
-13.563077 42.463844 38.189884
-10.466995 43.006302 40.779888
-11.762097 44.254425 38.967781
-15.165618 30.733646 42.110786
-13.523326 32.469231 43.009708
-11.754478 33.914539 43.958572
-10.01752 35.438282 44.686325
-9.00474 30.858402 47.244423
-8.599343 33.74041 46.407124
-8.270103 37.011707 45.258682
-6.29335 38.507889 45.893505
-4.414669 40.261528 46.26112
-2.38323 41.810608 46.7635
-0.85981 40.252407 48.365814
0.691017 38.509178 50.051971
2.140039 36.722668 51.685184
-0.169845 31.829023 52.31041
1.705021 33.446857 52.777569
3.656868 34.921234 53.372196
-1.469747 19.864492 55.861492
0.33388 20.879339 56.641369
-17.056574 32.483241 39.262491
-17.285582 31.043859 39.615814
-11.965805 25.703442 46.767144
-12.013537 24.248331 47.194164
-11.206956 24.966282 47.623814
-8.968397 22.776982 50.002999
-8.173255 22.061906 50.798941
-8.868555 24.265926 49.611699
-9.697204 23.592572 49.216034
-8.968397 22.776982 50.002999
-0.281935 23.400985 55.42273
-0.053333 24.865953 55.043858
-1.008098 24.382198 54.635006
6.412253 37.308817 54.132733
6.250332 35.571249 54.757398
-11.531514 45.812603 38.282166
-10.834519 45.2598 39.228382
-12.393716 44.848938 37.991381
-11.531514 45.812603 38.282166
-14.732517 28.579334 43.323548
-14.875996 27.131849 43.694496
-13.995327 27.850845 44.291752
-14.508733 30.015988 43.015794
-15.389402 29.296992 42.418539
-14.732517 28.579334 43.323548
4.172641 32.277301 54.782751
4.411122 33.938581 54.253445
3.418387 33.259954 53.901503
-1.538003 18.482302 56.234853
-2.368513 19.227226 55.492939
1.198879 20.036217 57.43255
0.290412 19.47134 57.054657
1.283367 21.544294 56.993978
1.198879 20.036217 57.43255
-16.400162 36.911487 37.929178
-16.595772 35.458225 38.41925
-15.835614 36.315159 38.91485
1.217163 43.495571 48.136584
0.271617 42.782951 47.895792
3.159763 45.387574 48.457302
3.941168 44.623228 49.31279
6.058247 41.761105 51.95602
6.786951 40.826536 52.855339
-5.617354 43.27182 44.115603
-4.905515 42.521831 44.916291
-7.449412 19.931669 51.946468
-7.590955 18.561513 52.233103
-7.340063 21.32926 51.602507
-7.449412 19.931669 51.946468
-6.582714 20.587452 52.349756
-7.306556 22.71769 51.202229
-8.173255 22.061906 50.798941
-7.340063 21.32926 51.602507
-9.288258 45.571734 40.356794
-8.461932 46.42828 40.545697
-12.893912 23.640301 46.642242
-12.013537 24.248331 47.194164
-13.592098 24.248345 45.831508
-12.893912 23.640301 46.642242
-13.455596 25.694426 45.500097
-14.275309 24.957279 44.994112
-13.592098 24.248345 45.831508
1.154888 28.536349 54.39461
0.339981 29.395916 53.57927
0.180758 27.921878 54.0529
2.122469 29.11912 54.760509
1.154888 28.536349 54.39461
3.055366 29.913263 55.015425
2.247008 30.80453 54.175894
2.122469 29.11912 54.760509
3.949519 30.667645 55.280234
3.055366 29.913263 55.015425
-16.174989 38.44162 37.38983
-15.378144 39.2751 37.918368
4.662634 43.779142 50.146973
3.941168 44.623228 49.31279
3.663354 42.789154 49.973434
-6.271743 44.140085 43.271778
-6.580793 42.49185 43.863592
-5.617354 43.27182 44.115603
-7.037624 44.886435 42.383465
-6.271743 44.140085 43.271778
-7.754821 45.645523 41.485884
-7.952379 44.119203 42.122187
-7.037624 44.886435 42.383465
-8.461932 46.42828 40.545697
-7.754821 45.645523 41.485884
-10.426025 24.296343 48.437784
-9.697204 23.592572 49.216034
-10.378294 25.751454 48.010763
-11.206956 24.966282 47.623814
-10.426025 24.296343 48.437784
0.108085 26.454739 54.562187
0.180758 27.921878 54.0529
-0.706822 27.314306 53.746847
0.108085 26.454739 54.562187
-0.053333 24.865953 55.043858
6.589995 39.08612 53.484272
5.672493 38.245832 53.244304
6.412253 37.308817 54.132733
6.786951 40.826536 52.855339
6.589995 39.08612 53.484272
-6.776415 17.916576 52.990654
-7.590955 18.561513 52.233103
-5.855773 18.395125 53.484445
-6.776415 17.916576 52.990654
-4.934247 18.969508 53.929704
-5.770537 19.764244 53.138977
-5.855773 18.395125 53.484445
-4.058144 19.464294 54.354311
-4.934247 18.969508 53.929704
-14.538647 40.117044 38.407622
-15.378144 39.2751 37.918368
-14.800507 38.610365 38.914032
-14.339681 41.622812 37.800921
-14.538647 40.117044 38.407622
-13.762044 40.958077 38.796585
-14.11441 43.199736 37.134384
-14.339681 41.622812 37.800921
-10.186968 44.635739 40.134435
-9.568285 43.942297 41.002247
-9.288258 45.571734 40.356794
-11.114546 43.630364 39.873835
-10.186968 44.635739 40.134435
-10.834519 45.2598 39.228382
-13.294206 43.953648 37.602432
-12.662587 43.359134 38.578833
-12.393716 44.848938 37.991381
-14.11441 43.199736 37.134384
-13.294206 43.953648 37.602432
-16.633793 30.523561 40.602694
-17.285582 31.043859 39.615814
-14.936909 25.687317 44.120003
-15.073411 24.241236 44.451414
-14.275309 24.957279 44.994112
-14.936909 25.687317 44.120003
-14.875996 27.131849 43.694496
-15.959857 29.930473 41.572267
-15.389402 29.296992 42.418539
-15.839554 31.326735 41.141212
-16.633793 30.523561 40.602694
-15.959857 29.930473 41.572267
-4.149648 41.840803 45.693142
-4.905515 42.521831 44.916291
-5.170536 40.942556 45.484268
-3.133929 42.615343 45.944332
-4.149648 41.840803 45.693142
-3.39895 41.036068 46.51231
-2.156385 43.526365 46.100948
-3.133929 42.615343 45.944332
-1.427291 42.74501 46.9015
-2.156385 43.526365 46.100948
-0.665581 41.96591 47.702658
-1.427291 42.74501 46.9015
-1.62152 41.031508 47.564657
0.077388 41.069449 48.558948
0.271617 42.782951 47.895792
-0.665581 41.96591 47.702658
5.330063 34.712229 54.513729
4.57581 35.694881 53.63248
4.411122 33.938581 54.253445
6.250332 35.571249 54.757398
5.330063 34.712229 54.513729
4.172641 32.277301 54.782751
3.949519 30.667645 55.280234
-3.142944 20.009813 54.766464
-3.933809 20.884147 53.996389
-4.058144 19.464294 54.354311
-2.244178 20.647079 55.135018
-3.142944 20.009813 54.766464
-2.368513 19.227226 55.492939
-0.611401 18.963916 56.664718
-1.538003 18.482302 56.234853
-0.567933 20.371916 56.25143
-0.611401 18.963916 56.664718
0.290412 19.47134 57.054657
0.503355 22.38204 56.236475
-0.281935 23.400985 55.42273
-0.45141 21.898284 55.827624
0.503355 22.38204 56.236475
1.283367 21.544294 56.993978
-16.815441 33.954278 38.879133
-17.056574 32.483241 39.262491
-16.272358 33.39086 39.78828
-16.815441 33.954278 38.879133
-16.595772 35.458225 38.41925
-16.400162 36.911487 37.929178
-16.174989 38.44162 37.38983
2.180814 44.368946 48.330168
1.217163 43.495571 48.136584
1.978236 42.759865 48.945667
2.180814 44.368946 48.330168
3.159763 45.387574 48.457302
5.325539 42.722071 51.061906
5.117528 40.984102 51.70173
6.058247 41.761105 51.95602
4.662634 43.779142 50.146973
5.325539 42.722071 51.061906
3 1 24 23
3 1 26 24
3 1 28 26
3 0 86 87
3 2 31 29
3 3 88 90
3 88 32 89
3 88 89 90
3 3 34 32
3 3 36 34
3 4 39 37
3 4 41 39
3 4 43 41
3 5 47 45
3 6 50 48
3 8 91 92
3 8 93 95
3 93 51 94
3 93 94 95
3 8 53 51
3 10 54 25
3 10 55 54
3 10 57 55
3 12 58 27
3 12 96 98
3 98 97 58
3 96 97 98
3 100 99 59
3 13 63 61
3 15 64 30
3 15 65 64
3 7 66 49
3 101 67 102
3 104 103 67
3 16 105 107
3 107 106 33
3 105 106 107
3 16 108 110
3 108 68 109
3 108 109 110
3 16 69 68
3 17 70 35
3 17 71 70
3 9 72 52
3 18 73 38
3 18 74 73
3 18 75 74
3 19 76 40
3 19 77 76
3 19 78 77
3 21 79 42
3 21 80 79
3 11 81 56
3 22 82 44
3 22 83 82
3 22 111 113
3 113 112 83
3 111 112 113
3 114 84 115
3 116 85 117
3 119 118 85
3 14 120 122
3 122 121 62
3 120 121 122
3 20 123 124
3 126 125 46
3 128 127 60
3 130 129 6
3 23 131 132
3 24 133 135
3 135 134 23
3 133 134 135
3 24 136 138
3 136 8 137
3 136 137 138
3 24 25 8
3 26 25 24
3 26 10 25
3 26 27 10
3 28 27 26
3 28 12 27
3 29 30 13
3 31 30 29
3 31 15 30
3 140 139 7
3 32 141 142
3 32 143 144
3 32 145 147
3 145 33 146
3 145 146 147
3 34 33 32
3 34 16 33
3 34 35 16
3 36 35 34
3 36 17 35
3 37 38 9
3 39 38 37
3 39 18 38
3 39 40 18
3 41 40 39
3 41 19 40
3 41 42 19
3 43 42 41
3 43 21 42
3 148 44 149
3 150 149 11
3 148 149 150
3 151 44 152
3 153 22 154
3 155 154 44
3 153 154 155
3 157 156 22
3 159 158 14
3 45 46 20
3 47 46 45
3 47 160 162
3 162 161 46
3 160 161 162
3 48 49 2
3 50 49 48
3 50 7 49
3 163 50 164
3 165 164 6
3 163 164 165
3 166 50 167
3 168 7 169
3 170 169 50
3 168 169 170
3 172 171 7
3 51 173 174
3 51 175 177
3 175 3 176
3 175 176 177
3 51 52 3
3 53 52 51
3 53 9 52
3 25 53 8
3 54 53 25
3 54 9 53
3 54 37 9
3 55 37 54
3 55 4 37
3 55 56 4
3 57 56 55
3 57 11 56
3 27 57 10
3 58 57 27
3 58 11 57
3 58 178 180
3 180 179 11
3 178 179 180
3 182 181 58
3 59 60 5
3 183 60 184
3 185 184 59
3 183 184 185
3 187 186 60
3 188 23 189
3 190 23 191
3 192 1 193
3 194 193 23
3 192 193 194
3 196 195 1
3 61 62 0
3 63 62 61
3 63 14 62
3 30 63 13
3 64 63 30
3 64 14 63
3 64 197 199
3 199 198 14
3 197 198 199
3 65 200 202
3 202 201 64
3 200 201 202
3 65 203 204
3 49 31 2
3 66 31 49
3 66 15 31
3 205 66 206
3 207 206 7
3 205 206 207
3 67 208 210
3 208 66 209
3 208 209 210
3 67 15 66
3 67 65 15
3 211 65 212
3 213 212 67
3 211 212 213
3 215 214 65
3 216 0 217
3 33 218 220
3 218 219 220
3 222 221 33
3 68 223 224
3 68 225 227
3 225 0 226
3 225 226 227
3 68 61 0
3 69 61 68
3 69 13 61
3 35 69 16
3 70 69 35
3 70 13 69
3 70 29 13
3 71 29 70
3 71 2 29
3 52 36 3
3 72 36 52
3 72 17 36
3 38 72 9
3 73 72 38
3 73 17 72
3 73 71 17
3 74 71 73
3 74 2 71
3 74 48 2
3 75 48 74
3 75 6 48
3 40 75 18
3 76 75 40
3 76 6 75
3 76 228 230
3 230 229 6
3 228 229 230
3 77 231 233
3 233 232 76
3 231 232 233
3 77 234 235
3 77 236 237
3 78 238 240
3 240 239 77
3 238 239 240
3 78 241 243
3 241 20 242
3 241 242 243
3 42 78 19
3 79 78 42
3 79 20 78
3 79 45 20
3 80 45 79
3 80 5 45
3 56 43 4
3 81 43 56
3 81 21 43
3 44 81 11
3 82 81 44
3 82 21 81
3 82 80 21
3 83 80 82
3 83 5 80
3 83 59 5
3 244 59 245
3 246 245 83
3 244 245 246
3 248 247 59
3 250 249 22
3 251 28 252
3 253 252 1
3 251 252 253
3 84 254 256
3 254 28 255
3 254 255 256
3 84 12 28
3 257 84 258
3 85 259 261
3 259 84 260
3 259 260 261
3 85 12 84
3 85 262 264
3 264 263 12
3 262 263 264
3 266 265 85
3 62 267 269
3 269 268 0
3 267 268 269
3 271 270 62
3 273 272 14
3 46 274 276
3 276 275 20
3 274 275 276
3 278 277 46
3 60 47 5
3 279 47 280
3 281 280 60
3 279 280 281
3 283 282 47
