ply
format ascii 1.0
element vertex 595
property float x
property float y
property float z
element face 665
property list uchar int vertex_index
end_header
-28.66691 -40.43227 32.491753
-23.703251 -26.826639 37.006119
-35.9617 -26.133116 28.038187
-28.428682 -18.077557 35.791538
-17.77718 -29.259663 40.406631
-38.687088 -17.925934 23.372663
-38.888065 -27.122202 20.65299
-26.020565 -34.168747 34.553848
-32.090153 -34.016129 31.186029
-30.143667 -25.636759 33.421429
-34.568386 -17.171589 30.226391
-37.65041 -8.905974 25.392206
-19.727766 -36.093372 36.652546
-26.182564 -41.504459 33.336746
-39.469349 -13.722162 20.557068
-24.78944 -30.365482 35.645882
-28.037134 -30.010967 34.150043
-26.96003 -26.02586 35.305977
-31.572929 -17.354996 33.193035
-33.611897 -13.209986 31.295082
-36.243324 -12.852661 28.019257
-35.253281 -8.810264 29.038868
-20.678295 -27.86512 38.639439
-18.500219 -32.657623 38.317638
-21.454647 -31.402658 37.00238
-22.835339 -35.064312 35.616741
-34.111988 -30.241373 29.79229
-36.447426 -30.660276 26.655968
-39.033596 -27.726284 16.483807
-22.889263 -23.427874 38.7104
-26.140039 -22.289799 36.6315
-14.865677 -30.900164 42.59684
-19.790184 -24.844219 40.849327
-37.534077 -22.070984 25.833212
-37.864346 -26.530298 24.575151
-38.844193 -22.633142 22.173441
-27.495718 -37.57476 33.50983
-30.182961 -37.583218 32.08012
-29.22224 -33.951698 33.104973
-31.221188 -29.853634 32.279186
-33.341839 -25.722837 30.962534
-29.382341 -21.723751 34.455044
-32.525536 -21.384548 32.033207
-35.329678 -21.521862 29.179651
-37.020378 -17.393944 26.95224
-38.327488 -13.280492 24.375765
-39.296646 -9.174217 21.479223
-38.732121 -4.609647 22.535482
-39.967442 -5.024754 18.447161
-12.621981 -43.673046 38.724892
-15.321208 -42.306442 37.309299
-15.677458 -34.001717 39.956829
-16.836489 -37.384098 37.80555
-18.198572 -40.980877 36.213779
-21.306719 -39.606831 35.335072
-24.446066 -38.443264 34.503426
-27.623661 -40.877384 32.890831
-24.174692 -28.545729 36.314358
-25.842766 -28.275259 35.50996
-25.236889 -26.457272 36.205227
-32.117081 -13.233665 32.879379
-34.421471 -10.973768 30.275822
-22.218273 -27.259981 37.798923
-21.124102 -29.539433 37.734768
-22.638382 -29.07135 37.003017
-23.182064 -30.850504 36.293194
-35.010761 -28.216078 29.0287
-35.34708 -30.422169 28.32653
-36.233891 -28.438181 27.369995
-24.061357 -21.191814 38.580063
-21.352348 -24.015118 39.776573
-38.140842 -19.951672 24.687527
-38.308403 -22.235041 24.050444
-38.79776 -20.291265 22.749598
-26.75721 -36.038414 34.016193
-28.332888 -35.853252 33.34985
-27.614107 -34.06012 33.891571
-29.110815 -27.895746 33.808681
-29.663582 -29.919924 33.270191
-30.667704 -27.752348 32.854675
-32.229877 -27.857357 31.71796
-31.761898 -25.726101 32.26828
-27.31237 -20.205288 36.25964
-27.784445 -21.946716 35.548939
-28.962578 -19.762041 35.073429
-33.113293 -17.069723 31.76046
-32.022503 -19.268055 32.642525
-33.522507 -19.216194 31.252176
-33.96682 -21.260942 30.69396
-35.010826 -19.320288 29.659266
-36.232296 -19.529894 28.097467
-35.916359 -17.240068 28.580067
-37.062805 -10.979344 26.626848
-37.384838 -13.214697 26.240795
-38.02216 -11.087657 24.898745
-38.85907 -11.292706 22.937923
-38.567795 -9.088853 23.520342
-13.27046 -41.338299 39.022968
-13.974816 -42.969006 37.960171
-14.600561 -40.593525 38.26545
-16.305944 -30.085209 41.438343
-15.260283 -32.394207 41.210606
-16.629045 -31.64827 40.236286
-19.100258 -34.217297 37.451351
-17.552731 -34.916183 38.148136
-18.252516 -36.656387 37.219662
-17.383148 -39.241764 36.990528
-18.911438 -38.548588 36.444855
-19.739916 -40.225376 35.765953
-20.494455 -37.785439 35.971275
-24.4846 -34.424358 35.107681
-23.610178 -36.724182 35.060337
-25.164507 -36.304935 34.58215
-26.000889 -38.008812 34.032017
-31.149107 -35.887165 31.659674
-32.451077 -36.114876 30.545197
-38.480988 -27.037663 22.649084
-37.94487 -29.035078 23.840443
-38.526859 -29.260691 21.768925
-25.36574 -32.241386 35.086811
-27.06559 -32.144924 34.363865
-26.419554 -30.169327 34.921722
-27.561657 -27.86573 34.679165
-28.628397 -25.84354 34.354801
-29.51733 -15.841782 35.185875
-29.999153 -17.607767 34.54184
-31.026865 -15.45569 33.836529
-32.567375 -15.22015 32.367931
-34.169044 -15.088203 30.692123
-35.506401 -15.01609 29.102032
-34.969368 -12.910287 29.710611
-35.768806 -10.885946 28.543406
-36.580315 -8.929661 27.174936
-19.17647 -28.631763 39.474689
-18.014954 -31.062222 39.31337
-19.545218 -30.296425 38.489536
-20.016268 -31.944496 37.623322
-20.62635 -33.796261 36.795315
-21.304905 -35.442501 36.132767
-22.2267 -33.062382 36.248302
-23.777397 -32.734161 35.661491
-33.14333 -32.20948 30.499617
-33.437035 -34.321434 29.906834
-34.430595 -32.403721 29.144529
-35.61599 -32.623672 27.558664
-39.066467 -27.432222 18.478931
-38.871777 -29.433189 19.659883
-38.989391 -29.787264 17.620953
-23.373695 -25.063038 37.753098
-24.852997 -24.534454 36.915642
-24.443371 -22.805788 37.720558
-25.638815 -20.633341 37.459507
-13.608582 -31.654308 43.703251
-17.372812 -27.671616 41.748249
-18.763052 -27.009924 40.679867
-20.248966 -26.188465 39.719643
-21.772161 -25.659433 38.704422
-36.817551 -23.971249 26.954861
-36.948658 -26.406559 26.478876
-37.720352 -24.333048 25.226372
-38.409298 -24.726877 23.396025
-38.876781 -24.81563 21.510685
-39.117088 -25.107819 19.48085
-39.121532 -25.490145 17.340338
-28.169903 -39.200916 32.969662
-29.382029 -39.189522 32.319241
-28.8575 -37.564793 32.86956
-29.781456 -35.768562 32.582504
-30.693499 -33.868919 32.232376
-28.634464 -32.000896 33.62368
-30.194443 -31.893974 32.753441
-31.691046 -31.904329 31.743084
-32.803215 -29.968494 31.053144
-33.746616 -27.867846 30.404148
-34.757381 -25.83016 29.546099
-26.5033 -24.218689 35.934391
-28.146803 -23.90037 34.950565
-29.768038 -23.619913 33.916912
-30.468786 -19.505219 33.922337
-31.012962 -21.395304 33.275642
-31.415123 -23.504135 32.743565
-32.96217 -23.562462 31.473465
-34.35857 -23.44669 30.151482
-35.617489 -23.898157 28.677389
-36.521732 -21.721981 27.575733
-37.325432 -19.682699 26.3699
-38.00322 -17.641809 25.115156
-36.651661 -15.079846 27.516552
-37.706184 -15.333272 25.731506
-38.5467 -15.458604 23.86264
-39.01186 -13.617016 22.522699
-39.411591 -11.579511 21.058716
-39.745064 -9.537573 19.430042
-35.949776 -6.849401 27.832695
-37.21331 -6.843717 25.875435
-37.749012 -4.639386 24.564383
-38.266823 -6.823177 23.907127
-39.061779 -6.885359 22.02527
-39.665997 -7.10958 19.97345
-39.98822 -7.414794 17.851547
-40.16692 -5.226734 16.38063
-13.309558 -45.550293 37.64772
-14.639857 -44.846836 37.035221
-16.042904 -44.175747 36.471836
-13.921065 -33.284317 42.215149
-17.039925 -33.228123 39.148796
-16.230978 -35.565605 38.835293
-15.423029 -38.035671 38.530487
-15.959911 -39.678596 37.657246
-16.721684 -41.537746 36.758842
-17.548172 -43.292835 35.993454
-19.144258 -42.618996 35.507027
-20.677168 -42.007469 35.090698
-22.165131 -41.186016 34.759903
-21.935019 -37.329586 35.535351
-22.883675 -38.89986 34.939964
-23.722992 -40.526821 34.380932
-25.277214 -39.965786 33.967037
-26.802185 -39.483566 33.498814
-37.24128 -28.543011 25.601276
-37.308609 -30.953743 24.914085
-29.108764 -40.658384 32.154595
-28.589557 -41.199123 32.322541
-28.589557 -41.199123 32.322541
-28.067932 -41.421681 32.52208
-28.145285 -40.654827 32.691292
-13.682692 -40.080639 39.15208
-13.005261 -40.446787 39.61993
-14.347742 -39.708252 38.773322
-13.93551 -40.965912 38.644209
-13.682692 -40.080639 39.15208
-25.954389 -42.552314 33.163156
-25.431895 -41.828468 33.537084
-39.466542 -14.953066 20.264837
-39.305666 -14.816294 21.238436
-30.784223 -14.538774 34.137964
-30.272098 -15.648736 34.511202
-30.029456 -14.73182 34.812638
-36.512848 -31.862252 26.248626
-36.09713 -32.84395 26.699974
-36.031708 -31.641974 27.107316
-25.444288 -19.766857 37.887333
-24.850086 -20.912578 38.019785
-24.655558 -20.046093 38.447611
-26.241059 -19.520474 37.259012
-25.444288 -19.766857 37.887333
-17.180754 -26.930698 42.462385
-16.684894 -28.100254 42.274504
-19.101484 -25.131903 41.419069
-19.625056 -24.106549 41.451571
-19.276618 -25.927072 40.764597
-18.587919 -26.214756 41.334339
-19.101484 -25.131903 41.419069
-39.167867 -24.147788 18.821241
-39.136278 -24.035372 19.832311
-39.17009 -24.338951 17.750985
-39.11931 -25.298982 18.410594
-39.167867 -24.147788 18.821241
-36.285717 -5.80818 27.161061
-35.658596 -5.896615 28.093809
-36.917484 -5.805338 26.182431
-36.581543 -6.846559 26.854065
-36.285717 -5.80818 27.161061
-38.240566 -4.624517 23.549932
-38.023855 -3.565665 23.816463
-38.51541 -3.550795 22.802012
-39.816719 -6.067167 19.210306
-39.572401 -5.956258 20.248022
-39.723124 -4.913845 19.484878
-11.955768 -44.128166 39.122229
-12.299556 -42.889089 39.295839
-12.2998 -44.989168 38.533918
-11.955768 -44.128166 39.122229
-12.96577 -44.61167 38.186306
-12.643589 -45.927791 37.995333
-12.2998 -44.989168 38.533918
-15.045932 -34.326639 40.413059
-14.837345 -33.522885 41.039947
-15.46887 -33.197962 40.583717
-15.262126 -35.184399 39.797621
-15.045932 -34.326639 40.413059
-30.378548 -38.549244 31.748484
-29.978082 -39.352396 31.868045
-29.782495 -38.38637 32.19968
-33.56492 -35.365244 29.55292
-34.064825 -34.463221 29.152262
-37.68355 -31.071108 23.869232
-37.626739 -29.994411 24.377264
-38.00168 -30.111776 23.332411
-37.364372 -32.02145 24.435367
-37.68355 -31.071108 23.869232
-38.698502 -30.422062 20.24924
-38.833052 -30.57189 19.219015
-27.442546 -41.787679 32.733816
-26.721998 -42.101217 32.956773
-26.903112 -41.190922 33.113788
-27.442546 -41.787679 32.733816
-28.067932 -41.421681 32.52208
-39.553232 -13.968994 19.581785
-39.593925 -12.779792 19.794317
-31.839902 -12.346109 33.181534
-31.329331 -13.427761 33.65939
-32.560705 -12.172397 32.400399
-31.839902 -12.346109 33.181534
-33.308114 -12.160557 31.608251
-32.864489 -13.221826 32.087231
-32.560705 -12.172397 32.400399
-33.712901 -11.042448 31.098621
-34.016684 -12.091877 30.785452
-33.308114 -12.160557 31.608251
-34.14995 -10.011612 30.53327
-33.712901 -11.042448 31.098621
-34.565855 -8.929859 29.914793
-34.837376 -9.892016 29.657345
-34.14995 -10.011612 30.53327
-38.879492 -28.635414 14.866139
-38.991123 -28.692864 15.972874
-38.921965 -27.668833 15.377072
-23.288826 -21.506135 39.144282
-23.47531 -22.309844 38.645232
-22.702779 -22.624165 39.20945
-23.889305 -20.402497 39.032917
-23.288826 -21.506135 39.144282
-24.655558 -20.046093 38.447611
-23.889305 -20.402497 39.032917
-20.398497 -23.674029 40.855373
-19.625056 -24.106549 41.451571
-21.179578 -23.259479 40.318996
-20.571266 -24.429668 40.31295
-20.398497 -23.674029 40.855373
-21.934322 -22.917787 39.742536
-21.179578 -23.259479 40.318996
-22.702779 -22.624165 39.20945
-22.120805 -23.721496 39.243487
-21.934322 -22.917787 39.742536
-38.981752 -3.598902 21.723688
-38.51541 -3.550795 22.802012
-39.355095 -3.695546 20.717244
-39.105463 -4.706291 21.529038
-38.981752 -3.598902 21.723688
-39.914771 -3.80163 18.644947
-39.723124 -4.913845 19.484878
-40.091124 -3.972415 17.648528
-39.914771 -3.80163 18.644947
-12.623795 -41.721716 39.444878
-13.005261 -40.446787 39.61993
-12.94622 -42.505673 38.87393
-12.299556 -42.889089 39.295839
-12.623795 -41.721716 39.444878
-31.321934 -36.88713 31.34796
-30.838861 -37.735157 31.558183
-30.666034 -36.735191 31.869897
-31.972919 -37.000986 30.790721
-31.321934 -36.88713 31.34796
-31.800092 -36.001021 31.102435
-32.570658 -37.157183 30.190483
-31.972919 -37.000986 30.790721
-38.292675 -30.224582 22.296652
-38.00168 -30.111776 23.332411
-38.235865 -29.147884 22.804684
-25.954389 -42.552314 33.163156
-26.721998 -42.101217 32.956773
-38.933975 -18.033088 22.396579
-38.914535 -16.91818 22.646234
-39.466542 -14.953066 20.264837
-39.553232 -13.968994 19.581785
-31.571973 -14.344677 33.357954
-30.784223 -14.538774 34.137964
-31.329331 -13.427761 33.65939
-34.561605 -33.504364 28.77111
-34.064825 -34.463221 29.152262
-33.933815 -33.362578 29.525681
-35.154303 -33.614339 27.978177
-34.561605 -33.504364 28.77111
-35.023292 -32.513696 28.351596
-35.697458 -33.771766 27.134802
-35.154303 -33.614339 27.978177
-35.697458 -33.771766 27.134802
-36.09713 -32.84395 26.699974
-38.891859 -30.748928 18.19955
-38.833052 -30.57189 19.219015
-38.930584 -29.610226 18.640418
-38.96902 -29.723354 16.541447
-39.011494 -28.756774 17.05238
-38.991123 -28.692864 15.972874
-38.948448 -30.779552 17.099533
-38.96902 -29.723354 16.541447
-38.891859 -30.748928 18.19955
-38.948448 -30.779552 17.099533
-27.077836 -19.306447 36.659078
-26.475593 -20.419314 36.859573
-26.241059 -19.520474 37.259012
-27.635992 -18.242582 36.425027
-27.870526 -19.141422 36.025589
-27.077836 -19.306447 36.659078
-28.210547 -17.112092 36.159662
-27.635992 -18.242582 36.425027
-28.754872 -15.994204 35.856831
-28.973006 -16.95967 35.488707
-28.210547 -17.112092 36.159662
-29.243932 -14.943091 35.557917
-28.754872 -15.994204 35.856831
-30.029456 -14.73182 34.812638
-29.243932 -14.943091 35.557917
-13.395522 -30.918304 44.548365
-12.945883 -32.056116 44.345062
-14.070586 -30.488307 43.920119
-13.395522 -30.918304 44.548365
-14.699134 -30.111235 43.366913
-14.237129 -31.277236 43.150046
-14.070586 -30.488307 43.920119
-15.431327 -29.714528 42.698799
-14.699134 -30.111235 43.366913
-16.15146 -29.30705 42.119551
-15.585811 -30.492686 42.017592
-15.431327 -29.714528 42.698799
-16.839378 -28.878412 41.593296
-16.15146 -29.30705 42.119551
-16.684894 -28.100254 42.274504
-17.892798 -26.545602 41.86853
-17.180754 -26.930698 42.462385
-18.067932 -27.34077 41.214058
-17.892798 -26.545602 41.86853
-18.587919 -26.214756 41.334339
-38.989311 -19.215753 22.085046
-38.742424 -19.1086 23.06113
-38.933975 -18.033088 22.396579
-38.992598 -20.42884 21.779308
-38.989311 -19.215753 22.085046
-39.015814 -21.599778 21.491229
-38.820977 -21.462204 22.46152
-38.992598 -20.42884 21.779308
-38.999831 -22.798033 21.178607
-39.015814 -21.599778 21.491229
-39.016125 -23.889277 20.847229
-38.860487 -23.724386 21.842063
-38.999831 -22.798033 21.178607
-38.996935 -24.961724 20.495767
-39.016125 -23.889277 20.847229
-39.136278 -24.035372 19.832311
-39.084936 -24.527583 16.71613
-39.17009 -24.338951 17.750985
-39.014195 -25.57985 16.246387
-39.084936 -24.527583 16.71613
-38.970227 -26.697919 15.818122
-39.077564 -26.608214 16.912073
-39.014195 -25.57985 16.246387
-38.921965 -27.668833 15.377072
-38.970227 -26.697919 15.818122
-38.844341 -15.684514 22.891222
-38.914535 -16.91818 22.646234
-38.616894 -16.692269 23.617652
-39.076921 -14.76372 22.221252
-38.844341 -15.684514 22.891222
-38.77928 -14.53781 23.19267
-39.240605 -13.669589 21.539884
-39.305666 -14.816294 21.238436
-39.076921 -14.76372 22.221252
-39.565047 -11.708466 20.045141
-39.593925 -12.779792 19.794317
-39.44047 -12.650837 20.807892
-39.731783 -10.687497 19.230804
-39.565047 -11.708466 20.045141
-39.578328 -10.558542 20.244379
-39.816304 -9.70667 18.436227
-39.731783 -10.687497 19.230804
-34.925962 -7.854642 29.353346
-34.565855 -8.929859 29.914793
-35.27421 -6.874211 28.750259
-34.98303 -5.921424 29.011373
-35.658596 -5.896615 28.093809
-35.601529 -7.829833 28.435782
-34.925962 -7.854642 29.353346
-35.27421 -6.874211 28.750259
-37.485119 -3.602885 24.81747
-38.023855 -3.565665 23.816463
-37.185335 -4.703172 25.526905
-37.485119 -3.602885 24.81747
-37.481161 -5.741551 25.219909
-36.917484 -5.805338 26.182431
-37.185335 -4.703172 25.526905
-39.270292 -5.844148 21.273932
-38.89695 -5.747503 22.280376
-39.105463 -4.706291 21.529038
-39.363888 -6.99747 20.99936
-39.270292 -5.844148 21.273932
-39.572401 -5.956258 20.248022
-39.937882 -8.64528 17.646979
-39.816304 -9.70667 18.436227
-39.866642 -8.476183 18.640794
-39.993364 -7.571711 16.917874
-39.937882 -8.64528 17.646979
-40.082714 -6.477682 16.182416
-39.993364 -7.571711 16.917874
-40.07757 -6.320764 17.116089
-40.117639 -5.415051 15.475614
-40.082714 -6.477682 16.182416
-40.190863 -4.073405 16.615262
-40.067181 -5.125744 17.413896
-40.091124 -3.972415 17.648528
-40.228229 -4.166422 15.609764
-40.190863 -4.073405 16.615262
-40.178949 -4.354738 14.704749
-40.117639 -5.415051 15.475614
-40.228229 -4.166422 15.609764
-12.972673 -46.801213 37.501869
-12.643589 -45.927791 37.995333
-13.671308 -46.492775 37.178049
-12.972673 -46.801213 37.501869
-14.336458 -46.141047 36.8718
-13.671308 -46.492775 37.178049
-13.974707 -45.198565 37.34147
-15.04484 -45.69869 36.619793
-14.336458 -46.141047 36.8718
-15.746364 -45.363146 36.338101
-15.04484 -45.69869 36.619793
-15.34138 -44.511291 36.753529
-16.502417 -44.975518 36.087147
-15.746364 -45.363146 36.338101
-13.161903 -32.779228 43.529163
-12.945883 -32.056116 44.345062
-13.318144 -33.594233 42.785112
-13.161903 -32.779228 43.529163
-13.764824 -32.469313 42.9592
-13.474998 -34.467596 42.0419
-13.318144 -33.594233 42.785112
-14.167735 -33.967939 41.542219
-14.590674 -32.839262 41.712877
-14.837345 -33.522885 41.039947
-13.474998 -34.467596 42.0419
-14.167735 -33.967939 41.542219
-15.538886 -35.966343 39.236852
-15.262126 -35.184399 39.797621
-15.954218 -34.783661 39.396061
-15.134911 -37.201376 39.08445
-15.538886 -35.966343 39.236852
-15.827004 -36.800638 38.68289
-14.758976 -38.429325 38.90584
-15.134911 -37.201376 39.08445
-15.011795 -39.314598 38.397969
-14.347742 -39.708252 38.773322
-14.758976 -38.429325 38.90584
-17.255051 -44.534061 35.847955
-16.502417 -44.975518 36.087147
-16.795538 -43.734291 36.232645
-18.032913 -44.14896 35.621012
-17.255051 -44.534061 35.847955
-18.830956 -43.812041 35.377798
-18.032913 -44.14896 35.621012
-18.346215 -42.955916 35.750241
-19.591449 -43.521943 35.162388
-18.830956 -43.812041 35.377798
-20.357905 -43.216179 34.954223
-19.591449 -43.521943 35.162388
-19.910713 -42.313232 35.298862
-21.15491 -42.809397 34.768416
-20.357905 -43.216179 34.954223
-21.898891 -42.39867 34.603018
-21.15491 -42.809397 34.768416
-21.421149 -41.596743 34.925301
-22.671231 -41.958842 34.440548
-21.898891 -42.39867 34.603018
-23.450161 -41.629244 34.251063
-22.671231 -41.958842 34.440548
-22.944062 -40.856419 34.570418
-24.202109 -41.339649 34.059178
-23.450161 -41.629244 34.251063
-24.979221 -41.059131 33.85223
-24.202109 -41.339649 34.059178
-24.500103 -40.246303 34.173985
-25.729889 -40.735123 33.651891
-25.431895 -41.828468 33.537084
-24.979221 -41.059131 33.85223
-29.466324 -40.03701 32.06834
-29.108764 -40.658384 32.154595
-29.02447 -39.810896 32.405497
-29.466324 -40.03701 32.06834
-29.978082 -39.352396 31.868045
-30.378548 -38.549244 31.748484
-30.838861 -37.735157 31.558183
-33.071941 -36.261965 29.872101
-32.944056 -35.218155 30.226016
-33.56492 -35.365244 29.55292
-32.570658 -37.157183 30.190483
-33.071941 -36.261965 29.872101
-36.943439 -32.008986 25.377685
-36.512848 -31.862252 26.248626
-36.878017 -30.807009 25.785027
-36.943439 -32.008986 25.377685
-37.364372 -32.02145 24.435367
-38.526043 -30.335814 21.303762
-38.699318 -29.34694 20.714404
-38.698502 -30.422062 20.24924
-38.292675 -30.224582 22.296652
-38.526043 -30.335814 21.303762
3 0 221 222
3 0 223 225
3 225 224 56
3 223 224 225
3 1 59 57
3 1 64 62
3 1 57 64
3 2 68 66
3 5 73 71
3 7 76 74
3 9 79 77
3 9 81 79
3 3 84 82
3 10 87 85
3 10 89 87
3 10 91 89
3 11 94 92
3 11 96 94
3 226 97 227
3 228 99 229
3 230 229 97
3 228 229 230
3 4 102 100
3 12 105 103
3 12 107 105
3 12 109 107
3 7 112 110
3 7 74 112
3 8 115 114
3 6 118 116
3 13 231 232
3 14 233 234
3 15 121 119
3 17 122 58
3 17 123 122
3 235 126 236
3 237 236 124
3 235 236 237
3 19 127 60
3 19 128 127
3 19 130 128
3 21 131 61
3 21 132 131
3 22 135 133
3 24 136 63
3 24 137 136
3 24 139 137
3 15 140 65
3 15 119 140
3 26 143 141
3 27 144 67
3 27 238 240
3 240 239 144
3 238 239 240
3 28 147 145
3 29 150 148
3 241 151 242
3 243 242 69
3 241 242 243
3 245 244 151
3 246 153 247
3 32 248 249
3 32 250 252
3 250 154 251
3 250 251 252
3 32 155 154
3 29 156 70
3 29 148 156
3 33 159 157
3 35 160 72
3 35 161 160
3 253 162 254
3 255 163 256
3 257 256 162
3 255 256 257
3 36 166 164
3 38 167 75
3 38 168 167
3 16 169 120
3 39 170 78
3 39 171 170
3 39 172 171
3 40 173 80
3 40 174 173
3 30 175 149
3 41 176 83
3 41 177 176
3 18 178 125
3 42 179 86
3 42 180 179
3 42 181 180
3 43 182 88
3 43 183 182
3 43 184 183
3 44 185 90
3 44 186 185
3 20 187 129
3 45 188 93
3 45 189 188
3 45 190 189
3 46 191 95
3 46 192 191
3 258 193 259
3 260 194 261
3 262 261 193
3 260 261 262
3 47 263 265
3 263 195 264
3 263 264 265
3 47 196 195
3 47 197 196
3 48 266 268
3 266 198 267
3 266 267 268
3 48 199 198
3 48 200 199
3 49 269 270
3 49 271 272
3 49 273 275
3 273 201 274
3 273 274 275
3 50 202 98
3 50 203 202
3 31 204 152
3 51 276 278
3 278 277 101
3 276 277 278
3 51 279 280
3 23 205 134
3 52 206 104
3 52 207 206
3 52 208 207
3 53 209 106
3 53 210 209
3 53 211 210
3 54 212 108
3 54 213 212
3 25 214 138
3 55 215 111
3 55 216 215
3 55 217 216
3 36 218 113
3 36 164 218
3 37 281 283
3 283 282 165
3 281 282 283
3 285 284 142
3 34 219 158
3 286 220 287
3 288 287 117
3 286 287 288
3 290 289 220
3 292 291 146
3 56 293 295
3 295 294 13
3 293 294 295
3 297 296 56
3 299 298 14
3 57 58 15
3 59 58 57
3 59 17 58
3 300 60 301
3 302 60 303
3 304 19 305
3 306 305 60
3 304 305 306
3 307 61 308
3 309 308 19
3 307 308 309
3 310 61 311
3 312 21 313
3 314 313 61
3 312 313 314
3 62 63 22
3 64 63 62
3 64 24 63
3 64 65 24
3 57 65 64
3 57 15 65
3 66 67 26
3 68 67 66
3 68 27 67
3 317 316 28
3 315 316 317
3 318 69 319
3 320 319 29
3 318 319 320
3 321 69 322
3 324 323 69
3 325 32 326
3 327 70 328
3 329 328 32
3 327 328 329
3 330 70 331
3 332 29 333
3 334 333 70
3 332 333 334
3 71 72 33
3 73 72 71
3 73 35 72
3 74 75 36
3 76 75 74
3 76 38 75
3 77 78 16
3 79 78 77
3 79 39 78
3 79 80 39
3 81 80 79
3 81 40 80
3 82 83 30
3 84 83 82
3 84 41 83
3 85 86 18
3 87 86 85
3 87 42 86
3 87 88 42
3 89 88 87
3 89 43 88
3 89 90 43
3 91 90 89
3 91 44 90
3 92 93 20
3 94 93 92
3 94 45 93
3 94 95 45
3 96 95 94
3 96 46 95
3 335 47 336
3 339 338 47
3 337 338 339
3 340 48 341
3 343 342 48
3 97 344 345
3 97 346 348
3 346 49 347
3 346 347 348
3 97 98 49
3 99 98 97
3 99 50 98
3 100 101 31
3 102 101 100
3 102 51 101
3 103 104 23
3 105 104 103
3 105 52 104
3 105 106 52
3 107 106 105
3 107 53 106
3 107 108 53
3 109 108 107
3 109 54 108
3 110 111 25
3 112 111 110
3 112 55 111
3 112 113 55
3 74 113 112
3 74 36 113
3 114 349 351
3 351 350 37
3 349 350 351
3 115 352 354
3 354 353 114
3 352 353 354
3 115 355 356
3 116 117 34
3 118 117 116
3 118 357 359
3 359 358 117
3 357 358 359
3 361 360 13
3 363 362 5
3 365 364 14
3 119 120 7
3 121 120 119
3 121 16 120
3 58 121 15
3 122 121 58
3 122 16 121
3 122 77 16
3 123 77 122
3 123 9 77
3 124 125 3
3 126 125 124
3 126 18 125
3 60 366 368
3 366 126 367
3 366 367 368
3 127 126 60
3 127 18 126
3 127 85 18
3 128 85 127
3 128 10 85
3 128 129 10
3 130 129 128
3 130 20 129
3 61 130 19
3 131 130 61
3 131 20 130
3 131 92 20
3 132 92 131
3 132 11 92
3 133 134 4
3 135 134 133
3 135 23 134
3 63 135 22
3 136 135 63
3 136 23 135
3 136 103 23
3 137 103 136
3 137 12 103
3 137 138 12
3 139 138 137
3 139 25 138
3 65 139 24
3 140 139 65
3 140 25 139
3 140 110 25
3 119 110 140
3 119 7 110
3 141 142 8
3 143 142 141
3 143 369 371
3 371 370 142
3 369 370 371
3 67 143 26
3 144 143 67
3 144 372 374
3 374 373 143
3 372 373 374
3 144 375 376
3 378 377 144
3 145 146 6
3 147 146 145
3 147 379 381
3 381 380 146
3 379 380 381
3 382 147 383
3 384 383 28
3 382 383 384
3 385 147 386
3 388 387 147
3 148 149 1
3 150 149 148
3 150 30 149
3 69 150 29
3 151 150 69
3 151 30 150
3 151 82 30
3 389 82 390
3 391 390 151
3 389 390 391
3 392 3 393
3 394 393 82
3 392 393 394
3 395 3 396
3 397 124 398
3 399 398 3
3 397 398 399
3 400 124 401
3 403 402 124
3 404 152 405
3 406 152 407
3 408 31 409
3 410 409 152
3 408 409 410
3 411 31 412
3 413 100 414
3 415 414 31
3 413 414 415
3 153 416 418
3 416 100 417
3 416 417 418
3 153 4 100
3 419 153 420
3 154 421 423
3 421 153 422
3 421 422 423
3 154 4 153
3 154 133 4
3 155 133 154
3 155 22 133
3 70 155 32
3 156 155 70
3 156 22 155
3 156 62 22
3 148 62 156
3 148 1 62
3 157 158 2
3 159 158 157
3 159 34 158
3 72 159 33
3 160 159 72
3 160 34 159
3 160 116 34
3 161 116 160
3 161 6 116
3 424 73 425
3 426 425 5
3 424 425 426
3 427 73 428
3 429 35 430
3 431 430 73
3 429 430 431
3 432 35 433
3 434 161 435
3 436 435 35
3 434 435 436
3 162 437 439
3 437 161 438
3 437 438 439
3 162 6 161
3 162 145 6
3 163 145 162
3 163 28 145
3 440 163 441
3 442 163 443
3 444 28 445
3 446 445 163
3 444 445 446
3 448 447 28
3 164 165 0
3 166 165 164
3 166 37 165
3 75 166 36
3 167 166 75
3 167 37 166
3 167 114 37
3 168 114 167
3 168 8 114
3 120 76 7
3 169 76 120
3 169 38 76
3 78 169 16
3 170 169 78
3 170 38 169
3 170 168 38
3 171 168 170
3 171 8 168
3 171 141 8
3 172 141 171
3 172 26 141
3 80 172 39
3 173 172 80
3 173 26 172
3 173 66 26
3 174 66 173
3 174 2 66
3 149 59 1
3 175 59 149
3 175 17 59
3 83 175 30
3 176 175 83
3 176 17 175
3 176 123 17
3 177 123 176
3 177 9 123
3 125 84 3
3 178 84 125
3 178 41 84
3 86 178 18
3 179 178 86
3 179 41 178
3 179 177 41
3 180 177 179
3 180 9 177
3 180 81 9
3 181 81 180
3 181 40 81
3 88 181 42
3 182 181 88
3 182 40 181
3 182 174 40
3 183 174 182
3 183 2 174
3 183 157 2
3 184 157 183
3 184 33 157
3 90 184 43
3 185 184 90
3 185 33 184
3 185 71 33
3 186 71 185
3 186 5 71
3 129 91 10
3 187 91 129
3 187 44 91
3 93 187 20
3 188 187 93
3 188 44 187
3 188 186 44
3 189 186 188
3 189 5 186
3 189 449 451
3 451 450 5
3 449 450 451
3 190 452 454
3 454 453 189
3 452 453 454
3 190 455 457
3 455 14 456
3 455 456 457
3 95 190 45
3 191 190 95
3 191 14 190
3 191 458 460
3 460 459 14
3 458 459 460
3 192 461 463
3 463 462 191
3 461 462 463
3 192 464 465
3 466 21 467
3 193 468 470
3 468 469 470
3 193 471 473
3 471 21 472
3 471 472 473
3 193 132 21
3 194 132 193
3 194 11 132
3 195 474 475
3 195 476 477
3 195 478 480
3 478 194 479
3 478 479 480
3 196 194 195
3 196 11 194
3 196 96 11
3 197 96 196
3 197 46 96
3 481 197 482
3 483 482 47
3 481 482 483
3 198 484 486
3 484 197 485
3 484 485 486
3 198 46 197
3 198 192 46
3 199 192 198
3 199 487 489
3 489 488 192
3 487 488 489
3 199 490 491
3 200 492 494
3 494 493 199
3 492 493 494
3 200 495 496
3 497 200 498
3 499 498 48
3 497 498 499
3 500 200 501
3 504 503 200
3 502 503 504
3 201 505 506
3 201 507 508
3 98 201 49
3 202 201 98
3 202 509 511
3 511 510 201
3 509 510 511
3 202 512 513
3 203 514 516
3 516 515 202
3 514 515 516
3 203 517 518
3 152 519 520
3 204 521 523
3 523 522 152
3 521 522 523
3 204 524 525
3 101 204 31
3 526 204 527
3 528 527 101
3 526 527 528
3 530 529 204
3 134 102 4
3 205 102 134
3 205 51 102
3 104 205 23
3 206 205 104
3 206 51 205
3 206 531 533
3 533 532 51
3 531 532 533
3 207 534 536
3 536 535 206
3 534 535 536
3 207 537 538
3 207 539 541
3 539 99 540
3 539 540 541
3 208 99 207
3 208 50 99
3 106 208 52
3 209 208 106
3 209 50 208
3 209 203 50
3 210 203 209
3 210 542 544
3 544 543 203
3 542 543 544
3 210 545 546
3 211 547 549
3 549 548 210
3 547 548 549
3 211 550 551
3 108 211 53
3 212 211 108
3 212 552 554
3 554 553 211
3 552 553 554
3 212 555 556
3 213 557 559
3 559 558 212
3 557 558 559
3 213 560 561
3 138 109 12
3 214 109 138
3 214 54 109
3 111 214 25
3 215 214 111
3 215 54 214
3 215 213 54
3 216 213 215
3 216 562 564
3 564 563 213
3 562 563 564
3 216 565 566
3 217 567 569
3 569 568 216
3 567 568 569
3 217 570 572
3 570 13 571
3 570 571 572
3 113 217 55
3 218 217 113
3 218 13 217
3 218 56 13
3 164 56 218
3 164 0 56
3 165 573 575
3 575 574 0
3 573 574 575
3 577 576 165
3 579 578 37
3 142 115 8
3 580 115 581
3 582 581 142
3 580 581 582
3 584 583 115
3 158 68 2
3 219 68 158
3 219 27 68
3 117 219 34
3 220 219 117
3 220 27 219
3 220 585 587
3 587 586 27
3 585 586 587
3 589 588 220
3 146 118 6
3 590 118 591
3 592 591 146
3 590 591 592
3 594 593 118
