ply
format ascii 1.0
element vertex 308
property float x
property float y
property float z
element face 316
property list uchar int vertex_index
end_header
-23.801796 -75.73098 -24.93902
-26.525644 -68.568535 -33.351547
-16.699186 -87.438637 -24.742283
-20.49402 -80.815392 -15.950026
-26.16873 -69.683281 -16.480824
-18.611448 -81.799835 -32.498245
-20.003159 -73.459061 -39.426769
-15.43937 -87.889053 -11.663017
-17.260712 -86.223274 -16.134195
-18.692022 -82.819153 -11.386282
-28.738447 -64.17382 -17.287855
-20.419228 -81.585022 -24.612211
-17.735985 -84.950386 -28.597164
-21.546309 -78.879913 -28.829062
-23.553974 -71.020821 -36.75145
-27.020281 -69.71209 -25.239531
-25.24227 -72.467911 -29.306633
-28.725277 -65.931786 -29.777025
-18.990723 -84.002075 -20.336899
-22.270189 -78.361687 -20.566206
-21.576744 -77.507957 -11.250175
-23.466471 -75.225166 -16.048143
-25.286636 -72.691429 -20.801014
-28.115068 -66.955353 -21.320532
-22.805727 -75.110214 -32.780777
-19.36871 -78.088364 -35.99559
-17.197733 -85.249146 -11.439381
-22.061691 -78.789375 -24.89603
-20.983366 -80.336464 -26.762617
-22.836901 -77.193268 -26.902905
-26.014793 -64.966705 -38.878242
-28.524927 -66.713486 -25.579205
-27.889668 -67.928131 -27.433449
-18.95899 -83.458916 -15.939848
-18.098349 -85.250694 -18.31801
-19.756573 -82.496338 -18.181595
-20.609509 -81.291611 -20.531338
-21.376698 -79.673676 -18.294071
-25.140789 -71.032036 -14.042127
-23.860895 -73.76413 -13.959987
-24.808214 -72.492218 -16.137518
-24.398344 -73.952454 -18.342054
-25.74135 -71.234505 -18.450218
-26.673094 -69.918694 -20.954063
-27.111065 -68.483971 -19.006399
-18.171942 -83.524422 -30.48822
-25.828165 -70.749535 -31.333752
-24.076193 -73.876152 -31.039982
-24.711088 -71.818359 -33.077278
-21.872114 -72.139557 -38.23156
-21.541618 -74.41613 -36.455814
-19.62336 -75.951347 -37.784683
-16.498955 -86.902946 -13.826844
-18.090738 -84.436279 -13.826784
-19.556377 -81.894287 -13.496325
-26.446341 -68.233246 -14.375341
-27.498121 -66.902679 -16.956282
-27.681551 -65.540276 -14.774952
-28.92729 -62.841854 -15.386307
-18.572491 -84.563293 -24.67745
-17.390522 -86.03418 -26.690254
-19.258316 -83.137505 -26.677191
-19.703693 -81.884903 -28.687464
-20.111769 -80.44722 -30.721659
-27.076817 -66.290451 -35.43998
-25.186029 -69.679245 -35.170147
-25.492178 -67.613564 -37.080029
-23.955524 -68.619019 -38.528343
-25.47908 -72.650284 -25.167152
-24.614773 -74.049385 -27.11591
-26.256977 -71.038399 -27.305737
-27.043203 -69.189377 -29.427713
-27.694691 -67.326027 -31.563051
-28.311872 -65.162735 -33.786018
-17.226692 -86.814911 -20.653742
-17.901941 -85.776772 -22.669811
-19.640358 -82.988014 -22.549618
-21.429829 -79.961403 -22.591484
-23.077425 -77.052628 -22.796791
-21.099041 -79.178955 -13.748535
-22.572348 -76.335442 -13.744386
-22.028019 -78.00238 -15.958669
-22.917675 -76.821938 -18.282049
-23.770332 -75.579208 -20.510235
-24.618311 -74.22937 -23.000477
-26.197165 -71.210236 -23.115429
-27.709776 -68.186378 -23.302074
-29.06962 -65.351624 -23.529198
-28.457611 -65.597954 -19.283871
-29.463448 -64.012138 -21.461712
-23.453619 -75.655548 -28.98407
-22.215635 -77.058083 -30.799023
-20.813833 -78.362366 -32.625305
-23.174215 -73.235542 -34.76857
-21.209282 -76.468407 -34.567261
-19.039383 -79.952682 -34.305588
-28.998494 -65.72704 -26.688941
-29.284618 -65.128155 -25.749912
-16.081914 -88.168442 -25.639136
-15.789823 -88.762719 -24.669822
-17.554668 -83.447605 -32.319097
-17.334916 -84.309899 -31.314085
-18.391695 -82.662128 -31.493232
-17.71408 -82.612332 -33.23276
-17.554668 -83.447605 -32.319097
-18.811875 -75.35099 -39.254514
-18.621976 -76.597133 -38.433471
-19.81326 -74.705204 -38.605726
-18.947126 -74.024746 -40.062882
-18.811875 -75.35099 -39.254514
-15.969162 -87.396 -12.74493
-15.578969 -88.237415 -14.019565
-15.049176 -88.730469 -12.937652
-26.512504 -67.611854 -13.326833
-25.906405 -68.938507 -13.128968
-27.130109 -66.26537 -13.526638
-27.063946 -66.886761 -14.575147
-26.512504 -67.611854 -13.326833
-28.982532 -62.216143 -14.420264
-28.401073 -63.482458 -14.088778
-29.50327 -61.524149 -15.618115
-28.982532 -62.216143 -14.420264
-14.545284 -89.07962 -11.723453
-14.978254 -88.182743 -10.506139
-15.049176 -88.730469 -12.937652
-14.545284 -89.07962 -11.723453
-26.473921 -65.862458 -37.209389
-26.284498 -66.952008 -36.260005
-27.26624 -65.200901 -36.389364
-24.083838 -67.429039 -39.360094
-24.985159 -66.792862 -38.703293
-25.113473 -65.602882 -39.535044
-23.045331 -69.150295 -39.235048
-24.083838 -67.429039 -39.360094
-29.196873 -63.422672 -33.974224
-28.881704 -64.500847 -32.935993
-28.621156 -63.922867 -34.859399
-29.196873 -63.422672 -33.974224
-16.829451 -87.057308 -17.352976
-16.443854 -87.451702 -16.253232
-20.895395 -78.812591 -11.277936
-21.120558 -77.987651 -10.029655
-21.337893 -78.343456 -12.499355
-20.656543 -79.64809 -12.527116
-20.895395 -78.812591 -11.277936
-30.124112 -62.566124 -21.766716
-29.613474 -63.343532 -20.51041
-29.968165 -63.178619 -22.741347
-30.124112 -62.566124 -21.766716
-16.768915 -86.403908 -28.500048
-16.596183 -86.945805 -27.546592
-17.563254 -85.492283 -27.643709
-18.212826 -79.841335 -35.891571
-18.048163 -80.773494 -35.04657
-19.204047 -79.020523 -35.150589
-16.694702 -85.68483 -10.314317
-16.318551 -86.569099 -11.551199
-15.81552 -87.004784 -10.426135
-17.487903 -84.440475 -10.223705
-16.694702 -85.68483 -10.314317
-18.235047 -83.225479 -10.197156
-17.944878 -84.034149 -11.412831
-17.487903 -84.440475 -10.223705
-15.81552 -87.004784 -10.426135
-14.978254 -88.182743 -10.506139
-26.985391 -63.116219 -39.12211
-26.735228 -64.539028 -38.108496
-26.138071 -63.625538 -39.846174
-26.985391 -63.116219 -39.12211
-25.113473 -65.602882 -39.535044
-26.138071 -63.625538 -39.846174
-28.680864 -66.334362 -27.616062
-28.207298 -67.320808 -26.506327
-28.998494 -65.72704 -26.688941
-29.098669 -65.33619 -28.78785
-28.307472 -66.929958 -28.605237
-28.680864 -66.334362 -27.616062
-21.798084 -76.648266 -10.078326
-21.120558 -77.987651 -10.029655
-24.500842 -72.398083 -14.001057
-24.036734 -72.944008 -12.776884
-24.676681 -71.577961 -12.817954
-29.250974 -63.424374 -18.423482
-29.368573 -62.772642 -17.55982
-17.140981 -85.074119 -30.402634
-16.923002 -85.787102 -29.457107
-17.953964 -84.237404 -29.542692
-17.140981 -85.074119 -30.402634
-17.334916 -84.309899 -31.314085
-18.536723 -77.698078 -37.597311
-18.409398 -78.766587 -36.702765
-19.496035 -77.019856 -36.890136
-18.536723 -77.698078 -37.597311
-18.621976 -76.597133 -38.433471
-16.062975 -87.791538 -15.099556
-15.578969 -88.237415 -14.019565
-16.879834 -86.56311 -14.980519
-16.443854 -87.451702 -16.253232
-16.062975 -87.791538 -15.099556
-25.253629 -70.337902 -12.962362
-24.676681 -71.577961 -12.817954
-25.793565 -69.632641 -14.208734
-25.253629 -70.337902 -12.962362
-25.906405 -68.938507 -13.128968
-27.778204 -64.831669 -13.7831
-27.130109 -66.26537 -13.526638
-28.30442 -64.191065 -15.08063
-27.778204 -64.831669 -13.7831
-28.401073 -63.482458 -14.088778
-29.462995 -62.106659 -16.609046
-29.368573 -62.772642 -17.55982
-28.832869 -63.507837 -16.337081
-29.462995 -62.106659 -16.609046
-29.50327 -61.524149 -15.618115
-25.753486 -66.290134 -37.979135
-26.473921 -65.862458 -37.209389
-26.735228 -64.539028 -38.108496
-22.003626 -70.910564 -39.086657
-22.913819 -70.379288 -38.379952
-23.045331 -69.150295 -39.235048
-21.069149 -71.570317 -39.684261
-20.937636 -72.799309 -38.829165
-22.003626 -70.910564 -39.086657
-20.012352 -72.237068 -40.281092
-21.069149 -71.570317 -39.684261
-29.510652 -64.334772 -29.977127
-29.098669 -65.33619 -28.78785
-29.088406 -64.885373 -30.931497
-29.510652 -64.334772 -29.977127
-28.573113 -65.582493 -31.82451
-28.209984 -66.628906 -30.670038
-29.088406 -64.885373 -30.931497
-28.003281 -66.244381 -32.674535
-28.573113 -65.582493 -31.82451
-28.881704 -64.500847 -32.935993
-28.003628 -64.486725 -35.68638
-27.694344 -65.726593 -34.612999
-28.621156 -63.922867 -34.859399
-27.26624 -65.200901 -36.389364
-28.003628 -64.486725 -35.68638
-16.402731 -87.967872 -23.743807
-15.789823 -88.762719 -24.669822
-17.248269 -86.571018 -18.444884
-16.829451 -87.057308 -17.352976
-17.67953 -85.736984 -17.226102
-16.812441 -87.353127 -19.61275
-17.248269 -86.571018 -18.444884
-17.66252 -86.032803 -19.485876
-16.352914 -88.107868 -20.701994
-16.812441 -87.353127 -19.61275
-16.666484 -87.656009 -21.699537
-16.352914 -88.107868 -20.701994
-17.004109 -87.13694 -22.707571
-16.666484 -87.656009 -21.699537
-17.564317 -86.295841 -21.661777
-17.300564 -86.607704 -23.706047
-16.402731 -87.967872 -23.743807
-17.004109 -87.13694 -22.707571
-18.990236 -81.941445 -10.175663
-18.235047 -83.225479 -10.197156
-19.453034 -81.468189 -11.345989
-18.990236 -81.941445 -10.175663
-19.885211 -81.005757 -12.401011
-19.1242 -82.35672 -12.441304
-19.453034 -81.468189 -11.345989
-20.327709 -80.536621 -13.62243
-19.885211 -81.005757 -12.401011
-20.656543 -79.64809 -12.527116
-22.234099 -76.205135 -11.341185
-21.798084 -76.648266 -10.078326
-23.376174 -74.333222 -12.696091
-24.036734 -72.944008 -12.776884
-22.731901 -75.618877 -12.58829
-23.376174 -74.333222 -12.696091
-23.216622 -75.049786 -13.852187
-22.074546 -76.9217 -12.497281
-22.234099 -76.205135 -11.341185
-22.731901 -75.618877 -12.58829
-29.556964 -64.447224 -24.724908
-29.284618 -65.128155 -25.749912
-28.797274 -66.032555 -24.554202
-29.110556 -64.13644 -19.42149
-28.598029 -64.885887 -18.285863
-29.250974 -63.424374 -18.423482
-28.960529 -64.805046 -20.372791
-29.110556 -64.13644 -19.42149
-29.613474 -63.343532 -20.51041
-29.771251 -63.848362 -23.775091
-29.266534 -64.681881 -22.495455
-29.968165 -63.178619 -22.741347
-29.556964 -64.447224 -24.724908
-29.771251 -63.848362 -23.775091
-16.427582 -87.466214 -26.613121
-16.081914 -88.168442 -25.639136
-17.044854 -86.736409 -25.716268
-16.427582 -87.466214 -26.613121
-16.596183 -86.945805 -27.546592
-16.768915 -86.403908 -28.500048
-16.923002 -85.787102 -29.457107
-17.928047 -81.688755 -34.136431
-17.71408 -82.612332 -33.23276
-18.825415 -80.876259 -33.401916
-17.928047 -81.688755 -34.136431
-18.048163 -80.773494 -35.04657
-18.212826 -79.841335 -35.891571
-18.409398 -78.766587 -36.702765
-18.947126 -74.024746 -40.062882
-20.012352 -72.237068 -40.281092
3 0 29 27
3 97 96 31
3 3 35 33
3 3 37 35
3 4 40 38
3 4 42 40
3 4 44 42
3 2 98 99
3 5 100 102
3 102 101 45
3 100 101 102
3 5 103 104
3 1 48 46
3 6 51 49
3 6 105 107
3 107 106 51
3 105 106 107
3 6 108 109
3 7 110 112
3 110 52 111
3 110 111 112
3 9 53 26
3 9 54 53
3 113 55 114
3 115 57 116
3 117 116 55
3 115 116 117
3 118 58 119
3 121 120 58
3 7 122 123
3 7 124 125
3 11 61 59
3 13 62 28
3 13 63 62
3 126 66 127
3 128 127 64
3 126 127 128
3 129 67 130
3 131 130 30
3 129 130 131
3 133 132 67
3 15 70 68
3 17 71 32
3 17 72 71
3 134 73 135
3 137 136 73
3 8 138 139
3 18 74 34
3 18 75 74
3 18 76 75
3 19 77 36
3 19 78 77
3 20 140 141
3 20 142 144
3 142 79 143
3 142 143 144
3 21 80 39
3 21 81 80
3 21 82 81
3 22 83 41
3 22 84 83
3 22 85 84
3 23 86 43
3 23 87 86
3 10 88 56
3 145 89 146
3 148 147 89
3 12 149 151
3 151 150 60
3 149 150 151
3 16 90 69
3 24 91 47
3 24 92 91
3 14 93 65
3 25 94 50
3 25 95 94
3 25 152 154
3 154 153 95
3 152 153 154
3 155 26 156
3 157 156 7
3 155 156 157
3 158 26 159
3 160 9 161
3 162 161 26
3 160 161 162
3 163 7 164
3 27 28 11
3 29 28 27
3 29 13 28
3 165 30 166
3 167 30 168
3 170 169 30
3 31 32 15
3 171 32 172
3 173 172 31
3 171 172 173
3 174 17 175
3 176 175 32
3 174 175 176
3 33 34 8
3 35 34 33
3 35 18 34
3 35 36 18
3 37 36 35
3 37 19 36
3 177 20 178
3 38 179 181
3 179 39 180
3 179 180 181
3 40 39 38
3 40 21 39
3 40 41 21
3 42 41 40
3 42 22 41
3 42 43 22
3 44 43 42
3 44 23 43
3 183 182 10
3 45 184 186
3 186 185 12
3 184 185 186
3 188 187 45
3 46 47 16
3 48 47 46
3 48 24 47
3 49 50 14
3 51 50 49
3 51 25 50
3 51 189 191
3 191 190 25
3 189 190 191
3 193 192 51
3 52 194 195
3 52 196 198
3 196 8 197
3 196 197 198
3 26 52 7
3 53 52 26
3 53 8 52
3 53 33 8
3 54 33 53
3 54 3 33
3 199 38 200
3 55 201 203
3 201 38 202
3 201 202 203
3 55 4 38
3 55 56 4
3 57 56 55
3 57 10 56
3 204 57 205
3 58 206 208
3 206 57 207
3 206 207 208
3 58 10 57
3 58 209 211
3 211 210 10
3 209 210 211
3 213 212 58
3 59 60 2
3 61 60 59
3 61 12 60
3 28 61 11
3 62 61 28
3 62 12 61
3 62 45 12
3 63 45 62
3 63 5 45
3 64 65 1
3 66 65 64
3 66 14 65
3 30 214 216
3 214 66 215
3 214 215 216
3 67 66 30
3 67 14 66
3 67 49 14
3 217 49 218
3 219 218 67
3 217 218 219
3 220 6 221
3 222 221 49
3 220 221 222
3 224 223 6
3 68 69 0
3 70 69 68
3 70 16 69
3 32 70 15
3 71 70 32
3 71 16 70
3 71 46 16
3 72 46 71
3 72 1 46
3 225 17 226
3 227 17 228
3 229 72 230
3 231 230 17
3 229 230 231
3 73 232 234
3 232 72 233
3 232 233 234
3 73 1 72
3 73 64 1
3 235 64 236
3 237 236 73
3 235 236 237
3 239 238 64
3 240 2 241
3 34 242 244
3 244 243 8
3 242 243 244
3 74 245 247
3 247 246 34
3 245 246 247
3 74 248 249
3 74 250 251
3 75 252 254
3 254 253 74
3 252 253 254
3 75 255 257
3 255 2 256
3 255 256 257
3 75 59 2
3 76 59 75
3 76 11 59
3 36 76 18
3 77 76 36
3 77 11 76
3 77 27 11
3 78 27 77
3 78 0 27
3 258 9 259
3 260 9 261
3 262 54 263
3 264 263 9
3 262 263 264
3 79 265 267
3 265 54 266
3 265 266 267
3 79 3 54
3 268 20 269
3 39 270 271
3 80 272 274
3 274 273 39
3 272 273 274
3 80 275 277
3 275 20 276
3 275 276 277
3 80 79 20
3 81 79 80
3 81 3 79
3 81 37 3
3 82 37 81
3 82 19 37
3 41 82 21
3 83 82 41
3 83 19 82
3 83 78 19
3 84 78 83
3 84 0 78
3 84 68 0
3 85 68 84
3 85 15 68
3 43 85 22
3 86 85 43
3 86 15 85
3 86 31 15
3 87 31 86
3 87 278 280
3 280 279 31
3 278 279 280
3 56 44 4
3 88 44 56
3 88 23 44
3 281 88 282
3 283 282 10
3 281 282 283
3 89 284 286
3 284 88 285
3 284 285 286
3 89 23 88
3 89 87 23
3 287 87 288
3 289 288 89
3 287 288 289
3 291 290 87
3 60 292 294
3 294 293 2
3 292 293 294
3 296 295 60
3 298 297 12
3 69 29 0
3 90 29 69
3 90 13 29
3 47 90 16
3 91 90 47
3 91 13 90
3 91 63 13
3 92 63 91
3 92 5 63
3 65 48 1
3 93 48 65
3 93 24 48
3 50 93 14
3 94 93 50
3 94 24 93
3 94 92 24
3 95 92 94
3 95 5 92
3 95 299 301
3 301 300 5
3 299 300 301
3 303 302 95
3 305 304 25
3 307 306 6
