ply
format ascii 1.0
element vertex 154
property float x
property float y
property float z
element face 141
property list uchar int vertex_index
end_header
-39.125629 -29.613762 -45.496834
-34.606979 -31.209181 -51.778278
-34.852016 -43.93642 -43.533367
-38.86335 -35.552761 -41.188725
-36.880672 -42.486382 -40.381924
-37.38649 -36.54451 -44.620354
-37.388069 -30.105192 -48.902508
-36.712582 -23.471558 -53.139069
-33.836628 -24.018566 -55.75729
-35.048988 -37.631958 -47.680195
-39.054317 -32.550694 -43.420822
-38.183018 -36.250237 -42.858994
-38.287296 -33.080765 -45.197384
-37.92321 -23.082872 -51.59082
-34.838184 -20.10709 -56.486641
-35.909031 -43.435524 -41.941029
-36.109406 -30.594978 -50.446877
-36.257614 -33.712631 -48.488571
-34.82375 -34.489235 -49.808205
-38.520393 -38.485439 -38.996761
-37.569645 -41.91806 -38.54282
-37.934109 -39.058224 -40.80225
-37.102375 -39.857059 -42.469372
-36.172279 -40.287891 -44.108173
-32.958878 -31.383078 -53.110611
-33.318539 -34.799263 -51.107063
-39.112705 -26.265648 -47.646633
-38.3815 -29.636143 -47.324505
-38.198208 -26.466648 -49.489353
-37.096519 -26.667862 -51.162971
-35.746063 -27.434216 -52.464775
-35.299042 -23.9744 -54.485298
-34.281826 -27.771481 -53.738461
-37.362061 -33.506596 -46.85302
-36.279675 -37.155098 -46.241333
-34.989246 -40.847752 -45.633568
-33.595486 -38.233971 -48.961632
-34.695007 -45.441925 -42.524097
-35.223515 -45.191477 -41.727929
-35.380523 -43.685972 -42.737198
-34.086275 -45.879819 -43.198586
-34.695007 -45.441925 -42.524097
-32.273103 -33.253612 -52.698103
-32.117855 -31.50785 -53.626551
-38.53274 -24.827135 -49.639155
-38.655456 -26.366148 -48.567993
-38.989988 -24.726635 -48.717794
-33.279182 -25.873511 -55.365588
-33.501781 -27.749969 -54.356173
-34.059227 -25.895024 -54.747875
-36.664363 -43.904991 -39.309557
-37.00885 -43.62083 -38.390005
-37.225158 -42.202221 -39.462372
-32.767738 -38.426821 -49.600315
-33.457013 -36.516617 -50.034347
-32.629264 -36.709467 -50.67303
-38.265749 -21.43806 -51.66889
-38.39524 -23.135247 -50.689888
-37.701763 -21.430526 -52.602974
-38.265749 -21.43806 -51.66889
-37.096449 -21.624869 -53.377099
-37.317896 -23.277215 -52.364945
-37.701763 -21.430526 -52.602974
-34.466042 -18.387915 -57.440748
-35.211685 -18.285773 -56.792385
-34.032581 -20.288934 -57.069351
-34.466042 -18.387915 -57.440748
-33.531803 -22.244672 -56.704676
-34.337406 -22.062828 -56.121966
-34.032581 -20.288934 -57.069351
-32.965086 -24.17093 -56.307207
-33.531803 -22.244672 -56.704676
-35.755038 -44.787705 -40.923136
-36.240858 -44.313133 -40.143583
-36.394852 -42.960953 -41.161476
-35.755038 -44.787705 -40.923136
-35.223515 -45.191477 -41.727929
-38.045019 -40.201749 -38.76979
-37.82054 -41.59415 -37.657928
-38.295913 -39.87784 -37.884899
-32.452934 -34.961705 -51.696329
-33.138708 -33.091171 -52.108837
-32.273103 -33.253612 -52.698103
-32.629264 -36.709467 -50.67303
-32.452934 -34.961705 -51.696329
-38.060709 -24.77476 -50.540087
-38.53274 -24.827135 -49.639155
-38.39524 -23.135247 -50.689888
-36.476345 -21.729441 -54.128965
-37.096449 -21.624869 -53.377099
-35.539146 -20.047207 -55.802751
-35.211685 -18.285773 -56.792385
-35.769575 -21.980862 -54.80208
-35.539146 -20.047207 -55.802751
-35.068613 -22.040745 -55.485969
-36.005812 -23.722979 -53.812184
-36.476345 -21.729441 -54.128965
-35.769575 -21.980862 -54.80208
-32.840307 -29.555767 -54.042248
-33.620352 -29.57728 -53.424536
-33.501781 -27.749969 -54.356173
-32.117855 -31.50785 -53.626551
-32.840307 -29.555767 -54.042248
-33.279182 -25.873511 -55.365588
-32.965086 -24.17093 -56.307207
-38.734909 -38.161634 -38.141296
-38.295913 -39.87784 -37.884899
-38.923191 -36.781932 -39.233728
-38.734909 -38.161634 -38.141296
-39.094669 -35.315593 -40.32971
-38.691871 -37.0191 -40.092743
-38.923191 -36.781932 -39.233728
-39.229219 -33.887524 -41.381608
-39.094669 -35.315593 -40.32971
-39.324703 -32.38649 -42.497656
-38.958833 -34.051727 -42.304773
-39.229219 -33.887524 -41.381608
-39.401148 -30.800387 -43.640438
-39.324703 -32.38649 -42.497656
-39.436804 -29.331921 -44.678444
-39.089973 -31.082228 -44.458828
-39.401148 -30.800387 -43.640438
-39.450613 -27.758763 -45.734267
-39.436804 -29.331921 -44.678444
-39.444151 -26.084705 -46.809166
-39.119167 -27.939705 -46.571734
-39.450613 -27.758763 -45.734267
-39.404998 -24.449656 -47.834566
-39.444151 -26.084705 -46.809166
-38.989988 -24.726635 -48.717794
-39.404998 -24.449656 -47.834566
-37.281405 -43.401531 -37.44066
-37.82054 -41.59415 -37.657928
-37.281405 -43.401531 -37.44066
-37.00885 -43.62083 -38.390005
-36.664363 -43.904991 -39.309557
-36.240858 -44.313133 -40.143583
-32.829466 -40.087669 -48.624691
-32.767738 -38.426821 -49.600315
-33.592501 -39.919975 -47.940714
-32.829466 -40.087669 -48.624691
-34.319252 -39.618969 -47.299995
-34.322237 -37.932964 -48.320914
-33.592501 -39.919975 -47.940714
-34.289381 -41.226866 -46.276682
-35.019117 -39.239855 -46.656881
-34.319252 -39.618969 -47.299995
-34.30554 -42.686115 -45.275418
-34.289381 -41.226866 -46.276682
-34.236925 -44.230449 -44.225317
-34.920631 -42.392086 -44.583467
-34.30554 -42.686115 -45.275418
-34.086275 -45.879819 -43.198586
-34.236925 -44.230449 -44.225317
3 0 12 10
3 2 37 39
3 39 38 15
3 37 38 39
3 2 40 41
3 1 18 16
3 3 21 19
3 5 22 11
3 5 23 22
3 43 42 24
3 44 28 45
3 46 45 26
3 44 45 46
3 7 29 13
3 7 30 29
3 8 31 14
3 8 32 31
3 8 47 49
3 49 48 32
3 47 48 49
3 4 50 52
3 52 51 20
3 50 51 52
3 6 33 27
3 9 34 17
3 9 35 34
3 53 36 54
3 55 54 25
3 53 54 55
3 10 11 3
3 12 11 10
3 12 5 11
3 56 13 57
3 58 13 59
3 60 7 61
3 62 61 13
3 60 61 62
3 63 14 64
3 65 14 66
3 67 8 68
3 69 68 14
3 67 68 69
3 71 70 8
3 15 72 74
3 74 73 4
3 72 73 74
3 76 75 15
3 16 17 6
3 18 17 16
3 18 9 17
3 19 77 79
3 77 20 78
3 77 78 79
3 21 20 19
3 21 4 20
3 11 21 3
3 22 21 11
3 22 4 21
3 22 15 4
3 23 15 22
3 23 2 15
3 24 25 1
3 80 25 81
3 82 81 24
3 80 81 82
3 84 83 25
3 26 27 0
3 28 27 26
3 28 6 27
3 13 85 87
3 85 28 86
3 85 86 87
3 29 28 13
3 29 6 28
3 29 16 6
3 30 16 29
3 30 1 16
3 88 7 89
3 14 90 91
3 31 92 94
3 94 93 14
3 92 93 94
3 31 95 97
3 95 7 96
3 95 96 97
3 31 30 7
3 32 30 31
3 32 1 30
3 32 24 1
3 98 24 99
3 100 99 32
3 98 99 100
3 102 101 24
3 104 103 8
3 105 19 106
3 107 19 108
3 109 3 110
3 111 110 19
3 109 110 111
3 112 3 113
3 114 10 115
3 116 115 3
3 114 115 116
3 117 10 118
3 119 0 120
3 121 120 10
3 119 120 121
3 122 0 123
3 124 26 125
3 126 125 0
3 124 125 126
3 127 26 128
3 130 129 26
3 20 131 132
3 134 133 20
3 136 135 4
3 27 12 0
3 33 12 27
3 33 5 12
3 17 33 6
3 34 33 17
3 34 5 33
3 34 23 5
3 35 23 34
3 35 2 23
3 25 18 1
3 36 18 25
3 36 9 18
3 137 36 138
3 139 36 140
3 141 9 142
3 143 142 36
3 141 142 143
3 144 35 145
3 146 145 9
3 144 145 146
3 147 35 148
3 149 2 150
3 151 150 35
3 149 150 151
3 153 152 2
