ply
format ascii 1.0
element vertex 252
property float x
property float y
property float z
element face 258
property list uchar int vertex_index
end_header
-28.602507 -65.920486 36.229939
-30.183189 -55.922695 40.520325
-30.144936 -51.654709 48.997383
-28.787457 -61.92807 45.882385
-24.778221 -64.926498 50.720867
-25.530487 -71.182884 40.819328
-30.224943 -54.232349 44.906944
-26.823698 -60.400921 53.27544
-28.794918 -64.116425 41.209087
-27.365702 -66.726562 43.638107
-27.450619 -68.836082 38.652119
-29.602507 -60.966717 38.415878
-30.020645 -57.241795 35.973682
-29.526615 -54.010189 52.084591
-28.646709 -58.853306 50.731953
-29.709036 -56.876617 47.733742
-29.717545 -59.292084 43.195126
-27.156559 -63.751041 48.706894
-25.262922 -68.29998 45.836895
-28.474863 -66.551651 33.750736
-27.288166 -56.193085 56.624622
-26.545219 -58.556793 55.55291
-27.616199 -57.938702 54.39603
-28.709627 -65.111176 38.793655
-28.15036 -66.5504 40.027294
-28.10721 -67.402405 37.564877
-29.952072 -58.386257 39.558891
-29.863108 -59.047108 37.250355
-30.12254 -56.531944 38.196186
-29.910723 -52.904644 50.494785
-29.6222 -55.525887 50.018375
-29.985214 -54.358036 48.40509
-30.217972 -55.188141 42.665703
-30.037193 -56.653946 44.107307
-29.993259 -57.745651 41.890869
-29.687147 -60.161186 40.777538
-24.567312 -62.997822 53.08112
-23.404781 -65.031052 51.598312
-23.633835 -67.010666 49.138748
-28.776846 -60.339012 48.348656
-27.970818 -61.348274 49.785313
-28.066473 -62.87923 47.437378
-26.537905 -68.934959 42.28474
-26.443089 -67.481247 44.938541
-25.48942 -69.767761 43.283867
-24.192715 -70.396027 44.19281
-30.197443 -53.161434 46.964973
-30.317732 -51.869362 45.419331
-30.329931 -52.821808 43.505791
-25.585764 -60.924973 54.336464
-25.841846 -62.853233 51.9678
-28.821056 -63.13007 43.41647
-28.136206 -64.297234 44.93417
-28.156054 -65.537857 42.47316
-27.416162 -67.920746 41.093758
-26.552547 -70.223785 39.706352
-29.163788 -63.400738 37.445541
-29.046408 -63.994637 34.975864
-29.50528 -61.517818 36.147663
-29.714577 -59.804523 34.806263
-29.006241 -54.751705 53.699509
-28.440769 -57.326859 53.037678
-29.117754 -56.578499 51.477676
-29.259174 -57.942425 49.251369
-29.307812 -59.367317 46.984295
-30.034285 -55.562275 46.252338
-29.736725 -58.10981 45.527504
-29.330214 -60.617458 44.633774
-29.326223 -61.637291 42.292782
-29.251083 -62.645981 39.910995
-28.877802 -64.615341 32.615101
-27.806604 -59.768177 52.067539
-26.976286 -62.121475 51.094059
-26.101 -64.454834 49.716686
-27.282763 -65.26255 46.273514
-26.320345 -66.004326 47.342014
-25.065826 -66.659531 48.287601
-23.944139 -68.828072 46.601543
-28.538685 -66.236069 34.990338
-28.213621 -67.462387 34.378019
-28.277443 -67.146805 35.617621
-27.93609 -56.74597 54.811571
-27.452182 -57.065894 55.510326
-27.772073 -55.873162 55.925867
-28.277443 -67.146805 35.617621
-28.029795 -67.887764 36.285089
-28.354858 -66.661445 36.897408
-24.910803 -71.541546 41.315727
-24.890269 -70.833984 42.547996
-25.509954 -70.475323 42.051597
-25.011992 -72.237999 40.003969
-24.910803 -71.541546 41.315727
-30.310989 -50.704701 45.643944
-30.289934 -51.264572 46.414019
-30.346197 -52.095152 42.825451
-30.341757 -51.631449 43.741985
-30.323381 -53.177416 42.422855
-30.346197 -52.095152 42.825451
-27.010665 -70.040451 37.947792
-26.561629 -70.734303 38.474908
-27.001583 -69.529933 39.179236
-29.968411 -57.405348 34.809856
-29.815377 -58.686712 34.226146
-29.867611 -58.523159 35.389972
-29.108382 -63.405367 33.143656
-28.962105 -64.304989 33.795483
-29.192685 -63.095015 34.324038
-23.474716 -70.520436 44.618532
-23.537895 -71.411637 43.338526
-28.171374 -67.726422 33.139046
-28.213621 -67.462387 34.378019
-28.41661 -66.728215 32.470251
-28.171374 -67.726422 33.139046
-26.916692 -57.374939 56.088766
-26.334912 -57.665751 56.632032
-26.706385 -56.483897 57.167889
-27.743916 -68.595577 36.862587
-27.415621 -69.312416 37.406208
-27.778914 -68.119244 38.108498
-27.743916 -68.595577 36.862587
-28.029795 -67.887764 36.285089
-23.829476 -63.100546 53.41852
-24.372042 -62.030648 54.22575
-23.24821 -64.117161 52.677116
-23.829476 -63.100546 53.41852
-23.986047 -64.014437 52.339716
-22.594833 -65.062272 51.875031
-23.24821 -64.117161 52.677116
-22.753104 -66.071968 50.683183
-22.594833 -65.062272 51.875031
-22.867631 -67.061776 49.453401
-22.753104 -66.071968 50.683183
-23.519308 -66.020859 50.36853
-23.090951 -67.964237 48.269541
-22.867631 -67.061776 49.453401
-24.241917 -71.148118 43.002468
-24.841068 -70.081894 43.738338
-24.890269 -70.833984 42.547996
-23.537895 -71.411637 43.338526
-24.241917 -71.148118 43.002468
-30.231865 -55.00963 39.860248
-30.250011 -54.727859 40.930122
-30.229789 -51.910608 47.18684
-30.17119 -52.408071 47.981178
-30.203536 -51.157246 48.203045
-30.257587 -52.515398 46.192152
-30.229789 -51.910608 47.18684
-30.289934 -51.264572 46.414019
-30.335658 -51.155226 44.698756
-30.310989 -50.704701 45.643944
-30.328915 -49.990565 44.923369
-30.323831 -52.345585 44.462561
-30.335658 -51.155226 44.698756
-30.341757 -51.631449 43.741985
-30.267402 -54.360582 42.002811
-30.273951 -54.004975 43.085747
-30.323381 -53.177416 42.422855
-30.250011 -54.727859 40.930122
-30.200581 -55.555418 41.593014
-30.267402 -54.360582 42.002811
-25.871308 -58.746937 56.109644
-26.334912 -57.665751 56.632032
-25.39158 -59.931027 55.501421
-25.871308 -58.746937 56.109644
-26.065492 -59.740883 54.944687
-24.881269 -60.994223 54.853422
-25.39158 -59.931027 55.501421
-25.076538 -61.961398 53.708792
-24.372042 -62.030648 54.22575
-24.881269 -60.994223 54.853422
-26.086486 -71.311256 38.993149
-25.575456 -71.790806 39.549636
-26.041517 -70.703335 40.26284
-26.086486 -71.311256 38.993149
-26.561629 -70.734303 38.474908
-27.010665 -70.040451 37.947792
-27.415621 -69.312416 37.406208
-29.422121 -61.856606 34.909937
-29.192685 -63.095015 34.324038
-29.275844 -62.756227 35.561763
-29.52677 -60.999958 34.239237
-29.422121 -61.856606 34.909937
-29.609928 -60.66117 35.476963
-29.646185 -59.99967 33.625613
-29.52677 -60.999958 34.239237
-29.646185 -59.99967 33.625613
-29.815377 -58.686712 34.226146
-30.201541 -55.314255 38.698179
-30.152864 -56.22732 39.358255
-30.231865 -55.00963 39.860248
-30.174509 -55.555542 37.61332
-30.201541 -55.314255 38.698179
-30.123561 -55.910468 36.502067
-30.071593 -56.88687 37.084934
-30.174509 -55.555542 37.61332
-30.085612 -56.154885 35.463234
-30.123561 -55.910468 36.502067
-29.968411 -57.405348 34.809856
-30.085612 -56.154885 35.463234
-28.723505 -56.039282 53.368594
-28.348374 -56.440049 54.132395
-28.63111 -55.152472 54.46331
-28.61808 -65.760059 31.902434
-28.41661 -66.728215 32.470251
-28.676333 -65.583496 33.182918
-29.031687 -63.595667 31.93609
-29.108382 -63.405367 33.143656
-28.817032 -64.690849 31.364221
-29.031687 -63.595667 31.93609
-28.970917 -63.671175 30.68521
-28.61808 -65.760059 31.902434
-28.817032 -64.690849 31.364221
-28.028484 -57.63278 53.716854
-27.93609 -56.74597 54.811571
-28.348374 -56.440049 54.132395
-23.246103 -68.87294 47.000938
-23.090951 -67.964237 48.269541
-23.788987 -67.919369 47.870145
-23.350428 -69.736458 45.822899
-24.068427 -69.61205 45.397177
-23.474716 -70.520436 44.618532
-23.246103 -68.87294 47.000938
-23.350428 -69.736458 45.822899
-25.011992 -72.237999 40.003969
-25.575456 -71.790806 39.549636
-27.128061 -55.260207 57.654341
-26.706385 -56.483897 57.167889
-27.621785 -55.029224 56.981344
-27.128061 -55.260207 57.654341
-27.772073 -55.873162 55.925867
-27.621785 -55.029224 56.981344
-28.894635 -53.889826 54.800182
-28.63111 -55.152472 54.46331
-29.202186 -53.50062 53.942107
-28.894635 -53.889826 54.800182
-29.462373 -53.129862 53.134647
-29.266428 -54.380947 52.89205
-29.202186 -53.50062 53.942107
-29.661305 -52.711106 52.298741
-29.462373 -53.129862 53.134647
-29.853359 -52.158333 51.503838
-29.718669 -53.457416 51.289688
-29.661305 -52.711106 52.298741
-29.976458 -51.588442 50.752517
-29.853359 -52.158333 51.503838
-30.093564 -50.963474 50.003816
-30.02783 -52.279676 49.746084
-29.976458 -51.588442 50.752517
-30.158462 -50.433782 49.173744
-30.093564 -50.963474 50.003816
-30.203536 -51.157246 48.203045
-30.158462 -50.433782 49.173744
3 0 78 80
3 78 19 79
3 78 79 80
3 81 22 82
3 83 82 20
3 81 82 83
3 0 25 23
3 0 84 86
3 86 85 25
3 84 85 86
3 1 28 26
3 2 31 29
3 1 34 32
3 1 26 34
3 4 37 36
3 4 38 37
3 3 41 39
3 5 44 42
3 5 87 89
3 89 88 44
3 87 88 89
3 5 90 91
3 92 47 93
3 94 48 95
3 97 96 48
3 7 49 21
3 7 50 49
3 8 53 51
3 10 54 24
3 10 55 54
3 10 98 100
3 100 99 55
3 98 99 100
3 11 58 56
3 12 59 27
3 12 101 103
3 103 102 59
3 101 102 103
3 13 62 60
3 15 63 30
3 15 64 63
3 6 65 46
3 16 66 33
3 16 67 66
3 16 68 67
3 11 69 35
3 11 56 69
3 104 70 105
3 106 105 57
3 104 105 106
3 14 71 61
3 17 72 40
3 17 73 72
3 9 74 52
3 18 75 43
3 18 76 75
3 18 77 76
3 108 107 45
3 19 109 110
3 19 111 112
3 20 113 115
3 113 21 114
3 113 114 115
3 22 21 20
3 22 7 21
3 23 24 8
3 25 24 23
3 25 10 24
3 25 116 118
3 118 117 10
3 116 117 118
3 120 119 25
3 26 27 11
3 28 27 26
3 28 12 27
3 29 30 13
3 31 30 29
3 31 15 30
3 32 33 6
3 34 33 32
3 34 16 33
3 34 35 16
3 26 35 34
3 26 11 35
3 36 121 122
3 37 123 125
3 125 124 36
3 123 124 125
3 37 126 127
3 37 128 129
3 38 130 132
3 132 131 37
3 130 131 132
3 38 133 134
3 39 40 14
3 41 40 39
3 41 17 40
3 42 43 9
3 44 43 42
3 44 18 43
3 44 45 18
3 135 45 136
3 137 136 44
3 135 136 137
3 139 138 45
3 141 140 1
3 142 46 143
3 144 143 2
3 142 143 144
3 47 145 147
3 145 46 146
3 145 146 147
3 47 6 46
3 148 47 149
3 148 149 150
3 48 151 153
3 151 47 152
3 151 152 153
3 48 6 47
3 48 32 6
3 154 32 155
3 156 155 48
3 154 155 156
3 157 1 158
3 159 158 32
3 157 158 159
3 21 160 161
3 49 162 164
3 164 163 21
3 162 163 164
3 49 165 166
3 49 167 169
3 167 36 168
3 167 168 169
3 50 36 49
3 50 4 36
3 51 52 3
3 53 52 51
3 53 9 52
3 24 53 8
3 54 53 24
3 54 9 53
3 54 42 9
3 55 42 54
3 55 5 42
3 55 170 172
3 172 171 5
3 170 171 172
3 174 173 55
3 176 175 10
3 56 57 0
3 58 57 56
3 58 177 179
3 179 178 57
3 177 178 179
3 27 58 11
3 59 58 27
3 59 180 182
3 182 181 58
3 180 181 182
3 59 183 184
3 186 185 59
3 187 28 188
3 189 188 1
3 187 188 189
3 190 28 191
3 192 12 193
3 194 193 28
3 192 193 194
3 195 12 196
3 198 197 12
3 60 199 201
3 199 61 200
3 199 200 201
3 62 61 60
3 62 14 61
3 30 62 13
3 63 62 30
3 63 14 62
3 63 39 14
3 64 39 63
3 64 3 39
3 46 31 2
3 65 31 46
3 65 15 31
3 33 65 6
3 66 65 33
3 66 15 65
3 66 64 15
3 67 64 66
3 67 3 64
3 67 51 3
3 68 51 67
3 68 8 51
3 35 68 16
3 69 68 35
3 69 8 68
3 69 23 8
3 56 23 69
3 56 0 23
3 57 19 0
3 70 19 57
3 70 202 204
3 204 203 19
3 202 203 204
3 205 70 206
3 207 70 208
3 207 208 209
3 211 210 70
3 61 212 214
3 212 22 213
3 212 213 214
3 71 22 61
3 71 7 22
3 40 71 14
3 72 71 40
3 72 7 71
3 72 50 7
3 73 50 72
3 73 4 50
3 52 41 3
3 74 41 52
3 74 17 41
3 43 74 9
3 75 74 43
3 75 17 74
3 75 73 17
3 76 73 75
3 76 4 73
3 76 38 4
3 77 38 76
3 77 215 217
3 217 216 38
3 215 216 217
3 45 77 18
3 218 77 219
3 220 219 45
3 218 219 220
3 222 221 77
3 224 223 5
3 225 20 226
3 227 20 228
3 230 229 20
3 231 60 232
3 233 60 234
3 235 13 236
3 237 236 60
3 235 236 237
3 238 13 239
3 240 29 241
3 242 241 13
3 240 241 242
3 243 29 244
3 245 2 246
3 247 246 29
3 245 246 247
3 248 2 249
3 251 250 2
