ply
format ascii 1.0
element vertex 117
property float x
property float y
property float z
element face 98
property list uchar int vertex_index
end_header
-19.28055 -4.713273 -67.623161
-20.270281 -19.060766 -62.11871
-18.115826 -12.154461 -64.759903
-15.345226 -6.105977 -66.933212
-16.116163 0.972732 -69.633064
-20.850338 -7.740684 -66.453651
-20.129206 -11.440189 -65.091812
-18.814537 -8.283052 -66.303543
-16.879663 -8.884597 -65.9729
-17.268307 -5.378385 -67.369377
-16.474913 4.475962 -70.755508
-21.362452 -15.036819 -63.668415
-19.437899 -15.444736 -63.522804
-16.104992 -12.574626 -64.382065
-14.95495 -9.628344 -65.432465
-13.579924 -6.851366 -66.35582
-19.836895 -1.124864 -68.825241
-18.137667 1.63257 -69.828629
-17.813162 -1.834502 -68.678841
-15.910514 -2.5868 -68.347954
-14.004537 -3.368125 -67.847572
-21.784422 -13.109199 -64.373155
-22.396916 -14.722582 -63.695848
-17.705 -13.931673 -64.010465
-18.366036 -15.576811 -63.391916
-18.776863 -13.799599 -64.141353
-17.110409 -12.364543 -64.570984
-16.699583 -14.141756 -63.821546
-17.705 -13.931673 -64.010465
-19.99221 0.717667 -69.37381
-20.845088 -0.820814 -68.789299
-21.000402 1.021717 -69.337868
-13.254976 -2.164001 -68.196106
-14.112647 -1.723782 -68.488315
-13.156025 -3.818865 -67.511604
-13.254976 -2.164001 -68.196106
-20.733796 -20.82116 -61.423821
-21.802996 -20.612097 -61.464664
-21.339481 -18.851703 -62.159554
-20.489772 -9.590436 -65.772731
-21.167799 -11.310884 -65.084854
-21.528365 -9.461132 -65.765773
-15.557307 5.573645 -71.057766
-16.438801 6.146769 -71.20892
-15.521195 7.244453 -71.511177
-15.477763 3.864647 -70.534427
-15.557307 5.573645 -71.057766
-15.298388 2.113032 -69.973206
-16.295538 2.724347 -70.194286
-15.477763 3.864647 -70.534427
-15.16846 0.446646 -69.381062
-15.298388 2.113032 -69.973206
-19.734844 -21.004807 -61.343876
-19.319295 -19.125407 -62.052099
-21.885567 -16.83973 -62.934406
-22.396916 -14.722582 -63.695848
-20.816367 -17.048793 -62.893563
-21.339481 -18.851703 -62.159554
-21.885567 -16.83973 -62.934406
-20.745829 -13.238504 -64.380114
-21.784422 -13.109199 -64.373155
-21.167799 -11.310884 -65.084854
-18.903104 -17.317392 -62.754147
-19.319295 -19.125407 -62.052099
-19.85409 -17.252751 -62.820757
-18.903104 -17.317392 -62.754147
-18.366036 -15.576811 -63.391916
-15.729398 -14.46553 -63.545872
-16.699583 -14.141756 -63.821546
-15.214094 -12.884264 -64.10045
-14.8385 -14.775168 -63.264257
-15.729398 -14.46553 -63.545872
-14.639073 -11.411123 -64.62565
-15.214094 -12.884264 -64.10045
-15.529971 -11.101485 -64.907265
-14.081112 -9.942906 -65.131206
-14.639073 -11.411123 -64.62565
-13.3936 -8.554417 -65.592884
-14.081112 -9.942906 -65.131206
-14.267437 -8.239855 -65.894142
-12.752646 -7.239727 -66.00771
-13.3936 -8.554417 -65.592884
-21.855826 -7.505552 -66.42612
-21.528365 -9.461132 -65.765773
-21.161389 -5.912109 -67.063732
-21.855826 -7.505552 -66.42612
-20.376494 -4.398404 -67.648487
-20.065444 -6.226978 -67.038406
-21.161389 -5.912109 -67.063732
-20.654667 -2.6042 -68.249527
-20.845088 -0.820814 -68.789299
-19.558723 -2.919068 -68.224201
-20.376494 -4.398404 -67.648487
-20.654667 -2.6042 -68.249527
-17.415774 4.886165 -70.818474
-16.438801 6.146769 -71.20892
-18.247151 3.464469 -70.355034
-17.415774 4.886165 -70.818474
-17.30629 3.054266 -70.292068
-19.142595 2.096385 -69.875504
-18.247151 3.464469 -70.355034
-18.987281 0.253853 -69.326935
-19.99221 0.717667 -69.37381
-19.142595 2.096385 -69.875504
-15.065635 -1.33312 -68.738506
-16.013338 -0.807034 -68.990509
-15.16846 0.446646 -69.381062
-14.957525 -2.977463 -68.097763
-15.065635 -1.33312 -68.738506
-14.112647 -1.723782 -68.488315
-12.943719 -5.560486 -66.765728
-13.79223 -5.109745 -67.101696
-13.156025 -3.818865 -67.511604
-12.752646 -7.239727 -66.00771
-12.943719 -5.560486 -66.765728
-20.733796 -20.82116 -61.423821
-19.734844 -21.004807 -61.343876
3 0 7 5
3 0 9 7
3 21 11 22
3 2 12 6
3 2 23 25
3 25 24 12
3 23 24 25
3 2 26 28
3 26 13 27
3 26 27 28
3 3 14 8
3 3 15 14
3 29 16 30
3 29 30 31
3 4 17 10
3 4 18 17
3 4 19 18
3 32 20 33
3 35 34 20
3 1 36 38
3 36 37 38
3 5 39 41
3 39 6 40
3 39 40 41
3 7 6 5
3 7 2 6
3 7 8 2
3 9 8 7
3 9 3 8
3 42 10 43
3 42 43 44
3 45 10 46
3 47 4 48
3 49 48 10
3 47 48 49
3 51 50 4
3 53 52 1
3 11 54 55
3 11 56 58
3 56 1 57
3 56 57 58
3 6 59 61
3 59 11 60
3 59 60 61
3 12 11 6
3 12 1 11
3 12 62 64
3 64 63 1
3 62 63 64
3 66 65 12
3 13 67 68
3 13 69 71
3 69 70 71
3 8 13 2
3 14 13 8
3 14 72 74
3 74 73 13
3 72 73 74
3 14 75 76
3 15 77 79
3 79 78 14
3 77 78 79
3 15 80 81
3 82 5 83
3 84 5 85
3 86 0 87
3 88 87 5
3 86 87 88
3 16 89 90
3 16 91 93
3 91 0 92
3 91 92 93
3 10 94 95
3 17 96 98
3 98 97 10
3 96 97 98
3 17 99 100
3 17 101 103
3 101 16 102
3 101 102 103
3 18 16 17
3 18 0 16
3 18 9 0
3 19 9 18
3 19 3 9
3 104 19 105
3 106 105 4
3 104 105 106
3 20 107 109
3 107 19 108
3 107 108 109
3 20 3 19
3 20 15 3
3 110 15 111
3 112 111 20
3 110 111 112
3 114 113 15
3 116 115 1
