ply
format ascii 1.0
element vertex 334
property float x
property float y
property float z
element face 325
property list uchar int vertex_index
end_header
28.26264 27.20348 -59.803776
15.157025 36.98386 -52.012749
21.461481 32.598507 -57.033588
20.39777 31.158201 -45.793301
27.139935 26.753401 -49.446556
33.257011 20.920465 -50.398163
24.819929 30.307535 -58.82198
21.27195 32.068111 -62.404282
20.485817 25.994606 -37.014313
19.068977 30.151377 -40.286522
23.535549 29.11179 -47.937122
12.026461 38.521164 -54.48978
32.081856 20.481802 -45.632496
18.174948 34.692867 -54.702488
14.703304 36.343483 -57.331875
17.871748 34.290966 -60.122261
17.862413 34.577801 -49.20908
21.105536 32.249378 -51.638092
24.444733 30.107424 -53.467571
28.016815 27.499903 -54.807323
30.309902 24.260178 -50.319519
31.108263 24.364326 -55.254452
35.771782 16.751451 -50.117832
26.644581 28.814739 -59.327736
24.930401 29.908401 -61.259338
21.522276 26.53911 -39.544903
13.622409 37.866772 -53.434055
19.77137 33.657955 -55.924847
17.993196 34.640892 -57.482471
19.690882 33.605919 -58.493752
19.264261 32.647991 -63.756256
19.673874 30.770187 -43.016453
18.255657 32.183098 -42.130978
18.746679 32.601986 -44.820572
17.642385 34.316444 -46.448692
19.180346 32.95718 -47.511467
19.520361 33.279083 -50.283253
20.826921 31.768414 -48.764004
25.335667 27.941116 -48.726913
24.018782 29.699642 -50.655056
25.779295 28.540768 -51.40139
26.261774 28.852722 -54.177841
27.499695 27.381243 -52.20269
32.711151 20.826969 -47.965885
31.26717 22.414845 -47.969303
31.887993 22.646435 -50.486523
30.810888 24.408564 -52.798141
32.320835 22.635763 -52.855694
23.022448 31.584591 -58.010227
21.33886 32.537861 -59.713516
23.084446 31.337952 -60.619652
19.873419 28.010212 -38.629059
20.641115 28.693207 -41.273342
21.372601 29.350899 -44.002613
21.952753 30.107162 -46.956348
23.091494 28.267294 -45.222
10.400208 38.988537 -55.246399
32.679634 18.43145 -43.070904
33.485889 18.743303 -45.362541
34.104614 18.980986 -47.839012
16.555622 35.835896 -53.410309
15.036654 36.725086 -54.594097
16.494011 35.626175 -56.203762
16.235331 35.303505 -58.841282
19.550989 33.254902 -61.233509
17.565735 33.771809 -62.558285
16.396404 35.895073 -47.85957
16.595188 35.844021 -50.612274
18.050156 34.703033 -52.04068
19.604113 33.615543 -53.083702
21.304331 32.533337 -54.34753
22.440695 30.727903 -49.877087
22.71752 31.211882 -52.552174
23.000557 31.443354 -55.191277
24.69289 30.338682 -56.196888
26.424349 29.062464 -56.939674
28.154449 27.557304 -57.399586
13.423029 37.323723 -55.943264
11.635878 37.799961 -56.795284
30.59458 21.821684 -45.383121
29.767454 23.754198 -47.734127
28.678703 25.59798 -49.838909
29.119646 26.027224 -52.463493
29.58095 26.042662 -55.046715
29.719604 25.937794 -57.551781
34.608498 18.852898 -50.088833
36.196705 15.873116 -51.98444
34.984837 18.440208 -52.485786
33.71003 20.643906 -52.675484
32.585804 22.397745 -55.141075
31.236412 24.066765 -57.584816
27.426811 27.792603 -60.749571
26.617781 28.598232 -60.511551
27.45361 28.00911 -59.565756
28.31568 26.809137 -60.891594
27.426811 27.792603 -60.749571
14.389717 37.425316 -52.723402
13.748326 38.050506 -52.079517
14.515634 37.60905 -51.368864
24.009622 30.341477 -62.130825
24.885831 29.571416 -62.445492
20.179618 27.002409 -37.821686
19.417322 27.666622 -37.224779
19.723522 26.658819 -36.417406
21.497491 28.036335 -41.779197
21.081696 27.616159 -40.409122
21.938071 26.959287 -40.914978
21.863234 28.365181 -43.143833
21.006858 29.022053 -42.637977
21.497491 28.036335 -41.779197
22.722681 27.823379 -43.753526
22.232048 28.809096 -44.612307
21.863234 28.365181 -43.143833
11.405504 39.218237 -53.687055
12.168671 38.858719 -53.239481
11.213334 38.754851 -54.868089
10.592377 39.451923 -54.065365
11.405504 39.218237 -53.687055
32.933241 17.394396 -41.873381
32.203383 18.08551 -41.791626
34.147738 17.847783 -45.356832
33.756902 17.752209 -44.139486
34.4571 17.966625 -46.595068
33.795251 18.862144 -46.600776
34.147738 17.847783 -45.356832
16.913075 34.544663 -60.650421
16.094866 35.050932 -60.009932
17.053539 34.797235 -59.481772
17.438783 33.361841 -63.688288
18.414998 33.2099 -63.15727
18.288047 32.799932 -64.287273
16.635773 33.866518 -63.081707
17.438783 33.361841 -63.688288
18.37088 30.958143 -39.838847
18.752209 29.827629 -38.974882
17.583548 32.929161 -41.520859
17.771606 33.116764 -42.896838
11.425487 37.342726 -57.953874
12.283707 37.262432 -57.604132
10.74946 37.893301 -57.145513
11.425487 37.342726 -57.953874
31.338218 21.151743 -45.507809
30.934621 20.775718 -44.132116
31.678259 20.105777 -44.256804
35.590688 16.842329 -48.95644
36.149313 15.710922 -48.766916
35.19014 17.802174 -50.103333
35.009046 17.893052 -48.941941
35.590688 16.842329 -48.95644
36.293829 15.412166 -52.978517
36.688675 14.560711 -51.795683
36.785799 14.09976 -52.78976
34.524353 19.229864 -53.684477
35.141775 17.996393 -53.555646
33.88695 20.331713 -53.779325
34.347434 19.542057 -52.580635
34.524353 19.229864 -53.684477
33.324837 21.208633 -55.012121
33.147917 21.520826 -53.908279
33.88695 20.331713 -53.779325
31.38436 23.576229 -58.592048
32.03667 22.890713 -57.42689
30.586806 24.676858 -58.678866
31.38436 23.576229 -58.592048
25.760692 29.145063 -61.477352
25.787491 29.36157 -60.293537
26.617781 28.598232 -60.511551
24.885831 29.571416 -62.445492
25.760692 29.145063 -61.477352
21.825097 25.508268 -38.627342
21.004047 26.266858 -38.279608
21.306868 25.236016 -37.362048
22.341112 25.934624 -39.972471
21.825097 25.508268 -38.627342
21.938071 26.959287 -40.914978
22.341112 25.934624 -39.972471
12.966645 38.531523 -52.711619
13.748326 38.050506 -52.079517
12.824435 38.193968 -53.961917
12.168671 38.858719 -53.239481
12.966645 38.531523 -52.711619
20.166668 32.016042 -64.204197
20.268106 32.358051 -63.080269
21.170513 31.726101 -63.52821
19.084862 32.233771 -64.815799
20.166668 32.016042 -64.204197
18.288047 32.799932 -64.287273
19.084862 32.233771 -64.815799
18.017117 33.326208 -44.241635
17.771606 33.116764 -42.896838
18.501168 32.392542 -43.475775
18.194532 33.459215 -45.634632
17.46497 34.183437 -45.055695
18.017117 33.326208 -44.241635
13.817419 36.534193 -57.872427
14.53886 36.054749 -58.57175
36.339657 15.43693 -49.828856
36.149313 15.710922 -48.766916
23.086645 31.056252 -61.810982
24.007424 30.623176 -60.939495
24.009622 30.341477 -62.130825
22.180397 31.421332 -62.703297
22.178198 31.703032 -61.511967
23.086645 31.056252 -61.810982
21.170513 31.726101 -63.52821
22.180397 31.421332 -62.703297
19.15443 28.757047 -38.14615
19.417322 27.666622 -37.224779
19.471198 29.080794 -39.457791
18.752209 29.827629 -38.974882
19.15443 28.757047 -38.14615
23.530642 27.273927 -44.166647
22.722681 27.823379 -43.753526
23.905036 27.741662 -45.622292
23.530642 27.273927 -44.166647
24.127063 28.16391 -46.979852
23.313522 28.689542 -46.579561
23.905036 27.741662 -45.622292
25.027123 27.578573 -47.374748
24.435608 28.526453 -48.332018
24.127063 28.16391 -46.979852
25.866093 27.030271 -47.691759
25.027123 27.578573 -47.374748
26.768227 26.436413 -48.051581
26.237801 27.347259 -49.086735
25.866093 27.030271 -47.691759
9.805492 39.63097 -54.575575
10.592377 39.451923 -54.065365
9.560871 39.07671 -55.613729
9.805492 39.63097 -54.575575
31.977148 19.080601 -42.976007
32.203383 18.08551 -41.791626
32.380745 19.456626 -44.3517
31.678259 20.105777 -44.256804
31.977148 19.080601 -42.976007
33.353775 17.596283 -42.993668
32.933241 17.394396 -41.873381
33.082762 18.587377 -44.216723
33.353775 17.596283 -42.993668
33.756902 17.752209 -44.139486
20.045421 25.511898 -35.652209
19.723522 26.658819 -36.417406
20.783073 24.808104 -36.055382
20.045421 25.511898 -35.652209
21.306868 25.236016 -37.362048
20.783073 24.808104 -36.055382
15.304873 35.534759 -59.326454
14.53886 36.054749 -58.57175
15.469317 35.823494 -58.086579
15.304873 35.534759 -59.326454
16.094866 35.050932 -60.009932
16.760068 34.285084 -61.868433
16.913075 34.544663 -60.650421
17.718742 34.031387 -61.340273
16.760068 34.285084 -61.868433
16.635773 33.866518 -63.081707
15.194365 37.054533 -50.678442
14.515634 37.60905 -51.368864
17.96422 31.974003 -40.761074
18.37088 30.958143 -39.838847
18.662317 31.167237 -41.20875
17.96422 31.974003 -40.761074
17.583548 32.929161 -41.520859
16.977845 34.997249 -45.831592
17.46497 34.183437 -45.055695
16.354855 35.786564 -46.537031
16.977845 34.997249 -45.831592
17.019395 35.105758 -47.154131
15.716573 36.645071 -47.226597
16.354855 35.786564 -46.537031
15.814055 36.510139 -48.601852
15.716573 36.645071 -47.226597
15.913447 36.484613 -49.978205
15.814055 36.510139 -48.601852
16.495796 35.869547 -49.235922
15.876107 36.41394 -51.312511
15.194365 37.054533 -50.678442
15.913447 36.484613 -49.978205
13.177282 37.024313 -57.178122
14.063166 36.833603 -56.637569
13.817419 36.534193 -57.872427
12.529453 37.561842 -56.369274
13.177282 37.024313 -57.178122
12.283707 37.262432 -57.604132
10.131625 38.487589 -56.371071
11.018043 38.394249 -56.020842
10.74946 37.893301 -57.145513
9.560871 39.07671 -55.613729
10.131625 38.487589 -56.371071
27.608518 25.838819 -48.263193
26.768227 26.436413 -48.051581
30.137871 21.417783 -44.008194
30.934621 20.775718 -44.132116
29.793131 22.430452 -45.18712
30.137871 21.417783 -44.008194
29.379568 23.396708 -46.362623
29.793131 22.430452 -45.18712
30.181017 22.787941 -46.558624
28.922277 24.339217 -47.406979
29.379568 23.396708 -46.362623
28.377902 25.261108 -48.45937
28.922277 24.339217 -47.406979
29.223078 24.676089 -48.786518
27.909319 26.175691 -49.642733
27.608518 25.838819 -48.263193
28.377902 25.261108 -48.45937
34.757104 17.957096 -47.81703
34.4571 17.966625 -46.595068
34.356556 18.916942 -48.963922
34.757104 17.957096 -47.81703
35.009046 17.893052 -48.941941
36.552119 14.997763 -50.762159
36.688675 14.560711 -51.795683
35.984244 16.312283 -51.051136
36.339657 15.43693 -49.828856
36.552119 14.997763 -50.762159
35.747709 16.712847 -53.304974
36.293829 15.412166 -52.978517
35.590771 17.156662 -52.235113
35.747709 16.712847 -53.304974
35.141775 17.996393 -53.555646
32.711366 22.056203 -56.205019
33.324837 21.208633 -55.012121
31.911108 23.232255 -56.362945
32.711366 22.056203 -56.205019
32.03667 22.890713 -57.42689
29.828401 25.612372 -58.662348
30.478008 25.00228 -57.568298
30.586806 24.676858 -58.678866
29.099919 26.245216 -59.788345
28.991122 26.570637 -58.677779
29.828401 25.612372 -58.662348
28.31568 26.809137 -60.891594
29.099919 26.245216 -59.788345
3 0 91 93
3 93 92 23
3 91 92 93
3 0 94 95
3 1 96 98
3 96 26 97
3 96 97 98
3 2 29 27
3 3 33 31
3 3 35 33
3 3 37 35
3 4 40 38
3 4 42 40
3 5 45 43
3 5 47 45
3 6 50 48
3 100 99 24
3 8 101 103
3 101 51 102
3 101 102 103
3 104 52 105
3 106 105 25
3 104 105 106
3 107 53 108
3 109 108 52
3 107 108 109
3 110 55 111
3 112 111 53
3 110 111 112
3 11 113 114
3 11 115 117
3 115 56 116
3 115 116 117
3 118 57 119
3 120 58 121
3 122 59 123
3 124 123 58
3 122 123 124
3 13 62 60
3 15 63 28
3 15 125 127
3 127 126 63
3 125 126 127
3 7 64 49
3 128 65 129
3 130 129 30
3 128 129 130
3 132 131 65
3 9 133 134
3 136 135 32
3 16 66 34
3 16 67 66
3 16 68 67
3 17 69 36
3 17 70 69
3 10 71 54
3 18 72 39
3 18 73 72
3 18 74 73
3 19 75 41
3 19 76 75
3 14 77 61
3 137 78 138
3 140 139 78
3 12 141 143
3 141 79 142
3 141 142 143
3 20 80 44
3 20 81 80
3 20 82 81
3 21 83 46
3 21 84 83
3 22 144 145
3 22 146 148
3 146 85 147
3 146 147 148
3 149 86 150
3 149 150 151
3 152 87 153
3 154 88 155
3 156 155 87
3 154 155 156
3 157 89 158
3 159 158 88
3 157 158 159
3 160 90 161
3 163 162 90
3 23 24 6
3 164 24 165
3 166 165 23
3 164 165 166
3 168 167 24
3 169 25 170
3 171 170 8
3 169 170 171
3 172 25 173
3 175 174 25
3 26 176 177
3 26 178 180
3 178 11 179
3 178 179 180
3 27 28 13
3 29 28 27
3 29 15 28
3 181 30 182
3 183 182 7
3 181 182 183
3 184 30 185
3 187 186 30
3 31 32 9
3 33 32 31
3 33 188 190
3 190 189 32
3 188 189 190
3 33 191 193
3 191 34 192
3 191 192 193
3 35 34 33
3 35 16 34
3 35 36 16
3 37 36 35
3 37 17 36
3 38 39 10
3 40 39 38
3 40 18 39
3 40 41 18
3 42 41 40
3 42 19 41
3 195 194 14
3 43 44 12
3 45 44 43
3 45 20 44
3 45 46 20
3 47 46 45
3 47 21 46
3 196 22 197
3 48 49 2
3 50 49 48
3 50 7 49
3 24 50 6
3 198 50 199
3 200 199 24
3 198 199 200
3 201 7 202
3 203 202 50
3 201 202 203
3 205 204 7
3 51 206 207
3 51 208 210
3 208 9 209
3 208 209 210
3 25 51 8
3 52 51 25
3 52 9 51
3 52 31 9
3 53 31 52
3 53 3 31
3 53 54 3
3 55 54 53
3 55 10 54
3 211 55 212
3 213 55 214
3 215 10 216
3 217 216 55
3 215 216 217
3 218 38 219
3 220 219 10
3 218 219 220
3 221 38 222
3 223 4 224
3 225 224 38
3 223 224 225
3 56 226 227
3 56 228 229
3 57 230 231
3 57 232 234
3 232 12 233
3 232 233 234
3 235 57 236
3 58 237 239
3 237 57 238
3 237 238 239
3 58 12 57
3 58 43 12
3 59 43 58
3 59 5 43
3 240 8 241
3 242 8 243
3 245 244 8
3 60 61 1
3 62 61 60
3 62 14 61
3 28 62 13
3 63 62 28
3 63 14 62
3 63 246 248
3 248 247 14
3 246 247 248
3 250 249 63
3 49 29 2
3 64 29 49
3 64 15 29
3 30 64 7
3 65 64 30
3 65 15 64
3 65 251 253
3 253 252 15
3 251 252 253
3 255 254 65
3 256 1 257
3 32 258 260
3 260 259 9
3 258 259 260
3 262 261 32
3 34 263 264
3 66 265 267
3 267 266 34
3 265 266 267
3 66 268 269
3 66 270 271
3 67 272 274
3 274 273 66
3 272 273 274
3 67 275 277
3 275 1 276
3 275 276 277
3 67 60 1
3 68 60 67
3 68 13 60
3 36 68 16
3 69 68 36
3 69 13 68
3 69 27 13
3 70 27 69
3 70 2 27
3 54 37 3
3 71 37 54
3 71 17 37
3 39 71 10
3 72 71 39
3 72 17 71
3 72 70 17
3 73 70 72
3 73 2 70
3 73 48 2
3 74 48 73
3 74 6 48
3 41 74 18
3 75 74 41
3 75 6 74
3 75 23 6
3 76 23 75
3 76 0 23
3 61 26 1
3 77 26 61
3 77 11 26
3 278 77 279
3 280 279 14
3 278 279 280
3 78 281 283
3 281 77 282
3 281 282 283
3 78 11 77
3 78 56 11
3 284 56 285
3 286 285 78
3 284 285 286
3 288 287 56
3 289 4 290
3 79 291 292
3 79 293 294
3 44 79 12
3 80 79 44
3 80 295 297
3 297 296 79
3 295 296 297
3 80 298 299
3 81 300 302
3 302 301 80
3 300 301 302
3 81 303 305
3 303 4 304
3 303 304 305
3 81 42 4
3 82 42 81
3 82 19 42
3 46 82 20
3 83 82 46
3 83 19 82
3 83 76 19
3 84 76 83
3 84 0 76
3 306 59 307
3 85 308 310
3 308 59 309
3 308 309 310
3 85 5 59
3 86 311 312
3 86 313 315
3 313 22 314
3 313 314 315
3 316 86 317
3 87 318 320
3 318 86 319
3 318 319 320
3 87 22 86
3 87 85 22
3 88 85 87
3 88 5 85
3 88 47 5
3 89 47 88
3 89 21 47
3 321 89 322
3 90 323 325
3 323 89 324
3 323 324 325
3 90 21 89
3 90 84 21
3 326 84 327
3 328 327 90
3 326 327 328
3 329 0 330
3 331 330 84
3 329 330 331
3 333 332 0
