ply
format ascii 1.0
element vertex 228
property float x
property float y
property float z
element face 224
property list uchar int vertex_index
end_header
16.432404 -64.17524 54.93803
20.49147 -68.245033 49.833622
20.732758 -60.03981 58.181152
14.69006 -56.870785 60.655956
10.890731 -62.018345 53.351788
18.26668 -66.259018 52.76046
18.413855 -62.53651 56.683956
20.879425 -64.223534 54.285172
11.325616 -55.194225 60.070999
23.130701 -56.867283 58.88142
23.352598 -61.472198 54.973217
15.808282 -61.018963 57.704586
13.999671 -63.363956 54.51091
12.607941 -59.595135 57.257446
9.450603 -57.788517 56.233891
20.245985 -55.642456 61.58358
17.933725 -58.641098 59.942913
17.264593 -65.134422 54.037521
16.047138 -65.34108 53.452461
17.324144 -63.55529 55.722572
18.419367 -64.451363 54.798214
21.966784 -58.542141 58.626263
23.217649 -59.22274 57.023659
22.072147 -60.767433 56.760094
20.724804 -66.310394 52.079693
15.191581 -59.05788 59.138313
14.2494 -60.401413 57.55938
13.651821 -58.328087 59.024517
9.61756 -54.240788 59.47921
10.261029 -56.52042 58.141308
8.594851 -55.561333 57.419716
21.452549 -53.981216 62.059902
19.907444 -53.36729 63.115276
15.891892 -55.509354 61.975769
17.487728 -56.498398 61.49004
16.266991 -57.788757 60.432243
16.794348 -59.87973 58.900528
12.518379 -62.868801 53.909702
13.263254 -64.692093 52.444378
11.656575 -64.066681 51.764019
19.390842 -67.320381 51.327785
19.560932 -61.464592 57.424484
20.854696 -62.185196 56.274212
19.637228 -63.53833 55.484417
19.628933 -65.452568 53.474083
13.075321 -56.085518 60.495441
24.319942 -59.612141 55.377415
22.10701 -62.89838 54.802792
16.115211 -62.805408 56.189976
15.380139 -63.893032 54.7812
14.845807 -62.223171 56.192638
13.309369 -61.588451 55.857857
11.784833 -60.859032 55.394093
12.01999 -57.417652 58.75827
11.031136 -58.772213 56.772446
10.07387 -59.977947 54.697021
21.808355 -56.215614 60.403908
20.62011 -57.74712 59.989334
19.060244 -57.195728 60.870457
19.409729 -59.276123 59.261234
18.171904 -60.679729 58.321301
17.11524 -61.874371 57.26236
14.734464 -65.157585 52.960621
20.292476 -69.210262 48.641908
20.796411 -69.724742 47.735184
20.995404 -68.759513 48.926897
21.173381 -67.711044 50.111269
21.290048 -66.743724 51.234305
20.608137 -67.277714 50.956657
20.995404 -68.759513 48.926897
21.173381 -67.711044 50.111269
8.26556 -54.34522 58.115576
9.106205 -54.90106 58.449463
8.776915 -53.684948 59.145323
7.8221 -55.096255 57.009947
8.26556 -54.34522 58.115576
19.708945 -52.0988 63.889273
20.475613 -52.498783 63.384208
18.141025 -67.080436 51.71473
18.703106 -67.611118 50.998392
18.828761 -66.789699 52.044123
23.706815 -57.085123 58.057468
24.145543 -56.131532 58.223385
23.569429 -55.913692 59.047337
23.842826 -61.774974 54.074276
24.326498 -60.844946 54.276375
23.83627 -60.542169 55.175316
8.967242 -58.471412 55.044705
9.278875 -59.566128 54.276269
9.762237 -58.883232 55.465456
13.696343 -65.638302 51.599007
12.926135 -65.35801 51.329251
17.101567 -65.878761 53.09575
17.60261 -66.441059 52.45722
17.765636 -65.69672 53.39899
16.492839 -65.98209 52.80322
17.101567 -65.878761 53.09575
16.655866 -65.237751 53.744991
15.807672 -66.01804 52.487686
16.492839 -65.98209 52.80322
21.35348 -65.69722 52.374502
21.430791 -64.65379 53.477242
20.802115 -65.266964 53.182433
21.35348 -65.69722 52.374502
21.290048 -66.743724 51.234305
8.164248 -56.262047 56.311062
8.592123 -57.375639 55.718149
9.022727 -56.674925 56.826803
8.164248 -56.262047 56.311062
7.8221 -55.096255 57.009947
21.248165 -52.805746 62.856521
21.98603 -53.103046 62.215361
21.781645 -51.927576 63.01198
20.679997 -53.674253 62.587589
21.248165 -52.805746 62.856521
20.475613 -52.498783 63.384208
16.68981 -56.003876 61.732905
17.284973 -55.333912 62.24441
16.487055 -54.83939 62.487274
12.122796 -65.045304 50.989071
12.926135 -65.35801 51.329251
12.459915 -64.379387 52.104198
19.168704 -68.186313 50.236883
19.719018 -68.64864 49.489801
19.941156 -67.782707 50.580703
19.168704 -68.186313 50.236883
18.703106 -67.611118 50.998392
18.141025 -67.080436 51.71473
17.60261 -66.441059 52.45722
13.592948 -55.31123 61.296322
13.882691 -56.478151 60.575699
14.400317 -55.703863 61.376579
12.740716 -54.922324 61.155682
13.592948 -55.31123 61.296322
11.865863 -54.476677 60.943461
12.200468 -55.639871 60.28322
12.740716 -54.922324 61.155682
11.002826 -54.037661 60.703937
11.865863 -54.476677 60.943461
10.148798 -53.560942 60.408043
10.471588 -54.717506 59.775104
11.002826 -54.037661 60.703937
9.305438 -53.071377 60.097347
10.148798 -53.560942 60.408043
8.464793 -52.515537 59.763461
8.776915 -53.684948 59.145323
9.305438 -53.071377 60.097347
15.645167 -54.387324 62.645595
16.487055 -54.83939 62.487274
15.001234 -55.023148 62.036485
15.645167 -54.387324 62.645595
14.400317 -55.703863 61.376579
15.290976 -56.190069 61.315863
15.001234 -55.023148 62.036485
10.50842 -62.74914 52.120167
10.092098 -61.719009 52.845592
20.292476 -69.210262 48.641908
19.719018 -68.64864 49.489801
23.750288 -58.262851 57.128588
23.706815 -57.085123 58.057468
23.174175 -58.045012 57.95254
24.301435 -58.457552 56.305466
23.750288 -58.262851 57.128588
23.768796 -59.41744 56.200537
24.79301 -58.622363 55.408161
24.301435 -58.457552 56.305466
24.804994 -59.848229 54.387247
24.79301 -58.622363 55.408161
24.804994 -59.848229 54.387247
24.326498 -60.844946 54.276375
22.044584 -63.991213 53.736052
21.493218 -63.560957 54.543982
21.430791 -64.65379 53.477242
22.659873 -63.312567 53.88335
22.044584 -63.991213 53.736052
23.282667 -62.599475 53.968563
22.729804 -62.185289 54.888004
22.659873 -63.312567 53.88335
23.842826 -61.774974 54.074276
23.282667 -62.599475 53.968563
9.683667 -60.698811 53.518209
10.092098 -61.719009 52.845592
10.482301 -60.998146 54.024405
9.683667 -60.698811 53.518209
9.278875 -59.566128 54.276269
8.967242 -58.471412 55.044705
8.592123 -57.375639 55.718149
22.979892 -55.716193 59.792255
23.569429 -55.913692 59.047337
22.140816 -54.273159 61.381496
21.98603 -53.103046 62.215361
22.318718 -55.390358 60.5535
22.140816 -54.273159 61.381496
21.630452 -55.098415 61.231905
22.469528 -56.541449 59.642664
22.979892 -55.716193 59.792255
22.318718 -55.390358 60.5535
19.095519 -53.009115 63.494913
19.708945 -52.0988 63.889273
19.275384 -54.16762 62.771377
19.095519 -53.009115 63.494913
19.444654 -55.305203 62.005529
20.076715 -54.504873 62.349428
19.275384 -54.16762 62.771377
18.065526 -55.733173 61.958759
17.284973 -55.333912 62.24441
18.851784 -56.081839 61.648968
18.065526 -55.733173 61.958759
18.273986 -56.847063 61.180249
19.653115 -56.419092 61.227018
19.444654 -55.305203 62.005529
18.851784 -56.081839 61.648968
15.151335 -65.926292 52.241766
15.807672 -66.01804 52.487686
15.390801 -65.249333 53.206541
14.431948 -65.871048 51.857128
13.998859 -64.924839 52.7025
13.696343 -65.638302 51.599007
15.151335 -65.926292 52.241766
14.431948 -65.871048 51.857128
10.891343 -63.773308 51.326282
11.273653 -63.042513 52.557903
10.50842 -62.74914 52.120167
11.33829 -64.751637 50.600614
10.891343 -63.773308 51.326282
11.80451 -65.730259 49.825666
12.122796 -65.045304 50.989071
11.33829 -64.751637 50.600614
3 0 18 17
3 0 17 19
3 1 63 65
3 63 64 65
3 2 23 21
3 1 66 68
3 68 67 24
3 66 67 68
3 1 69 70
3 3 27 25
3 71 30 72
3 73 72 28
3 71 72 73
3 75 74 30
3 76 32 77
3 3 35 33
3 3 25 35
3 4 39 37
3 5 78 80
3 80 79 40
3 78 79 80
3 6 43 41
3 5 44 20
3 5 40 44
3 9 81 83
3 81 82 83
3 10 46 22
3 10 84 86
3 86 85 46
3 84 85 86
3 7 47 42
3 11 50 48
3 13 51 26
3 13 52 51
3 8 53 45
3 14 54 29
3 14 55 54
3 14 87 89
3 89 88 55
3 87 88 89
3 15 56 31
3 15 57 56
3 16 58 34
3 16 59 58
3 16 60 59
3 11 61 36
3 11 48 61
3 12 62 49
3 91 90 38
3 17 92 94
3 94 93 5
3 92 93 94
3 18 95 97
3 97 96 17
3 95 96 97
3 18 98 99
3 19 20 6
3 17 20 19
3 17 5 20
3 21 22 9
3 23 22 21
3 23 10 22
3 24 100 102
3 102 101 7
3 100 101 102
3 104 103 24
3 25 26 11
3 27 26 25
3 27 13 26
3 28 29 8
3 30 29 28
3 30 14 29
3 30 105 107
3 107 106 14
3 105 106 107
3 109 108 30
3 110 31 111
3 110 111 112
3 32 113 115
3 113 31 114
3 113 114 115
3 32 15 31
3 33 116 118
3 116 34 117
3 116 117 118
3 35 34 33
3 35 16 34
3 35 36 16
3 25 36 35
3 25 11 36
3 37 38 12
3 39 38 37
3 39 119 121
3 121 120 38
3 119 120 121
3 40 122 124
3 124 123 1
3 122 123 124
3 126 125 40
3 128 127 5
3 41 42 2
3 43 42 41
3 43 7 42
3 20 43 6
3 44 43 20
3 44 7 43
3 44 24 7
3 40 24 44
3 40 1 24
3 129 45 130
3 131 130 3
3 129 130 131
3 132 45 133
3 134 8 135
3 136 135 45
3 134 135 136
3 137 8 138
3 139 28 140
3 141 140 8
3 139 140 141
3 142 28 143
3 146 145 28
3 144 145 146
3 147 33 148
3 149 33 150
3 151 3 152
3 153 152 33
3 151 152 153
3 155 154 4
3 157 156 1
3 22 158 160
3 160 159 9
3 158 159 160
3 46 161 163
3 163 162 22
3 161 162 163
3 46 164 165
3 46 166 167
3 169 168 46
3 42 23 2
3 47 23 42
3 47 10 23
3 170 47 171
3 172 171 7
3 170 171 172
3 173 47 174
3 175 10 176
3 177 176 47
3 175 176 177
3 179 178 10
3 48 49 0
3 50 49 48
3 50 12 49
3 26 50 11
3 51 50 26
3 51 12 50
3 51 37 12
3 52 37 51
3 52 4 37
3 45 27 3
3 53 27 45
3 53 13 27
3 29 53 8
3 54 53 29
3 54 13 53
3 54 52 13
3 55 52 54
3 55 4 52
3 55 180 182
3 182 181 4
3 180 181 182
3 184 183 55
3 186 185 14
3 187 9 188
3 31 189 190
3 56 191 193
3 193 192 31
3 191 192 193
3 56 194 196
3 194 9 195
3 194 195 196
3 56 21 9
3 57 21 56
3 57 2 21
3 197 32 198
3 199 32 200
3 201 15 202
3 203 202 32
3 201 202 203
3 34 204 205
3 58 206 208
3 208 207 34
3 206 207 208
3 58 209 211
3 209 15 210
3 209 210 211
3 58 57 15
3 59 57 58
3 59 2 57
3 59 41 2
3 60 41 59
3 60 6 41
3 36 60 16
3 61 60 36
3 61 6 60
3 61 19 6
3 48 19 61
3 48 0 19
3 49 18 0
3 62 18 49
3 62 212 214
3 214 213 18
3 212 213 214
3 38 62 12
3 215 62 216
3 217 216 38
3 215 216 217
3 219 218 62
3 220 39 221
3 222 221 4
3 220 221 222
3 223 39 224
3 227 226 39
3 225 226 227
