ply
format ascii 1.0
element vertex 220
property float x
property float y
property float z
element face 215
property list uchar int vertex_index
end_header
32.001419 89.708946 -25.27212
27.416862 97.488976 -32.336323
31.607412 83.952881 -37.061638
24.796816 102.409302 -28.771519
27.942472 99.50061 -25.699099
30.144854 93.805298 -29.081833
33.679958 79.489433 -33.351173
33.143242 75.788567 -38.430576
20.844637 103.924156 -31.065535
24.046295 99.690994 -34.920139
26.770506 94.077255 -37.928608
28.89535 87.369049 -40.32159
29.635279 91.400017 -35.05159
31.947773 87.476837 -31.479958
30.816219 79.340439 -41.743805
34.364853 75.477341 -34.20475
21.530464 104.929199 -28.01405
26.138294 100.158447 -30.621529
24.434822 101.152328 -32.085796
25.964705 98.600952 -33.705505
25.422731 97.017639 -36.621826
27.072218 95.980782 -35.28619
28.319014 92.876396 -36.50695
28.555101 94.684937 -33.664669
31.137665 91.921402 -27.051855
31.024529 90.875404 -30.391237
31.983112 88.796631 -28.485193
32.875526 85.102722 -29.745951
30.332991 85.720894 -38.848381
29.999653 83.387375 -41.024494
31.345325 81.679131 -39.418293
32.706898 73.172417 -40.78112
31.16045 92.698212 -23.636724
25.232637 103.196144 -25.220699
26.439049 101.196968 -27.25552
27.732773 98.619629 -29.131775
28.906076 95.802742 -30.661263
29.120729 96.780518 -27.375391
30.207085 94.818047 -25.759232
32.681923 81.992996 -35.190109
32.458221 79.849731 -37.76992
33.453663 77.887779 -35.93898
34.126347 73.585579 -36.683132
22.965105 103.283493 -30.077606
22.506435 102.021278 -33.040485
24.88242 95.20105 -39.116322
26.158886 92.035446 -40.506947
27.386852 88.497841 -41.633953
27.874163 90.942917 -39.172306
29.384119 89.351562 -37.857143
30.700495 87.737679 -36.142956
29.884928 92.844788 -32.168648
30.889334 89.540466 -33.299988
31.838337 85.816696 -34.387901
32.828926 83.655945 -32.527763
33.738804 81.160744 -30.611113
28.479362 84.655067 -42.539288
29.434788 80.95491 -43.102791
30.230057 76.618881 -43.717335
32.069187 77.40097 -40.243378
31.593531 74.850716 -42.274044
32.416416 88.40588 -24.207572
32.430155 88.030815 -25.903064
21.711388 105.393234 -26.220715
20.758285 105.606987 -26.837356
32.430155 88.030815 -25.903064
32.421002 87.574658 -27.5096
31.992265 89.252789 -26.878656
31.162668 92.882271 -21.935164
30.694693 94.105728 -22.907926
25.359668 103.440132 -23.569197
24.491949 104.072663 -24.307384
27.19076 100.348789 -26.47731
26.60409 101.488632 -25.485876
27.355801 100.640453 -24.707666
30.21801 95.165646 -23.96918
29.707726 96.197804 -24.8383
30.694693 94.105728 -22.907926
30.683768 93.758129 -24.697978
30.21801 95.165646 -23.96918
34.59018 72.356777 -35.74334
34.2456 74.53146 -35.443941
34.709432 73.302658 -34.504148
34.471991 71.383266 -36.820227
34.59018 72.356777 -35.74334
19.782536 104.015255 -31.527449
20.11526 104.638626 -29.993478
20.629475 103.190422 -32.519576
19.782536 104.015255 -31.527449
23.880961 102.846397 -29.424563
23.188798 103.784157 -28.396535
24.104653 103.347061 -27.743492
23.007815 99.959721 -35.521338
22.237885 101.124863 -34.58151
23.276365 100.856136 -33.980312
23.751888 98.804978 -36.304325
23.007815 99.959721 -35.521338
33.70805 81.978893 -29.082093
33.307165 83.131733 -30.178532
33.276411 83.949883 -28.649512
34.104338 80.02018 -29.660265
33.70805 81.978893 -29.082093
31.869042 72.642334 -42.502893
32.150215 74.011567 -41.527582
32.425726 71.803185 -41.756432
31.257454 73.504032 -43.186354
31.869042 72.642334 -42.502893
28.039237 99.746189 -23.921311
27.355801 100.640453 -24.707666
28.575419 98.539085 -24.808234
28.039237 99.746189 -23.921311
34.436493 76.278649 -32.875755
34.022405 77.483387 -33.777962
34.094046 78.284695 -32.448967
34.773823 74.284347 -33.258005
34.436493 76.278649 -32.875755
34.709432 73.302658 -34.504148
34.773823 74.284347 -33.258005
20.458174 105.141147 -28.467735
20.758285 105.606987 -26.837356
21.187551 104.426677 -29.539793
20.11526 104.638626 -29.993478
20.458174 105.141147 -28.467735
32.867209 85.727703 -28.13998
32.429319 86.949677 -29.115572
32.421002 87.574658 -27.5096
33.276411 83.949883 -28.649512
32.867209 85.727703 -28.13998
33.252186 72.21822 -39.882021
32.92507 74.480492 -39.605848
33.470358 73.526295 -38.706749
33.008126 70.880673 -40.947865
33.252186 72.21822 -39.882021
32.425726 71.803185 -41.756432
33.008126 70.880673 -40.947865
31.599234 91.40804 -22.684388
32.019718 89.913407 -23.502086
31.580934 91.203579 -24.454422
31.599234 91.40804 -22.684388
31.162668 92.882271 -21.935164
24.322564 103.740482 -25.968082
24.491949 104.072663 -24.307384
25.014727 102.802723 -26.996109
24.104653 103.347061 -27.743492
24.322564 103.740482 -25.968082
26.000884 102.48822 -24.468466
25.359668 103.440132 -23.569197
25.835843 102.196556 -26.23811
26.000884 102.48822 -24.468466
26.60409 101.488632 -25.485876
29.164548 97.179039 -25.64638
28.5316 98.140564 -26.537245
28.575419 98.539085 -24.808234
29.663907 95.799283 -26.567312
29.164548 97.179039 -25.64638
29.707726 96.197804 -24.8383
33.961911 72.424801 -37.833027
33.470358 73.526295 -38.706749
33.634794 74.687073 -37.556854
34.307555 70.222488 -37.970122
33.961911 72.424801 -37.833027
34.471991 71.383266 -36.820227
32.416416 88.40588 -24.207572
32.019718 89.913407 -23.502086
22.471477 104.60701 -27.364757
21.711388 105.393234 -26.220715
22.247785 104.106346 -29.045828
22.471477 104.60701 -27.364757
23.188798 103.784157 -28.396535
21.460375 102.238983 -33.507052
20.629475 103.190422 -32.519576
21.675536 102.972717 -32.05301
21.460375 102.238983 -33.507052
22.237885 101.124863 -34.58151
24.440106 97.4683 -37.155169
23.751888 98.804978 -36.304325
24.734513 98.354317 -35.770983
24.16995 96.560005 -38.402417
24.440106 97.4683 -37.155169
25.152575 96.109344 -37.869074
23.85579 95.472736 -39.687314
24.16995 96.560005 -38.402417
24.651733 93.971557 -40.333967
23.85579 95.472736 -39.687314
25.289966 92.388756 -41.02928
24.651733 93.971557 -40.333967
25.520653 93.618248 -39.811634
25.895499 90.724483 -41.659436
25.289966 92.388756 -41.02928
26.772869 90.266643 -41.07045
26.509483 88.955681 -42.222938
25.895499 90.724483 -41.659436
34.123469 79.12035 -31.078937
34.094046 78.284695 -32.448967
33.709381 80.325088 -31.981143
34.123469 79.12035 -31.078937
34.104338 80.02018 -29.660265
27.0644 87.166599 -42.713774
26.509483 88.955681 -42.222938
27.610654 85.245213 -43.166441
27.0644 87.166599 -42.713774
27.933107 86.576454 -42.08662
28.196921 83.310436 -43.47942
27.610654 85.245213 -43.166441
28.674634 81.460358 -43.761172
28.196921 83.310436 -43.47942
28.957075 82.804989 -42.821039
29.057711 79.505398 -44.08242
28.674634 81.460358 -43.761172
29.455345 77.337383 -44.389692
29.057711 79.505398 -44.08242
29.832422 78.786895 -43.410063
29.834674 75.159683 -44.598498
29.455345 77.337383 -44.389692
30.575717 74.388115 -43.907999
30.911794 75.734799 -42.995689
31.257454 73.504032 -43.186354
30.180334 72.928917 -44.789162
29.834674 75.159683 -44.598498
30.575717 74.388115 -43.907999
3 0 61 62
3 63 16 64
3 1 19 17
3 1 21 19
3 1 23 21
3 0 26 24
3 0 65 67
3 67 66 26
3 65 66 67
3 2 30 28
3 69 68 32
3 70 33 71
3 4 72 74
3 72 34 73
3 72 73 74
3 4 35 34
3 4 37 35
3 75 38 76
3 77 32 78
3 79 78 38
3 77 78 79
3 6 41 39
3 80 42 81
3 82 81 15
3 80 81 82
3 84 83 42
3 8 85 86
3 8 87 88
3 3 89 91
3 89 43 90
3 89 90 91
3 9 44 18
3 9 92 94
3 94 93 44
3 92 93 94
3 9 95 96
3 10 45 20
3 10 46 45
3 10 48 46
3 12 49 22
3 12 50 49
3 5 51 36
3 13 52 25
3 13 53 52
3 13 54 53
3 97 55 98
3 99 98 27
3 97 98 99
3 101 100 55
3 11 56 47
3 14 57 29
3 14 58 57
3 7 59 40
3 102 60 103
3 104 103 31
3 102 103 104
3 106 105 60
3 107 4 108
3 110 109 4
3 111 15 112
3 113 112 6
3 111 112 113
3 114 15 115
3 117 116 15
3 16 118 119
3 16 120 122
3 120 8 121
3 120 121 122
3 17 18 3
3 19 18 17
3 19 9 18
3 19 20 9
3 21 20 19
3 21 10 20
3 21 22 10
3 23 22 21
3 23 12 22
3 24 25 5
3 26 25 24
3 26 13 25
3 26 27 13
3 123 27 124
3 125 124 26
3 123 124 125
3 127 126 27
3 28 29 11
3 30 29 28
3 30 14 29
3 128 31 129
3 130 129 7
3 128 129 130
3 131 31 132
3 134 133 31
3 32 135 137
3 137 136 0
3 135 136 137
3 139 138 32
3 33 140 141
3 33 142 144
3 142 3 143
3 142 143 144
3 145 33 146
3 34 147 149
3 147 33 148
3 147 148 149
3 34 3 33
3 34 17 3
3 35 17 34
3 35 1 17
3 35 36 1
3 37 36 35
3 37 5 36
3 150 37 151
3 152 151 4
3 150 151 152
3 38 153 155
3 153 37 154
3 153 154 155
3 38 5 37
3 38 24 5
3 32 24 38
3 32 0 24
3 39 40 2
3 41 40 39
3 41 7 40
3 15 41 6
3 42 41 15
3 42 7 41
3 42 156 158
3 158 157 7
3 156 157 158
3 161 160 42
3 159 160 161
3 163 162 0
3 164 16 165
3 43 166 168
3 166 16 167
3 166 167 168
3 43 8 16
3 18 43 3
3 44 43 18
3 44 8 43
3 44 169 171
3 171 170 8
3 169 170 171
3 173 172 44
3 20 174 176
3 176 175 9
3 174 175 176
3 45 177 179
3 179 178 20
3 177 178 179
3 45 180 181
3 45 182 183
3 46 184 186
3 186 185 45
3 184 185 186
3 46 187 188
3 46 189 191
3 189 47 190
3 189 190 191
3 48 47 46
3 48 11 47
3 22 48 10
3 49 48 22
3 49 11 48
3 49 28 11
3 50 28 49
3 50 2 28
3 36 23 1
3 51 23 36
3 51 12 23
3 25 51 5
3 52 51 25
3 52 12 51
3 52 50 12
3 53 50 52
3 53 2 50
3 53 39 2
3 54 39 53
3 54 6 39
3 27 54 13
3 55 54 27
3 55 6 54
3 55 192 194
3 194 193 6
3 192 193 194
3 196 195 55
3 47 197 198
3 56 199 201
3 201 200 47
3 199 200 201
3 56 202 203
3 29 56 11
3 57 56 29
3 57 204 206
3 206 205 56
3 204 205 206
3 57 207 208
3 58 209 211
3 211 210 57
3 209 210 211
3 58 212 213
3 40 30 2
3 59 30 40
3 59 14 30
3 31 59 7
3 60 59 31
3 60 14 59
3 60 58 14
3 214 58 215
3 216 215 60
3 214 215 216
3 219 218 58
3 217 218 219
