ply
format ascii 1.0
element vertex 430
property float x
property float y
property float z
element face 471
property list uchar int vertex_index
end_header
-6.731928 10.740438 63.335739
6.13366 10.670652 54.367931
12.876076 31.030441 43.515469
-10.875224 17.34691 64.046021
-3.988358 19.262455 59.16106
-0.85126 10.39757 59.432438
3.04009 20.13328 54.270176
16.864958 21.090279 42.501316
10.016223 20.403074 49.155628
-8.487589 13.484251 63.729103
-7.359223 18.496147 61.576523
-5.431643 14.523905 61.517323
-9.282175 8.751303 65.339279
-11.895277 11.632329 66.137627
-6.578241 7.038543 64.027931
-4.238898 10.518209 61.733982
-3.294834 6.382066 61.975327
-2.160407 14.761455 59.258282
-4.901721 29.822056 55.980774
4.721301 15.21207 54.383179
6.448107 20.350037 51.871113
8.302398 15.477412 51.669163
11.829369 15.802167 48.689526
-6.006557 23.999773 58.878479
-2.58442 24.635038 56.45322
-14.446839 15.284755 66.469627
2.532931 10.450878 57.039978
1.047362 25.134327 54.009514
-0.489683 19.630272 56.744293
1.237124 15.013751 56.864571
14.984554 25.891222 43.144142
16.083902 30.618898 40.262428
18.220478 25.730431 39.486706
4.555984 25.392708 51.715321
8.021297 25.562544 49.286308
11.64633 25.596077 46.405369
13.535738 20.801102 45.983444
15.161995 16.227093 45.473431
-7.573001 11.77029 63.612553
-6.991998 14.066798 62.646839
-6.161379 12.297488 62.585144
-7.867726 9.952718 64.223663
-8.998107 11.09725 64.637016
-6.651435 9.162059 63.633179
-8.000343 7.80046 64.768661
-5.640039 10.625863 62.648537
-5.269654 8.763385 62.812866
-4.720716 12.441401 61.59726
-3.086132 30.114107 54.721069
8.054029 10.842321 52.859711
5.513698 12.827404 54.359257
6.50794 15.195205 53.090836
7.306422 12.974748 52.987164
9.043322 13.14187 51.592609
13.337984 33.351231 42.169456
-12.009591 19.214542 64.130409
-10.25208 20.083036 62.854733
-5.587479 18.883804 60.322208
-6.67472 21.130592 60.293083
-4.884426 21.622459 58.97282
-4.281374 24.515156 57.579773
-3.184853 21.839407 57.799046
-11.361188 14.46923 65.123535
-13.18828 13.291744 66.385536
-12.700496 16.355785 65.32296
-13.76369 18.427046 65.280411
0.825066 10.403061 58.259499
1.457876 8.215829 58.290325
-0.256318 8.218159 59.498985
-1.431888 22.153894 56.563175
-2.242031 19.677607 57.884296
-1.503992 12.539631 59.378033
-0.464276 14.847416 58.075809
0.285477 12.644273 58.112507
1.977898 12.703503 56.916378
16.008976 23.444061 42.784027
16.655416 25.732895 41.362885
17.660883 23.350527 40.946621
2.065128 22.661921 54.162971
2.807128 25.189001 52.895023
3.854556 22.610937 53.01836
8.299732 20.451485 50.484024
7.260913 22.968525 50.582298
9.127663 22.98551 49.186043
9.779223 25.537964 47.961353
10.91424 23.14658 47.709503
12.626596 23.148937 46.221062
11.801646 20.60813 47.605995
12.609189 13.524481 48.478184
13.523847 16.053577 47.09808
-9.578811 15.360744 63.865902
-9.148973 18.017267 62.831501
-7.953031 16.035719 62.690487
-6.335948 16.466167 61.545235
-4.696967 16.689779 60.414177
-10.568279 10.117528 65.772034
-10.12249 12.658363 64.904755
-2.58254 10.435379 60.622036
-2.055151 8.350881 60.719402
-3.722089 8.58452 61.810207
-4.948528 6.677112 63.031452
-2.974003 17.148968 59.136131
-3.800994 14.625568 60.406582
-3.181301 12.420965 60.560341
18.51251 21.060041 40.624077
3.878817 17.450211 54.422558
4.777459 20.087601 53.110611
5.77906 17.715494 53.020485
7.456973 17.829502 51.765972
9.239302 17.818665 50.398331
11.002472 18.104076 48.889153
10.07299 15.494722 50.249027
10.889793 13.253638 50.043564
-8.50364 20.647169 61.608444
-7.78893 23.620461 60.159988
-7.155228 26.620998 58.667923
-5.366582 26.935488 57.388741
-3.637489 27.419941 56.100063
-1.841409 27.432341 54.973907
-15.029536 12.230172 67.506378
-16.402161 14.072668 67.606171
4.320924 10.540874 55.734314
3.286236 8.337515 56.953312
-1.555814 6.218708 60.814003
-0.149673 27.532938 53.904953
-0.785509 24.855049 55.244301
0.240474 22.496778 55.379841
1.270827 20.009336 55.473175
-1.310059 17.244328 57.992607
0.381594 17.298538 56.83852
2.105186 17.485886 55.624798
2.907349 15.022202 55.70673
3.771334 12.723847 55.642471
13.849085 28.264208 43.538761
14.5213 30.627312 42.011719
15.63595 28.219917 41.673428
17.252394 28.082729 39.832996
19.186493 23.327337 39.094673
19.624474 25.861065 37.614655
11.206761 30.746857 45.125923
1.607832 27.885952 52.721222
3.321573 27.938553 51.662224
5.155605 28.205122 50.421669
5.51517 22.891148 51.826546
6.269057 25.389326 50.576469
8.747081 28.173721 47.946194
10.513288 28.207781 46.55928
12.297276 28.203026 45.030243
13.363505 25.621712 44.840492
14.31939 23.223492 44.593243
15.238256 20.840376 44.297672
12.792191 18.255407 47.282719
14.348926 18.4706 45.763695
16.040092 18.69405 44.000706
-2.80771 31.573741 53.975536
-2.187328 30.187128 54.145666
6.499594 9.633349 54.302831
7.459779 9.719183 53.548721
7.093844 10.756487 53.613821
13.10703 32.190836 42.842462
12.479079 33.440271 42.946653
12.248125 32.279877 43.619659
13.45186 13.667534 47.662094
12.995506 12.515661 48.329363
-9.925227 9.434416 65.555656
-10.752061 8.79347 66.163754
-10.109009 8.110357 65.947376
-7.313267 6.313737 64.632793
-7.238231 5.324706 64.775398
-6.503205 6.049512 64.170536
-9.414473 7.567574 65.661884
-8.773557 7.092153 65.376575
-8.641259 8.275882 65.05397
-10.109009 8.110357 65.947376
-9.414473 7.567574 65.661884
-6.503205 6.049512 64.170536
-5.688349 5.868797 63.672297
-5.763384 6.857827 63.529691
-5.434142 31.074337 55.829487
-5.756845 29.605584 56.618665
10.366912 12.144035 50.710608
9.966558 13.197754 50.818087
9.443676 12.088151 51.48513
11.249042 12.253685 49.937521
10.366912 12.144035 50.710608
-12.797101 11.063191 66.726623
-12.127713 10.246542 66.578926
-15.040287 16.23777 66.476642
-16.017948 15.631727 67.044915
-15.4245 14.678712 67.037899
-14.403982 19.418588 65.299881
-13.4391 19.913657 64.674282
1.682357 7.182847 58.339365
0.816759 7.145455 58.961701
18.445251 26.994543 38.714491
17.961209 28.170692 38.887636
17.736436 26.90658 39.659851
19.594302 22.239242 38.935295
18.849501 22.193689 39.859375
19.25731 21.105594 39.699997
20.372468 25.773567 36.613153
20.127309 24.645025 37.40106
19.861469 27.011916 36.801941
20.372468 25.773567 36.613153
10.307948 30.878563 45.810488
10.606288 32.165325 45.098137
7.49256 26.842415 49.265282
6.61644 26.755806 49.910362
7.145177 25.475935 49.931388
8.384189 26.868133 48.616251
7.855452 28.148004 48.595225
7.49256 26.842415 49.265282
16.009268 16.327064 44.575981
16.448317 17.560542 43.839619
15.601043 17.460572 44.737068
15.506571 31.965678 40.375301
14.72527 31.969885 41.249947
15.302601 30.623105 41.137073
-3.668983 31.413676 54.572599
-4.576778 31.267651 55.202451
-3.993927 29.968082 55.350921
-3.668983 31.413676 54.572599
-2.80771 31.573741 53.975536
8.337263 9.808537 52.841195
8.949029 10.938376 52.118681
8.337263 9.808537 52.841195
7.459779 9.719183 53.548721
8.949029 10.938376 52.118681
9.443676 12.088151 51.48513
8.548675 11.992096 52.22616
12.773262 34.735136 42.141506
12.479079 33.440271 42.946653
13.590246 34.616171 41.367994
12.773262 34.735136 42.141506
-11.673838 20.701664 63.47938
-12.56205 20.307406 64.099281
-10.795082 21.135911 62.841542
-11.673838 20.701664 63.47938
-11.130835 19.648789 63.492571
-9.924878 21.476813 62.205161
-10.795082 21.135911 62.841542
-12.56205 20.307406 64.099281
-13.4391 19.913657 64.674282
-12.886641 18.820794 64.70541
-0.040338 7.14662 59.56603
0.816759 7.145455 58.961701
0.600779 8.216994 58.894655
-3.153891 5.292365 62.083942
-4.021689 5.404676 62.650147
13.909188 14.932082 46.972042
13.066518 14.789029 47.788132
13.45186 13.667534 47.662094
14.728262 15.01884 46.159717
14.342921 16.140335 46.285756
13.909188 14.932082 46.972042
15.579016 15.174047 45.283775
14.728262 15.01884 46.159717
16.274504 31.845477 39.507019
16.812835 30.604275 39.360767
-11.464214 9.489141 66.39613
-10.752061 8.79347 66.163754
-11.231778 10.874928 65.95483
-12.127713 10.246542 66.578926
-11.464214 9.489141 66.39613
-8.024318 6.694695 65.003158
-7.313267 6.313737 64.632793
-7.289292 7.419501 64.398296
-8.024318 6.694695 65.003158
-8.773557 7.092153 65.376575
-4.848536 5.5522 63.178209
-4.021689 5.404676 62.650147
-4.121681 6.529589 62.503389
-4.848536 5.5522 63.178209
-5.688349 5.868797 63.672297
18.085479 19.954106 41.417685
17.688734 21.07516 41.562697
17.261704 19.969225 42.356304
18.87602 19.959075 40.505205
18.085479 19.954106 41.417685
19.25731 21.105594 39.699997
18.87602 19.959075 40.505205
-5.434142 31.074337 55.829487
-4.576778 31.267651 55.202451
12.10874 12.389106 49.154831
11.749491 13.38906 49.260874
11.249042 12.253685 49.937521
12.995506 12.515661 48.329363
12.10874 12.389106 49.154831
-9.050658 21.758879 61.582016
-9.924878 21.476813 62.205161
-9.37786 20.365102 62.231589
-8.693303 23.245525 60.857788
-9.050658 21.758879 61.582016
-8.146285 22.133815 60.884216
-8.404835 24.772289 60.145325
-8.693303 23.245525 60.857788
-8.087984 26.272557 59.399292
-8.404835 24.772289 60.145325
-7.472079 25.120729 59.413956
-7.745145 27.749184 58.625467
-8.087984 26.272557 59.399292
-6.883598 28.005054 57.96224
-7.745145 27.749184 58.625467
-5.989275 28.162299 57.322649
-6.883598 28.005054 57.96224
-6.260905 26.778243 58.028332
-5.134151 28.378772 56.684758
-5.756845 29.605584 56.618665
-5.989275 28.162299 57.322649
-1.564966 28.846245 54.272085
-2.187328 30.187128 54.145666
-2.46377 28.773224 54.847488
-13.443603 11.892898 66.850578
-12.797101 11.063191 66.726623
-12.541778 12.462036 66.261582
-14.36423 11.362112 67.410999
-13.443603 11.892898 66.850578
-14.108908 12.760958 66.945957
-15.300249 10.731742 67.966938
-14.36423 11.362112 67.410999
-15.996967 11.663888 68.01884
-15.300249 10.731742 67.966938
-16.683279 12.585136 68.068737
-15.996967 11.663888 68.01884
-15.715848 13.15142 67.556275
-17.337297 13.43752 68.076
-16.683279 12.585136 68.068737
-17.014428 15.089986 67.562073
-17.337297 13.43752 68.076
-17.014428 15.089986 67.562073
-16.017948 15.631727 67.044915
-14.698712 17.808916 65.882035
-15.040287 16.23777 66.476642
-14.105265 16.855901 65.875019
-14.698712 17.808916 65.882035
-14.403982 19.418588 65.299881
4.686047 9.495033 55.68593
5.592415 9.559922 55.002739
5.227292 10.605763 55.051122
4.168703 8.393353 56.295429
4.686047 9.495033 55.68593
3.80358 9.439194 56.343813
3.518506 7.244557 57.002304
4.168703 8.393353 56.295429
2.596537 7.24369 57.670858
2.372056 8.276672 57.621819
1.682357 7.182847 58.339365
3.518506 7.244557 57.002304
2.596537 7.24369 57.670858
-0.690086 6.146895 60.22354
-0.040338 7.14662 59.56603
-0.906066 7.218433 60.156494
-2.284381 5.210686 61.503281
-2.425324 6.300387 61.394665
-3.153891 5.292365 62.083942
-1.394099 5.160678 60.897682
-2.284381 5.210686 61.503281
-0.690086 6.146895 60.22354
-1.394099 5.160678 60.897682
-0.995541 27.48264 54.43943
-0.719098 28.896543 53.737608
-1.564966 28.846245 54.272085
17.397081 29.336191 39.146051
16.812835 30.604275 39.360767
16.668148 29.350814 40.047712
17.397081 29.336191 39.146051
17.961209 28.170692 38.887636
19.908319 23.378161 38.14107
19.594302 22.239242 38.935295
19.405483 24.594201 38.354664
19.908319 23.378161 38.14107
20.127309 24.645025 37.40106
19.14725 27.05986 37.778465
18.445251 26.994543 38.714491
18.922476 25.795748 38.55068
19.14725 27.05986 37.778465
19.861469 27.011916 36.801941
6.499594 9.633349 54.302831
5.592415 9.559922 55.002739
11.413467 32.138084 44.424886
10.606288 32.165325 45.098137
12.041418 30.888649 44.320696
12.248125 32.279877 43.619659
11.413467 32.138084 44.424886
0.158558 28.941324 53.201317
-0.719098 28.896543 53.737608
1.037311 29.117831 52.609451
0.158558 28.941324 53.201317
0.729079 27.709445 53.313087
1.912759 29.366 52.004993
1.037311 29.117831 52.609451
2.76963 29.3923 51.475494
1.912759 29.366 52.004993
2.464703 27.912253 52.191723
3.66556 29.319285 50.968781
2.76963 29.3923 51.475494
4.582576 29.45257 50.348503
3.66556 29.319285 50.968781
4.238589 28.071838 51.041947
5.465 29.539125 49.764763
4.582576 29.45257 50.348503
6.059714 28.163704 49.832962
5.712331 26.797224 50.499069
6.61644 26.755806 49.910362
5.465 29.539125 49.764763
6.059714 28.163704 49.832962
8.1833 29.54442 47.896891
7.855452 28.148004 48.595225
9.078107 29.591995 47.220623
8.1833 29.54442 47.896891
9.961211 29.609025 46.527166
9.078107 29.591995 47.220623
9.630184 28.190751 47.252737
10.860024 29.477319 45.842602
10.307948 30.878563 45.810488
9.961211 29.609025 46.527166
16.849271 18.77111 43.105999
17.261704 19.969225 42.356304
16.452525 19.892164 43.251011
16.849271 18.77111 43.105999
16.448317 17.560542 43.839619
16.009268 16.327064 44.575981
15.579016 15.174047 45.283775
14.133612 33.331845 41.328815
13.929642 31.989272 42.090587
14.72527 31.969885 41.249947
13.590246 34.616171 41.367994
14.133612 33.331845 41.328815
15.506571 31.965678 40.375301
16.274504 31.845477 39.507019
3 0 40 38
3 0 38 41
3 0 41 43
3 0 43 45
3 0 45 40
3 155 154 48
3 1 156 158
3 158 157 49
3 156 157 158
3 1 52 50
3 1 49 52
3 2 159 161
3 159 54 160
3 159 160 161
3 3 56 55
3 4 59 57
3 4 61 59
3 3 64 62
3 3 55 64
3 5 68 66
3 4 70 61
3 5 73 71
3 5 66 73
3 7 77 75
3 6 80 78
3 8 83 81
3 8 85 83
3 8 87 85
3 163 162 88
3 9 92 90
3 11 93 39
3 11 94 93
3 12 164 166
3 164 95 165
3 164 165 166
3 9 96 42
3 9 90 96
3 14 167 169
3 167 168 169
3 12 170 172
3 172 171 44
3 170 171 172
3 12 173 174
3 15 99 97
3 14 100 46
3 14 175 177
3 177 176 100
3 175 176 177
3 11 102 94
3 15 103 47
3 15 97 103
3 18 178 179
3 19 107 105
3 21 108 51
3 21 109 108
3 21 111 109
3 180 112 181
3 182 181 53
3 180 181 182
3 184 183 112
3 10 113 91
3 23 114 58
3 23 115 114
3 23 116 115
3 24 117 60
3 24 118 117
3 13 185 186
3 25 119 63
3 25 120 119
3 25 187 189
3 189 188 120
3 187 188 189
3 191 190 65
3 26 122 121
3 193 192 67
3 16 123 98
3 24 125 118
3 28 126 69
3 28 127 126
3 17 128 101
3 29 129 72
3 29 130 129
3 29 131 130
3 26 132 74
3 26 121 132
3 30 135 133
3 32 136 76
3 32 194 196
3 196 195 136
3 194 195 196
3 197 137 198
3 199 198 104
3 197 198 199
3 200 138 201
3 203 202 138
3 204 139 205
3 27 140 124
3 33 141 79
3 33 142 141
3 20 143 106
3 34 144 82
3 34 206 208
3 208 207 144
3 206 207 208
3 34 209 211
3 209 145 210
3 209 210 211
3 35 146 84
3 35 147 146
3 35 148 147
3 36 149 86
3 36 150 149
3 22 151 110
3 37 152 89
3 37 153 152
3 37 212 214
3 214 213 153
3 212 213 214
3 31 215 217
3 217 216 134
3 215 216 217
3 38 39 9
3 40 39 38
3 40 11 39
3 41 42 12
3 38 42 41
3 38 9 42
3 43 44 14
3 41 44 43
3 41 12 44
3 45 46 15
3 43 46 45
3 43 14 46
3 40 47 11
3 45 47 40
3 45 15 47
3 48 218 220
3 220 219 18
3 218 219 220
3 222 221 48
3 49 223 224
3 226 225 49
3 50 51 19
3 52 51 50
3 52 21 51
3 52 53 21
3 49 53 52
3 49 227 229
3 229 228 53
3 227 228 229
3 54 230 231
3 54 232 233
3 55 234 235
3 56 236 238
3 238 237 55
3 236 237 238
3 56 239 240
3 57 58 10
3 59 58 57
3 59 23 58
3 59 60 23
3 61 60 59
3 61 24 60
3 62 63 13
3 64 63 62
3 64 25 63
3 64 65 25
3 55 65 64
3 55 241 243
3 243 242 65
3 241 242 243
3 66 67 26
3 68 67 66
3 68 244 246
3 246 245 67
3 244 245 246
3 248 247 16
3 61 69 24
3 70 69 61
3 70 28 69
3 71 72 17
3 73 72 71
3 73 29 72
3 73 74 29
3 66 74 73
3 66 26 74
3 75 76 30
3 77 76 75
3 77 32 76
3 78 79 27
3 80 79 78
3 80 33 79
3 81 82 20
3 83 82 81
3 83 34 82
3 83 84 34
3 85 84 83
3 85 35 84
3 85 86 35
3 87 86 85
3 87 36 86
3 88 89 22
3 249 89 250
3 251 250 88
3 249 250 251
3 252 37 253
3 254 253 89
3 252 253 254
3 256 255 37
3 258 257 31
3 90 91 3
3 92 91 90
3 92 10 91
3 39 92 9
3 93 92 39
3 93 10 92
3 93 57 10
3 94 57 93
3 94 4 57
3 95 259 260
3 95 261 263
3 261 13 262
3 261 262 263
3 42 95 12
3 96 95 42
3 96 13 95
3 96 62 13
3 90 62 96
3 90 3 62
3 44 264 266
3 266 265 14
3 264 265 266
3 268 267 44
3 97 98 5
3 99 98 97
3 99 16 98
3 46 99 15
3 100 99 46
3 100 16 99
3 100 269 271
3 271 270 16
3 269 270 271
3 273 272 100
3 94 101 4
3 102 101 94
3 102 17 101
3 47 102 11
3 103 102 47
3 103 17 102
3 103 71 17
3 97 71 103
3 97 5 71
3 274 104 275
3 276 275 7
3 274 275 276
3 277 104 278
3 280 279 104
3 282 281 18
3 105 106 6
3 107 106 105
3 107 20 106
3 51 107 19
3 108 107 51
3 108 20 107
3 108 81 20
3 109 81 108
3 109 8 81
3 109 110 8
3 111 110 109
3 111 22 110
3 53 111 21
3 112 111 53
3 112 22 111
3 112 88 22
3 283 88 284
3 285 284 112
3 283 284 285
3 287 286 88
3 91 56 3
3 113 56 91
3 113 288 290
3 290 289 56
3 288 289 290
3 58 113 10
3 114 113 58
3 114 291 293
3 293 292 113
3 291 292 293
3 114 294 295
3 115 296 298
3 298 297 114
3 296 297 298
3 115 299 300
3 115 301 302
3 116 303 305
3 305 304 115
3 303 304 305
3 116 306 308
3 306 18 307
3 306 307 308
3 60 116 23
3 117 116 60
3 117 18 116
3 117 48 18
3 118 48 117
3 118 309 311
3 311 310 48
3 309 310 311
3 63 312 314
3 314 313 13
3 312 313 314
3 119 315 317
3 317 316 63
3 315 316 317
3 119 318 319
3 119 320 321
3 120 322 324
3 324 323 119
3 322 323 324
3 120 325 326
3 120 327 328
3 330 329 120
3 65 331 333
3 333 332 25
3 331 332 333
3 335 334 65
3 121 336 338
3 338 337 1
3 336 337 338
3 122 339 341
3 341 340 121
3 339 340 341
3 122 342 343
3 67 122 26
3 344 122 345
3 346 345 67
3 344 345 346
3 348 347 122
3 98 68 5
3 123 68 98
3 123 349 351
3 351 350 68
3 349 350 351
3 352 123 353
3 354 353 16
3 352 353 354
3 355 123 356
3 358 357 123
3 118 359 361
3 359 124 360
3 359 360 361
3 125 124 118
3 125 27 124
3 69 125 24
3 126 125 69
3 126 27 125
3 126 78 27
3 127 78 126
3 127 6 78
3 101 70 4
3 128 70 101
3 128 28 70
3 72 128 17
3 129 128 72
3 129 28 128
3 129 127 28
3 130 127 129
3 130 6 127
3 130 105 6
3 131 105 130
3 131 19 105
3 74 131 29
3 132 131 74
3 132 19 131
3 132 50 19
3 121 50 132
3 121 1 50
3 133 134 2
3 135 134 133
3 135 31 134
3 76 135 30
3 136 135 76
3 136 31 135
3 136 362 364
3 364 363 31
3 362 363 364
3 366 365 136
3 104 77 7
3 137 77 104
3 137 32 77
3 367 137 368
3 138 369 371
3 369 137 370
3 369 370 371
3 138 32 137
3 138 372 374
3 374 373 32
3 372 373 374
3 376 375 138
3 378 377 1
3 139 379 380
3 139 381 383
3 381 2 382
3 381 382 383
3 124 384 385
3 140 386 388
3 388 387 124
3 386 387 388
3 140 389 390
3 79 140 27
3 141 140 79
3 141 391 393
3 393 392 140
3 391 392 393
3 141 394 395
3 142 396 398
3 398 397 141
3 396 397 398
3 142 399 400
3 106 80 6
3 143 80 106
3 143 33 80
3 82 143 20
3 144 143 82
3 144 33 143
3 144 142 33
3 401 142 402
3 403 402 144
3 401 402 403
3 405 404 142
3 145 406 407
3 145 408 409
3 84 145 34
3 146 145 84
3 146 410 412
3 412 411 145
3 410 411 412
3 146 413 415
3 413 139 414
3 413 414 415
3 147 139 146
3 147 2 139
3 147 133 2
3 148 133 147
3 148 30 133
3 86 148 35
3 149 148 86
3 149 30 148
3 149 75 30
3 150 75 149
3 150 7 75
3 110 87 8
3 151 87 110
3 151 36 87
3 89 151 22
3 152 151 89
3 152 36 151
3 152 150 36
3 153 150 152
3 153 7 150
3 153 416 418
3 418 417 7
3 416 417 418
3 420 419 153
3 422 421 37
3 134 54 2
3 423 54 424
3 425 424 134
3 423 424 425
3 427 426 54
3 429 428 31
