ply
format ascii 1.0
element vertex 178
property float x
property float y
property float z
element face 166
property list uchar int vertex_index
end_header
-29.55978 39.275188 -4.04625
-25.81707 46.227539 -7.309085
-24.010702 36.718414 -9.429921
-31.543783 35.944756 -2.372104
-29.697054 40.595901 -0.44292
-26.612892 48.291359 -4.367642
-30.840555 34.114994 -5.229895
-28.585329 37.027256 -6.569234
-28.062462 44.55201 -2.274116
-27.637907 42.755775 -5.620966
-26.318758 39.945995 -7.93748
-25.312166 35.391354 -8.816738
-30.556141 37.649563 -3.14258
-31.331951 35.149422 -3.886758
-30.255711 36.72308 -4.647499
-29.748228 35.514904 -5.883706
-29.168932 38.162266 -5.493463
-27.282681 47.016796 -1.520557
-26.359308 47.180099 -5.973026
-27.19458 45.48658 -4.917053
-26.742472 44.368301 -6.445006
-27.067295 41.475533 -6.927835
-26.042387 43.150867 -7.686616
-25.180475 41.707436 -8.648646
-25.074263 44.887184 -8.455791
-31.500658 36.649311 -0.580706
-30.652462 38.283203 -1.453516
-29.800026 39.932575 -2.316808
-25.901779 51.775833 -1.86593
-26.647421 49.029785 -2.607349
-26.026447 51.026672 -3.817936
-25.909678 50.141186 -5.466919
-28.944378 34.189194 -6.896219
-27.699579 35.64563 -7.512733
-28.863029 42.559067 -1.354752
-28.847145 41.95771 -3.118279
-27.371778 46.293793 -3.309386
-27.988533 43.794579 -4.000572
-28.605776 41.045723 -4.763103
-28.120365 39.946949 -6.130484
-27.433802 38.57399 -7.242309
-26.52244 36.968224 -8.113524
-25.290123 38.417347 -8.758816
-24.140589 40.154114 -9.402534
-25.951244 34.633223 -8.533504
-25.343097 33.685983 -8.778575
-26.854136 48.345616 -1.089561
-27.140828 47.283519 -0.585089
-23.40297 35.690134 -9.635424
-23.4542 34.02515 -9.552664
-24.061932 35.053431 -9.347161
-23.44509 37.482864 -9.724672
-23.40297 35.690134 -9.635424
-31.416967 36.814125 0.33903
-31.990538 35.694708 -0.163142
-30.174758 39.439552 -0.948218
-30.550371 38.594652 -0.53429
-30.072667 39.751001 -0.028992
-25.73995 52.336759 -3.479629
-25.964113 51.401252 -2.841933
-25.677616 52.71134 -2.503627
-25.534938 51.248081 -6.024045
-25.67379 51.594179 -5.177013
-25.717222 49.736656 -6.18405
-25.534938 51.248081 -6.024045
-31.980605 34.73482 -2.745157
-32.03431 35.1185 -1.953037
-31.451304 33.351669 -4.841929
-31.697003 33.868883 -4.170361
-31.086253 34.632208 -4.558326
-31.125106 32.802991 -5.412059
-31.735855 32.039666 -5.024093
-31.451304 33.351669 -4.841929
-30.50148 33.367413 -5.773838
-31.125106 32.802991 -5.412059
-28.462746 43.555538 -1.814434
-28.383336 43.837078 -0.867344
-27.983052 44.83355 -1.327025
-24.111857 41.766167 -9.402036
-24.660532 40.930775 -9.02559
-24.631801 42.542828 -9.025092
-23.555122 40.940157 -9.766241
-24.111857 41.766167 -9.402036
-24.712665 34.3899 -9.040569
-25.343097 33.685983 -8.778575
-24.661434 36.054884 -9.12333
-24.061932 35.053431 -9.347161
-24.712665 34.3899 -9.040569
-29.524612 40.86864 0.552605
-30.072667 39.751001 -0.028992
-27.593162 46.065942 -0.950246
-27.140828 47.283519 -0.585089
-27.672572 45.784403 -1.897336
-27.983052 44.83355 -1.327025
-27.593162 46.065942 -0.950246
-24.578694 44.132702 -8.928665
-24.631801 42.542828 -9.025092
-25.127369 43.29731 -8.552218
-32.012748 35.470777 -1.057338
-31.990538 35.694708 -0.163142
-31.522221 36.297033 -1.476405
-32.03431 35.1185 -1.953037
-32.012748 35.470777 -1.057338
-30.974469 37.777706 -0.097885
-31.416967 36.814125 0.33903
-31.07656 37.466257 -1.017111
-30.974469 37.777706 -0.097885
-30.550371 38.594652 -0.53429
-26.2746 50.402809 -2.236639
-26.536506 49.35211 -1.632957
-26.163685 50.725134 -1.262247
-25.732174 52.036923 -4.352521
-25.73995 52.336759 -3.479629
-25.968063 50.583929 -4.642428
-25.732174 52.036923 -4.352521
-25.67379 51.594179 -5.177013
-25.942037 48.256113 -6.437104
-26.134493 48.660642 -5.719972
-25.717222 49.736656 -6.18405
-25.670918 47.779833 -7.105133
-26.088189 46.703819 -6.641056
-25.942037 48.256113 -6.437104
-25.366929 47.113208 -7.774144
-25.670918 47.779833 -7.105133
-25.758246 51.946089 -0.823128
-26.163685 50.725134 -1.262247
-25.534568 53.107059 -1.525543
-25.758246 51.946089 -0.823128
-25.677616 52.71134 -2.503627
-25.534568 53.107059 -1.525543
-31.874689 34.337153 -3.502484
-31.980605 34.73482 -2.745157
-31.437867 35.547089 -3.129431
-31.874689 34.337153 -3.502484
-31.697003 33.868883 -4.170361
-29.955317 34.067368 -6.100744
-30.50148 33.367413 -5.773838
-30.294391 34.814949 -5.5568
-29.553392 33.404512 -6.607
-29.955317 34.067368 -6.100744
-29.346303 34.852049 -6.389963
-29.083286 32.617453 -7.008017
-29.553392 33.404512 -6.607
-28.444246 33.327625 -7.281685
-29.083286 32.617453 -7.008017
-27.821846 34.055843 -7.589942
-28.444246 33.327625 -7.281685
-28.321979 34.917412 -7.204476
-27.144951 34.760361 -7.881501
-27.821846 34.055843 -7.589942
-29.170776 41.815271 0.045838
-29.524612 40.86864 0.552605
-28.753763 42.796854 -0.410078
-28.383336 43.837078 -0.867344
-29.280042 41.577484 -0.898836
-29.170776 41.815271 0.045838
-28.753763 42.796854 -0.410078
-26.965051 48.023291 -2.063953
-26.854136 48.345616 -1.089561
-26.536506 49.35211 -1.632957
-26.556381 35.421658 -8.181897
-27.144951 34.760361 -7.881501
-27.11101 36.306927 -7.813128
-25.917303 36.179789 -8.465131
-25.951244 34.633223 -8.533504
-26.556381 35.421658 -8.181897
-23.510033 39.200714 -9.710978
-23.44509 37.482864 -9.724672
-24.075646 38.436264 -9.416227
-23.510033 39.200714 -9.710978
-23.555122 40.940157 -9.766241
-24.995525 46.443031 -8.347497
-25.445667 45.557361 -7.882438
-25.366929 47.113208 -7.774144
-24.571545 45.761994 -8.894783
-24.995525 46.443031 -8.347497
-24.578694 44.132702 -8.928665
-24.571545 45.761994 -8.894783
3 44 11 45
3 0 14 12
3 0 16 14
3 46 17 47
3 1 20 18
3 1 22 20
3 1 24 22
3 2 48 50
3 48 49 50
3 2 51 52
3 53 25 54
3 4 55 57
3 55 26 56
3 55 56 57
3 4 27 26
3 58 30 59
3 60 59 28
3 58 59 60
3 61 31 62
3 64 63 31
3 3 65 66
3 6 67 69
3 69 68 13
3 67 68 69
3 6 70 72
3 70 71 72
3 6 73 74
3 7 32 15
3 7 33 32
3 8 75 77
3 75 34 76
3 75 76 77
3 8 35 34
3 5 36 29
3 9 37 19
3 9 38 37
3 9 39 38
3 10 40 21
3 10 41 40
3 10 42 41
3 78 43 79
3 80 79 23
3 78 79 80
3 82 81 43
3 11 83 84
3 11 85 87
3 85 2 86
3 85 86 87
3 88 4 89
3 12 13 3
3 14 13 12
3 14 6 13
3 14 15 6
3 16 15 14
3 16 7 15
3 17 90 91
3 17 92 94
3 92 8 93
3 92 93 94
3 18 19 5
3 20 19 18
3 20 9 19
3 20 21 9
3 22 21 20
3 22 10 21
3 22 23 10
3 24 23 22
3 24 95 97
3 97 96 23
3 95 96 97
3 25 98 99
3 25 100 102
3 100 3 101
3 100 101 102
3 103 25 104
3 26 105 107
3 105 25 106
3 105 106 107
3 26 3 25
3 26 12 3
3 27 12 26
3 27 0 12
3 28 108 110
3 108 29 109
3 108 109 110
3 30 29 28
3 30 5 29
3 111 30 112
3 31 113 115
3 113 30 114
3 113 114 115
3 31 5 30
3 31 18 5
3 116 18 117
3 118 117 31
3 116 117 118
3 119 1 120
3 121 120 18
3 119 120 121
3 123 122 1
3 124 28 125
3 126 28 127
3 129 128 28
3 13 130 132
3 132 131 3
3 130 131 132
3 134 133 13
3 15 135 137
3 137 136 6
3 135 136 137
3 32 138 140
3 140 139 15
3 138 139 140
3 32 141 142
3 32 143 144
3 33 145 147
3 147 146 32
3 145 146 147
3 33 148 149
3 150 4 151
3 34 152 153
3 34 154 156
3 154 4 155
3 154 155 156
3 34 27 4
3 35 27 34
3 35 0 27
3 29 157 159
3 157 17 158
3 157 158 159
3 36 17 29
3 36 8 17
3 19 36 5
3 37 36 19
3 37 8 36
3 37 35 8
3 38 35 37
3 38 0 35
3 38 16 0
3 39 16 38
3 39 7 16
3 21 39 9
3 40 39 21
3 40 7 39
3 40 33 7
3 41 33 40
3 41 160 162
3 162 161 33
3 160 161 162
3 41 163 165
3 163 11 164
3 163 164 165
3 42 11 41
3 42 2 11
3 23 42 10
3 43 42 23
3 43 2 42
3 43 166 168
3 168 167 2
3 166 167 168
3 170 169 43
3 171 24 172
3 173 172 1
3 171 172 173
3 174 24 175
3 177 176 24
