ply
format ascii 1.0
element vertex 402
property float x
property float y
property float z
element face 427
property list uchar int vertex_index
end_header
-20.135435 -14.550175 45.74337
-32.352253 -9.349893 32.579956
-22.202553 -20.127756 40.789192
-26.232994 -11.452222 39.16222
-13.965147 -18.084496 52.286285
-10.345112 -26.697042 52.281174
-16.290815 -23.332975 46.117466
-3.788702 -30.278872 58.639175
-21.321077 -17.174797 43.16819
-24.277246 -15.778561 40.29792
-23.183386 -12.931174 42.41951
-17.120953 -16.25602 49.022991
-15.209303 -20.562616 49.456921
-18.237984 -19.014357 46.207684
-19.122652 -21.825588 43.383888
-30.541582 -13.621858 34.4394
-5.287304 -25.640427 58.962349
-11.343328 -29.595076 48.65453
-8.528217 -31.285294 51.721313
-25.24976 -18.900373 38.315159
-27.362991 -14.458148 37.444408
-29.404795 -10.144478 35.805279
-10.469744 -19.864166 55.663662
-8.733837 -24.05666 55.865208
-12.107523 -22.344778 52.59251
-13.302304 -24.991497 49.227772
-14.243367 -27.811409 45.683899
-16.988697 -26.189781 43.176521
-24.939297 -8.575743 40.991421
-27.827583 -7.241013 37.620865
-31.01263 -5.87365 33.872551
-33.996315 -5.146432 30.191658
-7.174735 -28.511959 55.426567
-20.723177 -15.876521 44.47974
-22.292967 -15.084857 42.830448
-21.639502 -13.81601 44.072639
-18.649834 -15.493184 47.327736
-17.766644 -17.59016 47.58717
-19.289145 -16.729658 45.971844
-19.716906 -18.143435 44.723309
-31.562723 -11.458553 33.483688
-33.00433 -11.111128 31.921419
-33.878429 -9.049455 30.790718
-6.026599 -23.511532 58.991081
-22.516296 -21.820456 39.7085
-23.717253 -19.61318 39.485771
-25.307858 -13.50093 39.803886
-25.816967 -15.099557 38.868618
-26.839905 -12.968901 38.251904
-28.496601 -12.348016 36.606567
-27.823874 -10.783379 37.480274
-12.24739 -18.970848 53.989895
-11.297018 -21.073975 54.234142
-12.923844 -20.294035 52.609669
-15.750808 -22.055126 47.762581
-14.285034 -22.830765 49.321819
-14.812931 -24.281017 47.541996
-13.744876 -26.444229 47.478714
-15.254588 -25.566687 45.948128
-15.570704 -27.149361 44.330238
-16.638344 -24.778467 44.612743
-20.612961 -21.104475 42.03624
-19.459927 -23.368879 42.053814
-21.006809 -22.503839 40.86142
-23.415688 -9.500823 42.768276
-29.496031 -6.492712 35.671638
-2.792339 -28.65642 60.371159
-2.084599 -30.885267 60.255394
-9.571186 -25.428659 54.118462
-7.899416 -26.230593 55.770378
-8.702581 -27.650364 53.925907
-7.076205 -32.217087 53.257999
-21.667383 -18.790911 42.005905
-23.247459 -18.086048 40.570915
-22.74757 -16.66605 41.688366
-23.79237 -14.274823 41.31324
-24.733992 -12.086556 40.767204
-15.563124 -17.178427 50.656006
-14.594712 -19.294655 50.958172
-16.229616 -18.452713 49.21793
-16.737518 -19.858608 47.767452
-17.200535 -21.286844 46.246162
-17.718899 -22.635286 44.655876
-18.708984 -20.397583 44.777847
-20.263969 -19.511007 43.309635
-3.424433 -26.41268 60.544487
-4.4732 -27.857178 58.931114
-10.821611 -28.204393 50.520363
-9.373002 -28.86763 52.180023
-9.906359 -30.409273 50.252003
-26.843302 -18.407606 37.058517
-24.792809 -17.236115 39.286476
-26.35195 -16.64094 37.944447
-27.992413 -16.146627 36.527786
-28.970533 -14.044399 35.929958
-30.034906 -11.920468 35.058247
-30.881086 -9.731665 34.211803
-8.795353 -20.541851 57.200836
-7.874757 -22.612558 57.429996
-9.58779 -22.024218 55.80006
-10.499523 -23.123049 54.212601
-11.226239 -24.460234 52.51627
-13.630942 -21.482342 51.064339
-12.711273 -23.704336 50.960056
-11.795013 -25.95582 50.727642
-12.300597 -27.239498 49.028801
-12.797967 -28.624001 47.190025
-13.182461 -30.182301 45.393478
-14.53259 -29.322306 44.136986
-15.996977 -28.528891 42.800758
-18.037336 -24.068346 43.298107
-18.412785 -25.419588 41.988811
-19.551849 -13.194049 46.9161
-21.074545 -12.422565 45.176945
-11.3589 -17.827854 55.359386
-13.08808 -16.858231 53.74276
-14.679273 -15.974896 52.166367
-16.379278 -15.103593 50.367199
-18.05205 -14.15883 48.552189
-22.486895 -11.735385 43.560268
-24.071335 -10.825632 41.78598
-25.620697 -9.99872 40.056946
-26.385202 -7.906486 39.298328
-27.181 -9.335608 38.31152
-28.656925 -8.542049 36.670902
-30.205196 -7.985024 34.927872
-31.759548 -7.54753 33.145397
-33.164402 -7.302898 31.485771
-34.598644 -6.89902 29.667824
-7.023277 -24.825504 57.450401
-6.221461 -27.125782 57.310547
-5.467034 -29.180241 57.194839
-7.886205 -29.937111 53.59235
-6.352774 -30.727829 55.221138
-4.833075 -31.513369 56.778748
-6.481511 -22.468078 58.881785
-5.548686 -22.837294 59.645364
-3.440542 -31.369163 58.54557
-2.58849 -31.67236 59.353679
-2.93665 -30.582069 59.447285
-30.784223 -14.538774 34.137964
-30.029456 -14.73182 34.812638
-4.355868 -26.026553 59.753418
-3.821966 -25.354367 60.509092
-4.753401 -24.96824 59.718024
-25.444288 -19.766857 37.887333
-24.655558 -20.046093 38.447611
-26.046531 -18.65399 37.686838
-26.241059 -19.520474 37.259012
-25.444288 -19.766857 37.887333
-17.180754 -26.930698 42.462385
-16.684894 -28.100254 42.274504
-16.492837 -27.359336 42.98864
-19.101484 -25.131903 41.419069
-18.936356 -24.394233 42.021313
-19.625056 -24.106549 41.451571
-18.587919 -26.214756 41.334339
-19.101484 -25.131903 41.419069
-19.983628 -12.179009 46.596991
-19.154694 -12.63729 47.550145
-11.783414 -16.804066 55.168518
-10.925655 -17.178514 55.958396
-12.648004 -16.319254 54.360205
-12.22349 -17.343042 54.551073
-11.783414 -16.804066 55.168518
-15.126677 -14.929956 51.914165
-14.292651 -15.372007 52.767185
-15.976679 -14.494305 51.014581
-15.529276 -15.539244 51.266783
-15.126677 -14.929956 51.914165
-18.404795 -13.119681 48.368189
-17.631767 -13.590342 49.223526
-19.154694 -12.63729 47.550145
-18.801949 -13.67644 47.734144
-18.404795 -13.119681 48.368189
-22.210588 -11.010576 44.036237
-21.78072 -12.078975 44.368606
-21.504413 -11.354166 44.844576
-27.106392 -7.573749 38.459597
-26.793286 -6.843761 38.802729
-27.514477 -6.511024 37.963997
-33.238582 -5.283238 31.141592
-33.637776 -4.324354 30.507518
-33.580359 -6.224665 30.838715
-32.822626 -6.361471 31.788649
-33.238582 -5.283238 31.141592
-5.987229 -31.900008 55.023598
-6.714489 -31.472458 54.239569
-6.348945 -32.644637 54.042028
-5.22738 -32.292777 55.802402
-5.592925 -31.120599 55.999943
-5.987229 -31.900008 55.023598
-4.479756 -32.67129 56.615782
-5.22738 -32.292777 55.802402
-31.839902 -12.346109 33.181534
-31.329331 -13.427761 33.65939
-31.052152 -12.540205 33.961544
-32.560705 -12.172397 32.400399
-31.839902 -12.346109 33.181534
-32.283527 -11.284841 32.702554
-33.308114 -12.160557 31.608251
-32.560705 -12.172397 32.400399
-33.712901 -11.042448 31.098621
-33.308114 -12.160557 31.608251
-34.14995 -10.011612 30.53327
-33.712901 -11.042448 31.098621
-33.441379 -10.080292 31.356068
-34.565855 -8.929859 29.914793
-34.14995 -10.011612 30.53327
-5.123048 -23.903793 59.732389
-5.548686 -22.837294 59.645364
-5.656951 -24.575979 58.976715
-4.753401 -24.96824 59.718024
-5.123048 -23.903793 59.732389
-10.936281 -30.649172 48.46181
-11.614355 -30.311712 47.667681
-23.288826 -21.506135 39.144282
-22.702779 -22.624165 39.20945
-23.889305 -20.402497 39.032917
-23.288826 -21.506135 39.144282
-23.116774 -20.716818 39.597136
-24.483506 -19.256777 38.900465
-24.655558 -20.046093 38.447611
-23.889305 -20.402497 39.032917
-20.398497 -23.674029 40.855373
-19.625056 -24.106549 41.451571
-20.233368 -22.936359 41.457617
-21.179578 -23.259479 40.318996
-20.398497 -23.674029 40.855373
-21.934322 -22.917787 39.742536
-21.179578 -23.259479 40.318996
-21.761553 -22.162147 40.28496
-22.702779 -22.624165 39.20945
-21.934322 -22.917787 39.742536
-23.018227 -8.844955 43.313558
-22.674984 -9.893294 43.640242
-23.77261 -8.412931 42.396591
-23.018227 -8.844955 43.313558
-24.534415 -7.950391 41.508164
-24.177492 -9.038283 41.879849
-23.77261 -8.412931 42.396591
-28.256435 -6.17138 37.066851
-27.514477 -6.511024 37.963997
-29.090659 -5.797229 36.092237
-28.661807 -6.866862 36.646252
-28.256435 -6.17138 37.066851
-29.836217 -5.432652 35.179714
-29.090659 -5.797229 36.092237
-30.594517 -5.123121 34.28017
-30.254331 -6.183181 34.772095
-29.836217 -5.432652 35.179714
-34.343773 -4.108763 29.557158
-33.637776 -4.324354 30.507518
-34.681866 -5.04513 29.273291
-34.343773 -4.108763 29.557158
-1.836675 -29.074084 61.162993
-2.21438 -27.991685 61.151657
-1.482805 -30.188507 61.10511
-1.836675 -29.074084 61.162993
-2.438469 -29.770843 60.313277
-1.187361 -31.363726 60.996023
-1.482805 -30.188507 61.10511
-1.74042 -32.058166 60.156988
-1.187361 -31.363726 60.996023
-1.74042 -32.058166 60.156988
-2.58849 -31.67236 59.353679
-7.376952 -32.937201 52.291193
-7.802211 -31.75119 52.489656
-8.102958 -32.471304 51.52285
-6.688363 -33.37294 53.062973
-7.376952 -32.937201 52.291193
-6.348945 -32.644637 54.042028
-6.688363 -33.37294 53.062973
-30.784223 -14.538774 34.137964
-31.329331 -13.427761 33.65939
-2.873016 -25.820101 61.232858
-3.821966 -25.354367 60.509092
-2.530427 -26.869815 61.238321
-2.873016 -25.820101 61.232858
-3.108386 -27.53455 60.457823
-2.21438 -27.991685 61.151657
-2.530427 -26.869815 61.238321
-10.217797 -31.056271 49.260546
-10.624844 -30.002174 49.453266
-10.936281 -30.649172 48.46181
-9.502852 -31.559704 50.009613
-10.217797 -31.056271 49.260546
-8.813782 -31.997715 50.744268
-9.217288 -30.847283 50.986658
-9.502852 -31.559704 50.009613
-8.102958 -32.471304 51.52285
-8.813782 -31.997715 50.744268
-27.077836 -19.306447 36.659078
-26.241059 -19.520474 37.259012
-27.635992 -18.242582 36.425027
-27.077836 -19.306447 36.659078
-28.210547 -17.112092 36.159662
-27.635992 -18.242582 36.425027
-27.417858 -17.277116 36.793152
-28.754872 -15.994204 35.856831
-28.210547 -17.112092 36.159662
-29.243932 -14.943091 35.557917
-28.754872 -15.994204 35.856831
-28.481473 -15.095513 36.228872
-29.756057 -13.833129 35.184679
-30.029456 -14.73182 34.812638
-29.243932 -14.943091 35.557917
-8.335055 -21.577205 57.315416
-7.40559 -22.018591 58.101242
-7.865889 -20.983238 57.986662
-12.341675 -29.826175 46.935429
-11.614355 -30.311712 47.667681
-12.070647 -29.109538 47.922277
-12.533922 -30.605325 46.037155
-12.341675 -29.826175 46.935429
-12.990214 -29.403151 46.291752
-12.732823 -31.320113 45.190176
-12.533922 -30.605325 46.037155
-13.395522 -30.918304 44.548365
-12.732823 -31.320113 45.190176
-14.070586 -30.488307 43.920119
-13.395522 -30.918304 44.548365
-13.857526 -29.752304 44.765232
-14.699134 -30.111235 43.366913
-14.070586 -30.488307 43.920119
-15.431327 -29.714528 42.698799
-14.699134 -30.111235 43.366913
-15.264784 -28.925598 43.468872
-16.15146 -29.30705 42.119551
-15.431327 -29.714528 42.698799
-16.15146 -29.30705 42.119551
-16.684894 -28.100254 42.274504
-17.892798 -26.545602 41.86853
-17.180754 -26.930698 42.462385
-17.700741 -25.804685 42.582666
-17.892798 -26.545602 41.86853
-18.587919 -26.214756 41.334339
-20.744976 -11.793267 45.727413
-20.313197 -12.808307 46.046523
-19.983628 -12.179009 46.596991
-21.504413 -11.354166 44.844576
-20.744976 -11.793267 45.727413
-8.218466 -19.974678 57.922938
-7.865889 -20.983238 57.986662
-9.178794 -19.550818 57.104723
-8.218466 -19.974678 57.922938
-10.015989 -19.211976 56.336136
-9.632549 -20.203009 56.432249
-9.178794 -19.550818 57.104723
-10.460567 -18.19382 56.183998
-10.925655 -17.178514 55.958396
-10.914322 -18.84601 55.511524
-10.015989 -19.211976 56.336136
-10.460567 -18.19382 56.183998
-13.497054 -15.813675 53.555382
-12.648004 -16.319254 54.360205
-13.883676 -16.416563 52.954563
-13.497054 -15.813675 53.555382
-14.292651 -15.372007 52.767185
-16.795381 -14.062724 50.131031
-15.976679 -14.494305 51.014581
-17.215664 -14.631211 49.459694
-16.795381 -14.062724 50.131031
-17.631767 -13.590342 49.223526
-22.951291 -10.618104 43.164272
-22.210588 -11.010576 44.036237
-22.674984 -9.893294 43.640242
-25.278361 -7.524835 40.604224
-24.534415 -7.950391 41.508164
-26.001314 -7.190207 39.757677
-26.793286 -6.843761 38.802729
-25.66225 -8.241115 40.144875
-25.278361 -7.524835 40.604224
-26.001314 -7.190207 39.757677
-31.371356 -4.867432 33.323569
-30.594517 -5.123121 34.28017
-31.74674 -5.646847 32.982039
-31.371356 -4.867432 33.323569
-32.120199 -6.483787 32.618462
-31.386089 -6.71059 33.508974
-31.74674 -5.646847 32.982039
-32.461975 -7.425214 32.315584
-32.120199 -6.483787 32.618462
-32.822626 -6.361471 31.788649
-34.925962 -7.854642 29.353346
-34.565855 -8.929859 29.914793
-34.238536 -7.974238 30.229271
-34.98303 -5.921424 29.011373
-34.29748 -6.022726 29.929741
-34.681866 -5.04513 29.273291
-35.27421 -6.874211 28.750259
-34.98303 -5.921424 29.011373
-34.925962 -7.854642 29.353346
-35.27421 -6.874211 28.750259
-6.950678 -23.062045 58.210538
-6.481511 -22.468078 58.881785
-7.40559 -22.018591 58.101242
-3.962728 -31.986412 57.615357
-3.440542 -31.369163 58.54557
-4.310888 -30.896121 57.708962
-3.962728 -31.986412 57.615357
-4.479756 -32.67129 56.615782
3 0 35 33
3 0 38 36
3 0 33 38
3 1 41 40
3 1 42 41
3 135 43 136
3 2 45 44
3 3 48 46
3 3 50 48
3 4 53 51
3 6 56 54
3 6 58 56
3 6 60 58
3 2 63 61
3 2 44 63
3 7 67 66
3 7 137 139
3 139 138 67
3 137 138 139
3 5 70 68
3 8 74 72
3 10 75 34
3 10 76 75
3 11 79 77
3 13 80 37
3 13 81 80
3 13 83 81
3 8 84 39
3 8 72 84
3 15 140 141
3 16 142 144
3 142 85 143
3 142 143 144
3 16 86 85
3 17 89 87
3 19 145 146
3 19 147 149
3 147 90 148
3 147 148 149
3 9 91 73
3 20 92 47
3 20 93 92
3 20 94 93
3 21 95 49
3 21 96 95
3 22 99 97
3 24 100 52
3 24 101 100
3 12 102 78
3 25 103 55
3 25 104 103
3 25 105 104
3 26 106 57
3 26 107 106
3 26 108 107
3 27 109 59
3 27 150 152
3 152 151 109
3 150 151 152
3 14 110 82
3 153 111 154
3 155 154 62
3 153 154 155
3 157 156 111
3 159 158 112
3 160 114 161
3 162 115 163
3 164 163 114
3 162 163 164
3 165 116 166
3 167 117 168
3 169 168 116
3 167 168 169
3 170 118 171
3 172 112 173
3 174 173 118
3 172 173 174
3 175 119 176
3 177 176 113
3 175 176 177
3 28 120 64
3 28 121 120
3 29 178 180
3 178 122 179
3 178 179 180
3 29 123 122
3 29 124 123
3 30 125 65
3 30 126 125
3 31 181 182
3 31 183 185
3 183 127 184
3 183 184 185
3 31 128 127
3 23 129 98
3 32 130 69
3 32 131 130
3 18 132 88
3 186 133 187
3 188 187 71
3 186 187 188
3 189 134 190
3 191 190 133
3 189 190 191
3 193 192 134
3 33 34 8
3 35 34 33
3 35 10 34
3 36 37 11
3 38 37 36
3 38 13 37
3 38 39 13
3 33 39 38
3 33 8 39
3 40 194 196
3 196 195 15
3 194 195 196
3 41 197 199
3 199 198 40
3 197 198 199
3 41 200 201
3 41 202 203
3 42 204 206
3 206 205 41
3 204 205 206
3 42 207 208
3 43 209 210
3 43 211 213
3 211 16 212
3 211 212 213
3 215 214 17
3 44 216 217
3 45 218 220
3 220 219 44
3 218 219 220
3 45 221 223
3 221 19 222
3 221 222 223
3 46 47 9
3 48 47 46
3 48 20 47
3 48 49 20
3 50 49 48
3 50 21 49
3 51 52 22
3 53 52 51
3 53 24 52
3 54 55 12
3 56 55 54
3 56 25 55
3 56 57 25
3 58 57 56
3 58 26 57
3 58 59 26
3 60 59 58
3 60 27 59
3 61 62 14
3 63 62 61
3 63 224 226
3 226 225 62
3 224 225 226
3 63 227 228
3 44 229 231
3 231 230 63
3 229 230 231
3 44 232 233
3 234 64 235
3 236 64 237
3 238 28 239
3 240 239 64
3 238 239 240
3 241 29 242
3 243 65 244
3 245 244 29
3 243 244 245
3 246 65 247
3 248 30 249
3 250 249 65
3 248 249 250
3 251 31 252
3 254 253 31
3 66 255 256
3 67 257 259
3 259 258 66
3 257 258 259
3 67 260 261
3 67 262 263
3 265 264 67
3 68 69 23
3 70 69 68
3 70 32 69
3 266 71 267
3 268 267 18
3 266 267 268
3 269 71 270
3 272 271 71
3 72 73 2
3 74 73 72
3 74 9 73
3 34 74 8
3 75 74 34
3 75 9 74
3 75 46 9
3 76 46 75
3 76 3 46
3 77 78 4
3 79 78 77
3 79 12 78
3 37 79 11
3 80 79 37
3 80 12 79
3 80 54 12
3 81 54 80
3 81 6 54
3 81 82 6
3 83 82 81
3 83 14 82
3 39 83 13
3 84 83 39
3 84 14 83
3 84 61 14
3 72 61 84
3 72 2 61
3 274 273 15
3 85 275 276
3 85 277 278
3 85 279 281
3 279 66 280
3 279 280 281
3 86 66 85
3 86 7 66
3 87 88 5
3 89 88 87
3 89 18 88
3 282 89 283
3 284 283 17
3 282 283 284
3 285 89 286
3 287 18 288
3 289 288 89
3 287 288 289
3 291 290 18
3 90 292 293
3 90 294 295
3 73 45 2
3 91 45 73
3 91 19 45
3 47 91 9
3 92 91 47
3 92 19 91
3 92 90 19
3 93 90 92
3 93 296 298
3 298 297 90
3 296 297 298
3 93 299 300
3 94 301 303
3 303 302 93
3 301 302 303
3 94 304 306
3 304 15 305
3 304 305 306
3 49 94 20
3 95 94 49
3 95 15 94
3 95 40 15
3 96 40 95
3 96 1 40
3 97 307 309
3 307 98 308
3 307 308 309
3 99 98 97
3 99 23 98
3 52 99 22
3 100 99 52
3 100 23 99
3 100 68 23
3 101 68 100
3 101 5 68
3 78 53 4
3 102 53 78
3 102 24 53
3 55 102 12
3 103 102 55
3 103 24 102
3 103 101 24
3 104 101 103
3 104 5 101
3 104 87 5
3 105 87 104
3 105 17 87
3 57 105 25
3 106 105 57
3 106 17 105
3 106 310 312
3 312 311 17
3 310 311 312
3 107 313 315
3 315 314 106
3 313 314 315
3 107 316 317
3 107 318 319
3 108 320 322
3 322 321 107
3 320 321 322
3 108 323 324
3 59 108 26
3 109 108 59
3 109 325 327
3 327 326 108
3 325 326 327
3 109 328 329
3 331 330 109
3 82 60 6
3 110 60 82
3 110 27 60
3 62 110 14
3 111 110 62
3 111 27 110
3 111 332 334
3 334 333 27
3 332 333 334
3 336 335 111
3 112 113 0
3 337 113 338
3 339 338 112
3 337 338 339
3 341 340 113
3 342 97 343
3 344 97 345
3 346 22 347
3 348 347 97
3 346 347 348
3 114 349 350
3 114 351 353
3 351 22 352
3 351 352 353
3 114 51 22
3 115 51 114
3 115 4 51
3 354 115 355
3 116 356 358
3 356 115 357
3 356 357 358
3 116 4 115
3 116 77 4
3 117 77 116
3 117 11 77
3 359 117 360
3 118 361 363
3 361 117 362
3 361 362 363
3 118 11 117
3 118 36 11
3 112 36 118
3 112 0 36
3 113 35 0
3 119 35 113
3 119 10 35
3 64 364 366
3 364 119 365
3 364 365 366
3 120 119 64
3 120 10 119
3 120 76 10
3 121 76 120
3 121 3 76
3 367 28 368
3 122 369 370
3 122 371 373
3 371 28 372
3 371 372 373
3 122 121 28
3 123 121 122
3 123 3 121
3 123 50 3
3 124 50 123
3 124 21 50
3 65 124 29
3 125 124 65
3 125 21 124
3 125 96 21
3 126 96 125
3 126 1 96
3 374 30 375
3 376 30 377
3 378 126 379
3 380 379 30
3 378 379 380
3 127 381 383
3 381 126 382
3 381 382 383
3 127 1 126
3 127 42 1
3 128 42 127
3 128 384 386
3 386 385 42
3 384 385 386
3 387 128 388
3 389 388 31
3 387 388 389
3 390 128 391
3 393 392 128
3 98 394 396
3 394 43 395
3 394 395 396
3 129 43 98
3 129 16 43
3 69 129 23
3 130 129 69
3 130 16 129
3 130 86 16
3 131 86 130
3 131 7 86
3 88 70 5
3 132 70 88
3 132 32 70
3 71 132 18
3 133 132 71
3 133 32 132
3 133 131 32
3 134 131 133
3 134 7 131
3 134 397 399
3 399 398 7
3 397 398 399
3 401 400 134
