ply
format ascii 1.0
element vertex 221
property float x
property float y
property float z
element face 221
property list uchar int vertex_index
end_header
-5.613364 29.445332 -65.26532
-12.573693 32.623173 -62.722458
-20.395658 28.423046 -65.288147
-12.739565 26.946716 -70.018173
-6.081343 35.838528 -58.220505
-9.004798 31.590166 -64.582909
-12.680813 30.251247 -66.763519
-8.919678 28.421505 -68.008133
-8.889956 24.448641 -70.466385
-5.532343 25.623814 -67.884689
-16.276468 30.807854 -64.501144
-16.513315 28.152 -68.402946
-9.267519 34.117668 -60.625797
-5.706524 32.66906 -62.033184
-2.597654 30.445036 -62.140545
-7.352966 30.672647 -65.084328
-8.943569 29.970074 -66.526947
-7.186428 29.008818 -66.648842
-7.218365 27.17724 -68.096611
-5.5672 27.562731 -66.713638
-14.305949 32.703053 -61.365078
-16.169575 31.733356 -62.217945
-14.411837 31.782902 -63.637661
-12.583318 28.692995 -68.550491
-14.509259 29.236872 -67.777687
-14.554895 27.679468 -69.364845
-16.588095 26.495237 -69.866791
-14.664906 25.786995 -70.714844
-12.762739 24.88903 -71.222557
-7.238864 23.039619 -70.159256
-7.749679 36.2658 -57.319202
-9.220572 35.221821 -58.588303
-7.5314 34.965149 -59.390568
-7.453078 33.576668 -61.430126
-5.860105 34.298153 -60.150463
-19.95941 29.574038 -63.234303
-22.030729 28.145332 -63.526058
-10.902794 32.170929 -63.934532
-12.658879 31.53684 -64.807098
-10.763557 30.917862 -65.82135
-10.74777 29.439669 -67.591156
-10.875863 27.769714 -69.153633
-10.822744 25.840139 -70.425613
-9.025895 26.606947 -69.386292
-7.291544 25.264931 -69.272079
-5.583963 23.604103 -68.831749
-17.992445 30.70216 -62.93919
-18.275803 29.677982 -65.117088
-14.553565 30.61414 -65.822937
-16.411142 29.593161 -66.607941
-18.365227 28.499937 -67.005722
-18.567389 26.958275 -68.649895
-12.59411 33.488411 -60.651485
-10.947515 34.379139 -59.522717
-10.877607 33.371216 -61.723644
-9.188635 32.93042 -62.644218
-7.342142 32.189598 -63.275566
-5.643952 31.074911 -63.729546
-4.330753 33.483559 -60.551334
-4.091657 31.703722 -62.163853
-3.984968 29.878252 -63.691528
-4.028709 27.951927 -65.179375
-3.932946 25.998453 -66.306038
-4.082232 23.895779 -67.427719
-6.472523 21.041407 -70.175365
-7.279724 21.860936 -70.487274
-6.431664 22.22009 -69.847347
-17.687221 25.787935 -69.94244
-16.650553 25.509436 -70.45971
-9.846946 24.101932 -70.926567
-10.813339 24.797681 -70.906181
-9.85635 25.14439 -70.445999
-12.526501 33.930832 -59.458178
-13.327397 33.486981 -59.869865
-3.57606 33.898508 -59.84052
-4.375105 34.342024 -59.670221
-3.344656 31.074379 -62.152199
-3.425015 32.048587 -61.441628
-2.678014 31.419244 -61.429974
-3.262734 27.072729 -64.968357
-3.329035 28.151364 -64.40538
-3.214853 26.095992 -65.531689
-3.980828 26.97519 -65.742706
-3.262734 27.072729 -64.968357
-3.376651 22.892059 -67.026577
-3.340724 24.019618 -66.616318
-3.384442 21.735217 -67.406384
-4.090024 22.738937 -67.807525
-3.376651 22.892059 -67.026577
-15.237762 32.218204 -61.791511
-16.016594 32.121443 -61.041719
-15.084781 32.606291 -60.615286
-15.688959 25.155315 -70.883736
-16.650553 25.509436 -70.45971
-15.6265 26.141116 -70.290818
-14.717654 24.698484 -71.242718
-15.741707 24.066804 -71.41161
-15.688959 25.155315 -70.883736
-13.766571 24.249502 -71.496574
-14.717654 24.698484 -71.242718
-13.713822 25.338013 -70.9687
-12.722161 23.775807 -71.647426
-13.766571 24.249502 -71.496574
-8.14657 22.652608 -70.726429
-8.972116 23.357119 -70.879994
-8.06441 23.74413 -70.312821
-8.14657 22.652608 -70.726429
-7.279724 21.860936 -70.487274
-8.485126 35.74381 -57.953753
-9.221993 35.821827 -57.427977
-8.486547 36.343817 -56.793426
-1.903576 30.711638 -61.403023
-2.678014 31.419244 -61.429974
-20.820243 29.303333 -62.279521
-19.831539 29.941965 -62.135146
-21.855902 28.58898 -62.425398
-20.820243 29.303333 -62.279521
-20.995069 28.859685 -63.38018
-22.835756 27.88395 -62.437454
-21.855902 28.58898 -62.425398
-5.604213 22.502331 -69.183594
-6.431664 22.22009 -69.847347
-6.411414 23.321861 -69.495503
-7.759781 36.931766 -56.255323
-8.486547 36.343817 -56.793426
-6.959186 36.813623 -56.78063
-7.759781 36.931766 -56.255323
-6.125018 36.599987 -57.231282
-6.915511 36.052164 -57.769853
-6.959186 36.813623 -56.78063
-21.383544 27.681523 -65.357692
-20.444599 27.739855 -66.255398
-17.023233 31.576704 -61.321531
-16.016594 32.121443 -61.041719
-17.934669 31.061107 -61.682153
-17.023233 31.576704 -61.321531
-17.08101 31.217758 -62.578568
-18.848057 30.506025 -61.987589
-17.934669 31.061107 -61.682153
-18.975927 30.138099 -63.086747
-19.831539 29.941965 -62.135146
-18.848057 30.506025 -61.987589
-19.429384 27.778301 -67.114186
-20.444599 27.739855 -66.255398
-19.380443 28.461492 -66.146935
-19.530465 27.00747 -67.936272
-19.429384 27.778301 -67.114186
-18.466308 27.729106 -67.827809
-19.672408 26.136463 -68.695736
-20.635484 26.185657 -67.982113
-19.530465 27.00747 -67.936272
-18.676868 26.019454 -69.333992
-17.577742 26.726756 -69.258343
-17.687221 25.787935 -69.94244
-19.672408 26.136463 -68.695736
-18.676868 26.019454 -69.333992
-11.783337 24.322127 -71.304653
-11.792741 25.364584 -70.824085
-10.813339 24.797681 -70.906181
-12.722161 23.775807 -71.647426
-11.783337 24.322127 -71.304653
-9.846946 24.101932 -70.926567
-8.972116 23.357119 -70.879994
-14.183317 33.094302 -60.226661
-15.084781 32.606291 -60.615286
-13.450029 33.095732 -61.008281
-14.183317 33.094302 -60.226661
-13.327397 33.486981 -59.869865
-9.998424 35.287872 -57.957789
-9.221993 35.821827 -57.427977
-10.861895 34.866532 -58.424996
-9.998424 35.287872 -57.957789
-10.084043 34.80048 -59.05551
-11.703204 34.376196 -58.893794
-10.861895 34.866532 -58.424996
-11.770812 33.933775 -60.087101
-12.526501 33.930832 -59.458178
-11.703204 34.376196 -58.893794
-5.324666 36.366947 -57.614279
-6.125018 36.599987 -57.231282
-5.2504 35.519509 -58.504807
-5.324666 36.366947 -57.614279
-5.139781 34.749321 -59.469786
-5.970724 35.06834 -59.185484
-5.2504 35.519509 -58.504807
-5.095429 33.890856 -60.350898
-5.139781 34.749321 -59.469786
-4.375105 34.342024 -59.670221
-3.544563 32.938506 -60.635368
-3.57606 33.898508 -59.84052
-4.211205 32.59364 -61.357594
-3.544563 32.938506 -60.635368
-3.425015 32.048587 -61.441628
-1.87915 29.638725 -62.036894
-1.903576 30.711638 -61.403023
-2.613507 29.397918 -62.885965
-1.87915 29.638725 -62.036894
-3.307164 29.114526 -63.661457
-3.291311 30.161644 -62.916037
-2.613507 29.397918 -62.885965
-4.006838 28.91509 -64.435451
-3.307164 29.114526 -63.661457
-3.329035 28.151364 -64.40538
-3.266081 25.070954 -66.055477
-3.214853 26.095992 -65.531689
-4.007589 24.947116 -66.866878
-3.266081 25.070954 -66.055477
-3.340724 24.019618 -66.616318
-4.840889 22.5931 -68.50954
-4.833098 23.749941 -68.129734
-4.090024 22.738937 -67.807525
-5.604213 22.502331 -69.183594
-4.840889 22.5931 -68.50954
-22.20108 27.542666 -64.476648
-21.213194 28.284189 -64.407102
-21.383544 27.681523 -65.357692
-23.080927 27.350404 -63.443941
-22.20108 27.542666 -64.476648
-23.885953 27.089022 -62.355337
-22.835756 27.88395 -62.437454
-23.080927 27.350404 -63.443941
3 0 17 15
3 0 19 17
3 1 22 20
3 3 25 23
3 3 27 25
3 3 28 27
3 66 65 29
3 64 65 66
3 4 32 30
3 4 34 32
3 2 36 35
3 5 39 37
3 7 40 16
3 7 41 40
3 7 43 41
3 9 44 18
3 9 45 44
3 10 46 21
3 10 47 46
3 6 48 38
3 11 49 24
3 11 50 49
3 11 51 50
3 68 67 26
3 8 69 71
3 71 70 42
3 69 70 71
3 72 52 73
3 12 53 31
3 12 54 53
3 12 55 54
3 13 56 33
3 13 57 56
3 74 58 75
3 14 76 78
3 76 59 77
3 76 77 78
3 14 60 59
3 79 61 80
3 81 62 82
3 83 82 61
3 81 82 83
3 84 63 85
3 88 87 63
3 86 87 88
3 15 16 5
3 17 16 15
3 17 7 16
3 17 18 7
3 19 18 17
3 19 9 18
3 20 89 91
3 89 21 90
3 89 90 91
3 22 21 20
3 22 10 21
3 23 24 6
3 25 24 23
3 25 11 24
3 25 26 11
3 27 26 25
3 27 92 94
3 94 93 26
3 92 93 94
3 27 95 97
3 95 96 97
3 28 98 100
3 100 99 27
3 98 99 100
3 28 101 102
3 29 103 105
3 105 104 8
3 103 104 105
3 107 106 29
3 30 108 110
3 108 31 109
3 108 109 110
3 32 31 30
3 32 12 31
3 32 33 12
3 34 33 32
3 34 13 33
3 111 14 112
3 35 113 114
3 36 115 117
3 117 116 35
3 115 116 117
3 36 118 119
3 37 38 1
3 39 38 37
3 39 6 38
3 16 39 5
3 40 39 16
3 40 6 39
3 40 23 6
3 41 23 40
3 41 3 23
3 41 42 3
3 43 42 41
3 43 8 42
3 18 43 7
3 44 43 18
3 44 8 43
3 44 29 8
3 45 29 44
3 45 120 122
3 122 121 29
3 120 121 122
3 123 30 124
3 125 30 126
3 127 4 128
3 129 128 30
3 127 128 129
3 131 130 2
3 21 132 133
3 46 134 136
3 136 135 21
3 134 135 136
3 46 137 138
3 46 139 141
3 139 35 140
3 139 140 141
3 47 35 46
3 47 2 35
3 38 22 1
3 48 22 38
3 48 10 22
3 24 48 6
3 49 48 24
3 49 10 48
3 49 47 10
3 50 47 49
3 50 2 47
3 50 142 144
3 144 143 2
3 142 143 144
3 51 145 147
3 147 146 50
3 145 146 147
3 51 148 150
3 148 149 150
3 26 51 11
3 151 51 152
3 153 152 26
3 151 152 153
3 155 154 51
3 42 28 3
3 156 28 157
3 158 157 42
3 156 157 158
3 160 159 28
3 162 161 8
3 163 20 164
3 52 165 167
3 165 20 166
3 165 166 167
3 52 1 20
3 31 168 169
3 53 170 172
3 172 171 31
3 170 171 172
3 53 173 174
3 53 175 177
3 175 52 176
3 175 176 177
3 54 52 53
3 54 1 52
3 54 37 1
3 55 37 54
3 55 5 37
3 33 55 12
3 56 55 33
3 56 5 55
3 56 15 5
3 57 15 56
3 57 0 15
3 178 4 179
3 180 4 181
3 182 34 183
3 184 183 4
3 182 183 184
3 58 185 187
3 185 34 186
3 185 186 187
3 58 13 34
3 188 58 189
3 59 190 192
3 190 58 191
3 190 191 192
3 59 13 58
3 59 57 13
3 60 57 59
3 60 0 57
3 193 14 194
3 195 14 196
3 197 60 198
3 199 198 14
3 197 198 199
3 61 200 202
3 200 60 201
3 200 201 202
3 61 0 60
3 61 19 0
3 62 19 61
3 62 9 19
3 203 62 204
3 63 205 207
3 205 62 206
3 205 206 207
3 63 9 62
3 63 45 9
3 208 45 209
3 210 209 63
3 208 209 210
3 212 211 45
3 213 36 214
3 215 214 2
3 213 214 215
3 216 36 217
3 220 219 36
3 218 219 220
