ply
format ascii 1.0
element vertex 522
property float x
property float y
property float z
element face 541
property list uchar int vertex_index
end_header
-20.932058 -56.087105 -20.02438
-21.414686 -44.609932 -20.934381
-18.20752 -47.9744 -26.23209
-25.253162 -85.318695 12.746408
-22.169987 -68.085388 -18.941614
-19.339605 -60.029488 -25.888914
-25.192341 -75.358421 -1.152298
-23.870268 -72.708977 -10.730302
-22.699158 -61.727272 -12.687838
-22.248323 -39.569366 -21.122183
-21.375542 -61.962879 -19.396452
-20.936401 -64.533592 -22.559935
-20.159922 -58.415081 -22.91493
-16.313063 -42.887398 -29.143559
-16.703354 -48.825539 -29.008694
-25.205795 -71.016357 2.373727
-24.487024 -69.954086 -2.694212
-24.592297 -74.389427 -6.073152
-23.782494 -68.946075 -7.45398
-23.078833 -67.331856 -11.78156
-20.95747 -50.173771 -20.51984
-19.747822 -52.296391 -23.178526
-19.726803 -46.359829 -23.542246
-18.348915 -42.286186 -26.201212
-20.253742 -66.519852 -25.957144
-18.598183 -53.901291 -26.079086
-17.352793 -55.226883 -29.075733
-25.877567 -81.171135 11.313988
-26.017191 -80.953911 5.869428
-25.675634 -75.918907 4.152712
-25.893723 -80.360764 0.30563
-23.119125 -70.80928 -15.004985
-22.285465 -64.97332 -15.843429
-21.892677 -59.336086 -16.494352
-22.838207 -56.072952 -13.600096
-21.979851 -53.476734 -17.184826
-22.59761 -47.702843 -17.680405
-23.413813 -42.187668 -18.33728
-21.092827 -59.05191 -19.761852
-20.795156 -60.270473 -21.236414
-20.501822 -57.097664 -21.521257
-15.399191 -40.21529 -30.382389
-15.369299 -42.909 -30.515291
-24.657997 -68.096275 -1.0421
-24.296713 -67.488289 -3.344265
-24.138882 -69.514717 -5.066866
-23.935095 -66.999146 -5.662582
-23.577492 -66.412888 -7.906157
-21.169771 -47.306866 -20.684996
-20.39086 -48.391689 -22.015455
-20.511677 -45.737732 -22.247477
-19.280407 -41.564472 -24.932091
-18.594637 -39.504807 -26.196165
-17.585287 -39.911659 -27.494249
-25.125507 -87.597961 10.704863
-25.595064 -85.630058 10.072493
-22.684166 -71.182388 -18.758066
-22.091337 -69.569618 -20.64978
-20.214725 -62.512146 -24.223236
-20.628351 -65.617775 -24.289478
-19.79497 -63.290821 -25.875294
-18.892067 -60.979908 -27.40773
-19.025873 -50.150982 -24.712029
-19.126862 -52.905552 -24.699474
-18.291239 -50.702911 -26.262653
-15.901281 -49.258873 -30.47345
-16.954227 -51.942314 -29.091892
-25.971485 -78.713463 13.066381
-25.979616 -78.920692 10.304541
-25.9741 -81.03717 8.665721
-25.960457 -78.64019 7.799326
-25.11735 -73.020309 0.54602
-25.425175 -73.470406 3.221106
-25.450516 -75.598412 1.534515
-25.770113 -78.302391 2.400026
-25.568666 -77.806114 -0.273203
-25.322384 -77.371239 -3.022276
-24.239746 -73.642303 -8.473173
-24.76532 -76.331856 -7.773578
-24.415907 -75.595238 -10.211693
-24.065586 -74.771439 -12.405001
-23.649986 -73.6716 -14.59889
-23.532423 -71.921684 -12.836292
-22.822708 -64.422173 -12.235765
-22.691534 -66.137459 -13.808308
-22.433428 -63.505466 -14.32327
-22.039745 -62.131725 -16.149273
-22.328644 -60.56076 -14.536522
-22.400948 -54.785858 -15.517162
-22.695301 -51.916668 -15.764826
-22.207912 -50.618458 -17.492605
-24.022171 -43.482483 -16.673548
-24.591988 -40.839539 -16.872663
-23.989252 -39.659531 -18.41157
-25.21361 -38.065289 -17.103437
-21.789347 -41.923893 -21.09049
-20.827066 -43.087223 -22.293118
-21.700796 -64.867653 -19.228844
-21.59745 -66.37587 -20.738224
-21.142439 -63.226299 -21.011946
-20.497204 -61.430786 -22.777954
-19.764133 -59.137276 -24.360815
-17.327513 -45.275162 -27.653221
-17.442654 -48.30669 -27.639412
-16.471994 -45.820679 -29.056816
-15.623482 -46.100319 -30.447001
-24.856821 -70.413864 -0.152948
-24.816957 -72.566353 -1.762675
-24.862209 -74.608162 -3.615596
-24.468746 -72.072403 -4.304205
-24.139326 -71.624504 -6.735959
-23.794262 -70.915451 -9.043651
-23.428505 -70.06797 -11.348263
-23.430239 -68.190453 -9.697712
-23.205666 -65.520027 -10.109234
-23.092535 -62.756138 -10.582023
-20.866425 -53.096149 -20.329636
-20.354792 -54.16256 -21.690708
-20.301014 -51.210346 -21.891764
-19.693048 -49.357285 -23.337734
-18.940317 -47.174927 -24.895828
-19.9217 -43.686409 -23.608946
-19.069723 -44.234013 -24.900324
-18.19297 -44.984974 -26.26166
-17.361866 -42.627998 -27.619337
-16.518526 -40.274891 -28.890738
-21.391882 -67.499069 -22.425068
-21.193932 -68.856728 -24.072691
-19.855761 -55.189487 -23.158684
-19.421455 -56.128521 -24.508331
-18.932062 -57.064636 -26.018909
-17.667038 -51.552795 -27.634098
-17.988943 -54.584671 -27.579657
-18.369772 -57.557789 -27.531097
-25.06604 -82.788872 17.603888
-25.383183 -83.048874 14.829978
-25.756014 -80.942749 13.949438
-25.636402 -83.381897 12.104535
-25.873917 -83.414612 9.303265
-26.035402 -83.301361 6.717061
-25.690176 -73.710556 5.973733
-25.854925 -76.32106 6.789882
-25.888685 -78.493073 5.036905
-25.997507 -80.808678 3.025608
-25.059214 -76.830276 -5.328341
-23.202305 -72.527519 -16.7246
-22.658278 -69.503654 -17.080233
-23.051373 -68.907555 -13.306332
-22.676756 -67.90094 -15.279881
-22.225624 -66.538513 -17.297411
-21.855688 -63.481056 -17.633389
-21.595858 -60.539894 -17.954439
-21.419855 -57.695156 -18.363031
-23.110704 -60.008041 -11.083742
-23.243053 -57.167393 -11.667758
-22.7197 -58.876858 -13.076913
-22.301714 -57.635509 -15.040148
-21.869284 -56.443481 -16.841021
-21.40106 -54.922878 -18.591015
-21.501579 -52.068554 -18.831944
-21.726021 -49.185959 -19.047895
-22.025377 -46.256817 -19.335556
-22.960104 -44.861694 -18.075373
-22.36241 -43.467953 -19.659748
-22.8202 -40.856026 -19.82066
-14.833171 -40.261797 -31.144022
-14.930559 -38.949981 -30.994515
-24.241501 -66.220276 -3.76276
-24.438524 -66.450271 -2.565385
-24.060692 -65.975705 -4.921919
-24.115904 -67.243718 -4.503424
-24.241501 -66.220276 -3.76276
-23.871015 -65.670448 -6.064583
-24.060692 -65.975705 -4.921919
-18.809557 -38.250282 -26.13248
-19.135064 -39.260323 -25.518711
-18.223069 -38.390608 -26.833004
-18.809557 -38.250282 -26.13248
-25.189335 -86.458328 11.725635
-24.858536 -87.464909 12.018576
-24.922364 -86.325276 13.039349
-16.046506 -50.793314 -30.528793
-15.440342 -49.221455 -31.239521
-25.982561 -77.626678 9.966093
-26.027373 -77.700172 11.269623
-25.972982 -77.486427 8.713485
-25.970036 -78.780441 9.051934
-25.982561 -77.626678 9.966093
-23.137566 -51.092867 -15.005854
-22.907567 -52.575983 -14.874219
-22.875059 -50.601872 -15.888243
-23.137566 -51.092867 -15.005854
-25.222777 -39.999014 -16.16149
-24.893904 -41.36394 -16.054882
-25.533589 -38.611889 -16.276877
-24.902799 -39.452414 -16.98805
-25.222777 -39.999014 -16.16149
-21.747649 -39.948499 -21.740671
-21.518161 -41.125763 -21.724824
-22.018835 -40.746629 -21.106336
-15.060488 -44.70545 -31.137766
-15.496391 -44.50466 -30.481146
-14.933397 -43.109791 -31.171911
-15.146189 -46.104204 -31.200738
-15.060488 -44.70545 -31.137766
-23.324937 -64.536075 -9.354726
-23.391579 -65.966457 -9.007696
-23.51085 -64.982506 -8.253188
-23.268372 -63.154131 -9.591121
-23.149101 -64.138082 -10.345629
-23.324937 -64.536075 -9.354726
-20.103387 -42.370281 -23.591236
-20.374383 -43.386816 -22.951032
-20.55607 -42.070688 -22.933322
-16.605731 -38.883299 -28.880249
-17.051907 -40.093275 -28.192493
-17.139111 -38.701683 -28.182005
-16.056237 -38.951048 -29.549685
-16.605731 -38.883299 -28.880249
-20.519256 -68.131253 -25.908666
-20.989351 -69.29969 -24.966439
-20.723837 -67.68829 -25.014917
-20.025804 -66.967075 -26.751534
-20.519256 -68.131253 -25.908666
-17.577628 -56.787503 -29.051832
-18.086118 -57.952956 -28.279514
-17.861283 -56.392336 -28.303415
-25.316302 -81.842594 17.182401
-25.200004 -81.759727 18.574295
-25.474874 -81.972595 15.795446
-25.224612 -82.918873 16.216933
-25.316302 -81.842594 17.182401
-26.077762 -82.132847 4.905718
-26.086868 -83.306572 5.329535
-26.026297 -82.127636 6.293245
-25.369637 -71.15559 3.721824
-25.300315 -69.902618 3.187882
-26.02221 -81.654435 0.787288
-26.074101 -81.878391 2.147277
-25.945615 -80.584721 1.665619
-25.996738 -81.49643 -0.641658
-26.02221 -81.654435 0.787288
-25.022999 -77.643624 -7.545456
-24.882915 -77.374306 -8.714177
-23.390498 -58.996992 -10.348054
-23.298331 -60.399435 -10.091501
-23.04063 -56.620172 -12.633927
-23.382741 -55.856916 -11.863784
-23.180318 -55.309696 -12.829953
-23.670244 -39.033705 -19.149349
-24.231668 -38.381281 -18.556854
-22.019843 -38.752403 -21.691955
-22.506063 -38.407758 -21.129275
-14.818225 -41.608652 -31.210473
-15.384245 -41.562145 -30.44884
-14.833171 -40.261797 -31.144022
-14.933397 -43.109791 -31.171911
-14.818225 -41.608652 -31.210473
-24.619166 -66.754265 -1.414303
-24.811637 -67.011539 -0.197899
-24.477355 -67.792282 -2.193182
-24.619166 -66.754265 -1.414303
-24.438524 -66.450271 -2.565385
-23.692213 -65.377319 -7.186371
-23.756293 -66.706017 -6.78437
-23.871015 -65.670448 -6.064583
-23.51085 -64.982506 -8.253188
-23.692213 -65.377319 -7.186371
-19.477949 -40.290155 -24.886674
-19.782741 -41.309313 -24.252809
-18.937522 -40.534639 -25.564128
-19.477949 -40.290155 -24.886674
-19.135064 -39.260323 -25.518711
-17.718394 -38.594034 -27.482046
-18.089962 -39.708233 -26.845207
-18.223069 -38.390608 -26.833004
-17.139111 -38.701683 -28.182005
-17.718394 -38.594034 -27.482046
-24.782291 -88.498703 10.919342
-24.858536 -87.464909 12.018576
-25.070231 -88.777657 9.499582
-24.782291 -88.498703 10.919342
-25.352388 -87.699417 9.336652
-25.070231 -88.777657 9.499582
-25.587167 -86.715465 9.020467
-25.352388 -87.699417 9.336652
-25.360285 -86.61401 10.388678
-25.755355 -85.65839 8.660623
-25.587167 -86.715465 9.020467
-22.666784 -71.914185 -19.603763
-22.958111 -72.662453 -18.662104
-22.37037 -71.107799 -20.549619
-22.666784 -71.914185 -19.603763
-22.387752 -70.376003 -19.703923
-22.021448 -70.150917 -21.457729
-22.37037 -71.107799 -20.549619
-19.564148 -63.754762 -26.692626
-19.793534 -65.369278 -26.733551
-20.024356 -64.905337 -25.916219
-19.112696 -62.599306 -27.458844
-19.564148 -63.754762 -26.692626
-19.343519 -62.135365 -26.641512
-18.589141 -61.360003 -28.233042
-19.112696 -62.599306 -27.458844
-16.572978 -52.135035 -29.838014
-16.427754 -50.600594 -29.782671
-16.046506 -50.793314 -30.528793
-16.772261 -53.777319 -29.829935
-17.15351 -53.584598 -29.083813
-16.572978 -52.135035 -29.838014
-16.974193 -55.336506 -29.840047
-16.772261 -53.777319 -29.829935
-26.023308 -77.596558 12.650543
-26.052793 -77.635411 13.997193
-25.975551 -78.817078 11.685461
-26.023308 -77.596558 12.650543
-26.027373 -77.700172 11.269623
-25.650568 -78.832413 -1.243552
-25.813097 -80.109737 -0.954135
-25.731195 -79.083439 0.016214
-25.527428 -78.614975 -2.618088
-25.650568 -78.832413 -1.243552
-25.445525 -77.588676 -1.64774
-25.435842 -78.469784 -3.936212
-25.527428 -78.614975 -2.618088
-24.708209 -77.005997 -9.933235
-24.882915 -77.374306 -8.714177
-24.590613 -75.963547 -8.992636
-24.52367 -76.56538 -11.110748
-24.708209 -77.005997 -9.933235
-24.348509 -76.153481 -12.207401
-24.52367 -76.56538 -11.110748
-24.240747 -75.183338 -11.308347
-24.139881 -75.631439 -13.335821
-24.348509 -76.153481 -12.207401
-23.857786 -74.221519 -13.501946
-23.932081 -75.08152 -14.432766
-24.139881 -75.631439 -13.335821
-22.97902 -54.654125 -13.791854
-23.180318 -55.309696 -12.829953
-22.76039 -54.010578 -14.750388
-22.619577 -55.429405 -14.558629
-22.97902 -54.654125 -13.791854
-22.548125 -53.351263 -15.640994
-22.76039 -54.010578 -14.750388
-22.907567 -52.575983 -14.874219
-22.631365 -49.952766 -16.752133
-22.451607 -51.267563 -16.628715
-22.875059 -50.601872 -15.888243
-22.826214 -48.494959 -16.846032
-22.402761 -49.160651 -17.586505
-22.631365 -49.952766 -16.752133
-24.608995 -42.685412 -15.955324
-24.334122 -44.057747 -15.766192
-24.30708 -42.161011 -16.773105
-24.608995 -42.685412 -15.955324
-24.893904 -41.36394 -16.054882
-24.843846 -37.58416 -17.902787
-24.231668 -38.381281 -18.556854
-24.601431 -38.86241 -17.757503
-21.03702 -41.707428 -22.326138
-21.308206 -42.505558 -21.691804
-21.518161 -41.125763 -21.724824
-20.55607 -42.070688 -22.933322
-21.03702 -41.707428 -22.326138
-21.747649 -39.948499 -21.740671
-22.019843 -38.752403 -21.691955
-25.040076 -85.18351 14.096231
-24.922364 -86.325276 13.039349
-15.285089 -47.683481 -31.213963
-15.762382 -47.679596 -30.460225
-15.146189 -46.104204 -31.200738
-15.440342 -49.221455 -31.239521
-15.285089 -47.683481 -31.213963
-25.123514 -69.656909 1.939678
-25.300315 -69.902618 3.187882
-24.849615 -68.196868 0.231764
-24.811637 -67.011539 -0.197899
-24.949027 -69.355663 0.67634
-24.849615 -68.196868 0.231764
-24.757409 -69.25507 -0.597524
-25.031308 -70.715111 1.11039
-25.123514 -69.656909 1.939678
-24.949027 -69.355663 0.67634
-19.601053 -42.62544 -24.270519
-20.103387 -42.370281 -23.591236
-19.782741 -41.309313 -24.252809
-15.496569 -38.921247 -30.29551
-15.958859 -40.245091 -29.636564
-16.056237 -38.951048 -29.549685
-14.930559 -38.949981 -30.994515
-15.496569 -38.921247 -30.29551
-21.67172 -69.115643 -22.345373
-22.021448 -70.150917 -21.457729
-21.741609 -68.534344 -21.537424
-21.572745 -69.794472 -23.169185
-21.67172 -69.115643 -22.345373
-21.292907 -68.177898 -23.24888
-21.458651 -70.470318 -24.056501
-21.572745 -69.794472 -23.169185
-21.458651 -70.470318 -24.056501
-20.989351 -69.29969 -24.966439
-20.025804 -66.967075 -26.751534
-19.793534 -65.369278 -26.733551
-18.347265 -59.664015 -28.21783
-18.63092 -59.268849 -27.469414
-18.086118 -57.952956 -28.279514
-18.589141 -61.360003 -28.233042
-18.347265 -59.664015 -28.21783
-17.577628 -56.787503 -29.051832
-16.974193 -55.336506 -29.840047
-25.873261 -37.123005 -16.443086
-25.533589 -38.611889 -16.276877
-25.489974 -36.747509 -17.260209
-25.873261 -37.123005 -16.443086
-24.843846 -37.58416 -17.902787
-25.489974 -36.747509 -17.260209
-24.873456 -82.660095 18.953118
-25.200004 -81.759727 18.574295
-24.703327 -83.701668 17.934278
-24.873456 -82.660095 18.953118
-24.946515 -83.918599 16.524971
-24.703327 -83.701668 17.934278
-25.105086 -84.048599 15.138016
-24.946515 -83.918599 16.524971
-25.224612 -82.918873 16.216933
-25.318172 -84.183785 13.788193
-25.040076 -85.18351 14.096231
-25.105086 -84.048599 15.138016
-25.938932 -78.783844 14.402318
-26.052793 -77.635411 13.997193
-25.831197 -79.898487 14.843847
-25.938932 -78.783844 14.402318
-25.86375 -79.828106 13.50791
-25.66129 -80.919533 15.355176
-25.831197 -79.898487 14.843847
-25.569598 -81.995812 14.389708
-25.474874 -81.972595 15.795446
-25.66129 -80.919533 15.355176
-25.894782 -84.550667 8.276009
-25.755355 -85.65839 8.660623
-25.73449 -84.522335 9.687879
-25.975524 -84.494042 6.982907
-25.894782 -84.550667 8.276009
-25.954659 -83.357987 8.010163
-26.087232 -84.438446 5.643285
-25.975524 -84.494042 6.982907
-26.087232 -84.438446 5.643285
-26.086868 -83.306572 5.329535
-25.479328 -72.382614 4.145513
-25.369637 -71.15559 3.721824
-25.315485 -72.243381 2.797416
-25.611828 -72.50269 5.521826
-25.479328 -72.382614 4.145513
-25.557676 -73.590481 4.597419
-25.753386 -72.611714 6.813389
-25.611828 -72.50269 5.521826
-25.801189 -73.83976 7.299283
-25.753386 -72.611714 6.813389
-25.883563 -75.145012 7.707358
-25.801189 -73.83976 7.299283
-25.772551 -75.015808 6.381808
-25.920216 -76.326862 8.208763
-25.883563 -75.145012 7.707358
-25.907691 -77.480625 7.294604
-25.972982 -77.486427 8.713485
-25.920216 -76.326862 8.208763
-26.06792 -82.060231 3.483808
-26.077762 -82.132847 4.905718
-26.007349 -80.881294 4.447518
-26.06792 -82.060231 3.483808
-26.074101 -81.878391 2.147277
-25.996738 -81.49643 -0.641658
-25.813097 -80.109737 -0.954135
-25.304257 -78.199303 -5.089244
-25.435842 -78.469784 -3.936212
-25.190799 -77.100758 -4.175308
-25.169946 -77.892833 -6.322838
-24.912267 -76.581066 -6.550959
-25.022999 -77.643624 -7.545456
-25.304257 -78.199303 -5.089244
-25.169946 -77.892833 -6.322838
-23.715483 -74.622795 -15.560289
-23.932081 -75.08152 -14.432766
-23.491643 -74.050754 -16.623143
-23.715483 -74.622795 -15.560289
-23.426145 -73.099559 -15.661745
-23.21718 -73.335018 -17.645371
-23.491643 -74.050754 -16.623143
-22.943236 -71.854953 -17.741333
-22.958111 -72.662453 -18.662104
-23.21718 -73.335018 -17.645371
-23.289247 -61.773483 -9.840642
-23.268372 -63.154131 -9.591121
-23.101619 -61.382089 -10.832883
-23.289247 -61.773483 -9.840642
-23.298331 -60.399435 -10.091501
-23.594859 -56.245071 -10.918748
-23.382741 -55.856916 -11.863784
-23.456672 -57.576668 -10.640061
-23.594859 -56.245071 -10.918748
-23.176879 -58.587717 -11.37575
-23.390498 -58.996992 -10.348054
-23.456672 -57.576668 -10.640061
-23.053615 -47.01721 -17.019772
-22.826214 -48.494959 -16.846032
-23.765896 -44.90703 -16.516343
-24.334122 -44.057747 -15.766192
-23.234862 -45.596636 -17.217256
-23.765896 -44.90703 -16.516343
-23.491138 -44.172089 -17.37446
-22.778857 -46.282269 -17.877889
-23.053615 -47.01721 -17.019772
-23.234862 -45.596636 -17.217256
-23.085718 -39.631952 -19.853895
-23.404726 -40.257779 -19.116115
-23.670244 -39.033705 -19.149349
-22.799779 -38.988623 -20.504656
-22.534261 -40.212696 -20.471421
-23.085718 -39.631952 -19.853895
-22.506063 -38.407758 -21.129275
-22.799779 -38.988623 -20.504656
3 0 40 38
3 166 165 41
3 167 44 168
3 169 46 170
3 171 170 44
3 169 170 171
3 173 172 46
3 1 50 48
3 174 52 175
3 177 176 52
3 3 178 180
3 178 54 179
3 178 179 180
3 3 55 54
3 4 57 56
3 5 60 58
3 5 61 60
3 2 64 62
3 182 181 65
3 183 68 184
3 185 70 186
3 187 186 68
3 185 186 187
3 6 73 71
3 6 75 73
3 6 76 75
3 7 79 77
3 7 80 79
3 7 82 80
3 8 85 83
3 8 87 85
3 188 89 189
3 191 190 89
3 192 92 193
3 194 94 195
3 196 195 92
3 194 195 196
3 9 197 199
3 199 198 95
3 197 198 199
3 10 99 97
3 12 100 39
3 12 101 100
3 13 104 102
3 200 105 201
3 202 201 42
3 200 201 202
3 204 203 105
3 16 106 43
3 16 107 106
3 16 109 107
3 18 110 45
3 18 111 110
3 18 113 111
3 205 114 206
3 207 206 47
3 205 206 207
3 208 115 209
3 210 209 114
3 208 209 210
3 20 118 116
3 22 119 49
3 22 120 119
3 211 121 212
3 213 212 96
3 211 212 213
3 23 122 51
3 23 123 122
3 23 124 123
3 214 125 215
3 216 215 53
3 214 215 216
3 218 217 125
3 11 126 98
3 24 127 59
3 24 219 221
3 221 220 127
3 219 220 221
3 24 222 223
3 21 128 117
3 25 129 63
3 25 130 129
3 14 131 103
3 26 132 66
3 26 133 132
3 26 224 226
3 226 225 133
3 224 225 226
3 227 134 228
3 229 135 230
3 231 230 134
3 229 230 231
3 27 136 67
3 27 137 136
3 27 138 137
3 28 139 69
3 28 232 234
3 234 233 139
3 232 233 234
3 15 235 236
3 29 140 72
3 29 141 140
3 29 142 141
3 30 143 74
3 30 237 239
3 239 238 143
3 237 238 239
3 30 240 241
3 17 144 108
3 243 242 78
3 31 145 81
3 31 146 145
3 19 147 112
3 32 148 84
3 32 149 148
3 32 150 149
3 33 151 86
3 33 152 151
3 244 153 245
3 34 246 248
3 246 154 247
3 246 247 248
3 34 155 154
3 34 156 155
3 35 157 88
3 35 158 157
3 35 159 158
3 36 160 90
3 36 161 160
3 37 162 91
3 37 163 162
3 37 164 163
3 250 249 93
3 252 251 9
3 38 39 10
3 40 39 38
3 40 12 39
3 41 42 13
3 253 42 254
3 255 254 41
3 253 254 255
3 257 256 42
3 258 43 259
3 44 260 262
3 260 43 261
3 260 261 262
3 44 16 43
3 44 45 16
3 46 45 44
3 46 18 45
3 46 47 18
3 263 47 264
3 265 264 46
3 263 264 265
3 267 266 47
3 48 49 20
3 50 49 48
3 50 22 49
3 268 51 269
3 52 270 272
3 270 51 271
3 270 271 272
3 52 23 51
3 52 53 23
3 273 53 274
3 275 274 52
3 273 274 275
3 277 276 53
3 54 278 279
3 54 280 281
3 54 282 283
3 55 284 286
3 286 285 54
3 284 285 286
3 55 287 288
3 56 289 290
3 57 291 293
3 293 292 56
3 291 292 293
3 57 294 295
3 58 59 11
3 60 59 58
3 60 24 59
3 60 296 298
3 298 297 24
3 296 297 298
3 61 299 301
3 301 300 60
3 299 300 301
3 61 302 303
3 62 63 21
3 64 63 62
3 64 25 63
3 65 66 14
3 304 66 305
3 306 305 65
3 304 305 306
3 307 26 308
3 309 308 66
3 307 308 309
3 311 310 26
3 312 67 313
3 68 314 316
3 314 67 315
3 314 315 316
3 68 27 67
3 68 69 27
3 70 69 68
3 70 28 69
3 71 72 15
3 73 72 71
3 73 29 72
3 73 74 29
3 75 74 73
3 75 30 74
3 75 317 319
3 319 318 30
3 317 318 319
3 76 320 322
3 322 321 75
3 320 321 322
3 76 323 324
3 77 78 17
3 79 78 77
3 79 325 327
3 327 326 78
3 325 326 327
3 79 328 329
3 80 330 332
3 332 331 79
3 330 331 332
3 80 333 334
3 80 335 337
3 335 81 336
3 335 336 337
3 82 81 80
3 82 31 81
3 83 84 19
3 85 84 83
3 85 32 84
3 85 86 32
3 87 86 85
3 87 33 86
3 338 34 339
3 340 88 341
3 342 341 34
3 340 341 342
3 89 343 345
3 343 88 344
3 343 344 345
3 89 35 88
3 89 90 35
3 346 90 347
3 348 347 89
3 346 347 348
3 349 36 350
3 351 350 90
3 349 350 351
3 352 91 353
3 92 354 356
3 354 91 355
3 354 355 356
3 92 37 91
3 92 93 37
3 94 93 92
3 94 357 359
3 359 358 93
3 357 358 359
3 95 96 1
3 360 96 361
3 362 361 95
3 360 361 362
3 364 363 96
3 366 365 9
3 367 3 368
3 97 98 4
3 99 98 97
3 99 11 98
3 39 99 10
3 100 99 39
3 100 11 99
3 100 58 11
3 101 58 100
3 101 5 58
3 102 103 2
3 104 103 102
3 104 14 103
3 42 104 13
3 105 104 42
3 105 14 104
3 105 65 14
3 369 65 370
3 371 370 105
3 369 370 371
3 373 372 65
3 374 15 375
3 43 376 377
3 106 378 380
3 380 379 43
3 378 379 380
3 106 381 383
3 381 15 382
3 381 382 383
3 106 71 15
3 107 71 106
3 107 6 71
3 107 108 6
3 109 108 107
3 109 17 108
3 45 109 16
3 110 109 45
3 110 17 109
3 110 77 17
3 111 77 110
3 111 7 77
3 111 112 7
3 113 112 111
3 113 19 112
3 47 113 18
3 114 113 47
3 114 19 113
3 114 83 19
3 115 83 114
3 115 8 83
3 116 117 0
3 118 117 116
3 118 21 117
3 49 118 20
3 119 118 49
3 119 21 118
3 119 62 21
3 120 62 119
3 120 2 62
3 96 50 1
3 121 50 96
3 121 22 50
3 51 384 386
3 384 121 385
3 384 385 386
3 122 121 51
3 122 22 121
3 122 120 22
3 123 120 122
3 123 2 120
3 123 102 2
3 124 102 123
3 124 13 102
3 53 124 23
3 125 124 53
3 125 13 124
3 125 41 13
3 387 41 388
3 389 388 125
3 387 388 389
3 391 390 41
3 98 57 4
3 126 57 98
3 126 392 394
3 394 393 57
3 392 393 394
3 59 126 11
3 127 126 59
3 127 395 397
3 397 396 126
3 395 396 397
3 127 398 399
3 401 400 127
3 403 402 24
3 117 40 0
3 128 40 117
3 128 12 40
3 63 128 21
3 129 128 63
3 129 12 128
3 129 101 12
3 130 101 129
3 130 5 101
3 103 64 2
3 131 64 103
3 131 25 64
3 66 131 14
3 132 131 66
3 132 25 131
3 132 130 25
3 133 130 132
3 133 5 130
3 133 61 5
3 404 61 405
3 406 405 133
3 404 405 406
3 408 407 61
3 410 409 26
3 411 94 412
3 413 94 414
3 416 415 94
3 134 417 418
3 134 419 420
3 134 421 422
3 135 423 425
3 425 424 134
3 423 424 425
3 135 426 428
3 426 3 427
3 426 427 428
3 67 429 430
3 136 431 433
3 433 432 67
3 431 432 433
3 136 434 435
3 136 436 438
3 436 135 437
3 436 437 438
3 137 135 136
3 137 3 135
3 137 55 3
3 138 55 137
3 138 439 441
3 441 440 55
3 439 440 441
3 69 138 27
3 139 138 69
3 139 442 444
3 444 443 138
3 442 443 444
3 139 445 446
3 448 447 139
3 72 449 451
3 451 450 15
3 449 450 451
3 140 452 454
3 454 453 72
3 452 453 454
3 140 455 456
3 140 457 458
3 141 459 461
3 461 460 140
3 459 460 461
3 141 462 463
3 141 464 466
3 464 70 465
3 464 465 466
3 142 70 141
3 142 28 70
3 74 142 29
3 143 142 74
3 143 28 142
3 143 467 469
3 469 468 28
3 467 468 469
3 471 470 143
3 473 472 30
3 108 76 6
3 144 76 108
3 144 474 476
3 476 475 76
3 474 475 476
3 78 144 17
3 477 144 478
3 479 478 78
3 477 478 479
3 481 480 144
3 81 482 483
3 145 484 486
3 486 485 81
3 484 485 486
3 145 487 488
3 145 489 491
3 489 56 490
3 489 490 491
3 146 56 145
3 146 4 56
3 112 82 7
3 147 82 112
3 147 31 82
3 84 147 19
3 148 147 84
3 148 31 147
3 148 146 31
3 149 146 148
3 149 4 146
3 149 97 4
3 150 97 149
3 150 10 97
3 86 150 32
3 151 150 86
3 151 10 150
3 151 38 10
3 152 38 151
3 152 0 38
3 492 115 493
3 153 494 496
3 494 115 495
3 494 495 496
3 153 8 115
3 154 497 498
3 154 499 500
3 154 501 503
3 501 153 502
3 501 502 503
3 155 153 154
3 155 8 153
3 155 87 8
3 156 87 155
3 156 33 87
3 88 156 34
3 157 156 88
3 157 33 156
3 157 152 33
3 158 152 157
3 158 0 152
3 158 116 0
3 159 116 158
3 159 20 116
3 90 159 35
3 160 159 90
3 160 20 159
3 160 48 20
3 161 48 160
3 161 1 48
3 504 36 505
3 91 506 507
3 162 508 510
3 510 509 91
3 508 509 510
3 162 511 513
3 511 36 512
3 511 512 513
3 162 161 36
3 163 161 162
3 163 1 161
3 163 95 1
3 164 95 163
3 164 9 95
3 93 164 37
3 514 164 515
3 516 515 93
3 514 515 516
3 517 9 518
3 519 518 164
3 517 518 519
3 521 520 9
