ply
format ascii 1.0
element vertex 286
property float x
property float y
property float z
element face 310
property list uchar int vertex_index
end_header
-10.263027 -107.35881 -15.650969
2.895946 -99.579781 -27.007856
-7.999218 -106.1147 -24.059803
-15.463054 -105.253357 -7.340064
-17.109613 -106.913513 -17.189896
-15.242822 -103.856842 -26.901981
-6.48677 -106.161041 -16.973696
-4.52854 -105.352951 -21.354959
-9.56528 -107.296761 -19.466766
-0.556996 -100.59864 -30.105888
-13.256799 -102.783119 -2.590271
-20.702953 -104.746986 -17.388226
-16.596136 -105.98851 -22.054403
0.516593 -102.174438 -22.608046
-2.624996 -103.544037 -25.871708
-6.163639 -103.758568 -28.577759
-12.734025 -106.810249 -11.964457
-13.454274 -107.674767 -16.489532
-16.800638 -106.678642 -12.253839
-10.917928 -104.792297 -7.721639
-8.58135 -105.929985 -12.431474
-13.02667 -107.273857 -20.950775
-11.748682 -105.712845 -25.693869
-9.976473 -102.927406 -30.092598
-8.635518 -106.941956 -16.234592
-7.939332 -106.874275 -18.320955
-9.903821 -107.422165 -17.374952
-2.098216 -100.443253 -31.494364
0.769692 -98.500671 -32.126293
-0.391738 -102.86908 -20.286495
-6.284165 -105.927917 -22.733286
-3.691148 -104.629753 -23.665916
-5.435851 -105.055321 -25.057549
-4.364612 -103.812363 -27.320108
-7.093002 -105.059891 -26.420361
4.359415 -98.81958 -24.975027
5.541693 -97.26049 -27.214584
-14.145479 -106.134781 -9.6619
-14.842307 -106.869232 -11.964613
-16.202679 -106.099281 -9.740787
-14.474858 -104.165871 -4.983667
-12.266256 -103.99295 -5.330165
-13.146132 -105.186577 -7.548164
-12.050659 -105.940605 -9.810567
-6.364041 -105.037994 -12.671062
-7.542655 -104.756729 -10.43964
-15.264047 -107.450958 -16.779325
-13.257844 -107.615868 -18.689604
-15.225049 -107.237526 -19.235786
-16.029848 -105.122429 -24.420544
-14.173397 -106.05304 -24.002806
-13.527843 -105.004967 -26.296234
-10.993966 -104.483002 -27.927553
-12.667231 -103.631111 -28.562494
-4.159854 -105.022659 -17.437407
-3.117465 -104.619347 -19.760271
-5.523981 -105.886215 -19.109644
-7.121213 -106.52478 -20.450453
-8.711135 -106.826279 -21.724455
1.196796 -100.261002 -28.593063
4.071251 -97.892723 -29.076189
2.433947 -98.389008 -30.634794
-16.549519 -104.078293 -4.751107
-17.518013 -105.001137 -7.204816
-14.404581 -101.38829 0.272241
-15.442706 -102.791069 -2.124578
-18.988314 -106.001976 -17.321175
-17.102037 -106.518867 -19.665842
-18.874922 -105.499969 -19.830399
-18.351736 -104.849388 -22.32411
1.841033 -100.927475 -24.729956
-2.01924 -103.911514 -22.00956
-0.863168 -102.902557 -24.286896
0.146125 -101.725487 -26.477427
-1.566878 -102.197945 -28.03455
-3.445295 -102.405518 -29.3799
-5.112317 -102.052383 -30.738428
-11.415367 -107.23304 -14.056744
-11.701962 -107.611481 -15.990908
-13.240942 -107.420364 -14.217925
-15.140982 -107.328667 -14.343625
-17.056746 -106.950256 -14.702065
-18.136919 -105.722435 -9.793922
-18.689947 -106.093132 -12.332602
-18.928188 -106.19976 -14.818298
-9.843297 -103.422607 -5.57332
-8.711285 -104.226517 -8.096743
-9.772772 -105.48188 -10.130676
-10.686825 -106.50383 -12.158291
-9.515414 -106.814301 -14.224338
-5.199602 -105.168625 -15.191465
-7.478367 -106.143761 -14.640574
-11.54293 -107.660278 -18.011049
-11.19253 -107.419182 -20.299614
-10.467072 -106.877647 -22.657333
-14.798903 -106.793159 -21.595253
-12.402703 -106.657364 -23.318142
-9.912181 -106.062042 -25.004375
-9.086477 -104.9655 -27.226645
-8.035471 -103.541542 -29.374722
-7.0357 -101.695168 -31.538155
-1.561317 -99.34193 -32.515127
-3.0465 -100.298924 -32.061551
-0.996662 -103.195805 -19.179532
0.273682 -102.284733 -19.218075
-6.916978 -104.044495 -9.463107
-6.33375 -104.221314 -10.581565
2.274174 -97.321884 -32.350361
1.399652 -97.341674 -33.057592
-17.613254 -103.825435 -4.577616
-17.037818 -103.36512 -3.384245
-14.83121 -100.691147 1.557707
-13.753049 -100.586262 1.451687
-16.484412 -102.721508 -2.070981
-15.952904 -102.107022 -0.846043
-17.037818 -103.36512 -3.384245
-15.996112 -103.434681 -3.437843
-16.484412 -102.721508 -2.070981
-19.088684 -104.146156 -22.446707
-19.348333 -104.553207 -21.181649
-17.982216 -104.365707 -23.57393
-19.088684 -104.146156 -22.446707
1.907131 -101.078475 -22.66809
1.335795 -101.561218 -21.574469
1.178813 -101.550956 -23.669001
2.569351 -100.454994 -23.729045
1.907131 -101.078475 -22.66809
5.525847 -96.55109 -29.163038
4.668594 -96.941876 -30.002584
-18.747909 -105.069607 -8.421958
-17.827466 -105.361786 -8.499369
-18.438457 -104.708958 -7.127405
-19.620137 -105.580937 -12.22861
-19.341971 -105.511398 -10.991318
-19.739258 -105.634251 -13.471459
-18.809067 -106.146446 -13.57545
-19.620137 -105.580937 -12.22861
-19.787032 -105.658329 -14.82644
-19.739258 -105.634251 -13.471459
-12.128308 -102.617264 -2.792835
-12.703706 -101.992088 -1.383566
-4.603275 -104.564064 -14.226797
-3.907633 -104.466191 -15.43855
-0.127363 -98.370639 -32.831091
-0.664262 -99.471962 -31.810328
-1.561317 -99.34193 -32.515127
1.399652 -97.341674 -33.057592
-0.127363 -98.370639 -32.831091
-20.523942 -104.502006 -18.713707
-21.331792 -104.039986 -17.591384
0.88163 -101.908539 -20.413694
0.273682 -102.284733 -19.218075
0.062427 -102.521759 -21.447271
1.335795 -101.561218 -21.574469
0.88163 -101.908539 -20.413694
5.724228 -97.519882 -25.055875
5.14026 -98.21038 -23.944617
6.315367 -96.740337 -26.175654
5.724228 -97.519882 -25.055875
4.950554 -98.040035 -26.094805
6.924057 -95.901226 -27.213998
6.315367 -96.740337 -26.175654
-5.744444 -104.361946 -11.697275
-5.185495 -104.498749 -12.966596
-6.953348 -104.897362 -11.555351
-5.744444 -104.361946 -11.697275
-6.33375 -104.221314 -10.581565
-3.63866 -104.821003 -18.598839
-2.359526 -104.070939 -18.91642
-2.88072 -104.272594 -17.754988
3.849942 -97.190018 -30.781887
4.668594 -96.941876 -30.002584
3.252599 -98.140866 -29.855491
3.106302 -97.266053 -31.604612
1.601819 -98.44484 -31.380543
2.274174 -97.321884 -32.350361
3.849942 -97.190018 -30.781887
3.106302 -97.266053 -31.604612
-18.097501 -104.286857 -5.80447
-17.033766 -104.539715 -5.977962
-17.613254 -103.825435 -4.577616
-18.438457 -104.708958 -7.127405
-18.097501 -104.286857 -5.80447
-13.277597 -101.294674 0.047691
-13.753049 -100.586262 1.451687
-13.83069 -102.085704 -1.159015
-12.703706 -101.992088 -1.383566
-13.277597 -101.294674 0.047691
-15.433841 -101.405632 0.352367
-14.83121 -100.691147 1.557707
-14.923644 -102.089679 -0.926169
-15.433841 -101.405632 0.352367
-15.952904 -102.107022 -0.846043
-19.609927 -104.878498 -19.934793
-19.788938 -105.123478 -18.609313
-20.523942 -104.502006 -18.713707
-18.613329 -105.174678 -21.077255
-19.609927 -104.878498 -19.934793
-19.348333 -104.553207 -21.181649
-16.821272 -104.502228 -24.622147
-17.190792 -104.985908 -23.372327
-17.982216 -104.365707 -23.57393
-16.427759 -103.869434 -25.862865
-15.636335 -104.489635 -25.661262
-16.821272 -104.502228 -24.622147
3.828542 -99.401047 -23.851581
5.14026 -98.21038 -23.944617
3.100224 -99.873527 -24.852491
3.828542 -99.401047 -23.851581
2.569351 -100.454994 -23.729045
-1.754602 -103.744214 -20.023383
-0.996662 -103.195805 -19.179532
-2.359526 -104.070939 -18.91642
-4.553551 -101.103488 -31.683583
-3.0465 -100.298924 -32.061551
-3.605266 -101.247818 -31.116396
6.261068 -96.234973 -28.232236
4.806472 -97.576606 -28.145387
5.525847 -96.55109 -29.163038
6.924057 -95.901226 -27.213998
6.261068 -96.234973 -28.232236
-19.065458 -105.32605 -9.721978
-18.747909 -105.069607 -8.421958
-18.413433 -105.907783 -11.063262
-19.065458 -105.32605 -9.721978
-19.341971 -105.511398 -10.991318
-19.817095 -105.559437 -16.077879
-18.958251 -106.100868 -16.069737
-19.787032 -105.658329 -14.82644
-20.674415 -104.931942 -16.111404
-19.845633 -105.374481 -17.3547
-19.817095 -105.559437 -16.077879
-21.454531 -104.193993 -16.187294
-20.674415 -104.931942 -16.111404
-21.331792 -104.039986 -17.591384
-21.454531 -104.193993 -16.187294
-11.633036 -103.222179 -4.162782
-12.128308 -102.617264 -2.792835
-12.761527 -103.388035 -3.960218
-10.421556 -102.937007 -4.284359
-11.633036 -103.222179 -4.162782
-11.054776 -103.707778 -5.451742
-9.28136 -102.581768 -4.37502
-10.421556 -102.937007 -4.284359
-8.619287 -103.020779 -5.745919
-9.28136 -102.581768 -4.37502
-8.053281 -103.422733 -7.00763
-8.619287 -103.020779 -5.745919
-9.277291 -103.824562 -6.835031
-7.501294 -103.779389 -8.291658
-8.053281 -103.422733 -7.00763
-8.12697 -104.491623 -9.268192
-6.916978 -104.044495 -9.463107
-7.501294 -103.779389 -8.291658
-3.387759 -104.393208 -16.561521
-2.88072 -104.272594 -17.754988
-4.679728 -105.095642 -16.314436
-3.387759 -104.393208 -16.561521
-3.907633 -104.466191 -15.43855
-5.781821 -105.103309 -13.931264
-4.603275 -104.564064 -14.226797
-5.185495 -104.498749 -12.966596
-5.515242 -100.924881 -32.083447
-4.553551 -101.103488 -31.683583
-6.074008 -101.873775 -31.138292
-16.143126 -103.141815 -27.006769
-16.427759 -103.869434 -25.862865
-14.831542 -103.101925 -27.992394
-16.143126 -103.141815 -27.006769
-13.543746 -102.989059 -28.822651
-13.955026 -103.743977 -27.732238
-14.831542 -103.101925 -27.992394
-12.135603 -102.763981 -29.66357
-13.543746 -102.989059 -28.822651
-10.790224 -102.412128 -30.428621
-11.321852 -103.279258 -29.327546
-12.135603 -102.763981 -29.66357
-9.367022 -101.944389 -31.158975
-10.790224 -102.412128 -30.428621
-7.896636 -101.32827 -31.881754
-8.506087 -102.311287 -30.815376
-9.367022 -101.944389 -31.158975
-6.466788 -100.611282 -32.540451
-7.896636 -101.32827 -31.881754
-5.515242 -100.924881 -32.083447
-6.466788 -100.611282 -32.540451
3 0 26 24
3 102 101 27
3 103 29 104
3 2 32 30
3 2 34 32
3 1 36 35
3 3 39 37
3 3 42 40
3 3 37 42
3 105 45 106
3 4 48 46
3 5 51 49
3 5 53 51
3 6 56 54
3 8 57 25
3 8 58 57
3 9 61 59
3 108 107 28
3 110 109 62
3 111 64 112
3 113 65 114
3 115 62 116
3 117 116 65
3 115 116 117
3 11 68 66
3 118 69 119
3 121 120 69
3 13 122 123
3 13 124 126
3 124 70 125
3 124 125 126
3 7 71 55
3 14 72 31
3 14 73 72
3 14 74 73
3 15 75 33
3 15 76 75
3 128 127 60
3 16 79 77
3 18 80 38
3 18 81 80
3 129 82 130
3 131 130 63
3 129 130 131
3 132 83 133
3 134 84 135
3 136 135 83
3 134 135 136
3 138 137 84
3 10 139 140
3 19 85 41
3 19 86 85
3 19 87 86
3 16 88 43
3 16 77 88
3 141 90 142
3 20 91 44
3 20 89 91
3 17 92 78
3 21 93 47
3 21 94 93
3 12 95 67
3 22 96 50
3 22 97 96
3 22 98 97
3 23 99 52
3 23 100 99
3 24 25 6
3 26 25 24
3 26 8 25
3 27 28 9
3 143 28 144
3 145 144 27
3 143 144 145
3 147 146 28
3 149 148 11
3 29 150 151
3 29 152 154
3 152 13 153
3 152 153 154
3 30 31 7
3 32 31 30
3 32 14 31
3 32 33 14
3 34 33 32
3 34 15 33
3 35 155 156
3 36 157 159
3 159 158 35
3 157 158 159
3 36 160 161
3 37 38 16
3 39 38 37
3 39 18 38
3 40 41 10
3 42 41 40
3 42 19 41
3 42 43 19
3 37 43 42
3 37 16 43
3 162 44 163
3 45 164 166
3 164 44 165
3 164 165 166
3 45 20 44
3 46 47 17
3 48 47 46
3 48 21 47
3 49 50 12
3 51 50 49
3 51 22 50
3 51 52 22
3 53 52 51
3 53 23 52
3 54 167 169
3 167 55 168
3 167 168 169
3 56 55 54
3 56 7 55
3 25 56 6
3 57 56 25
3 57 7 56
3 57 30 7
3 58 30 57
3 58 2 30
3 59 60 1
3 61 60 59
3 61 170 172
3 172 171 60
3 170 171 172
3 28 61 9
3 173 61 174
3 175 174 28
3 173 174 175
3 177 176 61
3 62 63 3
3 178 63 179
3 180 179 62
3 178 179 180
3 182 181 63
3 64 183 184
3 64 185 187
3 185 10 186
3 185 186 187
3 188 64 189
3 65 190 192
3 190 64 191
3 190 191 192
3 65 10 64
3 65 40 10
3 62 40 65
3 62 3 40
3 66 67 4
3 68 67 66
3 68 12 67
3 193 68 194
3 195 194 11
3 193 194 195
3 69 196 198
3 196 68 197
3 196 197 198
3 69 12 68
3 69 49 12
3 199 49 200
3 201 200 69
3 199 200 201
3 202 5 203
3 204 203 49
3 202 203 204
3 205 35 206
3 70 207 209
3 207 35 208
3 207 208 209
3 70 1 35
3 55 210 212
3 210 29 211
3 210 211 212
3 71 29 55
3 71 13 29
3 31 71 7
3 72 71 31
3 72 13 71
3 72 70 13
3 73 70 72
3 73 1 70
3 73 59 1
3 74 59 73
3 74 9 59
3 33 74 14
3 75 74 33
3 75 9 74
3 75 27 9
3 76 27 75
3 76 213 215
3 215 214 27
3 213 214 215
3 60 36 1
3 216 36 217
3 218 217 60
3 216 217 218
3 220 219 36
3 77 78 0
3 79 78 77
3 79 17 78
3 38 79 16
3 80 79 38
3 80 17 79
3 80 46 17
3 81 46 80
3 81 4 46
3 63 39 3
3 82 39 63
3 82 18 39
3 221 82 222
3 83 223 225
3 223 82 224
3 223 224 225
3 83 18 82
3 83 81 18
3 84 81 83
3 84 4 81
3 84 66 4
3 226 66 227
3 228 227 84
3 226 227 228
3 229 11 230
3 231 230 66
3 229 230 231
3 232 11 233
3 235 234 11
3 41 236 238
3 238 237 10
3 236 237 238
3 85 239 241
3 241 240 41
3 239 240 241
3 85 242 243
3 85 244 245
3 86 246 248
3 248 247 85
3 246 247 248
3 86 249 250
3 86 251 253
3 251 45 252
3 251 252 253
3 87 45 86
3 87 20 45
3 43 87 19
3 88 87 43
3 88 20 87
3 88 89 20
3 77 89 88
3 77 0 89
3 254 54 255
3 90 256 258
3 256 54 257
3 256 257 258
3 90 6 54
3 44 259 261
3 259 90 260
3 259 260 261
3 91 90 44
3 91 6 90
3 91 24 6
3 89 24 91
3 89 0 24
3 78 26 0
3 92 26 78
3 92 8 26
3 47 92 17
3 93 92 47
3 93 8 92
3 93 58 8
3 94 58 93
3 94 2 58
3 67 48 4
3 95 48 67
3 95 21 48
3 50 95 12
3 96 95 50
3 96 21 95
3 96 94 21
3 97 94 96
3 97 2 94
3 97 34 2
3 98 34 97
3 98 15 34
3 52 98 22
3 99 98 52
3 99 15 98
3 99 76 15
3 100 76 99
3 100 262 264
3 264 263 76
3 262 263 264
3 265 5 266
3 267 5 268
3 269 53 270
3 271 270 5
3 269 270 271
3 272 53 273
3 274 23 275
3 276 275 53
3 274 275 276
3 277 23 278
3 279 100 280
3 281 280 23
3 279 280 281
3 282 100 283
3 285 284 100
