ply
format ascii 1.0
element vertex 158
property float x
property float y
property float z
element face 135
property list uchar int vertex_index
end_header
-34.18716 77.499817 -25.796505
-33.959553 77.062492 -12.891117
-35.457634 69.480873 -28.675949
-33.677223 75.581375 -6.227548
-34.187653 77.497581 -19.48634
-32.335674 80.21196 -1.995365
-32.538803 82.57341 -9.055329
-32.68074 83.913574 -15.570352
-34.890678 73.986931 -24.34586
-35.543648 70.065887 -25.655914
-34.841473 73.665375 -27.369709
-33.994034 71.017067 -1.224492
-34.181366 72.063904 -4.449552
-33.460625 74.762535 -2.785229
-34.61676 73.200821 -11.259274
-34.784767 73.469559 -14.453613
-34.888248 73.727974 -17.778685
-34.135521 77.162216 -16.212961
-32.431824 81.552254 -5.53518
-34.41774 72.690659 -7.875782
-33.817291 76.453506 -9.521272
-34.931229 73.866295 -21.120197
-34.250401 77.399956 -22.715309
-32.190273 79.06958 1.252796
-32.795948 76.941513 -0.644983
-32.966728 78.052826 -4.044972
-33.074097 79.263992 -7.509731
-33.220184 80.033051 -11.078829
-32.60186 83.451263 -12.414474
-33.367363 80.396904 -14.372346
-33.413883 80.909744 -17.580669
-34.160177 77.274082 -27.325021
-34.487334 75.356861 -28.111623
-34.514316 75.582596 -26.583107
-33.642689 72.249321 -0.343484
-33.886843 70.375321 0.452768
-33.375985 74.122055 -1.123853
-33.727329 72.889801 -2.00486
-33.642689 72.249321 -0.343484
-35.817183 67.518151 -27.789839
-35.860189 67.810658 -26.279821
-35.500641 69.77338 -27.165931
-35.721617 67.141239 -29.354561
-35.817183 67.518151 -27.789839
-35.368675 69.11649 -30.119773
-35.721617 67.141239 -29.354561
-32.262974 79.64077 -0.371285
-31.968926 80.687061 0.588862
-32.041627 81.258252 -1.035219
-32.6413 83.682418 -13.992413
-32.272986 85.121837 -13.100621
-32.312426 85.352993 -14.67856
-35.217163 72.026409 -25.000887
-35.559143 70.216526 -24.12447
-35.232658 72.177048 -23.469442
-34.763973 73.489266 -28.907682
-35.072054 71.397015 -29.560802
-35.149553 71.573124 -28.022829
-34.763973 73.489266 -28.907682
-34.487334 75.356861 -28.111623
-34.238582 69.213291 -0.416549
-33.886843 70.375321 0.452768
-34.389814 69.524421 -2.00532
-34.238582 69.213291 -0.416549
-34.0877 71.540485 -2.837022
-34.48348 70.04784 -3.61785
-34.389814 69.524421 -2.00532
-35.004936 71.519482 -12.024815
-34.900652 71.357727 -10.288867
-35.08894 71.653851 -13.621985
-35.004936 71.519482 -12.024815
-34.700764 73.33519 -12.856444
-35.146771 71.831868 -15.31492
-35.08894 71.653851 -13.621985
-34.836507 73.598767 -16.116149
-35.198511 71.961075 -16.977455
-35.146771 71.831868 -15.31492
-32.075516 81.941197 -2.731747
-32.041627 81.258252 -1.035219
-32.123592 82.611344 -4.501654
-32.383749 80.882107 -3.765273
-32.075516 81.941197 -2.731747
-32.148375 83.233116 -6.185503
-32.123592 82.611344 -4.501654
-32.201864 83.743695 -7.945578
-32.485314 82.062832 -7.295255
-32.148375 83.233116 -6.185503
-32.357832 85.479836 -16.327571
-32.312426 85.352993 -14.67856
-32.722271 84.023167 -17.323276
-32.357832 85.479836 -16.327571
-35.890217 68.155495 -24.784402
-35.559143 70.216526 -24.12447
-35.890217 68.155495 -24.784402
-35.860189 67.810658 -26.279821
-35.368675 69.11649 -30.119773
-35.072054 71.397015 -29.560802
-34.579658 70.472423 -5.176204
-34.48348 70.04784 -3.61785
-34.697845 70.785801 -6.88932
-34.579658 70.472423 -5.176204
-34.299553 72.377281 -6.162667
-34.801142 71.102646 -8.597121
-34.697845 70.785801 -6.88932
-34.51725 72.94574 -9.567528
-34.900652 71.357727 -10.288867
-34.801142 71.102646 -8.597121
-35.2633 71.862728 -18.610448
-35.198511 71.961075 -16.977455
-35.28479 71.931888 -20.281204
-35.2633 71.862728 -18.610448
-34.909739 73.797134 -19.449441
-35.252933 72.11673 -21.856611
-35.28479 71.931888 -20.281204
-34.910954 73.926613 -22.733028
-35.232658 72.177048 -23.469442
-35.252933 72.11673 -21.856611
-31.918001 79.99427 2.27681
-31.968926 80.687061 0.588862
-32.132446 78.301079 2.886678
-31.918001 79.99427 2.27681
-32.410129 77.408631 1.862181
-32.132446 78.301079 2.886678
-32.712967 76.344597 0.913291
-32.410129 77.408631 1.862181
-32.493111 78.005547 0.303907
-33.043646 75.211544 -0.05373
-32.712967 76.344597 0.913291
-33.128287 75.852024 -1.715106
-33.375985 74.122055 -1.123853
-33.043646 75.211544 -0.05373
-32.232156 84.248295 -9.725834
-32.201864 83.743695 -7.945578
-32.263684 84.687221 -11.405406
-32.272986 85.121837 -13.100621
-32.570332 83.012337 -10.734901
-32.232156 84.248295 -9.725834
-32.263684 84.687221 -11.405406
-33.088842 82.521252 -18.328435
-33.047311 82.411659 -16.575511
-32.722271 84.023167 -17.323276
-33.462326 80.911503 -19.300723
-33.088842 82.521252 -18.328435
-33.849211 79.205421 -20.253558
-33.800768 79.203663 -18.533504
-33.462326 80.911503 -19.300723
-33.880585 79.156609 -21.868043
-34.219027 77.448768 -21.100825
-33.849211 79.205421 -20.253558
-33.880988 79.178051 -23.497798
-33.880585 79.156609 -21.868043
-33.849367 79.227981 -25.038396
-34.21878 77.449886 -24.255907
-33.880988 79.178051 -23.497798
-33.827318 79.124462 -26.623879
-33.849367 79.227981 -25.038396
-34.160177 77.274082 -27.325021
-33.827318 79.124462 -26.623879
3 0 10 8
3 0 31 33
3 33 32 10
3 31 32 33
3 34 11 35
3 36 13 37
3 38 37 11
3 36 37 38
3 1 15 14
3 1 17 15
3 2 39 41
3 41 40 9
3 39 40 41
3 2 42 43
3 2 44 45
3 3 19 12
3 3 20 19
3 4 21 16
3 4 22 21
3 5 46 48
3 46 23 47
3 46 47 48
3 5 24 23
3 5 25 24
3 6 26 18
3 6 27 26
3 7 49 51
3 49 28 50
3 49 50 51
3 7 29 28
3 7 30 29
3 8 52 54
3 52 9 53
3 52 53 54
3 10 9 8
3 10 2 9
3 10 55 57
3 57 56 2
3 55 56 57
3 59 58 10
3 11 60 61
3 11 62 63
3 11 64 66
3 64 12 65
3 64 65 66
3 13 12 11
3 13 3 12
3 14 67 68
3 15 69 71
3 71 70 14
3 69 70 71
3 15 72 73
3 15 74 76
3 74 16 75
3 74 75 76
3 17 16 15
3 17 4 16
3 77 5 78
3 79 18 80
3 81 80 5
3 79 80 81
3 82 18 83
3 84 6 85
3 86 85 18
3 84 85 86
3 87 7 88
3 90 89 7
3 9 91 92
3 94 93 9
3 96 95 2
3 12 97 98
3 19 99 101
3 101 100 12
3 99 100 101
3 19 102 103
3 19 104 106
3 104 14 105
3 104 105 106
3 20 14 19
3 20 1 14
3 16 107 108
3 21 109 111
3 111 110 16
3 109 110 111
3 21 112 113
3 21 114 116
3 114 8 115
3 114 115 116
3 22 8 21
3 22 0 8
3 23 117 118
3 23 119 120
3 23 121 122
3 24 123 125
3 125 124 23
3 123 124 125
3 24 126 127
3 24 128 130
3 128 13 129
3 128 129 130
3 25 13 24
3 25 3 13
3 18 25 5
3 26 25 18
3 26 3 25
3 26 20 3
3 27 20 26
3 27 1 20
3 131 6 132
3 28 133 134
3 28 135 137
3 135 6 136
3 135 136 137
3 28 27 6
3 29 27 28
3 29 1 27
3 29 17 1
3 30 17 29
3 30 4 17
3 138 30 139
3 140 139 7
3 138 139 140
3 141 30 142
3 143 4 144
3 145 144 30
3 143 144 145
3 146 22 147
3 148 147 4
3 146 147 148
3 149 22 150
3 151 0 152
3 153 152 22
3 151 152 153
3 154 0 155
3 157 156 0
