ply
format ascii 1.0
element vertex 350
property float x
property float y
property float z
element face 369
property list uchar int vertex_index
end_header
-8.736671 93.161316 -27.075119
-17.404055 80.443306 -5.76663
-14.229426 88.202614 -16.397032
-15.000102 69.898941 13.396518
-18.926823 70.604568 3.840284
-13.478993 80.568687 3.90679
-10.268914 90.251869 -6.762197
-11.625905 91.296135 -21.892733
-15.447488 86.149582 -20.582376
-12.888869 88.368561 -25.769384
-12.183507 74.567581 13.566277
-14.350509 75.378815 8.80468
-11.219787 79.803566 8.980708
-8.092038 90.160362 -1.751182
-18.380177 75.601257 -0.814751
-20.668051 70.224541 -0.83631
-19.976002 75.00563 -5.379596
-16.042833 84.701599 -11.064426
-17.477592 83.075348 -15.45489
-17.574995 64.880112 12.762913
-19.37941 65.467125 7.841538
-17.036226 70.457016 8.570286
-16.426048 75.67144 4.099341
-15.516346 80.815224 -0.942544
-9.794367 85.288223 3.641474
-12.149324 85.521606 -1.226156
-14.263101 85.347298 -6.130548
-12.406383 89.59362 -11.75801
-10.015993 93.122688 -17.214546
-13.008141 68.803352 18.094801
-9.512152 91.356277 -28.906168
-10.221039 92.374077 -24.534462
-12.314219 89.958305 -23.974653
-10.992281 90.791183 -26.385466
-10.543666 76.75531 13.688595
-11.771672 77.12442 11.354138
-10.037725 79.383888 11.344782
-17.989077 78.022072 -3.317284
-19.238352 75.366272 -3.165451
-18.726467 77.9496 -5.747951
-15.059965 86.722534 -13.672577
-16.757576 84.113327 -13.311398
-15.899633 85.7901 -15.988153
-16.332861 67.498375 13.030393
-17.314692 67.766129 10.619112
-16.03356 70.14019 11.066213
-13.960202 77.878494 6.553362
-15.464056 75.539444 6.372009
-15.016711 78.169014 4.021979
-16.053892 78.252274 1.573659
-14.510001 80.793091 1.438338
-9.292903 90.098412 -4.08612
-10.224376 87.786148 -1.392698
-11.291151 87.947632 -4.019037
-13.192331 85.623749 -3.823788
-12.376511 87.809937 -6.44909
-13.346812 87.592995 -8.863025
-11.366384 89.959152 -9.116126
-9.080788 93.735703 -14.842319
-8.752362 94.484741 -20.031054
-11.419845 71.166847 18.298239
-19.212296 67.999542 5.816834
-20.300423 65.405754 5.454865
-20.0445 68.04705 3.524442
-13.005133 89.847382 -19.110861
-14.8115 87.427322 -18.72315
-13.62375 88.808495 -21.337885
-14.156043 87.475716 -23.24012
-13.663547 72.093994 13.661237
-14.742029 72.673141 11.039263
-13.31117 74.947395 11.22308
-12.779871 77.798431 8.84324
-12.3066 80.43084 6.300754
-9.305774 92.222504 -9.509598
-18.720509 73.087997 1.530401
-19.805124 70.604294 1.414076
-19.657835 72.836617 -0.902528
-20.440155 72.542633 -3.200483
-16.827204 82.567375 -8.34859
-18.161274 80.177429 -8.173092
-17.615314 82.080345 -10.7848
-16.46632 84.826553 -17.974806
-7.845289 94.711861 -25.117792
-19.648514 62.690746 9.725365
-18.454214 65.419121 10.182817
-18.271191 68.019882 8.142931
-18.094088 70.410156 6.152202
-15.79103 72.959892 8.619195
-16.836473 72.961288 6.344156
-17.711185 73.206223 4.005167
-17.461275 75.620483 1.661041
-17.055504 78.129333 -0.772265
-16.541508 80.628731 -3.382732
-10.582528 82.582207 6.307483
-11.649879 83.06958 3.745895
-9.048421 87.701782 1.001194
-10.918272 85.498833 1.289219
-12.778604 83.232353 1.328067
-13.879245 83.254913 -1.07785
-14.934045 83.131546 -3.455997
-15.906651 82.933846 -5.89324
-15.218306 85.109543 -8.712429
-14.229665 87.305679 -11.434115
-13.271132 89.146286 -14.324279
-10.285757 91.943306 -11.97864
-11.221808 91.511009 -14.537437
-12.174157 90.764694 -16.807575
-10.907909 92.284859 -19.553406
-9.512635 93.565521 -22.413719
-15.277021 67.101784 15.586143
-14.350518 66.48584 17.957893
-13.950298 69.461227 15.803266
-12.496518 71.837471 15.927655
-11.002992 73.985092 16.039635
-20.480145 62.999729 7.23628
-7.939992 93.41457 -28.322016
-8.327732 92.512051 -29.237541
-9.124412 92.258797 -27.990644
-9.426896 79.175884 12.469497
-10.290695 78.069599 12.516689
-9.679867 77.861595 13.641404
-13.725136 87.139072 -25.332964
-14.358722 86.69265 -24.068333
-13.522456 87.922139 -24.504752
-13.079929 87.535923 -26.522002
-13.725136 87.139072 -25.332964
-20.512498 73.60511 -5.359762
-20.744574 72.373611 -4.270205
-20.208078 73.774131 -4.29004
-17.854756 82.232434 -14.15901
-17.494748 82.751423 -13.087264
-17.117584 83.594337 -14.383144
-18.101726 81.770104 -15.093128
-17.854756 82.232434 -14.15901
-6.722065 95.691624 -25.283035
-7.559039 95.200779 -23.934303
-18.014605 65.149617 11.472865
-18.599756 64.054163 11.096583
-18.160146 63.784658 12.38663
-10.188447 83.935215 4.974479
-9.655258 83.649036 6.270998
-9.261177 85.002045 4.937993
-8.570229 88.931072 -0.374994
-8.072021 88.671379 1.014482
-7.59383 89.900669 -0.361707
-9.129282 93.115059 -12.176742
-9.795765 92.082905 -10.744119
-8.63929 93.254658 -10.942221
-8.392712 94.627609 -22.582266
-9.132499 94.025131 -21.222386
-8.012576 95.087219 -21.390934
-7.559039 95.200779 -23.934303
-8.678962 94.138691 -23.765756
-8.392712 94.627609 -22.582266
-15.507143 65.685577 16.474175
-15.941979 65.9632 15.288381
-13.679329 67.644596 18.026347
-13.832797 66.203663 19.142664
-13.161609 67.362419 19.211118
-10.410688 73.709191 17.179884
-11.211419 72.575969 17.168937
-10.619115 72.300068 18.309186
-10.174649 75.102909 16.020054
-10.410688 73.709191 17.179884
-20.84374 64.070086 5.184311
-20.717213 65.404572 4.254169
-20.799576 69.024643 0.142941
-20.368113 69.214519 1.268134
-20.236587 70.414417 0.288883
-18.825763 78.749222 -8.007013
-18.554293 79.770443 -9.231374
-8.643545 91.586772 -30.133063
-9.705369 90.432224 -29.815202
-7.459125 92.742546 -30.464436
-8.643545 91.586772 -30.133063
-8.327732 92.512051 -29.237541
-11.178428 90.030342 -27.290729
-12.126722 88.819031 -26.982688
-11.940575 89.579872 -26.077425
-10.438364 90.312889 -28.55108
-11.178428 90.030342 -27.290729
-10.252216 91.07373 -27.645817
-9.705369 90.432224 -29.815202
-10.438364 90.312889 -28.55108
-16.163361 84.893246 -20.219698
-15.613888 85.50779 -21.493636
-8.865638 86.266323 3.646701
-9.261177 85.002045 4.937993
-7.911803 94.828751 -14.958215
-8.526797 94.011257 -13.608581
-8.36188 94.586869 -16.31254
-7.911803 94.828751 -14.958215
-8.829483 94.280361 -17.498653
-9.548391 93.429195 -16.028433
-8.36188 94.586869 -16.31254
-8.197667 94.961388 -18.906908
-9.384177 93.803714 -18.6228
-8.829483 94.280361 -17.498653
-7.48454 95.628502 -20.245179
-8.197667 94.961388 -18.906908
-8.012576 95.087219 -21.390934
-7.48454 95.628502 -20.245179
-12.459574 68.533447 19.237063
-13.161609 67.362419 19.211118
-11.665426 69.715194 19.338783
-12.213993 69.9851 18.19652
-12.459574 68.533447 19.237063
-10.840632 70.868915 19.432842
-11.665426 69.715194 19.338783
-10.619115 72.300068 18.309186
-10.840632 70.868915 19.432842
-20.589251 66.72522 3.288957
-20.717213 65.404572 4.254169
-20.172461 66.726402 4.489654
-21.152363 68.944512 -0.989332
-21.037137 70.017826 -1.967971
-14.968166 86.170856 -22.822508
-15.613888 85.50779 -21.493636
-14.801766 86.812649 -21.911248
-14.968166 86.170856 -22.822508
-14.358722 86.69265 -24.068333
-12.317782 87.986393 -27.735306
-13.079929 87.535923 -26.522002
-12.126722 88.819031 -26.982688
-7.030195 91.112747 -1.648337
-7.59383 89.900669 -0.361707
-7.59612 91.237568 -3.020049
-7.030195 91.112747 -1.648337
-8.196553 91.206593 -4.187518
-8.692471 90.129387 -2.918651
-7.59612 91.237568 -3.020049
-8.738661 91.209179 -5.413938
-8.196553 91.206593 -4.187518
-9.226667 91.285908 -6.751976
-9.780909 90.17514 -5.424158
-8.738661 91.209179 -5.413938
-8.745096 92.271225 -8.125677
-9.787344 91.237187 -8.135898
-9.226667 91.285908 -6.751976
-8.19551 93.280319 -9.546672
-8.745096 92.271225 -8.125677
-8.63929 93.254658 -10.942221
-8.19551 93.280319 -9.546672
-20.923189 71.176872 -3.150057
-21.037137 70.017826 -1.967971
-20.554103 71.383587 -2.018397
-20.923189 71.176872 -3.150057
-20.744574 72.373611 -4.270205
-18.281314 80.721901 -10.537228
-18.554293 79.770443 -9.231374
-17.888294 81.128887 -9.478946
-17.923617 81.734932 -11.823965
-17.186445 83.096836 -12.048099
-17.494748 82.751423 -13.087264
-18.281314 80.721901 -10.537228
-17.923617 81.734932 -11.823965
-16.672777 84.231731 -18.915914
-15.956904 85.488067 -19.278591
-16.163361 84.893246 -20.219698
-17.147816 83.512638 -17.703418
-16.672777 84.231731 -18.915914
-17.653453 82.637035 -16.44346
-16.971956 83.950951 -16.714848
-17.147816 83.512638 -17.703418
-18.277587 81.331791 -16.081698
-18.101726 81.770104 -15.093128
-17.653453 82.637035 -16.44346
-7.054015 95.05616 -26.390121
-7.499706 94.280888 -27.368784
-8.29098 93.936588 -26.096456
-7.054015 95.05616 -26.390121
-6.722065 95.691624 -25.283035
-19.196906 62.689976 10.867857
-19.750002 61.375436 10.668119
-19.051364 64.054934 9.954091
-19.196906 62.689976 10.867857
-18.599756 64.054163 11.096583
-9.127491 80.515282 11.243151
-9.426896 79.175884 12.469497
-9.744327 80.762962 10.024736
-9.127491 80.515282 11.243151
-10.335358 80.972801 8.8427
-10.628756 79.593727 10.162745
-9.744327 80.762962 10.024736
-10.016728 82.362122 7.506087
-9.655258 83.649036 6.270998
-10.901158 81.192887 7.644096
-10.335358 80.972801 8.8427
-10.016728 82.362122 7.506087
-8.492665 87.473102 2.326561
-8.072021 88.671379 1.014482
-9.421394 86.495002 2.321334
-8.865638 86.266323 3.646701
-8.492665 87.473102 2.326561
-9.683273 92.839505 -13.41048
-9.129282 93.115059 -12.176742
-8.526797 94.011257 -13.608581
-17.719494 63.566194 13.659884
-18.160146 63.784658 12.38663
-17.090966 64.852363 13.876766
-17.719494 63.566194 13.659884
-16.469899 66.161495 14.010506
-16.953928 66.189244 12.896653
-17.090966 64.852363 13.876766
-15.804941 67.300079 14.308268
-16.469899 66.161495 14.010506
-15.941979 65.9632 15.288381
-14.559605 65.0891 18.885073
-13.832797 66.203663 19.142664
-15.043892 65.377606 17.66005
-14.559605 65.0891 18.885073
-14.813769 66.793812 16.772018
-15.507143 65.685577 16.474175
-15.043892 65.377606 17.66005
-9.944986 76.488018 14.844534
-10.773329 75.370201 14.864115
-10.174649 75.102909 16.020054
-9.679867 77.861595 13.641404
-9.944986 76.488018 14.844534
-7.939992 93.41457 -28.322016
-7.499706 94.280888 -27.368784
-20.187551 61.476301 9.399473
-19.750002 61.375436 10.668119
-20.603366 61.630792 8.154931
-20.187551 61.476301 9.399473
-20.064329 62.845237 8.480823
-20.989728 61.683859 7.017516
-20.603366 61.630792 8.154931
-20.933602 62.867073 6.075019
-20.390284 64.202742 6.345572
-20.84374 64.070086 5.184311
-20.989728 61.683859 7.017516
-20.933602 62.867073 6.075019
-20.4878 67.935897 2.323317
-19.924812 69.325672 2.469259
-20.368113 69.214519 1.268134
-20.589251 66.72522 3.288957
-20.4878 67.935897 2.323317
-20.799576 69.024643 0.142941
-21.152363 68.944512 -0.989332
-19.108359 77.635307 -6.794442
-18.44387 79.063514 -6.960522
-18.825763 78.749222 -8.007013
-19.733127 76.163322 -6.610265
-19.351235 76.477615 -5.563773
-19.108359 77.635307 -6.794442
-20.266222 74.818557 -6.508712
-19.733127 76.163322 -6.610265
-20.512498 73.60511 -5.359762
-20.266222 74.818557 -6.508712
3 0 115 117
3 117 116 30
3 115 116 117
3 0 33 31
3 0 30 33
3 118 36 119
3 120 119 34
3 118 119 120
3 1 39 37
3 2 42 40
3 3 45 43
3 5 48 46
3 5 50 48
3 6 53 51
3 6 55 53
3 6 57 55
3 4 63 61
3 7 66 64
3 9 67 32
3 9 121 123
3 123 122 67
3 121 122 123
3 9 124 125
3 10 70 68
3 12 71 35
3 12 72 71
3 14 76 74
3 16 77 38
3 16 126 128
3 128 127 77
3 126 127 128
3 17 80 78
3 18 129 131
3 131 130 41
3 129 130 131
3 18 132 133
3 8 81 65
3 135 134 82
3 19 136 138
3 136 84 137
3 136 137 138
3 21 85 44
3 21 86 85
3 11 87 69
3 22 88 47
3 22 89 88
3 22 90 89
3 23 91 49
3 23 92 91
3 24 139 141
3 139 93 140
3 139 140 141
3 24 94 93
3 13 142 144
3 142 95 143
3 142 143 144
3 25 96 52
3 25 97 96
3 25 98 97
3 26 99 54
3 26 100 99
3 26 101 100
3 27 102 56
3 27 103 102
3 145 104 146
3 147 146 73
3 145 146 147
3 28 105 58
3 28 106 105
3 28 107 106
3 148 108 149
3 150 149 59
3 148 149 150
3 151 82 152
3 153 152 108
3 151 152 153
3 154 109 155
3 29 156 158
3 156 110 157
3 156 157 158
3 29 111 110
3 29 112 111
3 159 113 160
3 161 160 60
3 159 160 161
3 163 162 113
3 20 114 83
3 165 164 62
3 15 166 168
3 168 167 75
3 166 167 168
3 170 169 79
3 30 171 172
3 175 174 30
3 173 174 175
3 31 32 7
3 33 32 31
3 33 9 32
3 33 176 178
3 178 177 9
3 176 177 178
3 30 179 181
3 181 180 33
3 179 180 181
3 30 182 183
3 34 35 10
3 36 35 34
3 36 12 35
3 37 38 14
3 39 38 37
3 39 16 38
3 40 41 17
3 42 41 40
3 42 18 41
3 185 184 8
3 43 44 19
3 45 44 43
3 45 21 44
3 46 47 11
3 48 47 46
3 48 22 47
3 48 49 22
3 50 49 48
3 50 23 49
3 186 24 187
3 51 52 13
3 53 52 51
3 53 25 52
3 53 54 25
3 55 54 53
3 55 26 54
3 55 56 26
3 57 56 55
3 57 27 56
3 188 58 189
3 190 58 191
3 192 28 193
3 194 193 58
3 192 193 194
3 195 59 196
3 197 196 28
3 195 196 197
3 198 59 199
3 201 200 59
3 202 29 203
3 204 60 205
3 206 205 29
3 204 205 206
3 207 60 208
3 210 209 60
3 61 62 20
3 63 62 61
3 63 211 213
3 213 212 62
3 211 212 213
3 215 214 15
3 64 65 2
3 66 65 64
3 66 8 65
3 32 66 7
3 67 66 32
3 67 8 66
3 67 216 218
3 218 217 8
3 216 217 218
3 220 219 67
3 223 222 9
3 221 222 223
3 68 69 3
3 70 69 68
3 70 11 69
3 35 70 10
3 71 70 35
3 71 11 70
3 71 46 11
3 72 46 71
3 72 5 46
3 224 13 225
3 226 13 227
3 228 51 229
3 230 229 13
3 228 229 230
3 231 51 232
3 233 6 234
3 235 234 51
3 233 234 235
3 236 73 237
3 238 237 6
3 236 237 238
3 239 73 240
3 242 241 73
3 74 75 4
3 76 75 74
3 76 15 75
3 38 76 14
3 77 76 38
3 77 15 76
3 77 243 245
3 245 244 15
3 243 244 245
3 247 246 77
3 78 79 1
3 80 79 78
3 80 248 250
3 250 249 79
3 248 249 250
3 41 80 17
3 251 80 252
3 253 252 41
3 251 252 253
3 255 254 80
3 65 42 2
3 81 42 65
3 81 18 42
3 256 81 257
3 258 257 8
3 256 257 258
3 259 81 260
3 261 18 262
3 263 262 81
3 261 262 263
3 266 265 18
3 264 265 266
3 82 267 269
3 269 268 0
3 267 268 269
3 271 270 82
3 272 83 273
3 84 274 276
3 274 83 275
3 274 275 276
3 84 20 83
3 44 84 19
3 85 84 44
3 85 20 84
3 85 61 20
3 86 61 85
3 86 4 61
3 69 45 3
3 87 45 69
3 87 21 45
3 47 87 11
3 88 87 47
3 88 21 87
3 88 86 21
3 89 86 88
3 89 4 86
3 89 74 4
3 90 74 89
3 90 14 74
3 49 90 22
3 91 90 49
3 91 14 90
3 91 37 14
3 92 37 91
3 92 1 37
3 277 36 278
3 279 36 280
3 281 12 282
3 283 282 36
3 281 282 283
3 93 284 285
3 93 286 288
3 286 12 287
3 286 287 288
3 93 72 12
3 94 72 93
3 94 5 72
3 95 289 290
3 95 291 293
3 291 24 292
3 291 292 293
3 52 95 13
3 96 95 52
3 96 24 95
3 96 94 24
3 97 94 96
3 97 5 94
3 97 50 5
3 98 50 97
3 98 23 50
3 54 98 25
3 99 98 54
3 99 23 98
3 99 92 23
3 100 92 99
3 100 1 92
3 100 78 1
3 101 78 100
3 101 17 78
3 56 101 26
3 102 101 56
3 102 17 101
3 102 40 17
3 103 40 102
3 103 2 40
3 73 57 6
3 104 57 73
3 104 27 57
3 58 294 296
3 294 104 295
3 294 295 296
3 105 104 58
3 105 27 104
3 105 103 27
3 106 103 105
3 106 2 103
3 106 64 2
3 107 64 106
3 107 7 64
3 59 107 28
3 108 107 59
3 108 7 107
3 108 31 7
3 82 31 108
3 82 0 31
3 297 19 298
3 299 19 300
3 301 43 302
3 303 302 19
3 301 302 303
3 109 304 306
3 304 43 305
3 304 305 306
3 109 3 43
3 110 307 308
3 110 309 310
3 110 311 313
3 311 109 312
3 311 312 313
3 111 109 110
3 111 3 109
3 111 68 3
3 112 68 111
3 112 10 68
3 60 112 29
3 113 112 60
3 113 10 112
3 113 34 10
3 314 34 315
3 316 315 113
3 314 315 316
3 318 317 34
3 320 319 0
3 83 321 322
3 114 323 325
3 325 324 83
3 323 324 325
3 114 326 327
3 62 114 20
3 328 114 329
3 330 329 62
3 328 329 330
3 332 331 114
3 75 63 4
3 333 63 334
3 335 334 75
3 333 334 335
3 337 336 63
3 339 338 15
3 79 39 1
3 340 39 341
3 342 341 79
3 340 341 342
3 343 16 344
3 345 344 39
3 343 344 345
3 346 16 347
3 349 348 16
