ply
format ascii 1.0
element vertex 276
property float x
property float y
property float z
element face 273
property list uchar int vertex_index
end_header
-35.921806 -44.491837 -14.046764
-32.633911 -50.569016 -3.970092
-36.837421 -41.816082 -6.944328
-31.47887 -54.424015 -11.121252
-35.57563 -47.552517 -20.673944
-36.642517 -42.768669 1.646453
-35.757294 -44.558929 -1.951735
-37.423813 -40.172501 -3.309194
-34.211594 -47.832447 -9.159435
-31.862354 -52.531033 -7.57927
-33.832214 -49.320915 -12.608516
-33.499035 -51.362915 -15.948343
-35.681534 -45.983227 -17.415184
-37.413296 -42.127773 -21.932085
-37.543755 -40.719856 -18.61953
-34.907173 -46.225273 -5.611024
-36.298855 -43.207577 -10.48603
-37.732578 -39.569622 -15.190671
-37.349274 -43.529549 -25.258387
-37.00853 -41.595707 -0.728382
-37.649948 -39.423054 -1.482701
-37.970013 -37.983379 -3.912624
-35.083755 -46.177391 -11.608525
-33.947487 -48.668701 -10.916031
-34.85994 -46.992928 -13.231608
-34.744446 -47.742161 -14.988701
-35.724926 -45.328278 -15.586422
-36.567497 -43.562798 -17.893488
-36.752281 -42.669315 -16.397671
-36.303894 -43.209198 -4.454928
-35.282276 -45.485676 -3.798261
-35.912544 -44.067715 -6.287361
-35.635113 -44.69384 -8.159985
-36.588806 -42.449215 -8.749285
-37.210102 -40.849243 -11.118021
-37.444736 -40.120644 -9.313884
-31.72308 -53.292042 -9.432466
-30.498817 -55.755482 -8.501895
-31.433958 -55.294388 -12.920373
-34.553684 -49.537491 -18.354401
-33.441826 -52.253677 -17.567581
-34.502491 -50.423134 -20.022093
-36.447803 -45.722897 -22.897539
-38.386166 -37.639942 -17.496233
-35.181744 -45.899467 0.642654
-36.18988 -43.711334 -0.05016
-36.672794 -42.378674 -2.577644
-37.120266 -41.068733 -5.081028
-37.657276 -39.397552 -7.534966
-37.819023 -38.737278 -5.780557
-38.276016 -36.579334 -6.31727
-33.371758 -49.319794 -6.541561
-32.209038 -51.548763 -5.876814
-33.110058 -50.059345 -8.365663
-32.86216 -50.922955 -10.074214
-32.638969 -51.884476 -11.707279
-32.576855 -52.701698 -13.52943
-33.656586 -50.261898 -14.223347
-34.616089 -48.663845 -16.656553
-35.584335 -46.84227 -19.007212
-36.543446 -44.836372 -21.408543
-36.586319 -44.082321 -19.733736
-37.43219 -41.502953 -20.193161
-38.239151 -38.813126 -20.709389
-34.710976 -46.719021 -1.280718
-34.176121 -47.690128 -2.989429
-33.830898 -48.349693 -5.027009
-34.572868 -46.947254 -7.397263
-35.251614 -45.609264 -9.723648
-36.118298 -43.768158 -12.300981
-36.915844 -41.932598 -14.728037
-37.019772 -41.462837 -12.802624
-37.858475 -39.026073 -13.578707
-32.425392 -53.816139 -15.16246
-38.168934 -41.205532 -27.585674
-37.415241 -42.688148 -23.517778
-38.158897 -40.657578 -25.682926
-37.607506 -40.201641 -16.986078
-38.343235 -38.079079 -19.145021
-37.758627 -38.974508 -0.647417
-37.504669 -40.053252 -0.200597
-37.867593 -38.29282 -1.833881
-37.758627 -38.974508 -0.647417
-32.042501 -51.63999 -3.599006
-32.244991 -51.217373 -2.66468
-30.907789 -55.617226 -10.694042
-30.417763 -56.282959 -9.384363
-30.988844 -55.089748 -9.811573
-31.456414 -54.859201 -12.020812
-30.885333 -56.052412 -11.593602
-30.907789 -55.617226 -10.694042
-35.518076 -48.066671 -21.484909
-34.981506 -49.50198 -21.158984
-35.03906 -48.987825 -20.348019
-36.011716 -46.637707 -21.785742
-35.954162 -47.151862 -22.596706
-35.518076 -48.066671 -21.484909
-36.416199 -43.240002 0.798146
-35.953199 -44.326729 1.22039
-36.179518 -43.855396 2.068696
-38.287302 -36.213833 -5.448303
-38.123014 -37.281357 -5.114947
-38.134301 -36.915855 -4.24598
-38.403827 -35.423383 -6.539184
-38.287302 -36.213833 -5.448303
-37.931085 -38.718324 -12.646889
-37.534289 -39.937658 -12.348364
-37.606899 -39.629909 -11.416546
-38.210489 -37.778995 -13.850455
-37.931085 -38.718324 -12.646889
-37.902477 -38.570841 -8.741853
-37.953863 -38.241392 -7.879309
-31.412529 -53.197443 -6.243106
-31.585871 -52.706308 -5.391878
-32.035696 -52.039898 -6.728042
-32.918173 -53.525915 -17.292295
-33.410461 -52.75355 -18.444861
-37.320609 -43.903134 -26.126629
-36.889155 -44.984976 -24.952639
-37.759104 -42.367541 -26.42203
-37.730439 -42.741125 -27.290273
-37.320609 -43.903134 -26.126629
-38.547279 -39.144305 -26.03395
-38.193728 -40.265496 -24.906428
-38.528399 -39.469168 -26.820988
-38.547279 -39.144305 -26.03395
-38.690359 -36.747515 -19.41407
-38.3647 -37.85951 -18.320627
-38.711825 -36.527946 -18.589676
-38.644755 -37.107441 -20.199796
-38.690359 -36.747515 -19.41407
-37.18396 -41.139578 0.176562
-36.825524 -42.182188 0.459035
-37.000953 -41.726059 1.36398
-37.329239 -40.50938 -1.105541
-37.18396 -41.139578 0.176562
-37.504669 -40.053252 -0.200597
-38.027626 -37.572982 -3.048843
-37.809981 -38.703216 -2.697662
-37.867593 -38.29282 -1.833881
-38.134301 -36.915855 -4.24598
-38.027626 -37.572982 -3.048843
-37.724216 -39.26561 -10.514477
-37.606899 -39.629909 -11.416546
-37.327419 -40.484943 -10.215953
-31.218793 -54.032971 -8.120707
-31.28843 -53.652466 -7.194109
-31.792717 -52.911538 -8.505868
-30.606662 -55.264691 -7.655421
-31.218793 -54.032971 -8.120707
-31.110948 -54.523762 -8.96718
-30.024097 -56.40296 -7.22489
-30.606662 -55.264691 -7.655421
-29.883728 -57.020876 -8.093699
-30.024097 -56.40296 -7.22489
-29.883728 -57.020876 -8.093699
-30.417763 -56.282959 -9.384363
-30.863733 -56.527681 -12.514366
-30.885333 -56.052412 -11.593602
-31.376081 -55.8541 -13.773324
-30.863733 -56.527681 -12.514366
-33.940794 -51.838278 -19.672117
-33.410461 -52.75355 -18.444861
-33.972158 -51.338406 -18.794837
-34.473425 -50.879791 -20.871193
-33.940794 -51.838278 -19.672117
-34.473425 -50.879791 -20.871193
-34.981506 -49.50198 -21.158984
-36.438419 -46.08165 -23.772215
-35.954162 -47.151862 -22.596706
-36.898539 -44.626223 -24.077963
-36.889155 -44.984976 -24.952639
-36.438419 -46.08165 -23.772215
-37.820927 -41.000593 -23.031008
-37.830464 -40.695194 -22.194906
-38.438198 -37.3356 -16.65775
-38.059372 -38.604782 -16.343452
-38.111404 -38.30044 -15.504969
-38.720135 -36.32473 -17.710698
-38.438198 -37.3356 -16.65775
-38.711825 -36.527946 -18.589676
-38.720135 -36.32473 -17.710698
-35.449131 -45.420795 1.566796
-34.953465 -46.412558 1.857532
-35.685812 -44.805401 0.296247
-35.449131 -45.420795 1.566796
-35.953199 -44.326729 1.22039
-38.034737 -37.911255 -7.002104
-37.953863 -38.241392 -7.879309
-37.73815 -39.067415 -6.657761
-38.263233 -36.832283 -7.270461
-38.034737 -37.911255 -7.002104
-38.047519 -37.658306 -6.048913
-38.437261 -35.784958 -7.402076
-38.263233 -36.832283 -7.270461
-38.437261 -35.784958 -7.402076
-38.403827 -35.423383 -6.539184
-37.839911 -40.382784 -21.325443
-37.830464 -40.695194 -22.194906
-37.422743 -41.815363 -21.062623
-38.243391 -39.03787 -21.583558
-37.839911 -40.382784 -21.325443
-37.83567 -40.15804 -20.451275
-38.588262 -37.706461 -21.839162
-38.243391 -39.03787 -21.583558
-32.858862 -50.136342 -3.111485
-32.244991 -51.217373 -2.66468
-34.656371 -46.907337 0.943208
-34.953465 -46.412558 1.857532
-34.420986 -47.317114 -0.018478
-34.656371 -46.907337 0.943208
-34.94636 -46.309244 -0.319032
-34.148388 -47.776687 -0.823397
-34.420986 -47.317114 -0.018478
-33.880961 -48.262241 -1.677752
-34.148388 -47.776687 -0.823397
-34.443549 -47.204574 -2.135073
-33.629967 -48.696898 -2.621154
-33.880961 -48.262241 -1.677752
-33.457355 -49.02668 -3.639943
-33.629967 -48.696898 -2.621154
-34.003509 -48.019911 -4.008219
-33.232405 -49.459355 -4.498551
-32.858862 -50.136342 -3.111485
-33.457355 -49.02668 -3.639943
-38.174353 -38.028666 -14.698987
-38.111404 -38.30044 -15.504969
-37.795526 -39.297848 -14.384689
-38.174353 -38.028666 -14.698987
-38.210489 -37.778995 -13.850455
-37.796207 -38.932386 -9.631312
-37.551006 -39.759098 -8.424425
-37.902477 -38.570841 -8.741853
-37.724216 -39.26561 -10.514477
-37.796207 -38.932386 -9.631312
-36.469942 -43.290447 2.861064
-36.179518 -43.855396 2.068696
-36.864719 -42.265958 2.549872
-36.469942 -43.290447 2.861064
-37.000953 -41.726059 1.36398
-36.864719 -42.265958 2.549872
-31.830064 -52.129863 -4.552366
-32.042501 -51.63999 -3.599006
-32.421475 -51.058889 -4.923453
-31.830064 -52.129863 -4.552366
-31.585871 -52.706308 -5.391878
-31.412529 -53.197443 -6.243106
-31.28843 -53.652466 -7.194109
-31.871799 -55.114975 -14.894367
-31.376081 -55.8541 -13.773324
-31.929675 -54.555263 -14.041417
-32.409956 -54.307146 -16.089734
-32.933609 -53.034908 -16.36502
-32.918173 -53.525915 -17.292295
-31.871799 -55.114975 -14.894367
-32.409956 -54.307146 -16.089734
-38.121555 -41.596807 -28.453789
-37.730439 -42.741125 -27.290273
-38.513596 -40.054603 -28.663213
-38.121555 -41.596807 -28.453789
-37.8219 -41.28078 -23.823854
-37.414269 -42.407961 -22.724932
-37.820927 -41.000593 -23.031008
-37.787069 -41.672863 -24.600352
-37.8219 -41.28078 -23.823854
-38.193728 -40.265496 -24.906428
-38.533417 -39.743145 -27.772362
-38.163916 -40.931555 -26.6343
-38.528399 -39.469168 -26.820988
-38.513596 -40.054603 -28.663213
-38.533417 -39.743145 -27.772362
-38.592713 -37.474464 -20.98198
-38.291193 -38.446102 -19.927205
-38.644755 -37.107441 -20.199796
-38.588262 -37.706461 -21.839162
-38.592713 -37.474464 -20.98198
3 79 20 80
3 82 81 20
3 0 24 22
3 0 26 24
3 0 28 26
3 2 31 29
3 2 33 31
3 2 35 33
3 1 83 84
3 3 37 36
3 3 85 87
3 87 86 37
3 85 86 87
3 3 88 90
3 88 38 89
3 88 89 90
3 4 41 39
3 4 91 93
3 93 92 41
3 91 92 93
3 4 94 96
3 94 42 95
3 94 95 96
3 5 97 99
3 97 45 98
3 97 98 99
3 7 46 19
3 7 47 46
3 7 49 47
3 100 50 101
3 102 101 21
3 100 101 102
3 104 103 50
3 8 53 51
3 10 54 23
3 10 55 54
3 10 57 55
3 12 58 25
3 12 59 58
3 12 61 59
3 14 62 27
3 14 63 62
3 6 64 44
3 15 65 30
3 15 66 65
3 15 67 66
3 16 68 32
3 16 69 68
3 16 71 69
3 105 72 106
3 107 106 34
3 105 106 107
3 109 108 72
3 111 110 48
3 9 112 114
3 114 113 52
3 112 113 114
3 11 73 56
3 116 115 40
3 18 117 118
3 18 119 121
3 119 74 120
3 119 120 121
3 13 75 60
3 122 76 123
3 125 124 76
3 17 77 70
3 126 78 127
3 128 127 43
3 126 127 128
3 130 129 78
3 131 19 132
3 133 132 5
3 131 132 133
3 20 134 136
3 134 19 135
3 134 135 136
3 20 7 19
3 20 21 7
3 137 21 138
3 139 138 20
3 137 138 139
3 141 140 21
3 22 23 8
3 24 23 22
3 24 10 23
3 24 25 10
3 26 25 24
3 26 12 25
3 26 27 12
3 28 27 26
3 28 14 27
3 29 30 6
3 31 30 29
3 31 15 30
3 31 32 15
3 33 32 31
3 33 16 32
3 33 34 16
3 35 34 33
3 35 142 144
3 144 143 34
3 142 143 144
3 36 145 147
3 147 146 9
3 145 146 147
3 37 148 150
3 150 149 36
3 148 149 150
3 37 151 152
3 37 153 154
3 156 155 37
3 38 157 158
3 38 159 160
3 39 40 11
3 41 40 39
3 41 161 163
3 163 162 40
3 161 162 163
3 41 164 165
3 167 166 41
3 42 168 169
3 42 170 172
3 170 18 171
3 170 171 172
3 174 173 13
3 175 43 176
3 177 176 17
3 175 176 177
3 178 43 179
3 181 180 43
3 182 44 183
3 45 184 186
3 184 44 185
3 184 185 186
3 45 6 44
3 19 45 5
3 46 45 19
3 46 6 45
3 46 29 6
3 47 29 46
3 47 2 29
3 47 48 2
3 49 48 47
3 49 187 189
3 189 188 48
3 187 188 189
3 21 49 7
3 50 49 21
3 50 190 192
3 192 191 49
3 190 191 192
3 50 193 194
3 196 195 50
3 51 52 1
3 53 52 51
3 53 9 52
3 23 53 8
3 54 53 23
3 54 9 53
3 54 36 9
3 55 36 54
3 55 3 36
3 55 56 3
3 57 56 55
3 57 11 56
3 25 57 10
3 58 57 25
3 58 11 57
3 58 39 11
3 59 39 58
3 59 4 39
3 59 60 4
3 61 60 59
3 61 13 60
3 27 61 12
3 62 61 27
3 62 13 61
3 62 197 199
3 199 198 13
3 197 198 199
3 63 200 202
3 202 201 62
3 200 201 202
3 63 203 204
3 205 1 206
3 44 207 208
3 64 209 211
3 211 210 44
3 209 210 211
3 64 212 213
3 30 64 6
3 65 64 30
3 65 214 216
3 216 215 64
3 214 215 216
3 65 217 218
3 66 219 221
3 221 220 65
3 219 220 221
3 66 222 224
3 222 1 223
3 222 223 224
3 66 51 1
3 67 51 66
3 67 8 51
3 32 67 15
3 68 67 32
3 68 8 67
3 68 22 8
3 69 22 68
3 69 0 22
3 69 70 0
3 71 70 69
3 71 17 70
3 34 71 16
3 72 71 34
3 72 17 71
3 72 225 227
3 227 226 17
3 225 226 227
3 229 228 72
3 48 35 2
3 230 35 231
3 232 231 48
3 230 231 232
3 234 233 35
3 235 5 236
3 237 5 238
3 240 239 5
3 52 241 243
3 243 242 1
3 241 242 243
3 245 244 52
3 247 246 9
3 56 38 3
3 73 38 56
3 73 248 250
3 250 249 38
3 248 249 250
3 40 73 11
3 251 73 252
3 253 252 40
3 251 252 253
3 255 254 73
3 74 256 257
3 74 258 259
3 60 42 4
3 75 42 60
3 75 18 42
3 260 75 261
3 262 261 13
3 260 261 262
3 76 263 265
3 263 75 264
3 263 264 265
3 76 18 75
3 76 74 18
3 266 74 267
3 268 267 76
3 266 267 268
3 270 269 74
3 70 28 0
3 77 28 70
3 77 14 28
3 43 77 17
3 78 77 43
3 78 14 77
3 78 63 14
3 271 63 272
3 273 272 78
3 271 272 273
3 275 274 63
