ply
format ascii 1.0
element vertex 327
property float x
property float y
property float z
element face 340
property list uchar int vertex_index
end_header
-29.977304 -16.238115 68.86586
-30.984755 -12.313551 61.334534
-26.613886 -7.468162 72.21154
-29.994816 -2.343149 67.439377
-30.764687 2.853871 59.988243
-30.557987 7.815621 51.565033
-30.483871 -20.748341 66.086426
-30.817989 -14.405429 65.361061
-28.318972 -17.809551 71.426529
-29.345491 -22.568254 69.416832
-26.202827 -0.628982 71.379532
-29.540308 4.772064 66.538063
-30.642206 -0.017987 63.804749
-30.188602 8.044021 63.0742
-30.514677 10.474779 47.496365
-30.72257 -9.966674 56.945259
-28.748064 -11.63765 70.975121
-30.239086 -9.593084 68.06485
-28.67473 -5.118754 70.344856
-28.242741 1.94069 69.407486
-30.875929 -7.237158 64.52639
-30.970697 -5.093388 60.700603
-30.752354 -2.386096 56.381393
-30.686689 5.247471 55.804146
-30.442089 -0.193945 52.068695
-30.243734 2.037575 47.994167
-30.299994 -18.556608 67.572388
-30.686789 -17.704773 65.683151
-30.495081 -15.498885 67.195007
-29.276737 -17.220751 70.222076
-28.947874 -20.173855 70.465843
-29.751282 -19.428024 69.077141
-30.005152 -21.77689 67.907188
-29.910372 6.446761 64.888496
-30.915827 -15.594134 61.785892
-30.828707 -14.759251 59.60574
-30.888855 -11.188744 59.134762
-27.795397 -9.315808 71.700623
-28.868404 -8.570821 70.582672
-27.752487 -6.152515 71.369774
-25.901596 2.626331 70.874596
-27.285275 0.53621 70.55735
-26.943022 4.150498 69.999748
-27.797525 5.644085 68.950455
-26.448183 8.035739 69.371681
-27.731848 -12.629351 71.964668
-30.158173 -6.062567 67.785973
-30.645325 -8.586435 66.367363
-30.548565 -4.841237 66.07428
-30.743719 1.332445 61.968422
-30.883808 -2.426617 62.189461
-30.882349 -1.213463 60.217758
-30.881937 -3.691892 58.452522
-30.819487 0.208796 58.244423
-30.61846 10.733158 53.430485
-30.640377 9.344794 55.454479
-30.621729 6.380423 53.735905
-30.605974 2.437792 53.855106
-30.505501 3.769547 51.816792
-30.318335 0.861626 49.984028
-30.426872 4.992702 49.737621
-30.389311 7.443359 45.813484
-30.873119 -16.68185 63.787403
-30.973764 -13.252916 63.386791
-27.157488 -18.559328 72.311043
-27.910192 -20.816349 71.590996
-28.445555 -23.197994 70.723747
-26.535414 -4.091358 71.806992
-29.788908 1.297092 66.984909
-30.374077 -1.210835 65.807343
-30.200937 2.478431 65.261375
-30.416403 3.973809 63.574139
-30.572454 5.230577 61.670193
-30.521778 9.198762 49.482883
-29.499392 -13.795659 69.960129
-30.169333 -13.012815 68.457069
-29.640783 -10.652865 69.58593
-29.584934 -7.217052 69.315224
-29.443842 -3.743835 68.975616
-27.615763 -2.735574 70.939903
-28.529755 -1.545418 69.854729
-29.245134 -0.09015 68.515091
-28.937174 3.635497 68.05587
-27.492601 -15.664187 72.169792
-28.667587 -14.821326 71.138931
-30.603506 -12.24248 66.85202
-30.887957 -11.026812 64.938782
-31.007948 -9.820261 62.943645
-30.769661 -3.537817 64.262367
-30.973486 -6.216063 62.627464
-31.003763 -8.766099 60.814934
-30.918531 -7.358486 58.864754
-30.763664 -6.216643 56.702068
-30.56625 -5.114008 54.482388
-30.399744 9.135552 61.150913
-30.647924 6.543307 59.563667
-30.659662 7.841657 57.595699
-30.744707 3.945707 57.897327
-30.723347 1.377725 56.087978
-30.603926 -1.22943 54.308372
-30.374523 -4.209893 52.414284
-30.22266 -2.848689 50.357525
-30.09725 -1.889356 48.226326
-30.388876 6.247661 47.810772
-30.218981 3.294098 46.055698
-26.197097 5.204942 70.126598
-26.422309 3.388414 70.437172
-25.676384 4.442858 70.564022
-25.949677 7.147562 69.812565
-26.695602 6.093118 69.685714
-26.197097 5.204942 70.126598
-26.646071 -9.00101 72.336395
-25.950638 -7.936127 72.474365
-27.204642 -8.391985 71.956081
-27.236827 -9.924834 72.080937
-26.646071 -9.00101 72.336395
-30.595645 -20.502493 65.12331
-30.488495 -22.011659 65.370484
-29.099077 -24.073051 69.534039
-28.649109 -24.38792 70.187496
-28.895523 -22.883124 70.07029
-29.488159 -23.713138 68.790619
-29.099077 -24.073051 69.534039
-30.336536 -22.386198 66.247689
-30.097176 -22.900472 67.15807
-30.244512 -21.262616 66.996807
-30.488495 -22.011659 65.370484
-30.336536 -22.386198 66.247689
-30.576784 -11.317651 56.010687
-30.687342 -11.800855 57.112791
-30.620491 -9.471652 55.888344
-30.576784 -11.317651 56.010687
-28.20606 6.384899 68.256218
-27.609703 7.45581 68.644043
-26.967337 -14.532951 72.439315
-26.791694 -15.988732 72.523349
-30.45154 9.916768 60.128395
-30.280555 11.288553 60.94668
-30.57563 8.620646 59.334772
-30.523834 7.83943 60.35729
-30.45154 9.916768 60.128395
-30.137576 0.626117 47.050157
-30.064334 -1.337348 47.166237
-30.170492 0.074109 48.110247
-30.238846 3.940221 45.074913
-30.304146 5.368728 45.934591
-30.324011 6.014852 44.953806
-30.132928 1.885059 45.103382
-30.238846 3.940221 45.074913
-29.550414 7.55191 65.478931
-29.72534 5.609413 65.713279
-29.365382 6.714562 66.303714
-29.755865 8.36939 64.674381
-29.550414 7.55191 65.478931
-29.894979 9.16802 63.767233
-30.049487 7.245391 63.981348
-29.755865 8.36939 64.674381
-30.830485 -16.843224 60.940202
-30.854833 -17.336256 61.996902
-30.786925 -16.425783 59.850127
-30.830485 -16.843224 60.940202
-30.872267 -15.176693 60.695816
-30.716074 -15.891967 58.779636
-30.786925 -16.425783 59.850127
-30.74041 -14.197143 58.443032
-30.716074 -15.891967 58.779636
-30.770484 -12.41189 58.207543
-30.74041 -14.197143 58.443032
-30.858781 -12.973997 59.370251
-30.805712 -10.577709 58.040011
-30.687342 -11.800855 57.112791
-30.770484 -12.41189 58.207543
-26.935032 8.651637 68.854656
-27.609703 7.45581 68.644043
-27.122854 6.839912 69.161068
-27.205053 -11.581605 72.212959
-27.08696 -13.015533 72.336754
-27.763623 -10.97258 71.832645
-27.205053 -11.581605 72.212959
-27.236827 -9.924834 72.080937
-30.629418 10.038976 54.442482
-30.612196 11.442032 55.317487
-30.601237 12.136214 54.30549
-30.467197 9.535217 45.595976
-30.451994 8.959069 46.654924
-30.52988 11.050926 46.437416
-30.422196 8.026784 44.754625
-30.467197 9.535217 45.595976
-30.324011 6.014852 44.953806
-30.422196 8.026784 44.754625
-30.697105 -18.980709 64.921672
-30.595645 -20.502493 65.12331
-30.58533 -19.226557 65.884788
-30.79027 -18.469248 63.973799
-30.697105 -18.980709 64.921672
-30.779954 -17.193312 64.735277
-30.833479 -17.880114 62.997658
-30.79027 -18.469248 63.973799
-30.894473 -16.137992 62.786648
-30.854833 -17.336256 61.996902
-30.833479 -17.880114 62.997658
-26.870696 -19.928375 72.390934
-26.476934 -18.875477 72.61533
-27.247048 -21.056885 72.030911
-26.870696 -19.928375 72.390934
-27.53384 -19.687838 71.95102
-27.599681 -22.158921 71.697986
-27.247048 -21.056885 72.030911
-27.867363 -23.349743 71.264362
-27.599681 -22.158921 71.697986
-28.177873 -22.007171 71.157372
-28.158962 -24.609502 70.79898
-27.867363 -23.349743 71.264362
-28.158962 -24.609502 70.79898
-28.649109 -24.38792 70.187496
-29.817989 -23.317456 68.035797
-29.488159 -23.713138 68.790619
-29.675321 -22.172572 68.66201
-29.817989 -23.317456 68.035797
-30.097176 -22.900472 67.15807
-25.884963 -4.697961 72.107617
-26.57465 -5.77976 72.009266
-25.924199 -6.386363 72.30989
-25.828866 -3.061316 71.887226
-25.884963 -4.697961 72.107617
-25.662572 -1.330128 71.673496
-26.369121 -2.36017 71.593262
-25.828866 -3.061316 71.887226
-25.477838 0.355608 71.423474
-25.662572 -1.330128 71.673496
-25.327223 1.983265 71.171006
-26.052211 0.998674 71.127064
-25.477838 0.355608 71.423474
-25.099941 3.642553 70.885231
-25.327223 1.983265 71.171006
-25.676384 4.442858 70.564022
-25.099941 3.642553 70.885231
-25.924199 -6.386363 72.30989
-25.950638 -7.936127 72.474365
-30.614635 12.776722 53.205427
-30.601237 12.136214 54.30549
-30.610053 11.324094 52.359823
-30.614635 12.776722 53.205427
-30.579816 9.865326 51.427098
-30.588223 9.274389 52.497759
-30.610053 11.324094 52.359823
-30.561712 10.556896 50.386022
-30.539883 8.507192 50.523958
-30.579816 9.865326 51.427098
-30.562378 11.253028 49.342834
-30.561712 10.556896 50.386022
-30.558827 11.891037 48.349575
-30.518228 9.836771 48.489624
-30.562378 11.253028 49.342834
-30.569447 12.531643 47.348872
-30.558827 11.891037 48.349575
-30.52988 11.050926 46.437416
-30.569447 12.531643 47.348872
-28.775884 5.380605 67.808926
-28.367349 4.639791 68.503163
-28.20606 6.384899 68.256218
-29.077451 5.948889 67.050022
-29.238741 4.203781 67.296966
-28.775884 5.380605 67.808926
-29.365382 6.714562 66.303714
-29.077451 5.948889 67.050022
-25.691 8.888065 69.485164
-25.949677 7.147562 69.812565
-26.199519 9.769062 69.057331
-25.691 8.888065 69.485164
-26.935032 8.651637 68.854656
-26.199519 9.769062 69.057331
-26.624137 -17.436302 72.593975
-26.476934 -18.875477 72.61533
-27.325045 -17.111757 72.240418
-26.624137 -17.436302 72.593975
-26.791694 -15.988732 72.523349
-27.612224 -14.146769 72.06723
-26.967337 -14.532951 72.439315
-27.08696 -13.015533 72.336754
-30.641038 -7.596637 55.766748
-30.620491 -9.471652 55.888344
-30.743117 -8.091658 56.823663
-30.542331 -7.045319 54.656909
-30.641038 -7.596637 55.766748
-30.664957 -5.665325 55.592228
-30.436734 -6.497962 53.607207
-30.542331 -7.045319 54.656909
-30.054175 9.982381 62.873386
-29.894979 9.16802 63.767233
-30.159746 10.528146 61.911743
-30.280555 11.288553 60.94668
-30.294173 8.589787 62.112556
-30.054175 9.982381 62.873386
-30.159746 10.528146 61.911743
-30.594583 10.772528 56.348522
-30.612196 11.442032 55.317487
-30.604226 10.02096 57.419132
-30.594583 10.772528 56.348522
-30.650019 8.593225 56.525089
-30.581499 9.269821 58.350788
-30.604226 10.02096 57.419132
-30.653793 7.192482 58.579683
-30.57563 8.620646 59.334772
-30.581499 9.269821 58.350788
-30.34087 -6.045904 52.573155
-30.436734 -6.497962 53.607207
-30.470387 -4.66195 53.448336
-30.238054 -5.458499 51.462007
-30.34087 -6.045904 52.573155
-30.162123 -4.777896 50.433628
-30.238054 -5.458499 51.462007
-30.298592 -3.529291 51.385905
-30.092734 -4.173248 49.413809
-30.162123 -4.777896 50.433628
-30.030029 -3.693582 48.348209
-30.092734 -4.173248 49.413809
-30.159955 -2.369022 49.291926
-29.974731 -3.259381 47.248764
-30.030029 -3.693582 48.348209
-29.974731 -3.259381 47.248764
-30.064334 -1.337348 47.166237
-30.1252 1.254379 46.080923
-30.137576 0.626117 47.050157
-30.231358 2.665837 47.024932
-30.1252 1.254379 46.080923
-30.132928 1.885059 45.103382
3 0 28 26
3 0 31 29
3 0 26 31
3 1 35 34
3 1 36 35
3 2 39 37
3 105 42 106
3 107 106 40
3 105 106 107
3 108 44 109
3 110 109 42
3 108 109 110
3 2 111 112
3 2 113 115
3 113 37 114
3 113 114 115
3 3 48 46
3 4 51 49
3 4 53 51
3 5 56 54
3 5 58 56
3 5 60 58
3 6 116 117
3 7 62 27
3 7 63 62
3 8 65 64
3 9 66 30
3 9 118 120
3 120 119 66
3 118 119 120
3 9 121 122
3 6 123 125
3 125 124 32
3 123 124 125
3 6 126 127
3 11 70 68
3 13 71 33
3 13 72 71
3 15 128 129
3 15 130 131
3 16 76 74
3 18 77 38
3 18 78 77
3 10 79 67
3 19 80 41
3 19 81 80
3 19 82 81
3 133 132 43
3 134 83 135
3 16 84 45
3 16 74 84
3 17 85 75
3 20 86 47
3 20 87 86
3 12 88 69
3 21 89 50
3 21 90 89
3 21 91 90
3 22 92 52
3 22 93 92
3 136 94 137
3 138 95 139
3 140 139 94
3 138 139 140
3 23 96 55
3 23 97 96
3 23 98 97
3 24 99 57
3 24 100 99
3 24 101 100
3 25 102 59
3 25 141 143
3 143 142 102
3 141 142 143
3 14 103 73
3 144 104 145
3 146 145 61
3 144 145 146
3 148 147 104
3 26 27 6
3 28 27 26
3 28 7 27
3 29 30 8
3 31 30 29
3 31 9 30
3 31 32 9
3 26 32 31
3 26 6 32
3 149 33 150
3 151 150 11
3 149 150 151
3 152 33 153
3 154 13 155
3 156 155 33
3 154 155 156
3 34 157 158
3 35 159 161
3 161 160 34
3 159 160 161
3 35 162 163
3 35 164 165
3 36 166 168
3 168 167 35
3 166 167 168
3 36 169 171
3 169 15 170
3 169 170 171
3 37 38 16
3 39 38 37
3 39 18 38
3 40 41 10
3 42 41 40
3 42 19 41
3 42 43 19
3 44 43 42
3 44 172 174
3 174 173 43
3 172 173 174
3 175 45 176
3 37 177 179
3 177 45 178
3 177 178 179
3 37 16 45
3 46 47 17
3 48 47 46
3 48 20 47
3 49 50 12
3 51 50 49
3 51 21 50
3 51 52 21
3 53 52 51
3 53 22 52
3 54 180 182
3 180 55 181
3 180 181 182
3 56 55 54
3 56 23 55
3 56 57 23
3 58 57 56
3 58 24 57
3 58 59 24
3 60 59 58
3 60 25 59
3 183 61 184
3 185 184 14
3 183 184 185
3 186 61 187
3 189 188 61
3 27 190 192
3 192 191 6
3 190 191 192
3 62 193 195
3 195 194 27
3 193 194 195
3 62 196 197
3 62 198 200
3 198 34 199
3 198 199 200
3 63 34 62
3 63 1 34
3 64 201 202
3 65 203 205
3 205 204 64
3 203 204 205
3 65 206 207
3 30 65 8
3 66 65 30
3 66 208 210
3 210 209 65
3 208 209 210
3 66 211 212
3 214 213 66
3 32 215 217
3 217 216 9
3 215 216 217
3 219 218 32
3 220 67 221
3 222 221 2
3 220 221 222
3 223 67 224
3 225 10 226
3 227 226 67
3 225 226 227
3 228 10 229
3 230 40 231
3 232 231 10
3 230 231 232
3 233 40 234
3 236 235 40
3 237 2 238
3 68 69 3
3 70 69 68
3 70 12 69
3 33 70 11
3 71 70 33
3 71 12 70
3 71 49 12
3 72 49 71
3 72 4 49
3 239 54 240
3 241 54 242
3 243 5 244
3 245 244 54
3 243 244 245
3 246 73 247
3 248 247 5
3 246 247 248
3 249 73 250
3 251 14 252
3 253 252 73
3 251 252 253
3 254 14 255
3 257 256 14
3 74 75 0
3 76 75 74
3 76 17 75
3 38 76 16
3 77 76 38
3 77 17 76
3 77 46 17
3 78 46 77
3 78 3 46
3 67 39 2
3 79 39 67
3 79 18 39
3 41 79 10
3 80 79 41
3 80 18 79
3 80 78 18
3 81 78 80
3 81 3 78
3 81 68 3
3 82 68 81
3 82 11 68
3 43 82 19
3 258 82 259
3 260 259 43
3 258 259 260
3 261 11 262
3 263 262 82
3 261 262 263
3 265 264 11
3 266 44 267
3 268 44 269
3 271 270 44
3 272 64 273
3 83 274 276
3 274 64 275
3 274 275 276
3 83 8 64
3 45 277 279
3 277 83 278
3 277 278 279
3 84 83 45
3 84 8 83
3 84 29 8
3 74 29 84
3 74 0 29
3 75 28 0
3 85 28 75
3 85 7 28
3 47 85 17
3 86 85 47
3 86 7 85
3 86 63 7
3 87 63 86
3 87 1 63
3 69 48 3
3 88 48 69
3 88 20 48
3 50 88 12
3 89 88 50
3 89 20 88
3 89 87 20
3 90 87 89
3 90 1 87
3 90 36 1
3 91 36 90
3 91 15 36
3 52 91 21
3 92 91 52
3 92 15 91
3 92 280 282
3 282 281 15
3 280 281 282
3 93 283 285
3 285 284 92
3 283 284 285
3 93 286 287
3 288 13 289
3 94 290 291
3 94 292 294
3 292 13 293
3 292 293 294
3 94 72 13
3 95 72 94
3 95 4 72
3 55 295 296
3 96 297 299
3 299 298 55
3 297 298 299
3 96 300 301
3 96 302 304
3 302 95 303
3 302 303 304
3 97 95 96
3 97 4 95
3 97 53 4
3 98 53 97
3 98 22 53
3 57 98 23
3 99 98 57
3 99 22 98
3 99 93 22
3 100 93 99
3 100 305 307
3 307 306 93
3 305 306 307
3 100 308 309
3 101 310 312
3 312 311 100
3 310 311 312
3 101 313 314
3 59 101 24
3 102 101 59
3 102 315 317
3 317 316 101
3 315 316 317
3 102 318 319
3 321 320 102
3 73 60 5
3 103 60 73
3 103 25 60
3 61 103 14
3 104 103 61
3 104 25 103
3 104 322 324
3 324 323 25
3 322 323 324
3 326 325 104
