ply
format ascii 1.0
element vertex 324
property float x
property float y
property float z
element face 338
property list uchar int vertex_index
end_header
10.067377 30.895485 59.100849
16.347269 21.786613 65.487411
17.190144 36.660641 60.863956
23.078144 25.951687 65.479103
2.514397 25.194952 56.47451
8.954453 17.128925 62.963459
19.611849 16.401037 67.903076
19.882843 23.780363 66.014908
22.935518 18.247398 67.611557
7.005913 34.673969 55.622032
10.773339 37.818066 56.781925
20.825638 39.075706 60.907578
13.129683 26.534208 62.48241
13.686233 33.484062 60.324448
16.819893 28.965656 63.497456
20.177362 31.329996 63.715485
23.350101 33.619778 62.899651
26.194836 34.968636 60.987206
25.844316 27.122765 64.004707
6.345139 27.960848 57.829613
2.063878 19.193094 58.223732
5.70697 21.344217 59.735775
9.557348 23.719343 61.305977
12.701675 19.468105 64.399826
15.949389 14.743255 67.186768
21.259924 13.789983 68.741028
21.252121 17.47197 67.856232
22.829525 14.752522 68.478378
8.456666 32.664135 57.379272
8.925774 36.306503 56.203167
10.356116 34.121422 58.028389
22.45113 40.063217 60.531898
14.786394 24.250963 64.068481
15.030713 27.674999 63.106503
16.673733 25.301903 64.595306
21.54487 24.793581 65.908195
20.038258 27.543617 64.924324
21.644119 28.576553 64.764389
21.867369 32.323166 63.521313
23.266209 29.805683 64.234482
24.706039 30.404289 63.581169
24.531612 26.529266 64.903107
0.995665 27.062311 54.86824
2.930827 28.227852 55.60004
4.719132 29.736618 56.129658
4.459897 26.520491 57.182194
7.392858 19.35927 61.378273
7.577421 22.414747 60.525356
9.272155 20.573002 62.127491
11.121367 21.632908 62.888435
10.84669 18.286652 63.716511
14.148255 13.869853 66.623169
17.700268 12.351178 68.383644
15.384819 34.985981 60.674305
13.945792 37.178848 59.015976
15.766531 38.850292 59.319027
27.267792 35.474579 59.64122
17.909719 19.25798 66.741318
18.220839 22.746126 65.89238
19.696087 20.062704 66.990952
21.469074 21.180954 66.909958
23.051863 22.069683 66.589699
24.433846 22.967922 65.993248
0.672829 23.884741 55.831581
10.673248 15.112896 64.504509
7.329755 38.149105 54.3727
9.218007 39.943199 54.848919
19.033253 37.863338 61.032494
17.501488 40.41291 59.455235
19.336258 41.526554 59.598175
11.484853 28.464895 60.86935
11.922412 31.941486 59.862724
13.470432 29.976007 61.494442
15.326862 31.288258 62.018532
16.957396 32.893909 62.194046
18.419146 26.366465 64.893539
18.421053 30.335381 63.623581
18.660667 34.156891 62.350437
20.443352 34.982578 62.454514
22.091743 36.218941 62.085846
23.699846 37.347797 61.408428
25.063761 38.023556 60.577934
24.906155 34.169739 62.150139
26.033314 30.902763 62.60022
25.751474 23.426117 65.189949
5.165376 32.955929 55.134693
6.709293 31.268299 56.800236
8.296515 29.118692 58.640232
2.232853 22.209249 57.346588
3.87967 20.144201 59.01722
4.159291 23.251785 58.156475
6.038833 24.480921 58.885025
7.905153 25.763889 59.59906
9.813125 27.12184 60.316002
11.402688 24.978842 62.003124
12.959227 22.824266 63.557644
14.587009 20.503637 65.066559
12.609243 16.118982 65.275185
14.283528 17.127556 65.841286
16.122637 18.245213 66.360069
17.817169 15.678309 67.620224
19.524193 13.074627 68.676422
12.150188 35.751419 58.510559
12.673644 39.632179 57.226124
22.760032 12.93496 68.896289
22.044725 14.271252 68.609703
21.975231 12.45369 69.027614
23.468784 13.237656 68.688976
22.760032 12.93496 68.896289
22.542012 42.092077 59.648533
23.18205 40.698137 60.12042
8.173656 18.244097 62.170866
7.242396 17.83932 61.740216
8.023193 16.724148 62.532809
23.698521 18.640726 67.327626
23.756694 20.551869 66.816697
22.99369 20.158541 67.100628
-0.281935 23.400985 55.42273
-0.053333 24.865953 55.043858
7.167834 36.411537 54.997366
6.412253 37.308817 54.132733
6.250332 35.571249 54.757398
10.918162 39.684273 56.072738
10.140496 40.74684 55.106235
9.995673 38.880633 55.815422
26.448833 27.391112 63.36067
26.543332 29.281112 62.658427
25.938815 29.012764 63.302464
25.731476 21.550397 65.72234
25.09266 23.19702 65.591599
25.072661 21.3213 66.123989
4.172641 32.277301 54.782751
4.411122 33.938581 54.253445
1.198879 20.036217 57.43255
0.290412 19.47134 57.054657
1.155411 18.628217 57.845838
2.148365 20.701172 57.78516
1.283367 21.544294 56.993978
1.198879 20.036217 57.43255
4.79332 20.744209 59.376497
4.643019 19.230331 59.761158
5.556669 19.830338 60.120435
12.470363 14.510355 65.6255
11.641246 15.615939 64.889847
11.502366 14.007312 65.240162
19.434407 11.401649 69.035911
18.612231 12.712903 68.530033
18.522445 11.039925 68.889522
20.299145 11.756156 69.078705
19.434407 11.401649 69.035911
13.551798 40.421426 57.410601
13.309718 38.405513 58.12105
14.187872 39.194761 58.305527
12.812576 41.476145 56.504909
13.551798 40.421426 57.410601
16.880264 41.679599 58.628716
17.761207 42.370317 58.698678
26.285238 36.935652 60.118701
25.719701 38.463112 59.914064
25.629298 36.496096 60.78257
27.349269 37.415256 58.733559
27.708524 35.76599 58.824021
23.572803 15.047188 68.244454
23.625799 16.794626 67.811043
22.882521 16.49996 68.044968
23.572803 15.047188 68.244454
23.468784 13.237656 68.688976
21.727235 41.532015 59.898015
20.914489 41.038259 60.085856
21.638384 39.569462 60.719738
21.727235 41.532015 59.898015
22.542012 42.092077 59.648533
1.154888 28.536349 54.39461
0.180758 27.921878 54.0529
2.122469 29.11912 54.760509
1.154888 28.536349 54.39461
1.963246 27.645081 55.23414
3.055366 29.913263 55.015425
2.122469 29.11912 54.760509
3.824979 28.982235 55.864849
3.949519 30.667645 55.280234
3.055366 29.913263 55.015425
1.961129 17.708031 58.609281
1.155411 18.628217 57.845838
6.399612 18.837865 60.941685
7.242396 17.83932 61.740216
6.549914 20.351743 60.557024
5.556669 19.830338 60.120435
6.399612 18.837865 60.941685
14.09375 12.21331 67.005516
13.23987 13.385791 66.299492
15.002684 12.649235 67.288178
14.09375 12.21331 67.005516
14.948179 10.992692 67.670524
15.903251 13.085936 67.569977
15.048822 14.306554 66.904968
15.002684 12.649235 67.288178
16.77869 11.889898 68.168415
16.824829 13.547217 67.785206
15.903251 13.085936 67.569977
17.654205 10.695318 68.745948
16.77869 11.889898 68.168415
18.522445 11.039925 68.889522
17.654205 10.695318 68.745948
15.098242 40.030483 58.457053
14.187872 39.194761 58.305527
14.856162 38.01457 59.167502
27.215314 33.582964 60.418026
26.731314 35.221607 60.314213
26.678836 33.329992 61.091019
27.661392 33.843031 59.655538
27.215314 33.582964 60.418026
27.708524 35.76599 58.824021
27.661392 33.843031 59.655538
24.447685 21.000988 66.518471
23.742854 22.518802 66.291473
23.756694 20.551869 66.816697
25.072661 21.3213 66.123989
24.447685 21.000988 66.518471
23.698521 18.640726 67.327626
23.625799 16.794626 67.811043
0.108085 26.454739 54.562187
0.180758 27.921878 54.0529
0.834247 25.473526 55.349911
0.108085 26.454739 54.562187
-0.053333 24.865953 55.043858
8.889015 15.574688 63.360066
8.023193 16.724148 62.532809
9.748412 14.566674 64.13059
9.813851 16.120911 63.733984
8.889015 15.574688 63.360066
10.575778 13.49798 64.878262
9.748412 14.566674 64.13059
11.502366 14.007312 65.240162
10.575778 13.49798 64.878262
6.589995 39.08612 53.484272
6.412253 37.308817 54.132733
7.526711 39.889521 53.743767
6.589995 39.08612 53.484272
8.470837 40.786568 53.981876
7.526711 39.889521 53.743767
8.273881 39.046152 54.61081
9.389137 41.762006 54.156767
8.470837 40.786568 53.981876
9.389137 41.762006 54.156767
10.140496 40.74684 55.106235
18.678593 42.927139 58.770148
17.761207 42.370317 58.698678
18.418873 40.969732 59.526705
20.169799 42.263683 59.431154
20.080948 40.30113 60.252876
20.914489 41.038259 60.085856
19.528798 43.612307 58.716928
20.169799 42.263683 59.431154
18.678593 42.927139 58.770148
19.528798 43.612307 58.716928
23.806408 39.340427 60.558685
23.18205 40.698137 60.12042
23.075488 38.705507 60.970163
24.381804 37.685676 60.993181
24.488366 39.678306 60.143438
23.806408 39.340427 60.558685
26.598075 31.297056 61.897526
26.678836 33.329992 61.091019
26.114075 32.935699 61.793713
26.598075 31.297056 61.897526
26.543332 29.281112 62.658427
26.27875 21.894258 65.183803
25.731476 21.550397 65.72234
26.316316 23.725161 64.621788
26.27875 21.894258 65.183803
26.362737 25.573484 64.029167
25.797895 25.274441 64.597328
26.316316 23.725161 64.621788
26.448833 27.391112 63.36067
26.362737 25.573484 64.029167
5.330063 34.712229 54.513729
4.411122 33.938581 54.253445
6.085644 33.814949 55.378362
6.250332 35.571249 54.757398
5.330063 34.712229 54.513729
4.942254 31.346273 55.632176
4.172641 32.277301 54.782751
3.949519 30.667645 55.280234
0.503355 22.38204 56.236475
-0.281935 23.400985 55.42273
1.452841 23.046995 56.589084
0.503355 22.38204 56.236475
1.283367 21.544294 56.993978
2.814294 18.25836 58.961939
1.961129 17.708031 58.609281
3.72219 18.733914 59.358683
4.643019 19.230331 59.761158
2.971774 19.668647 58.620476
2.814294 18.25836 58.961939
3.72219 18.733914 59.358683
13.378749 14.994418 65.949177
12.470363 14.510355 65.6255
13.23987 13.385791 66.299492
21.16701 12.113834 69.111008
20.392059 13.432305 68.708725
20.299145 11.756156 69.078705
21.882317 10.777541 69.397594
21.975231 12.45369 69.027614
21.16701 12.113834 69.111008
11.868314 40.59133 56.294838
10.918162 39.684273 56.072738
11.723491 38.725122 57.004024
11.868314 40.59133 56.294838
12.812576 41.476145 56.504909
16.012786 40.898291 58.560612
16.634009 39.631601 59.387131
16.880264 41.679599 58.628716
15.098242 40.030483 58.457053
16.012786 40.898291 58.560612
25.179891 39.93643 59.710918
24.488366 39.678306 60.143438
25.179891 39.93643 59.710918
25.719701 38.463112 59.914064
26.821717 37.188623 59.445707
26.285238 36.935652 60.118701
26.731314 35.221607 60.314213
26.821717 37.188623 59.445707
27.349269 37.415256 58.733559
3 104 27 105
3 106 105 25
3 104 105 106
3 108 107 27
3 0 30 28
3 110 109 31
3 1 34 32
3 3 37 35
3 3 39 37
3 3 41 39
3 4 43 42
3 4 45 43
3 5 111 113
3 111 46 112
3 111 112 113
3 5 48 46
3 5 50 48
3 2 55 53
3 6 59 57
3 8 60 26
3 8 61 60
3 8 114 116
3 116 115 61
3 114 115 116
3 117 63 118
3 9 119 121
3 119 65 120
3 119 120 121
3 10 66 29
3 10 122 124
3 124 123 66
3 122 123 124
3 11 69 67
3 12 72 70
3 14 73 33
3 14 74 73
3 7 75 58
3 15 76 36
3 15 77 76
3 15 78 77
3 16 79 38
3 16 80 79
3 16 82 80
3 18 83 40
3 18 125 127
3 127 126 83
3 125 126 127
3 128 84 129
3 130 129 62
3 128 129 130
3 131 85 132
3 19 86 44
3 19 87 86
3 20 133 135
3 133 134 135
3 20 136 138
3 136 88 137
3 136 137 138
3 21 139 141
3 139 89 140
3 139 140 141
3 21 90 89
3 21 91 90
3 22 92 47
3 22 93 92
3 22 94 93
3 23 95 49
3 23 96 95
3 142 97 143
3 144 143 64
3 142 143 144
3 24 98 51
3 24 99 98
3 24 100 99
3 145 101 146
3 147 146 52
3 145 146 147
3 149 148 101
3 13 102 71
3 150 103 151
3 152 151 54
3 150 151 152
3 154 153 103
3 156 155 68
3 17 157 159
3 159 158 81
3 157 158 159
3 161 160 56
3 25 26 6
3 27 26 25
3 27 8 26
3 27 162 164
3 164 163 8
3 162 163 164
3 166 165 27
3 28 29 9
3 30 29 28
3 30 10 29
3 31 167 169
3 169 168 11
3 167 168 169
3 171 170 31
3 32 33 12
3 34 33 32
3 34 14 33
3 35 36 7
3 37 36 35
3 37 15 36
3 37 38 15
3 39 38 37
3 39 16 38
3 39 40 16
3 41 40 39
3 41 18 40
3 42 172 173
3 43 174 176
3 176 175 42
3 174 175 176
3 43 177 178
3 43 179 181
3 179 44 180
3 179 180 181
3 45 44 43
3 45 19 44
3 182 20 183
3 46 184 185
3 46 186 188
3 186 21 187
3 186 187 188
3 46 47 21
3 48 47 46
3 48 22 47
3 48 49 22
3 50 49 48
3 50 23 49
3 189 51 190
3 191 51 192
3 191 192 193
3 194 24 195
3 196 195 51
3 194 195 196
3 197 52 198
3 199 198 24
3 197 198 199
3 200 52 201
3 203 202 52
3 53 54 13
3 55 54 53
3 55 204 206
3 206 205 54
3 204 205 206
3 207 56 208
3 209 208 17
3 207 208 209
3 210 56 211
3 213 212 56
3 57 58 1
3 59 58 57
3 59 7 58
3 26 59 6
3 60 59 26
3 60 7 59
3 60 35 7
3 61 35 60
3 61 3 35
3 61 62 3
3 214 62 215
3 216 215 61
3 214 215 216
3 218 217 62
3 220 219 8
3 221 42 222
3 63 223 225
3 223 42 224
3 223 224 225
3 63 4 42
3 226 5 227
3 228 64 229
3 230 229 5
3 228 229 230
3 231 64 232
3 234 233 64
3 65 235 236
3 65 237 238
3 29 65 9
3 66 65 29
3 66 239 241
3 241 240 65
3 239 240 241
3 66 242 243
3 245 244 66
3 67 68 2
3 69 68 67
3 69 246 248
3 248 247 68
3 246 247 248
3 249 69 250
3 251 250 11
3 249 250 251
3 252 69 253
3 255 254 69
3 70 71 0
3 72 71 70
3 72 13 71
3 33 72 12
3 73 72 33
3 73 13 72
3 73 53 13
3 74 53 73
3 74 2 53
3 58 34 1
3 75 34 58
3 75 14 34
3 36 75 7
3 76 75 36
3 76 14 75
3 76 74 14
3 77 74 76
3 77 2 74
3 77 67 2
3 78 67 77
3 78 11 67
3 38 78 15
3 79 78 38
3 79 11 78
3 79 31 11
3 80 31 79
3 80 256 258
3 258 257 31
3 256 257 258
3 80 259 261
3 259 81 260
3 259 260 261
3 82 81 80
3 82 17 81
3 40 82 16
3 83 82 40
3 83 17 82
3 83 262 264
3 264 263 17
3 262 263 264
3 266 265 83
3 62 41 3
3 84 41 62
3 84 18 41
3 267 84 268
3 269 84 270
3 271 18 272
3 273 272 84
3 271 272 273
3 275 274 18
3 85 276 277
3 85 278 280
3 278 9 279
3 278 279 280
3 44 281 283
3 281 85 282
3 281 282 283
3 86 85 44
3 86 9 85
3 86 28 9
3 87 28 86
3 87 0 28
3 284 63 285
3 88 286 288
3 286 63 287
3 286 287 288
3 88 4 63
3 289 20 290
3 89 291 292
3 89 293 295
3 293 20 294
3 293 294 295
3 89 88 20
3 90 88 89
3 90 4 88
3 90 45 4
3 91 45 90
3 91 19 45
3 47 91 21
3 92 91 47
3 92 19 91
3 92 87 19
3 93 87 92
3 93 0 87
3 93 70 0
3 94 70 93
3 94 12 70
3 49 94 22
3 95 94 49
3 95 12 94
3 95 32 12
3 96 32 95
3 96 1 32
3 64 50 5
3 97 50 64
3 97 23 50
3 51 296 298
3 296 97 297
3 296 297 298
3 98 97 51
3 98 23 97
3 98 96 23
3 99 96 98
3 99 1 96
3 99 57 1
3 100 57 99
3 100 6 57
3 52 100 24
3 101 100 52
3 101 6 100
3 101 25 6
3 299 25 300
3 301 300 101
3 299 300 301
3 304 303 25
3 302 303 304
3 71 30 0
3 102 30 71
3 102 10 30
3 54 102 13
3 103 102 54
3 103 10 102
3 103 305 307
3 307 306 10
3 305 306 307
3 309 308 103
3 68 55 2
3 310 55 311
3 312 311 68
3 310 311 312
3 314 313 55
3 81 315 316
3 318 317 81
3 56 319 321
3 321 320 17
3 319 320 321
3 323 322 56
