ply
format ascii 1.0
element vertex 270
property float x
property float y
property float z
element face 268
property list uchar int vertex_index
end_header
-23.364277 -83.397156 23.408726
-21.346092 -91.557503 14.151481
-17.518099 -86.510826 23.807789
-14.265622 -93.330376 13.217782
-22.324291 -87.500748 18.938763
-23.708393 -89.00341 13.810966
-24.340614 -84.614464 18.264668
-22.267767 -81.665016 28.337236
-20.752586 -85.490341 23.987207
-19.327646 -89.343277 19.099689
-16.802374 -96.689102 8.392347
-12.845732 -96.710205 7.519037
-15.257839 -99.994003 2.843173
-20.405722 -95.464699 9.049294
-23.228161 -93.151299 8.950747
-15.866362 -89.941818 18.648777
-18.209824 -93.119141 13.787756
-10.416962 -92.73909 12.295582
-22.856333 -85.395645 21.266615
-23.372515 -86.259796 18.719637
-23.845657 -84.136276 20.833061
-22.851852 -82.626038 25.790277
-21.531878 -83.642433 26.101786
-22.214428 -84.615379 23.654123
-21.578793 -86.507874 21.553467
-18.068645 -98.076263 5.959574
-16.107285 -98.432518 5.547693
-17.366598 -99.895325 3.032289
-20.887318 -93.562309 11.596823
-21.951147 -94.626381 8.784482
-22.23 -92.626457 11.420653
-24.591566 -87.331856 13.33229
-16.635166 -88.180496 21.341049
-20.326599 -90.515213 16.693224
-18.721285 -91.181709 16.585331
-19.834019 -92.440857 14.131624
-19.333769 -94.340057 11.485061
-24.218695 -78.498596 29.833664
-13.292128 -91.482697 15.610081
-11.266647 -91.163475 15.076377
-12.319373 -93.101738 12.786457
-11.87146 -98.086983 4.893762
-10.654531 -96.356224 7.003964
-21.814177 -89.513878 16.649969
-22.618916 -90.475227 13.984048
-23.03071 -88.330879 16.352739
-24.054724 -86.691742 16.124928
-24.82699 -85.048325 15.446054
-21.727722 -80.47393 30.934984
-19.136368 -86.099342 24.056784
-18.481009 -87.922211 21.549595
-20.093378 -87.389656 21.599236
-20.944273 -88.604927 19.034683
-15.542757 -95.071686 10.860429
-13.513172 -95.046448 10.359493
-14.845695 -96.744392 8.110745
-14.101925 -98.349197 5.331278
-13.101516 -99.784233 2.631133
-19.781507 -97.453331 6.274178
-21.338173 -96.639465 6.319758
-22.835262 -95.351334 6.332359
-23.47768 -91.119072 11.349792
-13.962584 -89.732574 18.43482
-15.146972 -91.68557 15.919973
-17.628981 -89.738739 19.007435
-17.020414 -91.70591 16.100983
-16.302433 -93.374771 13.547482
-17.518616 -94.960518 11.064866
-18.745066 -96.209717 8.792126
-23.955839 -81.392097 25.225233
-24.291473 -82.111519 22.778238
-23.130354 -79.599373 30.403156
-23.528969 -80.608307 27.781389
-24.680872 -82.531319 20.302347
-8.217362 -92.011131 11.943481
-11.496668 -94.854721 9.753918
-9.409108 -94.215248 9.506427
-7.189454 -93.464218 9.126081
-18.310147 -99.642349 3.167871
-17.717621 -98.985794 4.495932
-18.661171 -98.732819 4.631514
-17.894177 -100.50145 1.826105
-18.310147 -99.642349 3.167871
-24.858536 -87.464909 12.018576
-24.922364 -86.325276 13.039349
-17.100724 -85.585853 25.147962
-17.935204 -85.581447 25.123769
-16.686094 -86.478267 23.79278
-17.100724 -85.585853 25.147962
-17.076633 -87.345661 22.574419
-16.244628 -87.313102 22.55941
-16.686094 -86.478267 23.79278
-10.672086 -97.834423 4.637624
-11.36939 -98.749699 3.55607
-21.531289 -82.074509 28.480018
-21.261266 -81.478966 29.778892
-21.997744 -81.069473 29.63611
-20.401457 -84.901161 25.149137
-20.791103 -83.977207 26.206426
-21.142232 -84.566387 25.044497
-19.944477 -85.794841 24.021996
-19.593349 -85.205661 25.183925
-20.401457 -84.901161 25.149137
-14.83121 -100.691147 1.557707
-13.753049 -100.586262 1.451687
-14.179678 -99.889118 2.737153
-23.592175 -93.558491 7.544155
-23.395726 -94.658508 6.234961
-23.031712 -94.251317 7.641553
-14.914473 -89.837196 18.541798
-14.432537 -88.912712 19.789586
-15.384426 -89.017334 19.896565
-24.39107 -80.675777 24.882874
-24.236221 -80.370029 26.178838
-23.546095 -78.55207 31.431776
-22.916992 -79.056457 31.684515
-24.022785 -79.978134 27.456916
-23.873832 -79.553451 28.807527
-24.367649 -78.923279 28.483053
-24.236221 -80.370029 26.178838
-23.742404 -81.000202 26.503311
-24.022785 -79.978134 27.456916
-24.874884 -81.492501 21.21959
-24.486173 -82.321419 21.540292
-24.680184 -81.282601 22.457535
-9.852763 -91.674481 13.477165
-10.277605 -90.886673 14.867563
-10.841805 -91.951283 13.68598
-9.317162 -92.375111 12.119532
-8.752963 -91.310501 13.301115
-9.852763 -91.674481 13.477165
-8.930294 -94.92141 8.137683
-10.03182 -95.285736 8.255195
-9.553005 -95.991897 6.886451
-7.820467 -94.545895 7.94751
-8.299281 -93.839733 9.316254
-8.930294 -94.92141 8.137683
-6.739707 -94.146588 7.785948
-7.820467 -94.545895 7.94751
-16.91485 -100.659149 1.73239
-15.86047 -100.708489 1.637833
-16.312219 -99.944664 2.937731
-16.91485 -100.659149 1.73239
-17.894177 -100.50145 1.826105
-24.515321 -88.365651 12.233056
-24.073734 -89.201427 12.472394
-24.14998 -88.167633 13.571628
-24.515321 -88.365651 12.233056
-24.858536 -87.464909 12.018576
-15.768828 -88.136673 21.242701
-16.244628 -87.313102 22.55941
-16.250764 -89.061157 19.994913
-15.384426 -89.017334 19.896565
-15.768828 -88.136673 21.242701
-24.596104 -77.493313 30.647555
-24.090266 -78.001682 31.14703
-24.691505 -77.870663 29.323954
-24.596104 -77.493313 30.647555
-24.367649 -78.923279 28.483053
-24.691505 -77.870663 29.323954
-12.279388 -91.323086 15.343229
-11.647929 -90.401127 16.382531
-12.66067 -90.560738 16.649383
-10.063621 -96.969043 5.692724
-11.262996 -97.221604 5.948863
-10.672086 -97.834423 4.637624
-9.553005 -95.991897 6.886451
-10.063621 -96.969043 5.692724
-25.040076 -85.18351 14.096231
-24.922364 -86.325276 13.039349
-24.709278 -86.19009 14.389172
-20.949173 -80.769085 31.067191
-21.469113 -79.822945 32.199123
-20.949173 -80.769085 31.067191
-21.261266 -81.478966 29.778892
-21.163345 -83.063217 27.362293
-21.531289 -82.074509 28.480018
-21.899822 -82.653724 27.219511
-21.163345 -83.063217 27.362293
-20.791103 -83.977207 26.206426
-18.744338 -85.375705 25.248266
-19.593349 -85.205661 25.183925
-18.327233 -86.305084 23.932287
-17.935204 -85.581447 25.123769
-18.744338 -85.375705 25.248266
-11.984417 -99.598324 2.424755
-11.36939 -98.749699 3.55607
-12.486488 -98.935608 3.762447
-12.626064 -100.492645 1.227137
-11.984417 -99.598324 2.424755
-12.626064 -100.492645 1.227137
-13.753049 -100.586262 1.451687
-14.83121 -100.691147 1.557707
-15.86047 -100.708489 1.637833
-20.355708 -97.993725 4.92101
-19.517602 -98.421353 4.788816
-21.134041 -97.586792 4.9438
-20.355708 -97.993725 4.92101
-20.55984 -97.046398 6.296968
-21.859493 -97.00069 5.058941
-21.134041 -97.586792 4.9438
-22.608038 -96.356625 5.065241
-21.859493 -97.00069 5.058941
-22.086717 -95.995399 6.326059
-23.265828 -95.691559 4.922524
-22.608038 -96.356625 5.065241
-23.265828 -95.691559 4.922524
-23.395726 -94.658508 6.234961
-23.958377 -90.259259 11.241807
-23.593037 -90.061241 12.580379
-24.073734 -89.201427 12.472394
-23.86918 -91.401142 9.974266
-23.958377 -90.259259 11.241807
-23.744421 -92.417255 8.774743
-23.35292 -92.135186 10.15027
-23.86918 -91.401142 9.974266
-23.592175 -93.558491 7.544155
-23.744421 -92.417255 8.774743
-13.456345 -88.839008 19.508029
-14.432537 -88.912712 19.789586
-12.995897 -89.685676 18.061753
-13.456345 -88.839008 19.508029
-13.627356 -90.607636 17.02245
-12.66067 -90.560738 16.649383
-12.995897 -89.685676 18.061753
-19.517602 -98.421353 4.788816
-18.661171 -98.732819 4.631514
-18.925076 -97.764797 6.116876
-24.558887 -81.035488 23.659376
-24.123656 -81.751808 24.001736
-24.39107 -80.675777 24.882874
-24.680184 -81.282601 22.457535
-24.558887 -81.035488 23.659376
-22.215676 -79.493736 31.950429
-21.469113 -79.822945 32.199123
-22.429038 -80.036652 30.66907
-22.215676 -79.493736 31.950429
-22.916992 -79.056457 31.684515
-23.674525 -79.048985 30.11841
-23.546095 -78.55207 31.431776
-24.090266 -78.001682 31.14703
-25.007421 -81.630951 19.923525
-24.874884 -81.492501 21.21959
-24.873456 -82.660095 18.953118
-25.007421 -81.630951 19.923525
-24.703327 -83.701668 17.934278
-24.510743 -83.572891 19.283507
-24.873456 -82.660095 18.953118
-24.946515 -83.918599 16.524971
-24.583802 -84.831395 16.855361
-24.703327 -83.701668 17.934278
-25.105086 -84.048599 15.138016
-24.946515 -83.918599 16.524971
-25.040076 -85.18351 14.096231
-25.105086 -84.048599 15.138016
-10.673525 -90.120945 16.207756
-11.647929 -90.401127 16.382531
-10.673525 -90.120945 16.207756
-10.277605 -90.886673 14.867563
-7.65249 -90.887409 13.137879
-8.752963 -91.310501 13.301115
-7.167068 -91.608196 11.776858
-7.65249 -90.887409 13.137879
-6.653114 -92.334739 10.368158
-7.167068 -91.608196 11.776858
-7.703408 -92.737674 10.534781
-6.14261 -93.03521 8.983593
-6.653114 -92.334739 10.368158
-6.14261 -93.03521 8.983593
-6.739707 -94.146588 7.785948
3 0 20 18
3 0 23 21
3 0 18 23
3 78 27 79
3 80 79 25
3 78 79 80
3 82 81 27
3 1 30 28
3 84 83 31
3 2 85 86
3 2 87 88
3 2 89 91
3 89 32 90
3 89 90 91
3 1 35 33
3 1 28 35
3 3 40 38
3 93 92 41
3 4 45 43
3 6 46 19
3 6 47 46
3 7 94 96
3 96 95 48
3 94 95 96
3 8 97 99
3 99 98 22
3 97 98 99
3 8 100 102
3 100 49 101
3 100 101 102
3 8 51 49
3 4 52 24
3 4 43 52
3 10 55 53
3 12 56 26
3 12 57 56
3 12 103 105
3 105 104 57
3 103 104 105
3 13 59 58
3 14 60 29
3 14 106 108
3 108 107 60
3 106 107 108
3 5 61 44
3 15 109 111
3 109 62 110
3 109 110 111
3 15 63 62
3 9 64 50
3 16 65 34
3 16 66 65
3 16 67 66
3 13 68 36
3 13 58 68
3 113 112 69
3 114 71 115
3 116 72 117
3 118 117 37
3 116 117 118
3 119 69 120
3 121 120 72
3 119 120 121
3 122 73 123
3 124 123 70
3 122 123 124
3 17 125 127
3 127 126 39
3 125 126 127
3 17 128 130
3 128 74 129
3 128 129 130
3 11 75 54
3 131 76 132
3 133 132 42
3 131 132 133
3 134 77 135
3 136 135 76
3 134 135 136
3 138 137 77
3 18 19 4
3 20 19 18
3 20 6 19
3 21 22 7
3 23 22 21
3 23 8 22
3 23 24 8
3 18 24 23
3 18 4 24
3 25 26 10
3 27 26 25
3 27 12 26
3 27 139 141
3 141 140 12
3 139 140 141
3 143 142 27
3 28 29 13
3 30 29 28
3 30 14 29
3 31 144 146
3 146 145 5
3 144 145 146
3 148 147 31
3 32 149 150
3 32 151 153
3 151 15 152
3 151 152 153
3 33 34 9
3 35 34 33
3 35 16 34
3 35 36 16
3 28 36 35
3 28 13 36
3 154 37 155
3 156 37 157
3 159 158 37
3 38 160 162
3 160 39 161
3 160 161 162
3 40 39 38
3 40 17 39
3 41 42 11
3 163 42 164
3 165 164 41
3 163 164 165
3 167 166 42
3 43 44 1
3 45 44 43
3 45 5 44
3 19 45 4
3 46 45 19
3 46 5 45
3 46 31 5
3 47 31 46
3 47 168 170
3 170 169 31
3 168 169 170
3 48 171 172
3 174 173 48
3 22 175 177
3 177 176 7
3 175 176 177
3 179 178 22
3 49 180 181
3 49 182 184
3 182 2 183
3 182 183 184
3 49 50 2
3 51 50 49
3 51 9 50
3 24 51 8
3 52 51 24
3 52 9 51
3 52 33 9
3 43 33 52
3 43 1 33
3 53 54 3
3 55 54 53
3 55 11 54
3 26 55 10
3 56 55 26
3 56 11 55
3 56 41 11
3 57 41 56
3 57 185 187
3 187 186 41
3 185 186 187
3 57 188 189
3 191 190 57
3 193 192 12
3 58 194 195
3 59 196 198
3 198 197 58
3 196 197 198
3 59 199 200
3 29 59 13
3 60 59 29
3 60 201 203
3 203 202 59
3 201 202 203
3 60 204 205
3 207 206 60
3 44 30 1
3 61 30 44
3 61 14 30
3 208 61 209
3 210 209 5
3 208 209 210
3 211 61 212
3 213 14 214
3 215 214 61
3 213 214 215
3 217 216 14
3 62 218 219
3 62 220 221
3 62 222 224
3 222 38 223
3 222 223 224
3 63 38 62
3 63 3 38
3 50 32 2
3 64 32 50
3 64 15 32
3 34 64 9
3 65 64 34
3 65 15 64
3 65 63 15
3 66 63 65
3 66 3 63
3 66 53 3
3 67 53 66
3 67 10 53
3 36 67 16
3 68 67 36
3 68 10 67
3 68 25 10
3 58 25 68
3 58 225 227
3 227 226 25
3 225 226 227
3 69 70 0
3 228 70 229
3 230 229 69
3 228 229 230
3 232 231 70
3 233 48 234
3 71 235 237
3 235 48 236
3 235 236 237
3 71 7 48
3 37 238 240
3 238 71 239
3 238 239 240
3 72 71 37
3 72 7 71
3 72 21 7
3 69 21 72
3 69 0 21
3 70 20 0
3 73 20 70
3 73 6 20
3 241 73 242
3 243 73 244
3 245 6 246
3 247 246 73
3 245 246 247
3 248 47 249
3 250 249 6
3 248 249 250
3 251 47 252
3 254 253 47
3 39 255 256
3 258 257 39
3 74 259 260
3 74 261 262
3 54 40 3
3 75 40 54
3 75 17 40
3 42 75 11
3 76 75 42
3 76 17 75
3 76 74 17
3 77 74 76
3 77 263 265
3 265 264 74
3 263 264 265
3 77 266 267
3 269 268 77
