ply
format ascii 1.0
element vertex 304
property float x
property float y
property float z
element face 328
property list uchar int vertex_index
end_header
-20.254278 0.383875 71.513542
-12.832674 6.197351 67.809792
-18.272432 12.802372 68.54583
-13.35419 -3.729088 69.529205
-25.451172 6.259385 70.253448
-12.818124 -12.774395 69.919685
-20.539133 -10.894854 72.782089
-9.672545 4.165447 66.46286
-23.708481 -3.221554 72.337784
-23.09466 2.965858 71.344711
-9.356849 -9.193385 67.825562
-16.908451 -2.126976 70.889046
-17.122347 -7.184711 71.491486
-20.595495 -5.634793 72.360458
-23.80022 -9.166245 72.989555
-16.327263 3.528251 69.838654
-19.378202 6.579187 70.217575
-15.570963 9.233311 68.427498
-9.69792 -5.017983 67.686607
-9.716316 -0.519808 67.186699
-13.218491 1.24411 68.833885
-21.964573 9.78628 69.901924
-13.25549 -8.441541 69.887672
-16.731224 -11.989992 71.661575
-19.90097 -15.875595 72.826012
-23.469574 -15.024569 73.288933
-26.442072 -13.401715 72.708839
-22.024992 -1.565823 72.067078
-23.454111 -0.169577 71.88398
-21.68059 1.812563 71.497696
-18.632299 -0.982736 71.311432
-18.857565 -3.74741 71.726082
-20.408094 -2.632603 71.973595
-22.170963 -4.603775 72.478485
-14.543592 4.994373 68.845284
-15.995553 6.249388 69.216446
-14.274709 7.674283 68.203552
-7.943519 -1.201937 66.213959
-7.914943 1.114292 65.885323
-11.33742 5.074866 67.239204
-11.461594 2.720446 67.70285
-13.069261 3.701244 68.376427
-14.796433 2.315839 69.408218
-18.873619 9.558505 69.460632
-20.860344 7.878203 70.222679
-20.102203 11.354926 69.319153
-10.590002 -13.053078 68.753838
-11.55217 -4.448145 68.669044
-11.333258 -6.65709 68.748619
-13.325813 -6.178246 69.746033
-18.881853 -9.128805 72.237694
-17.013784 -9.636195 71.633781
-18.644766 -11.547505 72.314728
-18.281857 -13.952864 72.301613
-20.235605 -13.442461 72.837196
-21.792028 -15.467786 73.183716
-22.085827 -12.826828 73.138145
-25.28739 -8.404092 72.73719
-25.216553 -11.296047 72.973114
-26.678257 -10.533859 72.46125
-10.935844 7.469412 66.555473
-12.360149 8.860755 67.020226
-7.94772 3.430344 65.552719
-8.048292 5.588931 65.237656
-9.54677 6.383845 65.984489
-25.234512 -5.304565 72.408241
-25.122318 -2.031273 71.967461
-24.75285 1.340199 71.467415
-24.298286 4.658775 70.895866
-11.029106 -11.038509 68.886948
-15.104275 -2.951667 70.259659
-15.201597 -5.427401 70.557693
-17.004698 -4.591913 71.207878
-18.815989 -6.418759 71.994019
-20.55332 -8.151425 72.588707
-22.278719 -10.153928 73.011139
-22.28425 -7.491275 72.798172
-23.796322 -6.313081 72.717247
-18.294775 1.937708 70.774048
-19.786337 3.4392 70.908363
-17.893208 4.97487 70.124084
-17.367867 7.950979 69.366882
-16.964397 11.097604 68.531303
-13.698925 10.494053 67.31562
-7.664982 -5.39681 66.508835
-7.819271 -3.429663 66.402176
-9.66907 -2.847745 67.443588
-11.576596 -2.281451 68.448723
-9.695211 1.864053 66.84269
-11.529915 0.169319 68.112526
-13.419651 -1.314047 69.281837
-15.022228 -0.33791 69.896439
-16.707941 0.600129 70.444672
-21.178341 4.792308 70.896126
-22.614397 6.395602 70.668137
-23.771038 8.249271 70.192825
-9.413119 -7.110298 67.702141
-11.268712 -8.844974 68.879082
-12.973375 -10.556783 69.885361
-15.248575 -7.936823 70.789124
-15.071064 -10.320995 70.871826
-14.74099 -12.421575 70.833366
-16.315214 -14.281453 71.586006
-23.714252 -12.151304 73.187538
-24.997219 -14.150313 73.136108
-26.090786 -16.313276 72.876907
-7.136403 1.976669 65.26585
-7.017573 0.907431 65.34924
-26.197097 5.204942 70.126598
-25.676384 4.442858 70.564022
-25.949677 7.147562 69.812565
-26.197097 5.204942 70.126598
-12.504984 -13.772854 69.800067
-11.390923 -13.912195 69.217144
-11.704063 -12.913736 69.336761
-13.536479 -13.706781 70.306572
-12.504984 -13.772854 69.800067
-26.646071 -9.00101 72.336395
-25.982823 -9.468975 72.59922
-25.950638 -7.936127 72.474365
-27.236827 -9.924834 72.080937
-26.646071 -9.00101 72.336395
-10.752061 8.79347 66.163754
-10.109009 8.110357 65.947376
-7.313267 6.313737 64.632793
-7.238231 5.324706 64.775398
-9.414473 7.567574 65.661884
-8.773557 7.092153 65.376575
-10.109009 8.110357 65.947376
-10.241307 6.926628 66.269981
-9.414473 7.567574 65.661884
-9.136052 -10.157435 67.762551
-8.266055 -9.255365 67.181942
-10.192978 -10.115947 68.356255
-9.972181 -11.079997 68.293244
-9.136052 -10.157435 67.762551
-12.797101 11.063191 66.726623
-13.029537 9.677404 67.167923
-12.127713 10.246542 66.578926
-6.948842 -2.454884 65.739311
-6.800185 -3.499776 65.768551
-18.942647 -16.129135 72.546303
-18.133091 -15.167769 72.284104
-19.091414 -14.91423 72.563813
-19.568876 -17.071353 72.756653
-18.942647 -16.129135 72.546303
-20.557244 -16.897995 72.97704
-19.568876 -17.071353 72.756653
-23.252174 -16.334675 73.300793
-22.413401 -16.556283 73.248185
-22.630801 -15.246177 73.236324
-24.069136 -15.997521 73.255939
-23.252174 -16.334675 73.300793
-26.967337 -14.532951 72.439315
-26.791694 -15.988732 72.523349
-26.266429 -14.857495 72.792873
-8.403485 -8.309048 67.18995
-8.266055 -9.255365 67.181942
-7.031861 -0.250684 65.513558
-7.010967 -1.341022 65.645203
-7.929231 -0.043822 66.049641
-7.031861 -0.250684 65.513558
-7.017573 0.907431 65.34924
-10.388901 -13.994946 68.684624
-9.518505 -13.014709 68.145451
-10.388901 -13.994946 68.684624
-11.390923 -13.912195 69.217144
-27.205053 -11.581605 72.212959
-27.08696 -13.015533 72.336754
-26.560164 -11.967787 72.585045
-27.205053 -11.581605 72.212959
-27.236827 -9.924834 72.080937
-11.464214 9.489141 66.39613
-11.647996 8.165083 66.787849
-10.752061 8.79347 66.163754
-12.127713 10.246542 66.578926
-11.464214 9.489141 66.39613
-7.187945 4.245413 64.93293
-7.152792 3.134695 65.099548
-7.998006 4.509638 65.395187
-7.187945 4.245413 64.93293
-7.238231 5.324706 64.775398
-8.024318 6.694695 65.003158
-7.313267 6.313737 64.632793
-8.797531 5.986388 65.611073
-8.024318 6.694695 65.003158
-8.773557 7.092153 65.376575
-25.884963 -4.697961 72.107617
-25.924199 -6.386363 72.30989
-25.828866 -3.061316 71.887226
-25.884963 -4.697961 72.107617
-25.178415 -3.667919 72.187851
-25.662572 -1.330128 71.673496
-25.828866 -3.061316 71.887226
-25.477838 0.355608 71.423474
-25.662572 -1.330128 71.673496
-24.937584 -0.345537 71.717438
-25.327223 1.983265 71.171006
-25.477838 0.355608 71.423474
-25.099941 3.642553 70.885231
-25.327223 1.983265 71.171006
-24.525568 2.999487 71.181641
-24.874729 5.45908 70.574657
-25.676384 4.442858 70.564022
-25.099941 3.642553 70.885231
-18.853099 13.82035 68.442612
-17.949563 14.454838 68.031903
-9.752629 -12.087281 68.226688
-9.518505 -13.014709 68.145451
-10.809554 -12.045793 68.820393
-9.752629 -12.087281 68.226688
-9.972181 -11.079997 68.293244
-25.924199 -6.386363 72.30989
-25.950638 -7.936127 72.474365
-25.260951 -6.854329 72.572716
-13.443603 11.892898 66.850578
-12.797101 11.063191 66.726623
-14.36423 11.362112 67.410999
-13.443603 11.892898 66.850578
-15.300249 10.731742 67.966938
-14.634944 9.863682 67.871559
-14.36423 11.362112 67.410999
-15.996967 11.663888 68.01884
-16.26768 10.165458 68.4794
-15.300249 10.731742 67.966938
-16.683279 12.585136 68.068737
-15.996967 11.663888 68.01884
-17.337297 13.43752 68.076
-17.618415 11.949988 68.538567
-16.683279 12.585136 68.068737
-17.949563 14.454838 68.031903
-17.337297 13.43752 68.076
-6.723041 -4.48335 65.82188
-6.640308 -5.482121 65.874211
-7.742126 -4.413237 66.455506
-6.723041 -4.48335 65.82188
-6.800185 -3.499776 65.768551
-7.881395 -2.3158 66.308067
-6.948842 -2.454884 65.739311
-7.010967 -1.341022 65.645203
-7.931332 2.272318 65.719021
-7.136403 1.976669 65.26585
-7.152792 3.134695 65.099548
-19.767984 13.096627 68.829273
-19.187317 12.078649 68.932491
-18.853099 13.82035 68.442612
-20.729881 12.297363 69.179299
-19.767984 13.096627 68.829273
-21.661066 11.513039 69.470684
-21.033388 10.570603 69.610538
-20.729881 12.297363 69.179299
-22.59749 10.665215 69.684082
-21.661066 11.513039 69.470684
-23.500723 9.89671 69.829532
-22.867806 9.017775 70.047374
-22.59749 10.665215 69.684082
-24.352428 8.994832 69.895736
-23.500723 9.89671 69.829532
-25.192495 7.999888 69.926048
-24.611105 7.254328 70.223137
-24.352428 8.994832 69.895736
-25.949677 7.147562 69.812565
-25.192495 7.999888 69.926048
-7.557551 -6.410761 66.531586
-6.640308 -5.482121 65.874211
-8.43162 -7.267505 67.128239
-7.557551 -6.410761 66.531586
-8.539051 -6.253554 67.105488
-9.384984 -8.151841 67.763852
-8.403485 -8.309048 67.18995
-8.43162 -7.267505 67.128239
-14.497912 -13.530371 70.763413
-13.536479 -13.706781 70.306572
-13.779557 -12.597985 70.376525
-15.285025 -14.46031 71.139733
-14.497912 -13.530371 70.763413
-15.528102 -13.351514 71.209686
-16.073401 -15.379963 71.515816
-15.285025 -14.46031 71.139733
-17.149769 -15.332064 71.9263
-17.298535 -14.117159 71.94381
-18.133091 -15.167769 72.284104
-16.073401 -15.379963 71.515816
-17.149769 -15.332064 71.9263
-21.502773 -16.694091 73.155891
-20.557244 -16.897995 72.97704
-20.846499 -15.671691 73.004864
-21.502773 -16.694091 73.155891
-22.413401 -16.556283 73.248185
-24.832959 -15.560393 73.179527
-24.069136 -15.997521 73.255939
-24.233397 -14.587441 73.21252
-25.379742 -16.641874 73.049926
-24.832959 -15.560393 73.179527
-25.544003 -15.231794 73.006507
-25.943583 -17.752451 72.898262
-25.379742 -16.641874 73.049926
-26.624137 -17.436302 72.593975
-26.476934 -18.875477 72.61533
-25.943583 -17.752451 72.898262
-26.624137 -17.436302 72.593975
-26.791694 -15.988732 72.523349
-26.967337 -14.532951 72.439315
-27.08696 -13.015533 72.336754
3 0 29 27
3 0 32 30
3 0 27 32
3 1 36 34
3 106 38 107
3 1 41 39
3 1 34 41
3 4 108 109
3 4 110 111
3 2 45 43
3 5 112 114
3 114 113 46
3 112 113 114
3 5 115 116
3 3 49 47
3 6 52 50
3 6 54 52
3 6 56 54
3 117 59 118
3 119 118 57
3 117 118 119
3 121 120 59
3 123 122 60
3 124 63 125
3 126 64 127
3 128 60 129
3 130 129 64
3 128 129 130
3 8 66 65
3 9 67 28
3 9 68 67
3 10 131 132
3 10 133 135
3 133 69 134
3 133 134 135
3 11 72 70
3 13 73 31
3 13 74 73
3 13 76 74
3 8 77 33
3 8 65 77
3 15 80 78
3 17 81 35
3 17 82 81
3 136 83 137
3 138 137 61
3 136 137 138
3 139 85 140
3 19 86 37
3 19 87 86
3 7 88 62
3 20 89 40
3 20 90 89
3 20 91 90
3 15 92 42
3 15 78 92
3 16 93 79
3 21 94 44
3 21 95 94
3 18 96 84
3 22 97 48
3 22 98 97
3 12 99 71
3 23 100 51
3 23 101 100
3 23 102 101
3 24 141 143
3 143 142 53
3 141 142 143
3 24 144 145
3 24 146 147
3 25 148 150
3 150 149 55
3 148 149 150
3 25 151 152
3 14 103 75
3 26 104 58
3 26 105 104
3 26 153 155
3 155 154 105
3 153 154 155
3 27 28 8
3 29 28 27
3 29 9 28
3 156 10 157
3 30 31 11
3 32 31 30
3 32 13 31
3 32 33 13
3 27 33 32
3 27 8 33
3 34 35 15
3 36 35 34
3 36 17 35
3 158 37 159
3 38 160 162
3 160 37 161
3 160 161 162
3 38 19 37
3 39 40 7
3 41 40 39
3 41 20 40
3 41 42 20
3 34 42 41
3 34 15 42
3 43 44 16
3 45 44 43
3 45 21 44
3 46 163 164
3 166 165 46
3 47 48 18
3 49 48 47
3 49 22 48
3 50 51 12
3 52 51 50
3 52 23 51
3 52 53 23
3 54 53 52
3 54 24 53
3 54 55 24
3 56 55 54
3 56 25 55
3 57 58 14
3 59 58 57
3 59 26 58
3 59 167 169
3 169 168 26
3 167 168 169
3 171 170 59
3 60 61 1
3 172 61 173
3 174 173 60
3 172 173 174
3 176 175 61
3 177 62 178
3 63 179 181
3 179 62 180
3 179 180 181
3 63 7 62
3 182 63 183
3 64 184 186
3 184 63 185
3 184 185 186
3 64 7 63
3 64 39 7
3 60 39 64
3 60 1 39
3 65 187 188
3 66 189 191
3 191 190 65
3 189 190 191
3 66 192 193
3 28 66 8
3 67 66 28
3 67 194 196
3 196 195 66
3 194 195 196
3 67 197 198
3 68 199 201
3 201 200 67
3 199 200 201
3 68 202 204
3 202 4 203
3 202 203 204
3 206 205 2
3 207 46 208
3 69 209 211
3 209 46 210
3 209 210 211
3 69 5 46
3 70 71 3
3 72 71 70
3 72 12 71
3 31 72 11
3 73 72 31
3 73 12 72
3 73 50 12
3 74 50 73
3 74 6 50
3 74 75 6
3 76 75 74
3 76 14 75
3 33 76 13
3 77 76 33
3 77 14 76
3 77 57 14
3 65 57 77
3 65 212 214
3 214 213 57
3 212 213 214
3 78 79 0
3 80 79 78
3 80 16 79
3 35 80 15
3 81 80 35
3 81 16 80
3 81 43 16
3 82 43 81
3 82 2 43
3 61 36 1
3 83 36 61
3 83 17 36
3 215 83 216
3 217 83 218
3 219 17 220
3 221 220 83
3 219 220 221
3 222 82 223
3 224 223 17
3 222 223 224
3 225 82 226
3 227 2 228
3 229 228 82
3 227 228 229
3 231 230 2
3 232 84 233
3 85 234 236
3 234 84 235
3 234 235 236
3 85 18 84
3 37 237 239
3 237 85 238
3 237 238 239
3 86 85 37
3 86 18 85
3 86 47 18
3 87 47 86
3 87 3 47
3 62 240 242
3 240 38 241
3 240 241 242
3 88 38 62
3 88 19 38
3 40 88 7
3 89 88 40
3 89 19 88
3 89 87 19
3 90 87 89
3 90 3 87
3 90 70 3
3 91 70 90
3 91 11 70
3 42 91 20
3 92 91 42
3 92 11 91
3 92 30 11
3 78 30 92
3 78 0 30
3 79 29 0
3 93 29 79
3 93 9 29
3 44 93 16
3 94 93 44
3 94 9 93
3 94 68 9
3 95 68 94
3 95 4 68
3 243 45 244
3 245 244 2
3 243 244 245
3 246 45 247
3 248 21 249
3 250 249 45
3 248 249 250
3 251 21 252
3 253 95 254
3 255 254 21
3 253 254 255
3 256 95 257
3 258 4 259
3 260 259 95
3 258 259 260
3 262 261 4
3 84 263 264
3 96 265 267
3 267 266 84
3 265 266 267
3 96 268 270
3 268 10 269
3 268 269 270
3 48 96 18
3 97 96 48
3 97 10 96
3 97 69 10
3 98 69 97
3 98 5 69
3 71 49 3
3 99 49 71
3 99 22 49
3 51 99 12
3 100 99 51
3 100 22 99
3 100 98 22
3 101 98 100
3 101 5 98
3 101 271 273
3 273 272 5
3 271 272 273
3 102 274 276
3 276 275 101
3 274 275 276
3 102 277 278
3 53 102 23
3 279 102 280
3 281 280 53
3 279 280 281
3 283 282 102
3 55 284 286
3 286 285 24
3 284 285 286
3 288 287 55
3 75 56 6
3 103 56 75
3 103 25 56
3 58 103 14
3 104 103 58
3 104 25 103
3 104 289 291
3 291 290 25
3 289 290 291
3 105 292 294
3 294 293 104
3 292 293 294
3 105 295 296
3 105 297 299
3 297 298 299
3 301 300 105
3 303 302 26
