ply
format ascii 1.0
element vertex 208
property float x
property float y
property float z
element face 185
property list uchar int vertex_index
end_header
4.989321 65.589211 -42.956364
9.239076 84.473328 -35.549667
4.116498 72.26107 -42.846466
7.836184 89.890572 -34.014908
2.83093 61.306297 -45.772587
3.156641 93.284851 -36.154034
4.94303 88.032715 -38.164284
6.106113 82.130722 -39.39415
9.868639 78.563698 -36.366791
6.900828 75.840775 -39.828461
7.43912 69.308304 -39.837875
3.63671 75.616867 -42.758476
3.278093 66.772705 -44.358532
4.005712 63.462837 -44.282703
4.478739 60.499096 -44.448063
5.5135 62.447922 -42.923752
8.629421 87.242928 -34.897785
6.376739 89.117935 -36.172241
7.069806 86.199028 -37.077915
5.512233 85.198349 -38.935577
7.776976 83.446457 -37.443836
10.006016 75.526993 -36.492275
8.301946 77.455704 -38.210041
8.612201 74.189507 -38.189869
7.329795 72.656219 -39.71381
8.754991 70.87587 -38.166779
4.612225 68.933914 -42.852779
7.00878 92.205574 -32.897308
9.35943 90.146751 -31.782835
10.135335 87.735771 -32.742027
10.786044 85.190384 -33.413513
3.532964 58.239052 -45.946468
5.564444 91.604057 -35.182186
3.97909 90.757851 -37.378864
4.391695 80.798378 -41.183262
11.123285 82.461555 -34.070824
9.616091 81.421928 -36.099239
8.135296 80.541512 -37.855385
6.520761 79.091919 -39.697483
4.971225 77.678856 -41.322891
5.511384 74.183655 -41.355709
5.995358 70.903351 -41.27161
6.151231 67.663025 -41.453907
7.687576 66.17173 -39.748405
6.503319 64.367264 -41.448715
3.281947 77.242847 -42.746507
2.562024 76.21614 -43.457369
9.987696 74.010177 -36.554672
10.673215 74.515716 -35.665382
9.290789 73.341435 -37.403469
9.309109 74.85825 -37.341072
9.987696 74.010177 -36.554672
9.362184 71.684616 -37.391924
8.683596 72.532689 -38.178324
9.290789 73.341435 -37.403469
3.4546 71.147915 -43.551327
3.144615 72.815476 -43.538853
4.364361 70.597492 -42.849622
3.702463 69.484337 -43.554483
3.4546 71.147915 -43.551327
10.034164 90.254879 -30.569958
8.861579 91.341251 -31.149518
11.16753 86.585484 -32.054034
10.818554 87.878056 -31.635313
11.492885 85.31279 -32.389777
10.46069 86.463077 -33.07777
11.16753 86.585484 -32.054034
1.928005 61.864929 -46.333061
2.546222 62.89812 -45.678458
2.325992 60.132006 -46.447884
1.928005 61.864929 -46.333061
3.181947 59.772675 -45.859527
2.677009 58.598383 -46.534824
2.325992 60.132006 -46.447884
4.747901 58.963183 -44.586729
5.220628 59.936186 -43.756792
1.777308 94.116264 -36.634278
2.573085 94.526561 -35.460127
2.297617 92.863877 -37.249466
1.777308 94.116264 -36.634278
3.671635 88.844288 -38.776798
3.189665 90.206856 -38.384089
4.46106 89.395283 -37.771574
4.03102 87.425812 -39.206459
3.671635 88.844288 -38.776798
5.036373 82.993046 -40.045388
4.739433 84.52686 -39.816101
5.809173 83.664535 -39.164864
5.248904 81.46455 -40.288706
4.179164 82.326874 -40.939943
5.036373 82.993046 -40.045388
11.953809 81.310543 -33.303343
11.823576 82.693161 -33.089308
10.634823 79.073051 -35.386618
10.636821 77.578285 -35.543161
9.742365 79.992813 -36.233015
10.508549 80.502166 -35.252842
10.634823 79.073051 -35.386618
7.793249 64.590693 -39.751194
8.296125 65.38163 -38.938341
7.201121 63.68846 -40.601349
7.095448 65.269497 -40.59856
7.793249 64.590693 -39.751194
6.725959 62.787033 -41.409414
7.201121 63.68846 -40.601349
2.90472 74.493374 -43.494858
2.562024 76.21614 -43.457369
3.876604 73.938969 -42.802471
3.144615 72.815476 -43.538853
2.90472 74.493374 -43.494858
2.769804 65.631325 -44.97143
2.368572 67.269489 -44.992266
3.133614 63.97639 -44.933515
2.769804 65.631325 -44.97143
3.641903 65.117771 -44.320617
3.418321 62.384567 -45.027645
2.546222 62.89812 -45.678458
3.133614 63.97639 -44.933515
5.738008 60.910599 -42.994636
5.220628 59.936186 -43.756792
4.996119 61.473509 -43.685907
3.900143 93.648372 -35.000653
2.573085 94.526561 -35.460127
10.70551 76.059933 -35.605903
10.673215 74.515716 -35.665382
9.937328 77.045345 -36.429533
10.636821 77.578285 -35.543161
10.70551 76.059933 -35.605903
3.035397 68.403733 -44.307359
2.368572 67.269489 -44.992266
3.945159 67.853309 -43.605655
3.035397 68.403733 -44.307359
3.702463 69.484337 -43.554483
7.686254 92.370663 -31.706755
6.484669 93.36158 -32.182014
8.184105 91.176163 -32.340072
7.686254 92.370663 -31.706755
8.861579 91.341251 -31.149518
10.430601 89.083545 -31.155717
10.034164 90.254879 -30.569958
9.747383 88.941261 -32.262431
10.430601 89.083545 -31.155717
10.818554 87.878056 -31.635313
3.07524 57.110747 -46.666424
2.677009 58.598383 -46.534824
3.899172 56.653437 -46.131634
3.07524 57.110747 -46.666424
4.275014 57.833161 -45.335932
4.005852 59.369074 -45.197266
4.747901 58.963183 -44.586729
4.641221 56.247546 -45.521097
3.899172 56.653437 -46.131634
4.275014 57.833161 -45.335932
5.826213 93.108734 -33.37229
6.484669 93.36158 -32.182014
5.104045 92.807975 -34.514729
5.826213 93.108734 -33.37229
6.286612 91.904815 -34.039747
4.360543 92.444454 -35.66811
3.900143 93.648372 -35.000653
5.104045 92.807975 -34.514729
2.708842 91.600377 -37.861881
2.297617 92.863877 -37.249466
3.567865 92.021351 -36.766449
2.708842 91.600377 -37.861881
3.189665 90.206856 -38.384089
4.315621 86.008629 -39.592106
4.03102 87.425812 -39.206459
5.227632 86.615532 -38.549931
4.315621 86.008629 -39.592106
4.739433 84.52686 -39.816101
3.3619 81.416332 -41.815109
4.179164 82.326874 -40.939943
3.65944 79.833603 -41.9589
3.3619 81.416332 -41.815109
11.654956 84.057575 -32.760653
11.492885 85.31279 -32.389777
10.954664 83.825969 -33.742169
11.654956 84.057575 -32.760653
11.823576 82.693161 -33.089308
11.262146 81.02198 -34.238635
11.953809 81.310543 -33.303343
10.369688 81.941742 -35.085031
11.262146 81.02198 -34.238635
10.508549 80.502166 -35.252842
3.949204 78.273842 -42.028715
3.65944 79.833603 -41.9589
4.68146 79.238617 -41.253076
4.303967 76.647862 -42.040684
3.281947 77.242847 -42.746507
3.949204 78.273842 -42.028715
9.420172 70.039806 -37.281866
9.362184 71.684616 -37.391924
8.778944 69.372578 -38.169404
9.420172 70.039806 -37.281866
8.121008 68.588795 -39.004951
8.097055 70.092087 -39.002327
8.778944 69.372578 -38.169404
8.245236 67.020508 -38.960217
8.296125 65.38163 -38.938341
7.563348 67.740017 -39.79314
8.121008 68.588795 -39.004951
8.245236 67.020508 -38.960217
6.231049 61.827362 -42.146933
6.008409 63.407593 -42.186234
6.725959 62.787033 -41.409414
5.738008 60.910599 -42.994636
6.231049 61.827362 -42.146933
3 45 11 46
3 0 13 12
3 0 15 13
3 1 18 16
3 1 20 18
3 47 21 48
3 49 23 50
3 51 50 21
3 49 50 51
3 52 25 53
3 54 53 23
3 52 53 54
3 2 55 56
3 2 57 59
3 57 26 58
3 57 58 59
3 60 28 61
3 62 29 63
3 64 30 65
3 66 65 29
3 64 65 66
3 4 67 68
3 4 69 70
3 4 71 73
3 71 31 72
3 71 72 73
3 75 74 14
3 5 76 77
3 5 78 79
3 3 32 27
3 6 33 17
3 6 80 82
3 82 81 33
3 80 81 82
3 6 83 84
3 7 85 87
3 87 86 19
3 85 86 87
3 7 88 90
3 88 34 89
3 88 89 90
3 91 35 92
3 8 93 94
3 8 95 97
3 95 36 96
3 95 96 97
3 8 37 36
3 9 38 22
3 9 39 38
3 9 40 39
3 10 41 24
3 10 42 41
3 98 43 99
3 100 44 101
3 102 101 43
3 100 101 102
3 104 103 44
3 11 105 106
3 11 107 109
3 107 2 108
3 107 108 109
3 12 110 111
3 13 112 114
3 114 113 12
3 112 113 114
3 13 115 117
3 115 4 116
3 115 116 117
3 13 14 4
3 15 14 13
3 15 118 120
3 120 119 14
3 118 119 120
3 121 5 122
3 16 17 3
3 18 17 16
3 18 6 17
3 18 19 6
3 20 19 18
3 20 7 19
3 21 123 124
3 21 125 127
3 125 8 126
3 125 126 127
3 21 22 8
3 23 22 21
3 23 9 22
3 23 24 9
3 25 24 23
3 25 10 24
3 128 12 129
3 26 130 132
3 130 12 131
3 130 131 132
3 26 0 12
3 133 27 134
3 28 135 137
3 135 27 136
3 135 136 137
3 28 3 27
3 138 28 139
3 29 140 142
3 140 28 141
3 140 141 142
3 29 3 28
3 29 16 3
3 30 16 29
3 30 1 16
3 31 143 144
3 31 145 146
3 14 31 4
3 147 31 148
3 149 148 14
3 147 148 149
3 152 151 31
3 150 151 152
3 27 153 154
3 32 155 157
3 157 156 27
3 155 156 157
3 32 158 160
3 158 5 159
3 158 159 160
3 17 32 3
3 33 32 17
3 33 5 32
3 33 161 163
3 163 162 5
3 161 162 163
3 165 164 33
3 19 166 168
3 168 167 6
3 166 167 168
3 170 169 19
3 34 171 172
3 34 173 174
3 175 30 176
3 35 177 179
3 177 30 178
3 177 178 179
3 35 1 30
3 180 35 181
3 36 182 184
3 182 35 183
3 182 183 184
3 36 1 35
3 36 20 1
3 37 20 36
3 37 7 20
3 22 37 8
3 38 37 22
3 38 7 37
3 38 34 7
3 39 34 38
3 39 185 187
3 187 186 34
3 185 186 187
3 39 188 190
3 188 11 189
3 188 189 190
3 40 11 39
3 40 2 11
3 24 40 9
3 41 40 24
3 41 2 40
3 41 26 2
3 42 26 41
3 42 0 26
3 191 25 192
3 193 25 194
3 195 10 196
3 197 196 25
3 195 196 197
3 43 198 199
3 43 200 202
3 200 10 201
3 200 201 202
3 43 42 10
3 44 42 43
3 44 0 42
3 44 15 0
3 203 15 204
3 205 204 44
3 203 204 205
3 207 206 15
