ply
format ascii 1.0
element vertex 317
property float x
property float y
property float z
element face 340
property list uchar int vertex_index
end_header
-10.171536 -36.561504 67.170715
-25.187193 -38.723969 69.342018
-2.71152 -34.59811 61.35952
-5.709272 -43.438599 61.064617
-13.432471 -45.992207 65.507103
-18.25012 -38.324852 70.266357
-21.006168 -47.824757 66.428345
-6.415071 -35.577431 64.614273
-4.382477 -38.868664 61.691479
-7.89417 -40.183041 64.422195
-9.449151 -44.742683 63.644085
-11.871738 -41.317928 66.752586
-23.984638 -34.037586 71.387917
-20.525028 -33.956154 71.699799
-21.929878 -38.600021 70.43013
-19.682014 -42.951805 68.822365
-23.275126 -43.380688 68.259689
-24.320131 -48.017303 65.397461
-0.978611 -37.778164 58.201077
-2.428139 -42.023842 58.156281
-7.350269 -48.067265 60.027905
-11.053107 -49.635574 61.955261
-14.741197 -50.935001 63.203484
-12.601657 -32.701527 69.352112
-16.716722 -33.618279 70.956581
-14.243626 -37.508942 69.158791
-15.740176 -42.184998 68.241501
-17.258671 -47.109512 66.410759
-8.203259 -36.056297 65.921143
-7.183105 -37.899937 64.607933
-9.032712 -38.426132 65.879814
-9.873321 -40.797375 65.675644
-10.986697 -38.977688 67.02388
-24.677746 -36.459999 70.416985
-23.066412 -36.271362 70.98864
-23.621059 -38.637447 70.080643
-22.569187 -40.99855 69.463722
-24.286749 -41.012413 68.905762
-24.800385 -43.420578 67.558525
-25.707458 -40.965652 68.065895
-1.128067 -34.143135 59.736362
-0.316841 -35.714935 58.168736
-1.84832 -36.283009 59.83688
-5.0501 -41.137794 61.469131
-3.41967 -40.458324 60.02174
-4.036331 -42.75639 59.659161
-4.7438 -45.016979 59.263237
-6.60503 -45.810478 60.679794
-11.420848 -45.553543 64.587418
-10.344497 -47.215347 62.955627
-12.177448 -47.938499 63.73148
-12.892445 -50.244377 62.711292
-14.123136 -48.387444 64.517075
-19.339815 -36.2314 71.031792
-18.634686 -33.866791 71.433617
-17.453327 -35.988533 70.68763
-15.454394 -35.646347 70.102264
-16.277473 -37.988033 69.823349
-15.021575 -39.912823 68.788086
-17.051096 -40.262211 69.363945
-20.315727 -45.363796 67.743736
-18.406254 -45.106903 67.683861
-19.191784 -47.599174 66.508263
-17.875952 -49.56126 65.148468
-19.890644 -50.047153 65.120636
-21.701538 -50.182549 64.954521
-4.464186 -35.037968 63.001316
-3.542194 -36.701923 61.572258
-5.406166 -37.219425 63.253307
-6.130689 -39.525753 63.144573
-6.776833 -41.902817 62.78067
-7.541427 -44.094971 62.43206
-8.659934 -42.309982 64.178307
-10.589578 -43.153126 65.20182
-12.508286 -43.611069 66.166199
-23.323378 -31.70331 72.085327
-21.60508 -31.483295 72.239944
-22.263813 -33.976601 71.706818
-21.240946 -36.341579 71.147095
-20.159307 -38.59037 70.458115
-18.989344 -40.6101 69.656876
-20.847473 -41.011639 69.640373
-21.489357 -43.336365 68.642433
-22.087355 -45.715355 67.423775
-22.809546 -48.069817 65.9842
-23.81028 -45.716957 66.910698
-1.940645 -32.44981 61.173996
-3.726024 -32.906883 62.856895
-5.552522 -33.304035 64.428391
-7.444048 -33.7052 65.879959
-9.379332 -34.211117 67.169006
-0.184918 -39.179974 56.554611
-2.640628 -38.251354 60.028397
-1.800435 -39.825264 58.380535
-0.821383 -41.277859 56.467537
-8.41235 -46.347382 61.970604
-9.146156 -48.684662 61.157936
-10.585602 -32.388054 68.26844
-11.378515 -34.780609 68.306641
-14.765533 -33.191704 70.296471
-13.356182 -35.061356 69.307556
-12.18511 -37.125698 68.237701
-12.969068 -39.287949 68.048828
-13.811984 -41.700356 67.629257
-14.521351 -44.109776 66.939377
-17.731583 -42.687443 68.62616
-16.496666 -44.613308 67.44886
-15.366005 -46.621693 66.050079
-16.08765 -49.166862 64.87265
-25.031824 -44.568165 66.825104
-25.433742 -43.416403 67.084751
-1.507055 -31.424822 61.009974
-1.084643 -32.229789 60.287615
-4.15925 -32.019436 63.461963
-3.255124 -31.820091 62.674398
-5.072499 -32.218013 64.247712
-4.639273 -33.105459 63.642643
-4.15925 -32.019436 63.461963
-7.990459 -32.814349 66.446415
-6.962706 -32.657076 65.713348
-8.958101 -33.067307 67.090938
-8.41169 -33.958158 66.524483
-7.990459 -32.814349 66.446415
-0.224994 -37.500749 57.30917
0.105891 -36.469135 57.293
-0.647726 -36.74655 58.184906
-0.581765 -38.479069 57.377844
0.171852 -38.201655 56.485937
-0.224994 -37.500749 57.30917
-1.98457 -42.772658 57.240747
-1.181192 -42.399666 56.396376
-1.624761 -41.650851 57.311909
-6.722081 -48.795489 58.974449
-6.409741 -47.65832 59.382059
-7.631852 -49.167278 59.557419
-6.722081 -48.795489 58.974449
-10.396655 -50.31073 61.020242
-9.443179 -49.835274 60.62158
-10.099632 -49.160118 61.556598
-11.345833 -50.791195 61.359237
-10.396655 -50.31073 61.020242
-14.199233 -51.786514 62.340399
-13.274857 -51.441202 62.094303
-13.816821 -50.589689 62.957388
-15.144721 -52.143225 62.530514
-14.199233 -51.786514 62.340399
-11.593629 -32.54479 68.810276
-11.137561 -31.41183 68.724517
-12.145588 -31.568566 69.266354
-20.14698 -32.826237 71.867943
-20.687006 -31.589808 72.138015
-21.065054 -32.719724 71.969871
-17.281014 -32.53545 71.30328
-18.239996 -32.659706 71.541798
-17.675704 -33.742535 71.195099
-16.323296 -32.397187 71.010368
-17.281014 -32.53545 71.30328
-15.741128 -33.404992 70.626526
-15.347701 -32.183899 70.680313
-16.323296 -32.397187 71.010368
-17.284809 -50.578975 64.333383
-18.246434 -50.756416 64.448072
-23.836892 -49.222801 64.882332
-23.0816 -49.249058 65.175702
-23.564839 -48.04356 65.690831
-25.887279 -42.18894 67.338436
-25.433742 -43.416403 67.084751
-25.253921 -42.193115 67.81221
-0.722454 -34.929035 58.952549
0.089297 -34.689644 58.041913
-0.316317 -33.903744 58.825726
-3.569596 -43.559172 58.727421
-2.7655 -43.192898 57.975981
-3.232235 -42.390116 58.907721
-3.923331 -44.689466 58.529459
-3.569596 -43.559172 58.727421
-4.390066 -43.886685 59.461199
-4.244772 -45.776724 58.299217
-3.923331 -44.689466 58.529459
-5.106507 -46.133177 58.999725
-4.244772 -45.776724 58.299217
-6.037121 -46.529926 59.708004
-5.106507 -46.133177 58.999725
-5.674415 -45.413729 59.971515
-6.97765 -46.938872 60.353849
-6.409741 -47.65832 59.382059
-6.037121 -46.529926 59.708004
-13.175603 -31.793802 69.764873
-12.145588 -31.568566 69.266354
-19.25378 -50.999363 64.434157
-18.246434 -50.756416 64.448072
-18.883298 -49.804206 65.134552
-20.204904 -51.187752 64.379265
-19.25378 -50.999363 64.434157
-21.11035 -51.255449 64.296208
-20.204904 -51.187752 64.379265
-20.796091 -50.114851 65.037578
-21.954931 -51.36374 64.127138
-21.11035 -51.255449 64.296208
-24.572939 -49.212564 64.511654
-25.031806 -47.982 64.918
-22.464229 -31.593303 72.162635
-22.168344 -30.389833 72.4071
-23.027493 -30.49984 72.329792
-24.536771 -45.716355 66.50119
-24.305332 -44.568767 67.234611
-25.031824 -44.568165 66.825104
-24.791697 -46.866528 65.744572
-24.065205 -46.86713 66.154079
-24.536771 -45.716355 66.50119
-25.031806 -47.982 64.918
-24.791697 -46.866528 65.744572
-0.678354 -33.076452 59.568798
-0.316317 -33.903744 58.825726
-1.534356 -33.296473 60.455179
-0.678354 -33.076452 59.568798
-1.084643 -32.229789 60.287615
-2.362435 -31.591555 61.832949
-1.507055 -31.424822 61.009974
-2.833334 -32.678347 62.015445
-2.362435 -31.591555 61.832949
-3.255124 -31.820091 62.674398
-6.016942 -32.456494 64.987565
-5.072499 -32.218013 64.247712
-6.498285 -33.504617 65.154175
-6.016942 -32.456494 64.987565
-6.962706 -32.657076 65.713348
-23.833086 -30.492079 72.210552
-23.027493 -30.49984 72.329792
-24.141962 -31.575471 71.891483
-23.833086 -30.492079 72.210552
-24.472592 -32.742609 71.542778
-23.654008 -32.870448 71.736622
-24.141962 -31.575471 71.891483
-24.775718 -33.903881 71.09214
-24.472592 -32.742609 71.542778
-25.263672 -32.608904 71.247001
-25.122273 -35.115088 70.606674
-24.331192 -35.248793 70.902451
-24.775718 -33.903881 71.09214
-25.361833 -36.347412 70.049958
-25.122273 -35.115088 70.606674
-25.616557 -37.479397 69.512474
-24.932469 -37.591984 69.879502
-25.361833 -36.347412 70.049958
-25.855299 -38.630522 68.863659
-25.616557 -37.479397 69.512474
0.465145 -35.462238 57.223025
0.089297 -34.689644 58.041913
0.465145 -35.462238 57.223025
0.105891 -36.469135 57.293
0.551824 -38.941731 55.612703
0.171852 -38.201655 56.485937
0.200373 -39.920517 55.682306
0.551824 -38.941731 55.612703
-0.11786 -40.969459 55.638769
0.200373 -39.920517 55.682306
-0.50315 -40.228916 56.511074
-0.409525 -42.067784 55.538351
-0.11786 -40.969459 55.638769
-0.409525 -42.067784 55.538351
-1.181192 -42.399666 56.396376
-1.98457 -42.772658 57.240747
-2.7655 -43.192898 57.975981
-8.529796 -49.475977 60.122434
-7.631852 -49.167278 59.557419
-8.248212 -48.375963 60.59292
-8.529796 -49.475977 60.122434
-9.443179 -49.835274 60.62158
-12.265501 -51.095596 61.737253
-11.345833 -50.791195 61.359237
-11.972776 -49.939976 62.333276
-12.265501 -51.095596 61.737253
-13.274857 -51.441202 62.094303
-10.105424 -31.308342 68.126339
-11.137561 -31.41183 68.724517
-9.561236 -32.155776 67.640656
-10.105424 -31.308342 68.126339
-9.982467 -33.299585 67.718723
-8.958101 -33.067307 67.090938
-9.561236 -32.155776 67.640656
-21.210413 -30.438715 72.375293
-22.168344 -30.389833 72.4071
-21.210413 -30.438715 72.375293
-20.687006 -31.589808 72.138015
-19.201809 -32.781556 71.734852
-20.14698 -32.826237 71.867943
-19.579857 -33.911473 71.566708
-19.201809 -32.781556 71.734852
-18.239996 -32.659706 71.541798
-14.257541 -32.03889 70.237053
-15.347701 -32.183899 70.680313
-13.683595 -32.946616 69.824292
-13.175603 -31.793802 69.764873
-14.257541 -32.03889 70.237053
-16.390658 -50.381777 64.195474
-16.981801 -49.364061 65.010559
-17.284809 -50.578975 64.333383
-15.717431 -51.265846 63.360892
-15.414423 -50.050932 64.038067
-16.390658 -50.381777 64.195474
-15.144721 -52.143225 62.530514
-15.717431 -51.265846 63.360892
-22.527596 -50.305424 64.660862
-22.255542 -49.126183 65.46936
-23.0816 -49.249058 65.175702
-21.954931 -51.36374 64.127138
-22.527596 -50.305424 64.660862
-23.836892 -49.222801 64.882332
-24.572939 -49.212564 64.511654
-26.115431 -39.751363 68.225597
-25.447325 -39.84481 68.703957
-25.855299 -38.630522 68.863659
-26.281672 -40.924709 67.528854
-26.115431 -39.751363 68.225597
-25.887279 -42.18894 67.338436
-26.281672 -40.924709 67.528854
3 0 30 28
3 0 32 30
3 1 35 33
3 1 37 35
3 1 39 37
3 2 42 40
3 3 45 43
3 3 46 45
3 3 47 46
3 4 50 48
3 4 52 50
3 5 55 53
3 5 57 55
3 5 59 57
3 6 62 60
3 6 64 62
3 6 65 64
3 7 68 66
3 9 69 29
3 9 70 69
3 9 72 70
3 11 73 31
3 11 74 73
3 12 77 75
3 14 78 34
3 14 79 78
3 14 81 79
3 16 82 36
3 16 83 82
3 16 85 83
3 110 109 38
3 111 86 112
3 113 87 114
3 115 88 116
3 117 116 87
3 115 116 117
3 118 89 119
3 120 90 121
3 122 121 89
3 120 121 122
3 18 123 125
3 125 124 41
3 123 124 125
3 18 126 128
3 126 91 127
3 126 127 128
3 8 92 67
3 19 93 44
3 19 94 93
3 19 129 131
3 131 130 94
3 129 130 131
3 20 132 133
3 20 134 135
3 10 95 71
3 21 96 49
3 21 136 138
3 138 137 96
3 136 137 138
3 21 139 140
3 22 141 143
3 143 142 51
3 141 142 143
3 22 144 145
3 23 146 148
3 146 97 147
3 146 147 148
3 23 98 97
3 13 149 151
3 151 150 76
3 149 150 151
3 24 152 154
3 154 153 54
3 152 153 154
3 24 155 156
3 24 157 159
3 157 99 158
3 157 158 159
3 25 100 56
3 25 101 100
3 25 102 101
3 26 103 58
3 26 104 103
3 15 105 80
3 27 106 61
3 27 107 106
3 27 108 107
3 161 160 63
3 17 162 164
3 164 163 84
3 162 163 164
3 28 29 7
3 30 29 28
3 30 9 29
3 30 31 9
3 32 31 30
3 32 11 31
3 33 34 12
3 35 34 33
3 35 14 34
3 35 36 14
3 37 36 35
3 37 16 36
3 37 38 16
3 39 38 37
3 39 165 167
3 167 166 38
3 165 166 167
3 40 168 170
3 168 41 169
3 168 169 170
3 42 41 40
3 42 18 41
3 43 44 8
3 45 44 43
3 45 19 44
3 45 171 173
3 173 172 19
3 171 172 173
3 46 174 176
3 176 175 45
3 174 175 176
3 46 177 178
3 46 179 180
3 47 181 183
3 183 182 46
3 181 182 183
3 47 184 186
3 184 20 185
3 184 185 186
3 48 49 10
3 50 49 48
3 50 21 49
3 50 51 21
3 52 51 50
3 52 22 51
3 187 23 188
3 53 54 13
3 55 54 53
3 55 24 54
3 55 56 24
3 57 56 55
3 57 25 56
3 57 58 25
3 59 58 57
3 59 26 58
3 60 61 15
3 62 61 60
3 62 27 61
3 62 63 27
3 64 63 62
3 64 189 191
3 191 190 63
3 189 190 191
3 64 192 193
3 65 194 196
3 196 195 64
3 194 195 196
3 65 197 198
3 200 199 17
3 66 67 2
3 68 67 66
3 68 8 67
3 29 68 7
3 69 68 29
3 69 8 68
3 69 43 8
3 70 43 69
3 70 3 43
3 70 71 3
3 72 71 70
3 72 10 71
3 31 72 9
3 73 72 31
3 73 10 72
3 73 48 10
3 74 48 73
3 74 4 48
3 75 201 203
3 201 76 202
3 201 202 203
3 77 76 75
3 77 13 76
3 34 77 12
3 78 77 34
3 78 13 77
3 78 53 13
3 79 53 78
3 79 5 53
3 79 80 5
3 81 80 79
3 81 15 80
3 36 81 14
3 82 81 36
3 82 15 81
3 82 60 15
3 83 60 82
3 83 6 60
3 83 84 6
3 85 84 83
3 85 17 84
3 38 85 16
3 204 85 205
3 206 205 38
3 204 205 206
3 207 17 208
3 209 208 85
3 207 208 209
3 211 210 17
3 212 40 213
3 86 214 216
3 214 40 215
3 214 215 216
3 86 2 40
3 217 86 218
3 87 219 221
3 219 86 220
3 219 220 221
3 87 2 86
3 87 66 2
3 88 66 87
3 88 7 66
3 222 88 223
3 89 224 226
3 224 88 225
3 224 225 226
3 89 7 88
3 89 28 7
3 90 28 89
3 90 0 28
3 227 75 228
3 229 75 230
3 231 12 232
3 233 232 75
3 231 232 233
3 234 12 235
3 234 235 236
3 237 33 238
3 239 238 12
3 237 238 239
3 240 33 241
3 242 1 243
3 244 243 33
3 242 243 244
3 246 245 1
3 41 247 248
3 250 249 41
3 91 251 252
3 91 253 254
3 67 42 2
3 92 42 67
3 92 18 42
3 44 92 8
3 93 92 44
3 93 18 92
3 93 91 18
3 94 91 93
3 94 255 257
3 257 256 91
3 255 256 257
3 94 258 259
3 261 260 94
3 263 262 19
3 71 47 3
3 95 47 71
3 95 20 47
3 49 95 10
3 96 95 49
3 96 20 95
3 96 264 266
3 266 265 20
3 264 265 266
3 268 267 96
3 51 269 271
3 271 270 21
3 269 270 271
3 273 272 51
3 97 274 275
3 97 276 277
3 97 278 280
3 278 90 279
3 278 279 280
3 98 90 97
3 98 0 90
3 76 281 282
3 284 283 76
3 54 285 287
3 287 286 13
3 285 286 287
3 289 288 54
3 99 290 291
3 99 292 294
3 292 23 293
3 292 293 294
3 56 99 24
3 100 99 56
3 100 23 99
3 100 98 23
3 101 98 100
3 101 0 98
3 101 32 0
3 102 32 101
3 102 11 32
3 58 102 25
3 103 102 58
3 103 11 102
3 103 74 11
3 104 74 103
3 104 4 74
3 80 59 5
3 105 59 80
3 105 26 59
3 61 105 15
3 106 105 61
3 106 26 105
3 106 104 26
3 107 104 106
3 107 4 104
3 107 52 4
3 108 52 107
3 108 22 52
3 63 108 27
3 295 108 296
3 297 296 63
3 295 296 297
3 298 22 299
3 300 299 108
3 298 299 300
3 302 301 22
3 84 65 6
3 303 65 304
3 305 304 84
3 303 304 305
3 307 306 65
3 309 308 17
3 310 39 311
3 312 311 1
3 310 311 312
3 313 39 314
3 316 315 39
