ply
format ascii 1.0
element vertex 155
property float x
property float y
property float z
element face 143
property list uchar int vertex_index
end_header
0.38532 -28.850594 -50.804909
-1.063585 -19.281502 -50.507858
3.276666 -12.904658 -58.049446
-2.378853 -31.628777 -47.489765
1.010359 -16.184998 -54.27874
-5.095305 -28.862911 -43.810589
-3.150345 -22.178856 -46.874313
-2.741199 -26.643578 -47.294666
-0.313185 -23.653267 -50.944824
2.110324 -20.65889 -54.440292
-3.727951 -32.854588 -45.798321
-2.140401 -20.919077 -48.58535
-2.90076 -24.261385 -47.154205
-1.784299 -22.756624 -48.974686
-1.544715 -25.140055 -49.096497
-0.687689 -21.315855 -50.789398
2.104189 -14.575431 -56.173569
1.487695 -18.462677 -54.328495
2.724533 -16.728132 -56.225857
3.439029 -19.156656 -56.151154
3.994829 -15.186477 -57.963272
-1.040462 -30.320833 -49.117676
-0.480963 -15.855569 -52.032215
-0.047427 -17.916796 -52.328354
0.498485 -14.361269 -53.961105
1.474319 -12.67296 -55.895691
2.475217 -10.87838 -57.806614
-4.074644 -25.454817 -45.30817
-3.875439 -27.66745 -45.605007
-3.864786 -30.350607 -45.628448
-2.595378 -29.043751 -47.385132
-1.291693 -27.587633 -49.169716
0.023568 -26.220226 -50.917969
0.441343 -19.838053 -52.652508
0.874867 -22.144991 -52.70406
1.340593 -24.798794 -52.602962
2.711498 -23.288736 -54.272991
4.426479 -11.031843 -59.842384
-4.374502 -33.390845 -44.966656
-4.35503 -34.727698 -45.029786
0.678234 -30.071994 -50.820101
-0.091556 -30.870137 -50.007525
1.139929 -28.040296 -51.665501
0.678234 -30.071994 -50.820101
-1.601993 -20.10029 -49.546604
-1.809199 -19.251283 -49.329109
-1.270791 -18.432495 -50.290363
-2.251424 -33.024097 -47.506649
-2.982887 -33.604637 -46.690658
-1.709658 -30.974805 -48.30372
-1.582229 -32.370126 -48.320605
-2.251424 -33.024097 -47.506649
-0.230984 -14.130643 -52.839138
-0.690276 -15.037588 -51.839735
0.25874 -13.383492 -53.803583
0.008761 -15.108419 -52.99666
-0.230984 -14.130643 -52.839138
1.648594 -10.959457 -56.67882
1.188772 -11.838646 -55.699772
2.149042 -10.062168 -57.634281
1.974768 -11.77567 -56.851152
1.648594 -10.959457 -56.67882
-5.671411 -30.553957 -43.06296
-5.696419 -29.338611 -42.949123
-5.073569 -30.045569 -43.891939
-5.671411 -30.553957 -43.06296
-3.292257 -21.190933 -46.742088
-2.802525 -20.610714 -47.576273
-3.689666 -22.764183 -46.007927
-3.292257 -21.190933 -46.742088
-3.612495 -23.816837 -46.091241
-4.151815 -24.402164 -45.224855
-3.689666 -22.764183 -46.007927
3.835765 -20.274495 -56.110264
4.129645 -18.200077 -57.03548
5.088264 -10.115502 -60.737501
4.58782 -9.147696 -60.70033
4.868005 -12.149553 -59.791082
5.088264 -10.115502 -60.737501
-3.657436 -34.217543 -45.844937
-4.35503 -34.727698 -45.029786
-3.053402 -32.241682 -46.644043
-2.982887 -33.604637 -46.690658
-3.657436 -34.217543 -45.844937
-5.148439 -27.68266 -43.709072
-5.696419 -29.338611 -42.949123
-2.297553 -19.980825 -48.431792
-1.809199 -19.251283 -49.329109
-2.645373 -21.548966 -47.729832
-2.802525 -20.610714 -47.576273
-2.297553 -19.980825 -48.431792
4.407545 -16.214987 -57.94154
4.129645 -18.200077 -57.03548
3.716929 -17.171567 -57.057213
-0.804447 -31.605256 -49.163908
-1.582229 -32.370126 -48.320605
-0.327571 -29.585714 -49.961292
-0.091556 -30.870137 -50.007525
-0.804447 -31.605256 -49.163908
-0.97948 -16.719528 -51.052542
-0.690276 -15.037588 -51.839735
-0.772274 -17.568535 -51.270037
-1.270791 -18.432495 -50.290363
-0.97948 -16.719528 -51.052542
0.700855 -12.682801 -54.732479
0.25874 -13.383492 -53.803583
0.986402 -13.517114 -54.928398
0.700855 -12.682801 -54.732479
1.188772 -11.838646 -55.699772
-4.638108 -25.978613 -44.457862
-4.151815 -24.402164 -45.224855
-4.584974 -27.158864 -44.559379
-5.148439 -27.68266 -43.709072
-4.638108 -25.978613 -44.457862
-4.463636 -29.447839 -44.789148
-5.073569 -30.045569 -43.891939
-4.485372 -28.26518 -44.707798
-4.45831 -30.789417 -44.800868
-4.463636 -29.447839 -44.789148
-3.870113 -29.009028 -45.616727
-4.442919 -32.138854 -44.88172
-4.45831 -30.789417 -44.800868
-3.796368 -31.602598 -45.713385
-4.374502 -33.390845 -44.966656
-4.442919 -32.138854 -44.88172
1.617565 -26.014396 -52.564527
1.139929 -28.040296 -51.665501
0.862956 -26.824694 -51.703936
2.303018 -25.259367 -53.399542
1.617565 -26.014396 -52.564527
2.026045 -24.043765 -53.437976
3.063897 -24.423735 -54.22541
2.303018 -25.259367 -53.399542
3.471999 -22.340535 -55.171183
3.075264 -21.222696 -55.212072
3.835765 -20.274495 -56.110264
3.063897 -24.423735 -54.22541
3.471999 -22.340535 -55.171183
2.667452 -9.107948 -58.660834
2.149042 -10.062168 -57.634281
3.026711 -10.01893 -58.749676
2.667452 -9.107948 -58.660834
3.427435 -11.032069 -58.871092
2.875941 -11.891519 -57.92803
3.026711 -10.01893 -58.749676
4.002341 -10.095662 -59.767561
4.58782 -9.147696 -60.70033
3.851572 -11.96825 -58.945915
3.427435 -11.032069 -58.871092
4.002341 -10.095662 -59.767561
4.652181 -14.226869 -58.851526
4.210654 -13.10916 -58.902828
4.868005 -12.149553 -59.791082
4.407545 -16.214987 -57.94154
4.652181 -14.226869 -58.851526
3 38 10 39
3 0 40 41
3 0 42 43
3 1 44 46
3 44 11 45
3 44 45 46
3 1 13 11
3 1 15 13
3 2 18 16
3 2 20 18
3 3 47 48
3 3 49 51
3 49 21 50
3 49 50 51
3 52 22 53
3 54 24 55
3 56 55 22
3 54 55 56
3 57 25 58
3 59 26 60
3 61 60 25
3 59 60 61
3 5 62 63
3 5 64 65
3 6 66 67
3 6 68 69
3 6 70 72
3 70 27 71
3 70 71 72
3 7 28 12
3 7 29 28
3 7 30 29
3 8 31 14
3 8 32 31
3 4 33 23
3 9 34 17
3 9 35 34
3 9 36 35
3 74 73 19
3 75 37 76
3 78 77 37
3 10 79 80
3 10 81 83
3 81 3 82
3 81 82 83
3 84 5 85
3 11 86 87
3 11 88 90
3 88 6 89
3 88 89 90
3 11 12 6
3 13 12 11
3 13 7 12
3 13 14 7
3 15 14 13
3 15 8 14
3 16 17 4
3 18 17 16
3 18 9 17
3 18 19 9
3 20 19 18
3 20 91 93
3 93 92 19
3 91 92 93
3 21 94 95
3 21 96 98
3 96 0 97
3 96 97 98
3 22 99 100
3 22 101 103
3 101 1 102
3 101 102 103
3 22 23 1
3 24 23 22
3 24 4 23
3 104 24 105
3 25 106 108
3 106 24 107
3 106 107 108
3 25 4 24
3 25 16 4
3 26 16 25
3 26 2 16
3 27 109 110
3 27 111 113
3 111 5 112
3 111 112 113
3 12 27 6
3 28 27 12
3 28 5 27
3 28 114 116
3 116 115 5
3 114 115 116
3 29 117 119
3 119 118 28
3 117 118 119
3 29 120 121
3 29 122 124
3 122 10 123
3 122 123 124
3 30 10 29
3 30 3 10
3 14 30 7
3 31 30 14
3 31 3 30
3 31 21 3
3 32 21 31
3 32 0 21
3 23 15 1
3 33 15 23
3 33 8 15
3 17 33 4
3 34 33 17
3 34 8 33
3 34 32 8
3 35 32 34
3 35 0 32
3 35 125 127
3 127 126 0
3 125 126 127
3 36 128 130
3 130 129 35
3 128 129 130
3 36 131 132
3 19 36 9
3 133 36 134
3 135 134 19
3 133 134 135
3 137 136 36
3 138 26 139
3 140 26 141
3 142 2 143
3 144 143 26
3 142 143 144
3 37 145 146
3 37 147 149
3 147 2 148
3 147 148 149
3 37 20 2
3 150 20 151
3 152 151 37
3 150 151 152
3 154 153 20
