ply
format ascii 1.0
element vertex 161
property float x
property float y
property float z
element face 148
property list uchar int vertex_index
end_header
-30.044308 -63.542824 -25.920618
-33.208988 -54.978943 -34.929504
-32.758831 -57.428562 -26.790991
-31.847189 -59.418964 -30.559431
-34.465233 -53.197868 -31.339155
-27.455664 -64.111351 -37.338749
-30.081873 -61.68261 -34.16243
-31.134493 -56.880272 -38.177956
-35.847733 -48.232029 -35.98349
-34.229084 -49.676491 -39.404057
-33.631279 -55.437778 -29.039963
-29.472061 -64.740593 -27.798676
-32.563168 -57.328106 -32.664536
-30.997068 -60.74876 -32.237816
-31.699495 -58.411064 -34.380016
-30.67576 -59.337101 -36.144382
-32.294254 -55.883842 -36.598038
-36.415443 -47.394623 -34.104343
-36.993164 -44.885002 -36.338501
-35.601044 -46.139885 -39.905243
-34.537998 -46.94743 -41.514828
-33.017536 -50.741711 -40.841393
-33.320534 -47.823219 -42.863804
-31.48805 -60.379627 -26.314247
-30.906553 -61.709938 -28.332386
-32.283028 -58.659229 -28.523071
-33.189003 -56.380711 -30.763264
-33.986195 -53.947552 -33.171257
-30.296026 -62.737759 -30.177229
-29.451536 -63.838959 -32.085968
-28.930439 -62.682999 -35.932781
-29.367493 -60.368397 -37.83234
-35.699848 -49.848137 -31.8309
-35.250118 -50.665455 -33.760445
-34.564217 -51.636967 -35.503128
-36.448055 -45.323601 -38.23719
-35.158257 -48.910191 -37.720066
-33.766811 -52.381454 -37.24509
-32.799812 -53.16436 -38.791431
-29.758184 -64.141709 -26.859647
-28.998494 -65.72704 -26.688941
-29.284618 -65.128155 -25.749912
-37.532299 -43.077621 -36.555769
-37.239569 -44.432823 -35.465496
-34.695007 -45.441925 -42.524097
-35.223515 -45.191477 -41.727929
-34.086275 -45.879819 -43.198586
-33.929266 -47.385324 -42.189316
-34.695007 -45.441925 -42.524097
-26.473921 -65.862458 -37.209389
-27.26624 -65.200901 -36.389364
-29.196873 -63.422672 -33.974224
-28.881704 -64.500847 -32.935993
-29.766705 -62.760784 -33.124199
-29.506156 -62.182805 -35.047606
-28.621156 -63.922867 -34.859399
-29.196873 -63.422672 -33.974224
-30.471483 -57.251877 -39.012419
-29.587983 -58.99594 -38.839611
-30.250993 -58.624335 -38.005148
-36.236025 -48.252892 -32.006225
-35.842739 -49.453537 -30.891793
-36.664363 -43.904991 -39.309557
-37.00885 -43.62083 -38.390005
-32.22972 -52.486004 -40.584349
-32.367263 -51.024479 -41.631983
-33.786997 -54.949993 -28.081634
-33.195055 -56.43317 -27.915477
-33.350773 -55.945385 -26.957148
-34.225916 -53.894711 -29.27043
-33.786997 -54.949993 -28.081634
-34.642893 -52.774755 -30.420026
-34.048256 -54.317823 -30.189559
-34.225916 -53.894711 -29.27043
-26.735228 -64.539028 -38.108496
-27.705826 -62.688541 -38.352363
-28.680864 -66.334362 -27.616062
-28.998494 -65.72704 -26.688941
-29.098669 -65.33619 -28.78785
-28.680864 -66.334362 -27.616062
-36.950708 -45.687634 -34.348417
-36.593823 -47.026134 -33.142946
-36.704304 -46.139813 -35.221422
-36.950708 -45.687634 -34.348417
-37.239569 -44.432823 -35.465496
-35.755038 -44.787705 -40.923136
-36.240858 -44.313133 -40.143583
-35.069521 -46.543657 -40.710036
-35.755038 -44.787705 -40.923136
-35.223515 -45.191477 -41.727929
-32.518763 -49.565233 -42.643189
-32.367263 -51.024479 -41.631983
-33.169035 -49.282465 -41.852598
-26.473921 -65.862458 -37.209389
-26.735228 -64.539028 -38.108496
-29.510652 -64.334772 -29.977127
-29.098669 -65.33619 -28.78785
-29.884044 -63.739176 -28.987952
-29.088406 -64.885373 -30.931497
-29.510652 -64.334772 -29.977127
-29.873781 -63.288359 -31.131599
-28.573113 -65.582493 -31.82451
-29.088406 -64.885373 -30.931497
-28.573113 -65.582493 -31.82451
-28.881704 -64.500847 -32.935993
-28.003628 -64.486725 -35.68638
-28.621156 -63.922867 -34.859399
-28.193051 -63.397175 -36.635765
-27.26624 -65.200901 -36.389364
-28.003628 -64.486725 -35.68638
-28.661741 -60.817065 -38.599159
-27.705826 -62.688541 -38.352363
-28.411578 -62.239874 -37.585544
-28.661741 -60.817065 -38.599159
-29.587983 -58.99594 -38.839611
-29.556964 -64.447224 -24.724908
-29.284618 -65.128155 -25.749912
-30.258595 -62.943962 -24.970801
-29.556964 -64.447224 -24.724908
-30.980466 -61.362364 -25.167615
-30.766179 -61.961225 -26.117432
-30.258595 -62.943962 -24.970801
-31.650528 -59.826988 -25.316287
-30.980466 -61.362364 -25.167615
-32.285918 -58.351456 -25.554659
-32.123441 -58.904094 -26.552619
-31.650528 -59.826988 -25.316287
-32.88989 -56.898167 -25.792867
-32.285918 -58.351456 -25.554659
-33.350773 -55.945385 -26.957148
-32.88989 -56.898167 -25.792867
-35.2602 -51.09989 -30.665899
-35.842739 -49.453537 -30.891793
-35.082541 -51.523003 -31.585028
-34.642893 -52.774755 -30.420026
-35.2602 -51.09989 -30.665899
-36.057646 -48.62138 -32.967621
-36.236025 -48.252892 -32.006225
-36.593823 -47.026134 -33.142946
-37.281405 -43.401531 -37.44066
-37.532299 -43.077621 -36.555769
-36.720609 -45.104301 -37.287846
-37.281405 -43.401531 -37.44066
-37.00885 -43.62083 -38.390005
-36.024549 -45.731743 -39.071216
-36.664363 -43.904991 -39.309557
-36.240858 -44.313133 -40.143583
-32.120858 -53.697328 -39.559368
-32.908674 -51.953035 -39.816412
-32.22972 -52.486004 -40.584349
-31.288199 -55.555284 -39.252631
-31.967153 -55.022316 -38.484694
-32.120858 -53.697328 -39.559368
-30.471483 -57.251877 -39.012419
-31.288199 -55.555284 -39.252631
-33.471184 -46.173849 -43.890535
-34.086275 -45.879819 -43.198586
-32.652379 -48.092603 -43.568998
-33.471184 -46.173849 -43.890535
-32.518763 -49.565233 -42.643189
-32.652379 -48.092603 -43.568998
3 0 39 41
3 39 11 40
3 39 40 41
3 1 14 12
3 1 16 14
3 42 18 43
3 44 20 45
3 46 22 47
3 48 47 20
3 46 47 48
3 2 25 23
3 4 26 10
3 4 27 26
3 5 49 50
3 3 28 24
3 6 29 13
3 6 51 53
3 53 52 29
3 51 52 53
3 6 54 56
3 54 30 55
3 54 55 56
3 7 31 15
3 7 57 59
3 59 58 31
3 57 58 59
3 60 32 61
3 8 33 17
3 8 34 33
3 62 35 63
3 9 36 19
3 9 37 36
3 9 38 37
3 65 64 21
3 66 10 67
3 68 67 2
3 66 67 68
3 69 10 70
3 71 4 72
3 73 72 10
3 71 72 73
3 75 74 5
3 11 76 77
3 11 78 79
3 12 13 3
3 14 13 12
3 14 6 13
3 14 15 6
3 16 15 14
3 16 7 15
3 80 17 81
3 18 82 84
3 82 17 83
3 82 83 84
3 18 8 17
3 85 19 86
3 20 87 89
3 87 19 88
3 87 88 89
3 20 9 19
3 20 21 9
3 22 21 20
3 22 90 92
3 92 91 21
3 90 91 92
3 23 24 0
3 25 24 23
3 25 3 24
3 10 25 2
3 26 25 10
3 26 3 25
3 26 12 3
3 27 12 26
3 27 1 12
3 94 93 5
3 24 11 0
3 28 11 24
3 28 95 97
3 97 96 11
3 95 96 97
3 13 28 3
3 29 28 13
3 29 98 100
3 100 99 28
3 98 99 100
3 29 101 102
3 104 103 29
3 30 105 106
3 30 107 109
3 107 5 108
3 107 108 109
3 15 30 6
3 31 30 15
3 31 5 30
3 31 110 112
3 112 111 5
3 110 111 112
3 114 113 31
3 115 0 116
3 117 0 118
3 119 23 120
3 121 120 0
3 119 120 121
3 122 23 123
3 124 2 125
3 126 125 23
3 124 125 126
3 127 2 128
3 130 129 2
3 32 131 132
3 32 133 135
3 133 4 134
3 133 134 135
3 17 136 138
3 136 32 137
3 136 137 138
3 33 32 17
3 33 4 32
3 33 27 4
3 34 27 33
3 34 1 27
3 139 18 140
3 35 141 143
3 141 18 142
3 141 142 143
3 35 8 18
3 19 144 146
3 144 35 145
3 144 145 146
3 36 35 19
3 36 8 35
3 36 34 8
3 37 34 36
3 37 1 34
3 37 16 1
3 38 16 37
3 38 7 16
3 21 38 9
3 147 38 148
3 149 148 21
3 147 148 149
3 150 7 151
3 152 151 38
3 150 151 152
3 154 153 7
3 155 22 156
3 157 22 158
3 160 159 22
