ply
format ascii 1.0
element vertex 193
property float x
property float y
property float z
element face 184
property list uchar int vertex_index
end_header
-27.448805 -32.771614 -55.511185
-32.318569 -17.13336 -59.521881
-24.41132 -18.04439 -62.186375
-27.743507 -2.764247 -66.39164
-30.212141 -9.875698 -63.182724
-31.276833 -31.632622 -54.14249
-22.206392 -11.181579 -65.077896
-30.159275 -24.903063 -57.690308
-26.252541 -25.218819 -58.987484
-28.516043 -17.599463 -61.26619
-26.329346 -10.377151 -64.576042
-23.558575 -3.571368 -67.490562
-29.431684 -31.895855 -55.037121
-29.751591 -35.674637 -53.160583
-27.83736 -35.983395 -53.964512
-33.226978 -20.470778 -57.652061
-32.093544 -24.323294 -56.857124
-31.375917 -20.991484 -58.63615
-29.42889 -21.068325 -59.568817
-30.478306 -17.181093 -60.562317
-29.036316 -6.227584 -64.856422
-28.316509 -10.170425 -63.959351
-27.0546 -6.429511 -65.622925
-25.020178 -6.687931 -66.159187
-25.641911 -3.136526 -67.074348
-25.454462 -21.839111 -60.513168
-24.058987 -25.591228 -59.288456
-23.366238 -22.091843 -60.754662
-33.113445 -13.336528 -60.278015
-31.328016 -13.567881 -61.372128
-32.11882 -9.624359 -62.120701
-31.587328 -35.124146 -52.285595
-23.431381 -14.408346 -63.723282
-22.408682 -18.642641 -62.200397
-32.721737 -27.728456 -54.973885
-30.851978 -28.207884 -55.921478
-28.750517 -28.606497 -56.76799
-26.916248 -28.832409 -57.34029
-28.270746 -24.859789 -58.510128
-27.459614 -21.389191 -60.172451
-26.497824 -17.80958 -61.830261
-29.3932 -13.737508 -62.304523
-27.584814 -13.895411 -62.954777
-25.499245 -14.247893 -63.412498
-24.261589 -10.543338 -65.013672
-22.861313 -7.270419 -66.39859
-21.472439 -4.083535 -67.673813
-26.095385 0.441742 -67.862755
-24.065407 -0.088794 -68.386856
-21.853281 -0.516764 -68.753357
-24.797409 -29.225233 -57.721542
-26.599346 -34.659853 -55.010334
-26.793624 -36.265743 -54.236998
-27.643082 -34.377505 -54.737848
-26.459025 -32.733231 -55.843136
-26.599346 -34.659853 -55.010334
-32.772773 -18.802069 -58.586971
-33.660438 -18.569759 -58.023458
-33.206234 -16.901051 -58.958368
-33.463369 -11.280477 -60.610521
-33.928377 -13.12604 -59.669306
-32.966057 -9.424392 -61.531864
-32.616132 -11.480443 -61.199358
-33.463369 -11.280477 -60.610521
-31.43208 -33.378384 -53.214043
-32.273103 -33.253612 -52.698103
-32.117855 -31.50785 -53.626551
-29.981918 -37.383114 -52.204059
-28.991499 -37.573915 -52.684052
-21.784422 -13.109199 -64.373155
-22.396916 -14.722582 -63.695848
-22.818886 -12.794963 -64.400589
-33.279182 -25.873511 -55.365588
-33.501781 -27.749969 -54.356173
-25.21948 2.078156 -68.54926
-26.228378 2.338567 -68.206009
-24.204491 1.812888 -68.81131
-25.080396 0.176474 -68.124806
-25.21948 2.078156 -68.54926
-21.000402 1.021717 -69.337868
-22.069021 1.240959 -69.200108
-20.845088 -0.820814 -68.789299
-21.000402 1.021717 -69.337868
-23.386153 -27.584064 -58.60132
-23.030673 -25.827678 -59.310671
-21.802996 -20.612097 -61.464664
-21.339481 -18.851703 -62.159554
-28.034384 -37.728295 -53.086016
-28.991499 -37.573915 -52.684052
-28.794476 -35.829016 -53.562548
-27.027718 -38.027418 -53.405683
-28.034384 -37.728295 -53.086016
-27.027718 -38.027418 -53.405683
-26.793624 -36.265743 -54.236998
-21.167799 -11.310884 -65.084854
-21.528365 -9.461132 -65.765773
-34.032581 -20.288934 -57.069351
-33.660438 -18.569759 -58.023458
-33.531803 -22.244672 -56.704676
-34.032581 -20.288934 -57.069351
-32.660261 -22.397036 -57.254593
-32.965086 -24.17093 -56.307207
-33.531803 -22.244672 -56.704676
-22.684298 -24.077985 -60.043774
-23.030673 -25.827678 -59.310671
-23.712612 -23.841535 -60.021559
-33.603672 -15.002634 -59.336435
-33.928377 -13.12604 -59.669306
-32.716007 -15.234944 -59.899948
-33.206234 -16.901051 -58.958368
-33.603672 -15.002634 -59.336435
-32.456781 -7.697482 -62.382065
-32.966057 -9.424392 -61.531864
-31.55726 -7.854431 -62.975654
-32.456781 -7.697482 -62.382065
-30.60392 -7.9801 -63.506666
-31.165481 -9.750028 -62.651713
-31.55726 -7.854431 -62.975654
-30.016008 -6.156044 -64.343515
-29.624229 -8.051641 -64.019573
-30.60392 -7.9801 -63.506666
-29.376985 -4.349933 -65.166542
-30.016008 -6.156044 -64.343515
-28.730581 -2.618264 -65.934151
-28.389912 -4.495916 -65.624031
-29.376985 -4.349933 -65.166542
-32.452934 -34.961705 -51.696329
-32.273103 -33.253612 -52.698103
-31.763658 -36.871909 -51.262297
-32.452934 -34.961705 -51.696329
-30.899787 -37.107869 -51.766565
-30.66946 -35.399392 -52.723089
-29.981918 -37.383114 -52.204059
-31.763658 -36.871909 -51.262297
-30.899787 -37.107869 -51.766565
-21.885567 -16.83973 -62.934406
-22.920032 -16.525493 -62.961839
-22.396916 -14.722582 -63.695848
-21.339481 -18.851703 -62.159554
-21.885567 -16.83973 -62.934406
-21.784422 -13.109199 -64.373155
-21.167799 -11.310884 -65.084854
-32.840307 -29.555767 -54.042248
-33.501781 -27.749969 -54.356173
-31.999285 -29.680539 -54.558188
-32.117855 -31.50785 -53.626551
-32.840307 -29.555767 -54.042248
-32.40764 -26.025875 -55.915504
-33.279182 -25.873511 -55.365588
-32.965086 -24.17093 -56.307207
-21.855826 -7.505552 -66.42612
-21.528365 -9.461132 -65.765773
-22.533853 -9.225999 -65.738243
-21.161389 -5.912109 -67.063732
-21.855826 -7.505552 -66.42612
-22.166876 -5.676977 -67.036202
-20.376494 -4.398404 -67.648487
-21.161389 -5.912109 -67.063732
-27.911751 -0.9391 -66.739666
-28.730581 -2.618264 -65.934151
-27.087689 0.663895 -67.475223
-26.228378 2.338567 -68.206009
-26.919446 -1.161253 -67.127197
-27.911751 -0.9391 -66.739666
-27.087689 0.663895 -67.475223
-23.175083 1.454944 -69.016857
-24.204491 1.812888 -68.81131
-22.959344 -0.302779 -68.570106
-23.175083 1.454944 -69.016857
-22.069021 1.240959 -69.200108
-20.654667 -2.6042 -68.249527
-21.66286 -2.30015 -68.213585
-20.845088 -0.820814 -68.789299
-20.376494 -4.398404 -67.648487
-20.654667 -2.6042 -68.249527
-26.192747 -30.763628 -56.757689
-26.459025 -32.733231 -55.843136
-27.182527 -30.802011 -56.425737
-25.133328 -30.96004 -56.948314
-26.192747 -30.763628 -56.757689
-25.856828 -29.028821 -57.530916
-24.047182 -31.33182 -57.032711
-25.133328 -30.96004 -56.948314
-23.755364 -29.401066 -57.817864
-24.428198 -27.408231 -58.504999
-23.386153 -27.584064 -58.60132
-24.047182 -31.33182 -57.032711
-23.755364 -29.401066 -57.817864
-22.281774 -22.336698 -60.741797
-22.88746 -20.367242 -61.47753
-21.802996 -20.612097 -61.464664
-22.684298 -24.077985 -60.043774
-22.281774 -22.336698 -60.741797
3 0 14 12
3 0 51 53
3 53 52 14
3 51 52 53
3 0 54 55
3 1 56 58
3 56 15 57
3 56 57 58
3 1 17 15
3 1 19 17
3 3 22 20
3 3 24 22
3 2 27 25
3 59 28 60
3 61 30 62
3 63 62 28
3 61 62 63
3 5 64 66
3 64 31 65
3 64 65 66
3 68 67 13
3 6 69 71
3 71 70 32
3 69 70 71
3 72 34 73
3 7 35 16
3 7 36 35
3 7 38 36
3 9 39 18
3 9 40 39
3 4 41 29
3 10 42 21
3 10 43 42
3 10 44 43
3 11 45 23
3 11 46 45
3 74 47 75
3 76 48 77
3 78 77 47
3 76 77 78
3 79 49 80
3 82 81 49
3 8 50 37
3 84 83 26
3 86 85 33
3 12 13 5
3 14 13 12
3 14 87 89
3 89 88 13
3 87 88 89
3 14 90 91
3 93 92 14
3 95 94 6
3 15 96 97
3 15 98 99
3 15 100 102
3 100 16 101
3 100 101 102
3 17 16 15
3 17 7 16
3 17 18 7
3 19 18 17
3 19 9 18
3 20 21 4
3 22 21 20
3 22 10 21
3 22 23 10
3 24 23 22
3 24 11 23
3 25 26 8
3 27 26 25
3 27 103 105
3 105 104 26
3 103 104 105
3 28 106 107
3 28 108 110
3 108 1 109
3 108 109 110
3 28 29 1
3 30 29 28
3 30 4 29
3 111 30 112
3 113 30 114
3 115 4 116
3 117 116 30
3 115 116 117
3 118 20 119
3 120 119 4
3 118 119 120
3 121 20 122
3 123 3 124
3 125 124 20
3 123 124 125
3 31 126 127
3 31 128 129
3 13 31 5
3 130 31 131
3 132 131 13
3 130 131 132
3 134 133 31
3 32 33 2
3 135 33 136
3 137 136 32
3 135 136 137
3 139 138 33
3 141 140 6
3 34 142 143
3 34 144 146
3 144 5 145
3 144 145 146
3 16 147 149
3 147 34 148
3 147 148 149
3 35 34 16
3 35 5 34
3 35 12 5
3 36 12 35
3 36 0 12
3 36 37 0
3 38 37 36
3 38 8 37
3 18 38 7
3 39 38 18
3 39 8 38
3 39 25 8
3 40 25 39
3 40 2 25
3 29 19 1
3 41 19 29
3 41 9 19
3 21 41 4
3 42 41 21
3 42 9 41
3 42 40 9
3 43 40 42
3 43 2 40
3 43 32 2
3 44 32 43
3 44 6 32
3 23 44 10
3 45 44 23
3 45 6 44
3 45 150 152
3 152 151 6
3 150 151 152
3 46 153 155
3 155 154 45
3 153 154 155
3 46 156 157
3 158 3 159
3 47 160 161
3 47 162 164
3 162 3 163
3 162 163 164
3 47 24 3
3 48 24 47
3 48 11 24
3 165 48 166
3 49 167 169
3 167 48 168
3 167 168 169
3 49 11 48
3 49 46 11
3 170 46 171
3 172 171 49
3 170 171 172
3 174 173 46
3 37 175 177
3 177 176 0
3 175 176 177
3 50 178 180
3 180 179 37
3 178 179 180
3 50 181 182
3 26 50 8
3 183 50 184
3 185 184 26
3 183 184 185
3 187 186 50
3 33 27 2
3 188 27 189
3 190 189 33
3 188 189 190
3 192 191 27
