ply
format ascii 1.0
element vertex 323
property float x
property float y
property float z
element face 302
property list uchar int vertex_index
end_header
31.475224 31.034256 -2.273648
34.468109 28.166361 3.428074
17.993128 24.871023 -9.890773
22.841383 22.780428 -7.356618
27.097025 33.681446 -6.503922
34.4482 19.220753 -0.701542
17.843542 32.29187 -11.312805
19.956491 31.024811 -9.837499
22.465805 29.823826 -8.515133
29.441832 32.465351 -4.554312
27.885345 27.209789 -5.75702
30.521465 26.198639 -4.016378
31.658659 19.966854 -2.9762
32.962555 25.090183 -1.823469
35.303745 26.627508 6.899845
36.607903 23.018932 4.004755
33.170441 29.583319 0.37122
16.233707 26.167818 -11.553545
24.734915 35.230785 -8.099723
25.056267 28.352016 -7.230484
25.649744 21.550053 -6.135771
35.081924 23.934978 0.857596
21.158579 30.271452 -9.147262
22.289156 33.329746 -9.106336
30.676645 33.95483 -2.428037
29.832157 34.892223 -3.563532
30.496992 31.662214 -3.477297
29.922716 29.357824 -4.388476
31.162056 28.606112 -3.270078
31.74761 25.602261 -3.006675
32.273247 27.990829 -2.074192
17.892742 28.661987 -10.586285
16.917854 29.112263 -11.398066
17.047232 25.554241 -10.695632
21.493464 23.340128 -7.949327
25.883461 34.538639 -7.352156
24.926086 31.752016 -7.653121
26.183228 31.098637 -6.942495
28.272305 24.051191 -5.301985
26.826921 24.562695 -6.036682
33.124584 19.70632 -1.88588
33.836128 28.922537 1.775246
34.143215 26.74966 0.519183
34.876728 26.253429 1.968316
37.528019 20.49111 4.512877
36.748119 21.125988 2.839202
37.610821 18.431486 3.562331
18.894434 31.728544 -10.534172
18.920471 27.893948 -9.832981
19.040581 24.4172 -9.208545
20.140493 27.474514 -9.154814
21.340458 26.886616 -8.543849
22.615452 26.073952 -7.919016
28.282009 33.133183 -5.593186
27.585581 30.469646 -6.09158
28.779995 29.75717 -5.275954
29.274269 26.623016 -4.899852
29.714304 23.465197 -4.468679
31.086224 23.111755 -3.56686
32.475849 22.755232 -2.481858
33.730434 22.179741 -1.324572
34.973698 27.363728 5.02496
35.579323 25.533493 3.570084
36.129448 24.822063 5.332055
37.166775 22.388481 5.790702
38.096012 19.9062 6.221335
32.363743 30.345507 -0.980085
23.663521 32.660614 -8.366446
23.781929 29.182272 -7.875296
24.020077 25.675276 -7.324283
26.460953 27.921152 -6.540779
25.395061 25.009134 -6.695793
24.165472 22.254913 -6.793735
33.211548 27.579367 -0.81033
34.054726 24.666908 -0.527078
34.859695 21.643021 -0.098147
35.907787 23.569632 2.388891
35.943939 21.364697 1.39703
35.590714 19.016365 0.528894
22.274703 35.103635 -9.388049
21.695214 33.661436 -9.447226
17.622235 23.518189 -9.976714
17.149287 23.859799 -10.379143
17.52018 25.212632 -10.293202
18.076727 23.18891 -9.597517
17.705835 21.836077 -9.683458
17.622235 23.518189 -9.976714
22.272208 21.386215 -7.361147
21.598248 21.666064 -7.657502
22.167423 23.060278 -7.652973
22.916168 21.08422 -7.073909
22.272208 21.386215 -7.361147
26.949812 35.349767 -6.637333
27.496744 35.061208 -6.13305
26.490243 34.110043 -6.928039
26.34303 35.778364 -7.06145
26.949812 35.349767 -6.637333
27.712049 22.564613 -5.384259
28.479411 22.434105 -5.023544
34.069533 18.01293 -0.947005
33.407725 18.255713 -1.539174
33.786392 19.463537 -1.293711
34.758865 17.772324 -0.327252
34.069533 18.01293 -0.947005
37.982191 18.143776 4.349266
37.56942 19.461298 4.037604
37.94079 19.173588 4.82454
37.955986 17.051093 3.946877
37.982191 18.143776 4.349266
19.425463 31.376677 -10.185835
19.446275 33.288684 -10.526179
19.977304 32.936818 -10.177843
29.170825 33.964479 -4.649416
29.365987 35.177915 -4.154026
29.636995 33.678787 -4.058922
28.861921 32.799267 -5.073749
28.590913 34.298395 -5.168853
29.170825 33.964479 -4.649416
37.346193 22.068364 6.6426
36.80934 23.299756 6.452699
37.810812 20.827223 6.857916
37.631394 21.14734 6.006018
37.346193 22.068364 6.6426
38.271974 19.651683 7.119483
37.810812 20.827223 6.857916
17.33983 32.45179 -11.741392
17.82805 34.045895 -11.708842
16.129801 27.893594 -11.952331
16.471875 29.365817 -11.874592
16.575781 27.64004 -11.475805
15.875361 26.349202 -12.019732
16.129801 27.893594 -11.952331
16.000357 24.64859 -11.676683
15.875361 26.349202 -12.019732
19.118749 22.672675 -8.910956
19.61794 24.171356 -8.892726
24.651229 36.984222 -8.325038
25.215184 36.675695 -7.895962
24.103397 35.683548 -8.503616
24.651229 36.984222 -8.325038
24.199218 33.9457 -8.233085
23.567701 34.398463 -8.636978
24.103397 35.683548 -8.503616
25.03594 20.126327 -6.149777
24.293804 20.478758 -6.478759
24.907608 21.902483 -6.464753
31.180378 18.554279 -3.091078
30.913113 20.105074 -3.444227
36.315016 19.998179 1.682793
36.346029 21.245342 2.118116
36.717106 19.878824 2.403879
36.138403 18.824013 1.248725
35.767326 20.190531 0.962962
36.315016 19.998179 1.682793
35.95034 17.647602 0.944098
36.138403 18.824013 1.248725
20.528881 32.508968 -9.812807
19.977304 32.936818 -10.177843
21.129925 32.132289 -9.467688
20.557535 30.648131 -9.49238
20.528881 32.508968 -9.812807
21.723867 31.800599 -9.126799
21.129925 32.132289 -9.467688
21.695214 33.661436 -9.447226
30.254401 34.423527 -2.995785
29.898537 35.840852 -2.982044
30.320782 35.372156 -2.414296
35.877825 25.419269 7.007271
35.450895 26.114337 7.865386
16.73087 23.99731 -10.801738
16.324107 24.304098 -11.230695
16.64047 25.86103 -11.124588
16.73087 23.99731 -10.801738
17.149287 23.859799 -10.379143
20.94482 21.88585 -7.958706
20.844381 23.63282 -8.263116
20.94482 21.88585 -7.958706
21.598248 21.666064 -7.657502
25.789458 36.329622 -7.522178
26.34303 35.778364 -7.06145
25.309188 34.884712 -7.725939
25.215184 36.675695 -7.895962
25.789458 36.329622 -7.522178
26.989357 22.820365 -5.751608
27.549613 24.306943 -5.669334
27.712049 22.564613 -5.384259
26.400769 21.314044 -5.801152
26.238332 23.056374 -6.086227
26.989357 22.820365 -5.751608
25.793735 19.849072 -5.824673
26.400769 21.314044 -5.801152
32.69066 18.333005 -2.063925
31.957698 18.463272 -2.609085
32.391621 19.836587 -2.43104
32.69066 18.333005 -2.063925
33.407725 18.255713 -1.539174
37.148457 18.531573 2.765444
36.717106 19.878824 2.403879
37.17947 19.778737 3.200766
37.519272 17.241434 3.209698
37.148457 18.531573 2.765444
37.519272 17.241434 3.209698
37.955986 17.051093 3.946877
18.345817 33.71499 -11.281147
17.82805 34.045895 -11.708842
18.871263 33.433328 -10.891831
19.446275 33.288684 -10.526179
18.368988 32.010207 -10.923489
18.345817 33.71499 -11.281147
18.871263 33.433328 -10.891831
20.167896 25.700013 -8.86586
19.61794 24.171356 -8.892726
19.590537 25.945857 -9.18168
20.767879 25.406064 -8.560377
20.167896 25.700013 -8.86586
20.740476 27.180565 -8.849331
21.416961 25.113372 -8.246588
20.844381 23.63282 -8.263116
20.767879 25.406064 -8.560377
29.51166 36.303325 -3.628655
29.898537 35.840852 -2.982044
29.51166 36.303325 -3.628655
29.365987 35.177915 -4.154026
28.089236 34.787077 -5.677682
28.590913 34.298395 -5.168853
27.689517 33.407314 -6.048554
27.496744 35.061208 -6.13305
28.089236 34.787077 -5.677682
29.20041 22.141108 -4.606891
28.479411 22.434105 -5.023544
28.993305 23.758194 -4.885332
29.940935 21.854245 -4.190466
29.20041 22.141108 -4.606891
30.626895 21.677524 -3.739556
29.940935 21.854245 -4.190466
30.400264 23.288476 -4.017769
31.372442 21.539305 -3.27153
30.913113 20.105074 -3.444227
30.626895 21.677524 -3.739556
36.290676 24.516547 6.223376
35.716596 25.724785 6.11595
35.877825 25.419269 7.007271
36.648111 23.605272 5.561379
36.290676 24.516547 6.223376
36.80934 23.299756 6.452699
38.224787 18.881133 5.678769
37.94079 19.173588 4.82454
37.812016 20.198655 5.367106
38.461971 18.820107 6.527867
38.590745 17.79504 5.9853
38.224787 18.881133 5.678769
38.461971 18.820107 6.527867
38.271974 19.651683 7.119483
30.637849 34.974816 -1.745649
30.320782 35.372156 -2.414296
31.054609 33.601152 -1.778664
30.637849 34.974816 -1.745649
31.453899 32.140866 -1.701469
31.075935 32.494543 -2.350842
31.054609 33.601152 -1.778664
31.898158 31.796491 -1.054688
31.919483 30.689881 -1.626866
31.453899 32.140866 -1.701469
32.231899 31.444038 -0.354735
31.898158 31.796491 -1.054688
32.635249 31.062944 0.320917
32.767092 29.964413 -0.304432
32.231899 31.444038 -0.354735
32.960731 30.611792 1.072275
32.635249 31.062944 0.320917
33.293575 30.281402 1.774288
33.503284 29.252928 1.073233
32.960731 30.611792 1.072275
33.595348 29.795637 2.573484
33.293575 30.281402 1.774288
33.911338 29.417549 3.399897
34.152119 28.544449 2.60166
33.595348 29.795637 2.573484
34.09219 29.076027 4.298873
33.911338 29.417549 3.399897
34.344984 28.67471 5.097316
34.720903 27.765044 4.226517
34.09219 29.076027 4.298873
34.546436 28.167155 5.928387
34.344984 28.67471 5.097316
34.71146 27.799045 6.86583
35.138722 26.995618 5.962402
34.546436 28.167155 5.928387
34.87352 27.245278 7.755752
34.71146 27.799045 6.86583
35.450895 26.114337 7.865386
34.87352 27.245278 7.755752
16.876985 30.861987 -11.784023
17.33983 32.45179 -11.741392
17.380698 30.702067 -11.355436
16.876985 30.861987 -11.784023
16.471875 29.365817 -11.874592
16.000357 24.64859 -11.676683
16.324107 24.304098 -11.230695
18.600454 22.961999 -9.256403
18.076727 23.18891 -9.597517
18.516855 24.644112 -9.549659
18.600454 22.961999 -9.256403
19.118749 22.672675 -8.910956
22.880518 34.733029 -9.006923
22.274703 35.103635 -9.388049
22.976338 32.99518 -8.736391
22.880518 34.733029 -9.006923
23.567701 34.398463 -8.636978
23.578212 20.821462 -6.792467
22.916168 21.08422 -7.073909
23.503428 22.517671 -7.075176
23.578212 20.821462 -6.792467
24.293804 20.478758 -6.478759
25.03594 20.126327 -6.149777
25.793735 19.849072 -5.824673
31.180378 18.554279 -3.091078
31.957698 18.463272 -2.609085
35.330122 17.67013 0.287967
34.758865 17.772324 -0.327252
35.019457 19.118559 -0.086324
35.330122 17.67013 0.287967
35.95034 17.647602 0.944098
3 79 23 80
3 0 26 24
3 0 28 26
3 0 30 28
3 2 33 31
3 2 81 83
3 83 82 33
3 81 82 83
3 2 84 86
3 84 85 86
3 3 87 89
3 89 88 34
3 87 88 89
3 3 90 91
3 4 92 93
3 4 94 96
3 94 35 95
3 94 95 96
3 4 37 35
3 98 97 38
3 5 99 101
3 101 100 40
3 99 100 101
3 5 102 103
3 1 43 41
3 104 46 105
3 106 105 44
3 104 105 106
3 108 107 46
3 7 109 111
3 109 47 110
3 109 110 111
3 7 48 47
3 7 50 48
3 8 51 22
3 8 52 51
3 9 112 114
3 114 113 25
3 112 113 114
3 9 115 117
3 115 53 116
3 115 116 117
3 9 55 53
3 11 56 27
3 11 57 56
3 11 58 57
3 13 59 29
3 13 60 59
3 14 63 61
3 118 64 119
3 120 65 121
3 122 121 64
3 120 121 122
3 124 123 65
3 6 125 126
3 17 127 129
3 129 128 32
3 127 128 129
3 17 130 131
3 17 132 133
3 135 134 49
3 18 136 137
3 18 138 139
3 18 140 142
3 140 67 141
3 140 141 142
3 19 68 36
3 19 69 68
3 10 70 54
3 20 71 39
3 20 72 71
3 20 143 145
3 145 144 72
3 143 144 145
3 12 146 147
3 16 73 66
3 21 74 42
3 21 75 74
3 15 76 62
3 148 77 149
3 150 149 45
3 148 149 150
3 151 78 152
3 153 152 77
3 151 152 153
3 155 154 78
3 156 7 157
3 158 22 159
3 160 159 7
3 158 159 160
3 23 161 163
3 161 22 162
3 161 162 163
3 23 8 22
3 24 164 166
3 164 25 165
3 164 165 166
3 26 25 24
3 26 9 25
3 26 27 9
3 28 27 26
3 28 11 27
3 28 29 11
3 30 29 28
3 30 13 29
3 168 167 14
3 31 32 6
3 33 32 31
3 33 17 32
3 33 169 171
3 171 170 17
3 169 170 171
3 173 172 33
3 34 174 175
3 177 176 34
3 35 178 179
3 35 180 182
3 180 18 181
3 180 181 182
3 35 36 18
3 37 36 35
3 37 19 36
3 38 39 10
3 183 39 184
3 185 184 38
3 183 184 185
3 186 20 187
3 188 187 39
3 186 187 188
3 190 189 20
3 40 191 193
3 193 192 12
3 191 192 193
3 195 194 40
3 41 42 16
3 43 42 41
3 43 21 42
3 44 45 15
3 46 45 44
3 46 196 198
3 198 197 45
3 196 197 198
3 46 199 200
3 202 201 46
3 203 6 204
3 47 205 206
3 47 207 209
3 207 6 208
3 207 208 209
3 47 31 6
3 48 31 47
3 48 2 31
3 48 49 2
3 50 49 48
3 50 210 212
3 212 211 49
3 210 211 212
3 22 50 7
3 51 50 22
3 51 213 215
3 215 214 50
3 213 214 215
3 51 216 218
3 216 34 217
3 216 217 218
3 52 34 51
3 52 3 34
3 25 219 220
3 222 221 25
3 53 223 224
3 53 225 227
3 225 4 226
3 225 226 227
3 53 54 4
3 55 54 53
3 55 10 54
3 27 55 9
3 56 55 27
3 56 10 55
3 56 38 10
3 57 38 56
3 57 228 230
3 230 229 38
3 228 229 230
3 57 231 232
3 58 233 235
3 235 234 57
3 233 234 235
3 58 236 238
3 236 12 237
3 236 237 238
3 29 58 11
3 59 58 29
3 59 12 58
3 59 40 12
3 60 40 59
3 60 5 40
3 61 62 1
3 63 62 61
3 63 15 62
3 239 63 240
3 241 240 14
3 239 240 241
3 64 242 244
3 242 63 243
3 242 243 244
3 64 15 63
3 64 44 15
3 65 44 64
3 65 245 247
3 247 246 44
3 245 246 247
3 65 248 250
3 248 249 250
3 252 251 65
3 253 24 254
3 255 24 256
3 257 0 258
3 259 258 24
3 257 258 259
3 260 66 261
3 262 261 0
3 260 261 262
3 263 66 264
3 265 16 266
3 267 266 66
3 265 266 267
3 268 16 269
3 270 41 271
3 272 271 16
3 270 271 272
3 273 41 274
3 275 1 276
3 277 276 41
3 275 276 277
3 278 1 279
3 280 61 281
3 282 281 1
3 280 281 282
3 283 61 284
3 285 14 286
3 287 286 61
3 285 286 287
3 288 14 289
3 291 290 14
3 32 292 294
3 294 293 6
3 292 293 294
3 296 295 32
3 298 297 17
3 49 299 301
3 301 300 2
3 299 300 301
3 303 302 49
3 304 23 305
3 67 306 308
3 306 23 307
3 306 307 308
3 67 8 23
3 36 67 18
3 68 67 36
3 68 8 67
3 68 52 8
3 69 52 68
3 69 3 52
3 54 37 4
3 70 37 54
3 70 19 37
3 39 70 10
3 71 70 39
3 71 19 70
3 71 69 19
3 72 69 71
3 72 3 69
3 72 309 311
3 311 310 3
3 309 310 311
3 313 312 72
3 315 314 20
3 317 316 12
3 66 30 0
3 73 30 66
3 73 13 30
3 42 73 16
3 74 73 42
3 74 13 73
3 74 60 13
3 75 60 74
3 75 5 60
3 62 43 1
3 76 43 62
3 76 21 43
3 45 76 15
3 77 76 45
3 77 21 76
3 77 75 21
3 78 75 77
3 78 5 75
3 78 318 320
3 320 319 5
3 318 319 320
3 322 321 78
