ply
format ascii 1.0
element vertex 279
property float x
property float y
property float z
element face 258
property list uchar int vertex_index
end_header
13.501556 38.421734 -31.474936
14.57519 40.555191 -17.374008
13.67175 27.895699 -18.814072
14.912522 27.145908 -13.550119
14.112998 37.87606 -36.165794
13.709452 33.954002 -17.791292
14.030133 27.68243 -15.970418
14.633996 33.832996 -15.24724
13.306085 34.046883 -20.892105
14.157102 33.422016 -28.408224
14.723828 21.456038 -14.626406
15.551583 20.460873 -12.190374
16.006306 33.133785 -13.100468
13.097261 39.026192 -27.194925
13.483118 33.680874 -24.39291
13.898439 28.210323 -22.114229
13.745407 38.281487 -33.750843
14.024439 37.177952 -17.568159
14.081804 33.776695 -16.498722
14.557769 37.016663 -16.251987
13.614765 37.237362 -19.005957
14.47219 30.733225 -27.043129
13.992917 25.258516 -19.420515
13.983003 24.938477 -17.911606
14.413662 27.303732 -14.695873
14.315395 24.488134 -15.277479
14.697246 23.988718 -13.989057
15.078503 21.012962 -13.346863
15.17311 23.809757 -12.845312
15.942882 36.462589 -13.99973
16.414507 22.440378 -10.907844
17.251343 22.165356 -10.062655
13.033535 39.306168 -25.194252
13.298717 36.382107 -25.751148
13.174754 36.724144 -23.8939
13.448314 31.084757 -19.836517
13.499709 30.885698 -21.448067
13.702745 28.073009 -20.35244
14.158882 25.588919 -21.094669
13.572618 30.777111 -18.271828
13.793329 27.625618 -17.288006
13.821352 30.66926 -16.865604
14.228806 30.786993 -15.532023
14.744718 30.535023 -14.345993
13.189446 36.950405 -22.125866
13.334272 37.024239 -20.501499
13.44189 33.943466 -19.247715
13.881401 35.831997 -29.9254
14.265712 35.725758 -32.272511
14.674098 33.170597 -30.636385
14.708333 35.613155 -34.691128
14.102258 24.637968 -16.50844
15.205111 37.062614 -15.140425
15.278348 33.586891 -14.121778
15.355659 30.224279 -13.297274
16.836117 32.61171 -12.16998
16.025896 29.61937 -12.351117
15.517015 26.530586 -12.485919
15.767008 23.129362 -11.799821
16.122335 19.636623 -11.166677
13.247703 38.849426 -29.310736
13.505356 36.31636 -27.752357
13.763568 33.635963 -26.409342
14.006728 30.851791 -25.037498
13.326328 33.840443 -22.609909
13.684813 30.832005 -23.157097
14.238689 28.304108 -23.896578
13.623482 38.35161 -32.61289
13.398695 39.595036 -33.404871
13.276769 39.66516 -32.266917
14.287752 40.547872 -18.069028
14.567265 42.096192 -17.978203
14.299815 38.866571 -17.471083
14.012377 38.859253 -18.166103
14.287752 40.547872 -18.069028
14.929557 29.493011 -27.49732
14.63506 29.411565 -26.4531
17.622235 23.518189 -9.976714
17.149287 23.859799 -10.379143
17.705835 21.836077 -9.683458
17.622235 23.518189 -9.976714
13.059344 39.609993 -24.265034
12.992878 41.044487 -25.049172
13.129953 38.318981 -23.614857
13.104145 38.015156 -24.544076
13.059344 39.609993 -24.265034
13.793031 38.900932 -36.942602
13.667753 39.182535 -35.740825
14.26062 37.81071 -37.43988
13.793031 38.900932 -36.942602
13.45149 38.664607 -20.341604
13.309203 38.567245 -21.051747
14.938302 34.47326 -33.865095
14.487023 35.669456 -33.48182
14.716992 34.529562 -32.655787
14.620615 21.606536 -15.258615
14.416398 23.122584 -15.584152
14.519611 22.972086 -14.951942
14.887892 20.228902 -14.966758
14.620615 21.606536 -15.258615
14.982318 20.050923 -14.295699
14.887892 20.228902 -14.966758
15.561125 19.227483 -12.495384
15.324585 19.503528 -13.073629
15.315043 20.736918 -12.768619
15.793468 18.789288 -11.919816
15.561125 19.227483 -12.495384
15.613758 38.556606 -15.043856
15.226315 38.76621 -15.642556
17.33983 32.45179 -11.741392
17.324338 34.205815 -12.137429
16.129801 27.893594 -11.952331
16.471875 29.365817 -11.874592
15.875361 26.349202 -12.019732
15.771456 28.074978 -12.418518
16.129801 27.893594 -11.952331
16.000357 24.64859 -11.676683
15.642012 24.829974 -12.14287
15.875361 26.349202 -12.019732
16.464489 19.392187 -10.697197
16.268421 21.0385 -11.037261
16.610575 20.794064 -10.567781
16.346152 18.051129 -10.889122
16.464489 19.392187 -10.697197
12.967831 40.411692 -27.932233
12.970046 40.642061 -26.962747
13.172482 38.937809 -28.252831
13.043052 40.323309 -28.990138
12.967831 40.411692 -27.932233
14.196099 26.949548 -22.424397
14.366224 26.996441 -23.315571
14.068564 28.257216 -23.005403
14.48925 24.359689 -21.410463
14.319047 24.347516 -20.630868
13.483957 39.385249 -34.53335
13.398695 39.595036 -33.404871
13.929202 38.078773 -34.958319
13.667753 39.182535 -35.740825
13.483957 39.385249 -34.53335
13.80754 38.888958 -18.885002
13.591736 38.771168 -19.593833
13.819602 37.207657 -18.287058
13.80754 38.888958 -18.885002
14.012377 38.859253 -18.166103
14.738724 30.737808 -28.097336
14.58118 32.082203 -28.779884
14.314646 32.077621 -27.725676
14.738724 30.737808 -28.097336
14.929557 29.493011 -27.49732
14.186107 23.95004 -19.051786
14.236065 24.182315 -19.793791
14.18115 23.79002 -18.297332
14.186107 23.95004 -19.051786
13.98796 25.098496 -18.666061
14.174774 23.641346 -17.587362
14.18115 23.79002 -18.297332
16.418031 38.085341 -13.949219
15.982643 38.256594 -14.473508
16.387426 36.429129 -13.531202
16.418031 38.085341 -13.949219
16.419138 34.764727 -13.081571
15.974594 34.798187 -13.550099
16.387426 36.429129 -13.531202
16.73087 23.99731 -10.801738
16.324107 24.304098 -11.230695
16.832925 22.302867 -10.48525
16.73087 23.99731 -10.801738
17.149287 23.859799 -10.379143
17.028993 20.656554 -10.145186
16.610575 20.794064 -10.567781
16.832925 22.302867 -10.48525
17.407404 20.417893 -9.745958
17.028993 20.656554 -10.145186
17.407404 20.417893 -9.745958
17.705835 21.836077 -9.683458
12.938183 40.782049 -25.96241
12.992878 41.044487 -25.049172
13.065398 39.16618 -26.194589
12.970046 40.642061 -26.962747
12.938183 40.782049 -25.96241
14.236065 24.182315 -19.793791
14.319047 24.347516 -20.630868
14.0759 25.423718 -20.257592
13.23679 38.530329 -21.86393
13.137299 38.432112 -22.73084
13.261859 36.987322 -21.313682
13.23679 38.530329 -21.86393
13.309203 38.567245 -21.051747
13.474519 37.1308 -19.753728
13.45149 38.664607 -20.341604
13.591736 38.771168 -19.593833
14.921185 33.251981 -31.837724
14.716992 34.529562 -32.655787
14.469905 34.448177 -31.454448
14.839678 31.956494 -29.893964
14.4156 33.296307 -29.522305
14.58118 32.082203 -28.779884
15.162731 32.004682 -31.097687
14.839678 31.956494 -29.893964
14.921185 33.251981 -31.837724
15.162731 32.004682 -31.097687
14.911354 40.512499 -16.759348
14.936214 42.248934 -17.347078
14.936214 42.248934 -17.347078
14.567265 42.096192 -17.978203
15.213683 34.545122 -35.135052
14.938302 34.47326 -33.865095
14.94924 35.589449 -36.026255
15.213683 34.545122 -35.135052
14.651573 36.720901 -36.763588
14.410666 36.744608 -35.428461
14.94924 35.589449 -36.026255
14.26062 37.81071 -37.43988
14.651573 36.720901 -36.763588
14.234402 23.491091 -16.885779
14.174774 23.641346 -17.587362
14.042631 24.788222 -17.210023
14.30983 23.197501 -16.199632
14.208827 24.563051 -15.892959
14.416398 23.122584 -15.584152
14.234402 23.491091 -16.885779
14.30983 23.197501 -16.199632
15.159655 19.829386 -13.655928
14.982318 20.050923 -14.295699
14.901165 21.2345 -13.986635
15.159655 19.829386 -13.655928
15.324585 19.503528 -13.073629
14.902644 38.743235 -16.198338
14.566479 38.785927 -16.812998
14.911354 40.512499 -16.759348
14.88144 37.039639 -15.696206
14.902644 38.743235 -16.198338
15.226315 38.76621 -15.642556
15.573996 36.762602 -14.570078
15.613758 38.556606 -15.043856
15.982643 38.256594 -14.473508
16.834043 34.503689 -12.616328
17.324338 34.205815 -12.137429
16.421211 32.872748 -12.635224
16.419138 34.764727 -13.081571
16.834043 34.503689 -12.616328
16.876985 30.861987 -11.784023
17.33983 32.45179 -11.741392
16.431007 31.11554 -12.260549
16.876985 30.861987 -11.784023
16.471875 29.365817 -11.874592
16.090758 22.78487 -11.353832
16.000357 24.64859 -11.676683
16.324107 24.304098 -11.230695
16.078844 18.377164 -11.407967
15.793468 18.789288 -11.919816
15.836959 20.048748 -11.678525
16.078844 18.377164 -11.407967
16.346152 18.051129 -10.889122
13.221391 39.813516 -31.14002
13.276769 39.66516 -32.266917
13.094465 40.027362 -30.057919
13.043052 40.323309 -28.990138
13.37463 38.63558 -30.392836
13.221391 39.813516 -31.14002
13.094465 40.027362 -30.057919
14.40233 29.470848 -25.450284
14.63506 29.411565 -26.4531
14.239459 30.792508 -26.040313
13.1821 36.837275 -23.009883
13.129953 38.318981 -23.614857
13.137299 38.432112 -22.73084
14.51831 28.197007 -24.879824
14.40233 29.470848 -25.450284
14.122709 29.577949 -24.467038
14.627868 27.041254 -24.257685
14.51831 28.197007 -24.879824
14.627868 27.041254 -24.257685
14.366224 26.996441 -23.315571
14.326321 25.638846 -21.914617
14.196099 26.949548 -22.424397
14.028661 26.899621 -21.604449
14.326321 25.638846 -21.914617
14.48925 24.359689 -21.410463
3 0 67 69
3 67 16 68
3 67 68 69
3 1 19 17
3 1 70 71
3 1 72 74
3 72 17 73
3 72 73 74
3 76 75 21
3 2 23 22
3 3 26 24
3 3 28 26
3 77 31 78
3 80 79 31
3 81 32 82
3 83 34 84
3 85 84 32
3 83 84 85
3 2 37 35
3 2 22 37
3 4 86 87
3 4 88 89
3 5 41 39
3 7 42 18
3 7 43 42
3 90 45 91
3 5 46 20
3 5 39 46
3 9 49 47
3 92 50 93
3 94 93 48
3 92 93 94
3 6 51 40
3 10 95 97
3 97 96 25
3 95 96 97
3 10 98 99
3 10 100 101
3 11 102 104
3 104 103 27
3 102 103 104
3 11 105 106
3 107 52 108
3 12 53 29
3 12 54 53
3 109 55 110
3 111 56 112
3 113 57 114
3 115 114 56
3 113 114 115
3 116 58 117
3 118 117 57
3 116 117 118
3 119 59 120
3 121 120 30
3 119 120 121
3 123 122 59
3 13 124 125
3 13 126 128
3 126 60 127
3 126 127 128
3 13 61 60
3 14 62 33
3 14 63 62
3 8 64 44
3 15 65 36
3 15 66 65
3 15 129 131
3 131 130 66
3 129 130 131
3 133 132 38
3 16 134 135
3 16 136 138
3 136 4 137
3 136 137 138
3 17 18 5
3 19 18 17
3 19 7 18
3 139 20 140
3 17 141 143
3 141 20 142
3 141 142 143
3 17 5 20
3 21 144 146
3 146 145 9
3 144 145 146
3 148 147 21
3 22 149 150
3 23 151 153
3 153 152 22
3 151 152 153
3 23 154 155
3 24 25 6
3 26 25 24
3 26 10 25
3 26 27 10
3 28 27 26
3 28 11 27
3 156 29 157
3 158 29 159
3 160 12 161
3 162 161 29
3 160 161 162
3 163 30 164
3 31 165 167
3 165 30 166
3 165 166 167
3 31 168 170
3 170 169 30
3 168 169 170
3 31 171 172
3 174 173 31
3 32 175 176
3 32 177 179
3 177 13 178
3 177 178 179
3 32 33 13
3 34 33 32
3 34 14 33
3 35 36 8
3 37 36 35
3 37 15 36
3 37 38 15
3 22 38 37
3 22 180 182
3 182 181 38
3 180 181 182
3 39 40 2
3 41 40 39
3 41 6 40
3 18 41 5
3 42 41 18
3 42 6 41
3 42 24 6
3 43 24 42
3 43 3 24
3 183 44 184
3 45 185 187
3 185 44 186
3 185 186 187
3 45 8 44
3 20 188 190
3 188 45 189
3 188 189 190
3 46 45 20
3 46 8 45
3 46 35 8
3 39 35 46
3 39 2 35
3 47 48 0
3 49 48 47
3 49 191 193
3 193 192 48
3 191 192 193
3 194 49 195
3 196 195 9
3 194 195 196
3 197 49 198
3 200 199 49
3 202 201 1
3 203 1 204
3 48 16 0
3 50 16 48
3 50 4 16
3 205 50 206
3 207 50 208
3 209 4 210
3 211 210 50
3 209 210 211
3 213 212 4
3 40 23 2
3 51 23 40
3 51 214 216
3 216 215 23
3 214 215 216
3 25 51 6
3 217 51 218
3 219 218 25
3 217 218 219
3 221 220 51
3 27 222 224
3 224 223 10
3 222 223 224
3 226 225 27
3 227 19 228
3 229 228 1
3 227 228 229
3 52 230 232
3 230 19 231
3 230 231 232
3 52 7 19
3 29 233 235
3 233 52 234
3 233 234 235
3 53 52 29
3 53 7 52
3 53 43 7
3 54 43 53
3 54 3 43
3 55 236 237
3 55 238 240
3 238 12 239
3 238 239 240
3 241 55 242
3 56 243 245
3 243 55 244
3 243 244 245
3 56 12 55
3 56 54 12
3 57 54 56
3 57 3 54
3 57 28 3
3 58 28 57
3 58 11 28
3 30 246 248
3 246 58 247
3 246 247 248
3 59 58 30
3 59 11 58
3 59 249 251
3 251 250 11
3 249 250 251
3 253 252 59
3 254 0 255
3 60 256 257
3 60 258 260
3 258 0 259
3 258 259 260
3 60 47 0
3 61 47 60
3 61 9 47
3 33 61 13
3 62 61 33
3 62 9 61
3 62 21 9
3 63 21 62
3 63 261 263
3 263 262 21
3 261 262 263
3 44 264 266
3 264 34 265
3 264 265 266
3 64 34 44
3 64 14 34
3 36 64 8
3 65 64 36
3 65 14 64
3 65 63 14
3 66 63 65
3 66 267 269
3 269 268 63
3 267 268 269
3 66 270 271
3 273 272 66
3 38 274 276
3 276 275 15
3 274 275 276
3 278 277 38
