ply
format ascii 1.0
element vertex 298
property float x
property float y
property float z
element face 308
property list uchar int vertex_index
end_header
26.639883 70.671349 40.601261
31.849077 64.573425 23.87517
27.726677 82.772102 27.465693
30.568661 79.642288 18.666004
29.994617 69.269089 32.433414
27.339041 77.199799 33.976131
29.052467 76.544792 29.915596
28.689432 70.431641 36.670193
31.322397 72.039345 21.430927
31.673914 76.602852 14.312936
32.904518 61.193199 19.751404
33.356209 53.039417 22.095692
32.290665 56.735413 25.835651
28.0429 87.978294 20.164181
29.601048 86.273933 15.777377
29.357176 81.699738 23.057699
30.274109 74.944382 25.670599
30.952482 67.331841 28.164421
31.432478 59.617039 30.021313
30.606441 61.991219 34.378498
26.238409 93.630493 16.586523
25.985991 88.520096 24.172861
25.474577 82.893356 31.138166
27.04418 73.959648 37.362019
28.041399 73.807358 35.527981
27.787405 70.754005 38.647259
28.377851 67.412186 39.921215
31.6078 68.452057 22.537807
31.786015 70.769287 19.314226
32.093548 66.768097 20.578653
32.643833 65.211922 18.36676
32.353054 62.863583 21.804214
32.602707 59.042576 22.764908
32.082947 60.540768 25.012024
27.907249 85.544609 23.742525
28.780554 84.945908 21.526844
28.605797 82.426186 25.228889
29.555267 72.983734 31.264612
29.726202 75.820549 27.739059
30.129038 72.190956 29.137686
30.649975 71.162643 26.925875
30.488699 68.516289 30.248528
30.779179 64.676605 31.378698
30.311342 65.649094 33.590752
25.139307 95.928841 14.851333
25.113838 93.497261 18.717726
26.179287 91.117432 20.430824
24.913403 90.888199 22.560463
25.240976 79.823853 34.374916
30.147425 83.055138 17.064205
30.741886 81.673805 14.883754
32.921223 50.957901 25.042547
31.240984 57.153038 32.784798
31.613525 55.659618 30.781
27.526613 79.999382 30.87081
28.441395 79.78038 28.691748
28.293423 76.806175 32.125366
28.881763 73.558182 33.355122
29.378805 70.193306 34.469402
29.808989 66.592789 35.513626
29.19121 67.056984 37.716175
31.005356 75.903992 19.869202
31.142365 77.974968 16.600548
31.518454 74.304588 17.861752
33.142883 57.202606 20.944916
32.75444 55.101254 24.041624
32.434551 52.683464 26.861944
28.179623 90.344444 16.211685
28.977121 89.636909 13.844454
28.876999 87.34729 17.861406
29.530214 83.981392 19.369381
30.009823 80.643303 20.959986
29.231726 79.077095 26.580297
29.89826 78.310966 24.253931
30.484657 77.034615 22.204678
30.836662 73.514023 23.468794
31.135826 69.808472 24.772621
31.408892 66.19046 25.782341
31.632082 62.177799 27.046124
31.215698 63.800949 28.945726
31.033939 61.022903 32.072838
30.184278 62.665504 36.47633
26.27285 95.796043 12.830091
27.254551 93.23661 14.651082
27.27747 90.804192 18.418861
27.08707 88.373764 22.274601
26.916876 85.727203 25.917362
25.821466 85.850945 27.563906
26.707436 82.991058 29.360683
26.497929 80.118752 32.621994
26.162823 77.07267 35.90287
31.295498 80.136314 12.838277
31.821188 58.395523 27.964907
31.993425 54.408241 28.768351
27.053429 69.128079 41.148557
27.62719 69.169407 40.171556
27.213644 70.712677 39.62426
24.440004 93.319927 19.663806
24.489632 94.567077 17.80793
24.339786 92.015396 21.585175
25.013621 92.19273 20.639094
24.440004 93.319927 19.663806
32.9921 48.968836 25.451556
32.740683 49.75647 26.385773
31.319923 55.204139 33.133862
31.145734 55.736131 34.251614
28.668078 65.66815 40.389814
28.255107 65.720531 41.444563
31.919401 71.684658 17.562308
32.061249 69.861939 18.276649
33.073063 62.069177 18.246193
32.942721 64.078539 17.553871
32.774175 63.202561 19.059082
33.217912 60.105903 18.85204
33.073063 62.069177 18.246193
33.023701 59.197902 20.34816
33.337095 58.110607 19.448795
33.217912 60.105903 18.85204
30.734226 60.018576 34.735676
30.947975 59.534418 33.582846
30.82019 61.507061 33.225668
29.89969 63.070158 37.598087
29.996634 64.629146 35.994978
29.712045 65.0338 37.116736
25.648021 84.372151 29.351036
25.164762 85.70612 28.390651
24.991317 84.227326 30.177781
25.474436 76.806637 36.795164
25.701899 78.448262 35.138893
25.013512 78.182229 36.031187
25.97402 75.486035 37.467678
25.474436 76.806637 36.795164
29.627748 87.387592 13.83641
29.315785 89.06908 12.869948
29.289085 87.955421 14.810916
33.680237 51.897493 21.24006
33.903951 52.833179 19.761405
33.579923 53.975103 20.617037
31.873246 53.022703 30.147606
31.803475 55.033929 29.774676
31.683296 53.648392 31.153931
32.069634 52.329309 29.118505
31.873246 53.022703 30.147606
27.922413 67.498497 40.808534
28.082628 69.083096 39.284237
27.62719 69.169407 40.171556
28.255107 65.720531 41.444563
27.922413 67.498497 40.808534
32.215015 67.861344 18.908862
32.061249 69.861939 18.276649
31.939781 68.768692 19.94644
32.36869 65.990009 19.472707
32.490158 67.083256 17.802915
32.215015 67.861344 18.908862
24.502366 95.782868 15.874733
24.559263 96.855294 14.030569
25.126573 94.713051 16.784529
24.502366 95.782868 15.874733
24.489632 94.567077 17.80793
24.780786 82.628406 31.963349
24.991317 84.227326 30.177781
24.663985 81.093655 33.581724
25.357776 81.358604 32.756541
24.780786 82.628406 31.963349
24.516628 79.457806 35.202078
24.663985 81.093655 33.581724
25.013512 78.182229 36.031187
24.516628 79.457806 35.202078
30.187306 84.197147 15.156043
29.914118 85.806545 14.512629
29.874236 84.664535 16.420791
30.484537 83.506481 14.065817
30.187306 84.197147 15.156043
30.444655 82.364472 15.97398
30.806415 82.640057 13.040887
30.484537 83.506481 14.065817
31.782214 77.514759 12.448269
31.967112 75.617809 13.333784
33.215736 49.931736 24.130359
33.433229 50.972494 22.656932
33.138716 51.998659 23.569119
33.215736 49.931736 24.130359
32.9921 48.968836 25.451556
31.506193 54.45743 32.131963
31.427255 56.406328 31.782899
31.319923 55.204139 33.133862
31.683296 53.648392 31.153931
31.506193 54.45743 32.131963
29.403156 65.265898 38.21801
29.712045 65.0338 37.116736
29.5001 66.824886 36.614901
29.074758 65.490549 39.287295
28.784531 67.234585 38.818695
28.668078 65.66815 40.389814
29.403156 65.265898 38.21801
29.074758 65.490549 39.287295
31.785621 73.452309 16.83607
31.652234 72.536937 18.587989
31.919401 71.684658 17.562308
31.863351 74.60144 15.061663
31.596184 75.45372 16.087344
31.785621 73.452309 16.83607
31.967112 75.617809 13.333784
31.863351 74.60144 15.061663
32.800745 66.010197 16.833227
32.490158 67.083256 17.802915
32.800745 66.010197 16.833227
32.942721 64.078539 17.553871
33.47326 56.056697 20.041649
33.337095 58.110607 19.448795
33.249546 55.121012 21.520304
33.579923 53.975103 20.617037
33.47326 56.056697 20.041649
32.497347 50.619251 27.295471
32.740683 49.75647 26.385773
32.677887 51.820683 25.952246
28.578372 89.990677 15.02807
28.579034 91.103839 13.158095
28.180286 91.457607 14.341711
31.051497 57.599486 33.938826
31.137462 59.08797 32.428818
30.947975 59.534418 33.582846
31.145734 55.736131 34.251614
31.051497 57.599486 33.938826
30.095538 61.269781 37.91844
29.89969 63.070158 37.598087
30.321849 60.805934 36.896459
30.095538 61.269781 37.91844
30.53293 60.468792 35.847544
30.395359 62.328361 35.427414
30.321849 60.805934 36.896459
30.734226 60.018576 34.735676
30.53293 60.468792 35.847544
25.182795 96.952988 12.904879
24.559263 96.855294 14.030569
25.749567 96.886589 11.894258
25.182795 96.952988 12.904879
25.706078 95.862442 13.840712
26.326144 96.679619 10.945181
25.749567 96.886589 11.894258
26.82419 95.472606 11.802684
26.326144 96.679619 10.945181
27.315041 94.19289 12.71318
26.82419 95.472606 11.802684
26.7637 94.516326 13.740586
27.71775 92.90369 13.561409
27.315041 94.19289 12.71318
27.717087 91.790527 15.431383
28.180286 91.457607 14.341711
27.71775 92.90369 13.561409
24.178768 90.699222 23.396338
24.339786 92.015396 21.585175
24.793423 89.604851 24.264789
24.178768 90.699222 23.396338
25.329717 88.4208 25.070988
25.449697 89.704148 23.366662
24.793423 89.604851 24.264789
25.247454 87.086224 26.76651
25.164762 85.70612 28.390651
25.903728 87.18552 25.868384
25.329717 88.4208 25.070988
25.247454 87.086224 26.76651
26.414699 73.929524 38.197252
26.603502 75.516159 36.632444
25.97402 75.486035 37.467678
26.21255 72.285374 39.816873
26.842032 72.315499 38.98164
26.414699 73.929524 38.197252
25.995126 70.588398 41.352608
26.21255 72.285374 39.816873
26.483526 69.035302 42.019138
25.995126 70.588398 41.352608
27.053429 69.128079 41.148557
26.483526 69.035302 42.019138
28.990716 90.667774 11.933575
28.579034 91.103839 13.158095
28.990716 90.667774 11.933575
29.315785 89.06908 12.869948
29.627748 87.387592 13.83641
29.914118 85.806545 14.512629
31.083222 81.871311 12.018148
30.806415 82.640057 13.040887
31.018692 80.905059 13.861016
31.593006 79.28149 11.71094
31.484706 78.369583 13.575606
31.782214 77.514759 12.448269
31.385242 81.023147 10.926987
31.593006 79.28149 11.71094
31.172966 82.758145 10.106858
31.083222 81.871311 12.018148
31.385242 81.023147 10.926987
33.680237 51.897493 21.24006
33.433229 50.972494 22.656932
32.290197 51.466921 28.165301
32.213988 53.545852 27.815148
32.069634 52.329309 29.118505
32.497347 50.619251 27.295471
32.290197 51.466921 28.165301
3 0 25 23
3 0 94 96
3 96 95 25
3 94 95 96
3 1 29 27
3 1 31 29
3 1 33 31
3 2 36 34
3 4 39 37
3 4 41 39
3 4 43 41
3 97 45 98
3 99 47 100
3 101 100 45
3 99 100 101
3 3 50 49
3 103 102 51
3 105 104 52
3 5 56 54
3 7 57 24
3 7 58 57
3 7 60 58
3 107 106 26
3 8 63 61
3 109 108 28
3 10 110 112
3 112 111 30
3 110 111 112
3 10 113 114
3 10 115 117
3 115 64 116
3 115 116 117
3 12 65 32
3 12 66 65
3 13 69 67
3 15 70 35
3 15 71 70
3 6 72 55
3 16 73 38
3 16 74 73
3 16 75 74
3 17 76 40
3 17 77 76
3 17 79 77
3 19 80 42
3 19 118 120
3 120 119 80
3 118 119 120
3 121 81 122
3 123 122 59
3 121 122 123
3 20 82 44
3 20 83 82
3 20 84 83
3 21 85 46
3 21 86 85
3 22 124 126
3 124 87 125
3 124 125 126
3 22 88 87
3 22 89 88
3 127 90 128
3 129 128 48
3 127 128 129
3 131 130 90
3 14 132 134
3 134 133 68
3 132 133 134
3 9 91 62
3 11 135 137
3 135 136 137
3 18 92 78
3 138 93 139
3 140 139 53
3 138 139 140
3 142 141 93
3 23 24 5
3 25 24 23
3 25 7 24
3 25 26 7
3 143 26 144
3 145 144 25
3 143 144 145
3 147 146 26
3 27 28 8
3 29 28 27
3 29 148 150
3 150 149 28
3 148 149 150
3 29 151 153
3 151 30 152
3 151 152 153
3 31 30 29
3 31 10 30
3 31 32 10
3 33 32 31
3 33 12 32
3 34 35 13
3 36 35 34
3 36 15 35
3 37 38 6
3 39 38 37
3 39 16 38
3 39 40 16
3 41 40 39
3 41 17 40
3 41 42 17
3 43 42 41
3 43 19 42
3 154 44 155
3 45 156 158
3 156 44 157
3 156 157 158
3 45 20 44
3 45 46 20
3 47 46 45
3 47 21 46
3 159 22 160
3 161 48 162
3 163 162 22
3 161 162 163
3 164 48 165
3 167 166 48
3 49 168 170
3 170 169 14
3 168 169 170
3 50 171 173
3 173 172 49
3 171 172 173
3 50 174 175
3 177 176 9
3 51 178 180
3 180 179 11
3 178 179 180
3 182 181 51
3 52 53 18
3 183 53 184
3 185 184 52
3 183 184 185
3 187 186 53
3 54 55 2
3 56 55 54
3 56 6 55
3 24 56 5
3 57 56 24
3 57 6 56
3 57 37 6
3 58 37 57
3 58 4 37
3 58 59 4
3 60 59 58
3 60 188 190
3 190 189 59
3 188 189 190
3 26 60 7
3 191 60 192
3 193 192 26
3 191 192 193
3 195 194 60
3 61 62 3
3 63 62 61
3 63 9 62
3 28 63 8
3 196 63 197
3 198 197 28
3 196 197 198
3 199 9 200
3 201 200 63
3 199 200 201
3 203 202 9
3 30 204 205
3 207 206 30
3 64 208 209
3 64 210 212
3 210 11 211
3 210 211 212
3 32 64 10
3 65 64 32
3 65 11 64
3 65 51 11
3 66 51 65
3 66 213 215
3 215 214 51
3 213 214 215
3 67 216 218
3 216 68 217
3 216 217 218
3 69 68 67
3 69 14 68
3 35 69 13
3 70 69 35
3 70 14 69
3 70 49 14
3 71 49 70
3 71 3 49
3 55 36 2
3 72 36 55
3 72 15 36
3 38 72 6
3 73 72 38
3 73 15 72
3 73 71 15
3 74 71 73
3 74 3 71
3 74 61 3
3 75 61 74
3 75 8 61
3 40 75 16
3 76 75 40
3 76 8 75
3 76 27 8
3 77 27 76
3 77 1 27
3 77 78 1
3 79 78 77
3 79 18 78
3 42 79 17
3 80 79 42
3 80 18 79
3 80 52 18
3 219 52 220
3 221 220 80
3 219 220 221
3 223 222 52
3 59 43 4
3 81 43 59
3 81 19 43
3 224 81 225
3 226 81 227
3 228 19 229
3 230 229 81
3 228 229 230
3 232 231 19
3 44 233 234
3 82 235 237
3 237 236 44
3 235 236 237
3 82 238 239
3 82 240 241
3 83 242 244
3 244 243 82
3 242 243 244
3 83 245 246
3 83 247 249
3 247 67 248
3 247 248 249
3 84 67 83
3 84 13 67
3 46 84 20
3 85 84 46
3 85 13 84
3 85 34 13
3 86 34 85
3 86 2 34
3 250 47 251
3 252 47 253
3 254 21 255
3 256 255 47
3 254 255 256
3 87 257 258
3 87 259 261
3 259 21 260
3 259 260 261
3 87 86 21
3 88 86 87
3 88 2 86
3 88 54 2
3 89 54 88
3 89 5 54
3 48 89 22
3 90 89 48
3 90 5 89
3 90 23 5
3 262 23 263
3 264 263 90
3 262 263 264
3 265 0 266
3 267 266 23
3 265 266 267
3 268 0 269
3 270 0 271
3 273 272 0
3 68 274 275
3 277 276 68
3 279 278 14
3 62 50 3
3 91 50 62
3 91 280 282
3 282 281 50
3 280 281 282
3 283 91 284
3 285 284 9
3 283 284 285
3 286 91 287
3 290 289 91
3 288 289 290
3 292 291 11
3 78 33 1
3 92 33 78
3 92 12 33
3 53 92 18
3 93 92 53
3 93 12 92
3 93 66 12
3 293 66 294
3 295 294 93
3 293 294 295
3 297 296 66
