ply
format ascii 1.0
element vertex 181
property float x
property float y
property float z
element face 172
property list uchar int vertex_index
end_header
21.813738 63.687004 -16.440695
25.823698 54.93568 -2.441801
24.743767 59.897377 -9.635037
25.855656 47.091255 -7.729711
25.505648 57.589821 -6.076673
25.29887 53.709343 -8.520334
26.376532 51.378014 -5.463036
22.793184 68.1567 -15.019608
23.444799 62.07901 -13.172264
23.931454 66.326996 -11.21015
24.578157 63.837189 -7.104511
23.84799 55.637146 -11.456809
24.129107 49.017929 -10.119138
22.015499 60.7728 -15.353154
25.733603 56.20327 -4.331831
25.933788 54.456272 -5.802798
26.215628 53.331757 -4.092022
23.431639 67.295532 -13.10251
24.706625 62.312469 -5.007114
24.170631 61.02132 -11.371693
23.6609 58.803326 -12.277047
24.405993 57.766575 -10.653813
25.624657 50.511749 -7.989911
24.853962 51.222992 -9.371945
25.034159 48.063473 -8.920063
25.20896 44.752117 -8.517473
25.170849 58.918949 -7.917707
25.017904 56.92128 -9.05599
25.541145 55.70171 -7.372662
25.88072 52.512695 -7.047668
26.251516 49.322342 -6.706703
22.408735 65.903801 -15.823695
22.671997 63.033802 -14.824418
23.14957 65.354378 -14.131769
23.832544 64.105309 -12.270168
24.377455 63.223869 -10.375321
23.816147 68.023674 -9.889353
24.358086 64.941948 -9.179673
24.786156 61.96793 -8.530132
25.068977 60.671001 -6.629877
25.217356 59.31554 -4.6238
25.280773 57.793556 -2.707179
22.84177 59.913532 -13.880247
22.976723 56.695415 -12.957232
23.104712 53.379608 -12.06764
24.643721 54.490063 -9.946038
24.046196 52.396137 -10.687588
21.914618 62.229902 -15.896925
21.570281 60.987392 -16.045189
21.4694 62.444494 -16.588959
21.380311 63.988414 -17.204777
21.706637 65.183571 -16.976669
21.4694 62.444494 -16.588959
21.380311 63.988414 -17.204777
23.639277 68.792 -9.20565
23.473014 69.587128 -10.296848
24.468122 64.389568 -8.142092
24.212768 65.807148 -8.441558
24.322804 65.254768 -7.403977
24.967712 60.0592 -3.82812
24.96199 60.814004 -4.815457
24.712346 61.557665 -4.019777
24.99942 59.298208 -2.869809
25.249064 58.554548 -3.66549
24.967712 60.0592 -3.82812
22.402763 68.540245 -15.992566
22.524311 69.677295 -15.554458
22.60096 67.03025 -15.421651
22.210538 67.413795 -16.39461
22.402763 68.540245 -15.992566
23.665275 49.618105 -10.719181
23.623819 51.307209 -11.003405
24.087651 50.707033 -10.403363
23.713227 47.898825 -10.361626
23.665275 49.618105 -10.719181
21.61799 59.458906 -15.490613
21.570281 60.987392 -16.045189
22.058228 59.185857 -14.856272
21.61799 59.458906 -15.490613
23.164525 68.760006 -13.610062
23.112412 67.726116 -14.061059
22.845298 69.19059 -14.568611
23.418502 68.308754 -12.56148
23.164525 68.760006 -13.610062
23.668409 67.824486 -11.6153
23.681546 66.811264 -12.15633
23.418502 68.308754 -12.56148
24.355951 64.62574 -6.327547
24.322804 65.254768 -7.403977
24.420185 63.86338 -5.278849
24.642391 63.074829 -6.055813
24.355951 64.62574 -6.327547
24.41386 63.100572 -4.238733
24.420185 63.86338 -5.278849
24.712346 61.557665 -4.019777
24.41386 63.100572 -4.238733
22.845298 69.19059 -14.568611
22.524311 69.677295 -15.554458
24.661443 46.894132 -9.230402
24.208917 47.371361 -9.82994
24.581633 48.540701 -9.5196
24.748843 45.238455 -9.029107
24.661443 46.894132 -9.230402
25.12156 46.407795 -8.718768
24.831853 43.511831 -8.762783
24.748843 45.238455 -9.029107
26.134709 53.407022 -2.448948
25.865455 54.143827 -1.594573
23.610756 68.672825 -10.954902
23.473014 69.587128 -10.296848
23.873801 67.175335 -10.549751
23.668409 67.824486 -11.6153
23.610756 68.672825 -10.954902
23.941799 67.348011 -8.796398
23.639277 68.792 -9.20565
24.087117 66.482811 -9.534513
23.941799 67.348011 -8.796398
24.212768 65.807148 -8.441558
24.930419 58.641518 -1.872823
24.99942 59.298208 -2.869809
25.241145 57.13434 -1.734406
24.930419 58.641518 -1.872823
25.512608 55.705402 -1.601716
25.552236 56.364618 -2.57449
25.241145 57.13434 -1.734406
25.865455 54.143827 -1.594573
25.512608 55.705402 -1.601716
22.004135 66.291969 -16.66817
21.805938 67.801964 -17.239085
22.210538 67.413795 -16.39461
22.111237 64.795402 -16.132195
21.706637 65.183571 -16.976669
22.004135 66.291969 -16.66817
22.471363 58.756223 -14.119819
22.058228 59.185857 -14.856272
22.428635 60.343166 -14.616701
22.53884 57.147165 -13.658311
22.471363 58.756223 -14.119819
22.909247 58.304474 -13.41874
22.570597 55.40435 -13.146033
22.53884 57.147165 -13.658311
22.634591 53.746446 -12.701237
22.570597 55.40435 -13.146033
23.040717 55.037511 -12.512436
22.642569 52.067083 -12.262646
22.634591 53.746446 -12.701237
23.153078 51.798944 -11.693431
23.575454 52.887873 -11.377614
23.623819 51.307209 -11.003405
22.642569 52.067083 -12.262646
23.153078 51.798944 -11.693431
23.713227 47.898825 -10.361626
24.208917 47.371361 -9.82994
26.330675 52.605061 -3.274058
26.019663 54.133719 -3.266911
26.134709 53.407022 -2.448948
26.490897 51.763386 -3.954551
26.330675 52.605061 -3.274058
26.57135 50.786514 -4.640059
26.29608 52.354886 -4.777529
26.490897 51.763386 -3.954551
26.607681 49.816364 -5.356532
26.57135 50.786514 -4.640059
26.545173 48.788528 -5.978365
26.314024 50.350178 -6.084869
26.607681 49.816364 -5.356532
26.452501 47.782999 -6.539433
26.545173 48.788528 -5.978365
26.254571 46.667456 -7.050937
26.053586 48.206798 -7.218207
26.452501 47.782999 -6.539433
26.008346 45.483707 -7.551455
26.254571 46.667456 -7.050937
25.684998 44.314138 -7.945336
25.532308 45.921686 -8.123592
26.008346 45.483707 -7.551455
25.340542 43.148016 -8.29625
25.684998 44.314138 -7.945336
25.81658 42.710037 -7.724113
24.831853 43.511831 -8.762783
25.340542 43.148016 -8.29625
3 0 47 49
3 47 13 48
3 47 48 49
3 0 50 51
3 0 52 53
3 1 16 14
3 2 21 19
3 3 24 22
3 3 25 24
3 4 28 26
3 6 29 15
3 6 30 29
3 7 33 31
3 9 34 17
3 9 35 34
3 54 36 55
3 10 56 58
3 56 37 57
3 56 57 58
3 10 38 37
3 10 39 38
3 59 40 60
3 61 60 18
3 59 60 61
3 62 41 63
3 64 63 40
3 62 63 64
3 7 65 66
3 7 67 69
3 67 31 68
3 67 68 69
3 8 42 32
3 11 43 20
3 11 44 43
3 5 45 27
3 12 46 23
3 12 70 72
3 72 71 46
3 70 71 72
3 12 73 74
3 13 75 76
3 13 77 78
3 14 15 4
3 16 15 14
3 16 6 15
3 79 17 80
3 81 80 7
3 79 80 81
3 82 17 83
3 84 9 85
3 86 85 17
3 84 85 86
3 87 10 88
3 89 18 90
3 91 90 10
3 89 90 91
3 92 18 93
3 95 94 18
3 96 7 97
3 19 20 8
3 21 20 19
3 21 11 20
3 22 23 5
3 24 23 22
3 24 12 23
3 24 98 100
3 100 99 12
3 98 99 100
3 25 101 103
3 103 102 24
3 101 102 103
3 25 104 105
3 26 27 2
3 28 27 26
3 28 5 27
3 15 28 4
3 29 28 15
3 29 5 28
3 29 22 5
3 30 22 29
3 30 3 22
3 107 106 1
3 31 32 0
3 33 32 31
3 33 8 32
3 17 33 7
3 34 33 17
3 34 8 33
3 34 19 8
3 35 19 34
3 35 2 19
3 36 108 109
3 36 110 112
3 110 9 111
3 110 111 112
3 113 36 114
3 37 115 117
3 115 36 116
3 115 116 117
3 37 9 36
3 37 35 9
3 38 35 37
3 38 2 35
3 38 26 2
3 39 26 38
3 39 4 26
3 18 39 10
3 40 39 18
3 40 4 39
3 40 14 4
3 41 14 40
3 41 1 14
3 118 41 119
3 120 41 121
3 122 1 123
3 124 123 41
3 122 123 124
3 126 125 1
3 31 127 129
3 127 128 129
3 31 130 132
3 130 0 131
3 130 131 132
3 32 13 0
3 42 13 32
3 42 133 135
3 135 134 13
3 133 134 135
3 20 42 8
3 43 42 20
3 43 136 138
3 138 137 42
3 136 137 138
3 43 139 140
3 44 141 143
3 143 142 43
3 141 142 143
3 44 144 145
3 27 21 2
3 45 21 27
3 45 11 21
3 23 45 5
3 46 45 23
3 46 11 45
3 46 44 11
3 146 44 147
3 148 147 46
3 146 147 148
3 150 149 44
3 152 151 12
3 153 16 154
3 155 154 1
3 153 154 155
3 156 16 157
3 158 6 159
3 160 159 16
3 158 159 160
3 161 6 162
3 163 30 164
3 165 164 6
3 163 164 165
3 166 30 167
3 168 3 169
3 170 169 30
3 168 169 170
3 171 3 172
3 173 25 174
3 175 174 3
3 173 174 175
3 176 25 177
3 176 177 178
3 180 179 25
