ply
format ascii 1.0
element vertex 332
property float x
property float y
property float z
element face 357
property list uchar int vertex_index
end_header
-30.713982 0.982061 37.034676
-29.596855 -14.227453 37.956196
-30.513762 -25.0196 31.954317
-31.574341 -10.805531 31.172953
-31.746517 17.371428 35.794411
-33.031971 5.460977 30.197823
-30.097269 -6.612409 37.61253
-30.421453 -12.334865 34.47332
-31.062031 -4.783832 34.048012
-34.581547 7.238447 26.394041
-33.881847 -0.840453 27.112886
-35.50106 0.74876 23.321304
-29.273319 -21.267891 38.448116
-29.664133 -26.236601 35.603863
-29.926613 -19.667223 34.93911
-30.978519 -18.118658 31.488857
-32.317379 -16.71244 27.966585
-31.25313 9.058376 36.724728
-31.724203 3.075271 33.616119
-32.305763 11.24941 32.994881
-33.61861 13.569678 29.25742
-35.156616 15.878875 25.115519
-29.588991 -8.808709 41.092407
-30.072046 -1.135258 40.6717
-30.258711 4.586345 44.094128
-30.584408 6.844875 40.238327
-32.339787 -2.895125 30.671637
-33.06601 -9.267693 27.609165
-30.39678 -2.917398 37.327747
-30.508774 -5.824322 35.850018
-30.856787 -1.848989 35.557312
-35.402538 7.960333 24.353237
-35.094261 4.144715 24.786983
-35.959099 4.940047 22.644814
-29.401003 -17.77352 38.23608
-29.545897 -20.319984 36.715271
-29.73262 -16.914436 36.387444
-30.959475 -11.729503 32.785595
-30.648157 -15.450468 33.027782
-31.25605 -14.465955 31.354948
-31.62397 -17.615129 29.687527
-31.953028 -13.798199 29.555073
-31.536505 13.148685 36.20414
-31.748755 10.124889 34.817223
-31.984037 14.237522 34.45472
-33.182995 16.678503 30.558676
-33.821568 17.732832 28.689884
-34.382908 14.681535 27.205223
-34.598923 18.684998 26.48266
-29.682396 -6.202343 42.734592
-29.818626 -5.094357 40.828728
-29.895786 -2.477667 42.525105
-30.370331 5.658574 42.149143
-30.605324 10.003095 41.822029
-30.826298 10.948667 39.908375
-30.061857 -25.877007 33.684944
-30.358683 -28.479147 32.176743
-32.349209 4.462821 31.945576
-32.03685 0.095722 32.082966
-32.719318 1.282753 30.41268
-34.311035 -4.294697 25.486008
-33.491322 -5.130487 27.339708
-33.891941 -8.452744 25.733202
-29.84289 -10.533196 37.665501
-29.954807 -13.146448 36.23465
-30.230482 -9.493038 35.982117
-30.714348 -8.684348 34.288712
-31.269323 -7.92677 32.65506
-32.225174 18.449554 33.822376
-31.073849 -24.502691 30.053064
-33.802521 6.377413 28.292767
-33.464645 2.348757 28.648386
-34.312912 3.144311 26.624941
-34.733311 -0.145039 25.118982
-29.195717 -24.408371 38.864079
-29.367214 -27.179495 37.516987
-29.437077 -23.777782 37.000111
-29.776751 -23.196823 35.176216
-30.187084 -22.253435 33.52813
-30.154049 -16.007582 34.684338
-30.412281 -18.932402 33.183788
-30.710302 -21.595123 31.752584
-31.323296 -21.13204 29.881159
-31.992298 -20.478748 28.037792
-30.997379 5.054575 36.900528
-31.178507 2.142331 35.340202
-31.465117 6.247111 35.179447
-32.029522 7.25785 33.363129
-32.677113 8.495512 31.545563
-32.550957 15.409631 32.511745
-32.94318 12.717268 31.139961
-33.333179 9.489513 29.813833
-34.132011 10.58772 27.770657
-34.923599 11.390144 25.748039
-35.364052 20.143208 24.256754
-29.091419 -21.985281 40.387032
-29.201645 -18.578457 39.96666
-29.364826 -15.078013 39.65427
-29.386692 -12.492611 41.344952
-29.562145 -11.333798 39.542507
-29.783581 -7.920458 39.284187
-30.044374 -4.100393 39.082912
-30.343832 -0.096722 38.782616
-30.139494 1.658584 42.369682
-30.331215 2.824472 40.466877
-30.635956 4.013829 38.557949
-30.894884 8.135766 38.406925
-31.142513 12.218417 38.093201
-31.407162 -0.915004 33.805126
-31.671911 -4.034406 32.304489
-31.959408 -6.992752 30.885399
-33.077763 -2.083049 28.907782
-32.70652 -5.990943 29.131945
-32.300385 -10.070514 29.383553
-32.734581 -13.222408 27.632624
-36.098289 7.03733 22.434802
-35.680819 6.45019 23.499026
-35.820009 8.547473 23.289014
-33.916153 19.787514 28.293194
-33.576212 19.258983 29.35019
-34.304831 20.263597 27.189581
-34.210245 18.208915 27.586272
-33.916153 19.787514 28.293194
-29.760175 -4.842167 43.578371
-29.665648 -6.707859 43.630487
-29.86687 -2.979828 43.473628
-29.789091 -4.340005 42.629849
-29.760175 -4.842167 43.578371
-30.619991 11.405579 42.640669
-30.530203 9.306652 42.758898
-30.700786 11.987819 41.669759
-30.619991 11.405579 42.640669
-34.308628 -8.011918 24.786788
-34.101488 -6.37372 25.609605
-34.518175 -5.932894 24.663191
-34.095659 -10.071369 24.869528
-34.308628 -8.011918 24.786788
-31.205968 -26.088155 29.279096
-31.351169 -24.339022 29.181646
-35.337711 -1.353602 23.407815
-34.953837 -1.800501 24.306654
-35.117186 0.30186 24.220143
-32.50293 -18.180061 27.118458
-32.340389 -20.063215 27.154062
-32.154839 -18.595594 28.002188
-32.654662 17.554818 32.204473
-32.388065 16.929592 33.16706
-32.49177 19.07478 32.859789
-35.415869 14.097365 24.4585
-35.29936 11.852999 24.77476
-35.040108 13.63451 25.431779
-35.413568 22.240568 23.834395
-35.057043 21.521348 24.956111
-29.053137 -22.400973 41.358969
-29.070694 -23.713121 40.605114
-29.210535 -17.306835 40.778252
-29.144662 -19.072593 40.920271
-29.292126 -15.556612 40.622057
-29.283235 -16.828235 39.810465
-29.210535 -17.306835 40.778252
-29.487842 -10.65066 41.21868
-29.434456 -11.258092 42.137083
-29.535606 -9.416141 42.010811
-30.238846 3.940221 45.074913
-30.324011 6.014852 44.953806
-30.152793 2.531182 44.122597
-30.238846 3.940221 45.074913
-30.199103 3.122464 43.231905
-30.093184 1.067302 43.260374
-30.152793 2.531182 44.122597
-31.086281 13.621148 38.852868
-30.984406 11.583542 39.000788
-30.928173 12.986273 39.760454
-31.238399 14.131649 37.934622
-31.086281 13.621148 38.852868
-29.640628 -27.8137 35.773083
-29.492168 -28.285148 36.729645
-29.515673 -26.708048 36.560425
-33.256925 18.731819 30.284586
-32.970681 18.189254 31.227939
-33.502281 17.205667 29.62428
-33.256925 18.731819 30.284586
-33.576212 19.258983 29.35019
-29.582308 -8.112958 42.831903
-29.665648 -6.707859 43.630487
-29.635694 -7.505526 41.9135
-29.535606 -9.416141 42.010811
-29.582308 -8.112958 42.831903
-30.356897 6.598276 43.894947
-30.324011 6.014852 44.953806
-30.412706 7.134391 42.922455
-30.314521 5.122459 43.121635
-30.356897 6.598276 43.894947
-30.487828 7.830834 41.985586
-30.412706 7.134391 42.922455
-30.530203 9.306652 42.758898
-30.811273 12.460605 40.712933
-30.715811 10.475881 40.865202
-30.700786 11.987819 41.669759
-30.928173 12.986273 39.760454
-30.811273 12.460605 40.712933
-30.000426 -27.502612 33.892032
-29.801564 -27.682409 34.851492
-29.862995 -26.056804 34.644403
-30.148839 -28.803681 33.137932
-30.000426 -27.502612 33.892032
-30.21027 -27.178077 32.930844
-30.298142 -30.009443 32.354819
-30.148839 -28.803681 33.137932
-33.695591 -10.42654 25.802775
-33.282625 -10.834014 26.740757
-33.478976 -8.860218 26.671183
-33.695591 -10.42654 25.802775
-34.095659 -10.071369 24.869528
-32.07562 19.979307 34.520938
-31.985846 17.910491 34.808393
-31.836291 19.440244 35.506956
-32.304146 20.502556 33.530363
-32.07562 19.979307 34.520938
-32.49177 19.07478 32.859789
-32.304146 20.502556 33.530363
-30.954399 -26.183109 30.190124
-30.674356 -26.441564 31.140751
-30.793805 -24.761145 31.00369
-30.954399 -26.183109 30.190124
-31.205968 -26.088155 29.279096
-34.742699 -3.87533 24.490167
-34.522173 -2.219868 25.302495
-34.953837 -1.800501 24.306654
-34.518175 -5.932894 24.663191
-34.742699 -3.87533 24.490167
-29.281465 -25.793933 38.190533
-29.274261 -27.488416 38.409834
-29.188512 -26.102854 39.08338
-31.475893 -22.653697 29.095693
-31.351169 -24.339022 29.181646
-31.198572 -22.817366 29.967112
-31.810393 -22.327051 28.17401
-31.475893 -22.653697 29.095693
-31.657797 -20.805394 28.959475
-32.135716 -21.887784 27.276008
-31.810393 -22.327051 28.17401
-32.135716 -21.887784 27.276008
-32.340389 -20.063215 27.154062
-32.866976 16.044067 31.53521
-32.654662 17.554818 32.204473
-32.970681 18.189254 31.227939
-35.538829 10.138094 24.077359
-35.163069 9.675238 25.050638
-35.29936 11.852999 24.77476
-35.820009 8.547473 23.289014
-35.538829 10.138094 24.077359
-34.674478 20.792243 26.069064
-34.304831 20.263597 27.189581
-34.981488 19.414103 25.369707
-34.674478 20.792243 26.069064
-35.057043 21.521348 24.956111
-35.729822 20.628811 23.176426
-35.413568 22.240568 23.834395
-35.635359 18.421869 23.65505
-35.729822 20.628811 23.176426
-35.531641 16.289702 24.084432
-35.260334 18.011042 24.686136
-35.635359 18.421869 23.65505
-35.415869 14.097365 24.4585
-35.531641 16.289702 24.084432
-29.122843 -24.924667 39.843637
-29.188512 -26.102854 39.08338
-29.143568 -23.196826 39.625555
-29.122843 -24.924667 39.843637
-29.070694 -23.713121 40.605114
-29.089549 -20.776005 41.130457
-29.053137 -22.400973 41.358969
-29.146532 -20.281869 40.176846
-29.089549 -20.776005 41.130457
-29.144662 -19.072593 40.920271
-29.355525 -12.940236 42.327135
-29.434456 -11.258092 42.137083
-29.303058 -14.263912 41.467398
-29.355525 -12.940236 42.327135
-29.375759 -13.785312 40.499611
-29.292126 -15.556612 40.622057
-29.303058 -14.263912 41.467398
-29.971331 -1.000823 43.338086
-29.86687 -2.979828 43.473628
-30.01764 -0.409541 42.447394
-29.971331 -1.000823 43.338086
-30.093184 1.067302 43.260374
-31.435395 14.596782 36.990092
-31.339509 12.683551 37.148671
-31.238399 14.131649 37.934622
-31.540402 16.708154 36.785227
-31.641511 15.260057 35.999275
-31.435395 14.596782 36.990092
-31.646977 18.759109 36.453176
-31.540402 16.708154 36.785227
-31.836291 19.440244 35.506956
-31.646977 18.759109 36.453176
-29.373551 -28.713328 37.67427
-29.274261 -27.488416 38.409834
-29.373551 -28.713328 37.67427
-29.492168 -28.285148 36.729645
-29.640628 -27.8137 35.773083
-29.801564 -27.682409 34.851492
-30.596816 -28.171337 31.251964
-30.436222 -26.749374 32.06553
-30.674356 -26.441564 31.140751
-30.493191 -29.783613 31.444806
-30.596816 -28.171337 31.251964
-30.298142 -30.009443 32.354819
-30.493191 -29.783613 31.444806
-33.116911 -12.811372 26.752486
-32.900295 -11.24505 27.620894
-33.282625 -10.834014 26.740757
-32.895271 -14.745541 26.87211
-33.116911 -12.811372 26.752486
-32.686671 -16.490557 27.039091
-32.52598 -14.967424 27.799605
-32.895271 -14.745541 26.87211
-32.50293 -18.180061 27.118458
-32.686671 -16.490557 27.039091
-36.327303 5.31928 21.684209
-36.098289 7.03733 22.434802
-36.150191 3.081087 21.9142
-36.327303 5.31928 21.684209
-35.921171 0.985443 22.252445
-35.73008 2.844403 22.983059
-36.150191 3.081087 21.9142
-35.743212 -0.908766 22.434764
-35.921171 0.985443 22.252445
-35.337711 -1.353602 23.407815
-35.743212 -0.908766 22.434764
3 0 30 28
3 115 33 116
3 117 116 31
3 115 116 117
3 1 36 34
3 3 39 37
3 3 41 39
3 4 44 42
3 118 46 119
3 120 48 121
3 122 121 46
3 120 121 122
3 123 49 124
3 125 51 126
3 127 126 49
3 125 126 127
3 128 53 129
3 131 130 53
3 2 56 55
3 5 59 57
3 132 62 133
3 134 133 60
3 132 133 134
3 136 135 62
3 6 65 63
3 8 66 29
3 8 67 66
3 138 137 69
3 9 72 70
3 11 73 32
3 11 139 141
3 141 140 73
3 139 140 141
3 12 76 74
3 14 77 35
3 14 78 77
3 7 79 64
3 15 80 38
3 15 81 80
3 15 82 81
3 16 83 40
3 16 142 144
3 144 143 83
3 142 143 144
3 17 86 84
3 19 87 43
3 19 88 87
3 145 89 146
3 147 146 68
3 145 146 147
3 20 90 45
3 20 91 90
3 20 92 91
3 21 93 47
3 21 148 150
3 150 149 93
3 148 149 150
3 151 94 152
3 153 95 154
3 155 96 156
3 157 97 158
3 159 158 96
3 157 158 159
3 22 160 162
3 160 98 161
3 160 161 162
3 22 99 98
3 22 100 99
3 23 101 50
3 23 102 101
3 24 163 164
3 24 165 166
3 24 167 169
3 167 103 168
3 167 168 169
3 25 104 52
3 25 105 104
3 25 106 105
3 170 107 171
3 172 171 54
3 170 171 172
3 174 173 107
3 13 175 177
3 177 176 75
3 175 176 177
3 18 108 85
3 26 109 58
3 26 110 109
3 10 111 71
3 27 112 61
3 27 113 112
3 27 114 113
3 28 29 6
3 30 29 28
3 30 8 29
3 31 32 9
3 33 32 31
3 33 11 32
3 34 35 12
3 36 35 34
3 36 14 35
3 37 38 7
3 39 38 37
3 39 15 38
3 39 40 15
3 41 40 39
3 41 16 40
3 42 43 17
3 44 43 42
3 44 19 43
3 178 45 179
3 46 180 182
3 180 45 181
3 180 181 182
3 46 20 45
3 46 47 20
3 48 47 46
3 48 21 47
3 49 183 184
3 49 185 187
3 185 22 186
3 185 186 187
3 49 50 22
3 51 50 49
3 51 23 50
3 188 24 189
3 190 52 191
3 192 191 24
3 190 191 192
3 53 193 195
3 193 52 194
3 193 194 195
3 53 25 52
3 53 54 25
3 196 54 197
3 198 197 53
3 196 197 198
3 200 199 54
3 55 201 203
3 203 202 13
3 201 202 203
3 56 204 206
3 206 205 55
3 204 205 206
3 56 207 208
3 57 58 18
3 59 58 57
3 59 26 58
3 60 61 10
3 62 61 60
3 62 27 61
3 62 209 211
3 211 210 27
3 209 210 211
3 213 212 62
3 63 64 1
3 65 64 63
3 65 7 64
3 29 65 6
3 66 65 29
3 66 7 65
3 66 37 7
3 67 37 66
3 67 3 37
3 214 68 215
3 216 215 4
3 214 215 216
3 217 68 218
3 220 219 68
3 69 221 223
3 223 222 2
3 221 222 223
3 225 224 69
3 70 71 5
3 72 71 70
3 72 10 71
3 32 72 9
3 73 72 32
3 73 10 72
3 73 60 10
3 226 60 227
3 228 227 73
3 226 227 228
3 230 229 60
3 74 231 233
3 231 75 232
3 231 232 233
3 76 75 74
3 76 13 75
3 35 76 12
3 77 76 35
3 77 13 76
3 77 55 13
3 78 55 77
3 78 2 55
3 64 36 1
3 79 36 64
3 79 14 36
3 38 79 7
3 80 79 38
3 80 14 79
3 80 78 14
3 81 78 80
3 81 2 78
3 81 69 2
3 82 69 81
3 82 234 236
3 236 235 69
3 234 235 236
3 40 82 15
3 83 82 40
3 83 237 239
3 239 238 82
3 237 238 239
3 83 240 241
3 243 242 83
3 84 85 0
3 86 85 84
3 86 18 85
3 43 86 17
3 87 86 43
3 87 18 86
3 87 57 18
3 88 57 87
3 88 5 57
3 68 44 4
3 89 44 68
3 89 19 44
3 45 244 246
3 244 89 245
3 244 245 246
3 90 89 45
3 90 19 89
3 90 88 19
3 91 88 90
3 91 5 88
3 91 70 5
3 92 70 91
3 92 9 70
3 47 92 20
3 93 92 47
3 93 9 92
3 93 31 9
3 247 31 248
3 249 248 93
3 247 248 249
3 251 250 31
3 252 48 253
3 94 254 256
3 254 48 255
3 254 255 256
3 94 21 48
3 257 94 258
3 259 94 260
3 261 21 262
3 263 262 94
3 261 262 263
3 265 264 21
3 266 74 267
3 95 268 270
3 268 74 269
3 268 269 270
3 95 12 74
3 271 95 272
3 96 273 275
3 273 95 274
3 273 274 275
3 96 12 95
3 96 34 12
3 97 34 96
3 97 1 34
3 98 276 277
3 98 278 279
3 98 280 282
3 280 97 281
3 280 281 282
3 99 97 98
3 99 1 97
3 99 63 1
3 100 63 99
3 100 6 63
3 50 100 22
3 101 100 50
3 101 6 100
3 101 28 6
3 102 28 101
3 102 0 28
3 283 51 284
3 103 285 287
3 285 51 286
3 285 286 287
3 103 23 51
3 52 103 24
3 104 103 52
3 104 23 103
3 104 102 23
3 105 102 104
3 105 0 102
3 105 84 0
3 106 84 105
3 106 17 84
3 54 106 25
3 107 106 54
3 107 17 106
3 107 42 17
3 288 42 289
3 290 289 107
3 288 289 290
3 291 4 292
3 293 292 42
3 291 292 293
3 294 4 295
3 297 296 4
3 75 298 299
3 301 300 75
3 303 302 13
3 304 56 305
3 306 305 2
3 304 305 306
3 307 56 308
3 310 309 56
3 85 30 0
3 108 30 85
3 108 8 30
3 58 108 18
3 109 108 58
3 109 8 108
3 109 67 8
3 110 67 109
3 110 3 67
3 71 59 5
3 111 59 71
3 111 26 59
3 61 111 10
3 112 111 61
3 112 26 111
3 112 110 26
3 113 110 112
3 113 3 110
3 113 41 3
3 114 41 113
3 114 16 41
3 311 114 312
3 313 312 27
3 311 312 313
3 314 114 315
3 316 16 317
3 318 317 114
3 316 317 318
3 320 319 16
3 321 33 322
3 323 33 324
3 325 11 326
3 327 326 33
3 325 326 327
3 328 11 329
3 331 330 11
