ply
format ascii 1.0
element vertex 127
property float x
property float y
property float z
element face 94
property list uchar int vertex_index
end_header
0.444677 -7.06246 -56.196083
-0.987009 12.81214 -64.922813
-0.225295 3.019233 -61.22147
-0.766425 -1.947405 -60.218426
-1.609417 7.86278 -64.809166
0.082975 -1.91109 -58.832207
-0.147483 -4.460351 -58.221821
-0.336235 -7.159232 -57.480095
-1.181093 2.916857 -62.677231
-0.846448 5.499922 -63.036606
-0.544495 0.504323 -60.817207
-1.367032 10.378379 -65.057365
1.023195 -9.522343 -54.289791
0.932048 -12.001531 -53.636917
0.289281 -9.714567 -55.497681
0.148597 -5.761406 -57.208952
0.218068 -4.375015 -57.616964
0.514148 -5.67607 -56.604095
-1.471439 14.056942 -65.680988
-0.893183 14.103847 -64.905682
-1.580224 12.789189 -65.712112
-1.471439 14.056942 -65.680988
-1.54015 4.130035 -63.577659
-1.670253 2.767604 -63.292422
-1.109905 -0.79365 -61.17622
-0.99894 0.432214 -61.475611
-0.65546 -0.721541 -60.517817
-1.211342 -2.176333 -60.775547
-1.109905 -0.79365 -61.17622
-0.072833 4.287311 -61.398536
0.216251 3.145344 -60.514236
-1.074874 7.987293 -64.063195
-0.69339 6.805865 -63.176914
-1.227933 6.681351 -63.922886
-1.488225 9.120579 -64.933266
-0.953682 9.245093 -64.187294
-1.074874 7.987293 -64.063195
-2.036569 9.000647 -65.6185
-1.915376 10.258447 -65.7426
-1.488225 9.120579 -64.933266
1.34652 -10.604817 -53.366113
1.375938 -9.323063 -53.731006
0.594186 -12.294778 -54.104812
0.975691 -13.395879 -53.152715
0.272802 -11.151296 -55.035195
0.610664 -10.858049 -54.567299
0.594186 -12.294778 -54.104812
-0.087288 -9.865531 -56.048319
0.272802 -11.151296 -55.035195
0.333297 -3.100385 -57.922157
0.465479 -1.769419 -58.209654
-0.032254 -3.18572 -58.527014
0.333297 -3.100385 -57.922157
0.218068 -4.375015 -57.616964
-0.557698 -4.550227 -58.838223
-0.86717 -3.293754 -59.836525
-0.456954 -3.203878 -59.220123
-0.652075 -5.899667 -58.46736
-0.557698 -4.550227 -58.838223
-0.241859 -5.809792 -57.850958
-0.753758 -7.320881 -58.047753
-0.652075 -5.899667 -58.46736
-1.372828 5.421568 -63.757347
-1.01377 4.20839 -62.856918
-1.54015 4.130035 -63.577659
-1.754313 6.602996 -64.643627
-1.227933 6.681351 -63.922886
-1.372828 5.421568 -63.757347
-2.191911 7.73827 -65.504738
-1.754313 6.602996 -64.643627
-0.477819 12.993083 -64.186286
-0.893183 14.103847 -64.905682
0.038118 1.872826 -60.350199
0.216251 3.145344 -60.514236
0.192252 -0.592335 -59.155568
0.465479 -1.769419 -58.209654
-0.121482 0.615371 -60.148068
0.192252 -0.592335 -59.155568
-0.23076 -0.703383 -59.824707
-0.384895 1.761778 -61.019339
0.038118 1.872826 -60.350199
-0.121482 0.615371 -60.148068
-1.317239 1.638481 -62.405622
-0.862794 1.71059 -61.747219
-0.99894 0.432214 -61.475611
-1.670253 2.767604 -63.292422
-1.317239 1.638481 -62.405622
-1.211342 -2.176333 -60.775547
-0.86717 -3.293754 -59.836525
0.799631 -6.852882 -55.639822
0.514148 -5.67607 -56.604095
-0.627528 11.6754 -64.192507
-0.477819 12.993083 -64.186286
-0.38341 5.527655 -62.306105
-0.072833 4.287311 -61.398536
-0.535871 4.259577 -62.129038
-0.38341 5.527655 -62.306105
-0.69339 6.805865 -63.176914
-0.817539 10.45852 -64.259783
-0.953682 9.245093 -64.187294
-1.177021 11.59526 -64.990089
-0.627528 11.6754 -64.192507
-0.817539 10.45852 -64.259783
-1.770236 11.572309 -65.779388
-1.580224 12.789189 -65.712112
-1.177021 11.59526 -64.990089
-1.770236 11.572309 -65.779388
-1.915376 10.258447 -65.7426
-2.036569 9.000647 -65.6185
-2.191911 7.73827 -65.504738
1.08889 -8.082824 -54.686676
1.375938 -9.323063 -53.731006
0.733936 -8.292402 -55.242937
0.799631 -6.852882 -55.639822
1.08889 -8.082824 -54.686676
1.313948 -13.255622 -52.621008
0.975691 -13.395879 -53.152715
1.300946 -11.844411 -53.039676
1.313948 -13.255622 -52.621008
0.977622 -10.761937 -53.963354
1.34652 -10.604817 -53.366113
1.300946 -11.844411 -53.039676
-0.400046 -8.587864 -57.039526
-0.023477 -8.4369 -56.488888
-0.087288 -9.865531 -56.048319
-0.753758 -7.320881 -58.047753
-0.400046 -8.587864 -57.039526
3 0 15 17
3 15 6 16
3 15 16 17
3 0 7 6
3 1 18 19
3 1 20 21
3 23 22 8
3 3 10 5
3 3 24 26
3 26 25 10
3 24 25 26
3 3 27 28
3 2 29 30
3 4 31 33
3 33 32 9
3 31 32 33
3 4 34 36
3 34 11 35
3 34 35 36
3 4 37 39
3 39 38 11
3 37 38 39
3 40 12 41
3 42 13 43
3 44 14 45
3 46 45 13
3 44 45 46
3 48 47 14
3 49 5 50
3 6 51 53
3 51 5 52
3 51 52 53
3 6 3 5
3 6 54 56
3 56 55 3
3 54 55 56
3 7 57 59
3 59 58 6
3 57 58 59
3 7 60 61
3 8 9 2
3 62 9 63
3 64 63 8
3 62 63 64
3 65 4 66
3 67 66 9
3 65 66 67
3 69 68 4
3 70 1 71
3 72 2 73
3 5 74 75
3 10 76 78
3 78 77 5
3 76 77 78
3 10 79 81
3 79 2 80
3 79 80 81
3 10 8 2
3 82 8 83
3 84 83 10
3 82 83 84
3 86 85 8
3 88 87 3
3 89 0 90
3 91 1 92
3 9 93 95
3 95 94 2
3 93 94 95
3 97 96 9
3 11 98 99
3 11 100 102
3 100 1 101
3 100 101 102
3 11 103 105
3 105 104 1
3 103 104 105
3 107 106 11
3 109 108 4
3 12 110 111
3 12 112 114
3 112 0 113
3 112 113 114
3 13 115 116
3 13 117 118
3 13 119 121
3 119 12 120
3 119 120 121
3 14 12 13
3 14 0 12
3 14 7 0
3 122 7 123
3 124 123 14
3 122 123 124
3 126 125 7
