ply
format ascii 1.0
element vertex 318
property float x
property float y
property float z
element face 319
property list uchar int vertex_index
end_header
17.062969 105.305801 -0.575343
17.241879 88.481178 26.429325
17.824593 98.703148 13.343709
23.766169 93.142593 20.609886
22.603289 81.540802 34.195953
20.759415 104.214119 2.059986
17.74247 93.887482 20.233046
21.036634 96.52179 16.984173
20.654341 91.345406 23.935469
23.233923 87.686874 27.64477
20.07905 85.626686 30.277863
13.714798 102.92942 3.439349
17.541553 102.484367 6.416369
14.27821 99.659882 10.040358
14.562564 95.625549 16.362837
14.295361 90.617554 22.478405
21.023331 100.831024 9.643587
23.979219 97.781746 13.209804
24.786049 76.540604 37.687458
13.534868 84.834038 28.199711
16.443193 82.217316 32.439625
19.291204 79.042831 36.438156
21.76564 74.61866 40.395939
23.95067 69.768822 43.559746
22.987696 62.325924 48.976692
26.002436 63.920647 46.21191
18.972343 104.90979 0.746774
17.544418 91.222351 23.437271
19.271191 92.897774 21.896442
18.922411 89.935532 25.373259
20.385666 88.464729 27.26717
18.677933 87.033226 28.505241
15.03947 105.404953 -1.896761
14.217066 101.46244 6.789361
14.36972 93.19088 19.439243
17.751642 100.840256 9.650537
19.37429 101.783241 8.066544
19.407272 99.829994 11.7201
22.46739 95.072281 18.68054
22.465254 97.293976 15.293622
23.865425 95.636894 16.898134
22.980381 84.799828 30.849701
24.508057 85.561295 29.217396
24.086994 82.363457 32.788532
23.79228 79.091759 36.02924
17.9499 80.800789 34.43013
21.312105 71.271637 43.02919
22.964991 72.497551 41.866009
22.452126 68.685387 44.819233
24.589478 63.218376 47.760178
17.799303 96.396461 16.839363
19.497269 97.753708 15.160838
19.420107 95.388763 18.628363
20.946259 94.088722 20.434729
22.304773 92.597343 22.115948
23.444134 90.510246 24.232214
21.971952 89.772896 25.673441
21.763588 86.704292 29.14444
21.328085 83.732597 32.254925
15.347579 104.267288 1.451608
17.298697 104.049088 2.857849
15.781756 102.88018 4.891172
15.974777 101.152542 8.40045
16.162729 99.366463 11.60649
14.394074 97.704124 13.246385
16.153561 97.279732 14.880915
16.100378 94.809967 18.328938
16.0604 92.371582 21.403152
15.673729 89.534676 24.505558
19.162457 103.453186 4.478634
20.929718 102.626572 5.926332
22.5688 101.335854 7.676122
21.091383 98.702736 13.499908
22.509047 99.484375 11.446802
23.949528 99.806824 9.343621
25.226284 97.977135 10.958426
24.673443 88.321503 25.969114
25.785217 73.899399 39.032486
13.924811 87.794334 25.381454
15.484394 86.726219 27.436607
15.071468 83.695343 30.272118
16.950748 85.414459 29.535727
18.323143 84.014435 31.490515
19.740873 82.471771 33.368931
21.021471 80.445648 35.400532
20.508995 76.894447 38.504929
22.092371 78.162033 37.377861
23.325935 76.019279 38.907768
24.384912 73.278061 40.646492
25.350368 70.505447 42.103954
23.468096 65.928871 46.475498
25.000813 66.817024 45.058453
26.327169 67.399254 43.437016
18.017656 105.107796 0.085716
18.815698 105.525536 -1.210238
17.861012 105.723541 -1.871297
16.896459 105.85606 -2.471642
15.88471 105.905636 -3.132351
16.051219 105.355377 -1.236052
17.861012 105.723541 -1.871297
16.896459 105.85606 -2.471642
24.440004 93.319927 19.663806
24.489632 94.567077 17.80793
23.815797 94.389744 18.75401
24.339786 92.015396 21.585175
24.440004 93.319927 19.663806
21.034098 69.419892 44.358511
20.4544 70.642285 43.405342
21.604109 68.126767 45.253532
21.882115 69.978512 43.924211
21.034098 69.419892 44.358511
21.507421 104.320385 1.015651
20.592607 104.857636 0.189747
21.567426 103.598808 3.019745
21.507421 104.320385 1.015651
14.478319 96.664837 14.804611
13.560016 96.738834 14.075026
13.644261 95.699546 15.633252
13.538208 103.570865 1.774499
12.713399 102.841705 2.746977
14.531188 103.598354 2.445479
14.354598 104.2398 0.780629
13.538208 103.570865 1.774499
25.164762 85.70612 28.390651
24.991317 84.227326 30.177781
25.474436 76.806637 36.795164
25.013512 78.182229 36.031187
25.285633 75.220001 38.359972
25.97402 75.486035 37.467678
25.474436 76.806637 36.795164
13.72984 86.314186 26.790582
12.987725 86.778942 25.81992
12.792754 85.298794 27.229048
15.757331 82.956329 31.355871
14.853329 82.087864 31.669651
15.539192 81.34885 32.753405
21.137318 75.756553 39.450434
20.284354 75.259297 39.816549
20.912676 74.121403 40.762054
22.192997 61.73714 49.428997
22.80377 60.35034 50.2132
22.411677 63.662523 48.202877
22.192997 61.73714 49.428997
23.227896 64.127398 47.726095
22.651877 65.463997 46.95228
22.411677 63.662523 48.202877
26.558191 64.057419 45.447601
26.720558 65.796723 44.060154
26.164803 65.659951 44.824463
19.69907 105.205471 -0.466859
18.815698 105.525536 -1.210238
19.865879 104.561954 1.40338
20.592607 104.857636 0.189747
19.69907 105.205471 -0.466859
14.80724 105.876805 -3.705556
13.961938 105.31918 -2.589102
15.65248 106.377488 -4.941147
14.80724 105.876805 -3.705556
15.88471 105.905636 -3.132351
13.167051 101.360889 6.159852
13.965932 102.19593 5.114355
12.915917 102.094379 4.484846
13.355141 100.562225 7.761965
13.167051 101.360889 6.159852
13.385713 99.660946 9.387463
14.247638 100.561161 8.41486
13.355141 100.562225 7.761965
13.624276 94.609055 17.075255
13.644261 95.699546 15.633252
13.527854 93.39172 18.613459
14.466142 94.408215 17.90104
13.624276 94.609055 17.075255
13.482824 92.18861 20.059891
13.527854 93.39172 18.613459
13.445645 90.901947 21.579473
14.332541 91.904217 20.958824
13.482824 92.18861 20.059891
12.915917 102.094379 4.484846
12.713399 102.841705 2.746977
24.502366 95.782868 15.874733
24.559263 96.855294 14.030569
23.922322 96.70932 15.053969
24.502366 95.782868 15.874733
24.489632 94.567077 17.80793
24.780786 82.628406 31.963349
24.991317 84.227326 30.177781
24.297525 83.962376 31.002964
24.663985 81.093655 33.581724
24.780786 82.628406 31.963349
24.516628 79.457806 35.202078
24.663985 81.093655 33.581724
23.939637 80.727608 34.408886
24.289164 77.816181 36.858349
25.013512 78.182229 36.031187
24.516628 79.457806 35.202078
12.543774 83.77266 28.576802
12.792754 85.298794 27.229048
16.199979 80.633229 33.771452
15.539192 81.34885 32.753405
16.953332 79.924965 34.766705
17.196547 81.509052 33.434877
16.199979 80.633229 33.771452
17.696788 79.129608 35.815754
16.953332 79.924965 34.766705
18.36744 78.250629 36.819767
18.620552 79.92181 35.434143
17.696788 79.129608 35.815754
20.685909 72.447891 42.07868
20.4544 70.642285 43.405342
21.538873 72.945149 41.712564
20.912676 74.121403 40.762054
20.685909 72.447891 42.07868
23.571166 60.97237 49.616401
22.80377 60.35034 50.2132
24.372057 61.418596 49.008145
23.788587 62.77215 48.368435
23.571166 60.97237 49.616401
25.099974 61.663824 48.400126
24.372057 61.418596 49.008145
25.806453 62.01496 47.625991
25.295957 63.569512 46.986044
25.099974 61.663824 48.400126
26.426863 62.265423 46.819616
25.806453 62.01496 47.625991
13.435121 98.728341 10.938188
13.385713 99.660946 9.387463
12.542623 98.729404 10.285294
13.493053 97.750462 12.541202
13.560016 96.738834 14.075026
14.336142 98.682003 11.643372
13.435121 98.728341 10.938188
13.493053 97.750462 12.541202
14.200544 104.808632 -0.893555
13.961938 105.31918 -2.589102
15.193524 104.83612 -0.222576
14.200544 104.808632 -0.893555
14.354598 104.2398 0.780629
21.652577 102.805035 4.952919
21.567426 103.598808 3.019745
20.844566 103.420345 3.993159
22.472119 102.159676 5.827814
21.652577 102.805035 4.952919
21.749259 101.981213 6.801227
23.212183 101.471863 6.553187
22.472119 102.159676 5.827814
23.902547 100.707348 7.386937
23.212183 101.471863 6.553187
23.259164 100.571339 8.509872
24.566698 99.777653 8.312204
23.902547 100.707348 7.386937
25.205075 98.862808 9.119606
24.566698 99.777653 8.312204
24.587906 98.89198 10.151024
25.802861 97.770164 10.009348
25.205075 98.862808 9.119606
25.182795 96.952988 12.904879
24.602752 97.879441 12.084115
24.559263 96.855294 14.030569
25.749567 96.886589 11.894258
25.182795 96.952988 12.904879
26.326144 96.679619 10.945181
25.802861 97.770164 10.009348
25.749567 96.886589 11.894258
24.178768 90.699222 23.396338
24.339786 92.015396 21.585175
23.605151 91.82642 22.42105
24.793423 89.604851 24.264789
24.178768 90.699222 23.396338
24.058788 89.415875 25.100664
25.329717 88.4208 25.070988
24.793423 89.604851 24.264789
25.247454 87.086224 26.76651
24.59075 86.941399 27.593255
25.164762 85.70612 28.390651
25.329717 88.4208 25.070988
25.247454 87.086224 26.76651
26.414699 73.929524 38.197252
25.97402 75.486035 37.467678
26.21255 72.285374 39.816873
26.414699 73.929524 38.197252
13.375978 89.585804 23.02863
13.445645 90.901947 21.579473
13.190703 88.174194 24.480154
12.987725 86.778942 25.81992
14.110086 89.205944 23.92993
13.375978 89.585804 23.02863
13.190703 88.174194 24.480154
13.378334 83.287556 29.605331
12.543774 83.77266 28.576802
14.146634 82.718209 30.641534
14.853329 82.087864 31.669651
14.303168 84.264691 29.235914
13.378334 83.287556 29.605331
14.146634 82.718209 30.641534
19.019487 77.235405 37.906555
18.36744 78.250629 36.819767
19.628383 76.161213 38.939942
20.284354 75.259297 39.816549
19.900099 77.968639 37.471542
19.019487 77.235405 37.906555
19.628383 76.161213 38.939942
25.995126 70.588398 41.352608
26.21255 72.285374 39.816873
25.567792 72.202423 40.56822
22.143892 66.842255 46.124147
21.604109 68.126767 45.253532
22.960111 67.307129 45.647365
22.143892 66.842255 46.124147
22.651877 65.463997 46.95228
26.483526 69.035302 42.019138
25.995126 70.588398 41.352608
25.838769 68.95235 42.770485
26.897072 67.492031 42.566435
26.483526 69.035302 42.019138
26.897072 67.492031 42.566435
26.720558 65.796723 44.060154
26.558191 64.057419 45.447601
26.426863 62.265423 46.819616
3 0 93 95
3 93 26 94
3 93 94 95
3 1 29 27
3 1 31 29
3 0 96 98
3 98 97 32
3 96 97 98
3 0 99 100
3 2 37 35
3 3 40 38
3 3 101 103
3 103 102 40
3 101 102 103
3 3 104 105
3 4 43 41
3 4 44 43
3 106 46 107
3 108 48 109
3 110 109 46
3 108 109 110
3 5 111 112
3 5 113 114
3 6 52 50
3 8 53 28
3 8 54 53
3 8 56 54
3 10 57 30
3 10 58 57
3 11 61 59
3 13 62 33
3 13 63 62
3 14 115 117
3 115 64 116
3 115 116 117
3 14 65 64
3 14 66 65
3 15 67 34
3 15 68 67
3 11 118 119
3 11 120 122
3 120 59 121
3 120 121 122
3 12 69 60
3 16 70 36
3 16 71 70
3 7 72 51
3 17 73 39
3 17 74 73
3 17 75 74
3 9 76 55
3 124 123 42
3 18 125 126
3 18 127 129
3 127 77 128
3 127 128 129
3 19 130 132
3 130 78 131
3 130 131 132
3 19 79 78
3 20 133 135
3 133 80 134
3 133 134 135
3 20 81 80
3 20 82 81
3 21 83 45
3 21 84 83
3 22 136 138
3 136 85 137
3 136 137 138
3 22 86 85
3 22 87 86
3 23 88 47
3 23 89 88
3 24 139 140
3 24 141 142
3 24 143 145
3 143 90 144
3 143 144 145
3 25 91 49
3 25 92 91
3 25 146 148
3 148 147 92
3 146 147 148
3 26 149 150
3 26 151 153
3 151 5 152
3 151 152 153
3 27 28 6
3 29 28 27
3 29 8 28
3 29 30 8
3 31 30 29
3 31 10 30
3 32 154 155
3 158 157 32
3 156 157 158
3 159 33 160
3 161 160 11
3 159 160 161
3 162 33 163
3 164 13 165
3 166 165 33
3 164 165 166
3 167 14 168
3 169 34 170
3 171 170 14
3 169 170 171
3 172 34 173
3 174 15 175
3 176 175 34
3 174 175 176
3 177 11 178
3 35 36 12
3 37 36 35
3 37 16 36
3 38 39 7
3 40 39 38
3 40 17 39
3 40 179 181
3 181 180 17
3 179 180 181
3 183 182 40
3 41 42 9
3 43 42 41
3 43 184 186
3 186 185 42
3 184 185 186
3 43 187 188
3 44 189 191
3 191 190 43
3 189 190 191
3 44 192 194
3 192 18 193
3 192 193 194
3 195 19 196
3 197 20 198
3 199 45 200
3 201 200 20
3 199 200 201
3 202 45 203
3 204 21 205
3 206 205 45
3 204 205 206
3 46 207 208
3 46 209 211
3 209 22 210
3 209 210 211
3 46 47 22
3 48 47 46
3 48 23 47
3 212 24 213
3 214 49 215
3 216 215 24
3 214 215 216
3 217 49 218
3 219 25 220
3 221 220 49
3 219 220 221
3 223 222 25
3 50 51 2
3 52 51 50
3 52 7 51
3 28 52 6
3 53 52 28
3 53 7 52
3 53 38 7
3 54 38 53
3 54 3 38
3 54 55 3
3 56 55 54
3 56 9 55
3 30 56 8
3 57 56 30
3 57 9 56
3 57 41 9
3 58 41 57
3 58 4 41
3 59 60 0
3 61 60 59
3 61 12 60
3 33 61 11
3 62 61 33
3 62 12 61
3 62 35 12
3 63 35 62
3 63 2 35
3 224 13 225
3 224 225 226
3 64 227 228
3 64 229 231
3 229 13 230
3 229 230 231
3 64 63 13
3 65 63 64
3 65 2 63
3 65 50 2
3 66 50 65
3 66 6 50
3 34 66 14
3 67 66 34
3 67 6 66
3 67 27 6
3 68 27 67
3 68 1 27
3 232 32 233
3 59 234 236
3 234 32 235
3 234 235 236
3 59 0 32
3 60 26 0
3 69 26 60
3 69 5 26
3 36 69 12
3 70 69 36
3 70 5 69
3 70 237 239
3 239 238 5
3 237 238 239
3 71 240 242
3 242 241 70
3 240 241 242
3 71 243 244
3 51 37 2
3 72 37 51
3 72 16 37
3 39 72 7
3 73 72 39
3 73 16 72
3 73 71 16
3 74 71 73
3 74 245 247
3 247 246 71
3 245 246 247
3 74 248 249
3 75 250 252
3 252 251 74
3 250 251 252
3 75 253 254
3 255 75 256
3 257 256 17
3 255 256 257
3 258 75 259
3 262 261 75
3 260 261 262
3 55 263 265
3 265 264 3
3 263 264 265
3 76 266 268
3 268 267 55
3 266 267 268
3 76 269 270
3 42 76 9
3 271 76 272
3 273 272 42
3 271 272 273
3 275 274 76
3 77 276 277
3 77 278 279
3 280 15 281
3 78 282 283
3 78 284 286
3 284 15 285
3 284 285 286
3 78 68 15
3 79 68 78
3 79 1 68
3 287 19 288
3 80 289 290
3 80 291 293
3 291 19 292
3 291 292 293
3 80 79 19
3 81 79 80
3 81 1 79
3 81 31 1
3 82 31 81
3 82 10 31
3 45 82 20
3 83 82 45
3 83 10 82
3 83 58 10
3 84 58 83
3 84 4 58
3 294 21 295
3 85 296 297
3 85 298 300
3 298 21 299
3 298 299 300
3 85 84 21
3 86 84 85
3 86 4 84
3 86 44 4
3 87 44 86
3 87 18 44
3 47 87 22
3 88 87 47
3 88 18 87
3 88 77 18
3 89 77 88
3 89 301 303
3 303 302 77
3 301 302 303
3 304 48 305
3 90 306 308
3 306 48 307
3 306 307 308
3 90 23 48
3 49 90 24
3 91 90 49
3 91 23 90
3 91 89 23
3 92 89 91
3 92 309 311
3 311 310 89
3 309 310 311
3 92 312 313
3 315 314 92
3 317 316 25
