ply
format ascii 1.0
element vertex 199
property float x
property float y
property float z
element face 180
property list uchar int vertex_index
end_header
50.027161 26.796013 21.242685
48.745644 38.519024 22.287096
44.106739 30.925568 29.654217
48.11525 23.301266 24.51976
46.340649 34.813583 26.035645
44.948124 36.763996 30.142876
52.520584 30.276848 18.214123
51.68708 36.214241 18.695045
49.003517 32.695896 22.11702
46.440998 28.920731 25.421843
44.6675 25.12891 28.94096
47.569473 21.624592 26.318253
49.659309 20.795052 24.039885
45.945705 38.656303 28.17531
51.246685 28.554562 19.715551
52.036964 25.639477 19.089718
50.115639 37.412338 20.46846
50.372292 34.499447 20.441961
48.831932 35.640728 22.30007
45.1637 32.878006 27.838999
46.241714 31.870934 25.780741
45.091576 29.927448 27.518105
45.417255 27.011429 27.138054
44.146236 27.986107 29.308762
43.17099 22.404484 35.21022
48.956116 25.034042 22.833857
51.033619 23.981586 20.634014
50.218239 22.357689 22.278572
47.55793 36.702671 24.199413
46.602646 37.701374 26.159897
45.500366 35.799255 28.068184
44.426762 33.868855 29.944267
53.748253 31.934479 16.699427
54.250053 28.926613 16.18737
53.316307 34.914661 16.928873
52.063438 33.266865 18.587446
50.717403 31.530136 20.182882
49.370773 29.72604 21.753304
47.515602 33.785416 24.056511
47.664276 30.82642 23.761881
48.11718 27.883595 23.342209
47.044922 26.035748 24.990494
46.231533 24.214512 26.729612
43.463287 31.937126 31.832502
43.250546 28.983967 31.520128
43.478298 26.073994 31.181404
43.557697 20.657177 37.34655
48.48703 20.467337 26.119329
47.466181 20.822474 27.274957
49.297398 39.381496 21.275799
48.690203 39.918211 22.184169
49.430642 37.965681 21.377778
49.982395 38.828153 20.366481
49.297398 39.381496 21.275799
42.83227 22.898287 36.410259
42.788964 23.806933 35.352756
51.75855 19.24086 22.645105
50.774252 20.355793 22.878453
50.643608 19.680119 23.806537
46.74337 39.108807 26.147284
47.133348 38.624719 25.167912
52.082812 23.417467 19.504013
51.720579 22.666473 20.30909
52.279858 37.020367 17.77055
51.494839 37.649344 18.61186
52.501694 35.564451 17.811959
53.094471 36.370576 16.887463
52.279858 37.020367 17.77055
45.203032 23.787325 28.758858
45.985048 23.330126 27.653184
45.449517 24.671711 27.835286
43.273071 32.45913 32.934416
43.714295 33.401173 31.95716
42.958626 28.029221 32.491805
42.971293 29.504722 32.645272
43.072502 26.574234 32.322443
43.364422 27.52898 31.350766
42.958626 28.029221 32.491805
44.373966 19.421315 37.222162
43.910511 19.809171 38.439037
44.041016 20.241953 36.145966
44.373966 19.421315 37.222162
49.531948 20.052566 24.980145
48.614391 21.209822 25.179069
48.48703 20.467337 26.119329
50.643608 19.680119 23.806537
49.531948 20.052566 24.980145
46.145037 40.049084 28.155717
46.414899 39.586271 27.15499
45.723033 39.122248 29.195374
46.145037 40.049084 28.155717
45.224243 38.176094 30.179158
45.446914 37.710149 29.159093
45.723033 39.122248 29.195374
52.194422 27.926617 18.666984
52.831372 28.78776 17.916269
51.883634 29.415705 18.964837
52.589562 26.469074 18.354067
52.194422 27.926617 18.666984
51.641824 27.09702 19.402635
53.013908 25.017368 17.981959
52.589562 26.469074 18.354067
50.709118 38.248392 19.498568
49.982395 38.828153 20.366481
50.901359 36.813289 19.581753
51.494839 37.649344 18.61186
50.709118 38.248392 19.498568
43.157158 23.30737 34.179851
42.788964 23.806933 35.352756
43.685911 21.96639 34.031464
43.157158 23.30737 34.179851
51.312889 21.854525 21.131369
51.720579 22.666473 20.30909
50.625929 23.169638 21.456293
51.053717 21.137111 21.997797
49.938774 21.57637 23.159229
50.774252 20.355793 22.878453
51.312889 21.854525 21.131369
51.053717 21.137111 21.997797
48.204847 39.033545 23.231511
48.690203 39.918211 22.184169
47.61099 38.125368 24.187669
48.151787 37.610848 23.243254
48.204847 39.033545 23.231511
47.080288 37.202022 25.179655
47.61099 38.125368 24.187669
47.133348 38.624719 25.167912
46.274175 38.178838 27.167603
46.74337 39.108807 26.147284
46.414899 39.586271 27.15499
54.502098 31.215063 15.732157
55.043312 32.001291 14.952195
54.289467 32.720707 15.919466
54.752998 29.71113 15.476128
54.502098 31.215063 15.732157
53.999153 30.430546 16.443399
54.996069 28.198093 15.153083
54.752998 29.71113 15.476128
53.696106 28.112642 16.902893
53.385318 29.601731 17.200747
52.831372 28.78776 17.916269
54.572345 27.435633 15.825667
53.696106 28.112642 16.902893
54.996069 28.198093 15.153083
54.572345 27.435633 15.825667
52.584484 24.246412 18.731865
51.535291 24.810531 19.861866
52.082812 23.417467 19.504013
53.013908 25.017368 17.981959
52.584484 24.246412 18.731865
53.854011 35.687952 16.055447
53.632176 37.143867 16.014038
53.094471 36.370576 16.887463
54.073494 34.210798 16.034188
53.854011 35.687952 16.055447
53.53228 33.42457 16.81415
54.289467 32.720707 15.919466
54.073494 34.210798 16.034188
46.654018 22.035166 27.447505
46.900503 22.919552 26.523933
45.985048 23.330126 27.653184
47.466181 20.822474 27.274957
46.654018 22.035166 27.447505
44.764456 37.246416 31.185749
45.224243 38.176094 30.179158
44.456713 35.814608 31.112347
44.764456 37.246416 31.185749
44.196032 34.367037 31.013042
44.687443 35.316426 30.043571
44.456713 35.814608 31.112347
43.945025 32.902991 30.888385
44.196032 34.367037 31.013042
43.714295 33.401173 31.95716
43.077663 30.981302 32.801459
43.273071 32.45913 32.934416
43.356916 30.460546 31.676315
43.077663 30.981302 32.801459
42.971293 29.504722 32.645272
43.310812 25.142125 32.165443
43.072502 26.574234 32.322443
43.864273 24.685341 31.013739
43.310812 25.142125 32.165443
44.458874 24.212799 29.893518
44.072899 25.601452 30.061182
43.864273 24.685341 31.013739
45.203032 23.787325 28.758858
44.458874 24.212799 29.893518
43.235492 21.137884 38.567982
43.910511 19.809171 38.439037
43.025623 22.024634 37.478424
43.235492 21.137884 38.567982
43.364344 21.530831 36.278385
42.83227 22.898287 36.410259
43.025623 22.024634 37.478424
43.847662 21.115606 35.0778
43.364344 21.530831 36.278385
44.041016 20.241953 36.145966
43.685911 21.96639 34.031464
43.847662 21.115606 35.0778
3 48 47 11
3 0 15 14
3 1 49 50
3 1 51 53
3 51 16 52
3 51 52 53
3 1 18 16
3 2 21 19
3 2 23 21
3 54 24 55
3 3 27 25
3 58 57 12
3 56 57 58
3 59 29 60
3 5 30 13
3 5 31 30
3 6 33 32
3 62 61 26
3 7 63 64
3 7 65 67
3 65 34 66
3 65 66 67
3 7 35 34
3 8 36 17
3 8 37 36
3 4 38 28
3 9 39 20
3 9 40 39
3 9 41 40
3 10 42 22
3 10 68 70
3 70 69 42
3 68 69 70
3 71 43 72
3 73 44 74
3 75 45 76
3 77 76 44
3 75 76 77
3 78 46 79
3 81 80 46
3 11 12 3
3 82 12 83
3 84 83 11
3 82 83 84
3 86 85 12
3 87 13 88
3 89 13 90
3 91 5 92
3 93 92 13
3 91 92 93
3 14 94 96
3 96 95 6
3 94 95 96
3 15 97 99
3 99 98 14
3 97 98 99
3 15 100 101
3 16 102 103
3 16 104 106
3 104 7 105
3 104 105 106
3 16 17 7
3 18 17 16
3 18 8 17
3 19 20 4
3 21 20 19
3 21 9 20
3 21 22 9
3 23 22 21
3 23 10 22
3 24 107 108
3 24 109 110
3 25 26 0
3 27 26 25
3 27 111 113
3 113 112 26
3 111 112 113
3 12 27 3
3 114 27 115
3 116 115 12
3 114 115 116
3 118 117 27
3 119 1 120
3 121 28 122
3 123 122 1
3 121 122 123
3 29 124 126
3 124 28 125
3 124 125 126
3 29 4 28
3 13 127 129
3 127 29 128
3 127 128 129
3 30 29 13
3 30 4 29
3 30 19 4
3 31 19 30
3 31 2 19
3 32 130 132
3 130 131 132
3 33 133 135
3 135 134 32
3 133 134 135
3 33 136 137
3 138 33 139
3 140 139 6
3 138 139 140
3 141 33 142
3 144 143 33
3 26 15 0
3 145 15 146
3 147 146 26
3 145 146 147
3 149 148 15
3 34 150 152
3 150 151 152
3 34 153 154
3 34 155 157
3 155 32 156
3 155 156 157
3 35 32 34
3 35 6 32
3 17 35 7
3 36 35 17
3 36 6 35
3 36 14 6
3 37 14 36
3 37 0 14
3 28 18 1
3 38 18 28
3 38 8 18
3 20 38 4
3 39 38 20
3 39 8 38
3 39 37 8
3 40 37 39
3 40 0 37
3 40 25 0
3 41 25 40
3 41 3 25
3 22 41 9
3 42 41 22
3 42 3 41
3 42 11 3
3 158 11 159
3 160 159 42
3 158 159 160
3 162 161 11
3 163 5 164
3 165 5 166
3 167 31 168
3 169 168 5
3 167 168 169
3 43 170 172
3 170 31 171
3 170 171 172
3 43 2 31
3 173 43 174
3 44 175 177
3 175 43 176
3 175 176 177
3 44 2 43
3 44 23 2
3 45 23 44
3 45 10 23
3 178 45 179
3 180 45 181
3 182 10 183
3 184 183 45
3 182 183 184
3 186 185 10
3 46 187 188
3 46 189 190
3 46 191 193
3 191 24 192
3 191 192 193
3 194 24 195
3 196 195 46
3 194 195 196
3 198 197 24
