ply
format ascii 1.0
element vertex 323
property float x
property float y
property float z
element face 327
property list uchar int vertex_index
end_header
-31.693153 -66.990677 53.388084
-29.790443 -56.576725 71.632278
-36.682423 -48.692543 57.291817
-36.900009 -64.658722 48.27784
-28.241192 -65.987274 70.816872
-31.873178 -61.78997 63.33712
-33.832932 -52.702679 64.800323
-34.314186 -57.922359 55.025318
-38.383617 -54.800991 49.298542
-40.319141 -63.752697 47.329033
-29.409565 -61.42944 71.496384
-30.373589 -63.877594 67.360672
-31.496712 -59.38398 68.002129
-35.263351 -50.713337 61.032379
-34.16259 -55.316704 59.994633
-35.367405 -53.365047 56.073906
-36.026451 -56.254658 51.64119
-36.989437 -51.527626 52.707569
-30.192709 -66.067047 62.21069
-31.573677 -64.146698 58.088554
-32.802746 -49.848263 69.11734
-32.064121 -54.65144 68.367722
-32.99675 -57.336014 64.081848
-33.050453 -59.782635 59.078362
-33.082115 -62.42033 54.109337
-35.069321 -60.935467 50.790714
-42.14077 -63.325333 47.264442
-29.667713 -59.033539 71.589615
-30.535887 -60.40826 69.81604
-30.815405 -58.038891 69.937988
-36.81789 -47.367325 59.836926
-36.02771 -48.387238 61.685272
-35.950134 -49.704281 59.138454
-35.284779 -52.030014 58.531799
-35.950516 -51.04084 56.652538
-36.106483 -52.428352 54.297237
-36.717155 -50.069351 54.890755
-31.186981 -62.828003 65.402344
-30.372204 -64.977631 64.869835
-31.095703 -63.946991 62.833611
-30.894329 -65.087151 60.163834
-31.739643 -62.941479 60.724415
-34.365891 -50.357746 65.300537
-33.41753 -51.308437 67.016296
-32.358074 -52.242214 68.658051
-33.005543 -53.681339 66.617386
-32.671074 -56.039902 66.330193
-33.410885 -55.036373 64.413742
-34.21151 -56.596027 57.484512
-33.643112 -57.56776 59.537533
-33.646122 -58.830585 56.996445
-33.004078 -61.044861 56.517429
-33.729008 -60.170422 54.546555
-34.001122 -61.646683 52.337536
-34.573158 -59.352356 52.74778
-37.120441 -55.500248 50.323112
-36.718563 -57.890591 49.877037
-38.560226 -64.192551 47.660744
-28.943586 -63.749397 71.26033
-29.398602 -64.932144 69.174683
-30.07597 -62.707966 69.584274
-31.031578 -61.664574 67.752029
-31.829865 -60.622803 65.792297
-35.224667 -49.384827 63.517208
-34.572933 -51.713512 62.930912
-34.064289 -54.031944 62.453636
-34.672836 -53.028755 60.480362
-34.734879 -54.329865 57.989746
-34.84613 -55.657993 55.535076
-35.097134 -57.062698 53.222843
-35.591515 -54.758759 53.742718
-36.482418 -53.903278 52.156971
-37.540905 -53.097042 50.819374
-30.733158 -66.321022 57.54393
-31.519945 -65.476578 55.589733
-29.882614 -54.085526 71.729752
-31.4839 -50.726227 70.57798
-31.178925 -53.16568 70.227676
-30.993841 -55.615585 70.042068
-31.812956 -57.041019 68.178543
-32.308022 -58.358715 66.080658
-32.502357 -59.588116 63.740974
-33.599892 -56.320389 62.040092
-33.090603 -58.56736 61.640224
-32.477184 -60.771858 61.211304
-32.357597 -61.970997 58.598236
-32.286221 -63.255211 56.048065
-32.392483 -64.690048 53.723766
-33.390308 -63.965717 52.011799
-34.538391 -63.304279 50.513084
-35.845722 -62.702801 49.275219
-35.564899 -58.592564 51.176422
-36.297733 -60.284657 49.515305
-37.305954 -62.155048 48.330547
-38.041065 -50.673035 51.345707
-38.775188 -52.346493 49.759602
-31.355065 -68.155823 53.233076
-31.218802 -67.353192 54.261097
-42.949515 -64.418057 47.377168
-43.064469 -63.110598 47.349518
-29.729078 -57.805132 71.610946
-29.0627 -58.285761 72.359287
-29.124065 -57.057354 72.380619
-36.685712 -65.935936 48.336194
-35.920299 -66.188252 48.788528
-36.134596 -64.911037 48.730175
-27.568307 -66.513759 71.543365
-27.261676 -65.913593 72.51474
-27.934561 -65.387108 71.788246
-27.778864 -67.064598 70.474575
-27.568307 -66.513759 71.543365
-28.375793 -66.533989 69.682732
-27.778864 -67.064598 70.474575
-38.209038 -56.022631 49.089378
-37.57745 -56.372259 49.601664
-37.752029 -55.15062 49.810827
-38.942041 -55.725664 48.749398
-38.209038 -56.022631 49.089378
-40.158712 -65.055174 47.401741
-39.279255 -65.275101 47.567597
-39.439684 -63.972624 47.494889
-28.761104 -61.938124 72.259277
-28.888935 -60.727657 72.306183
-29.176575 -62.589419 71.378357
-28.528114 -63.098102 72.14125
-28.761104 -61.938124 72.259277
-29.947895 -64.951027 67.073623
-29.460401 -65.478302 67.980629
-29.886095 -64.404869 68.267677
-29.803502 -66.571869 63.192518
-29.893249 -66.027161 64.522091
-30.282457 -65.522339 63.540262
-29.701191 -67.110523 61.834446
-29.803502 -66.571869 63.192518
-30.087174 -66.641682 60.865461
-29.701191 -67.110523 61.834446
-29.971474 -52.841511 71.85339
-29.215775 -53.27888 72.529847
-33.14154 -48.676949 69.444641
-33.405334 -49.400393 68.348018
-32.402132 -49.093224 70.126427
-33.14154 -48.676949 69.444641
-32.143323 -50.287245 69.84766
-31.742709 -49.532206 70.856746
-32.402132 -49.093224 70.126427
-36.990263 -59.987095 49.029097
-36.508148 -59.087624 49.696171
-37.200678 -58.790062 49.209963
-37.494373 -60.922291 48.436718
-36.801844 -61.219853 48.922926
-36.990263 -59.987095 49.029097
-38.10286 -61.903572 48.012335
-37.494373 -60.922291 48.436718
-38.65662 -50.274994 50.793434
-38.36787 -49.452148 51.622839
-39.023681 -51.111723 50.000382
-38.408127 -51.509764 50.552655
-38.65662 -50.274994 50.793434
-42.004616 -64.632996 47.321285
-41.093801 -64.846678 47.35358
-41.229956 -63.539015 47.296738
-42.004616 -64.632996 47.321285
-42.949515 -64.418057 47.377168
-29.018009 -59.529707 72.352799
-29.0627 -58.285761 72.359287
-29.538639 -60.231489 71.543
-28.888935 -60.727657 72.306183
-29.018009 -59.529707 72.352799
-36.4228 -47.877282 60.761099
-36.53302 -47.2281 62.071804
-36.92811 -46.718143 61.147631
-34.186907 -49.655134 66.439617
-34.734102 -49.193113 65.626182
-33.712727 -50.130479 67.297496
-34.186907 -49.655134 66.439617
-33.891711 -50.833091 66.158417
-33.110138 -50.57835 68.066818
-33.405334 -49.400393 68.348018
-33.712727 -50.130479 67.297496
-37.376511 -57.567431 49.378626
-36.919502 -56.695419 50.100075
-37.57745 -56.372259 49.601664
-37.200678 -58.790062 49.209963
-37.376511 -57.567431 49.378626
-38.37355 -65.484863 47.734238
-37.543442 -65.717949 48.042786
-37.730117 -64.425636 47.969292
-38.37355 -65.484863 47.734238
-39.279255 -65.275101 47.567597
-40.158712 -65.055174 47.401741
-41.093801 -64.846678 47.35358
-28.285758 -64.268169 72.009975
-28.528114 -63.098102 72.14125
-28.592389 -64.868336 71.038601
-27.934561 -65.387108 71.788246
-28.285758 -64.268169 72.009975
-36.065143 -47.727742 62.962146
-36.53302 -47.2281 62.071804
-35.663622 -48.226536 63.878114
-36.065143 -47.727742 62.962146
-35.626188 -48.886032 62.60124
-35.16349 -48.706654 64.734518
-35.663622 -48.226536 63.878114
-34.795279 -49.871286 64.408873
-34.734102 -49.193113 65.626182
-35.16349 -48.706654 64.734518
-29.134897 -55.792326 72.399383
-29.124065 -57.057354 72.380619
-37.383255 -46.201228 60.239635
-36.92811 -46.718143 61.147631
-37.229858 -46.850639 58.925641
-37.383255 -46.201228 60.239635
-37.162125 -47.513249 57.653086
-36.750157 -48.029934 58.564372
-37.229858 -46.850639 58.925641
-37.574213 -47.01178 56.77701
-37.094511 -48.191074 56.415741
-37.162125 -47.513249 57.653086
-31.925108 -67.8583 52.502029
-32.229694 -66.657432 52.582672
-36.685712 -65.935936 48.336194
-37.543442 -65.717949 48.042786
-28.954498 -66.006424 68.861638
-28.375793 -66.533989 69.682732
-28.819897 -65.459709 69.995778
-28.954498 -66.006424 68.861638
-29.460401 -65.478302 67.980629
-29.947202 -65.501046 65.828205
-29.947895 -64.951027 67.073623
-30.372896 -64.427613 66.115253
-29.947202 -65.501046 65.828205
-29.893249 -66.027161 64.522091
-30.437984 -66.151734 59.842033
-30.087174 -66.641682 60.865461
-30.543519 -65.577099 61.187262
-30.357399 -66.768669 58.532082
-30.437984 -66.151734 59.842033
-30.813744 -65.704087 58.853882
-30.306666 -67.4086 57.248047
-30.357399 -66.768669 58.532082
-30.738805 -67.018364 56.33902
-30.306666 -67.4086 57.248047
-31.132199 -66.596142 55.361921
-30.738805 -67.018364 56.33902
-31.126551 -65.8988 56.566832
-31.606549 -66.233628 54.488909
-31.218802 -67.353192 54.261097
-31.132199 -66.596142 55.361921
-29.180982 -54.546727 72.448121
-29.215775 -53.27888 72.529847
-29.836529 -55.331125 71.681015
-29.134897 -55.792326 72.399383
-29.180982 -54.546727 72.448121
-30.954552 -49.941498 71.505192
-31.213361 -48.747476 71.783959
-31.742709 -49.532206 70.856746
-30.772118 -51.161862 71.277504
-30.954552 -49.941498 71.505192
-30.61963 -52.381588 71.102352
-30.772118 -51.161862 71.277504
-31.331412 -51.945954 70.402828
-30.530769 -53.625603 70.978714
-29.971474 -52.841511 71.85339
-30.61963 -52.381588 71.102352
-32.579359 -65.507118 52.750513
-32.229694 -66.657432 52.582672
-32.042818 -65.840362 53.555925
-33.078271 -65.144953 51.89453
-32.579359 -65.507118 52.750513
-32.891396 -64.327883 52.867783
-33.689531 -64.840975 51.185746
-33.078271 -65.144953 51.89453
-34.263572 -64.510255 50.436388
-33.689531 -64.840975 51.185746
-33.964349 -63.634998 51.262442
-34.953787 -64.233816 49.847797
-34.263572 -64.510255 50.436388
-35.607453 -63.933077 49.228865
-34.953787 -64.233816 49.847797
-35.192056 -63.00354 49.894151
-36.372866 -63.680762 48.776529
-36.134596 -64.911037 48.730175
-35.607453 -63.933077 49.228865
-38.729996 -62.922323 47.677433
-37.93309 -63.1738 47.995646
-38.10286 -61.903572 48.012335
-39.609453 -62.702396 47.511578
-39.439684 -63.972624 47.494889
-38.729996 -62.922323 47.677433
-40.458866 -62.467892 47.346089
-39.609453 -62.702396 47.511578
-41.369681 -62.25421 47.313793
-41.229956 -63.539015 47.296738
-40.458866 -62.467892 47.346089
-42.254935 -62.030709 47.29108
-41.369681 -62.25421 47.313793
-43.178633 -61.815973 47.376156
-43.064469 -63.110598 47.349518
-42.254935 -62.030709 47.29108
-37.111877 -48.879478 55.21521
-36.699789 -49.380947 56.091286
-37.094511 -48.191074 56.415741
-37.170167 -49.59843 54.091994
-37.111877 -48.879478 55.21521
-37.306309 -50.327568 53.0004
-36.853296 -50.798488 53.799162
-37.170167 -49.59843 54.091994
-37.832122 -49.900272 52.319469
-38.36787 -49.452148 51.622839
-37.515251 -51.10033 52.026638
-37.306309 -50.327568 53.0004
-37.832122 -49.900272 52.319469
-39.477863 -52.002678 49.376027
-39.023681 -51.111723 50.000382
-39.291542 -53.25243 49.170729
-39.477863 -52.002678 49.376027
-39.095757 -54.479679 48.940199
-38.579403 -53.573742 49.529072
-39.291542 -53.25243 49.170729
-38.942041 -55.725664 48.749398
-39.095757 -54.479679 48.940199
-31.355065 -68.155823 53.233076
-31.925108 -67.8583 52.502029
3 0 96 97
3 99 98 26
3 1 100 102
3 100 27 101
3 100 101 102
3 1 29 27
3 2 32 30
3 2 34 32
3 2 36 34
3 3 103 105
3 103 104 105
3 4 106 108
3 106 107 108
3 4 109 110
3 4 111 112
3 5 39 37
3 5 41 39
3 6 43 42
3 6 45 43
3 6 47 45
3 7 50 48
3 7 52 50
3 7 54 52
3 8 113 115
3 115 114 55
3 113 114 115
3 8 116 117
3 9 118 120
3 120 119 57
3 118 119 120
3 10 121 122
3 10 123 125
3 123 58 124
3 123 124 125
3 10 60 58
3 12 61 28
3 12 62 61
3 13 63 31
3 13 64 63
3 13 66 64
3 15 67 33
3 15 68 67
3 15 70 68
3 17 71 35
3 17 72 71
3 11 126 128
3 128 127 59
3 126 127 128
3 18 129 131
3 131 130 38
3 129 130 131
3 18 132 133
3 18 134 135
3 19 73 40
3 19 74 73
3 136 75 137
3 20 138 139
3 20 140 141
3 20 142 144
3 142 76 143
3 142 143 144
3 21 77 44
3 21 78 77
3 21 79 78
3 22 80 46
3 22 81 80
3 14 82 65
3 23 83 49
3 23 84 83
3 23 85 84
3 24 86 51
3 24 87 86
3 24 88 87
3 25 89 53
3 25 90 89
3 16 91 69
3 145 92 146
3 147 146 56
3 145 146 147
3 148 93 149
3 150 149 92
3 148 149 150
3 152 151 93
3 153 94 154
3 155 95 156
3 157 156 94
3 155 156 157
3 26 158 160
3 160 159 9
3 158 159 160
3 162 161 26
3 27 163 164
3 27 165 167
3 165 10 166
3 165 166 167
3 27 28 10
3 29 28 27
3 29 12 28
3 30 168 170
3 168 31 169
3 168 169 170
3 32 31 30
3 32 13 31
3 32 33 13
3 34 33 32
3 34 15 33
3 34 35 15
3 36 35 34
3 36 17 35
3 37 38 11
3 39 38 37
3 39 18 38
3 39 40 18
3 41 40 39
3 41 19 40
3 42 171 172
3 43 173 175
3 175 174 42
3 173 174 175
3 43 176 178
3 176 20 177
3 176 177 178
3 43 44 20
3 45 44 43
3 45 21 44
3 45 46 21
3 47 46 45
3 47 22 46
3 48 49 14
3 50 49 48
3 50 23 49
3 50 51 23
3 52 51 50
3 52 24 51
3 52 53 24
3 54 53 52
3 54 25 53
3 55 56 16
3 179 56 180
3 181 180 55
3 179 180 181
3 183 182 56
3 57 184 186
3 186 185 3
3 184 185 186
3 188 187 57
3 190 189 9
3 58 191 192
3 58 193 195
3 193 4 194
3 193 194 195
3 58 59 4
3 60 59 58
3 60 11 59
3 28 60 10
3 61 60 28
3 61 11 60
3 61 37 11
3 62 37 61
3 62 5 37
3 31 196 197
3 63 198 200
3 200 199 31
3 198 199 200
3 63 201 202
3 63 203 205
3 203 42 204
3 203 204 205
3 64 42 63
3 64 6 42
3 64 65 6
3 66 65 64
3 66 14 65
3 33 66 13
3 67 66 33
3 67 14 66
3 67 48 14
3 68 48 67
3 68 7 48
3 68 69 7
3 70 69 68
3 70 16 69
3 35 70 15
3 71 70 35
3 71 16 70
3 71 55 16
3 72 55 71
3 72 8 55
3 206 1 207
3 208 30 209
3 210 30 211
3 212 2 213
3 214 213 30
3 212 213 214
3 217 216 2
3 215 216 217
3 219 218 0
3 221 220 3
3 59 222 224
3 224 223 4
3 222 223 224
3 226 225 59
3 38 227 229
3 229 228 11
3 227 228 229
3 231 230 38
3 40 232 234
3 234 233 18
3 232 233 234
3 73 235 237
3 237 236 40
3 235 236 237
3 73 238 239
3 73 240 241
3 74 242 244
3 244 243 73
3 242 243 244
3 74 245 247
3 245 0 246
3 245 246 247
3 75 248 249
3 75 250 252
3 250 1 251
3 250 251 252
3 76 253 255
3 253 254 255
3 76 256 257
3 44 76 20
3 77 76 44
3 77 258 260
3 260 259 76
3 258 259 260
3 77 261 263
3 261 75 262
3 261 262 263
3 78 75 77
3 78 1 75
3 78 29 1
3 79 29 78
3 79 12 29
3 46 79 21
3 80 79 46
3 80 12 79
3 80 62 12
3 81 62 80
3 81 5 62
3 65 47 6
3 82 47 65
3 82 22 47
3 49 82 14
3 83 82 49
3 83 22 82
3 83 81 22
3 84 81 83
3 84 5 81
3 84 41 5
3 85 41 84
3 85 19 41
3 51 85 23
3 86 85 51
3 86 19 85
3 86 74 19
3 87 74 86
3 87 0 74
3 87 264 266
3 266 265 0
3 264 265 266
3 88 267 269
3 269 268 87
3 267 268 269
3 88 270 271
3 53 88 24
3 89 88 53
3 89 272 274
3 274 273 88
3 272 273 274
3 89 275 276
3 90 277 279
3 279 278 89
3 277 278 279
3 90 280 282
3 280 3 281
3 280 281 282
3 69 54 7
3 91 54 69
3 91 25 54
3 56 91 16
3 92 91 56
3 92 25 91
3 92 90 25
3 93 90 92
3 93 3 90
3 93 57 3
3 283 57 284
3 285 284 93
3 283 284 285
3 286 9 287
3 288 287 57
3 286 287 288
3 289 9 290
3 291 26 292
3 293 292 9
3 291 292 293
3 294 26 295
3 298 297 26
3 296 297 298
3 299 36 300
3 301 300 2
3 299 300 301
3 302 36 303
3 304 17 305
3 306 305 36
3 304 305 306
3 94 307 308
3 94 309 311
3 309 17 310
3 309 310 311
3 94 72 17
3 95 72 94
3 95 8 72
3 312 95 313
3 314 95 315
3 316 8 317
3 318 317 95
3 316 317 318
3 320 319 8
3 322 321 0
