ply
format ascii 1.0
element vertex 57
property float x
property float y
property float z
element face 38
property list uchar int vertex_index
end_header
28.642673 -8.074938 -47.171738
28.849384 -18.570335 -40.381004
28.553909 -16.201113 -42.675751
28.604658 -13.365813 -43.930229
28.743889 -10.586357 -44.985062
28.883574 -13.211977 -43.313087
28.790878 -14.579686 -42.779506
29.111404 -19.726406 -39.19445
29.217202 -18.365302 -39.811798
28.816381 -19.97875 -39.678421
29.111404 -19.726406 -39.19445
28.7233 -18.830927 -40.814601
28.816381 -19.97875 -39.678421
28.625601 -16.479802 -43.053421
28.559976 -14.998935 -43.775738
28.596311 -9.488454 -46.652378
28.646918 -10.744164 -45.55904
28.693281 -9.330647 -46.0784
28.913241 -17.181947 -41.004894
29.217202 -18.365302 -39.811798
28.765503 -15.997336 -42.152268
28.701647 -17.385724 -41.528377
28.913241 -17.181947 -41.004894
28.579284 -14.783463 -43.30299
28.765503 -15.997336 -42.152268
28.790878 -14.579686 -42.779506
28.58535 -13.581285 -44.402977
28.559976 -14.998935 -43.775738
28.579284 -14.783463 -43.30299
28.749683 -8.253363 -47.701496
28.772894 -6.816645 -48.210705
29.067465 -10.477678 -44.268547
28.953189 -11.822249 -43.840504
28.84955 -9.226968 -45.395791
29.067465 -10.477678 -44.268547
28.798941 -7.971259 -46.489128
28.693281 -9.330647 -46.0784
28.84955 -9.226968 -45.395791
28.735294 -6.697911 -47.562939
28.798941 -7.971259 -46.489128
28.772894 -6.816645 -48.210705
28.735294 -6.697911 -47.562939
28.575563 -17.646316 -41.961975
28.7233 -18.830927 -40.814601
28.701647 -17.385724 -41.528377
28.575563 -17.646316 -41.961975
28.625601 -16.479802 -43.053421
28.674273 -11.976085 -44.457645
28.883574 -13.211977 -43.313087
28.953189 -11.822249 -43.840504
28.577303 -12.133892 -45.031623
28.674273 -11.976085 -44.457645
28.646918 -10.744164 -45.55904
28.58535 -13.581285 -44.402977
28.577303 -12.133892 -45.031623
28.596311 -9.488454 -46.652378
28.749683 -8.253363 -47.701496
3 5 3 6
3 1 7 8
3 1 9 10
3 1 11 12
3 14 13 2
3 0 15 17
3 17 16 4
3 15 16 17
3 18 1 19
3 20 2 21
3 22 21 1
3 20 21 22
3 3 23 25
3 23 2 24
3 23 24 25
3 3 26 28
3 28 27 2
3 26 27 28
3 30 29 0
3 31 4 32
3 33 4 34
3 35 0 36
3 37 36 4
3 35 36 37
3 38 0 39
3 41 40 0
3 2 42 44
3 44 43 1
3 42 43 44
3 46 45 2
3 4 47 49
3 47 3 48
3 47 48 49
3 50 3 51
3 52 51 4
3 50 51 52
3 54 53 3
3 56 55 0
