ply
format ascii 1.0
element vertex 201
property float x
property float y
property float z
element face 162
property list uchar int vertex_index
end_header
26.237247 -50.730114 -22.496977
16.179115 -53.338146 -12.451799
25.883593 -41.957405 -22.698122
15.196817 -53.373043 -9.634317
22.677483 -52.117405 -20.03034
19.385601 -48.887589 -13.945679
21.016479 -48.221149 -17.107676
22.994665 -47.138847 -20.127211
26.828815 -53.829262 -22.035299
28.6443 -52.802486 -23.450129
21.035839 -52.552109 -18.869101
20.175472 -48.600384 -15.5403
23.634579 -45.301624 -19.737257
24.510277 -44.491058 -21.389898
24.149979 -46.406712 -21.600355
25.438358 -43.537601 -23.038561
15.701649 -53.372261 -11.045338
24.441334 -51.518257 -21.222101
16.341927 -51.192516 -10.226526
17.039124 -51.1287 -11.723143
17.697672 -51.012829 -13.225504
18.398287 -50.844749 -14.711592
19.211853 -50.617737 -16.160036
20.187937 -50.317505 -17.556826
22.802486 -45.974571 -18.065256
21.94945 -47.738651 -18.635798
21.347637 -49.923382 -18.901976
22.681633 -49.411217 -20.213148
24.152699 -48.756805 -21.52434
25.702587 -47.939072 -22.87945
26.556633 -40.78904 -24.520727
26.533031 -52.279688 -22.266138
25.853207 -54.227566 -21.410206
25.557423 -52.677992 -21.641044
27.10642 -50.2337 -23.198757
27.402203 -51.783274 -22.967918
26.533031 -52.279688 -22.266138
15.709725 -54.621391 -12.659882
15.069091 -55.886117 -12.222338
15.53848 -54.602873 -12.014256
16.454963 -53.307846 -13.143973
15.709725 -54.621391 -12.659882
20.313598 -52.7027 -18.280308
20.133823 -54.18397 -18.20707
25.196935 -43.224232 -22.04401
24.860694 -43.733306 -21.13651
25.547352 -42.46648 -21.790623
29.45246 -52.174112 -24.247684
29.114202 -50.668558 -24.454536
14.918903 -54.59615 -9.947669
14.770669 -54.558001 -9.282739
15.449233 -53.372652 -10.339827
15.171319 -54.595759 -10.65318
14.918903 -54.59615 -9.947669
22.782318 -53.661127 -19.843866
21.823364 -53.853838 -19.313142
23.559408 -51.817831 -20.62622
23.664244 -53.361553 -20.439747
22.782318 -53.661127 -19.843866
17.034939 -50.202604 -10.494597
16.540147 -50.225032 -9.722415
17.383538 -50.170696 -11.242905
16.690525 -51.160608 -10.974835
17.034939 -50.202604 -10.494597
18.988169 -48.988941 -13.145433
19.829234 -48.058255 -13.457765
18.541637 -49.950209 -13.585591
18.144204 -50.051562 -12.785346
18.988169 -48.988941 -13.145433
23.659945 -44.906887 -18.565724
23.287847 -45.260364 -17.656204
24.7727 -47.142521 -22.305239
24.151339 -47.581758 -21.562348
24.771339 -45.967474 -22.343246
25.547643 -46.733654 -22.982794
24.927643 -48.347938 -22.201895
24.7727 -47.142521 -22.305239
26.900455 -40.132649 -25.443048
27.039282 -39.462124 -25.274828
26.485151 -41.613236 -24.613878
26.900455 -40.132649 -25.443048
26.069698 -55.911108 -21.174112
25.853207 -54.227566 -21.410206
27.076517 -55.490237 -21.811096
26.069698 -55.911108 -21.174112
27.736557 -53.315874 -22.742714
27.98426 -54.976849 -22.518511
27.076517 -55.490237 -21.811096
28.309946 -51.269886 -23.675333
27.736557 -53.315874 -22.742714
27.402203 -51.783274 -22.967918
29.114202 -50.668558 -24.454536
28.309946 -51.269886 -23.675333
14.883525 -53.350649 -8.93355
14.770669 -54.558001 -9.282739
14.457377 -54.535607 -8.581973
21.002542 -54.07119 -18.732523
20.133823 -54.18397 -18.20707
21.856661 -52.334757 -19.44972
21.823364 -53.853838 -19.313142
21.002542 -54.07119 -18.732523
20.274013 -47.909859 -14.30589
19.829234 -48.058255 -13.457765
20.668948 -47.766256 -15.1032
19.780537 -48.743986 -14.74299
20.274013 -47.909859 -14.30589
21.083014 -47.558186 -15.95581
20.668948 -47.766256 -15.1032
21.503518 -47.368568 -16.739498
20.595976 -48.410766 -16.323988
21.083014 -47.558186 -15.95581
24.422845 -44.138589 -20.31019
24.075992 -44.570414 -19.401724
24.072428 -44.896341 -20.563578
24.422845 -44.138589 -20.31019
24.860694 -43.733306 -21.13651
25.415529 -44.532919 -23.062349
24.771339 -45.967474 -22.343246
24.794168 -44.972156 -22.319458
28.88827 -54.429865 -23.250273
27.98426 -54.976849 -22.518511
28.88827 -54.429865 -23.250273
29.45246 -52.174112 -24.247684
26.269364 -41.338482 -22.389372
25.547352 -42.46648 -21.790623
15.299747 -54.61993 -11.311025
15.171319 -54.595759 -10.65318
15.940382 -53.355204 -11.748568
15.53848 -54.602873 -12.014256
15.299747 -54.61993 -11.311025
24.659467 -53.072063 -21.003607
23.664244 -53.361553 -20.439747
25.339291 -51.124185 -21.859539
25.557423 -52.677992 -21.641044
24.659467 -53.072063 -21.003607
15.363408 -52.286938 -9.194062
14.883525 -53.350649 -8.93355
15.050116 -52.264544 -8.493296
15.935963 -51.196674 -9.490167
16.540147 -50.225032 -9.722415
15.769372 -52.28278 -9.930421
15.363408 -52.286938 -9.194062
15.935963 -51.196674 -9.490167
17.81493 -50.109497 -12.034166
17.383538 -50.170696 -11.242905
17.368398 -51.070765 -12.474324
17.81493 -50.109497 -12.034166
18.144204 -50.051562 -12.785346
17.214242 -52.145188 -13.530826
16.454963 -53.307846 -13.143973
16.938394 -52.175488 -12.838652
17.564549 -52.061148 -14.273869
17.214242 -52.145188 -13.530826
18.04798 -50.928789 -13.968548
17.922622 -52.016267 -14.945439
17.564549 -52.061148 -14.273869
18.329405 -51.902761 -15.669662
17.922622 -52.016267 -14.945439
18.80507 -50.731243 -15.435814
18.801567 -51.83618 -16.312939
18.329405 -51.902761 -15.669662
19.289609 -51.686064 -17.011333
18.801567 -51.83618 -16.312939
19.699895 -50.467621 -16.858431
19.889647 -51.585398 -17.62417
19.289609 -51.686064 -17.011333
22.396521 -46.245279 -17.218288
23.287847 -45.260364 -17.656204
21.909482 -47.09786 -17.586466
21.503518 -47.368568 -16.739498
22.396521 -46.245279 -17.218288
23.218532 -45.638098 -18.901257
23.659945 -44.906887 -18.565724
24.075992 -44.570414 -19.401724
20.469496 -51.388336 -18.296746
19.889647 -51.585398 -17.62417
20.767787 -50.120443 -18.229401
21.191738 -51.237746 -18.885539
20.313598 -52.7027 -18.280308
20.469496 -51.388336 -18.296746
26.497664 -40.731093 -23.372261
26.269364 -41.338482 -22.389372
26.834184 -40.14691 -24.283563
27.039282 -39.462124 -25.274828
26.220113 -41.373222 -23.609425
26.497664 -40.731093 -23.372261
26.834184 -40.14691 -24.283563
25.926013 -42.987516 -23.872795
25.997495 -42.16332 -23.779644
26.485151 -41.613236 -24.613878
25.415529 -44.532919 -23.062349
25.926013 -42.987516 -23.872795
26.193731 -46.215647 -23.749916
25.547643 -46.733654 -22.982794
26.482665 -47.440819 -23.600699
26.193731 -46.215647 -23.749916
26.749995 -48.83634 -23.409462
25.969917 -49.334593 -22.688213
26.482665 -47.440819 -23.600699
27.10642 -50.2337 -23.198757
26.749995 -48.83634 -23.409462
3 0 31 33
3 31 8 32
3 31 32 33
3 0 34 36
3 36 35 8
3 34 35 36
3 1 37 39
3 37 38 39
3 1 40 41
3 42 10 43
3 2 44 46
3 44 13 45
3 44 45 46
3 2 15 13
3 48 47 9
3 3 49 50
3 3 51 53
3 51 16 52
3 51 52 53
3 4 54 55
3 4 56 58
3 56 17 57
3 56 57 58
3 59 18 60
3 61 19 62
3 63 62 18
3 61 62 63
3 5 64 65
3 5 66 68
3 66 20 67
3 66 67 68
3 5 21 20
3 6 22 11
3 6 23 22
3 69 24 70
3 7 25 12
3 7 26 25
3 7 27 26
3 71 28 72
3 73 72 14
3 71 72 73
3 74 29 75
3 76 75 28
3 74 75 76
3 77 30 78
3 80 79 30
3 8 81 82
3 8 83 84
3 8 85 87
3 85 9 86
3 85 86 87
3 88 9 89
3 90 89 8
3 88 89 90
3 92 91 9
3 93 3 94
3 93 94 95
3 10 96 97
3 10 98 100
3 98 4 99
3 98 99 100
3 101 5 102
3 103 11 104
3 105 104 5
3 103 104 105
3 106 11 107
3 108 6 109
3 110 109 11
3 108 109 110
3 111 12 112
3 13 113 115
3 113 12 114
3 113 114 115
3 13 7 12
3 13 14 7
3 15 14 13
3 15 116 118
3 118 117 14
3 116 117 118
3 9 119 120
3 122 121 9
3 123 2 124
3 16 125 126
3 16 127 129
3 127 1 128
3 127 128 129
3 17 130 131
3 17 132 134
3 132 0 133
3 132 133 134
3 135 3 136
3 135 136 137
3 18 138 139
3 18 140 142
3 140 3 141
3 140 141 142
3 18 16 3
3 19 16 18
3 19 1 16
3 143 19 144
3 20 145 147
3 145 19 146
3 145 146 147
3 20 1 19
3 20 148 150
3 150 149 1
3 148 149 150
3 21 151 153
3 153 152 20
3 151 152 153
3 21 154 155
3 11 21 5
3 22 21 11
3 22 156 158
3 158 157 21
3 156 157 158
3 22 159 160
3 23 161 163
3 163 162 22
3 161 162 163
3 23 164 165
3 24 166 167
3 24 168 170
3 168 6 169
3 168 169 170
3 12 171 173
3 171 24 172
3 171 172 173
3 25 24 12
3 25 6 24
3 25 23 6
3 26 23 25
3 26 174 176
3 176 175 23
3 174 175 176
3 26 177 179
3 177 10 178
3 177 178 179
3 27 10 26
3 27 4 10
3 14 27 7
3 28 27 14
3 28 4 27
3 28 17 4
3 29 17 28
3 29 0 17
3 180 2 181
3 30 182 183
3 30 184 186
3 184 2 185
3 184 185 186
3 30 15 2
3 187 15 188
3 189 188 30
3 187 188 189
3 191 190 15
3 192 29 193
3 194 29 195
3 196 0 197
3 198 197 29
3 196 197 198
3 200 199 0
