ply
format ascii 1.0
element vertex 308
property float x
property float y
property float z
element face 323
property list uchar int vertex_index
end_header
-16.946491 -125.937897 -13.051924
-6.040543 -122.448044 13.817093
-28.226177 -119.360275 -11.564283
-15.990278 -122.60614 8.701454
-7.077288 -126.060013 -9.699503
-15.789948 -121.723206 -19.896633
-9.641903 -127.439819 -0.296653
-20.306087 -123.670959 -2.616957
-11.625851 -126.930634 -11.931301
-10.916727 -124.833389 -15.677078
-16.222326 -124.567154 -17.232029
-5.147615 -126.222824 2.090267
-7.38973 -125.646332 6.793852
-17.795033 -123.926102 3.021054
-22.618553 -123.249863 -12.883871
-22.059128 -122.686523 -17.439827
-27.92186 -119.472504 -16.220509
-9.794542 -119.950836 17.263462
-10.708435 -123.485428 10.962181
-7.959574 -127.478043 -5.24765
-12.810726 -127.543854 -7.119911
-12.372656 -125.788925 4.532166
-14.822994 -126.506104 -1.914108
-18.207005 -125.618271 -7.934795
-23.776619 -122.083832 -7.68351
-14.21437 -126.664291 -12.649378
-13.800889 -125.973328 -14.795216
-16.53751 -125.454285 -15.304104
-4.493393 -123.093277 11.74914
-5.18672 -124.768066 8.126537
-6.60046 -124.191452 10.323257
-22.371172 -120.526962 4.870198
-25.454006 -121.412231 -12.349493
-25.180611 -121.535995 -14.774675
-28.010664 -119.631912 -13.966883
-13.212883 -123.50856 -18.026272
-10.65661 -123.308945 -17.015499
-7.284554 -127.101212 0.818455
-6.446766 -127.069672 -1.617998
-8.675562 -127.655838 -2.796795
-10.291332 -127.76973 -6.304916
-11.108961 -127.708252 -3.77552
-13.296169 -123.268295 9.735656
-11.448538 -124.821838 7.763455
-14.093466 -124.374817 6.720985
-18.944267 -123.983185 0.169012
-16.194172 -125.390518 0.620174
-17.546741 -125.296982 -2.381472
-16.389027 -126.255295 -5.016462
-19.138416 -124.829544 -5.260273
-20.98827 -124.014664 -7.934111
-21.91185 -123.026901 -5.261396
-30.885925 -117.198853 -10.580093
-30.722105 -117.567062 -12.91221
-9.232843 -126.726273 -10.931122
-8.883163 -125.684998 -12.878119
-11.233387 -126.050797 -13.970858
-13.474566 -124.909714 -16.60363
-15.974969 -123.311111 -18.772167
-6.119875 -126.125168 4.474324
-8.403444 -126.744583 3.243722
-16.820988 -123.470261 5.878182
-19.589972 -122.165604 5.256014
-20.564964 -122.371628 2.590533
-21.713757 -122.203537 -0.058826
-23.078821 -121.70929 -2.626463
-19.766096 -124.782501 -13.126997
-19.386347 -124.513214 -15.46974
-22.287107 -123.188171 -15.287437
-25.019669 -121.218491 -16.998829
-27.905663 -118.882965 -18.246193
-30.704016 -117.523605 -15.147633
-30.766956 -117.06279 -17.216572
-7.827702 -121.405975 15.668017
-8.274389 -123.218063 12.340301
-10.153381 -121.836792 14.125523
-12.654169 -121.806335 12.710018
-15.285964 -121.352295 11.477978
-8.592148 -124.341339 -14.509146
-19.104805 -123.817093 -17.518291
-4.463816 -125.96817 -0.287748
-5.859705 -126.677597 -3.992239
-7.447817 -126.934143 -7.571594
-9.68355 -127.432922 -8.71722
-12.135044 -127.438202 -9.62044
-14.754519 -126.951004 -10.242201
-8.934401 -124.768295 8.977233
-9.801403 -125.985031 5.582063
-10.87756 -126.816605 2.171957
-15.052617 -125.086456 3.672337
-13.491259 -126.35347 1.291049
-12.17197 -127.234726 -1.215595
-13.697321 -127.231903 -4.520927
-15.466396 -126.814423 -7.665953
-17.488676 -125.994141 -10.563042
-20.285477 -124.612442 -10.583506
-23.099398 -122.872528 -10.321081
-25.892433 -120.861069 -9.80621
-24.688637 -120.937225 -5.036615
-26.547127 -119.922836 -7.211908
-28.629427 -118.680252 -9.08025
-5.046055 -121.815384 14.571542
-5.880453 -121.473374 15.542363
-5.266968 -122.77066 12.783117
-4.27248 -122.138001 13.537566
-5.046055 -121.815384 14.571542
-6.931511 -125.475212 -10.637254
-6.13267 -125.50882 -8.997813
-14.403541 -121.761887 -19.473408
-13.115009 -122.654564 -18.538227
-14.501416 -122.615883 -18.961453
-15.736481 -120.779267 -20.257599
-14.403541 -121.761887 -19.473408
-32.070345 -116.321404 -11.123627
-32.127586 -116.120934 -10.021539
-20.558549 -121.167023 6.292042
-19.168129 -121.859161 6.573457
-21.953589 -121.434616 2.489585
-21.468068 -121.449295 3.730366
-22.856693 -120.512283 3.629417
-22.527985 -121.350571 1.164905
-21.139361 -122.287582 1.265854
-21.953589 -121.434616 2.489585
-23.101816 -121.169761 -0.061524
-22.527985 -121.350571 1.164905
-32.005336 -116.491165 -14.490416
-30.71306 -117.545333 -14.029922
-32.014381 -116.512894 -13.372705
-32.193185 -115.69046 -17.502938
-32.107241 -116.072342 -16.557464
-30.81373 -116.630157 -18.131163
-32.193185 -115.69046 -17.502938
-8.700565 -119.682541 18.1131
-9.720246 -118.930145 18.826794
-8.811122 -120.678405 16.46574
-7.717145 -120.410111 17.315378
-8.700565 -119.682541 18.1131
-13.681856 -120.781288 13.464863
-12.4148 -120.929306 14.183669
-14.997754 -120.554268 12.848844
-13.970066 -121.579315 12.093998
-13.681856 -120.781288 13.464863
-9.500823 -123.01271 -16.407231
-10.559252 -122.403282 -17.499125
-4.805715 -126.095497 0.901259
-3.86693 -125.400292 1.588921
-4.20883 -125.527619 2.777928
-25.271937 -120.221435 -3.729025
-23.883729 -121.323257 -3.831539
-24.46703 -120.607468 -2.523949
-27.911644 -118.780296 -6.885203
-27.00144 -119.292214 -5.911052
-28.952794 -118.159004 -7.819374
-27.588277 -119.301544 -8.146079
-27.911644 -118.780296 -6.885203
-29.949195 -117.560288 -8.639152
-28.952794 -118.159004 -7.819374
-3.574891 -122.297432 12.469145
-4.27248 -122.138001 13.537566
-3.864786 -123.232101 10.63721
-3.574891 -122.297432 12.469145
-4.840057 -123.930672 9.937839
-4.21145 -124.069496 8.825909
-3.864786 -123.232101 10.63721
-23.338642 -119.520629 5.950053
-21.949149 -120.347702 6.099134
-23.759684 -119.575554 4.800561
-23.338642 -119.520629 5.950053
-22.856693 -120.512283 3.629417
-23.759684 -119.575554 4.800561
-10.835355 -119.017761 17.932713
-9.720246 -118.930145 18.826794
-10.984986 -120.001556 16.460391
-10.835355 -119.017761 17.932713
-11.836872 -122.554756 -18.03284
-11.934746 -123.408752 -17.520885
-13.115009 -122.654564 -18.538227
-10.559252 -122.403282 -17.499125
-11.836872 -122.554756 -18.03284
-21.978534 -122.226417 -18.348596
-23.492819 -121.57862 -18.188669
-31.988435 -116.505508 -12.289685
-30.804015 -117.382958 -11.746151
-32.070345 -116.321404 -11.123627
-32.014381 -116.512894 -13.372705
-31.988435 -116.505508 -12.289685
-4.610017 -125.596893 3.953882
-4.20883 -125.527619 2.777928
-4.62957 -124.869515 6.972017
-4.21145 -124.069496 8.825909
-5.096148 -125.548066 5.145911
-4.62957 -124.869515 6.972017
-5.653298 -125.446617 6.300431
-5.633745 -126.173996 3.282296
-4.610017 -125.596893 3.953882
-5.096148 -125.548066 5.145911
-17.783637 -122.51149 6.884541
-16.405633 -123.0382 7.289818
-17.368282 -122.07943 8.296177
-18.20548 -122.817932 5.567098
-17.783637 -122.51149 6.884541
-19.168129 -121.859161 6.573457
-20.980572 -121.346283 5.063106
-20.558549 -121.167023 6.292042
-21.949149 -120.347702 6.099134
-23.784348 -120.922638 -1.345343
-22.396289 -121.956413 -1.342645
-23.101816 -121.169761 -0.061524
-24.46703 -120.607468 -2.523949
-23.784348 -120.922638 -1.345343
-24.97309 -120.844605 -17.96817
-23.492819 -121.57862 -18.188669
-23.539399 -121.952507 -17.219328
-26.416086 -119.676841 -18.591852
-24.97309 -120.844605 -17.96817
-26.462666 -120.050728 -17.622511
-27.913646 -118.384003 -19.108473
-26.416086 -119.676841 -18.591852
-32.07577 -116.30275 -15.522994
-32.005336 -116.491165 -14.490416
-30.735486 -117.293198 -16.182102
-32.07577 -116.30275 -15.522994
-32.107241 -116.072342 -16.557464
-29.383083 -117.540245 -18.645973
-29.336309 -117.972878 -17.731383
-30.81373 -116.630157 -18.131163
-27.913646 -118.384003 -19.108473
-29.383083 -117.540245 -18.645973
-6.774033 -120.952339 16.467825
-7.717145 -120.410111 17.315378
-6.934123 -121.927009 14.742555
-5.880453 -121.473374 15.542363
-6.774033 -120.952339 16.467825
-11.164406 -120.944535 14.891421
-9.973961 -120.893814 15.694492
-10.984986 -120.001556 16.460391
-11.403775 -121.821563 13.41777
-11.164406 -120.944535 14.891421
-12.4148 -120.929306 14.183669
-16.321017 -120.234673 12.245109
-14.997754 -120.554268 12.848844
-16.645252 -120.939865 10.976023
-16.321017 -120.234673 12.245109
-16.997408 -121.566788 9.587761
-15.638121 -121.979218 10.089716
-16.645252 -120.939865 10.976023
-17.368282 -122.07943 8.296177
-16.997408 -121.566788 9.587761
-7.834448 -125.287704 -12.226562
-6.931511 -125.475212 -10.637254
-7.980225 -125.872505 -11.288811
-7.688941 -124.615875 -13.042075
-7.834448 -125.287704 -12.226562
-8.737655 -125.013169 -13.693632
-7.561625 -123.895416 -13.833506
-7.688941 -124.615875 -13.042075
-8.468592 -123.528908 -15.154055
-9.624379 -123.825142 -15.762322
-9.500823 -123.01271 -16.407231
-7.561625 -123.895416 -13.833506
-8.468592 -123.528908 -15.154055
-20.501372 -122.791702 -18.387829
-20.581967 -123.251808 -17.479059
-21.978534 -122.226417 -18.348596
-18.997878 -123.270493 -18.357351
-20.501372 -122.791702 -18.387829
-17.556638 -123.645523 -18.21422
-17.663565 -124.192124 -17.37516
-18.997878 -123.270493 -18.357351
-17.43296 -123.017502 -18.984289
-16.098647 -123.939132 -18.002098
-17.556638 -123.645523 -18.21422
-17.353522 -122.291641 -19.615865
-17.43296 -123.017502 -18.984289
-17.261011 -121.497689 -20.178099
-15.882459 -122.517158 -19.3344
-17.353522 -122.291641 -19.615865
-17.212802 -120.612229 -20.600758
-17.261011 -121.497689 -20.178099
-15.736481 -120.779267 -20.257599
-17.212802 -120.612229 -20.600758
-6.270901 -126.010643 -7.968542
-6.13267 -125.50882 -8.997813
-3.610369 -125.17942 0.423426
-3.86693 -125.400292 1.588921
-4.244086 -125.683082 -1.441618
-3.610369 -125.17942 0.423426
-4.942031 -126.037796 -3.293864
-4.244086 -125.683082 -1.441618
-5.16176 -126.322884 -2.139994
-5.662109 -126.319435 -5.11491
-4.942031 -126.037796 -3.293864
-6.456166 -126.447708 -6.904587
-5.662109 -126.319435 -5.11491
-6.653761 -126.80587 -5.781917
-7.262552 -126.497078 -8.635549
-6.270901 -126.010643 -7.968542
-6.456166 -126.447708 -6.904587
-26.072195 -119.799408 -4.823405
-25.271937 -120.221435 -3.729025
-25.617882 -120.430031 -6.124262
-26.072195 -119.799408 -4.823405
-27.00144 -119.292214 -5.911052
-31.077444 -116.819588 -9.389074
-29.757676 -117.939552 -9.830171
-29.949195 -117.560288 -8.639152
-32.127586 -116.120934 -10.021539
-31.077444 -116.819588 -9.389074
3 0 27 25
3 1 101 102
3 1 103 105
3 103 28 104
3 103 104 105
3 1 30 28
3 2 34 32
3 4 106 107
3 5 108 110
3 110 109 35
3 108 109 110
3 5 111 112
3 6 39 37
3 6 41 39
3 3 44 42
3 7 47 45
3 7 49 47
3 7 51 49
3 114 113 52
3 8 56 54
3 10 57 26
3 10 58 57
3 12 59 29
3 12 60 59
3 115 62 116
3 117 63 118
3 119 118 31
3 117 118 119
3 120 64 121
3 122 121 63
3 120 121 122
3 124 123 64
3 14 68 66
3 16 69 33
3 16 70 69
3 125 71 126
3 127 126 53
3 125 126 127
3 128 72 129
3 131 130 72
3 17 132 133
3 17 134 136
3 134 73 135
3 134 135 136
3 17 75 73
3 137 76 138
3 139 77 140
3 141 140 76
3 139 140 141
3 9 78 55
3 143 142 36
3 15 79 67
3 11 144 146
3 144 80 145
3 144 145 146
3 19 81 38
3 19 82 81
3 19 83 82
3 20 84 40
3 20 85 84
3 18 86 74
3 21 87 43
3 21 88 87
3 13 89 61
3 22 90 46
3 22 91 90
3 22 92 91
3 23 93 48
3 23 94 93
3 23 95 94
3 24 96 50
3 24 97 96
3 147 98 148
3 149 148 65
3 147 148 149
3 150 99 151
3 152 100 153
3 154 153 99
3 152 153 154
3 156 155 100
3 25 26 8
3 27 26 25
3 27 10 26
3 28 157 158
3 28 159 160
3 28 161 163
3 161 29 162
3 161 162 163
3 30 29 28
3 30 12 29
3 164 31 165
3 166 31 167
3 169 168 31
3 32 33 14
3 34 33 32
3 34 16 33
3 170 17 171
3 173 172 17
3 35 36 9
3 174 36 175
3 176 175 35
3 174 175 176
3 178 177 36
3 180 179 15
3 37 38 11
3 39 38 37
3 39 19 38
3 39 40 19
3 41 40 39
3 41 20 40
3 42 43 18
3 44 43 42
3 44 21 43
3 45 46 13
3 47 46 45
3 47 22 46
3 47 48 22
3 49 48 47
3 49 23 48
3 49 50 23
3 51 50 49
3 51 24 50
3 52 53 2
3 181 53 182
3 183 182 52
3 181 182 183
3 185 184 53
3 54 55 4
3 56 55 54
3 56 9 55
3 26 56 8
3 57 56 26
3 57 9 56
3 57 35 9
3 58 35 57
3 58 5 35
3 186 11 187
3 29 188 189
3 59 190 192
3 192 191 29
3 190 191 192
3 59 193 195
3 193 11 194
3 193 194 195
3 59 37 11
3 60 37 59
3 60 6 37
3 196 61 197
3 198 197 3
3 196 197 198
3 62 199 201
3 199 61 200
3 199 200 201
3 62 13 61
3 31 202 204
3 202 62 203
3 202 203 204
3 63 62 31
3 63 13 62
3 63 45 13
3 64 45 63
3 64 7 45
3 64 65 7
3 205 65 206
3 207 206 64
3 205 206 207
3 209 208 65
3 66 67 0
3 68 67 66
3 68 15 67
3 33 68 14
3 69 68 33
3 69 15 68
3 69 210 212
3 212 211 15
3 210 211 212
3 70 213 215
3 215 214 69
3 213 214 215
3 70 216 217
3 53 34 2
3 71 34 53
3 71 16 34
3 218 71 219
3 72 220 222
3 220 71 221
3 220 221 222
3 72 16 71
3 72 70 16
3 223 70 224
3 225 224 72
3 223 224 225
3 227 226 70
3 73 228 229
3 73 230 232
3 230 1 231
3 230 231 232
3 73 74 1
3 75 74 73
3 75 18 74
3 233 75 234
3 235 234 17
3 233 234 235
3 76 236 238
3 236 75 237
3 236 237 238
3 76 18 75
3 76 42 18
3 77 42 76
3 77 3 42
3 239 77 240
3 241 77 242
3 243 3 244
3 245 244 77
3 243 244 245
3 247 246 3
3 55 248 250
3 250 249 4
3 248 249 250
3 78 251 253
3 253 252 55
3 251 252 253
3 78 254 255
3 36 78 9
3 256 78 257
3 258 257 36
3 256 257 258
3 260 259 78
3 67 27 0
3 79 27 67
3 79 10 27
3 261 79 262
3 263 262 15
3 261 262 263
3 264 79 265
3 266 10 267
3 268 267 79
3 266 267 268
3 269 58 270
3 271 270 10
3 269 270 271
3 272 58 273
3 274 5 275
3 276 275 58
3 274 275 276
3 277 5 278
3 280 279 5
3 281 4 282
3 80 283 284
3 80 285 286
3 38 80 11
3 81 80 38
3 81 287 289
3 289 288 80
3 287 288 289
3 81 290 291
3 82 292 294
3 294 293 81
3 292 293 294
3 82 295 297
3 295 4 296
3 295 296 297
3 82 54 4
3 83 54 82
3 83 8 54
3 40 83 19
3 84 83 40
3 84 8 83
3 84 25 8
3 85 25 84
3 85 0 25
3 74 30 1
3 86 30 74
3 86 12 30
3 43 86 18
3 87 86 43
3 87 12 86
3 87 60 12
3 88 60 87
3 88 6 60
3 61 44 3
3 89 44 61
3 89 21 44
3 46 89 13
3 90 89 46
3 90 21 89
3 90 88 21
3 91 88 90
3 91 6 88
3 91 41 6
3 92 41 91
3 92 20 41
3 48 92 22
3 93 92 48
3 93 20 92
3 93 85 20
3 94 85 93
3 94 0 85
3 94 66 0
3 95 66 94
3 95 14 66
3 50 95 23
3 96 95 50
3 96 14 95
3 96 32 14
3 97 32 96
3 97 2 32
3 65 51 7
3 98 51 65
3 98 24 51
3 298 98 299
3 99 300 302
3 300 98 301
3 300 301 302
3 99 24 98
3 99 97 24
3 100 97 99
3 100 2 97
3 100 52 2
3 303 52 304
3 305 304 100
3 303 304 305
3 307 306 52
