ply
format ascii 1.0
element vertex 358
property float x
property float y
property float z
element face 373
property list uchar int vertex_index
end_header
-37.245678 -111.40596 -7.303373
-27.066185 -116.647919 7.003837
-24.108671 -113.045563 15.184969
-41.539722 -105.369675 1.383375
-37.577251 -108.005997 9.18726
-31.391481 -114.756042 -1.4566
-33.369247 -115.043015 -9.462986
-37.738178 -111.342117 -10.683641
-18.129524 -110.380005 21.71978
-18.897633 -114.736343 16.749163
-39.496723 -106.665894 5.251007
-21.527126 -120.168442 7.32807
-23.342213 -120.497604 2.388636
-25.855238 -119.505646 -2.421434
-28.892775 -116.114014 2.6725
-14.709544 -119.756241 14.219709
-20.073219 -118.195206 12.083235
-25.560204 -115.71434 11.184525
-39.187763 -108.733948 -3.491049
-40.910721 -107.611206 -6.901716
-43.283192 -104.045288 -2.430103
-29.291946 -111.054276 15.263133
-30.897758 -112.595612 11.599581
-35.873718 -108.930817 13.063439
-32.476871 -112.481888 7.722781
-34.377052 -111.380615 3.755682
-36.755291 -110.016495 -0.033364
-34.479118 -113.08139 -4.947506
-29.276161 -117.637756 -6.558498
-35.572151 -113.027771 -8.307093
-35.533508 -113.372574 -10.291803
-37.456135 -111.468369 -8.83049
-20.405678 -109.676727 20.321377
-24.306112 -118.514297 7.029908
-25.148197 -118.624146 4.730924
-26.119129 -118.384705 2.418043
-27.913231 -116.526947 4.839754
-12.17543 -120.052277 15.65732
-14.276582 -117.888535 16.956785
-21.484108 -113.93721 15.765991
-19.44348 -116.621262 14.406096
-22.130508 -115.676437 13.615027
-22.820255 -117.046555 11.467495
-24.830465 -114.588974 13.192254
-40.356083 -107.078018 -1.116724
-41.339542 -106.466522 -2.91692
-42.474018 -104.730347 -0.523075
-31.769527 -109.921112 15.863333
-30.112507 -112.054901 13.453334
-32.628647 -110.595963 14.073153
-36.710651 -108.568237 11.143314
-34.247746 -110.68692 10.33458
-35.085224 -110.266937 8.394167
-33.365959 -112.003372 5.734012
-35.999966 -109.676666 6.435442
-40.526524 -106.006165 3.305403
-38.115551 -108.342178 2.571924
-39.254822 -107.697098 0.704986
-38.013878 -109.357346 -1.801178
-28.629961 -117.15799 -2.021053
-27.455753 -118.661591 -4.610195
-30.198734 -116.301178 -4.017075
-31.93292 -115.331009 -5.777937
-32.894299 -113.940903 -3.307486
-42.81221 -105.10405 -6.587679
-41.486614 -106.985565 -8.725439
-43.353588 -104.232086 -8.467518
-33.254765 -115.443954 -11.66716
-35.670628 -113.369751 -12.331533
-16.112839 -113.239944 20.726675
-16.392204 -115.390991 18.091629
-18.456909 -112.625931 19.169447
-20.90337 -111.906662 17.980646
-23.4132 -111.146271 17.220407
-42.671326 -103.660828 3.956002
-43.538166 -102.989868 1.951518
-38.504368 -107.346069 7.21634
-18.746286 -121.552719 7.8909
-24.489874 -120.135986 -0.064222
-27.269289 -117.871307 0.145988
-30.047836 -115.497986 0.554816
-16.811749 -117.378845 15.536228
-17.356071 -119.11705 13.012241
-18.004539 -120.527435 10.474068
-20.768358 -119.390381 9.732809
-23.541862 -117.997025 9.2788
-26.297276 -116.395355 9.124833
-38.107407 -110.245255 -5.639561
-38.943054 -109.782227 -7.161036
-40.166275 -108.160492 -5.16375
-42.156029 -105.827499 -4.732964
-43.956535 -103.264664 -4.350519
-44.305344 -102.272339 -0.048926
-25.94034 -110.37886 16.91802
-26.7258 -112.086197 15.022023
-27.503016 -113.381439 13.14455
-28.261562 -114.226059 11.235451
-29.013378 -114.623825 9.26825
-33.444168 -110.828918 12.231961
-31.671173 -112.712692 9.686646
-29.794958 -114.621719 7.243314
-30.658445 -114.301086 5.184504
-31.653969 -113.75975 3.131455
-32.809406 -113.090881 1.130341
-37.014168 -109.012558 4.486639
-35.518021 -110.699707 1.823666
-34.114189 -112.365875 -0.77449
-35.511154 -111.628311 -2.546881
-36.894848 -110.905548 -4.164789
-36.013878 -112.202835 -6.320473
-31.268963 -116.440323 -8.198055
-33.75367 -114.250397 -7.237442
-39.472527 -109.428497 -8.885834
-39.918404 -108.930252 -10.738447
-14.140934 -116.860123 18.342011
-13.076375 -117.986611 17.779375
-32.949024 -109.283798 16.306016
-32.469011 -108.886559 17.194869
-33.378584 -109.621223 15.410926
-32.199087 -110.258537 14.968243
-32.949024 -109.283798 16.306016
-37.143951 -108.287117 10.165287
-37.862983 -107.472145 11.584238
-38.296284 -107.191025 10.606211
-43.936339 -103.286987 -7.373918
-43.082899 -104.668068 -7.527598
-43.66565 -103.722969 -6.433998
-33.312006 -115.243484 -10.565073
-32.070345 -116.321404 -11.123627
-32.127586 -116.120934 -10.021539
-37.897754 -111.145629 -11.650229
-36.863979 -112.159447 -12.474175
-36.704403 -112.355934 -11.507587
-17.049388 -110.694016 22.600158
-16.934265 -109.544792 23.958971
-18.014401 -109.230782 23.078592
-17.121181 -111.809974 21.223228
-16.041045 -112.123985 22.103606
-17.049388 -110.694016 22.600158
-21.834683 -110.442147 18.672839
-20.654524 -110.791695 19.151011
-21.585838 -109.327179 19.843204
-23.089599 -110.061951 18.29272
-22.158285 -111.526466 17.600527
-21.834683 -110.442147 18.672839
-43.579235 -102.466408 4.210873
-43.179242 -102.819985 5.262738
-43.179242 -102.819985 5.262738
-42.208308 -103.995071 4.962864
-20.558549 -121.167023 6.292042
-19.168129 -121.859161 6.573457
-20.136706 -120.86058 7.609485
-21.953589 -121.434616 2.489585
-22.856693 -120.512283 3.629417
-22.527985 -121.350571 1.164905
-21.953589 -121.434616 2.489585
-23.916044 -120.316795 1.162207
-23.101816 -121.169761 -0.061524
-22.527985 -121.350571 1.164905
-13.681856 -120.781288 13.464863
-12.4148 -120.929306 14.183669
-13.442487 -119.904259 14.938515
-14.997754 -120.554268 12.848844
-13.681856 -120.781288 13.464863
-44.754858 -101.398575 1.159878
-43.921755 -102.631103 0.951296
-44.371269 -101.75734 2.1601
-26.75209 -109.063018 17.92167
-25.554333 -109.355339 17.90755
-28.864238 -110.328125 16.165604
-30.07479 -109.916733 16.446151
-28.008873 -111.570236 15.142578
-27.581165 -110.844086 16.045049
-28.864238 -110.328125 16.165604
-36.573957 -108.073761 14.501254
-37.013326 -107.920502 13.534005
-35.449232 -108.958916 13.998056
-36.573957 -108.073761 14.501254
-34.658943 -109.879868 12.6477
-34.234457 -109.907967 13.582317
-35.449232 -108.958916 13.998056
-25.271937 -120.221435 -3.729025
-24.46703 -120.607468 -2.523949
-27.911644 -118.780296 -6.885203
-27.00144 -119.292214 -5.911052
-28.365957 -118.149674 -5.584347
-28.952794 -118.159004 -7.819374
-27.911644 -118.780296 -6.885203
-30.272562 -117.03904 -7.378277
-29.949195 -117.560288 -8.639152
-28.952794 -118.159004 -7.819374
-40.945069 -107.556526 -10.662182
-40.702509 -107.957909 -9.731943
-41.729174 -106.584182 -9.655678
-40.12204 -108.562714 -11.674701
-40.945069 -107.556526 -10.662182
-19.059711 -108.860313 22.279496
-18.014401 -109.230782 23.078592
-20.197789 -108.508674 21.580295
-19.267601 -110.028366 21.020578
-19.059711 -108.860313 22.279496
-21.29175 -108.156944 21.000666
-20.197789 -108.508674 21.580295
-21.585838 -109.327179 19.843204
-21.29175 -108.156944 21.000666
-23.338642 -119.520629 5.950053
-21.949149 -120.347702 6.099134
-22.916619 -119.341369 7.178989
-23.759684 -119.575554 4.800561
-23.338642 -119.520629 5.950053
-24.727154 -118.569221 5.880416
-24.245205 -119.560875 3.55978
-22.856693 -120.512283 3.629417
-23.759684 -119.575554 4.800561
-12.025799 -119.068482 17.129642
-10.984986 -120.001556 16.460391
-10.835355 -119.017761 17.932713
-13.226006 -118.970406 16.307053
-12.025799 -119.068482 17.129642
-13.076375 -117.986611 17.779375
-31.313581 -109.350151 16.746251
-32.469011 -108.886559 17.194869
-30.530736 -110.487694 15.563233
-30.07479 -109.916733 16.446151
-31.313581 -109.350151 16.746251
-37.431793 -107.739212 12.573943
-37.862983 -107.472145 11.584238
-36.292184 -108.749527 12.103376
-37.013326 -107.920502 13.534005
-37.431793 -107.739212 12.573943
-42.662661 -105.207443 -9.526718
-41.729174 -106.584182 -9.655678
-42.420101 -105.608825 -8.596478
-31.988435 -116.505508 -12.289685
-32.070345 -116.321404 -11.123627
-33.28071 -115.45134 -12.75018
-32.014381 -116.512894 -13.372705
-31.988435 -116.505508 -12.289685
-34.488642 -114.414238 -13.082366
-33.28071 -115.45134 -12.75018
-34.462696 -114.406852 -11.999347
-35.781462 -113.194305 -13.339742
-34.488642 -114.414238 -13.082366
-35.781462 -113.194305 -13.339742
-36.863979 -112.159447 -12.474175
-15.007288 -113.453842 21.646384
-16.041045 -112.123985 22.103606
-15.059062 -114.535827 20.226957
-15.007288 -113.453842 21.646384
-16.252522 -114.315467 19.409152
-15.198745 -115.611351 18.909433
-15.059062 -114.535827 20.226957
-44.012655 -102.130928 3.208631
-43.104746 -103.325348 2.95376
-43.579235 -102.466408 4.210873
-44.371269 -101.75734 2.1601
-44.012655 -102.130928 3.208631
-38.73599 -106.861732 9.60134
-38.296284 -107.191025 10.606211
-39.199549 -106.531768 8.61588
-38.040809 -107.676033 8.2018
-38.73599 -106.861732 9.60134
-39.656176 -106.182274 7.604273
-39.199549 -106.531768 8.61588
-40.152353 -105.842186 6.621607
-39.000546 -107.005981 6.233674
-39.656176 -106.182274 7.604273
-40.621006 -105.497604 5.610366
-40.152353 -105.842186 6.621607
-41.135907 -105.16774 4.637564
-40.011623 -106.336029 4.278205
-40.621006 -105.497604 5.610366
-41.598925 -104.833496 3.630702
-41.135907 -105.16774 4.637564
-42.208308 -103.995071 4.962864
-17.783637 -122.51149 6.884541
-17.368282 -122.07943 8.296177
-17.783637 -122.51149 6.884541
-19.168129 -121.859161 6.573457
-20.558549 -121.167023 6.292042
-21.949149 -120.347702 6.099134
-23.784348 -120.922638 -1.345343
-23.101816 -121.169761 -0.061524
-25.172556 -119.820816 -1.242828
-24.46703 -120.607468 -2.523949
-23.784348 -120.922638 -1.345343
-11.164406 -120.944535 14.891421
-10.984986 -120.001556 16.460391
-11.164406 -120.944535 14.891421
-12.4148 -120.929306 14.183669
-15.334393 -116.639763 17.524207
-14.140934 -116.860123 18.342011
-15.198745 -115.611351 18.909433
-16.321017 -120.234673 12.245109
-14.997754 -120.554268 12.848844
-16.032808 -119.436645 13.615975
-16.645252 -120.939865 10.976023
-16.321017 -120.234673 12.245109
-17.680305 -119.822243 11.743154
-16.997408 -121.566788 9.587761
-16.645252 -120.939865 10.976023
-18.375413 -121.040077 9.182484
-17.368282 -122.07943 8.296177
-16.997408 -121.566788 9.587761
-44.237812 -102.803276 -5.315418
-43.66565 -103.722969 -6.433998
-43.384372 -104.184357 -5.469099
-45.06463 -100.980598 0.114658
-44.754858 -101.398575 1.159878
-44.631619 -101.865395 -1.049691
-45.06463 -100.980598 0.114658
-44.120542 -102.751869 -2.24028
-43.794268 -103.158814 -1.239514
-44.631619 -101.865395 -1.049691
-44.457214 -102.361557 -3.200488
-43.619864 -103.654976 -3.390311
-44.120542 -102.751869 -2.24028
-44.734406 -101.885406 -4.20038
-44.457214 -102.361557 -3.200488
-44.237812 -102.803276 -5.315418
-44.734406 -101.885406 -4.20038
-24.290764 -109.739045 18.058744
-23.089599 -110.061951 18.29272
-24.67677 -110.762565 17.069214
-24.290764 -109.739045 18.058744
-25.554333 -109.355339 17.90755
-27.188435 -109.990417 16.993047
-26.75209 -109.063018 17.92167
-26.33307 -111.232529 15.970021
-27.188435 -109.990417 16.993047
-27.581165 -110.844086 16.045049
-33.826696 -109.791489 14.502913
-33.378584 -109.621223 15.410926
-33.036407 -110.71244 13.152557
-33.826696 -109.791489 14.502913
-34.234457 -109.907967 13.582317
-26.072195 -119.799408 -4.823405
-25.271937 -120.221435 -3.729025
-26.655496 -119.083619 -3.515815
-26.072195 -119.799408 -4.823405
-27.00144 -119.292214 -5.911052
-31.077444 -116.819588 -9.389074
-29.949195 -117.560288 -8.639152
-32.319105 -115.741669 -8.830521
-32.127586 -116.120934 -10.021539
-31.077444 -116.819588 -9.389074
-38.987868 -109.939697 -11.677632
-37.897754 -111.145629 -11.650229
-38.828291 -110.136184 -10.711044
-38.987868 -109.939697 -11.677632
-40.12204 -108.562714 -11.674701
-44.182237 -102.738945 -8.331059
-43.936339 -103.286987 -7.373918
-43.588567 -103.700393 -9.398859
-44.182237 -102.738945 -8.331059
-44.417217 -102.207253 -9.2624
-42.662661 -105.207443 -9.526718
-43.588567 -103.700393 -9.398859
3 0 31 29
3 1 34 33
3 1 36 34
3 114 38 115
3 2 41 39
3 2 43 41
3 3 46 44
3 116 47 117
3 118 49 119
3 120 119 47
3 118 119 120
3 4 121 123
3 121 50 122
3 121 122 123
3 4 52 50
3 4 54 52
3 3 57 55
3 3 44 57
3 5 61 59
3 5 63 61
3 124 66 125
3 126 125 64
3 124 125 126
3 6 127 129
3 127 67 128
3 127 128 129
3 7 68 30
3 7 130 132
3 132 131 68
3 130 131 132
3 8 133 135
3 133 134 135
3 8 136 138
3 136 69 137
3 136 137 138
3 8 71 69
3 139 72 140
3 141 140 32
3 139 140 141
3 142 73 143
3 144 143 72
3 142 143 144
3 146 145 74
3 147 74 148
3 11 149 151
3 151 150 77
3 149 150 151
3 12 152 153
3 12 154 155
3 12 156 158
3 156 78 157
3 156 157 158
3 14 79 35
3 14 80 79
3 15 159 161
3 161 160 37
3 159 160 161
3 15 162 163
3 9 81 70
3 16 82 40
3 16 83 82
3 16 84 83
3 17 85 42
3 17 86 85
3 18 89 87
3 20 90 45
3 20 91 90
3 164 92 165
3 166 165 75
3 164 165 166
3 167 93 168
3 21 169 170
3 21 171 173
3 171 94 172
3 171 172 173
3 21 95 94
3 22 96 48
3 22 97 96
3 23 174 175
3 23 176 177
3 23 178 180
3 178 98 179
3 178 179 180
3 24 99 51
3 24 100 99
3 24 101 100
3 25 102 53
3 25 103 102
3 10 104 76
3 26 105 56
3 26 106 105
3 26 107 106
3 18 108 58
3 18 87 108
3 13 181 182
3 28 183 185
3 185 184 60
3 183 184 185
3 28 186 187
3 28 188 190
3 188 110 189
3 188 189 190
3 27 111 62
3 27 109 111
3 19 112 88
3 191 113 192
3 193 192 65
3 191 192 193
3 195 194 113
3 29 30 6
3 31 30 29
3 31 7 30
3 196 8 197
3 198 32 199
3 200 199 8
3 198 199 200
3 201 32 202
3 204 203 32
3 33 205 207
3 207 206 11
3 205 206 207
3 34 208 210
3 210 209 33
3 208 209 210
3 34 211 213
3 211 12 212
3 211 212 213
3 34 35 12
3 36 35 34
3 36 14 35
3 214 37 215
3 214 215 216
3 38 217 219
3 217 37 218
3 217 218 219
3 38 15 37
3 39 40 9
3 41 40 39
3 41 16 40
3 41 42 16
3 43 42 41
3 43 17 42
3 44 45 18
3 46 45 44
3 46 20 45
3 47 220 221
3 47 222 224
3 222 21 223
3 222 223 224
3 47 48 21
3 49 48 47
3 49 22 48
3 50 225 226
3 50 227 229
3 227 23 228
3 227 228 229
3 50 51 23
3 52 51 50
3 52 24 51
3 52 53 24
3 54 53 52
3 54 25 53
3 55 56 10
3 57 56 55
3 57 26 56
3 57 58 26
3 44 58 57
3 44 18 58
3 59 60 13
3 61 60 59
3 61 28 60
3 61 62 28
3 63 62 61
3 63 27 62
3 64 65 19
3 66 65 64
3 66 230 232
3 232 231 65
3 230 231 232
3 67 233 234
3 67 235 237
3 235 236 237
3 30 67 6
3 68 67 30
3 68 238 240
3 240 239 67
3 238 239 240
3 68 241 242
3 244 243 68
3 69 245 246
3 69 247 248
3 69 249 251
3 249 70 250
3 249 250 251
3 71 70 69
3 71 9 70
3 32 71 8
3 72 71 32
3 72 9 71
3 72 39 9
3 73 39 72
3 73 2 39
3 74 75 3
3 252 75 253
3 254 253 74
3 252 253 254
3 256 255 75
3 257 4 258
3 259 76 260
3 261 260 4
3 259 260 261
3 262 76 263
3 264 10 265
3 266 265 76
3 264 265 266
3 267 10 268
3 269 55 270
3 271 270 10
3 269 270 271
3 74 272 274
3 272 55 273
3 272 273 274
3 74 3 55
3 77 275 276
3 278 277 77
3 280 279 11
3 78 281 282
3 78 283 285
3 283 13 284
3 283 284 285
3 35 78 12
3 79 78 35
3 79 13 78
3 79 59 13
3 80 59 79
3 80 5 59
3 37 286 287
3 289 288 37
3 70 290 292
3 290 38 291
3 290 291 292
3 81 38 70
3 81 15 38
3 40 81 9
3 82 81 40
3 82 15 81
3 82 293 295
3 295 294 15
3 293 294 295
3 83 296 298
3 298 297 82
3 296 297 298
3 83 299 300
3 83 301 303
3 301 77 302
3 301 302 303
3 84 77 83
3 84 11 77
3 42 84 16
3 85 84 42
3 85 11 84
3 85 33 11
3 86 33 85
3 86 1 33
3 87 88 0
3 89 88 87
3 89 19 88
3 45 89 18
3 90 89 45
3 90 19 89
3 90 64 19
3 91 64 90
3 91 304 306
3 306 305 64
3 304 305 306
3 75 46 3
3 92 46 75
3 92 20 46
3 307 92 308
3 309 92 310
3 311 20 312
3 313 312 92
3 311 312 313
3 314 91 315
3 316 315 20
3 314 315 316
3 317 91 318
3 320 319 91
3 321 73 322
3 93 323 325
3 323 73 324
3 323 324 325
3 93 2 73
3 326 93 327
3 94 328 330
3 328 93 329
3 328 329 330
3 94 2 93
3 94 43 2
3 95 43 94
3 95 17 43
3 48 95 21
3 96 95 48
3 96 17 95
3 96 86 17
3 97 86 96
3 97 1 86
3 331 49 332
3 98 333 335
3 333 49 334
3 333 334 335
3 98 22 49
3 51 98 23
3 99 98 51
3 99 22 98
3 99 97 22
3 100 97 99
3 100 1 97
3 100 36 1
3 101 36 100
3 101 14 36
3 53 101 24
3 102 101 53
3 102 14 101
3 102 80 14
3 103 80 102
3 103 5 80
3 76 54 4
3 104 54 76
3 104 25 54
3 56 104 10
3 105 104 56
3 105 25 104
3 105 103 25
3 106 103 105
3 106 5 103
3 106 63 5
3 107 63 106
3 107 27 63
3 58 107 26
3 108 107 58
3 108 27 107
3 108 109 27
3 87 109 108
3 87 0 109
3 60 336 338
3 338 337 13
3 336 337 338
3 340 339 60
3 110 341 342
3 110 343 345
3 343 6 344
3 343 344 345
3 62 110 28
3 111 110 62
3 111 6 110
3 111 29 6
3 109 29 111
3 109 0 29
3 88 31 0
3 112 31 88
3 112 7 31
3 65 112 19
3 113 112 65
3 113 7 112
3 113 346 348
3 348 347 7
3 346 347 348
3 350 349 113
3 351 66 352
3 353 66 354
3 353 354 355
3 357 356 66
