ply
format ascii 1.0
element vertex 279
property float x
property float y
property float z
element face 284
property list uchar int vertex_index
end_header
-3.242828 -89.619781 58.933296
0.00713 -70.259232 56.205048
-2.035107 -79.558617 67.848854
0.06814 -80.667374 47.98737
-0.541838 -70.362297 66.749084
-0.070463 -80.689125 58.360683
-2.753765 -90.456375 54.506634
-2.132961 -84.7603 63.511642
-0.761627 -80.295387 63.322189
-1.239735 -85.579163 58.952351
-0.860985 -85.893478 54.061806
-0.707052 -65.465454 60.14175
-4.28227 -88.061356 62.980347
-2.528969 -74.452789 71.894508
-3.707382 -83.418915 67.579781
0.360991 -75.483841 52.110882
-0.064501 -70.371902 61.512379
-0.981087 -75.026711 67.542915
-0.089737 -75.351059 62.604927
0.321688 -75.495705 57.384922
0.185539 -80.802513 53.192806
-0.881781 -85.788162 48.991886
-2.942324 -90.128937 56.765598
-2.544643 -87.252975 61.243721
-1.611444 -85.236816 61.283417
-2.137705 -87.74704 59.035107
-1.865816 -88.082977 56.733391
-0.3041 -67.790794 58.202412
-0.38159 -67.628006 55.58292
-5.063873 -87.047607 64.857986
-4.779217 -82.587616 69.377052
-4.789104 -84.87915 67.192917
-3.855686 -85.801254 65.334473
0.327463 -78.116364 50.047546
-0.585648 -68.060242 66.176468
-0.392181 -68.003036 63.525265
-0.244904 -70.38269 64.155434
-2.233383 -76.966202 69.904144
-1.661728 -74.775726 69.812584
-1.43391 -77.336121 67.760391
-0.354321 -80.531212 60.880341
-0.344267 -77.847336 63.018471
-0.007401 -78.004379 60.493053
0.167189 -75.442902 60.013741
0.217972 -78.10659 57.908577
0.344645 -78.159088 55.292274
0.106277 -80.777565 55.790459
-1.645456 -88.32048 51.907467
-0.824793 -85.888306 51.540653
-0.465113 -83.079407 45.931103
-0.119673 -80.501266 45.408108
-0.97599 -70.303635 69.252754
-1.981472 -82.177132 65.717674
-1.31414 -79.973114 65.655777
-1.353046 -82.627853 63.494839
-0.884432 -82.967133 61.152641
-0.552868 -83.200722 58.717525
-0.338638 -83.338089 56.214539
-0.995537 -85.794312 56.538559
-1.707058 -88.269699 54.352455
-3.681074 -88.927017 61.005245
-3.59656 -74.051529 73.749115
-2.943665 -79.051605 69.868881
-3.791887 -80.954102 69.697128
-2.790289 -81.615952 67.794189
-2.826365 -84.150558 65.617157
-3.110615 -86.60054 63.347183
0.236134 -72.841537 54.168407
-0.077091 -70.148766 53.585846
-0.303099 -67.913971 60.857208
0.01539 -70.331696 58.853546
-1.236851 -72.541359 69.59687
-0.679512 -72.689728 67.204773
-0.811918 -77.627502 65.452774
-0.465221 -75.215134 65.126915
-0.273336 -72.789917 64.691483
0.004959 -72.851761 62.098488
0.174294 -72.880966 59.461807
0.248089 -72.878586 56.810879
0.383974 -75.510361 54.744053
0.379637 -78.163177 52.666168
0.171825 -80.766281 50.586636
-0.228144 -83.389008 53.666298
-0.214233 -83.360931 51.092331
-0.294022 -83.257721 48.509174
-3.724043 -90.736488 57.765659
-3.573792 -90.991066 56.68181
-3.092576 -89.874359 57.849447
-5.747409 -87.440002 64.524116
-5.54601 -86.485138 65.74538
-5.408625 -85.400909 66.912846
-5.346029 -84.374245 68.048221
-5.54601 -86.485138 65.74538
-4.926488 -85.963379 66.025452
-5.408625 -85.400909 66.912846
0.131391 -79.340256 47.718789
0.261053 -78.064751 48.748876
0.197802 -79.391869 49.017458
-0.563743 -69.21127 66.462776
-0.74347 -68.071457 67.474625
-0.721566 -69.222485 67.760932
-1.658839 -88.284774 50.6607
-2.141195 -89.467163 50.82978
-0.59336 -82.951275 44.65111
-0.866565 -84.200882 44.901018
-3.293123 -91.581322 53.391888
-2.705024 -90.534668 53.335762
-1.273397 -70.249188 70.436451
-1.168311 -69.182499 70.260773
-2.705024 -90.534668 53.335762
-2.181671 -89.44133 53.258673
-2.230411 -89.363037 54.429544
-0.981511 -64.234951 59.757505
-0.965175 -64.375231 61.074137
-4.641572 -89.121575 61.762774
-4.340974 -89.554405 60.775222
-3.981672 -88.494187 61.992796
-4.231369 -73.810753 74.545563
-3.810828 -72.868538 74.673691
-3.496483 -78.755218 70.776516
-3.085526 -77.783219 70.858154
0.254803 -74.123848 51.830963
0.192375 -72.802696 52.859725
0.298563 -74.162689 53.139645
-0.062988 -79.173778 45.14702
-0.249587 -80.381484 44.134455
-2.249074 -73.392639 71.858692
-2.712254 -73.251701 72.865948
-0.955995 -85.693497 47.711256
-0.662116 -84.428276 47.4699
-0.587902 -84.522942 48.75053
-0.297747 -68.784012 53.299602
-0.148892 -70.071171 52.29735
-3.460939 -91.255485 55.625822
-3.366659 -91.419205 54.49634
-2.848045 -90.292656 55.636116
-3.460939 -91.255485 55.625822
-3.573792 -90.991066 56.68181
-0.535347 -66.51646 57.86067
-0.736823 -65.35379 58.83034
-0.505576 -66.628124 59.172081
-0.574092 -66.435066 56.550925
-0.535347 -66.51646 57.86067
-0.342845 -67.7094 56.892666
-0.632378 -66.297714 55.269463
-0.574092 -66.435066 56.550925
-5.34565 -88.060913 63.629167
-4.954849 -88.567788 62.690348
-4.673071 -87.554482 63.919167
-5.34565 -88.060913 63.629167
-5.747409 -87.440002 64.524116
-5.341086 -83.228477 69.140289
-5.403782 -82.138016 70.17889
-4.784161 -83.733383 68.284985
-5.341086 -83.228477 69.140289
-5.346029 -84.374245 68.048221
0.294141 -76.763314 49.773962
0.310905 -75.447052 50.80563
0.344227 -76.800103 51.079214
0.294141 -76.763314 49.773962
0.261053 -78.064751 48.748876
-0.808275 -66.970726 67.163807
-0.74347 -68.071457 67.474625
-0.70487 -66.920937 65.832313
-0.808275 -66.970726 67.163807
-0.488914 -68.031639 64.850866
-0.608136 -66.892334 64.506712
-0.70487 -66.920937 65.832313
-1.248508 -87.068688 50.477293
-1.235124 -87.104393 51.72406
-1.658839 -88.284774 50.6607
-1.277002 -87.018616 49.20291
-0.853287 -85.838234 50.266269
-1.248508 -87.068688 50.477293
-1.333136 -86.92749 47.939467
-1.277002 -87.018616 49.20291
-0.42064 -81.662205 44.389612
-0.292393 -81.790336 45.669606
-0.59336 -82.951275 44.65111
-0.550554 -81.542423 43.11596
-0.249587 -80.381484 44.134455
-0.42064 -81.662205 44.389612
-3.293123 -91.581322 53.391888
-3.366659 -91.419205 54.49634
-0.938642 -69.193153 69.012767
-1.168311 -69.182499 70.260773
-0.758914 -70.332966 68.000919
-0.721566 -69.222485 67.760932
-0.938642 -69.193153 69.012767
-2.15087 -89.466721 52.036178
-1.676257 -88.29509 53.129961
-2.181671 -89.44133 53.258673
-2.141195 -89.467163 50.82978
-2.15087 -89.466721 52.036178
-1.011282 -64.123287 58.446095
-0.981511 -64.234951 59.757505
-0.736823 -65.35379 58.83034
-4.108398 -90.021744 59.810127
-3.889276 -90.368126 58.774152
-3.461951 -89.273399 59.969271
-4.108398 -90.021744 59.810127
-4.340974 -89.554405 60.775222
-4.641572 -89.121575 61.762774
-4.954849 -88.567788 62.690348
-3.246049 -73.051071 73.793251
-3.810828 -72.868538 74.673691
-3.062765 -74.252159 72.821811
-2.712254 -73.251701 72.865948
-3.246049 -73.051071 73.793251
-4.009302 -75.018074 73.652797
-4.231369 -73.810753 74.545563
-3.411973 -75.283181 72.798271
-4.009302 -75.018074 73.652797
-2.878178 -75.483811 71.870968
-3.062765 -74.252159 72.821811
-3.411973 -75.283181 72.798271
-2.730384 -76.740517 70.875786
-2.381176 -75.709496 70.899326
-2.878178 -75.483811 71.870968
-2.588524 -78.008904 69.886513
-2.730384 -76.740517 70.875786
-3.085526 -77.783219 70.858154
-4.882398 -81.398964 70.387565
-5.403782 -82.138016 70.17889
-4.388733 -80.582207 70.547604
-4.882398 -81.398964 70.387565
-4.285552 -81.770859 69.53709
-3.920594 -79.706467 70.69064
-4.388733 -80.582207 70.547604
-3.367776 -80.002854 69.783005
-3.496483 -78.755218 70.776516
-3.920594 -79.706467 70.69064
0.035762 -71.456311 52.568445
0.079521 -71.495151 53.877127
0.192375 -72.802696 52.859725
-0.148892 -70.071171 52.29735
0.035762 -71.456311 52.568445
0.254803 -74.123848 51.830963
0.310905 -75.447052 50.80563
0.037485 -79.257202 46.429158
0.131391 -79.340256 47.718789
-0.025766 -80.58432 46.697739
0.037485 -79.257202 46.429158
-0.062988 -79.173778 45.14702
-3.724043 -90.736488 57.765659
-3.889276 -90.368126 58.774152
-0.71423 -65.554505 61.474297
-0.965175 -64.375231 61.074137
-0.556794 -66.823296 63.166054
-0.608136 -66.892334 64.506712
-0.512253 -66.778763 61.832026
-0.556794 -66.823296 63.166054
-0.34764 -67.958504 62.191237
-0.505076 -66.689712 60.499479
-0.71423 -65.554505 61.474297
-0.512253 -66.778763 61.832026
-1.815454 -73.554108 70.81773
-2.249074 -73.392639 71.858692
-2.095349 -74.614258 70.853546
-1.603015 -72.436924 70.709873
-1.815454 -73.554108 70.81773
-1.449289 -73.658543 69.704727
-1.403828 -71.368049 70.608509
-1.603015 -72.436924 70.709873
-1.106421 -71.422497 69.424812
-1.273397 -70.249188 70.436451
-1.403828 -71.368049 70.608509
-0.747661 -84.339119 46.180864
-0.379568 -83.168564 47.220139
-0.662116 -84.428276 47.4699
-0.866565 -84.200882 44.901018
-0.747661 -84.339119 46.180864
-0.955995 -85.693497 47.711256
-1.333136 -86.92749 47.939467
-0.449996 -67.523632 54.29814
-0.229341 -68.888386 54.584383
-0.297747 -68.784012 53.299602
-0.632378 -66.297714 55.269463
-0.449996 -67.523632 54.29814
3 0 85 87
3 87 86 22
3 85 86 87
3 0 25 23
3 0 22 25
3 1 28 27
3 89 88 29
3 90 31 91
3 92 29 93
3 94 93 31
3 92 93 94
3 3 95 97
3 97 96 33
3 95 96 97
3 4 98 100
3 98 34 99
3 98 99 100
3 4 36 34
3 2 39 37
3 5 42 40
3 5 44 42
3 5 46 44
3 102 101 47
3 104 103 49
3 6 105 106
3 107 51 108
3 7 54 52
3 9 55 24
3 9 56 55
3 9 58 56
3 6 59 26
3 6 109 111
3 111 110 59
3 109 110 111
3 11 112 113
3 12 114 116
3 116 115 60
3 114 115 116
3 117 61 118
3 119 62 120
3 14 63 30
3 14 64 63
3 14 65 64
3 12 66 32
3 12 60 66
3 15 121 123
3 123 122 67
3 121 122 123
3 125 124 50
3 16 69 35
3 16 70 69
3 13 126 127
3 17 71 38
3 17 72 71
3 8 73 53
3 18 74 41
3 18 75 74
3 18 76 75
3 19 77 43
3 19 78 77
3 19 79 78
3 20 80 45
3 20 81 80
3 10 82 57
3 21 83 48
3 21 84 83
3 21 128 130
3 130 129 84
3 128 129 130
3 132 131 68
3 22 133 135
3 135 134 6
3 133 134 135
3 137 136 22
3 23 24 7
3 25 24 23
3 25 9 24
3 25 26 9
3 22 26 25
3 22 6 26
3 27 138 140
3 140 139 11
3 138 139 140
3 28 141 143
3 143 142 27
3 141 142 143
3 28 144 145
3 29 146 148
3 148 147 12
3 146 147 148
3 150 149 29
3 151 30 152
3 31 153 155
3 153 30 154
3 153 154 155
3 31 14 30
3 31 32 14
3 29 32 31
3 29 12 32
3 33 156 158
3 158 157 15
3 156 157 158
3 160 159 33
3 34 161 162
3 34 163 164
3 34 165 167
3 165 35 166
3 165 166 167
3 36 35 34
3 36 16 35
3 37 38 13
3 39 38 37
3 39 17 38
3 40 41 8
3 42 41 40
3 42 18 41
3 42 43 18
3 44 43 42
3 44 19 43
3 44 45 19
3 46 45 44
3 46 20 45
3 47 48 10
3 168 48 169
3 170 169 47
3 168 169 170
3 171 21 172
3 173 172 48
3 171 172 173
3 175 174 21
3 49 50 3
3 176 50 177
3 178 177 49
3 176 177 178
3 181 180 50
3 179 180 181
3 183 182 6
3 51 184 185
3 51 186 188
3 186 4 187
3 186 187 188
3 52 53 2
3 54 53 52
3 54 8 53
3 24 54 7
3 55 54 24
3 55 8 54
3 55 40 8
3 56 40 55
3 56 5 40
3 56 57 5
3 58 57 56
3 58 10 57
3 26 58 9
3 59 58 26
3 59 10 58
3 59 47 10
3 189 47 190
3 191 190 59
3 189 190 191
3 193 192 47
3 196 195 11
3 194 195 196
3 60 197 199
3 199 198 0
3 197 198 199
3 201 200 60
3 203 202 12
3 61 204 205
3 61 206 208
3 206 13 207
3 206 207 208
3 209 61 210
3 211 61 212
3 213 13 214
3 215 214 61
3 213 214 215
3 216 37 217
3 218 217 13
3 216 217 218
3 62 219 221
3 219 37 220
3 219 220 221
3 62 2 37
3 30 222 223
3 63 224 226
3 226 225 30
3 224 225 226
3 63 227 228
3 63 229 231
3 229 62 230
3 229 230 231
3 64 62 63
3 64 2 62
3 64 52 2
3 65 52 64
3 65 7 52
3 32 65 14
3 66 65 32
3 66 7 65
3 66 23 7
3 60 23 66
3 60 0 23
3 67 68 1
3 232 68 233
3 234 233 67
3 232 233 234
3 236 235 68
3 238 237 15
3 50 239 241
3 241 240 3
3 239 240 241
3 243 242 50
3 245 244 0
3 246 11 247
3 35 248 249
3 69 250 252
3 252 251 35
3 250 251 252
3 69 253 255
3 253 11 254
3 253 254 255
3 69 27 11
3 70 27 69
3 70 1 27
3 38 256 258
3 258 257 13
3 256 257 258
3 71 259 261
3 261 260 38
3 259 260 261
3 71 262 263
3 71 264 266
3 264 51 265
3 264 265 266
3 72 51 71
3 72 4 51
3 53 39 2
3 73 39 53
3 73 17 39
3 41 73 8
3 74 73 41
3 74 17 73
3 74 72 17
3 75 72 74
3 75 4 72
3 75 36 4
3 76 36 75
3 76 16 36
3 43 76 18
3 77 76 43
3 77 16 76
3 77 70 16
3 78 70 77
3 78 1 70
3 78 67 1
3 79 67 78
3 79 15 67
3 45 79 19
3 80 79 45
3 80 15 79
3 80 33 15
3 81 33 80
3 81 3 33
3 57 46 5
3 82 46 57
3 82 20 46
3 48 82 10
3 83 82 48
3 83 20 82
3 83 81 20
3 84 81 83
3 84 3 81
3 84 49 3
3 267 49 268
3 269 268 84
3 267 268 269
3 271 270 49
3 273 272 21
3 68 28 1
3 274 28 275
3 276 275 68
3 274 275 276
3 278 277 28
