ply
format ascii 1.0
element vertex 286
property float x
property float y
property float z
element face 310
property list uchar int vertex_index
end_header
17.104214 -126.378906 -0.016056
31.754402 -117.302307 -12.993803
19.689968 -125.673592 -10.244291
11.189243 -123.543571 9.532655
10.066988 -126.653198 -1.48901
12.0634 -124.464005 -12.638765
21.122803 -124.316162 -1.741852
23.193382 -123.686829 -7.202225
18.086479 -126.556046 -4.725187
28.09935 -119.451736 -16.562773
13.458858 -120.333054 13.98012
6.871096 -124.336121 -1.787933
10.938772 -126.227127 -7.416
28.873625 -119.27858 -8.383997
25.53923 -122.146439 -12.363556
21.661869 -123.569427 -15.095968
14.337103 -125.752174 4.223652
13.784653 -127.246292 -0.828331
10.008675 -125.728996 4.325311
16.226284 -122.831688 8.669975
18.913204 -124.119774 3.476802
14.514046 -127.277916 -6.529997
15.858909 -125.956909 -12.027773
17.478765 -123.266273 -16.374857
18.867472 -125.632195 -0.838724
19.682751 -125.605362 -3.399363
17.495409 -126.583015 -2.10803
26.042406 -119.975868 -17.783064
29.413708 -117.593903 -18.199469
27.509531 -119.944664 -5.822678
21.500931 -124.871994 -8.87262
24.330112 -123.043419 -9.868494
22.54418 -124.115898 -11.503242
23.65941 -123.065605 -13.909924
20.641727 -124.783936 -12.811052
33.332348 -115.77903 -10.766094
34.838306 -114.575241 -12.838972
12.752546 -124.834091 6.821157
12.131428 -125.956444 4.318621
10.440817 -124.780952 7.018332
12.213722 -122.051147 11.856512
14.820244 -121.715576 11.303747
13.670547 -123.406677 9.151277
15.15543 -124.447044 6.509538
21.325127 -122.701927 2.861435
20.103518 -122.419106 5.499201
11.895288 -127.168289 -1.199242
14.034872 -127.433884 -3.636147
12.2043 -127.245407 -4.140402
11.489302 -125.512032 -10.166645
13.285423 -126.367973 -9.891291
13.934971 -125.419334 -12.46133
16.63796 -124.785934 -14.3866
14.629263 -124.128891 -14.697346
23.604445 -122.552704 -2.544006
24.760521 -122.184448 -5.276764
22.13332 -124.105026 -4.460449
20.546299 -125.360756 -6.126436
18.82856 -126.258553 -7.50152
30.010033 -118.546646 -14.950071
33.205048 -115.894745 -14.967949
31.393827 -116.915909 -16.775961
9.715889 -121.945145 12.325394
8.84449 -123.231277 9.819958
12.210609 -118.757828 16.737173
10.854977 -120.449059 14.634664
8.377954 -125.699051 -1.685291
10.442335 -126.608574 -4.486588
8.805931 -125.540565 -4.684271
9.29277 -125.061012 -7.567156
30.298878 -118.413315 -10.789173
25.9832 -121.627441 -7.953793
27.278292 -120.860916 -10.500174
28.629402 -119.84845 -12.848835
26.802471 -120.960701 -14.611288
24.829285 -121.693184 -16.016394
22.740082 -122.011467 -17.032808
15.853554 -126.264854 1.845835
15.608684 -126.935974 -0.407602
13.865156 -126.692421 1.794339
11.849552 -126.73938 1.640489
9.897465 -126.358772 1.474332
8.281036 -124.279602 7.13518
8.038897 -125.057495 4.294373
8.092859 -125.536072 1.334455
17.472771 -120.960167 10.684862
18.809998 -121.843132 8.103072
17.611393 -123.634895 6.060938
16.591015 -125.137413 3.957219
17.874174 -125.49424 1.545321
22.478207 -122.732605 0.179888
20.079773 -124.328201 0.895738
15.842052 -127.194878 -2.968597
16.338959 -127.128059 -5.752319
17.008331 -126.745491 -8.580624
12.692511 -126.977081 -7.078756
15.141198 -126.785767 -9.371994
17.793562 -126.043068 -11.295965
18.657953 -125.010452 -13.769768
19.585527 -123.634811 -15.909845
20.580585 -121.907143 -17.666803
26.668387 -118.938877 -18.495241
24.960356 -120.037716 -18.190722
26.865638 -120.19299 -4.491553
28.221452 -119.01212 -4.683296
20.748316 -121.450074 6.496887
21.362496 -121.627778 5.198133
31.087252 -116.261711 -18.260388
30.074446 -116.484829 -18.865673
8.556873 -121.66896 12.513689
9.05665 -121.035416 13.76548
11.677042 -117.915226 18.17671
12.970595 -117.814415 17.685646
9.626194 -120.287373 14.920115
10.258874 -119.567818 16.074433
9.05665 -121.035416 13.76548
10.285433 -121.197102 13.480029
9.626194 -120.287373 14.920115
8.535295 -124.295204 -7.56435
8.309094 -124.572239 -6.158083
9.538871 -124.661213 -8.902249
8.535295 -124.295204 -7.56435
30.346328 -118.003796 -8.445113
29.607404 -118.380185 -7.235173
29.586251 -118.845947 -9.586585
31.058954 -117.571163 -9.647701
30.346328 -118.003796 -8.445113
34.75145 -114.478134 -14.837955
33.913101 -115.021412 -15.832612
7.492993 -123.376114 8.579553
8.562763 -123.755439 8.477569
7.77472 -122.851952 9.921941
7.162391 -124.504345 4.273721
7.188875 -124.196979 5.745633
7.189372 -124.743634 2.793762
8.065878 -125.296784 2.814414
7.162391 -124.504345 4.273721
7.2926 -124.912922 1.28618
7.189372 -124.743634 2.793762
14.799036 -120.064126 13.62471
14.164263 -119.369827 14.940447
23.146346 -121.825706 1.210743
23.739573 -121.752941 -0.13783
28.354038 -117.747895 -18.703443
27.728057 -118.784886 -17.991267
26.668387 -118.938877 -18.495241
30.074446 -116.484829 -18.865673
28.354038 -117.747895 -18.703443
7.098257 -124.209794 -3.268471
6.218457 -123.475525 -1.794944
28.925357 -118.713227 -5.954514
28.221452 -119.01212 -4.683296
28.191578 -119.611622 -7.103338
29.607404 -118.380185 -7.235173
28.925357 -118.713227 -5.954514
34.817488 -114.397911 -10.617364
34.046192 -114.914585 -9.555518
35.570467 -113.796017 -11.653803
34.817488 -114.397911 -10.617364
34.085327 -115.177136 -11.802533
36.315338 -113.144554 -12.633572
35.570467 -113.796017 -11.653803
21.973301 -121.769188 3.87925
22.569806 -121.810367 2.551516
20.714323 -122.560517 4.180318
21.973301 -121.769188 3.87925
21.362496 -121.627778 5.198133
24.182483 -122.368576 -3.910385
25.491133 -121.312882 -4.218596
24.913095 -121.49701 -2.852216
33.007491 -115.531994 -16.736618
33.913101 -115.021412 -15.832612
32.299437 -116.405327 -15.871955
32.077312 -115.922714 -17.548634
30.403768 -117.254906 -17.487715
31.087252 -116.261711 -18.260388
33.007491 -115.531994 -16.736618
32.077312 -115.922714 -17.548634
8.121173 -122.312027 11.26097
9.28019 -122.588211 11.072676
8.556873 -121.66896 12.513689
7.77472 -122.851952 9.921941
8.121173 -122.312027 11.26097
13.540139 -118.582214 16.318973
12.970595 -117.814415 17.685646
12.834733 -119.545441 15.358646
14.164263 -119.369827 14.940447
13.540139 -118.582214 16.318973
10.93669 -118.722203 17.125687
11.677042 -117.915226 18.17671
11.532793 -119.603443 15.685918
10.93669 -118.722203 17.125687
10.258874 -119.567818 16.074433
8.065675 -124.812016 -4.716641
7.838513 -124.938343 -3.236102
7.098257 -124.209794 -3.268471
9.04935 -125.300789 -6.125713
8.065675 -124.812016 -4.716641
8.309094 -124.572239 -6.158083
10.637137 -124.886723 -10.201993
10.391036 -125.286522 -8.8669
9.538871 -124.661213 -8.902249
10.924186 -124.362709 -11.438053
11.776351 -124.988019 -11.402705
10.637137 -124.886723 -10.201993
32.57569 -116.254021 -9.636162
34.046192 -114.914585 -9.555518
31.815613 -117.096172 -10.777634
32.57569 -116.254021 -9.636162
31.058954 -117.571163 -9.647701
26.135026 -121.064556 -5.549721
26.865638 -120.19299 -4.491553
25.491133 -121.312882 -4.218596
23.309195 -121.055515 -17.815593
24.960356 -120.037716 -18.190722
24.391244 -120.993668 -17.407936
35.568079 -113.818382 -13.773467
34.021677 -115.234993 -13.903461
34.75145 -114.478134 -14.837955
36.315338 -113.144554 -12.633572
35.568079 -113.818382 -13.773467
7.309945 -123.808033 7.166037
7.492993 -123.376114 8.579553
8.159966 -124.668548 5.714777
7.309945 -123.808033 7.166037
7.188875 -124.196979 5.745633
7.435147 -124.994411 -0.223693
8.235406 -125.617561 -0.175418
7.2926 -124.912922 1.28618
6.681718 -124.312947 -0.275014
7.624525 -125.017586 -1.736612
7.435147 -124.994411 -0.223693
5.998194 -123.498822 -0.298333
6.681718 -124.312947 -0.275014
6.218457 -123.475525 -1.794944
5.998194 -123.498822 -0.298333
15.479729 -120.755387 12.286523
14.799036 -120.064126 13.62471
14.139551 -121.024315 12.641934
16.805993 -120.377682 11.977081
15.479729 -120.755387 12.286523
16.146508 -121.337872 10.994305
18.155446 -119.916748 11.611737
16.805993 -120.377682 11.977081
18.798821 -120.392483 10.359794
18.155446 -119.916748 11.611737
19.467434 -120.833966 9.0689
18.798821 -120.392483 10.359794
18.141385 -121.401649 9.393967
20.101556 -121.162087 7.798822
19.467434 -120.833966 9.0689
19.456758 -122.131119 6.801137
20.748316 -121.450074 6.496887
20.101556 -121.162087 7.798822
24.302692 -121.662991 -1.499777
24.913095 -121.49701 -2.852216
23.041326 -122.642655 -1.182059
24.302692 -121.662991 -1.499777
23.739573 -121.752941 -0.13783
21.901667 -122.717266 1.520662
23.146346 -121.825706 1.210743
22.569806 -121.810367 2.551516
22.229446 -121.003354 -18.132591
23.309195 -121.055515 -17.815593
21.660334 -121.959305 -17.349806
11.170097 -123.801495 -12.625276
10.924186 -124.362709 -11.438053
12.368969 -123.772069 -13.69913
11.170097 -123.801495 -12.625276
13.6519 -123.604512 -14.72842
13.346331 -124.296448 -13.668055
12.368969 -123.772069 -13.69913
15.010812 -123.310814 -15.621695
13.6519 -123.604512 -14.72842
16.435563 -122.879505 -16.460451
16.054014 -123.697582 -15.536101
15.010812 -123.310814 -15.621695
17.942092 -122.331364 -17.169966
16.435563 -122.879505 -16.460451
19.493001 -121.651799 -17.815939
19.029675 -122.586708 -17.02083
17.942092 -122.331364 -17.169966
21.121109 -120.867203 -18.35379
19.493001 -121.651799 -17.815939
22.229446 -121.003354 -18.132591
21.121109 -120.867203 -18.35379
3 0 26 24
3 102 101 27
3 103 29 104
3 2 32 30
3 2 34 32
3 1 36 35
3 3 39 37
3 3 42 40
3 3 37 42
3 105 45 106
3 4 48 46
3 5 51 49
3 5 53 51
3 6 56 54
3 8 57 25
3 8 58 57
3 9 61 59
3 108 107 28
3 110 109 62
3 111 64 112
3 113 65 114
3 115 62 116
3 117 116 65
3 115 116 117
3 11 68 66
3 118 69 119
3 121 120 69
3 13 122 123
3 13 124 126
3 124 70 125
3 124 125 126
3 7 71 55
3 14 72 31
3 14 73 72
3 14 74 73
3 15 75 33
3 15 76 75
3 128 127 60
3 16 79 77
3 18 80 38
3 18 81 80
3 129 82 130
3 131 130 63
3 129 130 131
3 132 83 133
3 134 84 135
3 136 135 83
3 134 135 136
3 138 137 84
3 10 139 140
3 19 85 41
3 19 86 85
3 19 87 86
3 16 88 43
3 16 77 88
3 141 90 142
3 20 91 44
3 20 89 91
3 17 92 78
3 21 93 47
3 21 94 93
3 12 95 67
3 22 96 50
3 22 97 96
3 22 98 97
3 23 99 52
3 23 100 99
3 24 25 6
3 26 25 24
3 26 8 25
3 27 28 9
3 143 28 144
3 145 144 27
3 143 144 145
3 147 146 28
3 149 148 11
3 29 150 151
3 29 152 154
3 152 13 153
3 152 153 154
3 30 31 7
3 32 31 30
3 32 14 31
3 32 33 14
3 34 33 32
3 34 15 33
3 35 155 156
3 36 157 159
3 159 158 35
3 157 158 159
3 36 160 161
3 37 38 16
3 39 38 37
3 39 18 38
3 40 41 10
3 42 41 40
3 42 19 41
3 42 43 19
3 37 43 42
3 37 16 43
3 162 44 163
3 45 164 166
3 164 44 165
3 164 165 166
3 45 20 44
3 46 47 17
3 48 47 46
3 48 21 47
3 49 50 12
3 51 50 49
3 51 22 50
3 51 52 22
3 53 52 51
3 53 23 52
3 54 167 169
3 167 55 168
3 167 168 169
3 56 55 54
3 56 7 55
3 25 56 6
3 57 56 25
3 57 7 56
3 57 30 7
3 58 30 57
3 58 2 30
3 59 60 1
3 61 60 59
3 61 170 172
3 172 171 60
3 170 171 172
3 28 61 9
3 173 61 174
3 175 174 28
3 173 174 175
3 177 176 61
3 62 63 3
3 178 63 179
3 180 179 62
3 178 179 180
3 182 181 63
3 64 183 184
3 64 185 187
3 185 10 186
3 185 186 187
3 188 64 189
3 65 190 192
3 190 64 191
3 190 191 192
3 65 10 64
3 65 40 10
3 62 40 65
3 62 3 40
3 66 67 4
3 68 67 66
3 68 12 67
3 193 68 194
3 195 194 11
3 193 194 195
3 69 196 198
3 196 68 197
3 196 197 198
3 69 12 68
3 69 49 12
3 199 49 200
3 201 200 69
3 199 200 201
3 202 5 203
3 204 203 49
3 202 203 204
3 205 35 206
3 70 207 209
3 207 35 208
3 207 208 209
3 70 1 35
3 55 210 212
3 210 29 211
3 210 211 212
3 71 29 55
3 71 13 29
3 31 71 7
3 72 71 31
3 72 13 71
3 72 70 13
3 73 70 72
3 73 1 70
3 73 59 1
3 74 59 73
3 74 9 59
3 33 74 14
3 75 74 33
3 75 9 74
3 75 27 9
3 76 27 75
3 76 213 215
3 215 214 27
3 213 214 215
3 60 36 1
3 216 36 217
3 218 217 60
3 216 217 218
3 220 219 36
3 77 78 0
3 79 78 77
3 79 17 78
3 38 79 16
3 80 79 38
3 80 17 79
3 80 46 17
3 81 46 80
3 81 4 46
3 63 39 3
3 82 39 63
3 82 18 39
3 221 82 222
3 83 223 225
3 223 82 224
3 223 224 225
3 83 18 82
3 83 81 18
3 84 81 83
3 84 4 81
3 84 66 4
3 226 66 227
3 228 227 84
3 226 227 228
3 229 11 230
3 231 230 66
3 229 230 231
3 232 11 233
3 235 234 11
3 41 236 238
3 238 237 10
3 236 237 238
3 85 239 241
3 241 240 41
3 239 240 241
3 85 242 243
3 85 244 245
3 86 246 248
3 248 247 85
3 246 247 248
3 86 249 250
3 86 251 253
3 251 45 252
3 251 252 253
3 87 45 86
3 87 20 45
3 43 87 19
3 88 87 43
3 88 20 87
3 88 89 20
3 77 89 88
3 77 0 89
3 254 54 255
3 90 256 258
3 256 54 257
3 256 257 258
3 90 6 54
3 44 259 261
3 259 90 260
3 259 260 261
3 91 90 44
3 91 6 90
3 91 24 6
3 89 24 91
3 89 0 24
3 78 26 0
3 92 26 78
3 92 8 26
3 47 92 17
3 93 92 47
3 93 8 92
3 93 58 8
3 94 58 93
3 94 2 58
3 67 48 4
3 95 48 67
3 95 21 48
3 50 95 12
3 96 95 50
3 96 21 95
3 96 94 21
3 97 94 96
3 97 2 94
3 97 34 2
3 98 34 97
3 98 15 34
3 52 98 22
3 99 98 52
3 99 15 98
3 99 76 15
3 100 76 99
3 100 262 264
3 264 263 76
3 262 263 264
3 265 5 266
3 267 5 268
3 269 53 270
3 271 270 5
3 269 270 271
3 272 53 273
3 274 23 275
3 276 275 53
3 274 275 276
3 277 23 278
3 279 100 280
3 281 280 23
3 279 280 281
3 282 100 283
3 285 284 100
