ply
format ascii 1.0
element vertex 347
property float x
property float y
property float z
element face 342
property list uchar int vertex_index
end_header
3.62484 -98.800415 1.014847
2.159775 -99.487511 19.652565
3.275688 -92.553642 -5.13854
3.166445 -99.522499 9.137257
7.430115 -96.397644 -12.941547
2.450436 -104.762596 0.245845
2.148937 -102.971313 -3.50868
0.767963 -104.826469 21.184561
0.465427 -104.749847 15.134365
1.209015 -105.015068 9.603779
2.320681 -99.273369 14.078753
5.247677 -87.382431 -7.959028
4.13665 -94.900162 -9.099644
2.372601 -105.179817 27.452108
3.080078 -100.20063 25.692106
5.703695 -92.829529 1.206652
3.048992 -96.448593 -2.237713
4.998421 -89.834267 -1.836802
2.1555 -105.243256 4.646094
3.805567 -99.642326 4.796871
5.279943 -94.019669 12.869998
6.043673 -94.297218 8.432982
6.277014 -94.188919 4.572034
2.328968 -99.64048 -6.568405
3.995409 -102.026299 -11.117901
2.920362 -101.792244 0.675177
2.322983 -104.055443 -1.719412
2.696606 -100.960114 -1.137346
1.279316 -102.182587 20.463631
0.45499 -104.739136 18.107199
1.105423 -102.030746 17.481457
1.223516 -102.004745 14.631403
2.11401 -99.306725 16.790951
6.266479 -88.270233 -9.666407
3.596111 -105.336388 30.523329
2.542353 -102.756027 26.656956
5.297098 -91.536224 -0.337931
2.046038 -102.248528 9.393064
1.721817 -105.172585 7.055979
2.517368 -102.394333 7.001493
2.86224 -102.43277 4.751196
3.568848 -99.651375 6.896229
4.947517 -94.005539 15.324634
6.265377 -94.351784 6.434971
2.9849 -94.680077 -3.713945
2.402369 -98.115334 -4.320337
2.665468 -96.12516 -5.735722
5.519045 -95.789124 -11.087992
3.940617 -98.533386 -10.043165
5.480019 -99.362823 -12.098253
2.19133 -107.080986 -2.344959
2.085176 -106.123116 -4.286915
2.051821 -104.783485 -6.02103
0.665716 -107.358223 21.763477
0.273554 -107.598816 12.612359
0.688482 -107.781342 9.781874
0.748123 -104.853409 12.295929
1.571676 -102.092834 11.934004
2.708195 -99.365578 11.528292
4.018446 -90.109077 -6.546137
3.372395 -93.79866 -7.079109
4.576393 -91.170601 -8.382732
5.786589 -92.077751 -10.250731
7.558622 -92.760239 -12.048914
1.977856 -109.566505 25.240952
2.612831 -107.409439 27.999077
1.478706 -107.385483 24.905861
1.414503 -104.988823 24.319002
1.763971 -102.439789 23.539516
2.485424 -99.800407 22.634258
4.558155 -95.809082 1.206823
3.318495 -97.826485 -0.671345
4.189539 -94.680305 -0.38895
3.897465 -93.142715 -1.90234
3.841341 -91.221489 -3.372385
4.152798 -88.957108 -4.839354
4.9091 -86.39257 -6.330673
2.410133 -105.135513 2.373048
2.999653 -102.261917 2.640475
3.818533 -99.387688 2.83629
3.517496 -97.128143 21.667215
3.349241 -96.796242 18.797987
3.421959 -96.618233 16.064873
3.699539 -96.60096 13.489043
4.102879 -96.709244 11.07645
5.680735 -94.147324 10.574906
4.520969 -96.866875 8.82156
4.835949 -96.967171 6.714516
4.956825 -96.891808 4.747017
4.850515 -96.532417 2.913518
6.06971 -93.704552 2.834467
2.466993 -99.734489 -2.797476
2.094252 -101.496254 -5.119896
2.26232 -103.059074 -7.545086
2.985874 -97.431099 -7.883081
2.862503 -100.966614 -8.875204
3.001184 -104.360054 -9.952648
7.47575 -98.127872 -13.447
6.500702 -99.610462 -13.025353
6.455067 -97.880234 -12.5199
2.320883 -105.921791 -1.049557
2.203613 -107.382396 -1.279405
2.333165 -106.223202 0.015997
0.484648 -106.099861 19.908927
0.433525 -107.365738 20.198385
0.716839 -106.092346 21.474019
0.27458 -106.101924 15.352117
0.269362 -106.096569 16.838534
0.460209 -104.744492 16.620782
0.36949 -106.174331 13.873362
0.178644 -107.526409 14.091114
0.27458 -106.101924 15.352117
6.834939 -90.532772 -10.805727
6.026534 -90.173992 -9.958569
7.074884 -88.629013 -10.513565
7.720956 -90.874016 -11.704819
6.672605 -92.418995 -11.149822
6.834939 -90.532772 -10.805727
2.629639 -109.474239 26.737376
2.445384 -110.518547 25.262056
4.71158 -87.156022 -4.849337
4.552621 -88.357781 -4.085744
5.08973 -85.873752 -5.594997
4.530949 -87.674839 -5.585014
4.71158 -87.156022 -4.849337
1.209553 -106.483868 8.34398
0.949287 -107.867005 8.433027
0.948748 -106.398205 9.692826
1.930413 -106.644417 4.581533
1.713572 -106.609082 5.786476
1.938658 -105.207921 5.851036
2.107902 -106.612751 3.363398
1.930413 -106.644417 4.581533
2.282817 -105.189385 3.509571
2.235219 -106.55888 2.226876
2.107902 -106.612751 3.363398
4.254549 -96.028446 22.613357
3.720495 -97.350727 23.152015
4.057532 -95.47575 18.367318
4.064017 -95.63514 19.744536
4.093891 -95.386746 17.000761
3.3856 -96.707238 17.43143
4.057532 -95.47575 18.367318
5.862204 -94.222271 9.503944
6.514772 -92.916779 10.29829
6.696241 -92.991726 9.227328
4.150927 -103.680249 -11.6683
3.653815 -104.847126 -11.085674
3.498296 -103.193176 -10.535274
6.601935 -86.336472 -9.523837
5.757078 -87.826332 -8.812717
6.092534 -85.892571 -8.670148
7.322095 -86.695091 -10.301745
6.601935 -86.336472 -9.523837
7.074884 -88.629013 -10.513565
7.322095 -86.695091 -10.301745
4.194293 -104.320465 31.654944
4.307398 -105.361019 32.000633
3.584137 -104.202187 30.140678
4.194293 -104.320465 31.654944
4.182319 -103.186264 31.272293
2.972382 -104.123902 28.605067
2.984356 -105.258103 28.987718
3.584137 -104.202187 30.140678
3.057258 -102.912007 28.207491
2.457477 -103.967922 27.054532
2.972382 -104.123902 28.605067
3.224065 -101.690628 27.715172
3.057258 -102.912007 28.207491
3.492927 -100.41293 27.232747
2.811215 -101.478329 26.174531
3.224065 -101.690628 27.715172
6.16157 -90.697975 0.328026
5.500396 -92.182876 0.434361
6.364868 -91.344628 1.100318
5.951397 -89.96592 -0.436494
6.16157 -90.697975 0.328026
5.802058 -89.114941 -1.18593
5.147759 -90.685246 -1.087366
5.951397 -89.96592 -0.436494
5.626831 -92.802452 16.208598
4.85667 -94.080399 16.630641
5.767093 -92.750031 14.954037
5.626831 -92.802452 16.208598
5.933306 -92.757095 13.726719
5.11373 -94.012604 14.097316
5.767093 -92.750031 14.954037
6.848713 -93.054767 8.198666
6.696241 -92.991726 9.227328
6.959565 -93.08205 7.199661
6.154525 -94.324501 7.433976
6.848713 -93.054767 8.198666
7.028185 -93.075615 6.240381
6.959565 -93.08205 7.199661
7.034004 -92.994182 5.308912
6.271196 -94.270352 5.503502
7.028185 -93.075615 6.240381
6.995634 -92.857849 4.413892
7.034004 -92.994182 5.308912
5.581795 -101.058926 -12.640057
4.83949 -102.390663 -12.149881
4.737714 -100.694561 -11.608077
5.581795 -101.058926 -12.640057
6.500702 -99.610462 -13.025353
2.242876 -108.543365 -2.647644
2.203613 -107.382396 -1.279405
2.228184 -108.117535 -3.69925
2.242876 -108.543365 -2.647644
2.175107 -107.638599 -4.670228
2.228184 -108.117535 -3.69925
2.138253 -106.602051 -3.315937
2.174785 -107.02969 -5.609115
2.175107 -107.638599 -4.670228
2.158107 -106.359874 -6.476172
2.174785 -107.02969 -5.609115
2.068499 -105.4533 -5.153973
2.255181 -105.560115 -7.292628
2.158107 -106.359874 -6.476172
0.516195 -108.614006 20.393192
0.830304 -108.536205 21.957045
0.516195 -108.614006 20.393192
0.433525 -107.365738 20.198385
0.328162 -106.056195 18.370246
0.484648 -106.099861 19.908927
0.611476 -104.782803 19.64588
0.328162 -106.056195 18.370246
0.269362 -106.096569 16.838534
0.221217 -108.935833 12.744398
0.178644 -107.526409 14.091114
0.38885 -109.048576 11.273398
0.221217 -108.935833 12.744398
0.481018 -107.690079 11.197116
0.596315 -109.139839 9.858156
0.38885 -109.048576 11.273398
1.869696 -110.698848 23.773781
2.337224 -111.650891 23.794885
2.445384 -110.518547 25.262056
1.486374 -109.640346 23.695782
1.869696 -110.698848 23.773781
3.806617 -106.351548 30.753545
4.307398 -105.361019 32.000633
3.314977 -107.388073 29.491419
3.806617 -106.351548 30.753545
3.104471 -106.372914 29.261203
2.947126 -108.395706 28.116439
3.314977 -107.388073 29.491419
2.295343 -108.487972 26.620014
2.629639 -109.474239 26.737376
2.947126 -108.395706 28.116439
1.236799 -108.549836 23.528236
1.486374 -109.640346 23.695782
1.728281 -108.475994 25.073407
1.072211 -107.371853 23.334669
0.830304 -108.536205 21.957045
1.236799 -108.549836 23.528236
5.65517 -88.180855 -1.942805
5.802058 -89.114941 -1.18593
4.975433 -88.79636 -2.584468
5.65517 -88.180855 -1.942805
4.396892 -89.489971 -3.352259
4.419881 -90.527878 -2.604594
4.975433 -88.79636 -2.584468
3.997069 -90.089299 -4.105869
4.396892 -89.489971 -3.352259
4.552621 -88.357781 -4.085744
5.460181 -84.531017 -6.382761
5.08973 -85.873752 -5.594997
5.640812 -84.0122 -5.647085
5.518319 -84.978927 -7.092849
5.460181 -84.531017 -6.382761
5.687608 -85.473858 -7.907026
5.078388 -86.887501 -7.144851
5.518319 -84.978927 -7.092849
6.092534 -85.892571 -8.670148
5.687608 -85.473858 -7.907026
0.843873 -109.237556 8.443443
0.596315 -109.139839 9.858156
0.843873 -109.237556 8.443443
0.949287 -107.867005 8.433027
1.465954 -106.562626 7.07008
1.209553 -106.483868 8.34398
1.465416 -105.093827 8.329879
1.465954 -106.562626 7.07008
1.713572 -106.609082 5.786476
2.313014 -106.40966 1.079598
2.235219 -106.55888 2.226876
2.430284 -104.949055 1.309446
2.333165 -106.223202 0.015997
2.313014 -106.40966 1.079598
3.807485 -99.135464 26.676442
3.492927 -100.41293 27.232747
3.501786 -98.886971 25.164461
3.807485 -99.135464 26.676442
3.204459 -98.686859 23.635537
2.782751 -100.000518 24.163182
3.501786 -98.886971 25.164461
3.00146 -98.464275 22.150737
3.204459 -98.686859 23.635537
3.720495 -97.350727 23.152015
4.148144 -95.80109 21.17915
4.254549 -96.028446 22.613357
3.433369 -96.962193 20.232601
4.148144 -95.80109 21.17915
4.064017 -95.63514 19.744536
4.184738 -95.311886 15.694753
4.093891 -95.386746 17.000761
4.85667 -94.080399 16.630641
6.120539 -92.782601 12.548084
5.933306 -92.757095 13.726719
6.320934 -92.846428 11.400538
6.514772 -92.916779 10.29829
5.480339 -94.083496 11.722452
6.120539 -92.782601 12.548084
6.320934 -92.846428 11.400538
6.891982 -92.615666 3.545108
6.173362 -93.946736 3.703251
6.995634 -92.857849 4.413892
6.75241 -92.301704 2.707026
6.891982 -92.615666 3.545108
6.569402 -91.864193 1.893118
5.886703 -93.267041 2.02056
6.75241 -92.301704 2.707026
6.364868 -91.344628 1.100318
6.569402 -91.864193 1.893118
2.360431 -104.69791 -8.054656
2.255181 -105.560115 -7.292628
2.15707 -103.921279 -6.783058
2.729863 -105.3484 -9.258437
2.360431 -104.69791 -8.054656
2.631752 -103.709564 -8.748867
3.200647 -105.963902 -10.48313
2.729863 -105.3484 -9.258437
3.200647 -105.963902 -10.48313
3.653815 -104.847126 -11.085674
4.150927 -103.680249 -11.6683
4.83949 -102.390663 -12.149881
8.766448 -91.113732 -12.505725
7.720956 -90.874016 -11.704819
8.664862 -92.957394 -12.874408
8.766448 -91.113732 -12.505725
8.600609 -94.776096 -13.320725
7.494369 -94.578941 -12.49523
8.664862 -92.957394 -12.874408
8.593333 -96.533825 -13.766811
8.600609 -94.776096 -13.320725
7.47575 -98.127872 -13.447
8.593333 -96.533825 -13.766811
3 0 27 25
3 1 30 28
3 1 32 30
3 3 39 37
3 3 41 39
3 2 46 44
3 4 49 47
3 4 97 99
3 99 98 49
3 97 98 99
3 5 100 102
3 100 50 101
3 100 101 102
3 6 51 26
3 6 52 51
3 7 103 105
3 105 104 53
3 103 104 105
3 8 106 108
3 108 107 29
3 106 107 108
3 8 109 111
3 109 54 110
3 109 110 111
3 8 56 54
3 10 57 31
3 10 58 57
3 11 61 59
3 112 62 113
3 114 113 33
3 112 113 114
3 115 63 116
3 117 116 62
3 115 116 117
3 118 64 119
3 13 65 34
3 13 66 65
3 13 67 66
3 14 68 35
3 14 69 68
3 15 72 70
3 17 73 36
3 17 74 73
3 120 75 121
3 122 76 123
3 124 123 75
3 122 123 124
3 9 125 127
3 127 126 55
3 125 126 127
3 18 128 130
3 130 129 38
3 128 129 130
3 18 131 132
3 18 133 135
3 133 77 134
3 133 134 135
3 19 78 40
3 19 79 78
3 136 80 137
3 138 81 139
3 140 82 141
3 142 141 81
3 140 141 142
3 20 83 42
3 20 84 83
3 21 143 145
3 143 85 144
3 143 144 145
3 21 86 85
3 21 87 86
3 22 88 43
3 22 89 88
3 22 90 89
3 16 91 71
3 23 92 45
3 23 93 92
3 12 94 60
3 24 95 48
3 24 96 95
3 24 146 148
3 148 147 96
3 146 147 148
3 25 26 5
3 27 26 25
3 27 6 26
3 28 29 7
3 30 29 28
3 30 8 29
3 30 31 8
3 32 31 30
3 32 10 31
3 149 33 150
3 151 150 11
3 149 150 151
3 152 33 153
3 155 154 33
3 156 34 157
3 158 34 159
3 158 159 160
3 161 13 162
3 163 162 34
3 161 162 163
3 164 35 165
3 166 165 13
3 164 165 166
3 167 35 168
3 169 14 170
3 171 170 35
3 169 170 171
3 172 36 173
3 174 173 15
3 172 173 174
3 175 36 176
3 177 17 178
3 179 178 36
3 177 178 179
3 37 38 9
3 39 38 37
3 39 18 38
3 39 40 18
3 41 40 39
3 41 19 40
3 180 42 181
3 182 42 183
3 184 20 185
3 186 185 42
3 184 185 186
3 187 21 188
3 189 43 190
3 191 190 21
3 189 190 191
3 192 43 193
3 194 22 195
3 196 195 43
3 194 195 196
3 198 197 22
3 44 45 16
3 46 45 44
3 46 23 45
3 47 48 12
3 49 48 47
3 49 24 48
3 49 199 201
3 201 200 24
3 199 200 201
3 203 202 49
3 50 204 205
3 50 206 207
3 26 50 5
3 51 50 26
3 51 208 210
3 210 209 50
3 208 209 210
3 51 211 212
3 52 213 215
3 215 214 51
3 213 214 215
3 52 216 217
3 53 218 219
3 221 220 53
3 29 222 224
3 224 223 7
3 222 223 224
3 226 225 29
3 54 227 228
3 54 229 230
3 54 231 233
3 231 55 232
3 231 232 233
3 56 55 54
3 56 9 55
3 31 56 8
3 57 56 31
3 57 9 56
3 57 37 9
3 58 37 57
3 58 3 37
3 59 60 2
3 61 60 59
3 61 12 60
3 33 61 11
3 62 61 33
3 62 12 61
3 62 47 12
3 63 47 62
3 63 4 47
3 64 234 236
3 234 235 236
3 64 237 238
3 34 239 240
3 65 241 243
3 243 242 34
3 241 242 243
3 65 244 245
3 65 246 248
3 246 64 247
3 246 247 248
3 66 64 65
3 66 249 251
3 251 250 64
3 249 250 251
3 66 252 254
3 252 53 253
3 252 253 254
3 67 53 66
3 67 7 53
3 35 67 13
3 68 67 35
3 68 7 67
3 68 28 7
3 69 28 68
3 69 1 28
3 70 71 0
3 72 71 70
3 72 16 71
3 36 72 15
3 73 72 36
3 73 16 72
3 73 44 16
3 74 44 73
3 74 2 44
3 255 17 256
3 257 17 258
3 259 74 260
3 261 260 17
3 259 260 261
3 75 262 264
3 262 74 263
3 262 263 264
3 75 2 74
3 75 59 2
3 76 59 75
3 76 11 59
3 265 76 266
3 265 266 267
3 268 76 269
3 270 11 271
3 272 271 76
3 270 271 272
3 274 273 11
3 55 275 276
3 278 277 55
3 38 279 281
3 281 280 9
3 279 280 281
3 283 282 38
3 77 284 285
3 77 286 288
3 286 5 287
3 286 287 288
3 40 77 18
3 78 77 40
3 78 5 77
3 78 25 5
3 79 25 78
3 79 0 25
3 289 14 290
3 291 14 292
3 293 69 294
3 295 294 14
3 293 294 295
3 80 296 298
3 296 69 297
3 296 297 298
3 80 1 69
3 299 80 300
3 81 301 303
3 301 80 302
3 301 302 303
3 81 1 80
3 81 32 1
3 82 32 81
3 82 10 32
3 42 304 306
3 304 82 305
3 304 305 306
3 83 82 42
3 83 10 82
3 83 58 10
3 84 58 83
3 84 3 58
3 307 20 308
3 85 309 310
3 85 311 313
3 311 20 312
3 311 312 313
3 85 84 20
3 86 84 85
3 86 3 84
3 86 41 3
3 87 41 86
3 87 19 41
3 43 87 21
3 88 87 43
3 88 19 87
3 88 79 19
3 89 79 88
3 89 0 79
3 89 70 0
3 90 70 89
3 90 15 70
3 314 90 315
3 316 315 22
3 314 315 316
3 317 90 318
3 319 15 320
3 321 320 90
3 319 320 321
3 323 322 15
3 71 27 0
3 91 27 71
3 91 6 27
3 45 91 16
3 92 91 45
3 92 6 91
3 92 52 6
3 93 52 92
3 93 324 326
3 326 325 52
3 324 325 326
3 60 46 2
3 94 46 60
3 94 23 46
3 48 94 12
3 95 94 48
3 95 23 94
3 95 93 23
3 96 93 95
3 96 327 329
3 329 328 93
3 327 328 329
3 96 330 331
3 333 332 96
3 335 334 24
3 336 63 337
3 338 63 339
3 340 4 341
3 342 341 63
3 340 341 342
3 343 4 344
3 346 345 4
