ply
format ascii 1.0
element vertex 181
property float x
property float y
property float z
element face 172
property list uchar int vertex_index
end_header
52.572174 43.289768 1.791972
54.830681 33.506935 15.139504
56.280018 38.873962 8.346491
56.896919 26.69276 8.462997
56.22813 36.363567 11.829028
56.718315 32.942413 9.046719
56.863907 30.349213 11.538561
54.253468 46.600441 2.075733
54.964775 41.15818 4.940167
55.225182 44.434402 6.28862
55.107372 42.042603 10.662028
55.120007 35.313824 6.700931
55.01091 29.03587 7.163147
52.48444 40.50053 3.327242
55.679955 34.983494 13.516178
56.578117 33.390682 11.862485
56.059868 31.986568 13.326954
54.866409 45.542519 4.147772
54.621525 40.733879 12.811973
55.780342 40.036697 6.617798
55.094482 38.292984 5.989019
55.993767 37.144405 7.413429
56.815601 29.848003 8.873598
56.119217 31.055309 7.940697
56.116951 27.882214 7.766338
56.121235 24.64724 7.45155
56.432926 37.655426 10.095437
56.55632 35.955647 8.883872
56.752602 34.710011 10.375437
56.973614 31.680557 10.280743
57.153107 28.588223 9.872414
53.726795 44.965534 1.786997
53.877739 42.244656 3.331319
54.694599 43.919361 3.606999
55.414047 42.829643 5.502057
55.846329 41.695747 7.457454
54.451912 45.971466 7.279763
55.309006 43.271435 8.472841
55.963745 40.507114 9.442381
55.753387 39.248459 11.416742
55.220455 37.903927 13.340206
54.391716 36.461243 15.182022
53.905552 39.411999 4.626633
53.847473 36.453159 5.611998
53.739452 33.367561 6.270094
56.092361 34.147984 7.848783
55.079903 32.223915 7.073769
52.528307 41.895149 2.559607
51.689112 41.021457 2.701248
51.732979 42.416077 1.933612
51.839042 43.780804 1.049405
52.564549 44.622812 0.916027
51.732979 42.416077 1.933612
51.839042 43.780804 1.049405
53.837639 46.704979 7.872421
53.924349 47.307106 6.62474
55.208189 42.657019 9.567435
54.786758 44.016728 9.058571
54.685941 43.402311 10.153164
54.543447 38.617869 14.111293
54.92099 39.318903 13.07609
54.243983 40.032844 13.847176
54.129078 37.896527 15.032201
54.806086 37.182585 14.261114
54.543447 38.617869 14.111293
53.835321 47.101589 1.078653
53.936621 47.918506 1.260887
53.990132 45.782987 1.931365
53.571985 46.284135 0.934285
53.835321 47.101589 1.078653
54.312144 29.600725 6.8999
54.34664 31.194748 6.855211
55.045406 30.629892 7.118458
54.252544 27.949787 6.980549
54.312144 29.600725 6.8999
51.564894 39.576427 3.456095
51.689112 41.021457 2.701248
52.409279 39.035064 3.953235
51.564894 39.576427 3.456095
54.493971 46.874836 3.402099
54.559939 46.07148 3.111752
54.1875 47.403797 2.36608
54.634666 46.330303 4.543874
54.493971 46.874836 3.402099
54.814053 45.776245 5.614298
55.045795 44.988461 5.218196
54.634666 46.330303 4.543874
54.475397 42.76124 11.326839
54.685941 43.402311 10.153164
54.232473 42.106878 12.401812
54.864448 41.388241 11.737001
54.475397 42.76124 11.326839
53.909468 41.423544 13.544681
54.232473 42.106878 12.401812
54.243983 40.032844 13.847176
53.909468 41.423544 13.544681
54.1875 47.403797 2.36608
53.936621 47.918506 1.260887
55.530236 26.824402 7.420951
54.977215 27.40123 7.119356
55.56393 28.459042 7.464742
55.532377 25.206915 7.263557
55.530236 26.824402 7.420951
56.119093 26.264727 7.608944
55.509222 23.540146 7.200109
55.532377 25.206915 7.263557
55.043312 32.001291 14.952195
54.289467 32.720707 15.919466
54.427418 46.544777 6.10987
53.924349 47.307106 6.62474
54.838547 45.202934 6.784192
54.814053 45.776245 5.614298
54.427418 46.544777 6.10987
54.358211 45.366743 8.462032
53.837639 46.704979 7.872421
54.880459 44.62145 7.876302
54.358211 45.366743 8.462032
54.786758 44.016728 9.058571
53.632176 37.143867 16.014038
54.129078 37.896527 15.032201
53.854011 35.687952 16.055447
53.632176 37.143867 16.014038
54.073494 34.210798 16.034188
54.611199 34.984089 15.160763
53.854011 35.687952 16.055447
54.289467 32.720707 15.919466
54.073494 34.210798 16.034188
53.141859 45.460695 0.91354
52.987049 46.779297 0.060828
53.571985 46.284135 0.934285
53.149484 44.127651 1.789484
52.564549 44.622812 0.916027
53.141859 45.460695 0.91354
53.119835 38.490799 4.60293
52.409279 39.035064 3.953235
53.194996 39.956265 3.976938
53.090795 37.011379 5.095612
53.119835 38.490799 4.60293
53.876513 37.932579 5.119315
53.001835 35.473136 5.565391
53.090795 37.011379 5.095612
52.947824 33.930338 5.894439
53.001835 35.473136 5.565391
53.793463 34.91036 5.941046
52.85906 32.323649 6.217296
52.947824 33.930338 5.894439
53.676414 31.766571 6.453373
54.409678 32.795738 6.671932
54.34664 31.194748 6.855211
52.85906 32.323649 6.217296
53.676414 31.766571 6.453373
54.252544 27.949787 6.980549
54.977215 27.40123 7.119356
55.657905 31.241107 14.04592
55.445274 32.746752 14.233229
55.043312 32.001291 14.952195
56.244766 30.465052 13.071365
55.657905 31.241107 14.04592
56.646786 29.646374 12.177168
56.461888 31.16789 12.432758
56.244766 30.465052 13.071365
57.006498 28.809095 11.238627
56.646786 29.646374 12.177168
57.151099 27.928601 10.405554
57.008507 29.468718 10.705488
57.006498 28.809095 11.238627
57.248821 27.023714 9.569841
57.151099 27.928601 10.405554
57.120728 26.075983 8.865132
57.025013 27.640491 9.167706
57.248821 27.023714 9.569841
56.949115 25.095343 8.209872
57.120728 26.075983 8.865132
56.561273 24.072582 7.704148
56.509077 25.67 7.957273
56.949115 25.095343 8.209872
56.13788 23.007255 7.299168
56.561273 24.072582 7.704148
56.577919 22.432598 7.551766
55.509222 23.540146 7.200109
56.13788 23.007255 7.299168
3 0 47 49
3 47 13 48
3 47 48 49
3 0 50 51
3 0 52 53
3 1 16 14
3 2 21 19
3 3 24 22
3 3 25 24
3 4 28 26
3 6 29 15
3 6 30 29
3 7 33 31
3 9 34 17
3 9 35 34
3 54 36 55
3 10 56 58
3 56 37 57
3 56 57 58
3 10 38 37
3 10 39 38
3 59 40 60
3 61 60 18
3 59 60 61
3 62 41 63
3 64 63 40
3 62 63 64
3 7 65 66
3 7 67 69
3 67 31 68
3 67 68 69
3 8 42 32
3 11 43 20
3 11 44 43
3 5 45 27
3 12 46 23
3 12 70 72
3 72 71 46
3 70 71 72
3 12 73 74
3 13 75 76
3 13 77 78
3 14 15 4
3 16 15 14
3 16 6 15
3 79 17 80
3 81 80 7
3 79 80 81
3 82 17 83
3 84 9 85
3 86 85 17
3 84 85 86
3 87 10 88
3 89 18 90
3 91 90 10
3 89 90 91
3 92 18 93
3 95 94 18
3 96 7 97
3 19 20 8
3 21 20 19
3 21 11 20
3 22 23 5
3 24 23 22
3 24 12 23
3 24 98 100
3 100 99 12
3 98 99 100
3 25 101 103
3 103 102 24
3 101 102 103
3 25 104 105
3 26 27 2
3 28 27 26
3 28 5 27
3 15 28 4
3 29 28 15
3 29 5 28
3 29 22 5
3 30 22 29
3 30 3 22
3 107 106 1
3 31 32 0
3 33 32 31
3 33 8 32
3 17 33 7
3 34 33 17
3 34 8 33
3 34 19 8
3 35 19 34
3 35 2 19
3 36 108 109
3 36 110 112
3 110 9 111
3 110 111 112
3 113 36 114
3 37 115 117
3 115 36 116
3 115 116 117
3 37 9 36
3 37 35 9
3 38 35 37
3 38 2 35
3 38 26 2
3 39 26 38
3 39 4 26
3 18 39 10
3 40 39 18
3 40 4 39
3 40 14 4
3 41 14 40
3 41 1 14
3 118 41 119
3 120 41 121
3 122 1 123
3 124 123 41
3 122 123 124
3 126 125 1
3 31 127 129
3 127 128 129
3 31 130 132
3 130 0 131
3 130 131 132
3 32 13 0
3 42 13 32
3 42 133 135
3 135 134 13
3 133 134 135
3 20 42 8
3 43 42 20
3 43 136 138
3 138 137 42
3 136 137 138
3 43 139 140
3 44 141 143
3 143 142 43
3 141 142 143
3 44 144 145
3 27 21 2
3 45 21 27
3 45 11 21
3 23 45 5
3 46 45 23
3 46 11 45
3 46 44 11
3 146 44 147
3 148 147 46
3 146 147 148
3 150 149 44
3 152 151 12
3 153 16 154
3 155 154 1
3 153 154 155
3 156 16 157
3 158 6 159
3 160 159 16
3 158 159 160
3 161 6 162
3 163 30 164
3 165 164 6
3 163 164 165
3 166 30 167
3 168 3 169
3 170 169 30
3 168 169 170
3 171 3 172
3 173 25 174
3 175 174 3
3 173 174 175
3 176 25 177
3 176 177 178
3 180 179 25
