ply
format ascii 1.0
element vertex 320
property float x
property float y
property float z
element face 319
property list uchar int vertex_index
end_header
-65.149277 5.467525 10.534558
-54.909988 14.855797 5.535781
-54.637287 1.908249 8.986103
-60.368114 9.492535 6.872948
-67.600357 -2.671568 14.556563
-47.730629 6.120173 9.677609
-64.345093 2.634321 9.679188
-61.393402 4.200434 7.93389
-63.099922 7.225422 8.643503
-66.455643 1.891579 12.133095
-54.877357 8.570564 6.561351
-51.097076 3.948736 9.224545
-51.668182 11.048462 6.942707
-58.337608 0.084536 9.271753
-58.132767 6.246677 6.858475
-57.597343 12.073919 5.778817
-41.188251 2.223764 11.152365
-46.860191 -1.572342 12.24997
-43.790367 0.271523 12.004895
-44.557041 8.398849 9.955825
-65.793762 5.775682 13.420682
-67.447891 1.834412 15.553247
-64.931778 4.271332 9.994022
-63.778267 4.97567 8.964359
-64.287994 6.248499 9.637679
-65.786987 3.915827 11.183886
-65.533203 2.144981 10.796482
-54.911606 11.773247 5.834189
-53.270355 9.795511 6.684449
-53.420063 13.102585 5.980471
-51.915268 14.455036 6.263003
-60.205357 -0.706182 9.662451
-60.944099 6.898035 7.211737
-59.774231 5.178928 7.303212
-59.428078 8.0196 6.562122
-57.909164 9.217438 6.109053
-58.971153 10.750315 6.222151
-54.437439 -1.472965 10.482757
-52.555256 -0.598766 10.530653
-49.392441 5.021099 9.448616
-48.995354 1.28565 10.801919
-47.319862 2.277189 10.933853
-45.271015 -0.663677 12.19104
-45.717484 3.295063 11.000634
-44.195541 4.339024 10.961292
-46.115768 7.245312 9.861581
-65.850388 5.890669 15.435325
-64.792206 7.631908 14.379086
-67.503685 1.895124 17.569689
-66.684639 3.899836 14.460084
-63.374851 0.724457 9.746061
-61.745129 1.426214 8.968115
-62.940269 3.338617 8.730532
-62.416794 5.873047 8.025911
-61.762604 8.31373 7.697516
-67.069351 -0.347055 13.270975
-66.596436 -2.579353 13.139997
-66.094772 -0.169222 11.874938
-64.846481 0.185015 10.707649
-54.787544 5.270512 7.644295
-52.84481 2.908043 9.055527
-53.083645 6.386484 7.739579
-51.403416 7.536329 7.95651
-49.742699 8.713362 8.247921
-48.100796 9.915968 8.560553
-50.064003 12.325777 7.285191
-56.472313 0.961988 9.050644
-60.02491 2.25728 8.366552
-58.270069 3.189274 7.944757
-56.517975 4.199766 7.705958
-56.497246 7.382969 6.612168
-56.404079 10.473991 5.868183
-56.248512 13.447586 5.55427
-50.740677 0.324389 10.651606
-48.55217 -2.451233 12.218979
-42.426437 1.233383 11.664176
-42.764706 5.411041 10.783863
-46.482803 11.146631 8.84128
-65.535744 5.627901 11.71899
-64.598206 7.024763 10.776609
-64.780914 7.410013 12.393291
-68.26503 -2.645569 16.191471
-68.084557 -0.251707 18.721012
-68.076172 -0.339624 16.729141
-67.736443 -0.387587 14.897717
-67.096581 1.814594 13.724294
-66.357307 3.860518 12.667064
-63.489758 8.209259 9.761127
-62.243301 9.40107 8.735729
-60.942604 10.648636 7.782244
-59.651684 11.967152 6.96708
-58.405956 13.356022 6.338075
-54.234703 15.57151 5.612409
-53.48974 14.694904 5.834754
-54.165025 13.979191 5.758126
-61.117536 -1.047595 9.946982
-60.273106 -2.186275 10.382608
-67.311653 -3.835547 14.549962
-67.817543 -3.832281 15.263591
-65.233731 6.819759 16.021588
-65.771195 5.925412 16.542783
-65.771195 5.925412 16.542783
-66.304676 4.927633 15.961419
-51.151209 15.142588 6.444885
-52.045433 16.096243 6.113547
-57.358306 -1.100441 9.907979
-58.348442 -1.46867 10.007542
-57.404961 0.523262 9.161199
-56.425659 -0.661715 9.797424
-57.358306 -1.100441 9.907979
-66.139725 -3.72733 13.243726
-65.945122 -2.459501 12.546764
-40.547922 0.562092 11.051824
-41.04233 0.103511 11.491452
-46.612133 -3.47896 12.900785
-47.458123 -3.918406 12.885289
-47.706181 -2.011788 12.234474
-45.820493 -3.080106 12.808909
-45.572435 -4.986724 13.459724
-46.612133 -3.47896 12.900785
-43.564089 -1.74393 12.518988
-44.304413 -2.21153 12.61206
-44.530691 -0.196077 12.097967
-42.91572 -1.315538 12.264609
-43.564089 -1.74393 12.518988
-43.108402 0.752453 11.834535
-42.233755 -0.834608 12.09425
-42.91572 -1.315538 12.264609
-43.81217 8.991223 9.939858
-42.916002 7.497319 10.353877
-43.660873 6.904945 10.369844
-47.469663 12.387921 8.248349
-47.291799 10.531299 8.700916
-48.27866 11.772589 8.107986
-64.202644 8.413046 13.838188
-64.092914 8.505437 14.954031
-68.417244 -2.593548 17.102525
-68.47136 -3.763869 16.900465
-68.623573 -3.711848 17.81152
-67.678044 0.849285 19.218561
-67.929921 -0.212066 19.772025
-63.569636 8.522084 10.549732
-64.043982 7.617011 10.268868
-64.12386 7.929836 11.057473
-61.707149 10.445253 8.981327
-62.334814 9.781267 9.500065
-61.056801 11.069036 8.504584
-61.592953 10.024853 8.258986
-61.707149 10.445253 8.981327
-59.228363 13.143398 7.240032
-59.800316 12.418126 7.629272
-58.605499 13.837833 6.92553
-59.02882 12.661587 6.652577
-59.228363 13.143398 7.240032
-52.737343 15.37113 5.97602
-52.667665 13.77881 6.121737
-53.48974 14.694904 5.834754
-52.045433 16.096243 6.113547
-52.737343 15.37113 5.97602
-59.282317 -1.864029 10.202891
-60.273106 -2.186275 10.382608
-59.271483 -0.310823 9.467102
-58.348442 -1.46867 10.007542
-59.282317 -1.864029 10.202891
-40.635852 2.733826 10.807463
-41.312585 4.3683 10.799299
-53.334789 -2.781026 11.274587
-54.324016 -3.150057 11.259707
-52.393698 -2.343927 11.298535
-53.334789 -2.781026 11.274587
-53.496347 -1.035866 10.506705
-51.449511 -1.946083 11.33644
-52.393698 -2.343927 11.298535
-64.704639 7.690379 15.493468
-65.321297 6.761289 14.907205
-65.233731 6.819759 16.021588
-64.092914 8.505437 14.954031
-64.704639 7.690379 15.493468
-67.042233 2.954802 18.121908
-67.387608 1.9227 18.642899
-67.131325 2.929861 17.028601
-67.042233 2.954802 18.121908
-67.103428 2.899505 16.02038
-67.475788 1.864768 16.561468
-67.131325 2.929861 17.028601
-66.721802 3.932217 15.473799
-67.066265 2.867124 15.006666
-67.103428 2.899505 16.02038
-66.267514 4.895252 14.947705
-66.721802 3.932217 15.473799
-66.304676 4.927633 15.961419
-62.55999 1.075335 9.357088
-61.887422 0.018603 9.599814
-62.702284 -0.332276 9.988787
-65.69429 -1.254436 11.914234
-65.945122 -2.459501 12.546764
-66.345604 -1.374287 12.507468
-65.070144 -1.077317 11.33059
-65.69429 -1.254436 11.914234
-65.470627 0.007897 11.291294
-64.297792 -0.877668 10.848724
-65.070144 -1.077317 11.33059
-63.561977 -0.607947 10.36793
-64.297792 -0.877668 10.848724
-64.110666 0.454736 10.226855
-62.702284 -0.332276 9.988787
-63.561977 -0.607947 10.36793
-49.260264 12.977494 7.470305
-48.27866 11.772589 8.107986
-49.0824 11.120873 7.922872
-50.225577 14.077958 6.955979
-50.989635 13.390407 6.774097
-51.151209 15.142588 6.444885
-49.260264 12.977494 7.470305
-50.225577 14.077958 6.955979
-55.408222 -1.879192 10.513481
-54.324016 -3.150057 11.259707
-55.454876 -0.255489 9.7667
-55.408222 -1.879192 10.513481
-56.425659 -0.661715 9.797424
-60.975243 0.360016 9.315283
-61.117536 -1.047595 9.946982
-61.887422 0.018603 9.599814
-66.809692 -3.78944 13.841679
-67.311653 -3.835547 14.549962
-67.098397 -2.62546 13.84828
-66.809692 -3.78944 13.841679
-66.139725 -3.72733 13.243726
-39.995524 1.072153 10.706922
-40.547922 0.562092 11.051824
-40.635852 2.733826 10.807463
-50.542221 -1.484506 11.396916
-51.449511 -1.946083 11.33644
-51.647966 -0.137189 10.591129
-49.447967 -2.872317 12.180603
-50.542221 -1.484506 11.396916
-49.646423 -1.063422 11.435292
-48.317394 -4.298755 12.918746
-49.447967 -2.872317 12.180603
-48.317394 -4.298755 12.918746
-47.458123 -3.918406 12.885289
-45.025906 -2.625773 12.779444
-45.820493 -3.080106 12.808909
-46.065603 -1.118009 12.220505
-45.025906 -2.625773 12.779444
-44.304413 -2.21153 12.61206
-41.661423 -0.391679 11.747357
-42.233755 -0.834608 12.09425
-41.807344 1.728573 11.408271
-41.04233 0.103511 11.491452
-41.661423 -0.391679 11.747357
-42.100813 5.961939 10.615048
-41.312585 4.3683 10.799299
-41.976478 3.817403 10.968114
-42.100813 5.961939 10.615048
-42.916002 7.497319 10.353877
-46.667184 13.055217 8.419462
-47.469663 12.387921 8.248349
-45.691131 11.778056 8.941644
-46.667184 13.055217 8.419462
-44.728251 10.404165 9.498917
-45.519922 9.77274 9.398553
-45.691131 11.778056 8.941644
-43.81217 8.991223 9.939858
-44.728251 10.404165 9.498917
-64.215214 8.122461 11.865814
-64.12386 7.929836 11.057473
-64.68956 7.217388 11.58495
-64.196999 8.302098 12.845291
-64.78656 7.520961 13.386188
-64.202644 8.413046 13.838188
-64.215214 8.122461 11.865814
-64.196999 8.302098 12.845291
-68.149879 -3.819282 16.081045
-68.47136 -3.763869 16.900465
-67.932693 -2.658569 15.374017
-67.817543 -3.832281 15.263591
-68.149879 -3.819282 16.081045
-68.299274 -1.329033 19.350111
-67.929921 -0.212066 19.772025
-68.327008 -1.396617 18.367296
-68.299274 -1.329033 19.350111
-67.794121 0.821708 18.14535
-67.678044 0.849285 19.218561
-67.387608 1.9227 18.642899
-68.322815 -1.440576 17.371361
-68.327008 -1.396617 18.367296
-68.080365 -0.295666 17.725077
-68.170601 -1.492597 16.460306
-68.417244 -2.593548 17.102525
-68.322815 -1.440576 17.371361
-62.958043 9.185361 10.012764
-63.569636 8.522084 10.549732
-62.866529 8.805165 9.248428
-62.958043 9.185361 10.012764
-62.334814 9.781267 9.500065
-60.445776 11.758868 8.036854
-61.056801 11.069036 8.504584
-60.297144 11.307894 7.374662
-60.445776 11.758868 8.036854
-59.800316 12.418126 7.629272
-58.079901 14.597473 6.632076
-58.605499 13.837833 6.92553
-57.809046 14.079925 6.129275
-58.079901 14.597473 6.632076
-57.404739 13.438874 5.849646
-58.001649 12.71497 6.058446
-57.809046 14.079925 6.129275
-56.730323 14.125708 5.737372
-56.922928 12.760752 5.666543
-57.404739 13.438874 5.849646
-56.151032 14.870683 5.634467
-56.730323 14.125708 5.737372
-55.481769 15.574789 5.625222
-55.57925 14.151692 5.545025
-56.151032 14.870683 5.634467
-54.904736 16.332903 5.616447
-55.481769 15.574789 5.625222
-54.234703 15.57151 5.612409
-54.904736 16.332903 5.616447
3 0 24 22
3 0 22 25
3 1 29 27
3 1 92 94
3 94 93 29
3 92 93 94
3 95 31 96
3 3 34 32
3 3 36 34
3 4 97 98
3 2 38 37
3 5 41 39
3 5 43 41
3 5 45 43
3 100 99 46
3 101 46 102
3 6 52 50
3 8 53 23
3 8 54 53
3 9 57 55
3 6 58 26
3 6 50 58
3 10 61 59
3 12 62 28
3 12 63 62
3 12 65 63
3 104 103 30
3 13 105 106
3 13 107 109
3 107 66 108
3 107 108 109
3 7 67 51
3 14 68 33
3 14 69 68
3 14 70 69
3 15 71 35
3 15 72 71
3 111 110 56
3 16 112 113
3 11 73 60
3 17 74 40
3 17 114 116
3 116 115 74
3 114 115 116
3 17 117 119
3 117 118 119
3 18 120 122
3 122 121 42
3 120 121 122
3 18 123 124
3 18 125 127
3 125 75 126
3 125 126 127
3 19 76 44
3 19 128 130
3 130 129 76
3 128 129 130
3 131 77 132
3 133 132 64
3 131 132 133
3 20 80 78
3 135 134 47
3 136 81 137
3 136 137 138
3 139 82 140
3 21 83 48
3 21 84 83
3 21 85 84
3 20 86 49
3 20 78 86
3 141 87 142
3 143 142 79
3 141 142 143
3 144 88 145
3 146 89 147
3 148 147 88
3 146 147 148
3 149 90 150
3 151 91 152
3 153 152 90
3 151 152 153
3 22 23 6
3 24 23 22
3 24 8 23
3 25 26 9
3 22 26 25
3 22 6 26
3 27 28 10
3 29 28 27
3 29 12 28
3 29 30 12
3 154 30 155
3 156 155 29
3 154 155 156
3 158 157 30
3 31 159 160
3 31 161 163
3 161 13 162
3 161 162 163
3 32 33 7
3 34 33 32
3 34 14 33
3 34 35 14
3 36 35 34
3 36 15 35
3 165 164 16
3 37 166 167
3 38 168 170
3 170 169 37
3 168 169 170
3 38 171 172
3 39 40 11
3 41 40 39
3 41 17 40
3 41 42 17
3 43 42 41
3 43 18 42
3 43 44 18
3 45 44 43
3 45 19 44
3 46 47 20
3 173 47 174
3 175 174 46
3 173 174 175
3 177 176 47
3 178 48 179
3 180 48 181
3 182 21 183
3 184 183 48
3 182 183 184
3 185 49 186
3 187 186 21
3 185 186 187
3 46 188 190
3 188 49 189
3 188 189 190
3 46 20 49
3 50 191 193
3 191 51 192
3 191 192 193
3 52 51 50
3 52 7 51
3 23 52 6
3 53 52 23
3 53 7 52
3 53 32 7
3 54 32 53
3 54 3 32
3 55 56 4
3 57 56 55
3 57 194 196
3 196 195 56
3 194 195 196
3 26 57 9
3 58 57 26
3 58 197 199
3 199 198 57
3 197 198 199
3 58 200 201
3 50 202 204
3 204 203 58
3 202 203 204
3 50 205 206
3 59 60 2
3 61 60 59
3 61 11 60
3 28 61 10
3 62 61 28
3 62 11 61
3 62 39 11
3 63 39 62
3 63 5 39
3 63 64 5
3 65 64 63
3 65 207 209
3 209 208 64
3 207 208 209
3 30 65 12
3 210 65 211
3 212 211 30
3 210 211 212
3 214 213 65
3 215 37 216
3 66 217 219
3 217 37 218
3 217 218 219
3 66 2 37
3 51 220 222
3 220 31 221
3 220 221 222
3 67 31 51
3 67 13 31
3 33 67 7
3 68 67 33
3 68 13 67
3 68 66 13
3 69 66 68
3 69 2 66
3 69 59 2
3 70 59 69
3 70 10 59
3 35 70 14
3 71 70 35
3 71 10 70
3 71 27 10
3 72 27 71
3 72 1 27
3 56 223 225
3 225 224 4
3 223 224 225
3 227 226 56
3 230 229 16
3 228 229 230
3 60 38 2
3 73 38 60
3 73 231 233
3 233 232 38
3 231 232 233
3 40 73 11
3 74 73 40
3 74 234 236
3 236 235 73
3 234 235 236
3 74 237 238
3 240 239 74
3 42 241 243
3 243 242 17
3 241 242 243
3 245 244 42
3 75 246 247
3 75 248 250
3 248 16 249
3 248 249 250
3 44 75 18
3 76 75 44
3 76 16 75
3 76 251 253
3 253 252 16
3 251 252 253
3 255 254 76
3 64 45 5
3 77 45 64
3 77 19 45
3 256 77 257
3 258 77 259
3 260 19 261
3 262 261 77
3 260 261 262
3 264 263 19
3 78 79 0
3 80 79 78
3 80 265 267
3 267 266 79
3 265 266 267
3 47 80 20
3 268 80 269
3 270 269 47
3 268 269 270
3 272 271 80
3 81 273 274
3 81 275 277
3 275 4 276
3 275 276 277
3 82 278 279
3 82 280 281
3 48 282 284
3 282 82 283
3 282 283 284
3 83 82 48
3 83 285 287
3 287 286 82
3 285 286 287
3 83 288 290
3 288 81 289
3 288 289 290
3 84 81 83
3 84 4 81
3 84 55 4
3 85 55 84
3 85 9 55
3 49 85 21
3 86 85 49
3 86 9 85
3 86 25 9
3 78 25 86
3 78 0 25
3 79 24 0
3 87 24 79
3 87 8 24
3 291 87 292
3 88 293 295
3 293 87 294
3 293 294 295
3 88 8 87
3 88 54 8
3 89 54 88
3 89 3 54
3 296 89 297
3 90 298 300
3 298 89 299
3 298 299 300
3 90 3 89
3 90 36 3
3 91 36 90
3 91 15 36
3 301 91 302
3 303 91 304
3 305 15 306
3 307 306 91
3 305 306 307
3 308 72 309
3 310 309 15
3 308 309 310
3 311 72 312
3 313 1 314
3 315 314 72
3 313 314 315
3 316 1 317
3 319 318 1
