ply
format ascii 1.0
element vertex 235
property float x
property float y
property float z
element face 221
property list uchar int vertex_index
end_header
70.561867 -40.460625 -26.609884
67.099739 -37.529243 -33.698372
68.302597 -55.324787 -20.918177
70.522453 -32.54982 -28.998243
69.203865 -30.580036 -32.763718
69.15448 -39.02697 -30.23807
68.896385 -56.212093 -16.720633
68.522362 -22.164593 -35.620018
67.175034 -28.743587 -36.608345
70.937523 -42.131958 -22.821589
69.949295 -51.009819 -15.915129
70.382034 -49.271812 -20.010641
69.851906 -48.079468 -24.009378
68.43647 -47.189983 -27.724489
70.922119 -37.468407 -25.950144
70.771721 -33.636753 -27.134214
70.630028 -36.531429 -27.806391
70.060562 -35.657982 -29.646307
69.967842 -39.733124 -28.446184
69.302063 -23.305214 -33.551178
68.300293 -33.987309 -33.293892
68.248375 -29.656853 -34.676842
67.232239 -33.134247 -35.108727
66.106697 -32.238731 -36.911942
65.968895 -36.681892 -35.372787
70.690964 -43.128284 -20.887686
68.691498 -55.694687 -18.837137
69.762283 -52.76973 -18.423971
69.579071 -52.190845 -20.499567
70.23526 -48.613976 -22.032892
69.186508 -51.749855 -22.532469
70.246796 -28.545599 -30.230997
69.732376 -27.407444 -32.166306
69.982582 -31.536972 -30.87229
69.263428 -34.819687 -31.473795
68.178505 -38.303215 -31.98736
68.903694 -56.881527 -14.594492
67.776947 -59.582081 -14.919363
67.568054 -59.11808 -17.060579
67.196739 -58.803268 -19.175768
67.521095 -21.112352 -37.7379
68.963112 -26.349596 -34.141975
67.998032 -25.353931 -36.158607
66.892395 -24.396847 -38.205948
70.907875 -38.491875 -24.076609
70.893188 -41.249184 -24.732409
69.727425 -53.500671 -16.331484
70.286888 -50.07325 -17.965734
70.600594 -46.614235 -19.484663
70.768394 -45.725464 -21.473833
70.669159 -44.966259 -23.437799
70.306656 -44.314545 -25.358824
67.737442 -55.0653 -22.929785
68.593613 -51.403942 -24.491213
69.244644 -47.624191 -25.914328
69.69912 -43.729679 -27.219374
68.880447 -43.161438 -29.006632
67.897919 -42.559799 -30.715212
69.553986 -23.927951 -32.543489
69.250649 -21.949438 -33.236733
70.429237 -43.683343 -19.913788
70.328583 -41.981564 -20.5867
70.489627 -31.162134 -28.663545
70.614261 -31.7056 -27.731531
70.647087 -33.093286 -28.066229
70.384625 -30.547709 -29.61462
70.351799 -29.160024 -29.279922
70.489627 -31.162134 -28.663545
67.091388 -61.217186 -13.982761
67.790692 -59.884962 -13.847625
66.720104 -60.649353 -17.195124
66.889907 -60.781994 -16.128228
66.534447 -60.491947 -18.252718
67.382396 -58.960674 -18.118174
66.720104 -60.649353 -17.195124
68.192955 -20.108103 -36.402451
68.272487 -18.655384 -36.105252
68.601895 -20.711874 -35.322819
68.021728 -21.638472 -36.678959
67.692321 -19.581983 -37.461392
68.192955 -20.108103 -36.402451
66.601006 -28.280401 -37.575245
66.459687 -26.107031 -38.374046
67.033715 -26.570217 -37.407146
64.882263 -33.516556 -37.843494
65.527241 -31.761898 -37.797677
65.46172 -33.993389 -36.95776
70.922699 -40.311916 -23.449099
70.745346 -39.053196 -23.132058
70.76017 -40.873238 -22.504548
69.725517 -49.878429 -15.69829
69.66103 -51.527575 -14.891852
70.061215 -49.320114 -16.699703
69.725517 -49.878429 -15.69829
67.369182 -54.960064 -23.881861
66.86541 -56.773617 -23.058491
67.797268 -53.129385 -24.662575
68.165527 -53.234621 -23.710499
67.369182 -54.960064 -23.881861
68.840557 -47.407087 -26.819409
68.528931 -49.357586 -26.129052
68.124843 -49.140482 -27.034132
67.131695 -44.355759 -30.862848
67.680001 -44.638115 -30.069926
67.351776 -42.221558 -31.531244
67.131695 -44.355759 -30.862848
70.84692 -35.55258 -26.542179
70.735657 -34.2232 -26.203537
70.810856 -36.139027 -25.611502
68.991745 -21.282184 -34.288399
69.250649 -21.949438 -33.236733
68.912213 -22.734904 -34.585598
68.601895 -20.711874 -35.322819
68.991745 -21.282184 -34.288399
65.392819 -36.214969 -36.188182
65.46172 -33.993389 -36.95776
66.037796 -34.460312 -36.142364
70.63689 -41.371401 -21.537596
70.328583 -41.981564 -20.5867
70.814244 -42.630121 -21.854637
70.76017 -40.873238 -22.504548
70.63689 -41.371401 -21.537596
69.707218 -52.687782 -15.077473
69.66103 -51.527575 -14.891852
69.418953 -53.205538 -14.054196
67.651218 -48.966261 -27.894334
68.124843 -49.140482 -27.034132
67.949276 -46.953207 -28.574564
67.651218 -48.966261 -27.894334
70.552601 -32.366232 -26.791851
70.735657 -34.2232 -26.203537
70.552601 -32.366232 -26.791851
70.614261 -31.7056 -27.731531
70.118179 -27.226009 -29.900264
70.351799 -29.160024 -29.279922
70.026352 -26.548144 -30.883398
70.118179 -27.226009 -29.900264
69.989586 -27.976522 -31.198651
69.769142 -25.979066 -31.851053
70.026352 -26.548144 -30.883398
68.354065 -58.534685 -13.68519
68.799652 -57.2776 -13.534974
68.340321 -58.231804 -14.756927
68.354065 -58.534685 -13.68519
67.790692 -59.884962 -13.847625
66.994354 -61.013995 -15.05762
67.091388 -61.217186 -13.982761
67.672501 -59.350081 -15.989971
66.994354 -61.013995 -15.05762
66.889907 -60.781994 -16.128228
67.158233 -19.033778 -38.564377
67.692321 -19.581983 -37.461392
66.935756 -20.618206 -38.812905
67.158233 -19.033778 -38.564377
69.51722 -25.356329 -32.858742
69.553986 -23.927951 -32.543489
69.769142 -25.979066 -31.851053
66.621407 -22.260454 -39.046928
66.935756 -20.618206 -38.812905
67.206745 -22.7546 -37.971924
66.289318 -23.924895 -39.232254
66.018329 -21.788501 -40.073234
66.621407 -22.260454 -39.046928
66.289318 -23.924895 -39.232254
66.459687 -26.107031 -38.374046
66.066837 -30.027973 -37.727044
66.601006 -28.280401 -37.575245
66.640865 -30.491159 -36.760143
66.066837 -30.027973 -37.727044
65.527241 -31.761898 -37.797677
70.604965 -37.281864 -23.742508
70.745346 -39.053196 -23.132058
70.803734 -36.650761 -24.674734
70.604965 -37.281864 -23.742508
70.914997 -37.980141 -25.013376
70.810856 -36.139027 -25.611502
70.803734 -36.650761 -24.674734
69.184417 -55.623637 -14.417155
68.799652 -57.2776 -13.534974
69.596283 -53.933208 -15.28565
69.184417 -55.623637 -14.417155
69.31556 -55.191099 -15.462988
69.83836 -52.255245 -16.123306
69.707218 -52.687782 -15.077473
69.596283 -53.933208 -15.28565
70.230011 -48.85183 -17.725006
70.061215 -49.320114 -16.699703
70.118092 -50.541534 -16.940432
70.386864 -47.122322 -18.484471
70.230011 -48.85183 -17.725006
70.443741 -48.343743 -18.725199
70.384052 -45.426319 -19.212277
70.386864 -47.122322 -18.484471
70.645779 -44.87126 -20.186174
70.429237 -43.683343 -19.913788
70.384052 -45.426319 -19.212277
66.297756 -60.422026 -19.296377
66.534447 -60.491947 -18.252718
66.934299 -58.706621 -20.203629
66.297756 -60.422026 -19.296377
66.035316 -60.325378 -20.324238
67.487229 -56.967381 -21.074833
67.749668 -57.064028 -20.046973
66.934299 -58.706621 -20.203629
67.204651 -56.837637 -22.080637
66.86541 -56.773617 -23.058491
68.02002 -55.195043 -21.923981
67.487229 -56.967381 -21.074833
67.204651 -56.837637 -22.080637
68.203415 -51.247462 -25.417494
67.797268 -53.129385 -24.662575
68.919128 -49.514066 -25.20277
68.203415 -51.247462 -25.417494
68.528931 -49.357586 -26.129052
68.171265 -44.938935 -29.215635
68.658458 -45.17571 -28.365561
67.949276 -46.953207 -28.574564
68.389183 -42.860619 -29.860922
68.171265 -44.938935 -29.215635
67.680001 -44.638115 -30.069926
67.492069 -40.093266 -32.167318
68.038212 -40.431507 -31.351286
67.351776 -42.221558 -31.531244
66.952686 -39.70628 -33.022824
67.639122 -37.916229 -32.842866
67.492069 -40.093266 -32.167318
66.377125 -39.316647 -33.803696
66.952686 -39.70628 -33.022824
65.811702 -38.892971 -34.640903
66.534317 -37.105567 -34.535579
66.377125 -39.316647 -33.803696
65.225182 -38.445337 -35.388714
65.811702 -38.892971 -34.640903
65.392819 -36.214969 -36.188182
65.225182 -38.445337 -35.388714
3 0 16 14
3 0 18 16
3 58 19 59
3 1 22 20
3 1 24 22
3 60 25 61
3 2 28 26
3 2 30 28
3 3 62 64
3 64 63 15
3 62 63 64
3 3 65 67
3 65 31 66
3 65 66 67
3 3 33 31
3 5 34 17
3 5 35 34
3 68 37 69
3 70 38 71
3 72 39 73
3 74 73 38
3 72 73 74
3 7 75 77
3 75 76 77
3 7 78 80
3 78 40 79
3 78 79 80
3 4 41 32
3 8 42 21
3 8 43 42
3 8 81 83
3 83 82 43
3 81 82 83
3 86 85 23
3 84 85 86
3 9 87 89
3 87 44 88
3 87 88 89
3 9 45 44
3 10 90 91
3 10 92 93
3 6 46 36
3 11 47 27
3 11 48 47
3 11 49 48
3 12 50 29
3 12 51 50
3 94 52 95
3 96 53 97
3 98 97 52
3 96 97 98
3 13 99 101
3 99 54 100
3 99 100 101
3 13 55 54
3 13 56 55
3 102 57 103
3 105 104 57
3 14 106 108
3 106 15 107
3 106 107 108
3 16 15 14
3 16 3 15
3 16 17 3
3 18 17 16
3 18 5 17
3 19 109 110
3 19 111 113
3 111 7 112
3 111 112 113
3 20 21 4
3 22 21 20
3 22 8 21
3 22 23 8
3 24 23 22
3 24 114 116
3 116 115 23
3 114 115 116
3 25 117 118
3 25 119 121
3 119 9 120
3 119 120 121
3 122 10 123
3 122 123 124
3 26 27 6
3 28 27 26
3 28 11 27
3 28 29 11
3 30 29 28
3 30 12 29
3 125 13 126
3 128 127 13
3 15 129 130
3 132 131 15
3 31 133 134
3 31 135 136
3 31 137 139
3 137 32 138
3 137 138 139
3 33 32 31
3 33 4 32
3 17 33 3
3 34 33 17
3 34 4 33
3 34 20 4
3 35 20 34
3 35 1 20
3 140 36 141
3 37 142 144
3 142 36 143
3 142 143 144
3 37 6 36
3 145 37 146
3 38 147 149
3 147 37 148
3 147 148 149
3 38 6 37
3 38 26 6
3 39 26 38
3 39 2 26
3 40 150 151
3 40 152 153
3 32 154 156
3 154 19 155
3 154 155 156
3 41 19 32
3 41 7 19
3 21 41 4
3 42 41 21
3 42 7 41
3 42 40 7
3 43 40 42
3 43 157 159
3 159 158 40
3 157 158 159
3 43 160 162
3 160 161 162
3 164 163 43
3 23 165 167
3 167 166 8
3 165 166 167
3 169 168 23
3 44 170 171
3 44 172 173
3 44 174 176
3 174 14 175
3 174 175 176
3 45 14 44
3 45 0 14
3 36 177 178
3 46 179 181
3 181 180 36
3 179 180 181
3 46 182 184
3 182 10 183
3 182 183 184
3 27 46 6
3 47 46 27
3 47 10 46
3 47 185 187
3 187 186 10
3 185 186 187
3 48 188 190
3 190 189 47
3 188 189 190
3 48 191 192
3 48 193 195
3 193 25 194
3 193 194 195
3 49 25 48
3 49 9 25
3 29 49 11
3 50 49 29
3 50 9 49
3 50 45 9
3 51 45 50
3 51 0 45
3 196 39 197
3 198 39 199
3 198 199 200
3 201 2 202
3 203 202 39
3 201 202 203
3 52 204 205
3 52 206 208
3 206 2 207
3 206 207 208
3 52 30 2
3 53 30 52
3 53 12 30
3 209 53 210
3 54 211 213
3 211 53 212
3 211 212 213
3 54 12 53
3 54 51 12
3 55 51 54
3 55 0 51
3 55 18 0
3 56 18 55
3 56 5 18
3 214 56 215
3 216 215 13
3 214 215 216
3 57 217 219
3 217 56 218
3 217 218 219
3 57 5 56
3 57 35 5
3 220 35 221
3 222 221 57
3 220 221 222
3 223 1 224
3 225 224 35
3 223 224 225
3 226 1 227
3 228 24 229
3 230 229 1
3 228 229 230
3 231 24 232
3 234 233 24
