ply
format ascii 1.0
element vertex 252
property float x
property float y
property float z
element face 258
property list uchar int vertex_index
end_header
0.767208 -84.198616 51.69146
-0.447538 -73.764175 55.930077
-0.376373 -69.133499 65.16687
-0.558191 -80.18512 61.595001
2.232512 -83.669983 67.039024
3.455046 -89.749802 57.309036
-0.643595 -71.780563 60.601219
0.690964 -78.843323 69.426765
-0.08901 -82.627182 56.550957
0.835848 -85.351013 59.477234
1.838964 -87.464981 54.574776
-0.355623 -79.131393 53.728775
-0.012421 -75.033745 51.229057
-0.437653 -71.440376 68.429428
-0.493391 -77.047653 66.636429
-0.865942 -74.612694 63.592232
-0.795452 -77.240204 58.639442
0.410589 -82.414474 64.512093
2.474886 -87.056076 62.154167
1.288237 -84.644943 49.345551
0.766424 -74.217049 72.797218
1.087881 -76.878647 71.755585
0.305519 -76.177002 70.486885
0.301355 -83.527512 54.092072
0.712936 -85.133179 55.545074
1.233612 -85.93631 53.127563
-0.495281 -76.451599 54.824471
-0.254919 -77.149574 52.430618
-0.245008 -74.486282 53.576134
-0.469574 -70.309738 66.808952
-0.716789 -73.081467 66.03344
-0.707571 -71.833893 64.457451
-0.590996 -72.862015 58.276138
-0.800825 -74.483597 59.660507
-0.685619 -75.560997 57.239525
-0.610804 -78.286636 56.169052
2.425682 -81.760933 69.39933
3.473259 -83.854988 68.044296
3.414738 -85.715965 65.678352
-0.598799 -78.689377 64.13089
-0.175894 -79.793289 65.604591
-0.174299 -81.404358 63.079239
2.002384 -87.654411 58.406181
1.562311 -86.348686 60.872803
2.88798 -88.497871 59.711555
3.939497 -89.013206 60.858414
-0.577351 -70.530289 62.898628
-0.356688 -69.198105 61.399376
-0.376846 -70.268921 59.223053
1.634743 -79.415489 70.627777
1.326885 -81.36235 68.281281
-0.382429 -81.506485 59.058884
-0.014717 -82.848686 60.540321
0.288183 -84.099251 58.020439
1.279091 -86.520203 56.999077
2.578892 -88.749596 55.987114
0.046009 -81.731659 52.678177
0.449955 -82.280449 50.30085
-0.049398 -79.768806 51.330948
0.014959 -77.658379 50.068115
-0.243359 -72.491898 69.991631
-0.240822 -75.286736 69.085411
-0.572063 -74.243248 67.588463
-0.768349 -75.893463 65.126556
-0.828075 -77.417755 62.62326
-0.815037 -73.233887 62.071136
-0.88743 -76.007858 61.120979
-0.759001 -78.7883 60.102303
-0.577085 -79.977768 57.589897
-0.302155 -80.963486 55.109756
0.895855 -82.620956 47.972538
-0.014133 -78.042641 68.083138
0.461271 -80.6959 67.002472
1.210573 -83.180885 65.847488
0.53919 -83.974648 61.991562
1.291523 -84.850334 63.364693
2.250095 -85.440865 64.609589
3.575739 -87.439568 63.268677
1.027723 -84.421779 50.518506
1.555189 -85.575809 50.056244
1.294674 -85.352646 51.229198
0.226955 -74.803192 70.973209
0.535972 -75.197025 71.642052
0.457407 -73.823216 72.128376
1.294674 -85.352646 51.229198
1.527876 -86.221493 51.94725
1.00041 -85.067463 52.409512
3.963233 -90.086853 57.894641
3.6797 -89.460887 59.095901
3.171513 -89.123837 58.510295
4.287269 -90.704571 56.729801
3.963233 -90.086853 57.894641
-0.155458 -67.991669 61.690594
-0.275257 -68.571857 62.470886
-0.206013 -69.483841 58.602288
-0.224382 -69.064953 59.618065
-0.328045 -70.709644 58.111344
-0.206013 -69.483841 58.602288
2.543993 -88.544094 54.098252
2.913957 -89.186401 54.80442
2.208928 -88.107288 55.280945
0.107431 -75.225834 50.064224
0.121121 -76.538151 49.483753
0.001269 -76.346062 50.648586
0.594415 -81.41288 48.475718
0.672905 -82.450703 49.136694
0.371466 -81.242626 49.639874
4.547092 -89.091693 61.326508
4.784369 -89.874145 60.150616
1.869602 -85.750305 48.897526
1.555189 -85.575809 50.056244
1.567603 -84.764434 48.192848
1.869602 -85.750305 48.897526
0.927153 -75.547848 72.276401
1.358879 -75.849628 72.862957
1.198151 -74.51883 73.383774
1.856595 -87.057183 52.667095
2.159271 -87.821518 53.390701
1.536288 -86.700646 53.851169
1.856595 -87.057183 52.667095
1.527876 -86.221493 51.94725
3.088513 -81.814949 69.859955
2.622415 -80.745686 70.524761
3.612301 -82.861976 69.182438
3.088513 -81.814949 69.859955
2.949471 -82.807961 68.721813
4.19618 -83.788616 68.436962
3.612301 -82.861976 69.182438
4.124371 -84.755806 67.287514
4.19618 -83.788616 68.436962
4.095111 -85.686295 66.104542
4.124371 -84.755806 67.287514
3.443999 -84.785477 66.861324
4.136767 -86.595363 64.924205
4.095111 -85.686295 66.104542
4.205458 -89.718555 59.669331
3.413739 -88.755539 60.284985
3.6797 -89.460887 59.095901
4.784369 -89.874145 60.150616
4.205458 -89.718555 59.669331
-0.274485 -72.809921 55.330711
-0.363391 -72.457271 56.464855
-0.385589 -69.237949 63.220512
-0.476862 -69.831894 64.032749
-0.2851 -68.539555 64.354634
-0.467019 -69.864197 62.149002
-0.385589 -69.237949 63.220512
-0.275257 -68.571857 62.470886
-0.214303 -68.529545 60.706226
-0.155458 -67.991669 61.690594
-0.013073 -67.323109 60.997445
-0.366767 -69.733513 60.311214
-0.214303 -68.529545 60.706226
-0.224382 -69.064953 59.618065
-0.435119 -72.006191 57.637886
-0.483921 -71.565468 58.749595
-0.328045 -70.709644 58.111344
-0.363391 -72.457271 56.464855
-0.519267 -73.313095 57.103108
-0.435119 -72.006191 57.637886
1.602321 -77.119019 72.306057
1.358879 -75.849628 72.862957
1.875752 -78.387439 71.742153
1.602321 -77.119019 72.306057
1.361312 -78.147068 71.191681
2.226945 -79.572964 71.138984
1.875752 -78.387439 71.742153
2.030213 -80.588211 70.013554
2.622415 -80.745686 70.524761
2.226945 -79.572964 71.138984
3.353333 -89.774376 55.472225
3.79141 -90.274479 56.133186
3.016969 -89.249699 56.648075
3.353333 -89.774376 55.472225
2.913957 -89.186401 54.80442
2.543993 -88.544094 54.098252
2.159271 -87.821518 53.390701
0.121789 -79.986805 50.154922
0.371466 -81.242626 49.639874
0.200278 -81.024628 50.815899
0.153968 -78.931591 49.523506
0.121789 -79.986805 50.154922
-0.017219 -78.713593 50.699531
0.157487 -77.824711 48.903874
0.153968 -78.931591 49.523506
0.157487 -77.824711 48.903874
0.121121 -76.538151 49.483753
-0.173219 -73.170974 54.15374
-0.346273 -74.125228 54.753106
-0.274485 -72.809921 55.330711
-0.063408 -73.443409 53.005627
-0.173219 -73.170974 54.15374
0.052886 -73.71714 51.832088
-0.128715 -74.760013 52.402596
-0.063408 -73.443409 53.005627
0.167075 -73.915982 50.679535
0.052886 -73.71714 51.832088
0.107431 -75.225834 50.064224
0.167075 -73.915982 50.679535
-0.24209 -73.889317 69.538521
-0.046216 -74.358059 70.272472
-0.047484 -72.96064 70.725583
1.371412 -83.752441 47.506342
1.567603 -84.764434 48.192848
1.092046 -83.632949 48.659045
0.778946 -81.538673 47.319818
0.594415 -81.41288 48.475718
1.135148 -82.698181 46.826121
0.778946 -81.538673 47.319818
1.018239 -81.615898 46.173401
1.371412 -83.752441 47.506342
1.135148 -82.698181 46.826121
0.032348 -75.731869 69.786148
0.226955 -74.803192 70.973209
-0.046216 -74.358059 70.272472
4.217267 -87.457165 63.719368
4.136767 -86.595363 64.924205
3.495239 -86.577766 64.473514
4.365214 -88.304874 62.531639
3.757618 -88.226387 62.063546
4.547092 -89.091693 61.326508
4.217267 -87.457165 63.719368
4.365214 -88.304874 62.531639
4.287269 -90.704571 56.729801
3.79141 -90.274479 56.133186
1.054458 -73.198082 73.901566
1.198151 -74.51883 73.383774
0.709358 -72.855175 73.273457
1.054458 -73.198082 73.901566
0.457407 -73.823216 72.128376
0.709358 -72.855175 73.273457
-0.021552 -71.575447 71.159023
-0.047484 -72.96064 70.725583
-0.14238 -71.101669 70.381237
-0.021552 -71.575447 71.159023
-0.239527 -70.575908 69.600136
-0.340506 -71.966137 69.21053
-0.14238 -71.101669 70.381237
-0.273354 -70.063343 68.773976
-0.239527 -70.575908 69.600136
-0.289314 -69.498024 67.963738
-0.453614 -70.875057 67.61919
-0.273354 -70.063343 68.773976
-0.256532 -68.964119 67.10701
-0.289314 -69.498024 67.963738
-0.209932 -68.376 66.285968
-0.422974 -69.721619 65.987911
-0.256532 -68.964119 67.10701
-0.130896 -67.838333 65.416691
-0.209932 -68.376 66.285968
-0.2851 -68.539555 64.354634
-0.130896 -67.838333 65.416691
3 0 78 80
3 78 19 79
3 78 79 80
3 81 22 82
3 83 82 20
3 81 82 83
3 0 25 23
3 0 84 86
3 86 85 25
3 84 85 86
3 1 28 26
3 2 31 29
3 1 34 32
3 1 26 34
3 4 37 36
3 4 38 37
3 3 41 39
3 5 44 42
3 5 87 89
3 89 88 44
3 87 88 89
3 5 90 91
3 92 47 93
3 94 48 95
3 97 96 48
3 7 49 21
3 7 50 49
3 8 53 51
3 10 54 24
3 10 55 54
3 10 98 100
3 100 99 55
3 98 99 100
3 11 58 56
3 12 59 27
3 12 101 103
3 103 102 59
3 101 102 103
3 13 62 60
3 15 63 30
3 15 64 63
3 6 65 46
3 16 66 33
3 16 67 66
3 16 68 67
3 11 69 35
3 11 56 69
3 104 70 105
3 106 105 57
3 104 105 106
3 14 71 61
3 17 72 40
3 17 73 72
3 9 74 52
3 18 75 43
3 18 76 75
3 18 77 76
3 108 107 45
3 19 109 110
3 19 111 112
3 20 113 115
3 113 21 114
3 113 114 115
3 22 21 20
3 22 7 21
3 23 24 8
3 25 24 23
3 25 10 24
3 25 116 118
3 118 117 10
3 116 117 118
3 120 119 25
3 26 27 11
3 28 27 26
3 28 12 27
3 29 30 13
3 31 30 29
3 31 15 30
3 32 33 6
3 34 33 32
3 34 16 33
3 34 35 16
3 26 35 34
3 26 11 35
3 36 121 122
3 37 123 125
3 125 124 36
3 123 124 125
3 37 126 127
3 37 128 129
3 38 130 132
3 132 131 37
3 130 131 132
3 38 133 134
3 39 40 14
3 41 40 39
3 41 17 40
3 42 43 9
3 44 43 42
3 44 18 43
3 44 45 18
3 135 45 136
3 137 136 44
3 135 136 137
3 139 138 45
3 141 140 1
3 142 46 143
3 144 143 2
3 142 143 144
3 47 145 147
3 145 46 146
3 145 146 147
3 47 6 46
3 148 47 149
3 148 149 150
3 48 151 153
3 151 47 152
3 151 152 153
3 48 6 47
3 48 32 6
3 154 32 155
3 156 155 48
3 154 155 156
3 157 1 158
3 159 158 32
3 157 158 159
3 21 160 161
3 49 162 164
3 164 163 21
3 162 163 164
3 49 165 166
3 49 167 169
3 167 36 168
3 167 168 169
3 50 36 49
3 50 4 36
3 51 52 3
3 53 52 51
3 53 9 52
3 24 53 8
3 54 53 24
3 54 9 53
3 54 42 9
3 55 42 54
3 55 5 42
3 55 170 172
3 172 171 5
3 170 171 172
3 174 173 55
3 176 175 10
3 56 57 0
3 58 57 56
3 58 177 179
3 179 178 57
3 177 178 179
3 27 58 11
3 59 58 27
3 59 180 182
3 182 181 58
3 180 181 182
3 59 183 184
3 186 185 59
3 187 28 188
3 189 188 1
3 187 188 189
3 190 28 191
3 192 12 193
3 194 193 28
3 192 193 194
3 195 12 196
3 198 197 12
3 60 199 201
3 199 61 200
3 199 200 201
3 62 61 60
3 62 14 61
3 30 62 13
3 63 62 30
3 63 14 62
3 63 39 14
3 64 39 63
3 64 3 39
3 46 31 2
3 65 31 46
3 65 15 31
3 33 65 6
3 66 65 33
3 66 15 65
3 66 64 15
3 67 64 66
3 67 3 64
3 67 51 3
3 68 51 67
3 68 8 51
3 35 68 16
3 69 68 35
3 69 8 68
3 69 23 8
3 56 23 69
3 56 0 23
3 57 19 0
3 70 19 57
3 70 202 204
3 204 203 19
3 202 203 204
3 205 70 206
3 207 70 208
3 207 208 209
3 211 210 70
3 61 212 214
3 212 22 213
3 212 213 214
3 71 22 61
3 71 7 22
3 40 71 14
3 72 71 40
3 72 7 71
3 72 50 7
3 73 50 72
3 73 4 50
3 52 41 3
3 74 41 52
3 74 17 41
3 43 74 9
3 75 74 43
3 75 17 74
3 75 73 17
3 76 73 75
3 76 4 73
3 76 38 4
3 77 38 76
3 77 215 217
3 217 216 38
3 215 216 217
3 45 77 18
3 218 77 219
3 220 219 45
3 218 219 220
3 222 221 77
3 224 223 5
3 225 20 226
3 227 20 228
3 230 229 20
3 231 60 232
3 233 60 234
3 235 13 236
3 237 236 60
3 235 236 237
3 238 13 239
3 240 29 241
3 242 241 13
3 240 241 242
3 243 29 244
3 245 2 246
3 247 246 29
3 245 246 247
3 248 2 249
3 251 250 2
