ply
format ascii 1.0
element vertex 195
property float x
property float y
property float z
element face 191
property list uchar int vertex_index
end_header
36.820679 15.66938 -54.796257
41.224079 19.465435 -46.529991
33.927593 14.529316 -46.44162
38.864014 18.677063 -51.263313
37.155987 17.631283 -47.287941
34.889 15.691254 -51.302261
32.097145 11.566607 -49.715897
33.109623 12.046621 -54.015938
41.450645 17.938164 -53.808388
39.259525 17.893063 -42.286888
35.78706 16.329273 -42.192223
33.085651 13.797276 -40.870483
31.86293 10.649324 -44.329636
30.705776 6.854094 -46.961418
37.76226 17.427631 -53.200745
36.755638 17.355274 -51.501892
35.699547 15.905251 -53.239128
33.90963 14.06031 -52.839272
34.820721 14.008247 -54.621407
42.437408 19.352623 -51.805496
42.281376 19.041496 -43.832535
41.172344 18.206776 -41.80835
40.231503 18.668766 -44.552048
35.40881 16.212788 -47.052704
36.475689 16.891994 -44.837578
34.889233 15.558075 -44.419525
34.326057 15.155827 -41.661079
33.554138 14.001953 -43.679497
32.484642 12.293352 -42.680779
32.74398 12.649817 -45.51046
31.336624 9.636438 -50.89109
31.228008 9.24662 -48.44899
40.050331 19.35915 -49.024551
39.116322 18.728493 -47.115387
37.924171 18.301743 -49.447372
35.996506 16.888046 -49.439491
34.331261 15.167034 -49.016258
32.975582 13.202538 -48.220047
33.32288 13.739437 -50.689835
32.444725 11.948536 -52.036926
43.409637 19.82267 -45.551254
42.302612 20.029385 -48.182076
41.143486 19.617832 -50.588539
40.032501 18.586018 -52.717079
39.052853 16.988991 -54.522369
38.262646 14.919903 -55.971001
40.624493 16.00214 -55.474243
38.242397 17.396187 -39.817924
38.275017 17.943718 -44.888588
37.445938 17.257366 -42.411667
36.551556 16.911022 -39.797813
35.001987 16.163242 -39.490479
31.953182 11.067976 -47.114471
31.260468 8.839733 -45.772797
36.453409 14.580993 -55.407151
35.45343 13.750427 -55.319726
35.8207 14.838814 -54.708832
30.966561 8.415826 -50.181702
31.025914 8.541134 -51.301544
32.420991 10.942279 -53.520043
32.088542 10.893237 -52.530536
32.777174 11.997578 -53.026432
32.80957 10.883741 -54.409004
32.420991 10.942279 -53.520043
44.50851 19.81113 -44.884319
43.885583 19.439059 -44.153534
42.910736 20.092457 -48.842511
43.455431 20.165101 -47.567398
44.063555 20.228172 -48.227833
42.331173 19.886681 -50.045742
41.723049 19.823608 -49.385307
42.910736 20.092457 -48.842511
39.644419 17.740168 -40.908848
40.600828 17.897025 -40.669579
40.215935 18.04992 -42.047619
38.750961 17.644625 -41.052406
39.135854 17.49173 -39.674366
39.644419 17.740168 -40.908848
33.354339 14.498674 -39.902519
33.974542 15.17795 -40.297817
33.705854 14.476551 -41.265781
32.753818 13.938494 -39.526329
33.354339 14.498674 -39.902519
32.574424 13.059014 -40.377277
32.753818 13.938494 -39.526329
31.765105 10.576966 -42.911716
32.075961 11.39898 -42.087288
32.173786 11.471338 -43.505207
31.56184 9.625551 -43.650341
31.765105 10.576966 -42.911716
30.785715 6.722265 -45.61259
31.063061 7.715085 -45.01828
30.983122 7.846914 -46.367108
30.599915 5.656254 -46.138451
30.785715 6.722265 -45.61259
37.976896 13.705037 -56.500229
39.130756 14.289631 -56.370953
34.486528 12.877669 -55.120018
33.630979 11.896856 -54.817284
33.965172 13.027434 -54.318672
34.486528 12.877669 -55.120018
35.45343 13.750427 -55.319726
43.669361 19.533779 -51.154381
42.978134 19.754076 -50.65422
43.189809 18.926445 -52.24535
43.669361 19.533779 -51.154381
42.696428 18.219216 -53.246796
41.944026 18.645394 -52.806942
43.189809 18.926445 -52.24535
42.279039 17.330368 -54.179558
42.696428 18.219216 -53.246796
41.72686 18.624136 -42.820442
42.149057 18.197216 -41.39819
42.703574 18.614576 -42.410282
30.912253 8.220918 -48.960651
31.282316 9.441529 -49.67004
30.966561 8.415826 -50.181702
30.651137 7.024655 -48.216865
30.966892 8.050357 -47.705204
30.912253 8.220918 -48.960651
30.459057 5.77494 -47.405243
30.651137 7.024655 -48.216865
31.534492 9.737188 -51.957618
31.890674 10.792487 -51.464008
32.088542 10.893237 -52.530536
31.223782 8.641883 -52.368072
31.025914 8.541134 -51.301544
31.534492 9.737188 -51.957618
33.330927 10.733976 -55.21035
32.80957 10.883741 -54.409004
33.630979 11.896856 -54.817284
43.321453 19.048471 -43.294174
42.703574 18.614576 -42.410282
42.845506 19.432083 -44.691895
43.321453 19.048471 -43.294174
43.885583 19.439059 -44.153534
44.008944 20.061743 -46.251987
44.50851 19.81113 -44.884319
42.856124 19.926028 -46.866665
44.008944 20.061743 -46.251987
43.455431 20.165101 -47.567398
41.790447 19.485228 -51.197018
42.331173 19.886681 -50.045742
42.978134 19.754076 -50.65422
40.31168 14.830749 -56.122574
39.130756 14.289631 -56.370953
39.443569 15.461022 -55.722622
41.865963 16.362356 -55.012485
41.037569 16.970152 -54.641316
42.279039 17.330368 -54.179558
41.534422 15.247848 -55.771373
41.865963 16.362356 -55.012485
42.775892 15.608064 -55.309616
40.31168 14.830749 -56.122574
41.534422 15.247848 -55.771373
41.516108 17.838746 -40.372047
42.149057 18.197216 -41.39819
41.516108 17.838746 -40.372047
40.600828 17.897025 -40.669579
38.526133 17.408691 -38.459114
39.135854 17.49173 -39.674366
37.686228 17.394316 -38.546195
38.526133 17.408691 -38.459114
36.840807 17.151733 -38.53614
37.686228 17.394316 -38.546195
37.396976 17.153605 -39.807868
36.043762 17.001249 -38.498706
36.840807 17.151733 -38.53614
35.268978 16.627359 -38.345039
36.043762 17.001249 -38.498706
35.776771 16.537132 -39.644146
34.53154 16.356793 -38.195377
35.268978 16.627359 -38.345039
34.312507 15.681658 -39.212517
34.664022 15.659534 -40.575779
33.974542 15.17795 -40.297817
34.53154 16.356793 -38.195377
34.312507 15.681658 -39.212517
32.27392 12.307053 -41.282425
32.574424 13.059014 -40.377277
32.785146 13.045314 -41.775631
32.27392 12.307053 -41.282425
32.075961 11.39898 -42.087288
31.260609 8.720755 -44.371921
31.56184 9.625551 -43.650341
31.561699 9.744529 -45.051216
31.260609 8.720755 -44.371921
31.063061 7.715085 -45.01828
30.599915 5.656254 -46.138451
30.459057 5.77494 -47.405243
37.174393 14.206255 -55.994523
36.453409 14.580993 -55.407151
37.541663 15.294642 -55.383629
37.174393 14.206255 -55.994523
37.976896 13.705037 -56.500229
3 0 16 14
3 0 18 16
3 0 54 56
3 56 55 18
3 54 55 56
3 1 22 20
3 2 25 23
3 2 27 25
3 2 29 27
3 58 57 30
3 3 34 32
3 5 35 15
3 5 36 35
3 5 38 36
3 7 39 17
3 7 59 61
3 61 60 39
3 59 60 61
3 7 62 63
3 64 40 65
3 66 41 67
3 66 67 68
3 69 42 70
3 71 70 41
3 69 70 71
3 8 43 19
3 8 44 43
3 8 46 44
3 9 72 74
3 74 73 21
3 72 73 74
3 9 75 77
3 75 47 76
3 75 76 77
3 4 48 33
3 10 49 24
3 10 50 49
3 10 51 50
3 11 78 80
3 80 79 26
3 78 79 80
3 11 81 82
3 11 83 84
3 12 85 87
3 87 86 28
3 85 86 87
3 12 88 89
3 6 52 37
3 13 53 31
3 13 90 92
3 92 91 53
3 90 91 92
3 13 93 94
3 96 95 45
3 14 15 3
3 16 15 14
3 16 5 15
3 16 17 5
3 18 17 16
3 18 7 17
3 18 97 99
3 99 98 7
3 97 98 99
3 101 100 18
3 102 19 103
3 104 19 105
3 106 8 107
3 108 107 19
3 106 107 108
3 110 109 8
3 20 111 113
3 111 21 112
3 111 112 113
3 22 21 20
3 22 9 21
3 23 24 4
3 25 24 23
3 25 10 24
3 25 26 10
3 27 26 25
3 27 11 26
3 27 28 11
3 29 28 27
3 29 12 28
3 30 31 6
3 114 31 115
3 116 115 30
3 114 115 116
3 117 13 118
3 119 118 31
3 117 118 119
3 121 120 13
3 32 33 1
3 34 33 32
3 34 4 33
3 15 34 3
3 35 34 15
3 35 4 34
3 35 23 4
3 36 23 35
3 36 2 23
3 36 37 2
3 38 37 36
3 38 6 37
3 17 38 5
3 39 38 17
3 39 6 38
3 39 30 6
3 122 30 123
3 124 123 39
3 122 123 124
3 127 126 30
3 125 126 127
3 130 129 7
3 128 129 130
3 131 20 132
3 40 133 135
3 133 20 134
3 133 134 135
3 40 1 20
3 136 40 137
3 41 138 140
3 138 40 139
3 138 139 140
3 41 1 40
3 41 32 1
3 42 32 41
3 42 3 32
3 19 141 143
3 141 42 142
3 141 142 143
3 43 42 19
3 43 3 42
3 43 14 3
3 44 14 43
3 44 0 14
3 44 45 0
3 46 45 44
3 46 144 146
3 146 145 45
3 144 145 146
3 147 46 148
3 149 148 8
3 147 148 149
3 150 46 151
3 150 151 152
3 154 153 46
3 21 155 156
3 158 157 21
3 47 159 160
3 47 161 162
3 33 22 1
3 48 22 33
3 48 9 22
3 24 48 4
3 49 48 24
3 49 9 48
3 49 47 9
3 50 47 49
3 50 163 165
3 165 164 47
3 163 164 165
3 50 166 167
3 51 168 170
3 170 169 50
3 168 169 170
3 51 171 172
3 26 51 10
3 173 51 174
3 175 174 26
3 173 174 175
3 177 176 51
3 28 178 180
3 180 179 11
3 178 179 180
3 182 181 28
3 37 29 2
3 52 29 37
3 52 12 29
3 31 52 6
3 53 52 31
3 53 12 52
3 53 183 185
3 185 184 12
3 183 184 185
3 187 186 53
3 189 188 13
3 45 190 192
3 192 191 0
3 190 191 192
3 194 193 45
