ply
format ascii 1.0
element vertex 423
property float x
property float y
property float z
element face 374
property list uchar int vertex_index
end_header
9.06921 -52.275688 -2.067638
2.908205 -60.620811 8.917184
13.753746 -53.225376 -6.852617
-3.710997 -39.185684 33.964436
-3.097223 -52.56292 25.354908
5.887709 -56.510582 2.250235
12.899403 -57.651875 -5.500502
11.504934 -52.823639 -4.218313
-4.622152 -31.013332 34.01767
-4.683107 -38.297821 30.175673
-3.570173 -46.063583 29.821758
-4.461882 -45.303413 25.872234
-3.6024 -51.709614 21.26844
8.963499 -62.602951 2.223299
4.319586 -58.736343 5.363585
-1.776377 -59.05938 25.085653
-1.818979 -58.3587 20.905294
-1.642012 -57.312771 16.778313
-1.145981 -55.917542 12.749779
-0.137772 -54.210735 8.94194
7.543495 -54.177197 -0.309404
9.795219 -54.097164 -2.477957
11.10635 -54.691467 -3.676815
10.204737 -52.544216 -3.028381
-5.276674 -34.166733 30.24551
-5.28026 -37.833603 28.22789
-4.625612 -41.857262 28.078327
-5.182173 -41.401054 26.089001
5.275217 -62.767124 7.210954
5.989471 -61.825188 5.429104
3.589193 -59.727955 7.092041
13.214285 -55.413311 -6.262758
14.570232 -53.328255 -8.232784
-4.162298 -35.17878 34.025295
-4.132254 -31.618135 35.858734
-3.72658 -35.713852 35.874298
-3.399645 -49.38266 27.61327
-3.043707 -49.676773 29.603598
-2.821379 -52.868732 27.385078
-2.441889 -55.907043 25.161243
-1.827829 -58.751198 22.98954
-2.594572 -55.56493 23.09882
-2.786963 -54.617287 18.979067
-2.792166 -54.006989 16.924768
-1.446516 -56.658054 14.745887
0.593584 -53.277988 7.170091
7.374716 -59.555229 2.186047
11.971775 -57.151608 -4.197304
12.273933 -55.113293 -4.948732
12.721933 -53.056622 -5.507378
0.379774 -63.767197 19.006512
-5.093611 -26.714981 33.925953
-5.206804 -30.444969 32.141624
-4.67375 -34.668175 32.154285
-4.158987 -38.743027 32.081696
-3.66271 -42.64967 31.944872
-4.113272 -42.268379 30.024647
-3.997339 -45.710648 27.860214
-3.765871 -49.027042 25.610716
-3.359705 -52.17915 23.317762
-4.140535 -48.597908 23.586277
8.360571 -63.792004 3.864721
6.693394 -60.752178 3.749848
5.088911 -57.656399 3.745294
2.284781 -61.414753 10.824647
7.883535 -50.959183 -1.164774
-4.536974 -27.377193 35.77557
-3.173906 -46.377548 31.769855
-0.904591 -61.373531 20.925377
-0.708143 -60.929752 18.828396
-2.712206 -55.136272 21.038368
-1.759336 -57.879616 18.833906
-0.453653 -60.407097 16.755156
-0.136921 -59.804134 14.711788
0.254677 -59.118122 12.708153
0.73568 -58.346729 10.758186
-0.715401 -55.097519 10.808251
1.31666 -57.490803 8.878752
2.00112 -56.557301 7.087353
2.785641 -55.56168 5.399714
3.662315 -54.529205 3.828325
2.501038 -51.399323 3.961356
4.62154 -53.495483 2.382312
5.652967 -52.507545 1.068084
6.743963 -51.629017 -0.111109
8.365395 -53.110451 -1.325375
10.953352 -64.280991 0.769003
9.252663 -55.494312 -1.619255
-5.593117 -37.584848 27.223779
-5.611181 -35.746392 28.252649
-5.544073 -39.368574 26.154335
-5.231217 -39.617328 27.158445
-5.593117 -37.584848 27.223779
-5.455849 -41.144725 25.066461
-5.544073 -39.368574 26.154335
4.091711 -61.693967 8.064069
4.920931 -63.175469 8.147274
3.737425 -62.102312 9.00039
13.824506 -54.42054 -7.223925
13.554775 -55.514508 -6.928995
13.484015 -54.319344 -6.557688
14.161989 -53.276815 -7.542701
14.232749 -54.47198 -7.914008
13.824506 -54.42054 -7.223925
-3.508007 -39.413845 34.899237
-3.515798 -37.677929 35.854168
-3.718788 -37.449768 34.919367
-3.483107 -41.101887 33.908522
-3.508007 -39.413845 34.899237
-3.341164 -52.254395 17.031301
-3.293554 -52.578585 18.065433
-2.741026 -53.657635 15.905602
-3.341164 -52.254395 17.031301
6.957971 -57.383169 1.501974
7.701474 -58.905492 1.46988
6.631213 -58.032905 2.218141
6.298272 -55.922439 1.571419
6.957971 -57.383169 1.501974
11.356102 -56.805653 -3.550666
11.858773 -58.137877 -3.714084
0.215742 -63.975586 20.072648
0.946377 -65.08405 19.198009
-5.542566 -30.17206 31.176052
-5.476854 -28.273731 32.083293
8.025046 -64.300215 4.73877
9.162041 -65.274031 3.981763
13.117175 -59.041527 -5.661943
12.822895 -58.761375 -5.021879
2.003497 -61.765768 11.812231
3.081844 -62.852773 10.929876
7.845679 -49.913554 -1.167907
7.098214 -50.082363 -0.582814
-4.096395 -29.858625 36.723278
-3.916311 -31.944516 36.765995
-2.859573 -49.80055 30.596546
-2.779896 -51.392219 29.508645
-1.70952 -59.173575 26.138999
-2.009308 -57.614216 26.156743
-1.427574 -60.541804 25.130462
-1.70952 -59.173575 26.138999
-1.40555 -60.398898 24.063907
-1.427574 -60.541804 25.130462
-0.426586 -54.654127 9.875096
-1.365024 -53.392713 10.871878
-1.07621 -52.949321 9.938723
2.130869 -53.945099 5.453465
1.689612 -54.419834 6.284903
1.034841 -52.803253 6.338653
2.569206 -53.428861 4.66777
3.223978 -55.045443 4.61402
2.130869 -53.945099 5.453465
3.078872 -50.96669 3.247607
2.075715 -49.848839 4.027185
4.139123 -52.01477 2.458086
3.561289 -52.447403 3.171834
3.078872 -50.96669 3.247607
4.654837 -51.520802 1.800972
5.137253 -53.001514 1.725198
4.139123 -52.01477 2.458086
6.528428 -50.417281 -0.055981
5.837299 -50.706041 0.553931
7.098214 -50.082363 -0.582814
7.313749 -51.2941 -0.637941
6.528428 -50.417281 -0.055981
9.958426 -63.441971 1.496151
10.734468 -64.954384 1.574284
9.739541 -64.115364 2.301432
8.398079 -54.835755 -0.96433
8.953757 -56.191282 -1.072275
8.099172 -55.532725 -0.417349
10.450785 -54.394316 -3.077386
10.92339 -55.575583 -3.290421
10.267824 -55.278431 -2.690993
-5.609388 -33.912956 29.26146
-5.577501 -32.032942 30.227995
-5.278467 -36.000168 29.2367
-5.609388 -33.912956 29.26146
-5.611181 -35.746392 28.252649
-5.059632 -43.115322 24.96723
-4.699486 -45.066502 24.858846
-4.822027 -43.352233 25.980618
-5.059632 -43.115322 24.96723
-5.455849 -41.144725 25.066461
6.121617 -64.214185 7.334316
4.920931 -63.175469 8.147274
6.482368 -63.787775 6.411886
6.121617 -64.214185 7.334316
5.632344 -62.296156 6.320029
6.839495 -63.316807 5.520962
6.482368 -63.787775 6.411886
13.356485 -56.710823 -6.530741
13.199044 -57.830105 -6.149614
13.056844 -56.532593 -5.88163
13.356485 -56.710823 -6.530741
13.554775 -55.514508 -6.928995
14.457377 -54.535607 -8.581973
14.232749 -54.47198 -7.914008
14.883525 -53.350649 -8.93355
14.457377 -54.535607 -8.581973
-3.713474 -33.992374 36.773777
-3.916311 -31.944516 36.765995
-3.929417 -33.665993 35.866516
-3.521166 -36.000017 36.788922
-3.713474 -33.992374 36.773777
-3.521166 -36.000017 36.788922
-3.515798 -37.677929 35.854168
-2.668732 -52.988199 28.399385
-2.779896 -51.392219 29.508645
-2.932543 -51.272752 28.494338
-2.531809 -54.518892 27.306455
-2.668732 -52.988199 28.399385
-2.342064 -56.038048 26.194538
-2.531809 -54.518892 27.306455
-2.631634 -54.387888 26.27316
-2.109133 -57.483211 25.123448
-2.009308 -57.614216 26.156743
-2.342064 -56.038048 26.194538
-3.290953 -52.883734 19.092583
-3.194681 -53.16345 20.123753
-3.698671 -51.429898 20.237269
-2.789565 -54.312138 17.951918
-3.290953 -52.883734 19.092583
-3.293554 -52.578585 18.065433
-2.068201 -54.983168 14.816161
-2.119341 -55.332521 15.835328
-2.741026 -53.657635 15.905602
-1.917933 -54.612911 13.818107
-1.296248 -56.287798 13.747833
-2.068201 -54.983168 14.816161
-0.765012 -52.509107 9.005461
-1.07621 -52.949321 9.938723
-0.399334 -52.042734 8.119536
0.227906 -53.744361 8.056016
-0.765012 -52.509107 9.005461
0.012261 -51.599958 7.235605
-0.399334 -52.042734 8.119536
1.034841 -52.803253 6.338653
0.012261 -51.599958 7.235605
8.433135 -60.401806 1.444009
9.227526 -61.925667 1.462635
8.169108 -61.07909 2.204673
8.433135 -60.401806 1.444009
7.701474 -58.905492 1.46988
7.126165 -54.755747 0.2916
8.099172 -55.532725 -0.417349
12.35908 -58.511242 -4.37028
11.858773 -58.137877 -3.714084
12.435589 -57.401741 -4.848903
12.822895 -58.761375 -5.021879
12.35908 -58.511242 -4.37028
11.539062 -55.921537 -3.93706
11.356102 -56.805653 -3.550666
10.92339 -55.575583 -3.290421
1.206525 -64.859829 18.123821
0.946377 -65.08405 19.198009
0.575614 -63.526253 17.95374
1.206525 -64.859829 18.123821
-5.420257 -26.408737 32.975458
-5.331627 -24.516289 33.829725
-5.150208 -28.579975 33.033788
-5.420257 -26.408737 32.975458
-5.476854 -28.273731 32.083293
-5.241739 -32.305851 31.193567
-5.542566 -30.17206 31.176052
-5.577501 -32.032942 30.227995
-4.538813 -46.713749 23.715868
-4.301208 -46.95066 24.729256
-4.699486 -45.066502 24.858846
-4.316723 -48.342455 22.559856
-4.538813 -46.713749 23.715868
-4.047655 -49.898308 21.400938
-3.871467 -50.153761 22.427358
-4.316723 -48.342455 22.559856
-3.698671 -51.429898 20.237269
-4.047655 -49.898308 21.400938
9.438077 -64.709891 3.122143
9.162041 -65.274031 3.981763
8.662035 -63.197477 3.04401
9.739541 -64.115364 2.301432
9.438077 -64.709891 3.122143
7.175021 -62.808596 4.646913
8.025046 -64.300215 4.73877
6.839495 -63.316807 5.520962
13.117175 -59.041527 -5.661943
13.199044 -57.830105 -6.149614
3.425713 -62.499283 9.954121
3.081844 -62.852773 10.929876
2.596493 -61.017782 9.870916
3.737425 -62.102312 9.00039
3.425713 -62.499283 9.954121
8.517144 -50.822851 -1.683854
9.109981 -51.481104 -2.135286
8.476373 -51.617435 -1.616206
8.517144 -50.822851 -1.683854
7.845679 -49.913554 -1.167907
-5.019979 -24.868693 34.768823
-5.331627 -24.516289 33.829725
-4.741661 -25.199798 35.693632
-5.019979 -24.868693 34.768823
-4.815292 -27.046087 34.850762
-4.474428 -25.588459 36.606898
-4.741661 -25.199798 35.693632
-4.298756 -27.738154 36.681696
-4.334614 -29.497664 35.817152
-4.096395 -29.858625 36.723278
-4.474428 -25.588459 36.606898
-4.298756 -27.738154 36.681696
-3.458964 -42.83388 32.89874
-3.483107 -41.101887 33.908522
-3.686853 -40.917677 32.954654
-3.214562 -44.697818 32.811231
-3.458964 -42.83388 32.89874
-3.418308 -44.513609 31.857363
-2.975341 -46.523634 32.741113
-3.214562 -44.697818 32.811231
-2.924673 -48.150938 31.679674
-3.108807 -48.02716 30.686726
-2.859573 -49.80055 30.596546
-2.975341 -46.523634 32.741113
-2.924673 -48.150938 31.679674
-1.431276 -60.244807 23.01585
-1.40555 -60.398898 24.063907
-1.802103 -58.905289 24.037596
-0.969657 -61.555973 21.983769
-1.431276 -60.244807 23.01585
-1.36621 -60.062365 21.957459
-0.426441 -62.778753 21.03208
-0.969657 -61.555973 21.983769
-0.262409 -62.570364 19.965944
0.215742 -63.975586 20.072648
-0.426441 -62.778753 21.03208
0.031656 -62.10753 17.864682
0.575614 -63.526253 17.95374
-0.164184 -62.348475 18.917454
0.158901 -61.846203 16.828062
0.031656 -62.10753 17.864682
-0.580898 -60.668425 17.791776
0.382621 -61.572113 15.792116
0.158901 -61.846203 16.828062
0.540987 -61.270632 14.770433
0.382621 -61.572113 15.792116
-0.295287 -60.105615 15.733472
0.792646 -60.960459 13.755801
0.540987 -61.270632 14.770433
0.988445 -60.617452 12.753984
0.792646 -60.960459 13.755801
0.058878 -59.461128 13.709971
1.269729 -60.266437 11.7664
2.003497 -61.765768 11.812231
0.988445 -60.617452 12.753984
-1.79354 -54.223688 12.816067
-1.917933 -54.612911 13.818107
-1.57825 -53.813677 11.845303
-1.365024 -53.392713 10.871878
-0.930691 -55.507531 11.779015
-1.79354 -54.223688 12.816067
-1.57825 -53.813677 11.845303
1.475105 -50.235226 4.801729
2.075715 -49.848839 4.027185
1.988567 -51.863921 4.734286
1.475105 -50.235226 4.801729
3.081676 -52.964264 3.89484
2.569206 -53.428861 4.66777
1.988567 -51.863921 4.734286
5.665188 -54.41489 1.637458
6.298272 -55.922439 1.571419
5.254625 -55.003033 2.316274
6.180902 -53.920921 0.980344
5.665188 -54.41489 1.637458
5.137253 -53.001514 1.725198
6.598231 -53.342371 0.37934
7.126165 -54.755747 0.2916
6.180902 -53.920921 0.980344
5.291801 -51.145305 1.143527
4.654837 -51.520802 1.800972
6.198465 -52.068281 0.478488
5.291801 -51.145305 1.143527
5.837299 -50.706041 0.553931
11.608277 -65.801147 0.86876
10.734468 -64.954384 1.574284
11.724381 -65.028183 0.077253
11.608277 -65.801147 0.86876
10.222453 -62.764687 0.735487
9.958426 -63.441971 1.496151
9.227526 -61.925667 1.462635
11.11865 -63.504176 0.025124
10.222453 -62.764687 0.735487
11.724381 -65.028183 0.077253
11.11865 -63.504176 0.025124
9.806895 -56.819547 -1.756338
8.953757 -56.191282 -1.072275
9.996546 -55.977005 -2.261642
9.806895 -56.819547 -1.756338
9.523941 -54.795738 -2.048606
10.267824 -55.278431 -2.690993
9.996546 -55.977005 -2.261642
9.677745 -51.615368 -2.615658
9.636973 -52.409952 -2.54801
9.109981 -51.481104 -2.135286
10.389411 -51.647097 -3.187698
9.677745 -51.615368 -2.615658
11.03951 -51.786808 -3.782664
10.854836 -52.683927 -3.623347
10.389411 -51.647097 -3.187698
11.763822 -51.861489 -4.408938
11.03951 -51.786808 -3.782664
12.372321 -51.97798 -5.05347
12.113433 -52.94013 -4.862846
11.763822 -51.861489 -4.408938
13.046479 -52.051029 -5.71845
12.372321 -51.97798 -5.05347
13.562385 -52.135407 -6.39107
13.237839 -53.140999 -6.179998
13.046479 -52.051029 -5.71845
14.150479 -52.188114 -7.085358
13.562385 -52.135407 -6.39107
14.558722 -52.239553 -7.775441
14.161989 -53.276815 -7.542701
14.150479 -52.188114 -7.085358
15.050116 -52.264544 -8.493296
14.558722 -52.239553 -7.775441
14.883525 -53.350649 -8.93355
15.050116 -52.264544 -8.493296
3 0 23 21
3 88 25 89
3 90 27 91
3 92 91 25
3 90 91 92
3 94 93 27
3 1 95 97
3 95 28 96
3 95 96 97
3 1 30 28
3 2 98 100
3 100 99 31
3 98 99 100
3 2 101 103
3 101 32 102
3 101 102 103
3 3 35 33
3 3 104 106
3 106 105 35
3 104 105 106
3 3 107 108
3 4 38 36
3 4 39 38
3 4 41 39
3 109 43 110
3 112 111 43
3 5 113 115
3 115 114 46
3 113 114 115
3 5 116 117
3 118 47 119
3 7 48 22
3 7 49 48
3 120 50 121
3 122 52 123
3 9 53 24
3 9 54 53
3 9 56 54
3 11 57 26
3 11 58 57
3 11 60 58
3 124 61 125
3 14 62 29
3 14 63 62
3 6 126 127
3 128 64 129
3 131 130 65
3 8 66 51
3 133 132 34
3 10 67 55
3 135 134 37
3 15 136 137
3 15 138 139
3 15 140 141
3 16 68 40
3 16 69 68
3 12 70 59
3 17 71 42
3 17 72 71
3 17 73 72
3 18 74 44
3 18 75 74
3 19 142 144
3 142 76 143
3 142 143 144
3 19 77 76
3 19 78 77
3 145 79 146
3 147 146 45
3 145 146 147
3 148 80 149
3 150 149 79
3 148 149 150
3 151 81 152
3 153 82 154
3 155 154 81
3 153 154 155
3 156 83 157
3 158 157 82
3 156 157 158
3 159 84 160
3 161 65 162
3 163 162 84
3 161 162 163
3 13 164 166
3 164 86 165
3 164 165 166
3 20 167 169
3 167 87 168
3 167 168 169
3 20 85 87
3 21 170 172
3 170 22 171
3 170 171 172
3 23 22 21
3 23 7 22
3 173 24 174
3 25 175 177
3 175 24 176
3 175 176 177
3 25 9 24
3 25 26 9
3 27 26 25
3 27 11 26
3 27 178 180
3 180 179 11
3 178 179 180
3 182 181 27
3 28 183 184
3 28 185 186
3 28 187 189
3 187 29 188
3 187 188 189
3 30 29 28
3 30 14 29
3 31 190 192
3 192 191 6
3 190 191 192
3 194 193 31
3 32 195 196
3 32 197 198
3 33 34 8
3 35 34 33
3 35 199 201
3 201 200 34
3 199 200 201
3 35 202 203
3 205 204 35
3 36 37 10
3 38 37 36
3 38 206 208
3 208 207 37
3 206 207 208
3 38 209 210
3 39 211 213
3 213 212 38
3 211 212 213
3 39 214 216
3 214 15 215
3 214 215 216
3 39 40 15
3 41 40 39
3 41 16 40
3 217 42 218
3 219 218 12
3 217 218 219
3 43 220 222
3 220 42 221
3 220 221 222
3 43 17 42
3 43 44 17
3 223 44 224
3 225 224 43
3 223 224 225
3 226 18 227
3 228 227 44
3 226 227 228
3 229 19 230
3 231 45 232
3 233 232 19
3 231 232 233
3 234 45 235
3 237 236 45
3 46 238 240
3 240 239 13
3 238 239 240
3 242 241 46
3 243 20 244
3 47 245 246
3 47 247 249
3 247 6 248
3 247 248 249
3 22 250 252
3 250 47 251
3 250 251 252
3 48 47 22
3 48 6 47
3 48 31 6
3 49 31 48
3 49 2 31
3 50 253 254
3 50 255 256
3 257 51 258
3 52 259 261
3 259 51 260
3 259 260 261
3 52 8 51
3 24 262 264
3 262 52 263
3 262 263 264
3 53 52 24
3 53 8 52
3 53 33 8
3 54 33 53
3 54 3 33
3 54 55 3
3 56 55 54
3 56 10 55
3 26 56 9
3 57 56 26
3 57 10 56
3 57 36 10
3 58 36 57
3 58 4 36
3 58 59 4
3 60 59 58
3 60 12 59
3 265 60 266
3 267 266 11
3 265 266 267
3 268 60 269
3 270 12 271
3 272 271 60
3 270 271 272
3 274 273 12
3 61 275 276
3 61 277 279
3 277 13 278
3 277 278 279
3 29 280 282
3 280 61 281
3 280 281 282
3 62 61 29
3 62 13 61
3 62 46 13
3 63 46 62
3 63 5 46
3 284 283 6
3 64 285 286
3 64 287 289
3 287 1 288
3 287 288 289
3 65 290 292
3 292 291 0
3 290 291 292
3 294 293 65
3 51 295 296
3 66 297 299
3 299 298 51
3 297 298 299
3 66 300 301
3 34 66 8
3 302 66 303
3 304 303 34
3 302 303 304
3 306 305 66
3 55 307 309
3 309 308 3
3 307 308 309
3 67 310 312
3 312 311 55
3 310 311 312
3 67 313 314
3 37 67 10
3 315 67 316
3 317 316 37
3 315 316 317
3 319 318 67
3 40 320 322
3 322 321 15
3 320 321 322
3 68 323 325
3 325 324 40
3 323 324 325
3 68 326 327
3 68 328 330
3 328 50 329
3 328 329 330
3 69 50 68
3 69 331 333
3 333 332 50
3 331 332 333
3 59 41 4
3 70 41 59
3 70 16 41
3 42 70 12
3 71 70 42
3 71 16 70
3 71 69 16
3 72 69 71
3 72 334 336
3 336 335 69
3 334 335 336
3 72 337 338
3 73 339 341
3 341 340 72
3 339 340 341
3 73 342 343
3 44 73 17
3 74 73 44
3 74 344 346
3 346 345 73
3 344 345 346
3 74 347 349
3 347 64 348
3 347 348 349
3 75 64 74
3 75 1 64
3 350 18 351
3 76 352 353
3 76 354 356
3 354 18 355
3 354 355 356
3 76 75 18
3 77 75 76
3 77 1 75
3 77 30 1
3 78 30 77
3 78 14 30
3 45 78 19
3 79 78 45
3 79 14 78
3 79 63 14
3 80 63 79
3 80 5 63
3 81 357 358
3 81 359 360
3 81 361 363
3 361 80 362
3 361 362 363
3 82 80 81
3 82 5 80
3 82 364 366
3 366 365 5
3 364 365 366
3 83 367 369
3 369 368 82
3 367 368 369
3 83 370 372
3 370 20 371
3 370 371 372
3 373 83 374
3 84 375 377
3 375 83 376
3 375 376 377
3 84 20 83
3 84 85 20
3 65 85 84
3 65 0 85
3 86 378 379
3 86 380 381
3 382 86 383
3 384 383 13
3 382 383 384
3 385 86 386
3 388 387 86
3 87 389 390
3 87 391 392
3 87 393 395
3 393 21 394
3 393 394 395
3 85 21 87
3 85 0 21
3 396 23 397
3 398 397 0
3 396 397 398
3 399 23 400
3 401 7 402
3 403 402 23
3 401 402 403
3 404 7 405
3 406 49 407
3 408 407 7
3 406 407 408
3 409 49 410
3 411 2 412
3 413 412 49
3 411 412 413
3 414 2 415
3 416 32 417
3 418 417 2
3 416 417 418
3 419 32 420
3 422 421 32
