ply
format ascii 1.0
element vertex 225
property float x
property float y
property float z
element face 222
property list uchar int vertex_index
end_header
9.300985 -108.816353 -16.79817
5.712626 -117.393219 -11.676729
2.458542 -106.336746 -8.564226
2.265038 -109.154083 -5.053541
7.777819 -123.529396 -7.561543
6.80835 -113.818031 -14.895702
9.712988 -118.141617 -15.938604
11.819756 -113.41214 -18.053396
15.189245 -107.39949 -19.115465
5.197063 -119.589027 -7.175062
3.314762 -114.743439 -6.339998
3.611425 -112.318214 -10.393084
4.878407 -108.418213 -13.251961
8.603985 -121.494148 -12.426931
7.853437 -103.101562 -14.985306
13.253731 -102.538567 -17.74132
19.399494 -100.288544 -19.728331
7.855177 -111.489265 -15.997972
9.108477 -113.856995 -16.646059
10.429506 -111.255753 -17.495035
13.359812 -110.554832 -18.682795
12.106983 -108.331833 -18.083845
2.264393 -107.936264 -6.931314
2.722021 -110.919609 -7.775217
2.910652 -109.433151 -9.534975
4.057529 -110.554489 -11.976999
3.40011 -107.567749 -11.013613
5.445272 -118.652725 -9.570232
6.742176 -120.787132 -9.916603
7.072973 -119.570358 -12.113071
12.325773 -117.75985 -17.553507
11.466768 -119.894211 -16.2778
5.683571 -102.755028 -13.18186
7.521385 -99.858101 -13.952452
12.688587 -99.685547 -16.90291
16.279518 -101.618919 -18.787848
9.784971 -124.261414 -10.237341
6.124538 -115.786667 -13.457554
7.502993 -118.018394 -13.974655
8.149637 -116.114632 -15.483189
10.607601 -115.946907 -17.156713
13.452028 -115.288666 -18.498053
14.869333 -112.496147 -19.169016
4.159973 -117.266426 -6.814556
4.328499 -116.289406 -9.102764
3.414524 -113.708771 -8.50518
4.550886 -114.97422 -11.107677
4.969242 -113.297714 -12.795763
5.713406 -111.250885 -14.153496
6.864637 -108.843048 -15.192995
6.408199 -121.688797 -7.425409
8.195843 -122.669548 -10.143696
10.276794 -123.138985 -12.611786
9.076221 -119.989586 -14.365036
10.811666 -121.686455 -14.633444
4.306446 -105.334198 -12.218699
6.142004 -105.925468 -14.239613
8.443047 -106.094955 -15.953634
9.961521 -99.974312 -15.553358
10.411259 -103.033707 -16.497019
11.123529 -105.82386 -17.353491
14.086077 -105.111557 -18.485628
17.233332 -103.970924 -19.434153
13.276616 -118.523964 -17.69804
13.810976 -117.322232 -18.199737
7.47575 -98.127872 -13.447
6.500702 -99.610462 -13.025353
8.535295 -124.295204 -7.56435
8.309094 -124.572239 -6.158083
7.551619 -123.806431 -6.155277
8.781395 -123.895405 -8.899442
9.538871 -124.661213 -8.902249
8.535295 -124.295204 -7.56435
15.872687 -108.402282 -19.37672
14.95797 -109.979953 -19.160385
14.274528 -108.977161 -18.89913
16.82107 -106.719944 -19.550216
15.872687 -108.402282 -19.37672
3.737367 -116.004932 -6.577277
3.666771 -116.360042 -5.377054
3.244166 -115.098549 -5.139775
2.471776 -110.594296 -5.401387
2.27973 -109.579914 -4.001935
5.802631 -120.638912 -7.300235
5.644015 -120.95869 -5.984217
5.038447 -119.908805 -5.859043
12.092641 -121.520775 -15.56323
11.139217 -120.790333 -15.455622
12.420192 -120.624653 -16.385408
11.743102 -122.383294 -14.696469
12.092641 -121.520775 -15.56323
4.150927 -103.680249 -11.6683
3.653815 -104.847126 -11.085674
11.168736 -98.271138 -15.787346
9.859036 -98.322159 -15.072716
19.938579 -101.356015 -20.011143
18.855498 -103.197204 -19.864054
18.316413 -102.129734 -19.581242
6.89611 -122.911518 -6.129622
7.551619 -123.806431 -6.155277
2.969796 -113.773495 -4.915062
3.244166 -115.098549 -5.139775
12.847113 -119.591144 -17.060187
11.89627 -118.827031 -16.915653
13.276616 -118.523964 -17.69804
12.420192 -120.624653 -16.385408
12.847113 -119.591144 -17.060187
5.581795 -101.058926 -12.640057
4.83949 -102.390663 -12.149881
6.602478 -101.306565 -13.567156
5.581795 -101.058926 -12.640057
6.500702 -99.610462 -13.025353
13.929776 -97.878212 -17.082466
12.532269 -98.126755 -16.462122
14.141692 -99.334316 -17.477785
13.929776 -97.878212 -17.082466
14.424264 -100.760827 -17.89699
12.971159 -101.112057 -17.322115
14.141692 -99.334316 -17.477785
15.937157 -100.301003 -18.420254
14.766624 -102.078743 -18.264584
14.424264 -100.760827 -17.89699
17.433302 -99.745125 -18.936504
15.937157 -100.301003 -18.420254
18.99329 -99.079937 -19.406746
17.839506 -100.953732 -19.25809
17.433302 -99.745125 -18.936504
2.228184 -108.117535 -3.69925
2.27973 -109.579914 -4.001935
2.242876 -108.543365 -2.647644
2.175107 -107.638599 -4.670228
2.228184 -108.117535 -3.69925
2.174785 -107.02969 -5.609115
2.264716 -108.545174 -5.992427
2.175107 -107.638599 -4.670228
2.158107 -106.359874 -6.476172
2.174785 -107.02969 -5.609115
2.255181 -105.560115 -7.292628
2.361467 -107.136505 -7.74777
2.158107 -106.359874 -6.476172
10.637137 -124.886723 -10.201993
9.538871 -124.661213 -8.902249
10.924186 -124.362709 -11.438053
10.637137 -124.886723 -10.201993
14.374104 -116.08664 -18.67201
13.810976 -117.322232 -18.199737
12.888901 -116.524258 -18.02578
15.032111 -114.723946 -19.031281
14.374104 -116.08664 -18.67201
15.740763 -113.327686 -19.366762
15.032111 -114.723946 -19.031281
14.16068 -113.892406 -18.833534
16.519368 -111.815017 -19.621035
15.740763 -113.327686 -19.366762
15.712731 -110.950611 -19.403496
14.114572 -111.525489 -18.925905
14.95797 -109.979953 -19.160385
16.519368 -111.815017 -19.621035
15.712731 -110.950611 -19.403496
4.563209 -118.762917 -5.732741
5.038447 -119.908805 -5.859043
4.044664 -117.601616 -5.552488
3.666771 -116.360042 -5.377054
4.678518 -118.427727 -6.994809
4.563209 -118.762917 -5.732741
4.044664 -117.601616 -5.552488
2.996638 -113.388973 -6.044615
2.969796 -113.773495 -4.915062
2.700267 -111.477058 -6.762225
2.471776 -110.594296 -5.401387
2.49353 -110.036846 -6.414379
3.046519 -112.87164 -7.127206
2.700267 -111.477058 -6.762225
3.068272 -112.31419 -8.140199
3.364643 -114.226105 -7.422589
2.996638 -113.388973 -6.044615
3.046519 -112.87164 -7.127206
6.211301 -121.991219 -6.061555
5.644015 -120.95869 -5.984217
7.093009 -122.609096 -7.493476
6.89611 -122.911518 -6.129622
6.211301 -121.991219 -6.061555
11.170097 -123.801495 -12.625276
10.924186 -124.362709 -11.438053
10.030883 -123.700199 -11.424564
11.475666 -123.109559 -13.68564
10.54423 -122.41272 -13.622615
11.743102 -122.383294 -14.696469
12.368969 -123.772069 -13.69913
11.170097 -123.801495 -12.625276
11.475666 -123.109559 -13.68564
2.360431 -104.69791 -8.054656
2.255181 -105.560115 -7.292628
2.729863 -105.3484 -9.258437
2.360431 -104.69791 -8.054656
3.200647 -105.963902 -10.48313
2.929326 -106.952247 -9.788919
2.729863 -105.3484 -9.258437
3.853278 -106.450974 -11.616156
3.200647 -105.963902 -10.48313
3.653815 -104.847126 -11.085674
4.995008 -104.044613 -12.70028
4.150927 -103.680249 -11.6683
4.83949 -102.390663 -12.149881
8.638967 -98.264054 -14.272263
7.47575 -98.127872 -13.447
8.593333 -96.533825 -13.766811
8.741453 -99.916207 -14.752905
8.638967 -98.264054 -14.272263
9.859036 -98.322159 -15.072716
11.325054 -99.829929 -16.228134
11.168736 -98.271138 -15.787346
12.532269 -98.126755 -16.462122
17.843114 -105.005661 -19.70956
16.82107 -106.719944 -19.550216
16.211289 -105.685207 -19.274809
17.843114 -105.005661 -19.70956
18.855498 -103.197204 -19.864054
20.497221 -98.326515 -19.907387
18.99329 -99.079937 -19.406746
20.971544 -99.428738 -20.187851
20.497221 -98.326515 -19.907387
22.069271 -97.46671 -20.366907
19.938579 -101.356015 -20.011143
20.971544 -99.428738 -20.187851
3 0 19 17
3 0 21 19
3 2 24 22
3 2 26 24
3 1 29 27
3 64 63 30
3 65 33 66
3 4 67 69
3 67 68 69
3 4 70 72
3 70 36 71
3 70 71 72
3 5 39 37
3 7 40 18
3 7 41 40
3 7 42 41
3 8 73 75
3 75 74 20
3 73 74 75
3 8 76 77
3 10 78 80
3 78 43 79
3 78 79 80
3 10 44 43
3 3 81 82
3 11 45 23
3 11 46 45
3 11 47 46
3 12 48 25
3 12 49 48
3 9 83 85
3 83 50 84
3 83 84 85
3 13 51 28
3 13 52 51
3 6 53 38
3 86 54 87
3 88 87 31
3 86 87 88
3 90 89 54
3 91 55 92
3 14 56 32
3 14 57 56
3 93 58 94
3 15 59 34
3 15 60 59
3 15 61 60
3 16 62 35
3 16 95 97
3 97 96 62
3 95 96 97
3 98 4 99
3 17 18 5
3 19 18 17
3 19 7 18
3 19 20 7
3 21 20 19
3 21 8 20
3 100 10 101
3 22 23 3
3 24 23 22
3 24 11 23
3 24 25 11
3 26 25 24
3 26 12 25
3 27 28 9
3 29 28 27
3 29 13 28
3 30 31 6
3 102 31 103
3 104 103 30
3 102 103 104
3 106 105 31
3 107 32 108
3 33 109 111
3 109 32 110
3 109 110 111
3 33 14 32
3 112 34 113
3 114 34 115
3 116 15 117
3 118 117 34
3 116 117 118
3 119 35 120
3 121 120 15
3 119 120 121
3 122 35 123
3 124 16 125
3 126 125 35
3 124 125 126
3 127 3 128
3 127 128 129
3 130 3 131
3 132 22 133
3 134 133 3
3 132 133 134
3 135 22 136
3 137 2 138
3 139 138 22
3 137 138 139
3 36 140 141
3 36 142 143
3 37 38 1
3 39 38 37
3 39 6 38
3 18 39 5
3 40 39 18
3 40 6 39
3 40 30 6
3 41 30 40
3 41 144 146
3 146 145 30
3 144 145 146
3 41 147 148
3 42 149 151
3 151 150 41
3 149 150 151
3 42 152 153
3 20 42 7
3 154 42 155
3 156 155 20
3 154 155 156
3 158 157 42
3 159 9 160
3 43 161 162
3 43 163 165
3 163 9 164
3 163 164 165
3 43 27 9
3 44 27 43
3 44 1 27
3 166 10 167
3 23 168 170
3 170 169 3
3 168 169 170
3 45 171 173
3 173 172 23
3 171 172 173
3 45 174 176
3 174 10 175
3 174 175 176
3 45 44 10
3 46 44 45
3 46 1 44
3 46 37 1
3 47 37 46
3 47 5 37
3 25 47 11
3 48 47 25
3 48 5 47
3 48 17 5
3 49 17 48
3 49 0 17
3 50 177 178
3 50 179 181
3 179 4 180
3 179 180 181
3 28 50 9
3 51 50 28
3 51 4 50
3 51 36 4
3 52 36 51
3 52 182 184
3 184 183 36
3 182 183 184
3 38 29 1
3 53 29 38
3 53 13 29
3 31 53 6
3 54 53 31
3 54 13 53
3 54 52 13
3 185 52 186
3 187 186 54
3 185 186 187
3 190 189 52
3 188 189 190
3 191 2 192
3 193 2 194
3 195 26 196
3 197 196 2
3 195 196 197
3 55 198 200
3 198 26 199
3 198 199 200
3 55 12 26
3 32 201 203
3 201 55 202
3 201 202 203
3 56 55 32
3 56 12 55
3 56 49 12
3 57 49 56
3 57 0 49
3 204 33 205
3 204 205 206
3 58 207 209
3 207 33 208
3 207 208 209
3 58 14 33
3 34 210 212
3 210 58 211
3 210 211 212
3 59 58 34
3 59 14 58
3 59 57 14
3 60 57 59
3 60 0 57
3 60 21 0
3 61 21 60
3 61 8 21
3 35 61 15
3 62 61 35
3 62 8 61
3 62 213 215
3 215 214 8
3 213 214 215
3 217 216 62
3 218 16 219
3 220 16 221
3 220 221 222
3 224 223 16
