ply
format ascii 1.0
element vertex 308
property float x
property float y
property float z
element face 316
property list uchar int vertex_index
end_header
-49.876518 -90.152222 -5.922316
-52.84655 -83.425293 -13.322186
-44.519089 -102.341888 -6.280317
-47.615685 -95.320602 2.672273
-51.707684 -84.79245 1.661913
-46.25526 -96.898849 -13.468378
-47.07209 -88.847717 -18.941364
-43.687157 -101.979141 6.569473
-45.204372 -100.524811 2.368681
-46.518623 -97.151764 7.213075
-54.830479 -79.987373 0.842501
-47.323154 -96.32222 -5.880501
-45.462242 -99.967056 -10.055141
-48.350227 -93.348907 -9.689226
-50.152321 -85.998672 -16.104721
-53.010132 -84.349411 -6.372038
-51.393353 -86.96434 -9.78533
-55.129444 -81.096375 -10.372124
-46.358521 -98.722382 -1.80233
-48.630455 -92.985443 -1.733433
-48.225975 -92.147049 7.05451
-49.448532 -89.952896 2.345874
-51.011131 -87.314255 -2.133163
-54.22789 -82.062195 -2.785286
-49.371262 -89.920197 -13.074297
-46.796982 -93.210663 -16.375093
-45.27766 -99.591248 6.994066
-48.573486 -93.217285 -5.843489
-47.824348 -94.898315 -7.831465
-49.168549 -91.70546 -7.806408
-52.338844 -80.351471 -17.900181
-54.902573 -81.634476 -6.703579
-54.086475 -82.764961 -8.398478
-46.542336 -97.963455 2.610084
-45.823917 -99.688858 0.278242
-47.062576 -96.992722 0.443138
-47.545555 -95.878128 -1.698229
-48.112793 -94.222153 0.448888
-50.635231 -86.025726 3.964509
-49.650322 -88.535294 4.35299
-50.475563 -87.327927 2.030297
-50.172607 -88.683121 0.077624
-51.424919 -86.021088 -0.232129
-52.500721 -84.630249 -2.439657
-52.913811 -83.46817 -0.584402
-45.881119 -98.513519 -11.822699
-52.152725 -85.247513 -11.586397
-50.440536 -88.399063 -11.435965
-51.032887 -86.600235 -13.108406
-48.659538 -87.390015 -17.512241
-48.44511 -89.541061 -16.141026
-46.957977 -91.122345 -17.680016
-44.487144 -101.271988 4.465744
-45.950821 -98.815765 4.795035
-47.094402 -96.288071 4.928721
-51.831417 -83.598648 3.537428
-53.171989 -82.353424 1.263851
-53.240593 -81.246788 3.086679
-54.804977 -78.936722 2.60944
-46.005699 -99.390366 -6.032263
-45.010887 -101.245804 -8.194599
-46.475204 -98.106216 -7.968508
-46.939354 -96.664551 -9.826029
-47.391869 -95.081818 -11.576647
-53.446156 -81.468414 -15.02496
-51.549416 -84.678452 -14.716908
-51.980835 -82.604782 -16.300243
-50.43755 -83.795654 -17.575947
-51.335533 -87.186447 -6.104923
-50.616859 -88.596893 -7.899054
-52.247051 -85.614624 -8.101744
-53.168716 -83.969574 -10.023726
-54.040558 -82.232468 -11.884289
-54.817009 -80.375046 -13.708483
-44.957893 -101.45845 -2.050457
-45.512276 -100.506149 -4.05024
-46.844139 -97.601273 -3.861996
-48.036713 -94.61525 -3.800287
-49.211121 -91.621689 -3.862329
-48.005749 -93.706955 4.877131
-48.811974 -91.108231 4.671189
-48.538292 -92.633621 2.573069
-49.104282 -91.432556 0.316277
-49.745987 -90.111237 -1.887989
-50.49044 -88.689026 -4.031534
-51.966599 -85.865494 -4.283957
-53.67746 -83.167633 -4.595659
-55.599258 -80.576439 -4.949163
-54.626171 -81.01368 -0.963623
-56.142948 -79.579453 -3.160078
-49.804192 -90.097519 -9.672291
-48.877754 -91.688766 -11.437115
-47.808807 -93.3694 -13.205959
-49.800125 -88.031158 -14.618708
-48.164154 -91.526886 -14.719032
-46.564671 -95.131897 -14.981882
-55.505148 -80.826458 -7.736982
-55.931099 -80.318085 -6.893844
-43.936339 -103.286987 -7.373918
-43.66565 -103.722969 -6.433998
-45.430447 -98.667228 -13.637805
-45.243376 -99.474564 -12.814965
-46.06819 -97.706184 -12.645539
-45.577713 -97.841995 -14.40922
-45.430447 -98.667228 -13.637805
-46.199036 -90.80143 -19.075836
-46.141979 -91.938744 -18.445162
-47.015034 -89.985031 -18.31069
-46.227092 -89.601272 -19.650219
-46.199036 -90.80143 -19.075836
-44.08715 -101.625564 5.517608
-43.579235 -102.466408 4.210873
-43.179242 -102.819985 5.262738
-51.802274 -82.999375 4.461162
-51.232802 -84.172425 4.706446
-52.506862 -81.823444 4.235788
-52.536005 -82.422718 3.312054
-51.802274 -82.999375 4.461162
-54.670227 -78.375218 3.466606
-53.950756 -79.519432 3.740181
-55.615016 -77.777184 2.349622
-54.670227 -78.375218 3.466606
-42.716223 -103.154228 6.269599
-43.262291 -102.332779 7.623918
-43.179242 -102.819985 5.262738
-42.716223 -103.154228 6.269599
-52.964005 -80.975845 -16.516498
-52.713496 -82.036598 -15.662601
-53.696665 -80.407661 -15.878857
-50.558768 -82.59695 -18.325659
-51.388197 -82.073563 -17.738064
-51.509415 -80.874859 -18.487776
-49.635024 -84.422852 -18.227444
-50.558768 -82.59695 -18.325659
-55.860447 -78.887001 -13.975168
-55.448868 -79.846298 -13.009895
-55.146935 -79.370903 -14.618596
-55.860447 -78.887001 -13.975168
-44.754858 -101.398575 1.159878
-44.371269 -101.75734 2.1601
-47.846276 -93.405327 7.139801
-47.941719 -92.615959 8.274944
-48.115862 -92.927002 5.96582
-47.736163 -94.18528 6.051112
-47.846276 -93.405327 7.139801
-57.144922 -78.353032 -3.363728
-56.3159 -79.098099 -2.264881
-56.898623 -78.81136 -4.248727
-57.144922 -78.353032 -3.363728
-44.642894 -101.567879 -10.192671
-44.417217 -102.207253 -9.2624
-45.236565 -100.60643 -9.12487
-45.955174 -95.084099 -16.561961
-45.839018 -96.044716 -15.865355
-46.680826 -94.17128 -15.678487
-44.906513 -99.96328 8.098695
-44.482408 -100.785194 6.78177
-44.111261 -101.157227 7.886398
-45.578518 -98.771637 8.257123
-44.906513 -99.96328 8.098695
-46.198999 -97.551895 8.366627
-45.898141 -98.371506 7.103571
-45.578518 -98.771637 8.257123
-44.111261 -101.157227 7.886398
-43.262291 -102.332779 7.623918
-53.351132 -78.693928 -18.190432
-53.143009 -79.84919 -17.316468
-52.492321 -79.124813 -18.726128
-53.351132 -78.693928 -18.190432
-51.509415 -80.874859 -18.487776
-52.492321 -79.124813 -18.726128
-55.097099 -81.3917 -8.584431
-54.494524 -82.199719 -7.551029
-55.505148 -80.826458 -7.736982
-55.618583 -80.557407 -9.571254
-54.607959 -81.930668 -9.385301
-55.097099 -81.3917 -8.584431
-48.252653 -91.388275 8.129682
-47.941719 -92.615959 8.274944
-50.142776 -87.28051 4.158749
-49.674711 -87.847237 5.34468
-50.167165 -86.592453 5.15044
-55.659666 -79.302059 -0.263591
-55.711389 -78.816753 0.615512
-45.061481 -100.20726 -11.973766
-44.852043 -100.934028 -11.089987
-45.671681 -99.240287 -10.93892
-45.061481 -100.20726 -11.973766
-45.243376 -99.474564 -12.814965
-46.103004 -93.036721 -17.851416
-46.022507 -94.08088 -17.198954
-46.877479 -92.166504 -17.027555
-46.103004 -93.036721 -17.851416
-46.141979 -91.938744 -18.445162
-44.012655 -102.130928 3.208631
-43.579235 -102.466408 4.210873
-44.845758 -100.898399 3.417212
-44.371269 -101.75734 2.1601
-44.012655 -102.130928 3.208631
-50.634709 -85.385964 4.919987
-50.167165 -86.592453 5.15044
-51.233324 -84.812187 3.750968
-50.634709 -85.385964 4.919987
-51.232802 -84.172425 4.706446
-53.168564 -80.674465 3.978801
-52.506862 -81.823444 4.235788
-54.022785 -80.091755 2.84806
-53.168564 -80.674465 3.978801
-53.950756 -79.519432 3.740181
-55.698639 -78.291427 1.498982
-55.711389 -78.816753 0.615512
-54.817728 -79.462048 1.725971
-55.698639 -78.291427 1.498982
-55.615016 -77.777184 2.349622
-52.15984 -81.478127 -17.100212
-52.964005 -80.975845 -16.516498
-53.143009 -79.84919 -17.316468
-48.746017 -86.220032 -18.195591
-49.548544 -85.592835 -17.544094
-49.635024 -84.422852 -18.227444
-47.952293 -86.948883 -18.910153
-47.865814 -88.118866 -18.226802
-48.746017 -86.220032 -18.195591
-47.122688 -87.607925 -19.573639
-47.952293 -86.948883 -18.910153
-56.177892 -79.696529 -10.590707
-55.618583 -80.557407 -9.571254
-55.605086 -80.206963 -11.341716
-56.177892 -79.696529 -10.590707
-55.060643 -80.775009 -12.097798
-54.585001 -81.664422 -11.128207
-55.605086 -80.206963 -11.341716
-54.428783 -81.303757 -12.796386
-55.060643 -80.775009 -12.097798
-55.448868 -79.846298 -13.009895
-54.461508 -79.917587 -15.276834
-54.131583 -80.92173 -14.366722
-55.146935 -79.370903 -14.618596
-53.696665 -80.407661 -15.878857
-54.461508 -79.917587 -15.276834
-44.237812 -102.803276 -5.315418
-43.66565 -103.722969 -6.433998
-45.06463 -100.980598 0.114658
-44.754858 -101.398575 1.159878
-45.514145 -100.106834 1.323462
-44.631619 -101.865395 -1.049691
-45.06463 -100.980598 0.114658
-45.390905 -100.573654 -0.886108
-44.120542 -102.751869 -2.24028
-44.631619 -101.865395 -1.049691
-44.457214 -102.361557 -3.200488
-44.120542 -102.751869 -2.24028
-44.734406 -101.885406 -4.20038
-44.457214 -102.361557 -3.200488
-45.235084 -100.982299 -3.050349
-45.015682 -101.424018 -5.165278
-44.237812 -102.803276 -5.315418
-44.734406 -101.885406 -4.20038
-46.706813 -96.342087 8.412955
-46.198999 -97.551895 8.366627
-46.992599 -95.907685 7.219083
-46.706813 -96.342087 8.412955
-47.280489 -95.475838 6.076906
-46.806512 -96.719918 6.070898
-46.992599 -95.907685 7.219083
-47.550076 -94.997513 4.902926
-47.280489 -95.475838 6.076906
-47.736163 -94.18528 6.051112
-48.576843 -90.890632 6.898625
-48.252653 -91.388275 8.129682
-49.289017 -89.084755 5.547865
-49.674711 -87.847237 5.34468
-48.869843 -90.371223 5.706964
-49.289017 -89.084755 5.547865
-49.231148 -89.821763 4.51209
-48.518974 -91.62764 5.862849
-48.576843 -90.890632 6.898625
-48.869843 -90.371223 5.706964
-56.279442 -79.789066 -6.016635
-55.931099 -80.318085 -6.893844
-55.250915 -81.105457 -5.826371
-55.557512 -79.815213 -1.166654
-54.728325 -80.500527 -0.060561
-55.659666 -79.302059 -0.263591
-55.384559 -80.296566 -2.06185
-55.557512 -79.815213 -1.166654
-56.3159 -79.098099 -2.264881
-56.626778 -79.309853 -5.14327
-55.871103 -80.077946 -4.054621
-56.898623 -78.81136 -4.248727
-56.279442 -79.789066 -6.016635
-56.626778 -79.309853 -5.14327
-44.182237 -102.738945 -8.331059
-43.936339 -103.286987 -7.373918
-44.764988 -101.793846 -7.237458
-44.182237 -102.738945 -8.331059
-44.417217 -102.207253 -9.2624
-44.642894 -101.567879 -10.192671
-44.852043 -100.934028 -11.089987
-45.732418 -96.958519 -15.165973
-45.577713 -97.841995 -14.40922
-46.409965 -96.015373 -14.22513
-45.732418 -96.958519 -15.165973
-45.839018 -96.044716 -15.865355
-45.955174 -95.084099 -16.561961
-46.022507 -94.08088 -17.198954
-46.227092 -89.601272 -19.650219
-47.122688 -87.607925 -19.573639
3 0 29 27
3 97 96 31
3 3 35 33
3 3 37 35
3 4 40 38
3 4 42 40
3 4 44 42
3 2 98 99
3 5 100 102
3 102 101 45
3 100 101 102
3 5 103 104
3 1 48 46
3 6 51 49
3 6 105 107
3 107 106 51
3 105 106 107
3 6 108 109
3 7 110 112
3 110 52 111
3 110 111 112
3 9 53 26
3 9 54 53
3 113 55 114
3 115 57 116
3 117 116 55
3 115 116 117
3 118 58 119
3 121 120 58
3 7 122 123
3 7 124 125
3 11 61 59
3 13 62 28
3 13 63 62
3 126 66 127
3 128 127 64
3 126 127 128
3 129 67 130
3 131 130 30
3 129 130 131
3 133 132 67
3 15 70 68
3 17 71 32
3 17 72 71
3 134 73 135
3 137 136 73
3 8 138 139
3 18 74 34
3 18 75 74
3 18 76 75
3 19 77 36
3 19 78 77
3 20 140 141
3 20 142 144
3 142 79 143
3 142 143 144
3 21 80 39
3 21 81 80
3 21 82 81
3 22 83 41
3 22 84 83
3 22 85 84
3 23 86 43
3 23 87 86
3 10 88 56
3 145 89 146
3 148 147 89
3 12 149 151
3 151 150 60
3 149 150 151
3 16 90 69
3 24 91 47
3 24 92 91
3 14 93 65
3 25 94 50
3 25 95 94
3 25 152 154
3 154 153 95
3 152 153 154
3 155 26 156
3 157 156 7
3 155 156 157
3 158 26 159
3 160 9 161
3 162 161 26
3 160 161 162
3 163 7 164
3 27 28 11
3 29 28 27
3 29 13 28
3 165 30 166
3 167 30 168
3 170 169 30
3 31 32 15
3 171 32 172
3 173 172 31
3 171 172 173
3 174 17 175
3 176 175 32
3 174 175 176
3 33 34 8
3 35 34 33
3 35 18 34
3 35 36 18
3 37 36 35
3 37 19 36
3 177 20 178
3 38 179 181
3 179 39 180
3 179 180 181
3 40 39 38
3 40 21 39
3 40 41 21
3 42 41 40
3 42 22 41
3 42 43 22
3 44 43 42
3 44 23 43
3 183 182 10
3 45 184 186
3 186 185 12
3 184 185 186
3 188 187 45
3 46 47 16
3 48 47 46
3 48 24 47
3 49 50 14
3 51 50 49
3 51 25 50
3 51 189 191
3 191 190 25
3 189 190 191
3 193 192 51
3 52 194 195
3 52 196 198
3 196 8 197
3 196 197 198
3 26 52 7
3 53 52 26
3 53 8 52
3 53 33 8
3 54 33 53
3 54 3 33
3 199 38 200
3 55 201 203
3 201 38 202
3 201 202 203
3 55 4 38
3 55 56 4
3 57 56 55
3 57 10 56
3 204 57 205
3 58 206 208
3 206 57 207
3 206 207 208
3 58 10 57
3 58 209 211
3 211 210 10
3 209 210 211
3 213 212 58
3 59 60 2
3 61 60 59
3 61 12 60
3 28 61 11
3 62 61 28
3 62 12 61
3 62 45 12
3 63 45 62
3 63 5 45
3 64 65 1
3 66 65 64
3 66 14 65
3 30 214 216
3 214 66 215
3 214 215 216
3 67 66 30
3 67 14 66
3 67 49 14
3 217 49 218
3 219 218 67
3 217 218 219
3 220 6 221
3 222 221 49
3 220 221 222
3 224 223 6
3 68 69 0
3 70 69 68
3 70 16 69
3 32 70 15
3 71 70 32
3 71 16 70
3 71 46 16
3 72 46 71
3 72 1 46
3 225 17 226
3 227 17 228
3 229 72 230
3 231 230 17
3 229 230 231
3 73 232 234
3 232 72 233
3 232 233 234
3 73 1 72
3 73 64 1
3 235 64 236
3 237 236 73
3 235 236 237
3 239 238 64
3 240 2 241
3 34 242 244
3 244 243 8
3 242 243 244
3 74 245 247
3 247 246 34
3 245 246 247
3 74 248 249
3 74 250 251
3 75 252 254
3 254 253 74
3 252 253 254
3 75 255 257
3 255 2 256
3 255 256 257
3 75 59 2
3 76 59 75
3 76 11 59
3 36 76 18
3 77 76 36
3 77 11 76
3 77 27 11
3 78 27 77
3 78 0 27
3 258 9 259
3 260 9 261
3 262 54 263
3 264 263 9
3 262 263 264
3 79 265 267
3 265 54 266
3 265 266 267
3 79 3 54
3 268 20 269
3 39 270 271
3 80 272 274
3 274 273 39
3 272 273 274
3 80 275 277
3 275 20 276
3 275 276 277
3 80 79 20
3 81 79 80
3 81 3 79
3 81 37 3
3 82 37 81
3 82 19 37
3 41 82 21
3 83 82 41
3 83 19 82
3 83 78 19
3 84 78 83
3 84 0 78
3 84 68 0
3 85 68 84
3 85 15 68
3 43 85 22
3 86 85 43
3 86 15 85
3 86 31 15
3 87 31 86
3 87 278 280
3 280 279 31
3 278 279 280
3 56 44 4
3 88 44 56
3 88 23 44
3 281 88 282
3 283 282 10
3 281 282 283
3 89 284 286
3 284 88 285
3 284 285 286
3 89 23 88
3 89 87 23
3 287 87 288
3 289 288 89
3 287 288 289
3 291 290 87
3 60 292 294
3 294 293 2
3 292 293 294
3 296 295 60
3 298 297 12
3 69 29 0
3 90 29 69
3 90 13 29
3 47 90 16
3 91 90 47
3 91 13 90
3 91 63 13
3 92 63 91
3 92 5 63
3 65 48 1
3 93 48 65
3 93 24 48
3 50 93 14
3 94 93 50
3 94 24 93
3 94 92 24
3 95 92 94
3 95 5 92
3 95 299 301
3 301 300 5
3 299 300 301
3 303 302 95
3 305 304 25
3 307 306 6
