ply
format ascii 1.0
element vertex 334
property float x
property float y
property float z
element face 325
property list uchar int vertex_index
end_header
55.463177 15.703011 -42.721413
43.911751 15.802189 -35.057663
49.825195 18.684467 -40.687126
49.58984 10.340231 -29.492975
56.666946 13.048172 -31.578508
61.044731 8.403227 -32.319397
52.640049 18.416595 -42.03231
48.27002 20.022552 -46.282578
48.81871 1.62187 -21.140982
47.465656 6.04031 -24.141748
53.37825 12.041252 -30.935751
40.530792 17.162525 -36.667702
61.415085 7.588531 -26.707346
46.948097 17.188286 -38.447586
43.125771 18.187656 -40.988029
45.607384 19.799591 -44.217384
46.97802 13.45784 -32.594734
50.417259 15.066658 -34.987717
53.562653 16.346558 -36.356873
56.326569 15.60812 -37.163673
59.223618 11.903868 -31.983774
58.724457 12.437592 -37.63102
62.336975 3.159151 -32.338257
54.048161 17.357162 -42.455193
51.974876 18.46838 -44.783745
50.375923 3.967873 -23.543276
42.245567 16.617836 -35.981476
48.400551 18.060093 -39.701019
46.416218 18.720837 -41.36248
47.760895 19.411366 -42.578003
45.916142 20.286137 -48.04969
48.658058 8.045231 -26.812464
46.625546 8.128712 -25.514048
47.623302 9.914007 -28.306349
46.47015 11.64813 -29.688292
48.344269 11.983711 -31.110487
48.725395 14.162834 -33.943161
50.188568 12.747189 -32.211601
55.104267 12.75095 -31.316702
53.645164 14.420033 -33.591286
55.198296 14.802151 -34.005981
54.993965 16.286243 -36.807045
56.6091 14.636238 -34.328072
61.262688 8.261147 -29.495821
60.39679 9.806341 -29.346277
60.217323 10.420296 -32.168854
58.994537 12.447752 -34.825027
59.991493 10.495626 -34.991707
51.235184 18.846653 -41.450874
49.124985 19.684284 -43.531723
50.525932 19.388664 -44.258499
48.19696 3.86532 -22.682985
49.575939 6.058319 -25.221121
50.712421 8.545662 -27.764975
51.524837 11.14497 -30.353426
52.729065 9.374224 -28.395132
38.809868 17.421196 -37.100304
62.302711 5.279408 -24.088236
62.165215 6.003992 -26.826975
61.924164 6.199621 -29.633768
45.454914 16.341133 -36.897537
43.682922 17.049793 -38.048706
45.065815 17.841827 -39.854645
44.36153 19.055447 -42.755814
46.90115 20.179138 -45.3843
44.60825 20.300816 -46.952721
45.197659 13.226921 -30.941133
45.496502 14.739616 -33.919701
47.14307 15.369572 -35.51683
48.739494 16.253601 -36.810799
50.281044 17.102516 -37.821541
51.966629 13.65469 -33.01799
52.034348 15.879322 -35.771156
51.766827 17.651501 -38.597511
53.198845 17.701668 -39.194061
54.580177 17.143421 -39.653374
55.917496 15.956398 -39.995682
41.859871 17.470715 -38.935745
40.029312 17.587273 -39.530807
60.398598 8.602703 -26.629995
59.301567 10.764294 -29.214808
58.042664 12.785213 -31.788546
57.872421 13.8493 -34.597694
57.566414 14.306339 -37.442284
57.217533 14.187481 -40.216034
61.738106 5.948853 -32.392242
62.496788 2.309753 -34.724396
61.712547 5.328056 -34.98423
60.88763 8.088106 -35.059875
59.816467 10.09411 -37.698418
58.487526 11.923822 -40.290108
54.468388 16.323212 -43.918484
53.76088 17.150287 -43.785374
54.755669 16.530086 -42.588303
55.239573 15.294148 -43.983459
54.468388 16.323212 -43.918484
43.078659 16.210013 -35.51957
42.28149 16.215908 -34.483395
43.114582 15.808084 -34.021488
50.851726 18.860354 -45.860081
51.626648 18.169935 -46.0714
48.507835 2.743595 -21.911983
47.437244 2.986222 -21.399206
47.748119 1.864497 -20.628205
50.642752 6.336517 -25.583166
49.975931 5.013096 -24.382199
51.042744 5.291294 -24.744243
51.210993 7.580189 -26.855093
50.14418 7.301991 -26.493048
50.642752 6.336517 -25.583166
52.219314 7.99447 -27.170172
51.720743 8.959943 -28.080053
51.210993 7.580189 -26.855093
39.827129 17.309442 -35.484905
40.637542 16.964035 -35.204605
39.67033 17.29186 -36.884003
38.966667 17.438778 -35.701206
39.827129 17.309442 -35.484905
62.691288 4.092118 -22.799076
62.233171 4.623555 -22.799476
62.420649 4.961947 -26.89081
62.562184 4.841102 -25.505215
62.300123 5.059762 -28.294207
62.04469 6.101807 -28.230372
62.420649 4.961947 -26.89081
44.50851 19.81113 -44.884319
43.885583 19.439059 -44.153534
44.984457 19.427519 -43.486599
44.063555 20.228172 -48.227833
45.262196 20.293477 -47.501205
44.717501 20.220833 -48.776317
43.455431 20.165101 -47.567398
44.063555 20.228172 -48.227833
46.451737 6.399468 -23.428762
46.786501 5.250386 -22.797756
45.644855 8.553814 -24.708056
46.149149 9.120643 -26.153656
39.644419 17.740168 -40.908848
40.600828 17.897025 -40.669579
39.135854 17.49173 -39.674366
39.644419 17.740168 -40.908848
60.906841 8.095617 -26.668671
60.873513 7.465471 -25.342624
61.381756 6.958385 -25.3813
62.378402 3.438178 -31.025559
62.567169 2.036574 -31.009936
62.037541 4.554002 -32.36525
62.078968 4.833029 -31.052552
62.378402 3.438178 -31.025559
62.688439 1.752229 -35.761265
62.881897 0.710032 -34.489685
63.073548 0.152507 -35.526554
61.286895 6.353288 -36.294346
61.795012 4.857009 -36.148254
60.874437 7.733313 -36.332168
61.300089 6.708081 -35.022053
61.286895 6.353288 -36.294346
60.338856 8.736315 -37.65144
60.352049 9.091108 -36.379146
60.874437 7.733313 -36.332168
58.399536 11.436829 -41.499184
59.111573 10.595254 -40.237301
57.686219 12.7291 -41.552269
58.399536 11.436829 -41.499184
52.724237 17.705897 -44.94965
53.011519 17.912771 -43.619469
53.76088 17.150287 -43.785374
51.626648 18.169935 -46.0714
52.724237 17.705897 -44.94965
50.714285 2.878952 -22.664625
49.597317 2.794872 -22.342129
49.935679 1.70595 -21.463479
51.47624 4.26461 -23.79574
50.714285 2.878952 -22.664625
51.042744 5.291294 -24.744243
51.47624 4.26461 -23.79574
41.49493 16.69169 -34.861492
42.28149 16.215908 -34.483395
41.388179 16.89018 -36.324589
40.637542 16.964035 -35.204605
41.49493 16.69169 -34.861492
46.634425 19.9812 -48.455612
47.093081 20.154345 -47.166134
47.811363 19.849407 -47.572056
45.408728 20.000536 -49.276477
46.634425 19.9812 -48.455612
44.717501 20.220833 -48.776317
45.408728 20.000536 -49.276477
46.648027 10.013291 -27.549807
46.149149 9.120643 -26.153656
47.124424 9.021359 -26.910198
47.046726 10.781068 -28.997321
46.071451 10.880352 -28.240778
46.648027 10.013291 -27.549807
42.149057 18.197216 -41.39819
42.703574 18.614576 -42.410282
62.609882 1.643077 -32.22662
62.567169 2.036574 -31.009936
50.127254 19.320495 -45.597458
51.250404 18.928522 -44.521122
50.851726 18.860354 -45.860081
48.999299 19.637439 -46.609498
49.397976 19.705608 -45.270539
50.127254 19.320495 -45.597458
47.811363 19.849407 -47.572056
48.999299 19.637439 -46.609498
47.152153 4.16289 -22.068374
47.437244 2.986222 -21.399206
47.831308 4.952815 -23.412366
46.786501 5.250386 -22.797756
47.152153 4.16289 -22.068374
53.262729 8.412292 -27.376732
52.219314 7.99447 -27.170172
53.6875 9.810258 -28.582258
53.262729 8.412292 -27.376732
54.012093 11.143772 -29.852567
53.053657 10.707738 -29.665442
53.6875 9.810258 -28.582258
54.875101 11.498621 -30.043043
54.241259 12.396101 -31.126227
54.012093 11.143772 -29.852567
55.7556 11.823172 -30.146406
54.875101 11.498621 -30.043043
56.53694 11.971782 -30.277309
55.885607 12.899561 -31.447605
55.7556 11.823172 -30.146406
38.15279 17.64702 -35.880436
38.966667 17.438778 -35.701206
37.969963 17.40682 -37.187386
38.15279 17.64702 -35.880436
61.825569 5.803824 -24.071745
62.233171 4.623555 -22.799476
61.858898 6.433969 -25.397791
61.381756 6.958385 -25.3813
61.825569 5.803824 -24.071745
62.630932 4.47881 -24.135845
62.691288 4.092118 -22.799076
62.233963 5.6417 -25.457605
62.630932 4.47881 -24.135845
62.562184 4.841102 -25.505215
47.982883 0.672798 -19.918869
47.748119 1.864497 -20.628205
49.07156 0.476853 -20.328116
47.982883 0.672798 -19.918869
49.935679 1.70595 -21.463479
49.07156 0.476853 -20.328116
43.321453 19.048471 -43.294174
42.703574 18.614576 -42.410282
43.743651 18.621552 -41.871921
43.321453 19.048471 -43.294174
43.885583 19.439059 -44.153534
44.008944 20.061743 -46.251987
44.50851 19.81113 -44.884319
45.107817 20.050204 -45.585053
44.008944 20.061743 -46.251987
43.455431 20.165101 -47.567398
43.860594 15.21361 -33.551979
43.114582 15.808084 -34.021488
46.031682 7.443669 -24.114912
46.451737 6.399468 -23.428762
47.045601 7.084511 -24.827898
46.031682 7.443669 -24.114912
45.644855 8.553814 -24.708056
45.535921 11.809703 -28.82937
46.071451 10.880352 -28.240778
44.899676 12.599098 -29.455791
45.535921 11.809703 -28.82937
45.833905 12.437525 -30.314712
44.303411 13.453541 -29.988352
44.899676 12.599098 -29.455791
44.503548 13.925976 -31.493714
44.303411 13.453541 -29.988352
44.652969 14.682323 -32.982998
44.503548 13.925976 -31.493714
45.347081 13.983269 -32.430417
44.704127 15.270903 -34.488682
43.860594 15.21361 -33.551979
44.652969 14.682323 -32.982998
41.516108 17.838746 -40.372047
42.492821 17.829186 -39.961887
42.149057 18.197216 -41.39819
40.944592 17.528994 -39.233276
41.516108 17.838746 -40.372047
40.600828 17.897025 -40.669579
38.526133 17.408691 -38.459114
39.41959 17.504234 -38.315556
39.135854 17.49173 -39.674366
37.969963 17.40682 -37.187386
38.526133 17.408691 -38.459114
57.317634 12.080061 -30.340418
56.53694 11.971782 -30.277309
60.243542 7.699352 -25.363072
60.873513 7.465471 -25.342624
59.752667 8.811024 -26.615614
60.243542 7.699352 -25.363072
59.204151 9.891819 -27.90802
59.752667 8.811024 -26.615614
59.850082 9.683498 -27.922401
58.634945 10.938122 -29.158568
59.204151 9.891819 -27.90802
58.005494 11.948581 -30.445436
58.634945 10.938122 -29.158568
58.672116 11.774753 -30.501677
57.354805 12.916692 -31.683527
57.317634 12.080061 -30.340418
58.005494 11.948581 -30.445436
62.171997 4.958413 -29.673315
62.300123 5.059762 -28.294207
61.831135 6.074237 -31.013005
62.171997 4.958413 -29.673315
62.078968 4.833029 -31.052552
62.689789 1.218378 -33.41969
62.881897 0.710032 -34.489685
62.416882 2.734452 -33.531326
62.609882 1.643077 -32.22662
62.689789 1.218378 -33.41969
62.187132 3.347857 -36.018338
62.688439 1.752229 -35.761265
62.104668 3.818905 -34.854313
62.187132 3.347857 -36.018338
61.795012 4.857009 -36.148254
59.776043 9.680398 -38.941456
60.338856 8.736315 -37.65144
59.151997 11.008966 -38.994263
59.776043 9.680398 -38.941456
59.111573 10.595254 -40.237301
57.051222 13.86093 -41.515232
57.85253 13.055651 -40.253071
57.686219 12.7291 -41.552269
56.174044 14.618695 -42.767921
56.340355 14.945246 -41.468723
57.051222 13.86093 -41.515232
55.239573 15.294148 -43.983459
56.174044 14.618695 -42.767921
3 0 91 93
3 93 92 23
3 91 92 93
3 0 94 95
3 1 96 98
3 96 26 97
3 96 97 98
3 2 29 27
3 3 33 31
3 3 35 33
3 3 37 35
3 4 40 38
3 4 42 40
3 5 45 43
3 5 47 45
3 6 50 48
3 100 99 24
3 8 101 103
3 101 51 102
3 101 102 103
3 104 52 105
3 106 105 25
3 104 105 106
3 107 53 108
3 109 108 52
3 107 108 109
3 110 55 111
3 112 111 53
3 110 111 112
3 11 113 114
3 11 115 117
3 115 56 116
3 115 116 117
3 118 57 119
3 120 58 121
3 122 59 123
3 124 123 58
3 122 123 124
3 13 62 60
3 15 63 28
3 15 125 127
3 127 126 63
3 125 126 127
3 7 64 49
3 128 65 129
3 130 129 30
3 128 129 130
3 132 131 65
3 9 133 134
3 136 135 32
3 16 66 34
3 16 67 66
3 16 68 67
3 17 69 36
3 17 70 69
3 10 71 54
3 18 72 39
3 18 73 72
3 18 74 73
3 19 75 41
3 19 76 75
3 14 77 61
3 137 78 138
3 140 139 78
3 12 141 143
3 141 79 142
3 141 142 143
3 20 80 44
3 20 81 80
3 20 82 81
3 21 83 46
3 21 84 83
3 22 144 145
3 22 146 148
3 146 85 147
3 146 147 148
3 149 86 150
3 149 150 151
3 152 87 153
3 154 88 155
3 156 155 87
3 154 155 156
3 157 89 158
3 159 158 88
3 157 158 159
3 160 90 161
3 163 162 90
3 23 24 6
3 164 24 165
3 166 165 23
3 164 165 166
3 168 167 24
3 169 25 170
3 171 170 8
3 169 170 171
3 172 25 173
3 175 174 25
3 26 176 177
3 26 178 180
3 178 11 179
3 178 179 180
3 27 28 13
3 29 28 27
3 29 15 28
3 181 30 182
3 183 182 7
3 181 182 183
3 184 30 185
3 187 186 30
3 31 32 9
3 33 32 31
3 33 188 190
3 190 189 32
3 188 189 190
3 33 191 193
3 191 34 192
3 191 192 193
3 35 34 33
3 35 16 34
3 35 36 16
3 37 36 35
3 37 17 36
3 38 39 10
3 40 39 38
3 40 18 39
3 40 41 18
3 42 41 40
3 42 19 41
3 195 194 14
3 43 44 12
3 45 44 43
3 45 20 44
3 45 46 20
3 47 46 45
3 47 21 46
3 196 22 197
3 48 49 2
3 50 49 48
3 50 7 49
3 24 50 6
3 198 50 199
3 200 199 24
3 198 199 200
3 201 7 202
3 203 202 50
3 201 202 203
3 205 204 7
3 51 206 207
3 51 208 210
3 208 9 209
3 208 209 210
3 25 51 8
3 52 51 25
3 52 9 51
3 52 31 9
3 53 31 52
3 53 3 31
3 53 54 3
3 55 54 53
3 55 10 54
3 211 55 212
3 213 55 214
3 215 10 216
3 217 216 55
3 215 216 217
3 218 38 219
3 220 219 10
3 218 219 220
3 221 38 222
3 223 4 224
3 225 224 38
3 223 224 225
3 56 226 227
3 56 228 229
3 57 230 231
3 57 232 234
3 232 12 233
3 232 233 234
3 235 57 236
3 58 237 239
3 237 57 238
3 237 238 239
3 58 12 57
3 58 43 12
3 59 43 58
3 59 5 43
3 240 8 241
3 242 8 243
3 245 244 8
3 60 61 1
3 62 61 60
3 62 14 61
3 28 62 13
3 63 62 28
3 63 14 62
3 63 246 248
3 248 247 14
3 246 247 248
3 250 249 63
3 49 29 2
3 64 29 49
3 64 15 29
3 30 64 7
3 65 64 30
3 65 15 64
3 65 251 253
3 253 252 15
3 251 252 253
3 255 254 65
3 256 1 257
3 32 258 260
3 260 259 9
3 258 259 260
3 262 261 32
3 34 263 264
3 66 265 267
3 267 266 34
3 265 266 267
3 66 268 269
3 66 270 271
3 67 272 274
3 274 273 66
3 272 273 274
3 67 275 277
3 275 1 276
3 275 276 277
3 67 60 1
3 68 60 67
3 68 13 60
3 36 68 16
3 69 68 36
3 69 13 68
3 69 27 13
3 70 27 69
3 70 2 27
3 54 37 3
3 71 37 54
3 71 17 37
3 39 71 10
3 72 71 39
3 72 17 71
3 72 70 17
3 73 70 72
3 73 2 70
3 73 48 2
3 74 48 73
3 74 6 48
3 41 74 18
3 75 74 41
3 75 6 74
3 75 23 6
3 76 23 75
3 76 0 23
3 61 26 1
3 77 26 61
3 77 11 26
3 278 77 279
3 280 279 14
3 278 279 280
3 78 281 283
3 281 77 282
3 281 282 283
3 78 11 77
3 78 56 11
3 284 56 285
3 286 285 78
3 284 285 286
3 288 287 56
3 289 4 290
3 79 291 292
3 79 293 294
3 44 79 12
3 80 79 44
3 80 295 297
3 297 296 79
3 295 296 297
3 80 298 299
3 81 300 302
3 302 301 80
3 300 301 302
3 81 303 305
3 303 4 304
3 303 304 305
3 81 42 4
3 82 42 81
3 82 19 42
3 46 82 20
3 83 82 46
3 83 19 82
3 83 76 19
3 84 76 83
3 84 0 76
3 306 59 307
3 85 308 310
3 308 59 309
3 308 309 310
3 85 5 59
3 86 311 312
3 86 313 315
3 313 22 314
3 313 314 315
3 316 86 317
3 87 318 320
3 318 86 319
3 318 319 320
3 87 22 86
3 87 85 22
3 88 85 87
3 88 5 85
3 88 47 5
3 89 47 88
3 89 21 47
3 321 89 322
3 90 323 325
3 323 89 324
3 323 324 325
3 90 21 89
3 90 84 21
3 326 84 327
3 328 327 90
3 326 327 328
3 329 0 330
3 331 330 84
3 329 330 331
3 333 332 0
