ply
format ascii 1.0
element vertex 390
property float x
property float y
property float z
element face 384
property list uchar int vertex_index
end_header
-35.858448 -26.456223 -40.717564
-47.610806 -77.6539 -24.318581
-55.633617 -62.564529 -28.156464
-48.015984 -63.967682 -30.39204
-47.339684 -49.824242 -35.877884
-45.519737 -35.388405 -40.111782
-50.679985 -81.398247 -19.075371
-47.291183 -83.672485 -21.511875
-51.128731 -75.976105 -22.274342
-51.841789 -63.070328 -29.403946
-51.869286 -56.133366 -32.957771
-47.807648 -56.89962 -33.286873
-51.591667 -49.122726 -36.217682
-38.653214 -44.428875 -35.555264
-43.75388 -86.169388 -23.794907
-44.033661 -79.662048 -26.066391
-51.555832 -69.783859 -25.767029
-47.922935 -70.975952 -27.338482
-44.161335 -72.63295 -28.443813
-43.959484 -65.409531 -30.794994
-43.489864 -58.176537 -33.026566
-42.934227 -50.916077 -35.078606
-50.928139 -41.996025 -39.061478
-46.61924 -42.645618 -38.11797
-42.367123 -43.577065 -36.940136
-41.616817 -36.332886 -38.695103
-37.357262 -30.888704 -39.111149
-50.905258 -78.792053 -20.635921
-53.821617 -55.937328 -32.621529
-53.755718 -52.453098 -34.447289
-51.771389 -52.636692 -34.635296
-53.607971 -48.942238 -36.187519
-38.723896 -48.196426 -34.68692
-45.382095 -90.354828 -20.359074
-47.439331 -80.762245 -22.881458
-45.556087 -84.900833 -22.711308
-45.696404 -81.853531 -23.96452
-43.895016 -83.001541 -24.909496
-45.852413 -78.620193 -25.272873
-55.483002 -65.796738 -26.131664
-53.405743 -69.320343 -24.95237
-53.597275 -66.115463 -26.869591
-49.942848 -63.450508 -29.94405
-49.869881 -66.919418 -28.261997
-48.006302 -67.492165 -28.873825
-46.08091 -71.749718 -27.989323
-46.096432 -68.201111 -29.353718
-44.103092 -69.028778 -29.629597
-46.029255 -64.628609 -30.694824
-47.603073 -53.368011 -34.626476
-45.677326 -57.488861 -33.242622
-45.423923 -53.921787 -34.424286
-43.213242 -54.555336 -34.077526
-45.136673 -50.339893 -35.534389
-47.599281 -35.004456 -40.838531
-48.268661 -38.645279 -39.762794
-46.130081 -39.012917 -39.133739
-44.457973 -43.094299 -37.550652
-44.03315 -39.450417 -38.483475
-42.035294 -39.918503 -37.822285
-43.509125 -35.844093 -39.39452
-37.934673 -33.886345 -38.199852
-48.832497 -85.050049 -18.878941
-47.173286 -86.368134 -20.205914
-48.994518 -82.502991 -20.282757
-49.168167 -79.741943 -21.751926
-49.359192 -76.774651 -23.296913
-53.736885 -62.792976 -28.805786
-53.813766 -59.390106 -30.732388
-51.891579 -59.615189 -31.205498
-49.943298 -59.952404 -31.593288
-47.948051 -60.432194 -31.869858
-49.869194 -56.445862 -33.184135
-49.721592 -52.935581 -34.69458
-49.499176 -49.412773 -36.108566
-46.755772 -31.398552 -41.887352
-44.755566 -31.831545 -41.078201
-45.451515 -87.737854 -21.514847
-43.641117 -89.135513 -22.727627
-51.350151 -72.964233 -23.989826
-49.555695 -73.623817 -24.911022
-51.725826 -66.472252 -27.581318
-49.734367 -70.324631 -26.574833
-47.782143 -74.378143 -25.811497
-45.991653 -75.237541 -26.621605
-44.132774 -76.191071 -27.250572
-45.884697 -61.055489 -31.995808
-43.746864 -61.791588 -31.930073
-41.285271 -58.899746 -32.620686
-41.026424 -55.204754 -33.576778
-40.798229 -51.490879 -34.50547
-51.317375 -45.579865 -37.693104
-49.194275 -45.862263 -37.41927
-50.397793 -38.368599 -40.335537
-48.791496 -42.272415 -38.631672
-47.01553 -46.252678 -37.038914
-44.818062 -46.73082 -36.573452
-42.656593 -47.253365 -36.030346
-40.600845 -47.762451 -35.405106
-40.412659 -44.040535 -36.279976
-40.191582 -40.366791 -37.140934
-39.881889 -36.803978 -38.002529
-42.844868 -32.344864 -40.305279
-41.061142 -32.897598 -39.574657
-39.426228 -33.433556 -38.876026
-38.780701 -30.352577 -39.758457
-37.928497 -27.675282 -40.618126
-36.615051 -28.327284 -39.99313
-35.302189 -28.556215 -39.578773
-54.65099 -50.643534 -35.220282
-54.717932 -52.397197 -34.283366
-54.577116 -48.888103 -36.090397
-53.681844 -50.697668 -35.317404
-54.65099 -50.643534 -35.220282
-38.766102 -50.096035 -34.247631
-37.881969 -50.281624 -33.83556
-46.227092 -89.601272 -19.650219
-45.354038 -91.554985 -19.784691
-46.199036 -90.80143 -19.075836
-56.575209 -62.443573 -27.796639
-56.617292 -60.809656 -28.843407
-55.55831 -64.180633 -27.144064
-56.499901 -64.059678 -26.784239
-56.575209 -62.443573 -27.796639
-38.127201 -35.543881 -37.750446
-37.422344 -35.679241 -37.392198
-50.558768 -82.59695 -18.325659
-51.509415 -80.874859 -18.487776
-49.756241 -83.224148 -18.977156
-49.635024 -84.422852 -18.227444
-50.558768 -82.59695 -18.325659
-54.774677 -57.599453 -31.453474
-54.766452 -59.307285 -30.455773
-47.222054 -29.445813 -42.862905
-47.778757 -31.232951 -42.292652
-46.234431 -29.648925 -42.409752
-47.222054 -29.445813 -42.862905
-37.887324 -44.560739 -35.154821
-37.868073 -46.46451 -34.711208
-38.596728 -42.585445 -35.98882
-37.887324 -44.560739 -35.154821
-42.729513 -88.348953 -23.769611
-42.673132 -89.832016 -23.235971
-43.697499 -87.652451 -23.261267
-42.796312 -86.808937 -24.227217
-42.729513 -88.348953 -23.769611
-43.008847 -81.91996 -25.840044
-42.939524 -83.589707 -25.261596
-43.964338 -81.331795 -25.487944
-43.068619 -80.206108 -26.333744
-43.008847 -81.91996 -25.840044
-43.161093 -74.919533 -28.026542
-43.146812 -76.698593 -27.429922
-44.147054 -74.41201 -27.847192
-43.146416 -73.110203 -28.534626
-43.161093 -74.919533 -28.026542
-42.984616 -67.669747 -30.217526
-43.056419 -69.47937 -29.634827
-44.031288 -67.219155 -30.212295
-42.884163 -65.833695 -30.721058
-42.984616 -67.669747 -30.217526
-42.523026 -60.379065 -32.334406
-42.651526 -62.18659 -31.78616
-43.618364 -59.984063 -32.478319
-42.387568 -58.538142 -32.823626
-41.420729 -60.740669 -32.131466
-42.523026 -60.379065 -32.334406
-51.122757 -43.787945 -38.377291
-52.156525 -43.696636 -38.526668
-51.961906 -41.904717 -39.210856
-50.047831 -36.540768 -40.936991
-51.083922 -36.440939 -41.24171
-43.32506 -30.384224 -41.178394
-43.800217 -32.088205 -40.69174
-44.280409 -30.127564 -41.564856
-40.691508 -31.302363 -40.020071
-41.530394 -30.969645 -40.401239
-39.87405 -31.570343 -39.670755
-40.243685 -33.165577 -39.225341
-40.691508 -31.302363 -40.020071
-39.551287 -30.029853 -40.111971
-39.103465 -31.893067 -39.317242
-39.87405 -31.570343 -39.670755
-38.054599 -26.080152 -41.398499
-38.647598 -27.27095 -40.984024
-37.404358 -26.612392 -40.996189
-38.054599 -26.080152 -41.398499
-36.671657 -31.047096 -38.83092
-36.950594 -32.538224 -38.330731
-36.986156 -29.607994 -39.552139
-36.300552 -29.766386 -39.27191
-36.671657 -31.047096 -38.83092
-34.933808 -29.904257 -38.833927
-34.562098 -28.478637 -39.453445
-51.662892 -79.648201 -19.313723
-51.509415 -80.874859 -18.487776
-51.775528 -78.345104 -20.093998
-50.792622 -80.09515 -19.855646
-51.662892 -79.648201 -19.313723
-51.913605 -77.014115 -20.956707
-51.775528 -78.345104 -20.093998
-52.025341 -75.606141 -21.775917
-51.016995 -77.384079 -21.455132
-51.913605 -77.014115 -20.956707
-54.750881 -54.139313 -33.370486
-54.778603 -55.873064 -32.398045
-53.788668 -54.195213 -33.534409
-54.750881 -54.139313 -33.370486
-54.717932 -52.397197 -34.283366
-37.903414 -48.348286 -34.277037
-37.881969 -50.281624 -33.83556
-38.688555 -46.312651 -35.121092
-37.868073 -46.46451 -34.711208
-37.903414 -48.348286 -34.277037
-44.45694 -92.381211 -20.515989
-45.354038 -91.554985 -19.784691
-44.476151 -91.118882 -21.027878
-44.45694 -92.381211 -20.515989
-56.420929 -65.62722 -25.737143
-56.499901 -64.059678 -26.784239
-55.378828 -67.341507 -25.131271
-56.420929 -65.62722 -25.737143
-54.444373 -67.55854 -25.542017
-54.340198 -69.103309 -24.541624
-55.378828 -67.341507 -25.131271
-51.701944 -40.088833 -39.928038
-51.961906 -41.904717 -39.210856
-47.933971 -36.824867 -40.300663
-48.983265 -36.679108 -40.65062
-48.648574 -34.858696 -41.188488
-37.2393 -34.037045 -37.875082
-37.422344 -35.679241 -37.392198
-37.645967 -32.387524 -38.655501
-36.950594 -32.538224 -38.330731
-37.2393 -34.037045 -37.875082
-48.746017 -86.220032 -18.195591
-49.635024 -84.422852 -18.227444
-47.952293 -86.948883 -18.910153
-48.746017 -86.220032 -18.195591
-48.002891 -85.709091 -19.542428
-47.122688 -87.607925 -19.573639
-47.952293 -86.948883 -18.910153
-55.676378 -60.894497 -29.167811
-56.617292 -60.809656 -28.843407
-54.728012 -61.00872 -29.492472
-54.685251 -62.678753 -28.481125
-55.676378 -60.894497 -29.167811
-53.775326 -61.091541 -29.769087
-54.728012 -61.00872 -29.492472
-54.766452 -59.307285 -30.455773
-53.817692 -57.663717 -31.676959
-54.774677 -57.599453 -31.453474
-54.778603 -55.873064 -32.398045
-48.200512 -33.035903 -41.768242
-48.648574 -34.858696 -41.188488
-47.177526 -33.201504 -41.362942
-48.200512 -33.035903 -41.768242
-47.778757 -31.232951 -42.292652
-45.234327 -29.865422 -42.005177
-45.755669 -31.615049 -41.482776
-46.234431 -29.648925 -42.409752
-44.280409 -30.127564 -41.564856
-45.234327 -29.865422 -42.005177
-35.244837 -26.241492 -40.725069
-35.716774 -25.307973 -41.295292
-35.716774 -25.307973 -41.295292
-36.369333 -26.002863 -41.045908
-46.27769 -88.361481 -20.282494
-46.227092 -89.601272 -19.650219
-47.122688 -87.607925 -19.573639
-44.51086 -89.810395 -21.605764
-44.476151 -91.118882 -21.027878
-45.416805 -89.046341 -20.93696
-43.605661 -90.509224 -22.212154
-44.51086 -89.810395 -21.605764
-44.546316 -88.436684 -22.121237
-42.62505 -91.265625 -22.793926
-43.605661 -90.509224 -22.212154
-42.62505 -91.265625 -22.793926
-42.673132 -89.832016 -23.235971
-42.866881 -85.225014 -24.784512
-42.796312 -86.808937 -24.227217
-43.824448 -84.585465 -24.352201
-42.866881 -85.225014 -24.784512
-42.939524 -83.589707 -25.261596
-52.152619 -74.173371 -22.67775
-52.025341 -75.606141 -21.775917
-53.291125 -70.845489 -24.016764
-54.340198 -69.103309 -24.541624
-52.263329 -72.667434 -23.535492
-53.291125 -70.845489 -24.016764
-52.377947 -71.142288 -24.471098
-51.239441 -74.470169 -23.132084
-52.152619 -74.173371 -22.67775
-52.263329 -72.667434 -23.535492
-43.118175 -78.470619 -26.925835
-43.068619 -80.206108 -26.333744
-44.083218 -77.926559 -26.658482
-43.118175 -78.470619 -26.925835
-43.146812 -76.698593 -27.429922
-43.117294 -71.308117 -29.127518
-43.146416 -73.110203 -28.534626
-44.132213 -70.830864 -29.036705
-43.117294 -71.308117 -29.127518
-43.056419 -69.47937 -29.634827
-42.777853 -64.024723 -31.288597
-42.884163 -65.833695 -30.721058
-43.853174 -63.60056 -31.362533
-42.777853 -64.024723 -31.288597
-42.651526 -62.18659 -31.78616
-40.326504 -61.123359 -31.87097
-41.420729 -60.740669 -32.131466
-40.209023 -59.239889 -32.320048
-40.326504 -61.123359 -31.87097
-40.079599 -57.392393 -32.798094
-40.209023 -59.239889 -32.320048
-41.155848 -57.05225 -33.098732
-39.983952 -55.499985 -33.247221
-40.079599 -57.392393 -32.798094
-39.869854 -53.643048 -33.711567
-39.983952 -55.499985 -33.247221
-40.912326 -53.347817 -34.041124
-39.803269 -51.743262 -34.156906
-39.869854 -53.643048 -33.711567
-54.463359 -47.115048 -36.983852
-54.577116 -48.888103 -36.090397
-53.485363 -47.170552 -37.007199
-54.463359 -47.115048 -36.983852
-52.477211 -47.260796 -37.02228
-52.599819 -49.032482 -36.202601
-53.485363 -47.170552 -37.007199
-52.340065 -45.489365 -37.759991
-52.156525 -43.696636 -38.526668
-51.454521 -47.351295 -36.955393
-52.477211 -47.260796 -37.02228
-52.340065 -45.489365 -37.759991
-51.436771 -38.27512 -40.565067
-51.083922 -36.440939 -41.24171
-50.662966 -40.182312 -39.698508
-51.701944 -40.088833 -39.928038
-51.436771 -38.27512 -40.565067
-49.333227 -38.506939 -40.049166
-50.047831 -36.540768 -40.936991
-48.983265 -36.679108 -40.65062
-39.704577 -49.879047 -34.606724
-39.803269 -51.743262 -34.156906
-40.699537 -49.626665 -34.955288
-39.662371 -47.979439 -35.046013
-38.766102 -50.096035 -34.247631
-39.704577 -49.879047 -34.606724
-39.365911 -40.554403 -36.781655
-38.596728 -42.585445 -35.98882
-39.422398 -42.397833 -36.348099
-39.211065 -38.772997 -37.212452
-39.365911 -40.554403 -36.781655
-40.036735 -38.585385 -37.571731
-39.100809 -37.002697 -37.651785
-39.211065 -38.772997 -37.212452
-42.422257 -30.693278 -40.76655
-43.32506 -30.384224 -41.178394
-41.953005 -32.621231 -39.939968
-42.422257 -30.693278 -40.76655
-41.530394 -30.969645 -40.401239
-38.872979 -35.317486 -38.088533
-39.100809 -37.002697 -37.651785
-39.654059 -35.118767 -38.439278
-38.68045 -33.659951 -38.537939
-38.127201 -35.543881 -37.750446
-38.872979 -35.317486 -38.088533
-39.0737 -28.609598 -40.554189
-39.551287 -30.029853 -40.111971
-38.354599 -29.013929 -40.188291
-39.0737 -28.609598 -40.554189
-38.647598 -27.27095 -40.984024
-36.747635 -26.938394 -40.683691
-37.271774 -28.001283 -40.305628
-37.404358 -26.612392 -40.996189
-36.369333 -26.002863 -41.045908
-36.23675 -27.391754 -40.355347
-36.747635 -26.938394 -40.683691
-35.644121 -29.880851 -39.064732
-34.933808 -29.904257 -38.833927
-35.95862 -28.44175 -39.785951
-35.644121 -29.880851 -39.064732
-36.300552 -29.766386 -39.27191
-34.966707 -27.291488 -40.155673
-34.562098 -28.478637 -39.453445
-35.580319 -27.506219 -40.148168
-35.244837 -26.241492 -40.725069
-34.966707 -27.291488 -40.155673
3 109 29 110
3 111 31 112
3 113 112 29
3 111 112 113
3 114 32 115
3 116 33 117
3 116 117 118
3 1 36 34
3 1 38 36
3 2 119 120
3 2 121 123
3 121 39 122
3 121 122 123
3 2 41 39
3 3 44 42
3 3 46 44
3 3 48 46
3 4 51 49
3 4 53 51
3 5 56 54
3 5 58 56
3 5 60 58
3 124 61 125
3 6 126 127
3 6 128 130
3 128 62 129
3 128 129 130
3 6 64 62
3 8 65 27
3 8 66 65
3 131 68 132
3 10 69 28
3 10 70 69
3 10 72 70
3 12 73 30
3 12 74 73
3 133 75 134
3 136 135 75
3 13 137 138
3 13 139 140
3 7 77 63
3 14 78 35
3 14 141 143
3 143 142 78
3 141 142 143
3 14 144 145
3 15 146 148
3 148 147 37
3 146 147 148
3 15 149 150
3 16 79 40
3 16 80 79
3 9 81 67
3 17 82 43
3 17 83 82
3 17 84 83
3 18 85 45
3 18 151 153
3 153 152 85
3 151 152 153
3 18 154 155
3 19 156 158
3 158 157 47
3 156 157 158
3 19 159 160
3 11 86 71
3 20 87 50
3 20 161 163
3 163 162 87
3 161 162 163
3 20 164 166
3 164 88 165
3 164 165 166
3 21 89 52
3 21 90 89
3 22 167 169
3 167 91 168
3 167 168 169
3 22 92 91
3 170 93 171
3 23 94 55
3 23 95 94
3 23 96 95
3 24 97 57
3 24 98 97
3 24 99 98
3 25 100 59
3 25 101 100
3 172 102 173
3 174 173 76
3 172 173 174
3 175 103 176
3 177 104 178
3 179 178 103
3 177 178 179
3 180 105 181
3 182 181 104
3 180 181 182
3 183 106 184
3 186 185 106
3 26 187 188
3 26 189 191
3 189 107 190
3 189 190 191
3 192 108 193
3 194 6 195
3 196 27 197
3 198 197 6
3 196 197 198
3 199 27 200
3 201 8 202
3 203 202 27
3 201 202 203
3 204 28 205
3 29 206 208
3 206 28 207
3 206 207 208
3 29 10 28
3 29 30 10
3 31 30 29
3 31 12 30
3 32 209 210
3 32 211 213
3 211 13 212
3 211 212 213
3 33 214 215
3 33 216 217
3 34 35 7
3 36 35 34
3 36 14 35
3 36 37 14
3 38 37 36
3 38 15 37
3 39 218 219
3 39 220 221
3 39 222 224
3 222 40 223
3 222 223 224
3 41 40 39
3 41 16 40
3 42 43 9
3 44 43 42
3 44 17 43
3 44 45 17
3 46 45 44
3 46 18 45
3 46 47 18
3 48 47 46
3 48 19 47
3 49 50 11
3 51 50 49
3 51 20 50
3 51 52 20
3 53 52 51
3 53 21 52
3 225 22 226
3 54 227 229
3 227 55 228
3 227 228 229
3 56 55 54
3 56 23 55
3 56 57 23
3 58 57 56
3 58 24 57
3 58 59 24
3 60 59 58
3 60 25 59
3 61 230 231
3 61 232 234
3 232 26 233
3 232 233 234
3 62 235 236
3 62 237 238
3 62 239 241
3 239 63 240
3 239 240 241
3 64 63 62
3 64 7 63
3 27 64 6
3 65 64 27
3 65 7 64
3 65 34 7
3 66 34 65
3 66 1 34
3 242 2 243
3 244 67 245
3 246 245 2
3 244 245 246
3 68 247 249
3 247 67 248
3 247 248 249
3 68 9 67
3 28 250 252
3 250 68 251
3 250 251 252
3 69 68 28
3 69 9 68
3 69 42 9
3 70 42 69
3 70 3 42
3 70 71 3
3 72 71 70
3 72 11 71
3 30 72 10
3 73 72 30
3 73 11 72
3 73 49 11
3 74 49 73
3 74 4 49
3 253 54 254
3 75 255 257
3 255 54 256
3 255 256 257
3 75 5 54
3 75 76 5
3 258 76 259
3 260 259 75
3 258 259 260
3 262 261 76
3 263 0 264
3 265 0 266
3 63 267 269
3 267 33 268
3 267 268 269
3 77 33 63
3 77 270 272
3 272 271 33
3 270 271 272
3 35 77 7
3 78 77 35
3 78 273 275
3 275 274 77
3 273 274 275
3 78 276 277
3 279 278 78
3 37 280 282
3 282 281 14
3 280 281 282
3 284 283 37
3 285 8 286
3 40 287 288
3 79 289 291
3 291 290 40
3 289 290 291
3 79 292 294
3 292 8 293
3 292 293 294
3 79 66 8
3 80 66 79
3 80 1 66
3 67 41 2
3 81 41 67
3 81 16 41
3 43 81 9
3 82 81 43
3 82 16 81
3 82 80 16
3 83 80 82
3 83 1 80
3 83 38 1
3 84 38 83
3 84 15 38
3 45 84 17
3 85 84 45
3 85 15 84
3 85 295 297
3 297 296 15
3 295 296 297
3 299 298 85
3 47 300 302
3 302 301 18
3 300 301 302
3 304 303 47
3 71 48 3
3 86 48 71
3 86 19 48
3 50 86 11
3 87 86 50
3 87 19 86
3 87 305 307
3 307 306 19
3 305 306 307
3 309 308 87
3 88 310 311
3 88 312 313
3 52 88 20
3 89 88 52
3 89 314 316
3 316 315 88
3 314 315 316
3 89 317 318
3 90 319 321
3 321 320 89
3 319 320 321
3 90 322 323
3 324 31 325
3 326 31 327
3 328 12 329
3 330 329 31
3 328 329 330
3 91 331 332
3 91 333 335
3 333 12 334
3 333 334 335
3 91 74 12
3 92 74 91
3 92 4 74
3 93 336 337
3 93 338 340
3 338 22 339
3 338 339 340
3 55 341 343
3 341 93 342
3 341 342 343
3 94 93 55
3 94 22 93
3 94 92 22
3 95 92 94
3 95 4 92
3 95 53 4
3 96 53 95
3 96 21 53
3 57 96 23
3 97 96 57
3 97 21 96
3 97 90 21
3 98 90 97
3 98 344 346
3 346 345 90
3 344 345 346
3 98 347 349
3 347 32 348
3 347 348 349
3 99 32 98
3 99 13 32
3 59 99 24
3 100 99 59
3 100 13 99
3 100 350 352
3 352 351 13
3 350 351 352
3 101 353 355
3 355 354 100
3 353 354 355
3 101 356 357
3 76 60 5
3 102 60 76
3 102 25 60
3 358 102 359
3 103 360 362
3 360 102 361
3 360 361 362
3 103 25 102
3 103 101 25
3 104 101 103
3 104 363 365
3 365 364 101
3 363 364 365
3 104 366 368
3 366 61 367
3 366 367 368
3 105 61 104
3 105 26 61
3 369 105 370
3 106 371 373
3 371 105 372
3 371 372 373
3 106 26 105
3 106 107 26
3 374 107 375
3 376 375 106
3 374 375 376
3 377 0 378
3 379 378 107
3 377 378 379
3 380 108 381
3 107 382 384
3 382 108 383
3 382 383 384
3 107 0 108
3 108 385 386
3 108 387 389
3 387 0 388
3 387 388 389
