ply
format ascii 1.0
element vertex 344
property float x
property float y
property float z
element face 361
property list uchar int vertex_index
end_header
-44.161617 38.495037 28.215233
-45.80938 15.642223 38.344353
-41.862019 23.703121 54.241764
-42.506912 26.667946 33.507336
-46.036957 14.600281 48.68655
-42.705303 26.018341 43.736404
-43.106026 38.031288 37.622181
-44.400543 32.815506 26.724035
-45.777702 38.280895 24.014053
-44.041252 21.385822 31.13028
-43.366798 20.822346 35.900383
-47.896828 8.063898 54.773369
-45.760605 13.489559 53.44054
-41.171829 30.036549 51.420448
-42.642513 25.308468 49.149857
-42.222 31.452305 46.164562
-42.60865 32.113388 40.830444
-42.265541 37.358135 42.732079
-39.359985 27.488758 56.078575
-43.528549 27.045326 28.988926
-43.011902 32.709377 31.015831
-45.876213 15.14904 43.508587
-43.822662 19.23801 51.584927
-43.828434 20.087105 46.356758
-43.487549 20.452229 41.017708
-42.456795 26.347042 38.4487
-42.655754 32.466141 35.731232
-43.512383 38.399227 32.750313
-43.630066 43.60321 34.104023
-44.165745 35.657261 27.510906
-45.087879 35.600082 25.443626
-44.81879 38.425407 26.078169
-45.963043 15.970592 35.839409
-44.569653 18.420578 34.637428
-44.403778 18.129902 37.11277
-46.256516 9.786663 56.026409
-46.862953 10.745808 54.166664
-45.301441 12.596678 55.483734
-40.935223 33.116386 49.713032
-41.788723 30.869267 48.830517
-41.659027 33.896961 47.130516
-42.209023 34.449898 44.496407
-41.585991 36.826221 45.313145
-43.009186 23.913776 32.329765
-43.571995 24.166885 30.055792
-42.861206 26.854801 31.195305
-43.070202 29.833397 30.036579
-42.625893 29.697117 32.286942
-45.977646 14.911831 46.117935
-42.367783 20.53738 55.305893
-43.537987 18.470337 53.986019
-42.865032 21.53083 52.975338
-42.742851 25.744274 46.449287
-43.196487 22.716137 47.784409
-43.122982 23.009895 45.081306
-43.667656 20.294842 43.674423
-42.966537 23.197048 42.388062
-42.796932 23.343662 39.74498
-42.586319 26.199898 41.058758
-42.817841 35.110741 39.264626
-42.640793 32.308594 38.239441
-42.945824 35.316662 36.731476
-43.047287 35.474899 34.280357
-43.328819 38.246578 35.148106
-43.705513 41.083115 33.48296
-43.399887 40.861446 35.902725
-46.333771 35.486412 23.44202
-44.961792 18.768959 32.240192
-43.573528 21.081505 33.470032
-42.737278 23.687149 34.703903
-47.226898 11.486841 52.045952
-45.986427 14.145626 51.151413
-41.471504 26.884628 52.940727
-42.360378 24.644348 51.77364
-42.010986 27.77179 50.386341
-42.352024 28.392323 47.720692
-42.51955 28.802265 45.013863
-42.549988 29.068642 42.320366
-42.485737 31.845783 43.482742
-42.588127 34.835632 41.861771
-42.767029 37.744431 40.157635
-42.961201 40.560135 38.376575
-42.343304 40.165226 40.885994
-40.715263 25.700062 55.303108
-40.36414 28.912941 53.862164
-44.255737 41.272995 28.846119
-43.839703 29.949165 27.892181
-43.543011 32.783993 28.819757
-43.56126 35.65274 29.667118
-45.799194 15.376507 40.906685
-44.366276 15.489174 54.814537
-44.716835 16.31707 52.583256
-44.84705 16.898727 50.139301
-43.127323 22.24398 50.440216
-43.900974 19.758377 49.01556
-44.815273 17.280567 47.561008
-44.686279 17.528641 44.919975
-44.528351 17.714497 42.273582
-44.411263 17.900677 39.662632
-43.362015 20.616367 38.419674
-42.692841 23.49844 37.178299
-42.400375 26.497818 35.927216
-42.496456 29.254459 39.679001
-42.431122 29.407047 37.115845
-42.44239 29.552551 34.648178
-42.746162 32.600296 33.320358
-43.218269 35.589191 31.923361
-43.755405 38.484909 30.438101
-43.95715 41.223343 31.128738
-43.997681 43.827271 31.728033
-43.111984 43.286037 36.522301
-45.886212 15.806407 37.091881
-46.815933 14.854321 36.452495
-46.739102 14.690136 37.704967
-44.933344 12.028889 56.355196
-45.778978 11.191671 55.755071
-45.410882 10.623881 56.626534
-41.197457 34.99452 47.493778
-41.297125 33.506673 48.421774
-40.835555 34.604232 48.785036
-41.160939 36.45915 46.585093
-41.622509 35.361591 46.22183
-41.197457 34.99452 47.493778
-41.068748 37.886318 45.60158
-41.160939 36.45915 46.585093
-46.744168 13.516109 47.968393
-46.719398 13.316618 49.202585
-46.007301 14.756056 47.402242
-46.714512 13.671883 46.684086
-46.744168 13.516109 47.968393
-45.000263 32.808296 25.715608
-44.67963 31.424988 26.279837
-46.406696 38.177703 23.007345
-46.684731 36.780462 22.721328
-46.055736 36.883654 23.728037
-45.634045 17.565614 32.819101
-45.916294 17.784435 31.628351
-48.166562 8.47909 53.794145
-48.67754 7.198802 54.111227
-39.544136 25.855269 56.73526
-38.941189 25.006573 57.695366
-38.757038 26.640062 57.038681
-40.037624 26.59441 55.690842
-40.221775 24.960921 56.347527
-39.544136 25.855269 56.73526
-44.443291 42.61495 27.987243
-44.276252 42.610794 29.123997
-44.424051 21.550856 30.001753
-44.82835 20.271009 30.522825
-43.99496 25.736704 28.430094
-44.016683 24.297483 28.963527
-43.550272 25.606105 29.522359
-44.034424 27.134779 27.93145
-43.99496 25.736704 28.430094
-43.684126 28.497245 28.440554
-44.19 28.586699 27.383077
-44.034424 27.134779 27.93145
-46.656898 14.093765 42.822241
-46.659082 13.94757 44.106718
-45.837704 15.262773 42.207636
-46.618389 14.207498 41.52129
-46.656898 14.093765 42.822241
-43.683409 16.458002 55.475483
-44.057167 14.943514 55.787546
-43.683391 44.936944 33.161794
-43.867199 45.048975 31.973799
-43.813873 43.715241 32.916028
-42.753922 43.080444 37.745476
-43.036592 41.923086 37.449438
-42.67853 41.717493 38.672613
-46.978666 15.074657 35.218129
-46.815933 14.854321 36.452495
-46.13467 16.166431 34.61871
-46.978666 15.074657 35.218129
-45.266348 17.195585 35.238419
-45.437975 17.391424 34.017719
-46.13467 16.166431 34.61871
-41.560339 38.234884 44.358168
-41.900114 38.500841 43.067635
-41.925766 37.092178 44.022612
-41.560339 38.234884 44.358168
-41.068748 37.886318 45.60158
-38.566494 28.274422 56.290997
-38.757038 26.640062 57.038681
-39.174324 29.095648 55.272731
-38.566494 28.274422 56.290997
-46.709799 13.828965 45.411392
-46.714512 13.671883 46.684086
-45.926929 15.030435 44.813261
-46.659082 13.94757 44.106718
-46.709799 13.828965 45.411392
-42.952885 19.503858 54.645956
-43.269265 17.948583 55.061224
-42.684162 18.982105 55.721161
-45.343931 34.200584 25.075403
-45.000263 32.808296 25.715608
-44.744211 34.207794 26.08383
-45.966877 34.143749 24.0746
-45.343931 34.200584 25.075403
-45.710825 35.543247 24.442823
-46.717491 34.115057 23.088361
-45.966877 34.143749 24.0746
-47.09205 35.406346 22.457522
-46.717491 34.115057 23.088361
-47.44301 36.700395 21.73683
-47.09205 35.406346 22.457522
-46.684731 36.780462 22.721328
-45.28862 18.962578 31.077782
-46.243122 17.978054 30.465941
-45.916294 17.784435 31.628351
-44.501522 20.07739 31.685236
-44.82835 20.271009 30.522825
-45.28862 18.962578 31.077782
-44.765723 18.594769 33.43881
-45.634045 17.565614 32.819101
-45.437975 17.391424 34.017719
-47.649624 9.820044 53.490793
-48.166562 8.47909 53.794145
-47.379891 9.404853 54.470016
-47.831597 10.190561 52.430437
-47.649624 9.820044 53.490793
-47.044925 11.116325 53.106308
-48.001412 10.516258 51.340771
-47.831597 10.190561 52.430437
-47.314369 11.759898 50.882286
-48.001412 10.516258 51.340771
-46.694133 13.089291 50.435017
-47.314369 11.759898 50.882286
-46.606662 12.816233 51.598682
-46.011692 14.372954 49.918982
-46.719398 13.316618 49.202585
-46.694133 13.089291 50.435017
-42.369582 41.520038 39.927323
-42.67853 41.717493 38.672613
-42.652253 40.36268 39.631284
-41.938996 39.904387 42.144593
-42.304423 38.76168 41.809036
-41.900114 38.500841 43.067635
-41.907648 41.258186 41.152921
-41.938996 39.904387 42.144593
-42.369582 41.520038 39.927323
-41.907648 41.258186 41.152921
-46.652948 14.500883 38.963074
-46.739102 14.690136 37.704967
-41.985606 19.897011 56.327341
-42.684162 18.982105 55.721161
-41.744156 21.501593 55.88739
-41.985606 19.897011 56.327341
-41.491274 23.084463 55.355326
-42.114901 22.12025 54.773829
-41.744156 21.501593 55.88739
-40.917896 24.082933 55.885998
-40.221775 24.960921 56.347527
-41.288641 24.701591 54.772436
-41.491274 23.084463 55.355326
-40.917896 24.082933 55.885998
-39.676401 29.80774 54.164526
-39.862063 28.20085 54.97037
-39.174324 29.095648 55.272731
-40.203688 30.486042 53.021774
-39.676401 29.80774 54.164526
-40.607533 31.047846 51.800916
-40.767984 29.474745 52.641306
-40.203688 30.486042 53.021774
-40.48923 32.587764 50.947209
-41.053526 31.576467 50.56674
-40.607533 31.047846 51.800916
-40.334639 34.109405 50.011467
-40.48923 32.587764 50.947209
-40.835555 34.604232 48.785036
-40.334639 34.109405 50.011467
-48.306871 6.741547 55.022389
-48.67754 7.198802 54.111227
-47.505253 7.553918 55.625879
-48.306871 6.741547 55.022389
-46.685097 8.415301 56.252399
-47.076672 8.92528 55.399889
-47.505253 7.553918 55.625879
-45.814617 9.200443 56.811024
-46.685097 8.415301 56.252399
-44.968983 10.037662 57.411148
-45.410882 10.623881 56.626534
-45.814617 9.200443 56.811024
-44.480715 41.249073 27.741039
-44.433655 39.860094 27.425596
-44.208677 39.884016 28.530676
-44.480715 41.249073 27.741039
-44.443291 42.61495 27.987243
-44.189422 22.941387 29.464509
-44.424051 21.550856 30.001753
-43.806624 22.776353 30.593036
-44.189422 22.941387 29.464509
-44.016683 24.297483 28.963527
-44.39921 29.991817 26.863911
-44.19 28.586699 27.383077
-44.120123 31.382335 27.308108
-44.67963 31.424988 26.279837
-44.39921 29.991817 26.863911
-46.647855 14.368025 40.24424
-46.618389 14.207498 41.52129
-45.804287 15.509365 39.625519
-46.652948 14.500883 38.963074
-46.647855 14.368025 40.24424
-44.524749 13.497266 56.122144
-44.933344 12.028889 56.355196
-44.833858 14.042926 55.149135
-44.524749 13.497266 56.122144
-44.057167 14.943514 55.787546
-43.952132 16.979755 54.400278
-43.683409 16.458002 55.475483
-43.269265 17.948583 55.061224
-44.126959 42.585968 30.265307
-44.276252 42.610794 29.123997
-44.106443 41.248169 29.987429
-44.147225 43.887932 30.564954
-44.126959 42.585968 30.265307
-43.977415 42.525307 31.428385
-44.069199 45.159849 30.799788
-44.147225 43.887932 30.564954
-44.069199 45.159849 30.799788
-43.867199 45.048975 31.973799
-42.746292 44.39479 36.753391
-42.753922 43.080444 37.745476
-43.139494 44.611874 35.557972
-42.746292 44.39479 36.753391
-42.773802 45.720627 35.789062
-43.398535 44.77046 34.348833
-43.371025 43.444623 35.313162
-43.139494 44.611874 35.557972
-43.683391 44.936944 33.161794
-43.398535 44.77046 34.348833
-44.762241 39.825279 26.357063
-44.490203 38.460222 27.146701
-44.433655 39.860094 27.425596
-45.105822 39.7537 25.285545
-44.762241 39.825279 26.357063
-45.585278 39.681444 24.253487
-45.298246 38.353151 25.046111
-45.105822 39.7537 25.285545
-46.070386 39.568641 23.209424
-45.585278 39.681444 24.253487
-45.877962 40.96919 23.448859
-46.406696 38.177703 23.007345
-46.070386 39.568641 23.209424
3 0 31 29
3 1 111 113
3 111 32 112
3 111 112 113
3 1 34 32
3 114 37 115
3 116 115 35
3 114 115 116
3 117 40 118
3 119 118 38
3 117 118 119
3 120 42 121
3 122 121 40
3 120 121 122
3 124 123 42
3 3 45 43
3 3 47 45
3 4 125 126
3 4 127 129
3 127 48 128
3 127 128 129
3 2 51 49
3 5 54 52
3 5 56 54
3 5 58 56
3 6 61 59
3 6 63 61
3 6 65 63
3 7 130 131
3 8 66 30
3 8 132 134
3 134 133 66
3 132 133 134
3 135 67 136
3 10 68 33
3 10 69 68
3 11 137 138
3 12 70 36
3 12 71 70
3 13 74 72
3 15 75 39
3 15 76 75
3 15 78 76
3 17 79 41
3 17 80 79
3 17 82 80
3 18 139 141
3 139 140 141
3 18 142 144
3 142 83 143
3 142 143 144
3 18 84 83
3 146 145 85
3 9 147 148
3 19 149 151
3 151 150 44
3 149 150 151
3 19 152 153
3 19 154 156
3 154 86 155
3 154 155 156
3 20 87 46
3 20 88 87
3 21 157 158
3 21 159 161
3 159 89 160
3 159 160 161
3 162 90 163
3 22 91 50
3 22 92 91
3 14 93 73
3 23 94 53
3 23 95 94
3 23 96 95
3 24 97 55
3 24 98 97
3 24 99 98
3 25 100 57
3 25 101 100
3 16 102 77
3 26 103 60
3 26 104 103
3 26 105 104
3 27 106 62
3 27 107 106
3 27 108 107
3 28 109 64
3 28 164 166
3 166 165 109
3 164 165 166
3 167 110 168
3 169 168 81
3 167 168 169
3 29 30 7
3 31 30 29
3 31 8 30
3 32 170 171
3 32 172 173
3 32 174 176
3 174 33 175
3 174 175 176
3 34 33 32
3 34 10 33
3 35 36 11
3 37 36 35
3 37 12 36
3 38 39 13
3 40 39 38
3 40 15 39
3 40 41 15
3 42 41 40
3 42 17 41
3 42 177 179
3 179 178 17
3 177 178 179
3 181 180 42
3 182 18 183
3 185 184 18
3 43 44 9
3 45 44 43
3 45 19 44
3 45 46 19
3 47 46 45
3 47 20 46
3 48 186 187
3 48 188 190
3 188 21 189
3 188 189 190
3 49 191 193
3 191 50 192
3 191 192 193
3 51 50 49
3 51 22 50
3 52 53 14
3 54 53 52
3 54 23 53
3 54 55 23
3 56 55 54
3 56 24 55
3 56 57 24
3 58 57 56
3 58 25 57
3 59 60 16
3 61 60 59
3 61 26 60
3 61 62 26
3 63 62 61
3 63 27 62
3 63 64 27
3 65 64 63
3 65 28 64
3 30 194 196
3 196 195 7
3 194 195 196
3 66 197 199
3 199 198 30
3 197 198 199
3 66 200 201
3 66 202 203
3 206 205 66
3 204 205 206
3 67 207 209
3 207 208 209
3 67 210 212
3 210 9 211
3 210 211 212
3 33 213 215
3 213 67 214
3 213 214 215
3 68 67 33
3 68 9 67
3 68 43 9
3 69 43 68
3 69 3 43
3 36 216 218
3 218 217 11
3 216 217 218
3 70 219 221
3 221 220 36
3 219 220 221
3 70 222 223
3 70 224 225
3 71 226 228
3 228 227 70
3 226 227 228
3 71 229 231
3 229 4 230
3 229 230 231
3 72 73 2
3 74 73 72
3 74 14 73
3 39 74 13
3 75 74 39
3 75 14 74
3 75 52 14
3 76 52 75
3 76 5 52
3 76 77 5
3 78 77 76
3 78 16 77
3 41 78 15
3 79 78 41
3 79 16 78
3 79 59 16
3 80 59 79
3 80 6 59
3 80 81 6
3 82 81 80
3 82 232 234
3 234 233 81
3 232 233 234
3 235 82 236
3 237 236 17
3 235 236 237
3 238 82 239
3 241 240 82
3 242 1 243
3 244 49 245
3 246 49 247
3 248 2 249
3 250 249 49
3 248 249 250
3 83 251 252
3 83 253 255
3 253 2 254
3 253 254 255
3 83 72 2
3 84 72 83
3 84 13 72
3 256 84 257
3 258 257 18
3 256 257 258
3 259 84 260
3 261 13 262
3 263 262 84
3 261 262 263
3 264 38 265
3 266 265 13
3 264 265 266
3 267 38 268
3 270 269 38
3 271 11 272
3 273 11 274
3 275 35 276
3 277 276 11
3 275 276 277
3 278 35 279
3 282 281 35
3 280 281 282
3 85 283 285
3 285 284 0
3 283 284 285
3 287 286 85
3 44 288 290
3 290 289 9
3 288 289 290
3 292 291 44
3 86 293 294
3 86 295 297
3 295 7 296
3 295 296 297
3 46 86 19
3 87 86 46
3 87 7 86
3 87 29 7
3 88 29 87
3 88 0 29
3 89 298 299
3 89 300 302
3 300 1 301
3 300 301 302
3 303 37 304
3 90 305 307
3 305 37 306
3 305 306 307
3 90 12 37
3 50 308 310
3 308 90 309
3 308 309 310
3 91 90 50
3 91 12 90
3 91 71 12
3 92 71 91
3 92 4 71
3 73 51 2
3 93 51 73
3 93 22 51
3 53 93 14
3 94 93 53
3 94 22 93
3 94 92 22
3 95 92 94
3 95 4 92
3 95 48 4
3 96 48 95
3 96 21 48
3 55 96 23
3 97 96 55
3 97 21 96
3 97 89 21
3 98 89 97
3 98 1 89
3 98 34 1
3 99 34 98
3 99 10 34
3 57 99 24
3 100 99 57
3 100 10 99
3 100 69 10
3 101 69 100
3 101 3 69
3 77 58 5
3 102 58 77
3 102 25 58
3 60 102 16
3 103 102 60
3 103 25 102
3 103 101 25
3 104 101 103
3 104 3 101
3 104 47 3
3 105 47 104
3 105 20 47
3 62 105 26
3 106 105 62
3 106 20 105
3 106 88 20
3 107 88 106
3 107 0 88
3 107 85 0
3 108 85 107
3 108 311 313
3 313 312 85
3 311 312 313
3 64 108 27
3 109 108 64
3 109 314 316
3 316 315 108
3 314 315 316
3 109 317 318
3 320 319 109
3 81 65 6
3 110 65 81
3 110 28 65
3 321 110 322
3 323 110 324
3 323 324 325
3 326 28 327
3 328 327 110
3 326 327 328
3 330 329 28
3 331 31 332
3 333 332 0
3 331 332 333
3 334 31 335
3 336 8 337
3 338 337 31
3 336 337 338
3 339 8 340
3 339 340 341
3 343 342 8
