ply
format ascii 1.0
element vertex 354
property float x
property float y
property float z
element face 385
property list uchar int vertex_index
end_header
21.809494 -25.920544 77.703697
37.243225 -24.777103 66.05764
23.415022 -18.025434 81.029602
31.128767 -18.358324 75.43779
41.89978 -8.213974 63.732353
40.808754 -16.210903 59.916786
36.762657 -17.477049 68.136894
29.922634 -25.976713 71.371696
21.515581 -29.518311 76.319527
39.562233 -8.820432 67.47496
39.41766 -12.805782 66.150124
37.278233 -13.432888 70.097816
26.728201 -22.292784 76.623283
30.400969 -22.241596 73.209053
25.944431 -26.069271 74.425255
26.060244 -29.505713 73.664604
39.034752 -20.555462 62.888962
41.92025 -19.441851 59.774475
40.813141 -23.475561 63.753265
22.75729 -22.006939 79.863609
34.461487 -14.10248 73.448997
30.963402 -14.61558 76.239906
27.405277 -18.440571 78.485245
43.9795 -7.865468 59.383141
43.104195 -11.910221 57.156342
41.201832 -12.307315 61.738861
38.783382 -16.880148 64.042519
36.391045 -21.40415 66.242027
34.282776 -17.989424 71.975052
33.607895 -21.950439 69.720276
33.667934 -25.593773 68.581589
30.592945 -29.277893 71.428734
21.528648 -27.773939 76.813354
19.380592 -27.648119 78.444908
38.484566 -11.119818 68.86132
37.176491 -11.497757 70.551659
24.287825 -24.139515 77.124985
26.278667 -24.207764 75.442513
23.887537 -26.028301 76.041389
23.690083 -27.835394 75.257385
38.17387 -22.696136 64.443199
39.744129 -22.115053 63.067017
39.017708 -24.181576 64.883698
23.174473 -20.010746 80.663063
25.406601 -16.406157 79.921532
27.396011 -16.558195 78.78112
25.421875 -18.310133 79.831558
25.182476 -20.24958 79.244728
42.95034 -8.011724 61.618835
42.539665 -10.067677 60.556412
41.610519 -10.254151 62.819717
38.134552 -15.145956 67.207214
39.071404 -14.859805 65.088989
37.804855 -17.18796 66.109741
37.61174 -19.166479 65.146973
36.474201 -19.486027 67.05883
32.944874 -16.265442 74.570473
34.510033 -16.015888 72.918915
32.79023 -18.198721 73.756584
30.057627 -24.148506 72.119736
32.066177 -22.124741 71.469337
31.815758 -24.027348 70.497749
33.485046 -23.83465 68.911827
31.823824 -25.830147 69.942795
32.162319 -27.50206 69.925568
30.091436 -27.692707 71.126503
26.592993 -31.044586 74.058426
43.150291 -5.978024 62.459854
44.334953 -5.806241 60.419533
41.865334 -14.050834 58.503204
42.98933 -13.782253 56.365807
41.974495 -15.850835 57.927589
23.428865 -16.074463 80.892273
40.784019 -8.483144 65.691444
40.660179 -10.489514 64.979088
39.634266 -10.779253 67.00058
38.418888 -13.105713 68.194633
37.08989 -15.439809 69.230728
29.036715 -20.368149 76.095001
30.810778 -20.297579 74.40139
28.615795 -22.30048 74.930168
28.208483 -24.208113 73.770531
27.960827 -26.052505 72.866814
27.984627 -27.799648 72.412979
25.847191 -27.843636 73.789429
23.783106 -29.533615 74.936302
39.888279 -18.384914 61.381393
41.142555 -17.932272 59.578133
40.426285 -20.024649 61.296227
41.376003 -21.453135 61.748253
22.260727 -23.987247 78.800255
35.693768 -11.89001 72.075516
32.784863 -14.393986 74.907928
31.212713 -16.457958 76.096573
29.34803 -16.565315 77.501038
29.32176 -18.447315 77.01593
27.149038 -20.359837 77.714188
24.765026 -22.202255 78.274956
36.202892 -26.771032 67.747589
38.185856 -26.19779 66.743217
45.027756 -7.756781 57.065796
44.535442 -9.784113 55.891113
43.50008 -9.917106 58.2313
42.110104 -12.101385 59.446732
40.872406 -14.31551 60.697418
40.325024 -12.539835 63.987076
39.961788 -14.583557 62.90654
39.763172 -16.554255 61.966667
38.729599 -18.798546 63.245987
37.706028 -21.018171 64.542137
36.632248 -23.178368 65.878204
35.962883 -13.772625 71.848923
35.890503 -15.734175 71.138321
35.601364 -17.745731 70.098167
32.444679 -20.165968 72.641846
33.925884 -19.98457 70.823875
35.260345 -19.758011 68.957817
35.039471 -21.712959 67.973221
35.081257 -23.555988 67.369568
35.467754 -25.247389 67.287697
34.197739 -27.202244 68.802971
32.829716 -29.030914 70.44104
28.333731 -29.426964 72.498772
28.99301 -30.928173 73.084961
42.533081 -17.450302 57.858131
36.932892 -10.573008 70.525311
37.689711 -10.356793 69.813423
22.28804 -18.819899 81.483017
22.167765 -19.812555 81.299747
23.294747 -19.01809 80.846332
42.525036 -7.095999 63.096103
42.526497 -6.100007 63.394936
41.901241 -7.217982 64.031185
22.466237 -15.796599 81.27372
23.325507 -15.130121 80.592705
23.325507 -15.130121 80.592705
24.271327 -15.315202 80.203514
20.493075 -30.323842 76.971428
21.666922 -30.32688 76.317593
21.666922 -30.32688 76.317593
22.800685 -30.334532 75.62598
22.649344 -29.525963 75.627915
40.062 -7.682257 66.743476
39.332737 -7.879696 67.487873
40.173126 -8.651788 66.583202
40.672894 -7.513613 65.851719
40.062 -7.682257 66.743476
41.729222 -23.082298 63.201504
42.010652 -22.071085 62.198998
41.094572 -22.464348 62.750759
21.490322 -22.868169 80.15173
21.242041 -23.858323 79.620053
22.509009 -22.997093 79.331932
31.874133 -14.504783 75.573917
32.514533 -13.492283 74.80212
31.603802 -13.60308 75.468109
36.707295 -27.454452 68.192932
35.620306 -27.714324 68.632972
30.98845 -30.005195 71.809922
32.106836 -29.881706 71.316074
31.71133 -29.154404 70.934887
28.19149 -31.698019 73.967823
27.793002 -30.986379 73.571694
26.991481 -31.756225 74.454555
28.636528 -32.391936 74.429966
29.438049 -31.62209 73.547104
28.19149 -31.698019 73.967823
44.733923 -6.778317 58.810608
44.911649 -5.748704 59.328804
44.157227 -6.835854 59.901337
44.503628 -7.811125 58.224469
45.258051 -6.723974 57.651936
44.733923 -6.778317 58.810608
43.664165 -11.814509 56.035019
44.379789 -10.751455 55.402405
43.819818 -10.847167 56.523727
43.631822 -13.641708 55.344597
43.14324 -14.628453 56.198151
39.17051 -25.843578 66.255802
38.766295 -26.83284 67.258083
20.400742 -28.614748 77.312939
20.394209 -29.486934 77.066025
21.522115 -28.646125 76.56644
19.326715 -28.551838 78.128715
20.400742 -28.614748 77.312939
20.45462 -27.711029 77.629131
18.225654 -28.490051 78.923084
18.171777 -29.393769 78.606891
19.326715 -28.551838 78.128715
38.343748 -10.167824 68.968254
39.023399 -9.970125 68.16814
38.882582 -9.01813 68.275074
37.830528 -11.308788 69.70649
38.343748 -10.167824 68.968254
37.689711 -10.356793 69.813423
38.882582 -9.01813 68.275074
39.332737 -7.879696 67.487873
21.955269 -20.846124 81.010151
21.746678 -21.84422 80.610424
22.965882 -21.008843 80.263336
21.955269 -20.846124 81.010151
22.167765 -19.812555 81.299747
30.652786 -13.722711 76.041123
31.603802 -13.60308 75.468109
26.401306 -16.482176 79.351326
27.234178 -15.642004 78.667687
26.239472 -15.565985 79.237893
25.395009 -31.076468 74.594387
26.326619 -30.275149 73.861515
25.128635 -30.307032 74.397476
25.745783 -31.803759 74.911053
25.395009 -31.076468 74.594387
26.991481 -31.756225 74.454555
25.745783 -31.803759 74.911053
43.075562 -4.981246 62.720932
42.526497 -6.100007 63.394936
43.772897 -4.873 61.83366
43.075562 -4.981246 62.720932
43.742622 -5.892132 61.439694
44.365229 -4.787109 60.813499
43.772897 -4.873 61.83366
42.635823 -15.662744 56.979042
43.14324 -14.628453 56.198151
42.481912 -14.816544 57.146698
42.729992 -19.135039 59.05209
42.505736 -20.090243 60.127857
22.4267 -16.813457 81.469349
22.419779 -17.788943 81.538014
23.421943 -17.049948 80.960938
22.4267 -16.813457 81.469349
22.466237 -15.796599 81.27372
25.260195 -15.481049 79.718143
26.239472 -15.565985 79.237893
24.417733 -16.24031 80.406903
25.260195 -15.481049 79.718143
24.271327 -15.315202 80.203514
20.493075 -30.323842 76.971428
20.394209 -29.486934 77.066025
23.990066 -30.320983 75.033325
25.128635 -30.307032 74.397476
24.921675 -29.519664 74.300453
23.990066 -30.320983 75.033325
22.800685 -30.334532 75.62598
41.343361 -7.352567 65.01073
40.672894 -7.513613 65.851719
41.341899 -8.348559 64.711899
41.901241 -7.217982 64.031185
41.343361 -7.352567 65.01073
42.233612 -21.095886 61.114746
42.505736 -20.090243 60.127857
41.648127 -20.447493 60.761364
42.233612 -21.095886 61.114746
42.010652 -22.071085 62.198998
20.996207 -24.858154 79.095345
20.770591 -25.824803 78.547066
22.035111 -24.953896 78.251976
20.996207 -24.858154 79.095345
21.242041 -23.858323 79.620053
21.490322 -22.868169 80.15173
21.746678 -21.84422 80.610424
22.28804 -18.819899 81.483017
22.419779 -17.788943 81.538014
35.358246 -10.988329 71.921741
36.19153 -10.769134 71.287239
34.867619 -12.077981 72.762218
35.358246 -10.988329 71.921741
34.251478 -13.184216 73.448959
35.077627 -12.996245 72.762257
34.867619 -12.077981 72.762218
33.413167 -13.329969 74.178425
32.514533 -13.492283 74.80212
33.623175 -14.248233 74.178462
34.251478 -13.184216 73.448959
33.413167 -13.329969 74.178425
30.002444 -14.675745 76.847839
30.652786 -13.722711 76.041123
28.218749 -15.647052 78.118446
27.234178 -15.642004 78.667687
29.194758 -15.650612 77.478405
28.218749 -15.647052 78.118446
28.372021 -16.561755 78.141079
30.155716 -15.590447 76.870472
30.002444 -14.675745 76.847839
29.194758 -15.650612 77.478405
37.698777 -27.167831 67.690746
37.194374 -26.484411 67.245403
36.707295 -27.454452 68.192932
38.766295 -26.83284 67.258083
37.698777 -27.167831 67.690746
19.55614 -26.68859 78.917671
20.595043 -26.784332 78.074303
20.770591 -25.824803 78.547066
18.32221 -27.543988 79.285461
19.55614 -26.68859 78.917671
18.225654 -28.490051 78.923084
18.32221 -27.543988 79.285461
44.781599 -8.770447 56.478454
45.331648 -8.723422 55.301708
45.577804 -7.709756 55.889049
36.43513 -11.693884 71.313587
36.932892 -10.573008 70.525311
36.19153 -10.769134 71.287239
34.617729 -27.92993 69.160663
35.620306 -27.714324 68.632972
35.200316 -26.986638 68.27528
33.933718 -28.844265 69.979698
34.617729 -27.92993 69.160663
33.513728 -28.116579 69.622006
33.290819 -29.72849 70.897697
33.933718 -28.844265 69.979698
33.290819 -29.72849 70.897697
32.106836 -29.881706 71.316074
30.188482 -30.830336 72.638035
30.98845 -30.005195 71.809922
29.792977 -30.103033 72.256848
30.188482 -30.830336 72.638035
29.438049 -31.62209 73.547104
45.028164 -4.715127 59.833088
44.365229 -4.787109 60.813499
45.028164 -4.715127 59.833088
44.911649 -5.748704 59.328804
45.833563 -6.683689 56.509426
45.258051 -6.723974 57.651936
45.577804 -7.709756 55.889049
45.833563 -6.683689 56.509426
45.105951 -9.71606 54.737114
45.331648 -8.723422 55.301708
45.105951 -9.71606 54.737114
44.379789 -10.751455 55.402405
43.606733 -12.750525 55.639752
43.664165 -11.814509 56.035019
43.046762 -12.846237 56.761074
43.606733 -12.750525 55.639752
43.631822 -13.641708 55.344597
42.915115 -16.462477 56.944313
42.635823 -15.662744 56.979042
42.253788 -16.650568 57.89286
43.036408 -18.139264 58.093918
42.226666 -18.446077 58.816303
42.729992 -19.135039 59.05209
43.306696 -17.200097 57.048057
43.036408 -18.139264 58.093918
42.915115 -16.462477 56.944313
43.306696 -17.200097 57.048057
39.586436 -24.835472 65.326042
38.601782 -25.189683 65.813457
39.17051 -25.843578 66.255802
40.484152 -24.482464 64.760826
39.915425 -23.828568 64.318481
39.586436 -24.835472 65.326042
41.465006 -24.073625 64.275299
40.484152 -24.482464 64.760826
41.729222 -23.082298 63.201504
41.465006 -24.073625 64.275299
3 0 33 32
3 125 35 126
3 0 38 36
3 0 32 38
3 1 42 40
3 2 127 129
3 129 128 43
3 127 128 129
3 2 46 44
3 2 43 46
3 4 50 48
3 6 53 51
3 6 55 53
3 3 58 56
3 7 61 59
3 7 63 61
3 7 65 63
3 4 130 132
3 130 67 131
3 130 131 132
3 4 48 67
3 5 71 69
3 134 133 72
3 135 72 136
3 8 137 138
3 9 75 73
3 11 76 34
3 11 77 76
3 12 80 78
3 14 81 37
3 14 82 81
3 14 84 82
3 8 85 39
3 8 139 141
3 141 140 85
3 139 140 141
3 9 142 143
3 9 144 146
3 144 73 145
3 144 145 146
3 16 88 86
3 18 89 41
3 18 147 149
3 149 148 89
3 147 148 149
3 19 150 152
3 152 151 90
3 150 151 152
3 21 153 155
3 153 92 154
3 153 154 155
3 21 93 92
3 22 94 45
3 22 95 94
3 22 96 95
3 19 97 47
3 19 90 97
3 157 156 98
3 23 102 100
3 25 103 49
3 25 104 103
3 10 105 74
3 26 106 52
3 26 107 106
3 26 108 107
3 27 109 54
3 27 110 109
3 20 111 91
3 28 112 57
3 28 113 112
3 13 114 79
3 29 115 60
3 29 116 115
3 29 117 116
3 30 118 62
3 30 119 118
3 30 120 119
3 31 121 64
3 31 158 160
3 160 159 121
3 158 159 160
3 15 122 83
3 161 123 162
3 163 162 66
3 161 162 163
3 166 165 123
3 164 165 166
3 23 167 169
3 169 168 68
3 167 168 169
3 23 170 172
3 170 100 171
3 170 171 172
3 24 173 175
3 175 174 101
3 173 174 175
3 177 176 70
3 17 124 87
3 179 178 99
3 32 180 182
3 182 181 8
3 180 181 182
3 33 183 185
3 185 184 32
3 183 184 185
3 33 186 188
3 186 187 188
3 189 34 190
3 191 190 9
3 189 190 191
3 35 192 194
3 192 34 193
3 192 193 194
3 35 11 34
3 36 37 12
3 38 37 36
3 38 14 37
3 38 39 14
3 32 39 38
3 32 8 39
3 195 9 196
3 40 41 16
3 42 41 40
3 42 18 41
3 43 197 199
3 199 198 19
3 197 198 199
3 201 200 43
3 202 21 203
3 44 204 206
3 204 45 205
3 204 205 206
3 46 45 44
3 46 22 45
3 46 47 22
3 43 47 46
3 43 19 47
3 48 49 23
3 50 49 48
3 50 25 49
3 51 52 10
3 53 52 51
3 53 26 52
3 53 54 26
3 55 54 53
3 55 27 54
3 56 57 20
3 58 57 56
3 58 28 57
3 59 60 13
3 61 60 59
3 61 29 60
3 61 62 29
3 63 62 61
3 63 30 62
3 63 64 30
3 65 64 63
3 65 31 64
3 207 66 208
3 209 208 15
3 207 208 209
3 210 66 211
3 213 212 66
3 67 214 215
3 67 216 217
3 67 218 220
3 218 68 219
3 218 219 220
3 48 68 67
3 48 23 68
3 69 70 24
3 71 70 69
3 71 221 223
3 223 222 70
3 221 222 223
3 225 224 17
3 72 226 228
3 228 227 2
3 226 227 228
3 230 229 72
3 231 44 232
3 72 233 235
3 233 44 234
3 233 234 235
3 72 2 44
3 237 236 8
3 73 74 4
3 75 74 73
3 75 10 74
3 34 75 9
3 76 75 34
3 76 10 75
3 76 51 10
3 77 51 76
3 77 6 51
3 78 79 3
3 80 79 78
3 80 13 79
3 37 80 12
3 81 80 37
3 81 13 80
3 81 59 13
3 82 59 81
3 82 7 59
3 82 83 7
3 84 83 82
3 84 15 83
3 39 84 14
3 85 84 39
3 85 15 84
3 85 238 240
3 240 239 15
3 238 239 240
3 242 241 85
3 73 243 244
3 73 245 247
3 245 4 246
3 245 246 247
3 86 87 5
3 88 87 86
3 88 17 87
3 41 88 16
3 89 88 41
3 89 17 88
3 89 248 250
3 250 249 17
3 248 249 250
3 252 251 89
3 90 253 255
3 255 254 0
3 253 254 255
3 257 256 90
3 259 258 19
3 261 260 2
3 262 91 263
3 264 91 265
3 266 20 267
3 268 267 91
3 266 267 268
3 92 269 270
3 92 271 273
3 271 20 272
3 271 272 273
3 92 56 20
3 93 56 92
3 93 3 56
3 274 21 275
3 45 276 277
3 94 278 280
3 280 279 45
3 278 279 280
3 94 281 283
3 281 21 282
3 281 282 283
3 94 93 21
3 95 93 94
3 95 3 93
3 95 78 3
3 96 78 95
3 96 12 78
3 47 96 22
3 97 96 47
3 97 12 96
3 97 36 12
3 90 36 97
3 90 0 36
3 98 99 1
3 284 99 285
3 286 285 98
3 284 285 286
3 288 287 99
3 289 33 290
3 291 290 0
3 289 290 291
3 292 33 293
3 295 294 33
3 100 296 298
3 296 101 297
3 296 297 298
3 102 101 100
3 102 24 101
3 49 102 23
3 103 102 49
3 103 24 102
3 103 69 24
3 104 69 103
3 104 5 69
3 74 50 4
3 105 50 74
3 105 25 50
3 52 105 10
3 106 105 52
3 106 25 105
3 106 104 25
3 107 104 106
3 107 5 104
3 107 86 5
3 108 86 107
3 108 16 86
3 54 108 26
3 109 108 54
3 109 16 108
3 109 40 16
3 110 40 109
3 110 1 40
3 91 299 301
3 299 35 300
3 299 300 301
3 111 35 91
3 111 11 35
3 57 111 20
3 112 111 57
3 112 11 111
3 112 77 11
3 113 77 112
3 113 6 77
3 79 58 3
3 114 58 79
3 114 28 58
3 60 114 13
3 115 114 60
3 115 28 114
3 115 113 28
3 116 113 115
3 116 6 113
3 116 55 6
3 117 55 116
3 117 27 55
3 62 117 29
3 118 117 62
3 118 27 117
3 118 110 27
3 119 110 118
3 119 1 110
3 119 98 1
3 120 98 119
3 120 302 304
3 304 303 98
3 302 303 304
3 64 120 30
3 121 120 64
3 121 305 307
3 307 306 120
3 305 306 307
3 121 308 309
3 311 310 121
3 83 65 7
3 122 65 83
3 122 31 65
3 66 122 15
3 123 122 66
3 123 31 122
3 123 312 314
3 314 313 31
3 312 313 314
3 316 315 123
3 68 317 318
3 320 319 68
3 100 321 322
3 100 323 324
3 101 325 326
3 328 327 101
3 70 329 331
3 331 330 24
3 329 330 331
3 333 332 70
3 87 71 5
3 124 71 87
3 124 334 336
3 336 335 71
3 334 335 336
3 337 124 338
3 339 338 17
3 337 338 339
3 340 124 341
3 343 342 124
3 99 42 1
3 344 42 345
3 346 345 99
3 344 345 346
3 347 18 348
3 349 348 42
3 347 348 349
3 350 18 351
3 353 352 18
