ply
format ascii 1.0
element vertex 375
property float x
property float y
property float z
element face 393
property list uchar int vertex_index
end_header
-53.792686 -11.287699 15.010088
-68.726311 -11.503052 20.770771
-62.029716 -1.389009 10.231513
-62.802437 -12.202734 16.165993
-45.862839 -9.120279 14.775846
-68.606339 -19.486288 27.058084
-63.502735 -21.475868 21.530968
-53.909531 -22.587883 19.383282
-65.293808 -2.339649 11.953531
-48.986599 -16.887413 17.301851
-49.540466 -10.337247 14.990467
-68.76236 -15.500669 24.053062
-66.857452 -20.576128 23.861088
-66.674316 -16.40229 21.074217
-58.372246 -11.924245 15.267212
-58.523827 -17.262682 17.92462
-53.622528 -17.228992 17.501143
-48.988472 -22.778271 18.896568
-58.359055 -6.083911 12.274504
-54.210594 -4.827149 12.036657
-68.365776 -7.252494 17.496637
-66.445442 -12.060966 17.984703
-66.006485 -7.362661 14.842075
-62.473637 -6.963796 13.134804
-50.343765 -3.293401 12.142227
-63.093502 -16.999769 19.028763
-58.969925 -22.137611 20.113964
-68.705017 -18.442923 30.858631
-69.190056 -14.524161 27.726099
-69.365601 -10.727224 24.316719
-69.18174 -6.793775 20.96237
-51.372574 -14.049681 16.282726
-49.211594 -13.688124 16.230675
-51.605305 -10.849409 14.997976
-68.776779 -13.518085 22.433805
-67.924553 -15.980477 22.457798
-67.878937 -13.929412 20.884939
-56.065823 -11.647437 15.082013
-56.0326 -14.534483 16.431515
-53.662239 -14.331648 16.329041
-51.240669 -17.099483 17.406172
-60.340855 -3.666369 11.102764
-58.359276 -3.021875 10.743332
-68.034729 -4.992995 15.970619
-67.363861 -7.366459 16.053308
-67.022949 -4.999526 14.54336
-63.749104 -1.940351 10.989799
-64.074471 -4.608408 12.384774
-62.268822 -4.201121 11.64301
-60.450691 -6.577827 12.611353
-45.401287 -12.737223 15.873783
-44.272659 -8.434407 14.475373
-52.23214 -4.089087 12.066418
-65.361847 -21.05654 22.578382
-64.762894 -12.187399 16.951012
-64.911255 -14.509212 18.469666
-62.94421 -14.652413 17.633455
-56.211231 -19.895672 18.737713
-58.700787 -19.749729 19.079908
-56.462341 -22.389429 19.686672
-46.758492 -22.735498 18.578247
-67.2789 -22.17202 35.648624
-67.791489 -20.094149 34.311054
-68.36245 -20.476494 32.293846
-68.223778 -18.050871 32.882969
-68.830765 -14.129259 29.719084
-69.001892 -12.243855 28.010431
-69.319496 -12.624096 26.040024
-69.086304 -10.375987 26.267891
-46.741974 -19.754559 17.946259
-46.905571 -16.588326 17.122948
-47.213524 -13.248772 16.112568
-47.621632 -9.75788 14.933223
-68.700577 -17.48287 25.597168
-67.945175 -20.044811 25.364159
-67.940651 -18.011194 23.953163
-66.761169 -18.49754 22.511606
-65.188507 -18.918985 21.299736
-60.644211 -12.112099 15.614731
-60.752769 -14.699574 17.036108
-58.421165 -14.658127 16.649574
-56.073837 -17.282043 17.653139
-53.698589 -19.978252 18.518147
-51.393539 -22.722956 19.142328
-51.240028 -19.989975 18.358379
-48.90266 -19.91922 18.190369
-56.150475 -8.627757 13.624558
-53.985493 -8.110862 13.566067
-56.263077 -5.496055 12.093897
-56.379005 -2.285418 10.544205
-68.593826 -9.422146 19.109388
-67.782486 -11.827152 19.264568
-67.615372 -9.644744 17.639429
-66.259583 -9.762598 16.400116
-64.580383 -9.761114 15.40633
-65.683014 -4.875308 13.347456
-64.351997 -7.228418 13.871767
-62.649502 -9.638544 14.655504
-60.548088 -9.401694 14.129467
-58.35746 -9.061172 13.798316
-51.903954 -7.518958 13.577546
-49.931648 -6.860828 13.611311
-48.082619 -6.146276 13.618513
-46.364075 -5.385579 13.5516
-66.576843 -14.266304 19.555786
-65.045273 -16.744562 19.927841
-63.272858 -19.266531 20.330025
-60.892063 -17.170307 18.369444
-61.08326 -19.541496 19.597631
-61.345543 -21.834452 20.716331
-68.613861 -20.965225 30.328539
-68.848999 -18.937189 28.903744
-68.571259 -16.06085 31.35117
-68.983116 -16.458435 29.337765
-69.040298 -16.949507 27.406084
-69.179054 -14.999201 25.823296
-69.254211 -13.067106 24.166479
-69.253479 -11.121075 22.469164
-69.32222 -8.79514 22.606802
-69.164436 -9.124437 20.779158
-68.975578 -7.047996 19.146105
-68.677689 -4.882169 17.609459
-61.117536 -1.047595 9.946982
-60.273106 -2.186275 10.382608
-61.185285 -2.527689 10.667139
-67.311653 -3.835547 14.549962
-67.528839 -4.99626 15.256989
-67.817543 -3.832281 15.263591
-44.826214 -10.641335 15.122617
-44.595438 -12.449807 15.671585
-45.632063 -10.928751 15.324814
-45.067749 -8.777343 14.625609
-44.031124 -10.298399 14.97238
-44.826214 -10.641335 15.122617
-68.277615 -20.789053 26.884453
-68.547921 -20.502057 27.75562
-63.648977 -22.560784 22.090153
-64.578533 -22.35112 22.61386
-64.432291 -21.266204 22.054675
-62.596552 -22.771963 21.636475
-63.648977 -22.560784 22.090153
-54.087521 -23.83005 19.748313
-55.363926 -23.730823 19.900008
-55.185936 -22.488656 19.534977
-52.811628 -23.948056 19.578792
-54.087521 -23.83005 19.748313
-45.842598 -24.101256 18.536933
-45.757587 -22.65762 18.35152
-67.627933 -18.94836 34.627761
-67.377983 -19.973708 35.331541
-67.844078 -17.926721 33.913719
-68.007633 -19.07251 33.597012
-67.627933 -18.94836 34.627761
-68.728867 -11.183545 28.145373
-68.673866 -12.112358 29.024068
-68.771073 -10.249611 27.274103
-69.044098 -11.309921 27.139161
-68.728867 -11.183545 28.145373
-57.358306 -1.100441 9.907979
-57.369141 -2.653646 10.643769
-58.348442 -1.46867 10.007542
-56.425659 -0.661715 9.797424
-57.358306 -1.100441 9.907979
-65.488411 -3.607479 12.650493
-66.139725 -3.72733 13.243726
-65.945122 -2.459501 12.546764
-46.612133 -3.47896 12.900785
-47.458123 -3.918406 12.885289
-45.572435 -4.986724 13.459724
-46.612133 -3.47896 12.900785
-66.916072 -21.613888 24.502128
-67.459934 -21.34823 25.253664
-67.401314 -20.310469 24.612623
-59.1558 -23.291354 20.578384
-60.343609 -23.139775 20.879567
-60.157734 -21.986031 20.415147
-49.12475 -24.123478 19.165493
-50.327284 -24.095821 19.288373
-50.191006 -22.750614 19.019448
-67.39114 -23.39682 35.324926
-67.61996 -22.357914 34.656763
-68.360786 -14.963447 31.557895
-68.215065 -15.932382 32.381129
-69.25198 -7.794458 21.784586
-69.159424 -7.667791 22.75307
-69.089184 -6.667109 21.930854
-68.623573 -3.711848 17.81152
-68.806092 -4.794114 18.516893
-68.47136 -3.763869 16.900465
-68.623573 -3.711848 17.81152
-59.282317 -1.864029 10.202891
-59.350065 -3.344122 10.923048
-60.273106 -2.186275 10.382608
-58.348442 -1.46867 10.007542
-59.282317 -1.864029 10.202891
-44.392996 -14.236231 16.09518
-44.207697 -15.968812 16.563536
-45.215988 -14.469804 16.342139
-44.392996 -14.236231 16.09518
-44.595438 -12.449807 15.671585
-43.330047 -9.984362 14.671425
-44.031124 -10.298399 14.97238
-43.564867 -8.071691 14.237468
-43.330047 -9.984362 14.671425
-53.334789 -2.781026 11.274587
-53.221367 -4.458118 12.051538
-54.324016 -3.150057 11.259707
-52.393698 -2.343927 11.298535
-53.334789 -2.781026 11.274587
-51.449511 -1.946083 11.33644
-51.287953 -3.691244 12.104323
-52.393698 -2.343927 11.298535
-65.469605 -22.114936 23.180791
-66.217407 -21.87473 23.822143
-66.109649 -20.816334 23.219735
-65.469605 -22.114936 23.180791
-64.578533 -22.35112 22.61386
-56.649608 -23.585034 20.101529
-57.903401 -23.459125 20.315175
-57.716133 -22.26352 19.900318
-56.649608 -23.585034 20.101529
-55.363926 -23.730823 19.900008
-46.868426 -24.132357 18.803305
-47.983415 -24.153744 18.962465
-47.873482 -22.756884 18.737407
-46.868426 -24.132357 18.803305
-45.842598 -24.101256 18.536933
-67.121689 -21.012643 36.000326
-66.819786 -22.053596 36.643777
-67.535194 -21.133085 34.979839
-67.121689 -21.012643 36.000326
-67.377983 -19.973708 35.331541
-67.876255 -21.318979 33.987978
-67.61996 -22.357914 34.656763
-67.535194 -21.133085 34.979839
-68.076969 -20.285322 33.30245
-68.161735 -21.510151 32.979374
-67.876255 -21.318979 33.987978
-68.588302 -13.05506 29.878394
-68.490539 -13.997652 30.741852
-68.916328 -13.186557 28.864757
-68.588302 -13.05506 29.878394
-68.673866 -12.112358 29.024068
-68.996548 -5.653327 21.166351
-69.089184 -6.667109 21.930854
-69.058117 -5.749917 20.193348
-68.996548 -5.653327 21.166351
-61.887422 0.018603 9.599814
-62.702284 -0.332276 9.988787
-65.69429 -1.254436 11.914234
-65.945122 -2.459501 12.546764
-65.070144 -1.077317 11.33059
-65.69429 -1.254436 11.914234
-64.297792 -0.877668 10.848724
-64.521456 -2.14 11.471665
-65.070144 -1.077317 11.33059
-63.561977 -0.607947 10.36793
-64.297792 -0.877668 10.848724
-62.702284 -0.332276 9.988787
-62.88941 -1.66468 10.610656
-63.561977 -0.607947 10.36793
-45.771732 -19.621813 17.75517
-45.749329 -21.16715 18.035525
-45.853531 -18.038697 17.343515
-45.771732 -19.621813 17.75517
-46.823773 -18.171442 17.534604
-45.96813 -16.395356 16.966721
-45.853531 -18.038697 17.343515
-46.122107 -14.725579 16.461531
-45.96813 -16.395356 16.966721
-47.059548 -14.918549 16.617758
-46.307406 -12.992998 15.993175
-45.215988 -14.469804 16.342139
-46.122107 -14.725579 16.461531
-45.749329 -21.16715 18.035525
-45.757587 -22.65762 18.35152
-46.750233 -21.245029 18.262253
-55.408222 -1.879192 10.513481
-54.324016 -3.150057 11.259707
-55.294799 -3.556284 11.290431
-55.408222 -1.879192 10.513481
-56.425659 -0.661715 9.797424
-61.117536 -1.047595 9.946982
-61.887422 0.018603 9.599814
-66.809692 -3.78944 13.841679
-67.311653 -3.835547 14.549962
-66.352981 -4.937417 13.945408
-66.809692 -3.78944 13.841679
-66.139725 -3.72733 13.243726
-50.542221 -1.484506 11.396916
-51.449511 -1.946083 11.33644
-49.447967 -2.872317 12.180603
-50.542221 -1.484506 11.396916
-48.317394 -4.298755 12.918746
-49.213192 -4.719838 12.88037
-49.447967 -2.872317 12.180603
-47.223347 -5.765928 13.585057
-48.317394 -4.298755 12.918746
-47.458123 -3.918406 12.885289
-44.526727 -6.511138 13.92161
-45.318367 -6.909993 14.013486
-45.572435 -4.986724 13.459724
-43.564867 -8.071691 14.237468
-44.526727 -6.511138 13.92161
-67.947033 -21.068314 26.037491
-68.277615 -20.789053 26.884453
-68.275757 -19.765549 26.211122
-67.947033 -21.068314 26.037491
-67.459934 -21.34823 25.253664
-66.916072 -21.613888 24.502128
-66.217407 -21.87473 23.822143
-61.517956 -22.951255 21.229157
-62.596552 -22.771963 21.636475
-62.424139 -21.65516 21.123649
-61.517956 -22.951255 21.229157
-60.343609 -23.139775 20.879567
-59.1558 -23.291354 20.578384
-57.903401 -23.459125 20.315175
-51.553632 -24.015593 19.458315
-52.811628 -23.948056 19.578792
-52.651535 -22.65542 19.262805
-51.553632 -24.015593 19.458315
-50.327284 -24.095821 19.288373
-49.12475 -24.123478 19.165493
-47.983415 -24.153744 18.962465
-66.984348 -23.215652 36.283775
-66.819786 -22.053596 36.643777
-66.984348 -23.215652 36.283775
-67.39114 -23.39682 35.324926
-68.351166 -21.749399 32.001944
-68.161735 -21.510151 32.979374
-68.476872 -21.993765 31.01929
-68.351166 -21.749399 32.001944
-68.488156 -20.720859 31.311193
-68.483666 -22.267883 30.073786
-68.476872 -21.993765 31.01929
-68.551682 -21.241526 29.390847
-68.483666 -22.267883 30.073786
-68.669251 -20.227508 28.67845
-68.551682 -21.241526 29.390847
-68.73143 -19.951207 29.616141
-68.727669 -19.211738 27.980914
-68.547921 -20.502057 27.75562
-68.669251 -20.227508 28.67845
-68.041325 -16.927393 33.147028
-67.844078 -17.926721 33.913719
-68.397518 -17.055861 32.117069
-68.041325 -16.927393 33.147028
-68.215065 -15.932382 32.381129
-68.701012 -15.095054 30.535127
-68.360786 -14.963447 31.557895
-68.490539 -13.997652 30.741852
-68.788132 -9.316228 26.410005
-68.771073 -10.249611 27.274103
-69.085831 -9.431596 25.406921
-68.788132 -9.316228 26.410005
-69.22548 -9.607214 24.431335
-69.225953 -10.551606 25.292305
-69.085831 -9.431596 25.406921
-69.203789 -8.641172 23.576377
-69.159424 -7.667791 22.75307
-69.34391 -9.761182 23.46176
-69.22548 -9.607214 24.431335
-69.203789 -8.641172 23.576377
-68.955036 -5.877028 19.285215
-69.078659 -6.920886 20.054237
-69.058117 -5.749917 20.193348
-68.826633 -5.965083 18.377782
-68.955036 -5.877028 19.285215
-68.806092 -4.794114 18.516893
-68.149879 -3.819282 16.081045
-68.356209 -4.937582 16.790039
-68.47136 -3.763869 16.900465
-67.817543 -3.832281 15.263591
-68.149879 -3.819282 16.081045
3 0 33 31
3 1 36 34
3 0 39 37
3 0 31 39
3 2 122 124
3 124 123 41
3 122 123 124
3 125 45 126
3 127 126 43
3 125 126 127
3 2 48 46
3 2 41 48
3 4 128 130
3 130 129 50
3 128 129 130
3 4 131 133
3 131 51 132
3 131 132 133
3 5 134 135
3 6 136 138
3 138 137 53
3 136 137 138
3 6 139 140
3 3 56 54
3 7 59 57
3 7 141 143
3 143 142 59
3 141 142 143
3 7 144 145
3 147 146 60
3 148 62 149
3 150 64 151
3 152 151 62
3 150 151 152
3 153 66 154
3 155 68 156
3 157 156 66
3 155 156 157
3 9 70 69
3 10 71 32
3 10 72 71
3 11 75 73
3 13 76 35
3 13 77 76
3 14 80 78
3 16 81 38
3 16 82 81
3 16 84 82
3 9 85 40
3 9 69 85
3 18 88 86
3 158 89 159
3 160 159 42
3 158 159 160
3 162 161 89
3 20 92 90
3 22 93 44
3 22 94 93
3 8 163 165
3 163 95 164
3 163 164 165
3 23 96 47
3 23 97 96
3 23 98 97
3 18 99 49
3 18 86 99
3 19 100 87
3 24 101 52
3 24 102 101
3 166 103 167
3 169 168 103
3 12 170 172
3 172 171 74
3 170 171 172
3 21 104 91
3 25 105 55
3 25 106 105
3 15 107 79
3 26 108 58
3 26 109 108
3 26 173 175
3 175 174 109
3 173 174 175
3 17 176 178
3 178 177 83
3 176 177 178
3 180 179 61
3 27 110 63
3 27 111 110
3 181 112 182
3 28 113 65
3 28 114 113
3 28 115 114
3 29 116 67
3 29 117 116
3 30 183 185
3 183 118 184
3 183 184 185
3 30 119 118
3 30 120 119
3 186 121 187
3 189 188 121
3 31 32 9
3 33 32 31
3 33 10 32
3 34 35 11
3 36 35 34
3 36 13 35
3 37 38 14
3 39 38 37
3 39 16 38
3 39 40 16
3 31 40 39
3 31 9 40
3 41 42 18
3 190 42 191
3 192 191 41
3 190 191 192
3 194 193 42
3 43 44 20
3 45 44 43
3 45 22 44
3 46 47 8
3 48 47 46
3 48 23 47
3 48 49 23
3 41 49 48
3 41 18 49
3 50 195 197
3 195 196 197
3 199 198 50
3 51 200 201
3 51 202 203
3 204 52 205
3 206 205 19
3 204 205 206
3 207 52 208
3 209 24 210
3 211 210 52
3 209 210 211
3 53 212 214
3 214 213 12
3 212 213 214
3 216 215 53
3 54 55 21
3 56 55 54
3 56 25 55
3 57 58 15
3 59 58 57
3 59 26 58
3 59 217 219
3 219 218 26
3 217 218 219
3 221 220 59
3 60 222 224
3 224 223 17
3 222 223 224
3 226 225 60
3 227 61 228
3 62 229 231
3 229 61 230
3 229 230 231
3 62 232 234
3 234 233 61
3 232 233 234
3 62 235 237
3 235 63 236
3 235 236 237
3 64 63 62
3 64 27 63
3 238 65 239
3 66 240 242
3 240 65 241
3 240 241 242
3 66 28 65
3 66 67 28
3 68 67 66
3 68 29 67
3 243 30 244
3 246 245 30
3 248 247 2
3 249 8 250
3 251 8 252
3 253 46 254
3 255 254 8
3 253 254 255
3 256 46 257
3 258 2 259
3 260 259 46
3 258 259 260
3 69 261 262
3 70 263 265
3 265 264 69
3 263 264 265
3 70 266 267
3 32 70 9
3 71 70 32
3 71 268 270
3 270 269 70
3 268 269 270
3 71 271 273
3 271 50 272
3 271 272 273
3 72 50 71
3 72 4 50
3 73 74 5
3 75 74 73
3 75 12 74
3 35 75 11
3 76 75 35
3 76 12 75
3 76 53 12
3 77 53 76
3 77 6 53
3 78 79 3
3 80 79 78
3 80 15 79
3 38 80 14
3 81 80 38
3 81 15 80
3 81 57 15
3 82 57 81
3 82 7 57
3 82 83 7
3 84 83 82
3 84 17 83
3 40 84 16
3 85 84 40
3 85 17 84
3 85 60 17
3 69 60 85
3 69 274 276
3 276 275 60
3 274 275 276
3 86 87 0
3 88 87 86
3 88 19 87
3 42 88 18
3 89 88 42
3 89 19 88
3 89 277 279
3 279 278 19
3 277 278 279
3 281 280 89
3 283 282 2
3 90 91 1
3 92 91 90
3 92 21 91
3 44 92 20
3 93 92 44
3 93 21 92
3 93 54 21
3 94 54 93
3 94 3 54
3 284 45 285
3 95 286 288
3 286 45 287
3 286 287 288
3 95 22 45
3 47 95 8
3 96 95 47
3 96 22 95
3 96 94 22
3 97 94 96
3 97 3 94
3 97 78 3
3 98 78 97
3 98 14 78
3 49 98 23
3 99 98 49
3 99 14 98
3 99 37 14
3 86 37 99
3 86 0 37
3 87 33 0
3 100 33 87
3 100 10 33
3 52 100 19
3 101 100 52
3 101 10 100
3 101 72 10
3 102 72 101
3 102 4 72
3 289 24 290
3 291 24 292
3 293 102 294
3 295 294 24
3 293 294 295
3 103 296 298
3 296 102 297
3 296 297 298
3 103 4 102
3 103 51 4
3 299 51 300
3 301 300 103
3 299 300 301
3 303 302 51
3 74 304 306
3 306 305 5
3 304 305 306
3 308 307 74
3 310 309 12
3 91 36 1
3 104 36 91
3 104 13 36
3 55 104 21
3 105 104 55
3 105 13 104
3 105 77 13
3 106 77 105
3 106 6 77
3 79 56 3
3 107 56 79
3 107 25 56
3 58 107 15
3 108 107 58
3 108 25 107
3 108 106 25
3 109 106 108
3 109 6 106
3 109 311 313
3 313 312 6
3 311 312 313
3 315 314 109
3 317 316 26
3 83 318 320
3 320 319 7
3 318 319 320
3 322 321 83
3 324 323 17
3 61 325 326
3 328 327 61
3 63 329 330
3 110 331 333
3 333 332 63
3 331 332 333
3 110 334 335
3 110 336 337
3 111 338 340
3 340 339 110
3 338 339 340
3 111 341 343
3 341 5 342
3 341 342 343
3 344 64 345
3 112 346 348
3 346 64 347
3 346 347 348
3 112 27 64
3 65 349 351
3 349 112 350
3 349 350 351
3 113 112 65
3 113 27 112
3 113 111 27
3 114 111 113
3 114 5 111
3 114 73 5
3 115 73 114
3 115 11 73
3 67 115 28
3 116 115 67
3 116 11 115
3 116 34 11
3 117 34 116
3 117 1 34
3 352 68 353
3 354 68 355
3 356 29 357
3 358 357 68
3 356 357 358
3 118 359 360
3 118 361 363
3 361 29 362
3 361 362 363
3 118 117 29
3 119 117 118
3 119 1 117
3 119 90 1
3 120 90 119
3 120 20 90
3 364 120 365
3 366 365 30
3 364 365 366
3 121 367 369
3 367 120 368
3 367 368 369
3 121 20 120
3 121 43 20
3 370 43 371
3 372 371 121
3 370 371 372
3 374 373 43
