ply
format ascii 1.0
element vertex 245
property float x
property float y
property float z
element face 223
property list uchar int vertex_index
end_header
-34.201569 59.648289 -22.735653
-34.486629 47.515354 -24.480568
-37.350784 67.937393 -18.795151
-38.392075 50.735859 -22.246456
-30.077888 38.149044 -26.79586
-29.952122 32.822353 -26.103523
-27.518847 33.158371 -28.61969
-39.131241 56.232433 -21.791656
-38.710472 62.148563 -20.700077
-32.874382 66.21431 -21.405327
-33.282066 42.367847 -24.568493
-30.4044 43.613083 -26.707314
-34.813538 53.278652 -23.762695
-30.193712 49.567722 -25.854469
-28.592258 38.529987 -27.882095
-28.685881 35.745564 -27.770084
-40.985607 60.125309 -20.20549
-40.646946 62.917507 -19.466927
-34.316795 70.1465 -19.09388
-35.220409 67.261765 -20.179741
-32.0028 69.347244 -20.530083
-35.820538 46.632069 -23.45034
-34.940262 44.190445 -23.356766
-33.966949 44.87933 -24.624409
-32.091324 42.952141 -25.769962
-32.430172 45.65205 -25.597641
-36.912483 57.909519 -22.32906
-37.04388 54.862263 -22.786388
-34.612331 56.404118 -23.277287
-29.813055 52.782749 -25.303387
-36.400024 70.54985 -17.478226
-36.49654 49.211246 -23.368511
-31.129499 61.409161 -23.154499
-31.751593 58.003315 -23.711224
-31.174339 37.810017 -25.44928
-30.845337 35.252323 -25.007214
-29.930113 35.492771 -26.514507
-28.872614 32.993469 -27.488079
-28.045652 30.342888 -28.364929
-41.024807 57.348637 -20.702858
-39.054424 59.164715 -21.333714
-36.544205 61.04472 -21.76067
-38.131653 65.104141 -19.863037
-35.970768 64.193253 -21.056404
-33.613468 62.947124 -22.124115
-32.54245 39.927334 -24.301628
-31.634691 40.356598 -25.720554
-30.273516 40.838947 -26.867432
-38.914314 53.411091 -22.093498
-36.909748 51.954311 -23.137897
-34.775749 50.311176 -24.176857
-32.22102 54.686893 -24.253395
-32.505638 51.509762 -24.777378
-32.577816 48.497555 -25.245644
-30.390518 46.513737 -26.347424
-26.616983 30.412571 -29.331676
-27.85463 37.276808 -28.327547
-27.672767 38.744794 -28.311689
-41.484213 63.119549 -18.730137
-41.660162 61.83453 -19.167561
-31.507666 70.792678 -19.9906
-33.159797 69.746872 -19.811982
-32.664663 71.192307 -19.272499
-30.281636 70.33812 -20.762917
-31.507666 70.792678 -19.9906
-35.855999 71.700851 -16.69388
-37.30562 70.552795 -16.557838
-34.840866 71.648048 -17.625305
-35.855999 71.700851 -16.69388
-37.986226 49.475758 -22.246878
-38.791788 50.178959 -21.620753
-37.444308 49.973552 -22.807484
-37.038458 48.713451 -22.807905
-37.986226 49.475758 -22.246878
-29.863782 60.51569 -23.689286
-29.474475 62.281456 -23.429041
-41.858996 57.75782 -20.073448
-41.690148 56.488308 -20.223896
-37.741219 66.520767 -19.329094
-39.087828 65.375068 -19.163939
-38.697393 66.791695 -18.629995
-31.627538 65.522476 -21.979357
-31.997082 63.888883 -22.338751
-33.243925 64.580717 -21.764721
-33.621189 42.103597 -23.823276
-34.450287 43.014896 -23.217413
-34.111164 43.279146 -23.962629
-32.912258 41.14759 -24.43506
-33.251381 40.883341 -23.689844
-33.621189 42.103597 -23.823276
-29.446149 42.499319 -27.240023
-29.380707 41.112251 -27.320082
-30.338958 42.226015 -26.787373
-39.022778 54.821762 -21.942577
-39.826912 54.030395 -21.539217
-39.935376 55.441067 -21.388296
-30.746071 55.41637 -24.502716
-31.986307 56.345104 -23.982309
-30.511357 57.074581 -24.231631
-30.362903 32.726618 -25.298296
-30.809511 33.941603 -24.750141
-30.39873 34.037338 -25.555369
-26.307178 28.978766 -29.622264
-25.798976 30.441505 -29.694873
-25.48917 29.0077 -29.985462
-27.043157 28.998019 -29.241867
-26.307178 28.978766 -29.622264
-39.25705 51.402382 -21.661058
-38.791788 50.178959 -21.620753
-27.901441 35.884596 -28.271541
-28.639069 37.137776 -27.82609
-27.85463 37.276808 -28.327547
-27.317924 34.591 -28.696344
-28.102364 34.451968 -28.194887
-27.901441 35.884596 -28.271541
-41.829493 60.438431 -19.536842
-41.839396 59.146157 -19.824764
-40.816277 61.521408 -19.836208
-41.829493 60.438431 -19.536842
-41.660162 61.83453 -19.167561
-30.762076 68.760147 -21.192284
-31.197868 67.19368 -21.629906
-32.438591 67.780777 -20.967705
-30.762076 68.760147 -21.192284
-30.281636 70.33812 -20.762917
-35.3804 45.411257 -23.403553
-35.737219 45.012003 -22.723638
-36.177357 46.232815 -22.770426
-28.325024 53.44056 -25.59421
-29.542088 54.464298 -25.027712
-28.638185 51.742035 -25.868163
-28.325024 53.44056 -25.59421
-28.828514 50.134522 -26.143704
-30.003383 51.175235 -25.578928
-28.638185 51.742035 -25.868163
-29.073142 48.509213 -26.416971
-28.828514 50.134522 -26.143704
-30.098782 31.464367 -25.896648
-29.602526 31.534126 -26.624741
-38.284143 68.079513 -17.991188
-38.697393 66.791695 -18.629995
-37.808763 69.385742 -17.332726
-37.30562 70.552795 -16.557838
-36.875404 69.243622 -18.136688
-38.284143 68.079513 -17.991188
-37.808763 69.385742 -17.332726
-33.799251 71.446373 -18.433132
-35.35841 70.348175 -18.286053
-34.840866 71.648048 -17.625305
-32.664663 71.192307 -19.272499
-33.799251 71.446373 -18.433132
-36.700457 47.423862 -22.84882
-36.177357 46.232815 -22.770426
-36.158539 47.921658 -23.409426
-36.700457 47.423862 -22.84882
-37.038458 48.713451 -22.807905
-30.17483 58.812767 -23.967648
-31.440546 59.706238 -23.432862
-29.863782 60.51569 -23.689286
-30.511357 57.074581 -24.231631
-30.17483 58.812767 -23.967648
-31.009838 36.53117 -25.228247
-31.366894 36.373379 -24.429747
-31.531395 37.652226 -24.65078
-29.062772 31.619684 -27.317018
-29.602526 31.534126 -26.624741
-29.412368 32.907911 -26.795801
-28.649291 30.294393 -27.755443
-29.062772 31.619684 -27.317018
-28.459133 31.668178 -27.926504
-28.407396 28.958702 -28.254255
-28.649291 30.294393 -27.755443
-40.882159 55.999168 -20.843897
-41.690148 56.488308 -20.223896
-40.078024 56.790535 -21.247257
-39.935376 55.441067 -21.388296
-40.882159 55.999168 -20.843897
-41.005207 58.736973 -20.454174
-41.858996 57.75782 -20.073448
-41.839396 59.146157 -19.824764
-40.345474 64.281751 -18.965883
-41.484213 63.119549 -18.730137
-39.389299 64.010824 -19.664982
-40.345474 64.281751 -18.965883
-39.087828 65.375068 -19.163939
-30.755097 63.119902 -22.853943
-32.371483 62.178142 -22.639307
-31.997082 63.888883 -22.338751
-29.474475 62.281456 -23.429041
-30.755097 63.119902 -22.853943
-31.627538 65.522476 -21.979357
-31.197868 67.19368 -21.629906
-35.14653 43.870558 -22.567768
-35.737219 45.012003 -22.723638
-35.14653 43.870558 -22.567768
-34.450287 43.014896 -23.217413
-32.781435 39.723622 -23.466532
-33.251381 40.883341 -23.689844
-32.215451 38.710884 -24.076954
-32.781435 39.723622 -23.466532
-31.858395 38.868676 -24.875454
-31.531395 37.652226 -24.65078
-32.215451 38.710884 -24.076954
-28.540078 39.957771 -27.827413
-29.432887 39.684467 -27.374764
-29.380707 41.112251 -27.320082
-27.672767 38.744794 -28.311689
-28.540078 39.957771 -27.827413
-39.518169 52.739998 -21.58458
-39.826912 54.030395 -21.539217
-38.653194 52.073475 -22.169977
-39.25705 51.402382 -21.661058
-39.518169 52.739998 -21.58458
-31.017038 53.734821 -24.778391
-30.746071 55.41637 -24.502716
-29.542088 54.464298 -25.027712
-29.171545 46.98222 -26.663449
-30.292115 48.040729 -26.100946
-29.073142 48.509213 -26.416971
-29.340436 45.431803 -26.899973
-29.171545 46.98222 -26.663449
-29.347377 43.981476 -27.079918
-30.397459 45.06341 -26.527369
-29.340436 45.431803 -26.899973
-29.446149 42.499319 -27.240023
-29.347377 43.981476 -27.079918
-31.153821 35.12915 -24.148291
-31.366894 36.373379 -24.429747
-31.153821 35.12915 -24.148291
-30.809511 33.941603 -24.750141
-30.509563 31.368631 -25.091421
-30.362903 32.726618 -25.298296
-30.098782 31.464367 -25.896648
-26.710279 33.244078 -29.062055
-27.317924 34.591 -28.696344
-26.259347 31.871177 -29.418049
-25.798976 30.441505 -29.694873
-27.067915 31.785471 -28.975683
-26.710279 33.244078 -29.062055
-26.259347 31.871177 -29.418049
-27.757491 28.963177 -28.758494
-27.331318 30.37773 -28.848303
-27.043157 28.998019 -29.241867
-28.407396 28.958702 -28.254255
-27.757491 28.963177 -28.758494
3 57 56 14
3 58 17 59
3 60 20 61
3 62 61 18
3 60 61 62
3 64 63 20
3 1 23 21
3 1 25 23
3 0 28 26
3 65 30 66
3 68 67 30
3 3 69 70
3 3 71 73
3 71 31 72
3 71 72 73
3 75 74 32
3 4 36 34
3 6 37 15
3 6 38 37
3 76 39 77
3 8 40 16
3 8 41 40
3 2 78 80
3 78 42 79
3 78 79 80
3 9 43 19
3 9 44 43
3 9 81 83
3 83 82 44
3 81 82 83
3 10 84 86
3 86 85 22
3 84 85 86
3 10 87 89
3 87 45 88
3 87 88 89
3 10 46 45
3 11 47 24
3 11 90 92
3 92 91 47
3 90 91 92
3 7 93 95
3 93 48 94
3 93 94 95
3 12 49 27
3 12 50 49
3 96 51 97
3 98 97 33
3 96 97 98
3 13 52 29
3 13 53 52
3 13 54 53
3 5 99 101
3 101 100 35
3 99 100 101
3 102 55 103
3 102 103 104
3 106 105 55
3 107 3 108
3 14 15 4
3 109 15 110
3 111 110 14
3 109 110 111
3 112 6 113
3 114 113 15
3 112 113 114
3 115 16 116
3 17 117 119
3 117 16 118
3 117 118 119
3 17 8 16
3 18 19 2
3 20 19 18
3 20 9 19
3 20 120 122
3 122 121 9
3 120 121 122
3 124 123 20
3 21 125 127
3 125 22 126
3 125 126 127
3 23 22 21
3 23 10 22
3 23 24 10
3 25 24 23
3 25 11 24
3 26 27 7
3 28 27 26
3 28 12 27
3 128 29 129
3 130 29 131
3 132 13 133
3 134 133 29
3 132 133 134
3 136 135 13
3 138 137 5
3 139 2 140
3 30 141 142
3 30 143 145
3 143 2 144
3 143 144 145
3 30 18 2
3 146 18 147
3 148 147 30
3 146 147 148
3 150 149 18
3 151 21 152
3 31 153 155
3 153 21 154
3 153 154 155
3 31 1 21
3 32 33 0
3 156 33 157
3 158 157 32
3 156 157 158
3 160 159 33
3 34 161 163
3 161 35 162
3 161 162 163
3 36 35 34
3 36 5 35
3 15 36 4
3 37 36 15
3 37 5 36
3 37 164 166
3 166 165 5
3 164 165 166
3 38 167 169
3 169 168 37
3 167 168 169
3 38 170 171
3 39 172 173
3 39 174 176
3 174 7 175
3 174 175 176
3 16 177 179
3 177 39 178
3 177 178 179
3 40 39 16
3 40 7 39
3 40 26 7
3 41 26 40
3 41 0 26
3 180 17 181
3 42 182 184
3 182 17 183
3 182 183 184
3 42 8 17
3 19 42 2
3 43 42 19
3 43 8 42
3 43 41 8
3 44 41 43
3 44 0 41
3 44 32 0
3 185 32 186
3 187 186 44
3 185 186 187
3 189 188 32
3 191 190 9
3 22 192 193
3 195 194 22
3 45 196 197
3 45 198 199
3 45 200 202
3 200 34 201
3 200 201 202
3 46 34 45
3 46 4 34
3 24 46 10
3 47 46 24
3 47 4 46
3 47 14 4
3 203 14 204
3 205 204 47
3 203 204 205
3 207 206 14
3 48 208 209
3 48 210 212
3 210 3 211
3 210 211 212
3 27 48 7
3 49 48 27
3 49 3 48
3 49 31 3
3 50 31 49
3 50 1 31
3 33 28 0
3 51 28 33
3 51 12 28
3 29 213 215
3 213 51 214
3 213 214 215
3 52 51 29
3 52 12 51
3 52 50 12
3 53 50 52
3 53 1 50
3 53 25 1
3 54 25 53
3 54 11 25
3 216 54 217
3 218 217 13
3 216 217 218
3 219 54 220
3 221 11 222
3 223 222 54
3 221 222 223
3 225 224 11
3 35 226 227
3 229 228 35
3 232 231 5
3 230 231 232
3 233 6 234
3 55 235 236
3 55 237 239
3 237 6 238
3 237 238 239
3 55 38 6
3 240 38 241
3 242 241 55
3 240 241 242
3 244 243 38
