ply
format ascii 1.0
element vertex 225
property float x
property float y
property float z
element face 213
property list uchar int vertex_index
end_header
-1.801088 -41.218307 41.263767
-1.707335 -53.446995 33.472031
-3.417261 -25.581194 40.935364
-0.258049 -42.499619 44.505756
-0.563812 -47.978203 41.290283
-0.562733 -53.739021 37.50243
-1.826376 -47.261848 37.56789
-0.571917 -59.607494 33.544205
-1.402563 -59.444904 29.306894
-2.740652 -33.742268 41.171402
-3.700369 -32.270897 37.673256
-2.885695 -40.126194 37.686981
-2.776777 -46.66972 33.712372
-2.516085 -53.107666 29.413691
-1.084064 -41.8358 42.935249
-0.483883 -45.204323 42.990906
-1.211306 -44.682259 41.275887
-1.230803 -47.597294 39.454338
-1.850447 -44.210556 39.484344
-1.171545 -53.587521 35.4944
-0.570852 -56.682137 35.518272
-1.132753 -56.596161 33.449081
-1.042896 -59.544888 31.425478
-1.604338 -56.496796 31.374498
-2.475637 -30.646301 42.694221
-3.102934 -29.737568 41.073292
-3.315752 -36.286182 37.703545
-3.305017 -39.642006 35.834038
-2.847666 -43.390694 35.752083
-3.255217 -43.018089 33.852608
-2.242239 -56.169052 27.227833
1.124189 -46.392914 46.182236
0.305708 -45.776592 44.622566
0.145985 -48.412209 43.063721
0.097054 -51.127342 41.335686
0.080685 -53.922729 39.487957
-0.569462 -50.82716 39.444046
-1.204348 -50.573975 37.511948
-1.773535 -50.352478 35.550812
-3.700991 -21.305866 40.751724
-1.62179 -38.289391 42.875179
0.042803 -56.778934 37.577137
-2.08436 -34.557739 42.797035
-2.311193 -37.572567 41.233017
-4.229055 -20.315002 39.013973
-3.925852 -24.653433 39.217365
-4.060537 -28.099115 37.587822
-3.607798 -28.886158 39.360458
-3.260542 -32.978535 39.452473
-2.863733 -36.90448 39.498852
-2.397287 -40.649281 39.505714
-2.391459 -43.783535 37.635433
-2.338148 -46.958347 35.648415
-2.261221 -50.142929 33.573341
-2.67544 -49.924328 31.589493
-2.153051 -53.294292 31.443256
-1.971064 -56.360851 29.299465
-1.642664 -59.287769 27.192345
-3.113187 -26.077557 41.749584
-3.258812 -23.976011 41.668518
-3.260097 -27.659381 41.004328
-2.956024 -28.155744 41.818549
-3.113187 -26.077557 41.749584
-3.508007 -39.413845 34.899237
-3.515798 -37.677929 35.854168
-3.483107 -41.101887 33.908522
-3.280117 -41.330048 34.843323
-3.508007 -39.413845 34.899237
0.02383 -44.138106 44.564161
0.476328 -44.489919 45.301861
0.194449 -42.851433 45.243455
-3.833 -19.128014 40.630832
-3.531161 -19.690206 41.474838
-1.443512 -36.852799 43.588293
-1.205322 -38.669545 43.639314
1.342841 -47.912775 46.308769
0.994366 -47.646197 45.478115
-0.297399 -59.631922 34.602103
-0.296867 -58.169243 35.589136
-0.571384 -58.144815 34.531239
-0.318974 -61.053139 33.66713
-0.297399 -59.631922 34.602103
-0.533389 -61.030737 32.587742
-0.318974 -61.053139 33.66713
-1.110294 -60.908372 29.390446
-0.930461 -60.958365 30.449738
-1.22273 -59.494896 30.366186
-1.20752 -60.838976 28.313796
-1.110294 -60.908372 29.390446
-4.320469 -22.057364 38.226099
-4.49505 -19.861963 38.112573
-4.168867 -24.226579 38.327795
-4.077453 -22.484217 39.115669
-4.320469 -22.057364 38.226099
-3.880453 -30.185006 37.630539
-4.096395 -29.858625 36.723278
-3.916311 -31.944516 36.765995
-2.595763 -51.515997 30.501592
-2.859573 -49.80055 30.596546
-2.779896 -51.392219 29.508645
-1.70952 -59.173575 26.138999
-1.942451 -57.72841 27.210089
-2.009308 -57.614216 26.156743
-1.360718 -60.655998 26.183808
-1.70952 -59.173575 26.138999
-2.642375 -28.610111 42.629013
-2.259256 -29.131621 43.382318
-2.789286 -30.191935 41.883757
-2.642375 -28.610111 42.629013
-2.956024 -28.155744 41.818549
-3.713474 -33.992374 36.773777
-3.916311 -31.944516 36.765995
-3.521166 -36.000017 36.788922
-3.508061 -34.278539 37.688401
-3.713474 -33.992374 36.773777
-3.310384 -37.964094 36.768791
-3.521166 -36.000017 36.788922
-3.515798 -37.677929 35.854168
-2.668732 -52.988199 28.399385
-2.779896 -51.392219 29.508645
-2.531809 -54.518892 27.306455
-2.379162 -54.638359 28.320762
-2.668732 -52.988199 28.399385
-2.342064 -56.038048 26.194538
-2.531809 -54.518892 27.306455
-2.009308 -57.614216 26.156743
-2.342064 -56.038048 26.194538
0.885568 -44.79808 46.081696
1.357294 -45.164825 46.786738
0.714948 -46.084753 45.402401
0.885568 -44.79808 46.081696
0.476328 -44.489919 45.301861
0.585125 -47.338036 44.69828
0.994366 -47.646197 45.478115
0.714948 -46.084753 45.402401
0.505263 -48.655844 43.918858
0.585125 -47.338036 44.69828
0.225847 -47.0944 43.843143
0.450314 -49.947277 43.122357
0.505263 -48.655844 43.918858
0.425848 -51.304844 42.258339
0.450314 -49.947277 43.122357
0.12152 -49.769775 42.199703
0.4036 -52.64064 41.390278
0.425848 -51.304844 42.258339
0.08887 -52.525036 40.411822
0.395416 -54.038333 40.466414
0.4036 -52.64064 41.390278
-3.400677 -21.838347 41.576698
-3.531161 -19.690206 41.474838
-3.559126 -23.44353 40.843544
-3.258812 -23.976011 41.668518
-3.400677 -21.838347 41.576698
-0.04567 -41.172371 45.161069
0.194449 -42.851433 45.243455
-0.523451 -40.774659 44.454603
-0.04567 -41.172371 45.161069
-0.936458 -40.442749 43.669349
-0.671056 -42.16771 43.720502
-0.523451 -40.774659 44.454603
-1.352927 -40.062596 42.905214
-0.936458 -40.442749 43.669349
-1.205322 -38.669545 43.639314
1.530951 -46.717579 46.941578
1.357294 -45.164825 46.786738
1.530951 -46.717579 46.941578
1.342841 -47.912775 46.308769
0.367591 -55.415131 39.554773
0.395416 -54.038333 40.466414
0.34865 -56.843233 38.599363
0.367591 -55.415131 39.554773
0.061744 -55.350831 38.532547
0.297015 -58.247018 37.673991
0.34865 -56.843233 38.599363
0.009961 -58.217641 36.618568
-0.264024 -56.730536 36.547705
-0.296867 -58.169243 35.589136
0.297015 -58.247018 37.673991
0.009961 -58.217641 36.618568
-0.768879 -60.999433 31.528378
-0.533389 -61.030737 32.587742
-0.807407 -59.576191 32.484842
-0.768879 -60.999433 31.528378
-0.930461 -60.958365 30.449738
-2.078533 -31.123334 43.442955
-2.259256 -29.131621 43.382318
-1.882895 -33.079053 43.494362
-2.078533 -31.123334 43.442955
-2.279999 -32.60202 42.745628
-1.674797 -34.986973 43.549221
-1.882895 -33.079053 43.494362
-1.853075 -36.423565 42.836107
-1.443512 -36.852799 43.588293
-1.674797 -34.986973 43.549221
-4.376138 -18.112541 38.874157
-4.49505 -19.861963 38.112573
-4.097033 -18.632582 39.761957
-4.376138 -18.112541 38.874157
-3.965023 -20.810434 39.882849
-3.833 -19.128014 40.630832
-4.097033 -18.632582 39.761957
-4.298756 -27.738154 36.681696
-4.096395 -29.858625 36.723278
-4.23621 -25.94942 37.513024
-4.298756 -27.738154 36.681696
-3.993194 -26.376274 38.402594
-4.168867 -24.226579 38.327795
-4.23621 -25.94942 37.513024
-3.458964 -42.83388 32.89874
-3.483107 -41.101887 33.908522
-3.214562 -44.697818 32.811231
-3.458964 -42.83388 32.89874
-2.975341 -46.523634 32.741113
-3.015997 -44.843905 33.78249
-3.214562 -44.697818 32.811231
-2.924673 -48.150938 31.679674
-2.859573 -49.80055 30.596546
-2.726109 -48.297024 32.650933
-2.975341 -46.523634 32.741113
-2.924673 -48.150938 31.679674
-1.32757 -60.760408 27.256521
-1.20752 -60.838976 28.313796
-1.522613 -59.366337 28.24962
-1.32757 -60.760408 27.256521
-1.360718 -60.655998 26.183808
3 0 16 14
3 0 18 16
3 1 21 19
3 1 23 21
3 2 58 59
3 2 60 62
3 60 25 61
3 60 61 62
3 63 27 64
3 65 29 66
3 67 66 27
3 65 66 67
3 3 68 70
3 68 32 69
3 68 69 70
3 4 33 15
3 4 34 33
3 4 36 34
3 6 37 17
3 6 38 37
3 71 39 72
3 73 40 74
3 76 75 31
3 5 41 35
3 7 77 79
3 79 78 20
3 77 78 79
3 7 80 81
3 7 82 83
3 8 84 86
3 86 85 22
3 84 85 86
3 8 87 88
3 9 42 24
3 9 43 42
3 89 44 90
3 91 45 92
3 93 92 44
3 91 92 93
3 10 94 96
3 94 46 95
3 94 95 96
3 10 47 46
3 10 48 47
3 11 49 26
3 11 50 49
3 11 51 50
3 12 52 28
3 12 53 52
3 13 97 99
3 97 54 98
3 97 98 99
3 13 55 54
3 13 56 55
3 100 57 101
3 102 101 30
3 100 101 102
3 104 103 57
3 14 15 3
3 16 15 14
3 16 4 15
3 16 17 4
3 18 17 16
3 18 6 17
3 19 20 5
3 21 20 19
3 21 7 20
3 21 22 7
3 23 22 21
3 23 8 22
3 105 24 106
3 25 107 109
3 107 24 108
3 107 108 109
3 25 9 24
3 110 10 111
3 112 26 113
3 114 113 10
3 112 113 114
3 27 115 117
3 115 26 116
3 115 116 117
3 27 11 26
3 27 28 11
3 29 28 27
3 29 12 28
3 118 13 119
3 120 30 121
3 122 121 13
3 120 121 122
3 123 30 124
3 126 125 30
3 127 31 128
3 32 129 131
3 129 31 130
3 129 130 131
3 32 132 134
3 134 133 31
3 132 133 134
3 15 32 3
3 33 32 15
3 33 135 137
3 137 136 32
3 135 136 137
3 33 138 139
3 34 140 142
3 142 141 33
3 140 141 142
3 34 143 144
3 34 145 147
3 145 35 146
3 145 146 147
3 36 35 34
3 36 5 35
3 17 36 4
3 37 36 17
3 37 5 36
3 37 19 5
3 38 19 37
3 38 1 19
3 39 148 149
3 39 150 152
3 150 2 151
3 150 151 152
3 153 3 154
3 155 3 156
3 157 14 158
3 159 158 3
3 157 158 159
3 40 160 162
3 160 14 161
3 160 161 162
3 40 0 14
3 31 163 164
3 166 165 31
3 35 167 168
3 41 169 171
3 171 170 35
3 169 170 171
3 41 172 173
3 20 41 5
3 174 41 175
3 176 175 20
3 174 175 176
3 178 177 41
3 22 179 181
3 181 180 7
3 179 180 181
3 183 182 22
3 24 184 185
3 42 186 188
3 188 187 24
3 186 187 188
3 42 189 190
3 42 191 193
3 191 40 192
3 191 192 193
3 43 40 42
3 43 0 40
3 44 194 195
3 44 196 197
3 44 198 200
3 198 39 199
3 198 199 200
3 45 39 44
3 45 2 39
3 46 201 202
3 46 203 204
3 46 205 207
3 205 45 206
3 205 206 207
3 47 45 46
3 47 2 45
3 47 25 2
3 48 25 47
3 48 9 25
3 26 48 10
3 49 48 26
3 49 9 48
3 49 43 9
3 50 43 49
3 50 0 43
3 50 18 0
3 51 18 50
3 51 6 18
3 28 51 11
3 52 51 28
3 52 6 51
3 52 38 6
3 53 38 52
3 53 1 38
3 208 29 209
3 210 29 211
3 212 12 213
3 214 213 29
3 212 213 214
3 54 215 216
3 54 217 219
3 217 12 218
3 217 218 219
3 54 53 12
3 55 53 54
3 55 1 53
3 55 23 1
3 56 23 55
3 56 8 23
3 30 56 13
3 57 56 30
3 57 8 56
3 57 220 222
3 222 221 8
3 220 221 222
3 224 223 57
