ply
format ascii 1.0
element vertex 280
property float x
property float y
property float z
element face 255
property list uchar int vertex_index
end_header
40.589478 -6.579755 -4.454247
40.785374 -21.031933 11.463001
43.170769 -22.714113 17.262663
42.388012 -18.248203 3.146982
40.46841 -13.973214 3.159034
39.765442 -14.968496 7.462966
43.022045 -25.170279 11.22783
43.828804 -23.174189 7.405369
39.709198 -15.728201 11.3211
41.364368 -22.0345 14.772934
43.283768 -26.770521 14.591257
41.422836 -12.61747 -1.262924
43.767197 -16.331703 -1.394981
41.247524 -19.777491 7.511464
44.799057 -27.784782 17.380707
41.38102 -5.095816 -7.369076
41.407192 -7.149447 -6.269772
44.635418 -26.863194 10.970401
44.995636 -25.704298 9.145765
42.788338 -19.854437 17.035799
41.676685 -19.610516 15.976662
42.111736 -22.421532 16.126942
42.160816 -24.522274 14.73677
42.838333 -25.007126 16.145405
40.576767 -10.164588 -1.098511
40.180603 -10.737924 1.037992
41.314007 -16.324005 3.133664
41.893295 -15.569008 0.876721
43.07534 -17.348095 0.882526
45.297348 -17.514452 -1.308029
44.507465 -18.687408 0.956843
40.123764 -18.533096 11.435215
40.148762 -18.0742 9.53767
40.905937 -20.435228 9.553389
44.51981 -22.065834 5.360881
44.185875 -20.025076 17.860691
39.809746 -11.224687 3.206374
40.060207 -14.506775 5.348002
40.794205 -16.981911 5.353147
41.741386 -23.236586 11.394954
41.950909 -22.470449 9.50028
43.31218 -24.212042 9.366004
45.57914 -24.450779 7.250484
40.352989 -18.942858 13.159227
40.865318 -19.303669 14.680503
40.927906 -21.567307 13.211535
41.800816 -23.925627 13.14757
43.002125 -26.031092 12.974881
44.541275 -27.900448 12.71567
41.26392 -8.562925 -4.889688
40.954979 -9.467862 -3.116899
41.873997 -11.737461 -3.381014
43.025196 -13.672136 -3.578571
40.939049 -13.351053 0.938419
42.479622 -14.694677 -1.376806
44.413754 -15.175083 -3.648832
39.633598 -15.371908 9.465992
40.388191 -17.56057 7.499146
41.759892 -19.052471 5.366401
42.385994 -21.635605 7.486606
42.994911 -20.732546 5.376825
43.721313 -19.754219 3.19295
43.833019 -25.361271 17.363804
43.883106 -27.362516 16.063063
40.998335 -6.864601 -5.362009
40.93305 -5.941769 -5.684217
40.524193 -5.656923 -4.776455
45.811472 -26.929863 9.909615
45.602429 -27.606232 10.80812
39.736084 -9.437861 2.137932
39.880938 -9.272032 1.078391
41.986733 -5.161428 -8.590556
41.997048 -6.264816 -7.945749
44.967167 -18.552233 17.881268
44.130694 -18.494065 17.625892
39.912824 -14.737635 6.405484
39.692558 -13.259044 6.376238
39.545175 -13.489905 7.43372
46.599953 -24.990665 7.133548
45.287388 -25.077539 8.198125
46.308201 -25.617425 8.081188
46.998997 -24.214814 6.198677
46.599953 -24.990665 7.133548
40.485533 -17.636347 13.806883
40.190849 -17.49437 13.076652
40.436985 -8.453202 -2.042093
40.613076 -8.246164 -3.013311
44.903359 -16.273414 -2.484827
45.226637 -15.695104 -3.611753
44.090475 -15.753393 -2.521907
46.593429 -17.169055 -2.342409
46.182407 -17.897787 -1.223398
39.671398 -15.550054 10.393546
39.557631 -13.996239 10.298136
39.59543 -14.174386 11.22569
44.161646 -20.809791 4.311545
43.757361 -21.39919 5.368853
44.924095 -21.476436 4.303572
44.524847 -20.320628 3.219607
43.358112 -20.243382 4.284887
44.161646 -20.809791 4.311545
44.958856 -19.692107 2.133898
44.524847 -20.320628 3.219607
44.963226 -26.678131 17.887402
45.405941 -27.904985 17.96218
44.316038 -26.573026 17.372256
44.480207 -25.466375 17.87895
44.963226 -26.678131 17.887402
41.883821 -8.9058 -5.972334
41.756525 -9.606857 -5.113506
40.919964 -4.914953 -6.233869
40.83773 -3.665872 -6.62973
41.394106 -6.122632 -6.819424
40.919964 -4.914953 -6.233869
40.93305 -5.941769 -5.684217
42.010134 -7.291632 -7.396097
41.997048 -6.264816 -7.945749
41.394106 -6.122632 -6.819424
39.533922 -13.651065 8.404133
39.545175 -13.489905 7.43372
45.991581 -26.350415 8.997297
44.815527 -26.283746 10.058083
45.811472 -26.929863 9.909615
46.308201 -25.617425 8.081188
45.991581 -26.350415 8.997297
42.232512 -19.732477 16.506231
42.162329 -18.20228 16.316952
42.718155 -18.324241 16.846521
40.07902 -8.985364 0.010139
40.247879 -8.801564 -1.032899
40.378685 -10.451256 -0.030259
40.07902 -8.985364 0.010139
39.880938 -9.272032 1.078391
45.787466 -18.484265 -0.090962
46.182407 -17.897787 -1.223398
44.902406 -18.10093 -0.175593
45.427023 -22.593479 5.32583
44.174307 -22.620011 6.383125
45.08152 -23.147656 6.348074
45.86208 -21.894863 4.315905
45.427023 -22.593479 5.32583
44.924095 -21.476436 4.303572
45.86208 -21.894863 4.315905
45.438526 -28.879991 17.372115
45.405941 -27.904985 17.96218
45.027532 -28.634401 16.652068
45.438526 -28.879991 17.372115
41.321999 -3.853356 -7.884819
40.83773 -3.665872 -6.62973
41.927712 -3.918967 -9.106299
41.321999 -3.853356 -7.884819
41.986733 -5.161428 -8.590556
43.431925 -18.408745 17.213445
42.718155 -18.324241 16.846521
43.487107 -19.939757 17.448245
43.431925 -18.408745 17.213445
44.130694 -18.494065 17.625892
39.448301 -9.833357 4.26302
39.550655 -9.681242 3.222123
39.659394 -11.434797 4.275489
39.448301 -9.833357 4.26302
39.988726 -12.809061 4.251819
40.139078 -12.598951 3.182704
39.659394 -11.434797 4.275489
39.784624 -13.075841 5.346303
39.692558 -13.259044 6.376238
40.264308 -14.239994 4.253518
39.988726 -12.809061 4.251819
39.784624 -13.075841 5.346303
45.956688 -23.785951 6.270632
45.08152 -23.147656 6.348074
44.703972 -23.812484 7.327927
45.956688 -23.785951 6.270632
46.998997 -24.214814 6.198677
39.802044 -14.304181 12.023297
39.59543 -14.174386 11.22569
39.868954 -15.887041 12.157588
39.802044 -14.304181 12.023297
40.076237 -17.289489 12.214645
39.916481 -17.130648 11.378158
39.868954 -15.887041 12.157588
40.238377 -18.737977 12.297221
40.076237 -17.289489 12.214645
40.190849 -17.49437 13.076652
41.58385 -18.095526 15.828093
42.162329 -18.20228 16.316952
41.178167 -17.942102 15.180013
41.58385 -18.095526 15.828093
41.271001 -19.457093 15.328582
40.741697 -17.816752 14.567521
41.178167 -17.942102 15.180013
40.609154 -19.123264 13.919865
40.485533 -17.636347 13.806883
40.741697 -17.816752 14.567521
45.555357 -28.124859 11.680754
45.602429 -27.606232 10.80812
44.588347 -27.381821 11.843035
40.430325 -6.802111 -3.681985
40.215483 -5.545685 -3.740271
40.215483 -5.545685 -3.740271
40.524193 -5.656923 -4.776455
40.767546 -7.793696 -3.899705
40.926699 -7.57134 -4.671967
40.430325 -6.802111 -3.681985
41.109449 -9.015394 -4.003293
40.767546 -7.793696 -3.899705
40.613076 -8.246164 -3.013311
41.602055 -10.059325 -4.227111
41.756525 -9.606857 -5.113506
41.109449 -9.015394 -4.003293
40.765873 -9.816225 -2.107705
40.436985 -8.453202 -2.042093
40.247879 -8.801564 -1.032899
42.061564 -11.194125 -4.359169
41.602055 -10.059325 -4.227111
41.414488 -10.602661 -3.248957
42.681292 -12.099728 -4.527052
42.061564 -11.194125 -4.359169
43.256891 -13.067066 -4.625831
42.681292 -12.099728 -4.527052
42.449596 -12.704798 -3.479793
43.99888 -13.76147 -4.707992
43.256891 -13.067066 -4.625831
39.995174 -10.981305 2.122183
39.736084 -9.437861 2.137932
39.550655 -9.681242 3.222123
44.69316 -14.512944 -4.743122
43.99888 -13.76147 -4.707992
43.719475 -14.42361 -3.613702
45.551779 -14.971847 -4.730351
44.69316 -14.512944 -4.743122
45.551779 -14.971847 -4.730351
45.226637 -15.695104 -3.611753
45.668434 -16.864788 -2.441351
44.903359 -16.273414 -2.484827
44.532273 -16.923077 -1.351505
45.668434 -16.864788 -2.441351
46.593429 -17.169055 -2.342409
39.468 -13.852771 9.405646
39.557631 -13.996239 10.298136
39.69952 -15.170202 8.464479
39.533922 -13.651065 8.404133
39.468 -13.852771 9.405646
45.351933 -19.158701 1.015845
44.114389 -19.220813 2.074896
44.958856 -19.692107 2.133898
45.787466 -18.484265 -0.090962
45.351933 -19.158701 1.015845
45.013985 -20.069721 18.165935
44.967167 -18.552233 17.881268
44.355683 -21.462395 18.021812
45.013985 -20.069721 18.165935
43.848129 -22.806914 17.722798
43.678322 -21.369594 17.561677
44.355683 -21.462395 18.021812
44.179254 -24.130493 17.773369
44.480207 -25.466375 17.87895
43.501894 -24.037692 17.313233
43.848129 -22.806914 17.722798
44.179254 -24.130493 17.773369
44.569557 -28.423268 15.993246
44.341082 -27.573649 16.721885
45.027532 -28.634401 16.652068
44.313164 -28.073468 15.216828
44.569557 -28.423268 15.993246
44.013495 -27.77747 14.480925
43.583437 -27.066519 15.32716
44.313164 -28.073468 15.216828
44.642248 -28.342434 13.543131
43.912521 -27.335484 13.653464
44.013495 -27.77747 14.480925
45.474365 -28.727113 12.560422
44.642248 -28.342434 13.543131
45.555357 -28.124859 11.680754
45.474365 -28.727113 12.560422
41.955458 -8.19906 -6.662376
41.335556 -7.856186 -5.57973
41.883821 -8.9058 -5.972334
42.010134 -7.291632 -7.396097
41.955458 -8.19906 -6.662376
3 0 64 66
3 64 16 65
3 64 65 66
3 68 67 17
3 2 21 19
3 2 23 21
3 69 25 70
3 3 28 26
3 3 30 28
3 1 33 31
3 72 71 15
3 73 35 74
3 5 75 77
3 75 37 76
3 75 76 77
3 5 38 37
3 6 41 39
3 78 42 79
3 80 79 18
3 78 79 80
3 82 81 42
3 83 43 84
3 9 44 20
3 9 45 44
3 9 46 45
3 10 47 22
3 10 48 47
3 85 50 86
3 11 51 24
3 11 52 51
3 4 53 36
3 12 54 27
3 12 55 54
3 12 87 89
3 89 88 55
3 87 88 89
3 91 90 29
3 8 92 94
3 92 56 93
3 92 93 94
3 13 57 32
3 13 58 57
3 7 59 40
3 95 60 96
3 97 96 34
3 95 96 97
3 98 61 99
3 100 99 60
3 98 99 100
3 102 101 61
3 14 103 104
3 14 105 107
3 105 62 106
3 105 106 107
3 14 63 62
3 109 108 49
3 110 15 111
3 16 112 114
3 112 15 113
3 112 113 114
3 16 115 117
3 117 116 15
3 115 116 117
3 118 5 119
3 17 18 6
3 120 18 121
3 122 121 17
3 120 121 122
3 124 123 18
3 19 125 127
3 125 20 126
3 125 126 127
3 21 20 19
3 21 9 20
3 21 22 9
3 23 22 21
3 23 10 22
3 128 24 129
3 25 130 132
3 130 24 131
3 130 131 132
3 25 11 24
3 26 27 4
3 28 27 26
3 28 12 27
3 28 29 12
3 30 29 28
3 30 133 135
3 135 134 29
3 133 134 135
3 31 32 8
3 33 32 31
3 33 13 32
3 136 34 137
3 138 137 7
3 136 137 138
3 139 34 140
3 142 141 34
3 143 14 144
3 146 145 14
3 15 147 148
3 151 150 15
3 149 150 151
3 152 19 153
3 35 154 156
3 154 19 155
3 154 155 156
3 35 2 19
3 157 36 158
3 159 36 160
3 161 4 162
3 163 162 36
3 161 162 163
3 37 164 165
3 37 166 168
3 166 4 167
3 166 167 168
3 37 26 4
3 38 26 37
3 38 3 26
3 39 40 1
3 41 40 39
3 41 7 40
3 18 41 6
3 42 41 18
3 42 7 41
3 42 169 171
3 171 170 7
3 169 170 171
3 173 172 42
3 174 8 175
3 176 8 177
3 178 31 179
3 180 179 8
3 178 179 180
3 43 181 183
3 181 31 182
3 181 182 183
3 43 1 31
3 20 184 185
3 44 186 188
3 188 187 20
3 186 187 188
3 44 189 190
3 44 191 193
3 191 43 192
3 191 192 193
3 45 43 44
3 45 1 43
3 45 39 1
3 46 39 45
3 46 6 39
3 22 46 9
3 47 46 22
3 47 6 46
3 47 17 6
3 48 17 47
3 48 194 196
3 196 195 17
3 194 195 196
3 198 197 0
3 199 0 200
3 201 49 202
3 203 202 0
3 201 202 203
3 50 204 206
3 204 49 205
3 204 205 206
3 50 207 209
3 209 208 49
3 207 208 209
3 24 210 212
3 210 50 211
3 210 211 212
3 51 50 24
3 51 213 215
3 215 214 50
3 213 214 215
3 51 216 217
3 52 218 220
3 220 219 51
3 218 219 220
3 52 221 222
3 36 223 225
3 223 25 224
3 223 224 225
3 53 25 36
3 53 11 25
3 27 53 4
3 54 53 27
3 54 11 53
3 54 52 11
3 55 52 54
3 55 226 228
3 228 227 52
3 226 227 228
3 55 229 230
3 232 231 55
3 29 233 235
3 235 234 12
3 233 234 235
3 237 236 29
3 56 238 239
3 56 240 242
3 240 5 241
3 240 241 242
3 32 56 8
3 57 56 32
3 57 5 56
3 57 38 5
3 58 38 57
3 58 3 38
3 40 33 1
3 59 33 40
3 59 13 33
3 34 59 7
3 60 59 34
3 60 13 59
3 60 58 13
3 61 58 60
3 61 3 58
3 61 30 3
3 243 30 244
3 245 244 61
3 243 244 245
3 247 246 30
3 248 35 249
3 250 35 251
3 252 2 253
3 254 253 35
3 252 253 254
3 62 255 256
3 62 257 259
3 257 2 258
3 257 258 259
3 62 23 2
3 63 23 62
3 63 10 23
3 260 63 261
3 262 261 14
3 260 261 262
3 263 63 264
3 265 10 266
3 267 266 63
3 265 266 267
3 268 48 269
3 270 269 10
3 268 269 270
3 271 48 272
3 274 273 48
3 49 16 0
3 275 16 276
3 277 276 49
3 275 276 277
3 279 278 16
