ply
format ascii 1.0
element vertex 329
property float x
property float y
property float z
element face 346
property list uchar int vertex_index
end_header
-61.900928 -26.686428 -1.258465
-57.157112 -43.890232 12.925845
-49.361092 -31.904053 5.432495
-48.024487 -38.417442 12.196864
-58.475807 -36.340179 4.606539
-67.778427 -23.577148 -6.951735
-65.200333 -49.96154 15.206806
-66.627396 -41.850899 6.249184
-67.883591 -32.648102 -1.001509
-48.050037 -35.59436 8.651962
-61.710487 -49.565384 18.985971
-61.684921 -46.745647 14.082792
-65.858963 -46.143791 10.53319
-62.191612 -43.102417 9.450691
-60.058197 -31.646709 1.385838
-64.184425 -34.20919 1.686685
-65.362694 -29.355476 -1.351751
-68.092354 -28.005259 -4.053421
-55.712971 -29.507465 1.763669
-52.392441 -41.216858 12.167873
-57.462391 -40.499275 8.495604
-52.526798 -38.094795 8.148239
-53.712269 -34.094025 4.655773
-68.407158 -45.393654 7.117518
-68.828156 -40.980148 3.137252
-63.067299 -38.85675 5.282812
-67.343163 -37.306404 2.407663
-57.297188 -45.245083 15.26546
-59.531906 -46.724594 15.884889
-59.49807 -45.279083 13.48561
-61.882935 -45.01265 11.719297
-59.628223 -43.616219 11.156025
-60.974312 -29.183578 0.007732
-62.950218 -30.420668 -0.019646
-63.709118 -27.942944 -1.37204
-65.881516 -26.915791 -2.712559
-52.455208 -30.833508 3.507326
-46.686295 -37.814606 14.20138
-48.534081 -39.429787 14.031615
-50.564762 -40.943077 14.059096
-50.129051 -39.852715 12.074404
-52.32209 -39.779984 10.10603
-50.008759 -38.490433 10.142714
-48.561943 -33.83799 6.99589
-50.697933 -35.031685 6.574517
-51.464401 -33.004284 4.978396
-54.635143 -31.853809 3.140942
-63.46701 -49.897987 17.111292
-63.4459 -51.2519 19.599279
-64.978577 -51.592381 17.653204
-66.349739 -51.693802 15.694047
-66.686615 -49.848503 13.315897
-66.241302 -44.040092 8.337446
-67.423576 -45.739571 8.814598
-67.770943 -43.557884 6.707952
-68.657425 -43.195221 5.08423
-68.076141 -41.330105 4.700514
-57.886581 -38.502594 6.471265
-60.314857 -39.727283 6.827744
-60.844032 -37.550293 4.876603
-66.377975 -33.315147 0.345636
-65.93576 -35.68544 2.022873
-67.643661 -34.984245 0.651734
-68.50238 -36.801796 0.972343
-68.599449 -34.52227 -0.757822
-68.602737 -32.245731 -2.407114
-68.011475 -25.748119 -5.501947
-46.117363 -36.876522 12.506906
-47.864193 -37.13208 10.393019
-45.92395 -35.673058 10.811157
-67.421669 -23.868013 -5.451319
-67.331207 -21.648489 -6.863632
-61.620197 -48.27282 16.514484
-63.617535 -48.306499 14.666769
-65.502991 -48.130585 12.827556
-63.874081 -46.515076 12.289627
-64.210312 -44.560196 10.001756
-64.602325 -42.474281 7.821025
-59.21022 -34.043602 2.912386
-61.477108 -35.254128 3.086132
-62.19072 -32.867668 1.457767
-64.782356 -31.795483 0.104684
-66.781708 -30.924267 -1.214903
-68.041397 -30.3146 -2.563416
-67.114609 -28.535158 -2.678019
-67.339951 -26.173481 -4.07514
-58.932354 -28.076607 0.189475
-54.759365 -42.548985 12.466173
-57.21582 -42.302643 10.657327
-54.749512 -41.037304 10.288298
-54.971287 -39.29118 8.219267
-55.416412 -37.334198 6.291118
-50.202873 -36.873371 8.300312
-52.997261 -36.187721 6.325408
-56.06958 -35.197487 4.525395
-56.903698 -32.917217 2.92944
-57.876812 -30.531406 1.493541
-67.053848 -47.848598 11.0192
-68.093346 -47.556343 9.241371
-59.905273 -41.757759 8.927691
-62.591591 -41.041977 7.299557
-65.030884 -40.284843 5.760192
-63.604218 -36.571121 3.410837
-65.480438 -38.015106 3.8267
-66.999542 -39.60025 4.272516
-68.324043 -39.074127 2.790046
-68.907974 -38.758816 1.270571
-62.337269 -25.435092 -1.862156
-63.156618 -26.074856 -1.949908
-57.22715 -44.567657 14.095652
-56.15173 -44.528311 14.990049
-56.081691 -43.850886 13.820241
-63.156618 -26.074856 -1.949908
-64.060713 -26.703114 -2.006696
-62.805023 -27.314686 -1.315252
-49.876072 -30.869359 4.692528
-51.42313 -30.334086 3.729944
-50.90815 -31.36878 4.469911
-67.581085 -22.552513 -7.704327
-67.610969 -23.594935 -7.731544
-67.851837 -24.603993 -6.978611
-67.968361 -25.689478 -6.253717
-67.894951 -24.662633 -6.226841
-67.610969 -23.594935 -7.731544
-67.851837 -24.603993 -6.978611
-45.275263 -36.038222 12.723845
-45.583163 -36.471336 13.513282
-45.178556 -35.43649 11.87597
-46.020657 -36.27479 11.659032
-45.275263 -36.038222 12.723845
-66.983669 -23.007096 -5.395376
-66.856243 -24.185884 -4.736857
-66.815384 -25.338617 -4.048768
-66.610734 -26.544636 -3.393849
-66.086167 -25.709772 -3.367477
-66.856243 -24.185884 -4.736857
-67.38081 -25.020747 -4.763229
-66.815384 -25.338617 -4.048768
-56.296208 -28.299473 1.125784
-57.905899 -27.584044 0.338688
-57.322662 -28.792036 0.976572
-52.566067 -41.803694 13.231552
-51.652228 -41.666804 14.177163
-51.478601 -41.079968 13.113485
-53.575903 -41.882922 12.317023
-53.749529 -42.469758 13.380702
-52.566067 -41.803694 13.231552
-66.834198 -19.704062 -7.552774
-67.193527 -20.594713 -7.619366
-66.971878 -20.757838 -6.79704
-61.840189 -50.081299 20.228034
-60.933228 -49.226627 19.874246
-64.213856 -52.656347 21.12699
-63.506756 -51.793163 20.853276
-64.153 -52.115084 19.872993
-68.462311 -46.36298 7.299159
-68.305405 -47.444325 8.361085
-68.250252 -46.474998 8.179444
-68.567913 -45.283516 6.268709
-68.462311 -46.36298 7.299159
-68.836433 -41.992437 3.288158
-68.751068 -43.099973 4.261646
-68.742791 -42.087684 4.110741
-68.841354 -40.90842 2.33397
-68.836433 -41.992437 3.288158
-68.898487 -37.647531 0.374441
-68.705177 -37.780306 1.121457
-68.69569 -36.669021 0.225327
-68.830276 -38.715281 0.478895
-68.898487 -37.647531 0.374441
-68.295681 -28.996284 -4.019502
-68.270203 -30.150954 -3.274499
-68.066876 -29.159929 -3.308419
-56.395782 -45.032118 16.129662
-56.15173 -44.528311 14.990049
-57.472222 -45.800297 16.452281
-56.395782 -45.032118 16.129662
-58.414547 -45.984839 15.575174
-58.58958 -46.540053 16.761996
-57.472222 -45.800297 16.452281
-65.146912 -26.189538 -2.676956
-64.795317 -27.429367 -2.042299
-64.060713 -26.703114 -2.006696
-66.086167 -25.709772 -3.367477
-65.146912 -26.189538 -2.676956
-53.031435 -29.69656 2.82266
-54.660317 -29.033538 1.950832
-54.08409 -30.170486 2.635498
-53.031435 -29.69656 2.82266
-51.42313 -30.334086 3.729944
-47.153526 -38.147177 15.03316
-46.367813 -37.243004 15.117306
-48.07742 -38.954768 14.948277
-47.153526 -38.147177 15.03316
-47.610188 -38.622197 14.116498
-48.958458 -39.797417 14.946853
-48.07742 -38.954768 14.948277
-49.549422 -40.186432 14.045355
-49.973799 -40.554062 14.960593
-48.958458 -39.797417 14.946853
-64.919339 -52.285325 18.899956
-64.153 -52.115084 19.872993
-64.212238 -51.42214 18.626241
-65.52414 -52.463082 17.89613
-64.919339 -52.285325 18.899956
-66.209721 -52.513792 16.916551
-65.52414 -52.463082 17.89613
-65.664158 -51.643091 16.673625
-66.675606 -52.583227 15.916469
-66.535587 -53.403217 17.138973
-66.209721 -52.513792 16.916551
-66.857022 -51.667993 14.726275
-66.675606 -52.583227 15.916469
-67.02546 -50.745344 13.5372
-66.857022 -51.667993 14.726275
-66.518177 -50.771152 14.504972
-67.211914 -49.750797 12.386147
-67.02546 -50.745344 13.5372
-68.744225 -35.529258 -0.639755
-68.69569 -36.669021 0.225327
-68.550915 -35.662033 0.10726
-68.682675 -34.419289 -1.501093
-68.744225 -35.529258 -0.639755
-68.684319 -33.281019 -2.325739
-68.682675 -34.419289 -1.501093
-68.601093 -33.384 -1.582468
-68.569221 -32.176096 -3.154522
-68.684319 -33.281019 -2.325739
-68.143776 -26.759428 -5.505819
-68.184215 -27.887998 -4.781556
-68.051915 -26.876689 -4.777684
-68.143776 -26.759428 -5.505819
-67.968361 -25.689478 -6.253717
-48.390171 -31.335186 5.681297
-47.986759 -32.241726 6.472323
-45.867629 -36.940378 14.360519
-46.367813 -37.243004 15.117306
-46.401829 -37.345564 13.354143
-45.867629 -36.940378 14.360519
-45.583163 -36.471336 13.513282
-45.066621 -34.87878 11.065623
-45.178556 -35.43649 11.87597
-44.321228 -34.642212 12.130436
-46.011093 -34.950856 9.975839
-45.066621 -34.87878 11.065623
-47.074137 -34.911507 8.896242
-46.986993 -35.633709 9.731559
-46.011093 -34.950856 9.975839
-47.330089 -34.033321 8.068206
-48.30599 -34.716175 7.823926
-47.074137 -34.911507 8.896242
-47.587185 -33.208695 7.254021
-47.330089 -34.033321 8.068206
-47.986759 -32.241726 6.472323
-48.961517 -32.871021 6.214193
-47.587185 -33.208695 7.254021
-66.938439 -21.897334 -6.101533
-67.376438 -22.758251 -6.157476
-66.983669 -23.007096 -5.395376
-66.971878 -20.757838 -6.79704
-66.938439 -21.897334 -6.101533
-60.728838 -48.749224 18.653413
-60.933228 -49.226627 19.874246
-59.639547 -47.328829 17.102871
-58.58958 -46.540053 16.761996
-60.683693 -48.102942 17.417669
-59.639547 -47.328829 17.102871
-60.576051 -47.498707 16.199686
-61.665342 -48.919102 17.750228
-60.728838 -48.749224 18.653413
-60.683693 -48.102942 17.417669
-59.467766 -26.830778 -0.419712
-60.952053 -26.135689 -1.143682
-60.416641 -27.381518 -0.534495
-59.467766 -26.830778 -0.419712
-57.905899 -27.584044 0.338688
-56.296208 -28.299473 1.125784
-54.660317 -29.033538 1.950832
-49.876072 -30.869359 4.692528
-48.390171 -31.335186 5.681297
-50.936554 -41.351191 15.058425
-49.973799 -40.554062 14.960593
-50.936554 -41.351191 15.058425
-51.652228 -41.666804 14.177163
-54.882818 -43.180262 13.590405
-53.749529 -42.469758 13.380702
-55.958239 -43.219608 12.696009
-56.081691 -43.850886 13.820241
-54.882818 -43.180262 13.590405
-67.357475 -21.588183 -7.660275
-67.581085 -22.552513 -7.704327
-67.554817 -22.612819 -6.907684
-67.219795 -20.534408 -8.41601
-67.357475 -21.588183 -7.660275
-67.193527 -20.594713 -7.619366
-62.337269 -25.435092 -1.862156
-60.952053 -26.135689 -1.143682
-62.707895 -50.924557 20.534688
-61.840189 -50.081299 20.228034
-62.578193 -50.408642 19.292625
-62.707895 -50.924557 20.534688
-63.506756 -51.793163 20.853276
-67.395531 -48.750844 11.237799
-67.211914 -49.750797 12.386147
-66.870232 -48.848551 12.167548
-67.915279 -48.604717 10.348885
-67.395531 -48.750844 11.237799
-67.573597 -47.702471 10.130285
-68.160538 -48.50824 9.434206
-67.915279 -48.604717 10.348885
-68.160538 -48.50824 9.434206
-68.305405 -47.444325 8.361085
-68.693047 -44.184299 5.252066
-68.567913 -45.283516 6.268709
-68.532291 -44.294438 6.100874
-68.693047 -44.184299 5.252066
-68.751068 -43.099973 4.261646
-68.881263 -39.797754 1.400629
-68.841354 -40.90842 2.33397
-68.868065 -39.869482 2.203912
-68.881263 -39.797754 1.400629
-68.830276 -38.715281 0.478895
-68.550872 -31.11652 -3.196348
-68.322067 -31.280165 -2.485265
-68.270203 -30.150954 -3.274499
-68.569221 -32.176096 -3.154522
-68.550872 -31.11652 -3.196348
-68.295681 -28.996284 -4.019502
-68.184215 -27.887998 -4.781556
3 0 107 108
3 1 109 111
3 109 27 110
3 109 110 111
3 1 29 27
3 1 31 29
3 0 34 32
3 0 112 114
3 114 113 34
3 112 113 114
3 2 115 117
3 117 116 36
3 115 116 117
3 3 38 37
3 3 40 38
3 3 42 40
3 2 45 43
3 2 36 45
3 5 118 119
3 6 49 47
3 6 50 49
3 6 51 50
3 7 54 52
3 7 56 54
3 4 59 57
3 8 62 60
3 8 64 62
3 8 65 64
3 5 120 122
3 122 121 66
3 120 121 122
3 5 123 124
3 125 67 126
3 127 69 128
3 129 128 67
3 127 128 129
3 131 130 70
3 11 72 28
3 11 73 72
3 11 75 73
3 13 76 30
3 13 77 76
3 14 80 78
3 16 81 33
3 16 82 81
3 16 84 82
3 132 85 133
3 134 133 35
3 132 133 134
3 135 70 136
3 137 136 85
3 135 136 137
3 18 138 140
3 140 139 86
3 138 139 140
3 19 141 143
3 143 142 39
3 141 142 143
3 19 144 146
3 144 87 145
3 144 145 146
3 19 89 87
3 21 90 41
3 21 91 90
3 9 92 68
3 22 93 44
3 22 94 93
3 22 95 94
3 18 96 46
3 18 86 96
3 149 148 71
3 147 148 149
3 10 150 151
3 154 153 48
3 152 153 154
3 12 97 74
3 23 98 53
3 23 155 157
3 157 156 98
3 155 156 157
3 23 158 159
3 24 160 162
3 162 161 55
3 160 161 162
3 24 163 164
3 20 99 88
3 25 100 58
3 25 101 100
3 15 102 79
3 26 103 61
3 26 104 103
3 26 105 104
3 165 106 166
3 167 166 63
3 165 166 167
3 169 168 106
3 17 170 172
3 172 171 83
3 170 171 172
3 27 173 174
3 27 175 176
3 27 177 179
3 177 28 178
3 177 178 179
3 29 28 27
3 29 11 28
3 29 30 11
3 31 30 29
3 31 13 30
3 32 33 14
3 34 33 32
3 34 16 33
3 34 35 16
3 180 35 181
3 182 181 34
3 180 181 182
3 184 183 35
3 36 185 187
3 187 186 18
3 185 186 187
3 189 188 36
3 37 190 191
3 38 192 194
3 194 193 37
3 192 193 194
3 38 195 196
3 38 197 199
3 197 39 198
3 197 198 199
3 40 39 38
3 40 19 39
3 40 41 19
3 42 41 40
3 42 21 41
3 43 44 9
3 45 44 43
3 45 22 44
3 45 46 22
3 36 46 45
3 36 18 46
3 47 48 10
3 49 48 47
3 49 200 202
3 202 201 48
3 200 201 202
3 49 203 204
3 50 205 207
3 207 206 49
3 205 206 207
3 50 208 210
3 208 209 210
3 50 211 212
3 51 213 215
3 215 214 50
3 213 214 215
3 51 216 217
3 52 53 12
3 54 53 52
3 54 23 53
3 54 55 23
3 56 55 54
3 56 24 55
3 57 58 20
3 59 58 57
3 59 25 58
3 60 61 15
3 62 61 60
3 62 26 61
3 62 63 26
3 64 63 62
3 64 218 220
3 220 219 63
3 218 219 220
3 64 221 222
3 65 223 225
3 225 224 64
3 223 224 225
3 65 226 227
3 66 228 230
3 230 229 17
3 228 229 230
3 232 231 66
3 234 233 2
3 235 37 236
3 67 237 239
3 237 37 238
3 237 238 239
3 67 3 37
3 67 68 3
3 69 68 67
3 69 9 68
3 240 69 241
3 240 241 242
3 243 69 244
3 245 9 246
3 247 246 69
3 245 246 247
3 248 43 249
3 250 249 9
3 248 249 250
3 251 43 252
3 253 2 254
3 255 254 43
3 253 254 255
3 70 71 5
3 256 71 257
3 258 257 70
3 256 257 258
3 260 259 71
3 261 10 262
3 28 263 264
3 72 265 267
3 267 266 28
3 265 266 267
3 72 268 270
3 268 10 269
3 268 269 270
3 72 47 10
3 73 47 72
3 73 6 47
3 73 74 6
3 75 74 73
3 75 12 74
3 30 75 11
3 76 75 30
3 76 12 75
3 76 52 12
3 77 52 76
3 77 7 52
3 78 79 4
3 80 79 78
3 80 15 79
3 33 80 14
3 81 80 33
3 81 15 80
3 81 60 15
3 82 60 81
3 82 8 60
3 82 83 8
3 84 83 82
3 84 17 83
3 35 84 16
3 85 84 35
3 85 17 84
3 85 66 17
3 70 66 85
3 70 5 66
3 86 271 273
3 273 272 0
3 271 272 273
3 275 274 86
3 277 276 18
3 279 278 2
3 39 280 281
3 283 282 39
3 87 284 285
3 87 286 288
3 286 1 287
3 286 287 288
3 87 88 1
3 89 88 87
3 89 20 88
3 41 89 19
3 90 89 41
3 90 20 89
3 90 57 20
3 91 57 90
3 91 4 57
3 68 42 3
3 92 42 68
3 92 21 42
3 44 92 9
3 93 92 44
3 93 21 92
3 93 91 21
3 94 91 93
3 94 4 91
3 94 78 4
3 95 78 94
3 95 14 78
3 46 95 22
3 96 95 46
3 96 14 95
3 96 32 14
3 86 32 96
3 86 0 32
3 71 289 291
3 291 290 5
3 289 290 291
3 294 293 71
3 292 293 294
3 296 295 0
3 48 297 299
3 299 298 10
3 297 298 299
3 301 300 48
3 74 51 6
3 97 51 74
3 97 302 304
3 304 303 51
3 302 303 304
3 53 97 12
3 98 97 53
3 98 305 307
3 307 306 97
3 305 306 307
3 98 308 309
3 311 310 98
3 55 312 314
3 314 313 23
3 312 313 314
3 316 315 55
3 88 31 1
3 99 31 88
3 99 13 31
3 58 99 20
3 100 99 58
3 100 13 99
3 100 77 13
3 101 77 100
3 101 7 77
3 79 59 4
3 102 59 79
3 102 25 59
3 61 102 15
3 103 102 61
3 103 25 102
3 103 101 25
3 104 101 103
3 104 7 101
3 104 56 7
3 105 56 104
3 105 24 56
3 63 105 26
3 106 105 63
3 106 24 105
3 106 317 319
3 319 318 24
3 317 318 319
3 321 320 106
3 83 65 8
3 322 65 323
3 324 323 83
3 322 323 324
3 326 325 65
3 328 327 17
