ply
format ascii 1.0
element vertex 410
property float x
property float y
property float z
element face 436
property list uchar int vertex_index
end_header
-2.24815 -4.416752 58.641224
-5.234095 -8.913503 86.413483
0.997042 -6.024637 75.093018
-1.569988 3.796032 53.395233
-0.880171 -6.559622 83.195709
-0.890516 8.181854 79.688126
-0.164278 -5.421893 65.838066
0.598814 8.648355 71.229996
-0.931356 7.529554 61.453304
-2.168964 -0.728067 56.41914
-2.066908 -3.559383 53.168003
-2.800684 -7.429359 85.592766
-0.399723 -13.473104 84.756157
-2.247421 -14.270407 87.031746
-3.161278 -0.296206 84.056458
0.773708 -5.810991 70.394394
-0.132444 -12.438888 66.909477
0.836246 -12.941881 71.652069
0.342068 1.111197 77.921944
0.369465 8.622175 75.87381
0.863297 1.312092 73.496506
0.501152 1.392668 68.770065
-0.633293 0.69113 50.271179
0.419939 -6.185523 79.527596
1.126669 -13.095175 76.524101
-1.059973 0.650566 81.586273
-1.398897 -4.897962 61.741615
-2.603233 -9.892662 58.899849
-1.489429 -11.457021 62.587933
-0.53882 15.855846 77.029831
0.008307 8.311562 66.26252
-0.479063 1.322266 64.164215
-1.543541 0.837774 60.011787
-1.365374 11.153549 53.425179
-1.619625 6.087948 57.123928
-2.264627 -2.782087 57.682602
-2.492693 -4.005053 56.122482
-2.565062 -5.690814 57.415775
-3.959959 -8.09773 86.204071
-2.527287 -10.879588 86.329895
-3.692904 -11.515074 86.90567
-4.206556 -4.599544 85.480415
0.986399 -5.936182 72.748535
0.824451 -9.404246 71.038254
1.03492 -9.529491 73.427689
0.754768 -2.465189 76.608429
0.718136 1.232023 75.775589
0.939571 -2.377747 74.342682
0.907507 -2.292021 72.009109
-1.097269 6.129011 51.699238
-1.204845 2.337677 51.759895
-1.693123 -5.28152 51.6833
-0.146133 -6.326545 81.490707
0.539515 -9.710632 80.30043
0.020958 -9.829652 82.277603
-1.95343 -3.37641 83.79995
-2.039494 0.251753 82.995132
-1.016741 -2.997625 82.403847
-0.23917 -2.742306 80.700226
-0.783936 -5.169033 63.712376
-1.407473 -8.09594 62.229645
-0.75174 -8.551673 64.250671
-1.680738 11.621864 80.0158
-0.723097 12.019156 78.483772
0.606667 8.68108 73.625504
0.368328 12.365236 74.510956
0.503937 12.341396 72.172646
0.381807 8.527056 68.754028
0.251722 -2.092745 67.348053
0.059647 1.386005 66.428955
-0.290636 -1.992416 65.110916
-0.88681 -1.921684 62.98996
-1.128366 10.426582 59.690769
-1.421423 9.622503 57.441116
-1.343138 6.907368 59.216797
-1.614073 3.489735 58.693718
-1.204979 4.094671 60.75378
-2.866665 -13.208521 58.988155
-3.17963 -12.065555 57.294785
-1.935728 1.495226 54.975571
-1.78072 0.116669 53.301159
-2.222788 -2.022575 54.754959
-2.56159 -5.52818 54.543915
-1.769445 -6.919297 84.580009
-0.665094 -10.045419 83.981194
-1.515808 -10.389552 85.347748
-1.230335 -13.804432 86.092583
-4.387875 -1.011105 84.732697
-3.025015 -3.905602 84.837395
0.376577 -5.639241 68.077576
-0.112179 -8.921412 66.413849
0.431934 -9.204879 68.687294
0.427456 -12.745077 69.24324
-0.212742 4.670099 78.970673
-0.130316 8.461107 77.912521
0.35393 4.85598 76.988068
0.67473 4.961983 74.805794
0.752403 5.003523 72.482132
0.606838 4.987202 70.078064
0.783306 1.364847 71.142807
0.668406 -2.196808 69.661575
-1.403191 -1.468626 51.751984
-0.826164 -3.233184 50.331341
0.805183 -6.097419 77.373138
1.054239 -9.600748 75.80751
0.88632 -9.648351 78.120255
1.006433 -13.11841 78.875488
0.246351 -13.267254 83.064743
-1.88867 7.765524 81.157364
-2.015659 3.968563 82.131157
-1.011974 4.382544 80.700691
-0.25692 0.926945 79.877556
0.357462 -2.576496 78.747948
-1.918087 -4.633013 59.991676
-2.397263 -6.839702 58.78384
-1.986685 -7.544675 60.389816
-2.12306 -10.762019 60.652332
-2.326351 -14.142929 60.857098
-0.795721 -12.011971 64.682198
-1.64212 -14.898148 62.892712
1.070997 -13.048871 74.095917
-0.036352 12.262129 76.634193
-0.454842 7.987064 63.813263
0.275999 4.909346 67.653221
-0.184376 4.75515 65.261826
-0.703903 4.497496 62.950069
-1.039181 1.16194 62.014931
-1.454451 -1.927439 61.027874
-1.919319 -2.111101 59.271305
-1.072811 9.894388 51.56868
-1.434113 7.478024 53.438976
-1.423166 12.25362 55.471592
-1.537476 8.642313 55.353558
-1.706152 5.050838 55.18288
-1.87178 2.628603 56.771175
-1.93244 0.23674 58.158661
-2.853077 -8.762903 57.335743
-5.354813 -7.18463 86.065579
-6.02516 -7.683307 85.991447
-4.597027 -8.505617 86.308777
-4.717745 -6.776744 85.960872
-5.354813 -7.18463 86.065579
0.501695 10.424051 70.459545
0.454257 12.270571 70.93087
0.551376 10.494875 71.701321
0.49031 8.587706 69.992012
0.393192 10.363402 69.221562
0.501695 10.424051 70.459545
-3.210133 -14.356499 58.133606
-3.025423 -14.92566 59.036153
-2.698751 -6.412076 55.228039
-2.527141 -4.766616 55.333198
-2.664302 -5.650513 56.017322
-2.756416 -7.294059 54.448162
-2.698751 -6.412076 55.228039
-1.600066 -15.72495 86.908394
-1.091523 -15.491962 86.438813
-1.738878 -14.03742 86.562164
-5.035762 -1.454089 84.868359
-5.100552 0.376965 84.491208
0.608414 -14.584988 70.724533
0.404019 -14.486586 69.520118
0.631851 -12.843479 70.447654
-0.227917 1.787223 49.487451
-0.58888 2.644247 50.19903
-0.268872 -0.221427 49.592672
-0.227917 1.787223 49.487451
-0.973773 -5.196148 50.324803
-1.259643 -4.257352 51.007321
-1.407253 -6.220317 51.000782
-0.462122 -4.197444 49.681269
-0.973773 -5.196148 50.324803
0.859911 -13.139917 79.977947
0.772974 -11.414521 79.587959
0.626451 -11.436028 80.690418
1.08449 -14.819944 79.258445
0.859911 -13.139917 79.977947
-2.485933 7.479476 81.721512
-2.380828 9.411022 81.178757
-3.172226 1.554194 83.638596
-3.813505 1.188251 83.995598
-1.747253 -16.625586 63.04958
-1.275199 -15.194168 63.984564
-2.11491 -16.243901 61.978743
-1.747253 -16.625586 63.04958
-0.84106 17.618326 77.027164
-0.980514 15.681074 77.840896
-0.450089 17.752714 76.158348
-0.84106 17.618326 77.027164
0.207526 14.197159 74.795231
0.353432 14.202061 73.680725
-0.135258 9.941024 65.420276
0.065071 10.127689 66.698353
-0.223268 8.149313 65.037892
-0.366832 9.778775 64.195648
-0.135258 9.941024 65.420276
-1.219092 10.523968 52.49693
-1.093857 11.759294 51.469873
-1.240139 12.388874 52.398123
-1.34682 12.727623 56.585797
-1.384063 14.062589 55.498822
-3.195682 -11.374064 56.528992
-3.405747 -13.11673 56.473122
-2.700487 -6.493393 56.663969
-2.664302 -5.650513 56.017322
-2.528878 -4.847933 56.769128
-4.841043 -5.027651 85.599044
-4.945102 -3.248308 85.242218
-4.083258 -6.348637 85.842243
-4.841043 -5.027651 85.599044
-4.717745 -6.776744 85.960872
-0.820869 5.363188 50.91306
-0.825734 7.298895 50.798512
-0.874656 3.467521 50.943388
-0.820869 5.363188 50.91306
-1.151057 4.233344 51.729567
-0.919069 1.514403 51.015537
-0.58888 2.644247 50.19903
-0.874656 3.467521 50.943388
-2.059627 -6.260932 52.346167
-1.880016 -4.420452 52.425652
-2.246519 -5.399864 53.088518
-1.881746 -7.188109 51.626571
-2.059627 -6.260932 52.346167
-1.407253 -6.220317 51.000782
-1.881746 -7.188109 51.626571
0.367173 -11.495538 81.679004
0.626451 -11.436028 80.690418
0.280236 -9.770142 81.289017
0.051767 -15.066793 84.296196
-0.259652 -15.167671 85.12698
-0.520361 -13.964538 65.992946
-0.172129 -14.184145 67.147919
1.118269 -14.791701 75.652306
1.174384 -14.804108 76.890682
-1.551474 13.564083 79.333881
-2.129458 13.295953 79.965652
-1.072653 13.762729 78.567867
-1.551474 13.564083 79.333881
-1.201917 11.82051 79.249786
-0.630958 13.937501 77.756801
-0.980514 15.681074 77.840896
-1.072653 13.762729 78.567867
0.421236 14.190141 72.51157
0.353432 14.202061 73.680725
0.436132 12.353316 73.341801
0.435199 14.120014 71.291455
0.421236 14.190141 72.51157
0.435199 14.120014 71.291455
0.454257 12.270571 70.93087
0.251821 10.235436 67.944107
0.393192 10.363402 69.221562
0.195057 8.419309 67.508274
0.065071 10.127689 66.698353
0.251821 10.235436 67.944107
-1.355745 12.983526 53.387667
-1.240139 12.388874 52.398123
-1.274895 10.024542 58.565943
-1.345949 11.412064 57.570559
-1.199421 11.814104 58.695385
-3.366616 -13.785016 57.286921
-3.023147 -12.637038 58.14147
-3.210133 -14.356499 58.133606
-3.405747 -13.11673 56.473122
-3.366616 -13.785016 57.286921
-2.49386 -6.384262 53.776474
-2.246519 -5.399864 53.088518
-2.314249 -4.543781 53.855959
-2.49386 -6.384262 53.776474
-2.756416 -7.294059 54.448162
-0.674958 -15.333335 85.795193
-0.259652 -15.167671 85.12698
-0.815029 -13.638768 85.42437
-0.674958 -15.333335 85.795193
-1.091523 -15.491962 86.438813
-4.426804 0.830802 84.333718
-5.100552 0.376965 84.491208
-3.774577 -0.653655 84.394577
-3.813505 1.188251 83.995598
-4.426804 0.830802 84.333718
-4.297216 -2.805324 85.106556
-5.035762 -1.454089 84.868359
-4.945102 -3.248308 85.242218
0.10782 -14.337239 68.3148
-0.172129 -14.184145 67.147919
0.147506 -12.591983 68.076358
0.10782 -14.337239 68.3148
0.404019 -14.486586 69.520118
-1.043811 12.215993 59.890619
-1.199421 11.814104 58.695385
-0.925227 10.748242 60.885918
-1.043811 12.215993 59.890619
-0.826722 9.299728 61.767185
-1.029861 8.978068 60.572037
-0.925227 10.748242 60.885918
-0.365308 -2.183584 49.622753
-0.268872 -0.221427 49.592672
-0.729729 -1.271027 50.30126
-0.001266 -3.147844 48.972681
-0.365308 -2.183584 49.622753
-0.462122 -4.197444 49.681269
1.114266 -14.815726 78.066375
1.174384 -14.804108 76.890682
1.066551 -13.106793 77.699794
1.114266 -14.815726 78.066375
1.08449 -14.819944 79.258445
0.47987 -13.214339 82.072575
0.367173 -11.495538 81.679004
0.133654 -11.548453 82.671173
0.374804 -14.963868 83.450489
-0.076686 -13.370179 83.91045
0.051767 -15.066793 84.296196
0.586341 -14.912241 82.462315
0.374804 -14.963868 83.450489
0.47987 -13.214339 82.072575
0.586341 -14.912241 82.462315
-2.276862 11.339192 80.607975
-2.129458 13.295953 79.965652
-1.784704 9.693694 80.586582
-2.276862 11.339192 80.607975
-2.380828 9.411022 81.178757
-2.611334 1.828173 83.107933
-3.172226 1.554194 83.638596
-2.600386 -0.022227 83.525795
-2.599417 3.686578 82.675945
-2.611334 1.828173 83.107933
-2.027576 2.110158 82.563144
-2.549427 5.580996 82.208408
-2.599417 3.686578 82.675945
-1.952164 5.867044 81.644261
-2.485933 7.479476 81.721512
-2.549427 5.580996 82.208408
-5.118854 -10.594964 86.749356
-5.92384 -9.380301 86.333839
-5.92384 -9.380301 86.333839
-6.02516 -7.683307 85.991447
-2.755266 -15.392864 59.970625
-3.025423 -14.92566 59.036153
-2.596508 -13.675725 59.922626
-0.852 -13.75108 64.879307
-0.464083 -12.22543 65.795838
-0.520361 -13.964538 65.992946
-1.218921 -13.45506 63.787455
-0.852 -13.75108 64.879307
-1.275199 -15.194168 63.984564
-2.457025 -15.866292 60.960936
-1.984236 -14.520539 61.874905
-2.11491 -16.243901 61.978743
-2.885941 -17.116227 60.074463
-2.755266 -15.392864 59.970625
-2.457025 -15.866292 60.960936
1.090433 -14.768549 74.438214
1.098833 -13.072023 75.310009
1.118269 -14.791701 75.652306
0.949261 -14.727033 73.185875
1.090433 -14.768549 74.438214
0.831886 -14.673538 71.963951
0.953622 -12.995376 72.873993
0.949261 -14.727033 73.185875
0.608414 -14.584988 70.724533
0.831886 -14.673538 71.963951
-4.348259 -11.89575 86.995449
-4.4635 -10.214289 86.659577
-5.118854 -10.594964 86.749356
-3.569816 -13.188402 87.232586
-4.348259 -11.89575 86.995449
-2.847074 -14.566068 87.295624
-2.970162 -12.892741 86.968708
-3.569816 -13.188402 87.232586
-2.123404 -15.941381 87.346215
-2.847074 -14.566068 87.295624
-2.723058 -16.237043 87.610093
-1.600066 -15.72495 86.908394
-2.123404 -15.941381 87.346215
0.005186 14.145606 75.856849
0.165988 12.313682 75.572575
0.207526 14.197159 74.795231
-0.246048 15.942464 76.054668
-0.287586 14.058988 76.832012
0.005186 14.145606 75.856849
-0.450089 17.752714 76.158348
-0.246048 15.942464 76.054668
-0.588465 9.528483 62.947164
-0.366832 9.778775 64.195648
-0.693099 7.758309 62.633284
-0.826722 9.299728 61.767185
-0.588465 9.528483 62.947164
-0.860632 11.092844 50.579445
-1.093857 11.759294 51.469873
-0.813505 9.181583 50.733232
-0.860632 11.092844 50.579445
-1.08504 8.011699 51.633959
-0.825734 7.298895 50.798512
-0.813505 9.181583 50.733232
-1.38464 13.533562 54.410874
-1.384063 14.062589 55.498822
-1.39427 11.703584 54.448386
-1.355745 12.983526 53.387667
-1.38464 13.533562 54.410874
-1.422295 10.938061 56.456354
-1.34682 12.727623 56.585797
-1.345949 11.412064 57.570559
-2.844494 -8.029438 56.623953
-2.700487 -6.493393 56.663969
-2.70907 -7.226858 57.375759
-3.032405 -9.722738 56.549471
-3.016354 -10.414229 57.315264
-3.195682 -11.374064 56.528992
-2.844494 -8.029438 56.623953
-3.032405 -9.722738 56.549471
3 0 37 35
3 1 40 38
3 1 137 138
3 1 139 141
3 139 38 140
3 139 140 141
3 2 44 42
3 2 47 45
3 2 42 47
3 3 50 49
3 4 54 52
3 4 57 55
3 4 52 57
3 6 61 59
3 5 63 62
3 7 66 64
3 7 142 144
3 144 143 66
3 142 143 144
3 7 145 147
3 145 67 146
3 145 146 147
3 6 70 68
3 6 59 70
3 8 74 72
3 8 76 74
3 149 148 77
3 9 81 79
3 150 82 151
3 152 151 36
3 150 151 152
3 154 153 82
3 11 85 83
3 13 86 39
3 13 155 157
3 157 156 86
3 155 156 157
3 158 87 159
3 11 88 41
3 11 83 88
3 15 91 89
3 17 92 43
3 17 160 162
3 162 161 92
3 160 161 162
3 18 95 93
3 20 96 46
3 20 97 96
3 20 99 97
3 15 100 48
3 15 89 100
3 22 163 164
3 22 165 166
3 10 101 80
3 167 102 168
3 169 168 51
3 167 168 169
3 171 170 102
3 23 105 103
3 172 106 173
3 174 173 53
3 172 173 174
3 176 175 106
3 12 107 84
3 177 108 178
3 14 179 180
3 25 109 56
3 25 110 109
3 25 111 110
3 23 112 58
3 23 103 112
3 26 115 113
3 28 116 60
3 28 117 116
3 16 118 90
3 181 119 182
3 184 183 119
3 24 120 104
3 29 185 186
3 29 187 188
3 19 121 94
3 190 189 65
3 30 191 192
3 30 193 195
3 193 122 194
3 193 194 195
3 21 123 98
3 31 124 69
3 31 125 124
3 31 126 125
3 26 127 71
3 26 113 127
3 33 196 198
3 196 129 197
3 196 197 198
3 33 130 129
3 199 131 200
3 34 132 73
3 34 133 132
3 34 134 133
3 32 135 75
3 32 128 135
3 27 136 114
3 202 201 78
3 35 36 9
3 37 36 35
3 37 203 205
3 205 204 36
3 203 204 205
3 38 39 11
3 40 39 38
3 40 13 39
3 206 41 207
3 38 208 210
3 208 41 209
3 208 209 210
3 38 11 41
3 42 43 15
3 44 43 42
3 44 17 43
3 45 46 18
3 47 46 45
3 47 20 46
3 47 48 20
3 42 48 47
3 42 15 48
3 49 211 212
3 50 213 215
3 215 214 49
3 213 214 215
3 50 216 218
3 216 22 217
3 216 217 218
3 219 51 220
3 221 220 10
3 219 220 221
3 222 51 223
3 225 224 51
3 52 53 23
3 54 53 52
3 54 226 228
3 228 227 53
3 226 227 228
3 230 229 12
3 55 56 14
3 57 56 55
3 57 25 56
3 57 58 25
3 52 58 57
3 52 23 58
3 59 60 26
3 61 60 59
3 61 28 60
3 232 231 16
3 234 233 24
3 62 235 236
3 63 237 239
3 239 238 62
3 237 238 239
3 63 240 242
3 240 29 241
3 240 241 242
3 64 65 19
3 66 65 64
3 66 243 245
3 245 244 65
3 243 244 245
3 66 246 247
3 249 248 66
3 67 250 251
3 67 252 254
3 252 30 253
3 252 253 254
3 68 69 21
3 70 69 68
3 70 31 69
3 70 71 31
3 59 71 70
3 59 26 71
3 255 33 256
3 72 257 259
3 257 73 258
3 257 258 259
3 74 73 72
3 74 34 73
3 74 75 34
3 76 75 74
3 76 32 75
3 77 78 27
3 260 78 261
3 262 261 77
3 260 261 262
3 264 263 78
3 79 80 3
3 81 80 79
3 81 10 80
3 36 81 9
3 82 81 36
3 82 10 81
3 82 265 267
3 267 266 10
3 265 266 267
3 269 268 82
3 83 84 4
3 85 84 83
3 85 12 84
3 39 85 11
3 86 85 39
3 86 12 85
3 86 270 272
3 272 271 12
3 270 271 272
3 274 273 86
3 87 275 276
3 87 277 279
3 277 14 278
3 277 278 279
3 41 280 282
3 280 87 281
3 280 281 282
3 88 87 41
3 88 14 87
3 88 55 14
3 83 55 88
3 83 4 55
3 89 90 6
3 91 90 89
3 91 16 90
3 43 91 15
3 92 91 43
3 92 16 91
3 92 283 285
3 285 284 16
3 283 284 285
3 287 286 92
3 93 94 5
3 95 94 93
3 95 19 94
3 46 95 18
3 96 95 46
3 96 19 95
3 96 64 19
3 97 64 96
3 97 7 64
3 97 98 7
3 99 98 97
3 99 21 98
3 48 99 20
3 100 99 48
3 100 21 99
3 100 68 21
3 89 68 100
3 89 6 68
3 288 72 289
3 290 72 291
3 292 8 293
3 294 293 72
3 292 293 294
3 80 50 3
3 101 50 80
3 101 22 50
3 51 101 10
3 102 101 51
3 102 22 101
3 102 295 297
3 297 296 22
3 295 296 297
3 300 299 102
3 298 299 300
3 103 104 2
3 105 104 103
3 105 24 104
3 53 105 23
3 106 105 53
3 106 24 105
3 106 301 303
3 303 302 24
3 301 302 303
3 305 304 106
3 84 54 4
3 107 54 84
3 107 306 308
3 308 307 54
3 306 307 308
3 309 107 310
3 311 310 12
3 309 310 311
3 312 107 313
3 315 314 107
3 316 62 317
3 108 318 320
3 318 62 319
3 318 319 320
3 108 5 62
3 56 321 323
3 323 322 14
3 321 322 323
3 109 324 326
3 326 325 56
3 324 325 326
3 109 327 328
3 109 329 331
3 329 108 330
3 329 330 331
3 110 108 109
3 110 5 108
3 110 93 5
3 111 93 110
3 111 18 93
3 58 111 25
3 112 111 58
3 112 18 111
3 112 45 18
3 103 45 112
3 103 2 45
3 333 332 1
3 334 1 335
3 113 114 0
3 115 114 113
3 115 27 114
3 60 115 26
3 116 115 60
3 116 27 115
3 116 77 27
3 117 77 116
3 117 336 338
3 338 337 77
3 336 337 338
3 90 61 6
3 118 61 90
3 118 28 61
3 339 118 340
3 341 340 16
3 339 340 341
3 119 342 344
3 342 118 343
3 342 343 344
3 119 28 118
3 119 117 28
3 345 117 346
3 347 346 119
3 345 346 347
3 350 349 117
3 348 349 350
3 104 44 2
3 120 44 104
3 120 17 44
3 351 120 352
3 353 352 24
3 351 352 353
3 354 120 355
3 356 17 357
3 358 357 120
3 356 357 358
3 360 359 17
3 361 40 362
3 363 362 1
3 361 362 363
3 364 40 365
3 366 13 367
3 368 367 40
3 366 367 368
3 369 13 370
3 369 370 371
3 373 372 13
3 94 63 5
3 121 63 94
3 121 29 63
3 65 121 19
3 374 121 375
3 376 375 65
3 374 375 376
3 377 29 378
3 379 378 121
3 377 378 379
3 381 380 29
3 122 382 383
3 122 384 386
3 384 8 385
3 384 385 386
3 98 67 7
3 123 67 98
3 123 30 67
3 69 123 21
3 124 123 69
3 124 30 123
3 124 122 30
3 125 122 124
3 125 8 122
3 125 76 8
3 126 76 125
3 126 32 76
3 71 126 31
3 127 126 71
3 127 32 126
3 127 128 32
3 113 128 127
3 113 0 128
3 129 387 388
3 129 389 390
3 129 391 393
3 391 49 392
3 391 392 393
3 130 49 129
3 130 3 49
3 131 394 395
3 131 396 398
3 396 33 397
3 396 397 398
3 73 399 401
3 399 131 400
3 399 400 401
3 132 131 73
3 132 33 131
3 132 130 33
3 133 130 132
3 133 3 130
3 133 79 3
3 134 79 133
3 134 9 79
3 75 134 34
3 135 134 75
3 135 9 134
3 135 35 9
3 128 35 135
3 128 0 35
3 114 37 0
3 136 37 114
3 136 402 404
3 404 403 37
3 402 403 404
3 78 136 27
3 405 136 406
3 407 406 78
3 405 406 407
3 409 408 136
