ply
format ascii 1.0
element vertex 363
property float x
property float y
property float z
element face 398
property list uchar int vertex_index
end_header
-0.439129 -19.309406 48.04501
-4.622086 -30.344624 60.4174
-2.854338 -10.933605 52.84005
3.757061 -12.830784 42.970955
2.462662 -28.929787 43.979141
-3.184181 -16.642799 59.084152
-4.967514 -25.652641 52.685211
-2.414633 -34.195454 48.994167
-2.835911 -7.295973 55.912163
0.412281 -11.32775 47.923992
2.531281 -7.64751 45.329384
2.012445 -15.999638 45.766693
3.21386 -21.142952 43.495796
1.217978 -23.960777 46.138767
-3.918207 -23.573986 59.483421
-4.575722 -21.269646 55.621223
-5.499937 -28.308636 56.105965
-4.971087 -43.55582 53.127094
-4.827387 -36.963051 51.581001
-3.085073 -41.053482 50.011929
-0.713364 -38.516571 47.300755
-1.583633 -45.283081 47.991829
-1.121382 -7.159113 50.318264
-1.979652 -14.955071 50.175922
-6.151142 -35.094131 57.331894
4.04377 -4.138992 42.207451
4.44104 -18.657646 40.375229
-3.631863 -14.167906 55.651459
-3.87653 -18.335527 52.578491
-3.06027 -22.583088 50.145615
-5.849472 -32.745804 53.453724
-4.109413 -29.946407 50.558735
-1.458736 -26.949213 48.334381
0.270172 -31.449884 46.643745
0.020735 -15.355077 47.982456
1.238115 -13.603702 46.837448
0.855446 -17.648905 46.959763
1.642076 -20.037386 45.945129
0.412491 -21.599108 47.094185
-4.286694 -26.990578 59.869232
-4.824955 -25.987673 57.7244
-5.213488 -29.413506 58.164047
-4.115389 -45.540138 52.227734
-4.124941 -42.328911 51.485741
-3.255737 -44.344616 50.605011
-2.255301 -43.127617 49.100555
-2.491133 -46.413147 49.570148
-2.42613 -7.240344 53.009033
-2.070368 -9.094697 51.569843
-1.510807 -11.071278 50.254917
-2.525454 -12.900584 51.437557
3.210697 -10.157142 44.169941
3.359829 -5.856304 43.832138
3.936943 -8.517729 42.63385
4.537235 -6.972989 40.983353
4.377815 -11.364208 41.386436
4.163116 -15.665376 41.710232
2.863323 -25.104591 43.735359
3.596458 -23.895987 42.23164
-3.553602 -15.504477 57.279057
-4.927172 -23.477858 54.05983
-4.402027 -19.871012 53.999775
-4.429026 -22.013573 52.564358
-3.596422 -20.444542 51.269894
-4.156218 -24.15538 51.323532
-6.388508 -37.329163 56.060444
-6.18877 -33.991356 55.270626
-6.117973 -36.16555 54.122562
-3.707394 -35.592415 50.216682
-4.527475 -33.503002 50.993446
-3.318356 -32.073078 49.743744
-2.845245 -28.457973 49.400368
-1.9594 -30.622105 48.613605
-0.564827 -29.17802 47.515533
-1.053261 -32.805359 47.83054
0.451832 -37.324608 45.923676
-2.951241 -9.059937 54.352409
0.715033 -7.246156 47.828972
1.748606 -5.305266 46.480881
1.541058 -9.481236 46.689949
2.313576 -11.862181 45.572922
2.981262 -14.384893 44.437149
3.513405 -17.047089 43.248566
2.682121 -18.512424 44.66563
2.32373 -22.520571 44.884933
1.915119 -26.399937 45.116684
-3.542048 -20.11451 59.23415
-3.966818 -19.003342 57.317677
-4.399565 -22.509506 57.452637
-5.055624 -24.810678 55.780632
-5.424225 -27.046671 54.274994
-5.72213 -41.546333 54.010941
-5.687668 -38.270332 53.152489
-4.981522 -40.316879 52.302219
-3.983751 -39.012123 50.805531
-2.797741 -37.671486 49.466839
-1.512281 -36.332756 48.211246
-1.920546 -39.770142 48.641415
-1.175732 -41.929653 47.650227
-0.09808 -5.161703 49.031197
-0.398054 -9.177349 49.072033
-0.792294 -13.160398 49.066669
-1.262051 -17.093056 49.054893
-4.902403 -33.621311 61.1413
-5.536839 -32.768188 58.789459
-5.770075 -36.034668 59.604118
-6.300323 -38.34388 58.232002
3.901299 -19.848764 41.98381
-3.211733 -10.682573 55.763199
-3.393074 -12.636833 54.184036
-4.092247 -17.710943 55.592014
-3.881985 -16.248747 54.055206
-3.343193 -14.636349 52.684776
-3.042198 -16.688305 51.322914
-2.505894 -18.7966 50.124306
-1.782038 -20.960657 49.080658
-5.875452 -31.742792 56.620483
-5.856707 -30.557503 54.674164
-5.453979 -29.235687 52.975201
-5.485359 -34.87899 52.437508
-5.139809 -31.386433 51.890823
-4.683989 -27.807203 51.522156
-3.607601 -26.303139 50.280624
-2.321314 -24.751783 49.185204
-0.941908 -23.176994 48.151501
-0.068657 -25.443434 47.272469
0.755756 -27.763966 46.368805
1.463142 -30.151714 45.370712
-0.224672 -35.028961 46.959145
0.973139 -33.787033 45.644089
2.009243 -32.628071 44.226376
-3.273789 -45.945847 50.913969
-3.685563 -44.942377 51.416372
-3.703616 -46.543608 51.72533
-2.891488 -46.980112 50.396538
-2.873435 -45.378882 50.08758
-3.273789 -45.945847 50.913969
2.85478 -28.365097 43.223903
3.055111 -26.452499 43.102013
2.662992 -27.017189 43.85725
2.653796 -30.248997 43.338329
2.85478 -28.365097 43.223903
-3.368892 -16.073638 58.181605
-3.210133 -14.356499 58.133606
-3.025423 -14.92566 59.036153
-6.173886 -37.821388 54.544415
-6.253241 -36.747357 55.091503
-6.309153 -38.403194 55.513356
-2.698751 -6.412076 55.228039
-2.664302 -5.650513 56.017322
-2.893576 -8.177955 55.132286
-2.756416 -7.294059 54.448162
-2.698751 -6.412076 55.228039
-1.101904 -44.739408 47.212418
-0.897953 -43.062694 47.041617
-1.379682 -43.606367 47.821028
-0.973773 -5.196148 50.324803
-1.407253 -6.220317 51.000782
-0.609731 -6.160408 49.67473
-0.462122 -4.197444 49.681269
-0.973773 -5.196148 50.324803
-5.439908 -36.420651 60.823152
-5.336239 -34.82799 60.372709
-5.006072 -35.213972 61.591743
-6.30119 -39.908856 58.765263
-6.096315 -38.769894 59.414854
-6.36541 -39.447979 57.627869
-6.30119 -39.908856 58.765263
2.592545 -5.515902 45.166717
2.201207 -4.34478 45.742466
2.139944 -6.476388 45.905132
3.731476 -2.827046 42.801529
3.389506 -3.685701 43.613872
3.701799 -4.997648 43.019795
4.056097 -1.934538 41.937197
3.731476 -2.827046 42.801529
4.33749 -3.332362 41.340221
4.056097 -1.934538 41.937197
4.807584 -6.260764 40.110236
4.723951 -8.491307 40.344655
4.677368 -18.121389 39.534546
4.567915 -16.523668 40.225458
4.528946 -20.229647 39.667991
4.677368 -18.121389 39.534546
3.876205 -23.343341 41.431296
3.71792 -25.33667 41.546568
-3.421798 -12.425239 55.707329
-3.195682 -11.374064 56.528992
-3.405747 -13.11673 56.473122
1.236646 -35.003033 45.054672
0.712485 -35.55582 45.783883
0.975993 -36.77182 45.194466
1.754698 -34.423552 44.345816
1.491191 -33.207552 44.935232
1.236646 -35.003033 45.054672
2.194386 -33.922808 43.567643
1.754698 -34.423552 44.345816
-2.700487 -6.493393 56.663969
-2.664302 -5.650513 56.017322
-2.059627 -6.260932 52.346167
-2.246519 -5.399864 53.088518
-1.881746 -7.188109 51.626571
-2.059627 -6.260932 52.346167
-2.248249 -8.167521 52.289438
-1.595875 -8.126905 50.944053
-1.407253 -6.220317 51.000782
-1.881746 -7.188109 51.626571
4.644241 -10.686916 40.546196
4.723951 -8.491307 40.344655
4.457525 -9.168598 41.184894
4.536302 -12.876949 40.731062
4.644241 -10.686916 40.546196
4.428953 -15.027534 40.89296
4.536302 -12.876949 40.731062
4.270466 -13.514792 41.548334
4.302078 -17.161511 41.04273
4.567915 -16.523668 40.225458
4.428953 -15.027534 40.89296
3.421679 -25.848197 42.350153
3.22989 -24.500289 42.9835
3.055111 -26.452499 43.102013
3.71792 -25.33667 41.546568
3.421679 -25.848197 42.350153
-3.366616 -13.785016 57.286921
-3.210133 -14.356499 58.133606
-3.592733 -14.836191 56.465258
-3.405747 -13.11673 56.473122
-3.366616 -13.785016 57.286921
0.182103 -39.05578 46.057692
-0.130766 -37.920589 46.612216
-0.400496 -39.651762 46.746232
0.695091 -38.526621 45.300823
0.182103 -39.05578 46.057692
0.975993 -36.77182 45.194466
0.695091 -38.526621 45.300823
-2.49386 -6.384262 53.776474
-2.246519 -5.399864 53.088518
-2.688686 -8.15014 53.680721
-2.49386 -6.384262 53.776474
-2.756416 -7.294059 54.448162
1.23182 -6.275711 47.154927
1.331375 -4.219338 47.071724
0.814588 -5.189783 47.74577
-5.704899 -39.908333 53.581715
-5.958734 -38.873779 54.059378
-5.975964 -40.51178 54.488604
-0.631679 -41.358303 46.920968
-0.400496 -39.651762 46.746232
-0.944548 -40.223112 47.475491
-0.631679 -41.358303 46.920968
-0.897953 -43.062694 47.041617
-0.001266 -3.147844 48.972681
-0.462122 -4.197444 49.681269
0.408031 -4.147557 48.346882
-0.001266 -3.147844 48.972681
0.308477 -6.20393 48.430084
0.814588 -5.189783 47.74577
0.408031 -4.147557 48.346882
-5.831191 -37.615288 60.100912
-5.439908 -36.420651 60.823152
-6.035199 -37.189274 58.91806
-5.831191 -37.615288 60.100912
-6.096315 -38.769894 59.414854
-6.409503 -38.940621 56.54209
-6.344416 -37.836522 57.146223
-6.36541 -39.447979 57.627869
-6.309153 -38.403194 55.513356
-6.409503 -38.940621 56.54209
-5.943225 -42.105325 54.983141
-5.975964 -40.51178 54.488604
-5.6485 -43.120662 54.494406
-5.943225 -42.105325 54.983141
-5.272979 -44.125406 54.052482
-5.346609 -42.551076 53.569018
-5.6485 -43.120662 54.494406
-4.87939 -45.114629 53.57394
-5.272979 -44.125406 54.052482
-4.451541 -46.106789 53.12426
-4.543238 -44.547979 52.677414
-4.87939 -45.114629 53.57394
-4.031511 -47.092178 52.615313
-4.451541 -46.106789 53.12426
-3.703616 -46.543608 51.72533
-4.031511 -47.092178 52.615313
1.799114 -3.204727 46.330922
1.331375 -4.219338 47.071724
1.799114 -3.204727 46.330922
2.201207 -4.34478 45.742466
3.006819 -4.620299 44.418094
2.592545 -5.515902 45.166717
2.945555 -6.751907 44.580761
3.006819 -4.620299 44.418094
3.389506 -3.685701 43.613872
4.584223 -4.74936 40.728172
4.33749 -3.332362 41.340221
4.290503 -5.555991 41.595402
4.584223 -4.74936 40.728172
4.807584 -6.260764 40.110236
4.028626 -21.31973 41.307381
3.748879 -21.872376 42.107725
3.876205 -23.343341 41.431296
4.298496 -20.72417 40.50309
4.171169 -19.253205 41.179519
4.028626 -21.31973 41.307381
4.528946 -20.229647 39.667991
4.298496 -20.72417 40.50309
-2.755266 -15.392864 59.970625
-3.025423 -14.92566 59.036153
-2.885941 -17.116227 60.074463
-2.755266 -15.392864 59.970625
-3.064874 -18.852083 60.149462
-3.363115 -18.378654 59.159151
-2.885941 -17.116227 60.074463
-3.21571 -20.576895 60.281168
-3.064874 -18.852083 60.149462
-3.40379 -22.306633 60.405804
-3.730128 -21.844248 59.358785
-3.21571 -20.576895 60.281168
-3.563264 -24.013751 60.586917
-3.40379 -22.306633 60.405804
-3.747508 -25.722047 60.779823
-4.10245 -25.282282 59.676327
-3.563264 -24.013751 60.586917
-3.903935 -27.400492 61.026196
-3.747508 -25.722047 60.779823
-4.071632 -29.077515 61.30028
-4.45439 -28.667601 60.143316
-3.903935 -27.400492 61.026196
-4.215202 -30.720783 61.622175
-4.071632 -29.077515 61.30028
-4.35536 -32.359127 61.984125
-4.762244 -31.982968 60.77935
-4.215202 -30.720783 61.622175
-4.478902 -33.96216 62.386764
-4.35536 -32.359127 61.984125
-5.006072 -35.213972 61.591743
-4.478902 -33.96216 62.386764
-2.844494 -8.029438 56.623953
-2.700487 -6.493393 56.663969
-3.032405 -9.722738 56.549471
-3.195682 -11.374064 56.528992
-3.023822 -8.989273 55.837681
-2.844494 -8.029438 56.623953
-3.032405 -9.722738 56.549471
-5.902821 -37.217941 53.637526
-6.173886 -37.821388 54.544415
-5.958734 -38.873779 54.059378
2.427086 -32.098139 43.461946
2.653796 -30.248997 43.338329
2.235952 -30.778929 44.102759
2.427086 -32.098139 43.461946
2.194386 -33.922808 43.567643
-2.546229 -48.022054 49.804331
-2.891488 -46.980112 50.396538
-2.19588 -47.499832 48.944016
-2.546229 -48.022054 49.804331
-1.74213 -46.934799 48.154856
-2.037383 -45.848114 48.780989
-2.19588 -47.499832 48.944016
-1.344842 -46.42516 47.316578
-1.74213 -46.934799 48.154856
-1.101904 -44.739408 47.212418
-1.344842 -46.42516 47.316578
3 0 36 34
3 0 38 36
3 1 41 39
3 131 44 132
3 133 132 42
3 131 132 133
3 134 46 135
3 136 135 44
3 134 135 136
3 2 48 47
3 2 50 48
3 3 53 51
3 3 55 53
3 3 56 55
3 4 137 139
3 139 138 57
3 137 138 139
3 4 140 141
3 5 142 144
3 142 59 143
3 142 143 144
3 6 62 60
3 6 64 62
3 145 67 146
3 147 146 65
3 145 146 147
3 7 70 68
3 7 72 70
3 7 74 72
3 8 148 149
3 8 150 152
3 150 76 151
3 150 151 152
3 9 79 77
3 11 80 35
3 11 81 80
3 11 83 81
3 13 84 37
3 13 85 84
3 14 88 86
3 16 89 40
3 16 90 89
3 17 93 91
3 19 94 43
3 19 95 94
3 19 97 95
3 21 98 45
3 21 153 155
3 155 154 98
3 153 154 155
3 22 156 157
3 22 158 160
3 158 99 159
3 158 159 160
3 22 100 99
3 23 101 49
3 23 102 101
3 161 105 162
3 163 162 103
3 161 162 163
3 164 106 165
3 167 166 106
3 10 168 170
3 170 169 78
3 168 169 170
3 25 171 173
3 173 172 52
3 171 172 173
3 25 174 175
3 25 176 177
3 179 178 54
3 26 180 181
3 26 182 183
3 12 107 82
3 185 184 58
3 27 186 188
3 186 108 187
3 186 187 188
3 27 109 108
3 15 110 87
3 28 111 61
3 28 112 111
3 28 113 112
3 29 114 63
3 29 115 114
3 24 116 104
3 30 117 66
3 30 118 117
3 18 119 92
3 31 120 69
3 31 121 120
3 31 122 121
3 32 123 71
3 32 124 123
3 32 125 124
3 33 126 73
3 33 127 126
3 20 128 96
3 189 129 190
3 191 190 75
3 189 190 191
3 192 130 193
3 194 193 129
3 192 193 194
3 196 195 130
3 197 8 198
3 34 35 9
3 36 35 34
3 36 11 35
3 36 37 11
3 38 37 36
3 38 13 37
3 39 40 14
3 41 40 39
3 41 16 40
3 42 43 17
3 44 43 42
3 44 19 43
3 44 45 19
3 46 45 44
3 46 21 45
3 47 199 200
3 48 201 203
3 203 202 47
3 201 202 203
3 48 204 206
3 204 22 205
3 204 205 206
3 48 49 22
3 50 49 48
3 50 23 49
3 51 52 10
3 53 52 51
3 53 25 52
3 53 54 25
3 55 54 53
3 55 207 209
3 209 208 54
3 207 208 209
3 55 210 211
3 56 212 214
3 214 213 55
3 212 213 214
3 56 215 217
3 215 26 216
3 215 216 217
3 57 58 12
3 218 58 219
3 220 219 57
3 218 219 220
3 222 221 58
3 59 223 224
3 59 225 227
3 225 27 226
3 225 226 227
3 60 61 15
3 62 61 60
3 62 28 61
3 62 63 28
3 64 63 62
3 64 29 63
3 65 66 24
3 67 66 65
3 67 30 66
3 68 69 18
3 70 69 68
3 70 31 69
3 70 71 31
3 72 71 70
3 72 32 71
3 72 73 32
3 74 73 72
3 74 33 73
3 228 75 229
3 230 229 20
3 228 229 230
3 231 75 232
3 234 233 75
3 235 47 236
3 76 237 239
3 237 47 238
3 237 238 239
3 76 2 47
3 77 240 242
3 240 78 241
3 240 241 242
3 79 78 77
3 79 10 78
3 35 79 9
3 80 79 35
3 80 10 79
3 80 51 10
3 81 51 80
3 81 3 51
3 81 82 3
3 83 82 81
3 83 12 82
3 37 83 11
3 84 83 37
3 84 12 83
3 84 57 12
3 85 57 84
3 85 4 57
3 86 87 5
3 88 87 86
3 88 15 87
3 40 88 14
3 89 88 40
3 89 15 88
3 89 60 15
3 90 60 89
3 90 6 60
3 91 243 245
3 243 92 244
3 243 244 245
3 93 92 91
3 93 18 92
3 43 93 17
3 94 93 43
3 94 18 93
3 94 68 18
3 95 68 94
3 95 7 68
3 95 96 7
3 97 96 95
3 97 20 96
3 45 97 19
3 98 97 45
3 98 20 97
3 98 246 248
3 248 247 20
3 246 247 248
3 250 249 98
3 99 251 252
3 99 253 254
3 99 255 257
3 255 77 256
3 255 256 257
3 100 77 99
3 100 9 77
3 49 100 22
3 101 100 49
3 101 9 100
3 101 34 9
3 102 34 101
3 102 0 34
3 103 104 1
3 105 104 103
3 105 24 104
3 258 105 259
3 106 260 262
3 260 105 261
3 260 261 262
3 106 24 105
3 106 65 24
3 263 65 264
3 265 264 106
3 263 264 265
3 267 266 65
3 268 91 269
3 270 91 271
3 272 17 273
3 274 273 91
3 272 273 274
3 275 17 276
3 277 42 278
3 279 278 17
3 277 278 279
3 280 42 281
3 283 282 42
3 78 284 285
3 287 286 78
3 52 288 290
3 290 289 10
3 288 289 290
3 292 291 52
3 54 293 295
3 295 294 25
3 293 294 295
3 297 296 54
3 82 56 3
3 107 56 82
3 107 26 56
3 58 107 12
3 298 107 299
3 300 299 58
3 298 299 300
3 301 26 302
3 303 302 107
3 301 302 303
3 305 304 26
3 306 5 307
3 308 5 309
3 310 86 311
3 312 311 5
3 310 311 312
3 313 86 314
3 315 14 316
3 317 316 86
3 315 316 317
3 318 14 319
3 320 39 321
3 322 321 14
3 320 321 322
3 323 39 324
3 325 1 326
3 327 326 39
3 325 326 327
3 328 1 329
3 330 103 331
3 332 331 1
3 330 331 332
3 333 103 334
3 336 335 103
3 337 8 338
3 108 339 340
3 108 341 343
3 341 8 342
3 341 342 343
3 108 76 8
3 109 76 108
3 109 2 76
3 87 59 5
3 110 59 87
3 110 27 59
3 61 110 15
3 111 110 61
3 111 27 110
3 111 109 27
3 112 109 111
3 112 2 109
3 112 50 2
3 113 50 112
3 113 23 50
3 63 113 28
3 114 113 63
3 114 23 113
3 114 102 23
3 115 102 114
3 115 0 102
3 104 41 1
3 116 41 104
3 116 16 41
3 66 116 24
3 117 116 66
3 117 16 116
3 117 90 16
3 118 90 117
3 118 6 90
3 92 344 346
3 344 67 345
3 344 345 346
3 119 67 92
3 119 30 67
3 69 119 18
3 120 119 69
3 120 30 119
3 120 118 30
3 121 118 120
3 121 6 118
3 121 64 6
3 122 64 121
3 122 29 64
3 71 122 31
3 123 122 71
3 123 29 122
3 123 115 29
3 124 115 123
3 124 0 115
3 124 38 0
3 125 38 124
3 125 13 38
3 73 125 32
3 126 125 73
3 126 13 125
3 126 85 13
3 127 85 126
3 127 4 85
3 96 74 7
3 128 74 96
3 128 33 74
3 75 128 20
3 129 128 75
3 129 33 128
3 129 127 33
3 130 127 129
3 130 4 127
3 130 347 349
3 349 348 4
3 347 348 349
3 351 350 130
3 352 46 353
3 354 46 355
3 356 21 357
3 358 357 46
3 356 357 358
3 359 21 360
3 362 361 21
