ply
format ascii 1.0
element vertex 184
property float x
property float y
property float z
element face 176
property list uchar int vertex_index
end_header
2.434093 40.630913 36.859573
0.287195 54.229294 14.779689
-0.439602 34.470009 33.39624
1.485544 47.925331 27.065704
1.41721 37.992821 35.159859
0.487524 41.364658 29.968483
2.069286 44.058056 32.571877
2.117649 35.333263 39.922699
0.758041 31.295033 38.522457
-1.441568 47.585472 18.319355
-1.688745 37.663418 27.963276
-0.492823 44.721798 24.300434
0.870848 51.417725 21.060843
2.066063 39.479671 36.067913
1.754442 41.069252 33.738106
2.298969 42.179382 34.976437
2.308657 38.317753 38.227436
1.810558 36.543282 37.561516
-0.588524 50.963318 16.484455
-1.503771 32.455616 32.570915
-2.174643 33.999641 29.869562
-1.064289 36.090977 30.718613
0.990978 44.674843 28.439642
-0.003511 43.082428 27.182476
0.585905 46.448486 25.574833
0.183834 48.113045 22.614086
1.176294 49.742287 24.107464
0.174631 32.854206 35.994026
-0.169611 29.260441 37.765339
-0.832447 30.86134 35.202667
0.557539 36.313866 34.259285
0.004059 37.969429 31.633476
0.967831 39.636753 32.634373
1.387182 42.851292 31.176252
1.789 46.0093 29.903934
1.541557 33.299675 39.254307
1.079609 34.738705 36.789078
-2.228003 44.091564 20.252853
-0.560564 39.632614 28.908064
-1.124487 41.23872 26.094208
-1.681803 42.737606 23.205526
-0.973789 46.23455 21.341606
-0.209023 49.628006 19.579136
0.573729 52.921318 17.946762
2.485762 44.916103 34.230209
2.330635 47.066841 31.618816
2.140802 49.155556 28.806721
1.523623 54.64669 19.659843
1.323967 56.126617 16.467333
-0.331168 53.16174 14.059964
-0.769027 51.528751 14.912347
-0.150665 52.596306 15.632072
0.15034 54.775288 13.175261
-0.331168 53.16174 14.059964
1.829603 34.316469 39.588503
1.725307 32.653742 40.481087
2.013354 33.670536 40.815283
-2.09859 46.428082 17.78131
-2.491808 44.681128 18.748059
-1.834786 45.838518 19.286104
-2.265705 36.558453 27.533155
-2.508654 34.726564 28.486298
-1.931694 35.83153 28.916419
-1.998644 38.402226 26.550638
-2.265705 36.558453 27.533155
0.611657 29.494377 39.395105
1.019363 30.561457 39.76441
-0.319526 27.405857 38.634752
-0.669932 28.205601 37.379534
2.556536 45.15656 35.230877
2.531529 43.825464 35.393304
2.419059 48.603397 31.221857
2.457776 47.449733 32.622747
2.324142 49.647755 29.81581
2.235718 48.111199 30.212768
2.419059 48.603397 31.221857
1.808517 56.231701 19.041424
1.861432 55.406402 20.651521
1.708689 56.971664 17.445169
1.423795 55.386654 18.063588
1.808517 56.231701 19.041424
-1.238927 49.854866 15.863504
-1.665449 48.165943 16.780954
-1.015046 49.274395 17.401905
-1.238927 49.854866 15.863504
-0.769027 51.528751 14.912347
-1.839207 33.227628 31.220239
-2.377327 32.126911 30.820211
-2.041891 31.354898 32.170888
-1.00135 29.006051 36.098198
-0.669932 28.205601 37.379534
-0.501029 30.06089 36.484003
-1.354188 29.796194 34.809242
-1.00135 29.006051 36.098198
-1.68985 30.593332 33.493366
-1.354188 29.796194 34.809242
-1.168109 31.658478 33.886791
-2.041891 31.354898 32.170888
-1.68985 30.593332 33.493366
1.411121 31.563778 40.130335
1.725307 32.653742 40.481087
1.149799 32.297354 38.888382
1.019363 30.561457 39.76441
1.411121 31.563778 40.130335
-2.872229 42.881733 19.779218
-2.574126 42.28931 21.25164
-2.872229 42.881733 19.779218
-2.491808 44.681128 18.748059
-2.09859 46.428082 17.78131
-1.665449 48.165943 16.780954
-2.728682 32.842703 29.466148
-2.377327 32.126911 30.820211
-2.728682 32.842703 29.466148
-2.508654 34.726564 28.486298
-1.716515 40.189876 25.616104
-1.998644 38.402226 26.550638
-1.406616 39.451069 27.028742
-1.995173 40.939319 24.171763
-1.716515 40.189876 25.616104
-1.403145 41.988163 24.649867
-2.301025 41.612331 22.727976
-1.995173 40.939319 24.171763
-1.954903 43.414585 21.72919
-2.574126 42.28931 21.25164
-2.301025 41.612331 22.727976
0.147831 28.477082 39.016546
0.611657 29.494377 39.395105
0.294215 30.277737 38.143898
0.147831 28.477082 39.016546
-0.319526 27.405857 38.634752
2.505695 41.682869 36.707986
2.498334 40.481806 37.715898
2.210793 34.815 41.133406
2.013354 33.670536 40.815283
2.284968 36.417027 40.188961
2.210793 34.815 41.133406
2.380472 37.909272 39.34133
2.213153 36.825508 39.075068
2.284968 36.417027 40.188961
2.435615 39.325226 38.39983
2.380472 37.909272 39.34133
2.498334 40.481806 37.715898
2.371375 39.474333 37.543504
2.435615 39.325226 38.39983
2.438133 42.457104 35.766419
2.366531 41.405147 35.918005
2.505695 41.682869 36.707986
2.392365 43.547742 34.603323
2.438133 42.457104 35.766419
2.531529 43.825464 35.393304
2.53534 46.374364 33.928444
2.556536 45.15656 35.230877
2.408199 45.991472 32.924512
2.53534 46.374364 33.928444
2.457776 47.449733 32.622747
2.275688 50.733261 28.338268
2.324142 49.647755 29.81581
2.038366 50.146507 27.329493
2.275688 50.733261 28.338268
1.710737 49.531395 26.458984
1.813173 48.540443 27.936212
2.038366 50.146507 27.329493
1.556112 50.439873 24.979864
1.330919 48.833809 25.586584
1.710737 49.531395 26.458984
1.452239 51.359509 23.450944
1.556112 50.439873 24.979864
1.299516 52.197227 21.927633
1.023571 50.580006 22.584153
1.452239 51.359509 23.450944
1.625903 53.81171 21.227134
1.861432 55.406402 20.651521
1.197235 53.032207 20.360343
1.299516 52.197227 21.927633
1.625903 53.81171 21.227134
1.655091 57.695629 15.811639
1.708689 56.971664 17.445169
1.2262 56.762779 14.849184
1.655091 57.695629 15.811639
0.707814 55.814118 14.005362
0.805581 55.177956 15.623511
1.2262 56.762779 14.849184
0.15034 54.775288 13.175261
0.707814 55.814118 14.005362
3 0 15 13
3 0 13 16
3 1 49 51
3 51 50 18
3 49 50 51
3 1 52 53
3 2 21 19
3 3 24 22
3 3 26 24
3 2 29 27
3 2 19 29
3 4 32 30
3 6 33 14
3 6 34 33
3 7 54 56
3 54 35 55
3 54 55 56
3 4 36 17
3 4 30 36
3 9 57 59
3 59 58 37
3 57 58 59
3 10 60 62
3 62 61 20
3 60 61 62
3 10 63 64
3 5 38 31
3 11 39 23
3 11 40 39
3 11 41 40
3 12 42 25
3 12 43 42
3 8 65 66
3 68 67 28
3 69 44 70
3 71 45 72
3 73 46 74
3 75 74 45
3 73 74 75
3 76 47 77
3 78 48 79
3 80 79 47
3 78 79 80
3 13 14 4
3 15 14 13
3 15 6 14
3 16 17 7
3 13 17 16
3 13 4 17
3 18 81 83
3 83 82 9
3 81 82 83
3 85 84 18
3 19 86 88
3 86 20 87
3 86 87 88
3 21 20 19
3 21 10 20
3 22 23 5
3 24 23 22
3 24 11 23
3 24 25 11
3 26 25 24
3 26 12 25
3 27 28 8
3 29 28 27
3 29 89 91
3 91 90 28
3 89 90 91
3 29 92 93
3 19 94 96
3 96 95 29
3 94 95 96
3 19 97 98
3 30 31 2
3 32 31 30
3 32 5 31
3 14 32 4
3 33 32 14
3 33 5 32
3 33 22 5
3 34 22 33
3 34 3 22
3 35 99 100
3 35 101 103
3 101 8 102
3 101 102 103
3 17 35 7
3 36 35 17
3 36 8 35
3 36 27 8
3 30 27 36
3 30 2 27
3 37 104 105
3 107 106 37
3 109 108 9
3 20 110 111
3 113 112 20
3 31 21 2
3 38 21 31
3 38 10 21
3 23 38 5
3 39 38 23
3 39 10 38
3 39 114 116
3 116 115 10
3 114 115 116
3 40 117 119
3 119 118 39
3 117 118 119
3 40 120 121
3 40 122 124
3 122 37 123
3 122 123 124
3 41 37 40
3 41 9 37
3 25 41 11
3 42 41 25
3 42 9 41
3 42 18 9
3 43 18 42
3 43 1 18
3 28 125 127
3 127 126 8
3 125 126 127
3 129 128 28
3 131 130 0
3 132 7 133
3 134 7 135
3 136 16 137
3 138 137 7
3 136 137 138
3 139 16 140
3 141 0 142
3 143 142 16
3 141 142 143
3 144 15 145
3 146 145 0
3 144 145 146
3 44 147 149
3 147 15 148
3 147 148 149
3 44 6 15
3 150 44 151
3 45 152 154
3 152 44 153
3 152 153 154
3 45 6 44
3 45 34 6
3 46 34 45
3 46 3 34
3 155 46 156
3 157 46 158
3 159 3 160
3 161 160 46
3 159 160 161
3 162 26 163
3 164 163 3
3 162 163 164
3 165 26 166
3 167 12 168
3 169 168 26
3 167 168 169
3 47 170 171
3 47 172 174
3 172 12 173
3 172 173 174
3 47 43 12
3 48 43 47
3 48 1 43
3 175 48 176
3 177 48 178
3 179 1 180
3 181 180 48
3 179 180 181
3 183 182 1
