ply
format ascii 1.0
element vertex 255
property float x
property float y
property float z
element face 257
property list uchar int vertex_index
end_header
-1.269779 -119.455109 -3.612608
-1.128853 -112.538086 -8.877348
-6.135807 -119.773987 -15.378782
-1.681715 -122.978607 4.881916
-0.236984 -114.483932 -0.537788
-1.244701 -116.521637 -6.759668
-0.244686 -119.219437 12.249696
-3.236179 -123.370926 9.52528
-10.419382 -117.037354 -18.927902
-6.193422 -114.968918 -16.419952
-3.582781 -123.457214 -6.78026
-3.272011 -120.57991 -10.092014
-6.531103 -123.449493 -13.157867
0.303291 -116.557159 3.211085
0.529457 -118.148346 7.579461
-1.226929 -121.597137 0.374807
-4.024357 -125.397995 -2.595488
-2.989174 -116.697052 -12.303804
-0.585835 -117.061951 -2.044121
-0.689041 -115.727112 -3.679098
-1.282682 -118.100571 -5.307966
-2.656389 -121.501587 13.18915
-10.667276 -114.383926 -19.01355
-0.713734 -112.315979 -6.221481
-5.188053 -124.957626 -8.296122
-4.964037 -123.694489 -10.119957
-6.785734 -124.890411 -11.575005
0.548342 -113.745361 4.468337
0.900688 -114.570023 6.537403
-0.831512 -121.225586 8.597958
0.300217 -118.76387 9.900546
-0.407196 -120.725677 6.273749
-0.254721 -120.040451 4.003826
-1.347704 -122.392654 2.585512
-2.474993 -123.685379 -1.119631
-2.756922 -124.390671 1.1346
-4.555338 -120.421799 -12.932932
-3.109119 -118.776291 -11.341089
-4.407759 -118.39003 -13.894581
-0.239525 -111.77887 0.86441
-0.435999 -113.185867 -2.104019
-0.724104 -114.160461 -5.074957
-1.175169 -114.679321 -7.949247
-1.130816 -119.468018 14.568202
-1.57679 -121.499832 10.923687
-2.298992 -123.31871 7.214334
-3.270044 -124.832413 3.46559
-4.07242 -124.970963 5.817498
-8.080881 -118.640488 -17.376698
-6.077463 -117.519455 -16.031881
-8.164913 -116.176346 -17.727718
-2.2731 -121.60553 -5.204353
-2.201578 -120.253433 -6.948195
-3.432396 -122.134232 -8.563925
-4.753262 -122.184174 -11.672903
-6.305151 -121.745987 -14.42646
-8.345036 -122.716476 -15.798964
-8.159767 -120.817596 -16.747311
-10.366703 -119.407394 -18.604404
0.140657 -112.830383 2.569769
0.028418 -115.592178 1.242489
-0.43442 -118.208755 -0.195128
0.724182 -116.608459 13.43442
1.065849 -116.015427 11.061554
1.102638 -115.327469 8.747383
0.502108 -117.407303 5.335688
-0.295006 -119.198029 1.833734
-1.230061 -120.615967 -1.705338
-2.342216 -122.750214 -3.247705
-3.757647 -124.550629 -4.776293
-5.464514 -125.961273 -6.237581
-2.098553 -118.677383 -8.444555
-1.978302 -116.847885 -9.670572
-1.892004 -114.732574 -10.620806
-4.37306 -116.068008 -14.57058
-2.980522 -114.318115 -12.992235
-0.921758 -111.34784 -8.002771
-0.714198 -111.236786 -6.674837
-0.921293 -112.427032 -7.549414
-1.154248 -111.307389 -9.222096
-0.921758 -111.34784 -8.002771
-6.931511 -125.475212 -10.637254
-5.986893 -124.924019 -9.935564
-6.13267 -125.50882 -8.997813
1.09411 -113.458046 8.138863
0.910381 -113.087852 7.057104
-1.741198 -119.461761 15.678523
-1.058283 -118.395332 16.345475
-9.56523 -113.901512 -18.433419
-10.90504 -112.915672 -18.970042
-9.403465 -122.107048 -16.890857
-9.500823 -123.01271 -16.407231
-10.559252 -122.403282 -17.499125
-9.31083 -121.157608 -17.36503
-8.252402 -121.767036 -16.273138
-9.403465 -122.107048 -16.890857
-10.414298 -120.452507 -18.293577
-9.263235 -120.112495 -17.675857
-9.31083 -121.157608 -17.36503
0.281546 -111.831459 4.0718
0.014038 -111.408058 3.160264
0.239748 -117.913948 12.842058
0.383064 -116.835685 14.622259
-0.10137 -118.141175 14.029896
-3.86693 -125.400292 1.588921
-4.20883 -125.527619 2.777928
-3.067455 -112.972725 -13.215517
-3.749966 -113.879715 -13.992124
-2.44606 -113.312736 -12.151667
-3.067455 -112.972725 -13.215517
-3.353978 -121.342155 14.257571
-2.503984 -120.478546 14.988997
-3.574891 -122.297432 12.469145
-3.353978 -121.342155 14.257571
-4.27248 -122.138001 13.537566
-3.864786 -123.232101 10.63721
-2.946284 -122.436256 11.357215
-3.574891 -122.297432 12.469145
-4.21145 -124.069496 8.825909
-3.864786 -123.232101 10.63721
-11.900077 -114.687721 -19.551039
-10.543329 -115.71064 -18.970726
-11.776129 -116.014435 -19.508215
-12.100337 -113.278869 -19.492197
-11.900077 -114.687721 -19.551039
-10.90504 -112.915672 -18.970042
-12.100337 -113.278869 -19.492197
-0.661733 -111.060219 -5.385471
-0.632848 -111.979484 -4.83132
-0.661733 -111.060219 -5.385471
-0.714198 -111.236786 -6.674837
0.734208 -112.675522 6.022571
0.485389 -112.288948 5.021083
0.724515 -114.157692 5.50287
0.734208 -112.675522 6.022571
0.910381 -113.087852 7.057104
-5.356415 -114.205117 -15.705982
-6.365522 -113.543152 -16.505523
-0.389119 -111.154129 0.115534
-0.422724 -110.390496 1.491367
-0.487356 -111.857628 -1.36868
-0.389119 -111.154129 0.115534
-0.337762 -112.482369 -0.619805
-0.49398 -112.414428 -2.772589
-0.487356 -111.857628 -1.36868
-0.638033 -112.901725 -4.258058
-0.49398 -112.414428 -2.772589
-0.580051 -113.673164 -3.589488
-0.718919 -113.23822 -5.648219
-0.632848 -111.979484 -4.83132
-0.638033 -112.901725 -4.258058
-0.544436 -118.265465 15.189149
-1.058283 -118.395332 16.345475
-0.687751 -119.343727 13.408949
-0.10137 -118.141175 14.029896
-0.544436 -118.265465 15.189149
-1.893603 -120.484803 13.878676
-1.741198 -119.461761 15.678523
-2.503984 -120.478546 14.988997
-4.610017 -125.596893 3.953882
-4.20883 -125.527619 2.777928
-3.671232 -124.901688 4.641544
-4.62957 -124.869515 6.972017
-3.6543 -124.170944 7.671389
-4.21145 -124.069496 8.825909
-5.096148 -125.548066 5.145911
-4.62957 -124.869515 6.972017
-4.610017 -125.596893 3.953882
-5.096148 -125.548066 5.145911
-8.314049 -114.797722 -17.790503
-9.416094 -115.280136 -18.370634
-9.56523 -113.901512 -18.433419
-7.328303 -114.194008 -17.13662
-7.179168 -115.572632 -17.073835
-8.314049 -114.797722 -17.790503
-6.365522 -113.543152 -16.505523
-7.328303 -114.194008 -17.13662
-7.834448 -125.287704 -12.226562
-6.931511 -125.475212 -10.637254
-7.688941 -124.615875 -13.042075
-7.834448 -125.287704 -12.226562
-7.561625 -123.895416 -13.833506
-6.658418 -124.169952 -12.366436
-7.688941 -124.615875 -13.042075
-8.468592 -123.528908 -15.154055
-9.500823 -123.01271 -16.407231
-7.43807 -123.082985 -14.478416
-7.561625 -123.895416 -13.833506
-8.468592 -123.528908 -15.154055
-11.6392 -119.606979 -19.151382
-10.414298 -120.452507 -18.293577
-11.651446 -118.47174 -19.313192
-11.6392 -119.606979 -19.151382
-11.677786 -117.286721 -19.474941
-10.393042 -118.222374 -18.766153
-11.651446 -118.47174 -19.313192
-11.776129 -116.014435 -19.508215
-11.677786 -117.286721 -19.474941
-0.176053 -110.882301 2.307584
-0.422724 -110.390496 1.491367
-0.049434 -112.304626 1.717089
-0.176053 -110.882301 2.307584
0.014038 -111.408058 3.160264
0.3445 -113.287872 3.519053
0.281546 -111.831459 4.0718
0.485389 -112.288948 5.021083
0.772698 -115.488731 15.141635
0.383064 -116.835685 14.622259
1.009502 -115.181106 13.928377
0.772698 -115.488731 15.141635
1.180336 -114.884591 12.741944
1.009502 -115.181106 13.928377
0.895015 -116.311943 12.247987
1.250863 -114.541161 11.548516
1.180336 -114.884591 12.741944
1.269258 -114.197182 10.39143
1.250863 -114.541161 11.548516
1.084243 -115.671448 9.904469
1.195086 -113.836769 9.243854
1.269258 -114.197182 10.39143
1.001663 -114.948746 7.642393
1.09411 -113.458046 8.138863
1.195086 -113.836769 9.243854
-6.270901 -126.010643 -7.968542
-6.13267 -125.50882 -8.997813
-5.326284 -125.45945 -7.266851
-3.610369 -125.17942 0.423426
-3.013483 -124.611542 2.300095
-3.86693 -125.400292 1.588921
-4.244086 -125.683082 -1.441618
-3.390639 -124.894333 -0.730444
-3.610369 -125.17942 0.423426
-4.942031 -126.037796 -3.293864
-4.244086 -125.683082 -1.441618
-5.662109 -126.319435 -5.11491
-4.744435 -125.679634 -4.416535
-4.942031 -126.037796 -3.293864
-6.456166 -126.447708 -6.904587
-5.662109 -126.319435 -5.11491
-6.270901 -126.010643 -7.968542
-6.456166 -126.447708 -6.904587
-4.446234 -114.754661 -14.781296
-5.283241 -115.518463 -15.495266
-5.356415 -114.205117 -15.705982
-3.676791 -115.193061 -13.781408
-4.446234 -114.754661 -14.781296
-3.749966 -113.879715 -13.992124
-1.901801 -113.519966 -10.965952
-2.436263 -114.525345 -11.806521
-2.44606 -113.312736 -12.151667
-1.520226 -112.422722 -10.094223
-1.510429 -113.63533 -9.749077
-1.901801 -113.519966 -10.965952
-1.154248 -111.307389 -9.222096
-1.520226 -112.422722 -10.094223
3 0 20 18
3 1 76 78
3 78 77 23
3 76 77 78
3 1 79 80
3 81 26 82
3 83 82 24
3 81 82 83
3 84 28 85
3 3 31 29
3 3 33 31
3 3 35 33
3 2 38 36
3 4 40 39
3 5 41 19
3 5 42 41
3 86 43 87
3 7 44 21
3 7 45 44
3 7 47 45
3 8 50 48
3 89 88 22
3 10 53 51
3 12 54 25
3 12 55 54
3 90 56 91
3 90 91 92
3 93 57 94
3 95 94 56
3 93 94 95
3 96 58 97
3 98 97 57
3 96 97 98
3 99 59 100
3 13 60 27
3 13 61 60
3 6 101 103
3 101 62 102
3 101 102 103
3 14 63 30
3 14 64 63
3 14 65 64
3 15 66 32
3 15 67 66
3 15 68 67
3 16 69 34
3 16 70 69
3 105 104 46
3 11 71 52
3 17 72 37
3 17 73 72
3 9 74 49
3 106 75 107
3 109 108 75
3 18 19 4
3 20 19 18
3 20 5 19
3 110 21 111
3 112 21 113
3 112 113 114
3 115 7 116
3 117 116 21
3 115 116 117
3 119 118 7
3 120 22 121
3 122 121 8
3 120 121 122
3 123 22 124
3 126 125 22
3 23 127 128
3 130 129 23
3 24 25 10
3 26 25 24
3 26 12 25
3 131 27 132
3 28 133 135
3 133 27 134
3 133 134 135
3 28 13 27
3 29 30 6
3 31 30 29
3 31 14 30
3 31 32 14
3 33 32 31
3 33 15 32
3 33 34 15
3 35 34 33
3 35 16 34
3 36 37 11
3 38 37 36
3 38 17 37
3 137 136 9
3 39 138 139
3 40 140 142
3 142 141 39
3 140 141 142
3 40 143 144
3 19 40 4
3 41 40 19
3 41 145 147
3 147 146 40
3 145 146 147
3 41 148 150
3 148 23 149
3 148 149 150
3 42 23 41
3 42 1 23
3 43 151 152
3 43 153 155
3 153 6 154
3 153 154 155
3 21 156 158
3 156 43 157
3 156 157 158
3 44 43 21
3 44 6 43
3 44 29 6
3 45 29 44
3 45 3 29
3 45 46 3
3 47 46 45
3 47 159 161
3 161 160 46
3 159 160 161
3 162 47 163
3 164 163 7
3 162 163 164
3 165 47 166
3 168 167 47
3 48 49 2
3 50 49 48
3 50 9 49
3 22 50 8
3 169 50 170
3 171 170 22
3 169 170 171
3 172 9 173
3 174 173 50
3 172 173 174
3 176 175 9
3 51 52 0
3 53 52 51
3 53 11 52
3 25 53 10
3 54 53 25
3 54 11 53
3 54 36 11
3 55 36 54
3 55 2 36
3 177 26 178
3 179 26 180
3 181 12 182
3 183 182 26
3 181 182 183
3 56 184 185
3 56 186 188
3 186 12 187
3 186 187 188
3 56 55 12
3 57 55 56
3 57 2 55
3 57 48 2
3 58 48 57
3 58 8 48
3 189 58 190
3 191 58 192
3 193 8 194
3 195 194 58
3 193 194 195
3 197 196 8
3 198 39 199
3 59 200 202
3 200 39 201
3 200 201 202
3 59 4 39
3 27 203 205
3 203 59 204
3 203 204 205
3 60 59 27
3 60 4 59
3 60 18 4
3 61 18 60
3 61 0 18
3 62 206 207
3 62 208 209
3 30 62 6
3 63 62 30
3 63 210 212
3 212 211 62
3 210 211 212
3 63 213 214
3 64 215 217
3 217 216 63
3 215 216 217
3 64 218 219
3 64 220 222
3 220 28 221
3 220 221 222
3 65 28 64
3 65 13 28
3 32 65 14
3 66 65 32
3 66 13 65
3 66 61 13
3 67 61 66
3 67 0 61
3 67 51 0
3 68 51 67
3 68 10 51
3 34 68 15
3 69 68 34
3 69 10 68
3 69 24 10
3 70 24 69
3 70 223 225
3 225 224 24
3 223 224 225
3 46 35 3
3 226 35 227
3 228 227 46
3 226 227 228
3 229 16 230
3 231 230 35
3 229 230 231
3 232 16 233
3 234 70 235
3 236 235 16
3 234 235 236
3 237 70 238
3 240 239 70
3 52 20 0
3 71 20 52
3 71 5 20
3 37 71 11
3 72 71 37
3 72 5 71
3 72 42 5
3 73 42 72
3 73 1 42
3 49 38 2
3 74 38 49
3 74 17 38
3 241 74 242
3 243 242 9
3 241 242 243
3 75 244 246
3 244 74 245
3 244 245 246
3 75 17 74
3 75 73 17
3 247 73 248
3 249 248 75
3 247 248 249
3 250 1 251
3 252 251 73
3 250 251 252
3 254 253 1
