ply
format ascii 1.0
element vertex 447
property float x
property float y
property float z
element face 492
property list uchar int vertex_index
end_header
-52.61248 -1.717314 -19.98835
-46.781338 -20.386074 -1.312229
-54.145748 -23.138411 -0.305429
-59.577873 -2.931465 -16.600685
-58.03035 7.181208 -27.989849
-51.442852 8.82959 -30.3783
-64.491882 -16.848307 -6.416889
-58.262611 -13.448835 -7.171316
-50.705627 -12.07436 -10.388014
-44.363514 -32.747383 9.678873
-45.64782 -29.556152 6.380133
-56.333721 -2.072668 -18.347889
-59.166969 2.298342 -22.10582
-56.104164 3.436941 -23.662632
-66.290817 -24.503754 -4.022396
-66.612549 -19.867188 -6.730448
-63.529018 -21.698946 -3.680395
-50.316528 -21.926119 -0.50862
-56.496765 -18.408571 -3.442852
-52.660053 -17.592731 -4.395256
-54.538231 -12.809087 -8.688961
-48.922939 -16.526711 -5.77117
-58.060993 -24.635185 -0.738565
-51.582253 -27.667133 2.530345
-47.819878 -25.902664 3.031682
-44.557281 -23.745901 2.926353
-62.151764 -4.826618 -15.252176
-48.752422 -1.011925 -20.881912
-52.497681 3.703716 -25.064808
-64.597641 -12.219721 -9.95512
-60.186455 -19.674494 -3.299179
-61.645996 -14.697287 -6.413799
-62.271614 -9.726304 -10.392153
-59.290039 -8.252028 -11.581688
-55.788284 -7.580293 -13.35564
-51.970734 -7.07341 -15.119719
-47.020962 -10.343378 -11.469019
-48.133499 -5.854087 -16.156614
-54.97654 8.619848 -29.304134
-42.733566 -32.337528 11.83045
-42.855804 -31.118221 10.177991
-44.209293 -34.084503 11.320089
-54.513939 -1.880753 -19.221519
-56.321991 0.701511 -20.963757
-54.537064 0.893192 -21.784168
-64.412308 -25.463284 -2.641352
-65.002571 -23.008198 -3.884562
-62.773609 -24.183756 -2.465847
-48.496628 -21.247795 -0.866531
-51.530968 -19.810501 -2.402035
-49.665981 -19.259775 -2.934612
-50.762737 -17.147137 -5.07748
-47.882908 -18.52696 -3.517826
-53.607662 -28.559612 2.137994
-50.391052 -29.834665 3.952561
-44.056473 -28.226938 6.713692
-46.658295 -27.774036 4.719073
-45.012554 -26.614164 4.908518
-46.114548 -24.913458 3.048917
-43.537525 -25.277519 4.948912
-60.954212 -3.733534 -15.856373
-61.874702 -2.440924 -17.956791
-60.761513 -1.208818 -18.570999
-58.695877 4.800201 -25.007034
-48.825142 1.466234 -23.279686
-65.655792 -18.258818 -6.5672
-66.477333 -17.685419 -8.261824
-65.668488 -15.995624 -8.141989
-65.477844 -13.818428 -9.940971
-64.649895 -14.503101 -8.065044
-56.10231 -23.827238 -0.468904
-59.184723 -22.158976 -1.978769
-57.297157 -21.406082 -1.817888
-57.467106 -15.960117 -5.222549
-59.286682 -16.478662 -4.884275
-60.009926 -13.968779 -6.682699
-62.062218 -12.208585 -8.287254
-60.532032 -11.428505 -8.68508
-60.855141 -8.865294 -10.891294
-58.871063 -10.876105 -9.293303
-52.619534 -12.509777 -9.566864
-55.247654 -10.243471 -10.979393
-53.339333 -9.990424 -11.899754
-53.902161 -7.359267 -14.285419
-51.409691 -9.633301 -12.739878
-47.631176 -8.155394 -13.812273
-52.099831 6.328991 -27.695026
-53.92688 6.300268 -27.128658
-53.249474 8.839056 -29.906269
-46.612427 -32.579399 7.512151
-47.41925 -30.766319 5.930099
-44.860802 -31.22514 8.031013
-43.315536 -29.736938 8.470127
-46.098236 -34.228653 9.140522
-58.03162 -2.395802 -17.449963
-59.458775 -0.289778 -19.299568
-57.972935 0.331932 -20.113453
-57.721169 3.01358 -22.871094
-57.263557 5.611176 -25.718189
-66.54567 -22.146179 -5.339434
-65.429047 -20.600632 -5.169481
-64.113739 -19.249676 -4.974291
-52.209373 -22.526636 -0.311694
-55.376495 -20.799109 -1.814381
-53.445194 -20.291426 -2.01071
-54.582336 -17.979479 -3.826164
-55.585052 -15.580343 -5.774212
-56.429401 -13.088165 -7.860117
-53.670387 -15.260624 -6.491919
-51.755081 -14.898102 -7.290554
-49.871292 -14.375799 -8.063707
-52.296692 11.198381 -32.733383
-60.003178 -25.584949 -1.0289
-56.879444 -27.091482 0.4879
-54.848724 -26.216206 0.830163
-52.85873 -25.429527 1.126712
-48.45562 -28.828575 4.384035
-49.648758 -26.797838 2.850644
-50.923546 -24.694521 1.297454
-49.06102 -23.953564 1.296495
-47.295856 -23.127386 1.126496
-45.65699 -22.119936 0.837831
-63.166656 -6.208212 -14.799372
-60.422729 1.255121 -21.408974
-50.676132 -1.466999 -20.565739
-52.660332 1.005915 -22.496391
-50.740204 1.15576 -23.019131
-50.600082 3.759148 -25.518478
-65.118469 -11.72954 -11.987167
-64.365387 -10.002307 -12.099007
-61.018646 -23.082064 -2.222431
-61.91312 -20.586199 -3.460667
-62.633987 -18.108852 -4.813684
-58.373371 -18.957003 -3.273737
-61.017025 -17.186687 -4.761282
-63.147476 -15.656766 -6.343012
-63.441357 -13.234646 -8.093634
-63.524094 -10.847607 -10.089001
-63.420769 -8.50254 -12.33025
-62.292885 -7.260807 -12.720865
-60.990585 -6.293587 -13.288578
-59.523453 -5.595348 -14.022867
-57.101276 -10.505829 -10.080214
-57.593754 -7.846612 -12.425428
-57.904274 -5.133327 -14.885099
-56.152691 -4.845689 -15.812368
-54.297501 -4.644516 -16.7244
-52.376488 -4.423308 -17.532864
-46.209908 -17.497705 -4.045454
-47.169365 -15.614933 -6.367205
-48.049141 -13.576836 -8.703979
-48.829205 -11.386551 -11.049812
-49.49498 -9.056627 -13.403311
-50.034195 -6.607779 -15.768087
-50.433563 -4.06715 -18.152084
-48.513664 -3.463366 -18.510094
-54.348568 3.635292 -24.419136
-55.662582 6.091398 -26.444801
-56.581802 8.084572 -28.646366
-54.025505 10.97381 -32.2243
-55.654434 10.390615 -31.639843
-42.120379 -31.369242 12.046425
-42.2661 -31.833763 12.835975
-42.2661 -31.833763 12.835975
-42.861374 -32.848826 12.622227
-42.393908 -32.345061 13.627751
-62.337269 -25.435092 -1.862156
-63.592958 -24.82352 -2.553599
-63.156618 -26.074856 -1.949908
-63.156618 -26.074856 -1.949908
-64.060713 -26.703114 -2.006696
-49.876072 -30.869359 4.692528
-51.42313 -30.334086 3.729944
-43.835898 -26.667093 5.904919
-44.534514 -27.420551 5.811105
-43.357857 -27.47348 6.807506
-43.098383 -25.99877 5.925116
-44.27504 -25.945842 4.928715
-43.835898 -26.667093 5.904919
-58.664482 6.537027 -27.679039
-58.997246 5.346524 -26.187632
-58.363113 5.990704 -26.498441
-58.255253 7.59407 -29.218387
-58.664482 6.537027 -27.679039
-42.449951 -29.520131 9.519613
-43.08567 -30.42758 9.324059
-42.220085 -30.210772 10.373545
-42.651315 -28.902292 8.623937
-42.449951 -29.520131 9.519613
-66.418244 -23.324967 -4.680915
-66.983669 -23.007096 -5.395376
-66.856243 -24.185884 -4.736857
-66.815384 -25.338617 -4.048768
-66.086167 -25.709772 -3.367477
-66.856243 -24.185884 -4.736857
-66.815384 -25.338617 -4.048768
-56.296208 -28.299473 1.125784
-57.905899 -27.584044 0.338688
-62.475718 -4.400601 -16.358525
-62.983164 -5.091398 -16.132123
-62.65921 -5.517415 -15.025774
-62.113518 -2.126713 -19.122576
-61.678684 -1.281511 -19.379551
-49.651707 3.844949 -25.612368
-49.712612 2.612691 -24.399082
-48.764236 2.698492 -24.492972
-50.41432 5.027228 -26.790458
-49.651707 3.844949 -25.612368
-66.834198 -19.704062 -7.552774
-66.971878 -20.757838 -6.79704
-66.542065 -17.623578 -9.153307
-66.314357 -16.648424 -9.12502
-44.987928 -17.591543 -3.061011
-45.704165 -18.364492 -2.89677
-46.346685 -14.962687 -6.568976
-45.917915 -15.843281 -5.393322
-46.786574 -13.943638 -7.737362
-47.609253 -14.595885 -7.535592
-46.346685 -14.962687 -6.568976
-46.667704 -11.37132 -10.295511
-45.853516 -10.555744 -10.364922
-47.925083 -10.864964 -11.259415
-47.571825 -11.892907 -10.085908
-46.667704 -11.37132 -10.295511
-53.409633 12.037593 -33.700249
-53.161099 11.086095 -32.478842
-52.545227 12.149878 -33.95479
-55.839247 10.909011 -32.881331
-55.057907 11.436732 -33.156126
-55.242719 11.955127 -34.397614
-56.401266 9.897253 -31.338278
-55.839247 10.909011 -32.881331
-42.181497 -30.759588 11.220195
-42.794685 -31.727874 11.004221
-42.120379 -31.369242 12.046425
-42.220085 -30.210772 10.373545
-42.181497 -30.759588 11.220195
-43.599238 -33.722313 12.367046
-44.321228 -34.642212 12.130436
-43.471429 -33.211016 11.57527
-43.599238 -33.722313 12.367046
-42.861374 -32.848826 12.622227
-65.146912 -26.189538 -2.676956
-64.060713 -26.703114 -2.006696
-65.351562 -24.983519 -3.331874
-66.086167 -25.709772 -3.367477
-65.146912 -26.189538 -2.676956
-53.031435 -29.69656 2.82266
-54.660317 -29.033538 1.950832
-51.999357 -29.197139 3.045278
-53.031435 -29.69656 2.82266
-51.42313 -30.334086 3.729944
-61.12209 -0.665458 -19.686655
-61.678684 -1.281511 -19.379551
-61.318107 -1.824871 -18.263895
-59.317297 4.21598 -24.677696
-59.552843 2.96505 -23.227089
-58.931423 3.549272 -23.556427
-59.317297 4.21598 -24.677696
-58.997246 5.346524 -26.187632
-47.854342 0.612198 -22.083473
-48.788782 0.227155 -22.080799
-47.817982 -0.626881 -20.884586
-47.891327 1.761739 -23.253121
-47.854342 0.612198 -22.083473
-47.830421 2.993997 -24.466406
-48.764236 2.698492 -24.492972
-47.891327 1.761739 -23.253121
-65.909935 -15.803527 -9.065103
-66.314357 -16.648424 -9.12502
-66.072911 -16.840522 -8.201906
-65.573166 -14.907026 -9.04148
-65.814613 -14.714928 -9.964593
-65.909935 -15.803527 -9.065103
-46.163595 -9.6047 -11.531416
-45.853516 -10.555744 -10.364922
-46.468703 -8.510708 -12.703043
-47.326069 -9.249386 -12.640646
-46.163595 -9.6047 -11.531416
-46.740439 -7.500207 -13.865237
-46.468703 -8.510708 -12.703043
-46.9916 -6.349553 -15.037408
-47.882338 -7.00474 -14.984444
-46.740439 -7.500207 -13.865237
-47.219326 -5.287187 -16.197276
-46.9916 -6.349553 -15.037408
-47.015839 -31.672859 6.721125
-48.390171 -31.335186 5.681297
-47.986759 -32.241726 6.472323
-43.021784 -28.147292 7.745719
-43.686004 -28.981938 7.591909
-42.651315 -28.902292 8.623937
-43.357857 -27.47348 6.807506
-43.021784 -28.147292 7.745719
-45.066621 -34.87878 11.065623
-44.321228 -34.642212 12.130436
-46.011093 -34.950856 9.975839
-45.066621 -34.87878 11.065623
-45.153765 -34.156578 10.230306
-47.074137 -34.911507 8.896242
-46.011093 -34.950856 9.975839
-47.330089 -34.033321 8.068206
-47.074137 -34.911507 8.896242
-47.587185 -33.208695 7.254021
-47.330089 -34.033321 8.068206
-46.355331 -33.404026 8.326337
-47.986759 -32.241726 6.472323
-47.587185 -33.208695 7.254021
-66.938439 -21.897334 -6.101533
-66.983669 -23.007096 -5.395376
-66.57911 -21.006684 -6.034941
-66.971878 -20.757838 -6.79704
-66.938439 -21.897334 -6.101533
-51.402275 11.173284 -32.913088
-51.869772 10.013986 -31.555841
-50.975355 9.988888 -31.735546
-51.676552 12.259778 -34.155352
-51.402275 11.173284 -32.913088
-52.545227 12.149878 -33.95479
-51.676552 12.259778 -34.155352
-59.467766 -26.830778 -0.419712
-60.952053 -26.135689 -1.143682
-58.441311 -26.338216 -0.2705
-59.467766 -26.830778 -0.419712
-57.905899 -27.584044 0.338688
-55.243553 -27.825547 1.312947
-56.296208 -28.299473 1.125784
-54.660317 -29.033538 1.950832
-48.905151 -30.300492 4.94133
-49.876072 -30.869359 4.692528
-48.390171 -31.335186 5.681297
-63.354372 -5.993125 -15.941858
-63.58197 -7.031154 -14.642321
-63.354372 -5.993125 -15.941858
-62.983164 -5.091398 -16.132123
-62.337187 -3.207755 -17.710832
-62.475718 -4.400601 -16.358525
-62.013233 -3.633771 -16.604484
-62.337187 -3.207755 -17.710832
-62.113518 -2.126713 -19.122576
-60.952697 0.566511 -21.105643
-61.12209 -0.665458 -19.686655
-60.592121 0.023151 -19.989987
-60.180723 2.44344 -22.878666
-59.794849 1.776731 -21.757397
-59.552843 2.96505 -23.227089
-60.704172 1.682764 -22.582977
-60.180723 2.44344 -22.878666
-60.952697 0.566511 -21.105643
-60.704172 1.682764 -22.582977
-51.164195 6.312149 -27.878732
-51.349957 5.044069 -26.606752
-50.41432 5.027228 -26.790458
-50.835705 7.562449 -29.22037
-51.771342 7.57929 -29.036663
-51.164195 6.312149 -27.878732
-50.521765 8.769759 -30.508568
-50.835705 7.562449 -29.22037
-50.975355 9.988888 -31.735546
-50.521765 8.769759 -30.508568
-66.76659 -18.613178 -8.318463
-66.834198 -19.704062 -7.552774
-66.544941 -18.776303 -7.496136
-66.76659 -18.613178 -8.318463
-66.542065 -17.623578 -9.153307
-65.575173 -13.732691 -10.942088
-65.814613 -14.714928 -9.964593
-65.395485 -12.688247 -11.965186
-65.575173 -13.732691 -10.942088
-65.298157 -12.773984 -10.964069
-65.108448 -11.758075 -13.060766
-65.395485 -12.688247 -11.965186
-64.880257 -10.728517 -13.132668
-65.108448 -11.758075 -13.060766
-64.503715 -9.864901 -13.188588
-64.880257 -10.728517 -13.132668
-64.741928 -10.865924 -12.043087
-64.181336 -8.928201 -13.292139
-64.503715 -9.864901 -13.188588
-61.388393 -24.884352 -1.747374
-62.337269 -25.435092 -1.862156
-60.952053 -26.135689 -1.143682
-63.709027 -8.178318 -13.40776
-64.181336 -8.928201 -13.292139
-63.893078 -9.252423 -12.214628
-63.293712 -7.355376 -13.564811
-63.58197 -7.031154 -14.642321
-63.709027 -8.178318 -13.40776
-42.504785 -25.123223 5.952699
-43.098383 -25.99877 5.925116
-42.895569 -24.480981 4.914186
-42.504785 -25.123223 5.952699
-43.405447 -23.715173 3.902906
-44.047403 -24.51171 3.937633
-42.895569 -24.480981 4.914186
-43.864777 -23.026992 2.826712
-43.405447 -23.715173 3.902906
-44.414631 -22.214009 1.782451
-45.107135 -22.932918 1.882092
-43.864777 -23.026992 2.826712
-44.914028 -21.4745 0.675684
-44.414631 -22.214009 1.782451
-45.476202 -20.607568 -0.399346
-46.219164 -21.253005 -0.237199
-44.914028 -21.4745 0.675684
-45.98988 -19.808677 -1.530157
-45.476202 -20.607568 -0.399346
-46.540665 -18.87912 -2.632956
-47.332123 -19.456517 -2.415027
-45.98988 -19.808677 -1.530157
-47.046408 -18.012332 -3.78164
-46.540665 -18.87912 -2.632956
-45.704165 -18.364492 -2.89677
-45.438187 -16.784667 -4.232447
-44.987928 -17.591543 -3.061011
-46.689636 -16.556319 -5.20633
-45.438187 -16.784667 -4.232447
-45.917915 -15.843281 -5.393322
-47.181793 -12.988049 -8.912992
-46.786574 -13.943638 -7.737362
-45.919225 -13.354851 -7.946375
-48.439173 -12.481694 -9.876895
-47.181793 -12.988049 -8.912992
-47.571825 -11.892907 -10.085908
-47.409408 -4.091827 -17.374016
-48.323582 -4.658727 -17.333354
-47.219326 -5.287187 -16.197276
-47.585319 -2.987264 -18.534525
-47.409408 -4.091827 -17.374016
-47.704699 -1.761544 -19.720434
-48.633043 -2.237646 -19.696003
-47.585319 -2.987264 -18.534525
-47.817982 -0.626881 -20.884586
-47.704699 -1.761544 -19.720434
-54.243443 11.72833 -33.448355
-53.409633 12.037593 -33.700249
-54.83997 10.682213 -31.932071
-54.243443 11.72833 -33.448355
-55.057907 11.436732 -33.156126
-56.86495 8.744231 -29.841539
-56.118118 9.237593 -30.143104
-56.401266 9.897253 -31.338278
-57.589224 8.292549 -29.513281
-57.306076 7.63289 -28.318107
-56.86495 8.744231 -29.841539
-58.255253 7.59407 -29.218387
-57.589224 8.292549 -29.513281
3 162 161 39
3 163 39 164
3 163 164 165
3 0 44 42
3 166 47 167
3 168 167 45
3 166 167 168
3 1 50 48
3 1 52 50
3 169 45 170
3 171 54 172
3 173 57 174
3 175 174 55
3 173 174 175
3 176 59 177
3 178 177 57
3 176 177 178
3 3 62 60
3 4 179 181
3 181 180 63
3 179 180 181
3 4 182 183
3 6 67 65
3 6 69 67
3 2 72 70
3 7 75 73
3 7 77 75
3 7 79 77
3 8 82 80
3 8 84 82
3 5 88 86
3 9 91 89
3 184 92 185
3 186 185 40
3 184 185 186
3 188 187 92
3 9 93 41
3 9 89 93
3 11 96 94
3 13 97 43
3 13 98 97
3 14 189 191
3 189 99 190
3 189 190 191
3 16 100 46
3 16 101 100
3 17 104 102
3 19 105 49
3 19 106 105
3 19 108 106
3 21 109 51
3 21 110 109
3 14 192 193
3 14 194 195
3 196 113 197
3 23 114 53
3 23 115 114
3 10 116 90
3 24 117 56
3 24 118 117
3 24 119 118
3 25 120 58
3 25 121 120
3 26 198 200
3 200 199 122
3 198 199 200
3 202 201 61
3 12 123 95
3 27 126 124
3 203 127 204
3 205 204 64
3 203 204 205
3 207 206 127
3 15 208 209
3 211 210 66
3 29 128 68
3 29 129 128
3 22 130 112
3 30 131 71
3 30 132 131
3 18 133 103
3 31 134 74
3 31 135 134
3 31 136 135
3 32 137 76
3 32 138 137
3 32 139 138
3 33 140 78
3 33 141 140
3 20 142 107
3 34 143 81
3 34 144 143
3 34 145 144
3 35 146 83
3 35 147 146
3 212 148 213
3 214 149 215
3 216 150 217
3 218 217 149
3 216 217 218
3 36 219 220
3 36 221 223
3 221 151 222
3 221 222 223
3 36 152 151
3 37 153 85
3 37 154 153
3 37 155 154
3 28 156 125
3 38 157 87
3 38 158 157
3 224 159 225
3 226 225 111
3 224 225 226
3 227 160 228
3 227 228 229
3 231 230 160
3 39 40 9
3 232 40 233
3 234 233 39
3 232 233 234
3 236 235 40
3 237 41 238
3 39 239 241
3 239 41 240
3 239 240 241
3 39 9 41
3 42 43 11
3 44 43 42
3 44 13 43
3 45 46 14
3 47 46 45
3 47 16 46
3 48 49 17
3 50 49 48
3 50 19 49
3 50 51 19
3 52 51 50
3 52 21 51
3 45 242 243
3 45 244 246
3 244 14 245
3 244 245 246
3 247 53 248
3 54 249 251
3 249 53 250
3 249 250 251
3 54 23 53
3 55 56 10
3 57 56 55
3 57 24 56
3 57 58 24
3 59 58 57
3 59 25 58
3 60 61 26
3 62 61 60
3 62 252 254
3 254 253 61
3 252 253 254
3 63 255 257
3 257 256 12
3 255 256 257
3 259 258 63
3 260 64 261
3 262 261 27
3 260 261 262
3 263 64 264
3 267 266 64
3 265 266 267
3 65 66 15
3 67 66 65
3 67 268 270
3 270 269 66
3 268 269 270
3 67 271 273
3 271 68 272
3 271 272 273
3 69 68 67
3 69 29 68
3 70 71 22
3 72 71 70
3 72 30 71
3 73 74 18
3 75 74 73
3 75 31 74
3 75 76 31
3 77 76 75
3 77 32 76
3 77 78 32
3 79 78 77
3 79 33 78
3 80 81 20
3 82 81 80
3 82 34 81
3 82 83 34
3 84 83 82
3 84 35 83
3 274 36 275
3 276 85 277
3 278 277 36
3 276 277 278
3 279 85 280
3 281 37 282
3 283 282 85
3 281 282 283
3 285 284 37
3 86 87 28
3 88 87 86
3 88 38 87
3 89 286 288
3 286 90 287
3 286 287 288
3 91 90 89
3 91 10 90
3 40 91 9
3 92 91 40
3 92 10 91
3 92 55 10
3 289 55 290
3 291 290 92
3 289 290 291
3 293 292 55
3 41 294 295
3 93 296 298
3 298 297 41
3 296 297 298
3 93 299 300
3 93 301 302
3 89 303 305
3 305 304 93
3 303 304 305
3 89 306 307
3 94 95 3
3 96 95 94
3 96 12 95
3 43 96 11
3 97 96 43
3 97 12 96
3 97 63 12
3 98 63 97
3 98 4 63
3 99 308 309
3 99 310 312
3 310 15 311
3 310 311 312
3 46 99 14
3 100 99 46
3 100 15 99
3 100 65 15
3 101 65 100
3 101 6 65
3 102 103 2
3 104 103 102
3 104 18 103
3 49 104 17
3 105 104 49
3 105 18 104
3 105 73 18
3 106 73 105
3 106 7 73
3 106 107 7
3 108 107 106
3 108 20 107
3 51 108 19
3 109 108 51
3 109 20 108
3 109 80 20
3 110 80 109
3 110 8 80
3 313 111 314
3 315 314 5
3 313 314 315
3 316 111 317
3 319 318 111
3 320 112 321
3 113 322 324
3 322 112 323
3 322 323 324
3 113 22 112
3 53 325 327
3 325 113 326
3 325 326 327
3 114 113 53
3 114 22 113
3 114 70 22
3 115 70 114
3 115 2 70
3 90 328 330
3 328 54 329
3 328 329 330
3 116 54 90
3 116 23 54
3 56 116 10
3 117 116 56
3 117 23 116
3 117 115 23
3 118 115 117
3 118 2 115
3 118 102 2
3 119 102 118
3 119 17 102
3 58 119 24
3 120 119 58
3 120 17 119
3 120 48 17
3 121 48 120
3 121 1 48
3 122 331 332
3 334 333 122
3 61 335 337
3 337 336 26
3 335 336 337
3 339 338 61
3 95 62 3
3 123 62 95
3 123 340 342
3 342 341 62
3 340 341 342
3 343 123 344
3 345 344 12
3 343 344 345
3 346 123 347
3 349 348 123
3 124 125 0
3 126 125 124
3 126 28 125
3 64 126 27
3 127 126 64
3 127 28 126
3 127 86 28
3 350 86 351
3 352 351 127
3 350 351 352
3 353 5 354
3 355 354 86
3 353 354 355
3 356 5 357
3 359 358 5
3 66 360 362
3 362 361 15
3 360 361 362
3 364 363 66
3 68 365 366
3 128 367 369
3 369 368 68
3 367 368 369
3 128 370 371
3 128 372 373
3 129 374 376
3 376 375 128
3 374 375 376
3 129 377 378
3 112 379 381
3 379 47 380
3 379 380 381
3 130 47 112
3 130 16 47
3 71 130 22
3 131 130 71
3 131 16 130
3 131 101 16
3 132 101 131
3 132 6 101
3 103 72 2
3 133 72 103
3 133 30 72
3 74 133 18
3 134 133 74
3 134 30 133
3 134 132 30
3 135 132 134
3 135 6 132
3 135 69 6
3 136 69 135
3 136 29 69
3 76 136 31
3 137 136 76
3 137 29 136
3 137 129 29
3 138 129 137
3 138 382 384
3 384 383 129
3 382 383 384
3 138 385 387
3 385 122 386
3 385 386 387
3 139 122 138
3 139 26 122
3 78 139 32
3 140 139 78
3 140 26 139
3 140 60 26
3 141 60 140
3 141 3 60
3 107 79 7
3 142 79 107
3 142 33 79
3 81 142 20
3 143 142 81
3 143 33 142
3 143 141 33
3 144 141 143
3 144 3 141
3 144 94 3
3 145 94 144
3 145 11 94
3 83 145 34
3 146 145 83
3 146 11 145
3 146 42 11
3 147 42 146
3 147 0 42
3 388 59 389
3 390 59 391
3 392 25 393
3 394 393 59
3 392 393 394
3 395 25 396
3 397 121 398
3 399 398 25
3 397 398 399
3 400 121 401
3 402 1 403
3 404 403 121
3 402 403 404
3 405 1 406
3 407 52 408
3 409 408 1
3 407 408 409
3 148 410 412
3 410 52 411
3 410 411 412
3 148 21 52
3 413 148 414
3 149 415 417
3 415 148 416
3 415 416 417
3 149 21 148
3 149 110 21
3 150 110 149
3 150 8 110
3 418 150 419
3 418 419 420
3 151 421 423
3 421 150 422
3 421 422 423
3 151 8 150
3 151 84 8
3 152 84 151
3 152 35 84
3 85 152 36
3 153 152 85
3 153 35 152
3 153 147 35
3 154 147 153
3 154 0 147
3 154 124 0
3 155 124 154
3 155 27 124
3 424 155 425
3 426 425 37
3 424 425 426
3 427 155 428
3 429 27 430
3 431 430 155
3 429 430 431
3 433 432 27
3 125 44 0
3 156 44 125
3 156 13 44
3 87 156 28
3 157 156 87
3 157 13 156
3 157 98 13
3 158 98 157
3 158 4 98
3 111 88 5
3 159 88 111
3 159 38 88
3 434 159 435
3 160 436 438
3 436 159 437
3 436 437 438
3 160 38 159
3 160 158 38
3 439 158 440
3 441 440 160
3 439 440 441
3 442 4 443
3 444 443 158
3 442 443 444
3 446 445 4
