ply
format ascii 1.0
element vertex 223
property float x
property float y
property float z
element face 215
property list uchar int vertex_index
end_header
-46.019119 16.391922 -40.99157
-44.213547 9.104225 -29.549736
-39.727226 14.520805 -37.094891
-36.557899 15.115383 -39.38665
-49.285709 13.223244 -35.802162
-52.793762 13.101376 -35.176197
-49.482395 16.460903 -40.992039
-41.911884 17.890045 -45.422741
-45.207684 18.2929 -46.279846
-48.703331 3.93075 -25.706257
-47.763062 8.619852 -30.614326
-45.769943 12.586235 -35.425026
-42.404228 12.402458 -33.671101
-42.765945 15.304737 -39.756935
-39.0886 16.349297 -43.09481
-48.903713 16.664906 -46.041458
-47.78167 14.991478 -38.455917
-49.529137 15.148281 -38.391132
-47.732361 16.621666 -41.115387
-44.753242 7.168386 -27.350918
-46.524521 6.582767 -27.924828
-45.96117 8.705946 -30.255184
-46.901802 10.726297 -33.051193
-45.142033 10.653969 -32.535313
-41.156769 13.63665 -35.498051
-42.748566 13.757076 -36.760624
-41.227226 14.78854 -38.590359
-40.978844 16.053616 -41.583233
-39.556725 15.41082 -40.148159
-52.990067 14.312347 -37.705864
-54.46138 12.482849 -34.672409
-47.018677 17.753281 -46.270485
-38.241257 14.641228 -35.364799
-38.17186 15.018719 -38.406345
-36.79002 15.022301 -36.473179
-50.507858 11.148186 -33.092793
-51.056412 13.321175 -35.57732
-51.275955 14.94836 -38.117126
-51.241882 15.82996 -40.690434
-44.041523 17.371319 -43.338417
-45.703365 17.689014 -43.681526
-43.49955 18.309086 -46.016354
-50.228558 6.295307 -28.062439
-46.848045 4.347836 -25.57547
-48.35783 6.333822 -28.156456
-49.600677 8.709929 -30.638836
-48.698326 10.942558 -33.22226
-47.514938 12.928257 -35.773155
-46.059807 14.601009 -38.238472
-43.429966 10.870813 -31.670933
-44.065624 12.359606 -34.721825
-44.380451 14.13274 -37.681503
-44.361259 15.898724 -40.554218
-42.467812 16.769348 -42.649746
-40.446568 17.177078 -44.45377
-37.806709 15.600975 -41.377224
-47.442825 17.589317 -43.73634
-49.237385 16.98975 -43.567024
-51.056351 15.865482 -43.228638
-50.830315 15.056618 -45.633801
-40.441997 14.078727 -36.296471
-40.372692 13.770485 -34.733425
-39.657921 14.212563 -35.531846
-53.813622 13.760208 -37.459976
-52.984112 14.506878 -38.986317
-37.494186 14.941018 -34.45273
-38.133686 14.643546 -33.830564
-36.768568 15.131554 -35.00692
-37.515638 14.831765 -35.918989
-37.494186 14.941018 -34.45273
-49.651707 3.844949 -25.612368
-48.764236 2.698492 -24.492972
-49.465944 5.113029 -26.884348
-50.41432 5.027228 -26.790458
-49.651707 3.844949 -25.612368
-45.955579 4.737008 -25.341341
-46.008287 3.690581 -24.208098
-42.083859 11.947938 -32.08713
-41.590473 12.621137 -33.001228
-42.917097 11.636636 -32.671017
-42.596728 11.182116 -31.087046
-42.083859 11.947938 -32.08713
-38.733553 16.728295 -44.498272
-39.412537 17.142185 -45.177751
-39.767584 16.763188 -43.77429
-53.409633 12.037593 -33.700249
-52.545227 12.149878 -33.95479
-55.057907 11.436732 -33.156126
-55.242719 11.955127 -34.397614
-51.797348 14.02475 -45.352386
-50.74602 14.269083 -46.720123
-52.816206 13.617787 -43.915323
-51.849173 14.649655 -44.196737
-51.797348 14.02475 -45.352386
-41.553774 18.173456 -46.735
-40.810485 17.908686 -46.298406
-47.830421 2.993997 -24.466406
-48.764236 2.698492 -24.492972
-45.638881 6.875576 -27.637873
-45.793818 5.854474 -26.51602
-44.908178 6.147284 -26.229065
-40.966743 13.238233 -33.914704
-40.372692 13.770485 -34.733425
-41.780499 13.019554 -34.584576
-41.590473 12.621137 -33.001228
-40.966743 13.238233 -33.914704
-36.306056 15.237522 -40.810963
-35.756704 14.967237 -39.697106
-54.549278 12.845459 -35.943248
-53.725724 13.397598 -36.189137
-53.813622 13.760208 -37.459976
-55.242719 11.955127 -34.397614
-54.549278 12.845459 -35.943248
-45.833397 17.923596 -47.501866
-46.11318 18.023091 -46.275165
-44.9279 18.193405 -47.506546
-46.796596 17.41402 -47.457093
-45.833397 17.923596 -47.501866
-47.739114 16.869833 -47.342579
-47.961195 17.209094 -46.155971
-46.796596 17.41402 -47.457093
-44.057798 6.761277 -25.837692
-44.908178 6.147284 -26.229065
-43.903455 7.678723 -26.906597
-44.057798 6.761277 -25.837692
-43.633608 8.646642 -28.006006
-44.483395 8.136305 -28.450327
-43.903455 7.678723 -26.906597
-38.914936 14.272774 -34.666799
-38.133686 14.643546 -33.830564
-38.984241 14.581017 -36.229845
-39.657921 14.212563 -35.531846
-38.914936 14.272774 -34.666799
-36.086624 15.269106 -35.489519
-36.768568 15.131554 -35.00692
-36.04334 15.03142 -36.866524
-36.086624 15.269106 -35.489519
-35.92728 15.077961 -38.32326
-36.673959 15.068842 -37.929915
-36.04334 15.03142 -36.866524
-35.756704 14.967237 -39.697106
-35.92728 15.077961 -38.32326
-51.402275 11.173284 -32.913088
-50.975355 9.988888 -31.735546
-51.676552 12.259778 -34.155352
-51.402275 11.173284 -32.913088
-50.782135 12.23468 -34.335057
-51.925087 13.211275 -35.376759
-52.545227 12.149878 -33.95479
-51.676552 12.259778 -34.155352
-52.110019 15.265684 -40.478601
-52.984112 14.506878 -38.986317
-52.115975 15.071154 -39.198149
-42.347606 18.382976 -47.031807
-42.705717 18.099566 -45.719548
-41.553774 18.173456 -46.735
-43.172815 18.426897 -47.283728
-42.347606 18.382976 -47.031807
-44.026882 18.418804 -47.415474
-44.353617 18.300993 -46.1481
-43.172815 18.426897 -47.283728
-44.9279 18.193405 -47.506546
-44.026882 18.418804 -47.415474
-51.164195 6.312149 -27.878732
-50.41432 5.027228 -26.790458
-50.835705 7.562449 -29.22037
-51.164195 6.312149 -27.878732
-46.902778 3.20254 -24.401013
-46.008287 3.690581 -24.208098
-47.775688 4.139293 -25.640864
-47.830421 2.993997 -24.466406
-46.902778 3.20254 -24.401013
-46.686283 5.465301 -26.750149
-45.955579 4.737008 -25.341341
-45.793818 5.854474 -26.51602
-50.521765 8.769759 -30.508568
-50.835705 7.562449 -29.22037
-49.914617 7.502618 -29.350638
-50.054267 9.929058 -31.865814
-50.975355 9.988888 -31.735546
-50.521765 8.769759 -30.508568
-43.368977 9.513322 -29.041279
-43.633608 8.646642 -28.006006
-42.977186 10.396616 -30.101878
-42.596728 11.182116 -31.087046
-43.821756 9.987519 -30.610335
-43.368977 9.513322 -29.041279
-42.977186 10.396616 -30.101878
-40.077827 17.552202 -45.813921
-40.810485 17.908686 -46.298406
-41.179226 17.533562 -44.938255
-40.077827 17.552202 -45.813921
-39.412537 17.142185 -45.177751
-36.930461 15.480318 -41.806249
-37.182304 15.358179 -40.381937
-36.306056 15.237522 -40.810963
-37.49123 15.892761 -42.806986
-36.930461 15.480318 -41.806249
-38.132176 16.266922 -43.665779
-38.447654 15.975136 -42.236017
-37.49123 15.892761 -42.806986
-38.733553 16.728295 -44.498272
-38.132176 16.266922 -43.665779
-54.243443 11.72833 -33.448355
-53.409633 12.037593 -33.700249
-53.627571 12.792112 -34.924303
-54.243443 11.72833 -33.448355
-55.057907 11.436732 -33.156126
-52.017254 15.283445 -41.747704
-52.110019 15.265684 -40.478601
-51.149116 15.847721 -41.959536
-48.747679 16.090042 -47.183459
-47.739114 16.869833 -47.342579
-49.71098 15.285899 -46.97963
-50.74602 14.269083 -46.720123
-49.867014 15.860762 -45.837629
-48.747679 16.090042 -47.183459
-49.71098 15.285899 -46.97963
-51.962191 15.054087 -42.994156
-50.943333 15.46105 -44.431219
-51.849173 14.649655 -44.196737
-52.017254 15.283445 -41.747704
-51.962191 15.054087 -42.994156
3 0 18 16
3 1 21 19
3 1 23 21
3 2 60 62
3 60 24 61
3 60 61 62
3 2 26 24
3 2 28 26
3 64 63 29
3 65 32 66
3 67 34 68
3 69 68 32
3 67 68 69
3 4 36 35
3 6 37 17
3 6 38 37
3 7 41 39
3 9 70 71
3 9 72 74
3 72 42 73
3 72 73 74
3 75 43 76
3 10 44 20
3 10 45 44
3 10 46 45
3 11 47 22
3 11 48 47
3 12 77 78
3 12 79 81
3 79 49 80
3 79 80 81
3 12 50 49
3 13 51 25
3 13 52 51
3 13 53 52
3 14 54 27
3 14 82 84
3 84 83 54
3 82 83 84
3 3 55 33
3 5 85 86
3 88 87 30
3 8 56 40
3 15 57 31
3 15 58 57
3 89 59 90
3 93 92 59
3 91 92 93
3 16 17 4
3 18 17 16
3 18 6 17
3 95 94 7
3 96 9 97
3 19 98 100
3 98 20 99
3 98 99 100
3 21 20 19
3 21 10 20
3 21 22 10
3 23 22 21
3 23 11 22
3 24 101 102
3 24 103 105
3 103 12 104
3 103 104 105
3 24 25 12
3 26 25 24
3 26 13 25
3 26 27 13
3 28 27 26
3 28 14 27
3 107 106 3
3 29 30 5
3 108 30 109
3 110 109 29
3 108 109 110
3 112 111 30
3 113 31 114
3 115 114 8
3 113 114 115
3 116 31 117
3 118 15 119
3 120 119 31
3 118 119 120
3 121 19 122
3 123 19 124
3 125 1 126
3 127 126 19
3 125 126 127
3 32 128 129
3 32 130 132
3 130 2 131
3 130 131 132
3 32 33 2
3 34 33 32
3 34 3 33
3 133 34 134
3 135 34 136
3 137 3 138
3 139 138 34
3 137 138 139
3 141 140 3
3 35 142 143
3 36 144 146
3 146 145 35
3 144 145 146
3 36 147 149
3 147 5 148
3 147 148 149
3 17 36 4
3 37 36 17
3 37 5 36
3 37 29 5
3 38 29 37
3 38 150 152
3 152 151 29
3 150 151 152
3 39 40 0
3 41 40 39
3 41 8 40
3 153 41 154
3 155 154 7
3 153 154 155
3 156 41 157
3 158 8 159
3 160 159 41
3 158 159 160
3 162 161 8
3 42 163 164
3 42 165 166
3 43 167 168
3 43 169 171
3 169 9 170
3 169 170 171
3 20 172 174
3 172 43 173
3 172 173 174
3 44 43 20
3 44 9 43
3 44 42 9
3 45 42 44
3 45 175 177
3 177 176 42
3 175 176 177
3 45 178 180
3 178 35 179
3 178 179 180
3 46 35 45
3 46 4 35
3 22 46 10
3 47 46 22
3 47 4 46
3 47 16 4
3 48 16 47
3 48 0 16
3 181 1 182
3 49 183 184
3 49 185 187
3 185 1 186
3 185 186 187
3 49 23 1
3 50 23 49
3 50 11 23
3 25 50 12
3 51 50 25
3 51 11 50
3 51 48 11
3 52 48 51
3 52 0 48
3 52 39 0
3 53 39 52
3 53 7 39
3 27 53 13
3 54 53 27
3 54 7 53
3 54 188 190
3 190 189 7
3 188 189 190
3 192 191 54
3 33 28 2
3 55 28 33
3 55 14 28
3 193 55 194
3 195 194 3
3 193 194 195
3 196 55 197
3 198 14 199
3 200 199 55
3 198 199 200
3 202 201 14
3 30 203 205
3 205 204 5
3 203 204 205
3 207 206 30
3 40 18 0
3 56 18 40
3 56 6 18
3 31 56 8
3 57 56 31
3 57 6 56
3 57 38 6
3 58 38 57
3 58 208 210
3 210 209 38
3 208 209 210
3 211 15 212
3 59 213 214
3 59 215 217
3 215 15 216
3 215 216 217
3 59 58 15
3 218 58 219
3 220 219 59
3 218 219 220
3 222 221 58
