ply
format ascii 1.0
element vertex 176
property float x
property float y
property float z
element face 163
property list uchar int vertex_index
end_header
51.473625 53.578568 -5.606697
47.220535 54.726784 -13.422504
53.383507 49.784485 3.517124
47.873657 60.880127 -1.439663
52.395519 48.531067 -1.839567
50.848164 55.213806 0.796498
49.567951 58.739067 -8.875736
49.58989 54.651321 -9.730436
47.571175 62.837631 -6.557182
50.523365 57.248726 -4.175072
52.783287 51.867645 -1.187019
50.65213 56.132256 -7.331806
49.872063 56.67585 -9.504318
50.595505 54.216858 -7.710747
54.121532 48.207153 2.656427
54.402924 47.118088 4.939976
46.137569 64.773766 -4.971905
47.794388 61.931419 -4.02725
49.128208 60.025764 -5.446899
49.335655 59.08622 -2.948349
52.187668 52.47274 2.112988
52.050011 53.545815 -0.350225
53.178299 50.862328 1.128813
53.619774 49.236572 0.446042
52.046261 51.057182 -3.751574
51.034378 51.789078 -5.751032
49.400986 58.020561 -0.391914
48.214554 61.39534 -10.213362
48.836151 59.185318 -11.080431
48.939331 56.987099 -11.564869
48.464745 54.834641 -11.643148
49.912292 52.344902 -7.687168
48.702293 52.675423 -9.550917
47.417305 52.735413 -11.32498
47.17762 63.564949 -9.009121
48.760117 60.808647 -7.876961
50.127823 58.07885 -6.564802
51.278992 55.403275 -5.074032
50.760361 56.284683 -1.72031
51.746941 54.530327 -2.745548
52.209251 52.782555 -3.431257
52.918591 50.194466 -1.688112
53.417175 47.602737 0.081573
47.073874 62.315468 -1.898775
47.083351 61.736359 -0.567731
47.834023 61.405773 -2.733456
47.034239 62.841114 -3.192569
47.073874 62.315468 -1.898775
46.906669 55.734867 -14.321313
47.53469 55.873818 -13.451311
51.813118 48.942402 -2.769843
51.638489 50.20546 -3.725847
52.22089 49.794124 -2.795571
49.938468 51.186107 -6.599634
50.473335 52.06699 -6.7191
50.499511 50.908196 -5.631566
47.983738 51.700856 -9.27574
48.668033 51.588421 -8.415712
47.341244 51.730851 -10.162771
48.059799 52.705418 -10.437949
47.983738 51.700856 -9.27574
46.646147 51.698536 -10.992426
47.341244 51.730851 -10.162771
46.709598 64.235996 -7.040343
45.992795 65.204063 -6.247704
46.854372 63.805698 -5.764544
47.374398 63.20129 -7.783152
46.512821 64.599655 -8.266312
46.709598 64.235996 -7.040343
53.835321 47.101589 1.078653
53.518474 48.419655 0.263807
53.936621 47.918506 1.260887
53.571985 46.284135 0.934285
53.835321 47.101589 1.078653
51.815752 47.697212 -1.744087
52.476221 47.243461 -0.899742
54.493971 46.874836 3.402099
54.1875 47.403797 2.36608
54.634666 46.330303 4.543874
54.493971 46.874836 3.402099
54.262228 47.662621 3.798201
54.814053 45.776245 5.614298
54.634666 46.330303 4.543874
46.20583 64.262287 -3.664896
45.36091 65.670105 -4.073391
46.965978 63.352593 -4.499578
46.20583 64.262287 -3.664896
47.034239 62.841114 -3.192569
54.1875 47.403797 2.36608
53.936621 47.918506 1.260887
53.870653 48.721863 1.551234
51.132548 50.571408 -4.725575
51.540319 51.42313 -4.751303
51.638489 50.20546 -3.725847
50.499511 50.908196 -5.631566
51.132548 50.571408 -4.725575
51.813118 48.942402 -2.769843
51.815752 47.697212 -1.744087
53.390147 49.213616 4.74342
52.775677 50.555088 4.079762
47.856956 60.294609 -0.120175
47.083351 61.736359 -0.567731
48.620621 58.864826 0.403699
48.637321 59.450344 -0.915788
47.856956 60.294609 -0.120175
49.375141 57.436149 0.914872
48.620621 58.864826 0.403699
50.098731 56.032772 1.509078
50.124575 56.617183 0.202292
49.375141 57.436149 0.914872
50.826078 54.634659 2.086406
50.098731 56.032772 1.509078
51.49583 53.264126 2.744651
51.517916 53.843273 1.454743
50.826078 54.634659 2.086406
52.177757 51.899215 3.377694
51.49583 53.264126 2.744651
52.775677 50.555088 4.079762
52.785588 51.128613 2.815056
52.177757 51.899215 3.377694
46.537258 54.515374 -14.235146
46.641149 53.609669 -13.206277
47.843441 61.56718 -11.315262
47.401077 62.732746 -10.780189
48.15424 60.46217 -11.748797
47.843441 61.56718 -11.315262
48.525352 60.290329 -10.646897
48.378265 59.277691 -12.110625
48.15424 60.46217 -11.748797
48.429856 58.178581 -12.352843
48.378265 59.277691 -12.110625
48.887741 58.086208 -11.32265
48.394089 57.003975 -12.522493
48.429856 58.178581 -12.352843
48.156796 55.927746 -12.561633
48.394089 57.003975 -12.522493
48.702038 55.91087 -11.604008
47.84264 54.780712 -12.532826
47.53469 55.873818 -13.451311
48.156796 55.927746 -12.561633
49.273033 51.42316 -7.483838
49.938468 51.186107 -6.599634
49.307293 52.510162 -8.619042
49.273033 51.42316 -7.483838
48.668033 51.588421 -8.415712
46.739534 52.613984 -12.157515
46.641149 53.609669 -13.206277
47.31892 53.731099 -12.373742
45.968376 51.577106 -11.824962
46.739534 52.613984 -12.157515
46.646147 51.698536 -10.992426
53.899855 47.880417 5.454846
53.893215 48.451286 4.22855
53.390147 49.213616 4.74342
54.427418 46.544777 6.10987
53.899855 47.880417 5.454846
54.814053 45.776245 5.614298
54.427418 46.544777 6.10987
45.240919 66.159698 -5.392376
45.36091 65.670105 -4.073391
45.240919 66.159698 -5.392376
45.992795 65.204063 -6.247704
46.275364 64.930256 -9.495756
46.512821 64.599655 -8.266312
46.88261 63.81755 -10.178068
46.275364 64.930256 -9.495756
47.696087 62.480144 -9.611242
47.401077 62.732746 -10.780189
46.88261 63.81755 -10.178068
52.987049 46.779297 0.060828
52.476221 47.243461 -0.899742
52.906347 48.066902 -0.878997
52.987049 46.779297 0.060828
53.571985 46.284135 0.934285
46.906669 55.734867 -14.321313
46.537258 54.515374 -14.235146
3 0 13 11
3 2 15 14
3 3 43 44
3 3 45 47
3 45 17 46
3 45 46 47
3 3 19 17
3 2 22 20
3 2 14 22
3 1 48 49
3 4 50 52
3 52 51 24
3 50 51 52
3 6 28 27
3 7 29 12
3 7 30 29
3 53 31 54
3 55 54 25
3 53 54 55
3 56 32 57
3 58 33 59
3 60 59 32
3 58 59 60
3 62 61 33
3 8 63 65
3 65 64 16
3 63 64 65
3 8 66 68
3 66 34 67
3 66 67 68
3 8 35 34
3 9 36 18
3 9 37 36
3 5 38 26
3 10 39 21
3 10 40 39
3 10 41 40
3 69 42 70
3 71 70 23
3 69 70 71
3 73 72 42
3 75 74 4
3 11 12 6
3 13 12 11
3 13 7 12
3 14 76 77
3 15 78 80
3 80 79 14
3 78 79 80
3 15 81 82
3 83 16 84
3 17 85 87
3 85 16 86
3 85 86 87
3 17 8 16
3 17 18 8
3 19 18 17
3 19 9 18
3 20 21 5
3 22 21 20
3 22 10 21
3 22 23 10
3 14 23 22
3 14 88 90
3 90 89 23
3 88 89 90
3 24 25 0
3 91 25 92
3 93 92 24
3 91 92 93
3 95 94 25
3 97 96 4
3 99 98 2
3 100 3 101
3 102 26 103
3 104 103 3
3 102 103 104
3 105 26 106
3 107 5 108
3 109 108 26
3 107 108 109
3 110 5 111
3 112 20 113
3 114 113 5
3 112 113 114
3 115 20 116
3 117 2 118
3 119 118 20
3 117 118 119
3 121 120 1
3 27 122 123
3 28 124 126
3 126 125 27
3 124 125 126
3 28 127 128
3 12 28 6
3 29 28 12
3 29 129 131
3 131 130 28
3 129 130 131
3 29 132 133
3 30 134 136
3 136 135 29
3 134 135 136
3 30 137 139
3 137 1 138
3 137 138 139
3 25 13 0
3 31 13 25
3 31 7 13
3 140 31 141
3 32 142 144
3 142 31 143
3 142 143 144
3 32 7 31
3 32 30 7
3 33 30 32
3 33 1 30
3 33 145 147
3 147 146 1
3 145 146 147
3 150 149 33
3 148 149 150
3 151 15 152
3 153 152 2
3 151 152 153
3 154 15 155
3 157 156 15
3 16 158 159
3 161 160 16
3 34 162 163
3 34 164 165
3 34 166 168
3 166 27 167
3 166 167 168
3 35 27 34
3 35 6 27
3 18 35 8
3 36 35 18
3 36 6 35
3 36 11 6
3 37 11 36
3 37 0 11
3 26 19 3
3 38 19 26
3 38 9 19
3 21 38 5
3 39 38 21
3 39 9 38
3 39 37 9
3 40 37 39
3 40 0 37
3 40 24 0
3 41 24 40
3 41 4 24
3 23 41 10
3 42 41 23
3 42 4 41
3 42 169 171
3 171 170 4
3 169 170 171
3 173 172 42
3 175 174 1
