ply
format ascii 1.0
element vertex 394
property float x
property float y
property float z
element face 416
property list uchar int vertex_index
end_header
-0.337963 -64.811325 25.460627
1.605129 -65.431305 43.021854
0.458405 -75.656837 46.590927
1.291449 -65.454193 51.818237
1.290443 -75.620026 37.501953
0.351564 -65.286514 34.206993
2.43351 -55.536182 49.045998
0.710146 -54.153938 41.44487
-0.035179 -68.698761 57.981522
0.327379 -69.834755 53.652344
0.83881 -65.193024 56.020798
1.248892 -69.92408 26.634537
0.05171 -64.183975 21.138783
1.065456 -70.693649 44.586395
0.874199 -75.793427 42.027157
1.069101 -70.704773 40.058567
0.901463 -70.602036 35.560913
1.105976 -65.343613 38.605598
2.780312 -56.327709 52.910805
0.864542 -48.899479 44.773994
0.292976 -80.204803 48.978897
0.780293 -70.456978 49.133568
1.635015 -65.511635 47.439072
1.054295 -80.548721 44.383926
0.866407 -70.368996 31.091217
-0.234661 -65.1567 29.825073
1.568209 -61.429214 58.457031
1.86994 -61.014416 54.442841
2.097246 -60.671848 50.301239
2.057783 -60.28117 46.145302
2.214148 -49.998665 48.076569
1.763109 -54.773075 45.271736
1.539738 -59.928661 41.972672
0.551226 -59.715103 37.770844
0.258905 -66.52095 58.818459
0.371382 -67.027969 56.917458
0.66008 -65.014351 57.917381
-0.071918 -67.860985 60.013077
0.44276 -67.437096 25.951017
0.695484 -67.150108 23.751184
-0.19537 -64.533165 23.291962
1.381931 -68.094353 43.744251
1.10146 -70.717773 42.319103
1.308193 -68.080978 41.499123
1.142544 -68.056152 39.259056
1.408503 -65.382401 40.812157
0.805676 -67.699623 52.687187
0.561226 -70.202545 51.403053
1.038504 -67.901352 50.473732
1.231676 -68.023926 48.23716
1.495039 -65.507622 49.637848
0.300014 -77.991043 47.739632
0.662037 -80.45639 46.667099
0.592733 -78.168823 45.440865
1.072758 -75.737335 39.761925
1.554489 -75.447769 35.244267
0.6688 -67.984299 34.800285
0.845942 -70.507019 33.323357
0.457764 -67.920105 32.581299
0.329735 -67.816513 30.36734
0.011366 -65.240448 32.014336
1.722212 -61.19183 56.479729
2.305613 -59.018826 55.716843
2.640295 -55.933388 50.957695
2.374331 -58.441238 51.647064
2.335947 -58.148857 49.639862
2.126289 -60.479797 48.224014
2.220098 -57.852695 47.646271
0.754642 -51.482346 43.180992
1.368303 -51.890877 44.983131
1.280935 -54.438755 43.371338
1.665802 -57.303024 43.659531
1.209507 -57.081276 41.649094
1.089912 -59.80262 39.875385
0.654497 -56.907532 39.62159
-0.279243 -71.150368 56.999634
-0.101431 -71.855667 54.731346
0.114481 -69.340355 55.856018
0.569815 -67.410713 54.850655
1.060658 -65.346802 53.959564
0.732916 -73.21907 45.537964
0.673428 -75.773766 44.301781
0.864132 -73.285675 43.257751
0.954575 -73.286148 40.98719
1.020634 -73.236931 38.724838
1.09037 -73.146042 36.469513
0.990427 -70.665665 37.805733
0.914427 -68.025436 37.025925
0.735804 -65.315048 36.403809
2.784832 -53.317913 50.317627
0.227282 -75.417923 48.899391
0.118193 -72.400536 52.43512
0.346571 -72.798218 50.130013
0.557554 -73.064301 47.829025
0.955332 -70.613937 46.858925
1.353655 -68.081833 45.991615
1.679028 -65.480057 45.231987
0.893076 -78.217651 43.163269
1.198858 -73.012947 34.219902
1.381027 -72.831467 31.974072
1.663914 -72.594543 29.729303
0.995306 -70.176743 28.862186
0.319569 -67.658607 28.157169
-0.354374 -65.017578 27.6397
1.157568 -63.213203 57.20192
1.349958 -63.178585 55.217743
1.551622 -63.154194 53.144279
2.358658 -58.72739 53.673622
2.002071 -60.848633 52.376785
1.737194 -63.108349 51.026649
1.873943 -63.031616 48.888535
1.926817 -62.929344 46.740578
1.865068 -62.816128 44.586891
2.388102 -52.82423 48.524216
1.561493 -49.432636 46.435303
1.915789 -52.343212 46.756168
2.145647 -55.144405 47.157455
2.002384 -57.565151 45.656197
1.865965 -60.0919 44.062344
1.670429 -62.709644 42.429367
1.344601 -62.62421 40.269661
0.913118 -62.565651 38.109352
0.423016 -62.528881 35.949425
-0.022881 -59.656349 35.66
-0.066032 -62.498783 33.790054
-0.494862 -62.453979 31.631279
-0.818026 -62.371841 29.473999
-1.012476 -62.233047 27.320698
-1.078772 -62.024227 25.17527
-1.034723 -61.738415 23.04216
0.609789 -64.934952 58.667915
0.459492 -65.767651 58.36792
0.409201 -65.688252 59.118454
0.409201 -65.688252 59.118454
0.285415 -66.115478 59.685638
1.423168 -76.823204 38.068344
1.314326 -76.881858 39.19833
1.181601 -75.67868 38.631939
1.622299 -76.720192 36.935799
1.423168 -76.823204 38.068344
1.422466 -75.533897 36.37311
1.754322 -76.634063 35.806956
1.622299 -76.720192 36.935799
2.598088 -58.073458 56.346046
2.264028 -59.18112 56.740818
-0.206013 -69.483841 58.602288
-0.224382 -69.064953 59.618065
-0.053548 -68.279873 58.997299
-0.157211 -69.924565 57.490578
-0.328045 -70.709644 58.111344
-0.206013 -69.483841 58.602288
1.909627 -70.937485 25.933407
1.654933 -71.111737 27.058619
0.782345 -65.292439 20.264145
0.555851 -65.493073 21.350397
0.215742 -63.975586 20.072648
0.782345 -65.292439 20.264145
3.054417 -52.243545 50.88874
2.946253 -53.564974 51.242283
0.107431 -75.225834 50.064224
0.121121 -76.538151 49.483753
0.594415 -81.41288 48.475718
0.371466 -81.242626 49.639874
1.214368 -81.662064 45.031815
1.018239 -81.615898 46.173401
0.858166 -80.502555 45.525513
1.468093 -81.660759 43.894241
1.214368 -81.662064 45.031815
1.362888 -62.321208 57.829476
1.071223 -63.273678 58.113167
1.276544 -62.381683 58.740723
2.569485 -57.527549 53.292214
2.610806 -57.72434 54.295006
2.821633 -56.5245 53.913597
2.51019 -50.290413 48.906906
2.464221 -48.854742 48.650856
2.301125 -51.411448 48.300393
2.597167 -51.703195 49.13073
2.51019 -50.290413 48.906906
1.213018 -49.166058 45.604648
1.342841 -47.912775 46.308769
0.994366 -47.646197 45.478115
-0.297399 -59.631922 34.602103
-0.296867 -58.169243 35.589136
-0.318974 -61.053139 33.66713
-0.044456 -61.077566 34.725027
-0.297399 -59.631922 34.602103
-0.533389 -61.030737 32.587742
-0.280447 -62.476381 32.710667
-0.318974 -61.053139 33.66713
-1.110294 -60.908372 29.390446
-0.930461 -60.958365 30.449738
-1.20752 -60.838976 28.313796
-0.915251 -62.302444 28.397348
-1.110294 -60.908372 29.390446
-1.427574 -60.541804 25.130462
-1.360718 -60.655998 26.183808
-1.70952 -59.173575 26.138999
-1.40555 -60.398898 24.063907
-1.056748 -61.881321 24.108715
-1.427574 -60.541804 25.130462
0.120004 -66.785496 60.282948
-0.013073 -67.323109 60.997445
0.093494 -67.190967 59.415768
0.120004 -66.785496 60.282948
0.285415 -66.115478 59.685638
1.034345 -68.524795 25.179611
1.437412 -69.768287 25.521371
0.845826 -68.680588 26.292777
1.160708 -68.381302 24.079694
1.034345 -68.524795 25.179611
0.569122 -67.293602 24.851101
1.403484 -68.20042 22.968388
1.160708 -68.381302 24.079694
0.877738 -66.976139 22.656597
1.403484 -68.20042 22.968388
0.432311 -65.667667 22.426986
0.877738 -66.976139 22.656597
0.250057 -65.841636 23.521573
-0.07183 -64.35857 22.215373
0.555851 -65.493073 21.350397
0.432311 -65.667667 22.426986
1.140876 -76.950283 40.329615
1.041596 -76.978329 41.462231
0.973479 -75.765381 40.894541
1.140876 -76.950283 40.329615
1.314326 -76.881858 39.19833
1.989503 -76.499462 34.671171
1.754322 -76.634063 35.806956
1.723361 -75.334037 34.115305
1.989503 -76.499462 34.671171
1.972328 -60.267622 57.122261
1.645211 -61.310522 57.46838
1.895326 -60.386314 58.110912
2.013912 -60.105328 56.098286
1.972328 -60.267622 57.122261
2.264028 -59.18112 56.740818
2.07593 -48.520454 47.888745
2.464221 -48.854742 48.650856
-0.190337 -71.503017 55.86549
-0.274485 -72.809921 55.330711
-0.363391 -72.457271 56.464855
-0.214303 -68.529545 60.706226
-0.013073 -67.323109 60.997445
-0.214303 -68.529545 60.706226
-0.224382 -69.064953 59.618065
-0.435119 -72.006191 57.637886
-0.328045 -70.709644 58.111344
-0.363391 -72.457271 56.464855
-0.435119 -72.006191 57.637886
1.909627 -70.937485 25.933407
1.437412 -69.768287 25.521371
3.067935 -55.314729 53.503487
2.821633 -56.5245 53.913597
2.943993 -55.069872 52.538872
3.067935 -55.314729 53.503487
2.873984 -54.872712 51.562317
2.710304 -56.130549 51.93425
2.943993 -55.069872 52.538872
2.712563 -54.62565 50.637661
2.873984 -54.872712 51.562317
2.946253 -53.564974 51.242283
0.585125 -47.338036 44.69828
0.994366 -47.646197 45.478115
0.505263 -48.655844 43.918858
0.585125 -47.338036 44.69828
0.450314 -49.947277 43.122357
0.809592 -50.190912 43.977493
0.505263 -48.655844 43.918858
0.425848 -51.304844 42.258339
0.450314 -49.947277 43.122357
0.4036 -52.64064 41.390278
0.732394 -52.818142 42.312931
0.425848 -51.304844 42.258339
0.395416 -54.038333 40.466414
0.4036 -52.64064 41.390278
0.121789 -79.986805 50.154922
0.371466 -81.242626 49.639874
0.153968 -78.931591 49.523506
0.121789 -79.986805 50.154922
0.157487 -77.824711 48.903874
0.296495 -79.097923 48.359265
0.153968 -78.931591 49.523506
0.263648 -76.704483 48.319512
0.157487 -77.824711 48.903874
0.121121 -76.538151 49.483753
-0.173219 -73.170974 54.15374
-0.274485 -72.809921 55.330711
-0.063408 -73.443409 53.005627
-0.173219 -73.170974 54.15374
0.008381 -72.128101 53.583233
0.052886 -73.71714 51.832088
-0.063408 -73.443409 53.005627
0.167075 -73.915982 50.679535
0.052886 -73.71714 51.832088
0.232382 -72.599377 51.282567
0.286927 -74.10807 49.514702
0.107431 -75.225834 50.064224
0.167075 -73.915982 50.679535
0.778946 -81.538673 47.319818
0.594415 -81.41288 48.475718
0.477507 -80.330596 47.822998
0.778946 -81.538673 47.319818
1.018239 -81.615898 46.173401
1.051035 -78.190441 42.030287
0.883637 -77.005539 42.595213
1.041596 -76.978329 41.462231
1.182895 -79.363922 42.63933
1.051035 -78.190441 42.030287
1.263505 -80.529457 43.249659
0.973685 -79.383186 43.773598
1.182895 -79.363922 42.63933
1.468093 -81.660759 43.894241
1.263505 -80.529457 43.249659
1.545546 -74.116626 33.603122
1.723361 -75.334037 34.115305
1.376673 -74.230358 34.732084
1.63663 -74.025886 32.480207
1.545546 -74.116626 33.603122
1.289942 -72.922207 33.096987
1.852783 -73.883267 31.349737
1.63663 -74.025886 32.480207
1.994226 -73.764804 30.227353
1.852783 -73.883267 31.349737
1.52247 -72.713005 30.851688
2.262246 -73.593514 29.093808
1.994226 -73.764804 30.227353
1.862444 -72.446968 28.606002
2.262246 -73.593514 29.093808
1.52814 -71.238068 28.172443
1.862444 -72.446968 28.606002
1.32961 -71.385643 29.295745
1.122099 -70.050411 27.748362
1.654933 -71.111737 27.058619
1.52814 -71.238068 28.172443
1.484266 -61.619609 59.406029
1.276544 -62.381683 58.740723
1.837497 -60.586725 59.13005
1.484266 -61.619609 59.406029
1.895326 -60.386314 58.110912
1.837497 -60.586725 59.13005
0.82248 -64.174251 58.470897
0.609789 -64.934952 58.667915
0.908824 -64.113777 57.559651
0.82248 -64.174251 58.470897
1.071223 -63.273678 58.113167
2.584284 -57.870058 55.316616
2.598088 -58.073458 56.346046
2.332136 -58.873108 54.695233
2.584284 -57.870058 55.316616
2.610806 -57.72434 54.295006
2.795532 -51.950037 50.027435
3.054417 -52.243545 50.88874
2.586467 -53.071072 49.420922
2.795532 -51.950037 50.027435
2.597167 -51.703195 49.13073
1.749602 -48.23744 47.068112
1.530951 -46.717579 46.941578
1.342841 -47.912775 46.308769
1.88782 -49.715651 47.255936
2.07593 -48.520454 47.888745
1.749602 -48.23744 47.068112
0.367591 -55.415131 39.554773
0.682322 -55.530735 40.53323
0.395416 -54.038333 40.466414
0.34865 -56.843233 38.599363
0.367591 -55.415131 39.554773
0.297015 -58.247018 37.673991
0.602861 -58.311318 38.696217
0.34865 -56.843233 38.599363
0.009961 -58.217641 36.618568
-0.296867 -58.169243 35.589136
0.264172 -59.685726 36.715422
0.297015 -58.247018 37.673991
0.009961 -58.217641 36.618568
-0.768879 -60.999433 31.528378
-0.533389 -61.030737 32.587742
-0.656444 -62.41291 30.552639
-0.768879 -60.999433 31.528378
-0.930461 -60.958365 30.449738
-1.32757 -60.760408 27.256521
-1.20752 -60.838976 28.313796
-1.045624 -62.128637 26.247984
-1.32757 -60.760408 27.256521
-1.360718 -60.655998 26.183808
-1.431276 -60.244807 23.01585
-1.40555 -60.398898 24.063907
-0.969657 -61.555973 21.983769
-1.431276 -60.244807 23.01585
-0.426441 -62.778753 21.03208
-0.491507 -62.961195 22.090471
-0.969657 -61.555973 21.983769
0.215742 -63.975586 20.072648
-0.426441 -62.778753 21.03208
3 130 36 131
3 132 131 34
3 130 131 132
3 133 34 134
3 0 39 38
3 0 40 39
3 1 43 41
3 1 45 43
3 3 48 46
3 3 50 48
3 2 53 51
3 4 135 137
3 137 136 54
3 135 136 137
3 4 138 139
3 4 140 142
3 140 55 141
3 140 141 142
3 5 58 56
3 5 60 58
3 143 62 144
3 6 65 63
3 6 67 65
3 7 70 68
3 7 72 70
3 7 74 72
3 8 77 75
3 10 78 35
3 10 79 78
3 8 145 147
3 147 146 37
3 145 146 147
3 8 148 150
3 148 75 149
3 148 149 150
3 11 151 152
3 12 153 154
3 12 155 156
3 13 82 80
3 15 83 42
3 15 84 83
3 15 86 84
3 17 87 44
3 17 88 87
3 157 89 158
3 159 90 160
3 9 91 76
3 21 92 47
3 21 93 92
3 21 94 93
3 22 95 49
3 22 96 95
3 20 161 162
3 23 163 165
3 165 164 52
3 163 164 165
3 23 166 167
3 14 97 81
3 16 98 85
3 24 99 57
3 24 100 99
3 24 101 100
3 25 102 59
3 25 103 102
3 26 168 170
3 168 104 169
3 168 169 170
3 27 105 61
3 27 106 105
3 18 171 173
3 171 107 172
3 171 172 173
3 28 108 64
3 28 109 108
3 28 110 109
3 29 111 66
3 29 112 111
3 30 174 175
3 30 176 178
3 176 113 177
3 176 177 178
3 19 179 181
3 179 114 180
3 179 180 181
3 31 115 69
3 31 116 115
3 31 117 116
3 32 118 71
3 32 119 118
3 32 120 119
3 33 121 73
3 33 122 121
3 182 123 183
3 184 124 185
3 186 185 123
3 184 185 186
3 187 125 188
3 189 188 124
3 187 188 189
3 190 126 191
3 192 127 193
3 194 193 126
3 192 193 194
3 195 128 196
3 195 196 197
3 198 129 199
3 200 199 128
3 198 199 200
3 34 35 8
3 36 35 34
3 36 10 35
3 201 37 202
3 34 203 205
3 203 37 204
3 203 204 205
3 34 8 37
3 38 206 208
3 208 207 11
3 206 207 208
3 39 209 211
3 211 210 38
3 209 210 211
3 39 212 213
3 39 214 215
3 40 216 218
3 218 217 39
3 216 217 218
3 40 219 221
3 219 12 220
3 219 220 221
3 41 42 13
3 43 42 41
3 43 15 42
3 43 44 15
3 45 44 43
3 45 17 44
3 46 47 9
3 48 47 46
3 48 21 47
3 48 49 21
3 50 49 48
3 50 22 49
3 51 52 20
3 53 52 51
3 53 23 52
3 54 222 224
3 224 223 14
3 222 223 224
3 226 225 54
3 55 227 228
3 55 229 230
3 56 57 16
3 58 57 56
3 58 24 57
3 58 59 24
3 60 59 58
3 60 25 59
3 231 61 232
3 233 232 26
3 231 232 233
3 62 234 236
3 234 61 235
3 234 235 236
3 62 27 61
3 63 64 18
3 65 64 63
3 65 28 64
3 65 66 28
3 67 66 65
3 67 29 66
3 237 30 238
3 68 69 19
3 70 69 68
3 70 31 69
3 70 71 31
3 72 71 70
3 72 32 71
3 72 73 32
3 74 73 72
3 74 33 73
3 75 239 241
3 239 76 240
3 239 240 241
3 77 76 75
3 77 9 76
3 35 77 8
3 78 77 35
3 78 9 77
3 78 46 9
3 79 46 78
3 79 3 46
3 37 242 243
3 245 244 37
3 75 246 247
3 75 248 249
3 251 250 11
3 80 81 2
3 82 81 80
3 82 14 81
3 42 82 13
3 83 82 42
3 83 14 82
3 83 54 14
3 84 54 83
3 84 4 54
3 84 85 4
3 86 85 84
3 86 16 85
3 44 86 15
3 87 86 44
3 87 16 86
3 87 56 16
3 88 56 87
3 88 5 56
3 252 18 253
3 254 18 255
3 256 63 257
3 258 257 18
3 256 257 258
3 89 259 261
3 259 63 260
3 259 260 261
3 89 6 63
3 262 19 263
3 264 19 265
3 266 68 267
3 268 267 19
3 266 267 268
3 269 68 270
3 271 7 272
3 273 272 68
3 271 272 273
3 275 274 7
3 276 20 277
3 278 20 279
3 280 51 281
3 282 281 20
3 280 281 282
3 90 283 285
3 283 51 284
3 283 284 285
3 90 2 51
3 76 286 287
3 91 288 290
3 290 289 76
3 288 289 290
3 91 291 292
3 47 91 9
3 92 91 47
3 92 293 295
3 295 294 91
3 293 294 295
3 92 296 298
3 296 90 297
3 296 297 298
3 93 90 92
3 93 2 90
3 93 80 2
3 94 80 93
3 94 13 80
3 49 94 21
3 95 94 49
3 95 13 94
3 95 41 13
3 96 41 95
3 96 1 41
3 52 299 301
3 301 300 20
3 299 300 301
3 303 302 52
3 81 53 2
3 97 53 81
3 97 23 53
3 304 97 305
3 306 305 14
3 304 305 306
3 307 97 308
3 309 23 310
3 311 310 97
3 309 310 311
3 313 312 23
3 85 55 4
3 98 55 85
3 98 314 316
3 316 315 55
3 314 315 316
3 57 98 16
3 99 98 57
3 99 317 319
3 319 318 98
3 317 318 319
3 99 320 321
3 100 322 324
3 324 323 99
3 322 323 324
3 100 325 326
3 100 327 328
3 101 329 331
3 331 330 100
3 329 330 331
3 101 332 334
3 332 11 333
3 332 333 334
3 59 101 24
3 102 101 59
3 102 11 101
3 102 38 11
3 103 38 102
3 103 0 38
3 335 26 336
3 337 26 338
3 340 339 26
3 341 36 342
3 104 343 345
3 343 36 344
3 343 344 345
3 104 10 36
3 61 104 26
3 105 104 61
3 105 10 104
3 105 79 10
3 106 79 105
3 106 3 79
3 346 62 347
3 107 348 350
3 348 62 349
3 348 349 350
3 107 27 62
3 64 107 18
3 108 107 64
3 108 27 107
3 108 106 27
3 109 106 108
3 109 3 106
3 109 50 3
3 110 50 109
3 110 22 50
3 66 110 28
3 111 110 66
3 111 22 110
3 111 96 22
3 112 96 111
3 112 1 96
3 351 89 352
3 113 353 355
3 353 89 354
3 353 354 355
3 113 6 89
3 114 356 358
3 356 357 358
3 114 359 361
3 359 30 360
3 359 360 361
3 69 114 19
3 115 114 69
3 115 30 114
3 115 113 30
3 116 113 115
3 116 6 113
3 116 67 6
3 117 67 116
3 117 29 67
3 71 117 31
3 118 117 71
3 118 29 117
3 118 112 29
3 119 112 118
3 119 1 112
3 119 45 1
3 120 45 119
3 120 17 45
3 73 120 32
3 121 120 73
3 121 17 120
3 121 88 17
3 122 88 121
3 122 5 88
3 362 74 363
3 364 363 7
3 362 363 364
3 365 74 366
3 367 33 368
3 369 368 74
3 367 368 369
3 123 370 371
3 123 372 374
3 372 33 373
3 372 373 374
3 123 122 33
3 124 122 123
3 124 5 122
3 124 60 5
3 125 60 124
3 125 25 60
3 375 125 376
3 126 377 379
3 377 125 378
3 377 378 379
3 126 25 125
3 126 103 25
3 127 103 126
3 127 0 103
3 380 127 381
3 128 382 384
3 382 127 383
3 382 383 384
3 128 0 127
3 128 40 0
3 129 40 128
3 129 12 40
3 385 129 386
3 387 129 388
3 389 12 390
3 391 390 129
3 389 390 391
3 393 392 12
