ply
format ascii 1.0
element vertex 349
property float x
property float y
property float z
element face 384
property list uchar int vertex_index
end_header
-13.942536 -69.073807 -14.557272
-23.661964 -83.095268 -19.847324
-12.34354 -59.852772 -12.915615
-22.938126 -60.164352 -19.15147
-7.826767 -75.291138 -9.489393
-7.773224 -85.735275 -12.029026
-11.945801 -94.064972 -16.163206
-18.462151 -77.27034 -16.544888
-27.735226 -65.971985 -21.750072
-12.663895 -64.365326 -13.926355
-15.08784 -56.810707 -15.548372
-16.290157 -60.793224 -16.307512
-20.198038 -56.690266 -18.727962
-18.529377 -64.901497 -16.746834
-4.440205 -88.507919 -9.014091
-18.035791 -89.003616 -17.863605
-15.212479 -85.777084 -16.17296
-20.966682 -80.512573 -18.066074
-23.636612 -71.911316 -18.747463
-25.840214 -74.557419 -20.540146
-26.561584 -54.994633 -22.23035
-10.098413 -67.368698 -11.369484
-10.07453 -72.5327 -12.156101
-5.538982 -83.069984 -7.575583
-7.211342 -80.691277 -10.464201
-11.016287 -77.515366 -13.116955
-9.431906 -90.209839 -14.074911
-12.827229 -81.953323 -14.510761
-16.028145 -73.460526 -15.349876
-21.178299 -68.668358 -17.469349
-25.623844 -63.330727 -20.087177
-13.179621 -66.729843 -14.252155
-14.392218 -62.651234 -15.132292
-15.184581 -64.876671 -15.401566
-17.311733 -62.866219 -16.524796
-16.206333 -67.069595 -15.658192
-22.531403 -87.29599 -19.681011
-19.63727 -90.33577 -18.724461
-20.956154 -86.151169 -18.767639
-19.51033 -84.781219 -17.912647
-22.269411 -81.904335 -18.921143
-23.54583 -77.620796 -19.190681
-24.7714 -78.841446 -20.13303
-12.410183 -57.804413 -12.117765
-13.568371 -56.461548 -13.493744
-16.686882 -55.122322 -16.852787
-21.516975 -58.44492 -18.90823
-22.036377 -54.475639 -20.073593
-23.427391 -56.06974 -20.283886
-25.135208 -53.598869 -21.837177
-24.869522 -57.630047 -20.58947
-8.976742 -71.319626 -10.452326
-9.979685 -69.942467 -11.773462
-8.70274 -73.99102 -10.844162
-5.827847 -87.244492 -10.570679
-5.780022 -84.654037 -9.702944
-7.341202 -83.276169 -11.166941
-8.896204 -79.213379 -11.840982
-9.401962 -81.665268 -12.529955
-7.844555 -94.212173 -13.965479
-10.59351 -92.217194 -15.139482
-16.871246 -81.542343 -16.304024
-13.962676 -83.938278 -15.327538
-15.643669 -79.709793 -15.553829
-14.488407 -77.729675 -14.869843
-17.227646 -75.439514 -15.89772
-18.647232 -71.142624 -16.386724
-19.918629 -72.973427 -16.923134
-25.834839 -69.015579 -20.127132
-24.743008 -67.608414 -19.3223
-26.750977 -64.727478 -20.832256
-27.443953 -60.48019 -21.721313
-28.471516 -61.71014 -22.579571
-12.399185 -62.052261 -13.503651
-13.614653 -58.386829 -14.240818
-13.870346 -60.465397 -14.770094
-15.5384 -58.75156 -16.009296
-17.312849 -56.913811 -17.245895
-19.105019 -54.961506 -18.517387
-18.256523 -58.801159 -17.489502
-19.453768 -60.715725 -17.673527
-20.803156 -62.592701 -17.888618
-3.691689 -89.546692 -7.417042
-6.207365 -89.7117 -11.608942
-16.584877 -93.151459 -17.910057
-14.991791 -91.647797 -17.034393
-13.550535 -89.959167 -16.131052
-16.567612 -87.471222 -17.019619
-18.157425 -83.235168 -17.094177
-19.707287 -78.961372 -17.272892
-21.158764 -74.664566 -17.577705
-22.359224 -76.217712 -18.337429
-24.749123 -73.319321 -19.586964
-26.841208 -70.261642 -21.075207
-25.196093 -84.030197 -20.856441
-26.10239 -79.830215 -21.164139
-14.913335 -55.022346 -14.865278
-26.617447 -51.034191 -23.578701
-28.00927 -52.257355 -24.06995
-11.206211 -63.516773 -12.20142
-11.204403 -65.934875 -12.671511
-11.409269 -68.417244 -13.045021
-11.858021 -70.896622 -13.39657
-6.666355 -79.222504 -8.519711
-4.817133 -85.820511 -8.188753
-6.070066 -81.968201 -9.025955
-7.385523 -78.014801 -9.918314
-8.66301 -76.640518 -11.287857
-10.420628 -75.075783 -12.587589
-12.546535 -73.306061 -13.79302
-6.890907 -92.03775 -12.764233
-8.481552 -88.048782 -13.01734
-12.256163 -88.112915 -15.195356
-11.116673 -86.117493 -14.25165
-10.154194 -83.969421 -13.346045
-11.832222 -79.813156 -13.762356
-13.439915 -75.593307 -14.27903
-14.91226 -71.332237 -14.908476
-17.386997 -69.17041 -15.971323
-19.848669 -66.845757 -17.045887
-22.192543 -64.383766 -18.208813
-22.450804 -70.357986 -18.037155
-23.525581 -66.060501 -18.680859
-24.338356 -61.802849 -19.530376
-26.236177 -59.111176 -21.057541
-27.86998 -56.308788 -22.803307
-26.986876 -75.584007 -21.592793
-17.300148 -53.479829 -17.243771
-17.509087 -54.223795 -17.516248
-8.401754 -73.305382 -9.970859
-8.71384 -71.943528 -9.780303
-8.138853 -73.929283 -9.298837
-11.2 -96.063072 -16.208781
-12.713037 -94.89946 -16.644965
-10.49233 -95.14521 -15.653804
-11.2 -96.063072 -16.208781
-11.269655 -93.141083 -15.651344
-9.816185 -94.221322 -15.141942
-10.49233 -95.14521 -15.653804
-5.493084 -91.645027 -11.434923
-5.319389 -90.407059 -10.830261
-26.05521 -84.342591 -21.401867
-24.734144 -86.094414 -20.764545
-26.398915 -82.281364 -21.566871
-26.05521 -84.342591 -21.401867
-20.517173 -54.798361 -19.29718
-19.970664 -53.933981 -19.191893
-19.651528 -55.825886 -18.622675
-22.240036 -52.617117 -20.702341
-22.874661 -53.321666 -20.819967
-10.224612 -66.118961 -11.119089
-9.750266 -68.024956 -10.702818
-10.652312 -65.442735 -11.785452
-10.778511 -64.192999 -11.535057
-10.224612 -66.118961 -11.119089
-6.035863 -81.678196 -7.354332
-5.582099 -83.543407 -6.865536
-6.102669 -81.146244 -8.047647
-6.599549 -79.754456 -7.826396
-6.035863 -81.678196 -7.354332
-28.432273 -56.906872 -23.189873
-27.656967 -58.394489 -22.26231
-28.219259 -58.992573 -22.648876
-28.563557 -54.851 -23.774052
-28.432273 -56.906872 -23.189873
-27.629266 -75.966049 -22.160483
-26.544633 -77.707111 -21.378466
-27.187023 -78.089153 -21.946155
-21.084336 -88.81588 -19.202736
-20.517466 -90.87513 -19.178862
-21.964532 -89.35524 -19.657137
-13.018403 -56.253225 -12.315786
-12.444657 -56.858211 -11.608737
-13.597497 -55.581793 -13.003775
-13.018403 -56.253225 -12.315786
-12.989277 -57.132981 -12.805754
-14.249433 -54.933644 -13.715505
-13.597497 -55.581793 -13.003775
-16.535904 -54.301838 -16.546574
-15.736383 -55.146031 -15.894366
-15.887361 -55.966515 -16.200579
-16.535904 -54.301838 -16.546574
-17.300148 -53.479829 -17.243771
-23.570168 -54.118717 -20.925114
-22.874661 -53.321666 -20.819967
-22.731884 -55.272689 -20.178739
-24.281299 -54.834305 -21.060531
-24.424076 -52.883281 -21.701759
-23.570168 -54.118717 -20.925114
-9.189431 -70.000419 -10.244239
-8.71384 -71.943528 -9.780303
-9.537578 -69.344162 -10.910905
-9.750266 -68.024956 -10.702818
-9.189431 -70.000419 -10.244239
-5.019759 -84.935001 -7.126774
-5.582099 -83.543407 -6.865536
-8.441707 -95.218811 -14.554941
-7.131583 -96.154198 -13.935655
-9.219033 -93.214684 -14.55248
-8.441707 -95.218811 -14.554941
-9.816185 -94.221322 -15.141942
-28.733041 -59.607548 -23.078005
-28.219259 -58.992573 -22.648876
-27.957735 -61.095165 -22.150442
-17.82207 -55.11954 -17.712803
-17.509087 -54.223795 -17.516248
-16.999865 -56.018067 -17.049341
-18.208934 -55.937658 -17.881641
-18.718155 -54.143387 -18.348548
-17.82207 -55.11954 -17.712803
-7.657333 -75.873051 -8.808385
-8.138853 -73.929283 -9.298837
-3.22007 -91.332443 -7.062247
-3.647768 -89.963409 -6.625324
-3.475824 -90.889397 -7.907277
-3.22007 -91.332443 -7.062247
-3.850083 -90.37001 -8.705801
-4.065947 -89.027305 -8.215567
-3.475824 -90.889397 -7.907277
-4.435809 -89.805168 -9.532836
-3.850083 -90.37001 -8.705801
-5.129631 -89.173454 -10.311129
-5.134026 -87.876205 -9.792385
-4.435809 -89.805168 -9.532836
-6.017606 -88.478096 -11.089811
-5.129631 -89.173454 -10.311129
-5.319389 -90.407059 -10.830261
-18.990321 -92.380554 -18.755503
-20.517466 -90.87513 -19.178862
-17.464124 -93.788399 -18.348301
-18.990321 -92.380554 -18.755503
-18.111073 -91.743615 -18.317259
-15.891763 -95.170082 -17.976156
-17.464124 -93.788399 -18.348301
-15.032576 -94.442703 -17.51839
-15.891763 -95.170082 -17.976156
-14.236033 -93.690872 -17.080559
-15.032576 -94.442703 -17.51839
-15.788334 -92.399628 -17.472225
-13.468796 -92.856384 -16.598799
-12.713037 -94.89946 -16.644965
-14.236033 -93.690872 -17.080559
-23.401798 -87.72731 -20.17683
-21.964532 -89.35524 -19.657137
-23.863748 -85.663094 -20.268726
-23.401798 -87.72731 -20.17683
-24.734144 -86.094414 -20.764545
-26.852063 -80.181374 -21.72072
-25.649242 -81.930206 -21.01029
-26.398915 -82.281364 -21.566871
-27.187023 -78.089153 -21.946155
-26.852063 -80.181374 -21.72072
-14.921915 -54.214042 -14.401273
-14.249433 -54.933644 -13.715505
-14.240853 -55.741947 -14.179511
-15.649131 -54.25185 -15.552819
-15.000587 -55.916527 -15.206825
-15.736383 -55.146031 -15.894366
-15.629713 -53.518836 -15.120334
-15.649131 -54.25185 -15.552819
-14.921915 -54.214042 -14.401273
-15.629713 -53.518836 -15.120334
-19.525294 -53.194177 -19.039499
-18.718155 -54.143387 -18.348548
-19.525294 -53.194177 -19.039499
-19.970664 -53.933981 -19.191893
-21.436343 -53.691047 -19.969995
-20.517173 -54.798361 -19.29718
-21.117207 -55.582953 -19.400778
-21.436343 -53.691047 -19.969995
-22.240036 -52.617117 -20.702341
-25.163572 -51.684734 -22.531944
-24.424076 -52.883281 -21.701759
-25.904691 -50.402395 -23.402706
-25.163572 -51.684734 -22.531944
-25.876327 -52.31653 -22.707939
-26.539611 -49.159094 -24.315378
-25.904691 -50.402395 -23.402706
-27.247842 -49.704382 -24.535135
-26.539611 -49.159094 -24.315378
-27.943753 -50.315964 -24.78076
-27.247842 -49.704382 -24.535135
-27.313358 -51.645773 -23.824326
-28.6227 -50.837374 -25.072029
-27.943753 -50.315964 -24.78076
-11.944589 -58.431709 -11.426686
-12.444657 -56.858211 -11.608737
-11.872663 -59.510055 -11.843711
-11.944589 -58.431709 -11.426686
-11.839342 -60.534235 -12.242636
-12.376862 -58.828592 -12.51669
-11.872663 -59.510055 -11.843711
-11.270677 -62.366236 -11.885538
-10.778511 -64.192999 -11.535057
-11.774876 -61.684773 -12.558518
-11.839342 -60.534235 -12.242636
-11.270677 -62.366236 -11.885538
-7.077127 -77.838734 -8.323544
-6.599549 -79.754456 -7.826396
-7.246561 -77.256821 -9.004552
-7.657333 -75.873051 -8.808385
-7.077127 -77.838734 -8.323544
-4.096113 -88.173355 -7.047504
-3.647768 -89.963409 -6.625324
-4.658835 -86.310264 -7.433359
-4.096113 -88.173355 -7.047504
-4.254411 -87.683601 -7.802898
-5.178057 -84.445247 -7.882168
-5.019759 -84.935001 -7.126774
-4.658835 -86.310264 -7.433359
-6.648466 -95.063759 -13.268978
-7.131583 -96.154198 -13.935655
-6.171642 -93.976547 -12.668355
-6.648466 -95.063759 -13.268978
-7.367731 -93.124962 -13.364856
-5.834855 -92.808052 -12.012569
-6.171642 -93.976547 -12.668355
-6.549136 -90.874725 -12.186588
-5.493084 -91.645027 -11.434923
-5.834855 -92.808052 -12.012569
-28.633201 -52.825283 -24.407373
-27.939625 -54.283071 -23.436628
-28.563557 -54.851 -23.774052
-28.6227 -50.837374 -25.072029
-28.633201 -52.825283 -24.407373
-27.959871 -73.853771 -22.44323
-27.629266 -75.966049 -22.160483
-27.414105 -73.448292 -21.866596
-27.959871 -73.853771 -22.44323
-26.840773 -72.934998 -21.340273
-26.413545 -75.070713 -21.06647
-27.414105 -73.448292 -21.866596
-27.341271 -70.787109 -21.607803
-26.340711 -72.40953 -20.807676
-26.840773 -72.934998 -21.340273
-27.743454 -68.648415 -21.94191
-27.341271 -70.787109 -21.607803
-28.190463 -66.503586 -22.279342
-27.288217 -68.116814 -21.412639
-27.743454 -68.648415 -21.94191
-28.549132 -64.372416 -22.676817
-28.190463 -66.503586 -22.279342
-28.917276 -62.241493 -23.091566
-28.103371 -63.841063 -22.164822
-28.549132 -64.372416 -22.676817
-29.205976 -60.130812 -23.55691
-28.917276 -62.241493 -23.091566
-28.733041 -59.607548 -23.078005
-29.205976 -60.130812 -23.55691
3 0 33 31
3 0 35 33
3 1 38 36
3 1 40 38
3 1 42 40
3 2 44 43
3 128 127 45
3 3 48 46
3 3 50 48
3 4 129 131
3 129 51 130
3 129 130 131
3 4 53 51
3 5 56 54
3 5 58 56
3 6 132 133
3 6 134 135
3 6 136 138
3 136 60 137
3 136 137 138
3 7 63 61
3 7 65 63
3 7 67 65
3 8 70 68
3 8 72 70
3 9 75 73
3 11 76 32
3 11 77 76
3 11 79 77
3 13 80 34
3 13 81 80
3 139 83 140
3 15 84 37
3 15 85 84
3 15 87 85
3 17 88 39
3 17 89 88
3 17 91 89
3 19 92 41
3 19 93 92
3 141 94 142
3 144 143 94
3 10 96 74
3 12 145 147
3 147 146 78
3 145 146 147
3 149 148 47
3 20 97 49
3 20 98 97
3 21 150 151
3 21 152 154
3 152 99 153
3 152 153 154
3 21 100 99
3 22 101 52
3 22 102 101
3 23 155 156
3 23 157 159
3 157 103 158
3 157 158 159
3 14 104 82
3 24 105 55
3 24 106 105
3 24 107 106
3 25 108 57
3 25 109 108
3 26 110 59
3 26 111 110
3 16 112 86
3 27 113 62
3 27 114 113
3 27 115 114
3 28 116 64
3 28 117 116
3 28 118 117
3 29 119 66
3 29 120 119
3 18 121 90
3 30 122 69
3 30 123 122
3 30 124 123
3 160 125 161
3 162 161 71
3 160 161 162
3 164 163 125
3 165 126 166
3 167 166 95
3 165 166 167
3 31 32 9
3 33 32 31
3 33 11 32
3 33 34 11
3 35 34 33
3 35 13 34
3 36 168 170
3 168 37 169
3 168 169 170
3 38 37 36
3 38 15 37
3 38 39 15
3 40 39 38
3 40 17 39
3 40 41 17
3 42 41 40
3 42 19 41
3 43 171 172
3 44 173 175
3 175 174 43
3 173 174 175
3 44 176 177
3 45 178 180
3 180 179 10
3 178 179 180
3 182 181 45
3 46 47 12
3 48 47 46
3 48 183 185
3 185 184 47
3 183 184 185
3 48 186 188
3 186 49 187
3 186 187 188
3 50 49 48
3 50 20 49
3 51 189 190
3 51 191 193
3 191 21 192
3 191 192 193
3 51 52 21
3 53 52 51
3 53 22 52
3 194 23 195
3 54 55 14
3 56 55 54
3 56 24 55
3 56 57 24
3 58 57 56
3 58 25 57
3 196 59 197
3 60 198 200
3 198 59 199
3 198 199 200
3 60 26 59
3 61 62 16
3 63 62 61
3 63 27 62
3 63 64 27
3 65 64 63
3 65 28 64
3 65 66 28
3 67 66 65
3 67 29 66
3 68 69 18
3 70 69 68
3 70 30 69
3 70 71 30
3 72 71 70
3 72 201 203
3 203 202 71
3 201 202 203
3 73 74 2
3 75 74 73
3 75 10 74
3 32 75 9
3 76 75 32
3 76 10 75
3 76 45 10
3 77 45 76
3 77 204 206
3 206 205 45
3 204 205 206
3 77 207 209
3 207 78 208
3 207 208 209
3 79 78 77
3 79 12 78
3 34 79 11
3 80 79 34
3 80 12 79
3 80 46 12
3 81 46 80
3 81 3 46
3 210 4 211
3 212 82 213
3 214 82 215
3 216 14 217
3 218 217 82
3 216 217 218
3 219 14 220
3 221 54 222
3 223 222 14
3 221 222 223
3 83 224 226
3 224 54 225
3 224 225 226
3 83 5 54
3 37 227 228
3 84 229 231
3 231 230 37
3 229 230 231
3 84 232 233
3 84 234 235
3 85 236 238
3 238 237 84
3 236 237 238
3 85 239 241
3 239 6 240
3 239 240 241
3 85 86 6
3 87 86 85
3 87 16 86
3 39 87 15
3 88 87 39
3 88 16 87
3 88 61 16
3 89 61 88
3 89 7 61
3 89 90 7
3 91 90 89
3 91 18 90
3 41 91 17
3 92 91 41
3 92 18 91
3 92 68 18
3 93 68 92
3 93 8 68
3 242 36 243
3 94 244 246
3 244 36 245
3 244 245 246
3 94 1 36
3 94 95 1
3 247 95 248
3 249 248 94
3 247 248 249
3 251 250 95
3 74 44 2
3 96 44 74
3 96 252 254
3 254 253 44
3 252 253 254
3 255 96 256
3 257 256 10
3 255 256 257
3 258 96 259
3 261 260 96
3 78 262 263
3 265 264 78
3 47 266 268
3 268 267 12
3 266 267 268
3 270 269 47
3 49 271 272
3 97 273 275
3 275 274 49
3 273 274 275
3 97 276 277
3 97 278 279
3 98 280 282
3 282 281 97
3 280 281 282
3 98 283 284
3 285 43 286
3 287 43 288
3 289 2 290
3 291 290 43
3 289 290 291
3 99 292 293
3 99 294 296
3 294 2 295
3 294 295 296
3 99 73 2
3 100 73 99
3 100 9 73
3 52 100 21
3 101 100 52
3 101 9 100
3 101 31 9
3 102 31 101
3 102 0 31
3 103 297 298
3 103 299 301
3 299 4 300
3 299 300 301
3 82 302 303
3 104 304 306
3 306 305 82
3 304 305 306
3 104 307 309
3 307 23 308
3 307 308 309
3 55 104 14
3 105 104 55
3 105 23 104
3 105 103 23
3 106 103 105
3 106 4 103
3 106 53 4
3 107 53 106
3 107 22 53
3 57 107 24
3 108 107 57
3 108 22 107
3 108 102 22
3 109 102 108
3 109 0 102
3 59 310 311
3 110 312 314
3 314 313 59
3 312 313 314
3 110 315 316
3 110 317 319
3 317 83 318
3 317 318 319
3 111 83 110
3 111 5 83
3 86 60 6
3 112 60 86
3 112 26 60
3 62 112 16
3 113 112 62
3 113 26 112
3 113 111 26
3 114 111 113
3 114 5 111
3 114 58 5
3 115 58 114
3 115 25 58
3 64 115 27
3 116 115 64
3 116 25 115
3 116 109 25
3 117 109 116
3 117 0 109
3 117 35 0
3 118 35 117
3 118 13 35
3 66 118 28
3 119 118 66
3 119 13 118
3 119 81 13
3 120 81 119
3 120 3 81
3 90 67 7
3 121 67 90
3 121 29 67
3 69 121 18
3 122 121 69
3 122 29 121
3 122 120 29
3 123 120 122
3 123 3 120
3 123 50 3
3 124 50 123
3 124 20 50
3 71 124 30
3 125 124 71
3 125 20 124
3 125 98 20
3 320 98 321
3 322 321 125
3 320 321 322
3 324 323 98
3 95 42 1
3 126 42 95
3 126 19 42
3 325 126 326
3 327 126 328
3 329 19 330
3 331 330 126
3 329 330 331
3 332 93 333
3 334 333 19
3 332 333 334
3 335 93 336
3 337 8 338
3 339 338 93
3 337 338 339
3 340 8 341
3 342 72 343
3 344 343 8
3 342 343 344
3 345 72 346
3 348 347 72
