ply
format ascii 1.0
element vertex 317
property float x
property float y
property float z
element face 319
property list uchar int vertex_index
end_header
44.38781 -57.398571 -32.334053
56.071259 -67.613022 -26.800783
45.985985 -80.676727 -25.463095
50.118759 -63.651058 -29.787161
39.666199 -48.538616 -34.285576
48.7052 -39.047516 -38.343628
44.025726 -88.799484 -24.040495
42.800152 -78.836945 -26.4788
41.74807 -39.01683 -37.447548
53.87896 -75.118759 -24.076361
47.207874 -60.8134 -31.111921
52.398636 -54.849731 -32.79483
49.550819 -51.719894 -34.112946
46.699562 -48.091721 -35.265701
49.047615 -81.853195 -23.968767
51.057739 -74.027893 -25.951754
53.119797 -65.945312 -28.416647
47.975426 -72.281815 -27.335794
44.937458 -69.905457 -28.538153
42.054821 -66.848885 -29.611162
39.43026 -63.027561 -30.462366
41.776245 -53.311596 -33.372643
44.024609 -43.848785 -36.314491
54.991512 -71.406296 -25.399549
45.784584 -59.184071 -31.743505
48.382458 -56.258785 -32.566597
46.961548 -54.562851 -33.194534
48.119087 -49.976185 -34.710739
45.559113 -52.719925 -33.780174
45.01218 -84.775925 -24.709955
46.582973 -85.312439 -24.016195
47.556824 -81.34552 -24.79751
50.050468 -77.967712 -24.906805
48.532307 -77.319229 -25.676893
49.525433 -73.233566 -26.681086
46.967228 -76.510818 -26.331205
41.254066 -77.644699 -26.883581
43.855957 -74.401657 -27.441977
42.355591 -73.08313 -27.930246
43.473572 -68.467598 -29.096464
40.908867 -71.572426 -28.36899
38.523735 -53.438641 -32.691483
39.477329 -55.879765 -32.317032
40.641079 -51.004284 -33.83699
42.92654 -48.541946 -34.84108
41.770775 -46.204727 -35.348228
42.610931 -34.42963 -39.067772
43.783775 -36.892036 -38.397232
51.61116 -64.86882 -29.112837
52.706577 -60.589218 -30.539446
53.52729 -50.415127 -34.474678
49.463837 -34.70573 -39.938622
42.369999 -88.217918 -24.56629
43.384731 -84.072685 -25.237597
44.38678 -79.84343 -26.011614
41.751415 -83.194099 -25.643927
40.151764 -82.12706 -25.961031
38.855457 -45.947998 -34.733536
40.753403 -43.726822 -35.865265
39.860989 -41.150166 -36.405113
40.742432 -36.469624 -38.086128
52.738861 -78.771744 -22.832769
48.651596 -62.299572 -30.454821
51.25053 -59.26585 -31.227175
49.811356 -57.822975 -31.905989
50.977982 -53.340069 -33.471275
52.110901 -48.86277 -35.134361
50.669891 -47.207653 -35.736145
49.21347 -45.434883 -36.281288
47.76585 -43.526314 -36.786285
51.469467 -78.453491 -23.972715
52.526119 -74.65889 -25.099981
53.575356 -70.802238 -26.329054
54.61972 -66.865929 -27.662722
52.078766 -70.024139 -27.120123
50.549576 -69.08432 -27.825102
49.024494 -67.993088 -28.487562
45.398689 -75.540604 -26.911173
46.440361 -71.173874 -27.950029
47.524166 -66.755234 -29.132597
46.055008 -65.368805 -29.764532
44.617111 -63.825871 -30.372225
43.214905 -62.114868 -30.938879
40.696754 -65.038124 -30.068468
41.866219 -60.224072 -31.451891
40.60535 -58.145607 -31.908667
43.039391 -55.443768 -32.875908
44.20155 -50.715485 -34.324814
45.3228 -46.051315 -35.792137
46.360641 -41.466644 -37.282364
42.831978 -41.493797 -36.85955
45.028755 -39.250694 -37.808044
47.267494 -36.993561 -38.808044
53.82032 -56.252987 -32.094574
56.749329 -67.892517 -26.289602
56.209456 -69.789154 -25.588985
55.531385 -69.509659 -26.100166
57.290352 -66.01194 -27.055214
56.749329 -67.892517 -26.289602
56.593655 -65.664938 -27.535267
57.290352 -66.01194 -27.055214
41.061691 -74.667786 -27.579655
41.804828 -75.363914 -27.406914
40.510929 -76.94857 -27.056322
40.33833 -73.912433 -27.799027
41.632229 -72.327778 -28.149618
41.061691 -74.667786 -27.579655
39.094967 -50.988628 -33.488529
38.143785 -52.143618 -32.869835
38.715018 -49.693606 -33.666882
43.600975 -33.432612 -39.533596
42.96188 -32.213463 -39.919712
54.750013 -48.936628 -35.00634
54.056388 -48.194605 -35.362652
49.843593 -37.809161 -38.951363
49.446914 -40.001331 -38.121559
49.084519 -36.876623 -39.141125
50.222912 -35.638267 -39.74886
49.843593 -37.809161 -38.951363
41.528578 -87.838184 -24.745531
40.978226 -89.916511 -24.433691
42.035944 -85.765568 -25.081184
42.877365 -86.145302 -24.901944
41.528578 -87.838184 -24.745531
41.219286 -85.326274 -25.28435
42.568073 -83.633392 -25.440762
42.035944 -85.765568 -25.081184
38.790322 -83.741284 -25.632641
39.589416 -84.318196 -25.560871
39.383267 -81.491623 -26.08287
38.790322 -83.741284 -25.632641
38.513479 -44.614727 -34.96246
38.016555 -47.04921 -34.067536
39.016245 -42.215811 -35.798248
39.358223 -43.549082 -35.569325
38.513479 -44.614727 -34.96246
40.246949 -35.194535 -38.427494
39.891604 -37.501208 -37.529041
41.103676 -34.198176 -38.951168
40.246949 -35.194535 -38.427494
54.475014 -75.26075 -23.459955
53.904964 -77.087242 -22.838159
53.30891 -76.945251 -23.454565
44.811142 -89.004635 -23.668272
44.303574 -90.969139 -23.356006
43.518158 -90.763989 -23.728229
48.544193 -83.769226 -23.538775
47.311872 -85.498848 -23.562489
47.815294 -83.582817 -23.992481
49.725996 -82.025765 -23.450482
48.544193 -83.769226 -23.538775
50.258541 -80.153343 -23.970741
50.936922 -80.325913 -23.452455
49.725996 -82.025765 -23.450482
40.063507 -64.032843 -30.265417
39.474255 -66.484379 -29.562575
38.841008 -65.479097 -29.759524
45.463218 -37.017616 -38.577679
44.406265 -38.071365 -38.102638
44.840728 -35.838287 -38.872273
46.582588 -35.889049 -39.077679
46.148124 -38.122128 -38.308044
45.463218 -37.017616 -38.577679
47.63512 -34.844357 -39.59457
46.582588 -35.889049 -39.077679
54.389717 -64.389966 -28.755871
55.139679 -64.850275 -28.378909
53.869759 -66.40562 -28.039684
55.634985 -71.616803 -24.84189
55.078709 -73.473034 -24.180296
54.435236 -73.262528 -24.737955
55.634985 -71.616803 -24.84189
56.209456 -69.789154 -25.588985
38.270533 -64.408003 -29.881872
38.841008 -65.479097 -29.759524
37.569866 -54.637943 -32.019397
38.143785 -52.143618 -32.869835
37.937439 -55.925541 -31.889089
37.569866 -54.637943 -32.019397
39.000532 -54.659203 -32.504257
38.414236 -57.146103 -31.701863
37.937439 -55.925541 -31.889089
44.187397 -34.663815 -39.198326
43.197353 -35.660833 -38.732502
43.600975 -33.432612 -39.533596
44.840728 -35.838287 -38.872273
44.187397 -34.663815 -39.198326
52.89579 -63.326729 -29.475044
53.650109 -63.864975 -29.12695
52.365478 -65.407066 -28.764742
53.443499 -61.186927 -30.188349
52.89579 -63.326729 -29.475044
52.158868 -62.729019 -29.826141
53.978811 -59.065928 -30.956274
53.443499 -61.186927 -30.188349
54.225407 -51.143292 -34.119976
53.661079 -53.360594 -33.280052
52.962963 -52.632429 -33.634754
54.225407 -51.143292 -34.119976
54.750013 -48.936628 -35.00634
50.498146 -33.526245 -40.591831
50.222912 -35.638267 -39.74886
49.731029 -32.651211 -40.7477
50.498146 -33.526245 -40.591831
42.674332 -90.531578 -24.003792
43.518158 -90.763989 -23.728229
41.846468 -90.240795 -24.266689
40.978226 -89.916511 -24.433691
43.197862 -88.508701 -24.303393
42.674332 -90.531578 -24.003792
41.846468 -90.240795 -24.266689
40.389242 -84.851715 -25.402319
41.219286 -85.326274 -25.28435
40.951589 -82.660579 -25.802479
40.389242 -84.851715 -25.402319
39.589416 -84.318196 -25.560871
39.934418 -79.250442 -26.544145
40.702915 -79.88588 -26.422306
39.383267 -81.491623 -26.08287
40.510929 -76.94857 -27.056322
39.934418 -79.250442 -26.544145
38.309646 -48.398297 -33.890861
38.016555 -47.04921 -34.067536
39.260828 -47.243307 -34.509556
38.715018 -49.693606 -33.666882
38.309646 -48.398297 -33.890861
39.450882 -39.841479 -36.688533
39.016245 -42.215811 -35.798248
40.30171 -38.809895 -37.245621
39.450882 -39.841479 -36.688533
39.891604 -37.501208 -37.529041
42.037926 -33.178179 -39.44199
41.676682 -35.449627 -38.57695
41.103676 -34.198176 -38.951168
42.96188 -32.213463 -39.919712
42.037926 -33.178179 -39.44199
53.280418 -78.845947 -22.14812
52.160736 -80.574532 -22.24509
53.280418 -78.845947 -22.14812
53.904964 -77.087242 -22.838159
54.475014 -75.26075 -23.459955
55.078709 -73.473034 -24.180296
53.348194 -47.418426 -35.692493
54.056388 -48.194605 -35.362652
52.819096 -49.638948 -34.804519
52.632737 -46.632381 -36.006889
53.348194 -47.418426 -35.692493
51.912232 -45.804823 -36.307781
52.632737 -46.632381 -36.006889
51.390396 -48.035212 -35.435253
51.17623 -44.970799 -36.57986
51.912232 -45.804823 -36.307781
50.448019 -44.084413 -36.852432
51.17623 -44.970799 -36.57986
49.941681 -46.321268 -36.008717
49.701049 -43.195015 -37.090389
50.448019 -44.084413 -36.852432
48.977239 -42.24073 -37.342888
49.701049 -43.195015 -37.090389
48.48966 -44.480598 -36.533787
48.235525 -41.286915 -37.564957
49.446914 -40.001331 -38.121559
48.977239 -42.24073 -37.342888
46.089765 -87.261112 -23.656122
44.811142 -89.004635 -23.668272
45.30435 -87.055961 -24.028345
46.089765 -87.261112 -23.656122
47.311872 -85.498848 -23.562489
51.571619 -80.485039 -22.882483
52.160736 -80.574532 -22.24509
52.104164 -78.612617 -23.402742
51.571619 -80.485039 -22.882483
50.936922 -80.325913 -23.452455
39.634548 -73.109608 -27.939253
40.33833 -73.912433 -27.799027
40.220226 -70.715092 -28.557879
39.634548 -73.109608 -27.939253
40.793203 -68.353321 -29.178964
41.481844 -69.210656 -28.990076
40.220226 -70.715092 -28.557879
40.11417 -67.447941 -29.407618
39.474255 -66.484379 -29.562575
41.375788 -65.943504 -29.839815
40.793203 -68.353321 -29.178964
40.11417 -67.447941 -29.407618
38.864908 -61.921835 -30.629894
38.270533 -64.408003 -29.881872
38.888443 -58.347937 -31.557227
38.414236 -57.146103 -31.701863
39.452454 -59.480858 -31.353045
38.888443 -58.347937 -31.557227
40.041339 -57.012686 -32.112849
40.017805 -60.586584 -31.185516
38.864908 -61.921835 -30.629894
39.452454 -59.480858 -31.353045
48.733292 -33.700441 -40.159859
48.365665 -35.849646 -39.373333
47.63512 -34.844357 -39.59457
49.731029 -32.651211 -40.7477
48.733292 -33.700441 -40.159859
55.867885 -65.291392 -27.966237
56.593655 -65.664938 -27.535267
55.345489 -67.239475 -27.231752
55.867885 -65.291392 -27.966237
55.139679 -64.850275 -28.378909
54.389717 -64.389966 -28.755871
53.650109 -63.864975 -29.12695
54.535683 -56.897812 -31.733838
53.978811 -59.065928 -30.956274
53.263449 -58.421103 -31.31701
54.371921 -54.062221 -32.929924
53.109478 -55.551359 -32.444702
53.661079 -53.360594 -33.280052
55.065689 -54.740122 -32.554364
54.371921 -54.062221 -32.929924
54.535683 -56.897812 -31.733838
55.065689 -54.740122 -32.554364
3 1 94 96
3 96 95 23
3 94 95 96
3 1 97 98
3 1 99 100
3 0 26 24
3 0 28 26
3 2 31 29
3 2 33 31
3 2 35 33
3 101 38 102
3 103 102 36
3 101 102 103
3 104 40 105
3 106 105 38
3 104 105 106
3 4 107 109
3 107 41 108
3 107 108 109
3 4 43 41
3 4 45 43
3 111 110 46
3 3 49 48
3 113 112 50
3 5 114 115
3 5 116 118
3 116 51 117
3 116 117 118
3 119 52 120
3 121 53 122
3 123 122 52
3 121 122 123
3 124 55 125
3 126 125 53
3 124 125 126
3 127 56 128
3 130 129 56
3 131 57 132
3 133 59 134
3 135 134 57
3 133 134 135
3 136 60 137
3 139 138 60
3 9 140 142
3 142 141 61
3 140 141 142
3 10 64 62
3 12 65 25
3 12 66 65
3 12 67 66
3 13 68 27
3 13 69 68
3 6 143 145
3 143 144 145
3 14 146 148
3 148 147 30
3 146 147 148
3 14 149 150
3 14 151 153
3 151 70 152
3 151 152 153
3 15 71 32
3 15 72 71
3 15 74 72
3 17 75 34
3 17 76 75
3 7 77 54
3 18 78 37
3 18 79 78
3 18 80 79
3 19 81 39
3 19 82 81
3 20 154 156
3 154 83 155
3 154 155 156
3 20 84 83
3 21 85 42
3 21 86 85
3 21 87 86
3 22 88 44
3 22 89 88
3 8 90 58
3 157 91 158
3 159 158 47
3 157 158 159
3 160 92 161
3 162 161 91
3 160 161 162
3 164 163 92
3 16 165 167
3 167 166 73
3 165 166 167
3 11 93 63
3 23 168 170
3 170 169 9
3 168 169 170
3 172 171 23
3 24 25 10
3 26 25 24
3 26 12 25
3 26 27 12
3 28 27 26
3 28 13 27
3 29 30 6
3 31 30 29
3 31 14 30
3 31 32 14
3 33 32 31
3 33 15 32
3 33 34 15
3 35 34 33
3 35 17 34
3 36 37 7
3 38 37 36
3 38 18 37
3 38 39 18
3 40 39 38
3 40 19 39
3 173 20 174
3 41 175 176
3 41 177 178
3 41 179 181
3 179 42 180
3 179 180 181
3 43 42 41
3 43 21 42
3 43 44 21
3 45 44 43
3 45 22 44
3 46 47 8
3 182 47 183
3 184 183 46
3 182 183 184
3 186 185 47
3 48 187 189
3 189 188 16
3 187 188 189
3 49 190 192
3 192 191 48
3 190 191 192
3 49 193 194
3 50 195 197
3 197 196 11
3 195 196 197
3 199 198 50
3 51 200 201
3 51 202 203
3 204 6 205
3 52 206 207
3 52 208 210
3 208 6 209
3 208 209 210
3 52 29 6
3 53 29 52
3 53 2 29
3 53 54 2
3 55 54 53
3 55 7 54
3 211 55 212
3 56 213 215
3 213 55 214
3 213 214 215
3 56 7 55
3 56 36 7
3 216 36 217
3 218 217 56
3 216 217 218
3 220 219 36
3 57 221 222
3 57 223 225
3 223 4 224
3 223 224 225
3 57 58 4
3 59 58 57
3 59 8 58
3 226 59 227
3 60 228 230
3 228 59 229
3 228 229 230
3 60 8 59
3 60 46 8
3 231 46 232
3 233 232 60
3 231 232 233
3 235 234 46
3 61 236 237
3 239 238 61
3 241 240 9
3 62 63 3
3 64 63 62
3 64 11 63
3 25 64 10
3 65 64 25
3 65 11 64
3 65 50 11
3 66 50 65
3 66 242 244
3 244 243 50
3 242 243 244
3 66 245 246
3 67 247 249
3 249 248 66
3 247 248 249
3 67 250 251
3 27 67 12
3 68 67 27
3 68 252 254
3 254 253 67
3 252 253 254
3 68 255 256
3 69 257 259
3 259 258 68
3 257 258 259
3 69 260 262
3 260 5 261
3 260 261 262
3 30 263 265
3 265 264 6
3 263 264 265
3 267 266 30
3 268 61 269
3 70 270 272
3 270 61 271
3 270 271 272
3 70 9 61
3 32 70 14
3 71 70 32
3 71 9 70
3 71 23 9
3 72 23 71
3 72 1 23
3 72 73 1
3 74 73 72
3 74 16 73
3 34 74 15
3 75 74 34
3 75 16 74
3 75 48 16
3 76 48 75
3 76 3 48
3 54 35 2
3 77 35 54
3 77 17 35
3 37 77 7
3 78 77 37
3 78 17 77
3 78 76 17
3 79 76 78
3 79 3 76
3 79 62 3
3 80 62 79
3 80 10 62
3 39 80 18
3 81 80 39
3 81 10 80
3 81 24 10
3 82 24 81
3 82 0 24
3 273 40 274
3 275 40 276
3 277 19 278
3 279 278 40
3 277 278 279
3 83 280 281
3 83 282 284
3 282 19 283
3 282 283 284
3 83 82 19
3 84 82 83
3 84 0 82
3 285 20 286
3 42 287 288
3 85 289 291
3 291 290 42
3 289 290 291
3 85 292 294
3 292 20 293
3 292 293 294
3 85 84 20
3 86 84 85
3 86 0 84
3 86 28 0
3 87 28 86
3 87 13 28
3 44 87 21
3 88 87 44
3 88 13 87
3 88 69 13
3 89 69 88
3 89 5 69
3 58 45 4
3 90 45 58
3 90 22 45
3 47 90 8
3 91 90 47
3 91 22 90
3 91 89 22
3 92 89 91
3 92 5 89
3 92 51 5
3 295 51 296
3 297 296 92
3 295 296 297
3 299 298 51
3 73 300 302
3 302 301 1
3 300 301 302
3 304 303 73
3 306 305 16
3 63 49 3
3 93 49 63
3 93 307 309
3 309 308 49
3 307 308 309
3 310 93 311
3 312 311 11
3 310 311 312
3 313 93 314
3 316 315 93
