ply
format ascii 1.0
element vertex 209
property float x
property float y
property float z
element face 201
property list uchar int vertex_index
end_header
62.446362 -33.611233 -40.036118
59.996002 -51.310184 -32.978561
54.585487 -45.974083 -36.250626
56.71302 -28.525669 -43.966263
62.628086 -53.165413 -30.862261
51.682568 -42.733944 -37.423576
59.808037 -31.161064 -42.473549
61.547638 -42.537163 -36.370773
57.32695 -48.852257 -34.751244
59.020771 -39.997578 -38.480423
56.22023 -37.132942 -40.025948
53.116867 -34.006912 -40.940651
53.314064 -25.9643 -44.481537
55.603432 -20.479523 -47.84008
61.177349 -32.419445 -41.354324
61.322533 -52.325275 -31.975378
63.3629 -48.955536 -32.365181
62.098801 -48.034294 -33.551155
62.769501 -43.646603 -35.162109
60.827553 -46.958946 -34.644119
54.923523 -51.871456 -33.765274
55.972736 -47.45813 -35.538002
58.250862 -44.435394 -36.576233
56.909691 -43.028267 -37.39917
57.663635 -38.600342 -39.334312
55.50811 -41.540237 -38.106697
50.188629 -40.955147 -37.89949
52.52169 -38.320175 -39.163589
50.981987 -36.570805 -39.559097
51.532455 -32.34676 -41.245041
58.088875 -25.606464 -45.380928
57.436913 -21.495089 -47.380577
56.373795 -24.411522 -45.928352
54.585461 -23.303127 -46.173187
55.024029 -27.211449 -44.328362
60.460083 -56.492798 -30.415125
59.087406 -55.564075 -31.363817
53.154572 -44.401993 -36.879417
59.687584 -26.824451 -44.519836
58.318596 -29.854477 -43.351219
63.301773 -39.196915 -36.829826
62.107414 -38.076614 -38.167412
57.699287 -54.466415 -32.219452
56.311058 -53.227257 -33.014153
58.664101 -50.143654 -33.898674
59.549686 -45.75164 -35.653496
60.306679 -41.314758 -37.484009
60.872536 -36.860672 -39.38739
59.56448 -35.563221 -40.452057
58.157646 -34.198524 -41.325928
56.644859 -32.781387 -41.987961
54.040962 -39.972778 -38.691277
54.695354 -35.601044 -40.553177
55.044384 -31.328682 -42.442665
53.401413 -29.860064 -42.727844
51.785751 -28.391851 -42.918594
62.473238 -31.393033 -41.002038
63.09989 -31.937775 -40.21119
61.811856 -33.015339 -40.695221
61.838732 -30.797139 -41.661141
62.473238 -31.393033 -41.002038
55.279111 -46.716106 -35.894314
54.750013 -48.936628 -35.00634
54.056388 -48.194605 -35.362652
49.843593 -37.809161 -38.951363
50.585308 -38.762976 -38.729293
49.446914 -40.001331 -38.121559
50.222912 -35.638267 -39.74886
49.843593 -37.809161 -38.951363
59.291736 -58.09746 -30.104435
59.99057 -58.50729 -29.637276
58.605398 -57.633099 -30.578781
59.773744 -56.028436 -30.889471
59.291736 -58.09746 -30.104435
59.74781 -28.992757 -43.496692
60.421051 -27.423735 -43.943084
60.481278 -29.592042 -42.919941
63.614908 -51.437197 -30.964996
63.255827 -53.492142 -30.235401
64.27818 -47.207852 -32.426548
63.67466 -46.790287 -33.116799
56.475166 -56.004526 -31.796277
57.194797 -56.583545 -31.418105
50.891987 -29.494271 -42.237686
51.659103 -30.369306 -42.081817
50.765338 -31.471726 -41.400909
51.036247 -27.645571 -43.028332
50.891987 -29.494271 -42.237686
55.983553 -19.018626 -48.576981
56.900294 -19.526409 -48.347229
56.520173 -20.987306 -47.610329
55.007962 -18.618243 -48.755707
55.983553 -19.018626 -48.576981
54.654875 -20.054983 -47.893799
55.007962 -18.618243 -48.755707
53.052269 -24.171251 -45.317658
53.687967 -22.840665 -46.163483
53.949763 -24.633713 -45.327362
52.49852 -25.413158 -44.490403
53.052269 -24.171251 -45.317658
61.165934 -30.221232 -42.360328
61.838732 -30.797139 -41.661141
60.492693 -31.790255 -41.913936
60.481278 -29.592042 -42.919941
61.165934 -30.221232 -42.360328
63.042611 -46.329666 -33.709786
63.67466 -46.790287 -33.116799
62.730851 -48.494915 -32.958168
62.434151 -45.840449 -34.356632
63.377961 -44.135821 -34.515263
63.042611 -46.329666 -33.709786
54.225407 -51.143292 -34.119976
53.661079 -53.360594 -33.280052
55.44813 -49.664793 -34.651638
54.225407 -51.143292 -34.119976
54.750013 -48.936628 -35.00634
50.498146 -33.526245 -40.591831
51.257221 -34.458782 -40.402069
50.222912 -35.638267 -39.74886
49.731029 -32.651211 -40.7477
50.765338 -31.471726 -41.400909
50.498146 -33.526245 -40.591831
57.762894 -23.550776 -46.380752
58.299206 -22.042653 -46.969498
58.625187 -24.09834 -45.969673
62.208292 -55.1982 -30.097926
63.255827 -53.492142 -30.235401
61.124291 -56.861893 -29.874358
59.99057 -58.50729 -29.637276
61.544084 -54.829105 -30.638693
62.208292 -55.1982 -30.097926
61.124291 -56.861893 -29.874358
53.348194 -47.418426 -35.692493
54.056388 -48.194605 -35.362652
52.632737 -46.632381 -36.006889
53.87003 -45.188038 -36.565022
53.348194 -47.418426 -35.692493
51.912232 -45.804823 -36.307781
52.632737 -46.632381 -36.006889
51.17623 -44.970799 -36.57986
52.41857 -43.567968 -37.151496
51.912232 -45.804823 -36.307781
50.448019 -44.084413 -36.852432
51.17623 -44.970799 -36.57986
49.701049 -43.195015 -37.090389
50.935598 -41.844545 -37.661533
50.448019 -44.084413 -36.852432
48.977239 -42.24073 -37.342888
49.701049 -43.195015 -37.090389
49.446914 -40.001331 -38.121559
48.977239 -42.24073 -37.342888
60.220436 -25.264658 -44.9575
60.421051 -27.423735 -43.943084
59.424542 -24.707334 -45.539127
60.220436 -25.264658 -44.9575
58.88823 -26.215457 -44.950382
58.625187 -24.09834 -45.969673
59.424542 -24.707334 -45.539127
63.047491 -34.167383 -39.303051
63.09989 -31.937775 -40.21119
63.982315 -49.332259 -31.716456
63.614908 -51.437197 -30.964996
62.995493 -51.060474 -31.613721
63.982315 -49.332259 -31.716456
64.27818 -47.207852 -32.426548
63.625484 -41.927692 -35.283375
63.377961 -44.135821 -34.515263
63.891621 -39.702849 -36.117233
63.625484 -41.927692 -35.283375
63.035637 -41.421759 -35.995967
64.059258 -37.472481 -36.916702
63.891621 -39.702849 -36.117233
63.475197 -36.960224 -37.699905
64.059258 -37.472481 -36.916702
62.878017 -36.400074 -38.368698
63.475197 -36.960224 -37.699905
62.704594 -38.636764 -37.498619
62.276888 -35.843924 -39.101765
63.047491 -34.167383 -39.303051
62.878017 -36.400074 -38.368698
57.888857 -57.132376 -30.990288
58.605398 -57.633099 -30.578781
58.393346 -55.015245 -31.791635
57.888857 -57.132376 -30.990288
57.194797 -56.583545 -31.418105
54.371921 -54.062221 -32.929924
53.661079 -53.360594 -33.280052
55.065689 -54.740122 -32.554364
54.371921 -54.062221 -32.929924
55.617291 -52.549357 -33.389713
55.781052 -55.384947 -32.193627
55.065689 -54.740122 -32.554364
57.005173 -53.846836 -32.616802
56.475166 -56.004526 -31.796277
55.781052 -55.384947 -32.193627
51.734364 -26.626933 -43.708931
52.49852 -25.413158 -44.490403
52.549908 -27.178075 -43.700066
51.734364 -26.626933 -43.708931
51.036247 -27.645571 -43.028332
57.827919 -19.995519 -47.966037
58.299206 -22.042653 -46.969498
57.827919 -19.995519 -47.966037
56.900294 -19.526409 -48.347229
54.14589 -21.466784 -47.060352
54.654875 -20.054983 -47.893799
55.094447 -21.891325 -47.006633
54.14589 -21.466784 -47.060352
53.687967 -22.840665 -46.163483
3 0 56 57
3 0 58 60
3 58 14 59
3 58 59 60
3 1 17 15
3 1 19 17
3 2 61 63
3 61 21 62
3 61 62 63
3 2 23 21
3 2 25 23
3 64 28 65
3 66 65 26
3 64 65 66
3 68 67 28
3 3 32 30
3 3 34 32
3 69 35 70
3 71 36 72
3 73 72 35
3 71 72 73
3 6 74 76
3 74 38 75
3 74 75 76
3 6 39 38
3 4 77 78
3 80 79 16
3 7 40 18
3 7 41 40
3 81 42 82
3 8 43 20
3 8 44 43
3 8 45 44
3 9 46 22
3 9 47 46
3 9 48 47
3 10 49 24
3 10 50 49
3 5 51 37
3 11 52 27
3 11 53 52
3 11 54 53
3 83 55 84
3 85 84 29
3 83 84 85
3 87 86 55
3 13 88 90
3 90 89 31
3 88 89 90
3 13 91 92
3 13 93 94
3 12 95 97
3 97 96 33
3 95 96 97
3 12 98 99
3 14 100 101
3 14 102 104
3 102 6 103
3 102 103 104
3 15 16 4
3 17 16 15
3 17 105 107
3 107 106 16
3 105 106 107
3 17 108 110
3 108 18 109
3 108 109 110
3 19 18 17
3 19 7 18
3 111 20 112
3 21 113 115
3 113 20 114
3 113 114 115
3 21 8 20
3 21 22 8
3 23 22 21
3 23 9 22
3 23 24 9
3 25 24 23
3 25 10 24
3 26 27 5
3 28 27 26
3 28 11 27
3 28 29 11
3 116 29 117
3 118 117 28
3 116 117 118
3 121 120 29
3 119 120 121
3 30 122 124
3 122 31 123
3 122 123 124
3 32 31 30
3 32 13 31
3 32 33 13
3 34 33 32
3 34 12 33
3 125 4 126
3 35 127 128
3 35 129 131
3 129 4 130
3 129 130 131
3 35 15 4
3 36 15 35
3 36 1 15
3 132 2 133
3 134 37 135
3 136 135 2
3 134 135 136
3 137 37 138
3 139 5 140
3 141 140 37
3 139 140 141
3 142 5 143
3 144 26 145
3 146 145 5
3 144 145 146
3 147 26 148
3 150 149 26
3 38 151 152
3 38 153 154
3 38 155 157
3 155 30 156
3 155 156 157
3 39 30 38
3 39 3 30
3 158 0 159
3 16 160 162
3 162 161 4
3 160 161 162
3 164 163 16
3 18 165 166
3 40 167 169
3 169 168 18
3 167 168 169
3 40 170 171
3 40 172 173
3 41 174 176
3 176 175 40
3 174 175 176
3 41 177 179
3 177 0 178
3 177 178 179
3 180 36 181
3 42 182 184
3 182 36 183
3 182 183 184
3 42 1 36
3 20 185 186
3 43 187 189
3 189 188 20
3 187 188 189
3 43 190 191
3 43 192 194
3 192 42 193
3 192 193 194
3 44 42 43
3 44 1 42
3 44 19 1
3 45 19 44
3 45 7 19
3 22 45 8
3 46 45 22
3 46 7 45
3 46 41 7
3 47 41 46
3 47 0 41
3 47 14 0
3 48 14 47
3 48 6 14
3 24 48 9
3 49 48 24
3 49 6 48
3 49 39 6
3 50 39 49
3 50 3 39
3 37 25 2
3 51 25 37
3 51 10 25
3 27 51 5
3 52 51 27
3 52 10 51
3 52 50 10
3 53 50 52
3 53 3 50
3 53 34 3
3 54 34 53
3 54 12 34
3 29 54 11
3 55 54 29
3 55 12 54
3 55 195 197
3 197 196 12
3 195 196 197
3 199 198 55
3 31 200 201
3 203 202 31
3 33 204 206
3 206 205 13
3 204 205 206
3 208 207 33
