ply
format ascii 1.0
element vertex 310
property float x
property float y
property float z
element face 287
property list uchar int vertex_index
end_header
-32.406281 35.871651 -16.948601
-41.656693 53.175236 -19.803932
-42.32148 63.32159 -17.993347
-36.28595 44.248241 -18.430038
-31.888451 37.494434 -23.85228
-33.414673 37.772118 -10.162464
-40.797188 68.115814 -15.321835
-44.874058 63.018421 -14.22234
-39.311306 48.57687 -19.351906
-36.534176 45.833561 -22.090511
-42.693184 58.167004 -19.444038
-45.336372 58.784 -16.216621
-33.657078 39.904522 -17.459991
-32.409443 36.80304 -20.186348
-34.172169 41.316017 -21.331074
-34.757515 41.909412 -14.113752
-32.924976 36.957558 -13.954657
-31.376549 32.407673 -22.714581
-32.401237 34.12011 -16.117743
-32.424362 31.692554 -17.129314
-32.219688 34.16045 -17.789898
-38.211216 70.55574 -15.637451
-42.09148 67.642181 -13.198317
-40.62188 50.826885 -19.65921
-39.191502 49.622059 -20.995049
-40.122025 52.068905 -21.075661
-42.989708 54.012058 -18.380238
-42.673378 60.751553 -18.868195
-43.725697 63.350964 -16.244505
-45.299747 60.923901 -15.404842
-44.107491 61.018787 -17.27243
-44.126583 58.651608 -17.957439
-34.849609 42.089111 -17.920315
-34.02224 40.712757 -19.415092
-35.277786 42.887497 -19.934662
-37.168854 45.404797 -16.812824
-36.227119 44.188801 -14.539536
-35.588951 43.243073 -16.291695
-34.241364 41.009464 -15.862642
-33.013344 34.764179 -10.620691
-32.839661 34.57233 -12.561687
-33.189049 37.425365 -12.112858
-32.270947 37.171501 -22.062851
-31.841814 34.73542 -21.439705
-31.462305 35.005978 -23.289368
-41.67878 65.803131 -16.809044
-40.044003 65.645996 -18.46484
-39.217503 68.221634 -17.187225
-43.031921 65.582214 -14.878357
-37.822624 46.397602 -18.925903
-36.655075 45.069462 -20.397945
-38.00362 47.299534 -20.761772
-37.580376 48.215656 -22.247299
-42.355488 55.627979 -19.744934
-40.73951 54.6497 -20.984936
-44.948776 56.645672 -16.661594
-43.754234 56.303699 -18.315243
-32.820667 37.744694 -17.115677
-32.414948 36.359173 -18.382771
-33.03183 38.528633 -18.888588
-33.144485 39.080013 -20.784935
-33.02042 39.519909 -22.631435
-35.352798 43.550671 -21.77877
-33.960312 41.839348 -23.07806
-34.285561 40.55938 -10.072132
-35.20282 42.612156 -12.24559
-33.981556 40.115108 -12.030174
-33.634781 39.493362 -13.89031
-33.239304 38.712036 -15.606348
-32.639256 36.411407 -15.623999
-32.626198 34.328773 -14.402979
-32.064579 34.437069 -19.566467
-31.81464 32.152538 -20.846786
-30.773684 32.630882 -24.493069
-41.760762 52.483829 -19.002662
-42.427269 52.902241 -18.290816
-42.3232 53.593647 -19.092085
-41.139286 52.00106 -19.731571
-41.243355 51.309654 -18.930301
-41.760762 52.483829 -19.002662
-41.484213 63.119549 -18.730137
-41.660162 61.83453 -19.167561
-42.497429 62.036572 -18.430771
-33.214008 36.268148 -10.391578
-33.082493 34.808906 -9.616036
-33.283158 36.312876 -9.386922
-32.529682 30.382984 -17.819332
-32.285398 31.791964 -18.049869
-37.30562 70.552795 -16.557838
-36.761595 71.703796 -15.773492
-37.986226 49.475758 -22.246878
-38.385939 48.918858 -21.621174
-38.791788 50.178959 -21.620753
-37.038458 48.713451 -22.807905
-37.986226 49.475758 -22.246878
-39.074405 48.049588 -18.351774
-39.87902 49.107475 -18.594528
-38.566965 47.487236 -19.138905
-38.330064 46.959953 -18.138773
-39.074405 48.049588 -18.351774
-41.858996 57.75782 -20.073448
-41.690148 56.488308 -20.223896
-42.524336 56.897492 -19.594486
-39.087828 65.375068 -19.163939
-38.697393 66.791695 -18.629995
-45.57686 61.751773 -13.753903
-45.335888 62.686477 -13.0901
-45.843914 58.675693 -15.222881
-45.825602 59.745644 -14.816992
-45.31806 59.85395 -15.810731
-45.652755 57.712814 -15.498518
-45.843914 58.675693 -15.222881
-45.142574 57.714836 -16.439107
-45.458957 56.64365 -15.721005
-45.652755 57.712814 -15.498518
-33.621189 42.103597 -23.823276
-34.450287 43.014896 -23.217413
-33.251381 40.883341 -23.689844
-33.621189 42.103597 -23.823276
-39.826912 54.030395 -21.539217
-39.935376 55.441067 -21.388296
-34.943337 41.827731 -10.181609
-34.431994 40.677155 -9.063879
-31.533009 31.036114 -22.482235
-31.752054 30.908546 -21.548338
-31.595595 32.280106 -21.780684
-30.362903 32.726618 -25.298296
-30.809511 33.941603 -24.750141
-32.4128 32.906332 -16.623528
-32.549706 31.65023 -16.214236
-32.538143 32.864008 -15.708451
-32.183061 33.025911 -18.380161
-32.285398 31.791964 -18.049869
-32.322025 32.926502 -17.459606
-38.972712 70.369278 -14.596559
-39.504202 69.335777 -15.479643
-40.265698 69.149315 -14.438751
-37.640817 71.564224 -14.73646
-38.972712 70.369278 -14.596559
-36.761595 71.703796 -15.773492
-37.640817 71.564224 -14.73646
-41.533876 68.553779 -12.221576
-42.606909 67.239784 -12.020512
-40.912843 68.912498 -13.376991
-41.533876 68.553779 -12.221576
-40.265698 69.149315 -14.438751
-41.444334 67.878997 -14.260076
-40.912843 68.912498 -13.376991
-39.25705 51.402382 -21.661058
-38.791788 50.178959 -21.620753
-39.656763 50.845482 -21.035355
-42.963428 53.244163 -17.48563
-43.563133 54.275883 -17.574627
-42.963428 53.244163 -17.48563
-42.427269 52.902241 -18.290816
-40.534307 50.232483 -18.748181
-41.243355 51.309654 -18.930301
-39.966593 49.701877 -19.505558
-39.87902 49.107475 -18.594528
-40.534307 50.232483 -18.748181
-41.829493 60.438431 -19.536842
-41.839396 59.146157 -19.824764
-42.683281 59.459278 -19.156116
-41.829493 60.438431 -19.536842
-41.660162 61.83453 -19.167561
-35.737219 45.012003 -22.723638
-36.177357 46.232815 -22.770426
-36.697986 44.796799 -15.67618
-37.076726 45.26691 -14.812323
-37.547594 45.874909 -15.948967
-33.083061 33.151512 -10.054512
-33.082493 34.808906 -9.616036
-33.031081 33.179212 -11.053703
-33.083061 33.151512 -10.054512
-32.926502 34.668255 -11.591189
-32.944239 33.083288 -12.024201
-33.031081 33.179212 -11.053703
-32.704008 30.246153 -16.876157
-32.549706 31.65023 -16.214236
-32.809328 28.936583 -17.566175
-32.704008 30.246153 -16.876157
-32.529682 30.382984 -17.819332
-38.284143 68.079513 -17.991188
-38.697393 66.791695 -18.629995
-39.630753 66.933815 -17.826033
-37.808763 69.385742 -17.332726
-38.71436 69.388687 -16.412338
-37.30562 70.552795 -16.557838
-38.284143 68.079513 -17.991188
-37.808763 69.385742 -17.332726
-44.497875 64.0142 -13.455514
-45.335888 62.686477 -13.0901
-43.106586 66.32608 -12.943503
-42.606909 67.239784 -12.020512
-43.576807 65.296097 -13.783523
-43.106586 66.32608 -12.943503
-42.561701 66.612197 -14.038337
-43.95299 64.300317 -14.550349
-44.497875 64.0142 -13.455514
-43.576807 65.296097 -13.783523
-36.700457 47.423862 -22.84882
-36.177357 46.232815 -22.770426
-37.057276 47.024608 -22.168905
-36.700457 47.423862 -22.84882
-37.038458 48.713451 -22.807905
-38.00318 46.463551 -17.082234
-37.547594 45.874909 -15.948967
-37.495739 45.9012 -17.869363
-38.00318 46.463551 -17.082234
-38.330064 46.959953 -18.138773
-33.516804 37.866171 -9.153996
-33.283158 36.312876 -9.386922
-31.366894 36.373379 -24.429747
-31.531395 37.652226 -24.65078
-40.882159 55.999168 -20.843897
-41.547499 55.13884 -20.364935
-41.690148 56.488308 -20.223896
-39.935376 55.441067 -21.388296
-40.882159 55.999168 -20.843897
-41.858996 57.75782 -20.073448
-41.839396 59.146157 -19.824764
-40.345474 64.281751 -18.965883
-41.484213 63.119549 -18.730137
-41.182741 64.483793 -18.229093
-40.345474 64.281751 -18.965883
-39.087828 65.375068 -19.163939
-45.789705 60.704514 -14.345154
-45.57686 61.751773 -13.753903
-45.086903 61.971161 -14.813591
-45.789705 60.704514 -14.345154
-45.825602 59.745644 -14.816992
-45.0392 55.688916 -15.810515
-45.458957 56.64365 -15.721005
-44.542668 55.592689 -16.715305
-45.0392 55.688916 -15.810515
-43.945397 55.421703 -17.54213
-44.542668 55.592689 -16.715305
-44.351505 56.474685 -17.488419
-43.371971 55.157879 -18.347741
-43.563133 54.275883 -17.574627
-43.945397 55.421703 -17.54213
-35.14653 43.870558 -22.567768
-35.943487 44.692116 -21.934641
-35.737219 45.012003 -22.723638
-34.656555 42.695009 -22.428415
-35.14653 43.870558 -22.567768
-34.450287 43.014896 -23.217413
-32.781435 39.723622 -23.466532
-33.490366 40.679628 -22.854748
-33.251381 40.883341 -23.689844
-32.215451 38.710884 -24.076954
-32.454436 38.507171 -23.241858
-32.781435 39.723622 -23.466532
-31.531395 37.652226 -24.65078
-32.215451 38.710884 -24.076954
-39.518169 52.739998 -21.58458
-40.430768 53.359302 -21.030299
-39.826912 54.030395 -21.539217
-39.25705 51.402382 -21.661058
-39.518169 52.739998 -21.58458
-33.952248 39.259802 -9.108829
-34.431994 40.677155 -9.063879
-33.850117 39.165749 -10.117298
-33.516804 37.866171 -9.153996
-33.952248 39.259802 -9.108829
-36.502522 44.550655 -13.610961
-37.076726 45.26691 -14.812323
-35.990372 43.762333 -12.463988
-36.502522 44.550655 -13.610961
-35.71497 43.400478 -13.392563
-35.401966 42.854118 -11.268338
-35.990372 43.762333 -12.463988
-34.744191 41.585768 -11.158861
-34.943337 41.827731 -10.181609
-35.401966 42.854118 -11.268338
-32.864535 33.086011 -12.993927
-32.944239 33.083288 -12.024201
-32.757803 32.964233 -13.914573
-32.864535 33.086011 -12.993927
-32.732929 34.450552 -13.482333
-32.650624 32.968339 -14.851069
-32.757803 32.964233 -13.914573
-32.513717 34.224441 -15.260361
-32.538143 32.864008 -15.708451
-32.650624 32.968339 -14.851069
-32.105507 33.164221 -19.268446
-32.183061 33.025911 -18.380161
-32.142133 34.29876 -18.678182
-31.980537 32.021956 -19.908606
-32.105507 33.164221 -19.268446
-31.93961 33.294804 -20.206626
-32.011904 30.763207 -20.618694
-31.980537 32.021956 -19.908606
-32.011904 30.763207 -20.618694
-31.752054 30.908546 -21.548338
-31.153821 35.12915 -24.148291
-31.675378 36.250206 -23.570824
-31.366894 36.373379 -24.429747
-31.117995 33.81843 -23.891219
-31.153821 35.12915 -24.148291
-30.809511 33.941603 -24.750141
-30.509563 31.368631 -25.091421
-30.362903 32.726618 -25.298296
-30.910124 31.272054 -24.265421
-30.509563 31.368631 -25.091421
-31.211557 31.16045 -23.376177
-31.075117 32.519278 -23.603825
-30.910124 31.272054 -24.265421
-31.533009 31.036114 -22.482235
-31.211557 31.16045 -23.376177
3 0 20 18
3 1 25 23
3 1 74 76
3 76 75 26
3 74 75 76
3 1 77 79
3 77 23 78
3 77 78 79
3 2 80 82
3 82 81 27
3 80 81 82
3 2 30 28
3 2 27 30
3 3 34 32
3 3 37 35
3 3 32 37
3 5 83 85
3 83 39 84
3 83 84 85
3 5 41 39
3 4 44 42
3 87 86 19
3 6 47 45
3 89 88 21
3 6 48 22
3 6 45 48
3 8 51 49
3 90 52 91
3 92 91 24
3 90 91 92
3 94 93 52
3 8 95 96
3 8 97 99
3 97 49 98
3 97 98 99
3 10 100 102
3 102 101 53
3 100 101 102
3 104 103 46
3 7 105 106
3 11 107 109
3 109 108 29
3 107 108 109
3 11 110 111
3 11 112 114
3 112 55 113
3 112 113 114
3 10 56 31
3 10 53 56
3 12 59 57
3 14 60 33
3 14 61 60
3 9 62 50
3 115 63 116
3 118 117 63
3 120 119 54
3 121 64 122
3 15 65 36
3 15 66 65
3 15 67 66
3 12 68 38
3 12 57 68
3 16 70 40
3 16 69 70
3 13 71 58
3 17 72 43
3 17 123 125
3 125 124 72
3 123 124 125
3 126 73 127
3 18 128 130
3 128 19 129
3 128 129 130
3 20 19 18
3 20 131 133
3 133 132 19
3 131 132 133
3 134 21 135
3 136 135 6
3 134 135 136
3 137 21 138
3 140 139 21
3 141 22 142
3 143 22 144
3 145 6 146
3 147 146 22
3 145 146 147
3 23 24 8
3 25 24 23
3 25 148 150
3 150 149 24
3 148 149 150
3 26 151 152
3 154 153 26
3 23 155 156
3 23 157 159
3 157 8 158
3 157 158 159
3 27 160 162
3 162 161 10
3 160 161 162
3 164 163 27
3 28 29 7
3 30 29 28
3 30 11 29
3 30 31 11
3 27 31 30
3 27 10 31
3 32 33 12
3 34 33 32
3 34 14 33
3 166 165 9
3 35 167 169
3 167 36 168
3 167 168 169
3 37 36 35
3 37 15 36
3 37 38 15
3 32 38 37
3 32 12 38
3 39 170 171
3 39 172 173
3 39 174 176
3 174 40 175
3 174 175 176
3 41 40 39
3 41 16 40
3 42 43 13
3 44 43 42
3 44 17 43
3 19 177 178
3 181 180 19
3 179 180 181
3 45 46 2
3 47 46 45
3 47 182 184
3 184 183 46
3 182 183 184
3 21 47 6
3 185 47 186
3 187 186 21
3 185 186 187
3 189 188 47
3 190 7 191
3 22 192 193
3 48 194 196
3 196 195 22
3 194 195 196
3 48 197 199
3 197 7 198
3 197 198 199
3 48 28 7
3 45 28 48
3 45 2 28
3 49 50 3
3 51 50 49
3 51 9 50
3 24 51 8
3 52 51 24
3 52 9 51
3 52 200 202
3 202 201 9
3 200 201 202
3 204 203 52
3 205 35 206
3 49 207 209
3 207 35 208
3 207 208 209
3 49 3 35
3 210 5 211
3 213 212 4
3 53 54 1
3 214 54 215
3 216 215 53
3 214 215 216
3 218 217 54
3 220 219 10
3 46 221 223
3 223 222 2
3 221 222 223
3 225 224 46
3 29 226 228
3 228 227 7
3 226 227 228
3 230 229 29
3 55 231 232
3 55 233 234
3 31 55 11
3 56 55 31
3 56 235 237
3 237 236 55
3 235 236 237
3 56 238 240
3 238 26 239
3 238 239 240
3 53 26 56
3 53 1 26
3 57 58 0
3 59 58 57
3 59 13 58
3 33 59 12
3 60 59 33
3 60 13 59
3 60 42 13
3 61 42 60
3 61 4 42
3 50 34 3
3 62 34 50
3 62 14 34
3 241 62 242
3 243 242 9
3 241 242 243
3 63 244 246
3 244 62 245
3 244 245 246
3 63 14 62
3 63 61 14
3 247 61 248
3 249 248 63
3 247 248 249
3 250 4 251
3 252 251 61
3 250 251 252
3 254 253 4
3 54 25 1
3 255 25 256
3 257 256 54
3 255 256 257
3 259 258 25
3 64 260 261
3 64 262 264
3 262 5 263
3 262 263 264
3 36 265 266
3 65 267 269
3 269 268 36
3 267 268 269
3 65 270 271
3 65 272 274
3 272 64 273
3 272 273 274
3 66 64 65
3 66 5 64
3 66 41 5
3 67 41 66
3 67 16 41
3 38 67 15
3 68 67 38
3 68 16 67
3 68 69 16
3 57 69 68
3 57 0 69
3 40 275 276
3 70 277 279
3 279 278 40
3 277 278 279
3 70 280 281
3 70 282 284
3 282 18 283
3 282 283 284
3 69 18 70
3 69 0 18
3 58 20 0
3 71 20 58
3 71 285 287
3 287 286 20
3 285 286 287
3 43 71 13
3 72 71 43
3 72 288 290
3 290 289 71
3 288 289 290
3 72 291 292
3 294 293 72
3 295 44 296
3 297 296 4
3 295 296 297
3 73 298 300
3 298 44 299
3 298 299 300
3 73 17 44
3 301 73 302
3 303 73 304
3 305 17 306
3 307 306 73
3 305 306 307
3 309 308 17
