ply
format ascii 1.0
element vertex 154
property float x
property float y
property float z
element face 141
property list uchar int vertex_index
end_header
-67.995499 -45.98307 -27.300617
-62.551167 -48.075054 -33.13303
-62.763969 -61.039906 -24.499348
-68.009338 -52.381031 -23.018612
-65.598206 -59.66415 -21.702339
-65.823883 -53.67062 -26.214813
-65.573318 -47.107933 -30.464642
-64.875778 -40.14679 -34.528336
-61.876205 -41.009869 -37.223728
-62.86396 -54.816353 -28.905182
-68.059517 -49.247879 -25.203838
-67.039612 -53.016624 -24.659386
-67.023621 -49.842628 -26.830135
-66.258598 -39.635277 -32.947021
-62.900295 -37.031746 -38.009438
-64.268097 -60.385826 -23.180737
-64.113373 -47.635124 -31.882534
-64.319191 -51.019459 -29.788776
-62.7551 -51.497841 -31.041149
-67.847694 -55.373024 -20.751789
-66.715256 -58.926411 -20.100979
-66.937759 -56.04673 -22.410854
-65.771774 -56.745396 -23.987484
-64.402054 -57.415466 -25.436234
-60.908936 -48.401947 -34.181652
-61.093872 -51.858028 -32.10397
-67.810364 -42.60463 -29.320229
-66.88855 -46.538994 -28.922295
-66.633484 -43.127602 -30.951824
-65.278305 -43.664085 -32.507996
-63.808147 -44.160187 -33.938015
-63.406612 -40.618935 -35.974564
-62.258949 -44.572403 -35.190235
-65.75679 -50.451698 -28.372711
-64.417709 -54.287403 -27.641644
-62.86898 -58.004768 -26.722214
-61.194916 -55.224838 -29.985394
-62.65459 -62.472208 -23.37647
-63.406655 -62.145168 -22.717165
-63.516033 -60.712866 -23.840043
-61.84563 -62.785525 -23.969719
-62.65459 -62.472208 -23.37647
-60.131453 -50.249886 -33.574021
-60.051676 -48.509025 -34.594738
-67.065369 -41.132721 -31.120882
-67.221924 -42.866116 -30.136026
-67.653808 -40.871235 -30.305084
-61.259134 -42.943577 -36.721872
-61.450506 -44.724844 -35.705126
-62.067577 -42.791136 -36.206981
-65.447434 -61.042881 -20.542217
-66.005958 -60.674012 -19.741537
-66.156731 -59.295281 -20.901659
-60.315689 -55.365898 -30.432596
-61.144394 -53.541433 -31.044682
-60.265167 -53.682493 -31.491884
-66.654316 -37.623421 -33.096325
-66.877926 -39.386558 -32.118481
-66.010334 -37.862505 -33.943677
-66.654316 -37.623421 -33.096325
-65.318924 -38.118262 -34.734335
-65.567188 -39.891034 -33.737679
-66.010334 -37.862505 -33.943677
-62.582712 -35.223282 -39.031443
-63.312646 -35.009395 -38.302982
-62.143023 -37.217083 -38.625769
-62.582712 -35.223282 -39.031443
-61.630978 -39.206145 -38.232914
-62.38825 -39.020808 -37.616583
-62.143023 -37.217083 -38.625769
-61.07962 -41.154059 -37.722549
-61.630978 -39.206145 -38.232914
-64.1399 -61.786768 -22.037619
-64.804955 -61.42593 -21.29842
-64.933152 -60.024988 -22.441538
-64.1399 -61.786768 -22.037619
-63.406655 -62.145168 -22.717165
-67.281475 -57.149718 -20.426384
-67.141419 -58.573759 -19.262951
-67.707638 -56.797066 -19.588356
-60.223921 -51.977926 -32.535179
-61.001404 -50.129987 -33.142811
-60.131453 -50.249886 -33.574021
-60.265167 -53.682493 -31.491884
-60.223921 -51.977926 -32.535179
-66.446041 -41.381439 -31.949422
-67.065369 -41.132721 -31.120882
-66.877926 -39.386558 -32.118481
-64.619393 -38.363814 -35.539898
-65.318924 -38.118262 -34.734335
-63.631651 -36.806292 -37.280449
-63.312646 -35.009395 -38.302982
-63.88481 -38.599886 -36.263012
-63.631651 -36.806292 -37.280449
-63.153453 -38.82534 -36.992001
-64.141195 -40.382863 -35.25145
-64.619393 -38.363814 -35.539898
-63.88481 -38.599886 -36.263012
-60.775499 -46.639616 -35.200834
-61.583942 -46.487175 -34.685944
-61.450506 -44.724844 -35.705126
-60.051676 -48.509025 -34.594738
-60.775499 -46.639616 -35.200834
-61.259134 -42.943577 -36.721872
-61.07962 -41.154059 -37.722549
-68.144062 -55.069151 -19.904792
-67.707638 -56.797066 -19.588356
-68.258068 -53.591894 -21.044382
-68.144062 -55.069151 -19.904792
-68.33889 -52.095897 -22.177793
-67.928516 -53.877027 -21.8852
-68.258068 -53.591894 -21.044382
-68.40147 -50.549341 -23.277252
-68.33889 -52.095897 -22.177793
-68.426559 -48.982765 -24.369865
-68.034427 -50.814455 -24.111225
-68.40147 -50.549341 -23.277252
-68.43766 -47.369907 -25.422443
-68.426559 -48.982765 -24.369865
-68.405652 -45.737503 -26.470833
-68.027508 -47.615474 -26.252228
-68.43766 -47.369907 -25.422443
-68.360062 -44.06549 -27.478771
-68.405652 -45.737503 -26.470833
-68.267494 -42.376271 -28.488577
-67.902931 -44.29385 -28.310423
-68.360062 -44.06549 -27.478771
-68.157978 -40.656483 -29.463265
-68.267494 -42.376271 -28.488577
-67.653808 -40.871235 -30.305084
-68.157978 -40.656483 -29.463265
-66.537712 -60.29023 -18.928459
-67.141419 -58.573759 -19.262951
-66.537712 -60.29023 -18.928459
-66.005958 -60.674012 -19.741537
-65.447434 -61.042881 -20.542217
-64.804955 -61.42593 -21.29842
-60.316866 -57.022619 -29.371193
-60.315689 -55.365898 -30.432596
-61.199824 -56.850752 -28.906723
-60.316866 -57.022619 -29.371193
-62.034346 -56.646509 -28.366618
-62.029438 -55.020595 -29.445288
-61.199824 -56.850752 -28.906723
-62.036856 -58.240716 -27.275134
-62.86647 -56.410561 -27.813698
-62.034346 -56.646509 -28.366618
-61.99284 -59.795694 -26.181502
-62.036856 -58.240716 -27.275134
-61.940334 -61.313263 -25.070069
-62.816474 -59.522337 -25.610781
-61.99284 -59.795694 -26.181502
-61.84563 -62.785525 -23.969719
-61.940334 -61.313263 -25.070069
3 0 12 10
3 2 37 39
3 39 38 15
3 37 38 39
3 2 40 41
3 1 18 16
3 3 21 19
3 5 22 11
3 5 23 22
3 43 42 24
3 44 28 45
3 46 45 26
3 44 45 46
3 7 29 13
3 7 30 29
3 8 31 14
3 8 32 31
3 8 47 49
3 49 48 32
3 47 48 49
3 4 50 52
3 52 51 20
3 50 51 52
3 6 33 27
3 9 34 17
3 9 35 34
3 53 36 54
3 55 54 25
3 53 54 55
3 10 11 3
3 12 11 10
3 12 5 11
3 56 13 57
3 58 13 59
3 60 7 61
3 62 61 13
3 60 61 62
3 63 14 64
3 65 14 66
3 67 8 68
3 69 68 14
3 67 68 69
3 71 70 8
3 15 72 74
3 74 73 4
3 72 73 74
3 76 75 15
3 16 17 6
3 18 17 16
3 18 9 17
3 19 77 79
3 77 20 78
3 77 78 79
3 21 20 19
3 21 4 20
3 11 21 3
3 22 21 11
3 22 4 21
3 22 15 4
3 23 15 22
3 23 2 15
3 24 25 1
3 80 25 81
3 82 81 24
3 80 81 82
3 84 83 25
3 26 27 0
3 28 27 26
3 28 6 27
3 13 85 87
3 85 28 86
3 85 86 87
3 29 28 13
3 29 6 28
3 29 16 6
3 30 16 29
3 30 1 16
3 88 7 89
3 14 90 91
3 31 92 94
3 94 93 14
3 92 93 94
3 31 95 97
3 95 7 96
3 95 96 97
3 31 30 7
3 32 30 31
3 32 1 30
3 32 24 1
3 98 24 99
3 100 99 32
3 98 99 100
3 102 101 24
3 104 103 8
3 105 19 106
3 107 19 108
3 109 3 110
3 111 110 19
3 109 110 111
3 112 3 113
3 114 10 115
3 116 115 3
3 114 115 116
3 117 10 118
3 119 0 120
3 121 120 10
3 119 120 121
3 122 0 123
3 124 26 125
3 126 125 0
3 124 125 126
3 127 26 128
3 130 129 26
3 20 131 132
3 134 133 20
3 136 135 4
3 27 12 0
3 33 12 27
3 33 5 12
3 17 33 6
3 34 33 17
3 34 5 33
3 34 23 5
3 35 23 34
3 35 2 23
3 25 18 1
3 36 18 25
3 36 9 18
3 137 36 138
3 139 36 140
3 141 9 142
3 143 142 36
3 141 142 143
3 144 35 145
3 146 145 9
3 144 145 146
3 147 35 148
3 149 2 150
3 151 150 35
3 149 150 151
3 153 152 2
