ply
format ascii 1.0
element vertex 266
property float x
property float y
property float z
element face 267
property list uchar int vertex_index
end_header
31.830742 32.267654 57.599022
25.445385 7.587471 64.112534
23.753832 31.643494 58.30323
28.84304 19.897362 61.44178
37.016335 20.778332 61.015808
33.732109 8.571697 62.718834
27.70676 31.837177 57.60141
23.35014 13.514912 63.951736
24.887285 19.6078 61.949722
27.018826 13.636684 62.546623
31.167946 14.071674 62.299515
29.411558 7.938459 63.082924
39.393333 14.976948 60.995399
40.31358 20.617443 59.062683
42.703201 14.813931 58.527649
26.421553 25.757256 59.98983
30.532089 26.198605 59.955452
34.604614 26.655514 59.894485
33.037827 20.406841 61.547142
35.433556 14.630371 62.115471
38.061451 9.240513 62.049919
38.135414 26.645126 58.667984
29.772652 32.050194 57.591667
24.342346 10.507118 63.981026
25.107082 13.534687 63.053246
26.17923 10.576418 63.218811
28.159586 10.731396 62.79921
27.364857 7.719124 63.455902
40.687252 12.235186 60.729874
41.142475 14.971249 59.93045
26.810537 19.710415 61.542854
25.673599 22.68066 60.999557
27.660173 22.830963 60.775276
28.452446 25.948433 59.891014
29.726255 23.05685 60.789062
31.818924 23.319065 60.876976
30.937237 20.143356 61.499069
32.400505 11.256781 62.530914
33.312431 14.355206 62.272522
34.569374 11.57016 62.40609
36.704651 11.864759 62.117981
35.918209 8.921202 62.475563
35.841434 23.734074 60.615433
36.469479 26.736687 59.473312
37.64431 23.772091 60.01326
41.609318 20.260132 57.518997
25.686113 31.688866 57.793221
24.21767 34.592484 56.73436
23.108461 19.594158 62.762321
24.099789 16.549919 62.909103
25.944059 16.606846 62.271255
27.923649 16.749847 61.992554
29.997993 16.967148 61.95034
29.053495 13.821472 62.340187
30.247894 10.965687 62.615204
31.548195 8.231886 62.880241
38.181889 17.840572 61.120491
38.774578 20.784012 60.235352
39.921906 17.831512 60.182976
41.453659 17.65897 58.876495
23.80905 22.624779 61.58931
24.487226 25.658752 60.399529
25.117636 28.68631 59.145424
27.103668 28.818836 58.867683
29.160097 29.034096 58.837959
31.235613 29.2841 58.896164
33.271137 29.505123 58.87133
32.603699 26.455185 60.01152
33.878502 23.564423 60.8685
35.084728 20.636425 61.42765
32.117325 17.229465 61.989311
34.226311 17.494793 61.949562
36.266846 17.714577 61.692757
37.477238 14.851864 61.714027
38.75795 12.09877 61.576454
35.170864 6.05575 62.944351
35.202763 29.628716 58.611748
39.230667 23.633774 59.01152
44.073242 12.120636 58.089844
31.063299 33.610264 56.874962
30.034253 33.501533 56.871285
30.801697 32.158924 57.595344
32.079771 33.684429 56.837601
31.063299 33.610264 56.874962
32.826096 32.343065 57.529659
32.079771 33.684429 56.837601
24.893866 9.047294 64.04678
24.011343 9.023332 64.555237
24.562863 7.563508 64.620991
41.575115 12.24099 60.146481
41.373903 10.940226 60.569451
23.048531 33.151987 57.906159
22.84608 31.676684 58.758281
41.616024 21.501678 56.689197
42.137552 19.987387 56.58775
26.949125 33.237864 56.963311
25.938802 33.163708 57.059216
26.696436 31.763022 57.697316
22.556128 13.536467 64.612804
23.010412 12.013317 64.547737
22.883306 15.042931 63.962455
22.556128 13.536467 64.612804
23.724964 15.032415 63.430419
23.258131 16.560434 63.441139
22.883306 15.042931 63.962455
42.735271 16.063078 57.880317
42.110501 17.485598 58.05474
42.07843 16.236451 58.702072
23.468446 36.079792 56.235721
24.429163 36.036208 55.90498
39.090807 9.366278 61.711479
39.439056 10.795407 61.474746
38.4097 10.669642 61.813187
35.927145 4.891191 63.103153
34.836922 4.674722 63.303826
36.262895 6.247981 62.754395
35.927145 4.891191 63.103153
37.550432 28.118889 58.33815
36.717464 28.164669 58.740814
37.302447 26.690907 59.070648
38.317284 27.997877 57.837539
37.550432 28.118889 58.33815
44.795468 10.857285 57.850929
43.967355 10.900717 58.620201
29.002551 33.412948 56.885613
27.969605 33.30644 56.890484
28.739706 31.943686 57.596539
29.002551 33.412948 56.885613
30.034253 33.501533 56.871285
23.506515 10.509421 64.562382
24.011343 9.023332 64.555237
23.846243 12.011015 63.966381
23.010412 12.013317 64.547737
23.506515 10.509421 64.562382
41.802726 13.609022 59.746769
40.914863 13.603217 60.330162
41.575115 12.24099 60.146481
42.583089 13.530362 59.045368
41.922838 14.89259 59.22905
41.802726 13.609022 59.746769
41.085211 21.776362 57.565818
40.437342 21.955017 58.337661
40.961449 20.438788 58.29084
41.085211 21.776362 57.565818
41.616024 21.501678 56.689197
25.20458 34.615517 56.529786
24.951891 33.140675 57.26379
25.938802 33.163708 57.059216
24.429163 36.036208 55.90498
25.20458 34.615517 56.529786
26.949125 33.237864 56.963311
27.969605 33.30644 56.890484
22.762467 18.082554 63.367748
22.299443 19.623148 63.388725
23.604125 18.072038 62.835712
22.762467 18.082554 63.367748
23.258131 16.560434 63.441139
42.18833 18.786178 57.375991
41.531489 18.959551 58.197746
42.110501 17.485598 58.05474
42.137552 19.987387 56.58775
42.18833 18.786178 57.375991
25.142614 6.138789 64.706486
24.562863 7.563508 64.620991
26.073214 6.196913 64.262249
25.142614 6.138789 64.706486
23.280451 34.626482 57.121724
23.048531 33.151987 57.906159
23.985751 33.117989 57.518795
23.280451 34.626482 57.121724
23.468446 36.079792 56.235721
23.497739 30.151834 59.04689
22.84608 31.676684 58.758281
22.600745 21.126179 62.687161
22.299443 19.623148 63.388725
22.95104 22.641489 62.100655
22.600745 21.126179 62.687161
23.458755 21.109468 62.175815
23.246356 24.143249 61.402862
22.95104 22.641489 62.100655
23.585444 25.660236 60.807972
23.246356 24.143249 61.402862
24.148138 24.141765 60.994419
23.864436 27.159464 60.095039
23.585444 25.660236 60.807972
24.179641 28.673243 59.467987
23.864436 27.159464 60.095039
24.802431 27.172531 59.772476
24.435734 30.164902 58.724327
23.497739 30.151834 59.04689
24.179641 28.673243 59.467987
40.403707 10.863615 61.051457
39.722601 12.166978 61.153164
39.439056 10.795407 61.474746
41.373903 10.940226 60.569451
40.403707 10.863615 61.051457
27.03295 6.26274 63.933933
26.405121 7.653297 63.784218
26.073214 6.196913 64.262249
28.031816 6.366394 63.643028
27.03295 6.26274 63.933933
29.055166 6.476062 63.456539
28.388208 7.828791 63.269413
28.031816 6.366394 63.643028
30.106749 6.622784 63.27499
29.055166 6.476062 63.456539
31.175067 6.769498 63.173648
30.479876 8.085172 62.981583
30.106749 6.622784 63.27499
32.260515 6.948629 63.045436
31.175067 6.769498 63.173648
33.352473 7.118535 62.964733
32.640152 8.401791 62.799537
32.260515 6.948629 63.045436
34.07185 5.860561 63.077491
34.836922 4.674722 63.303826
34.451487 7.313724 62.831592
33.352473 7.118535 62.964733
34.07185 5.860561 63.077491
36.636568 7.680707 62.520001
35.544536 7.488476 62.709957
36.262895 6.247981 62.754395
37.708189 7.840362 62.307179
36.98983 9.080858 62.262741
36.636568 7.680707 62.520001
38.773607 8.010891 62.020534
37.708189 7.840362 62.307179
39.090807 9.366278 61.711479
38.773607 8.010891 62.020534
33.546293 30.961799 58.165813
32.826096 32.343065 57.529659
32.550939 30.886389 58.235176
34.512106 31.023596 58.036023
33.546293 30.961799 58.165813
34.23695 29.56692 58.741539
35.442228 31.031008 57.82695
34.512106 31.023596 58.036023
36.084106 29.610684 58.310032
35.836121 28.182702 59.04253
36.717464 28.164669 58.740814
35.442228 31.031008 57.82695
36.084106 29.610684 58.310032
39.895885 23.463183 58.31208
39.772123 22.125608 59.037101
40.437342 21.955017 58.337661
39.390373 24.989176 58.233005
39.895885 23.463183 58.31208
38.842746 26.494852 58.061237
38.68304 25.13945 58.839752
39.390373 24.989176 58.233005
38.317284 27.997877 57.837539
38.842746 26.494852 58.061237
43.26811 12.183715 58.826465
43.967355 10.900717 58.620201
43.388222 13.467284 58.308746
42.583089 13.530362 59.045368
43.26811 12.183715 58.826465
44.799812 11.991122 57.216729
44.795468 10.857285 57.850929
44.075103 13.311332 57.456131
44.799812 11.991122 57.216729
43.390083 14.65798 57.675033
43.388222 13.467284 58.308746
44.075103 13.311332 57.456131
42.735271 16.063078 57.880317
43.390083 14.65798 57.675033
3 0 79 81
3 81 80 22
3 79 80 81
3 0 82 83
3 0 84 85
3 1 86 88
3 86 23 87
3 86 87 88
3 1 25 23
3 1 27 25
3 90 89 28
3 2 91 92
3 3 32 30
3 3 34 32
3 3 36 34
3 5 39 37
3 5 41 39
3 4 44 42
3 94 93 45
3 6 95 97
3 97 96 46
3 95 96 97
3 7 98 99
3 7 100 101
3 7 102 104
3 102 49 103
3 102 103 104
3 9 50 24
3 9 51 50
3 9 53 51
3 11 54 26
3 11 55 54
3 12 58 56
3 14 59 29
3 14 105 107
3 107 106 59
3 105 106 107
3 109 108 47
3 8 60 48
3 15 61 31
3 15 62 61
3 15 63 62
3 16 64 33
3 16 65 64
3 16 67 65
3 18 68 35
3 18 69 68
3 10 70 52
3 19 71 38
3 19 72 71
3 19 73 72
3 20 74 40
3 20 110 112
3 112 111 74
3 110 111 112
3 113 75 114
3 116 115 75
3 17 76 66
3 21 117 119
3 119 118 43
3 117 118 119
3 21 120 121
3 13 77 57
3 122 78 123
3 22 124 126
3 126 125 6
3 124 125 126
3 128 127 22
3 23 129 130
3 23 131 133
3 131 7 132
3 131 132 133
3 23 24 7
3 25 24 23
3 25 9 24
3 25 26 9
3 27 26 25
3 27 11 26
3 28 29 12
3 134 29 135
3 136 135 28
3 134 135 136
3 137 14 138
3 139 138 29
3 137 138 139
3 30 31 8
3 32 31 30
3 32 15 31
3 32 33 15
3 34 33 32
3 34 16 33
3 34 35 16
3 36 35 34
3 36 18 35
3 37 38 10
3 39 38 37
3 39 19 38
3 39 40 19
3 41 40 39
3 41 20 40
3 42 43 17
3 44 43 42
3 44 21 43
3 45 140 142
3 142 141 13
3 140 141 142
3 144 143 45
3 46 47 2
3 145 47 146
3 147 146 46
3 145 146 147
3 149 148 47
3 151 150 6
3 152 48 153
3 49 154 156
3 154 48 155
3 154 155 156
3 49 8 48
3 24 49 7
3 50 49 24
3 50 8 49
3 50 30 8
3 51 30 50
3 51 3 30
3 51 52 3
3 53 52 51
3 53 10 52
3 26 53 9
3 54 53 26
3 54 10 53
3 54 37 10
3 55 37 54
3 55 5 37
3 56 57 4
3 58 57 56
3 58 13 57
3 29 58 12
3 59 58 29
3 59 13 58
3 59 45 13
3 157 45 158
3 159 158 59
3 157 158 159
3 161 160 45
3 162 1 163
3 165 164 1
3 47 166 168
3 168 167 2
3 166 167 168
3 170 169 47
3 171 2 172
3 48 173 174
3 60 175 177
3 177 176 48
3 175 176 177
3 60 178 179
3 31 60 8
3 61 60 31
3 61 180 182
3 182 181 60
3 180 181 182
3 61 183 184
3 62 185 187
3 187 186 61
3 185 186 187
3 62 188 190
3 188 2 189
3 188 189 190
3 62 46 2
3 63 46 62
3 63 6 46
3 33 63 15
3 64 63 33
3 64 6 63
3 64 22 6
3 65 22 64
3 65 0 22
3 65 66 0
3 67 66 65
3 67 17 66
3 35 67 16
3 68 67 35
3 68 17 67
3 68 42 17
3 69 42 68
3 69 4 42
3 52 36 3
3 70 36 52
3 70 18 36
3 38 70 10
3 71 70 38
3 71 18 70
3 71 69 18
3 72 69 71
3 72 4 69
3 72 56 4
3 73 56 72
3 73 12 56
3 40 73 19
3 74 73 40
3 74 12 73
3 74 28 12
3 191 28 192
3 193 192 74
3 191 192 193
3 195 194 28
3 196 27 197
3 198 197 1
3 196 197 198
3 199 27 200
3 201 11 202
3 203 202 27
3 201 202 203
3 204 11 205
3 206 55 207
3 208 207 11
3 206 207 208
3 209 55 210
3 211 5 212
3 213 212 55
3 211 212 213
3 75 214 215
3 75 216 218
3 216 5 217
3 216 217 218
3 75 41 5
3 219 41 220
3 221 220 75
3 219 220 221
3 222 20 223
3 224 223 41
3 222 223 224
3 225 20 226
3 228 227 20
3 66 229 231
3 231 230 0
3 229 230 231
3 76 232 234
3 234 233 66
3 232 233 234
3 76 235 236
3 43 76 17
3 237 76 238
3 239 238 43
3 237 238 239
3 241 240 76
3 57 44 4
3 77 44 57
3 77 21 44
3 242 77 243
3 244 243 13
3 242 243 244
3 245 77 246
3 247 21 248
3 249 248 77
3 247 248 249
3 251 250 21
3 78 252 253
3 78 254 256
3 254 14 255
3 254 255 256
3 257 78 258
3 259 78 260
3 261 14 262
3 263 262 78
3 261 262 263
3 265 264 14
