ply
format ascii 1.0
element vertex 273
property float x
property float y
property float z
element face 280
property list uchar int vertex_index
end_header
-29.345049 75.217224 8.430552
-16.90601 77.95433 22.395084
-19.167206 81.825668 9.357538
-33.563477 75.587555 -2.007519
-21.97467 82.212433 -2.672215
-31.348843 75.7659 3.183813
-27.971775 78.902847 -2.53882
-25.95545 78.910904 2.809823
-14.354733 84.924896 11.403049
-15.19635 85.749695 4.488087
-32.188038 71.124878 14.08439
-34.132481 72.165207 9.056622
-36.075008 72.364182 3.833848
-27.378868 74.022812 13.647836
-24.211105 78.371033 8.396294
-22.57547 77.194748 14.146252
-17.982933 80.42038 15.829163
-36.021164 74.418793 -6.996656
-30.323353 78.181503 -7.552744
-23.931526 81.514999 -8.002705
-20.44178 82.340637 3.152995
-30.329901 75.574005 5.807246
-28.701609 77.322556 2.933846
-27.723621 77.107742 5.608519
-12.400515 86.735931 9.122197
-30.828945 73.227921 11.260568
-33.180122 71.745499 11.600941
-31.817278 73.721207 8.702879
-32.805561 74.030457 6.112
-15.281776 80.529037 20.551085
-14.866383 78.94574 23.996666
-26.364517 73.197617 16.239447
-24.953835 75.568558 13.754816
-24.034365 74.742371 16.492809
-18.943928 76.709625 21.035124
-19.578789 77.893356 17.939466
-17.421532 79.32486 19.116306
-15.74425 81.810181 17.087513
-28.744905 71.731125 16.264519
-34.768089 75.149292 -4.53927
-33.289139 76.389587 -7.273792
-32.043655 76.96907 -4.826382
-24.984402 80.530014 -2.681458
-26.033253 80.292648 -5.305302
-22.896294 81.944656 -5.407232
-19.782854 83.625244 -5.349087
-21.663216 80.084839 8.739138
-22.399851 80.414291 5.76923
-19.785524 82.178528 6.214566
-15.650721 85.787643 1.173127
-34.898647 74.052643 0.886789
-36.040054 73.722137 -1.70706
-32.423031 75.779572 0.573436
-30.85643 77.28392 -2.297367
-29.742022 77.388351 0.294341
-26.921129 78.977509 0.100297
-24.037416 80.622208 0.04731
-16.729794 83.482727 10.251141
-17.238396 83.908875 6.927674
-14.771152 85.473984 7.903361
-12.740236 87.138565 5.537197
-34.436531 69.632919 14.48234
-35.353897 70.153748 11.993704
-36.233433 70.449692 9.429624
-35.084652 72.374512 6.461324
-33.82457 74.146515 3.500561
-28.368742 74.699326 11.045097
-26.787436 76.748001 8.307953
-25.869984 76.237259 11.024853
-23.387682 77.871048 11.254923
-20.951624 79.569672 11.767026
-21.775095 76.333038 17.058012
-20.255013 78.844376 14.840137
-18.568092 81.24852 12.568107
-16.231539 82.790924 13.644626
-13.940267 84.074905 14.969449
-29.811277 72.559097 13.780149
-29.109858 78.655212 -5.094921
-27.178141 79.867142 -7.809702
-25.059616 78.711731 5.578476
-23.182844 80.585922 2.868203
-21.162632 82.344696 0.186112
-17.771162 84.10257 3.690413
-18.353315 84.101044 0.554413
-19.014954 83.936417 -2.464525
-24.682783 73.494827 17.655233
-25.199441 73.969994 16.366128
-25.847859 72.72245 17.528552
-25.847859 72.72245 17.528552
-26.995654 71.986404 17.479707
-11.586595 87.636254 6.17628
-12.570376 86.937248 7.329697
-11.416735 87.434936 7.96878
-11.720194 87.763084 4.348918
-11.586595 87.636254 6.17628
-33.312285 70.378898 14.283365
-33.935831 69.267212 15.686501
-32.811584 70.013192 15.487526
-21.389685 75.809837 18.512475
-22.449511 75.052063 18.141722
-13.737531 83.491715 16.774355
-14.842258 82.942543 16.028481
-14.639522 82.359352 17.833388
-12.824509 84.535011 15.738668
-13.737531 83.491715 16.774355
-35.293873 74.953804 -8.305426
-35.930466 74.422691 -9.480503
-36.657757 73.88768 -8.171734
-30.955223 77.79876 -8.722416
-32.438116 76.902802 -8.58294
-31.806246 77.285545 -7.413268
-29.36053 78.685288 -8.864688
-30.955223 77.79876 -8.722416
-24.499417 81.192474 -9.221215
-26.122725 80.368546 -9.124714
-25.554834 80.69107 -7.906204
-22.807606 82.009354 -9.318815
-24.499417 81.192474 -9.221215
-17.258685 84.862557 -0.735138
-17.002018 84.944344 0.86377
-15.907388 85.705856 -0.425781
-17.589505 84.780243 -2.244607
-18.684134 84.018731 -0.955056
-17.258685 84.862557 -0.735138
-17.891728 84.611229 -3.775308
-17.589505 84.780243 -2.244607
-37.07798 71.354568 3.992982
-36.601044 71.439591 5.320456
-37.258911 73.319885 -6.859239
-36.633495 73.770347 -5.625478
-36.657757 73.88768 -8.171734
-37.258911 73.319885 -6.859239
-12.228391 86.381813 10.953727
-13.377624 85.830413 10.262623
-13.2055 85.476295 12.094152
-11.278301 87.155906 9.838181
-12.228391 86.381813 10.953727
-11.416735 87.434936 7.96878
-11.278301 87.155906 9.838181
-14.218816 80.975845 21.375591
-14.408285 81.718781 19.565174
-14.01112 80.184196 23.098381
-14.218816 80.975845 21.375591
-15.074079 79.737389 22.273876
-13.846196 79.284775 24.892954
-14.01112 80.184196 23.098381
-19.261359 77.30149 19.487295
-20.291531 76.589996 18.953202
-19.974101 75.998131 20.501031
-14.408285 81.718781 19.565174
-14.639522 82.359352 17.833388
-15.513013 81.169609 18.819299
-28.185848 71.253159 17.492243
-29.360923 70.549866 17.572689
-27.554711 72.464371 16.251983
-28.185848 71.253159 17.492243
-26.995654 71.986404 17.479707
-21.784497 82.552223 -6.74357
-22.302112 82.337395 -8.041307
-23.41391 81.729827 -6.704968
-20.227777 83.392517 -6.714498
-21.784497 82.552223 -6.74357
-21.339574 82.78495 -5.378159
-18.636615 84.203567 -6.668839
-20.227777 83.392517 -6.714498
-14.369462 86.526245 1.609536
-15.423535 85.768669 2.830607
-14.142277 86.507271 3.267016
-14.560235 86.468368 -0.080985
-14.369462 86.526245 1.609536
-15.907388 85.705856 -0.425781
-14.560235 86.468368 -0.080985
-36.015338 73.086265 1.042941
-36.603519 72.242035 2.516471
-35.486827 73.208413 2.360318
-36.586042 72.921013 -0.253983
-36.015338 73.086265 1.042941
-35.46935 73.88739 -0.410135
-37.153987 72.671966 -1.560252
-36.586042 72.921013 -0.253983
-36.64294 73.42202 -2.980681
-37.153987 72.671966 -1.560252
-36.006958 74.135597 -4.396786
-36.64294 73.42202 -2.980681
-35.404072 74.435715 -3.123165
-35.394627 74.784042 -5.767963
-36.633495 73.770347 -5.625478
-36.006958 74.135597 -4.396786
-16.685283 77.129539 24.008953
-17.64472 76.62104 23.240614
-19.620638 75.385307 21.934169
-19.974101 75.998131 20.501031
-18.663678 75.998688 22.560634
-19.620638 75.385307 21.934169
-17.64472 76.62104 23.240614
-17.924969 77.331977 21.715104
-18.663678 75.998688 22.560634
-12.914219 87.201706 3.79157
-14.142277 86.507271 3.267016
-13.968293 86.44413 5.012642
-12.914219 87.201706 3.79157
-11.720194 87.763084 4.348918
-35.01907 68.50827 15.905994
-33.935831 69.267212 15.686501
-35.464739 68.811836 14.690963
-35.01907 68.50827 15.905994
-35.923422 69.07225 13.446644
-35.464739 68.811836 14.690963
-34.895214 69.893333 13.238022
-36.328287 69.259582 12.185842
-35.923422 69.07225 13.446644
-36.768055 69.407555 10.903803
-36.328287 69.259582 12.185842
-35.793665 70.30172 10.711664
-37.163793 69.47538 9.603528
-36.768055 69.407555 10.903803
-36.680256 70.482346 8.118344
-37.163793 69.47538 9.603528
-36.105866 71.444755 6.634194
-36.680256 70.482346 8.118344
-35.659042 71.412102 7.945474
-35.57983 72.369347 5.147586
-36.601044 71.439591 5.320456
-36.105866 71.444755 6.634194
-15.66547 77.625245 24.809744
-15.886197 78.450035 23.195875
-16.685283 77.129539 24.008953
-14.69423 78.005127 25.687123
-15.66547 77.625245 24.809744
-13.846196 79.284775 24.892954
-14.69423 78.005127 25.687123
-23.579146 74.25673 17.85912
-24.682783 73.494827 17.655233
-22.90473 75.537705 16.77541
-23.579146 74.25673 17.85912
-22.449511 75.052063 18.141722
-20.676942 77.113197 17.498739
-21.389685 75.809837 18.512475
-20.291531 76.589996 18.953202
-12.998267 85.0513 13.877353
-13.2055 85.476295 12.094152
-14.1475 84.4999 13.186249
-12.998267 85.0513 13.877353
-12.824509 84.535011 15.738668
-31.656592 70.723107 15.296098
-32.811584 70.013192 15.487526
-29.935026 71.02623 16.386162
-29.360923 70.549866 17.572689
-30.468212 71.440216 15.143977
-29.935026 71.02623 16.386162
-29.278091 72.145111 15.022334
-30.999657 71.841987 13.93227
-31.656592 70.723107 15.296098
-30.468212 71.440216 15.143977
-33.92786 75.939201 -8.443994
-35.293873 74.953804 -8.305426
-34.655152 75.40419 -7.135224
-33.92786 75.939201 -8.443994
-32.438116 76.902802 -8.58294
-27.787924 79.528107 -8.993167
-29.36053 78.685288 -8.864688
-28.750747 79.024323 -7.681223
-27.787924 79.528107 -8.993167
-26.122725 80.368546 -9.124714
-22.807606 82.009354 -9.318815
-22.302112 82.337395 -8.041307
-18.275678 84.455642 -5.217589
-19.398904 83.780831 -3.906806
-17.891728 84.611229 -3.775308
-18.636615 84.203567 -6.668839
-18.275678 84.455642 -5.217589
-37.07798 71.354568 3.992982
-36.603519 72.242035 2.516471
3 0 23 21
3 0 27 25
3 0 21 27
3 1 30 29
3 85 33 86
3 87 86 31
3 85 86 87
3 1 36 34
3 1 29 36
3 88 31 89
3 3 41 39
3 4 44 42
3 4 45 44
3 2 48 46
3 3 51 50
3 3 39 51
3 5 54 52
3 7 55 22
3 7 56 55
3 8 59 57
3 90 60 91
3 92 91 24
3 90 91 92
3 94 93 60
3 10 95 97
3 95 61 96
3 95 96 97
3 11 62 26
3 11 63 62
3 11 64 63
3 5 65 28
3 5 52 65
3 13 68 66
3 15 69 32
3 15 70 69
3 98 71 99
3 16 72 35
3 16 73 72
3 16 74 73
3 100 75 101
3 102 101 37
3 100 101 102
3 104 103 75
3 13 76 38
3 13 66 76
3 17 105 107
3 105 106 107
3 18 108 110
3 110 109 40
3 108 109 110
3 18 111 112
3 6 77 53
3 19 78 43
3 19 113 115
3 115 114 78
3 113 114 115
3 19 116 117
3 14 79 67
3 20 80 47
3 20 81 80
3 9 82 58
3 118 83 119
3 120 119 49
3 118 119 120
3 121 84 122
3 123 122 83
3 121 122 123
3 125 124 84
3 12 126 127
3 17 128 129
3 17 130 131
3 21 22 5
3 23 22 21
3 23 7 22
3 132 24 133
3 134 133 8
3 132 133 134
3 135 24 136
3 138 137 24
3 25 26 10
3 27 26 25
3 27 11 26
3 27 28 11
3 21 28 27
3 21 5 28
3 29 139 140
3 30 141 143
3 143 142 29
3 141 142 143
3 30 144 145
3 31 32 13
3 33 32 31
3 33 15 32
3 34 146 148
3 146 35 147
3 146 147 148
3 36 35 34
3 36 16 35
3 36 37 16
3 29 37 36
3 29 149 151
3 151 150 37
3 149 150 151
3 152 38 153
3 31 154 156
3 154 38 155
3 154 155 156
3 31 13 38
3 39 40 17
3 41 40 39
3 41 18 40
3 42 43 6
3 44 43 42
3 44 19 43
3 44 157 159
3 159 158 19
3 157 158 159
3 45 160 162
3 162 161 44
3 160 161 162
3 45 163 164
3 46 47 14
3 48 47 46
3 48 20 47
3 165 49 166
3 167 166 9
3 165 166 167
3 168 49 169
3 171 170 49
3 50 172 174
3 174 173 12
3 172 173 174
3 51 175 177
3 177 176 50
3 175 176 177
3 51 178 179
3 51 180 181
3 39 182 184
3 184 183 51
3 182 183 184
3 39 185 187
3 185 17 186
3 185 186 187
3 189 188 1
3 190 34 191
3 192 34 193
3 194 1 195
3 196 195 34
3 194 195 196
3 52 53 3
3 54 53 52
3 54 6 53
3 22 54 5
3 55 54 22
3 55 6 54
3 55 42 6
3 56 42 55
3 56 4 42
3 57 58 2
3 59 58 57
3 59 9 58
3 24 59 8
3 60 59 24
3 60 9 59
3 60 197 199
3 199 198 9
3 197 198 199
3 201 200 60
3 61 202 203
3 61 204 205
3 26 61 10
3 62 61 26
3 62 206 208
3 208 207 61
3 206 207 208
3 62 209 210
3 63 211 213
3 213 212 62
3 211 212 213
3 63 214 215
3 63 216 217
3 64 218 220
3 220 219 63
3 218 219 220
3 64 221 223
3 221 12 222
3 221 222 223
3 28 64 11
3 65 64 28
3 65 12 64
3 65 50 12
3 52 50 65
3 52 3 50
3 224 30 225
3 226 225 1
3 224 225 226
3 227 30 228
3 230 229 30
3 66 67 0
3 68 67 66
3 68 14 67
3 32 68 13
3 69 68 32
3 69 14 68
3 69 46 14
3 70 46 69
3 70 2 46
3 231 33 232
3 71 233 235
3 233 33 234
3 233 234 235
3 71 15 33
3 35 236 238
3 236 71 237
3 236 237 238
3 72 71 35
3 72 15 71
3 72 70 15
3 73 70 72
3 73 2 70
3 73 57 2
3 74 57 73
3 74 8 57
3 37 74 16
3 75 74 37
3 75 8 74
3 75 239 241
3 241 240 8
3 239 240 241
3 243 242 75
3 244 10 245
3 38 246 247
3 76 248 250
3 250 249 38
3 248 249 250
3 76 251 253
3 251 10 252
3 251 252 253
3 76 25 10
3 66 25 76
3 66 0 25
3 40 254 256
3 256 255 17
3 254 255 256
3 258 257 40
3 53 41 3
3 77 41 53
3 77 18 41
3 43 77 6
3 78 77 43
3 78 18 77
3 78 259 261
3 261 260 18
3 259 260 261
3 263 262 78
3 265 264 19
3 67 23 0
3 79 23 67
3 79 7 23
3 47 79 14
3 80 79 47
3 80 7 79
3 80 56 7
3 81 56 80
3 81 4 56
3 58 48 2
3 82 48 58
3 82 20 48
3 49 82 9
3 83 82 49
3 83 20 82
3 83 81 20
3 84 81 83
3 84 4 81
3 84 45 4
3 266 45 267
3 268 267 84
3 266 267 268
3 270 269 45
3 272 271 12
