ply
format ascii 1.0
element vertex 333
property float x
property float y
property float z
element face 335
property list uchar int vertex_index
end_header
23.75021 80.80838 -17.770109
13.597265 88.057419 2.25206
15.905793 75.587906 -25.743494
17.561028 85.886665 -9.737833
10.181911 84.713005 -20.462393
30.293816 79.457817 -7.564821
37.203312 73.832993 -14.605633
19.773472 79.108261 -21.978067
22.845596 73.367645 -23.393942
27.030661 76.370193 -20.047514
20.432968 83.814522 -14.342196
13.798399 86.247391 -15.313969
16.599089 83.338814 -19.35116
12.87849 80.914307 -23.85359
12.004593 87.726654 9.16751
15.343995 87.343376 -4.126703
10.251995 89.243301 -3.772657
11.710186 88.186226 -10.012045
27.349192 80.753609 -12.954399
30.832235 77.638504 -16.12137
33.848232 77.333839 -11.426394
23.954252 82.73069 -8.853134
21.78117 80.194481 -19.942919
23.403234 77.829636 -20.988062
25.425289 78.788597 -19.041159
22.063915 82.462341 -16.207434
18.531044 83.806358 -16.910891
20.135534 82.173149 -18.591345
18.171263 81.411118 -20.837416
12.796946 88.037804 5.656244
10.519577 88.744446 6.119684
11.223671 88.951172 2.611775
16.374691 86.690887 -7.043436
13.539497 87.97316 -7.100777
14.528393 87.21489 -9.961462
11.943459 85.735779 -17.947447
10.82955 86.961922 -15.550562
9.095245 86.092499 -18.192392
14.380997 78.441849 -24.969427
11.196547 78.986122 -25.922251
12.66604 76.301247 -26.880774
28.90942 80.220543 -10.320295
30.688951 79.099556 -12.19418
32.071434 78.540215 -9.580206
37.742599 74.784042 -8.076014
27.167192 81.096123 -8.244808
25.611229 81.844398 -11.020781
34.137535 75.827347 -15.345377
32.460945 75.498146 -17.374105
35.703808 73.599464 -16.633005
8.60372 89.128441 -6.708649
17.793999 77.559502 -23.90288
19.325161 74.587433 -24.550306
21.346134 76.418159 -22.810884
24.950443 75.075882 -21.769686
28.52487 73.565216 -20.831259
18.918215 84.936897 -12.179604
15.690479 86.278656 -12.573114
17.032631 85.155281 -14.899389
15.122677 84.933472 -17.506601
13.245926 84.220955 -19.993479
11.458603 82.998505 -22.355165
14.695663 82.37571 -21.664057
16.232819 80.160736 -22.958174
39.991467 71.638611 -13.880539
11.207937 87.112259 12.760219
14.432953 87.812889 -1.018339
11.934889 88.873566 -0.780369
12.690836 88.536652 -4.028584
10.923134 88.832008 -6.988049
9.189787 88.653801 -9.880892
12.659805 87.324181 -12.802189
9.917555 87.930428 -12.844931
9.807915 81.278687 -24.586138
25.620995 80.975502 -15.441811
27.345013 79.293198 -16.935369
29.110023 79.37616 -14.652563
32.449871 77.654388 -13.867785
35.574879 75.775703 -13.102478
35.031242 76.749565 -8.826321
36.77108 75.405586 -10.666632
38.440037 73.703178 -12.356117
41.024174 71.418411 -11.611252
12.630701 85.510345 15.768923
13.471842 86.254303 12.204294
14.323814 86.693764 8.706625
15.192981 86.837494 5.303944
16.097866 86.711174 2.02357
17.068928 86.355652 -1.108122
18.143642 85.819099 -4.065702
19.356644 85.143913 -6.824348
22.421871 83.479271 -6.459515
20.727962 84.351204 -9.360111
22.253586 83.42865 -11.651333
23.902388 82.32798 -13.681353
29.012093 77.222939 -18.176916
30.572315 74.747337 -19.192026
9.643324 89.396255 -0.40379
16.654822 73.990173 -25.991804
15.032308 74.420124 -26.628777
8.842648 84.710422 -20.587418
8.299316 85.40017 -19.452417
9.638578 85.402752 -19.327393
9.371009 83.946102 -21.654882
8.842648 84.710422 -20.587418
15.032308 74.420124 -26.628777
13.412432 74.776794 -27.197416
14.285916 75.944577 -26.312134
28.730504 80.27697 -7.904815
27.864535 80.628441 -6.812733
29.427847 79.809288 -6.472739
7.628987 88.949226 -6.494718
7.824374 88.816277 -8.141566
41.928867 69.249439 -14.174495
40.682429 70.4426 -14.549467
41.237905 70.44545 -13.505568
10.902932 87.983749 9.443202
10.504603 87.676552 11.239556
11.606265 87.419456 10.963864
9.480055 88.802513 6.397369
9.784886 89.008263 4.603466
21.817543 72.33229 -24.18273
20.057326 72.942184 -24.760912
21.085379 73.977539 -23.972124
9.068995 87.550667 -14.214866
10.373552 87.446175 -14.197747
9.524993 87.066414 -15.567681
8.733307 87.950913 -12.769027
9.068995 87.550667 -14.214866
9.004942 77.87463 -27.270344
9.76139 79.045234 -26.299298
10.440099 77.815517 -26.893297
35.523838 76.3587 -7.46656
34.147343 77.261212 -7.834734
38.098453 74.337913 -10.291837
37.256839 75.094814 -9.371323
38.584213 74.027141 -8.996528
38.932932 73.486709 -11.136579
37.605559 74.554382 -11.511374
38.098453 74.337913 -10.291837
40.225001 72.344326 -10.764147
39.732106 72.560795 -11.983684
38.932932 73.486709 -11.136579
13.764596 84.939598 15.48356
13.338169 84.494743 17.239832
14.185167 85.311577 13.701246
13.051272 85.882324 13.986608
13.764596 84.939598 15.48356
15.507811 85.974743 8.528061
15.05134 85.826645 10.220375
15.942394 86.046608 6.826721
14.758398 86.765629 7.005285
15.507811 85.974743 8.528061
17.385987 85.887996 1.978317
16.873836 85.99474 3.548629
17.871517 85.710236 0.41247
16.583397 86.533413 0.457724
17.385987 85.887996 1.978317
19.589563 84.971867 -3.95928
18.968315 85.241592 -2.557476
20.196064 84.634274 -5.338603
18.750143 85.481506 -5.445025
19.589563 84.971867 -3.95928
23.188061 83.10498 -7.656325
23.966418 82.641152 -6.214724
24.732608 82.266861 -7.411534
32.26283 73.853272 -18.810472
31.51663 75.122742 -18.283065
33.207146 74.228676 -17.901512
32.972695 72.428326 -19.222279
31.282179 73.322392 -19.603832
32.26283 73.853272 -18.810472
10.136933 89.111626 2.849511
9.784886 89.008263 4.603466
10.871624 88.847809 4.36573
23.546524 71.695037 -23.596557
24.617994 72.670955 -22.869861
8.65784 86.631703 -16.888597
9.524993 87.066414 -15.567681
9.962397 86.52721 -16.871477
7.88065 85.994541 -18.203957
8.65784 86.631703 -16.888597
7.88065 85.994541 -18.203957
8.299316 85.40017 -19.452417
11.174845 76.47308 -27.372559
10.440099 77.815517 -26.893297
11.931294 77.643685 -26.401512
11.893892 75.051384 -27.784382
11.174845 76.47308 -27.372559
11.893892 75.051384 -27.784382
13.412432 74.776794 -27.197416
38.12923 74.376545 -6.725322
36.879516 75.375938 -7.091407
38.964717 73.68985 -7.704832
38.12923 74.376545 -6.725322
38.584213 74.027141 -8.996528
38.964717 73.68985 -7.704832
26.339078 81.449578 -7.107371
27.864535 80.628441 -6.812733
25.560722 81.913407 -8.548971
24.732608 82.266861 -7.411534
26.339078 81.449578 -7.107371
34.828577 73.279335 -17.530962
33.207146 74.228676 -17.901512
34.082377 74.548805 -17.003555
8.353887 89.235336 -5.040619
9.178025 89.292766 -3.572623
9.427858 89.185871 -5.240653
8.353887 89.235336 -5.040619
7.628987 88.949226 -6.494718
25.670417 73.525074 -22.057733
24.617994 72.670955 -22.869861
23.89802 74.221763 -22.581814
27.457631 72.769741 -21.58852
25.670417 73.525074 -22.057733
26.737656 74.320549 -21.300472
29.204453 71.998173 -21.137556
27.457631 72.769741 -21.58852
31.77863 78.615338 -7.203984
30.900621 78.99596 -6.142656
30.900621 78.99596 -6.142656
29.427847 79.809288 -6.472739
39.339382 71.576404 -14.905107
37.945305 72.673596 -15.267653
38.597389 72.735802 -14.243086
39.339382 71.576404 -14.905107
40.682429 70.4426 -14.549467
10.136207 87.276817 13.073623
10.808159 86.654899 14.584916
10.136207 87.276817 13.073623
10.504603 87.676552 11.239556
10.160424 88.492645 7.919289
10.902932 87.983749 9.443202
11.262085 88.23555 7.643597
10.160424 88.492645 7.919289
9.480055 88.802513 6.397369
18.364506 73.489937 -25.39521
16.654822 73.990173 -25.991804
17.615477 75.08767 -25.1469
18.364506 73.489937 -25.39521
20.057326 72.942184 -24.760912
21.817543 72.33229 -24.18273
23.546524 71.695037 -23.596557
8.117407 88.578957 -9.727688
7.824374 88.816277 -8.141566
8.896753 88.891121 -8.294771
8.369423 88.312599 -11.287007
9.553671 88.292114 -11.362911
8.733307 87.950913 -12.769027
8.117407 88.578957 -9.727688
8.369423 88.312599 -11.287007
10.009355 83.088852 -22.601268
9.371009 83.946102 -21.654882
10.820257 83.855755 -21.408779
9.184012 82.228943 -23.716755
10.009355 83.088852 -22.601268
10.633259 82.138596 -23.470651
8.458435 81.220864 -24.837042
9.184012 82.228943 -23.716755
9.067074 80.191517 -25.631241
10.502231 80.132405 -25.254194
9.76139 79.045234 -26.299298
8.458435 81.220864 -24.837042
9.067074 80.191517 -25.631241
32.667439 78.156537 -8.211676
31.182625 78.999016 -8.572513
31.77863 78.615338 -7.203984
33.551338 77.64489 -9.203264
32.667439 78.156537 -8.211676
34.147343 77.261212 -7.834734
36.386921 75.766804 -8.451168
35.523838 76.3587 -7.46656
36.879516 75.375938 -7.091407
41.754259 70.33535 -12.370924
41.237905 70.44545 -13.505568
40.507821 71.528511 -12.745895
41.416117 71.164799 -10.387617
40.225001 72.344326 -10.764147
42.176772 70.176495 -11.22291
41.416117 71.164799 -10.387617
41.754259 70.33535 -12.370924
42.176772 70.176495 -11.22291
12.216798 84.988838 17.571202
13.338169 84.494743 17.239832
11.519541 85.853943 16.089268
12.216798 84.988838 17.571202
11.919319 86.311302 14.264571
10.808159 86.654899 14.584916
11.519541 85.853943 16.089268
14.625353 85.606914 11.96921
14.185167 85.311577 13.701246
13.897828 86.474033 10.455459
14.625353 85.606914 11.96921
15.05134 85.826645 10.220375
16.421394 86.0579 5.188816
15.942394 86.046608 6.826721
15.645423 86.774334 3.663757
16.421394 86.0579 5.188816
16.873836 85.99474 3.548629
18.430958 85.509869 -1.078686
17.871517 85.710236 0.41247
17.606285 86.087376 -2.586912
18.430958 85.509869 -1.078686
18.968315 85.241592 -2.557476
23.198059 82.937191 -4.98037
23.966418 82.641152 -6.214724
21.728677 83.801952 -5.156186
23.198059 82.937191 -4.98037
20.889257 84.311592 -6.641932
20.196064 84.634274 -5.338603
21.728677 83.801952 -5.156186
30.258457 72.731331 -20.423448
29.548592 74.156277 -20.011643
31.282179 73.322392 -19.603832
29.204453 71.998173 -21.137556
30.258457 72.731331 -20.423448
37.195553 72.556831 -16.28134
36.45356 73.716228 -15.619319
37.945305 72.673596 -15.267653
36.405907 72.29929 -17.184492
37.195553 72.556831 -16.28134
34.828577 73.279335 -17.530962
36.405907 72.29929 -17.184492
9.34676 89.334167 1.341729
10.136933 89.111626 2.849511
10.433497 89.173713 1.103993
8.87369 89.369243 -1.888189
9.94766 89.319778 -2.088224
9.178025 89.292766 -3.572623
8.639931 89.340152 -0.156671
8.87369 89.369243 -1.888189
9.34676 89.334167 1.341729
8.639931 89.340152 -0.156671
3 0 24 22
3 0 27 25
3 0 22 27
3 1 31 29
3 2 98 99
3 3 34 32
3 4 37 35
3 4 100 102
3 102 101 37
3 100 101 102
3 4 103 104
3 2 40 38
3 2 105 107
3 107 106 40
3 105 106 107
3 5 43 41
3 5 108 110
3 108 45 109
3 108 109 110
3 5 41 45
3 6 49 47
3 112 111 50
3 7 53 51
3 9 54 23
3 9 55 54
3 10 58 56
3 12 59 26
3 12 60 59
3 12 62 60
3 7 63 28
3 7 51 63
3 115 114 64
3 113 114 115
3 14 116 118
3 118 117 65
3 116 117 118
3 120 119 30
3 8 121 123
3 123 122 52
3 121 122 123
3 15 68 66
3 17 69 33
3 17 70 69
3 11 71 57
3 124 72 125
3 126 125 36
3 124 125 126
3 128 127 72
3 13 73 61
3 131 130 39
3 129 130 131
3 18 76 74
3 20 77 42
3 20 78 77
3 132 79 133
3 134 80 135
3 136 135 44
3 134 135 136
3 137 81 138
3 139 138 80
3 137 138 139
3 140 82 141
3 142 141 81
3 140 141 142
3 143 83 144
3 145 84 146
3 147 146 83
3 145 146 147
3 148 85 149
3 150 86 151
3 152 151 85
3 150 151 152
3 153 87 154
3 155 88 156
3 157 156 87
3 155 156 157
3 158 89 159
3 160 90 161
3 162 161 89
3 160 161 162
3 21 163 165
3 163 91 164
3 163 164 165
3 21 92 91
3 21 93 92
3 18 94 46
3 18 74 94
3 19 95 75
3 166 96 167
3 168 167 48
3 166 167 168
3 171 170 96
3 169 170 171
3 16 97 67
3 22 23 7
3 24 23 22
3 24 9 23
3 25 26 10
3 27 26 25
3 27 12 26
3 27 28 12
3 22 28 27
3 22 7 28
3 29 30 14
3 31 30 29
3 31 172 174
3 174 173 30
3 172 173 174
3 176 175 8
3 32 33 15
3 34 33 32
3 34 17 33
3 35 36 11
3 37 36 35
3 37 177 179
3 179 178 36
3 177 178 179
3 37 180 181
3 183 182 37
3 38 39 13
3 40 39 38
3 40 184 186
3 186 185 39
3 184 185 186
3 40 187 188
3 190 189 40
3 41 42 18
3 43 42 41
3 43 20 42
3 191 44 192
3 193 44 194
3 196 195 44
3 45 197 198
3 45 199 201
3 199 21 200
3 199 200 201
3 45 46 21
3 41 46 45
3 41 18 46
3 47 48 19
3 49 48 47
3 49 202 204
3 204 203 48
3 202 203 204
3 50 205 207
3 207 206 16
3 205 206 207
3 209 208 50
3 51 52 2
3 53 52 51
3 53 8 52
3 23 53 7
3 54 53 23
3 54 8 53
3 54 210 212
3 212 211 8
3 210 211 212
3 55 213 215
3 215 214 54
3 213 214 215
3 55 216 217
3 56 57 3
3 58 57 56
3 58 11 57
3 26 58 10
3 59 58 26
3 59 11 58
3 59 35 11
3 60 35 59
3 60 4 35
3 60 61 4
3 62 61 60
3 62 13 61
3 28 62 12
3 63 62 28
3 63 13 62
3 63 38 13
3 51 38 63
3 51 2 38
3 219 218 5
3 220 5 221
3 64 222 224
3 224 223 6
3 222 223 224
3 226 225 64
3 65 227 228
3 230 229 65
3 30 231 233
3 233 232 14
3 231 232 233
3 235 234 30
3 52 236 238
3 238 237 2
3 236 237 238
3 240 239 52
3 242 241 8
3 66 67 1
3 68 67 66
3 68 16 67
3 33 68 15
3 69 68 33
3 69 16 68
3 69 50 16
3 70 50 69
3 70 243 245
3 245 244 50
3 243 244 245
3 57 34 3
3 71 34 57
3 71 17 34
3 36 71 11
3 72 71 36
3 72 17 71
3 72 70 17
3 246 70 247
3 248 247 72
3 246 247 248
3 250 249 70
3 61 251 253
3 253 252 4
3 251 252 253
3 73 254 256
3 256 255 61
3 254 255 256
3 73 257 258
3 39 73 13
3 259 73 260
3 261 260 39
3 259 260 261
3 263 262 73
3 74 75 0
3 76 75 74
3 76 19 75
3 42 76 18
3 77 76 42
3 77 19 76
3 77 47 19
3 78 47 77
3 78 6 47
3 264 43 265
3 266 265 5
3 264 265 266
3 79 267 269
3 267 43 268
3 267 268 269
3 79 20 43
3 44 270 272
3 270 79 271
3 270 271 272
3 80 79 44
3 80 20 79
3 80 78 20
3 81 78 80
3 81 6 78
3 81 64 6
3 82 64 81
3 82 273 275
3 275 274 64
3 273 274 275
3 276 82 277
3 278 82 279
3 281 280 82
3 83 282 283
3 83 284 285
3 83 286 288
3 286 65 287
3 286 287 288
3 84 65 83
3 84 14 65
3 289 84 290
3 85 291 293
3 291 84 292
3 291 292 293
3 85 14 84
3 85 29 14
3 86 29 85
3 86 1 29
3 294 86 295
3 87 296 298
3 296 86 297
3 296 297 298
3 87 1 86
3 87 66 1
3 88 66 87
3 88 15 66
3 299 88 300
3 89 301 303
3 301 88 302
3 301 302 303
3 89 15 88
3 89 32 15
3 90 32 89
3 90 3 32
3 91 304 305
3 91 306 307
3 91 308 310
3 308 90 309
3 308 309 310
3 92 90 91
3 92 3 90
3 92 56 3
3 93 56 92
3 93 10 56
3 46 93 21
3 94 93 46
3 94 10 93
3 94 25 10
3 74 25 94
3 74 0 25
3 75 24 0
3 95 24 75
3 95 9 24
3 48 95 19
3 96 95 48
3 96 9 95
3 96 55 9
3 311 55 312
3 313 312 96
3 311 312 313
3 315 314 55
3 316 49 317
3 318 317 6
3 316 317 318
3 319 49 320
3 322 321 49
3 67 31 1
3 97 31 67
3 97 323 325
3 325 324 31
3 323 324 325
3 326 97 327
3 328 327 16
3 326 327 328
3 329 97 330
3 332 331 97
