ply
format ascii 1.0
element vertex 290
property float x
property float y
property float z
element face 301
property list uchar int vertex_index
end_header
23.878307 -120.099564 -18.598379
41.956993 -96.531685 -22.793245
37.286423 -109.558365 -19.439089
29.15435 -109.089119 -21.946951
15.296179 -116.884613 -18.845968
21.810196 -104.282059 -20.782812
38.435413 -95.645271 -23.745611
34.621155 -114.148079 -16.697275
30.735184 -115.375755 -19.531878
33.378941 -109.896835 -21.43799
26.370268 -115.228088 -20.727453
18.169403 -111.133888 -20.073053
44.96479 -96.634224 -20.581755
40.496468 -108.090157 -15.820734
42.833805 -102.994713 -18.506525
39.719009 -103.582237 -21.374392
35.977421 -103.217445 -22.698236
32.076988 -101.92276 -22.843378
13.373617 -121.355095 -16.493017
19.452917 -119.180275 -19.176508
22.014126 -113.765694 -20.699362
25.15086 -107.20359 -21.559412
28.519815 -99.698875 -22.370321
27.294367 -117.901886 -19.207418
28.585434 -115.474236 -20.321058
25.085796 -117.83445 -19.812838
43.551384 -96.682106 -21.861994
46.000195 -93.11557 -21.460714
44.587894 -93.012924 -22.593428
35.984032 -112.037254 -18.182741
37.684788 -111.195847 -16.365778
38.989189 -108.958412 -17.814337
41.702961 -105.721817 -17.249205
40.214897 -106.353455 -19.064604
41.374252 -103.407768 -20.135889
38.529419 -106.728325 -20.491438
31.272844 -109.632668 -21.846792
34.689011 -106.688705 -22.120195
32.646519 -106.279434 -22.393538
34.013153 -102.685043 -22.881334
30.614281 -105.618637 -22.402544
14.227459 -119.288078 -17.842573
16.270092 -120.51104 -17.998701
17.312569 -118.189262 -19.087183
20.651831 -116.629791 -20.062647
18.554497 -115.541306 -19.872435
19.924885 -107.833725 -20.4522
21.626804 -109.357574 -20.849157
23.377264 -105.872986 -21.204321
26.834398 -103.558495 -21.938547
25.186104 -102.156288 -21.571585
40.230965 -96.185974 -23.403502
43.01059 -92.728493 -23.415964
41.322937 -92.263672 -23.967089
32.760796 -114.92952 -18.321306
34.098953 -112.578529 -19.601748
35.403103 -109.873009 -20.648386
32.058529 -112.803185 -20.594412
29.914042 -112.708832 -21.178679
27.730972 -112.303078 -21.413069
16.612194 -114.159225 -19.564508
16.556129 -109.405075 -19.637976
18.452896 -106.040398 -19.984968
46.170597 -96.385254 -18.957769
36.297852 -113.061523 -14.707962
42.993271 -104.84903 -15.106447
44.089287 -102.349312 -16.529539
45.137337 -99.511322 -17.807936
43.913799 -99.947495 -19.608706
42.48251 -100.165909 -21.056555
40.860512 -100.166267 -22.127508
36.671452 -106.839973 -21.504343
37.901737 -103.517792 -22.217199
39.08984 -99.951241 -22.834826
37.230362 -99.523575 -23.224627
35.348866 -98.883781 -23.363348
33.508774 -98.028572 -23.320772
12.674538 -123.080132 -14.759495
15.392361 -122.492737 -16.546045
18.405418 -121.396454 -17.965075
21.661634 -119.827263 -19.040777
22.84973 -117.402863 -20.070883
24.157272 -114.65184 -20.82416
25.579687 -111.599907 -21.381529
20.001522 -112.588814 -20.432112
23.526308 -110.61438 -21.170935
27.093134 -108.27668 -21.824926
28.658363 -104.711319 -22.228811
30.229445 -100.92923 -22.655752
20.477665 -102.423485 -20.293955
22.543594 -98.568932 -20.647371
23.747129 -100.496513 -21.141756
26.987041 -98.222336 -22.014597
25.586337 -119.000725 -18.902898
26.668387 -118.938877 -18.495241
24.960356 -120.037716 -18.190722
14.761819 -118.086345 -18.344271
13.276616 -118.523964 -17.69804
13.810976 -117.322232 -18.199737
31.74799 -115.152637 -18.926592
31.087252 -116.261711 -18.260388
30.074446 -116.484829 -18.865673
15.872687 -108.402282 -19.37672
14.95797 -109.979953 -19.160385
16.82107 -106.719944 -19.550216
17.504512 -107.722736 -19.811472
15.872687 -108.402282 -19.37672
46.087957 -94.833523 -20.293936
46.69086 -94.709038 -19.481943
45.567694 -96.509739 -19.769762
47.133516 -91.316299 -21.225128
46.512747 -91.282757 -21.874243
44.303574 -90.969139 -23.356006
43.518158 -90.763989 -23.728229
35.459503 -113.604801 -15.702618
34.75145 -114.478134 -14.837955
33.913101 -115.021412 -15.832612
39.845697 -109.087071 -15.017284
38.439858 -110.639916 -15.289806
39.090628 -109.643002 -16.093256
41.155189 -107.535515 -14.676674
39.845697 -109.087071 -15.017284
41.74487 -106.469594 -15.46359
42.403591 -105.914952 -14.31953
41.155189 -107.535515 -14.676674
12.092641 -121.520775 -15.56323
12.420192 -120.624653 -16.385408
13.024078 -122.217613 -15.626256
11.743102 -122.383294 -14.696469
12.092641 -121.520775 -15.56323
30.141883 -98.324719 -22.762577
30.996697 -98.939896 -22.905293
29.37463 -100.314053 -22.513036
19.938579 -101.356015 -20.011143
18.855498 -103.197204 -19.864054
24.103165 -97.528512 -21.122179
23.558496 -96.526967 -20.883018
24.704933 -98.492302 -21.369371
23.145361 -99.532723 -20.894564
24.103165 -97.528512 -21.122179
26.324889 -97.355213 -21.805792
25.367085 -99.359424 -21.578176
24.704933 -98.492302 -21.369371
39.010932 -93.630188 -24.023352
37.534757 -95.275375 -23.814217
28.354038 -117.747895 -18.703443
26.668387 -118.938877 -18.495241
29.014775 -116.638821 -19.369648
30.074446 -116.484829 -18.865673
28.354038 -117.747895 -18.703443
45.806596 -91.231434 -22.440599
46.512747 -91.282757 -21.874243
45.294044 -93.064247 -22.027071
12.847113 -119.591144 -17.060187
13.276616 -118.523964 -17.69804
13.800538 -120.321586 -17.167795
12.420192 -120.624653 -16.385408
12.847113 -119.591144 -17.060187
42.674332 -90.531578 -24.003792
43.518158 -90.763989 -23.728229
42.166764 -92.496082 -23.691527
40.454695 -91.939389 -24.13409
39.879175 -93.954471 -23.85635
39.010932 -93.630188 -24.023352
41.846468 -90.240795 -24.266689
40.454695 -91.939389 -24.13409
42.674332 -90.531578 -24.003792
41.846468 -90.240795 -24.266689
33.007491 -115.531994 -16.736618
33.913101 -115.021412 -15.832612
32.077312 -115.922714 -17.548634
31.087252 -116.261711 -18.260388
33.690976 -114.538799 -17.50929
33.007491 -115.531994 -16.736618
32.077312 -115.922714 -17.548634
14.374104 -116.08664 -18.67201
13.810976 -117.322232 -18.199737
15.032111 -114.723946 -19.031281
15.954186 -115.521919 -19.205238
14.374104 -116.08664 -18.67201
15.740763 -113.327686 -19.366762
15.032111 -114.723946 -19.031281
16.519368 -111.815017 -19.621035
17.390798 -112.646557 -19.818781
15.740763 -113.327686 -19.366762
15.712731 -110.950611 -19.403496
14.95797 -109.979953 -19.160385
17.362766 -110.269481 -19.855514
16.519368 -111.815017 -19.621035
15.712731 -110.950611 -19.403496
23.309195 -121.055515 -17.815593
24.960356 -120.037716 -18.190722
47.190106 -94.57386 -18.603405
46.669485 -96.160633 -17.992937
47.190106 -94.57386 -18.603405
46.69086 -94.709038 -19.481943
46.60566 -93.074196 -20.733415
46.087957 -94.833523 -20.293936
45.482492 -94.874897 -21.021234
46.60566 -93.074196 -20.733415
47.133516 -91.316299 -21.225128
45.092226 -91.111355 -22.944738
43.799242 -92.870709 -23.004696
44.303574 -90.969139 -23.356006
45.806596 -91.231434 -22.440599
45.092226 -91.111355 -22.944738
35.568079 -113.818382 -13.773467
34.75145 -114.478134 -14.837955
37.045111 -112.387695 -13.568067
35.568079 -113.818382 -13.773467
37.746389 -111.572754 -14.460898
36.99132 -112.128685 -15.53687
38.439858 -110.639916 -15.289806
37.045111 -112.387695 -13.568067
37.746389 -111.572754 -14.460898
43.547522 -104.304283 -13.91197
42.403591 -105.914952 -14.31953
44.07358 -103.167378 -14.691144
43.547522 -104.304283 -13.91197
44.621588 -101.917518 -15.40269
44.07358 -103.167378 -14.691144
43.541279 -103.599171 -15.817993
45.125056 -100.606423 -16.119793
44.621588 -101.917518 -15.40269
45.64908 -99.187428 -16.758992
45.125056 -100.606423 -16.119793
44.613312 -100.930317 -17.168737
46.152855 -97.723667 -17.418021
45.64908 -99.187428 -16.758992
45.653967 -97.948288 -18.382852
46.669485 -96.160633 -17.992937
46.152855 -97.723667 -17.418021
35.991484 -96.89463 -23.623085
37.534757 -95.275375 -23.814217
36.892139 -97.264526 -23.554479
35.071438 -96.467026 -23.601797
35.991484 -96.89463 -23.623085
34.42882 -98.456176 -23.34206
34.196324 -95.993286 -23.597237
35.071438 -96.467026 -23.601797
22.229446 -121.003354 -18.132591
23.309195 -121.055515 -17.815593
11.475666 -123.109559 -13.68564
11.743102 -122.383294 -14.696469
12.368969 -123.772069 -13.69913
11.475666 -123.109559 -13.68564
13.6519 -123.604512 -14.72842
12.368969 -123.772069 -13.69913
15.010812 -123.310814 -15.621695
13.6519 -123.604512 -14.72842
14.033449 -122.786435 -15.65277
16.435563 -122.879505 -16.460451
15.010812 -123.310814 -15.621695
17.942092 -122.331364 -17.169966
16.435563 -122.879505 -16.460451
16.898889 -121.944596 -17.25556
19.493001 -121.651799 -17.815939
17.942092 -122.331364 -17.169966
21.121109 -120.867203 -18.35379
19.493001 -121.651799 -17.815939
20.033526 -120.611859 -18.502926
22.76997 -119.963414 -18.819578
22.229446 -121.003354 -18.132591
21.121109 -120.867203 -18.35379
32.636362 -97.489567 -23.237803
31.86911 -99.478901 -22.988262
30.996697 -98.939896 -22.905293
34.196324 -95.993286 -23.597237
32.636362 -97.489567 -23.237803
17.843114 -105.005661 -19.70956
16.82107 -106.719944 -19.550216
19.46528 -104.231942 -20.139461
17.843114 -105.005661 -19.70956
18.855498 -103.197204 -19.864054
22.069271 -97.46671 -20.366907
23.558496 -96.526967 -20.883018
20.971544 -99.428738 -20.187851
22.069271 -97.46671 -20.366907
21.51063 -100.496208 -20.470663
19.938579 -101.356015 -20.011143
20.971544 -99.428738 -20.187851
27.856503 -96.151612 -22.299008
26.324889 -97.355213 -21.805792
28.572409 -96.930633 -22.458856
27.856503 -96.151612 -22.299008
29.338795 -97.668903 -22.636719
27.753428 -98.960605 -22.192459
28.572409 -96.930633 -22.458856
30.141883 -98.324719 -22.762577
29.338795 -97.668903 -22.636719
3 0 93 95
3 93 23 94
3 93 94 95
3 0 25 23
3 1 28 26
3 2 31 29
3 2 33 31
3 2 35 33
3 3 38 36
3 3 40 38
3 4 96 98
3 96 41 97
3 96 97 98
3 4 43 41
3 4 45 43
3 5 48 46
3 5 50 48
3 6 53 51
3 8 99 101
3 99 54 100
3 99 100 101
3 8 55 54
3 8 57 55
3 10 58 24
3 10 59 58
3 102 61 103
3 104 62 105
3 106 105 61
3 104 105 106
3 12 107 109
3 109 108 63
3 107 108 109
3 111 110 27
3 113 112 52
3 7 114 116
3 114 64 115
3 114 115 116
3 13 117 119
3 119 118 30
3 117 118 119
3 13 120 121
3 13 122 124
3 122 65 123
3 122 123 124
3 14 66 32
3 14 67 66
3 14 68 67
3 15 69 34
3 15 70 69
3 9 71 56
3 16 72 37
3 16 73 72
3 16 74 73
3 17 75 39
3 17 76 75
3 18 125 126
3 18 127 129
3 127 77 128
3 127 128 129
3 18 78 77
3 19 79 42
3 19 80 79
3 19 81 80
3 20 82 44
3 20 83 82
3 11 84 60
3 21 85 47
3 21 86 85
3 21 87 86
3 22 88 49
3 22 130 132
3 132 131 88
3 130 131 132
3 133 89 134
3 135 90 136
3 137 91 138
3 139 138 90
3 137 138 139
3 140 92 141
3 142 141 91
3 140 141 142
3 144 143 6
3 23 145 146
3 23 147 149
3 147 8 148
3 147 148 149
3 23 24 8
3 25 24 23
3 25 10 24
3 26 27 12
3 28 27 26
3 28 150 152
3 152 151 27
3 150 151 152
3 29 30 7
3 31 30 29
3 31 13 30
3 31 32 13
3 33 32 31
3 33 14 32
3 33 34 14
3 35 34 33
3 35 15 34
3 36 37 9
3 38 37 36
3 38 16 37
3 38 39 16
3 40 39 38
3 40 17 39
3 41 153 154
3 41 155 157
3 155 18 156
3 155 156 157
3 41 42 18
3 43 42 41
3 43 19 42
3 43 44 19
3 45 44 43
3 45 20 44
3 46 47 11
3 48 47 46
3 48 21 47
3 48 49 21
3 50 49 48
3 50 22 49
3 51 52 1
3 53 52 51
3 53 158 160
3 160 159 52
3 158 159 160
3 161 53 162
3 163 162 6
3 161 162 163
3 164 53 165
3 167 166 53
3 168 7 169
3 54 170 171
3 54 172 174
3 172 7 173
3 172 173 174
3 54 29 7
3 55 29 54
3 55 2 29
3 55 56 2
3 57 56 55
3 57 9 56
3 24 57 8
3 58 57 24
3 58 9 57
3 58 36 9
3 59 36 58
3 59 3 36
3 175 4 176
3 177 60 178
3 179 178 4
3 177 178 179
3 180 60 181
3 182 11 183
3 184 183 60
3 182 183 184
3 61 185 186
3 61 187 189
3 187 11 188
3 187 188 189
3 61 46 11
3 62 46 61
3 62 5 46
3 190 0 191
3 63 192 193
3 195 194 63
3 27 196 198
3 198 197 12
3 196 197 198
3 200 199 27
3 52 28 1
3 201 28 202
3 203 202 52
3 201 202 203
3 205 204 28
3 64 206 207
3 64 208 209
3 30 64 7
3 210 64 211
3 212 211 30
3 210 211 212
3 214 213 64
3 65 215 216
3 65 217 218
3 32 65 13
3 66 65 32
3 66 219 221
3 221 220 65
3 219 220 221
3 66 222 223
3 67 224 226
3 226 225 66
3 224 225 226
3 67 227 228
3 67 229 231
3 229 63 230
3 229 230 231
3 68 63 67
3 68 12 63
3 34 68 14
3 69 68 34
3 69 12 68
3 69 26 12
3 70 26 69
3 70 1 26
3 56 35 2
3 71 35 56
3 71 15 35
3 37 71 9
3 72 71 37
3 72 15 71
3 72 70 15
3 73 70 72
3 73 1 70
3 73 51 1
3 74 51 73
3 74 6 51
3 39 74 16
3 75 74 39
3 75 6 74
3 75 232 234
3 234 233 6
3 232 233 234
3 76 235 237
3 237 236 75
3 235 236 237
3 76 238 239
3 240 0 241
3 77 242 243
3 77 244 245
3 77 246 247
3 78 248 250
3 250 249 77
3 248 249 250
3 78 251 252
3 42 78 18
3 79 78 42
3 79 253 255
3 255 254 78
3 253 254 255
3 79 256 257
3 80 258 260
3 260 259 79
3 258 259 260
3 80 261 263
3 261 0 262
3 261 262 263
3 80 25 0
3 81 25 80
3 81 10 25
3 44 81 19
3 82 81 44
3 82 10 81
3 82 59 10
3 83 59 82
3 83 3 59
3 60 45 4
3 84 45 60
3 84 20 45
3 47 84 11
3 85 84 47
3 85 20 84
3 85 83 20
3 86 83 85
3 86 3 83
3 86 40 3
3 87 40 86
3 87 17 40
3 49 87 21
3 88 87 49
3 88 17 87
3 88 76 17
3 264 76 265
3 266 265 88
3 264 265 266
3 268 267 76
3 269 62 270
3 89 271 273
3 271 62 272
3 271 272 273
3 89 5 62
3 90 274 275
3 90 276 277
3 90 278 280
3 278 89 279
3 278 279 280
3 91 89 90
3 91 5 89
3 91 50 5
3 92 50 91
3 92 22 50
3 281 92 282
3 283 92 284
3 285 22 286
3 287 286 92
3 285 286 287
3 289 288 22
