ply
format ascii 1.0
element vertex 438
property float x
property float y
property float z
element face 505
property list uchar int vertex_index
end_header
-68.003006 -27.671547 32.635239
-56.142498 -31.922735 21.937916
-63.518108 -47.897957 31.240265
-66.352745 -37.944107 32.335854
-46.807205 -32.965546 18.749395
-52.008804 -40.869019 19.392393
-64.977539 -29.977272 26.030949
-59.737701 -40.119843 25.772535
-58.996483 -47.820793 22.357529
-67.41066 -36.667393 35.842896
-67.554977 -32.827187 32.23822
-43.56284 -32.577934 16.591103
-46.049332 -36.671402 16.033232
-44.433163 -35.199921 12.940783
-63.648396 -51.998089 28.799236
-61.003769 -31.007214 23.686226
-62.331608 -35.142567 25.972088
-57.862473 -36.112186 23.50959
-53.361336 -43.29834 16.447491
-55.393402 -44.357903 20.686062
-57.647255 -46.355511 17.639103
-66.612068 -41.755554 36.013878
-64.689789 -43.042645 32.275505
-51.179359 -32.650898 20.429878
-53.203564 -36.853935 21.227669
-49.088966 -37.145409 18.799646
-49.382835 -40.165047 15.86209
-68.35347 -23.570541 29.819033
-67.400574 -28.837246 29.082268
-67.113098 -24.725925 26.402802
-64.149734 -25.785501 23.729267
-59.815197 -26.68693 21.905418
-54.765717 -27.447012 20.743179
-49.724144 -28.001244 19.833874
-45.326813 -28.153057 18.694958
-65.777985 -34.031044 28.882267
-63.592518 -39.139317 28.943697
-61.656635 -44.04084 28.522827
-55.625782 -40.762283 22.665384
-58.310749 -44.542534 24.704941
-61.097977 -48.295609 26.900536
-62.397511 -51.349152 23.943785
-67.764069 -29.68429 34.148975
-67.734833 -32.226421 33.997829
-67.861252 -30.256207 32.352554
-42.483212 -32.061962 15.289163
-43.64246 -34.156982 14.910655
-42.989182 -33.360123 13.414003
-64.631561 -47.442345 33.351135
-63.401657 -50.077881 30.195553
-58.634506 -31.480492 22.756088
-59.388176 -33.588322 23.643112
-56.97261 -34.047153 22.64603
-55.006271 -43.811539 14.714637
-55.494377 -44.819153 16.993864
-67.116035 -37.305183 34.093006
-67.091133 -39.198898 35.971069
-66.524521 -39.858906 34.179314
-65.832962 -42.420734 34.152
-65.528191 -40.501293 32.379028
-48.882099 -32.878696 19.634195
-49.886223 -35.034977 19.791252
-47.857994 -35.124664 18.736408
-47.620758 -38.479748 15.86494
-68.489502 -21.517826 28.453156
-67.953323 -24.149708 28.03512
-67.948891 -22.091818 26.710823
-65.577362 -23.173332 23.783199
-63.795219 -23.6457 22.649338
-62.117092 -26.25481 22.716236
-61.690369 -24.068058 21.741982
-56.836876 -24.78064 20.516386
-54.265511 -25.072216 20.113344
-52.201202 -27.759815 20.287176
-51.713726 -25.308229 19.774302
-46.978359 -25.529217 19.028362
-43.529541 -28.009785 17.906446
-66.411392 -29.418968 27.474474
-66.680046 -31.445812 28.918613
-65.395813 -32.022614 27.372395
-60.966202 -37.669647 25.93516
-62.979156 -37.154953 27.382515
-61.751144 -39.663235 27.33568
-62.51931 -41.636131 28.846973
-60.696213 -42.087536 27.116924
-52.324009 -39.021461 20.463055
-54.374107 -38.834183 21.855862
-53.718132 -40.898857 21.060274
-57.188744 -46.083107 21.505474
-56.762154 -44.547935 22.726341
-58.364136 -46.36002 23.690413
-59.706635 -46.421021 25.816097
-59.971935 -48.177521 24.656128
-61.531609 -49.998798 25.568369
-60.757515 -49.577568 23.184277
-67.078735 -33.592556 37.414574
-67.231995 -36.056747 37.536575
-67.529617 -34.157257 35.737156
-67.52771 -34.763847 34.00132
-67.049644 -35.386841 32.256302
-45.016945 -32.874592 17.742004
-46.108864 -35.028183 17.577715
-44.690384 -34.712257 16.302402
-45.048962 -36.066151 14.519658
-63.149426 -30.50655 24.769543
-63.699287 -32.573311 25.979103
-61.665138 -33.095493 24.742146
-60.173248 -35.64798 24.697313
-58.789612 -38.131783 24.555332
-52.345787 -42.313347 18.034744
-53.655491 -42.628189 19.963211
-54.250656 -43.948601 18.587429
-56.224461 -45.573696 19.267191
-58.214722 -47.214714 20.0124
-60.155968 -48.887871 20.762522
-59.747189 -47.933064 18.320854
-67.194969 -38.549446 37.711731
-66.96917 -41.079277 37.829124
-65.159744 -44.964893 33.904716
-63.976517 -45.52858 31.921659
-53.626858 -32.320946 21.180607
-54.521935 -34.458893 21.70425
-52.131721 -34.799564 20.768034
-51.040421 -37.075165 20.048561
-50.479378 -39.051228 19.005405
-47.408901 -37.022972 17.462715
-48.896717 -38.882992 17.471682
-50.550674 -40.635963 17.656528
-51.308346 -41.759304 16.057753
-52.739693 -42.39053 14.295231
-68.194611 -25.628204 31.200016
-67.926605 -28.246832 30.818127
-67.950882 -26.206625 29.388714
-67.261597 -26.791681 27.697716
-66.120331 -27.359549 26.169609
-66.974693 -22.651648 25.143169
-65.83461 -25.275234 24.959694
-64.552132 -27.89698 24.834099
-62.611767 -28.400494 23.7019
-60.37719 -28.872475 22.762573
-57.940414 -29.315491 21.986227
-59.341675 -24.445097 21.042803
-57.333767 -27.085236 21.263571
-55.398285 -29.726486 21.327877
-52.845329 -30.092628 20.73307
-50.369415 -30.390173 20.14362
-48.04998 -30.58691 19.502865
-49.261028 -25.468685 19.434418
-47.410423 -28.14225 19.321884
-45.957397 -30.64764 18.760242
-44.152153 -30.541162 17.875061
-42.683067 -30.246643 16.819256
-67.506157 -30.851418 30.592617
-66.899773 -33.435219 30.517742
-66.101585 -36.003563 30.55022
-64.231308 -34.60228 27.363398
-64.721848 -36.596802 28.919693
-65.156403 -38.561485 30.611584
-64.164261 -41.100922 30.598343
-63.264679 -43.591621 30.399601
-62.605812 -45.979553 29.918591
-55.506256 -36.521893 22.367867
-56.55843 -38.527313 23.208424
-57.661674 -40.493271 24.226547
-55.20443 -42.733227 21.82902
-56.94331 -42.659447 23.632513
-58.803303 -42.43581 25.38743
-59.971474 -44.365669 26.631174
-61.149422 -46.286263 27.887943
-62.308384 -48.1936 29.092665
-62.43486 -50.159012 27.905865
-62.971756 -51.813618 26.390144
-63.828972 -53.121742 24.614639
-61.969891 -50.597214 21.470097
-63.567612 -52.334427 22.107273
-42.393908 -32.345061 13.627751
-42.736197 -32.711043 14.351583
-42.140923 -31.69598 14.565331
-42.861374 -32.848826 12.622227
-42.393908 -32.345061 13.627751
-63.933931 -48.842327 31.840432
-64.490657 -48.614521 32.895866
-64.074835 -47.670151 32.2957
-63.459882 -48.987919 30.717909
-63.875706 -49.932289 31.318075
-63.933931 -48.842327 31.840432
-56.15173 -44.528311 14.990049
-56.081691 -43.850886 13.820241
-68.277615 -20.789053 26.884453
-68.219197 -21.804822 27.581989
-68.547921 -20.502057 27.75562
-63.648977 -22.560784 22.090153
-64.578533 -22.35112 22.61386
-62.596552 -22.771963 21.636475
-62.742794 -23.856879 22.19566
-63.648977 -22.560784 22.090153
-54.087521 -23.83005 19.748313
-55.363926 -23.730823 19.900008
-52.811628 -23.948056 19.578792
-52.989618 -25.190223 19.943823
-54.087521 -23.83005 19.748313
-67.495422 -32.907461 35.741777
-67.304176 -33.874907 36.575865
-67.269981 -32.625111 36.580486
-45.275263 -36.038222 12.723845
-45.583163 -36.471336 13.513282
-44.741062 -35.633036 13.73022
-45.178556 -35.43649 11.87597
-45.275263 -36.038222 12.723845
-64.151415 -52.897404 29.183986
-64.005785 -51.962042 29.983173
-63.927252 -52.801863 27.952301
-64.151415 -52.897404 29.183986
-66.60947 -42.698667 36.895321
-66.788021 -42.360529 37.802944
-66.790619 -41.417415 36.921501
-66.336986 -43.039516 35.938524
-66.60947 -42.698667 36.895321
-52.566067 -41.803694 13.231552
-51.652228 -41.666804 14.177163
-53.749529 -42.469758 13.380702
-52.566067 -41.803694 13.231552
-66.916072 -21.613888 24.502128
-67.459934 -21.34823 25.253664
-59.1558 -23.291354 20.578384
-60.343609 -23.139775 20.879567
-49.12475 -24.123478 19.165493
-50.327284 -24.095821 19.288373
-42.372664 -28.973118 16.871139
-43.106304 -29.128214 17.362851
-42.795901 -27.854689 17.414733
-42.133736 -30.002103 16.199223
-42.372664 -28.973118 16.871139
-61.840189 -50.081299 20.228034
-61.062929 -49.742542 21.116309
-60.933228 -49.226627 19.874246
-64.213856 -52.656347 21.12699
-63.506756 -51.793163 20.853276
-64.211525 -53.207566 22.387158
-64.213856 -52.656347 21.12699
-67.749451 -30.955356 34.073402
-67.59803 -31.942043 34.872114
-67.612648 -30.670977 34.947687
-43.599238 -33.722313 12.367046
-44.321228 -34.642212 12.130436
-43.711173 -34.280022 13.177393
-43.599238 -33.722313 12.367046
-42.861374 -32.848826 12.622227
-64.910404 -48.384231 33.997248
-65.092197 -47.154194 34.388942
-64.910404 -48.384231 33.997248
-64.490657 -48.614521 32.895866
-63.882416 -51.001938 30.681331
-63.875706 -49.932289 31.318075
-63.525026 -51.037985 29.497394
-64.005785 -51.962042 29.983173
-63.882416 -51.001938 30.681331
-56.395782 -45.032118 16.129662
-55.250324 -44.315346 15.85425
-56.15173 -44.528311 14.990049
-57.472222 -45.800297 16.452281
-56.570816 -45.587332 17.316483
-56.395782 -45.032118 16.129662
-58.58958 -46.540053 16.761996
-57.472222 -45.800297 16.452281
-47.153526 -38.147177 15.03316
-46.835045 -37.575575 15.949086
-46.367813 -37.243004 15.117306
-48.07742 -38.954768 14.948277
-47.153526 -38.147177 15.03316
-48.958458 -39.797417 14.946853
-48.501796 -39.322398 15.863515
-48.07742 -38.954768 14.948277
-49.973799 -40.554062 14.960593
-48.958458 -39.797417 14.946853
-65.469605 -22.114936 23.180791
-66.217407 -21.87473 23.822143
-64.68629 -23.409516 23.216268
-65.469605 -22.114936 23.180791
-64.578533 -22.35112 22.61386
-56.649608 -23.585034 20.101529
-57.903401 -23.459125 20.315175
-55.551193 -24.926428 20.314865
-56.649608 -23.585034 20.101529
-55.363926 -23.730823 19.900008
-46.868426 -24.132357 18.803305
-47.983415 -24.153744 18.962465
-45.952531 -25.498115 18.761991
-46.868426 -24.132357 18.803305
-45.842598 -24.101256 18.536933
-45.126759 -26.810035 18.595289
-46.152586 -26.841137 18.86166
-45.952531 -25.498115 18.761991
-44.228122 -26.738399 18.201033
-44.428177 -28.081421 18.300702
-45.126759 -26.810035 18.595289
-43.342624 -26.63814 17.846055
-44.228122 -26.738399 18.201033
-42.795901 -27.854689 17.414733
-43.342624 -26.63814 17.846055
-67.155365 -34.824652 37.475575
-66.918057 -35.777946 38.331661
-66.841426 -34.545851 38.270661
-67.632225 -33.191839 34.867492
-67.495422 -32.907461 35.741777
-67.59803 -31.942043 34.872114
-45.867629 -36.940378 14.360519
-46.367813 -37.243004 15.117306
-45.549147 -36.368776 15.276445
-45.867629 -36.940378 14.360519
-45.583163 -36.471336 13.513282
-45.178556 -35.43649 11.87597
-44.321228 -34.642212 12.130436
-60.728838 -48.749224 18.653413
-60.933228 -49.226627 19.874246
-59.951578 -48.410467 19.541688
-59.639547 -47.328829 17.102871
-58.697222 -47.144288 17.979979
-58.58958 -46.540053 16.761996
-60.683693 -48.102942 17.417669
-59.639547 -47.328829 17.102871
-60.728838 -48.749224 18.653413
-60.683693 -48.102942 17.417669
-67.032425 -36.998065 38.444416
-66.918057 -35.777946 38.331661
-67.013912 -38.244415 38.531994
-67.032425 -36.998065 38.444416
-67.213482 -37.303097 37.624153
-67.034702 -39.487148 38.632462
-67.013912 -38.244415 38.531994
-66.921803 -40.752063 38.691158
-67.034702 -39.487148 38.632462
-67.08207 -39.814362 37.770427
-66.855762 -42.018654 38.719479
-66.921803 -40.752063 38.691158
-66.855762 -42.018654 38.719479
-66.788021 -42.360529 37.802944
-65.947433 -43.372107 35.007586
-66.336986 -43.039516 35.938524
-66.222515 -42.088144 35.082939
-65.610825 -44.644186 34.883944
-65.947433 -43.372107 35.007586
-65.496353 -43.692813 34.028358
-65.356289 -45.915468 34.665733
-65.610825 -44.644186 34.883944
-64.895653 -46.203619 33.627926
-65.092197 -47.154194 34.388942
-65.356289 -45.915468 34.665733
-50.936554 -41.351191 15.058425
-50.345591 -40.962176 15.959922
-49.973799 -40.554062 14.960593
-52.02402 -42.074917 15.176492
-50.936554 -41.351191 15.058425
-51.652228 -41.666804 14.177163
-54.882818 -43.180262 13.590405
-53.872982 -43.101034 14.504934
-53.749529 -42.469758 13.380702
-56.081691 -43.850886 13.820241
-54.882818 -43.180262 13.590405
-67.947033 -21.068314 26.037491
-68.277615 -20.789053 26.884453
-67.461792 -22.371733 25.926996
-67.947033 -21.068314 26.037491
-67.459934 -21.34823 25.253664
-66.276027 -22.91249 24.463184
-66.916072 -21.613888 24.502128
-66.217407 -21.87473 23.822143
-61.517956 -22.951255 21.229157
-62.596552 -22.771963 21.636475
-60.516022 -24.256577 21.392392
-61.517956 -22.951255 21.229157
-60.343609 -23.139775 20.879567
-58.089275 -24.612868 20.779595
-59.1558 -23.291354 20.578384
-57.903401 -23.459125 20.315175
-51.553632 -24.015593 19.458315
-52.811628 -23.948056 19.578792
-50.487377 -25.388457 19.60436
-51.553632 -24.015593 19.458315
-50.327284 -24.095821 19.288373
-48.119693 -25.498951 19.23139
-49.12475 -24.123478 19.165493
-47.983415 -24.153744 18.962465
-42.033808 -30.909762 15.434177
-42.58314 -31.154303 16.054209
-42.133736 -30.002103 16.199223
-42.140923 -31.69598 14.565331
-42.033808 -30.909762 15.434177
-66.650634 -33.343048 38.204319
-66.841426 -34.545851 38.270661
-66.92974 -32.369675 37.427468
-66.650634 -33.343048 38.204319
-67.269981 -32.625111 36.580486
-66.92974 -32.369675 37.427468
-67.511589 -29.423884 35.042212
-67.612648 -30.670977 34.947687
-67.717171 -28.412734 34.31751
-67.511589 -29.423884 35.042212
-67.836639 -27.406363 33.560643
-67.883538 -28.677919 33.392107
-67.717171 -28.412734 34.31751
-68.015084 -26.379922 32.860048
-67.836639 -27.406363 33.560643
-68.110886 -25.358251 32.142437
-68.098808 -26.649876 31.917628
-68.015084 -26.379922 32.860048
-68.267246 -24.325254 31.455029
-68.110886 -25.358251 32.142437
-68.346676 -23.296423 30.764537
-68.27404 -24.599373 30.509525
-68.267246 -24.325254 31.455029
-68.483666 -22.267883 30.073786
-68.346676 -23.296423 30.764537
-68.551682 -21.241526 29.390847
-68.421486 -22.544183 29.136094
-68.483666 -22.267883 30.073786
-68.669251 -20.227508 28.67845
-68.551682 -21.241526 29.390847
-68.547921 -20.502057 27.75562
-68.669251 -20.227508 28.67845
-63.588932 -52.709627 26.747755
-63.927252 -52.801863 27.952301
-63.310076 -51.905853 27.59469
-64.01754 -53.363689 25.860003
-63.588932 -52.709627 26.747755
-63.400364 -52.46768 25.502392
-64.393497 -53.998335 24.905166
-64.01754 -53.363689 25.860003
-62.707895 -50.924557 20.534688
-61.840189 -50.081299 20.228034
-62.768751 -51.46582 21.788685
-62.707895 -50.924557 20.534688
-63.506756 -51.793163 20.853276
-64.342205 -53.601223 23.64084
-63.698292 -52.728084 23.360956
-64.211525 -53.207566 22.387158
-64.393497 -53.998335 24.905166
-64.342205 -53.601223 23.64084
3 0 44 42
3 175 47 176
3 177 176 45
3 175 176 177
3 179 178 47
3 2 180 182
3 182 181 48
3 180 181 182
3 2 183 185
3 183 49 184
3 183 184 185
3 1 52 50
3 187 186 53
3 3 57 55
3 3 59 57
3 4 62 60
3 188 66 189
3 190 189 64
3 188 189 190
3 191 68 192
3 193 70 194
3 195 194 68
3 193 194 195
3 196 72 197
3 198 74 199
3 200 199 72
3 198 199 200
3 6 79 77
3 7 82 80
3 7 84 82
3 5 87 85
3 8 90 88
3 8 92 90
3 8 94 92
3 201 97 202
3 203 202 95
3 201 202 203
3 10 98 43
3 10 99 98
3 11 102 100
3 13 103 46
3 13 204 206
3 206 205 103
3 204 205 206
3 13 207 208
3 14 209 210
3 14 211 212
3 15 106 104
3 17 107 51
3 17 108 107
3 18 111 109
3 20 112 54
3 20 113 112
3 20 115 113
3 9 116 96
3 21 117 56
3 21 213 215
3 215 214 117
3 213 214 215
3 21 216 217
3 22 118 58
3 22 119 118
3 23 122 120
3 25 123 61
3 25 124 123
3 12 125 101
3 26 126 63
3 26 127 126
3 26 128 127
3 218 129 219
3 221 220 129
3 27 132 130
3 29 133 65
3 29 134 133
3 222 135 223
3 30 136 67
3 30 137 136
3 30 138 137
3 31 139 69
3 31 140 139
3 224 141 225
3 32 142 71
3 32 143 142
3 32 144 143
3 33 145 73
3 33 146 145
3 226 147 227
3 34 148 75
3 34 149 148
3 34 150 149
3 228 151 229
3 230 229 76
3 228 229 230
3 232 231 151
3 28 152 131
3 35 153 78
3 35 154 153
3 16 155 105
3 36 156 81
3 36 157 156
3 36 158 157
3 37 159 83
3 37 160 159
3 24 161 121
3 38 162 86
3 38 163 162
3 19 164 110
3 39 165 89
3 39 166 165
3 39 167 166
3 40 168 91
3 40 169 168
3 40 170 169
3 41 171 93
3 41 172 171
3 233 173 234
3 235 234 114
3 233 234 235
3 236 174 237
3 239 238 174
3 42 240 242
3 240 43 241
3 240 241 242
3 44 43 42
3 44 10 43
3 45 46 11
3 47 46 45
3 47 13 46
3 47 243 245
3 245 244 13
3 243 244 245
3 247 246 47
3 48 248 249
3 251 250 48
3 49 252 253
3 49 254 256
3 254 14 255
3 254 255 256
3 50 51 15
3 52 51 50
3 52 17 51
3 53 54 18
3 257 54 258
3 259 258 53
3 257 258 259
3 260 20 261
3 262 261 54
3 260 261 262
3 264 263 20
3 55 56 9
3 57 56 55
3 57 21 56
3 57 58 21
3 59 58 57
3 59 22 58
3 60 61 23
3 62 61 60
3 62 25 61
3 265 63 266
3 267 266 12
3 265 266 267
3 268 63 269
3 270 26 271
3 272 271 63
3 270 271 272
3 274 273 26
3 64 65 27
3 66 65 64
3 66 29 65
3 275 67 276
3 68 277 279
3 277 67 278
3 277 278 279
3 68 30 67
3 68 69 30
3 70 69 68
3 70 31 69
3 280 71 281
3 72 282 284
3 282 71 283
3 282 283 284
3 72 32 71
3 72 73 32
3 74 73 72
3 74 33 73
3 285 75 286
3 287 75 288
3 287 288 289
3 290 34 291
3 292 291 75
3 290 291 292
3 293 76 294
3 295 294 34
3 293 294 295
3 296 76 297
3 299 298 76
3 77 78 28
3 79 78 77
3 79 35 78
3 80 81 16
3 82 81 80
3 82 36 81
3 82 83 36
3 84 83 82
3 84 37 83
3 85 86 24
3 87 86 85
3 87 38 86
3 88 89 19
3 90 89 88
3 90 39 89
3 90 91 39
3 92 91 90
3 92 40 91
3 92 93 40
3 94 93 92
3 94 41 93
3 95 300 302
3 300 96 301
3 300 301 302
3 97 96 95
3 97 9 96
3 43 303 305
3 303 97 304
3 303 304 305
3 98 97 43
3 98 9 97
3 98 55 9
3 99 55 98
3 99 3 55
3 100 101 4
3 102 101 100
3 102 12 101
3 46 102 11
3 103 102 46
3 103 12 102
3 103 306 308
3 308 307 12
3 306 307 308
3 310 309 103
3 312 311 13
3 104 105 6
3 106 105 104
3 106 16 105
3 51 106 15
3 107 106 51
3 107 16 106
3 107 80 16
3 108 80 107
3 108 7 80
3 109 110 5
3 111 110 109
3 111 19 110
3 54 111 18
3 112 111 54
3 112 19 111
3 112 88 19
3 113 88 112
3 113 8 88
3 113 114 8
3 115 114 113
3 115 313 315
3 315 314 114
3 313 314 315
3 316 115 317
3 318 317 20
3 316 317 318
3 319 115 320
3 322 321 115
3 96 323 324
3 116 325 327
3 327 326 96
3 325 326 327
3 116 328 329
3 56 116 9
3 117 116 56
3 117 330 332
3 332 331 116
3 330 331 332
3 117 333 334
3 336 335 117
3 58 337 339
3 339 338 21
3 337 338 339
3 118 340 342
3 342 341 58
3 340 341 342
3 118 343 344
3 118 345 347
3 345 48 346
3 345 346 347
3 119 48 118
3 119 2 48
3 120 121 1
3 122 121 120
3 122 24 121
3 61 122 23
3 123 122 61
3 123 24 122
3 123 85 24
3 124 85 123
3 124 5 85
3 101 62 4
3 125 62 101
3 125 25 62
3 63 125 12
3 126 125 63
3 126 25 125
3 126 124 25
3 127 124 126
3 127 5 124
3 127 109 5
3 128 109 127
3 128 18 109
3 348 128 349
3 350 349 26
3 348 349 350
3 129 351 353
3 351 128 352
3 351 352 353
3 129 18 128
3 129 53 18
3 354 53 355
3 356 355 129
3 354 355 356
3 358 357 53
3 130 131 0
3 132 131 130
3 132 28 131
3 65 132 27
3 133 132 65
3 133 28 132
3 133 77 28
3 134 77 133
3 134 6 77
3 359 66 360
3 135 361 363
3 361 66 362
3 361 362 363
3 135 29 66
3 67 364 366
3 364 135 365
3 364 365 366
3 136 135 67
3 136 29 135
3 136 134 29
3 137 134 136
3 137 6 134
3 137 104 6
3 138 104 137
3 138 15 104
3 69 138 30
3 139 138 69
3 139 15 138
3 139 50 15
3 140 50 139
3 140 1 50
3 367 70 368
3 141 369 371
3 369 70 370
3 369 370 371
3 141 31 70
3 71 372 374
3 372 141 373
3 372 373 374
3 142 141 71
3 142 31 141
3 142 140 31
3 143 140 142
3 143 1 140
3 143 120 1
3 144 120 143
3 144 23 120
3 73 144 32
3 145 144 73
3 145 23 144
3 145 60 23
3 146 60 145
3 146 4 60
3 375 74 376
3 147 377 379
3 377 74 378
3 377 378 379
3 147 33 74
3 75 380 382
3 380 147 381
3 380 381 382
3 148 147 75
3 148 33 147
3 148 146 33
3 149 146 148
3 149 4 146
3 149 100 4
3 150 100 149
3 150 11 100
3 76 150 34
3 151 150 76
3 151 11 150
3 151 45 11
3 383 45 384
3 385 384 151
3 383 384 385
3 387 386 45
3 388 95 389
3 390 95 391
3 393 392 95
3 394 42 395
3 396 42 397
3 398 0 399
3 400 399 42
3 398 399 400
3 401 0 402
3 403 130 404
3 405 404 0
3 403 404 405
3 406 130 407
3 408 27 409
3 410 409 130
3 408 409 410
3 411 27 412
3 413 64 414
3 415 414 27
3 413 414 415
3 416 64 417
3 419 418 64
3 131 44 0
3 152 44 131
3 152 10 44
3 78 152 28
3 153 152 78
3 153 10 152
3 153 99 10
3 154 99 153
3 154 3 99
3 105 79 6
3 155 79 105
3 155 35 79
3 81 155 16
3 156 155 81
3 156 35 155
3 156 154 35
3 157 154 156
3 157 3 154
3 157 59 3
3 158 59 157
3 158 22 59
3 83 158 36
3 159 158 83
3 159 22 158
3 159 119 22
3 160 119 159
3 160 2 119
3 121 52 1
3 161 52 121
3 161 17 52
3 86 161 24
3 162 161 86
3 162 17 161
3 162 108 17
3 163 108 162
3 163 7 108
3 110 87 5
3 164 87 110
3 164 38 87
3 89 164 19
3 165 164 89
3 165 38 164
3 165 163 38
3 166 163 165
3 166 7 163
3 166 84 7
3 167 84 166
3 167 37 84
3 91 167 39
3 168 167 91
3 168 37 167
3 168 160 37
3 169 160 168
3 169 2 160
3 169 49 2
3 170 49 169
3 170 14 49
3 93 170 40
3 171 170 93
3 171 14 170
3 171 420 422
3 422 421 14
3 420 421 422
3 172 423 425
3 425 424 171
3 423 424 425
3 172 426 427
3 114 94 8
3 173 94 114
3 173 41 94
3 428 173 429
3 174 430 432
3 430 173 431
3 430 431 432
3 174 41 173
3 174 172 41
3 433 172 434
3 435 434 174
3 433 434 435
3 437 436 172
