ply
format ascii 1.0
element vertex 99
property float x
property float y
property float z
element face 76
property list uchar int vertex_index
end_header
60.844772 -61.142776 -27.767229
58.12339 -59.702122 -29.793745
55.251045 -57.542637 -31.373102
57.427399 -68.172012 -25.778421
59.796234 -64.906029 -26.168062
58.509445 -64.410858 -27.309645
59.521057 -60.521782 -28.859426
57.116051 -63.716854 -28.269751
54.18042 -61.784637 -29.837252
60.940067 -65.20903 -24.8155
61.788498 -57.230988 -29.33359
55.659637 -62.834621 -29.095095
56.690308 -58.700676 -30.616758
56.749329 -67.892517 -26.289602
56.209456 -69.789154 -25.588985
57.290352 -66.01194 -27.055214
57.968422 -66.291435 -26.544033
56.749329 -67.892517 -26.289602
56.593655 -65.664938 -27.535267
57.812748 -64.063856 -27.789698
57.290352 -66.01194 -27.055214
59.792406 -66.873795 -24.685238
60.317108 -66.966995 -23.963747
61.450241 -61.353879 -27.124168
60.925972 -63.235506 -26.324585
60.320503 -63.024403 -26.967645
61.940551 -59.457323 -27.924898
61.450241 -61.353879 -27.124168
61.316635 -59.186882 -28.55041
62.412414 -57.501429 -28.708078
61.940551 -59.457323 -27.924898
59.291736 -58.09746 -30.104435
59.99057 -58.50729 -29.637276
58.822223 -60.111952 -29.326586
58.605398 -57.633099 -30.578781
59.291736 -58.09746 -30.104435
54.389717 -64.389966 -28.755871
55.139679 -64.850275 -28.378909
56.475166 -56.004526 -31.796277
57.194797 -56.583545 -31.418105
55.970676 -58.121657 -30.99493
56.852929 -69.999661 -25.031326
55.634985 -71.616803 -24.84189
56.209456 -69.789154 -25.588985
58.036072 -68.355286 -25.166699
56.852929 -69.999661 -25.031326
58.611817 -66.53902 -25.973242
59.220489 -66.722294 -25.361519
58.036072 -68.355286 -25.166699
52.89579 -63.326729 -29.475044
53.650109 -63.864975 -29.12695
53.443499 -61.186927 -30.188349
52.89579 -63.326729 -29.475044
53.978811 -59.065928 -30.956274
54.715733 -59.663637 -30.605177
53.443499 -61.186927 -30.188349
61.430193 -65.278751 -24.031199
60.317108 -66.966995 -23.963747
62.032018 -63.509935 -24.900371
62.522144 -63.579657 -24.11607
61.430193 -65.278751 -24.031199
60.36815 -65.05753 -25.491781
59.792406 -66.873795 -24.685238
59.220489 -66.722294 -25.361519
61.497889 -63.387006 -25.648304
60.36815 -65.05753 -25.491781
60.925972 -63.235506 -26.324585
62.032018 -63.509935 -24.900371
61.497889 -63.387006 -25.648304
62.836033 -55.524929 -29.471066
62.412414 -57.501429 -28.708078
62.208292 -55.1982 -30.097926
63.255827 -53.492142 -30.235401
62.836033 -55.524929 -29.471066
61.124291 -56.861893 -29.874358
60.654777 -58.876385 -29.096508
59.99057 -58.50729 -29.637276
62.208292 -55.1982 -30.097926
61.124291 -56.861893 -29.874358
55.867885 -65.291392 -27.966237
56.593655 -65.664938 -27.535267
56.387844 -63.275737 -28.682423
55.867885 -65.291392 -27.966237
55.139679 -64.850275 -28.378909
54.920029 -62.309629 -29.466174
54.389717 -64.389966 -28.755871
53.650109 -63.864975 -29.12695
57.888857 -57.132376 -30.990288
58.605398 -57.633099 -30.578781
57.406849 -59.201399 -30.205252
57.888857 -57.132376 -30.990288
57.194797 -56.583545 -31.418105
54.535683 -56.897812 -31.733838
53.978811 -59.065928 -30.956274
55.781052 -55.384947 -32.193627
54.535683 -56.897812 -31.733838
55.065689 -54.740122 -32.554364
56.475166 -56.004526 -31.796277
55.781052 -55.384947 -32.193627
3 13 3 14
3 15 5 16
3 17 16 3
3 15 16 17
3 18 7 19
3 20 19 5
3 18 19 20
3 21 9 22
3 0 23 25
3 25 24 4
3 23 24 25
3 0 26 27
3 0 28 30
3 28 10 29
3 28 29 30
3 1 31 33
3 33 32 6
3 31 32 33
3 1 34 35
3 36 11 37
3 2 12 8
3 2 38 40
3 40 39 12
3 38 39 40
3 3 41 43
3 41 42 43
3 3 44 45
3 3 46 48
3 46 4 47
3 46 47 48
3 5 4 3
3 5 0 4
3 5 6 0
3 7 6 5
3 7 1 6
3 49 8 50
3 51 8 52
3 53 2 54
3 55 54 8
3 53 54 55
3 9 56 57
3 9 58 60
3 58 59 60
3 4 61 63
3 61 9 62
3 61 62 63
3 64 9 65
3 66 65 4
3 64 65 66
3 68 67 9
3 10 69 70
3 10 71 73
3 71 72 73
3 6 10 0
3 74 10 75
3 76 75 6
3 74 75 76
3 78 77 10
3 79 7 80
3 11 81 83
3 81 7 82
3 81 82 83
3 11 1 7
3 8 84 86
3 84 11 85
3 84 85 86
3 12 11 8
3 12 1 11
3 12 87 89
3 89 88 1
3 87 88 89
3 91 90 12
3 92 2 93
3 94 2 95
3 94 95 96
3 98 97 2
