ply
format ascii 1.0
element vertex 252
property float x
property float y
property float z
element face 252
property list uchar int vertex_index
end_header
6.478184 -116.194283 21.28437
4.467888 -120.595085 -1.732639
0.994892 -109.714188 22.150612
2.215578 -110.527573 -0.653854
3.271881 -119.705025 10.213242
0.504147 -110.498337 9.934438
8.397411 -120.125687 15.205566
6.70495 -122.472626 10.023925
4.207327 -118.182709 16.0077
0.100344 -110.056145 15.915972
2.95381 -113.649841 22.209942
2.903324 -115.879265 -1.351109
6.285885 -123.951195 4.253069
3.574671 -120.582787 4.195117
1.360279 -114.69828 16.249866
1.181688 -115.557693 10.157408
1.990078 -116.045143 4.227386
1.524126 -110.806213 4.392855
7.298084 -118.179901 18.190746
6.159304 -119.364273 15.669941
5.188503 -117.244675 18.728922
9.662771 -118.686577 17.514202
5.565819 -122.614929 -1.801954
7.325418 -124.083466 -4.74901
6.014402 -122.29364 -4.697701
2.446497 -113.267746 -1.039286
3.173569 -115.453659 -3.939552
2.62483 -112.803551 -3.490126
4.832306 -121.285973 10.152919
6.338854 -123.336464 7.196893
4.66674 -121.976105 7.219231
4.791172 -122.443161 4.216763
3.297352 -120.240067 7.213628
1.761536 -111.831192 22.30661
1.976881 -114.194725 19.270283
0.959902 -112.164482 19.243093
0.168879 -110.27285 12.876438
0.445107 -112.81414 13.076459
0.666769 -113.110565 10.061674
1.512682 -115.864647 7.159228
1.098518 -113.348816 7.129273
1.618189 -113.487213 4.293205
0.999264 -110.693771 7.105012
2.215895 -107.683807 -0.213852
2.294422 -110.005745 -2.950329
7.397856 -121.392776 12.701983
5.328787 -120.405403 12.980656
3.566088 -119.009201 13.156673
0.366674 -109.869789 19.022907
0.201334 -107.373253 18.633293
0.083733 -107.454002 15.569869
4.541676 -115.118088 21.861588
3.579201 -118.3339 -1.582422
4.879831 -120.228584 -4.543024
3.929354 -117.936806 -4.290421
2.678513 -112.034508 -5.749233
6.49234 -124.289772 1.237905
5.125292 -122.661522 1.191267
4.002266 -120.707573 1.197783
3.397961 -115.904007 19.096224
2.595142 -116.612816 16.203505
2.150434 -117.243568 13.228168
0.525629 -112.492302 16.149469
1.106327 -115.158875 13.19822
2.05094 -117.776649 10.211599
2.244984 -118.182487 7.190253
2.641453 -118.42952 4.19626
3.124041 -118.48893 1.26047
2.489561 -116.06279 1.382415
2.099564 -113.477669 1.56463
1.95612 -110.773079 1.802267
1.210091 -107.952667 7.084181
1.705326 -108.045578 4.516973
2.060305 -107.982246 2.080703
7.590166 -116.522049 20.901547
7.253317 -115.60093 22.46488
6.888134 -117.187092 19.737558
8.000116 -117.514858 19.354734
7.590166 -116.522049 20.901547
2.203613 -107.382396 -1.279405
2.333165 -106.223202 0.015997
7.897633 -120.759231 13.953774
8.556873 -121.66896 12.513689
9.05665 -121.035416 13.76548
0.484648 -106.099861 19.908927
0.433525 -107.365738 20.198385
0.27458 -106.101924 15.352117
0.269362 -106.096569 16.838534
0.178644 -107.526409 14.091114
0.27458 -106.101924 15.352117
9.626194 -120.287373 14.920115
10.258874 -119.567818 16.074433
9.030091 -119.406132 16.359884
9.05665 -121.035416 13.76548
9.626194 -120.287373 14.920115
8.309094 -124.572239 -6.158083
7.551619 -123.806431 -6.155277
3.666771 -116.360042 -5.377054
3.244166 -115.098549 -5.139775
2.471776 -110.594296 -5.401387
2.486467 -111.020127 -4.349781
2.27973 -109.579914 -4.001935
7.492993 -123.376114 8.579553
7.77472 -122.851952 9.921941
7.162391 -124.504345 4.273721
7.188875 -124.196979 5.745633
6.31237 -123.64383 5.724981
7.189372 -124.743634 2.793762
7.162391 -124.504345 4.273721
6.389113 -124.120484 2.745487
7.2926 -124.912922 1.28618
7.189372 -124.743634 2.793762
1.209553 -106.483868 8.34398
0.949287 -107.867005 8.433027
1.930413 -106.644417 4.581533
1.713572 -106.609082 5.786476
2.107902 -106.612751 3.363398
1.882815 -108.013912 3.298838
1.930413 -106.644417 4.581533
2.235219 -106.55888 2.226876
2.107902 -106.612751 3.363398
5.644015 -120.95869 -5.984217
5.038447 -119.908805 -5.859043
9.18246 -117.768196 19.016463
10.403123 -117.879601 18.565224
8.480427 -118.433239 17.852474
9.18246 -117.768196 19.016463
8.000116 -117.514858 19.354734
6.445619 -123.349198 -3.275482
7.098257 -124.209794 -3.268471
6.218457 -123.475525 -1.794944
6.89611 -122.911518 -6.129622
7.551619 -123.806431 -6.155277
6.66991 -123.188553 -4.723356
2.969796 -113.773495 -4.915062
3.244166 -115.098549 -5.139775
2.899199 -114.128605 -3.714839
2.242876 -108.543365 -2.647644
2.255159 -108.844776 -1.582091
2.203613 -107.382396 -1.279405
2.27973 -109.579914 -4.001935
2.242876 -108.543365 -2.647644
8.121173 -122.312027 11.26097
8.556873 -121.66896 12.513689
7.051403 -121.932701 11.362954
7.77472 -122.851952 9.921941
8.121173 -122.312027 11.26097
0.516195 -108.614006 20.393192
0.680783 -109.791989 20.586759
0.830304 -108.536205 21.957045
0.284004 -108.621521 18.8281
0.516195 -108.614006 20.393192
0.433525 -107.365738 20.198385
0.328162 -106.056195 18.370246
0.484648 -106.099861 19.908927
0.142534 -107.413628 17.101581
0.328162 -106.056195 18.370246
0.269362 -106.096569 16.838534
0.221217 -108.935833 12.744398
0.126306 -108.863426 14.223154
0.178644 -107.526409 14.091114
0.38885 -109.048576 11.273398
0.336513 -110.385593 11.405438
0.221217 -108.935833 12.744398
0.596315 -109.139839 9.858156
0.38885 -109.048576 11.273398
10.93669 -118.722203 17.125687
11.677042 -117.915226 18.17671
10.403123 -117.879601 18.565224
10.93669 -118.722203 17.125687
10.258874 -119.567818 16.074433
8.065675 -124.812016 -4.716641
7.098257 -124.209794 -3.268471
8.065675 -124.812016 -4.716641
8.309094 -124.572239 -6.158083
5.264619 -114.674999 23.15975
5.50993 -115.656185 21.572979
6.232873 -115.213097 22.871141
4.402418 -114.079785 23.439509
5.264619 -114.674999 23.15975
3.608486 -113.345661 23.613686
3.747743 -114.383964 22.035765
4.402418 -114.079785 23.439509
2.933361 -112.560215 23.746551
3.608486 -113.345661 23.613686
2.337224 -111.650891 23.794885
2.357673 -112.740516 22.258276
2.933361 -112.560215 23.746551
1.869696 -110.698848 23.773781
2.337224 -111.650891 23.794885
1.486374 -109.640346 23.695782
1.378214 -110.77269 22.228611
1.869696 -110.698848 23.773781
1.236799 -108.549836 23.528236
1.486374 -109.640346 23.695782
0.830304 -108.536205 21.957045
1.236799 -108.549836 23.528236
6.232873 -115.213097 22.871141
7.253317 -115.60093 22.46488
4.563209 -118.762917 -5.732741
5.038447 -119.908805 -5.859043
4.404592 -119.082695 -4.416723
4.044664 -117.601616 -5.552488
3.551462 -116.695233 -4.114987
3.666771 -116.360042 -5.377054
4.563209 -118.762917 -5.732741
4.044664 -117.601616 -5.552488
2.996638 -113.388973 -6.044615
2.969796 -113.773495 -4.915062
2.651671 -112.419029 -4.61968
2.700267 -111.477058 -6.762225
2.471776 -110.594296 -5.401387
3.046519 -112.87164 -7.127206
2.700267 -111.477058 -6.762225
2.996638 -113.388973 -6.044615
3.046519 -112.87164 -7.127206
7.309945 -123.808033 7.166037
7.492993 -123.376114 8.579553
6.521902 -122.904545 8.610409
7.309945 -123.808033 7.166037
7.188875 -124.196979 5.745633
7.435147 -124.994411 -0.223693
7.2926 -124.912922 1.28618
6.681718 -124.312947 -0.275014
7.435147 -124.994411 -0.223693
5.998194 -123.498822 -0.298333
6.681718 -124.312947 -0.275014
5.808816 -123.475647 1.214586
5.345555 -122.638226 -0.305343
6.218457 -123.475525 -1.794944
5.998194 -123.498822 -0.298333
0.843873 -109.237556 8.443443
0.751706 -110.596054 8.519725
0.596315 -109.139839 9.858156
1.104677 -109.323219 7.094596
0.843873 -109.237556 8.443443
0.949287 -107.867005 8.433027
1.465954 -106.562626 7.07008
1.209553 -106.483868 8.34398
1.457708 -107.999122 5.800577
1.465954 -106.562626 7.07008
1.713572 -106.609082 5.786476
2.313014 -106.40966 1.079598
2.1381 -107.833027 0.933426
2.235219 -106.55888 2.226876
2.333165 -106.223202 0.015997
2.313014 -106.40966 1.079598
6.211301 -121.991219 -6.061555
5.447116 -121.261112 -4.620363
5.644015 -120.95869 -5.984217
6.89611 -122.911518 -6.129622
6.211301 -121.991219 -6.061555
3 0 20 18
3 0 74 75
3 0 76 78
3 76 18 77
3 76 77 78
3 1 24 22
3 3 27 25
3 4 30 28
3 4 32 30
3 2 35 33
3 5 38 36
3 5 40 38
3 5 42 40
3 80 79 43
3 6 81 83
3 81 45 82
3 81 82 83
3 8 46 19
3 8 47 46
3 84 49 85
3 86 50 87
3 89 88 50
3 6 90 92
3 92 91 21
3 90 91 92
3 6 93 94
3 96 95 23
3 11 54 52
3 98 97 26
3 99 55 100
3 101 100 44
3 99 100 101
3 7 102 103
3 12 104 106
3 106 105 29
3 104 105 106
3 12 107 108
3 12 109 111
3 109 56 110
3 109 110 111
3 13 57 31
3 13 58 57
3 10 59 51
3 14 60 34
3 14 61 60
3 9 62 48
3 15 63 37
3 15 64 63
3 15 65 64
3 16 66 39
3 16 67 66
3 16 68 67
3 17 69 41
3 17 70 69
3 112 71 113
3 114 72 115
3 116 73 117
3 118 117 72
3 116 117 118
3 120 119 73
3 122 121 53
3 18 19 6
3 20 19 18
3 20 8 19
3 123 21 124
3 18 125 127
3 125 21 126
3 125 126 127
3 18 6 21
3 22 128 130
3 128 23 129
3 128 129 130
3 24 23 22
3 24 131 133
3 133 132 23
3 131 132 133
3 25 26 11
3 27 26 25
3 27 134 136
3 136 135 26
3 134 135 136
3 28 29 7
3 30 29 28
3 30 12 29
3 30 31 12
3 32 31 30
3 32 13 31
3 33 34 10
3 35 34 33
3 35 14 34
3 36 37 9
3 38 37 36
3 38 15 37
3 38 39 15
3 40 39 38
3 40 16 39
3 40 41 16
3 42 41 40
3 42 17 41
3 43 44 3
3 137 44 138
3 139 138 43
3 137 138 139
3 141 140 44
3 45 142 143
3 45 144 146
3 144 7 145
3 144 145 146
3 19 45 6
3 46 45 19
3 46 7 45
3 46 28 7
3 47 28 46
3 47 4 28
3 147 48 148
3 149 148 2
3 147 148 149
3 49 150 152
3 150 48 151
3 150 151 152
3 49 9 48
3 153 49 154
3 50 155 157
3 155 49 156
3 155 156 157
3 50 9 49
3 50 36 9
3 158 36 159
3 160 159 50
3 158 159 160
3 161 5 162
3 163 162 36
3 161 162 163
3 165 164 5
3 21 166 168
3 166 167 168
3 170 169 21
3 23 171 172
3 174 173 23
3 175 51 176
3 177 176 0
3 175 176 177
3 178 51 179
3 180 10 181
3 182 181 51
3 180 181 182
3 183 10 184
3 185 33 186
3 187 186 10
3 185 186 187
3 188 33 189
3 190 2 191
3 192 191 33
3 190 191 192
3 193 2 194
3 196 195 2
3 197 0 198
3 52 53 1
3 54 53 52
3 54 199 201
3 201 200 53
3 199 200 201
3 26 54 11
3 202 54 203
3 204 203 26
3 202 203 204
3 206 205 54
3 44 27 3
3 55 27 44
3 55 207 209
3 209 208 27
3 207 208 209
3 210 55 211
3 212 55 213
3 215 214 55
3 29 216 218
3 218 217 7
3 216 217 218
3 220 219 29
3 56 221 222
3 56 223 224
3 31 56 12
3 57 56 31
3 57 225 227
3 227 226 56
3 225 226 227
3 57 228 230
3 228 22 229
3 228 229 230
3 58 22 57
3 58 1 22
3 51 20 0
3 59 20 51
3 59 8 20
3 34 59 10
3 60 59 34
3 60 8 59
3 60 47 8
3 61 47 60
3 61 4 47
3 48 35 2
3 62 35 48
3 62 14 35
3 37 62 9
3 63 62 37
3 63 14 62
3 63 61 14
3 64 61 63
3 64 4 61
3 64 32 4
3 65 32 64
3 65 13 32
3 39 65 15
3 66 65 39
3 66 13 65
3 66 58 13
3 67 58 66
3 67 1 58
3 67 52 1
3 68 52 67
3 68 11 52
3 41 68 16
3 69 68 41
3 69 11 68
3 69 25 11
3 70 25 69
3 70 3 25
3 231 42 232
3 233 232 5
3 231 232 233
3 71 234 236
3 234 42 235
3 234 235 236
3 71 17 42
3 237 71 238
3 72 239 241
3 239 71 240
3 239 240 241
3 72 17 71
3 72 70 17
3 73 70 72
3 73 3 70
3 73 43 3
3 242 43 243
3 244 243 73
3 242 243 244
3 246 245 43
3 53 24 1
3 247 24 248
3 249 248 53
3 247 248 249
3 251 250 24
