ply
format ascii 1.0
element vertex 410
property float x
property float y
property float z
element face 436
property list uchar int vertex_index
end_header
26.127491 -37.882099 79.369202
7.276403 -39.232185 87.989426
28.321741 -43.456738 75.62883
20.623325 -44.430649 81.431229
0.329411 -39.221603 89.858299
5.003653 -47.254166 90.485321
22.424137 -32.624474 76.771568
16.384811 -38.399025 83.443306
12.452198 -45.740738 86.873161
27.473053 -40.581276 78.395256
24.59152 -43.941124 78.654922
23.071331 -40.878899 80.869461
-0.048866 -43.291653 89.421875
30.916691 -37.584888 77.27697
17.581911 -32.681232 79.138184
11.681091 -38.806812 85.741203
14.099585 -41.721596 85.72065
9.753593 -42.361477 88.117363
29.164598 -46.438511 72.148979
26.175505 -47.167068 75.650917
22.767311 -47.89254 78.712585
19.069284 -48.675446 81.545082
3.39744 -39.459644 89.596306
5.741959 -43.015503 89.964981
2.365828 -43.419659 90.572456
2.259863 -47.585098 90.074715
24.238029 -35.313622 78.390625
21.236736 -38.101711 81.343246
19.188843 -35.494217 80.270432
14.301031 -35.69104 82.516678
9.697006 -35.835228 85.070488
27.389969 -32.467865 74.850685
18.577988 -41.227303 83.261803
16.541794 -45.018311 84.167046
8.516542 -46.546989 89.201897
26.881624 -39.207939 79.151115
25.292309 -40.732937 79.658226
24.553146 -39.330818 80.262817
28.546789 -37.75705 78.355904
29.166012 -39.06105 77.978035
19.272837 -29.455557 77.812523
9.429066 -39.028198 86.901794
10.627853 -40.511208 87.070427
8.45997 -40.797413 88.176071
28.712738 -44.939354 73.90947
27.729721 -46.808151 73.96608
27.080193 -45.249031 75.601524
22.628189 -44.178223 80.058792
23.534988 -45.839645 78.672279
21.658875 -46.145138 80.109016
20.946453 -48.274559 80.143944
19.7351 -46.469574 81.51799
1.743849 -39.41362 89.932739
2.747295 -41.407906 90.255859
1.236917 -41.408066 90.251717
1.055355 -45.482201 89.85891
29.858852 -41.773479 75.651962
23.265629 -34.005203 77.539459
21.700129 -35.402733 79.292023
20.753967 -34.076252 78.515686
15.858736 -34.192505 80.798576
13.503807 -34.222866 82.106544
11.954687 -35.778481 83.772316
11.231539 -34.213116 83.493111
24.197025 -31.108351 75.130348
24.898573 -32.562931 75.76368
25.801462 -33.919346 76.65036
18.799332 -38.235703 82.367119
19.846668 -39.597401 82.440338
17.497845 -39.772419 83.559982
13.193846 -43.63736 86.440025
15.3242 -43.312752 85.136169
14.490082 -45.363171 85.536087
15.799628 -47.194614 84.320045
13.818329 -47.596634 85.703918
5.288498 -45.082809 90.423615
7.106737 -44.747978 89.776505
6.686399 -46.929428 90.020737
27.932449 -42.000477 77.175598
26.496252 -43.706024 77.18895
25.922247 -42.195232 78.592072
23.852737 -42.378799 79.934662
21.744152 -42.569702 81.236862
-0.013865 -41.255096 89.799248
33.205864 -37.335327 76.096657
31.37825 -38.862297 76.707626
29.589426 -40.400299 77.045212
21.818264 -31.135448 76.315659
19.980629 -32.664013 77.892929
19.47057 -31.129374 77.623329
17.168598 -31.082672 79.05217
14.006601 -38.591888 84.574165
15.168248 -39.985161 84.71608
12.872063 -40.234451 85.897636
11.899948 -42.028015 86.949196
11.095837 -43.996239 87.695511
27.100163 -48.788536 74.165138
25.348011 -45.544682 77.179802
24.515867 -47.525555 77.224396
5.254108 -39.387711 88.918884
6.399061 -41.065872 89.135803
4.48147 -41.281998 89.858994
3.953123 -43.268112 90.465103
3.645273 -45.340858 90.690918
1.020853 -43.435642 90.231918
2.221357 -45.48436 90.513428
3.513821 -47.484035 90.518761
3.495922 -49.674194 89.960327
25.225338 -36.592873 79.072311
23.684353 -37.989143 80.353493
22.710352 -36.691383 79.979279
20.20734 -36.796509 80.927254
17.730053 -36.918934 81.940712
18.280376 -34.139774 79.599052
16.717743 -35.592041 81.344025
15.291819 -37.060387 83.031967
12.907627 -37.214493 84.195648
10.595459 -37.367325 85.403702
8.376982 -37.497765 86.603043
7.548897 -35.836792 86.345467
6.277842 -37.5783 87.717285
4.32757 -37.577309 88.653954
2.558781 -37.46294 89.316086
1.005121 -37.208076 89.616859
26.787699 -35.212494 77.539215
22.20269 -39.45433 81.348763
20.82863 -41.038826 82.061974
19.611927 -42.782639 82.527641
16.330885 -41.453667 84.482712
17.46814 -43.028221 83.82621
18.590538 -44.708443 82.796608
17.777386 -46.818535 82.919624
7.689091 -42.700844 89.152
9.055773 -44.37468 88.836082
10.45097 -46.141518 88.121628
8.099384 -48.855499 89.210632
9.936916 -48.445061 88.227898
11.854837 -48.018055 87.029381
27.33714 -37.819575 78.862553
28.14118 -37.118977 78.265255
26.931531 -37.181501 78.771904
29.183747 -43.316168 74.787128
29.952303 -42.474539 74.798694
29.090297 -42.615109 75.640396
28.51724 -44.198046 74.76915
29.379246 -44.057476 73.927448
29.183747 -43.316168 74.787128
13.24021 -33.412569 82.038059
14.373059 -33.44453 81.30547
12.104076 -33.407694 82.731342
12.367673 -34.217991 82.799827
13.24021 -33.412569 82.038059
31.782228 -36.842599 76.770901
30.567893 -36.956144 77.263924
32.061278 -37.460107 76.686813
32.926815 -36.717819 76.180745
31.782228 -36.842599 76.770901
20.493075 -30.323842 76.971428
20.644417 -31.132411 76.969494
21.666922 -30.32688 76.317593
17.119657 -30.207327 79.226715
18.220717 -30.269115 78.432346
18.171777 -29.393769 78.606891
16.047859 -31.031422 79.818707
17.119657 -30.207327 79.226715
21.666922 -30.32688 76.317593
22.800685 -30.334532 75.62598
28.818013 -47.403914 72.260059
29.435473 -47.192043 71.289428
25.886822 -48.188643 75.736805
26.349151 -48.999376 74.993915
26.637834 -47.977802 74.908028
23.372585 -48.766758 78.037415
24.246863 -48.583265 77.29332
23.641589 -47.709047 77.968491
22.511387 -48.989099 78.760525
23.372585 -48.766758 78.037415
19.759036 -49.610989 80.867485
20.69762 -49.410545 80.166916
20.007869 -48.475003 80.844513
18.823107 -49.849226 81.539539
19.759036 -49.610989 80.867485
29.818615 -46.243444 71.167793
29.696787 -45.520144 72.115097
29.435473 -47.192043 71.289428
29.818615 -46.243444 71.167793
6.541538 -35.795908 86.927872
7.277315 -34.908968 86.301861
5.90601 -36.666662 87.613781
6.913369 -36.707546 87.031376
6.541538 -35.795908 86.927872
4.930874 -36.666167 88.082116
5.302706 -37.577804 88.18562
5.90601 -36.666662 87.613781
2.286797 -36.346285 89.216106
3.119254 -36.512011 88.891125
1.509966 -36.218853 89.366493
1.781951 -37.335508 89.466473
2.286797 -36.346285 89.216106
28.19149 -31.698019 73.967823
26.991481 -31.756225 74.454555
28.636528 -32.391936 74.429966
28.19149 -31.698019 73.967823
27.86795 -33.133862 75.336357
28.636528 -32.391936 74.429966
16.475808 -48.145456 83.627174
15.506126 -48.364878 84.316788
7.925574 -50.059694 89.043442
7.241391 -49.037615 89.545944
10.648412 -49.441365 87.575947
9.721716 -49.658485 88.127537
11.607373 -49.227862 86.976688
10.895876 -48.231558 87.628639
10.648412 -49.441365 87.575947
12.56389 -49.002054 86.344879
11.607373 -49.227862 86.976688
29.382942 -37.042225 77.803391
28.14118 -37.118977 78.265255
29.73174 -37.670969 77.816437
30.567893 -36.956144 77.263924
29.382942 -37.042225 77.803391
20.400742 -28.614748 77.312939
20.394209 -29.486934 77.066025
19.326715 -28.551838 78.128715
20.400742 -28.614748 77.312939
18.171777 -29.393769 78.606891
19.326715 -28.551838 78.128715
0.614729 -45.398735 89.295727
0.503244 -44.386927 89.640392
0.062619 -44.303461 89.07721
1.165303 -46.507609 89.502006
0.614729 -45.398735 89.295727
1.767557 -47.559057 89.609909
1.657609 -46.53365 89.966813
1.165303 -46.507609 89.502006
2.334139 -48.644617 89.677235
1.767557 -47.559057 89.609909
30.767149 -41.633392 74.822105
30.735876 -40.96929 75.613327
30.767149 -41.633392 74.822105
29.952303 -42.474539 74.798694
29.470857 -44.770565 72.995342
29.379246 -44.057476 73.927448
28.938668 -45.688932 73.029224
29.696787 -45.520144 72.115097
29.470857 -44.770565 72.995342
15.550524 -33.42935 80.651486
16.720323 -33.436869 79.96838
16.412111 -32.673714 79.82129
14.681272 -34.207685 81.45256
15.550524 -33.42935 80.651486
14.373059 -33.44453 81.30547
25.395009 -31.076468 74.594387
25.128635 -30.307032 74.397476
25.745783 -31.803759 74.911053
25.395009 -31.076468 74.594387
24.547799 -31.835641 75.447014
26.144271 -32.515398 75.307182
26.991481 -31.756225 74.454555
25.745783 -31.803759 74.911053
14.515477 -48.565888 85.008724
15.506126 -48.364878 84.316788
14.808979 -47.395624 85.011981
-0.414878 -40.06084 89.566277
0.157773 -40.238349 89.828774
-0.24324 -39.044094 89.595802
-0.496412 -41.094671 89.342373
-0.414878 -40.06084 89.566277
-0.513912 -42.112949 89.153686
-0.031365 -42.273375 89.610562
-0.496412 -41.094671 89.342373
-0.436287 -43.134092 88.789417
-0.513912 -42.112949 89.153686
0.062619 -44.303461 89.07721
-0.436287 -43.134092 88.789417
34.097021 -36.552654 75.638786
32.926815 -36.717819 76.180745
34.292806 -37.159202 75.439686
34.097021 -36.552654 75.638786
33.346063 -37.960148 75.701897
34.292806 -37.159202 75.439686
32.432257 -38.723633 76.007382
33.346063 -37.960148 75.701897
32.292057 -38.098812 76.402141
31.495575 -39.513699 76.141159
32.432257 -38.723633 76.007382
30.601163 -40.282699 76.309952
31.495575 -39.513699 76.141159
30.483838 -39.631298 76.876419
29.724139 -41.086889 76.348587
30.735876 -40.96929 75.613327
30.601163 -40.282699 76.309952
19.371703 -30.292465 77.717926
20.493075 -30.323842 76.971428
20.394209 -29.486934 77.066025
16.205455 -31.874434 79.778283
16.412111 -32.673714 79.82129
17.375255 -31.881952 79.095177
16.205455 -31.874434 79.778283
16.047859 -31.031422 79.818707
23.990066 -30.320983 75.033325
25.128635 -30.307032 74.397476
23.007644 -31.121899 75.723004
23.990066 -30.320983 75.033325
22.800685 -30.334532 75.62598
5.693525 -48.236948 90.183289
4.918789 -48.378986 90.318783
28.100575 -47.588734 73.16861
28.818013 -47.403914 72.260059
28.44716 -46.623331 73.05753
27.785795 -48.578926 73.268139
28.100575 -47.588734 73.16861
27.414942 -47.798344 74.065609
27.604723 -49.590653 73.461113
27.785795 -48.578926 73.268139
26.935727 -49.830742 74.338256
27.604723 -49.590653 73.461113
26.935727 -49.830742 74.338256
26.349151 -48.999376 74.993915
25.057003 -48.367886 76.523544
25.886822 -48.188643 75.736805
25.345686 -47.346311 76.437657
25.057003 -48.367886 76.523544
24.246863 -48.583265 77.29332
21.600958 -49.180109 79.476204
22.511387 -48.989099 78.760525
21.856882 -48.08355 79.428265
21.600958 -49.180109 79.476204
20.69762 -49.410545 80.166916
4.173873 -48.493921 90.335503
4.918789 -48.378986 90.318783
4.258737 -47.369101 90.502041
4.164924 -49.589 90.056286
4.173873 -48.493921 90.335503
3.504872 -48.579115 90.239544
4.105046 -50.737448 89.705296
4.164924 -49.589 90.056286
2.952168 -49.689165 89.620041
2.877893 -48.629646 90.017521
2.334139 -48.644617 89.677235
3.507429 -50.780838 89.505242
2.952168 -49.689165 89.620041
4.105046 -50.737448 89.705296
3.507429 -50.780838 89.505242
11.015692 -33.340893 83.490704
12.104076 -33.407694 82.731342
10.145367 -34.177038 84.198182
11.015692 -33.340893 83.490704
9.378101 -34.988095 84.98687
10.464272 -35.024172 84.2818
10.145367 -34.177038 84.198182
8.304046 -34.988877 85.624359
7.277315 -34.908968 86.301861
8.622951 -35.83601 85.707977
9.378101 -34.988095 84.98687
8.304046 -34.988877 85.624359
4.003648 -36.569195 88.560059
4.930874 -36.666167 88.082116
3.443175 -37.520125 88.98502
4.003648 -36.569195 88.560059
3.119254 -36.512011 88.891125
0.787094 -35.975689 89.498233
1.509966 -36.218853 89.366493
0.351429 -37.00159 89.555038
0.787094 -35.975689 89.498233
0.013574 -38.008354 89.675758
0.667266 -38.214839 89.737579
0.351429 -37.00159 89.555038
-0.24324 -39.044094 89.595802
0.013574 -38.008354 89.675758
27.073697 -33.859602 76.236195
27.86795 -33.133862 75.336357
26.595716 -33.193606 75.750523
27.566816 -34.506176 76.680622
27.073697 -33.859602 76.236195
26.294581 -34.56592 77.094787
28.059241 -35.143635 77.122513
27.566816 -34.506176 76.680622
27.261635 -35.846699 77.85691
28.059241 -35.143635 77.122513
26.480455 -36.536889 78.623458
27.261635 -35.846699 77.85691
26.006518 -35.902683 78.305763
25.676414 -37.237486 79.220756
26.931531 -37.181501 78.771904
26.480455 -36.536889 78.623458
17.464688 -47.957416 82.926963
16.788507 -47.006574 83.619834
16.475808 -48.145456 83.627174
18.110636 -48.885872 82.239692
18.423335 -47.74699 82.232353
17.464688 -47.957416 82.926963
18.823107 -49.849226 81.539539
18.110636 -48.885872 82.239692
6.534898 -48.074579 89.950997
5.845026 -47.091797 90.253029
5.693525 -48.236948 90.183289
7.392892 -47.892464 89.615685
6.534898 -48.074579 89.950997
7.241391 -49.037615 89.545944
8.80295 -49.863704 88.618904
7.925574 -50.059694 89.043442
9.01815 -48.65028 88.719265
8.80295 -49.863704 88.618904
9.721716 -49.658485 88.127537
13.545636 -48.791343 85.682148
12.836583 -47.807344 86.366649
12.56389 -49.002054 86.344879
14.515477 -48.565888 85.008724
13.545636 -48.791343 85.682148
3 0 37 35
3 0 138 140
3 138 38 139
3 138 139 140
3 0 35 38
3 1 43 41
3 2 46 44
3 3 49 47
3 3 51 49
3 4 54 52
3 2 141 143
3 143 142 56
3 141 142 143
3 2 144 146
3 144 44 145
3 144 145 146
3 6 59 57
3 147 61 148
3 149 63 150
3 151 150 61
3 149 150 151
3 6 65 64
3 6 57 65
3 7 69 67
3 8 72 70
3 8 74 72
3 5 77 75
3 9 80 78
3 11 81 36
3 11 82 81
3 13 152 153
3 13 154 156
3 154 84 155
3 154 155 156
3 13 85 84
3 9 86 39
3 9 78 86
3 157 89 158
3 159 158 87
3 157 158 159
3 160 90 161
3 162 161 40
3 160 161 162
3 164 163 90
3 165 87 166
3 15 93 91
3 17 94 42
3 17 95 94
3 18 167 168
3 19 96 45
3 19 169 171
3 171 170 96
3 169 170 171
3 10 97 79
3 20 98 48
3 20 172 174
3 174 173 98
3 172 173 174
3 20 175 176
3 21 177 179
3 179 178 50
3 177 178 179
3 21 180 181
3 22 101 99
3 24 102 53
3 24 103 102
3 12 104 83
3 25 105 55
3 25 106 105
3 25 107 106
3 18 182 183
3 18 184 185
3 26 110 108
3 28 111 58
3 28 112 111
3 14 113 88
3 29 114 60
3 29 115 114
3 29 116 115
3 30 117 62
3 30 118 117
3 186 119 187
3 188 120 189
3 190 189 119
3 188 189 190
3 191 121 192
3 193 192 120
3 191 192 193
3 194 122 195
3 196 123 197
3 198 197 122
3 196 197 198
3 31 199 200
3 31 201 202
3 31 203 204
3 26 124 66
3 26 108 124
3 27 125 109
3 32 126 68
3 32 127 126
3 16 128 92
3 33 129 71
3 33 130 129
3 33 131 130
3 206 205 73
3 23 132 100
3 34 133 76
3 34 134 133
3 207 135 208
3 209 136 210
3 211 137 212
3 213 212 136
3 211 212 213
3 215 214 137
3 35 36 9
3 37 36 35
3 37 11 36
3 38 216 217
3 38 218 220
3 218 13 219
3 218 219 220
3 38 39 13
3 35 39 38
3 35 9 39
3 221 40 222
3 223 40 224
3 226 225 40
3 41 42 15
3 43 42 41
3 43 17 42
3 44 45 18
3 46 45 44
3 46 19 45
3 47 48 10
3 49 48 47
3 49 20 48
3 49 50 20
3 51 50 49
3 51 21 50
3 52 53 22
3 54 53 52
3 54 24 53
3 227 55 228
3 229 228 12
3 227 228 229
3 230 55 231
3 232 25 233
3 234 233 55
3 232 233 234
3 236 235 25
3 56 237 238
3 240 239 56
3 44 241 242
3 44 243 245
3 243 18 244
3 243 244 245
3 57 58 26
3 59 58 57
3 59 28 58
3 246 60 247
3 248 247 14
3 246 247 248
3 61 249 251
3 249 60 250
3 249 250 251
3 61 29 60
3 61 62 29
3 63 62 61
3 63 30 62
3 64 252 253
3 65 254 256
3 256 255 64
3 254 255 256
3 65 257 259
3 257 31 258
3 257 258 259
3 65 66 31
3 57 66 65
3 57 26 66
3 67 68 27
3 69 68 67
3 69 32 68
3 70 71 16
3 72 71 70
3 72 33 71
3 72 73 33
3 74 73 72
3 74 260 262
3 262 261 73
3 260 261 262
3 75 76 23
3 77 76 75
3 77 34 76
3 78 79 2
3 80 79 78
3 80 10 79
3 36 80 9
3 81 80 36
3 81 10 80
3 81 47 10
3 82 47 81
3 82 3 47
3 263 83 264
3 265 264 4
3 263 264 265
3 266 83 267
3 268 12 269
3 270 269 83
3 268 269 270
3 271 12 272
3 274 273 12
3 84 275 276
3 84 277 278
3 84 279 280
3 85 281 283
3 283 282 84
3 281 282 283
3 85 284 285
3 39 85 13
3 86 85 39
3 86 286 288
3 288 287 85
3 286 287 288
3 86 289 291
3 289 56 290
3 289 290 291
3 78 56 86
3 78 2 56
3 87 88 6
3 89 88 87
3 89 14 88
3 40 292 294
3 292 89 293
3 292 293 294
3 90 89 40
3 90 14 89
3 90 295 297
3 297 296 14
3 295 296 297
3 299 298 90
3 300 64 301
3 87 302 304
3 302 64 303
3 302 303 304
3 87 6 64
3 91 92 7
3 93 92 91
3 93 16 92
3 42 93 15
3 94 93 42
3 94 16 93
3 94 70 16
3 95 70 94
3 95 8 70
3 306 305 5
3 45 307 309
3 309 308 18
3 307 308 309
3 96 310 312
3 312 311 45
3 310 311 312
3 96 313 314
3 96 315 316
3 318 317 96
3 79 46 2
3 97 46 79
3 97 19 46
3 48 97 10
3 98 97 48
3 98 19 97
3 98 319 321
3 321 320 19
3 319 320 321
3 323 322 98
3 50 324 326
3 326 325 20
3 324 325 326
3 328 327 50
3 99 100 1
3 101 100 99
3 101 23 100
3 53 101 22
3 102 101 53
3 102 23 101
3 102 75 23
3 103 75 102
3 103 5 75
3 83 54 4
3 104 54 83
3 104 24 54
3 55 104 12
3 105 104 55
3 105 24 104
3 105 103 24
3 106 103 105
3 106 5 103
3 106 329 331
3 331 330 5
3 329 330 331
3 107 332 334
3 334 333 106
3 332 333 334
3 107 335 336
3 337 107 338
3 339 338 25
3 337 338 339
3 340 107 341
3 343 342 107
3 108 109 0
3 110 109 108
3 110 27 109
3 58 110 26
3 111 110 58
3 111 27 110
3 111 67 27
3 112 67 111
3 112 7 67
3 88 59 6
3 113 59 88
3 113 28 59
3 60 113 14
3 114 113 60
3 114 28 113
3 114 112 28
3 115 112 114
3 115 7 112
3 115 91 7
3 116 91 115
3 116 15 91
3 62 116 29
3 117 116 62
3 117 15 116
3 117 41 15
3 118 41 117
3 118 1 41
3 344 63 345
3 346 63 347
3 348 30 349
3 350 349 63
3 348 349 350
3 119 351 352
3 119 353 355
3 353 30 354
3 353 354 355
3 119 118 30
3 120 118 119
3 120 1 118
3 120 99 1
3 121 99 120
3 121 22 99
3 356 121 357
3 122 358 360
3 358 121 359
3 358 359 360
3 122 22 121
3 122 52 22
3 123 52 122
3 123 4 52
3 361 123 362
3 363 123 364
3 365 4 366
3 367 366 123
3 365 366 367
3 369 368 4
3 66 370 372
3 372 371 31
3 370 371 372
3 124 373 375
3 375 374 66
3 373 374 375
3 124 376 377
3 124 378 379
3 108 380 382
3 382 381 124
3 380 381 382
3 108 383 385
3 383 0 384
3 383 384 385
3 109 37 0
3 125 37 109
3 125 11 37
3 68 125 27
3 126 125 68
3 126 11 125
3 126 82 11
3 127 82 126
3 127 3 82
3 92 69 7
3 128 69 92
3 128 32 69
3 71 128 16
3 129 128 71
3 129 32 128
3 129 127 32
3 130 127 129
3 130 3 127
3 130 51 3
3 131 51 130
3 131 21 51
3 73 131 33
3 386 131 387
3 388 387 73
3 386 387 388
3 389 21 390
3 391 390 131
3 389 390 391
3 393 392 21
3 100 43 1
3 132 43 100
3 132 17 43
3 76 132 23
3 133 132 76
3 133 17 132
3 133 95 17
3 134 95 133
3 134 8 95
3 394 77 395
3 396 395 5
3 394 395 396
3 135 397 399
3 397 77 398
3 397 398 399
3 135 34 77
3 400 135 401
3 136 402 404
3 402 135 403
3 402 403 404
3 136 34 135
3 136 134 34
3 137 134 136
3 137 8 134
3 137 74 8
3 405 74 406
3 407 406 137
3 405 406 407
3 409 408 74
