ply
format ascii 1.0
element vertex 575
property float x
property float y
property float z
element face 606
property list uchar int vertex_index
end_header
69.877029 -9.418596 30.266304
52.091652 -19.008293 56.872948
54.099701 -13.066685 47.26701
46.452023 -14.676192 52.602982
32.360081 -32.076004 73.212608
41.651611 -29.761972 69.822632
35.379749 -36.983078 74.782715
65.229988 -6.698997 33.957001
61.456291 -12.492791 42.893238
58.328865 -18.218994 51.321281
44.519409 -21.862654 61.553848
68.987556 -2.326021 25.565765
29.330784 -35.074776 76.705811
34.296852 -34.562057 74.954056
61.710403 -6.153815 36.267662
63.219818 -9.549216 38.402786
59.599289 -9.421154 40.547737
52.99865 -16.057346 52.064995
56.680897 -15.455918 49.723038
55.470444 -18.28964 54.196777
53.917336 -21.361418 58.067551
45.60807 -27.928055 67.509773
64.079971 -2.947977 32.227051
69.844948 -1.085993 21.697767
55.759415 -9.772485 42.852219
50.155891 -13.840148 49.710983
49.081669 -17.02603 54.428528
35.03772 -28.657616 69.518356
39.346733 -27.46789 67.772949
37.178192 -31.211039 71.629646
38.889961 -33.557648 72.852562
68.155853 -7.891078 31.894928
68.620956 -11.495734 33.741329
66.325073 -10.276974 36.187469
64.454025 -13.045429 40.52774
57.951881 -12.546091 45.072647
59.902653 -15.376598 47.275612
43.29715 -15.474652 56.030495
45.287613 -18.206722 56.962059
48.347851 -20.268467 59.305489
43.477024 -25.765564 65.956062
47.361847 -23.895676 63.811035
50.885963 -22.311752 61.173759
67.284409 -4.212481 29.667625
69.714226 -6.351835 27.852922
70.681694 -5.640094 23.92355
70.35463 -9.438058 28.865263
70.01255 -10.839113 30.507259
27.735571 -36.480904 78.174606
30.219095 -36.3274 77.250877
59.877197 -6.105158 37.543381
60.602875 -7.794695 38.375408
58.720901 -7.847017 39.558609
52.550934 -17.512667 54.499252
54.377048 -17.123177 53.271843
53.841446 -18.572556 55.564995
54.760918 -19.774834 56.234444
53.223213 -20.098703 57.716934
61.118229 -4.350797 35.606266
49.100342 -12.521448 49.018333
48.252373 -14.258938 51.092056
49.543869 -15.450846 52.018539
47.615788 -15.938371 53.322868
33.751923 -30.426067 71.354355
36.081745 -29.981159 70.547829
34.799797 -31.715652 72.430641
34.988178 -35.769981 75.180916
36.656994 -34.128708 73.964294
37.204872 -35.316303 73.966263
66.801094 -7.217981 32.894905
67.259415 -9.009179 34.014824
65.823921 -8.479 35.091263
62.303978 -11.0225 40.650978
63.920052 -11.25169 39.540951
63.025406 -12.690048 41.743416
63.539688 -14.477184 42.630035
62.166283 -14.131823 43.90028
54.846786 -11.463203 44.998749
56.801228 -11.191536 43.864285
56.055603 -12.76075 46.153305
57.680912 -16.751846 50.702782
58.355545 -15.342672 48.518326
59.13736 -16.794682 49.358963
60.473129 -16.997902 47.98114
43.091221 -20.738636 60.481239
43.539734 -18.828226 58.329704
44.895638 -20.005196 59.2565
46.777252 -19.287033 58.061226
46.427422 -21.04141 60.445419
40.56205 -28.636909 68.894775
41.437443 -26.664696 66.890205
42.680538 -27.770208 67.975349
47.359352 -27.003759 66.104446
46.603264 -25.875124 65.781273
48.383499 -24.969212 64.462479
49.177891 -23.042046 62.557503
50.029877 -24.170927 62.988708
51.535759 -23.528503 61.374893
64.625343 -4.869088 32.949326
65.735939 -3.475372 30.868301
66.272758 -5.391932 31.788717
67.753593 -6.101869 30.746269
69.552094 -1.628599 23.593857
70.35778 -3.427909 22.64912
70.005806 -3.85339 24.587891
70.302094 -5.921188 25.872986
69.411575 -4.424891 26.595619
30.880041 -33.618069 75.024422
33.380081 -33.340652 74.224907
31.843622 -34.868843 75.855972
32.647766 -36.100311 76.264832
63.512291 -6.346219 35.077946
64.201294 -8.097267 36.166065
62.444443 -7.871947 37.253483
61.455063 -9.414222 39.471127
60.560486 -10.94645 41.722549
53.49696 -14.589584 49.635704
55.43055 -14.257945 48.510719
54.887794 -15.700594 50.900375
56.093178 -16.864801 52.007507
56.965302 -18.170078 52.777367
42.645302 -22.689035 62.649742
42.455017 -30.89217 70.299713
43.702564 -28.868473 68.744095
44.3592 -30.006144 68.971375
62.387627 -2.61541 33.73053
62.886459 -4.527224 34.220795
69.822807 -0.683958 19.904167
69.128883 1.321808 21.105392
68.933289 0.69808 22.9594
68.445877 -0.097515 24.873915
56.8368 -8.003616 40.8311
53.843445 -10.059367 44.142609
52.887493 -11.794628 46.218178
50.959599 -12.155943 47.550617
52.119576 -13.435398 48.443672
51.520168 -14.99485 50.796753
51.048492 -16.505758 53.234619
50.647209 -18.016405 55.697998
37.211697 -28.137871 68.638275
38.35725 -29.383043 69.739868
39.470097 -30.554964 70.77285
35.817806 -32.937569 73.38868
38.162308 -32.390827 72.479324
40.383335 -31.701414 71.460632
40.965683 -32.857643 71.588837
31.383955 -30.732498 72.191109
29.883087 -32.316006 74.009247
28.345932 -33.799858 75.822029
69.217216 -8.672034 30.985012
69.365623 -10.320383 31.814941
68.45475 -9.651948 32.929085
67.590485 -10.846105 35.002777
66.670937 -12.163605 37.124413
64.855865 -9.837471 37.315346
65.383713 -11.636215 38.370762
57.689075 -9.549517 41.664001
58.716454 -11.010079 42.783169
59.759571 -12.449501 43.995167
57.285141 -14.024773 47.396637
59.034897 -13.913984 46.269814
60.664215 -13.945383 45.109741
61.324604 -15.567338 45.988464
44.791931 -15.082764 54.250481
44.080311 -16.949892 56.237984
45.782036 -16.442179 54.726326
47.146378 -17.599289 55.665581
48.707756 -18.615271 56.880348
50.248459 -19.580956 58.118263
40.155163 -25.489367 65.768387
42.116871 -24.67169 64.797333
44.071686 -23.786776 63.802208
44.698505 -26.829813 66.946785
45.456108 -24.822803 64.938393
46.012554 -22.8862 62.756065
47.923576 -22.023354 61.635956
49.781013 -21.246687 60.425781
51.556637 -20.595551 59.118431
52.469315 -21.743126 59.669441
67.710678 -1.0662 26.833563
66.785812 -2.198523 28.831348
68.210091 -3.186859 27.593338
68.640465 -5.168156 28.649071
68.983643 -6.994239 29.849236
69.874458 -8.065342 29.167057
70.410172 -3.125113 20.815788
70.814194 -7.683619 25.444366
70.427673 -7.795396 27.337048
28.14118 -37.118977 78.265255
26.931531 -37.181501 78.771904
58.387901 -7.011691 39.241785
59.299049 -6.976088 38.550995
58.966049 -6.140761 38.234171
58.966049 -6.140761 38.234171
59.622511 -5.211013 37.328579
47.352198 -14.467565 51.847519
47.799286 -13.565754 50.86385
46.899111 -13.774381 51.619312
36.392482 -36.748593 74.045914
37.305044 -35.915205 73.637688
36.29231 -36.14969 74.374489
35.418945 -37.596094 74.266498
36.392482 -36.748593 74.045914
58.954067 -18.326949 50.583847
59.358314 -17.614793 49.602688
58.733113 -17.506838 50.340122
58.468879 -19.058124 51.43502
58.954067 -18.326949 50.583847
48.668264 -25.564339 64.495438
47.871426 -25.986486 65.283462
48.156191 -26.581612 65.316421
49.491453 -25.165197 63.758553
49.206688 -24.570069 63.725594
48.668264 -25.564339 64.495438
50.211129 -24.811245 62.895263
49.491453 -25.165197 63.758553
31.782228 -36.842599 76.770901
31.433431 -36.213855 76.757855
30.567893 -36.956144 77.263924
32.926815 -36.717819 76.180745
31.782228 -36.842599 76.770901
55.816496 -18.961709 54.444801
56.563925 -18.901928 53.735096
56.217873 -18.229859 53.487072
54.574101 -21.270232 57.235032
54.995891 -20.47694 56.318478
54.339127 -20.568126 57.150998
54.02731 -22.097383 57.96806
54.574101 -21.270232 57.235032
41.729222 -23.082298 63.201504
42.010652 -22.071085 62.198998
43.610652 -31.032117 69.561081
43.407108 -30.449157 69.635544
42.65856 -31.47513 70.22525
61.549883 -2.535493 34.551266
62.200851 -1.621348 33.701038
68.652839 2.516325 20.98117
69.068908 1.554258 20.218899
68.345997 1.445628 23.76094
68.524334 1.87245 22.826504
68.102291 1.04783 24.718198
68.689583 0.300283 23.916657
68.345997 1.445628 23.76094
52.907938 -10.21895 44.851768
53.514206 -9.283482 43.942619
52.429962 -11.086581 45.889553
53.365469 -10.926997 45.180394
52.907938 -10.21895 44.851768
36.124708 -28.397744 69.078316
36.707295 -27.454452 68.192932
35.620306 -27.714324 68.632972
30.98845 -30.005195 71.809922
32.106836 -29.881706 71.316074
28.636528 -32.391936 74.429966
29.438049 -31.62209 73.547104
27.86795 -33.133862 75.336357
29.11451 -33.057932 74.915638
28.636528 -32.391936 74.429966
65.092056 -13.298241 39.880859
65.5569 -12.593635 38.80237
64.918869 -12.340822 39.449251
64.618931 -14.01026 40.909981
65.092056 -13.298241 39.880859
63.685817 -15.446765 42.951183
63.085299 -15.196756 43.642086
61.090496 -17.178306 47.278874
60.608845 -17.903773 48.175949
43.785733 -14.487908 55.176941
43.14324 -14.628453 56.198151
44.04454 -15.278708 55.140488
44.533123 -14.291963 54.286934
43.785733 -14.487908 55.176941
39.750948 -26.478628 66.770668
39.17051 -25.843578 66.255802
38.766295 -26.83284 67.258083
52.218645 -23.302283 60.513996
51.612088 -24.22659 61.169048
66.988746 -0.570972 27.593494
67.419712 0.040813 26.642063
64.654476 -2.200006 31.251236
63.849182 -1.94148 32.061779
70.733982 -5.554062 22.989325
70.572025 -4.44797 22.352111
70.519737 -4.534002 23.286335
70.818474 -6.653841 23.747537
70.733982 -5.554062 22.989325
70.747944 -6.661857 24.683958
70.884724 -7.675604 24.507945
70.818474 -6.653841 23.747537
69.012192 -11.822108 33.049093
69.384525 -11.234432 32.085899
68.99329 -10.908058 32.778135
70.403119 -10.324899 28.887404
70.548752 -9.48884 27.99408
70.232079 -11.025427 29.708402
70.403119 -10.324899 28.887404
70.18359 -10.138585 29.686261
69.977916 -11.794076 30.655216
70.232079 -11.025427 29.708402
29.382942 -37.042225 77.803391
28.977333 -36.404152 77.712741
28.14118 -37.118977 78.265255
30.567893 -36.956144 77.263924
29.382942 -37.042225 77.803391
60.243027 -4.333833 36.360022
60.915184 -3.403187 35.489134
60.497713 -5.227977 36.574823
60.243027 -4.333833 36.360022
59.622511 -5.211013 37.328579
48.22327 -12.697009 49.826988
48.791118 -11.762919 48.934146
48.676357 -13.390193 50.055194
48.22327 -12.697009 49.826988
47.799286 -13.565754 50.86385
38.235012 -35.025599 73.279846
39.077557 -34.146271 72.722996
38.047416 -34.436976 73.409413
38.235012 -35.025599 73.279846
37.305044 -35.915205 73.637688
62.398596 -15.024075 44.277209
63.085299 -15.196756 43.642086
62.852986 -14.304503 43.265158
60.026199 -17.716403 48.913776
59.805245 -16.896292 48.670051
59.358314 -17.614793 49.602688
60.608845 -17.903773 48.175949
60.026199 -17.716403 48.913776
42.635823 -15.662744 56.979042
43.14324 -14.628453 56.198151
43.315478 -19.783431 59.405472
42.729992 -19.135039 59.05209
42.505736 -20.090243 60.127857
50.96407 -24.490033 62.088356
50.782818 -23.849715 62.181801
50.211129 -24.811245 62.895263
51.612088 -24.22659 61.169048
50.96407 -24.490033 62.088356
68.624691 -12.50229 34.044874
68.18998 -12.149623 34.765061
46.090849 -13.937874 52.504803
46.899111 -13.774381 51.619312
34.097021 -36.552654 75.638786
33.817972 -35.935146 75.722874
32.926815 -36.717819 76.180745
34.292806 -37.159202 75.439686
35.183963 -36.37653 74.981815
34.097021 -36.552654 75.638786
33.346063 -37.960148 75.701897
34.433006 -37.784024 75.044926
34.292806 -37.159202 75.439686
57.201178 -18.92339 52.948967
57.882959 -18.947848 52.220924
57.647084 -18.194536 52.049324
57.201178 -18.92339 52.948967
56.563925 -18.901928 53.735096
55.461733 -19.704306 55.463634
55.816496 -18.961709 54.444801
55.115681 -19.032237 55.21561
55.461733 -19.704306 55.463634
54.995891 -20.47694 56.318478
42.233612 -21.095886 61.114746
42.505736 -20.090243 60.127857
42.868262 -21.713836 61.565491
42.233612 -21.095886 61.114746
42.010652 -22.071085 62.198998
44.464039 -30.606137 68.750206
43.610652 -31.032117 69.561081
45.222992 -29.553503 68.216752
44.464039 -30.606137 68.750206
45.847427 -28.514458 67.485951
44.983635 -28.967099 68.240574
45.222992 -29.553503 68.216752
46.723068 -28.05231 66.783287
46.483711 -27.465907 66.807109
45.847427 -28.514458 67.485951
47.498924 -27.621823 65.940185
46.723068 -28.05231 66.783287
48.156191 -26.581612 65.316421
47.498924 -27.621823 65.940185
63.00301 -1.775197 32.813519
62.200851 -1.621348 33.701038
63.233799 -2.781693 32.978791
63.849182 -1.94148 32.061779
63.00301 -1.775197 32.813519
61.752928 -3.483103 34.668398
61.549883 -2.535493 34.551266
60.915184 -3.403187 35.489134
69.41587 0.551376 19.618286
69.643997 -0.543024 19.071781
69.475845 0.318925 20.504779
69.41587 0.551376 19.618286
69.068908 1.554258 20.218899
68.622131 2.184314 21.8995
68.652839 2.516325 20.98117
69.031086 1.009944 22.032396
68.622131 2.184314 21.8995
68.524334 1.87245 22.826504
56.556007 -7.170966 40.631088
57.44585 -7.08999 39.878031
55.909733 -8.119079 41.524919
56.556007 -7.170966 40.631088
55.37104 -9.003513 42.535479
56.298108 -8.88805 41.841659
55.909733 -8.119079 41.524919
54.413055 -9.146954 43.180674
53.514206 -9.283482 43.942619
54.80143 -9.915926 43.497414
55.37104 -9.003513 42.535479
54.413055 -9.146954 43.180674
49.638161 -11.611239 48.072391
48.791118 -11.762919 48.934146
50.56779 -11.428486 47.338533
49.638161 -11.611239 48.072391
50.02997 -12.338696 48.284475
51.466015 -11.267238 46.555773
50.56779 -11.428486 47.338533
51.923546 -11.975286 46.884398
52.429962 -11.086581 45.889553
51.466015 -11.267238 46.555773
37.698777 -27.167831 67.690746
36.707295 -27.454452 68.192932
38.279215 -27.802881 68.205612
38.766295 -26.83284 67.258083
37.698777 -27.167831 67.690746
41.913893 -32.457867 70.869812
42.65856 -31.47513 70.22525
41.71035 -31.874907 70.944275
40.115417 -33.796268 72.091133
39.927822 -33.207645 72.220699
39.077557 -34.146271 72.722996
41.055076 -33.44928 71.316399
40.115417 -33.796268 72.091133
41.913893 -32.457867 70.869812
41.055076 -33.44928 71.316399
35.418945 -37.596094 74.266498
34.433006 -37.784024 75.044926
34.617729 -27.92993 69.160663
35.620306 -27.714324 68.632972
33.933718 -28.844265 69.979698
34.617729 -27.92993 69.160663
33.290819 -29.72849 70.897697
34.394821 -29.541842 70.436355
33.933718 -28.844265 69.979698
32.567939 -30.579282 71.772732
33.290819 -29.72849 70.897697
32.106836 -29.881706 71.316074
30.188482 -30.830336 72.638035
30.98845 -30.005195 71.809922
30.633521 -31.524252 73.100178
30.188482 -30.830336 72.638035
29.438049 -31.62209 73.547104
27.073697 -33.859602 76.236195
27.86795 -33.133862 75.336357
27.566816 -34.506176 76.680622
27.073697 -33.859602 76.236195
28.059241 -35.143635 77.122513
28.838358 -34.437317 76.26392
27.566816 -34.506176 76.680622
27.261635 -35.846699 77.85691
28.533178 -35.77784 77.440208
28.059241 -35.143635 77.122513
26.480455 -36.536889 78.623458
27.261635 -35.846699 77.85691
26.931531 -37.181501 78.771904
26.480455 -36.536889 78.623458
67.674744 -11.824808 35.395785
68.18998 -12.149623 34.765061
68.105721 -11.17092 34.372053
67.21497 -12.483559 36.456603
67.674744 -11.824808 35.395785
67.130711 -11.504855 36.063595
66.755127 -13.17472 37.489429
67.21497 -12.483559 36.456603
66.200512 -12.85733 38.179195
66.027325 -11.89991 37.747587
65.5569 -12.593635 38.80237
66.755127 -13.17472 37.489429
66.200512 -12.85733 38.179195
64.161762 -14.726137 41.961128
64.618931 -14.01026 40.909981
63.996856 -13.761306 41.578888
64.161762 -14.726137 41.961128
63.685817 -15.446765 42.951183
57.77885 -7.925316 40.194854
58.387901 -7.011691 39.241785
57.44585 -7.08999 39.878031
61.977756 -15.741833 45.3213
62.398596 -15.024075 44.277209
61.745444 -14.849581 44.944372
61.516233 -16.463024 46.282536
60.898866 -16.28262 46.984802
61.090496 -17.178306 47.278874
61.977756 -15.741833 45.3213
61.516233 -16.463024 46.282536
58.468879 -19.058124 51.43502
57.882959 -18.947848 52.220924
45.260803 -14.14116 53.328553
44.533123 -14.291963 54.286934
45.621977 -14.879478 53.426732
46.090849 -13.937874 52.504803
45.260803 -14.14116 53.328553
42.915115 -16.462477 56.944313
42.635823 -15.662744 56.979042
43.036408 -18.139264 58.093918
42.729992 -19.135039 59.05209
43.306696 -17.200097 57.048057
43.036408 -18.139264 58.093918
43.810023 -17.889059 57.283844
43.688731 -16.212272 56.134239
42.915115 -16.462477 56.944313
43.306696 -17.200097 57.048057
39.586436 -24.835472 65.326042
39.17051 -25.843578 66.255802
40.484152 -24.482464 64.760826
39.586436 -24.835472 65.326042
41.465006 -24.073625 64.275299
40.484152 -24.482464 64.760826
41.136017 -25.080528 65.28286
42.381087 -23.680363 63.723537
41.729222 -23.082298 63.201504
41.465006 -24.073625 64.275299
52.685423 -22.409595 59.66127
52.002537 -22.635815 60.522167
52.218645 -23.302283 60.513996
53.409433 -22.218741 58.860325
53.193326 -21.552272 58.868496
52.685423 -22.409595 59.66127
54.02731 -22.097383 57.96806
53.409433 -22.218741 58.860325
67.787312 0.525155 25.662239
68.102291 1.04783 24.718198
68.078277 -0.581858 25.853739
67.787312 0.525155 25.662239
67.419712 0.040813 26.642063
65.48246 -2.463704 30.571861
64.654476 -2.200006 31.251236
64.907955 -3.211674 31.547676
66.007396 -1.825279 29.553384
65.48246 -2.463704 30.571861
66.260875 -2.836947 29.849824
66.526314 -1.137134 28.592386
66.007396 -1.825279 29.553384
67.248245 -1.632362 27.832456
66.988746 -0.570972 27.593494
66.526314 -1.137134 28.592386
69.973751 -1.803454 19.514564
69.643997 -0.543024 19.071781
70.267434 -3.024032 19.970374
69.973751 -1.803454 19.514564
70.11649 -1.904535 20.359977
70.486855 -4.25068 20.56861
70.267434 -3.024032 19.970374
70.598221 -4.296571 21.435445
70.383976 -3.276511 21.732454
70.572025 -4.44797 22.352111
70.486855 -4.25068 20.56861
70.598221 -4.296571 21.435445
70.865155 -8.693147 25.368662
70.884724 -7.675604 24.507945
70.778534 -8.61162 26.283632
70.865155 -8.693147 25.368662
70.585273 -8.667509 27.229973
70.778534 -8.61162 26.283632
70.620934 -7.739508 26.390707
70.391152 -8.616727 28.101155
70.548752 -9.48884 27.99408
70.585273 -8.667509 27.229973
69.707988 -11.493797 31.432058
69.689087 -10.579748 31.1611
69.384525 -11.234432 32.085899
69.673355 -12.448761 31.580015
69.977916 -11.794076 30.655216
69.707988 -11.493797 31.432058
69.012192 -11.822108 33.049093
68.624691 -12.50229 34.044874
3 0 47 46
3 189 188 48
3 190 52 191
3 192 191 50
3 190 191 192
3 1 55 53
3 1 57 55
3 193 50 194
3 3 195 197
3 195 60 196
3 195 196 197
3 3 62 60
3 4 65 63
3 6 68 66
3 6 198 200
3 200 199 68
3 198 199 200
3 6 201 202
3 7 71 69
3 8 74 72
3 8 76 74
3 2 79 77
3 9 82 80
3 9 203 205
3 205 204 82
3 203 204 205
3 9 206 207
3 10 86 84
3 10 88 86
3 5 91 89
3 208 94 209
3 210 209 92
3 208 209 210
3 211 96 212
3 213 212 94
3 211 212 213
3 215 214 96
3 7 100 98
3 7 69 100
3 11 104 102
3 11 106 104
3 12 109 107
3 216 110 217
3 218 217 49
3 216 217 218
3 220 219 110
3 14 113 111
3 16 114 51
3 16 115 114
3 17 118 116
3 19 119 54
3 19 120 119
3 19 221 223
3 223 222 120
3 221 222 223
3 20 224 226
3 226 225 56
3 224 225 226
3 20 227 228
3 229 121 230
3 231 124 232
3 233 232 122
3 231 232 233
3 234 125 235
3 14 126 58
3 14 111 126
3 236 128 237
3 238 129 239
3 240 130 241
3 242 241 129
3 240 241 242
3 243 132 244
3 245 133 246
3 247 246 132
3 245 246 247
3 25 134 59
3 25 135 134
3 25 136 135
3 26 137 61
3 26 138 137
3 27 248 250
3 248 139 249
3 248 249 250
3 29 140 64
3 29 141 140
3 13 142 108
3 30 143 67
3 30 144 143
3 30 145 144
3 251 146 252
3 253 147 254
3 255 148 256
3 257 256 147
3 255 256 257
3 31 151 149
3 33 152 70
3 33 153 152
3 15 154 112
3 34 155 73
3 34 258 260
3 260 259 155
3 258 259 260
3 34 261 262
3 264 263 75
3 24 156 131
3 35 157 78
3 35 158 157
3 18 159 117
3 36 160 81
3 36 161 160
3 36 162 161
3 266 265 83
3 37 267 268
3 37 269 271
3 269 163 270
3 269 270 271
3 38 164 85
3 38 165 164
3 38 166 165
3 39 167 87
3 39 168 167
3 28 272 274
3 272 169 273
3 272 273 274
3 40 170 90
3 40 171 170
3 21 172 123
3 41 173 93
3 41 174 173
3 41 175 174
3 42 176 95
3 42 177 176
3 42 178 177
3 276 275 97
3 277 179 278
3 22 279 280
3 43 180 99
3 43 181 180
3 43 182 181
3 31 183 101
3 31 149 183
3 23 185 127
3 45 281 283
3 283 282 103
3 281 282 283
3 45 284 285
3 45 286 288
3 286 186 287
3 286 287 288
3 44 187 105
3 44 184 187
3 32 289 291
3 291 290 150
3 289 290 291
3 46 292 293
3 47 294 296
3 296 295 46
3 294 295 296
3 47 297 298
3 48 49 12
3 299 49 300
3 301 300 48
3 299 300 301
3 303 302 49
3 50 51 14
3 52 51 50
3 52 16 51
3 53 54 17
3 55 54 53
3 55 19 54
3 55 56 19
3 57 56 55
3 57 20 56
3 304 58 305
3 50 306 308
3 306 58 307
3 306 307 308
3 50 14 58
3 309 59 310
3 60 311 313
3 311 59 312
3 311 312 313
3 60 25 59
3 60 61 25
3 62 61 60
3 62 26 61
3 63 64 27
3 65 64 63
3 65 29 64
3 66 67 13
3 68 67 66
3 68 30 67
3 68 314 316
3 316 315 30
3 314 315 316
3 318 317 68
3 69 70 31
3 71 70 69
3 71 33 70
3 72 73 15
3 74 73 72
3 74 34 73
3 74 75 34
3 76 75 74
3 76 319 321
3 321 320 75
3 319 320 321
3 77 78 24
3 79 78 77
3 79 35 78
3 80 81 18
3 82 81 80
3 82 36 81
3 82 83 36
3 322 83 323
3 324 323 82
3 322 323 324
3 326 325 83
3 327 37 328
3 84 329 331
3 329 85 330
3 329 330 331
3 86 85 84
3 86 38 85
3 86 87 38
3 88 87 86
3 88 39 87
3 89 90 28
3 91 90 89
3 91 40 90
3 92 93 21
3 94 93 92
3 94 41 93
3 94 95 41
3 96 95 94
3 96 42 95
3 96 97 42
3 332 97 333
3 334 333 96
3 332 333 334
3 336 335 97
3 98 99 22
3 100 99 98
3 100 43 99
3 100 101 43
3 69 101 100
3 69 31 101
3 102 103 23
3 104 103 102
3 104 45 103
3 104 105 45
3 106 105 104
3 106 44 105
3 338 337 32
3 339 3 340
3 107 108 4
3 109 108 107
3 109 13 108
3 49 109 12
3 110 109 49
3 110 13 109
3 110 66 13
3 341 66 342
3 343 342 110
3 341 342 343
3 344 6 345
3 346 345 66
3 344 345 346
3 349 348 6
3 347 348 349
3 111 112 7
3 113 112 111
3 113 15 112
3 51 113 14
3 114 113 51
3 114 15 113
3 114 72 15
3 115 72 114
3 115 8 72
3 116 117 2
3 118 117 116
3 118 18 117
3 54 118 17
3 119 118 54
3 119 18 118
3 119 80 18
3 120 80 119
3 120 9 80
3 120 350 352
3 352 351 9
3 350 351 352
3 354 353 120
3 56 355 357
3 357 356 19
3 355 356 357
3 359 358 56
3 360 84 361
3 121 362 364
3 362 84 363
3 362 363 364
3 121 10 84
3 122 123 5
3 124 123 122
3 124 21 123
3 365 124 366
3 367 124 368
3 369 21 370
3 371 370 124
3 369 370 371
3 372 92 373
3 374 373 21
3 372 373 374
3 375 92 376
3 378 377 92
3 125 379 380
3 125 381 383
3 381 22 382
3 381 382 383
3 58 384 386
3 384 125 385
3 384 385 386
3 126 125 58
3 126 22 125
3 126 98 22
3 111 98 126
3 111 7 98
3 387 127 388
3 128 389 391
3 389 127 390
3 389 390 391
3 128 23 127
3 392 128 393
3 129 394 396
3 394 128 395
3 394 395 396
3 129 23 128
3 129 102 23
3 130 102 129
3 130 11 102
3 397 131 398
3 399 131 400
3 401 24 402
3 403 402 131
3 401 402 403
3 132 404 405
3 132 406 408
3 406 24 407
3 406 407 408
3 132 77 24
3 133 77 132
3 133 2 77
3 59 409 410
3 134 411 413
3 413 412 59
3 411 412 413
3 134 414 415
3 134 416 418
3 416 133 417
3 416 417 418
3 135 133 134
3 135 2 133
3 135 116 2
3 136 116 135
3 136 17 116
3 61 136 25
3 137 136 61
3 137 17 136
3 137 53 17
3 138 53 137
3 138 1 53
3 139 419 420
3 139 421 423
3 421 28 422
3 421 422 423
3 64 139 27
3 140 139 64
3 140 28 139
3 140 89 28
3 141 89 140
3 141 5 89
3 108 65 4
3 142 65 108
3 142 29 65
3 67 142 13
3 143 142 67
3 143 29 142
3 143 141 29
3 144 141 143
3 144 5 141
3 144 122 5
3 145 122 144
3 145 424 426
3 426 425 122
3 424 425 426
3 427 145 428
3 429 428 30
3 427 428 429
3 430 145 431
3 433 432 145
3 435 434 6
3 436 27 437
3 438 27 439
3 440 63 441
3 442 441 27
3 440 441 442
3 146 443 445
3 443 63 444
3 443 444 445
3 146 4 63
3 446 146 447
3 147 448 450
3 448 146 449
3 448 449 450
3 147 4 146
3 147 107 4
3 148 107 147
3 148 12 107
3 451 148 452
3 453 148 454
3 455 12 456
3 457 456 148
3 455 456 457
3 458 48 459
3 460 459 12
3 458 459 460
3 461 48 462
3 464 463 48
3 149 150 0
3 151 150 149
3 151 32 150
3 70 151 31
3 152 151 70
3 152 32 151
3 152 465 467
3 467 466 32
3 465 466 467
3 153 468 470
3 470 469 152
3 468 469 470
3 153 471 472
3 112 71 7
3 154 71 112
3 154 33 71
3 73 154 15
3 155 154 73
3 155 33 154
3 155 153 33
3 473 153 474
3 475 474 155
3 473 474 475
3 477 476 153
3 75 478 480
3 480 479 34
3 478 479 480
3 482 481 75
3 131 483 485
3 483 52 484
3 483 484 485
3 156 52 131
3 156 16 52
3 78 156 24
3 157 156 78
3 157 16 156
3 157 115 16
3 158 115 157
3 158 8 115
3 117 79 2
3 159 79 117
3 159 35 79
3 81 159 18
3 160 159 81
3 160 35 159
3 160 158 35
3 161 158 160
3 161 8 158
3 161 76 8
3 162 76 161
3 162 486 488
3 488 487 76
3 486 487 488
3 83 162 36
3 489 162 490
3 491 490 83
3 489 490 491
3 493 492 162
3 495 494 9
3 163 496 497
3 163 498 500
3 498 3 499
3 498 499 500
3 501 37 502
3 85 503 504
3 164 505 507
3 507 506 85
3 505 506 507
3 164 508 510
3 508 37 509
3 508 509 510
3 164 163 37
3 165 163 164
3 165 3 163
3 165 62 3
3 166 62 165
3 166 26 62
3 87 166 38
3 167 166 87
3 167 26 166
3 167 138 26
3 168 138 167
3 168 1 138
3 169 511 512
3 169 513 514
3 90 169 28
3 170 169 90
3 170 515 517
3 517 516 169
3 515 516 517
3 170 518 520
3 518 121 519
3 518 519 520
3 171 121 170
3 171 10 121
3 123 91 5
3 172 91 123
3 172 40 91
3 93 172 21
3 173 172 93
3 173 40 172
3 173 171 40
3 174 171 173
3 174 10 171
3 174 88 10
3 175 88 174
3 175 39 88
3 95 175 41
3 176 175 95
3 176 39 175
3 176 168 39
3 177 168 176
3 177 1 168
3 177 57 1
3 178 57 177
3 178 20 57
3 97 178 42
3 521 178 522
3 523 522 97
3 521 522 523
3 524 20 525
3 526 525 178
3 524 525 526
3 528 527 20
3 529 130 530
3 179 531 533
3 531 130 532
3 531 532 533
3 179 11 130
3 99 534 536
3 536 535 22
3 534 535 536
3 180 537 539
3 539 538 99
3 537 538 539
3 180 540 541
3 180 542 544
3 542 179 543
3 542 543 544
3 181 179 180
3 181 11 179
3 181 106 11
3 182 106 181
3 182 44 106
3 101 182 43
3 183 182 101
3 183 44 182
3 183 184 44
3 149 184 183
3 149 0 184
3 127 545 546
3 185 547 549
3 549 548 127
3 547 548 549
3 185 550 551
3 103 185 23
3 552 185 553
3 554 553 103
3 552 553 554
3 556 555 185
3 186 557 558
3 186 559 560
3 105 186 45
3 187 186 105
3 187 561 563
3 563 562 186
3 561 562 563
3 187 564 566
3 564 46 565
3 564 565 566
3 184 46 187
3 184 0 46
3 150 47 0
3 567 47 568
3 569 568 150
3 567 568 569
3 572 571 47
3 570 571 572
3 574 573 32
