ply
format ascii 1.0
element vertex 415
property float x
property float y
property float z
element face 300
property list uchar int vertex_index
end_header
-5.569643 -22.317596 33.733498
29.162489 -13.058142 -42.695946
37.130058 17.392445 -37.274467
-5.878328 -29.899151 30.21048
29.339888 -28.460693 -32.806541
-5.745737 -6.07616 35.850246
-5.105898 -14.96637 36.88739
-6.477571 -13.383007 32.96701
-4.807924 0.550394 38.467796
-4.411882 -23.799725 37.438225
29.780979 2.378773 -48.400047
29.217052 -5.217478 -46.356506
-5.942102 -33.65918 28.277409
29.181973 -23.62611 -36.633324
-6.47389 -5.226227 33.756401
-6.134058 -9.658585 34.445854
-6.877771 -8.922199 32.35022
28.977097 -15.793559 -41.628784
-5.504583 1.665401 36.349686
-5.356531 -18.591404 35.350121
-4.761045 -19.408924 37.211174
-4.946348 -23.022404 35.611694
35.535969 17.091476 -37.1996
30.212337 4.695786 -47.849068
29.391041 -10.369 -43.552032
28.95521 -7.86758 -45.806519
-5.746904 -26.102493 32.024963
28.938755 -31.144342 -31.277784
-5.071104 -7.054069 37.849628
-4.806364 -11.477987 38.355461
-5.438013 -10.51084 36.442505
-5.756994 -14.124174 34.969479
-6.036413 -17.86025 33.421009
-6.77392 -17.20965 31.403709
-6.275862 -21.67725 31.785542
-6.464899 -25.527924 30.050074
29.373423 -20.882477 -38.007896
-4.641748 -3.777655 39.197952
-5.30739 -2.666523 37.188801
-6.016729 -1.688023 35.086952
-6.764235 -0.849319 32.883434
-4.523222 -15.910081 38.734341
33.623028 15.200073 -38.934555
32.063198 12.320753 -39.884071
31.66728 10.504608 -41.493797
31.26075 8.601778 -42.971046
30.865654 6.590437 -44.263763
29.406799 -0.076929 -48.596313
28.35375 -35.544121 -27.539541
-5.593117 -37.584848 27.223779
-5.611181 -35.746392 28.252649
-5.924038 -35.497637 27.248539
29.092708 -25.01023 -35.884293
28.97646 -23.937165 -37.031929
-7.051165 -6.714224 31.951641
-6.675831 -7.074213 33.05331
-6.849224 -4.866238 32.654731
29.48847 -14.260092 -41.506138
29.606447 -12.925931 -41.948753
29.069793 -14.42585 -42.162365
29.395774 -15.6278 -40.972557
29.48847 -14.260092 -41.506138
28.883574 -13.211977 -43.313087
28.790878 -14.579686 -42.779506
29.069793 -14.42585 -42.162365
36.516474 17.703919 -36.046669
36.6993 17.944119 -34.739719
37.312885 17.632645 -35.967517
36.333013 17.24196 -37.237033
35.719429 17.553434 -36.009236
36.516474 17.703919 -36.046669
29.516323 -9.05108 -43.856544
29.832959 -10.265714 -42.708408
29.298407 -7.80037 -44.983788
29.173126 -9.11829 -44.679276
29.516323 -9.05108 -43.856544
29.022483 -5.269181 -47.155323
29.152173 -3.933681 -47.398502
-5.542566 -30.17206 31.176052
-5.476854 -28.273731 32.083293
-5.812616 -28.000822 31.117722
29.777539 -28.154851 -32.327008
29.517836 -27.124263 -33.526733
29.51351 -29.44267 -31.638577
29.777539 -28.154851 -32.327008
29.139322 -29.802518 -32.042163
29.312943 -30.784495 -30.874198
29.51351 -29.44267 -31.638577
-6.893234 -19.150951 30.574428
-7.138046 -16.921535 30.340641
-6.644205 -21.384751 30.765345
-6.524891 -19.44345 31.594625
-6.893234 -19.150951 30.574428
-6.738723 -23.310088 29.897611
-6.37038 -23.602587 30.917808
-6.644205 -21.384751 30.765345
29.111404 -19.726406 -39.19445
29.479222 -19.521373 -38.625244
29.217202 -18.365302 -39.811798
28.816381 -19.97875 -39.678421
29.0784 -21.134821 -38.491867
29.111404 -19.726406 -39.19445
-4.470489 -0.071692 39.479668
-4.520598 2.058597 39.078972
-4.724836 -1.613631 38.832874
-4.387401 -2.235717 39.844746
-4.470489 -0.071692 39.479668
-6.128126 0.47486 34.611418
-5.760656 -0.011311 35.718319
-5.872053 2.151572 35.242784
-6.501879 0.894212 33.509659
-6.390482 -1.268671 33.985193
-6.128126 0.47486 34.611418
-4.320469 -22.057364 38.226099
-4.49505 -19.861963 38.112573
-4.586464 -21.604324 37.3247
-4.168867 -24.226579 38.327795
-4.320469 -22.057364 38.226099
33.354339 14.498674 -39.902519
33.974542 15.17795 -40.297817
32.753818 13.938494 -39.526329
33.022507 14.639893 -38.558365
33.354339 14.498674 -39.902519
32.574424 13.059014 -40.377277
32.242592 13.200233 -39.033123
32.753818 13.938494 -39.526329
31.765105 10.576966 -42.911716
32.075961 11.39898 -42.087288
31.56184 9.625551 -43.650341
31.464015 9.553193 -42.232422
31.765105 10.576966 -42.911716
30.785715 6.722265 -45.61259
31.063061 7.715085 -45.01828
30.599915 5.656254 -46.138451
30.679854 5.524425 -44.789623
30.785715 6.722265 -45.61259
29.964171 2.291074 -47.237721
30.179851 3.44958 -46.962231
29.996658 3.537279 -48.124558
29.800813 1.10498 -47.453991
29.964171 2.291074 -47.237721
29.593889 1.150922 -48.49818
29.613723 -0.12287 -47.552124
29.800813 1.10498 -47.453991
28.413702 -34.700732 -28.609274
28.712093 -34.26367 -28.283668
28.772044 -33.420281 -29.353401
29.554709 -5.188107 -45.421486
29.429328 -6.475319 -45.258781
29.363345 -3.932192 -46.477726
29.554709 -5.188107 -45.421486
29.298466 -2.648395 -47.519722
29.152173 -3.933681 -47.398502
29.363345 -3.932192 -46.477726
-5.609388 -33.912956 29.26146
-5.577501 -32.032942 30.227995
-5.910215 -31.779165 29.243944
-5.609388 -33.912956 29.26146
-5.611181 -35.746392 28.252649
29.438879 -24.706971 -35.440124
29.60032 -23.370962 -36.108006
29.349614 -26.091091 -34.691093
29.438879 -24.706971 -35.440124
29.092708 -25.01023 -35.884293
29.171665 -27.427521 -33.970901
29.517836 -27.124263 -33.526733
29.349614 -26.091091 -34.691093
29.080576 -28.82925 -33.167511
29.171665 -27.427521 -33.970901
29.281059 -16.976914 -40.435688
29.395774 -15.6278 -40.972557
28.913241 -17.181947 -41.004894
29.217202 -18.365302 -39.811798
29.281059 -16.976914 -40.435688
28.765503 -15.997336 -42.152268
28.913241 -17.181947 -41.004894
28.765503 -15.997336 -42.152268
28.790878 -14.579686 -42.779506
-4.869194 2.684286 38.00914
-4.520598 2.058597 39.078972
-5.217524 3.241789 36.950085
-5.156254 1.107897 37.408741
-4.869194 2.684286 38.00914
-5.57865 3.798575 35.833764
-5.217524 3.241789 36.950085
-5.872053 2.151572 35.242784
-5.57865 3.798575 35.833764
34.957991 17.496057 -35.99435
35.141451 17.958016 -34.803986
35.719429 17.553434 -36.009236
34.79853 16.820909 -37.049938
34.957991 17.496057 -35.99435
30.404418 5.9455 -48.660691
30.459057 5.77494 -47.405243
30.651137 7.024655 -48.216865
30.140224 4.816535 -48.999386
30.404418 5.9455 -48.660691
29.924545 3.658028 -49.274876
29.996658 3.537279 -48.124558
30.140224 4.816535 -48.999386
29.710182 2.441227 -49.430008
29.924545 3.658028 -49.274876
29.720723 -11.58136 -42.376796
29.832959 -10.265714 -42.708408
29.276765 -11.713571 -43.123989
29.606447 -12.925931 -41.948753
29.720723 -11.58136 -42.376796
29.067465 -10.477678 -44.268547
28.953189 -11.822249 -43.840504
29.276765 -11.713571 -43.123989
28.84955 -9.226968 -45.395791
29.067465 -10.477678 -44.268547
29.173126 -9.11829 -44.679276
28.798941 -7.971259 -46.489128
28.84955 -9.226968 -45.395791
29.086131 -6.542529 -46.081513
29.298407 -7.80037 -44.983788
29.429328 -6.475319 -45.258781
28.891562 -6.594232 -46.88033
29.086131 -6.542529 -46.081513
29.022483 -5.269181 -47.155323
28.735294 -6.697911 -47.562939
28.798941 -7.971259 -46.489128
28.891562 -6.594232 -46.88033
-5.420257 -26.408737 32.975458
-5.331627 -24.516289 33.829725
-5.658273 -24.210045 32.87923
-5.420257 -26.408737 32.975458
-5.476854 -28.273731 32.083293
-5.542566 -30.17206 31.176052
-5.577501 -32.032942 30.227995
37.969963 17.40682 -37.187386
37.312885 17.632645 -35.967517
38.15279 17.64702 -35.880436
29.004595 -32.063781 -30.15279
29.312943 -30.784495 -30.874198
28.706204 -32.500842 -30.478395
28.772044 -33.420281 -29.353401
29.004595 -32.063781 -30.15279
28.880009 -30.171075 -32.403132
29.139322 -29.802518 -32.042163
29.080576 -28.82925 -33.167511
28.774309 -31.599511 -31.553644
28.880009 -30.171075 -32.403132
28.706204 -32.500842 -30.478395
28.774309 -31.599511 -31.553644
-4.938734 -9.266028 38.102545
-4.623401 -9.815449 39.05886
-4.755771 -7.60349 38.805944
-7.245842 -8.611111 31.243966
-7.051165 -6.714224 31.951641
-7.050896 -10.830743 31.605116
-7.245842 -8.611111 31.243966
-6.850796 -13.061147 31.913511
-6.677671 -11.152603 32.658615
-7.050896 -10.830743 31.605116
-6.99897 -14.974469 31.131861
-7.138046 -16.921535 30.340641
-6.625746 -15.296328 32.18536
-6.850796 -13.061147 31.913511
-6.99897 -14.974469 31.131861
-6.81992 -25.254577 29.015275
-6.738723 -23.310088 29.897611
-6.524004 -27.445343 29.125976
-6.81992 -25.254577 29.015275
-6.230719 -29.630956 29.206179
-6.171613 -27.713538 30.130277
-6.524004 -27.445343 29.125976
-6.262606 -31.510971 28.239643
-5.910215 -31.779165 29.243944
-6.230719 -29.630956 29.206179
-6.271753 -33.396338 27.254694
-6.262606 -31.510971 28.239643
-5.924038 -35.497637 27.248539
-6.271753 -33.396338 27.254694
29.843905 -20.662721 -37.402512
29.479222 -19.521373 -38.625244
29.696045 -21.999146 -36.795292
29.843905 -20.662721 -37.402512
29.277698 -22.254294 -37.32061
29.60032 -23.370962 -36.108006
29.696045 -21.999146 -36.795292
28.982675 -22.506638 -37.804581
29.277698 -22.254294 -37.32061
29.0784 -21.134821 -38.491867
28.97646 -23.937165 -37.031929
28.982675 -22.506638 -37.804581
28.883574 -13.211977 -43.313087
28.953189 -11.822249 -43.840504
-4.315494 -4.392485 40.155758
-4.387401 -2.235717 39.844746
-4.541093 -5.965283 39.480106
-4.315494 -4.392485 40.155758
-4.856426 -5.415862 38.52379
-4.755771 -7.60349 38.805944
-4.541093 -5.965283 39.480106
-6.994397 -2.677784 32.218248
-6.849224 -4.866238 32.654731
-6.619063 -3.037773 33.319918
-6.879708 1.305666 32.350559
-6.501879 0.894212 33.509659
-6.617351 3.049197 32.976783
-7.136567 -0.501122 31.724226
-6.879708 1.305666 32.350559
-6.994397 -2.677784 32.218248
-7.136567 -0.501122 31.724226
-4.509445 -12.01585 39.272396
-4.326483 -10.353312 39.975796
-4.623401 -9.815449 39.05886
-4.367874 -14.231897 39.461836
-4.509445 -12.01585 39.272396
-4.664793 -13.694034 38.544901
-4.244116 -16.430121 39.622141
-4.367874 -14.231897 39.461836
-4.376138 -18.112541 38.874157
-4.642133 -17.659502 37.972758
-4.49505 -19.861963 38.112573
-4.097033 -18.632582 39.761957
-4.244116 -16.430121 39.622141
-4.376138 -18.112541 38.874157
-5.019979 -24.868693 34.768823
-5.257995 -22.67 34.672596
-5.331627 -24.516289 33.829725
-4.741661 -25.199798 35.693632
-5.019979 -24.868693 34.768823
-4.474428 -25.588459 36.606898
-4.679115 -23.411065 36.52496
-4.741661 -25.199798 35.693632
-4.23621 -25.94942 37.513024
-4.474428 -25.588459 36.606898
-4.298756 -27.738154 36.681696
-4.168867 -24.226579 38.327795
-4.23621 -25.94942 37.513024
37.686228 17.394316 -38.546195
37.969963 17.40682 -37.187386
38.526133 17.408691 -38.459114
36.840807 17.151733 -38.53614
37.686228 17.394316 -38.546195
36.043762 17.001249 -38.498706
36.333013 17.24196 -37.237033
36.840807 17.151733 -38.53614
35.268978 16.627359 -38.345039
36.043762 17.001249 -38.498706
34.53154 16.356793 -38.195377
34.79853 16.820909 -37.049938
35.268978 16.627359 -38.345039
34.312507 15.681658 -39.212517
33.974542 15.17795 -40.297817
33.84206 15.875208 -37.917416
34.53154 16.356793 -38.195377
34.312507 15.681658 -39.212517
33.171902 15.507641 -37.674294
33.84206 15.875208 -37.917416
33.171902 15.507641 -37.674294
33.022507 14.639893 -38.558365
31.722706 12.592828 -38.587143
32.242592 13.200233 -39.033123
31.64669 11.55696 -39.324783
31.722706 12.592828 -38.587143
32.27392 12.307053 -41.282425
32.574424 13.059014 -40.377277
31.865239 11.412681 -40.688934
32.27392 12.307053 -41.282425
32.075961 11.39898 -42.087288
31.448731 10.648888 -40.129646
31.64669 11.55696 -39.324783
31.865239 11.412681 -40.688934
31.364487 9.604131 -40.838443
31.448731 10.648888 -40.129646
31.161222 8.652715 -41.577068
31.364487 9.604131 -40.838443
31.464015 9.553193 -42.232422
31.073705 7.587692 -42.233013
31.161222 8.652715 -41.577068
31.260609 8.720755 -44.371921
31.56184 9.625551 -43.650341
31.063202 7.596107 -43.617404
31.260609 8.720755 -44.371921
31.063061 7.715085 -45.01828
30.876157 6.582021 -42.879371
31.073705 7.587692 -42.233013
31.063202 7.596107 -43.617404
30.787962 5.486904 -43.451828
30.876157 6.582021 -42.879371
30.787962 5.486904 -43.451828
30.679854 5.524425 -44.789623
30.353195 4.5771 -46.582276
30.599915 5.656254 -46.138451
30.459057 5.77494 -47.405243
30.353195 4.5771 -46.582276
30.179851 3.44958 -46.962231
29.458219 -1.361917 -47.597629
29.613723 -0.12287 -47.552124
29.247046 -1.363407 -48.518406
29.298466 -2.648395 -47.519722
29.458219 -1.361917 -47.597629
29.523092 1.213376 -49.528141
29.593889 1.150922 -48.49818
29.710182 2.441227 -49.430008
29.354875 -0.075411 -49.498199
29.523092 1.213376 -49.528141
29.471169 1.214894 -50.430027
29.247046 -1.363407 -48.518406
29.354875 -0.075411 -49.498199
28.747787 -35.117249 -27.167654
28.712093 -34.26367 -28.283668
28.275148 -36.319527 -26.479414
28.747787 -35.117249 -27.167654
28.136499 -36.084621 -27.786064
28.413702 -34.700732 -28.609274
27.937841 -36.839664 -26.784235
28.136499 -36.084621 -27.786064
27.859238 -37.615071 -25.724108
28.275148 -36.319527 -26.479414
27.937841 -36.839664 -26.784235
3 51 50 12
3 49 50 51
3 53 52 13
3 54 16 55
3 56 55 14
3 54 55 56
3 1 57 58
3 1 59 61
3 59 17 60
3 59 60 61
3 1 62 64
3 64 63 17
3 62 63 64
3 0 21 19
3 2 65 67
3 65 66 67
3 2 68 70
3 68 22 69
3 68 69 70
3 71 24 72
3 73 25 74
3 75 74 24
3 73 74 75
3 77 76 11
3 3 78 80
3 80 79 26
3 78 79 80
3 4 81 82
3 4 83 84
3 4 85 87
3 85 27 86
3 85 86 87
3 5 30 28
3 7 31 15
3 7 32 31
3 88 33 89
3 90 34 91
3 92 91 33
3 90 91 92
3 93 35 94
3 95 94 34
3 93 94 95
3 96 36 97
3 96 97 98
3 101 100 36
3 99 100 101
3 8 102 103
3 8 104 106
3 104 37 105
3 104 105 106
3 8 38 37
3 107 39 108
3 109 108 18
3 107 108 109
3 110 40 111
3 112 111 39
3 110 111 112
3 6 41 29
3 9 113 115
3 115 114 20
3 113 114 115
3 9 116 117
3 118 42 119
3 122 121 42
3 120 121 122
3 123 43 124
3 123 124 125
3 126 44 127
3 128 45 129
3 130 129 44
3 128 129 130
3 131 46 132
3 135 134 46
3 133 134 135
3 10 136 138
3 138 137 23
3 136 137 138
3 10 139 140
3 10 141 143
3 141 47 142
3 141 142 143
3 144 48 145
3 144 145 146
3 147 11 148
3 149 11 150
3 153 152 11
3 151 152 153
3 12 154 156
3 156 155 3
3 154 155 156
3 158 157 12
3 13 159 160
3 163 162 13
3 161 162 163
3 164 4 165
3 164 165 166
3 168 167 4
3 14 15 5
3 16 15 14
3 16 7 15
3 17 169 170
3 17 171 173
3 171 172 173
3 17 174 175
3 177 176 17
3 178 8 179
3 180 18 181
3 182 181 8
3 180 181 182
3 183 18 184
3 186 185 18
3 19 20 6
3 21 20 19
3 21 9 20
3 22 187 189
3 187 188 189
3 22 190 191
3 192 23 193
3 192 193 194
3 195 23 196
3 197 10 198
3 199 198 23
3 197 198 199
3 201 200 10
3 24 202 203
3 24 204 206
3 204 1 205
3 204 205 206
3 24 207 209
3 209 208 1
3 207 208 209
3 25 210 212
3 212 211 24
3 210 211 212
3 25 213 214
3 11 215 217
3 215 25 216
3 215 216 217
3 218 25 219
3 220 219 11
3 218 219 220
3 223 222 25
3 221 222 223
3 26 224 226
3 226 225 0
3 224 225 226
3 228 227 26
3 230 229 3
3 231 2 232
3 231 232 233
3 27 234 235
3 27 236 238
3 236 237 238
3 239 27 240
3 241 240 4
3 239 240 241
3 242 27 243
3 245 244 27
3 28 246 248
3 246 29 247
3 246 247 248
3 30 29 28
3 30 6 29
3 15 30 5
3 31 30 15
3 31 6 30
3 31 19 6
3 32 19 31
3 32 0 19
3 249 16 250
3 251 16 252
3 253 7 254
3 255 254 16
3 253 254 255
3 33 256 257
3 33 258 260
3 258 7 259
3 258 259 260
3 33 32 7
3 34 32 33
3 34 0 32
3 34 26 0
3 35 26 34
3 35 3 26
3 261 35 262
3 263 35 264
3 265 3 266
3 267 266 35
3 265 266 267
3 268 12 269
3 270 269 3
3 268 269 270
3 271 12 272
3 274 273 12
3 36 275 276
3 36 277 278
3 36 279 281
3 279 13 280
3 279 280 281
3 282 13 283
3 284 283 36
3 282 283 284
3 286 285 13
3 288 287 1
3 37 289 290
3 37 291 292
3 37 293 295
3 293 28 294
3 293 294 295
3 38 28 37
3 38 5 28
3 18 38 8
3 39 38 18
3 39 5 38
3 39 14 5
3 40 14 39
3 40 296 298
3 298 297 14
3 296 297 298
3 299 40 300
3 299 300 301
3 302 40 303
3 305 304 40
3 29 306 308
3 306 307 308
3 41 309 311
3 311 310 29
3 309 310 311
3 41 312 313
3 20 41 6
3 314 41 315
3 316 315 20
3 314 315 316
3 319 318 41
3 317 318 319
3 320 21 321
3 322 321 0
3 320 321 322
3 323 21 324
3 325 9 326
3 327 326 21
3 325 326 327
3 328 9 329
3 328 329 330
3 332 331 9
3 333 2 334
3 333 334 335
3 336 2 337
3 338 22 339
3 340 339 2
3 338 339 340
3 341 22 342
3 345 344 22
3 343 344 345
3 42 346 347
3 42 348 350
3 348 349 350
3 42 351 352
3 354 353 42
3 43 355 356
3 43 357 358
3 359 43 360
3 44 361 363
3 361 43 362
3 361 362 363
3 44 364 366
3 366 365 43
3 364 365 366
3 44 367 368
3 45 369 371
3 371 370 44
3 369 370 371
3 45 372 373
3 374 45 375
3 46 376 378
3 376 45 377
3 376 377 378
3 46 379 381
3 381 380 45
3 379 380 381
3 46 382 383
3 385 384 46
3 23 386 388
3 386 387 388
3 390 389 23
3 47 391 392
3 47 393 395
3 393 394 395
3 396 47 397
3 398 397 10
3 396 397 398
3 399 47 400
3 399 400 401
3 403 402 47
3 48 404 405
3 48 406 407
3 408 48 409
3 410 48 411
3 414 413 48
3 412 413 414
