ply
format ascii 1.0
element vertex 279
property float x
property float y
property float z
element face 258
property list uchar int vertex_index
end_header
38.44548 16.023228 -11.620039
38.113705 22.738529 5.855444
37.802086 6.137817 2.243454
39.055138 6.370296 9.106703
40.162521 13.852268 -17.241148
37.31966 14.611977 4.793999
37.982822 6.559826 6.145959
38.611416 14.669212 7.729095
37.07827 13.653709 0.75845
39.215874 9.883846 -9.537979
38.520157 -1.378504 6.937429
39.279221 -1.739285 10.13611
40.904266 14.000488 9.444124
37.106358 18.634254 -6.284161
37.773491 11.909159 -4.119274
38.432858 5.043913 -2.411694
39.272335 14.829956 -14.400726
37.526772 18.778027 5.523236
37.833096 14.747147 6.410876
38.351685 18.757645 6.869
36.983269 18.552204 3.871736
39.545555 6.737169 -8.569483
38.36076 2.128016 0.556534
38.151619 2.404671 2.731031
38.4035 6.530293 7.754488
38.268669 2.54846 6.604351
38.623833 2.449589 8.24701
38.796513 -1.53661 8.63866
39.195831 2.264702 9.660467
40.77042 18.095119 8.609745
41.01004 1.714153 11.735688
42.240101 1.376755 12.384168
36.661045 19.859722 -3.768175
37.435951 15.318039 -5.144032
36.977585 16.40876 -2.60845
37.442104 9.902306 1.584244
37.672153 9.259663 -0.723122
38.019833 5.667048 -0.001287
38.743591 1.705875 -1.749531
37.433975 10.35268 3.684016
37.786098 6.434547 4.300817
37.661697 10.598312 5.546992
38.134773 10.647579 7.147713
38.855347 10.522938 8.467462
36.728706 17.345051 -0.232969
36.721935 18.070786 1.940898
37.071606 14.246887 2.899754
38.850037 12.99778 -10.551769
39.747387 11.96879 -13.368696
40.160011 9.016638 -12.363636
40.733223 11.173485 -16.23498
38.116714 2.539967 4.756278
39.442169 18.51738 7.896645
39.642525 14.408043 8.739037
39.81675 10.254745 9.496529
42.367043 13.484283 9.860328
41.003502 9.875572 10.235382
39.937668 6.106876 10.189887
39.991714 2.014032 10.826984
39.982517 -1.975071 11.406446
37.713074 17.325314 -8.909338
38.070309 14.149662 -7.802181
38.41304 10.885298 -6.779247
38.737843 7.590601 -5.83452
37.32029 12.857479 -1.593992
38.108887 8.465044 -3.207081
39.039223 4.327358 -4.966879
38.858908 15.426592 -13.010383
38.634506 16.868606 -13.576923
38.221079 17.465243 -12.186579
37.683295 22.714918 5.157029
38.026978 24.650837 5.253105
37.820239 20.758278 5.68934
37.389828 20.734667 4.990925
37.683295 22.714918 5.157029
40.184275 4.890441 -9.480431
39.69162 5.177481 -8.104401
43.042263 3.15164 12.105228
42.296625 3.371879 11.961945
42.951237 1.19292 12.582719
43.042263 3.15164 12.105228
36.539144 20.393139 -2.58122
36.414532 22.102532 -3.250333
36.697414 18.667658 -2.001357
36.819315 18.134241 -3.188312
36.539144 20.393139 -2.58122
39.829849 15.123621 -17.75
39.444032 15.702624 -16.356047
40.620399 13.521334 -18.687193
39.829849 15.123621 -17.75
36.704517 20.22106 2.351313
36.568443 19.923792 1.36896
40.976719 9.786398 -15.732424
40.240305 11.571137 -14.801838
40.483801 10.184051 -14.299282
38.474624 -1.328831 5.999436
38.34888 0.634651 5.832897
38.394413 0.584978 6.77089
38.630902 -3.170634 6.087797
38.474624 -1.328831 5.999436
38.637537 -3.268226 7.051312
38.630902 -3.170634 6.087797
39.109734 -3.55362 9.539503
38.86838 -3.452282 8.790778
39.037867 -1.637948 9.387385
39.302578 -3.663429 10.336983
39.109734 -3.55362 9.539503
40.039423 20.315472 7.797342
39.347231 20.525635 7.415765
43.181236 13.188551 9.937741
43.179406 15.179626 9.520091
41.023075 7.820527 10.617384
41.697931 9.645522 10.465196
40.490158 5.936179 10.594637
40.470585 7.991224 10.212635
41.023075 7.820527 10.617384
40.517181 3.889757 10.913185
39.964691 4.060454 10.508436
40.490158 5.936179 10.594637
40.447086 -2.105753 11.919474
40.496279 -0.130459 11.571067
40.960847 -0.261141 12.084094
39.957756 -3.894564 11.664122
40.447086 -2.105753 11.919474
36.949284 20.217243 -6.914966
36.74638 20.894355 -5.68129
37.409716 17.979784 -7.596749
37.252642 19.562773 -8.227555
36.949284 20.217243 -6.914966
38.873335 3.104826 -3.298106
39.176518 2.746549 -4.575699
38.736041 4.685636 -3.689286
39.156239 -0.052099 -2.631856
38.90074 0.106024 -1.50293
38.998939 16.191468 -14.935837
38.634506 16.868606 -13.576923
39.717428 14.341112 -15.820937
39.444032 15.702624 -16.356047
38.998939 16.191468 -14.935837
37.118077 20.621755 4.165175
36.835184 20.461769 3.316731
37.255021 18.665115 4.697486
37.118077 20.621755 4.165175
37.389828 20.734667 4.990925
40.031585 6.380396 -9.972098
39.866745 7.953735 -10.456346
39.380714 8.310507 -9.053731
40.031585 6.380396 -9.972098
40.184275 4.890441 -9.480431
38.535769 0.404769 0.742536
38.709324 0.317094 -0.349898
38.431198 0.543096 1.829785
38.535769 0.404769 0.742536
38.256189 2.266344 1.643783
38.325502 0.575431 2.888276
38.431198 0.543096 1.829785
41.498007 19.80904 8.386616
40.703548 20.104342 8.153892
41.535521 17.814476 8.818333
41.498007 19.80904 8.386616
41.602443 15.767161 9.235522
40.837343 16.047804 9.026934
41.535521 17.814476 8.818333
41.681595 3.540578 11.637704
41.026344 3.739818 11.367537
41.62507 1.545454 12.059928
41.681595 3.540578 11.637704
42.296625 3.371879 11.961945
41.575878 -0.42984 12.408335
40.960847 -0.261141 12.084094
41.62507 1.545454 12.059928
42.150999 -0.57141 12.794746
41.575878 -0.42984 12.408335
42.150999 -0.57141 12.794746
42.951237 1.19292 12.582719
36.523724 21.507089 -4.423297
36.414532 22.102532 -3.250333
36.883702 19.246988 -5.026168
36.74638 20.894355 -5.68129
36.523724 21.507089 -4.423297
38.709324 0.317094 -0.349898
38.90074 0.106024 -1.50293
38.552176 1.916946 -0.596499
36.571829 19.560924 0.282027
36.572975 19.135804 -0.813616
36.725321 17.707918 0.853965
36.571829 19.560924 0.282027
36.568443 19.923792 1.36896
36.852602 18.311495 2.906317
36.704517 20.22106 2.351313
36.835184 20.461769 3.316731
40.690113 8.707975 -13.796752
40.483801 10.184051 -14.299282
39.953699 10.492714 -12.866166
40.338814 7.520131 -11.869174
39.687942 9.450242 -10.950807
39.866745 7.953735 -10.456346
40.89706 7.294634 -13.289551
40.338814 7.520131 -11.869174
40.690113 8.707975 -13.796752
40.89706 7.294634 -13.289551
38.682999 22.636209 6.395164
38.614249 24.573927 5.832247
38.614249 24.573927 5.832247
38.026978 24.650837 5.253105
41.547303 9.656066 -17.175728
40.976719 9.786398 -15.732424
41.251805 10.944479 -17.686058
41.547303 9.656066 -17.175728
40.966454 12.28387 -18.189142
40.447872 12.512877 -16.738064
41.251805 10.944479 -17.686058
40.620399 13.521334 -18.687193
40.966454 12.28387 -18.189142
38.30805 0.643079 3.900899
38.325502 0.575431 2.888276
38.134166 2.472319 3.743654
38.272903 0.630404 4.908861
38.192692 2.544213 5.680314
38.34888 0.634651 5.832897
38.30805 0.643079 3.900899
38.272903 0.630404 4.908861
38.775715 -3.347279 7.901927
38.637537 -3.268226 7.051312
38.658335 -1.457557 7.788044
38.775715 -3.347279 7.901927
38.86838 -3.452282 8.790778
38.801989 20.645767 6.901943
38.232695 20.748087 6.362222
38.682999 22.636209 6.395164
38.896927 18.637512 7.382822
38.801989 20.645767 6.901943
39.347231 20.525635 7.415765
40.106295 18.306249 8.253195
40.039423 20.315472 7.797342
40.703548 20.104342 8.153892
42.333832 15.509058 9.443624
43.179406 15.179626 9.520091
41.635655 13.742386 9.652226
41.602443 15.767161 9.235522
42.333832 15.509058 9.443624
42.379702 11.449877 10.277669
43.181236 13.188551 9.937741
41.685272 11.679927 10.047855
42.379702 11.449877 10.277669
41.697931 9.645522 10.465196
40.500877 1.864092 11.281336
40.517181 3.889757 10.913185
41.026344 3.739818 11.367537
39.654226 -3.781322 10.972151
39.302578 -3.663429 10.336983
39.630869 -1.857178 10.771278
39.654226 -3.781322 10.972151
39.957756 -3.894564 11.664122
37.893524 18.189411 -10.864517
38.221079 17.465243 -12.186579
37.527321 18.840454 -9.509166
37.252642 19.562773 -8.227555
38.079277 16.674271 -10.264689
37.893524 18.189411 -10.864517
37.527321 18.840454 -9.509166
39.287764 5.604197 -6.73692
39.69162 5.177481 -8.104401
39.141699 7.163885 -7.202001
36.853145 16.876905 -1.42071
36.697414 18.667658 -2.001357
36.572975 19.135804 -0.813616
39.438454 3.972576 -6.3031
39.287764 5.604197 -6.73692
38.888533 5.958979 -5.400699
39.563751 2.461654 -5.855772
39.438454 3.972576 -6.3031
39.563751 2.461654 -5.855772
39.176518 2.746549 -4.575699
39.028701 1.435807 -2.967025
38.873335 3.104826 -3.298106
38.588225 3.374894 -2.080612
39.028701 1.435807 -2.967025
39.156239 -0.052099 -2.631856
3 0 67 69
3 67 16 68
3 67 68 69
3 1 19 17
3 1 70 71
3 1 72 74
3 72 17 73
3 72 73 74
3 76 75 21
3 2 23 22
3 3 26 24
3 3 28 26
3 77 31 78
3 80 79 31
3 81 32 82
3 83 34 84
3 85 84 32
3 83 84 85
3 2 37 35
3 2 22 37
3 4 86 87
3 4 88 89
3 5 41 39
3 7 42 18
3 7 43 42
3 90 45 91
3 5 46 20
3 5 39 46
3 9 49 47
3 92 50 93
3 94 93 48
3 92 93 94
3 6 51 40
3 10 95 97
3 97 96 25
3 95 96 97
3 10 98 99
3 10 100 101
3 11 102 104
3 104 103 27
3 102 103 104
3 11 105 106
3 107 52 108
3 12 53 29
3 12 54 53
3 109 55 110
3 111 56 112
3 113 57 114
3 115 114 56
3 113 114 115
3 116 58 117
3 118 117 57
3 116 117 118
3 119 59 120
3 121 120 30
3 119 120 121
3 123 122 59
3 13 124 125
3 13 126 128
3 126 60 127
3 126 127 128
3 13 61 60
3 14 62 33
3 14 63 62
3 8 64 44
3 15 65 36
3 15 66 65
3 15 129 131
3 131 130 66
3 129 130 131
3 133 132 38
3 16 134 135
3 16 136 138
3 136 4 137
3 136 137 138
3 17 18 5
3 19 18 17
3 19 7 18
3 139 20 140
3 17 141 143
3 141 20 142
3 141 142 143
3 17 5 20
3 21 144 146
3 146 145 9
3 144 145 146
3 148 147 21
3 22 149 150
3 23 151 153
3 153 152 22
3 151 152 153
3 23 154 155
3 24 25 6
3 26 25 24
3 26 10 25
3 26 27 10
3 28 27 26
3 28 11 27
3 156 29 157
3 158 29 159
3 160 12 161
3 162 161 29
3 160 161 162
3 163 30 164
3 31 165 167
3 165 30 166
3 165 166 167
3 31 168 170
3 170 169 30
3 168 169 170
3 31 171 172
3 174 173 31
3 32 175 176
3 32 177 179
3 177 13 178
3 177 178 179
3 32 33 13
3 34 33 32
3 34 14 33
3 35 36 8
3 37 36 35
3 37 15 36
3 37 38 15
3 22 38 37
3 22 180 182
3 182 181 38
3 180 181 182
3 39 40 2
3 41 40 39
3 41 6 40
3 18 41 5
3 42 41 18
3 42 6 41
3 42 24 6
3 43 24 42
3 43 3 24
3 183 44 184
3 45 185 187
3 185 44 186
3 185 186 187
3 45 8 44
3 20 188 190
3 188 45 189
3 188 189 190
3 46 45 20
3 46 8 45
3 46 35 8
3 39 35 46
3 39 2 35
3 47 48 0
3 49 48 47
3 49 191 193
3 193 192 48
3 191 192 193
3 194 49 195
3 196 195 9
3 194 195 196
3 197 49 198
3 200 199 49
3 202 201 1
3 203 1 204
3 48 16 0
3 50 16 48
3 50 4 16
3 205 50 206
3 207 50 208
3 209 4 210
3 211 210 50
3 209 210 211
3 213 212 4
3 40 23 2
3 51 23 40
3 51 214 216
3 216 215 23
3 214 215 216
3 25 51 6
3 217 51 218
3 219 218 25
3 217 218 219
3 221 220 51
3 27 222 224
3 224 223 10
3 222 223 224
3 226 225 27
3 227 19 228
3 229 228 1
3 227 228 229
3 52 230 232
3 230 19 231
3 230 231 232
3 52 7 19
3 29 233 235
3 233 52 234
3 233 234 235
3 53 52 29
3 53 7 52
3 53 43 7
3 54 43 53
3 54 3 43
3 55 236 237
3 55 238 240
3 238 12 239
3 238 239 240
3 241 55 242
3 56 243 245
3 243 55 244
3 243 244 245
3 56 12 55
3 56 54 12
3 57 54 56
3 57 3 54
3 57 28 3
3 58 28 57
3 58 11 28
3 30 246 248
3 246 58 247
3 246 247 248
3 59 58 30
3 59 11 58
3 59 249 251
3 251 250 11
3 249 250 251
3 253 252 59
3 254 0 255
3 60 256 257
3 60 258 260
3 258 0 259
3 258 259 260
3 60 47 0
3 61 47 60
3 61 9 47
3 33 61 13
3 62 61 33
3 62 9 61
3 62 21 9
3 63 21 62
3 63 261 263
3 263 262 21
3 261 262 263
3 44 264 266
3 264 34 265
3 264 265 266
3 64 34 44
3 64 14 34
3 36 64 8
3 65 64 36
3 65 14 64
3 65 63 14
3 66 63 65
3 66 267 269
3 269 268 63
3 267 268 269
3 66 270 271
3 273 272 66
3 38 274 276
3 276 275 15
3 274 275 276
3 278 277 38
