ply
format ascii 1.0
element vertex 538
property float x
property float y
property float z
element face 601
property list uchar int vertex_index
end_header
56.645882 -68.257851 40.761032
55.842518 -62.785625 20.594648
50.797157 -78.366135 22.371367
56.482155 -66.205521 30.621853
53.809883 -70.530518 21.792034
53.640564 -74.00766 32.270641
60.539753 -58.92271 27.865288
52.370216 -76.218964 42.810089
48.037212 -75.875702 50.219124
56.566299 -58.423592 11.357579
59.840019 -61.142136 3.84658
56.2603 -66.742538 12.187141
53.593819 -74.139938 12.166582
49.639908 -82.752548 33.361591
60.274921 -55.048592 17.892046
56.844284 -67.456596 35.783073
55.052483 -70.024544 31.562229
55.16584 -71.29673 36.824371
56.087021 -60.734921 15.848844
56.373589 -62.657223 11.944241
55.316513 -64.813309 16.51963
52.550217 -74.340355 22.091156
53.514313 -72.412659 16.999815
51.705704 -76.154152 17.123446
49.620605 -80.505623 43.549721
51.082626 -79.691376 38.370743
48.384796 -84.248131 38.862526
57.832291 -60.839977 24.332111
60.385586 -57.163506 22.78661
57.615032 -58.867374 19.442169
57.599243 -56.642025 14.747515
62.770279 -61.400982 -0.136478
56.016014 -64.614273 25.531586
54.739258 -66.6996 21.348103
54.747211 -68.446083 26.373795
53.623352 -72.328751 26.94573
52.202835 -76.34639 27.400673
58.254681 -62.512909 29.38158
54.66124 -72.125168 41.884689
53.295826 -72.413338 46.243
50.613831 -76.422272 47.180618
57.485092 -60.067684 7.705623
58.205032 -64.307419 7.845389
54.661835 -68.711929 16.852802
55.424728 -70.526665 12.208998
56.546593 -72.065514 7.610638
53.335503 -75.365936 37.660774
51.87624 -78.222534 32.870422
50.31958 -80.670876 27.807423
48.201363 -85.419426 27.997688
63.343346 -55.432106 26.163612
56.839844 -67.918373 38.320145
56.005096 -69.350143 36.334148
55.937759 -69.817238 38.891777
55.91806 -61.790737 18.19483
55.643333 -62.787544 16.233408
55.376823 -63.796719 18.598675
51.725426 -76.307404 22.232433
52.097244 -75.258904 19.614388
51.156197 -77.23468 19.718796
50.667419 -78.162315 17.191591
50.163029 -79.330704 19.815479
49.015366 -82.427124 41.312263
56.687332 -61.799229 22.502506
57.692261 -59.887787 21.864681
56.622826 -60.819843 20.070368
56.641144 -59.779938 17.686172
56.232986 -65.444656 28.06024
55.334465 -66.524918 25.994328
55.524616 -67.342422 28.543999
54.369583 -71.992363 31.937454
54.28326 -71.212257 29.292889
53.641827 -73.19516 29.590267
52.970581 -74.311111 27.17915
52.916382 -75.224884 29.861725
57.548611 -65.030121 32.606583
57.311596 -64.345261 30.039429
57.057922 -63.569672 27.492411
54.471436 -70.460297 45.690166
49.564911 -73.990562 49.816208
50.902058 -74.28479 48.46637
49.42749 -76.246002 48.890129
49.097504 -78.453049 47.554977
47.84293 -78.194153 49.237358
56.798798 -59.292294 9.561369
56.363731 -64.732758 12.101545
57.140629 -63.538498 9.908978
57.22892 -65.604065 9.974154
58.299774 -66.359756 7.835892
57.104836 -67.593338 9.98295
54.2883 -68.626015 21.599566
54.563908 -67.723343 19.131395
54.135906 -69.62587 19.292347
53.515709 -73.289291 14.577348
54.350494 -71.479904 14.561199
54.620384 -72.333427 12.186087
55.964722 -71.334885 9.893976
54.95575 -73.140739 9.834854
53.567619 -74.144569 42.369156
54.024639 -73.789009 39.870872
52.947205 -75.865417 40.294838
50.373756 -81.276367 35.91851
51.557056 -79.024391 35.632286
50.80909 -80.445404 33.139805
51.106747 -79.493011 30.364262
50.036831 -81.762436 30.575855
61.849388 -57.894516 29.645191
63.190163 -56.163696 28.813499
61.886055 -57.164085 27.029018
60.327347 -56.145931 20.314945
61.918343 -55.371914 21.914055
61.89362 -53.195118 16.997913
60.212082 -53.885098 15.517117
56.836075 -57.522449 13.087651
57.614594 -55.459415 12.485532
56.952187 -56.32515 10.893545
56.706192 -66.881378 33.20406
55.741123 -68.09726 31.127748
55.921722 -68.772133 33.732742
55.163696 -70.708496 34.195625
54.39032 -72.69574 34.603142
57.711048 -65.609451 35.170673
56.316582 -59.612148 13.565594
56.403809 -60.543434 11.701454
56.001419 -61.707371 13.930637
55.807076 -63.780903 14.19582
55.633968 -65.805962 14.374484
53.243156 -72.42659 21.948729
53.602234 -71.496635 19.412106
52.923843 -73.361351 19.513746
52.67849 -74.254608 17.058083
52.507935 -75.129242 14.600522
52.428867 -76.006096 12.160036
51.406494 -77.057312 14.633668
51.053593 -78.343254 43.208405
51.753632 -78.001976 40.684666
50.43792 -80.194046 41.032982
49.77755 -81.948494 38.661629
49.09346 -83.595642 36.138271
59.160316 -59.891624 26.107864
60.457817 -58.091881 25.305412
59.015495 -58.987156 23.598276
58.907825 -58.001106 21.132084
58.835808 -56.940773 18.712828
58.785618 -55.815033 16.3424
57.591061 -57.78307 17.06835
56.722237 -58.679268 15.355884
60.476952 -63.269161 3.782195
61.907791 -63.509041 1.7535
55.876839 -63.726181 23.041771
55.2341 -64.750061 21.017828
55.225006 -65.658585 23.48447
54.680107 -67.588196 23.838589
54.179298 -69.511757 24.118641
54.891937 -69.263809 28.950377
54.197273 -70.378441 26.684336
53.656654 -71.434052 24.344826
53.05439 -73.36972 24.539715
52.335159 -75.342979 24.722387
51.491417 -77.384315 24.90152
58.02813 -61.718166 26.840061
56.837921 -62.717518 24.977966
56.227386 -68.469742 43.039429
55.677826 -70.162941 41.349831
55.19548 -70.379425 43.640327
54.094769 -72.341721 44.188515
52.900829 -74.353638 44.684566
52.256214 -72.33168 47.978817
52.014046 -74.403786 46.740116
51.594109 -76.409531 45.131409
50.168186 -78.499176 45.524433
58.535545 -60.696548 5.797466
56.9538 -61.422466 9.775856
57.888435 -62.197403 7.804318
59.101112 -62.824078 5.802101
59.455414 -64.927071 5.770986
54.951447 -65.778954 18.906399
55.018532 -66.791718 16.720428
55.382648 -67.763657 14.481806
54.174511 -70.578156 16.938126
54.971115 -69.649857 14.536643
55.967339 -68.67215 12.216534
56.69175 -69.498566 9.949953
55.010254 -71.773254 39.406624
54.289406 -73.300812 37.262207
53.555229 -74.739487 34.970657
52.271454 -77.49556 38.030602
52.618275 -76.846619 35.31221
52.819038 -76.080322 32.578651
52.073555 -77.318192 30.119989
51.312057 -78.45903 27.614357
50.547096 -79.524048 25.070063
47.75462 -85.957268 36.240921
48.407028 -85.132446 33.49255
47.747696 -86.567169 30.742893
48.90313 -84.126945 30.71839
49.267349 -82.993294 27.94968
49.548912 -81.78389 25.203728
49.819092 -80.548523 22.489786
61.906307 -56.32077 24.448032
58.736961 -54.638386 14.022362
57.116997 -67.332142 40.442307
56.928959 -67.435051 41.577665
56.742863 -68.088112 39.540588
57.213978 -67.162403 39.221863
57.116997 -67.332142 40.442307
56.682548 -58.857943 10.459474
56.799057 -58.238264 9.402799
56.682807 -57.803914 10.300904
53.670891 -74.55637 10.976889
54.351856 -74.05677 9.811025
54.274785 -73.640338 11.000718
61.096624 -54.687309 18.661541
61.122837 -55.235979 19.872991
60.301134 -55.597262 19.103496
61.084271 -54.121855 17.44498
61.905974 -53.760573 18.214475
61.096624 -54.687309 18.661541
56.682807 -57.803914 10.300904
56.875751 -56.754693 10.068887
56.759243 -57.374371 11.125562
60.103836 -60.203323 2.914854
59.433967 -60.088161 3.874379
57.277666 -66.533024 35.476873
57.726112 -65.840187 36.43234
57.292731 -66.763759 36.73854
50.488752 -78.643497 15.927801
50.158218 -79.240657 17.216801
61.345745 -64.438633 2.725538
61.192372 -63.389101 2.767848
60.630325 -64.318693 3.739886
58.871342 -61.96571 30.302252
58.36268 -62.862147 30.662678
58.791334 -61.609358 29.017718
58.871342 -61.96571 30.302252
58.141405 -62.115538 28.11082
58.678059 -61.211986 27.746958
58.791334 -61.609358 29.017718
55.378296 -69.46508 44.362164
55.711433 -69.424583 43.339878
55.894249 -68.510238 44.061715
51.61525 -72.211342 48.662233
52.259749 -71.262764 48.395433
48.865963 -79.528008 46.698771
48.290833 -79.460926 47.695999
55.894249 -68.510238 44.061715
56.406525 -67.578735 43.737766
57.70117 -59.331692 6.730894
57.313826 -59.016149 7.620299
58.010318 -60.382116 6.751544
58.226396 -59.646124 5.776815
57.70117 -59.331692 6.730894
58.886578 -66.66494 6.769796
58.186983 -67.346229 7.809904
57.015263 -71.145939 7.656741
56.724327 -70.780625 8.79841
56.255657 -71.700199 8.752307
57.415859 -71.451878 6.549727
57.015263 -71.145939 7.656741
56.840855 -72.385128 6.490673
57.415859 -71.451878 6.549727
52.443843 -76.450672 10.957095
51.832273 -76.998955 12.16093
47.452414 -86.754551 34.859312
47.075156 -87.135106 36.203277
47.778618 -86.34214 33.485126
48.080824 -85.544857 34.866736
47.452414 -86.754551 34.859312
47.97453 -85.993298 29.37029
47.450508 -87.243199 29.322799
47.677341 -86.669327 27.950197
49.200539 -82.327259 23.879141
49.048956 -82.976212 25.233963
49.335628 -81.709575 22.52217
49.684002 -81.166207 23.846757
49.200539 -82.327259 23.879141
49.504559 -81.061672 21.183453
49.335628 -81.709575 22.52217
63.972409 -54.945763 27.070419
63.895817 -55.311557 28.395363
63.266754 -55.797901 27.488556
64.10215 -54.58143 25.728467
63.972409 -54.945763 27.070419
62.693139 -54.97608 22.735839
62.74096 -54.493 21.459372
58.142603 -54.446981 12.120336
57.616062 -54.861217 11.388369
62.301184 -60.340372 -0.058827
62.02812 -61.391333 0.864295
57.29051 -66.994648 38.007076
57.213978 -67.162403 39.221863
56.842064 -67.687485 37.051609
57.292731 -66.763759 36.73854
57.29051 -66.994648 38.007076
49.906023 -79.824852 18.528745
50.158218 -79.240657 17.216801
50.415224 -78.74651 18.503535
48.554268 -82.554169 42.555508
49.317985 -81.466374 42.430992
48.856887 -81.593418 43.674236
48.266785 -83.548401 41.393055
48.554268 -82.554169 42.555508
47.9515 -84.458905 40.168186
48.700081 -83.337627 40.087395
48.266785 -83.548401 41.393055
58.009646 -64.120752 32.275179
58.086214 -64.414872 33.555039
57.891138 -63.778323 30.991602
58.009646 -64.120752 32.275179
57.430104 -64.687691 31.323006
57.783138 -63.429085 29.710504
58.36268 -62.862147 30.662678
57.891138 -63.778323 30.991602
54.552807 -69.479347 46.259123
55.016273 -69.505516 45.387083
53.983211 -70.430088 46.560672
54.552807 -69.479347 46.259123
53.395406 -71.406609 46.83709
53.883631 -71.436817 45.966583
53.983211 -70.430088 46.560672
50.233485 -74.137676 49.141289
50.938171 -73.187896 48.90601
50.269598 -73.040783 49.580929
47.663545 -79.331478 48.537189
48.290833 -79.460926 47.695999
48.470217 -78.323601 48.396168
56.970678 -58.628455 8.548172
56.799057 -58.238264 9.402799
57.141945 -59.679989 8.633496
57.313826 -59.016149 7.620299
56.970678 -58.628455 8.548172
57.589514 -67.96302 8.883433
58.186983 -67.346229 7.809904
57.702305 -66.976547 8.909421
55.146782 -73.519165 8.679699
55.942204 -72.981552 7.567591
55.751171 -72.603127 8.722746
55.146782 -73.519165 8.679699
54.351856 -74.05677 9.811025
47.892952 -86.039624 26.601992
47.677341 -86.669327 27.950197
48.375181 -84.79398 26.630943
47.892952 -86.039624 26.601992
62.519775 -57.029106 29.229345
63.093864 -56.467081 30.149989
62.423477 -57.332491 30.565835
61.918335 -54.848971 20.672545
61.122845 -55.758922 21.1145
61.122837 -55.235979 19.872991
62.74096 -54.493 21.459372
61.918335 -54.848971 20.672545
62.757345 -52.86903 17.751836
61.905974 -53.760573 18.214475
62.759623 -52.288285 16.527449
62.757345 -52.86903 17.751836
61.860438 -52.596063 15.804534
62.759623 -52.288285 16.527449
61.019669 -52.941053 15.064136
61.860438 -52.596063 15.804534
61.052851 -53.540108 16.257515
60.166256 -53.280585 14.352904
61.019669 -52.941053 15.064136
57.284859 -55.294085 10.592375
57.616062 -54.861217 11.388369
57.28339 -55.892283 11.689538
57.001419 -55.722624 9.843096
57.284859 -55.294085 10.592375
57.001419 -55.722624 9.843096
56.875751 -56.754693 10.068887
63.048905 -60.237547 -1.054876
63.487541 -61.297579 -1.144381
58.1844 -64.937423 36.097124
57.726112 -65.840187 36.43234
58.167433 -64.704537 34.837084
58.1844 -64.937423 36.097124
57.629829 -65.319786 33.888628
58.086214 -64.414872 33.555039
58.167433 -64.704537 34.837084
49.51091 -72.840351 50.070931
50.269598 -73.040783 49.580929
48.787918 -73.755939 50.297745
49.51091 -72.840351 50.070931
48.024068 -74.69851 50.499203
48.801062 -74.933132 50.017666
48.787918 -73.755939 50.297745
51.321087 -77.524563 13.397746
51.832273 -76.998955 12.16093
51.917681 -76.531704 13.396852
50.858289 -78.090996 14.648839
51.036957 -77.609814 15.912629
50.488752 -78.643497 15.927801
51.321087 -77.524563 13.397746
50.858289 -78.090996 14.648839
60.881456 -62.325422 2.823632
60.56299 -61.26191 2.855824
60.158485 -62.205648 3.814388
61.596876 -62.445362 1.809284
60.881456 -62.325422 2.823632
61.192372 -63.389101 2.767848
62.339035 -62.455011 0.808511
62.02812 -61.391333 0.864295
61.596876 -62.445362 1.809284
62.001438 -64.559117 1.691801
61.345745 -64.438633 2.725538
62.603977 -63.519115 0.736518
62.001438 -64.559117 1.691801
63.035221 -62.465086 -0.208471
62.339035 -62.455011 0.808511
62.603977 -63.519115 0.736518
63.487541 -61.297579 -1.144381
63.035221 -62.465086 -0.208471
61.812053 -58.19948 30.959429
62.423477 -57.332491 30.565835
61.230896 -58.770634 30.049145
61.812053 -58.19948 30.959429
60.576078 -59.284731 29.159193
61.19457 -58.408613 28.75524
61.230896 -58.770634 30.049145
59.93387 -59.814259 28.259572
60.576078 -59.284731 29.159193
59.244152 -60.298716 27.38086
59.850034 -59.407167 26.986576
59.93387 -59.814259 28.259572
58.594223 -60.804895 26.473962
59.244152 -60.298716 27.38086
58.678059 -61.211986 27.746958
54.833458 -70.419861 44.665246
55.378296 -69.46508 44.362164
55.016273 -69.505516 45.387083
52.875601 -71.36578 47.704998
52.259749 -71.262764 48.395433
52.77602 -72.372509 47.110909
53.395406 -71.406609 46.83709
52.875601 -71.36578 47.704998
51.579136 -73.308235 48.222594
51.61525 -72.211342 48.662233
50.938171 -73.187896 48.90601
49.401304 -79.551071 45.683498
49.632845 -78.476112 46.539705
48.865963 -79.528008 46.698771
49.127513 -80.554294 44.696143
49.894396 -79.502399 44.537077
49.401304 -79.551071 45.683498
48.856887 -81.593418 43.674236
49.127513 -80.554294 44.696143
47.244997 -75.595127 50.693683
48.024068 -74.69851 50.499203
47.222894 -76.798073 50.38002
47.244997 -75.595127 50.693683
47.125754 -77.957299 49.889137
47.940071 -77.034928 49.728241
47.222894 -76.798073 50.38002
47.008486 -79.144588 49.358368
47.125754 -77.957299 49.889137
47.663545 -79.331478 48.537189
47.008486 -79.144588 49.358368
56.719711 -67.540997 42.716864
56.406525 -67.578735 43.737766
56.436634 -68.363797 41.90023
56.928959 -67.435051 41.577665
56.719711 -67.540997 42.716864
58.78173 -59.865368 4.849823
58.226396 -59.646124 5.776815
59.187782 -60.919342 4.822023
59.433967 -60.088161 3.874379
58.78173 -59.865368 4.849823
60.119557 -65.147648 4.734281
60.630325 -64.318693 3.739886
59.966183 -64.098116 4.776591
59.464398 -65.948597 5.737343
58.877594 -65.643414 6.803439
58.886578 -66.66494 6.769796
60.119557 -65.147648 4.734281
59.464398 -65.948597 5.737343
57.382971 -68.915634 8.866934
57.589514 -67.96302 8.883433
56.898293 -68.545952 9.966452
57.087841 -69.862465 8.826399
56.328236 -70.416725 9.921965
56.724327 -70.780625 8.79841
57.382971 -68.915634 8.866934
57.087841 -69.862465 8.826399
56.840855 -72.385128 6.490673
55.942204 -72.981552 7.567591
53.088415 -75.489449 10.973616
53.670891 -74.55637 10.976889
53.011343 -75.073017 12.163309
53.088415 -75.489449 10.973616
52.443843 -76.450672 10.957095
47.66415 -85.399506 38.88904
47.9515 -84.458905 40.168186
47.349062 -86.254074 37.578238
47.075156 -87.135106 36.203277
48.069708 -85.102699 37.551724
47.66415 -85.399506 38.88904
47.349062 -86.254074 37.578238
47.173448 -87.803539 30.669745
47.450508 -87.243199 29.322799
47.448952 -87.059502 32.110298
47.173448 -87.803539 30.669745
48.077362 -85.849807 32.117722
47.778618 -86.34214 33.485126
47.448952 -87.059502 32.110298
48.908175 -83.580914 26.606939
48.734356 -84.20636 27.973684
48.375181 -84.79398 26.630943
49.40813 -82.388592 26.576704
48.908175 -83.580914 26.606939
49.048956 -82.976212 25.233963
49.676527 -80.452763 19.846299
49.991061 -79.939614 21.152632
49.504559 -81.061672 21.183453
49.906023 -79.824852 18.528745
49.676527 -80.452763 19.846299
63.742966 -55.610401 29.754931
63.093864 -56.467081 30.149989
63.742966 -55.610401 29.754931
63.895817 -55.311557 28.395363
62.68712 -55.450508 24.002828
61.912325 -55.846342 23.181044
62.693139 -54.97608 22.735839
63.40564 -55.006176 24.860618
62.624826 -55.876438 25.305822
62.68712 -55.450508 24.002828
64.10215 -54.58143 25.728467
63.40564 -55.006176 24.860618
59.428696 -53.657229 13.605526
60.166256 -53.280585 14.352904
59.474522 -54.261742 14.76974
58.703786 -54.036467 12.888751
58.175777 -55.048901 13.253947
58.142603 -54.446981 12.120336
59.428696 -53.657229 13.605526
58.703786 -54.036467 12.888751
60.103836 -60.203323 2.914854
60.56299 -61.26191 2.855824
62.301184 -60.340372 -0.058827
63.048905 -60.237547 -1.054876
3 0 53 51
3 0 201 202
3 0 203 205
3 203 51 204
3 203 204 205
3 1 56 54
3 2 59 57
3 2 61 59
3 1 65 63
3 1 54 65
3 3 69 67
3 5 72 70
3 5 74 72
3 3 76 75
3 3 67 76
3 8 81 79
3 8 83 81
3 9 206 208
3 206 84 207
3 206 207 208
3 11 87 85
3 11 89 87
3 4 92 90
3 12 95 93
3 12 97 95
3 12 209 211
3 211 210 97
3 209 210 211
3 7 100 98
3 13 103 101
3 13 105 103
3 6 108 106
3 14 212 214
3 214 213 109
3 212 213 214
3 14 215 217
3 215 111 216
3 215 216 217
3 14 112 111
3 9 115 113
3 9 218 220
3 220 219 115
3 218 219 220
3 10 221 222
3 15 118 116
3 17 119 52
3 17 120 119
3 15 223 225
3 223 121 224
3 223 224 225
3 15 116 121
3 18 124 122
3 20 125 55
3 20 126 125
3 21 129 127
3 23 130 58
3 23 131 130
3 23 133 131
3 227 226 60
3 24 136 134
3 26 137 62
3 26 138 137
3 27 141 139
3 29 142 64
3 29 143 142
3 29 145 143
3 18 146 66
3 18 122 146
3 228 148 229
3 230 229 147
3 228 229 230
3 32 151 149
3 34 152 68
3 34 153 152
3 16 154 117
3 35 155 71
3 35 156 155
3 35 157 156
3 36 158 73
3 36 159 158
3 37 231 232
3 37 233 234
3 37 235 237
3 235 160 236
3 235 236 237
3 32 161 77
3 32 149 161
3 238 164 239
3 240 239 162
3 238 239 240
3 39 165 78
3 39 166 165
3 241 167 242
3 40 168 80
3 40 169 168
3 40 170 169
3 244 243 82
3 245 162 246
3 41 247 248
3 41 249 251
3 249 171 250
3 249 250 251
3 19 172 123
3 42 173 86
3 42 174 173
3 42 175 174
3 253 252 88
3 33 176 150
3 43 177 91
3 43 178 177
3 22 179 128
3 44 180 94
3 44 181 180
3 44 182 181
3 45 254 256
3 256 255 96
3 254 255 256
3 45 257 258
3 45 259 260
3 262 261 132
3 38 183 163
3 46 184 99
3 46 185 184
3 25 186 135
3 47 187 102
3 47 188 187
3 47 189 188
3 48 190 104
3 48 191 190
3 263 192 264
3 265 193 266
3 267 266 192
3 265 266 267
3 49 268 270
3 268 194 269
3 268 269 270
3 49 195 194
3 49 196 195
3 271 197 272
3 273 198 274
3 275 274 197
3 273 274 275
3 277 276 198
3 50 278 280
3 280 279 107
3 278 279 280
3 50 281 282
3 28 199 140
3 284 283 110
3 30 200 144
3 286 285 114
3 31 287 288
3 51 52 15
3 53 52 51
3 53 17 52
3 51 289 290
3 51 291 293
3 291 15 292
3 291 292 293
3 54 55 18
3 56 55 54
3 56 20 55
3 57 58 21
3 59 58 57
3 59 23 58
3 59 60 23
3 61 60 59
3 61 294 296
3 296 295 60
3 294 295 296
3 297 62 298
3 299 298 24
3 297 298 299
3 300 62 301
3 302 26 303
3 304 303 62
3 302 303 304
3 63 64 27
3 65 64 63
3 65 29 64
3 65 66 29
3 54 66 65
3 54 18 66
3 67 68 32
3 69 68 67
3 69 34 68
3 70 71 16
3 72 71 70
3 72 35 71
3 72 73 35
3 74 73 72
3 74 36 73
3 75 305 306
3 76 307 309
3 309 308 75
3 307 308 309
3 76 310 312
3 310 37 311
3 310 311 312
3 76 77 37
3 67 77 76
3 67 32 77
3 313 78 314
3 315 78 316
3 317 39 318
3 319 318 78
3 317 318 319
3 79 320 322
3 320 80 321
3 320 321 322
3 81 80 79
3 81 40 80
3 81 82 40
3 83 82 81
3 83 323 325
3 325 324 82
3 323 324 325
3 84 326 327
3 84 328 330
3 328 41 329
3 328 329 330
3 85 86 19
3 87 86 85
3 87 42 86
3 87 88 42
3 89 88 87
3 89 331 333
3 333 332 88
3 331 332 333
3 90 91 33
3 92 91 90
3 92 43 91
3 93 94 22
3 95 94 93
3 95 44 94
3 95 96 44
3 97 96 95
3 97 45 96
3 97 334 336
3 336 335 45
3 334 335 336
3 338 337 97
3 98 99 38
3 100 99 98
3 100 46 99
3 101 102 25
3 103 102 101
3 103 47 102
3 103 104 47
3 105 104 103
3 105 48 104
3 339 49 340
3 342 341 49
3 106 343 345
3 343 107 344
3 343 344 345
3 108 107 106
3 108 50 107
3 109 110 28
3 346 110 347
3 348 347 109
3 346 347 348
3 350 349 110
3 111 351 352
3 111 353 354
3 111 355 356
3 112 357 359
3 359 358 111
3 357 358 359
3 112 360 361
3 113 114 30
3 115 114 113
3 115 362 364
3 364 363 114
3 362 363 364
3 115 365 366
3 368 367 115
3 370 369 31
3 116 117 3
3 118 117 116
3 118 16 117
3 52 118 15
3 119 118 52
3 119 16 118
3 119 70 16
3 120 70 119
3 120 5 70
3 121 371 372
3 121 373 374
3 121 375 377
3 375 75 376
3 375 376 377
3 116 75 121
3 116 3 75
3 378 79 379
3 380 79 381
3 382 8 383
3 384 383 79
3 382 383 384
3 122 123 9
3 124 123 122
3 124 19 123
3 55 124 18
3 125 124 55
3 125 19 124
3 125 85 19
3 126 85 125
3 126 11 85
3 127 128 4
3 129 128 127
3 129 22 128
3 58 129 21
3 130 129 58
3 130 22 129
3 130 93 22
3 131 93 130
3 131 12 93
3 131 132 12
3 133 132 131
3 133 385 387
3 387 386 132
3 385 386 387
3 60 133 23
3 388 133 389
3 390 389 60
3 388 389 390
3 392 391 133
3 134 135 7
3 136 135 134
3 136 25 135
3 62 136 24
3 137 136 62
3 137 25 136
3 137 101 25
3 138 101 137
3 138 13 101
3 139 140 6
3 141 140 139
3 141 28 140
3 64 141 27
3 142 141 64
3 142 28 141
3 142 109 28
3 143 109 142
3 143 14 109
3 143 144 14
3 145 144 143
3 145 30 144
3 66 145 29
3 146 145 66
3 146 30 145
3 146 113 30
3 122 113 146
3 122 9 113
3 147 393 395
3 395 394 10
3 393 394 395
3 148 396 398
3 398 397 147
3 396 397 398
3 148 399 401
3 399 31 400
3 399 400 401
3 402 148 403
3 404 148 405
3 406 31 407
3 408 407 148
3 406 407 408
3 410 409 31
3 149 150 1
3 151 150 149
3 151 33 150
3 68 151 32
3 152 151 68
3 152 33 151
3 152 90 33
3 153 90 152
3 153 4 90
3 117 69 3
3 154 69 117
3 154 34 69
3 71 154 16
3 155 154 71
3 155 34 154
3 155 153 34
3 156 153 155
3 156 4 153
3 156 127 4
3 157 127 156
3 157 21 127
3 73 157 35
3 158 157 73
3 158 21 157
3 158 57 21
3 159 57 158
3 159 2 57
3 411 106 412
3 413 106 414
3 415 6 416
3 417 416 106
3 415 416 417
3 418 6 419
3 420 139 421
3 422 421 6
3 420 421 422
3 160 423 425
3 423 139 424
3 423 424 425
3 160 27 139
3 77 160 37
3 161 160 77
3 161 27 160
3 161 63 27
3 149 63 161
3 149 1 63
3 162 163 0
3 164 163 162
3 164 38 163
3 78 426 428
3 426 164 427
3 426 427 428
3 165 164 78
3 165 38 164
3 165 98 38
3 166 98 165
3 166 7 98
3 167 429 430
3 167 431 433
3 431 39 432
3 431 432 433
3 80 434 436
3 434 167 435
3 434 435 436
3 168 167 80
3 168 39 167
3 168 166 39
3 169 166 168
3 169 7 166
3 169 134 7
3 170 134 169
3 170 24 134
3 82 170 40
3 437 170 438
3 439 438 82
3 437 438 439
3 440 24 441
3 442 441 170
3 440 441 442
3 444 443 24
3 445 8 446
3 447 8 448
3 449 83 450
3 451 450 8
3 449 450 451
3 452 83 453
3 455 454 83
3 162 456 457
3 162 458 460
3 458 0 459
3 458 459 460
3 171 461 462
3 171 463 465
3 463 10 464
3 463 464 465
3 123 84 9
3 172 84 123
3 172 41 84
3 86 172 19
3 173 172 86
3 173 41 172
3 173 171 41
3 174 171 173
3 174 10 171
3 174 147 10
3 175 147 174
3 175 466 468
3 468 467 147
3 466 467 468
3 88 175 42
3 469 175 470
3 471 470 88
3 469 470 471
3 473 472 175
3 150 56 1
3 176 56 150
3 176 20 56
3 91 176 33
3 177 176 91
3 177 20 176
3 177 126 20
3 178 126 177
3 178 11 126
3 128 92 4
3 179 92 128
3 179 43 92
3 94 179 22
3 180 179 94
3 180 43 179
3 180 178 43
3 181 178 180
3 181 11 178
3 181 89 11
3 182 89 181
3 182 474 476
3 476 475 89
3 474 475 476
3 96 182 44
3 477 182 478
3 479 478 96
3 477 478 479
3 481 480 182
3 483 482 45
3 132 484 486
3 486 485 12
3 484 485 486
3 488 487 132
3 163 53 0
3 183 53 163
3 183 17 53
3 99 183 38
3 184 183 99
3 184 17 183
3 184 120 17
3 185 120 184
3 185 5 120
3 135 100 7
3 186 100 135
3 186 46 100
3 102 186 25
3 187 186 102
3 187 46 186
3 187 185 46
3 188 185 187
3 188 5 185
3 188 74 5
3 189 74 188
3 189 36 74
3 104 189 47
3 190 189 104
3 190 36 189
3 190 159 36
3 191 159 190
3 191 2 159
3 489 26 490
3 192 491 492
3 192 493 495
3 493 26 494
3 493 494 495
3 192 138 26
3 193 138 192
3 193 13 138
3 194 496 497
3 194 498 499
3 194 500 502
3 500 193 501
3 500 501 502
3 195 193 194
3 195 13 193
3 195 105 13
3 196 105 195
3 196 48 105
3 503 196 504
3 505 504 49
3 503 504 505
3 197 506 508
3 506 196 507
3 506 507 508
3 197 48 196
3 197 191 48
3 198 191 197
3 198 2 191
3 198 61 2
3 509 61 510
3 511 510 198
3 509 510 511
3 513 512 61
3 107 514 515
3 517 516 107
3 140 108 6
3 199 108 140
3 199 50 108
3 110 199 28
3 518 199 519
3 520 519 110
3 518 519 520
3 521 50 522
3 523 522 199
3 521 522 523
3 525 524 50
3 144 112 14
3 200 112 144
3 200 526 528
3 528 527 112
3 526 527 528
3 114 200 30
3 529 200 530
3 531 530 114
3 529 530 531
3 533 532 200
3 535 534 10
3 537 536 31
