ply
format ascii 1.0
element vertex 316
property float x
property float y
property float z
element face 332
property list uchar int vertex_index
end_header
-16.158829 -112.537033 -20.955261
-39.227745 -104.517731 -20.471245
-27.921629 -117.88504 -19.970753
-38.383682 -110.252457 -14.514956
-28.134079 -110.573593 -23.388523
-33.306656 -115.458725 -13.833199
-33.90892 -111.722214 -20.811638
-27.97963 -114.814468 -22.348881
-34.071095 -107.922363 -22.698399
-34.262367 -103.128738 -23.730389
-39.325001 -100.139297 -22.292507
-33.619415 -114.31813 -17.789303
-38.936657 -107.937851 -17.90097
-22.749039 -106.53952 -22.262402
-10.461893 -121.49762 -17.98275
-15.685439 -117.668777 -20.986736
-21.782608 -120.463547 -20.681019
-21.700813 -116.876083 -22.305347
-21.967106 -112.193909 -22.617714
-28.563578 -105.364975 -23.603123
-41.971733 -106.1828 -10.585917
-42.768929 -103.894913 -14.151756
-43.291107 -100.712555 -17.186558
-43.496815 -96.714951 -19.612328
-43.570206 -91.882935 -21.696682
-36.69223 -108.225204 -20.749702
-34.000351 -109.956696 -21.889599
-36.773708 -106.294418 -21.756489
-36.831028 -104.118454 -22.554985
-39.286163 -102.4431 -21.455284
-13.132877 -114.991516 -20.088528
-35.892296 -113.01886 -14.347952
-33.447525 -115.081894 -15.898355
-36.141113 -112.313553 -16.258785
-36.374043 -111.263077 -17.992622
-38.686157 -109.244492 -16.296293
-26.087029 -103.052856 -22.896152
-13.017134 -121.800568 -19.050182
-12.911697 -119.806564 -19.69836
-15.683014 -119.835327 -20.618565
-24.92651 -120.470718 -18.937511
-21.89794 -121.766312 -19.257366
-24.870895 -119.322647 -20.521858
-28.033651 -112.823792 -23.011169
-24.844423 -115.990768 -22.516624
-24.902176 -113.886734 -22.973419
-21.776848 -114.661102 -22.587727
-25.040724 -111.528717 -23.156696
-25.281666 -108.931885 -23.151501
-28.305708 -108.083618 -23.558659
-36.998642 -99.072693 -23.759872
-34.429596 -100.390793 -24.088943
-44.241844 -101.901001 -12.124834
-44.605633 -100.435608 -13.807232
-43.071022 -102.409134 -15.749834
-44.900166 -98.785141 -15.350063
-45.248032 -94.951096 -18.022816
-45.325981 -92.755142 -19.210308
-43.531784 -94.407593 -20.672905
-38.057331 -110.949142 -12.616816
-30.951498 -114.956879 -20.576096
-27.947203 -116.514816 -21.34351
-31.026506 -113.378937 -21.776779
-31.091948 -111.502625 -22.65324
-31.169361 -109.36058 -23.24625
-31.286072 -106.975281 -23.621716
-34.148895 -105.641846 -23.289608
-36.896744 -101.709213 -23.201843
-39.379051 -97.608826 -23.039459
-30.860504 -116.197525 -19.045753
-33.780952 -113.187698 -19.441238
-36.561699 -109.890549 -19.497646
-39.117401 -106.354782 -19.29438
-19.401768 -109.709244 -21.643326
-16.674129 -109.580673 -20.713181
-19.978065 -106.636169 -21.362564
-12.93619 -117.536087 -20.02198
-15.833959 -115.23439 -21.072353
-18.890951 -122.723892 -19.196411
-18.732075 -121.272171 -20.459564
-24.841095 -117.815002 -21.713932
-21.711559 -118.820236 -21.689552
-18.635656 -119.501251 -21.304882
-18.625328 -117.443146 -21.771221
-18.732506 -115.1185 -21.927422
-18.985909 -112.538528 -21.85677
-22.290241 -109.48468 -22.482357
-25.633427 -106.104538 -23.040943
-28.906326 -102.424606 -23.594704
-31.464251 -104.35994 -23.855598
-31.711765 -101.522385 -24.019665
-40.325676 -108.195175 -12.610954
-43.823547 -103.168701 -10.3302
-42.398312 -105.155884 -12.415257
-40.69397 -107.192108 -14.418324
-41.006889 -105.921432 -16.095854
-41.246174 -104.398163 -17.601406
-41.403378 -102.639954 -18.919464
-45.113365 -96.957535 -16.748829
-43.427467 -98.814316 -18.464962
-41.487617 -100.659058 -20.062416
-41.525909 -98.459702 -21.066402
-41.555149 -96.039764 -21.981678
-41.608982 -93.395737 -22.860226
-14.846114 -112.355423 -20.463052
-13.333137 -113.582664 -20.029686
-14.645853 -113.764274 -20.521895
-26.35222 -101.419136 -22.834043
-27.700989 -101.161537 -23.243259
-14.403541 -121.761887 -19.473408
-13.115009 -122.654564 -18.538227
-15.736481 -120.779267 -20.257599
-14.350074 -120.817948 -19.834373
-14.403541 -121.761887 -19.473408
-37.073721 -97.643318 -24.022463
-38.235567 -96.96296 -23.755012
-45.430447 -98.667228 -13.637805
-45.243376 -99.474564 -12.814965
-45.577713 -97.841995 -14.40922
-44.752899 -99.610375 -14.578648
-45.430447 -98.667228 -13.637805
-46.199036 -90.80143 -19.075836
-46.141979 -91.938744 -18.445162
-45.354038 -91.554985 -19.784691
-46.199036 -90.80143 -19.075836
-37.897754 -111.145629 -11.650229
-36.863979 -112.159447 -12.474175
-32.005336 -116.491165 -14.490416
-32.014381 -116.512894 -13.372705
-32.193185 -115.69046 -17.502938
-32.107241 -116.072342 -16.557464
-33.53347 -114.700012 -16.843829
-32.239959 -115.257827 -18.417528
-30.81373 -116.630157 -18.131163
-32.193185 -115.69046 -17.502938
-9.403465 -122.107048 -16.890857
-10.559252 -122.403282 -17.499125
-9.31083 -121.157608 -17.36503
-9.403465 -122.107048 -16.890857
-10.414298 -120.452507 -18.293577
-9.31083 -121.157608 -17.36503
-33.181083 -99.478653 -24.221184
-33.07068 -100.956589 -24.054304
-34.539999 -98.912857 -24.255823
-31.864805 -99.996254 -24.095719
-33.181083 -99.478653 -24.221184
-40.945069 -107.556526 -10.662182
-41.729174 -106.584182 -9.655678
-41.148705 -107.188987 -11.598436
-40.12204 -108.562714 -11.674701
-40.945069 -107.556526 -10.662182
-44.642894 -101.567879 -10.192671
-44.417217 -102.207253 -9.2624
-45.955174 -95.084099 -16.561961
-45.839018 -96.044716 -15.865355
-15.411888 -109.334228 -20.226234
-17.023862 -107.976738 -20.564141
-11.900077 -114.687721 -19.551039
-11.776129 -116.014435 -19.508215
-11.900077 -114.687721 -19.551039
-13.333137 -113.582664 -20.029686
-24.707712 -103.208931 -22.460638
-23.038716 -104.952262 -22.143763
-24.418034 -104.796188 -22.579277
-24.707712 -103.208931 -22.460638
-26.35222 -101.419136 -22.834043
-11.836872 -122.554756 -18.03284
-13.115009 -122.654564 -18.538227
-11.739514 -121.649094 -18.516466
-10.559252 -122.403282 -17.499125
-11.836872 -122.554756 -18.03284
-23.412225 -121.118515 -19.097439
-21.978534 -122.226417 -18.348596
-23.492819 -121.57862 -18.188669
-35.789198 -98.302368 -24.186998
-35.714119 -99.731743 -23.924408
-37.073721 -97.643318 -24.022463
-34.539999 -98.912857 -24.255823
-35.789198 -98.302368 -24.186998
-42.662661 -105.207443 -9.526718
-41.729174 -106.584182 -9.655678
-45.061481 -100.20726 -11.973766
-44.852043 -100.934028 -11.089987
-44.423738 -101.168305 -12.966033
-45.061481 -100.20726 -11.973766
-45.243376 -99.474564 -12.814965
-46.103004 -93.036721 -17.851416
-46.022507 -94.08088 -17.198954
-45.287007 -93.853119 -18.616562
-46.103004 -93.036721 -17.851416
-46.141979 -91.938744 -18.445162
-44.45694 -92.381211 -20.515989
-44.428883 -93.581367 -19.941606
-45.354038 -91.554985 -19.784691
-44.476151 -91.118882 -21.027878
-43.550995 -93.145264 -21.184793
-44.45694 -92.381211 -20.515989
-33.28071 -115.45134 -12.75018
-32.014381 -116.512894 -13.372705
-34.488642 -114.414238 -13.082366
-33.28071 -115.45134 -12.75018
-35.781462 -113.194305 -13.339742
-34.599476 -114.238793 -14.090575
-34.488642 -114.414238 -13.082366
-36.974813 -111.984001 -13.482384
-35.781462 -113.194305 -13.339742
-36.863979 -112.159447 -12.474175
-39.425771 -96.231026 -23.394806
-38.235567 -96.96296 -23.755012
-38.188846 -98.340759 -23.399666
-24.97309 -120.844605 -17.96817
-23.492819 -121.57862 -18.188669
-26.416086 -119.676841 -18.591852
-24.97309 -120.844605 -17.96817
-27.913646 -118.384003 -19.108473
-26.42407 -119.177879 -19.454132
-26.416086 -119.676841 -18.591852
-32.07577 -116.30275 -15.522994
-32.005336 -116.491165 -14.490416
-33.37709 -115.270309 -14.865777
-32.07577 -116.30275 -15.522994
-32.107241 -116.072342 -16.557464
-29.383083 -117.540245 -18.645973
-30.81373 -116.630157 -18.131163
-29.391067 -117.041282 -19.508253
-27.913646 -118.384003 -19.108473
-29.383083 -117.540245 -18.645973
-18.675831 -106.504486 -20.888832
-17.023862 -107.976738 -20.564141
-18.326097 -108.108421 -21.037872
-21.65323 -105.000587 -21.693844
-21.363552 -106.587844 -21.812483
-23.038716 -104.952262 -22.143763
-20.33637 -104.982284 -21.219684
-21.65323 -105.000587 -21.693844
-18.675831 -106.504486 -20.888832
-20.33637 -104.982284 -21.219684
-11.6392 -119.606979 -19.151382
-10.414298 -120.452507 -18.293577
-11.686795 -120.652092 -18.840555
-11.651446 -118.47174 -19.313192
-11.6392 -119.606979 -19.151382
-12.923944 -118.671325 -19.86017
-11.677786 -117.286721 -19.474941
-11.651446 -118.47174 -19.313192
-13.034534 -116.263801 -20.055254
-11.776129 -116.014435 -19.508215
-11.677786 -117.286721 -19.474941
-20.501372 -122.791702 -18.387829
-21.978534 -122.226417 -18.348596
-18.997878 -123.270493 -18.357351
-20.501372 -122.791702 -18.387829
-20.394445 -122.245102 -19.226889
-17.556638 -123.645523 -18.21422
-18.997878 -123.270493 -18.357351
-17.43296 -123.017502 -18.984289
-17.556638 -123.645523 -18.21422
-17.353522 -122.291641 -19.615865
-17.43296 -123.017502 -18.984289
-18.811513 -121.998031 -19.827987
-17.261011 -121.497689 -20.178099
-17.353522 -122.291641 -19.615865
-17.212802 -120.612229 -20.600758
-17.261011 -121.497689 -20.178099
-18.683865 -120.386711 -20.882223
-17.159335 -119.668289 -20.961723
-15.736481 -120.779267 -20.257599
-17.212802 -120.612229 -20.600758
-29.110637 -100.847412 -23.592535
-27.700989 -101.161537 -23.243259
-27.496678 -102.738731 -23.245428
-30.462086 -100.447364 -23.883238
-30.309045 -101.973495 -23.807184
-31.864805 -99.996254 -24.095719
-29.110637 -100.847412 -23.592535
-30.462086 -100.447364 -23.883238
-38.987868 -109.939697 -11.677632
-37.897754 -111.145629 -11.650229
-39.191503 -109.572159 -12.613885
-38.987868 -109.939697 -11.677632
-40.12204 -108.562714 -11.674701
-43.588567 -103.700393 -9.398859
-44.417217 -102.207253 -9.2624
-42.89764 -104.67575 -10.458058
-42.662661 -105.207443 -9.526718
-43.588567 -103.700393 -9.398859
-44.032696 -102.534851 -11.227517
-44.642894 -101.567879 -10.192671
-44.852043 -100.934028 -11.089987
-45.732418 -96.958519 -15.165973
-45.577713 -97.841995 -14.40922
-45.006766 -97.871338 -16.049446
-45.732418 -96.958519 -15.165973
-45.839018 -96.044716 -15.865355
-45.180699 -95.954316 -17.385822
-45.955174 -95.084099 -16.561961
-46.022507 -94.08088 -17.198954
-40.540737 -94.124482 -23.30519
-39.425771 -96.231026 -23.394806
-40.494017 -95.502281 -22.949843
-44.51086 -89.810395 -21.605764
-44.476151 -91.118882 -21.027878
-43.605661 -90.509224 -22.212154
-44.51086 -89.810395 -21.605764
-42.62505 -91.265625 -22.793926
-42.589594 -92.639336 -22.278454
-43.605661 -90.509224 -22.212154
-41.657064 -91.962128 -23.302271
-42.62505 -91.265625 -22.793926
-40.540737 -94.124482 -23.30519
-41.657064 -91.962128 -23.302271
-15.103763 -110.877243 -20.342012
-14.846114 -112.355423 -20.463052
-16.416479 -111.058853 -20.834221
-15.103763 -110.877243 -20.342012
-15.411888 -109.334228 -20.226234
3 1 27 25
3 1 29 27
3 0 104 106
3 106 105 30
3 104 105 106
3 3 33 31
3 3 35 33
3 108 107 36
3 109 37 110
3 111 39 112
3 113 112 37
3 111 112 113
3 2 42 40
3 4 45 43
3 4 47 45
3 4 49 47
3 115 114 50
3 116 53 117
3 118 55 119
3 120 119 53
3 118 119 120
3 121 57 122
3 124 123 57
3 125 59 126
3 6 62 60
3 8 63 26
3 8 64 63
3 8 66 64
3 10 67 28
3 10 68 67
3 5 127 128
3 11 129 131
3 131 130 32
3 129 130 131
3 11 132 134
3 132 69 133
3 132 133 134
3 11 70 69
3 12 71 34
3 12 72 71
3 13 75 73
3 14 135 136
3 14 137 138
3 14 139 140
3 15 76 38
3 15 77 76
3 16 78 41
3 16 79 78
3 7 80 61
3 17 81 44
3 17 82 81
3 17 83 82
3 18 84 46
3 18 85 84
3 18 86 85
3 19 87 48
3 19 88 87
3 9 89 65
3 141 90 142
3 143 142 51
3 141 142 143
3 145 144 90
3 20 146 147
3 20 148 150
3 148 91 149
3 148 149 150
3 151 92 152
3 21 93 52
3 21 94 93
3 21 95 94
3 22 96 54
3 22 97 96
3 153 98 154
3 23 99 56
3 23 100 99
3 23 101 100
3 24 102 58
3 24 103 102
3 156 155 74
3 25 26 6
3 27 26 25
3 27 8 26
3 27 28 8
3 29 28 27
3 29 10 28
3 30 157 158
3 160 159 30
3 31 32 5
3 33 32 31
3 33 11 32
3 33 34 11
3 35 34 33
3 35 12 34
3 36 161 163
3 163 162 13
3 161 162 163
3 165 164 36
3 37 166 167
3 37 168 170
3 168 14 169
3 168 169 170
3 37 38 14
3 39 38 37
3 39 15 38
3 40 171 173
3 171 41 172
3 171 172 173
3 42 41 40
3 42 16 41
3 43 44 7
3 45 44 43
3 45 17 44
3 45 46 17
3 47 46 45
3 47 18 46
3 47 48 18
3 49 48 47
3 49 19 48
3 50 51 9
3 174 51 175
3 176 175 50
3 174 175 176
3 178 177 51
3 179 20 180
3 181 52 182
3 53 183 185
3 183 52 184
3 183 184 185
3 53 21 52
3 53 54 21
3 55 54 53
3 55 22 54
3 186 56 187
3 57 188 190
3 188 56 189
3 188 189 190
3 57 23 56
3 57 58 23
3 191 58 192
3 193 192 57
3 191 192 193
3 194 24 195
3 196 195 58
3 194 195 196
3 197 5 198
3 199 5 200
3 201 31 202
3 203 202 5
3 201 202 203
3 59 204 206
3 204 31 205
3 204 205 206
3 59 3 31
3 60 61 2
3 62 61 60
3 62 7 61
3 26 62 6
3 63 62 26
3 63 7 62
3 63 43 7
3 64 43 63
3 64 4 43
3 64 65 4
3 66 65 64
3 66 9 65
3 28 66 8
3 67 66 28
3 67 9 66
3 67 50 9
3 68 50 67
3 68 207 209
3 209 208 50
3 207 208 209
3 210 40 211
3 212 40 213
3 214 2 215
3 216 215 40
3 214 215 216
3 32 217 219
3 219 218 5
3 217 218 219
3 221 220 32
3 69 222 223
3 69 224 226
3 224 2 225
3 224 225 226
3 69 60 2
3 70 60 69
3 70 6 60
3 34 70 11
3 71 70 34
3 71 6 70
3 71 25 6
3 72 25 71
3 72 1 25
3 73 74 0
3 75 74 73
3 75 227 229
3 229 228 74
3 227 228 229
3 230 75 231
3 232 231 13
3 230 231 232
3 233 75 234
3 236 235 75
3 38 237 239
3 239 238 14
3 237 238 239
3 76 240 242
3 242 241 38
3 240 241 242
3 76 243 244
3 76 245 247
3 245 30 246
3 245 246 247
3 77 30 76
3 77 0 30
3 41 248 249
3 78 250 252
3 252 251 41
3 250 251 252
3 78 253 254
3 78 255 256
3 79 257 259
3 259 258 78
3 257 258 259
3 79 260 261
3 61 42 2
3 80 42 61
3 80 16 42
3 44 80 7
3 81 80 44
3 81 16 80
3 81 79 16
3 82 79 81
3 82 262 264
3 264 263 79
3 262 263 264
3 82 265 267
3 265 39 266
3 265 266 267
3 83 39 82
3 83 15 39
3 46 83 17
3 84 83 46
3 84 15 83
3 84 77 15
3 85 77 84
3 85 0 77
3 85 73 0
3 86 73 85
3 86 13 73
3 48 86 18
3 87 86 48
3 87 13 86
3 87 36 13
3 88 36 87
3 88 268 270
3 270 269 36
3 268 269 270
3 65 49 4
3 89 49 65
3 89 19 49
3 51 89 9
3 90 89 51
3 90 19 89
3 90 88 19
3 271 88 272
3 273 272 90
3 271 272 273
3 275 274 88
3 276 59 277
3 91 278 280
3 278 59 279
3 278 279 280
3 91 3 59
3 92 281 282
3 92 283 285
3 283 20 284
3 283 284 285
3 52 286 288
3 286 92 287
3 286 287 288
3 93 92 52
3 93 20 92
3 93 91 20
3 94 91 93
3 94 3 91
3 94 35 3
3 95 35 94
3 95 12 35
3 54 95 21
3 96 95 54
3 96 12 95
3 96 72 12
3 97 72 96
3 97 1 72
3 289 55 290
3 98 291 293
3 291 55 292
3 291 292 293
3 98 22 55
3 56 294 296
3 294 98 295
3 294 295 296
3 99 98 56
3 99 22 98
3 99 97 22
3 100 97 99
3 100 1 97
3 100 29 1
3 101 29 100
3 101 10 29
3 58 101 23
3 102 101 58
3 102 10 101
3 102 68 10
3 103 68 102
3 103 297 299
3 299 298 68
3 297 298 299
3 300 24 301
3 302 24 303
3 304 103 305
3 306 305 24
3 304 305 306
3 307 103 308
3 310 309 103
3 74 311 313
3 313 312 0
3 311 312 313
3 315 314 74
