ply
format ascii 1.0
element vertex 193
property float x
property float y
property float z
element face 184
property list uchar int vertex_index
end_header
-55.546261 -48.833969 -35.993275
-60.754177 -33.761993 -41.249744
-53.77689 -34.384087 -42.585415
-55.949074 -19.200155 -49.091866
-58.885803 -26.436653 -45.227673
-59.194416 -48.616104 -35.007824
-51.683132 -27.017605 -45.442024
-58.611336 -41.487835 -38.931076
-54.971722 -41.698032 -39.471813
-57.486267 -34.17865 -42.624947
-55.480385 -26.780914 -46.111626
-52.357719 -19.556219 -49.402977
-57.407654 -48.744308 -35.607712
-57.547058 -52.24287 -33.632854
-55.680145 -52.341297 -34.119442
-61.38575 -37.40242 -39.2421
-60.283035 -41.298248 -38.221371
-59.805737 -37.674152 -40.187428
-58.13689 -37.852982 -40.806309
-59.169823 -34.013508 -42.119335
-57.563541 -22.792486 -47.182373
-57.234978 -26.64143 -45.88171
-55.859795 -22.981903 -47.705406
-54.062893 -23.123137 -47.784992
-54.190369 -19.391045 -49.474899
-54.47049 -38.061256 -41.069733
-52.995674 -41.813408 -39.360233
-52.47575 -38.181641 -40.794598
-61.462959 -29.782089 -42.109268
-59.936562 -30.101109 -43.246548
-60.448685 -26.148155 -44.171329
-59.35397 -52.097824 -32.966389
-52.856117 -30.689104 -44.036793
-51.77005 -34.513279 -42.147884
-60.642063 -44.877285 -36.220016
-58.95293 -45.076893 -36.997589
-57.181263 -45.198429 -37.513611
-55.318748 -45.287857 -37.780186
-56.84407 -41.606255 -39.342186
-56.360458 -37.967506 -41.091591
-55.688187 -34.287754 -42.767319
-58.327759 -30.328979 -44.017784
-56.613678 -30.479191 -44.391743
-54.786327 -30.584595 -44.380386
-53.623383 -26.891144 -45.942581
-52.183365 -23.255947 -47.460331
-50.468826 -19.739443 -48.92907
-54.04422 -15.697612 -50.92765
-52.23735 -15.916315 -51.165459
-50.382317 -16.137142 -50.944313
-53.362755 -45.398865 -37.826878
-54.65099 -50.643534 -35.220282
-54.717932 -52.397197 -34.283366
-55.613203 -50.587633 -35.056359
-54.577116 -48.888103 -36.090397
-54.65099 -50.643534 -35.220282
-61.069964 -35.582206 -40.245922
-61.82544 -35.408619 -39.647774
-61.509653 -33.588405 -40.651596
-61.705429 -27.781127 -42.442167
-62.197933 -29.58209 -41.390678
-61.198292 -25.96416 -43.473197
-60.955822 -27.965122 -43.140299
-61.705429 -27.781127 -42.442167
-59.274193 -50.356964 -33.987106
-60.131453 -50.249886 -33.574021
-60.051676 -48.509025 -34.594738
-57.578899 -53.96434 -32.617344
-56.641323 -54.025835 -32.903707
-51.266138 -28.927692 -44.443049
-51.852631 -30.763442 -43.740433
-52.269624 -28.853355 -44.739409
-61.259134 -42.943577 -36.721872
-61.450506 -44.724844 -35.705126
-52.958843 -14.012116 -51.789535
-53.862583 -13.869227 -51.501232
-52.055408 -14.121468 -51.90844
-53.140785 -15.806964 -51.046554
-52.958843 -14.012116 -51.789535
-49.277482 -14.530486 -51.659607
-50.207406 -14.372521 -51.842807
-49.441479 -16.272424 -50.637031
-49.277482 -14.530486 -51.659607
-52.156525 -43.696636 -38.526668
-51.961906 -41.904717 -39.210856
-51.083922 -36.440939 -41.24171
-50.733959 -34.613107 -41.843165
-55.707867 -54.075048 -33.147002
-56.641323 -54.025835 -32.903707
-56.613602 -52.292084 -33.876148
-54.750881 -54.139313 -33.370486
-55.707867 -54.075048 -33.147002
-54.750881 -54.139313 -33.370486
-54.717932 -52.397197 -34.283366
-50.68749 -27.111788 -45.073935
-50.965048 -25.222887 -46.127144
-62.143023 -37.217083 -38.625769
-61.82544 -35.408619 -39.647774
-61.630978 -39.206145 -38.232914
-62.143023 -37.217083 -38.625769
-60.834392 -39.350334 -38.731735
-61.07962 -41.154059 -37.722549
-61.630978 -39.206145 -38.232914
-51.701944 -40.088833 -39.928038
-51.961906 -41.904717 -39.210856
-52.735712 -39.997524 -40.077416
-61.864044 -31.598453 -41.081358
-62.197933 -29.58209 -41.390678
-61.108568 -31.772041 -41.679506
-61.509653 -33.588405 -40.651596
-61.864044 -31.598453 -41.081358
-60.589199 -24.1718 -44.531384
-61.198292 -25.96416 -43.473197
-59.814697 -24.339638 -45.198623
-60.589199 -24.1718 -44.531384
-59.033257 -24.483887 -45.726796
-59.667244 -26.292404 -44.699501
-59.814697 -24.339638 -45.198623
-58.372125 -22.661803 -46.704145
-58.224672 -24.61457 -46.205023
-59.033257 -24.483887 -45.726796
-57.597345 -20.873406 -47.716518
-58.372125 -22.661803 -46.704145
-56.790112 -19.07724 -48.671265
-56.756308 -20.99632 -48.137119
-57.597345 -20.873406 -47.716518
-60.223921 -51.977926 -32.535179
-60.131453 -50.249886 -33.574021
-59.395216 -53.802391 -31.923094
-60.223921 -51.977926 -32.535179
-58.482355 -53.891817 -32.284111
-58.450514 -52.170347 -33.299622
-57.578899 -53.96434 -32.617344
-59.395216 -53.802391 -31.923094
-58.482355 -53.891817 -32.284111
-51.309597 -32.675529 -42.795979
-52.313083 -32.601191 -43.092338
-51.852631 -30.763442 -43.740433
-50.733959 -34.613107 -41.843165
-51.309597 -32.675529 -42.795979
-51.266138 -28.927692 -44.443049
-50.68749 -27.111788 -45.073935
-60.775499 -46.639616 -35.200834
-61.450506 -44.724844 -35.705126
-59.918239 -46.746695 -35.61392
-60.051676 -48.509025 -34.594738
-60.775499 -46.639616 -35.200834
-60.462549 -43.087767 -37.220693
-61.259134 -42.943577 -36.721872
-61.07962 -41.154059 -37.722549
-51.215165 -23.342058 -47.136297
-50.965048 -25.222887 -46.127144
-51.933249 -25.136776 -46.451178
-50.357895 -21.583806 -47.870666
-51.215165 -23.342058 -47.136297
-51.326096 -21.497695 -48.1947
-49.510689 -19.865331 -48.537251
-50.357895 -21.583806 -47.870666
-55.870896 -17.323349 -49.652874
-56.790112 -19.07724 -48.671265
-54.918469 -15.572077 -50.570766
-53.862583 -13.869227 -51.501232
-54.996647 -17.448884 -50.009758
-55.870896 -17.323349 -49.652874
-54.918469 -15.572077 -50.570766
-51.134922 -14.262107 -51.95338
-52.055408 -14.121468 -51.90844
-51.309833 -16.026729 -51.054886
-51.134922 -14.262107 -51.95338
-50.207406 -14.372521 -51.842807
-49.484734 -18.073575 -49.62941
-50.425572 -17.938293 -49.936692
-49.441479 -16.272424 -50.637031
-49.510689 -19.865331 -48.537251
-49.484734 -18.073575 -49.62941
-54.463359 -47.115048 -36.983852
-54.577116 -48.888103 -36.090397
-55.432505 -47.060913 -36.88673
-53.485363 -47.170552 -37.007199
-54.463359 -47.115048 -36.983852
-54.340751 -45.343361 -37.803532
-52.477211 -47.260796 -37.02228
-53.485363 -47.170552 -37.007199
-52.340065 -45.489365 -37.759991
-53.179215 -43.606137 -38.593556
-52.156525 -43.696636 -38.526668
-52.477211 -47.260796 -37.02228
-52.340065 -45.489365 -37.759991
-51.436771 -38.27512 -40.565067
-52.1229 -36.34746 -41.471241
-51.083922 -36.440939 -41.24171
-51.701944 -40.088833 -39.928038
-51.436771 -38.27512 -40.565067
3 0 14 12
3 0 51 53
3 53 52 14
3 51 52 53
3 0 54 55
3 1 56 58
3 56 15 57
3 56 57 58
3 1 17 15
3 1 19 17
3 3 22 20
3 3 24 22
3 2 27 25
3 59 28 60
3 61 30 62
3 63 62 28
3 61 62 63
3 5 64 66
3 64 31 65
3 64 65 66
3 68 67 13
3 6 69 71
3 71 70 32
3 69 70 71
3 72 34 73
3 7 35 16
3 7 36 35
3 7 38 36
3 9 39 18
3 9 40 39
3 4 41 29
3 10 42 21
3 10 43 42
3 10 44 43
3 11 45 23
3 11 46 45
3 74 47 75
3 76 48 77
3 78 77 47
3 76 77 78
3 79 49 80
3 82 81 49
3 8 50 37
3 84 83 26
3 86 85 33
3 12 13 5
3 14 13 12
3 14 87 89
3 89 88 13
3 87 88 89
3 14 90 91
3 93 92 14
3 95 94 6
3 15 96 97
3 15 98 99
3 15 100 102
3 100 16 101
3 100 101 102
3 17 16 15
3 17 7 16
3 17 18 7
3 19 18 17
3 19 9 18
3 20 21 4
3 22 21 20
3 22 10 21
3 22 23 10
3 24 23 22
3 24 11 23
3 25 26 8
3 27 26 25
3 27 103 105
3 105 104 26
3 103 104 105
3 28 106 107
3 28 108 110
3 108 1 109
3 108 109 110
3 28 29 1
3 30 29 28
3 30 4 29
3 111 30 112
3 113 30 114
3 115 4 116
3 117 116 30
3 115 116 117
3 118 20 119
3 120 119 4
3 118 119 120
3 121 20 122
3 123 3 124
3 125 124 20
3 123 124 125
3 31 126 127
3 31 128 129
3 13 31 5
3 130 31 131
3 132 131 13
3 130 131 132
3 134 133 31
3 32 33 2
3 135 33 136
3 137 136 32
3 135 136 137
3 139 138 33
3 141 140 6
3 34 142 143
3 34 144 146
3 144 5 145
3 144 145 146
3 16 147 149
3 147 34 148
3 147 148 149
3 35 34 16
3 35 5 34
3 35 12 5
3 36 12 35
3 36 0 12
3 36 37 0
3 38 37 36
3 38 8 37
3 18 38 7
3 39 38 18
3 39 8 38
3 39 25 8
3 40 25 39
3 40 2 25
3 29 19 1
3 41 19 29
3 41 9 19
3 21 41 4
3 42 41 21
3 42 9 41
3 42 40 9
3 43 40 42
3 43 2 40
3 43 32 2
3 44 32 43
3 44 6 32
3 23 44 10
3 45 44 23
3 45 6 44
3 45 150 152
3 152 151 6
3 150 151 152
3 46 153 155
3 155 154 45
3 153 154 155
3 46 156 157
3 158 3 159
3 47 160 161
3 47 162 164
3 162 3 163
3 162 163 164
3 47 24 3
3 48 24 47
3 48 11 24
3 165 48 166
3 49 167 169
3 167 48 168
3 167 168 169
3 49 11 48
3 49 46 11
3 170 46 171
3 172 171 49
3 170 171 172
3 174 173 46
3 37 175 177
3 177 176 0
3 175 176 177
3 50 178 180
3 180 179 37
3 178 179 180
3 50 181 182
3 26 50 8
3 183 50 184
3 185 184 26
3 183 184 185
3 187 186 50
3 33 27 2
3 188 27 189
3 190 189 33
3 188 189 190
3 192 191 27
