ply
format ascii 1.0
element vertex 644
property float x
property float y
property float z
element face 754
property list uchar int vertex_index
end_header
66.567352 -42.63744 30.611313
53.000072 -31.874119 22.917637
66.253845 -26.89855 33.759777
64.694145 -38.424461 48.336937
46.569439 -28.34927 10.645838
66.56028 -19.858797 25.22102
59.377373 -38.0303 27.063494
56.434311 -37.580948 18.12295
65.849052 -41.438831 19.823408
69.885635 -46.011452 21.698719
50.03035 -22.791098 19.90122
59.016785 -21.578825 21.532215
60.460014 -29.765764 27.998539
64.295364 -35.81469 35.232738
66.557228 -23.323652 39.77034
66.633461 -32.428722 42.230412
67.418236 -41.001617 40.831326
47.663784 -31.927483 17.362925
45.748459 -17.079391 17.901846
63.238335 -40.404182 29.018539
62.007118 -40.429283 24.030262
66.007637 -42.470764 25.234264
68.871819 -43.531353 20.716988
68.628181 -44.670998 26.266201
66.253708 -23.637493 29.385178
63.334366 -24.886021 26.705526
63.871864 -28.430792 30.784777
62.136147 -33.013592 31.685635
64.91761 -31.473991 34.968727
66.119202 -35.258419 45.749359
66.906845 -36.825508 42.420204
66.661713 -39.7187 45.150414
51.089848 -27.731915 21.274376
47.493118 -28.084768 19.563187
49.899406 -32.307278 20.288174
68.578911 -18.700371 28.148722
67.792969 -22.135548 32.454285
55.80867 -35.256752 24.923059
53.319595 -35.643272 21.338409
57.519402 -38.257935 22.665377
61.423553 -39.558739 18.934561
54.45755 -22.276241 20.626911
55.222435 -26.949831 22.813341
63.22863 -20.784973 22.998125
59.471161 -25.969952 24.53714
56.653835 -30.9408 25.417446
58.885498 -34.304798 28.34621
61.797977 -37.153259 31.255156
64.861221 -39.655128 33.811783
67.866501 -20.408228 35.680588
67.145844 -25.163502 36.800621
66.513123 -27.942936 41.02951
66.513428 -29.747549 38.127514
66.137459 -34.175388 38.943581
66.318848 -38.376892 38.336872
67.213112 -42.071178 35.866119
62.464859 -41.86441 49.718254
65.26059 -42.95974 46.944298
68.077927 -44.6866 37.457523
68.461357 -45.012093 31.885984
46.146851 -22.971796 18.906128
46.52964 -30.572464 14.119224
51.656757 -35.140442 17.564596
50.960258 -33.52092 13.706636
65.029541 -41.520329 29.86235
64.520782 -41.586086 27.276077
66.250504 -42.65593 27.932308
67.540665 -43.535835 25.764463
67.62439 -43.762642 28.523777
66.208595 -25.328905 31.55904
65.029381 -26.05587 30.097158
65.228607 -27.691986 32.2547
64.342415 -30.008423 32.883476
65.532028 -29.209328 34.424419
65.188087 -34.511684 47.035164
65.523041 -36.797596 47.180035
66.398087 -37.504284 45.678871
65.828697 -39.068138 46.912815
46.987526 -26.996532 8.848829
51.932907 -29.903606 22.047661
50.157524 -30.184748 21.006313
51.359657 -32.17395 21.63221
69.040787 -18.019131 29.792822
68.174957 -20.474615 30.287241
68.518936 -19.701855 31.92412
57.518105 -36.707588 25.99761
56.340797 -36.959522 24.013464
58.359524 -38.24017 24.888842
63.868965 -41.086243 22.019629
61.629662 -40.116516 21.486858
63.76049 -40.489212 19.377647
63.793449 -39.643665 16.756836
65.942543 -40.5751 17.14303
67.727646 -41.568874 17.552629
69.648674 -44.718597 21.187151
69.881386 -43.83812 18.456589
70.158669 -45.133259 18.976212
58.902031 -19.159214 20.187729
56.589851 -19.441004 19.855314
56.74865 -21.942295 21.030144
54.769104 -24.698454 21.677103
56.995972 -24.288401 22.277428
65.036552 -20.344664 24.012093
61.794693 -27.35046 27.418941
61.485855 -25.442112 25.556673
59.883224 -27.940266 26.2192
57.87635 -28.501295 25.106026
58.568291 -30.374052 26.686914
57.668671 -32.695126 26.859943
59.45248 -32.101284 28.341211
63.185623 -34.460091 33.498581
61.753159 -35.164482 31.681393
63.079109 -36.532089 33.271896
63.360184 -38.433365 32.591965
64.415138 -37.821999 34.757984
67.216515 -21.885765 37.746384
67.50309 -22.801752 36.193966
67.014854 -24.247421 38.300106
66.277885 -31.570955 43.649818
66.09552 -29.320787 43.029243
66.556938 -30.198 41.691559
66.715904 -28.847176 39.618439
66.623535 -31.088951 40.230576
66.27655 -31.979824 38.660091
66.583206 -33.303001 40.653381
67.130577 -38.957787 41.869316
66.762451 -37.617584 40.450821
67.027351 -39.662712 39.665604
66.685371 -40.307762 37.330692
67.406731 -41.581264 38.402138
64.226929 -44.677998 47.458591
66.304138 -43.460434 44.960857
68.319954 -44.919678 34.691483
68.696579 -46.320518 32.460968
68.974548 -46.196892 29.603247
49.781246 -20.043715 19.19943
47.721107 -20.119446 18.901949
47.996582 -22.932144 19.464258
47.190487 -30.248381 18.685408
46.012825 -28.025188 18.543653
46.077995 -29.975201 17.363522
45.256008 -29.48402 15.923429
46.949196 -31.371445 15.776329
54.553879 -36.864136 19.904663
52.374233 -35.52224 19.471878
53.977921 -36.440571 17.801458
53.500969 -34.721561 13.615512
61.315979 -39.252289 28.080395
60.459984 -39.414787 25.743011
62.550552 -40.517994 26.544977
64.125145 -41.446915 24.658085
65.869606 -42.06839 22.526936
67.583427 -42.443748 20.267624
67.521362 -43.09848 23.009338
68.729019 -44.204559 23.479202
69.426788 -45.40509 23.957592
66.381508 -21.815556 27.264553
64.959915 -22.386362 25.949108
64.945168 -24.289272 27.985271
63.535423 -26.726105 28.712784
62.255051 -29.119576 29.363815
61.214577 -31.453606 29.836395
62.874161 -30.756296 31.35113
63.63237 -32.27182 33.336155
64.4814 -33.684368 35.275169
65.846184 -22.412874 41.211014
65.831711 -33.001251 45.447258
66.481079 -33.807812 44.084824
66.745697 -34.640778 42.513168
66.698662 -36.032074 44.200829
66.932777 -38.22908 43.892136
67.184837 -40.370056 43.101704
50.460579 -25.358465 20.573868
48.483795 -25.557131 19.965101
49.200356 -27.978306 20.462107
48.562782 -30.310841 19.894356
48.656364 -32.234833 18.867754
58.815865 -37.815907 16.09338
56.198467 -36.828617 15.85162
67.75061 -19.313606 26.610092
67.462044 -21.180439 28.720964
67.211304 -22.920229 30.884274
67.023491 -24.540127 33.078392
54.294621 -33.652885 23.883707
52.802917 -33.953426 22.351999
54.472862 -35.540421 23.155214
55.345886 -37.025063 21.980459
56.875027 -38.049114 20.403616
59.769718 -39.379501 23.358936
59.263672 -39.118607 20.940622
58.947033 -38.604767 18.508879
61.382256 -38.738426 16.401751
69.06147 -42.651421 17.987179
51.884506 -17.069969 18.514376
51.977711 -19.896433 19.418297
54.263733 -19.690794 19.61731
52.200584 -22.565691 20.269691
52.572647 -25.063198 21.126793
53.113945 -27.378124 22.042564
53.844139 -29.506065 23.052971
61.199253 -21.193403 22.177429
63.245407 -22.906233 24.794212
61.300606 -23.390327 23.805725
59.194557 -23.849995 22.974688
57.361351 -26.474525 23.631996
55.843071 -29.028971 24.060371
54.78001 -31.450296 24.169868
55.931141 -33.221069 25.379986
57.294151 -34.833618 26.649761
58.84639 -36.306213 27.933971
60.524345 -33.693634 30.022648
60.27943 -35.784821 29.827065
60.540482 -37.659508 29.185656
62.301582 -38.917519 30.364616
64.029175 -40.109135 31.443066
65.605309 -41.268764 32.408051
68.516335 -18.876413 33.589024
68.00161 -21.292049 34.063362
67.451828 -23.693375 34.63134
66.898575 -26.0525 35.281616
65.864601 -24.74272 41.733063
65.950943 -27.04731 42.355965
66.509911 -25.652618 40.362762
66.847183 -26.56942 38.941978
66.811127 -27.47805 37.470688
66.370033 -28.362705 35.959343
65.90152 -30.628374 36.571465
65.541359 -32.851673 37.001205
65.347511 -35.021263 37.12878
66.620056 -35.486034 40.760788
66.13974 -36.318626 38.863266
65.374382 -37.107712 36.853848
65.654709 -39.067627 36.11515
66.18338 -40.854805 34.902863
66.909363 -42.434044 33.260979
63.65934 -40.122261 49.188728
63.975243 -42.429924 48.543976
65.006577 -40.716835 47.874054
66.092789 -41.299271 46.173016
66.903015 -41.870934 44.135262
67.445335 -42.41954 41.830883
67.687706 -44.345234 40.136784
67.749092 -42.920345 39.334488
67.860657 -43.339684 36.712219
67.837036 -43.641197 34.015129
67.739113 -43.791267 31.278351
68.549881 -44.936024 29.071657
69.208435 -45.896118 26.764694
69.590721 -46.707703 24.469311
47.633537 -17.136805 18.225965
45.842094 -20.114367 18.47118
44.52549 -22.899715 18.182934
46.690899 -25.634172 19.251799
45.127396 -25.57148 18.394096
44.743221 -28.78442 14.370593
46.407455 -29.553778 12.405173
51.492287 -34.079319 20.768745
50.394009 -33.987888 19.124863
49.535301 -33.64463 17.421097
53.625977 -35.72921 15.695124
51.182426 -34.474773 15.63486
48.938202 -33.030384 15.668342
48.616501 -32.145935 13.884108
48.572323 -31.011305 12.086658
65.108593 -37.611029 47.758486
64.930447 -36.452914 47.773062
64.515998 -37.266346 48.351513
46.778483 -27.672901 9.747333
45.811472 -26.929863 9.909615
45.602429 -27.606232 10.80812
47.912485 -28.242277 9.572906
48.121528 -27.565908 8.674401
46.778483 -27.672901 9.747333
69.097626 -17.649284 30.640897
69.394478 -16.811802 29.597285
68.836701 -18.490645 31.706546
68.779861 -18.860493 30.858471
69.097626 -17.649284 30.640897
69.894913 -46.271372 20.630474
70.03143 -45.832276 19.26922
70.022152 -45.572356 20.337466
65.798416 -20.101731 24.616557
65.88964 -19.054944 23.643282
66.651505 -18.81201 24.247746
66.886871 -22.604709 38.758362
66.934533 -21.428189 38.511143
66.604889 -22.147132 39.523121
68.579296 -47.022768 32.74465
68.518357 -46.304142 33.887173
68.797108 -46.9377 31.30344
68.579296 -47.022768 32.74465
44.911986 -17.021222 17.646469
44.952354 -15.423185 17.281362
45.788828 -15.481355 17.536738
44.967167 -18.552233 17.881268
44.130694 -18.494065 17.625892
44.911986 -17.021222 17.646469
65.403702 -21.974453 41.920967
65.86314 -21.248303 40.994537
58.838074 -37.278216 14.911916
60.153627 -37.730738 15.008786
68.772167 -17.752443 27.104417
69.055413 -17.466261 27.919149
68.16476 -19.006988 27.379407
68.358017 -18.05906 26.335102
68.772167 -17.752443 27.104417
63.872421 -39.093113 15.473267
64.963836 -39.558802 15.634818
70.000675 -43.304062 17.114179
70.144314 -43.959477 17.379455
53.025845 -17.01204 18.55343
53.017719 -15.575007 18.007054
53.072447 -18.425272 19.005391
51.931109 -18.483201 18.966336
53.025845 -17.01204 18.55343
63.233219 -19.653956 22.159737
64.177757 -19.474435 22.593105
62.213942 -20.989188 22.587777
62.21853 -19.858171 21.749389
63.233219 -19.653956 22.159737
68.03656 -19.214905 35.461428
67.651436 -19.959262 36.480524
68.191418 -19.642321 34.634806
68.361477 -18.448997 34.415646
68.03656 -19.214905 35.461428
65.486213 -25.455562 42.670506
65.430595 -24.298012 42.399212
62.276234 -40.684036 49.910847
61.614273 -41.557612 50.093628
63.0621 -40.993336 49.453491
62.873474 -39.812962 49.646084
62.276234 -40.684036 49.910847
67.005062 -42.899311 43.399725
66.603577 -42.665684 44.548059
66.705624 -43.694062 43.812523
67.276222 -43.173614 42.247535
67.174175 -42.145237 42.983072
67.005062 -42.899311 43.399725
67.882817 -44.515917 38.797154
67.778271 -45.235239 39.128069
67.973381 -45.405922 37.788438
69.237526 -46.558201 27.025926
69.091491 -46.046505 28.183971
69.120582 -46.708588 28.445203
69.428669 -46.963994 25.878235
69.399578 -46.301911 25.617002
69.237526 -46.558201 27.025926
48.663019 -17.134868 18.318807
48.686822 -15.605994 17.860011
44.963226 -26.678131 17.887402
45.57011 -26.798334 18.468874
45.405941 -27.904985 17.96218
44.480207 -25.466375 17.87895
44.963226 -26.678131 17.887402
54.894863 -35.755157 14.659484
54.912222 -36.278914 15.773372
56.181109 -36.304861 14.737732
49.916954 -30.91922 11.015369
49.78134 -31.652837 11.945222
48.683134 -30.335995 11.188252
49.916954 -30.91922 11.015369
46.726154 -15.54025 17.651208
45.788828 -15.481355 17.536738
64.762969 -35.309958 47.700626
64.574661 -34.148485 47.544399
65.355564 -35.65464 47.107599
64.762969 -35.309958 47.700626
64.930447 -36.452914 47.773062
45.991581 -26.350415 8.997297
45.811472 -26.929863 9.909615
47.304146 -26.263542 7.93272
45.991581 -26.350415 8.997297
48.453163 -26.736365 7.781907
47.304146 -26.263542 7.93272
48.453163 -26.736365 7.781907
48.121528 -27.565908 8.674401
69.28635 -17.125641 28.7412
69.394478 -16.811802 29.597285
68.809849 -18.359751 28.970772
69.055413 -17.466261 27.919149
69.28635 -17.125641 28.7412
66.038384 -40.024519 15.827915
64.963836 -39.558802 15.634818
64.867996 -40.109382 16.949933
66.941814 -40.524774 16.013718
66.038384 -40.024519 15.827915
67.834366 -41.021662 16.218518
66.941814 -40.524774 16.013718
66.835094 -41.071987 17.347829
68.508374 -41.568784 16.427532
67.834366 -41.021662 16.218518
70.282955 -44.607046 17.639267
70.144314 -43.959477 17.379455
70.020027 -44.48569 18.7164
70.159775 -45.313776 17.940871
70.282955 -44.607046 17.639267
70.159775 -45.313776 17.940871
70.03143 -45.832276 19.26922
57.745941 -19.300109 20.021521
57.705532 -18.019687 19.378825
58.861622 -17.878792 19.545032
65.081718 -19.254281 23.100088
65.88964 -19.054944 23.643282
64.132591 -20.564819 23.505109
64.177757 -19.474435 22.593105
65.081718 -19.254281 23.100088
67.326443 -20.698031 37.513422
66.934533 -21.428189 38.511143
67.541508 -21.146997 36.713486
67.651436 -19.959262 36.480524
67.326443 -20.698031 37.513422
66.186702 -30.445871 43.339531
65.822849 -30.029566 43.964094
65.914032 -31.15465 44.274382
61.81604 -42.743299 49.823494
61.614273 -41.557612 50.093628
64.315079 -45.759856 46.720667
63.646988 -45.552742 47.591803
64.83564 -44.9014 46.516806
64.315079 -45.759856 46.720667
65.35247 -44.042271 46.259659
64.743759 -43.818869 47.201445
64.83564 -44.9014 46.516806
65.874245 -44.292618 45.267938
65.782364 -43.210087 45.952578
65.35247 -44.042271 46.259659
66.375709 -44.491211 44.147077
65.874245 -44.292618 45.267938
66.705624 -43.694062 43.812523
66.375709 -44.491211 44.147077
68.209031 -45.487183 36.38545
67.973381 -45.405922 37.788438
68.330044 -45.603722 35.00243
68.19894 -44.803139 36.074503
68.209031 -45.487183 36.38545
68.508266 -45.620098 33.576225
68.330044 -45.603722 35.00243
68.518357 -46.304142 33.887173
68.936092 -46.875887 29.874579
68.835564 -46.258705 31.032108
68.797108 -46.9377 31.30344
69.120582 -46.708588 28.445203
68.936092 -46.875887 29.874579
48.751176 -20.081581 19.050689
48.706804 -18.626188 18.656799
49.736874 -18.588323 18.80554
45.438526 -28.879991 17.372115
45.405941 -27.904985 17.96218
46.04541 -29.000194 17.953587
45.667001 -29.72961 16.643476
45.027532 -28.634401 16.652068
45.438526 -28.879991 17.372115
54.911259 -34.583152 12.54482
54.832359 -35.251333 13.619678
53.550133 -34.074922 12.603844
54.911259 -34.583152 12.54482
52.279778 -33.474602 12.649406
52.230614 -34.12124 13.661074
53.550133 -34.074922 12.603844
50.975307 -32.907645 12.755211
52.279778 -33.474602 12.649406
59.994629 -17.766642 19.712871
58.861622 -17.878792 19.545032
60.021031 -19.006033 20.425547
59.994629 -17.766642 19.712871
60.078407 -20.215838 21.09779
58.959408 -20.36902 20.859972
60.021031 -19.006033 20.425547
66.249367 -21.691744 40.243458
65.86314 -21.248303 40.994537
66.201706 -22.868263 40.490677
66.604889 -22.147132 39.523121
66.249367 -21.691744 40.243458
65.016181 -33.367018 46.812809
64.574661 -34.148485 47.544399
65.337993 -32.611801 46.018856
65.016181 -33.367018 46.812809
65.509899 -33.756467 46.241211
65.690945 -31.869798 45.173102
65.337993 -32.611801 46.018856
66.054798 -32.286103 44.548538
65.914032 -31.15465 44.274382
65.690945 -31.869798 45.173102
57.529375 -36.784571 14.791036
57.507166 -37.322262 15.9725
58.838074 -37.278216 14.911916
56.181109 -36.304861 14.737732
57.529375 -36.784571 14.791036
67.296661 -18.5869 24.897358
66.651505 -18.81201 24.247746
67.891827 -18.314304 25.591894
68.358017 -18.05906 26.335102
67.155445 -19.586202 25.915556
67.296661 -18.5869 24.897358
67.891827 -18.314304 25.591894
63.993965 -38.10223 48.867809
64.515998 -37.266346 48.351513
45.555357 -28.124859 11.680754
45.602429 -27.606232 10.80812
61.436823 -38.191997 15.162971
60.153627 -37.730738 15.008786
60.099061 -38.277166 16.247566
62.666825 -38.640493 15.295724
62.587852 -39.191046 16.579293
63.872421 -39.093113 15.473267
61.436823 -38.191997 15.162971
62.666825 -38.640493 15.295724
69.175286 -42.110058 16.644807
68.508374 -41.568784 16.427532
68.394558 -42.110147 17.769904
69.590717 -42.710712 16.879475
69.471428 -43.244771 18.221884
70.000675 -43.304062 17.114179
69.175286 -42.110058 16.644807
69.590717 -42.710712 16.879475
51.893013 -15.585787 18.011228
53.017719 -15.575007 18.007054
50.788504 -17.10145 18.463013
51.893013 -15.585787 18.011228
50.832876 -18.556842 18.856903
49.736874 -18.588323 18.80554
50.788504 -17.10145 18.463013
56.542843 -18.117488 19.279479
57.705532 -18.019687 19.378825
55.379784 -18.242383 19.160477
56.542843 -18.117488 19.279479
55.426792 -19.565899 19.736312
54.215458 -18.322453 19.104897
55.379784 -18.242383 19.160477
53.120722 -19.793613 19.517803
53.072447 -18.425272 19.005391
54.215458 -18.322453 19.104897
61.169641 -20.023128 21.420397
62.21853 -19.858171 21.749389
60.108019 -21.386114 21.854822
60.078407 -20.215838 21.09779
61.169641 -20.023128 21.420397
68.735035 -17.687482 33.385289
68.580177 -17.260066 34.211911
68.361477 -18.448997 34.415646
68.8354 -18.077925 32.538998
68.735035 -17.687482 33.385289
68.517635 -19.289134 32.756572
68.836701 -18.490645 31.706546
68.8354 -18.077925 32.538998
65.421387 -23.133089 42.138188
65.403702 -21.974453 41.920967
65.855392 -23.577797 41.472038
65.421387 -23.133089 42.138188
65.430595 -24.298012 42.399212
65.697342 -28.89217 43.637046
65.822849 -30.029566 43.964094
65.625054 -27.755432 43.300407
65.697342 -28.89217 43.637046
66.023231 -28.184048 42.692604
65.529384 -26.607857 42.981956
65.625054 -27.755432 43.300407
65.907772 -25.895015 42.044514
65.486213 -25.455562 42.670506
65.529384 -26.607857 42.981956
63.476562 -38.95113 49.293705
62.873474 -39.812962 49.646084
64.176743 -39.273361 48.762833
63.993965 -38.10223 48.867809
63.476562 -38.95113 49.293705
62.63044 -43.022163 49.318684
61.81604 -42.743299 49.823494
63.511475 -44.428957 48.188852
63.646988 -45.552742 47.591803
63.385632 -43.30492 48.731544
63.511475 -44.428957 48.188852
64.101086 -43.553961 48.001283
63.220051 -42.147167 49.131115
62.63044 -43.022163 49.318684
63.385632 -43.30492 48.731544
67.467812 -45.103355 40.477709
67.778271 -45.235239 39.128069
67.397407 -44.136461 41.400486
67.467812 -45.103355 40.477709
67.56652 -43.382387 40.983834
67.276222 -43.173614 42.247535
67.397407 -44.136461 41.400486
69.41782 -47.408692 24.753083
69.428669 -46.963994 25.878235
69.59441 -47.056744 23.370548
69.41782 -47.408692 24.753083
69.741867 -46.708619 21.985253
69.738178 -46.359578 23.084015
69.59441 -47.056744 23.370548
69.894913 -46.271372 20.630474
69.741867 -46.708619 21.985253
47.668694 -15.568956 17.813267
48.686822 -15.605994 17.860011
46.690998 -17.108098 18.063905
46.726154 -15.54025 17.651208
47.668694 -15.568956 17.813267
47.677322 -18.628125 18.563957
48.663019 -17.134868 18.318807
48.706804 -18.626188 18.656799
45.013985 -20.069721 18.165935
44.967167 -18.552233 17.881268
45.795276 -18.596879 18.186513
44.355683 -21.462395 18.021812
45.013985 -20.069721 18.165935
45.183792 -21.507041 18.327057
43.848129 -22.806914 17.722798
44.355683 -21.462395 18.021812
44.179254 -24.130493 17.773369
44.826443 -24.235598 18.288515
44.480207 -25.466375 17.87895
43.848129 -22.806914 17.722798
44.179254 -24.130493 17.773369
44.569557 -28.423268 15.993246
45.027532 -28.634401 16.652068
44.313164 -28.073468 15.216828
44.569557 -28.423268 15.993246
44.999614 -29.13422 15.147011
44.013495 -27.77747 14.480925
44.313164 -28.073468 15.216828
44.642248 -28.342434 13.543131
44.013495 -27.77747 14.480925
45.474365 -28.727113 12.560422
44.642248 -28.342434 13.543131
45.575338 -29.169099 13.387883
46.488447 -28.951524 11.525505
45.555357 -28.124859 11.680754
45.474365 -28.727113 12.560422
53.563473 -35.225386 14.655318
54.894863 -35.755157 14.659484
54.832359 -35.251333 13.619678
49.803428 -32.220152 12.843947
49.78838 -32.833427 13.795372
50.975307 -32.907645 12.755211
48.594412 -31.57862 12.985383
49.803428 -32.220152 12.843947
49.78134 -31.652837 11.945222
47.6007 -29.607232 11.34751
47.489889 -30.282542 12.245915
48.683134 -30.335995 11.188252
47.681692 -29.004978 10.467842
46.488447 -28.951524 11.525505
47.6007 -29.607232 11.34751
47.912485 -28.242277 9.572906
47.681692 -29.004978 10.467842
3 0 66 64
3 0 68 66
3 2 71 69
3 2 73 71
3 3 264 266
3 264 75 265
3 264 265 266
3 3 77 75
3 4 267 269
3 267 78 268
3 267 268 269
3 4 270 272
3 272 271 78
3 270 271 272
3 1 81 79
3 273 82 274
3 275 84 276
3 277 276 82
3 275 276 277
3 6 87 85
3 8 90 88
3 8 92 90
3 8 93 92
3 9 96 94
3 9 278 280
3 280 279 96
3 278 279 280
3 11 99 97
3 11 101 99
3 5 281 283
3 281 102 282
3 281 282 283
3 12 105 103
3 12 107 105
3 12 109 107
3 13 112 110
3 13 114 112
3 14 284 286
3 284 115 285
3 284 285 286
3 14 117 115
3 15 120 118
3 15 122 120
3 15 124 122
3 16 127 125
3 16 129 127
3 287 133 288
3 290 289 133
3 10 137 135
3 17 140 138
3 17 142 140
3 7 145 143
3 18 291 293
3 291 292 293
3 18 294 296
3 294 295 296
3 19 149 147
3 21 150 65
3 21 151 150
3 21 153 151
3 23 154 67
3 23 155 154
3 24 158 156
3 26 159 70
3 26 160 159
3 26 162 160
3 28 163 72
3 28 164 163
3 297 165 298
3 29 166 74
3 29 167 166
3 29 169 167
3 31 170 76
3 31 171 170
3 32 174 172
3 34 175 80
3 34 176 175
3 300 299 177
3 35 301 302
3 35 303 305
3 303 179 304
3 303 304 305
3 35 180 179
3 36 181 83
3 36 182 181
3 37 185 183
3 39 186 86
3 39 187 186
3 20 188 148
3 40 189 89
3 40 190 189
3 40 191 190
3 307 306 91
3 22 192 152
3 309 308 95
3 310 193 311
3 312 194 313
3 314 313 193
3 312 313 314
3 41 195 98
3 41 196 195
3 41 197 196
3 42 198 100
3 42 199 198
3 43 315 316
3 43 317 319
3 317 200 318
3 317 318 319
3 25 201 157
3 44 202 104
3 44 203 202
3 44 204 203
3 45 205 106
3 45 206 205
3 45 207 206
3 46 208 108
3 46 209 208
3 27 210 161
3 47 211 111
3 47 212 211
3 47 213 212
3 48 214 113
3 48 215 214
3 49 320 321
3 49 322 324
3 322 216 323
3 322 323 324
3 49 217 216
3 50 218 116
3 50 219 218
3 325 220 326
3 51 221 119
3 51 222 221
3 51 223 222
3 52 224 121
3 52 225 224
3 52 226 225
3 53 227 123
3 53 228 227
3 30 229 168
3 54 230 126
3 54 231 230
3 54 232 231
3 55 233 128
3 55 234 233
3 56 327 328
3 56 329 331
3 329 235 330
3 329 330 331
3 57 236 130
3 57 237 236
3 57 238 237
3 332 239 333
3 334 333 131
3 332 333 334
3 335 240 336
3 337 336 239
3 335 336 337
3 58 338 340
3 338 241 339
3 338 339 340
3 58 242 241
3 58 243 242
3 59 244 132
3 59 245 244
3 59 246 245
3 341 247 342
3 343 342 134
3 341 342 343
3 344 248 345
3 346 345 247
3 344 345 346
3 347 249 348
3 60 250 136
3 60 251 250
3 33 252 173
3 349 253 350
3 351 350 139
3 349 350 351
3 353 352 253
3 61 254 141
3 61 255 254
3 38 256 184
3 62 257 144
3 62 258 257
3 354 259 355
3 356 355 178
3 354 355 356
3 63 260 146
3 63 261 260
3 63 262 261
3 357 263 358
3 360 359 263
3 361 18 362
3 64 65 19
3 66 65 64
3 66 21 65
3 66 67 21
3 68 67 66
3 68 23 67
3 69 70 24
3 71 70 69
3 71 26 70
3 71 72 26
3 73 72 71
3 73 28 72
3 363 74 364
3 75 365 367
3 365 74 366
3 365 366 367
3 75 29 74
3 75 76 29
3 77 76 75
3 77 31 76
3 78 368 369
3 78 370 371
3 78 372 373
3 375 374 78
3 79 80 32
3 81 80 79
3 81 34 80
3 82 376 377
3 82 378 380
3 378 35 379
3 378 379 380
3 82 83 35
3 84 83 82
3 84 36 83
3 85 86 37
3 87 86 85
3 87 39 86
3 88 89 20
3 90 89 88
3 90 40 89
3 90 91 40
3 92 91 90
3 92 381 383
3 383 382 91
3 381 382 383
3 92 384 385
3 93 386 388
3 388 387 92
3 386 387 388
3 93 389 390
3 94 95 22
3 96 95 94
3 96 391 393
3 393 392 95
3 391 392 393
3 96 394 395
3 397 396 96
3 97 398 400
3 398 98 399
3 398 399 400
3 99 98 97
3 99 41 98
3 99 100 41
3 101 100 99
3 101 42 100
3 102 401 402
3 102 403 405
3 403 43 404
3 403 404 405
3 103 104 25
3 105 104 103
3 105 44 104
3 105 106 44
3 107 106 105
3 107 45 106
3 107 108 45
3 109 108 107
3 109 46 108
3 110 111 27
3 112 111 110
3 112 47 111
3 112 113 47
3 114 113 112
3 114 48 113
3 115 406 407
3 115 408 410
3 408 49 409
3 408 409 410
3 115 116 49
3 117 116 115
3 117 50 116
3 118 411 413
3 411 119 412
3 411 412 413
3 120 119 118
3 120 51 119
3 120 121 51
3 122 121 120
3 122 52 121
3 122 123 52
3 124 123 122
3 124 53 123
3 125 126 30
3 127 126 125
3 127 54 126
3 127 128 54
3 129 128 127
3 129 55 128
3 414 56 415
3 416 130 417
3 418 130 419
3 420 57 421
3 422 421 130
3 420 421 422
3 423 131 424
3 425 424 57
3 423 424 425
3 426 131 427
3 429 428 131
3 430 58 431
3 432 132 433
3 434 433 58
3 432 433 434
3 133 435 437
3 435 132 436
3 435 436 437
3 133 59 132
3 133 134 59
3 438 134 439
3 440 439 133
3 438 439 440
3 442 441 134
3 135 443 445
3 443 136 444
3 443 444 445
3 137 136 135
3 137 60 136
3 138 139 33
3 140 139 138
3 140 446 448
3 448 447 139
3 446 447 448
3 140 449 451
3 449 141 450
3 449 450 451
3 142 141 140
3 142 61 141
3 143 144 38
3 145 144 143
3 145 62 144
3 452 146 453
3 454 146 455
3 456 63 457
3 458 457 146
3 456 457 458
3 460 459 63
3 147 148 6
3 149 148 147
3 149 20 148
3 65 149 19
3 150 149 65
3 150 20 149
3 150 88 20
3 151 88 150
3 151 8 88
3 151 152 8
3 153 152 151
3 153 22 152
3 67 153 21
3 154 153 67
3 154 22 153
3 154 94 22
3 155 94 154
3 155 9 94
3 461 97 462
3 463 97 464
3 465 11 466
3 467 466 97
3 465 466 467
3 156 157 5
3 158 157 156
3 158 25 157
3 70 158 24
3 159 158 70
3 159 25 158
3 159 103 25
3 160 103 159
3 160 12 103
3 160 161 12
3 162 161 160
3 162 27 161
3 72 162 26
3 163 162 72
3 163 27 162
3 163 110 27
3 164 110 163
3 164 13 110
3 165 468 469
3 165 470 472
3 470 14 471
3 470 471 472
3 74 473 474
3 166 475 477
3 477 476 74
3 475 476 477
3 166 478 479
3 166 480 482
3 480 118 481
3 480 481 482
3 167 118 166
3 167 15 118
3 167 168 15
3 169 168 167
3 169 30 168
3 76 169 29
3 170 169 76
3 170 30 169
3 170 125 30
3 171 125 170
3 171 16 125
3 172 173 10
3 174 173 172
3 174 33 173
3 80 174 32
3 175 174 80
3 175 33 174
3 175 138 33
3 176 138 175
3 176 17 138
3 177 178 7
3 483 178 484
3 485 484 177
3 483 484 485
3 487 486 178
3 488 5 489
3 179 490 491
3 179 492 494
3 492 5 493
3 492 493 494
3 179 156 5
3 180 156 179
3 180 24 156
3 83 180 35
3 181 180 83
3 181 24 180
3 181 69 24
3 182 69 181
3 182 2 69
3 495 3 496
3 497 4 498
3 183 184 1
3 185 184 183
3 185 38 184
3 86 185 37
3 186 185 86
3 186 38 185
3 186 143 38
3 187 143 186
3 187 7 143
3 148 87 6
3 188 87 148
3 188 39 87
3 89 188 20
3 189 188 89
3 189 39 188
3 189 187 39
3 190 187 189
3 190 7 187
3 190 177 7
3 191 177 190
3 191 499 501
3 501 500 177
3 499 500 501
3 91 191 40
3 502 191 503
3 504 503 91
3 502 503 504
3 506 505 191
3 152 93 8
3 192 93 152
3 192 507 509
3 509 508 93
3 507 508 509
3 95 192 22
3 510 192 511
3 512 511 95
3 510 511 512
3 514 513 192
3 193 515 516
3 193 517 518
3 193 519 521
3 519 135 520
3 519 520 521
3 194 135 193
3 194 10 135
3 98 522 523
3 195 524 526
3 526 525 98
3 524 525 526
3 195 527 528
3 195 529 531
3 529 194 530
3 529 530 531
3 196 194 195
3 196 10 194
3 196 172 10
3 197 172 196
3 197 32 172
3 100 197 41
3 198 197 100
3 198 32 197
3 198 79 32
3 199 79 198
3 199 1 79
3 200 532 533
3 200 534 536
3 534 11 535
3 534 535 536
3 157 102 5
3 201 102 157
3 201 43 102
3 104 201 25
3 202 201 104
3 202 43 201
3 202 200 43
3 203 200 202
3 203 11 200
3 203 101 11
3 204 101 203
3 204 42 101
3 106 204 44
3 205 204 106
3 205 42 204
3 205 199 42
3 206 199 205
3 206 1 199
3 206 183 1
3 207 183 206
3 207 37 183
3 108 207 45
3 208 207 108
3 208 37 207
3 208 85 37
3 209 85 208
3 209 6 85
3 161 109 12
3 210 109 161
3 210 46 109
3 111 210 27
3 211 210 111
3 211 46 210
3 211 209 46
3 212 209 211
3 212 6 209
3 212 147 6
3 213 147 212
3 213 19 147
3 113 213 47
3 214 213 113
3 214 19 213
3 214 64 19
3 215 64 214
3 215 0 64
3 216 537 539
3 537 538 539
3 216 540 541
3 216 542 544
3 542 84 543
3 542 543 544
3 217 84 216
3 217 36 84
3 116 217 49
3 218 217 116
3 218 36 217
3 218 182 36
3 219 182 218
3 219 2 182
3 545 165 546
3 220 547 549
3 547 165 548
3 547 548 549
3 220 14 165
3 119 550 551
3 221 552 554
3 554 553 119
3 552 553 554
3 221 555 556
3 221 557 559
3 557 220 558
3 557 558 559
3 222 220 221
3 222 14 220
3 222 117 14
3 223 117 222
3 223 50 117
3 121 223 51
3 224 223 121
3 224 50 223
3 224 219 50
3 225 219 224
3 225 2 219
3 225 73 2
3 226 73 225
3 226 28 73
3 123 226 52
3 227 226 123
3 227 28 226
3 227 164 28
3 228 164 227
3 228 13 164
3 168 124 15
3 229 124 168
3 229 53 124
3 126 229 30
3 230 229 126
3 230 53 229
3 230 228 53
3 231 228 230
3 231 13 228
3 231 114 13
3 232 114 231
3 232 48 114
3 128 232 54
3 233 232 128
3 233 48 232
3 233 215 48
3 234 215 233
3 234 0 215
3 235 560 561
3 235 562 564
3 562 3 563
3 562 563 564
3 565 56 566
3 130 567 568
3 236 569 571
3 571 570 130
3 569 570 571
3 236 572 574
3 572 56 573
3 572 573 574
3 236 235 56
3 237 235 236
3 237 3 235
3 237 77 3
3 238 77 237
3 238 31 77
3 131 238 57
3 239 238 131
3 239 31 238
3 239 171 31
3 240 171 239
3 240 16 171
3 241 575 576
3 241 577 578
3 241 579 581
3 579 240 580
3 579 580 581
3 242 240 241
3 242 16 240
3 242 129 16
3 243 129 242
3 243 55 129
3 132 243 58
3 244 243 132
3 244 55 243
3 244 234 55
3 245 234 244
3 245 0 234
3 245 68 0
3 246 68 245
3 246 23 68
3 134 246 59
3 247 246 134
3 247 23 246
3 247 155 23
3 248 155 247
3 248 9 155
3 582 248 583
3 584 248 585
3 586 9 587
3 588 587 248
3 586 587 588
3 590 589 9
3 249 591 592
3 249 593 595
3 593 18 594
3 593 594 595
3 136 596 598
3 596 249 597
3 596 597 598
3 250 249 136
3 250 18 249
3 250 599 601
3 601 600 18
3 599 600 601
3 251 602 604
3 604 603 250
3 602 603 604
3 251 605 606
3 173 137 10
3 252 137 173
3 252 60 137
3 139 252 33
3 253 252 139
3 253 60 252
3 253 251 60
3 607 251 608
3 609 608 253
3 607 608 609
3 611 610 251
3 141 612 613
3 254 614 616
3 616 615 141
3 614 615 616
3 254 617 618
3 254 619 620
3 255 621 623
3 623 622 254
3 621 622 623
3 255 624 626
3 624 4 625
3 624 625 626
3 184 81 1
3 256 81 184
3 256 34 81
3 144 256 38
3 257 256 144
3 257 34 256
3 257 176 34
3 258 176 257
3 258 17 176
3 178 145 7
3 259 145 178
3 259 62 145
3 146 627 629
3 627 259 628
3 627 628 629
3 260 259 146
3 260 62 259
3 260 258 62
3 261 258 260
3 261 17 258
3 261 142 17
3 262 142 261
3 262 61 142
3 630 262 631
3 632 631 63
3 630 631 632
3 263 633 635
3 633 262 634
3 633 634 635
3 263 61 262
3 263 255 61
3 636 255 637
3 638 637 263
3 636 637 638
3 639 4 640
3 641 640 255
3 639 640 641
3 643 642 4
