ply
format ascii 1.0
element vertex 175
property float x
property float y
property float z
element face 167
property list uchar int vertex_index
end_header
-53.868011 36.377544 12.080198
-51.546059 33.316715 6.653518
-52.17868 44.426292 4.82606
-53.560413 32.065941 14.631819
-54.752048 31.202419 10.66583
-53.543938 29.66708 7.715134
-53.904816 35.146461 8.70997
-50.704132 48.001591 0.5257
-50.365776 42.654003 3.085891
-53.341698 40.509342 8.749633
-52.348007 38.989571 6.155205
-53.815536 34.24474 13.458311
-54.442528 31.702862 12.582941
-54.424324 33.781979 11.519966
-54.427689 33.186214 9.765114
-54.197662 35.825424 10.276662
-52.615067 31.490105 7.245424
-52.136414 28.582584 6.888083
-50.958061 30.343864 6.636017
-51.628883 47.1152 3.952977
-52.168167 45.191929 6.236283
-52.615578 43.188293 8.418557
-52.818588 42.500572 6.847178
-53.157143 39.804344 7.287153
-52.411957 41.72636 5.58131
-54.901131 28.622715 9.580795
-54.316257 27.845772 8.084103
-54.444153 30.532848 9.003386
-53.807312 32.430168 8.307545
-52.996094 34.317547 7.478263
-51.032013 48.936878 1.597131
-51.46286 46.267498 2.712142
-51.573486 43.583706 3.763262
-50.681007 45.354992 1.849524
-52.691616 34.604763 15.477017
-52.984314 36.828735 14.020466
-53.191975 26.836876 7.0455
-53.061447 39.000134 12.343773
-52.927963 41.120998 10.466164
-53.70401 38.466064 10.503611
-53.765926 37.834045 8.859737
-53.200249 37.082954 7.503105
-52.035919 36.192924 6.510928
-51.389362 40.853104 4.679178
-50.963127 38.046925 5.406712
-50.366516 35.141838 5.926236
-50.612713 32.718331 6.457378
-50.318714 31.231905 6.448627
-51.25206 31.830289 6.644768
-53.92197 30.826489 14.053847
-53.358312 30.953797 15.123227
-54.820395 30.197553 11.044332
-54.665635 30.447775 12.002887
-54.597288 31.452641 11.624385
-54.826589 29.912567 10.123313
-54.894936 28.907702 10.501814
-54.820395 30.197553 11.044332
-50.868072 48.469234 1.061416
-50.71619 49.785202 0.394542
-50.55225 49.317559 -0.141174
-52.18606 35.905386 15.746793
-51.946371 34.748131 16.490037
-52.332409 37.017372 15.018518
-52.837965 35.716749 14.748742
-52.18606 35.905386 15.746793
-51.884915 27.079746 6.707422
-51.241816 27.92094 6.72033
-52.539265 40.328843 12.349995
-52.508766 39.229804 13.320235
-50.03774 37.499537 5.230831
-50.390428 38.954803 4.787391
-49.739435 36.046993 5.490594
-50.664822 36.594381 5.666474
-50.03774 37.499537 5.230831
-49.348633 34.521772 5.834407
-49.739435 36.046993 5.490594
-50.315373 48.80273 -0.595633
-50.55225 49.317559 -0.141174
-49.84702 48.309616 -0.932387
-50.235779 47.508477 0.188947
-50.315373 48.80273 -0.595633
-50.652639 28.80158 6.594297
-51.241816 27.92094 6.72033
-51.547238 29.463224 6.76205
-49.96771 29.65596 6.556664
-50.652639 28.80158 6.594297
-49.96771 29.65596 6.556664
-50.318714 31.231905 6.448627
-51.426746 47.5075 4.739257
-51.202747 48.467503 3.493988
-51.696388 46.545864 5.88091
-51.426746 47.5075 4.739257
-51.898525 46.153565 5.09463
-51.887655 45.539589 7.084794
-51.696388 46.545864 5.88091
-52.391872 44.190111 7.32742
-52.111361 44.537771 8.175931
-51.887655 45.539589 7.084794
-50.091753 41.258342 3.626981
-49.502442 42.135503 2.940977
-54.363028 30.644949 13.029408
-53.92197 30.826489 14.053847
-54.00147 31.884402 13.60738
-54.363028 30.644949 13.029408
-54.665635 30.447775 12.002887
-55.05106 27.659577 9.824453
-54.894936 28.907702 10.501814
-54.918789 27.321808 8.982708
-55.05106 27.659577 9.824453
-54.608694 28.234243 8.832449
-54.626352 26.933336 8.234362
-54.918789 27.321808 8.982708
-50.659347 50.280441 1.044539
-50.71619 49.785202 0.394542
-50.904312 49.378342 2.316064
-50.659347 50.280441 1.044539
-51.330448 48.026039 2.775054
-51.202747 48.467503 3.493988
-50.904312 49.378342 2.316064
-50.224216 46.185177 0.850859
-50.69257 46.678292 1.187612
-50.235779 47.508477 0.188947
-49.998121 44.861418 1.616096
-50.224216 46.185177 0.850859
-49.840505 43.510924 2.234279
-50.523392 44.004497 2.467707
-49.998121 44.861418 1.616096
-49.502442 42.135503 2.940977
-49.840505 43.510924 2.234279
-52.888546 32.195652 15.672063
-53.358312 30.953797 15.123227
-52.454148 33.465063 16.094662
-51.946371 34.748131 16.490037
-53.126014 33.335352 15.054418
-52.888546 32.195652 15.672063
-52.454148 33.465063 16.094662
-54.216325 26.473688 7.614748
-54.626352 26.933336 8.234362
-53.654184 25.96924 7.095446
-54.216325 26.473688 7.614748
-53.754116 27.341324 7.564801
-53.005932 25.377384 6.743226
-53.468142 24.509748 6.793172
-53.654184 25.96924 7.095446
-52.412695 26.206892 6.78613
-52.664195 27.70973 6.966791
-51.884915 27.079746 6.707422
-53.005932 25.377384 6.743226
-52.412695 26.206892 6.78613
-52.470199 38.144104 14.158582
-52.332409 37.017372 15.018518
-53.02288 37.914434 13.18212
-52.470199 38.144104 14.158582
-52.508766 39.229804 13.320235
-52.251103 43.49514 9.320762
-52.111361 44.537771 8.175931
-52.407295 42.461492 10.344565
-52.251103 43.49514 9.320762
-52.771771 42.154646 9.44236
-52.472522 41.389274 11.41119
-52.407295 42.461492 10.344565
-52.994705 40.060566 11.404968
-52.539265 40.328843 12.349995
-52.472522 41.389274 11.41119
-50.603546 40.357893 4.423624
-50.877569 41.753554 3.882535
-50.091753 41.258342 3.626981
-51.176244 39.450015 5.042945
-50.603546 40.357893 4.423624
-50.390428 38.954803 4.787391
-50.022942 33.630892 6.093737
-50.612713 32.718331 6.457378
-50.956288 34.229276 6.289877
-50.022942 33.630892 6.093737
-49.348633 34.521772 5.834407
3 0 13 11
3 0 15 13
3 1 18 16
3 1 46 48
3 48 47 18
3 46 47 48
3 2 20 19
3 2 22 20
3 2 24 22
3 3 49 50
3 4 51 53
3 53 52 12
3 51 52 53
3 4 54 56
3 54 25 55
3 54 55 56
3 4 27 25
3 6 28 14
3 6 29 28
3 7 57 59
3 57 30 58
3 57 58 59
3 7 31 30
3 7 33 31
3 60 34 61
3 62 35 63
3 64 63 34
3 62 63 64
3 5 36 26
3 66 65 17
3 67 37 68
3 9 38 21
3 9 39 38
3 9 40 39
3 10 41 23
3 10 42 41
3 8 43 32
3 69 44 70
3 71 45 72
3 73 72 44
3 71 72 73
3 75 74 45
3 11 12 3
3 13 12 11
3 13 4 12
3 13 14 4
3 15 14 13
3 15 6 14
3 76 7 77
3 80 79 7
3 78 79 80
3 16 17 5
3 18 17 16
3 18 81 83
3 83 82 17
3 81 82 83
3 18 84 85
3 87 86 18
3 19 88 89
3 20 90 92
3 92 91 19
3 90 91 92
3 20 93 94
3 20 95 97
3 95 21 96
3 95 96 97
3 22 21 20
3 22 9 21
3 22 23 9
3 24 23 22
3 24 10 23
3 99 98 8
3 12 100 102
3 102 101 3
3 100 101 102
3 104 103 12
3 25 105 106
3 25 107 108
3 25 109 111
3 109 26 110
3 109 110 111
3 27 26 25
3 27 5 26
3 14 27 4
3 28 27 14
3 28 5 27
3 28 16 5
3 29 16 28
3 29 1 16
3 30 112 113
3 30 114 115
3 30 116 118
3 116 19 117
3 116 117 118
3 31 19 30
3 31 2 19
3 31 32 2
3 33 32 31
3 33 8 32
3 119 33 120
3 121 120 7
3 119 120 121
3 122 33 123
3 124 8 125
3 126 125 33
3 124 125 126
3 128 127 8
3 129 3 130
3 34 131 132
3 34 133 135
3 133 3 134
3 133 134 135
3 34 11 3
3 35 11 34
3 35 0 11
3 26 136 137
3 36 138 140
3 140 139 26
3 138 139 140
3 36 141 143
3 141 142 143
3 17 36 5
3 144 36 145
3 146 145 17
3 144 145 146
3 148 147 36
3 149 35 150
3 37 151 153
3 151 35 152
3 151 152 153
3 37 0 35
3 21 154 155
3 38 156 158
3 158 157 21
3 156 157 158
3 38 159 160
3 38 161 163
3 161 37 162
3 161 162 163
3 39 37 38
3 39 0 37
3 39 15 0
3 40 15 39
3 40 6 15
3 23 40 9
3 41 40 23
3 41 6 40
3 41 29 6
3 42 29 41
3 42 1 29
3 32 24 2
3 43 24 32
3 43 10 24
3 164 43 165
3 166 165 8
3 164 165 166
3 44 167 169
3 167 43 168
3 167 168 169
3 44 10 43
3 44 42 10
3 45 42 44
3 45 1 42
3 45 170 172
3 172 171 1
3 170 171 172
3 174 173 45
