ply
format ascii 1.0
element vertex 192
property float x
property float y
property float z
element face 174
property list uchar int vertex_index
end_header
-49.146347 51.047604 -3.999538
-46.535316 61.398525 -9.498486
-46.010647 54.583523 -12.967096
-49.764408 53.288311 -2.077471
-44.136559 54.539707 -16.769016
-43.063351 51.142422 -12.51897
-41.425095 50.444447 -16.19673
-47.604897 58.761654 -4.198996
-48.60997 56.098507 -7.189487
-47.600929 53.335621 -8.590479
-47.210342 58.024212 -12.029125
-49.746277 52.180729 -3.241869
-50.400368 50.633526 -0.808048
-49.926613 49.60387 -1.716967
-42.937149 52.476269 -16.591022
-41.86483 51.792423 -18.201393
-45.649216 62.968334 -7.696527
-46.166763 61.576664 -4.991886
-47.12574 60.189526 -6.896166
-48.324638 57.455776 -5.877277
-47.756012 58.713367 -8.47027
-47.952122 57.188717 -9.665348
-47.085579 59.735416 -10.956644
-46.82233 54.108166 -10.828403
-46.310631 51.942547 -8.689117
-45.517529 52.565113 -10.827585
-44.981026 64.125046 -10.278494
-45.797718 62.354534 -11.957859
-44.121693 65.009979 -12.688688
-45.129623 54.732159 -14.959435
-44.718277 52.871906 -12.884089
-43.873436 52.84264 -14.815327
-42.281635 50.955944 -14.421324
-46.573528 59.980846 -2.208452
-48.818954 55.994152 -3.221558
-49.208565 54.788425 -4.647764
-49.07357 53.552532 -5.681618
-48.371468 52.302898 -6.30076
-48.378098 54.719578 -8.097904
-47.64653 55.647915 -10.45188
-46.854912 56.300404 -12.696129
-46.279663 60.485126 -13.285465
-46.351456 58.567387 -14.229141
-45.969139 56.641628 -14.780416
-49.002609 49.792416 -3.10883
-49.392742 49.070549 -1.967545
-49.53648 50.325737 -2.858252
-48.56043 50.468639 -4.173634
-49.002609 49.792416 -3.10883
-41.760762 52.483829 -19.002662
-42.427269 52.902241 -18.290816
-41.243355 51.309654 -18.930301
-41.760762 52.483829 -19.002662
-44.051682 65.481217 -10.5606
-44.452599 64.934006 -9.287535
-43.622015 65.923683 -11.765698
-44.55136 64.567512 -11.483591
-44.051682 65.481217 -10.5606
-50.025545 52.456158 -0.792762
-49.512522 53.821762 -1.308188
-50.71619 49.785202 0.394542
-50.55225 49.317559 -0.141174
-40.947916 49.740899 -15.032326
-41.376186 49.996647 -14.144623
-41.853365 50.700195 -15.309027
-40.567203 49.429646 -15.931489
-40.947916 49.740899 -15.032326
-47.804991 57.952553 -2.823424
-47.289307 58.562149 -1.828151
-47.089213 59.37125 -3.203724
-48.211925 57.377903 -3.710277
-48.412019 56.568802 -2.334704
-47.804991 57.952553 -2.823424
-45.57686 61.751773 -13.753903
-46.038691 61.41983 -12.621662
-45.335888 62.686477 -13.0901
-45.843914 58.675693 -15.222881
-45.825602 59.745644 -14.816992
-45.652755 57.712814 -15.498518
-46.160297 57.604507 -14.504779
-45.843914 58.675693 -15.222881
-45.458957 56.64365 -15.721005
-45.652755 57.712814 -15.498518
-47.363029 52.186645 -7.552895
-47.748299 51.670284 -6.408035
-47.986199 52.81926 -7.44562
-45.863829 50.837166 -7.5309
-45.452181 51.227665 -8.570531
-43.441471 51.067116 -11.517428
-44.268935 51.931858 -11.699987
-43.890814 52.007164 -12.701529
-50.315373 48.80273 -0.595633
-50.55225 49.317559 -0.141174
-50.163491 50.118698 -1.262507
-49.84702 48.309616 -0.932387
-50.315373 48.80273 -0.595633
-49.84702 48.309616 -0.932387
-49.392742 49.070549 -1.967545
-42.963428 53.244163 -17.48563
-43.536854 53.507988 -16.680019
-43.563133 54.275883 -17.574627
-42.400989 52.134346 -17.396207
-42.963428 53.244163 -17.48563
-42.427269 52.902241 -18.290816
-41.155783 50.715252 -18.019272
-40.935915 50.041264 -17.01694
-41.644962 51.118435 -17.199061
-40.534307 50.232483 -18.748181
-41.155783 50.715252 -18.019272
-41.243355 51.309654 -18.930301
-45.907989 62.272499 -6.344207
-45.352097 62.987139 -5.299178
-45.093323 63.682974 -6.651498
-45.05563 51.538948 -9.639764
-45.452181 51.227665 -8.570531
-45.91408 52.25383 -9.758351
-42.460079 50.24223 -11.253739
-42.116266 50.248242 -12.242996
-44.786693 64.35565 -7.996551
-45.093323 63.682974 -6.651498
-45.315121 63.54669 -8.98751
-44.786693 64.35565 -7.996551
-44.452599 64.934006 -9.287535
-44.497875 64.0142 -13.455514
-45.335888 62.686477 -13.0901
-44.959705 63.682257 -12.323273
-43.106586 66.32608 -12.943503
-43.622015 65.923683 -11.765698
-43.576807 65.296097 -13.783523
-43.106586 66.32608 -12.943503
-44.497875 64.0142 -13.455514
-43.576807 65.296097 -13.783523
-50.343525 51.128765 -0.15805
-50.025545 52.456158 -0.792762
-50.082388 51.960919 -1.442759
-50.343525 51.128765 -0.15805
-50.71619 49.785202 0.394542
-41.725409 50.155003 -13.194173
-42.116266 50.248242 -12.242996
-42.672493 51.049183 -13.470147
-41.725409 50.155003 -13.194173
-41.376186 49.996647 -14.144623
-40.567203 49.429646 -15.931489
-40.935915 50.041264 -17.01694
-45.586117 62.205323 -3.904292
-45.352097 62.987139 -5.299178
-45.789499 61.407414 -2.512575
-45.586117 62.205323 -3.904292
-46.370146 60.778755 -3.600169
-45.973365 60.530338 -1.087558
-45.789499 61.407414 -2.512575
-46.740687 59.09428 -0.796289
-45.973365 60.530338 -1.087558
-46.740687 59.09428 -0.796289
-47.289307 58.562149 -1.828151
-49.039794 55.174683 -1.880231
-48.412019 56.568802 -2.334704
-49.291681 54.641232 -2.649514
-49.512522 53.821762 -1.308188
-49.039794 55.174683 -1.880231
-45.789705 60.704514 -14.345154
-45.57686 61.751773 -13.753903
-46.315559 59.526257 -13.757303
-45.789705 60.704514 -14.345154
-45.825602 59.745644 -14.816992
-45.0392 55.688916 -15.810515
-45.549381 55.686893 -14.869926
-45.458957 56.64365 -15.721005
-44.542668 55.592689 -16.715305
-44.633091 54.635933 -15.864225
-45.0392 55.688916 -15.810515
-43.945397 55.421703 -17.54213
-44.542668 55.592689 -16.715305
-43.563133 54.275883 -17.574627
-43.945397 55.421703 -17.54213
-48.172991 51.096286 -5.324245
-48.56043 50.468639 -4.173634
-48.758907 51.675251 -5.150149
-48.172991 51.096286 -5.324245
-47.748299 51.670284 -6.408035
-46.71788 51.490108 -7.602213
-47.363029 52.186645 -7.552895
-46.95578 52.639084 -8.639798
-46.71788 51.490108 -7.602213
-45.863829 50.837166 -7.5309
-44.66856 51.778461 -10.671736
-45.117903 52.718509 -11.855837
-44.268935 51.931858 -11.699987
-45.05563 51.538948 -9.639764
-44.66856 51.778461 -10.671736
-43.441471 51.067116 -11.517428
-42.460079 50.24223 -11.253739
3 0 13 11
3 0 44 46
3 46 45 13
3 44 45 46
3 0 47 48
3 49 15 50
3 52 51 15
3 1 18 16
3 1 20 18
3 1 22 20
3 2 25 23
3 53 26 54
3 55 28 56
3 57 56 26
3 55 56 57
3 3 58 59
3 61 60 12
3 4 31 29
3 6 32 14
3 6 62 64
3 64 63 32
3 62 63 64
3 6 65 66
3 7 33 17
3 7 67 69
3 69 68 33
3 67 68 69
3 7 70 72
3 70 34 71
3 70 71 72
3 8 35 19
3 8 36 35
3 8 38 36
3 10 39 21
3 10 40 39
3 73 41 74
3 75 74 27
3 73 74 75
3 76 42 77
3 78 43 79
3 80 79 42
3 78 79 80
3 82 81 43
3 9 83 85
3 85 84 37
3 83 84 85
3 87 86 24
3 5 88 90
3 90 89 30
3 88 89 90
3 11 12 3
3 13 12 11
3 13 91 93
3 93 92 12
3 91 92 93
3 13 94 95
3 97 96 13
3 98 14 99
3 100 99 4
3 98 99 100
3 15 101 103
3 101 14 102
3 101 102 103
3 15 6 14
3 15 104 106
3 106 105 6
3 104 105 106
3 109 108 15
3 107 108 109
3 16 110 112
3 110 17 111
3 110 111 112
3 18 17 16
3 18 7 17
3 18 19 7
3 20 19 18
3 20 8 19
3 20 21 8
3 22 21 20
3 22 10 21
3 23 24 9
3 25 24 23
3 25 113 115
3 115 114 24
3 113 114 115
3 117 116 5
3 118 16 119
3 26 120 122
3 120 16 121
3 120 121 122
3 26 1 16
3 26 27 1
3 28 27 26
3 28 123 125
3 125 124 27
3 123 124 125
3 126 28 127
3 128 28 129
3 131 130 28
3 12 132 134
3 134 133 3
3 132 133 134
3 136 135 12
3 29 30 2
3 31 30 29
3 31 5 30
3 14 31 4
3 32 31 14
3 32 5 31
3 32 137 139
3 139 138 5
3 137 138 139
3 141 140 32
3 143 142 6
3 17 144 145
3 33 146 148
3 148 147 17
3 146 147 148
3 33 149 150
3 33 151 152
3 154 153 33
3 34 155 156
3 34 157 159
3 157 3 158
3 157 158 159
3 19 34 7
3 35 34 19
3 35 3 34
3 35 11 3
3 36 11 35
3 36 0 11
3 36 37 0
3 38 37 36
3 38 9 37
3 21 38 8
3 39 38 21
3 39 9 38
3 39 23 9
3 40 23 39
3 40 2 23
3 27 22 1
3 41 22 27
3 41 10 22
3 160 41 161
3 42 162 164
3 162 41 163
3 162 163 164
3 42 10 41
3 42 40 10
3 43 40 42
3 43 2 40
3 43 29 2
3 165 29 166
3 167 166 43
3 165 166 167
3 168 4 169
3 170 169 29
3 168 169 170
3 171 4 172
3 174 173 4
3 37 175 177
3 177 176 0
3 175 176 177
3 179 178 37
3 24 180 182
3 182 181 9
3 180 181 182
3 184 183 24
3 30 25 2
3 185 25 186
3 187 186 30
3 185 186 187
3 189 188 25
3 191 190 5
