ply
format ascii 1.0
element vertex 165
property float x
property float y
property float z
element face 155
property list uchar int vertex_index
end_header
53.287331 -1.474695 -54.474251
60.501053 -16.359247 -47.876183
53.237244 -7.380136 -53.857033
64.823593 -26.858294 -40.445419
63.641052 -18.234726 -44.133568
62.212494 -24.800062 -43.941635
59.161499 -22.590216 -46.558418
57.59901 -2.498753 -50.994232
61.146751 -10.065785 -47.777718
57.38308 -8.521705 -51.504974
56.881767 -14.576948 -50.458977
53.274544 -4.429379 -54.398491
63.753418 -30.264317 -40.386261
63.559731 -25.853842 -42.267258
62.500114 -29.174833 -41.967957
61.154518 -28.02302 -43.366333
62.12735 -17.296717 -46.107735
62.549553 -14.083942 -45.984642
60.879608 -13.200961 -47.984901
59.318062 -9.257927 -49.77095
59.096252 -12.351741 -49.751534
57.200367 -11.559086 -51.195312
58.752846 -15.440285 -49.352097
53.11198 -10.322845 -52.83992
65.686241 -23.452942 -40.25856
65.049973 -19.172628 -42.037018
64.397804 -22.499722 -42.272865
63.024132 -21.522429 -44.186951
61.548092 -20.518196 -45.924599
59.949913 -19.499342 -47.404259
60.753288 -23.704865 -45.395164
66.026978 -27.817215 -38.542145
64.947784 -31.285065 -38.683411
55.482262 -1.91095 -52.885445
59.47765 -6.198169 -49.463364
57.49807 -5.488594 -51.419075
55.424698 -4.890806 -53.092682
55.351513 -7.882296 -52.891022
55.199265 -10.863755 -52.240616
54.902603 -13.825422 -51.145271
58.218925 -18.495949 -48.551498
56.363674 -17.55773 -49.313881
52.162365 -1.343107 -55.077152
52.160346 0.12102 -55.043945
53.280938 -2.952037 -54.436371
52.155971 -2.820449 -55.039272
52.162365 -1.343107 -55.077152
62.473238 -31.393033 -41.002038
63.126766 -29.719575 -41.177109
63.09989 -31.937775 -40.21119
61.838732 -30.797139 -41.661141
62.473238 -31.393033 -41.002038
52.149919 -7.224233 -54.109501
52.152023 -5.760639 -54.563603
53.174612 -8.851491 -53.348477
52.087288 -8.695587 -53.600944
52.149919 -7.224233 -54.109501
60.421051 -27.423735 -43.943084
60.481278 -29.592042 -42.919941
66.601006 -28.280401 -37.575245
66.459687 -26.107031 -38.374046
64.882263 -33.516556 -37.843494
65.527241 -31.761898 -37.797677
64.298203 -33.0043 -38.626697
64.882263 -33.516556 -37.843494
56.584333 -0.741567 -51.660728
57.655954 -1.053863 -50.639805
56.540636 -2.204851 -51.939838
55.525959 -0.447665 -52.606335
56.584333 -0.741567 -51.660728
63.872169 -16.615057 -43.986027
64.57663 -17.084008 -42.937752
64.345512 -18.703677 -43.085293
62.001503 -10.500854 -46.696323
62.702904 -12.509933 -45.799785
61.848152 -12.074863 -46.88118
61.2444 -8.536909 -47.54628
62.001503 -10.500854 -46.696323
60.312201 -8.131977 -48.620541
60.409849 -6.603101 -48.389103
61.2444 -8.536909 -47.54628
55.983553 -19.018626 -48.576981
56.900294 -19.526409 -48.347229
55.388083 -17.157346 -49.492607
55.983553 -19.018626 -48.576981
52.170673 -4.28526 -54.834332
52.155971 -2.820449 -55.039272
53.255894 -5.904758 -54.127762
52.152023 -5.760639 -54.563603
52.170673 -4.28526 -54.834332
61.165934 -30.221232 -42.360328
61.827316 -28.598926 -42.667145
61.838732 -30.797139 -41.661141
60.481278 -29.592042 -42.919941
61.165934 -30.221232 -42.360328
58.604177 -2.86276 -49.940799
57.655954 -1.053863 -50.639805
58.299206 -22.042653 -46.969498
58.625187 -24.09834 -45.969673
52.040945 -10.164413 -52.913173
52.087288 -8.695587 -53.600944
52.978785 -11.791819 -52.118019
52.040945 -10.164413 -52.913173
65.368107 -21.312785 -41.147789
65.700196 -19.648344 -40.962463
66.018329 -21.788501 -40.073234
60.220436 -25.264658 -44.9575
60.953903 -25.863943 -44.380748
60.421051 -27.423735 -43.943084
59.424542 -24.707334 -45.539127
59.957393 -23.147541 -45.976791
60.220436 -25.264658 -44.9575
58.625187 -24.09834 -45.969673
59.424542 -24.707334 -45.539127
53.309594 -0.007017 -54.302529
52.160346 0.12102 -55.043945
66.289318 -23.924895 -39.232254
66.018329 -21.788501 -40.073234
65.856609 -25.635078 -39.400352
66.289318 -23.924895 -39.232254
66.459687 -26.107031 -38.374046
66.066837 -30.027973 -37.727044
66.601006 -28.280401 -37.575245
65.487381 -29.55114 -38.612778
66.066837 -30.027973 -37.727044
65.527241 -31.761898 -37.797677
63.70102 -32.493926 -39.478122
64.350601 -30.774691 -39.534836
64.298203 -33.0043 -38.626697
63.047491 -34.167383 -39.303051
63.09989 -31.937775 -40.21119
63.70102 -32.493926 -39.478122
54.407059 -0.225144 -53.508125
55.525959 -0.447665 -52.606335
54.384797 -1.692823 -53.679848
53.309594 -0.007017 -54.302529
54.407059 -0.225144 -53.508125
65.288898 -17.558986 -41.829262
65.700196 -19.648344 -40.962463
65.288898 -17.558986 -41.829262
64.57663 -17.084008 -42.937752
63.32642 -14.539665 -44.911564
63.872169 -16.615057 -43.986027
63.095303 -16.159334 -45.059105
63.32642 -14.539665 -44.911564
62.702904 -12.509933 -45.799785
59.543497 -4.712467 -49.175365
60.409849 -6.603101 -48.389103
58.53833 -4.348461 -50.228798
58.604177 -2.86276 -49.940799
59.543497 -4.712467 -49.175365
53.874096 -13.543108 -51.270695
52.978785 -11.791819 -52.118019
54.007292 -12.074133 -51.992596
57.827919 -19.995519 -47.966037
58.690212 -20.543083 -47.554958
58.299206 -22.042653 -46.969498
57.2913 -18.02684 -48.93269
57.827919 -19.995519 -47.966037
56.900294 -19.526409 -48.347229
54.657547 -15.291192 -50.408302
55.633139 -15.691576 -50.229576
55.388083 -17.157346 -49.492607
53.874096 -13.543108 -51.270695
54.657547 -15.291192 -50.408302
3 0 42 43
3 0 44 46
3 44 11 45
3 44 45 46
3 47 14 48
3 49 48 12
3 47 48 49
3 51 50 14
3 1 18 16
3 1 20 18
3 1 22 20
3 2 52 53
3 2 54 56
3 54 23 55
3 54 55 56
3 3 26 24
3 5 27 13
3 5 28 27
3 5 30 28
3 58 57 15
3 59 31 60
3 61 32 62
3 64 63 32
3 7 65 66
3 7 67 69
3 67 33 68
3 67 68 69
3 4 70 72
3 72 71 25
3 70 71 72
3 8 73 75
3 75 74 17
3 73 74 75
3 8 76 77
3 8 78 80
3 78 34 79
3 78 79 80
3 9 35 19
3 9 36 35
3 9 37 36
3 10 38 21
3 10 39 38
3 6 40 29
3 81 41 82
3 84 83 41
3 11 85 86
3 11 87 89
3 87 2 88
3 87 88 89
3 12 13 3
3 14 13 12
3 14 5 13
3 14 15 5
3 90 15 91
3 92 91 14
3 90 91 92
3 94 93 15
3 95 7 96
3 16 17 4
3 18 17 16
3 18 8 17
3 18 19 8
3 20 19 18
3 20 9 19
3 20 21 9
3 22 21 20
3 22 10 21
3 98 97 6
3 23 99 100
3 23 101 102
3 24 103 105
3 103 25 104
3 103 104 105
3 26 25 24
3 26 4 25
3 13 26 3
3 27 26 13
3 27 4 26
3 27 16 4
3 28 16 27
3 28 1 16
3 28 29 1
3 30 29 28
3 30 6 29
3 15 30 5
3 106 30 107
3 108 107 15
3 106 107 108
3 109 6 110
3 111 110 30
3 109 110 111
3 113 112 6
3 114 0 115
3 116 24 117
3 31 118 120
3 118 24 119
3 118 119 120
3 31 3 24
3 121 31 122
3 32 123 125
3 123 31 124
3 123 124 125
3 32 3 31
3 32 12 3
3 126 12 127
3 128 127 32
3 126 127 128
3 131 130 12
3 129 130 131
3 33 132 133
3 33 134 136
3 134 0 135
3 134 135 136
3 25 137 138
3 140 139 25
3 17 141 143
3 143 142 4
3 141 142 143
3 145 144 17
3 34 146 147
3 34 148 150
3 148 7 149
3 148 149 150
3 19 34 8
3 35 34 19
3 35 7 34
3 35 33 7
3 36 33 35
3 36 0 33
3 36 11 0
3 37 11 36
3 37 2 11
3 21 37 9
3 38 37 21
3 38 2 37
3 38 23 2
3 39 23 38
3 39 151 153
3 153 152 23
3 151 152 153
3 29 22 1
3 40 22 29
3 40 10 22
3 154 40 155
3 156 155 6
3 154 155 156
3 41 157 159
3 157 40 158
3 157 158 159
3 41 10 40
3 41 39 10
3 160 39 161
3 162 161 41
3 160 161 162
3 164 163 39
