ply
format ascii 1.0
element vertex 175
property float x
property float y
property float z
element face 162
property list uchar int vertex_index
end_header
44.132927 9.824764 -57.295509
44.215004 -1.799307 -56.575638
35.575718 10.999767 -56.834152
48.719765 4.675463 -56.479866
43.967274 4.0723 -57.937431
48.756363 -1.152611 -56.443459
48.859573 -7.0068 -54.407509
39.998867 13.659359 -56.770905
39.378979 8.224506 -58.116219
39.450535 2.369883 -57.568108
44.509468 -7.845903 -53.321777
34.152336 11.747091 -55.618629
36.08614 13.492607 -56.018044
51.03336 1.716736 -55.61364
48.703045 1.766628 -56.701637
51.037399 -1.211519 -55.680054
51.066803 -4.141141 -55.270172
41.977047 11.937529 -57.207985
39.587009 11.030558 -57.663841
41.706451 9.172689 -57.932991
44.062439 1.143999 -57.515999
41.663635 3.367552 -57.976387
41.812977 0.414455 -57.23748
44.377579 -4.782035 -55.150009
46.400887 7.387678 -57.047318
43.9771 6.979649 -57.850739
46.330154 4.501127 -57.433525
46.369446 1.585596 -57.342674
46.47176 -1.335859 -56.737556
46.58577 -4.271431 -55.618416
48.826557 -4.072154 -55.673943
51.062595 -7.068329 -54.361969
42.444351 14.493557 -56.068504
44.46072 12.529043 -56.317711
46.614357 10.185898 -56.233788
48.846535 7.531567 -55.829567
51.10276 4.613655 -55.121399
37.691147 12.490171 -57.029457
37.340282 9.811249 -57.664169
37.19017 6.977215 -57.842255
41.613667 6.295397 -58.202072
39.346375 5.32214 -58.091774
46.663895 -7.252413 -54.03624
36.453409 14.580993 -55.407151
35.45343 13.750427 -55.319726
52.162365 -1.343107 -55.077152
51.03538 0.252609 -55.646847
52.160346 0.12102 -55.043945
52.155971 -2.820449 -55.039272
52.162365 -1.343107 -55.077152
43.115597 -2.186405 -56.290298
41.914583 -1.079524 -56.621219
43.01399 -0.692426 -56.906559
44.296291 -3.290671 -55.862823
43.196884 -3.677769 -55.577484
43.115597 -2.186405 -56.290298
34.637846 10.105172 -56.517853
33.926155 10.478834 -55.910091
34.864027 11.373429 -56.226391
35.428232 9.643991 -57.024365
34.637846 10.105172 -56.517853
52.149919 -7.224233 -54.109501
51.064699 -5.604735 -54.816071
52.152023 -5.760639 -54.563603
52.087288 -8.695587 -53.600944
52.149919 -7.224233 -54.109501
43.706356 14.739694 -55.512608
42.775892 15.608064 -55.309616
44.71454 13.757437 -55.637211
43.452535 13.5113 -56.193107
43.706356 14.739694 -55.512608
47.859143 10.223407 -55.516621
46.799644 11.495473 -55.635159
48.975232 8.896242 -55.31451
47.730446 8.858733 -56.031678
47.859143 10.223407 -55.516621
52.273628 4.471026 -54.273174
51.18808 6.016795 -54.689099
52.217308 3.037158 -54.626103
52.273628 4.471026 -54.273174
38.845007 13.074765 -56.900181
37.976896 13.705037 -56.500229
39.130756 14.289631 -56.370953
38.329394 3.211735 -57.554237
38.277314 4.687864 -57.816071
39.398455 3.846012 -57.829941
38.40288 1.721053 -57.164143
38.329394 3.211735 -57.554237
43.466657 -8.323329 -52.836399
43.370582 -6.738009 -53.831707
44.544441 -9.441539 -52.268223
43.466657 -8.323329 -52.836399
34.486528 12.877669 -55.120018
33.630979 11.896856 -54.817284
35.119238 12.619849 -55.818337
34.486528 12.877669 -55.120018
35.45343 13.750427 -55.319726
52.170673 -4.28526 -54.834332
51.052101 -2.67633 -55.475113
52.155971 -2.820449 -55.039272
52.152023 -5.760639 -54.563603
52.170673 -4.28526 -54.834332
40.730891 -0.103698 -56.895836
39.54967 0.874016 -57.06115
40.631756 1.392169 -57.402794
40.730891 -0.103698 -56.895836
41.914583 -1.079524 -56.621219
43.304638 -5.206075 -54.745823
43.196884 -3.677769 -55.577484
44.443523 -6.313969 -54.235893
43.370582 -6.738009 -53.831707
43.304638 -5.206075 -54.745823
48.834983 -8.496008 -53.561184
49.914741 -8.506391 -53.696968
33.330927 10.733976 -55.21035
33.630979 11.896856 -54.817284
33.330927 10.733976 -55.21035
33.926155 10.478834 -55.910091
51.016253 -8.537156 -53.674198
49.914741 -8.506391 -53.696968
49.961084 -7.037565 -54.384739
51.016253 -8.537156 -53.674198
52.087288 -8.695587 -53.600944
40.31168 14.830749 -56.122574
39.130756 14.289631 -56.370953
41.534422 15.247848 -55.771373
42.775892 15.608064 -55.309616
41.221609 14.076458 -56.419704
40.31168 14.830749 -56.122574
41.534422 15.247848 -55.771373
45.722826 12.667046 -55.677121
44.71454 13.757437 -55.637211
45.537538 11.35747 -56.27575
45.722826 12.667046 -55.677121
46.799644 11.495473 -55.635159
50.059967 7.475751 -55.043183
48.975232 8.896242 -55.31451
49.974648 6.072611 -55.475483
50.059967 7.475751 -55.043183
51.18808 6.016795 -54.689099
52.182608 1.588699 -54.872223
51.06806 3.165195 -55.36752
52.217308 3.037158 -54.626103
52.160346 0.12102 -55.043945
52.182608 1.588699 -54.872223
37.174393 14.206255 -55.994523
36.453409 14.580993 -55.407151
36.888644 12.991389 -56.523751
37.174393 14.206255 -55.994523
37.976896 13.705037 -56.500229
36.310514 9.049732 -57.439373
35.428232 9.643991 -57.024365
36.458 10.405508 -57.249161
36.235458 7.632715 -57.528416
36.310514 9.049732 -57.439373
37.265226 8.394232 -57.753212
36.183361 6.206899 -57.489464
36.235458 7.632715 -57.528416
37.199211 5.515401 -57.691311
38.268273 6.149678 -57.967015
38.277314 4.687864 -57.816071
36.183361 6.206899 -57.489464
37.199211 5.515401 -57.691311
38.40288 1.721053 -57.164143
39.54967 0.874016 -57.06115
47.737144 -8.618814 -53.375549
47.761734 -7.129606 -54.221874
48.834983 -8.496008 -53.561184
46.666946 -8.785827 -53.065449
47.737144 -8.618814 -53.375549
45.589733 -9.082572 -52.708218
45.586681 -7.549158 -53.679008
46.666946 -8.785827 -53.065449
44.544441 -9.441539 -52.268223
45.589733 -9.082572 -52.708218
3 43 12 44
3 45 15 46
3 47 46 13
3 45 46 47
3 49 48 15
3 0 19 17
3 1 22 20
3 1 50 52
3 52 51 22
3 50 51 52
3 1 53 55
3 53 23 54
3 53 54 55
3 2 56 58
3 58 57 11
3 56 57 58
3 2 59 60
3 3 26 24
3 5 27 14
3 5 28 27
3 5 30 28
3 61 31 62
3 63 62 16
3 61 62 63
3 65 64 31
3 66 32 67
3 68 33 69
3 70 69 32
3 68 69 70
3 71 34 72
3 73 35 74
3 75 74 34
3 73 74 75
3 76 36 77
3 79 78 36
3 7 80 82
3 80 37 81
3 80 81 82
3 8 38 18
3 8 39 38
3 4 40 25
3 9 41 21
3 9 83 85
3 85 84 41
3 83 84 85
3 9 86 87
3 10 88 89
3 10 90 91
3 6 42 29
3 92 11 93
3 12 94 96
3 94 11 95
3 94 95 96
3 12 2 11
3 13 14 3
3 15 14 13
3 15 5 14
3 15 16 5
3 97 16 98
3 99 98 15
3 97 98 99
3 101 100 16
3 17 18 7
3 19 18 17
3 19 8 18
3 20 21 4
3 22 21 20
3 22 9 21
3 22 102 104
3 104 103 9
3 102 103 104
3 106 105 22
3 23 107 108
3 23 109 111
3 109 10 110
3 109 110 111
3 113 112 6
3 11 114 115
3 117 116 11
3 24 25 0
3 26 25 24
3 26 4 25
3 14 26 3
3 27 26 14
3 27 4 26
3 27 20 4
3 28 20 27
3 28 1 20
3 28 29 1
3 30 29 28
3 30 6 29
3 16 30 5
3 31 30 16
3 31 6 30
3 31 118 120
3 120 119 6
3 118 119 120
3 122 121 31
3 123 7 124
3 32 125 126
3 32 127 129
3 127 7 128
3 127 128 129
3 32 17 7
3 33 17 32
3 33 0 17
3 130 33 131
3 34 132 134
3 132 33 133
3 132 133 134
3 34 0 33
3 34 24 0
3 35 24 34
3 35 3 24
3 135 35 136
3 36 137 139
3 137 35 138
3 137 138 139
3 36 3 35
3 36 13 3
3 140 13 141
3 142 141 36
3 140 141 142
3 144 143 13
3 145 12 146
3 37 147 149
3 147 12 148
3 147 148 149
3 37 2 12
3 18 37 7
3 38 37 18
3 38 2 37
3 38 150 152
3 152 151 2
3 150 151 152
3 39 153 155
3 155 154 38
3 153 154 155
3 39 156 157
3 25 19 0
3 40 19 25
3 40 8 19
3 21 40 4
3 41 40 21
3 41 8 40
3 41 39 8
3 158 39 159
3 160 159 41
3 158 159 160
3 162 161 39
3 164 163 9
3 29 23 1
3 42 23 29
3 42 10 23
3 165 42 166
3 167 166 6
3 165 166 167
3 168 42 169
3 170 10 171
3 172 171 42
3 170 171 172
3 174 173 10
