ply
format ascii 1.0
element vertex 266
property float x
property float y
property float z
element face 264
property list uchar int vertex_index
end_header
66.71154 -36.576942 9.539516
59.249348 -24.607212 2.368083
56.657482 -32.843224 9.430211
67.842949 -28.599941 1.464077
65.541794 -16.67967 -4.462595
52.422123 -27.342125 6.372011
61.49139 -37.645569 13.924191
56.16375 -35.781105 13.623843
62.081169 -34.661461 9.287701
63.007133 -30.776077 5.254786
67.353683 -32.869049 5.161615
66.134224 -39.473938 14.5128
69.289101 -41.568695 15.302434
60.760117 -19.944214 -0.833588
64.966499 -21.542572 -1.301065
51.261585 -30.827135 9.94408
57.771152 -29.001961 5.702564
64.048943 -26.302395 1.814469
68.016365 -24.053947 -1.754248
66.851677 -17.913645 -4.670265
64.211571 -37.187157 11.713831
61.73175 -36.281559 11.540928
64.548012 -35.589523 9.366362
64.933479 -33.773308 7.176618
67.039024 -34.811123 7.264485
68.960464 -34.080284 5.269596
68.740936 -35.947411 7.454334
67.941086 -40.474449 14.884407
56.687393 -23.955269 2.659515
57.557266 -21.741594 1.006392
60.022224 -22.296909 0.770197
62.973816 -20.625988 -1.05422
62.376446 -23.026134 0.504094
56.321548 -34.444744 11.474128
53.599297 -33.428284 11.592176
50.990356 -32.294369 11.803787
53.908958 -31.877621 9.647736
54.408218 -30.110271 7.792613
57.150265 -31.013964 7.506876
65.74234 -29.625259 3.309509
63.528442 -28.591806 3.472594
66.112991 -27.373184 1.603743
66.428452 -25.051901 0.002359
67.976463 -26.346193 -0.182716
63.899109 -15.756655 -4.294352
65.653488 -14.234179 -6.162401
53.231979 -25.410133 4.640667
55.840572 -26.108141 4.320829
58.860283 -36.740524 13.730452
59.066147 -35.381737 11.457982
59.415459 -33.758636 9.308353
59.885941 -31.904291 7.301451
62.515171 -32.813572 7.189537
65.340561 -31.772053 5.159175
67.629234 -30.786053 3.233824
69.169029 -29.980267 1.414013
69.110046 -32.079781 3.259053
63.951393 -38.542561 14.189697
66.400032 -38.137772 11.966278
68.477715 -37.650398 9.80288
68.200745 -39.164993 12.290337
69.534805 -40.290241 12.68263
58.402489 -19.485048 -0.67164
61.423637 -17.562651 -2.480434
63.490692 -18.199697 -2.641127
65.308044 -19.117655 -2.853916
66.812561 -20.306616 -3.085075
48.793945 -29.660686 10.289846
51.750534 -29.161432 8.134933
55.065479 -28.17231 6.022783
58.484482 -26.852865 3.999685
60.450592 -29.860888 5.44001
61.077789 -27.673416 3.708695
61.73217 -25.383686 2.076906
64.538086 -23.943586 0.239126
66.667427 -22.689857 -1.543482
67.18787 -17.511976 -5.603551
67.320603 -18.670607 -4.77653
68.483272 -28.207784 0.585179
68.550029 -27.08091 -0.238218
67.909706 -27.473067 0.64068
52.827051 -26.376129 5.506339
51.575389 -25.943165 5.677826
51.170462 -26.909161 6.543498
60.175837 -37.193047 13.827322
58.838074 -37.278216 14.911916
60.153627 -37.730738 15.008786
69.542575 -33.791954 4.334172
69.527374 -34.745096 5.380107
65.042809 -39.008249 14.351249
63.872421 -39.093113 15.473267
64.963836 -39.558802 15.634818
69.818798 -41.546272 14.223581
69.94165 -40.907045 12.91368
69.411953 -40.929468 13.992532
54.894863 -35.755157 14.659484
56.181109 -36.304861 14.737732
49.916954 -30.91922 11.015369
49.78134 -31.652837 11.945222
51.12597 -31.560752 10.873933
50.027765 -30.24391 10.116963
48.683134 -30.335995 11.188252
49.916954 -30.91922 11.015369
67.985557 -22.89885 -2.528957
67.311089 -22.216805 -2.423573
67.341896 -23.371902 -1.648865
68.358986 -23.726915 -2.618111
67.985557 -22.89885 -2.528957
69.499103 -29.71179 0.553028
69.604423 -30.742321 1.443234
69.222752 -37.42169 8.775495
69.124489 -38.238518 9.978687
66.815239 -16.715021 -5.504839
66.160297 -16.098033 -5.401004
66.196735 -17.296658 -4.56643
66.815239 -16.715021 -5.504839
67.18787 -17.511976 -5.603551
50.838827 -27.738704 7.435992
51.170462 -26.909161 6.543498
69.41761 -35.67866 6.472476
69.527374 -34.745096 5.380107
68.8507 -35.013847 6.361965
66.038384 -40.024519 15.827915
64.963836 -39.558802 15.634818
66.941814 -40.524774 16.013718
67.037655 -39.974193 14.698604
66.038384 -40.024519 15.827915
67.834366 -41.021662 16.218518
66.941814 -40.524774 16.013718
68.508374 -41.568784 16.427532
68.615094 -41.021572 15.093421
67.834366 -41.021662 16.218518
57.122329 -22.848432 1.832953
55.843494 -22.569804 1.962675
55.408558 -23.676642 2.789236
54.911259 -34.583152 12.54482
54.832359 -35.251333 13.619678
56.242649 -35.112924 12.548986
53.550133 -34.074922 12.603844
54.911259 -34.583152 12.54482
54.960422 -33.936514 11.533152
52.279778 -33.474602 12.649406
53.550133 -34.074922 12.603844
52.294826 -32.861327 11.697982
50.975307 -32.907645 12.755211
52.279778 -33.474602 12.649406
68.471942 -25.9806 -1.045397
68.491894 -24.834477 -1.831163
67.996414 -25.20007 -0.968482
68.471942 -25.9806 -1.045397
68.550029 -27.08091 -0.238218
64.038715 -14.529041 -5.168956
62.939305 -15.457835 -4.248007
64.915905 -13.767803 -6.102981
64.038715 -14.529041 -5.168956
64.776298 -14.995417 -5.228376
65.644848 -13.008883 -7.070607
64.915905 -13.767803 -6.102981
66.216144 -14.875287 -6.250907
65.597641 -15.456924 -5.312498
66.160297 -16.098033 -5.401004
66.123802 -13.675559 -7.142796
66.216144 -14.875287 -6.250907
66.115162 -12.450264 -8.051001
65.644848 -13.008883 -7.070607
66.123802 -13.675559 -7.142796
51.98395 -25.064387 4.78303
51.575389 -25.943165 5.677826
53.680851 -24.404073 3.779812
51.98395 -25.064387 4.78303
54.959686 -24.682701 3.650091
55.408558 -23.676642 2.789236
53.680851 -24.404073 3.779812
57.529375 -36.784571 14.791036
58.838074 -37.278216 14.911916
57.512017 -36.260814 13.677148
56.181109 -36.304861 14.737732
57.529375 -36.784571 14.791036
69.574932 -31.792078 2.365754
69.604423 -30.742321 1.443234
69.139537 -31.030024 2.336533
69.617367 -32.791702 3.328901
69.035255 -33.080033 4.264324
69.542575 -33.791954 4.334172
69.574932 -31.792078 2.365754
69.617367 -32.791702 3.328901
61.436823 -38.191997 15.162971
60.153627 -37.730738 15.008786
62.666825 -38.640493 15.295724
63.872421 -39.093113 15.473267
62.721392 -38.094065 14.056944
61.436823 -38.191997 15.162971
62.666825 -38.640493 15.295724
68.986004 -38.995815 11.222416
69.124489 -38.238518 9.978687
68.33923 -38.407696 11.046608
69.653034 -39.558439 11.418563
68.986004 -38.995815 11.222416
68.867775 -39.727617 12.486483
70.038849 -40.201021 11.638856
69.653034 -39.558439 11.418563
70.038849 -40.201021 11.638856
69.94165 -40.907045 12.91368
69.175286 -42.110058 16.644807
68.508374 -41.568784 16.427532
69.704533 -42.169349 15.537102
69.175286 -42.110058 16.644807
69.590717 -42.710712 16.879475
69.818798 -41.546272 14.223581
69.704533 -42.169349 15.537102
56.31004 -21.534803 1.093962
55.843494 -22.569804 1.962675
56.732651 -20.40653 0.254946
56.31004 -21.534803 1.093962
57.979878 -20.613321 0.167376
57.191358 -19.34872 -0.6341
56.732651 -20.40653 0.254946
58.790974 -18.340015 -1.538053
57.191358 -19.34872 -0.6341
60.301548 -17.378817 -2.44245
58.790974 -18.340015 -1.538053
59.913063 -18.523849 -1.576037
61.701569 -16.360833 -3.341048
60.301548 -17.378817 -2.44245
62.661373 -16.659653 -3.387393
62.939305 -15.457835 -4.248007
61.701569 -16.360833 -3.341048
67.301045 -19.867093 -3.983935
67.320603 -18.670607 -4.77653
66.832119 -19.11013 -3.87767
54.894863 -35.755157 14.659484
54.832359 -35.251333 13.619678
49.803428 -32.220152 12.843947
50.975307 -32.907645 12.755211
49.803428 -32.220152 12.843947
49.78134 -31.652837 11.945222
47.6007 -29.607232 11.34751
48.683134 -30.335995 11.188252
47.681692 -29.004978 10.467842
47.6007 -29.607232 11.34751
49.024738 -28.897984 9.39491
47.912485 -28.242277 9.572906
47.681692 -29.004978 10.467842
50.503033 -28.648358 8.317453
49.024738 -28.897984 9.39491
50.272239 -29.411059 9.21239
52.086329 -28.251779 7.253472
50.838827 -27.738704 7.435992
50.503033 -28.648358 8.317453
67.383656 -21.025184 -3.19437
66.739994 -21.498236 -2.314278
67.311089 -22.216805 -2.423573
67.301045 -19.867093 -3.983935
67.383656 -21.025184 -3.19437
68.358986 -23.726915 -2.618111
68.491894 -24.834477 -1.831163
69.146312 -28.897947 0.560146
68.483272 -28.207784 0.585179
68.505989 -29.290104 1.439045
69.146312 -28.897947 0.560146
69.499103 -29.71179 0.553028
69.354363 -36.570197 7.601223
68.609326 -36.798905 8.628607
69.222752 -37.42169 8.775495
69.41761 -35.67866 6.472476
69.354363 -36.570197 7.601223
3 77 76 19
3 0 22 20
3 0 24 22
3 0 26 24
3 1 30 28
3 1 32 30
3 2 34 33
3 2 36 34
3 2 38 36
3 3 41 39
3 3 43 41
3 3 78 80
3 80 79 43
3 78 79 80
3 4 45 44
3 5 81 83
3 81 46 82
3 81 82 83
3 5 47 46
3 6 84 86
3 84 48 85
3 84 85 86
3 8 49 21
3 8 50 49
3 8 52 50
3 10 53 23
3 10 54 53
3 10 56 54
3 88 87 25
3 11 89 91
3 89 57 90
3 89 90 91
3 11 58 57
3 11 60 58
3 12 61 27
3 12 92 94
3 94 93 61
3 92 93 94
3 13 62 29
3 13 63 62
3 13 64 63
3 14 65 31
3 14 66 65
3 7 95 96
3 15 97 99
3 99 98 35
3 97 98 99
3 15 100 102
3 100 67 101
3 100 101 102
3 15 68 67
3 16 69 37
3 16 70 69
3 9 71 51
3 17 72 40
3 17 73 72
3 17 74 73
3 18 75 42
3 18 103 105
3 105 104 75
3 103 104 105
3 18 106 107
3 109 108 55
3 111 110 59
3 19 112 114
3 114 113 4
3 112 113 114
3 116 115 19
3 117 5 118
3 20 21 6
3 22 21 20
3 22 8 21
3 22 23 8
3 24 23 22
3 24 10 23
3 24 25 10
3 26 25 24
3 26 119 121
3 121 120 25
3 119 120 121
3 122 11 123
3 124 27 125
3 126 125 11
3 124 125 126
3 127 27 128
3 129 12 130
3 131 130 27
3 129 130 131
3 28 132 134
3 132 29 133
3 132 133 134
3 30 29 28
3 30 13 29
3 30 31 13
3 32 31 30
3 32 14 31
3 33 135 137
3 137 136 7
3 135 136 137
3 34 138 140
3 140 139 33
3 138 139 140
3 34 141 142
3 34 143 145
3 143 35 144
3 143 144 145
3 36 35 34
3 36 15 35
3 36 37 15
3 38 37 36
3 38 16 37
3 39 40 9
3 41 40 39
3 41 17 40
3 41 42 17
3 43 42 41
3 43 18 42
3 43 146 148
3 148 147 18
3 146 147 148
3 150 149 43
3 44 151 152
3 45 153 155
3 155 154 44
3 153 154 155
3 45 156 157
3 158 45 159
3 160 159 4
3 158 159 160
3 161 45 162
3 165 164 45
3 163 164 165
3 46 166 167
3 46 168 169
3 46 170 172
3 170 28 171
3 170 171 172
3 47 28 46
3 47 1 28
3 48 173 174
3 48 175 177
3 175 7 176
3 175 176 177
3 21 48 6
3 49 48 21
3 49 7 48
3 49 33 7
3 50 33 49
3 50 2 33
3 50 51 2
3 52 51 50
3 52 9 51
3 23 52 8
3 53 52 23
3 53 9 52
3 53 39 9
3 54 39 53
3 54 3 39
3 54 55 3
3 56 55 54
3 56 178 180
3 180 179 55
3 178 179 180
3 25 56 10
3 181 56 182
3 183 182 25
3 181 182 183
3 185 184 56
3 186 6 187
3 57 188 189
3 57 190 192
3 190 6 191
3 190 191 192
3 57 20 6
3 58 20 57
3 58 0 20
3 58 59 0
3 60 59 58
3 60 193 195
3 195 194 59
3 193 194 195
3 27 60 11
3 61 60 27
3 61 196 198
3 198 197 60
3 196 197 198
3 61 199 200
3 202 201 61
3 203 12 204
3 205 12 206
3 205 206 207
3 209 208 12
3 29 210 211
3 62 212 214
3 214 213 29
3 212 213 214
3 62 215 216
3 62 217 218
3 63 219 221
3 221 220 62
3 219 220 221
3 63 222 223
3 63 224 226
3 224 44 225
3 224 225 226
3 64 44 63
3 64 4 44
3 31 64 13
3 65 64 31
3 65 4 64
3 65 19 4
3 66 19 65
3 66 227 229
3 229 228 19
3 227 228 229
3 231 230 7
3 35 232 233
3 235 234 35
3 67 236 237
3 67 238 239
3 67 240 242
3 240 241 242
3 68 243 245
3 245 244 67
3 243 244 245
3 68 246 248
3 246 5 247
3 246 247 248
3 37 68 15
3 69 68 37
3 69 5 68
3 69 47 5
3 70 47 69
3 70 1 47
3 51 38 2
3 71 38 51
3 71 16 38
3 40 71 9
3 72 71 40
3 72 16 71
3 72 70 16
3 73 70 72
3 73 1 70
3 73 32 1
3 74 32 73
3 74 14 32
3 42 74 17
3 75 74 42
3 75 14 74
3 75 66 14
3 249 66 250
3 251 250 75
3 249 250 251
3 253 252 66
3 255 254 18
3 55 256 258
3 258 257 3
3 256 257 258
3 260 259 55
3 59 26 0
3 261 26 262
3 263 262 59
3 261 262 263
3 265 264 26
