ply
format ascii 1.0
element vertex 276
property float x
property float y
property float z
element face 273
property list uchar int vertex_index
end_header
35.550652 49.124489 41.492172
33.521976 42.330093 50.433167
39.96909 39.689045 46.100708
38.768085 31.851524 55.085793
42.800831 45.874969 37.1213
32.754425 37.741081 54.353607
36.406982 37.379368 53.223007
35.681694 32.4333 57.042152
41.025543 50.725601 35.162445
39.54715 47.565895 39.656624
45.950821 47.698013 29.447199
34.399349 46.017654 46.076149
38.150303 44.595505 44.236885
37.123756 41.360439 48.836754
39.231331 36.173855 50.730858
42.100971 54.202499 30.701767
44.129601 49.270706 32.71431
44.870388 44.116913 33.905457
41.224266 42.769024 41.533501
32.3288 35.101204 56.07618
34.273289 35.147263 55.805901
33.821449 32.418476 57.460297
36.225761 50.617737 39.170715
38.331566 49.865417 38.36673
37.605556 48.364075 40.662048
46.147156 49.51564 27.056517
45.457153 50.321564 28.844654
33.932755 44.273724 48.295395
35.825089 43.735325 47.554192
35.395676 41.934608 49.782715
37.658669 34.692589 54.28566
37.945461 36.887592 52.146446
38.992409 34.12635 52.971382
40.038765 33.334549 51.322838
40.345463 54.810249 31.609436
42.064461 48.327629 36.259468
42.735126 50.008789 34.042961
43.537132 47.53331 34.932106
44.683399 46.720718 33.415848
43.99268 44.999802 35.594986
39.170837 42.209087 45.282204
39.798649 43.72258 42.981613
40.532887 41.253193 43.796997
33.140316 40.155323 52.46228
35.01931 39.915573 51.926071
34.65913 37.653378 53.947205
36.069267 35.026245 55.228752
37.348965 32.255886 56.260132
39.752956 53.0867 33.836708
39.064556 51.433655 36.09045
40.305241 49.10408 37.40081
41.302544 46.733582 38.476002
40.550594 37.01421 46.69677
41.015007 38.646816 44.38953
46.512276 46.854248 27.573023
46.100365 45.040459 29.879242
34.937813 47.613228 43.800728
36.929993 46.884636 42.969036
36.333321 45.364517 45.273598
37.586334 43.044563 46.545418
38.6618 40.605385 47.598495
36.74292 39.48526 51.0765
38.263878 38.848354 49.900452
39.542171 38.014503 48.424126
43.539146 53.576126 29.53075
41.643219 52.433113 32.931885
43.244198 51.767548 31.805447
44.512398 51.069077 30.439949
45.188904 48.502396 31.175476
45.514374 45.890038 31.721657
38.812859 46.080658 41.936081
40.524921 45.211632 40.71262
42.002556 44.294792 39.312981
41.635311 40.21167 42.127468
42.382462 41.764137 39.918259
43.195812 43.350437 37.750092
44.087029 42.397743 36.036423
36.96545 29.592651 58.008316
38.499153 29.350628 57.007095
32.079771 33.684429 56.837601
31.312328 35.027039 56.113541
32.826096 32.343065 57.529659
33.075125 33.75984 56.768238
32.079771 33.684429 56.837601
34.806365 50.247459 40.660316
34.497061 49.486897 41.822446
35.888206 49.871113 40.331443
35.143919 50.994084 39.499588
34.806365 50.247459 40.660316
45.053051 51.611065 28.466999
45.465862 51.236767 27.625641
32.736464 43.501628 49.611317
32.534444 42.452004 50.630371
33.727366 43.301908 49.364281
32.941854 44.473444 48.542431
32.736464 43.501628 49.611317
39.334302 31.531559 54.313336
39.446465 32.668972 53.25613
38.880247 32.988937 54.028588
39.338302 55.120106 31.952005
39.641789 55.977429 30.847726
31.954895 38.993769 53.550647
31.751241 37.719385 54.441497
32.94737 38.948202 53.407944
32.147841 40.20089 52.604984
31.954895 38.993769 53.550647
38.001202 51.791412 36.472101
38.358469 52.593178 35.323545
40.916666 36.453034 45.735608
40.753861 35.598084 46.889675
33.642796 47.141994 45.254975
33.395477 46.288178 46.364162
34.668581 46.815441 44.938439
33.912028 47.939781 44.117264
33.642796 47.141994 45.254975
39.734112 35.716299 49.876617
39.889532 36.636623 48.723252
39.386751 37.094179 49.577492
40.414514 32.840927 50.362236
40.385872 31.843766 51.501987
42.228773 55.097202 29.586254
41.449503 55.380714 30.060087
42.820059 53.889313 30.116259
42.947861 54.784016 29.000746
42.228773 55.097202 29.586254
45.175546 43.674156 32.989218
45.49754 44.560719 31.897318
45.192381 45.003475 32.813557
41.712007 38.867082 42.319334
41.325159 39.429243 43.258499
41.401855 38.084655 43.450365
42.818022 41.250866 39.037959
42.422146 40.443565 40.112923
43.224697 42.044016 37.953875
42.789137 42.557287 38.834176
42.818022 41.250866 39.037959
43.670305 41.567669 37.09704
43.64142 42.87409 36.893258
43.224697 42.044016 37.953875
37.550432 28.118889 58.33815
36.717464 28.164669 58.740814
38.317284 27.997877 57.837539
37.732301 29.47164 57.507706
37.550432 28.118889 58.33815
31.538429 36.399446 55.302784
31.312328 35.027039 56.113541
32.541612 36.421143 55.214894
31.751241 37.719385 54.441497
31.538429 36.399446 55.302784
35.478632 51.754452 38.326464
35.143919 50.994084 39.499588
36.581804 51.383454 38.012234
35.478632 51.754452 38.326464
37.278664 50.241577 38.768722
37.634707 51.007294 37.610241
36.581804 51.383454 38.012234
45.810863 50.833805 26.731572
46.130354 50.417835 25.79823
45.802155 49.918602 27.950585
45.810863 50.833805 26.731572
45.465862 51.236767 27.625641
33.16218 45.416213 47.473785
32.941854 44.473444 48.542431
34.166052 45.145689 47.185772
33.395477 46.288178 46.364162
33.16218 45.416213 47.473785
39.969642 32.273072 52.431858
39.515587 33.73045 52.14711
39.446465 32.668972 53.25613
40.385872 31.843766 51.501987
39.969642 32.273072 52.431858
40.571749 55.684589 30.513921
39.641789 55.977429 30.847726
41.223217 54.506374 31.155601
41.449503 55.380714 30.060087
40.571749 55.684589 30.513921
32.343615 41.364619 51.644928
32.147841 40.20089 52.604984
33.331146 41.242708 51.447723
32.534444 42.452004 50.630371
32.343615 41.364619 51.644928
38.702669 53.419701 34.196675
39.042049 54.258331 33.065641
39.408756 52.260177 34.963579
38.702669 53.419701 34.196675
38.358469 52.593178 35.323545
38.698061 50.649536 37.22859
38.001202 51.791412 36.472101
37.634707 51.007294 37.610241
41.148872 37.269337 44.581987
40.7828 37.830513 45.54315
40.916666 36.453034 45.735608
41.401855 38.084655 43.450365
41.148872 37.269337 44.581987
46.425196 49.082268 26.095765
46.130354 50.417835 25.79823
46.607756 47.751571 26.354019
46.425196 49.082268 26.095765
46.329716 48.184944 27.31477
46.762537 46.411113 26.59319
46.607756 47.751571 26.354019
46.538078 45.511114 27.754587
46.762537 46.411113 26.59319
46.332123 44.604219 28.907696
46.538078 45.511114 27.754587
46.30632 45.947353 28.726132
46.012964 43.691397 30.006398
46.332123 44.604219 28.907696
34.190641 48.731266 42.976725
33.912028 47.939781 44.117264
35.244232 48.368859 42.64645
34.497061 49.486897 41.822446
34.190641 48.731266 42.976725
40.393743 36.136477 47.859573
40.046382 37.514356 47.560448
39.889532 36.636623 48.723252
40.753861 35.598084 46.889675
40.393743 36.136477 47.859573
40.137829 34.296646 50.172607
39.734112 35.716299 49.876617
39.635048 34.754202 51.026848
40.137829 34.296646 50.172607
40.414514 32.840927 50.362236
43.566272 54.488987 28.369573
42.947861 54.784016 29.000746
44.094048 53.238346 28.810047
43.566272 54.488987 28.369573
40.04921 53.948475 32.723072
39.338302 55.120106 31.952005
39.042049 54.258331 33.065641
44.580674 51.984821 29.264646
44.094048 53.238346 28.810047
44.025772 52.322602 29.985349
44.984775 50.695321 29.642301
45.053051 51.611065 28.466999
44.580674 51.984821 29.264646
45.790535 44.13593 30.97611
45.807369 45.465249 30.800449
45.49754 44.560719 31.897318
46.012964 43.691397 30.006398
45.790535 44.13593 30.97611
42.04857 39.667332 41.217528
41.712007 38.867082 42.319334
42.008887 40.987904 41.022863
42.04857 39.667332 41.217528
42.422146 40.443565 40.112923
43.972425 41.055992 36.154131
43.670305 41.567669 37.09704
44.396532 41.92427 35.112766
43.972425 41.055992 36.154131
44.788212 42.783856 34.047283
44.478708 43.257328 34.97094
44.396532 41.92427 35.112766
45.175546 43.674156 32.989218
44.788212 42.783856 34.047283
33.546293 30.961799 58.165813
32.826096 32.343065 57.529659
34.512106 31.023596 58.036023
33.546293 30.961799 58.165813
35.442228 31.031008 57.82695
34.751571 32.425888 57.251224
34.512106 31.023596 58.036023
36.084106 29.610684 58.310032
36.717464 28.164669 58.740814
36.323572 31.012976 57.525234
35.442228 31.031008 57.82695
36.084106 29.610684 58.310032
39.024616 27.847603 57.230793
38.317284 27.997877 57.837539
39.128512 29.11475 56.30798
39.024616 27.847603 57.230793
39.262977 30.365198 55.347329
38.633619 30.601076 56.046444
39.128512 29.11475 56.30798
39.334302 31.531559 54.313336
39.262977 30.365198 55.347329
3 79 19 80
3 81 21 82
3 83 82 19
3 81 82 83
3 0 84 85
3 0 86 88
3 86 22 87
3 86 87 88
3 0 24 22
3 89 26 90
3 1 91 92
3 1 93 95
3 93 27 94
3 93 94 95
3 1 29 27
3 3 32 30
3 3 96 98
3 98 97 32
3 96 97 98
3 99 34 100
3 4 37 35
3 4 39 37
3 2 42 40
3 5 101 102
3 5 103 105
3 103 43 104
3 103 104 105
3 5 45 43
3 7 46 20
3 7 47 46
3 106 49 107
3 9 50 23
3 9 51 50
3 109 108 52
3 10 54 25
3 10 55 54
3 11 110 111
3 11 112 114
3 112 56 113
3 112 113 114
3 11 58 56
3 13 59 28
3 13 60 59
3 6 61 44
3 14 62 31
3 14 63 62
3 14 115 117
3 117 116 63
3 115 116 117
3 119 118 33
3 15 120 121
3 15 122 124
3 122 64 123
3 122 123 124
3 8 65 48
3 16 66 36
3 16 67 66
3 16 68 67
3 17 69 38
3 17 125 127
3 127 126 69
3 125 126 127
3 12 70 57
3 18 71 41
3 18 72 71
3 128 73 129
3 130 129 53
3 128 129 130
3 131 74 132
3 133 75 134
3 135 134 74
3 133 134 135
3 136 76 137
3 138 137 75
3 136 137 138
3 139 77 140
3 141 78 142
3 143 142 77
3 141 142 143
3 19 144 145
3 19 146 148
3 146 5 147
3 146 147 148
3 19 20 5
3 21 20 19
3 21 7 20
3 22 149 150
3 22 151 152
3 22 153 155
3 153 23 154
3 153 154 155
3 24 23 22
3 24 9 23
3 156 25 157
3 26 158 160
3 158 25 159
3 158 159 160
3 26 10 25
3 27 161 162
3 27 163 165
3 163 11 164
3 163 164 165
3 27 28 11
3 29 28 27
3 29 13 28
3 30 31 6
3 32 31 30
3 32 14 31
3 32 33 14
3 166 33 167
3 168 167 32
3 166 167 168
3 170 169 33
3 34 171 172
3 34 173 175
3 173 15 174
3 173 174 175
3 35 36 8
3 37 36 35
3 37 16 36
3 37 38 16
3 39 38 37
3 39 17 38
3 40 41 12
3 42 41 40
3 42 18 41
3 43 176 177
3 43 178 180
3 178 1 179
3 178 179 180
3 43 44 1
3 45 44 43
3 45 6 44
3 20 45 5
3 46 45 20
3 46 6 45
3 46 30 6
3 47 30 46
3 47 3 30
3 181 48 182
3 49 183 185
3 183 48 184
3 183 184 185
3 49 8 48
3 23 186 188
3 186 49 187
3 186 187 188
3 50 49 23
3 50 8 49
3 50 35 8
3 51 35 50
3 51 4 35
3 52 53 2
3 189 53 190
3 191 190 52
3 189 190 191
3 193 192 53
3 25 194 195
3 54 196 198
3 198 197 25
3 196 197 198
3 54 199 200
3 54 201 202
3 55 203 205
3 205 204 54
3 203 204 205
3 55 206 207
3 56 208 209
3 56 210 212
3 210 0 211
3 210 211 212
3 56 57 0
3 58 57 56
3 58 12 57
3 28 58 11
3 59 58 28
3 59 12 58
3 59 40 12
3 60 40 59
3 60 2 40
3 44 29 1
3 61 29 44
3 61 13 29
3 31 61 6
3 62 61 31
3 62 13 61
3 62 60 13
3 63 60 62
3 63 2 60
3 63 52 2
3 213 52 214
3 215 214 63
3 213 214 215
3 217 216 52
3 33 218 220
3 220 219 14
3 218 219 220
3 222 221 33
3 64 223 224
3 64 225 226
3 48 227 229
3 227 34 228
3 227 228 229
3 65 34 48
3 65 15 34
3 36 65 8
3 66 65 36
3 66 15 65
3 66 64 15
3 67 64 66
3 67 230 232
3 232 231 64
3 230 231 232
3 67 233 235
3 233 26 234
3 233 234 235
3 68 26 67
3 68 10 26
3 38 68 16
3 69 68 38
3 69 10 68
3 69 55 10
3 236 55 237
3 238 237 69
3 236 237 238
3 240 239 55
3 57 24 0
3 70 24 57
3 70 9 24
3 41 70 12
3 71 70 41
3 71 9 70
3 71 51 9
3 72 51 71
3 72 4 51
3 53 42 2
3 73 42 53
3 73 18 42
3 241 73 242
3 74 243 245
3 243 73 244
3 243 244 245
3 74 18 73
3 74 72 18
3 75 72 74
3 75 4 72
3 75 39 4
3 76 39 75
3 76 17 39
3 246 76 247
3 248 76 249
3 250 17 251
3 252 251 76
3 250 251 252
3 254 253 17
3 255 21 256
3 257 21 258
3 259 7 260
3 261 260 21
3 259 260 261
3 77 262 263
3 77 264 266
3 264 7 265
3 264 265 266
3 77 47 7
3 78 47 77
3 78 3 47
3 267 78 268
3 269 78 270
3 271 3 272
3 273 272 78
3 271 272 273
3 275 274 3
