ply
format ascii 1.0
element vertex 317
property float x
property float y
property float z
element face 340
property list uchar int vertex_index
end_header
18.178616 -53.479465 81.480354
4.372818 -56.422585 87.118919
25.28447 -51.364849 76.116203
24.3332 -60.660202 77.230484
15.875747 -63.764957 80.334564
10.442049 -55.534264 86.007286
7.671352 -65.794312 81.985474
21.921888 -52.394897 78.952087
24.994198 -55.923443 76.853355
21.354721 -57.250072 79.19976
20.272354 -62.244965 79.001137
17.299648 -58.585712 81.148994
4.714169 -51.800701 89.450264
7.751764 -51.263889 88.876251
7.030369 -56.217968 87.301506
9.264845 -60.715836 84.302635
5.991053 -61.143021 84.790695
4.582424 -65.910736 81.647911
27.966805 -54.668076 73.830894
27.703959 -59.13266 74.695061
22.757626 -65.383179 76.68959
18.392311 -67.188568 78.015724
13.848791 -68.850754 78.875221
15.212624 -49.535141 84.31353
11.359909 -50.437668 86.923996
14.264103 -54.563671 83.880196
13.151722 -59.80056 82.909767
11.546202 -65.021545 81.401718
20.085932 -52.932503 80.239365
21.659504 -54.792278 79.102348
19.756538 -55.401318 80.259369
19.360138 -57.923397 80.204834
17.781443 -56.010742 81.361839
4.578653 -54.115047 88.422096
5.891794 -53.984745 88.542381
5.586824 -56.390335 87.424141
6.561857 -58.695343 86.142029
5.188519 -58.776726 86.071259
4.684124 -61.1287 84.530594
4.062618 -58.705864 85.593002
26.771292 -50.872948 74.511375
27.984617 -52.497692 73.269493
26.640673 -53.045197 74.962227
24.761328 -58.281223 77.129189
26.439772 -57.572689 75.840424
26.123039 -59.885288 76.074654
25.561092 -62.199749 76.065483
23.663218 -63.035908 77.095718
18.091137 -63.0242 79.703804
19.422709 -64.734421 78.618942
17.178127 -65.55777 79.196602
16.116373 -68.053375 78.492683
14.92065 -66.328079 79.693382
9.10129 -53.379128 87.542236
9.506516 -50.87191 88.027176
10.909624 -52.957596 86.57605
12.796728 -52.492332 85.422707
12.322805 -55.072727 85.005058
13.758503 -57.172909 83.461975
11.78944 -57.688183 84.420349
8.515215 -63.2742 83.212242
10.396929 -62.910137 82.798866
9.529545 -65.481201 81.780746
10.574183 -67.585297 80.439156
8.581396 -68.011887 80.62722
6.765856 -68.269882 80.628456
23.661942 -51.871765 77.588066
25.126675 -53.610268 76.48568
23.458733 -54.19334 77.856354
23.24431 -56.580135 78.096252
22.906736 -59.007378 78.230469
22.368896 -61.450836 78.191788
20.911922 -59.742401 79.182991
18.818666 -60.472244 80.031509
16.672691 -61.177856 80.813972
4.833925 -49.503807 90.152245
6.383398 -49.21973 89.881256
6.139299 -51.583813 89.376663
7.413837 -53.730824 88.22715
8.663336 -55.924534 86.802925
9.904606 -58.129772 85.24147
8.147577 -58.473289 85.843124
7.530258 -61.000919 84.696861
6.811342 -63.492798 83.39415
6.011108 -65.941383 81.956856
5.323408 -63.549908 83.283798
25.598139 -49.210217 75.822693
23.977859 -49.640976 77.362244
22.255463 -50.085659 78.808464
20.448788 -50.546532 80.189888
18.576929 -51.023006 81.533997
29.168211 -56.223228 72.623322
26.575443 -55.285416 75.437927
27.914295 -56.886097 74.340424
29.052519 -58.405117 73.081657
21.601463 -63.886162 77.932526
20.623524 -66.28923 77.425995
17.151989 -49.096298 82.934303
16.660904 -51.511456 82.859077
13.272943 -49.986053 85.660378
14.724787 -52.004917 84.164536
16.227627 -54.027237 82.694695
15.769371 -56.606979 82.430717
15.215471 -59.21862 82.052933
14.521805 -61.836365 81.548302
11.153269 -60.307838 83.681168
12.414175 -62.422485 82.22348
13.677418 -64.440216 80.905785
12.702675 -67.014343 80.114334
4.383509 -62.283346 83.686088
4.161133 -61.041219 84.211315
25.886822 -48.188643 75.736805
26.349151 -48.999376 74.993915
23.372585 -48.766758 78.037415
24.246863 -48.583265 77.29332
22.511387 -48.989099 78.760525
23.116661 -49.863318 78.085354
23.372585 -48.766758 78.037415
19.759036 -49.610989 80.867485
20.69762 -49.410545 80.166916
18.823107 -49.849226 81.539539
19.512859 -50.784769 80.861942
19.759036 -49.610989 80.867485
28.562089 -54.369944 72.929592
28.570994 -53.284752 72.648891
27.975711 -53.582884 73.550194
28.567508 -55.445652 73.227108
29.162791 -55.14752 72.325806
28.562089 -54.369944 72.929592
28.209916 -59.866274 74.002644
28.884196 -59.502502 73.195942
28.378239 -58.768889 73.888359
23.237923 -66.058166 75.926441
23.751526 -64.936951 76.228405
22.21262 -66.530563 76.345028
23.237923 -66.058166 75.926441
18.942337 -67.913185 77.339131
20.057944 -67.463516 77.044266
19.507917 -66.738899 77.72086
17.816976 -68.388069 77.598438
18.942337 -67.913185 77.339131
14.407841 -69.672375 78.227314
15.541632 -69.273685 78.036045
14.982582 -68.452065 78.683952
13.284215 -70.084789 78.370098
14.407841 -69.672375 78.227314
16.182306 -49.31572 83.623917
16.475808 -48.145456 83.627174
15.506126 -48.364878 84.316788
7.925574 -50.059694 89.043442
7.241391 -49.037615 89.545944
7.067581 -50.24181 89.378753
10.648412 -49.441365 87.575947
9.721716 -49.658485 88.127537
10.433212 -50.654789 87.475586
11.607373 -49.227862 86.976688
10.648412 -49.441365 87.575947
12.316426 -50.211861 86.292187
12.56389 -49.002054 86.344879
11.607373 -49.227862 86.976688
11.107711 -68.565445 79.79979
10.058203 -68.844482 79.881932
4.872927 -67.126632 81.022045
5.587269 -67.141956 81.176518
5.296766 -65.92606 81.802383
3.85038 -59.829802 84.742519
4.161133 -61.041219 84.211315
4.373371 -59.917282 85.061798
27.377955 -51.68532 73.890434
28.04695 -51.445231 73.01329
27.440288 -50.632858 73.634231
26.689138 -60.635942 75.4417
27.479599 -60.259629 74.751903
26.913499 -59.508974 75.384857
26.408165 -61.793173 75.437115
26.689138 -60.635942 75.4417
25.842065 -61.042518 76.070068
26.052326 -62.911684 75.345234
26.408165 -61.793173 75.437115
25.153259 -63.345236 75.916351
26.052326 -62.911684 75.345234
24.204322 -63.763316 76.431469
25.153259 -63.345236 75.916351
24.612155 -62.617829 76.580601
23.210422 -64.209543 76.892654
23.751526 -64.936951 76.228405
24.204322 -63.763316 76.431469
14.515477 -48.565888 85.008724
15.506126 -48.364878 84.316788
9.061809 -69.057778 79.975964
10.058203 -68.844482 79.881932
9.577789 -67.798592 80.533188
8.088608 -69.253323 79.978958
9.061809 -69.057778 79.975964
7.180839 -69.38232 79.979576
8.088608 -69.253323 79.978958
7.673626 -68.140884 80.627838
6.303265 -69.482715 79.883106
7.180839 -69.38232 79.979576
4.192629 -67.066696 80.772926
3.996586 -65.805676 81.340419
5.608662 -49.361768 90.016751
5.693525 -48.236948 90.183289
4.918789 -48.378986 90.318783
4.703151 -63.49395 83.062691
5.003766 -62.339304 83.907196
4.383509 -62.283346 83.686088
4.33266 -64.674364 82.244747
4.952916 -64.730322 82.465855
4.703151 -63.49395 83.062691
3.996586 -65.805676 81.340419
4.33266 -64.674364 82.244747
26.935727 -49.830742 74.338256
27.440288 -50.632858 73.634231
26.184715 -50.041583 75.167034
26.935727 -49.830742 74.338256
26.349151 -48.999376 74.993915
25.057003 -48.367886 76.523544
25.886822 -48.188643 75.736805
24.787999 -49.425596 76.592468
25.057003 -48.367886 76.523544
24.246863 -48.583265 77.29332
21.600958 -49.180109 79.476204
22.511387 -48.989099 78.760525
21.352125 -50.316096 79.499176
21.600958 -49.180109 79.476204
20.69762 -49.410545 80.166916
4.173873 -48.493921 90.335503
4.918789 -48.378986 90.318783
4.164924 -49.589 90.056286
4.173873 -48.493921 90.335503
4.105046 -50.737448 89.705296
4.774047 -50.652254 89.801254
4.164924 -49.589 90.056286
4.116553 -51.844091 89.25021
4.105046 -50.737448 89.705296
3.507429 -50.780838 89.505242
4.048794 -53.001264 88.736126
4.646411 -52.957874 88.93618
4.116553 -51.844091 89.25021
4.045507 -54.109083 88.128967
4.048794 -53.001264 88.736126
3.942589 -55.262852 87.477379
4.475735 -55.268816 87.770508
4.045507 -54.109083 88.128967
3.896438 -56.363766 86.744464
3.942589 -55.262852 87.477379
28.568102 -52.231943 72.336113
28.04695 -51.445231 73.01329
28.568102 -52.231943 72.336113
28.570994 -53.284752 72.648891
29.683658 -55.904532 71.661396
29.162791 -55.14752 72.325806
29.664076 -56.963823 71.933411
29.683658 -55.904532 71.661396
29.60623 -58.054767 72.162578
29.664076 -56.963823 71.933411
29.110365 -57.314172 72.85249
29.489908 -59.122896 72.328346
29.60623 -58.054767 72.162578
29.489908 -59.122896 72.328346
28.884196 -59.502502 73.195942
28.209916 -59.866274 74.002644
27.479599 -60.259629 74.751903
21.145569 -66.983589 76.71323
22.21262 -66.530563 76.345028
21.690575 -65.836205 77.057793
21.145569 -66.983589 76.71323
20.057944 -67.463516 77.044266
16.679007 -68.820472 77.836917
17.816976 -68.388069 77.598438
17.254342 -67.620971 78.254204
16.679007 -68.820472 77.836917
15.541632 -69.273685 78.036045
17.464688 -47.957416 82.926963
16.475808 -48.145456 83.627174
18.110636 -48.885872 82.239692
17.464688 -47.957416 82.926963
17.864459 -50.059652 82.23415
18.823107 -49.849226 81.539539
18.110636 -48.885872 82.239692
6.534898 -48.074579 89.950997
5.693525 -48.236948 90.183289
6.534898 -48.074579 89.950997
7.241391 -49.037615 89.545944
8.80295 -49.863704 88.618904
7.925574 -50.059694 89.043442
8.62914 -51.067899 88.451713
8.80295 -49.863704 88.618904
9.721716 -49.658485 88.127537
13.545636 -48.791343 85.682148
12.56389 -49.002054 86.344879
14.242783 -49.760597 84.986954
14.515477 -48.565888 85.008724
13.545636 -48.791343 85.682148
12.171957 -68.279968 79.637378
11.638429 -67.29982 80.276745
11.107711 -68.565445 79.79979
12.745015 -69.198173 79.017822
13.275733 -67.932548 79.494777
12.171957 -68.279968 79.637378
13.284215 -70.084789 78.370098
12.745015 -69.198173 79.017822
5.964643 -68.306206 80.512317
6.388482 -67.105632 81.292656
5.587269 -67.141956 81.176518
6.303265 -69.482715 79.883106
5.964643 -68.306206 80.512317
4.872927 -67.126632 81.022045
4.192629 -67.066696 80.772926
3.741338 -57.505405 85.981506
4.217718 -57.564224 86.355961
3.896438 -56.363766 86.744464
3.635572 -58.593676 85.148277
3.741338 -57.505405 85.981506
3.85038 -59.829802 84.742519
3.635572 -58.593676 85.148277
3 0 30 28
3 0 32 30
3 1 35 33
3 1 37 35
3 1 39 37
3 2 42 40
3 3 45 43
3 3 46 45
3 3 47 46
3 4 50 48
3 4 52 50
3 5 55 53
3 5 57 55
3 5 59 57
3 6 62 60
3 6 64 62
3 6 65 64
3 7 68 66
3 9 69 29
3 9 70 69
3 9 72 70
3 11 73 31
3 11 74 73
3 12 77 75
3 14 78 34
3 14 79 78
3 14 81 79
3 16 82 36
3 16 83 82
3 16 85 83
3 110 109 38
3 111 86 112
3 113 87 114
3 115 88 116
3 117 116 87
3 115 116 117
3 118 89 119
3 120 90 121
3 122 121 89
3 120 121 122
3 18 123 125
3 125 124 41
3 123 124 125
3 18 126 128
3 126 91 127
3 126 127 128
3 8 92 67
3 19 93 44
3 19 94 93
3 19 129 131
3 131 130 94
3 129 130 131
3 20 132 133
3 20 134 135
3 10 95 71
3 21 96 49
3 21 136 138
3 138 137 96
3 136 137 138
3 21 139 140
3 22 141 143
3 143 142 51
3 141 142 143
3 22 144 145
3 23 146 148
3 146 97 147
3 146 147 148
3 23 98 97
3 13 149 151
3 151 150 76
3 149 150 151
3 24 152 154
3 154 153 54
3 152 153 154
3 24 155 156
3 24 157 159
3 157 99 158
3 157 158 159
3 25 100 56
3 25 101 100
3 25 102 101
3 26 103 58
3 26 104 103
3 15 105 80
3 27 106 61
3 27 107 106
3 27 108 107
3 161 160 63
3 17 162 164
3 164 163 84
3 162 163 164
3 28 29 7
3 30 29 28
3 30 9 29
3 30 31 9
3 32 31 30
3 32 11 31
3 33 34 12
3 35 34 33
3 35 14 34
3 35 36 14
3 37 36 35
3 37 16 36
3 37 38 16
3 39 38 37
3 39 165 167
3 167 166 38
3 165 166 167
3 40 168 170
3 168 41 169
3 168 169 170
3 42 41 40
3 42 18 41
3 43 44 8
3 45 44 43
3 45 19 44
3 45 171 173
3 173 172 19
3 171 172 173
3 46 174 176
3 176 175 45
3 174 175 176
3 46 177 178
3 46 179 180
3 47 181 183
3 183 182 46
3 181 182 183
3 47 184 186
3 184 20 185
3 184 185 186
3 48 49 10
3 50 49 48
3 50 21 49
3 50 51 21
3 52 51 50
3 52 22 51
3 187 23 188
3 53 54 13
3 55 54 53
3 55 24 54
3 55 56 24
3 57 56 55
3 57 25 56
3 57 58 25
3 59 58 57
3 59 26 58
3 60 61 15
3 62 61 60
3 62 27 61
3 62 63 27
3 64 63 62
3 64 189 191
3 191 190 63
3 189 190 191
3 64 192 193
3 65 194 196
3 196 195 64
3 194 195 196
3 65 197 198
3 200 199 17
3 66 67 2
3 68 67 66
3 68 8 67
3 29 68 7
3 69 68 29
3 69 8 68
3 69 43 8
3 70 43 69
3 70 3 43
3 70 71 3
3 72 71 70
3 72 10 71
3 31 72 9
3 73 72 31
3 73 10 72
3 73 48 10
3 74 48 73
3 74 4 48
3 75 201 203
3 201 76 202
3 201 202 203
3 77 76 75
3 77 13 76
3 34 77 12
3 78 77 34
3 78 13 77
3 78 53 13
3 79 53 78
3 79 5 53
3 79 80 5
3 81 80 79
3 81 15 80
3 36 81 14
3 82 81 36
3 82 15 81
3 82 60 15
3 83 60 82
3 83 6 60
3 83 84 6
3 85 84 83
3 85 17 84
3 38 85 16
3 204 85 205
3 206 205 38
3 204 205 206
3 207 17 208
3 209 208 85
3 207 208 209
3 211 210 17
3 212 40 213
3 86 214 216
3 214 40 215
3 214 215 216
3 86 2 40
3 217 86 218
3 87 219 221
3 219 86 220
3 219 220 221
3 87 2 86
3 87 66 2
3 88 66 87
3 88 7 66
3 222 88 223
3 89 224 226
3 224 88 225
3 224 225 226
3 89 7 88
3 89 28 7
3 90 28 89
3 90 0 28
3 227 75 228
3 229 75 230
3 231 12 232
3 233 232 75
3 231 232 233
3 234 12 235
3 234 235 236
3 237 33 238
3 239 238 12
3 237 238 239
3 240 33 241
3 242 1 243
3 244 243 33
3 242 243 244
3 246 245 1
3 41 247 248
3 250 249 41
3 91 251 252
3 91 253 254
3 67 42 2
3 92 42 67
3 92 18 42
3 44 92 8
3 93 92 44
3 93 18 92
3 93 91 18
3 94 91 93
3 94 255 257
3 257 256 91
3 255 256 257
3 94 258 259
3 261 260 94
3 263 262 19
3 71 47 3
3 95 47 71
3 95 20 47
3 49 95 10
3 96 95 49
3 96 20 95
3 96 264 266
3 266 265 20
3 264 265 266
3 268 267 96
3 51 269 271
3 271 270 21
3 269 270 271
3 273 272 51
3 97 274 275
3 97 276 277
3 97 278 280
3 278 90 279
3 278 279 280
3 98 90 97
3 98 0 90
3 76 281 282
3 284 283 76
3 54 285 287
3 287 286 13
3 285 286 287
3 289 288 54
3 99 290 291
3 99 292 294
3 292 23 293
3 292 293 294
3 56 99 24
3 100 99 56
3 100 23 99
3 100 98 23
3 101 98 100
3 101 0 98
3 101 32 0
3 102 32 101
3 102 11 32
3 58 102 25
3 103 102 58
3 103 11 102
3 103 74 11
3 104 74 103
3 104 4 74
3 80 59 5
3 105 59 80
3 105 26 59
3 61 105 15
3 106 105 61
3 106 26 105
3 106 104 26
3 107 104 106
3 107 4 104
3 107 52 4
3 108 52 107
3 108 22 52
3 63 108 27
3 295 108 296
3 297 296 63
3 295 296 297
3 298 22 299
3 300 299 108
3 298 299 300
3 302 301 22
3 84 65 6
3 303 65 304
3 305 304 84
3 303 304 305
3 307 306 65
3 309 308 17
3 310 39 311
3 312 311 1
3 310 311 312
3 313 39 314
3 316 315 39
