ply
format ascii 1.0
element vertex 291
property float x
property float y
property float z
element face 285
property list uchar int vertex_index
end_header
-9.143385 -92.834564 56.173988
-12.155848 -85.580765 63.131405
-18.796894 -81.142395 58.931953
-8.906687 -86.610062 65.070633
-11.205759 -83.526489 68.397781
-5.352936 -93.97287 54.246788
-12.3843 -91.706848 53.441971
-11.510908 -95.975174 50.435734
-22.948151 -81.137321 50.685612
-5.981211 -92.171631 58.054333
-7.11133 -89.601669 61.611816
-10.329187 -89.240662 59.508919
-13.64056 -87.413422 56.990429
-8.380043 -95.902084 52.945812
-14.512916 -82.032646 66.892532
-15.529198 -83.490814 61.033489
-16.880747 -84.933304 54.463627
-19.995911 -82.648453 52.287628
-9.731461 -83.760773 69.095543
-3.979553 -92.382034 54.486046
-4.205259 -91.853195 56.598022
-13.971655 -90.646973 51.898777
-5.627428 -89.074219 62.400349
-6.430944 -87.832397 64.190247
-10.499302 -86.278275 64.132706
-9.515181 -87.969818 62.369358
-11.161873 -87.39798 61.286247
-11.987049 -88.464462 58.276482
-12.834209 -86.505905 60.140759
-6.287443 -96.613831 49.895851
-7.533173 -92.746185 57.238415
-7.146093 -94.063278 55.5215
-8.732374 -94.464813 54.568047
-11.061829 -97.901932 49.032188
-18.343517 -80.513557 62.116005
-16.68701 -81.666016 63.11174
-17.187473 -82.304352 59.975838
-16.155945 -84.185593 57.81271
-17.771214 -82.967941 56.694473
-21.495434 -81.776711 51.407494
-20.768921 -83.656372 48.920757
-19.244944 -84.628204 49.876774
-7.407906 -86.502762 65.915344
-8.528685 -85.132294 67.560791
-10.019043 -85.069565 66.760124
-11.614529 -84.593994 65.909035
-5.144321 -94.531113 52.198608
-6.557877 -96.016281 51.87677
-10.770149 -92.466827 54.8909
-10.337084 -94.391693 53.343342
-11.928867 -93.882477 51.886669
-24.350471 -80.730606 50.122864
-23.733629 -82.493706 47.678207
-4.535723 -91.11647 58.615009
-5.000875 -90.181793 60.5452
-6.468056 -90.964218 59.852367
-8.037243 -91.254944 58.932316
-7.92642 -88.133698 63.350143
-8.692308 -89.644119 60.636082
-9.662703 -91.071747 57.809475
-11.30583 -90.468323 56.526344
-12.939974 -89.528824 55.139961
-14.551562 -88.35907 53.716221
-5.621164 -93.183136 56.19342
-6.834221 -95.162506 53.744846
-8.037271 -97.098557 51.26088
-9.94953 -96.169434 51.836674
-9.548178 -97.732925 50.315033
-12.815781 -82.91037 67.673492
-13.285254 -83.798508 65.014221
-14.989646 -82.789352 64.079697
-13.843089 -84.616272 62.091282
-14.505541 -85.398788 58.971313
-15.274357 -86.198776 55.703171
-16.137642 -87.075943 52.323219
-22.305849 -80.034935 53.779778
-20.854656 -80.841324 54.664989
-19.340544 -81.831818 55.639763
-18.455851 -83.721085 53.314014
-17.701038 -85.796738 51.025063
-3.724043 -90.736488 57.765659
-3.573792 -90.991066 56.68181
-14.497732 -91.258522 50.234017
-14.751541 -90.0234 51.121443
-6.229546 -86.877533 65.41151
-5.747409 -87.440002 64.524116
-6.766666 -97.639557 48.729544
-6.976694 -97.318863 49.685516
-21.209648 -84.283386 47.252127
-21.518335 -83.297062 48.552528
-20.448561 -84.701881 47.673071
-21.209648 -84.283386 47.252127
-8.462563 -84.328262 68.673965
-7.841974 -84.931916 67.924294
-25.028261 -80.629704 49.916449
-24.681101 -79.86409 51.203823
-25.358891 -79.763188 50.997408
-24.189563 -83.316891 46.233963
-24.447328 -82.401509 47.53738
-23.44681 -83.432972 46.357444
-24.189563 -83.316891 46.233963
-4.641572 -89.121575 61.762774
-4.340974 -89.554405 60.775222
-10.034748 -98.660835 48.963926
-10.305003 -97.817429 49.67361
-10.791574 -98.745339 48.322504
-9.316157 -98.381248 49.520021
-10.034748 -98.660835 48.963926
-13.664348 -82.471508 67.283012
-13.438209 -82.050911 68.53717
-14.286777 -81.612049 68.14669
-22.627 -80.586128 52.232695
-22.998076 -79.729717 53.383498
-23.319228 -80.280911 51.836415
-18.151302 -86.31569 49.279913
-18.472991 -85.212471 50.450919
-18.923255 -85.731423 48.705768
-17.386221 -86.942574 49.944075
-18.151302 -86.31569 49.279913
-9.695846 -83.062004 70.079663
-9.063951 -83.642502 69.441341
-10.323974 -83.083466 69.792416
-9.695846 -83.062004 70.079663
-11.061123 -82.966324 69.443534
-10.46861 -83.643631 68.746662
-10.323974 -83.083466 69.792416
-3.460939 -91.255485 55.625822
-3.366659 -91.419205 54.49634
-4.092406 -92.117615 55.542034
-3.460939 -91.255485 55.625822
-3.573792 -90.991066 56.68181
-13.731581 -91.827858 51.082142
-12.937904 -92.357795 51.853739
-13.177978 -91.17691 52.670374
-13.731581 -91.827858 51.082142
-14.497732 -91.258522 50.234017
-5.34565 -88.060913 63.629167
-4.954849 -88.567788 62.690348
-6.029186 -88.453308 63.295298
-5.34565 -88.060913 63.629167
-5.747409 -87.440002 64.524116
-6.148041 -96.785897 48.843897
-5.629913 -95.737633 49.969002
-6.627264 -97.811622 47.67759
-6.148041 -96.785897 48.843897
-6.766666 -97.639557 48.729544
-11.810678 -97.762009 48.238239
-11.286369 -96.938553 49.733961
-12.035218 -96.79863 48.940012
-11.511716 -98.795425 47.587978
-11.810678 -97.762009 48.238239
-10.791574 -98.745339 48.322504
-11.511716 -98.795425 47.587978
-15.157083 -81.139904 67.805419
-14.286777 -81.612049 68.14669
-17.515263 -81.089787 62.613872
-17.31591 -80.774048 64.1246
-18.144163 -80.197819 63.626732
-21.881592 -82.357232 49.795896
-22.221792 -81.457016 51.046553
-22.607951 -82.037537 49.434956
-21.132177 -82.716542 50.164125
-21.881592 -82.357232 49.795896
-21.518335 -83.297062 48.552528
-19.686573 -85.187797 48.151079
-20.006932 -84.142288 49.398765
-20.448561 -84.701881 47.673071
-18.923255 -85.731423 48.705768
-19.686573 -85.187797 48.151079
-7.281585 -85.61715 67.10157
-6.718026 -86.212715 66.274059
-7.968295 -85.817528 66.738067
-7.281585 -85.61715 67.10157
-7.841974 -84.931916 67.924294
-9.130073 -84.446534 68.328167
-8.462563 -84.328262 68.673965
-9.063951 -83.642502 69.441341
-3.906017 -92.544151 53.381594
-3.293123 -91.581322 53.391888
-3.366659 -91.419205 54.49634
-4.488401 -93.61869 52.237875
-3.906017 -92.544151 53.381594
-4.561937 -93.456574 53.342327
-5.058352 -94.696274 51.12038
-4.488401 -93.61869 52.237875
-5.715882 -95.572472 51.04723
-5.629913 -95.737633 49.969002
-5.058352 -94.696274 51.12038
-7.111911 -97.020088 50.675976
-6.976694 -97.318863 49.685516
-6.42266 -96.315056 50.886311
-12.710187 -93.44561 51.076088
-12.156583 -92.794662 52.66432
-12.937904 -92.357795 51.853739
-12.48741 -94.623588 50.341663
-12.710187 -93.44561 51.076088
-12.278431 -95.669937 49.616196
-11.719888 -94.928825 51.161201
-12.48741 -94.623588 50.341663
-12.035218 -96.79863 48.940012
-12.278431 -95.669937 49.616196
-18.967522 -79.636459 63.139423
-18.144163 -80.197819 63.626732
-19.138117 -79.956188 61.605913
-18.967522 -79.636459 63.139423
-19.364806 -80.270607 60.013887
-18.570206 -80.827976 60.523979
-19.138117 -79.956188 61.605913
-24.020387 -80.077553 51.555041
-24.681101 -79.86409 51.203823
-23.649311 -80.933964 50.404238
-23.319228 -80.280911 51.836415
-24.020387 -80.077553 51.555041
-24.755748 -81.519959 48.759709
-25.028261 -80.629704 49.916449
-25.433538 -81.419056 48.553293
-24.04205 -81.612156 48.900536
-24.755748 -81.519959 48.759709
-24.447328 -82.401509 47.53738
-23.00069 -82.715729 47.931253
-22.607951 -82.037537 49.434956
-23.34089 -81.815514 49.18191
-23.00069 -82.715729 47.931253
-23.44681 -83.432972 46.357444
-4.108398 -90.021744 59.810127
-3.889276 -90.368126 58.774152
-4.768299 -90.649132 59.580105
-4.108398 -90.021744 59.810127
-4.340974 -89.554405 60.775222
-5.314151 -89.628006 61.472774
-4.641572 -89.121575 61.762774
-4.954849 -88.567788 62.690348
-6.919425 -87.16758 65.052796
-6.229546 -86.877533 65.41151
-6.718026 -86.212715 66.274059
-15.041495 -88.879448 52.030165
-14.751541 -90.0234 51.121443
-14.261609 -89.503022 52.807499
-4.370491 -91.484833 57.606516
-3.724043 -90.736488 57.765659
-3.889276 -90.368126 58.774152
-7.851608 -97.561226 50.368031
-7.111911 -97.020088 50.675976
-7.297574 -96.557419 51.568825
-8.560704 -98.064065 49.992945
-8.792725 -97.415741 50.787956
-9.316157 -98.381248 49.520021
-7.851608 -97.561226 50.368031
-8.560704 -98.064065 49.992945
-11.803805 -82.736999 69.190525
-11.061123 -82.966324 69.443534
-12.608815 -82.42894 68.828381
-13.438209 -82.050911 68.53717
-12.01077 -83.218429 68.035636
-11.803805 -82.736999 69.190525
-12.608815 -82.42894 68.828381
-15.375985 -81.513958 66.469909
-15.157083 -81.139904 67.805419
-16.463032 -81.330643 64.579513
-17.31591 -80.774048 64.1246
-15.61435 -81.892311 65.063492
-16.463032 -81.330643 64.579513
-15.838328 -82.227684 63.595718
-14.751281 -82.410999 65.486114
-15.375985 -81.513958 66.469909
-15.61435 -81.892311 65.063492
-15.834535 -88.237885 51.333664
-15.041495 -88.879448 52.030165
-15.344602 -87.717506 53.01972
-19.568956 -80.606617 58.421547
-19.364806 -80.270607 60.013887
-22.747706 -79.19215 54.868401
-22.998076 -79.729717 53.383498
-22.056688 -79.583996 55.349283
-22.747706 -79.19215 54.868401
-21.331092 -79.98719 55.791889
-22.056688 -79.583996 55.349283
-21.580253 -80.43813 54.222383
-20.597837 -80.456082 56.288065
-21.331092 -79.98719 55.791889
-19.840781 -80.951329 56.775452
-20.597837 -80.456082 56.288065
-20.0976 -81.336571 55.152376
-19.068719 -81.487106 57.285858
-19.568956 -80.606617 58.421547
-19.840781 -80.951329 56.775452
-16.604523 -87.582176 50.593153
-16.91934 -86.436341 51.674141
-17.386221 -86.942574 49.944075
-15.834535 -88.237885 51.333664
-16.604523 -87.582176 50.593153
3 80 20 81
3 83 82 21
3 84 23 85
3 1 26 24
3 1 28 26
3 87 86 29
3 0 32 30
3 2 36 34
3 2 38 36
3 88 40 89
3 91 90 40
3 92 43 93
3 4 44 18
3 4 45 44
3 5 46 19
3 5 47 46
3 6 50 48
3 94 51 95
3 94 95 96
3 97 52 98
3 100 99 52
3 101 54 102
3 10 55 22
3 10 56 55
3 3 57 42
3 11 58 25
3 11 59 58
3 11 60 59
3 12 61 27
3 12 62 61
3 9 63 53
3 13 64 31
3 13 65 64
3 7 66 49
3 103 67 104
3 105 104 33
3 103 104 105
3 107 106 67
3 14 108 110
3 108 68 109
3 108 109 110
3 14 69 68
3 15 70 35
3 15 71 70
3 15 72 71
3 16 73 37
3 16 74 73
3 8 111 113
3 111 75 112
3 111 112 113
3 17 76 39
3 17 77 76
3 17 78 77
3 114 79 115
3 116 115 41
3 114 115 116
3 118 117 79
3 119 18 120
3 121 18 122
3 123 4 124
3 125 124 18
3 123 124 125
3 126 19 127
3 20 128 130
3 128 19 129
3 128 129 130
3 20 5 19
3 21 131 133
3 133 132 6
3 131 132 133
3 135 134 21
3 136 22 137
3 23 138 140
3 138 22 139
3 138 139 140
3 23 10 22
3 24 25 3
3 26 25 24
3 26 11 25
3 26 27 11
3 28 27 26
3 28 12 27
3 29 141 142
3 145 144 29
3 143 144 145
3 30 31 9
3 32 31 30
3 32 13 31
3 146 33 147
3 148 147 7
3 146 147 148
3 149 33 150
3 152 151 33
3 153 14 154
3 34 155 157
3 155 35 156
3 155 156 157
3 36 35 34
3 36 15 35
3 36 37 15
3 38 37 36
3 38 16 37
3 158 39 159
3 160 159 8
3 158 159 160
3 40 161 163
3 161 39 162
3 161 162 163
3 40 17 39
3 40 41 17
3 164 41 165
3 166 165 40
3 164 165 166
3 168 167 41
3 169 42 170
3 43 171 173
3 171 42 172
3 171 172 173
3 43 3 42
3 18 174 176
3 174 43 175
3 174 175 176
3 44 43 18
3 44 3 43
3 44 24 3
3 45 24 44
3 45 1 24
3 19 177 179
3 177 178 179
3 46 180 182
3 182 181 19
3 180 181 182
3 46 183 184
3 46 185 187
3 185 29 186
3 185 186 187
3 47 29 46
3 47 188 190
3 190 189 29
3 188 189 190
3 48 49 0
3 50 49 48
3 50 7 49
3 191 50 192
3 193 192 6
3 191 192 193
3 194 50 195
3 196 7 197
3 198 197 50
3 196 197 198
3 200 199 7
3 201 34 202
3 203 34 204
3 205 2 206
3 207 206 34
3 205 206 207
3 51 208 209
3 51 210 212
3 210 8 211
3 210 211 212
3 213 51 214
3 213 214 215
3 52 216 218
3 216 51 217
3 216 217 218
3 52 8 51
3 52 219 221
3 221 220 8
3 219 220 221
3 223 222 52
3 224 53 225
3 54 226 228
3 226 53 227
3 226 227 228
3 54 9 53
3 22 229 231
3 229 54 230
3 229 230 231
3 55 54 22
3 55 9 54
3 55 30 9
3 56 30 55
3 56 0 30
3 42 232 234
3 232 23 233
3 232 233 234
3 57 23 42
3 57 10 23
3 25 57 3
3 58 57 25
3 58 10 57
3 58 56 10
3 59 56 58
3 59 0 56
3 59 48 0
3 60 48 59
3 60 6 48
3 27 60 11
3 61 60 27
3 61 6 60
3 61 21 6
3 62 21 61
3 62 235 237
3 237 236 21
3 235 236 237
3 53 238 240
3 238 20 239
3 238 239 240
3 63 20 53
3 63 5 20
3 31 63 9
3 64 63 31
3 64 5 63
3 64 47 5
3 65 47 64
3 65 241 243
3 243 242 47
3 241 242 243
3 49 32 0
3 66 32 49
3 66 13 32
3 33 66 7
3 67 66 33
3 67 13 66
3 67 65 13
3 244 65 245
3 246 245 67
3 244 245 246
3 248 247 65
3 249 4 250
3 68 251 252
3 68 253 255
3 253 4 254
3 253 254 255
3 68 45 4
3 69 45 68
3 69 1 45
3 256 14 257
3 35 258 259
3 70 260 262
3 262 261 35
3 260 261 262
3 70 263 265
3 263 14 264
3 263 264 265
3 70 69 14
3 71 69 70
3 71 1 69
3 71 28 1
3 72 28 71
3 72 12 28
3 37 72 15
3 73 72 37
3 73 12 72
3 73 62 12
3 74 62 73
3 74 266 268
3 268 267 62
3 266 267 268
3 269 2 270
3 75 271 272
3 75 273 274
3 39 75 8
3 76 75 39
3 76 275 277
3 277 276 75
3 275 276 277
3 76 278 279
3 77 280 282
3 282 281 76
3 280 281 282
3 77 283 285
3 283 2 284
3 283 284 285
3 77 38 2
3 78 38 77
3 78 16 38
3 41 78 17
3 79 78 41
3 79 16 78
3 79 74 16
3 286 74 287
3 288 287 79
3 286 287 288
3 290 289 74
