ply
format ascii 1.0
element vertex 257
property float x
property float y
property float z
element face 242
property list uchar int vertex_index
end_header
65.982262 -49.162354 -11.06752
59.026382 -46.117004 0.087723
60.631027 -52.616642 -3.025936
58.625893 -49.073757 -1.750443
58.488922 -53.392696 0.88679
62.328842 -45.610992 -9.925209
60.957932 -41.597584 -1.947159
60.216057 -39.314621 -6.00754
59.101898 -44.316887 -4.087778
60.164841 -47.59111 -5.857338
63.259605 -51.215237 -7.060976
68.846283 -38.614288 3.078235
64.883797 -39.664177 0.405643
61.948898 -43.885288 2.268446
63.572037 -56.571243 -3.749819
66.351746 -55.133663 -7.777079
68.567116 -53.122738 -11.830324
64.154404 -47.349117 -10.562315
63.584915 -44.414856 -11.922812
65.495384 -46.136681 -12.544647
67.257576 -47.957737 -13.050098
59.91188 -43.881874 -0.96533
59.678932 -42.871685 -3.048523
58.995049 -45.224663 -2.006855
59.395111 -50.782036 -2.465717
59.309601 -48.382416 -3.801807
60.415688 -50.145115 -4.496979
61.57259 -49.366554 -6.532841
61.909508 -52.00177 -5.041971
59.63129 -40.756866 -7.146914
67.002052 -39.02927 1.687129
65.546326 -41.050011 2.516439
63.408585 -41.783966 1.292516
65.009094 -55.945332 -5.759787
58.319492 -48.286381 1.176268
58.480919 -47.512688 -0.889606
58.542141 -51.307362 -0.465736
59.473274 -53.072144 -1.03586
60.80558 -43.930531 -9.137062
61.829697 -42.759403 -11.155151
60.530384 -40.467415 -3.9911
59.571358 -41.840199 -5.106995
59.377869 -43.354599 -6.153418
58.796986 -46.733917 -2.963278
59.284519 -45.900391 -5.035135
59.953617 -44.974121 -7.095465
61.178329 -46.671303 -7.901674
62.831795 -48.433052 -8.557384
64.633316 -50.261284 -9.071079
62.77425 -40.52243 -0.797897
61.446796 -42.729561 0.136585
60.226074 -44.903427 1.147603
62.423214 -45.079933 4.451824
60.578705 -45.965652 3.294165
59.161049 -47.036522 2.195846
59.474648 -55.221977 0.491182
60.73494 -54.979256 -1.453695
62.099747 -56.992023 -1.75325
62.108841 -54.553993 -3.443937
63.530952 -53.938118 -5.451963
64.942741 -53.135944 -7.463396
66.291039 -52.169163 -9.47208
67.550735 -54.174343 -9.800289
67.527679 -51.077686 -11.476847
68.610023 -49.916206 -13.479231
59.762804 -40.176697 -8.160531
59.739244 -41.531759 -7.674655
65.824181 -41.747143 3.614035
66.56702 -40.785782 3.176446
64.76809 -42.058852 2.983212
65.824181 -41.747143 3.614035
58.220331 -48.998178 0.72599
58.057798 -49.320764 1.716209
58.515532 -52.350029 0.210527
58.214503 -51.538023 0.498157
58.187893 -52.58069 1.17442
63.292668 -42.939774 -12.534756
64.244213 -43.758877 -12.907764
60.744158 -41.0325 -2.96913
61.330141 -39.870224 -3.410049
61.543915 -40.435308 -2.388079
60.620901 -38.031681 -6.393871
60.871952 -38.667784 -5.411905
69.510113 -38.511516 3.843233
69.06176 -39.39946 4.181363
69.316677 -37.675205 2.767568
69.510113 -38.511516 3.843233
68.555385 -37.814278 2.033472
69.316677 -37.675205 2.767568
65.587803 -38.597859 0.022085
66.64693 -38.280405 0.662828
65.942925 -39.346723 1.046386
64.51479 -38.97591 -0.609418
65.587803 -38.597859 0.022085
63.829024 -40.093304 -0.196127
63.460016 -39.405037 -1.211188
64.51479 -38.97591 -0.609418
62.630499 -45.698871 5.56879
63.45476 -44.728157 5.063031
59.970016 -46.993392 3.808142
60.754696 -46.52663 4.385896
59.261189 -47.528827 3.258983
59.869877 -46.501087 2.745005
59.970016 -46.993392 3.808142
58.724518 -48.074711 2.714429
59.261189 -47.528827 3.258983
60.068203 -56.212883 0.353568
59.406762 -56.216234 1.311823
60.698349 -56.091522 -0.61887
60.104794 -55.100617 -0.481256
60.068203 -56.212883 0.353568
62.835892 -56.781633 -2.751534
62.713639 -58.033068 -1.863262
63.449784 -57.822677 -2.861547
68.058926 -53.64854 -10.815306
67.892215 -55.233237 -9.946479
68.400406 -54.707434 -10.961496
58.113514 -53.500495 1.774461
58.187893 -52.58069 1.17442
65.199447 -44.61979 -13.218681
64.244213 -43.758877 -12.907764
64.540149 -45.275768 -12.233729
66.149498 -45.484516 -13.524839
65.199447 -44.61979 -13.218681
67.030594 -46.395044 -13.777565
66.149498 -45.484516 -13.524839
66.37648 -47.047209 -12.797372
67.834164 -47.328287 -14.035652
67.030594 -46.395044 -13.777565
59.848566 -39.436203 -7.578605
60.14095 -38.71508 -7.008918
59.923673 -40.035744 -6.577227
59.848566 -39.436203 -7.578605
59.762804 -40.176697 -8.160531
68.216999 -39.56792 3.457344
69.06176 -39.39946 4.181363
67.294883 -39.775411 2.761791
67.924168 -38.821779 2.382682
68.216999 -39.56792 3.457344
66.274189 -40.03964 2.101784
67.294883 -39.775411 2.761791
66.56702 -40.785782 3.176446
63.699219 -42.425829 2.37125
64.477455 -41.416989 1.904478
64.76809 -42.058852 2.983212
62.969375 -43.47649 2.859215
62.678742 -42.834627 1.780481
63.699219 -42.425829 2.37125
64.173111 -57.609842 -3.866336
63.449784 -57.822677 -2.861547
64.891639 -57.296886 -4.87132
64.290565 -56.258288 -4.754803
64.173111 -57.609842 -3.866336
65.557713 -56.981371 -5.882834
64.891639 -57.296886 -4.87132
66.229039 -56.575536 -6.891479
65.68042 -55.539497 -6.768433
65.557713 -56.981371 -5.882834
68.767456 -54.22052 -11.994584
68.400406 -54.707434 -10.961496
68.969941 -52.584034 -12.849449
68.767456 -54.22052 -11.994584
58.301045 -48.611332 -0.306948
58.400205 -47.899535 0.143331
58.220331 -48.998178 0.72599
58.373531 -49.391866 -0.737366
58.553406 -48.293222 -1.320024
58.301045 -48.611332 -0.306948
58.331655 -50.508669 -0.095012
58.214503 -51.538023 0.498157
58.584017 -50.190559 -1.108089
58.373531 -49.391866 -0.737366
58.331655 -50.508669 -0.095012
60.664299 -42.541462 -9.685342
60.326389 -43.118592 -8.669729
61.176358 -41.955898 -10.694387
60.664299 -42.541462 -9.685342
61.317639 -43.344967 -10.146107
61.616427 -41.320985 -11.700412
61.176358 -41.955898 -10.694387
62.415059 -42.112047 -12.150925
62.707306 -43.58713 -11.538982
63.292668 -42.939774 -12.534756
61.616427 -41.320985 -11.700412
62.415059 -42.112047 -12.150925
61.029116 -39.244181 -4.403685
61.330141 -39.870224 -3.410049
60.373221 -39.891018 -4.99932
60.871952 -38.667784 -5.411905
61.029116 -39.244181 -4.403685
59.612533 -42.830625 -7.177907
59.739244 -41.531759 -7.674655
59.504579 -42.055733 -6.650166
59.900408 -43.640386 -7.648931
59.612533 -42.830625 -7.177907
59.665743 -44.16436 -6.624441
60.379599 -44.452326 -8.116264
60.326389 -43.118592 -8.669729
59.900408 -43.640386 -7.648931
60.620901 -38.031681 -6.393871
60.14095 -38.71508 -7.008918
67.63327 -38.021768 1.337919
68.555385 -37.814278 2.033472
67.924168 -38.821779 2.382682
67.63327 -38.021768 1.337919
66.64693 -38.280405 0.662828
62.452074 -39.897731 -1.813448
63.460016 -39.405037 -1.211188
61.866091 -41.060007 -1.372528
61.543915 -40.435308 -2.388079
62.452074 -39.897731 -1.813448
63.206533 -44.073813 3.950904
63.45476 -44.728157 5.063031
62.186056 -44.48261 3.360135
62.969375 -43.47649 2.859215
63.206533 -44.073813 3.950904
61.676951 -46.08377 4.964725
62.630499 -45.698871 5.56879
61.50096 -45.522792 3.872994
61.676951 -46.08377 4.964725
60.754696 -46.52663 4.385896
58.303739 -48.699641 2.20464
58.74027 -47.661451 1.686057
58.724518 -48.074711 2.714429
58.057798 -49.320764 1.716209
58.303739 -48.699641 2.20464
58.445542 -54.342245 1.614493
58.113514 -53.500495 1.774461
58.938405 -55.256886 1.416689
59.406762 -56.216234 1.311823
58.981785 -54.307337 0.688986
58.445542 -54.342245 1.614493
58.938405 -55.256886 1.416689
61.965918 -58.135892 -0.867213
62.713639 -58.033068 -1.863262
61.380752 -57.097906 -0.768648
61.965918 -58.135892 -0.867213
61.417344 -55.98564 -1.603473
60.698349 -56.091522 -0.61887
61.380752 -57.097906 -0.768648
66.811902 -56.174026 -7.909584
66.229039 -56.575536 -6.891479
67.411396 -55.694367 -8.921189
67.892215 -55.233237 -9.946479
66.951241 -54.654003 -8.788684
66.811902 -56.174026 -7.909584
67.411396 -55.694367 -8.921189
68.510387 -48.307522 -14.250218
67.834164 -47.328287 -14.035652
67.933799 -48.936971 -13.264665
68.991394 -50.980768 -13.673903
68.58857 -51.519472 -12.654777
68.969941 -52.584034 -12.849449
69.055881 -49.331623 -14.480341
68.991394 -50.980768 -13.673903
68.510387 -48.307522 -14.250218
69.055881 -49.331623 -14.480341
3 0 19 17
3 0 20 19
3 1 23 21
3 2 26 24
3 2 28 26
3 66 65 29
3 67 31 68
3 70 69 31
3 72 71 34
3 4 73 75
3 73 36 74
3 73 74 75
3 4 37 36
3 5 39 38
3 77 76 18
3 6 78 80
3 78 40 79
3 78 79 80
3 8 41 22
3 8 42 41
3 3 43 35
3 9 44 25
3 9 45 44
3 9 46 45
3 10 47 27
3 10 48 47
3 7 81 82
3 11 83 84
3 11 85 86
3 11 87 88
3 12 89 91
3 91 90 30
3 89 90 91
3 12 92 93
3 12 94 96
3 94 49 95
3 94 95 96
3 13 50 32
3 13 51 50
3 97 52 98
3 99 53 100
3 101 54 102
3 103 102 53
3 101 102 103
3 105 104 54
3 106 55 107
3 108 56 109
3 110 109 55
3 108 109 110
3 14 111 113
3 111 57 112
3 111 112 113
3 14 58 57
3 14 59 58
3 15 60 33
3 15 61 60
3 16 114 116
3 114 62 115
3 114 115 116
3 16 63 62
3 16 64 63
3 117 4 118
3 17 18 5
3 19 18 17
3 19 119 121
3 121 120 18
3 119 120 121
3 19 122 123
3 20 124 126
3 126 125 19
3 124 125 126
3 20 127 128
3 21 22 6
3 23 22 21
3 23 8 22
3 24 25 3
3 26 25 24
3 26 9 25
3 26 27 9
3 28 27 26
3 28 10 27
3 29 129 131
3 131 130 7
3 129 130 131
3 133 132 29
3 134 11 135
3 136 30 137
3 138 137 11
3 136 137 138
3 31 139 141
3 139 30 140
3 139 140 141
3 31 12 30
3 31 32 12
3 142 32 143
3 144 143 31
3 142 143 144
3 145 13 146
3 147 146 32
3 145 146 147
3 148 14 149
3 150 33 151
3 152 151 14
3 150 151 152
3 153 33 154
3 155 15 156
3 157 156 33
3 155 156 157
3 158 16 159
3 161 160 16
3 34 35 1
3 162 35 163
3 164 163 34
3 162 163 164
3 165 3 166
3 167 166 35
3 165 166 167
3 36 168 169
3 36 170 172
3 170 3 171
3 170 171 172
3 36 24 3
3 37 24 36
3 37 2 24
3 38 173 174
3 39 175 177
3 177 176 38
3 175 176 177
3 39 178 179
3 18 39 5
3 180 39 181
3 182 181 18
3 180 181 182
3 184 183 39
3 40 185 186
3 40 187 189
3 187 7 188
3 187 188 189
3 22 40 6
3 41 40 22
3 41 7 40
3 41 29 7
3 42 29 41
3 42 190 192
3 192 191 29
3 190 191 192
3 35 23 1
3 43 23 35
3 43 8 23
3 25 43 3
3 44 43 25
3 44 8 43
3 44 42 8
3 45 42 44
3 45 193 195
3 195 194 42
3 193 194 195
3 45 196 198
3 196 38 197
3 196 197 198
3 46 38 45
3 46 5 38
3 27 46 9
3 47 46 27
3 47 5 46
3 47 17 5
3 48 17 47
3 48 0 17
3 200 199 7
3 30 201 203
3 203 202 11
3 201 202 203
3 205 204 30
3 49 206 207
3 49 208 210
3 208 6 209
3 208 209 210
3 32 49 12
3 50 49 32
3 50 6 49
3 50 21 6
3 51 21 50
3 51 1 21
3 52 211 212
3 52 213 215
3 213 13 214
3 213 214 215
3 216 52 217
3 53 218 220
3 218 52 219
3 218 219 220
3 53 13 52
3 53 51 13
3 54 51 53
3 54 1 51
3 54 34 1
3 221 34 222
3 223 222 54
3 221 222 223
3 225 224 34
3 226 4 227
3 55 228 229
3 55 230 232
3 230 4 231
3 230 231 232
3 55 37 4
3 56 37 55
3 56 2 37
3 57 233 234
3 57 235 236
3 57 237 239
3 237 56 238
3 237 238 239
3 58 56 57
3 58 2 56
3 58 28 2
3 59 28 58
3 59 10 28
3 33 59 14
3 60 59 33
3 60 10 59
3 60 48 10
3 61 48 60
3 61 0 48
3 240 15 241
3 62 242 243
3 62 244 246
3 244 15 245
3 244 245 246
3 62 61 15
3 63 61 62
3 63 0 61
3 63 20 0
3 64 20 63
3 64 247 249
3 249 248 20
3 247 248 249
3 250 64 251
3 252 251 16
3 250 251 252
3 253 64 254
3 256 255 64
