ply
format ascii 1.0
element vertex 533
property float x
property float y
property float z
element face 626
property list uchar int vertex_index
end_header
-45.400036 -86.574341 31.810211
-52.526474 -69.792984 23.190603
-51.108788 -79.834709 8.989416
-45.876541 -92.557465 22.219387
-48.178932 -89.137756 11.331538
-46.866779 -83.164093 19.715252
-60.642788 -63.421463 19.423527
-43.506447 -88.177216 43.0163
-42.675873 -95.339355 33.250954
-47.384155 -77.660568 27.690174
-52.697014 -73.405891 34.070724
-59.11932 -66.94075 29.727039
-49.385509 -74.026253 16.132332
-45.541981 -89.549271 27.168438
-46.476921 -87.842224 21.24468
-45.992783 -84.871994 25.703562
-44.640457 -87.874329 37.736927
-42.790749 -91.902908 38.659046
-44.380825 -91.080673 33.072521
-44.522537 -94.182297 27.81094
-50.152596 -77.048141 36.670296
-49.334381 -84.417664 10.238631
-49.6991 -87.15918 6.33637
-51.773132 -82.400101 5.384897
-49.452171 -73.531342 25.404667
-47.823647 -75.77594 21.795273
-50.127441 -71.548882 19.738094
-45.867462 -95.605682 17.087057
-47.084053 -93.951767 11.988992
-46.984528 -90.869705 16.664846
-47.616196 -86.164597 15.537721
-48.500832 -81.537582 14.096596
-56.425537 -66.474396 21.163143
-53.431076 -67.65876 17.740812
-57.453835 -64.087036 15.906732
-40.862144 -91.371826 43.439331
-40.394203 -95.359695 38.278084
-44.436371 -97.229477 22.218061
-46.100227 -83.662247 35.913288
-46.188248 -82.053932 29.899471
-47.614738 -79.480537 33.597424
-49.630905 -75.47052 31.101959
-52.389652 -71.767502 28.659275
-55.622501 -70.994362 36.892731
-55.7024 -70.007782 31.699839
-55.883682 -68.468536 26.443747
-59.798553 -65.528442 24.570393
-63.436756 -62.712727 23.093357
-46.545677 -80.252274 23.826097
-47.715607 -78.552383 17.964563
-50.029831 -76.956619 12.538469
-51.905991 -69.624786 14.263657
-52.144722 -72.333199 10.87472
-53.400764 -75.237106 7.615459
-45.40501 -88.056366 29.539925
-45.800316 -87.208435 26.51063
-45.69368 -85.741776 28.758949
-45.060249 -87.309738 34.819191
-44.420307 -89.49173 35.49958
-44.956406 -88.840195 32.54937
-45.010227 -90.363983 30.138569
-45.879375 -97.952026 9.520179
-50.135761 -82.114281 9.62624
-50.464432 -83.453247 7.761547
-51.525616 -81.155685 7.200686
-53.096535 -80.102142 4.870922
-52.742165 -78.878281 6.613472
-50.867725 -71.60788 24.281042
-49.658806 -72.533554 22.558054
-51.144226 -70.585609 21.492596
-45.939575 -94.07486 19.671549
-46.533714 -93.238617 16.990099
-46.439247 -91.711929 19.425671
-46.652023 -85.496109 20.52387
-46.993065 -87.000671 18.349941
-47.233643 -84.665146 17.629288
-47.990433 -83.84111 14.83821
-47.566711 -82.346519 16.846558
-58.53944 -64.931549 20.251564
-56.879089 -65.32605 18.525343
-59.021229 -63.711575 17.657492
-42.227798 -89.853348 43.388741
-42.689674 -93.656006 36.057655
-41.655922 -93.734833 38.649895
-41.573753 -95.534668 35.838531
-42.668053 -96.96489 30.296089
-45.251148 -93.393921 25.022064
-44.541882 -95.70845 25.042904
-45.287769 -94.907791 22.362566
-45.19136 -96.427826 19.657553
-46.885273 -82.231979 37.683998
-46.819248 -81.558266 34.794991
-47.797455 -80.236382 36.477505
-51.373238 -75.205139 35.356232
-49.884769 -76.330811 33.915588
-51.122883 -74.452026 32.628525
-50.911903 -73.572586 29.861773
-52.514946 -72.644882 31.377035
-58.812782 -67.407181 32.306412
-57.202026 -68.955391 33.250862
-57.375488 -68.433052 30.657345
-55.762367 -69.299721 29.075397
-57.574638 -67.769287 28.059872
-57.823223 -66.964432 25.459406
-59.443104 -66.318321 27.148487
-62.977364 -63.533939 25.646458
-46.00219 -84.235931 38.788052
-47.678932 -91.541428 11.739542
-47.657463 -93.084869 9.495378
-48.279331 -90.629501 9.204854
-46.698944 -79.833138 28.815769
-46.298111 -81.1521 26.852566
-46.78532 -78.904083 25.804066
-48.448738 -74.882935 18.921604
-47.604462 -77.113083 19.893995
-48.440239 -76.276962 17.055454
-48.72464 -77.751831 15.187735
-49.58707 -75.467178 14.327221
-54.197922 -66.549377 15.061831
-52.439972 -68.530502 16.001375
-53.447662 -67.489914 13.337902
-53.353127 -69.992348 10.003668
-52.718739 -73.800919 9.235721
-54.594193 -72.862534 6.856526
-45.724232 -91.049698 24.72221
-46.248547 -90.198303 21.828674
-46.013077 -88.696274 24.193996
-46.194977 -86.34584 23.494688
-46.361504 -84.006042 22.677969
-62.623875 -61.904076 18.687185
-44.12402 -88.188614 40.497433
-43.048302 -90.075623 40.996407
-43.78318 -89.930923 38.338394
-43.638889 -91.622131 35.930515
-43.62645 -93.262604 33.322769
-43.665222 -94.858368 30.563005
-44.44305 -92.64241 30.497446
-45.135742 -91.880951 27.620611
-52.877209 -74.010422 36.717918
-60.453178 -65.928986 31.483126
-60.865051 -65.513603 28.912174
-48.699631 -86.759003 10.81653
-48.886787 -88.192307 8.78968
-49.591175 -85.796478 8.2969
-50.634186 -84.746201 5.875464
-48.292953 -75.554016 26.546623
-47.485504 -76.707275 24.72739
-48.437904 -74.578369 23.640579
-48.842438 -73.624435 20.764593
-49.542267 -72.702591 17.943172
-45.62426 -97.154968 14.474139
-46.281319 -96.351471 12.033022
-46.49181 -94.782898 14.524769
-47.104401 -92.400742 14.339523
-47.553459 -90.020172 13.960375
-46.760231 -89.351212 18.966503
-47.311565 -88.509003 16.162409
-47.947044 -87.654007 13.440247
-48.388138 -85.312759 12.830118
-48.954239 -83.00032 12.16889
-49.684605 -80.710754 11.478266
-54.396492 -68.086182 22.146984
-52.872253 -68.740242 20.456623
-54.803345 -66.992737 19.463005
-55.379959 -65.840637 16.795874
-56.112804 -64.633232 14.164188
-41.856956 -91.841171 41.188759
-40.558403 -93.422668 41.034348
-43.672703 -96.42038 27.69384
-43.573944 -97.961319 24.752228
-44.154846 -98.752838 19.358707
-44.919983 -97.959259 16.921373
-45.611355 -85.108459 33.946144
-45.782757 -84.306335 30.910711
-46.144196 -82.911179 32.932899
-46.734764 -80.736496 31.824137
-47.452232 -78.601562 30.656368
-48.784996 -78.264343 35.209362
-48.539307 -77.44561 32.356178
-48.35025 -76.523987 29.459444
-49.46328 -74.521866 28.258459
-50.806549 -72.612228 27.075071
-52.377304 -70.807999 25.92807
-54.28611 -72.696236 38.050583
-54.228481 -72.269485 35.47506
-55.668282 -70.578842 34.311798
-54.13858 -71.668228 32.843689
-54.065102 -70.924438 30.185987
-54.055866 -70.065742 27.514526
-54.154602 -69.114204 24.833591
-56.097221 -67.524231 23.805439
-58.140762 -66.017975 22.855463
-60.19677 -64.563034 21.993515
-61.280693 -64.918869 26.34479
-61.708969 -64.12471 23.781719
-62.156273 -63.1194 21.226412
-63.898987 -61.647148 20.555872
-45.097431 -86.229919 39.743164
-45.395126 -85.774826 36.910316
-46.895004 -95.53241 9.612835
-47.466576 -94.663605 7.225092
-48.927711 -89.634216 6.742739
-45.961342 -83.435913 27.848604
-46.2118 -82.550018 24.796146
-46.603947 -81.682899 21.787189
-47.06654 -77.989929 22.819902
-46.999836 -79.382751 20.852875
-47.201904 -80.848846 18.854807
-48.053104 -80.043404 16.028528
-49.180336 -79.246735 13.329049
-50.578674 -78.428383 10.763401
-51.666115 -69.55928 18.726187
-50.878681 -70.582428 16.96636
-50.545574 -71.806213 15.199286
-53.176552 -68.654434 11.646139
-51.831436 -70.913696 12.550101
-50.628876 -73.18705 13.447013
-51.027992 -74.65477 11.7212
-51.605312 -76.13179 10.018587
-52.217346 -77.552643 8.323195
-54.044472 -76.583313 5.986939
-45.531706 -98.340584 10.681321
-45.207371 -99.143669 9.361751
-42.867123 -89.015282 43.202521
-42.508073 -88.816513 44.293312
-43.147398 -87.978447 44.107092
-42.106928 -96.295257 33.038525
-41.555868 -96.392914 34.332313
-42.124813 -95.437011 34.544742
-42.671963 -96.152122 31.773522
-42.103018 -97.108025 31.561093
-42.106928 -96.295257 33.038525
-47.865022 -80.51923 37.861536
-47.341364 -81.234181 37.080752
-47.408931 -81.517028 38.464782
-47.408931 -81.517028 38.464782
-46.88059 -82.459365 39.05661
-54.297207 -66.448021 12.888575
-53.822792 -67.019645 14.199866
-54.672337 -65.977753 13.750539
-55.170292 -71.639946 6.45182
-54.234686 -72.143406 7.634538
-55.585197 -72.330117 5.708572
-55.170292 -71.639946 6.45182
-62.86484 -61.199385 17.432032
-63.494062 -61.123879 18.365946
-52.937618 -74.212883 37.997119
-52.237002 -74.895981 37.364368
-61.003864 -65.316529 32.41459
-60.244484 -66.058426 32.768903
-61.248411 -65.215134 31.129624
-61.003864 -65.316529 32.41459
-51.802274 -82.999375 4.461162
-51.232802 -84.172425 4.706446
-51.203659 -83.573151 5.63018
-52.506862 -81.823444 4.235788
-51.802274 -82.999375 4.461162
-53.950756 -79.519432 3.740181
-53.816006 -78.957928 4.597347
-40.343864 -90.915039 44.38599
-41.098011 -90.292305 44.432541
-40.145559 -92.019959 43.289831
-40.343864 -90.915039 44.38599
-39.785827 -95.05513 39.395588
-39.867928 -94.086616 40.77372
-40.476303 -94.391182 39.656216
-39.714371 -96.033241 37.9072
-39.785827 -95.05513 39.395588
-43.871285 -98.361221 21.994588
-43.440071 -98.727142 23.261672
-44.005157 -97.595398 23.485144
-44.295609 -97.991157 20.788384
-43.730522 -99.122902 20.564912
-43.871285 -98.361221 21.994588
-49.468796 -77.656242 35.939829
-48.899676 -78.591381 36.594225
-49.583476 -77.98328 37.324692
-54.954306 -71.845299 37.471657
-54.906418 -71.963718 38.726849
-55.574613 -71.112781 38.147922
-61.898102 -64.520389 27.276645
-61.072872 -65.216236 27.628482
-61.690281 -64.817757 28.560337
-45.453035 -85.394272 40.614267
-44.896261 -86.31417 41.054077
-47.846276 -93.405327 7.139801
-47.56202 -93.874237 8.360235
-47.941719 -92.615959 8.274944
-47.736163 -94.18528 6.051112
-47.846276 -93.405327 7.139801
-53.90641 -68.147979 10.384279
-53.912773 -67.536964 11.199098
-45.578518 -98.771637 8.257123
-45.207371 -99.143669 9.361751
-46.198999 -97.551895 8.366627
-45.578518 -98.771637 8.257123
-53.638821 -78.345997 5.468622
-53.816006 -78.957928 4.597347
-52.91935 -79.490212 5.742197
-41.780838 -89.533066 44.407246
-42.508073 -88.816513 44.293312
-41.544971 -90.612587 43.414036
-41.098011 -90.292305 44.432541
-41.780838 -89.533066 44.407246
-40.943289 -96.362129 35.545603
-40.353513 -96.274642 36.765379
-40.983978 -95.447181 37.058307
-40.943289 -96.362129 35.545603
-41.555868 -96.392914 34.332313
-42.066975 -97.93396 29.989248
-42.103018 -97.108025 31.561093
-42.626213 -97.757004 28.770723
-42.066975 -97.93396 29.989248
-56.224867 -70.274662 37.630108
-55.574613 -71.112781 38.147922
-58.007404 -68.181286 32.778637
-57.854827 -68.341724 34.066187
-58.660206 -67.56762 33.593962
-63.466516 -63.131473 26.625384
-62.746437 -63.827924 26.927479
-63.695049 -62.829307 25.345463
-63.466516 -63.131473 26.625384
-63.924746 -62.418701 24.068912
-63.20706 -63.123333 24.369908
-63.695049 -62.829307 25.345463
-64.148806 -61.984127 22.795921
-63.924746 -62.418701 24.068912
-46.439049 -83.461342 39.608637
-45.905415 -84.397278 40.136712
-46.443731 -83.233955 38.236025
-46.439049 -83.461342 39.608637
-46.88059 -82.459365 39.05661
-48.252653 -91.388275 8.129682
-47.941719 -92.615959 8.274944
-47.968397 -91.857185 9.350116
-49.674711 -87.847237 5.34468
-50.167165 -86.592453 5.15044
-54.199032 -69.497898 8.780796
-53.994698 -68.816936 9.563043
-53.614153 -70.708313 9.208109
-54.199032 -69.497898 8.780796
-53.009951 -71.878738 9.643635
-52.748925 -71.162774 10.439194
-53.614153 -70.708313 9.208109
-53.296959 -72.612598 8.824136
-52.431731 -73.067059 10.055221
-53.009951 -71.878738 9.643635
-53.656466 -73.331727 8.046124
-53.296959 -72.612598 8.824136
-54.234686 -72.143406 7.634538
-54.971128 -73.547363 6.080996
-54.374414 -74.734649 6.460463
-53.997478 -74.04982 7.235993
-54.971128 -73.547363 6.080996
-55.585197 -72.330117 5.708572
-61.878567 -62.008687 17.779542
-60.888024 -62.76738 18.147713
-61.633331 -62.66277 19.055356
-61.878567 -62.008687 17.779542
-62.86484 -61.199385 17.432032
-50.258984 -77.306243 37.994816
-49.583476 -77.98328 37.324692
-50.874695 -76.41484 37.340557
-50.258984 -77.306243 37.994816
-51.485016 -75.49334 36.683525
-50.762917 -76.12664 36.013264
-50.874695 -76.41484 37.340557
-52.125224 -74.607781 36.037075
-51.485016 -75.49334 36.683525
-52.237002 -74.895981 37.364368
-59.424285 -66.797523 33.180546
-58.660206 -67.56762 33.593962
-59.63298 -66.668083 31.894769
-59.424285 -66.797523 33.180546
-60.244484 -66.058426 32.768903
-61.454347 -65.007442 29.844148
-60.659115 -65.721294 30.19765
-61.248411 -65.215134 31.129624
-61.690281 -64.817757 28.560337
-61.454347 -65.007442 29.844148
-50.634709 -85.385964 4.919987
-50.167165 -86.592453 5.15044
-50.166643 -85.952691 6.105917
-50.634709 -85.385964 4.919987
-51.232802 -84.172425 4.706446
-53.168564 -80.674465 3.978801
-52.506862 -81.823444 4.235788
-52.434833 -81.251122 5.127909
-53.168564 -80.674465 3.978801
-53.950756 -79.519432 3.740181
-45.95279 -96.75322 13.25358
-45.732678 -97.540306 11.937743
-45.404148 -97.942054 13.158301
-55.629778 -65.01968 13.301718
-54.672337 -65.977753 13.750539
-55.155363 -65.591305 14.61301
-60.077244 -62.912436 17.264696
-59.832009 -63.566519 18.540509
-60.888024 -62.76738 18.147713
-59.298788 -63.041029 16.373085
-60.077244 -62.912436 17.264696
-58.515091 -63.228759 15.497705
-58.237532 -63.899305 16.782112
-59.298788 -63.041029 16.373085
-57.792428 -63.426815 14.61639
-58.515091 -63.228759 15.497705
-57.121912 -63.699913 13.745118
-56.783319 -64.360134 15.03546
-57.792428 -63.426815 14.61639
-56.542231 -64.002241 12.875901
-57.121912 -63.699913 13.745118
-55.629778 -65.01968 13.301718
-56.542231 -64.002241 12.875901
-39.993688 -93.045379 42.087339
-40.145559 -92.019959 43.289831
-40.710273 -92.397247 42.23684
-39.993688 -93.045379 42.087339
-39.867928 -94.086616 40.77372
-39.714371 -96.033241 37.9072
-40.353513 -96.274642 36.765379
-43.128538 -97.484749 27.469599
-42.626213 -97.757004 28.770723
-43.170378 -96.692635 28.994965
-43.079158 -98.255219 25.998793
-43.128538 -97.484749 27.469599
-43.623323 -97.190849 26.223034
-42.962272 -99.035225 24.449025
-43.079158 -98.255219 25.998793
-42.962272 -99.035225 24.449025
-43.440071 -98.727142 23.261672
-43.48822 -99.888924 19.069904
-43.730522 -99.122902 20.564912
-43.907471 -99.519073 17.92265
-43.48822 -99.888924 19.069904
-44.290039 -99.122284 16.703983
-43.907471 -99.519073 17.92265
-44.537414 -98.356048 18.14004
-44.68177 -98.733581 15.545215
-44.290039 -99.122284 16.703983
-45.033909 -98.331436 14.321597
-44.68177 -98.733581 15.545215
-45.272121 -97.557113 15.697756
-45.404148 -97.942054 13.158301
-45.033909 -98.331436 14.321597
-48.405905 -79.577401 37.228296
-47.865022 -80.51923 37.861536
-48.291225 -79.250362 35.843434
-48.405905 -79.577401 37.228296
-48.899676 -78.591381 36.594225
-54.274887 -72.805024 39.284019
-54.906418 -71.963718 38.726849
-53.642069 -73.55579 38.663452
-54.274887 -72.805024 39.284019
-53.58166 -73.353329 37.384251
-52.937618 -74.212883 37.997119
-53.642069 -73.55579 38.663452
-56.325449 -70.163402 36.361451
-56.224867 -70.274662 37.630108
-57.115212 -69.143917 34.540516
-57.854827 -68.341724 34.066187
-56.348339 -69.955642 35.070984
-57.115212 -69.143917 34.540516
-56.435154 -69.767117 33.78133
-55.645392 -70.786602 35.602265
-56.325449 -70.163402 36.361451
-56.348339 -69.955642 35.070984
-62.129029 -64.226404 25.995624
-61.898102 -64.520389 27.276645
-62.746437 -63.827924 26.927479
-64.131619 -60.995414 19.300289
-63.494062 -61.123879 18.365946
-63.261431 -61.775612 19.621529
-64.379921 -61.451338 21.527179
-63.667872 -62.179938 21.824615
-64.148806 -61.984127 22.795921
-64.602913 -60.880991 20.265949
-64.379921 -61.451338 21.527179
-64.131619 -60.995414 19.300289
-64.602913 -60.880991 20.265949
-43.840114 -87.195984 43.848056
-43.147398 -87.978447 44.107092
-44.100769 -87.287819 42.690645
-43.840114 -87.195984 43.848056
-44.409555 -87.293518 41.431212
-43.815234 -88.182915 41.756867
-44.100769 -87.287819 42.690645
-44.610726 -87.209266 40.120299
-44.409555 -87.293518 41.431212
-44.896261 -86.31417 41.054077
-45.54981 -85.232925 39.265608
-45.453035 -85.394272 40.614267
-45.905415 -84.397278 40.136712
-46.080347 -97.151748 10.776601
-45.531706 -98.340584 10.681321
-45.732678 -97.540306 11.937743
-46.706813 -96.342087 8.412955
-46.198999 -97.551895 8.366627
-46.38719 -96.742218 9.566507
-46.992599 -95.907685 7.219083
-46.706813 -96.342087 8.412955
-47.18079 -95.098007 8.418964
-47.280489 -95.475838 6.076906
-46.992599 -95.907685 7.219083
-47.280489 -95.475838 6.076906
-47.736163 -94.18528 6.051112
-48.576843 -90.890632 6.898625
-48.252653 -91.388275 8.129682
-48.603521 -90.131858 7.973796
-49.289017 -89.084755 5.547865
-49.313406 -88.396698 6.539554
-49.674711 -87.847237 5.34468
-48.869843 -90.371223 5.706964
-49.289017 -89.084755 5.547865
-48.576843 -90.890632 6.898625
-48.869843 -90.371223 5.706964
-54.048328 -66.954704 12.044979
-54.297207 -66.448021 12.888575
-53.312107 -68.072174 12.49202
-54.048328 -66.954704 12.044979
-53.912773 -67.536964 11.199098
-53.26484 -69.323391 10.824903
-53.90641 -68.147979 10.384279
-53.994698 -68.816936 9.563043
-54.289974 -77.198513 5.155355
-53.638821 -78.345997 5.468622
-53.393318 -77.730797 6.300205
-54.696268 -75.407753 5.646202
-53.722618 -75.91021 6.801199
-54.374414 -74.734649 6.460463
-55.018612 -76.035279 4.856153
-54.696268 -75.407753 5.646202
-54.289974 -77.198513 5.155355
-55.018612 -76.035279 4.856153
3 0 56 54
3 0 59 57
3 0 54 59
3 221 61 222
3 2 64 62
3 2 66 64
3 1 69 67
3 3 72 70
3 5 75 73
3 5 77 75
3 6 80 78
3 7 223 225
3 223 81 224
3 223 224 225
3 8 84 82
3 8 226 228
3 228 227 84
3 226 227 228
3 8 229 231
3 229 85 230
3 229 230 231
3 3 88 86
3 3 70 88
3 232 92 233
3 234 233 90
3 232 233 234
3 10 95 93
3 10 97 95
3 11 100 98
3 11 102 100
3 11 104 102
3 235 90 236
3 4 109 107
3 9 112 110
3 12 115 113
3 12 117 115
3 237 120 238
3 239 238 118
3 237 238 239
3 240 123 241
3 243 242 123
3 13 126 124
3 15 127 55
3 15 128 127
3 245 244 129
3 16 132 130
3 18 133 58
3 18 134 133
3 18 136 134
3 13 137 60
3 13 124 137
3 246 138 247
3 248 139 249
3 251 250 139
3 21 143 141
3 23 144 63
3 23 252 254
3 254 253 144
3 252 253 254
3 23 255 256
3 258 257 65
3 24 147 145
3 26 148 68
3 26 149 148
3 27 152 150
3 29 153 71
3 29 154 153
3 14 155 125
3 30 156 74
3 30 157 156
3 30 158 157
3 31 159 76
3 31 160 159
3 32 163 161
3 34 164 79
3 34 165 164
3 35 259 260
3 35 261 262
3 17 166 131
3 36 167 83
3 36 263 265
3 265 264 167
3 263 264 265
3 36 266 267
3 19 168 135
3 37 169 87
3 37 268 270
3 270 269 169
3 268 269 270
3 37 271 273
3 271 170 272
3 271 272 273
3 27 171 89
3 27 150 171
3 38 174 172
3 40 175 91
3 40 176 175
3 20 274 276
3 274 177 275
3 274 275 276
3 41 178 94
3 41 179 178
3 41 180 179
3 42 181 96
3 42 182 181
3 43 277 279
3 277 183 278
3 277 278 279
3 43 184 183
3 44 185 99
3 44 186 185
3 44 187 186
3 45 188 101
3 45 189 188
3 45 190 189
3 46 191 103
3 46 192 191
3 280 193 281
3 282 281 140
3 280 281 282
3 47 194 105
3 47 195 194
3 47 196 195
3 283 197 284
3 38 198 106
3 38 172 198
3 28 199 151
3 285 200 286
3 287 286 108
3 285 286 287
3 289 288 200
3 22 201 142
3 39 202 173
3 48 203 111
3 48 204 203
3 25 205 146
3 49 206 114
3 49 207 206
3 49 208 207
3 50 209 116
3 50 210 209
3 33 211 162
3 51 212 119
3 51 213 212
3 290 214 291
3 52 215 121
3 52 216 215
3 52 217 216
3 53 218 122
3 53 219 218
3 53 220 219
3 54 55 13
3 56 55 54
3 56 15 55
3 57 58 16
3 59 58 57
3 59 18 58
3 59 60 18
3 54 60 59
3 54 13 60
3 61 292 293
3 61 294 295
3 62 63 21
3 64 63 62
3 64 23 63
3 64 65 23
3 66 65 64
3 66 296 298
3 298 297 65
3 296 297 298
3 67 68 24
3 69 68 67
3 69 26 68
3 70 71 27
3 72 71 70
3 72 29 71
3 73 74 14
3 75 74 73
3 75 30 74
3 75 76 30
3 77 76 75
3 77 31 76
3 78 79 32
3 80 79 78
3 80 34 79
3 81 299 300
3 81 301 303
3 301 35 302
3 301 302 303
3 82 83 17
3 84 83 82
3 84 36 83
3 84 304 306
3 306 305 36
3 304 305 306
3 308 307 84
3 85 309 310
3 85 311 312
3 86 87 19
3 88 87 86
3 88 37 87
3 88 89 37
3 70 89 88
3 70 27 89
3 90 91 38
3 92 91 90
3 92 40 91
3 93 94 20
3 95 94 93
3 95 41 94
3 95 96 41
3 97 96 95
3 97 42 96
3 313 43 314
3 98 315 317
3 315 99 316
3 315 316 317
3 100 99 98
3 100 44 99
3 100 101 44
3 102 101 100
3 102 45 101
3 102 103 45
3 104 103 102
3 104 46 103
3 318 105 319
3 320 105 321
3 322 47 323
3 324 323 105
3 322 323 324
3 326 325 47
3 327 106 328
3 90 329 331
3 329 106 330
3 329 330 331
3 90 38 106
3 107 108 28
3 109 108 107
3 109 332 334
3 334 333 108
3 332 333 334
3 336 335 22
3 110 111 39
3 112 111 110
3 112 48 111
3 113 114 25
3 115 114 113
3 115 49 114
3 115 116 49
3 117 116 115
3 117 50 116
3 118 119 33
3 120 119 118
3 120 51 119
3 337 121 338
3 339 121 340
3 341 52 342
3 343 342 121
3 341 342 343
3 344 122 345
3 346 345 52
3 344 345 346
3 123 347 349
3 347 122 348
3 347 348 349
3 123 53 122
3 123 350 352
3 352 351 53
3 350 351 352
3 354 353 123
3 124 125 3
3 126 125 124
3 126 14 125
3 55 126 13
3 127 126 55
3 127 14 126
3 127 73 14
3 128 73 127
3 128 5 73
3 129 355 357
3 357 356 6
3 355 356 357
3 359 358 129
3 130 131 7
3 132 131 130
3 132 17 131
3 58 132 16
3 133 132 58
3 133 17 132
3 133 82 17
3 134 82 133
3 134 8 82
3 134 135 8
3 136 135 134
3 136 19 135
3 60 136 18
3 137 136 60
3 137 19 136
3 137 86 19
3 124 86 137
3 124 3 86
3 360 20 361
3 362 20 363
3 364 93 365
3 366 365 20
3 364 365 366
3 138 367 369
3 367 93 368
3 367 368 369
3 138 10 93
3 370 98 371
3 139 372 374
3 372 98 373
3 372 373 374
3 139 11 98
3 139 140 11
3 375 140 376
3 377 376 139
3 375 376 377
3 379 378 140
3 141 142 4
3 143 142 141
3 143 22 142
3 63 143 21
3 144 143 63
3 144 22 143
3 144 380 382
3 382 381 22
3 380 381 382
3 384 383 144
3 65 385 387
3 387 386 23
3 385 386 387
3 389 388 65
3 145 146 9
3 147 146 145
3 147 25 146
3 68 147 24
3 148 147 68
3 148 25 147
3 148 113 25
3 149 113 148
3 149 12 113
3 150 390 392
3 390 151 391
3 390 391 392
3 152 151 150
3 152 28 151
3 71 152 27
3 153 152 71
3 153 28 152
3 153 107 28
3 154 107 153
3 154 4 107
3 125 72 3
3 155 72 125
3 155 29 72
3 74 155 14
3 156 155 74
3 156 29 155
3 156 154 29
3 157 154 156
3 157 4 154
3 157 141 4
3 158 141 157
3 158 21 141
3 76 158 30
3 159 158 76
3 159 21 158
3 159 62 21
3 160 62 159
3 160 2 62
3 161 162 1
3 163 162 161
3 163 33 162
3 79 163 32
3 164 163 79
3 164 33 163
3 164 118 33
3 165 118 164
3 165 393 395
3 395 394 118
3 393 394 395
3 396 80 397
3 398 397 6
3 396 397 398
3 399 80 400
3 401 34 402
3 403 402 80
3 401 402 403
3 404 34 405
3 406 165 407
3 408 407 34
3 406 407 408
3 409 165 410
3 412 411 165
3 131 81 7
3 166 81 131
3 166 35 81
3 83 166 17
3 167 166 83
3 167 35 166
3 167 413 415
3 415 414 35
3 413 414 415
3 417 416 167
3 419 418 36
3 135 85 8
3 168 85 135
3 168 420 422
3 422 421 85
3 420 421 422
3 87 168 19
3 169 168 87
3 169 423 425
3 425 424 168
3 423 424 425
3 169 426 427
3 429 428 169
3 170 430 431
3 170 432 433
3 89 170 37
3 171 170 89
3 171 434 436
3 436 435 170
3 434 435 436
3 171 437 438
3 150 439 441
3 441 440 171
3 439 440 441
3 150 442 443
3 172 173 0
3 174 173 172
3 174 39 173
3 91 174 38
3 175 174 91
3 175 39 174
3 175 110 39
3 176 110 175
3 176 9 110
3 444 92 445
3 177 446 448
3 446 92 447
3 446 447 448
3 177 40 92
3 94 177 20
3 178 177 94
3 178 40 177
3 178 176 40
3 179 176 178
3 179 9 176
3 179 145 9
3 180 145 179
3 180 24 145
3 96 180 41
3 181 180 96
3 181 24 180
3 181 67 24
3 182 67 181
3 182 1 67
3 183 449 450
3 183 451 452
3 183 453 455
3 453 138 454
3 453 454 455
3 184 138 183
3 184 10 138
3 456 43 457
3 99 458 459
3 185 460 462
3 462 461 99
3 460 461 462
3 185 463 465
3 463 43 464
3 463 464 465
3 185 184 43
3 186 184 185
3 186 10 184
3 186 97 10
3 187 97 186
3 187 42 97
3 101 187 44
3 188 187 101
3 188 42 187
3 188 182 42
3 189 182 188
3 189 1 182
3 189 161 1
3 190 161 189
3 190 32 161
3 103 190 45
3 191 190 103
3 191 32 190
3 191 78 32
3 192 78 191
3 192 6 78
3 140 104 11
3 193 104 140
3 193 46 104
3 105 466 468
3 466 193 467
3 466 467 468
3 194 193 105
3 194 46 193
3 194 192 46
3 195 192 194
3 195 6 192
3 195 129 6
3 196 129 195
3 196 469 471
3 471 470 129
3 469 470 471
3 472 196 473
3 474 473 47
3 472 473 474
3 475 196 476
3 478 477 196
3 479 7 480
3 481 7 482
3 483 130 484
3 485 484 7
3 483 484 485
3 197 486 488
3 486 130 487
3 486 487 488
3 197 16 130
3 106 489 491
3 489 197 490
3 489 490 491
3 198 197 106
3 198 16 197
3 198 57 16
3 172 57 198
3 172 0 57
3 151 492 494
3 492 61 493
3 492 493 494
3 199 61 151
3 199 495 497
3 497 496 61
3 495 496 497
3 108 199 28
3 200 199 108
3 200 498 500
3 500 499 199
3 498 499 500
3 200 501 502
3 504 503 200
3 142 109 4
3 201 109 142
3 201 505 507
3 507 506 109
3 505 506 507
3 508 201 509
3 510 509 22
3 508 509 510
3 511 201 512
3 514 513 201
3 173 56 0
3 202 56 173
3 202 15 56
3 111 202 39
3 203 202 111
3 203 15 202
3 203 128 15
3 204 128 203
3 204 5 128
3 146 112 9
3 205 112 146
3 205 48 112
3 114 205 25
3 206 205 114
3 206 48 205
3 206 204 48
3 207 204 206
3 207 5 204
3 207 77 5
3 208 77 207
3 208 31 77
3 116 208 49
3 209 208 116
3 209 31 208
3 209 160 31
3 210 160 209
3 210 2 160
3 162 69 1
3 211 69 162
3 211 26 69
3 119 211 33
3 212 211 119
3 212 26 211
3 212 149 26
3 213 149 212
3 213 12 149
3 515 120 516
3 214 517 519
3 517 120 518
3 517 518 519
3 214 51 120
3 121 520 522
3 520 214 521
3 520 521 522
3 215 214 121
3 215 51 214
3 215 213 51
3 216 213 215
3 216 12 213
3 216 117 12
3 217 117 216
3 217 50 117
3 122 217 52
3 218 217 122
3 218 50 217
3 218 210 50
3 219 210 218
3 219 2 210
3 219 66 2
3 220 66 219
3 220 523 525
3 525 524 66
3 523 524 525
3 526 220 527
3 528 527 53
3 526 527 528
3 529 220 530
3 532 531 220
