ply
format ascii 1.0
element vertex 280
property float x
property float y
property float z
element face 288
property list uchar int vertex_index
end_header
1.548695 -32.919533 81.037666
1.337702 -19.870312 78.004242
0.137815 -20.225912 86.174049
-0.330755 -19.363407 67.890106
-0.925852 -32.407429 70.630714
0.17182 -33.094994 87.887283
1.559549 -26.470516 79.50589
0.784613 -26.372211 74.3564
0.660759 -32.74979 75.982437
-1.737581 -27.271042 88.689949
0.713388 -13.161424 81.080406
1.153034 -19.919142 82.619148
1.509706 -26.579889 84.005356
-1.852386 -18.353024 63.206448
-2.362511 -25.147129 64.045509
0.813507 -19.79155 72.930206
-0.615904 -26.020967 69.085541
-1.814096 -20.90616 88.169434
0.434307 -26.851961 87.225822
1.453245 -33.035179 85.223625
0.625574 -38.880646 86.464256
0.976744 -38.979362 82.75676
1.603621 -29.722427 80.260643
1.272787 -29.665257 77.755287
1.210432 -32.845894 78.578323
0.494165 -35.843395 76.908409
1.036922 -35.948799 79.466911
-0.119581 -16.862238 85.497803
0.503256 -16.660482 83.836235
0.758173 -20.027693 84.565994
1.360537 -23.260782 83.33786
0.973824 -23.375719 85.229156
-0.211815 -15.929401 67.38636
-0.908278 -15.490189 65.076416
-1.072319 -18.940647 65.489189
-2.099909 -21.77766 63.578594
-1.266718 -22.335825 65.961273
1.222099 -16.513041 77.257263
1.109869 -16.488228 74.78051
1.159111 -19.855623 75.489822
0.056635 -29.458168 72.472672
0.149475 -26.246237 71.710358
-0.765587 -29.247017 69.808258
-1.677555 -28.920561 67.183968
-1.878849 -32.105984 67.966064
-0.623363 -30.158613 88.392883
-0.519709 -27.050148 88.192703
0.394411 -30.049755 87.592987
1.122536 -29.944229 86.321785
0.96595 -33.075832 86.781334
0.954601 -38.965988 84.793289
-0.952711 -17.179493 86.785042
0.380581 -16.228094 69.796997
1.458895 -23.185532 78.7556
1.215277 -23.166533 76.22197
1.262398 -26.435013 76.975174
0.747034 -29.586763 75.13829
-0.064127 -32.612175 73.316025
-0.235971 -35.698097 74.256531
1.162548 -16.521477 79.641403
0.926331 -16.557228 81.859886
1.340218 -19.877947 80.405891
1.514473 -23.205643 81.153519
1.651093 -26.510643 81.876076
1.708363 -29.780472 82.578911
-2.5877 -17.589655 61.064774
-2.889372 -21.03928 61.328186
-3.208321 -24.453516 61.690414
0.827526 -16.405195 72.275833
0.310503 -19.638586 70.382004
0.800913 -23.109728 73.622665
0.231802 -22.975561 71.016479
-0.469866 -22.727676 68.450424
-1.472466 -25.663507 66.520111
-2.621439 -28.449295 64.632111
-1.999388 -17.612356 87.660683
-0.719557 -20.521414 87.386185
-1.71768 -24.136997 88.517715
-0.564131 -23.821295 87.861008
0.335148 -23.562927 86.755203
1.10984 -26.692642 85.812599
1.556313 -29.852997 84.626816
1.640163 -32.981701 83.281441
0.596031 -36.020557 87.227692
1.155159 -36.06591 85.826797
1.401279 -36.063332 84.011337
1.351774 -36.022186 81.862129
0.719082 -38.933132 80.441963
-1.50305 -33.811386 69.753723
-1.979548 -33.660663 68.421398
-1.402351 -32.256706 69.298389
-1.600066 -15.72495 86.908394
-1.091523 -15.491962 86.438813
0.608414 -14.584988 70.724533
0.404019 -14.486586 69.520118
0.006695 -37.268978 76.108825
0.356548 -37.340246 77.421543
0.859911 -13.139917 79.977947
0.626451 -11.436028 80.690418
0.937968 -14.841451 80.360905
1.08449 -14.819944 79.258445
0.859911 -13.139917 79.977947
-1.747253 -16.625586 63.04958
-1.275199 -15.194168 63.984564
-1.380332 -16.921607 64.141432
-2.220043 -17.971339 62.135611
-2.11491 -16.243901 61.978743
-1.747253 -16.625586 63.04958
-2.941844 -26.478768 63.114334
-3.364749 -26.131961 61.936786
-2.785416 -24.800323 62.867961
-2.742993 -30.0636 64.993302
-2.149497 -28.684928 65.90804
-2.271052 -30.299233 66.26923
-3.214878 -29.773119 63.72953
-2.742993 -30.0636 64.993302
-1.906742 -19.259258 87.915059
-2.626101 -17.878105 87.888859
-2.533454 -19.525007 88.143235
-1.727631 -25.70402 88.603832
-2.410836 -24.311788 88.623081
-2.420787 -25.87881 88.709198
0.301735 -38.796776 87.079247
0.235144 -40.15321 86.804402
0.610802 -37.450601 86.845974
0.286963 -37.366732 87.460965
0.301735 -38.796776 87.079247
0.627926 -37.392948 78.700794
0.356548 -37.340246 77.421543
0.765543 -35.896097 78.18766
0.367173 -11.495538 81.679004
0.626451 -11.436028 80.690418
0.191838 -16.76136 84.667019
0.051767 -15.066793 84.296196
-0.259652 -15.167671 85.12698
-0.560047 -15.709795 66.231388
-0.520361 -13.964538 65.992946
-0.172129 -14.184145 67.147919
1.165984 -16.500635 76.018887
1.118269 -14.791701 75.652306
1.174384 -14.804108 76.890682
-2.371698 -31.891945 66.660278
-2.271052 -30.299233 66.26923
-1.778202 -30.513272 67.575016
-2.482547 -33.466357 67.09407
-2.371698 -31.891945 66.660278
-2.482547 -33.466357 67.09407
-1.979548 -33.660663 68.421398
-2.473367 -21.13214 88.345391
-2.533454 -19.525007 88.143235
0.45214 -40.257834 86.049511
0.235144 -40.15321 86.804402
0.616653 -40.300505 85.214028
0.790088 -38.923317 85.628772
0.45214 -40.257834 86.049511
0.678209 -40.35281 84.261203
0.616653 -40.300505 85.214028
0.68928 -40.359497 83.242939
0.965672 -38.972675 83.775025
0.678209 -40.35281 84.261203
0.606548 -40.366592 82.134148
0.68928 -40.359497 83.242939
-0.674958 -15.333335 85.795193
-0.259652 -15.167671 85.12698
-0.536146 -17.020865 86.141423
-0.674958 -15.333335 85.795193
-1.091523 -15.491962 86.438813
0.10782 -14.337239 68.3148
-0.172129 -14.184145 67.147919
0.084383 -16.078747 68.591679
0.10782 -14.337239 68.3148
0.404019 -14.486586 69.520118
-0.587257 -34.054371 72.440853
-1.018119 -33.951998 71.098197
-0.49499 -32.509802 71.973369
-0.673179 -35.597332 72.911106
-0.587257 -34.054371 72.440853
-0.150049 -34.155136 73.786278
-0.78475 -37.098984 73.44033
-0.673179 -35.597332 72.911106
-0.358374 -37.196329 74.782886
0.129097 -35.770746 75.58247
0.006695 -37.268978 76.108825
-0.78475 -37.098984 73.44033
-0.358374 -37.196329 74.782886
-2.4636 -27.38244 88.709182
-2.420787 -25.87881 88.709198
-1.822719 -28.763712 88.69841
-2.4636 -27.38244 88.709182
-1.26561 -30.207497 88.549877
-1.180472 -28.714827 88.541416
-1.822719 -28.763712 88.69841
-0.769977 -31.620574 88.447555
-1.26561 -30.207497 88.549877
-0.372385 -33.088764 88.194755
-0.225772 -31.626804 88.140083
-0.769977 -31.620574 88.447555
1.114266 -14.815726 78.066375
1.174384 -14.804108 76.890682
1.192324 -16.517259 78.449333
1.114266 -14.815726 78.066375
1.08449 -14.819944 79.258445
0.47987 -13.214339 82.072575
0.367173 -11.495538 81.679004
0.374804 -14.963868 83.450489
0.051767 -15.066793 84.296196
0.586341 -14.912241 82.462315
0.374804 -14.963868 83.450489
0.714794 -16.608855 82.848061
0.819859 -14.859326 81.470146
0.47987 -13.214339 82.072575
0.586341 -14.912241 82.462315
-0.852 -13.75108 64.879307
-0.520361 -13.964538 65.992946
-0.852 -13.75108 64.879307
-1.275199 -15.194168 63.984564
-2.457025 -15.866292 60.960936
-2.11491 -16.243901 61.978743
-2.885941 -17.116227 60.074463
-2.457025 -15.866292 60.960936
-3.064874 -18.852083 60.149462
-2.885941 -17.116227 60.074463
-3.21571 -20.576895 60.281168
-3.064874 -18.852083 60.149462
-2.738536 -19.314467 61.19648
-3.40379 -22.306633 60.405804
-3.21571 -20.576895 60.281168
-3.563264 -24.013751 60.586917
-3.40379 -22.306633 60.405804
-3.048846 -22.746398 61.5093
-3.747508 -25.722047 60.779823
-3.563264 -24.013751 60.586917
-3.747508 -25.722047 60.779823
-3.364749 -26.131961 61.936786
1.090433 -14.768549 74.438214
1.118269 -14.791701 75.652306
0.949261 -14.727033 73.185875
1.090433 -14.768549 74.438214
0.968697 -16.446711 73.528172
0.831886 -14.673538 71.963951
0.949261 -14.727033 73.185875
0.604054 -16.316644 71.036415
0.608414 -14.584988 70.724533
0.831886 -14.673538 71.963951
-3.071308 -28.12985 63.407635
-2.941844 -26.478768 63.114334
-2.491975 -26.798212 64.33881
-3.071308 -28.12985 63.407635
-3.214878 -29.773119 63.72953
-1.50305 -33.811386 69.753723
-1.018119 -33.951998 71.098197
-2.723058 -16.237043 87.610093
-2.626101 -17.878105 87.888859
-2.123404 -15.941381 87.346215
-2.723058 -16.237043 87.610093
-1.47605 -17.395924 87.222863
-1.600066 -15.72495 86.908394
-2.123404 -15.941381 87.346215
-2.425159 -22.747559 88.519531
-2.410836 -24.311788 88.623081
-1.765888 -22.521579 88.343574
-2.473367 -21.13214 88.345391
-2.425159 -22.747559 88.519531
-0.051976 -34.506739 88.020557
-0.372385 -33.088764 88.194755
0.160129 -35.969521 87.690762
0.286963 -37.366732 87.460965
0.383925 -34.557775 87.557488
-0.051976 -34.506739 88.020557
0.160129 -35.969521 87.690762
0.469006 -38.885115 79.18832
0.627926 -37.392948 78.700794
0.878002 -37.440966 79.954437
0.477718 -40.343477 80.97675
0.847913 -38.956247 81.599362
0.606548 -40.366592 82.134148
0.268202 -40.313526 79.755581
0.477718 -40.343477 80.97675
0.469006 -38.885115 79.18832
0.268202 -40.313526 79.755581
3 0 24 22
3 0 26 24
3 2 29 27
3 2 31 29
3 3 34 32
3 3 36 34
3 1 39 37
3 4 42 40
3 4 44 42
3 4 88 90
3 90 89 44
3 88 89 90
3 5 47 45
3 5 49 47
3 91 51 92
3 93 52 94
3 6 55 53
3 8 56 23
3 8 57 56
3 8 58 57
3 96 95 25
3 10 97 98
3 10 99 101
3 99 59 100
3 99 100 101
3 11 60 28
3 11 61 60
3 11 62 61
3 12 63 30
3 12 64 63
3 13 102 104
3 104 103 33
3 102 103 104
3 13 105 107
3 105 65 106
3 105 106 107
3 13 66 65
3 14 67 35
3 14 108 110
3 110 109 67
3 108 109 110
3 15 68 38
3 15 69 68
3 7 70 54
3 16 71 41
3 16 72 71
3 16 73 72
3 111 74 112
3 113 112 43
3 111 112 113
3 115 114 74
3 17 116 118
3 116 75 117
3 116 117 118
3 17 76 75
3 9 119 121
3 119 77 120
3 119 120 121
3 18 78 46
3 18 79 78
3 18 80 79
3 19 81 48
3 19 82 81
3 20 122 123
3 20 124 126
3 124 83 125
3 124 125 126
3 20 84 83
3 21 85 50
3 21 86 85
3 21 87 86
3 22 23 6
3 24 23 22
3 24 8 23
3 24 25 8
3 26 25 24
3 26 127 129
3 129 128 25
3 127 128 129
3 130 10 131
3 27 132 134
3 132 28 133
3 132 133 134
3 29 28 27
3 29 11 28
3 29 30 11
3 31 30 29
3 31 12 30
3 32 135 137
3 135 33 136
3 135 136 137
3 34 33 32
3 34 13 33
3 34 35 13
3 36 35 34
3 36 14 35
3 37 138 140
3 138 38 139
3 138 139 140
3 39 38 37
3 39 15 38
3 40 41 7
3 42 41 40
3 42 16 41
3 42 43 16
3 44 43 42
3 44 141 143
3 143 142 43
3 141 142 143
3 44 144 145
3 147 146 44
3 148 17 149
3 45 46 9
3 47 46 45
3 47 18 46
3 47 48 18
3 49 48 47
3 49 19 48
3 150 20 151
3 152 50 153
3 154 153 20
3 152 153 154
3 155 50 156
3 157 21 158
3 159 158 50
3 157 158 159
3 161 160 21
3 162 27 163
3 51 164 166
3 164 27 165
3 164 165 166
3 51 2 27
3 167 32 168
3 52 169 171
3 169 32 170
3 169 170 171
3 52 3 32
3 53 54 1
3 55 54 53
3 55 7 54
3 23 55 6
3 56 55 23
3 56 7 55
3 56 40 7
3 57 40 56
3 57 4 40
3 57 172 174
3 174 173 4
3 172 173 174
3 58 175 177
3 177 176 57
3 175 176 177
3 58 178 179
3 25 58 8
3 180 58 181
3 182 181 25
3 180 181 182
3 184 183 58
3 185 9 186
3 187 9 188
3 189 45 190
3 191 190 9
3 189 190 191
3 192 45 193
3 194 5 195
3 196 195 45
3 194 195 196
3 197 37 198
3 59 199 201
3 199 37 200
3 199 200 201
3 59 1 37
3 202 10 203
3 28 204 205
3 60 206 208
3 208 207 28
3 206 207 208
3 60 209 211
3 209 10 210
3 209 210 211
3 60 59 10
3 61 59 60
3 61 1 59
3 61 53 1
3 62 53 61
3 62 6 53
3 30 62 11
3 63 62 30
3 63 6 62
3 63 22 6
3 64 22 63
3 64 0 22
3 33 212 213
3 215 214 33
3 65 216 217
3 65 218 219
3 65 220 221
3 66 222 224
3 224 223 65
3 222 223 224
3 66 225 226
3 35 66 13
3 67 66 35
3 67 227 229
3 229 228 66
3 227 228 229
3 67 230 231
3 233 232 67
3 38 234 235
3 68 236 238
3 238 237 38
3 236 237 238
3 68 239 240
3 68 241 243
3 241 52 242
3 241 242 243
3 69 52 68
3 69 3 52
3 54 39 1
3 70 39 54
3 70 15 39
3 41 70 7
3 71 70 41
3 71 15 70
3 71 69 15
3 72 69 71
3 72 3 69
3 72 36 3
3 73 36 72
3 73 14 36
3 43 73 16
3 74 73 43
3 74 14 73
3 74 244 246
3 246 245 14
3 244 245 246
3 248 247 74
3 250 249 4
3 75 251 252
3 75 253 254
3 75 255 257
3 255 51 256
3 255 256 257
3 76 51 75
3 76 2 51
3 77 258 259
3 77 260 262
3 260 17 261
3 260 261 262
3 46 77 9
3 78 77 46
3 78 17 77
3 78 76 17
3 79 76 78
3 79 2 76
3 79 31 2
3 80 31 79
3 80 12 31
3 48 80 18
3 81 80 48
3 81 12 80
3 81 64 12
3 82 64 81
3 82 0 64
3 263 5 264
3 83 265 266
3 83 267 269
3 267 5 268
3 267 268 269
3 83 49 5
3 84 49 83
3 84 19 49
3 50 84 20
3 85 84 50
3 85 19 84
3 85 82 19
3 86 82 85
3 86 0 82
3 86 26 0
3 87 26 86
3 87 270 272
3 272 271 26
3 270 271 272
3 273 87 274
3 275 274 21
3 273 274 275
3 276 87 277
3 279 278 87
