ply
format ascii 1.0
element vertex 243
property float x
property float y
property float z
element face 228
property list uchar int vertex_index
end_header
0.115778 69.983734 -29.817879
-4.59244 81.961609 -22.825436
-2.803162 57.736675 -34.180843
2.193407 53.746761 -32.191376
-1.804882 76.73317 -26.795479
-5.899792 77.236404 -27.171719
-2.931692 71.44133 -30.638382
-4.828167 64.924362 -32.594799
-0.881121 64.389847 -32.993835
0.400566 56.405552 -33.99649
1.394388 62.238316 -31.679756
-4.415627 42.084679 -33.216183
-5.378384 50.346996 -33.891182
-1.628469 49.605556 -34.284069
1.047157 47.551693 -33.540833
-0.749981 73.511032 -28.439369
-2.263905 74.258835 -28.957314
-1.16083 70.939316 -30.455956
-1.800434 68.046417 -31.972466
-0.258581 67.336823 -31.665176
0.467056 63.4995 -32.558445
0.8225 66.212265 -30.906223
-5.588692 86.719986 -14.584372
-6.349079 83.822922 -20.568985
-6.968695 81.856598 -23.050148
-6.796902 74.324417 -28.675041
-8.667059 76.785904 -26.760147
-3.701084 61.448177 -33.565483
-4.894196 57.838642 -33.759888
-6.194239 54.086369 -33.668926
-4.030422 54.113628 -34.173588
-3.386063 50.145458 -34.203423
-2.117672 53.79211 -34.420483
1.464918 55.216747 -33.307117
0.79631 52.091961 -33.948784
1.764599 50.774784 -33.136276
1.946867 46.113552 -32.612999
2.439232 49.216976 -31.90659
-3.0788 79.575851 -24.913441
-5.159372 79.786865 -25.21719
-3.591421 77.231735 -27.19939
-4.294033 74.524994 -29.025089
-5.172291 71.481781 -30.38409
-3.795532 68.31366 -31.838612
-2.656719 64.867355 -32.994308
-1.739536 61.176167 -33.814995
-1.025951 57.257084 -34.275093
-0.153492 60.504551 -33.675175
1.036425 59.456226 -33.112019
1.847872 58.082653 -32.114391
-5.89344 85.433273 -17.726124
-4.200363 83.769547 -20.041313
-2.754183 81.553955 -22.208153
-1.548985 78.85202 -24.190502
-7.747883 79.511597 -25.121265
-6.812664 46.473736 -33.431335
-4.789267 46.352283 -33.729427
-2.946724 45.918415 -33.864342
-1.321341 45.162533 -33.794849
-0.498903 53.111942 -34.362381
-0.143183 48.731274 -34.08223
-8.246723 74.014785 -28.326172
-7.309848 72.707229 -29.2115
-4.930238 85.334243 -17.327923
-5.741066 86.076629 -16.155248
-4.777864 85.9776 -15.757047
-4.0837 84.502381 -18.485518
-5.046902 84.60141 -18.883719
-4.930238 85.334243 -17.327923
-2.112444 81.08844 -21.708008
-2.675769 82.367874 -20.678654
-1.509845 79.737472 -22.699182
-2.151584 80.202988 -23.199327
-2.112444 81.08844 -21.708008
-5.212928 40.113781 -32.831047
-5.356033 42.266466 -33.158411
-9.715125 77.798371 -25.723678
-10.234447 76.365257 -26.40449
-6.084022 64.75547 -32.2227
-5.513667 66.536544 -31.950304
-6.472069 50.290283 -33.638916
-6.879996 52.15997 -33.527788
-5.786312 52.216682 -33.780054
-6.095524 48.410366 -33.661259
-7.189209 48.353653 -33.408992
-6.472069 50.290283 -33.638916
0.550924 45.826071 -33.502028
-0.044246 46.415861 -33.772727
0.451987 48.141483 -33.811532
1.106572 45.159939 -33.174109
0.550924 45.826071 -33.502028
1.985622 43.663421 -32.197184
2.270919 45.292204 -31.947476
-5.497357 87.216804 -12.896403
-6.516409 87.161476 -13.3669
-4.724703 86.554146 -14.073016
-5.497357 87.216804 -12.896403
-4.777864 85.9776 -15.757047
-4.724703 86.554146 -14.073016
-4.33291 39.80941 -32.815331
-3.558228 41.751188 -33.207769
-7.674607 83.605927 -20.654187
-7.339539 84.468666 -19.376559
-7.984415 82.622765 -21.894768
-7.674607 83.605927 -20.654187
-6.658887 82.83976 -21.809567
-8.393658 81.575554 -22.983597
-7.984415 82.622765 -21.894768
-9.181802 75.245529 -27.368725
-7.731981 75.55516 -27.717594
-8.246723 74.014785 -28.326172
-10.234447 76.365257 -26.40449
-9.181802 75.245529 -27.368725
-4.846928 61.389126 -33.269688
-5.41047 63.127218 -32.784346
-4.264625 63.18627 -33.080141
-5.443485 59.584358 -33.36689
-4.846928 61.389126 -33.269688
-4.29764 59.64341 -33.662685
-6.072098 57.713066 -33.410978
-5.443485 59.584358 -33.36689
-5.544218 55.962505 -33.714407
-6.722119 55.836929 -33.365498
-6.072098 57.713066 -33.410978
2.517101 46.843916 -31.594271
2.270919 45.292204 -31.947476
2.193049 47.665264 -32.259794
-6.497542 71.285911 -30.066025
-7.309848 72.707229 -29.2115
-5.984597 72.903099 -29.529566
-5.685729 69.815254 -30.844949
-6.497542 71.285911 -30.066025
-4.99735 68.231193 -31.572211
-5.685729 69.815254 -30.844949
-4.483912 69.89772 -31.111351
-4.31185 66.619011 -32.216706
-5.513667 66.536544 -31.950304
-4.99735 68.231193 -31.572211
-6.701848 86.613335 -14.942825
-6.516409 87.161476 -13.3669
-6.854222 85.969978 -16.513701
-6.701848 86.613335 -14.942825
-5.741066 86.076629 -16.155248
-7.11172 85.273842 -17.955128
-6.854222 85.969978 -16.513701
-6.121259 84.628097 -19.147554
-7.339539 84.468666 -19.376559
-7.11172 85.273842 -17.955128
-3.398859 83.47567 -19.595234
-4.0837 84.502381 -18.485518
-3.477273 82.661751 -21.124733
-3.398859 83.47567 -19.595234
-2.675769 82.367874 -20.678654
-1.052059 78.245712 -23.632965
-1.509845 79.737472 -22.699182
-1.053688 77.298088 -25.074068
-1.052059 78.245712 -23.632965
-1.181636 76.238663 -26.376556
-1.676934 77.792595 -25.49299
-1.053688 77.298088 -25.074068
-0.654186 74.627594 -27.198501
-1.277432 75.122101 -27.617424
-1.181636 76.238663 -26.376556
-0.247656 72.911216 -27.961544
-0.654186 74.627594 -27.198501
0.185223 71.147568 -28.650799
-0.317101 71.747383 -29.128624
-0.247656 72.911216 -27.961544
0.521516 69.303985 -29.281641
0.185223 71.147568 -28.650799
-5.212928 40.113781 -32.831047
-4.33291 39.80941 -32.815331
-8.783252 80.403053 -24.019156
-8.393658 81.575554 -22.983597
-7.358289 80.684098 -24.085707
-9.255537 79.161217 -24.904238
-8.207471 78.148751 -25.940706
-9.715125 77.798371 -25.723678
-8.783252 80.403053 -24.019156
-9.255537 79.161217 -24.904238
-6.084022 64.75547 -32.2227
-5.41047 63.127218 -32.784346
-7.379815 53.916851 -33.309957
-6.722119 55.836929 -33.365498
-7.379815 53.916851 -33.309957
-6.879996 52.15997 -33.527788
-7.899555 46.395554 -33.213478
-7.189209 48.353653 -33.408992
-7.563555 44.501785 -33.154506
-7.899555 46.395554 -33.213478
-6.554552 44.460995 -33.265987
-7.563555 44.501785 -33.154506
-5.542853 44.400268 -33.415033
-6.554552 44.460995 -33.265987
-5.800966 46.41301 -33.580381
-4.602447 44.218481 -33.472805
-5.356033 42.266466 -33.158411
-5.542853 44.400268 -33.415033
-2.823777 43.668057 -33.531849
-3.558228 41.751188 -33.207769
-3.681176 44.001547 -33.540262
-2.011086 43.290115 -33.497102
-2.823777 43.668057 -33.531849
-2.134032 45.540474 -33.829595
-1.253065 42.806471 -33.398782
-2.011086 43.290115 -33.497102
-0.633325 44.631491 -33.629036
-0.732262 46.946904 -33.93854
-0.044246 46.415861 -33.772727
-1.253065 42.806471 -33.398782
-0.633325 44.631491 -33.629036
1.556427 44.440869 -32.710192
1.106572 45.159939 -33.174109
1.497012 46.832622 -33.076916
1.556427 44.440869 -32.710192
1.985622 43.663421 -32.197184
0.874877 67.418251 -29.825813
0.469139 68.098 -30.362051
0.521516 69.303985 -29.281641
1.155694 65.473656 -30.312536
0.874877 67.418251 -29.825813
1.441638 63.486681 -30.699303
1.108444 64.22529 -31.29299
1.155694 65.473656 -30.312536
1.676443 61.456513 -31.029043
1.441638 63.486681 -30.699303
1.903185 59.378681 -31.24636
1.62113 60.160484 -31.897073
1.676443 61.456513 -31.029043
2.096792 57.267761 -31.406608
1.903185 59.378681 -31.24636
2.269559 55.099815 -31.445101
2.02064 55.914707 -32.152884
2.096792 57.267761 -31.406608
2.424272 52.903896 -31.42754
2.269559 55.099815 -31.445101
2.547184 50.639004 -31.285147
2.31632 51.481869 -32.048983
2.424272 52.903896 -31.42754
2.665322 48.347313 -31.091324
2.547184 50.639004 -31.285147
2.517101 46.843916 -31.594271
2.665322 48.347313 -31.091324
3 0 17 15
3 0 19 17
3 0 21 19
3 1 24 23
3 62 61 25
3 2 28 27
3 2 30 28
3 2 32 30
3 3 35 33
3 3 37 35
3 4 40 38
3 6 41 16
3 6 42 41
3 6 43 42
3 8 44 18
3 8 45 44
3 8 47 45
3 10 48 20
3 10 49 48
3 63 50 64
3 65 64 22
3 63 64 65
3 66 51 67
3 68 67 50
3 66 67 68
3 69 52 70
3 71 53 72
3 73 72 52
3 71 72 73
3 11 74 75
3 5 54 39
3 77 76 26
3 7 78 79
3 12 80 82
3 82 81 29
3 80 81 82
3 12 83 85
3 83 55 84
3 83 84 85
3 12 56 55
3 13 57 31
3 13 58 57
3 9 59 46
3 14 60 34
3 14 86 88
3 88 87 60
3 86 87 88
3 14 89 90
3 92 91 36
3 15 16 4
3 17 16 15
3 17 6 16
3 17 18 6
3 19 18 17
3 19 8 18
3 19 20 8
3 21 20 19
3 21 10 20
3 93 22 94
3 95 22 96
3 98 97 22
3 100 99 11
3 23 101 102
3 24 103 105
3 105 104 23
3 103 104 105
3 24 106 107
3 25 26 5
3 108 26 109
3 110 109 25
3 108 109 110
3 112 111 26
3 27 113 115
3 115 114 7
3 113 114 115
3 28 116 118
3 118 117 27
3 116 117 118
3 28 119 120
3 28 121 123
3 121 29 122
3 121 122 123
3 30 29 28
3 30 12 29
3 30 31 12
3 32 31 30
3 32 13 31
3 33 34 9
3 35 34 33
3 35 14 34
3 35 36 14
3 37 36 35
3 37 124 126
3 126 125 36
3 124 125 126
3 38 39 1
3 40 39 38
3 40 5 39
3 16 40 4
3 41 40 16
3 41 5 40
3 41 25 5
3 42 25 41
3 42 127 129
3 129 128 25
3 127 128 129
3 42 130 131
3 43 132 134
3 134 133 42
3 132 133 134
3 43 135 137
3 135 7 136
3 135 136 137
3 18 43 6
3 44 43 18
3 44 7 43
3 44 27 7
3 45 27 44
3 45 2 27
3 45 46 2
3 47 46 45
3 47 9 46
3 20 47 8
3 48 47 20
3 48 9 47
3 48 33 9
3 49 33 48
3 49 3 33
3 22 138 139
3 50 140 142
3 142 141 22
3 140 141 142
3 50 143 144
3 50 145 147
3 145 23 146
3 145 146 147
3 51 23 50
3 51 1 23
3 148 51 149
3 52 150 152
3 150 51 151
3 150 151 152
3 52 1 51
3 52 38 1
3 53 38 52
3 53 4 38
3 153 53 154
3 155 53 156
3 157 4 158
3 159 158 53
3 157 158 159
3 160 15 161
3 162 161 4
3 160 161 162
3 163 15 164
3 165 0 166
3 167 166 15
3 165 166 167
3 169 168 0
3 171 170 11
3 39 24 1
3 54 24 39
3 54 172 174
3 174 173 24
3 172 173 174
3 26 54 5
3 175 54 176
3 177 176 26
3 175 176 177
3 179 178 54
3 181 180 7
3 29 182 183
3 185 184 29
3 55 186 187
3 55 188 189
3 55 190 191
3 56 192 194
3 194 193 55
3 192 193 194
3 56 195 197
3 195 11 196
3 195 196 197
3 31 56 12
3 57 56 31
3 57 11 56
3 57 198 200
3 200 199 11
3 198 199 200
3 58 201 203
3 203 202 57
3 201 202 203
3 58 204 205
3 46 32 2
3 59 32 46
3 59 13 32
3 34 59 9
3 60 59 34
3 60 13 59
3 60 58 13
3 206 58 207
3 208 207 60
3 206 207 208
3 210 209 58
3 36 211 213
3 213 212 14
3 211 212 213
3 215 214 36
3 216 21 217
3 218 217 0
3 216 217 218
3 219 21 220
3 221 10 222
3 223 222 21
3 221 222 223
3 224 10 225
3 226 49 227
3 228 227 10
3 226 227 228
3 229 49 230
3 231 3 232
3 233 232 49
3 231 232 233
3 234 3 235
3 236 37 237
3 238 237 3
3 236 237 238
3 239 37 240
3 242 241 37
