ply
format ascii 1.0
element vertex 375
property float x
property float y
property float z
element face 391
property list uchar int vertex_index
end_header
-43.123726 27.043858 7.050142
-34.522377 37.264011 -2.094172
-37.709122 33.209209 4.305387
-49.265808 20.708775 6.645533
-46.530266 40.43832 2.851989
-42.023445 45.951588 -3.46904
-39.186356 47.453564 -11.337683
-39.390617 22.097881 7.773809
-37.004948 24.912209 6.257298
-40.223915 30.253292 6.158838
-48.270973 45.966442 -0.425207
-44.088379 43.540329 -0.000153
-46.305653 48.686367 -4.32094
-37.926334 46.34502 -15.08511
-35.775784 35.633839 1.489461
-46.201008 23.815891 7.127885
-52.819889 23.917892 6.440952
-50.347218 27.259296 6.552577
-47.548584 30.698448 6.267757
-49.112354 36.952148 5.054951
-44.632843 34.160954 5.342397
-41.851597 37.447269 3.613961
-39.458733 40.274334 1.012075
-37.64732 42.31488 -2.373606
-44.593731 50.512783 -8.451944
-40.43433 47.333546 -7.359762
-36.437477 43.284275 -6.26594
-35.601112 43.096081 -10.291086
-42.589188 23.194332 7.735015
-40.748211 20.639942 8.18565
-41.113026 24.74334 7.507874
-39.713223 26.278549 7.05985
-41.638947 28.664017 6.718205
-49.767426 47.015362 -0.147806
-48.858871 48.537228 -2.218122
-47.260792 47.41795 -2.330786
-47.974514 49.889675 -4.347731
-40.446735 49.638081 -17.837151
-34.08519 33.530235 -0.583759
-34.126072 37.728031 -4.068377
-37.232796 29.191891 5.438393
-36.012989 26.213726 5.139815
-36.196686 30.507465 4.256063
-35.321831 31.687202 2.839255
-36.659885 34.505684 3.010251
-45.68409 20.143852 7.629699
-47.745705 22.24358 6.936859
-48.97736 28.968056 6.477311
-49.679367 32.119946 6.261238
-48.639107 41.617004 2.796062
-49.81773 39.862682 4.16807
-47.821228 38.726688 4.032491
-46.946041 35.671417 5.063085
-45.560135 37.403973 4.208322
-43.209167 35.842342 4.585814
-44.207901 39.068523 3.166476
-42.998051 44.853725 -1.665342
-41.73777 42.04776 0.500519
-40.676746 43.28019 -1.111765
-38.47364 41.413437 -0.59617
-39.756184 44.283157 -2.882732
-41.169182 49.354061 -11.967022
-41.856808 49.342037 -9.988508
-39.786118 47.556332 -9.360279
-38.329224 45.450382 -6.749479
-37.777534 45.57098 -8.753418
-35.995529 43.329502 -8.284807
-37.278 45.384052 -10.743702
-39.219482 17.756325 8.351164
-38.039513 19.110184 7.690504
-36.983437 20.430477 6.80793
-38.136765 23.530994 7.134623
-38.412224 27.771667 6.373225
-38.905163 31.779823 5.356647
-49.315235 44.367844 1.382667
-47.4641 43.281776 1.290358
-45.275051 42.055 1.508065
-46.326054 44.824688 -0.348286
-45.253429 46.209171 -2.114069
-44.267307 47.394566 -3.992226
-40.470737 49.03735 -13.867922
-38.584053 47.039829 -13.254772
-39.709312 48.414845 -15.666248
-38.837505 47.522305 -17.351643
-33.618935 37.960224 -8.145527
-36.064072 21.693138 5.700879
-34.618458 32.702522 1.213771
-35.065144 36.561543 -0.225835
-44.119934 21.655392 7.765536
-44.652603 25.420578 7.177182
-51.160477 22.456455 6.29357
-51.633415 25.576908 6.526761
-49.772057 24.050415 6.518895
-48.320694 25.677288 6.668891
-46.82618 27.336384 6.700732
-45.313137 29.018372 6.578804
-48.33075 33.901707 5.742577
-46.090031 32.436764 5.896923
-43.808556 30.70509 6.273532
-42.340843 32.370949 5.760626
-40.939491 33.984894 5.021503
-39.634434 35.511948 4.045009
-42.923344 40.629616 1.930364
-40.591938 38.938171 2.421159
-38.454269 36.914318 2.829848
-37.423279 38.152538 1.386848
-36.557461 39.187786 -0.259959
-35.860355 39.986004 -2.074265
-47.12513 51.03767 -6.51531
-45.417027 49.731785 -6.372683
-43.377872 48.337772 -5.956612
-43.819592 50.99181 -10.515886
-42.581112 48.99773 -7.970119
-41.171673 46.790607 -5.380722
-38.978386 45.016552 -4.776737
-36.975636 42.94521 -4.27936
-35.319717 40.523251 -4.010822
-34.906624 40.790363 -6.020576
-34.578426 40.79493 -8.055626
-36.777924 44.91251 -12.682386
-49.002609 49.792416 -3.10883
-49.392742 49.070549 -1.967545
-48.56043 50.468639 -4.173634
-48.416692 49.213451 -3.282926
-49.002609 49.792416 -3.10883
-34.114508 35.709913 -2.301982
-33.895914 33.843025 -1.546776
-34.303783 35.397123 -1.338966
-34.324224 37.496021 -3.081275
-33.916355 35.941923 -3.289084
-34.114508 35.709913 -2.301982
-48.263592 19.688932 7.004854
-49.049723 18.970703 6.829172
-48.505757 21.476177 6.791196
-47.50354 20.456335 7.150517
-48.263592 19.688932 7.004854
-50.612713 32.718331 6.457378
-50.318714 31.231905 6.448627
-40.947916 49.740899 -15.032326
-41.376186 49.996647 -14.144623
-40.567203 49.429646 -15.931489
-40.090024 48.726098 -14.767085
-40.947916 49.740899 -15.032326
-39.074405 48.049588 -18.351774
-39.64212 48.580193 -17.594397
-39.87902 49.107475 -18.594528
-38.330064 46.959953 -18.138773
-39.074405 48.049588 -18.351774
-33.729573 37.957515 -7.123024
-33.451366 36.380876 -7.355567
-35.652757 24.544409 4.757719
-35.594608 26.811177 4.465445
-52.647288 22.403835 6.242164
-53.362093 23.096479 6.392672
-51.990183 23.187174 6.367261
-51.817582 21.673116 6.168473
-52.647288 22.403835 6.242164
-50.990316 26.418102 6.539669
-51.884915 27.079746 6.707422
-51.241816 27.92094 6.72033
-50.03774 37.499537 5.230831
-50.390428 38.954803 4.787391
-49.465042 38.407415 4.61151
-49.739435 36.046993 5.490594
-50.03774 37.499537 5.230831
-48.721552 35.426928 5.398764
-49.348633 34.521772 5.834407
-49.739435 36.046993 5.490594
-47.363029 52.186645 -7.552895
-47.748299 51.670284 -6.408035
-45.005379 50.122284 -7.412313
-45.863829 50.837166 -7.5309
-45.452181 51.227665 -8.570531
-43.441471 51.067116 -11.517428
-44.268935 51.931858 -11.699987
-34.943337 41.827731 -10.181609
-34.431994 40.677155 -9.063879
-35.089769 41.945505 -9.173356
-41.6687 21.917137 7.960332
-41.469778 19.91073 8.286676
-42.390266 21.187925 8.061359
-49.84702 48.309616 -0.932387
-50.235779 47.508477 0.188947
-49.313148 47.776295 -1.182964
-49.84702 48.309616 -0.932387
-49.392742 49.070549 -1.967545
-41.155783 50.715252 -18.019272
-40.935915 50.041264 -17.01694
-40.534307 50.232483 -18.748181
-41.155783 50.715252 -18.019272
-39.87902 49.107475 -18.594528
-40.534307 50.232483 -18.748181
-33.865612 31.83159 -0.985047
-34.041551 31.457651 -0.045377
-33.865612 31.83159 -0.985047
-33.895914 33.843025 -1.546776
-33.789642 36.152149 -4.293416
-33.916355 35.941923 -3.289084
-33.983141 37.841419 -5.084449
-33.789642 36.152149 -4.293416
-35.686457 28.958046 4.023569
-35.594608 26.811177 4.465445
-36.104838 28.360596 4.697939
-35.759259 31.097333 3.547659
-35.24903 29.547914 3.315165
-35.686457 28.958046 4.023569
-46.472732 19.406471 7.496937
-45.47267 18.239123 7.94551
-46.714897 21.193716 7.283279
-46.472732 19.406471 7.496937
-47.50354 20.456335 7.150517
-53.468142 24.509748 6.793172
-53.362093 23.096479 6.392672
-50.652639 28.80158 6.594297
-51.241816 27.92094 6.72033
-49.96771 29.65596 6.556664
-49.662289 28.113676 6.514944
-50.652639 28.80158 6.594297
-49.328363 30.544001 6.369274
-49.96771 29.65596 6.556664
-50.318714 31.231905 6.448627
-49.228419 40.739843 3.482066
-50.091753 41.258342 3.626981
-49.502442 42.135503 2.940977
-45.05563 51.538948 -9.639764
-45.452181 51.227665 -8.570531
-41.512995 49.348049 -10.977765
-42.460079 50.24223 -11.253739
-42.116266 50.248242 -12.242996
-37.076726 45.26691 -14.812323
-37.547594 45.874909 -15.948967
-40.629076 18.515993 8.49251
-41.469778 19.91073 8.286676
-39.864711 17.074185 8.575267
-40.629076 18.515993 8.49251
-39.983846 19.198134 8.268407
-39.185091 15.530388 8.591755
-39.864711 17.074185 8.575267
-38.643995 16.161734 8.21982
-39.185091 15.530388 8.591755
-38.054011 16.838663 7.88949
-38.643995 16.161734 8.21982
-38.629497 18.433255 8.020834
-37.576271 17.461436 7.416109
-38.054011 16.838663 7.88949
-37.511475 19.770331 7.249217
-37.048233 18.121582 6.974823
-37.576271 17.461436 7.416109
-50.005495 19.958895 6.474142
-49.049723 18.970703 6.829172
-50.224216 46.185177 0.850859
-50.235779 47.508477 0.188947
-49.998121 44.861418 1.616096
-50.224216 46.185177 0.850859
-49.541331 45.691603 0.61743
-49.840505 43.510924 2.234279
-49.998121 44.861418 1.616096
-48.977171 42.992424 2.089365
-49.502442 42.135503 2.940977
-49.840505 43.510924 2.234279
-41.725409 50.155003 -13.194173
-42.116266 50.248242 -12.242996
-40.819959 49.195706 -12.917472
-41.725409 50.155003 -13.194173
-41.376186 49.996647 -14.144623
-40.078024 49.026463 -16.7517
-40.567203 49.429646 -15.931489
-40.935915 50.041264 -17.01694
-38.00318 46.463551 -17.082234
-37.547594 45.874909 -15.948967
-38.381919 46.933662 -16.218376
-38.00318 46.463551 -17.082234
-38.330064 46.959953 -18.138773
-33.385289 36.406929 -8.378453
-33.451366 36.380876 -7.355567
-33.516804 37.866171 -9.153996
-33.283158 36.312876 -9.386922
-33.385289 36.406929 -8.378453
-36.637394 18.725569 6.399547
-37.048233 18.121582 6.974823
-36.177712 19.356899 5.846022
-36.637394 18.725569 6.399547
-36.523755 21.061808 6.254404
-35.836674 19.932223 5.171544
-36.177712 19.356899 5.846022
-35.678299 22.284115 5.038251
-36.038531 23.953432 5.420347
-35.652757 24.544409 4.757719
-35.450901 20.523199 4.508916
-35.836674 19.932223 5.171544
-35.678299 22.284115 5.038251
-34.913075 30.079824 2.535497
-35.24903 29.547914 3.315165
-34.561388 30.587484 1.722755
-34.913075 30.079824 2.535497
-34.970145 32.194862 2.026513
-34.308185 31.043795 0.853388
-34.561388 30.587484 1.722755
-34.351824 33.116378 0.315006
-34.041551 31.457651 -0.045377
-34.308185 31.043795 0.853388
-44.692957 18.942966 8.016469
-45.47267 18.239123 7.94551
-43.910879 19.698736 8.084388
-44.692957 18.942966 8.016469
-44.902012 20.899622 7.697617
-43.155639 20.418456 8.076619
-43.910879 19.698736 8.084388
-43.354561 22.424862 7.750275
-42.390266 21.187925 8.061359
-43.155639 20.418456 8.076619
-50.952829 20.832735 6.29816
-51.609934 20.049397 6.173063
-51.817582 21.673116 6.168473
-50.213143 21.582615 6.469551
-50.005495 19.958895 6.474142
-50.952829 20.832735 6.29816
-53.005932 25.377384 6.743226
-53.468142 24.509748 6.793172
-52.412695 26.206892 6.78613
-51.884915 27.079746 6.707422
-52.226652 24.7474 6.483856
-53.005932 25.377384 6.743226
-52.412695 26.206892 6.78613
-50.603546 40.357893 4.423624
-50.091753 41.258342 3.626981
-50.603546 40.357893 4.423624
-50.390428 38.954803 4.787391
-50.022942 33.630892 6.093737
-50.612713 32.718331 6.457378
-49.005059 33.010827 6.001907
-50.022942 33.630892 6.093737
-49.348633 34.521772 5.834407
-48.172991 51.096286 -5.324245
-48.56043 50.468639 -4.173634
-47.549822 50.463673 -5.43152
-48.172991 51.096286 -5.324245
-47.748299 51.670284 -6.408035
-46.71788 51.490108 -7.602213
-47.363029 52.186645 -7.552895
-46.271079 50.384727 -6.443997
-46.71788 51.490108 -7.602213
-45.863829 50.837166 -7.5309
-44.66856 51.778461 -10.671736
-44.268935 51.931858 -11.699987
-44.206661 50.752296 -9.483915
-45.05563 51.538948 -9.639764
-44.66856 51.778461 -10.671736
-42.8382 50.166923 -10.252197
-43.441471 51.067116 -11.517428
-42.460079 50.24223 -11.253739
-34.373417 39.372585 -6.060548
-33.983141 37.841419 -5.084449
-34.516348 39.259197 -5.044477
-34.209318 39.374869 -7.078074
-34.373417 39.372585 -6.060548
-34.742525 40.792647 -7.038101
-34.098681 39.377577 -8.100576
-33.729573 37.957515 -7.123024
-34.209318 39.374869 -7.078074
-33.952248 39.259802 -9.108829
-34.098681 39.377577 -8.100576
-34.431994 40.677155 -9.063879
-33.516804 37.866171 -9.153996
-33.952248 39.259802 -9.108829
-36.502522 44.550655 -13.610961
-37.352129 45.628765 -13.883748
-37.076726 45.26691 -14.812323
-35.990372 43.762333 -12.463988
-36.502522 44.550655 -13.610961
-35.401966 42.854118 -11.268338
-36.189518 44.004295 -11.486736
-35.990372 43.762333 -12.463988
-34.943337 41.827731 -10.181609
-35.401966 42.854118 -11.268338
3 0 30 28
3 0 32 30
3 120 34 121
3 122 36 123
3 124 123 34
3 122 123 124
3 1 125 127
3 127 126 38
3 125 126 127
3 1 128 130
3 128 39 129
3 128 129 130
3 2 42 40
3 2 44 42
3 3 131 132
3 3 133 135
3 133 46 134
3 133 134 135
3 136 48 137
3 4 51 49
3 4 53 51
3 4 55 53
3 5 58 56
3 5 60 58
3 6 63 61
3 6 65 63
3 6 67 65
3 7 68 29
3 7 69 68
3 7 71 69
3 9 72 31
3 9 73 72
3 10 74 33
3 10 75 74
3 10 77 75
3 12 78 35
3 12 79 78
3 138 80 139
3 140 82 141
3 142 141 80
3 140 141 142
3 143 83 144
3 145 144 37
3 143 144 145
3 147 146 83
3 148 84 149
3 8 85 70
3 151 150 41
3 14 86 43
3 14 87 86
3 15 88 45
3 15 89 88
3 16 152 153
3 16 154 156
3 154 90 155
3 154 155 156
3 17 157 159
3 157 91 158
3 157 158 159
3 17 92 91
3 17 93 92
3 18 94 47
3 18 95 94
3 19 160 162
3 162 161 50
3 160 161 162
3 19 163 164
3 19 165 167
3 165 96 166
3 165 166 167
3 20 97 52
3 20 98 97
3 20 99 98
3 21 100 54
3 21 101 100
3 11 102 76
3 22 103 57
3 22 104 103
3 22 105 104
3 23 106 59
3 23 107 106
3 168 108 169
3 24 170 172
3 170 109 171
3 170 171 172
3 24 110 109
3 173 111 174
3 25 112 62
3 25 113 112
3 25 114 113
3 26 115 64
3 26 116 115
3 26 117 116
3 27 118 66
3 27 175 177
3 177 176 118
3 175 176 177
3 13 119 81
3 28 178 180
3 178 29 179
3 178 179 180
3 30 29 28
3 30 7 29
3 30 31 7
3 32 31 30
3 32 9 31
3 181 33 182
3 34 183 185
3 183 33 184
3 183 184 185
3 34 10 33
3 34 35 10
3 36 35 34
3 36 12 35
3 186 37 187
3 188 37 189
3 191 190 37
3 38 192 193
3 195 194 38
3 39 196 197
3 39 198 199
3 40 41 8
3 42 41 40
3 42 200 202
3 202 201 41
3 200 201 202
3 42 203 205
3 203 43 204
3 203 204 205
3 44 43 42
3 44 14 43
3 206 45 207
3 46 208 210
3 208 45 209
3 208 209 210
3 46 15 45
3 211 16 212
3 213 17 214
3 215 47 216
3 217 216 17
3 215 216 217
3 48 218 220
3 218 47 219
3 218 219 220
3 48 18 47
3 49 221 223
3 221 50 222
3 221 222 223
3 51 50 49
3 51 19 50
3 51 52 19
3 53 52 51
3 53 20 52
3 53 54 20
3 55 54 53
3 55 21 54
3 56 57 11
3 58 57 56
3 58 22 57
3 58 59 22
3 60 59 58
3 60 23 59
3 224 24 225
3 61 226 228
3 226 62 227
3 226 227 228
3 63 62 61
3 63 25 62
3 63 64 25
3 65 64 63
3 65 26 64
3 65 66 26
3 67 66 65
3 67 27 66
3 230 229 13
3 29 231 232
3 68 233 235
3 235 234 29
3 233 234 235
3 68 236 237
3 68 238 239
3 69 240 242
3 242 241 68
3 240 241 242
3 69 243 244
3 69 245 247
3 245 70 246
3 245 246 247
3 71 70 69
3 71 8 70
3 31 71 7
3 72 71 31
3 72 8 71
3 72 40 8
3 73 40 72
3 73 2 40
3 248 3 249
3 33 250 251
3 74 252 254
3 254 253 33
3 252 253 254
3 74 255 256
3 74 257 259
3 257 49 258
3 257 258 259
3 75 49 74
3 75 4 49
3 75 76 4
3 77 76 75
3 77 11 76
3 35 77 10
3 78 77 35
3 78 11 77
3 78 56 11
3 79 56 78
3 79 5 56
3 260 61 261
3 80 262 264
3 262 61 263
3 262 263 264
3 80 6 61
3 80 81 6
3 82 81 80
3 82 13 81
3 37 265 267
3 265 82 266
3 265 266 267
3 83 82 37
3 83 13 82
3 83 268 270
3 270 269 13
3 268 269 270
3 272 271 83
3 84 273 274
3 84 275 277
3 275 276 277
3 70 278 279
3 85 280 282
3 282 281 70
3 280 281 282
3 85 283 284
3 41 85 8
3 285 85 286
3 287 286 41
3 285 286 287
3 290 289 85
3 288 289 290
3 43 291 292
3 86 293 295
3 295 294 43
3 293 294 295
3 86 296 297
3 86 298 300
3 298 38 299
3 298 299 300
3 87 38 86
3 87 1 38
3 45 301 302
3 88 303 305
3 305 304 45
3 303 304 305
3 88 306 307
3 88 308 310
3 308 28 309
3 308 309 310
3 89 28 88
3 89 0 28
3 90 311 313
3 311 312 313
3 90 314 316
3 314 3 315
3 314 315 316
3 317 16 318
3 91 319 320
3 91 321 323
3 321 16 322
3 321 322 323
3 91 90 16
3 92 90 91
3 92 3 90
3 92 46 3
3 93 46 92
3 93 15 46
3 47 93 17
3 94 93 47
3 94 15 93
3 94 89 15
3 95 89 94
3 95 0 89
3 50 324 325
3 327 326 50
3 328 48 329
3 96 330 332
3 330 48 331
3 330 331 332
3 96 18 48
3 52 96 19
3 97 96 52
3 97 18 96
3 97 95 18
3 98 95 97
3 98 0 95
3 98 32 0
3 99 32 98
3 99 9 32
3 54 99 20
3 100 99 54
3 100 9 99
3 100 73 9
3 101 73 100
3 101 2 73
3 76 55 4
3 102 55 76
3 102 21 55
3 57 102 11
3 103 102 57
3 103 21 102
3 103 101 21
3 104 101 103
3 104 2 101
3 104 44 2
3 105 44 104
3 105 14 44
3 59 105 22
3 106 105 59
3 106 14 105
3 106 87 14
3 107 87 106
3 107 1 87
3 333 36 334
3 108 335 337
3 335 36 336
3 335 336 337
3 108 12 36
3 338 108 339
3 109 340 342
3 340 108 341
3 340 341 342
3 109 12 108
3 109 79 12
3 110 79 109
3 110 5 79
3 111 343 344
3 111 345 347
3 345 24 346
3 345 346 347
3 62 348 350
3 348 111 349
3 348 349 350
3 112 111 62
3 112 24 111
3 112 110 24
3 113 110 112
3 113 5 110
3 113 60 5
3 114 60 113
3 114 23 60
3 64 114 25
3 115 114 64
3 115 23 114
3 115 107 23
3 116 107 115
3 116 1 107
3 116 39 1
3 117 39 116
3 117 351 353
3 353 352 39
3 351 352 353
3 66 117 26
3 118 117 66
3 118 354 356
3 356 355 117
3 354 355 356
3 118 357 359
3 357 84 358
3 357 358 359
3 360 84 361
3 362 361 118
3 360 361 362
3 364 363 84
3 81 67 6
3 119 67 81
3 119 27 67
3 365 119 366
3 367 366 13
3 365 366 367
3 368 119 369
3 370 27 371
3 372 371 119
3 370 371 372
3 374 373 27
