ply
format ascii 1.0
element vertex 218
property float x
property float y
property float z
element face 205
property list uchar int vertex_index
end_header
-11.378931 -12.873217 84.281868
-4.65131 -21.84561 88.470695
-12.131546 -23.519651 85.44059
-11.734674 -18.446795 85.496506
-15.8414 -19.478762 83.667847
-4.837685 -27.697586 88.350006
-2.269655 -33.029819 88.623978
-20.197693 -20.142345 81.716194
-8.095049 -10.853888 85.789513
-4.817947 -15.551579 87.694359
-8.019697 -17.06053 86.999046
-8.168959 -22.789295 87.388237
-8.564854 -27.986429 86.609467
-17.628759 -17.598351 82.435181
-5.127413 -30.36459 87.994286
-3.423105 -30.328747 88.556549
-9.681286 -11.880577 85.102554
-8.025442 -14.020108 86.452293
-9.724012 -14.903644 85.788956
-11.933338 -21.040068 85.661041
-9.951588 -20.548275 86.57045
-10.107763 -23.188982 86.491409
-8.323652 -25.466335 87.130623
-10.302355 -25.701097 86.074097
-11.27372 -9.851657 83.461052
-4.697077 -18.742825 88.17836
-3.252813 -18.143854 88.117035
-3.132637 -21.35812 88.521347
-13.194386 -13.78512 83.406998
-11.541536 -15.731068 85.000763
-13.472097 -16.46678 84.153259
-13.747223 -19.012911 84.603333
-13.994992 -21.447594 84.655701
-4.691162 -24.841908 88.527374
-3.103992 -24.486578 88.728447
-3.189619 -27.493837 88.728416
-1.907856 -30.256382 88.706871
-0.91659 -33.082535 88.502228
-6.613586 -9.847099 86.254196
-5.003613 -12.276426 87.085228
-6.450239 -13.127294 86.911369
-6.347256 -16.299963 87.484673
-6.310707 -19.369631 87.895729
-9.820408 -17.788305 86.31311
-8.070036 -19.983269 87.336258
-6.340437 -22.333443 88.07077
-6.442894 -25.175701 87.97171
-6.641665 -27.865229 87.618767
-6.979801 -30.35807 87.093346
-17.998592 -19.850142 82.705284
-16.117695 -21.772903 83.584915
-14.219298 -23.780313 84.282394
-12.35413 -25.877335 84.864037
-10.577341 -28.058857 85.396439
-3.446728 -14.861729 87.559502
-18.478251 -16.692717 81.684288
-17.403841 -16.424373 82.07235
-4.487592 -31.648302 88.140877
-5.367855 -31.576914 87.775837
-11.326325 -11.362437 83.87146
-12.112447 -10.395098 82.980377
-12.165052 -11.905879 83.390785
-14.300842 -15.524914 83.345531
-13.333241 -15.12595 83.780129
-14.161986 -14.184084 82.972401
-14.794311 -19.245836 84.13559
-14.626649 -18.051733 83.947075
-15.673737 -18.284658 83.479332
-14.161986 -14.184084 82.972401
-13.973664 -12.852947 82.477604
-19.098143 -19.996243 82.210739
-18.909195 -18.925005 82.146866
-20.008745 -19.071106 81.652321
-16.235731 -22.876314 83.316806
-17.200544 -21.900404 83.024468
-15.286532 -23.880019 83.665546
-15.168496 -22.776608 83.933654
-16.235731 -22.876314 83.316806
-12.505607 -26.982529 84.454552
-13.407224 -25.939344 84.206776
-11.617213 -28.07329 84.720753
-11.465736 -26.968096 85.130238
-12.505607 -26.982529 84.454552
-8.159327 -9.203559 85.439087
-8.899649 -9.779457 85.072136
-7.354317 -10.350493 86.021854
-7.418596 -8.700164 85.671428
-8.159327 -9.203559 85.439087
-2.626101 -17.878105 87.888859
-2.533454 -19.525007 88.143235
-2.410836 -24.311788 88.623081
-2.420787 -25.87881 88.709198
-16.567417 -17.344453 82.862999
-17.403841 -16.424373 82.07235
-16.735079 -18.538556 83.051514
-15.673737 -18.284658 83.479332
-16.567417 -17.344453 82.862999
-3.635438 -31.630381 88.422009
-4.275259 -30.346668 88.275418
-4.487592 -31.648302 88.140877
-3.058713 -32.980917 88.455723
-2.84638 -31.679283 88.590263
-3.635438 -31.630381 88.422009
-19.240543 -21.085125 82.090107
-20.335715 -21.185769 81.506946
-12.02391 -8.877052 82.508884
-12.112447 -10.395098 82.980377
-11.256608 -8.251413 83.047909
-12.02391 -8.877052 82.508884
-10.488985 -9.278342 83.907905
-11.256608 -8.251413 83.047909
-9.692768 -10.292802 84.728656
-10.488985 -9.278342 83.907905
-10.477503 -10.866117 84.281803
-8.888167 -11.367233 85.446033
-8.899649 -9.779457 85.072136
-9.692768 -10.292802 84.728656
-2.473367 -21.13214 88.345391
-2.533454 -19.525007 88.143235
-3.192725 -19.750987 88.319191
-14.489086 -16.778667 83.722038
-14.300842 -15.524914 83.345531
-13.60966 -17.739846 84.378296
-14.489086 -16.778667 83.722038
-14.626649 -18.051733 83.947075
-13.07278 -12.36183 82.95335
-13.973664 -12.852947 82.477604
-12.286658 -13.329168 83.844433
-12.165052 -11.905879 83.390785
-13.07278 -12.36183 82.95335
-2.4636 -27.38244 88.709182
-2.420787 -25.87881 88.709198
-3.146806 -25.990208 88.728431
-1.822719 -28.763712 88.69841
-2.4636 -27.38244 88.709182
-2.548738 -28.87511 88.717644
-1.26561 -30.207497 88.549877
-1.822719 -28.763712 88.69841
-0.769977 -31.620574 88.447555
-1.26561 -30.207497 88.549877
-1.412223 -31.669458 88.60455
-0.372385 -33.088764 88.194755
-0.769977 -31.620574 88.447555
-21.125239 -19.228109 81.227409
-20.008745 -19.071106 81.652321
-21.30592 -20.258349 81.204166
-21.125239 -19.228109 81.227409
-20.335715 -21.185769 81.506946
-21.30592 -20.258349 81.204166
-5.808599 -11.061763 86.669712
-5.118854 -10.594964 86.749356
-5.92384 -9.380301 86.333839
-6.294049 -31.573654 87.325367
-5.367855 -31.576914 87.775837
-6.053607 -30.36133 87.543816
-18.724278 -17.79911 82.011814
-18.478251 -16.692717 81.684288
-17.813675 -18.724246 82.570233
-18.724278 -17.79911 82.011814
-18.909195 -18.925005 82.146866
-18.140992 -20.939024 82.584652
-19.098143 -19.996243 82.210739
-19.240543 -21.085125 82.090107
-17.058143 -20.811523 83.1451
-18.140992 -20.939024 82.584652
-17.200544 -21.900404 83.024468
-14.339809 -24.890833 83.915954
-15.286532 -23.880019 83.665546
-13.286714 -24.828824 84.573216
-14.339809 -24.890833 83.915954
-13.407224 -25.939344 84.206776
-10.786868 -29.141891 84.998299
-11.617213 -28.07329 84.720753
-9.761214 -29.184171 85.666035
-10.786868 -29.141891 84.998299
-8.75497 -29.147958 86.272549
-9.571098 -28.022643 86.002953
-9.761214 -29.184171 85.666035
-7.962444 -30.333778 86.514488
-7.772328 -29.172249 86.851406
-8.75497 -29.147958 86.272549
-7.245777 -31.482332 86.805081
-7.962444 -30.333778 86.514488
-6.294049 -31.573654 87.325367
-7.245777 -31.482332 86.805081
-6.714906 -8.150105 85.911804
-7.418596 -8.700164 85.671428
-5.92384 -9.380301 86.333839
-6.714906 -8.150105 85.911804
-4.348259 -11.89575 86.995449
-5.118854 -10.594964 86.749356
-3.569816 -13.188402 87.232586
-4.348259 -11.89575 86.995449
-4.22517 -13.569078 87.322365
-2.847074 -14.566068 87.295624
-3.569816 -13.188402 87.232586
-2.723058 -16.237043 87.610093
-3.34977 -16.502792 87.838268
-2.626101 -17.878105 87.888859
-2.847074 -14.566068 87.295624
-2.723058 -16.237043 87.610093
-2.425159 -22.747559 88.519531
-3.118314 -22.922349 88.624897
-2.410836 -24.311788 88.623081
-2.473367 -21.13214 88.345391
-2.425159 -22.747559 88.519531
-2.567315 -34.279646 88.56913
-3.058713 -32.980917 88.455723
-1.855186 -34.392221 88.601155
-2.567315 -34.279646 88.56913
-1.178653 -34.418579 88.540279
-1.593123 -33.056177 88.563103
-1.855186 -34.392221 88.601155
-0.596181 -34.500509 88.328029
-1.178653 -34.418579 88.540279
-0.051976 -34.506739 88.020557
-0.372385 -33.088764 88.194755
-0.596181 -34.500509 88.328029
3 55 13 56
3 58 57 14
3 0 18 16
3 2 21 19
3 2 23 21
3 0 59 61
3 59 24 60
3 59 60 61
3 0 16 24
3 1 27 25
3 62 30 63
3 64 63 28
3 62 63 64
3 4 65 67
3 65 31 66
3 65 66 67
3 4 32 31
3 68 28 69
3 5 35 33
3 6 36 15
3 6 37 36
3 8 40 38
3 10 41 17
3 10 42 41
3 3 43 29
3 11 44 20
3 11 45 44
3 11 46 45
3 12 47 22
3 12 48 47
3 7 70 72
3 70 49 71
3 70 71 72
3 73 50 74
3 75 51 76
3 77 76 50
3 75 76 77
3 78 52 79
3 80 53 81
3 82 81 52
3 80 81 82
3 8 83 84
3 8 85 87
3 85 38 86
3 85 86 87
3 9 54 39
3 89 88 26
3 91 90 34
3 13 92 93
3 13 94 96
3 94 4 95
3 94 95 96
3 14 15 5
3 97 15 98
3 99 98 14
3 97 98 99
3 100 6 101
3 102 101 15
3 100 101 102
3 16 17 8
3 18 17 16
3 18 10 17
3 19 20 3
3 21 20 19
3 21 11 20
3 21 22 11
3 23 22 21
3 23 12 22
3 104 103 7
3 24 105 106
3 24 107 108
3 24 109 110
3 16 111 113
3 113 112 24
3 111 112 113
3 16 114 116
3 114 8 115
3 114 115 116
3 25 26 9
3 27 26 25
3 27 117 119
3 119 118 26
3 117 118 119
3 28 29 0
3 30 29 28
3 30 3 29
3 120 30 121
3 31 122 124
3 122 30 123
3 122 123 124
3 31 3 30
3 31 19 3
3 32 19 31
3 32 2 19
3 28 125 126
3 28 127 129
3 127 0 128
3 127 128 129
3 33 34 1
3 35 34 33
3 35 130 132
3 132 131 34
3 130 131 132
3 15 35 5
3 36 35 15
3 36 133 135
3 135 134 35
3 133 134 135
3 36 136 137
3 37 138 140
3 140 139 36
3 138 139 140
3 37 141 142
3 143 7 144
3 145 7 146
3 148 147 7
3 38 149 151
3 149 39 150
3 149 150 151
3 40 39 38
3 40 9 39
3 17 40 8
3 41 40 17
3 41 9 40
3 41 25 9
3 42 25 41
3 42 1 25
3 29 18 0
3 43 18 29
3 43 10 18
3 20 43 3
3 44 43 20
3 44 10 43
3 44 42 10
3 45 42 44
3 45 1 42
3 45 33 1
3 46 33 45
3 46 5 33
3 22 46 11
3 47 46 22
3 47 5 46
3 47 14 5
3 48 14 47
3 48 152 154
3 154 153 14
3 152 153 154
3 155 13 156
3 49 157 159
3 157 13 158
3 157 158 159
3 49 4 13
3 160 49 161
3 162 161 7
3 160 161 162
3 50 163 165
3 163 49 164
3 163 164 165
3 50 4 49
3 50 32 4
3 51 32 50
3 51 2 32
3 166 51 167
3 52 168 170
3 168 51 169
3 168 169 170
3 52 2 51
3 52 23 2
3 53 23 52
3 53 12 23
3 171 53 172
3 173 53 174
3 175 12 176
3 177 176 53
3 175 176 177
3 178 48 179
3 180 179 12
3 178 179 180
3 181 48 182
3 184 183 48
3 38 185 186
3 38 187 188
3 39 189 190
3 54 191 193
3 193 192 39
3 191 192 193
3 54 194 195
3 26 54 9
3 196 54 197
3 198 197 26
3 196 197 198
3 200 199 54
3 34 27 1
3 201 27 202
3 203 202 34
3 201 202 203
3 205 204 27
3 206 6 207
3 208 6 209
3 210 37 211
3 212 211 6
3 210 211 212
3 213 37 214
3 217 216 37
3 215 216 217
