ply
format ascii 1.0
element vertex 139
property float x
property float y
property float z
element face 117
property list uchar int vertex_index
end_header
30.246103 -15.23662 -45.833664
29.533188 -3.07889 -51.208328
29.087294 -2.649885 -48.440498
28.566042 -13.796758 -44.875725
29.647896 -8.987889 -48.964699
32.037003 -4.427565 -52.605583
28.903116 -5.558352 -49.249672
28.856693 -8.431789 -48.231255
29.53001 -5.991718 -50.219574
30.697948 -6.653664 -50.84668
30.544939 -3.626755 -52.086357
28.827915 -5.320884 -47.95414
29.055792 -2.768017 -49.986122
31.342646 -12.979372 -47.677467
28.597216 -19.091518 -41.248199
28.697292 -16.75849 -43.431091
29.125443 -14.408703 -45.512924
28.549948 -10.901971 -46.133018
28.928963 -11.382061 -46.973045
29.889242 -12.067581 -47.489372
30.967186 -9.768545 -49.35981
29.302952 -0.073893 -50.400085
29.651745 -0.256641 -51.884697
30.601486 2.159451 -53.615616
30.511532 -0.686279 -53.025406
31.861084 -1.388708 -53.804794
30.470954 -16.871097 -44.931732
29.842386 -16.376645 -44.857548
28.957605 -3.985385 -48.197319
29.022483 -5.269181 -47.155323
29.152173 -3.933681 -47.398502
32.241088 -13.552542 -47.612072
32.0186 -11.880973 -48.54602
28.7233 -18.830927 -40.814601
28.690297 -20.239342 -40.112019
28.816381 -19.97875 -39.678421
28.631667 -15.277624 -44.153408
28.625601 -16.479802 -43.053421
28.559976 -14.998935 -43.775738
28.596311 -9.488454 -46.652378
28.646918 -10.744164 -45.55904
32.17824 -5.991269 -51.8633
31.508713 -7.104319 -50.983849
31.367475 -5.540615 -51.726132
32.968826 -4.953474 -52.68264
32.17824 -5.991269 -51.8633
29.593314 1.192205 -51.304481
29.471169 1.214894 -50.430027
29.76771 1.100831 -52.046788
29.477348 -0.165267 -51.142391
29.593314 1.192205 -51.304481
31.202319 1.862223 -54.137848
31.239638 3.291409 -54.37075
31.157342 0.439358 -53.842743
30.556509 0.736586 -53.320511
31.202319 1.862223 -54.137848
31.832118 0.088143 -54.232437
31.186308 -1.037494 -53.4151
31.157342 0.439358 -53.842743
29.298466 -2.648395 -47.519722
29.152173 -3.933681 -47.398502
28.58535 -13.581285 -44.402977
28.559976 -14.998935 -43.775738
28.879905 -6.995071 -48.740463
28.749683 -8.253363 -47.701496
28.772894 -6.816645 -48.210705
28.891562 -6.594232 -46.88033
29.022483 -5.269181 -47.155323
28.735294 -6.697911 -47.562939
28.891562 -6.594232 -46.88033
28.865516 -5.439618 -48.601906
28.772894 -6.816645 -48.210705
28.735294 -6.697911 -47.562939
31.572356 -14.638727 -46.761009
31.024085 -15.767351 -45.839107
30.794374 -14.107996 -46.755566
31.572356 -14.638727 -46.761009
32.241088 -13.552542 -47.612072
28.661845 -20.56659 -40.457661
28.690297 -20.239342 -40.112019
28.766494 -19.441735 -41.535545
28.661845 -20.56659 -40.457661
28.575563 -17.646316 -41.961975
28.7233 -18.830927 -40.814601
28.647254 -17.925004 -42.339645
28.575563 -17.646316 -41.961975
28.625601 -16.479802 -43.053421
28.816532 -18.275221 -42.626991
28.766494 -19.441735 -41.535545
28.647254 -17.925004 -42.339645
29.067981 -17.13758 -43.656261
28.816532 -18.275221 -42.626991
29.282056 -15.962687 -44.697178
29.067981 -17.13758 -43.656261
28.911368 -15.583596 -44.472008
29.685773 -14.822661 -45.673294
29.842386 -16.376645 -44.857548
29.282056 -15.962687 -44.697178
28.577303 -12.133892 -45.031623
28.646918 -10.744164 -45.55904
28.557995 -12.349365 -45.504372
28.58535 -13.581285 -44.402977
28.577303 -12.133892 -45.031623
28.703321 -9.66688 -47.182136
28.596311 -9.488454 -46.652378
28.749683 -8.253363 -47.701496
31.830869 -10.275559 -49.387192
32.0186 -11.880973 -48.54602
31.154916 -11.373959 -48.518639
31.643332 -8.661759 -50.240414
30.832567 -8.211104 -50.103245
31.508713 -7.104319 -50.983849
31.830869 -10.275559 -49.387192
31.643332 -8.661759 -50.240414
29.247046 -1.363407 -48.518406
29.298466 -2.648395 -47.519722
29.354875 -0.075411 -49.498199
29.471169 1.214894 -50.430027
29.195123 -1.361889 -49.420291
29.247046 -1.363407 -48.518406
29.354875 -0.075411 -49.498199
30.712848 3.524142 -53.718449
31.239638 3.291409 -54.37075
30.242581 2.308877 -52.912247
30.712848 3.524142 -53.718449
30.126615 0.951405 -52.750157
29.76771 1.100831 -52.046788
30.242581 2.308877 -52.912247
32.648163 -0.360119 -54.566921
31.832118 0.088143 -54.232437
32.74 -1.876132 -54.008335
32.648163 -0.360119 -54.566921
32.827959 -3.395561 -53.408729
31.949044 -2.908137 -53.205189
32.74 -1.876132 -54.008335
32.968826 -4.953474 -52.68264
32.827959 -3.395561 -53.408729
30.470954 -16.871097 -44.931732
31.024085 -15.767351 -45.839107
3 1 8 6
3 1 10 8
3 0 26 27
3 2 28 30
3 28 11 29
3 28 29 30
3 2 12 11
3 32 31 13
3 33 14 34
3 33 34 35
3 3 36 38
3 36 15 37
3 36 37 38
3 3 16 15
3 39 17 40
3 4 18 7
3 4 19 18
3 4 20 19
3 5 41 43
3 43 42 9
3 41 42 43
3 5 44 45
3 46 21 47
3 48 22 49
3 50 49 21
3 48 49 50
3 51 23 52
3 53 24 54
3 55 54 23
3 53 54 55
3 56 25 57
3 58 57 24
3 56 57 58
3 59 2 60
3 61 3 62
3 6 63 65
3 63 7 64
3 63 64 65
3 8 7 6
3 8 4 7
3 8 9 4
3 10 9 8
3 10 5 9
3 11 66 67
3 11 68 69
3 11 70 72
3 70 6 71
3 70 71 72
3 12 6 11
3 12 1 6
3 13 73 75
3 75 74 0
3 73 74 75
3 77 76 13
3 14 78 79
3 14 80 81
3 82 14 83
3 15 84 86
3 84 14 85
3 84 85 86
3 15 87 89
3 89 88 14
3 87 88 89
3 15 90 91
3 16 92 94
3 94 93 15
3 92 93 94
3 16 95 97
3 95 0 96
3 95 96 97
3 17 98 99
3 17 100 102
3 100 3 101
3 100 101 102
3 7 103 105
3 103 17 104
3 103 104 105
3 18 17 7
3 18 3 17
3 18 16 3
3 19 16 18
3 19 0 16
3 19 13 0
3 20 13 19
3 20 106 108
3 108 107 13
3 106 107 108
3 9 20 4
3 109 20 110
3 111 110 9
3 109 110 111
3 113 112 20
3 114 2 115
3 21 116 117
3 21 118 120
3 118 2 119
3 118 119 120
3 21 12 2
3 22 12 21
3 22 1 12
3 23 121 122
3 23 123 124
3 23 125 127
3 125 22 126
3 125 126 127
3 24 22 23
3 24 1 22
3 24 10 1
3 25 10 24
3 25 5 10
3 128 25 129
3 130 25 131
3 132 5 133
3 134 133 25
3 132 133 134
3 136 135 5
3 138 137 0
