ply
format ascii 1.0
element vertex 285
property float x
property float y
property float z
element face 265
property list uchar int vertex_index
end_header
57.305038 -53.741222 4.077224
67.054916 -47.874947 14.167121
59.804718 -50.243546 8.669014
66.102036 -42.444275 4.71163
57.796104 -50.355148 2.256149
66.831978 -45.224129 9.326433
62.837784 -46.31781 6.685756
63.412018 -48.877068 11.289751
56.994057 -55.929203 7.259382
58.222694 -57.011349 3.959323
63.625626 -51.381451 16.056986
60.12043 -52.676071 13.188691
57.617531 -54.26302 10.291206
57.592911 -52.019997 6.151187
59.361328 -48.021133 4.32212
60.661758 -57.203789 0.215954
57.455032 -52.246521 3.266505
57.886864 -51.768684 1.46205
57.738106 -53.608295 2.662132
68.533524 -46.187855 13.283364
68.496323 -44.850979 10.821667
67.002808 -46.57692 11.722975
65.155899 -47.033932 10.296001
65.320923 -48.344185 12.677906
56.799316 -57.184235 9.244229
57.142559 -57.964615 7.534975
61.827255 -51.997009 14.611154
57.050652 -55.120098 8.792648
68.032722 -41.998871 6.083841
67.587715 -40.521553 3.836453
63.989853 -43.067692 3.449984
61.249138 -48.27198 7.700453
60.930687 -47.087608 5.477626
59.587914 -49.091682 6.476374
58.350346 -50.042835 5.29633
58.46085 -51.092743 7.393367
59.027916 -59.034187 3.902179
59.338875 -57.210491 2.132464
60.367653 -59.264511 1.983129
63.32753 -59.074112 -1.973274
64.774185 -58.648441 -3.982853
66.106331 -58.01741 -6.00588
58.12117 -49.709976 0.275711
68.333542 -43.447784 8.417397
66.53273 -43.840118 6.985398
64.486305 -44.376381 5.674238
64.877953 -45.703674 7.959088
63.170959 -47.590279 8.966499
61.510487 -49.504044 9.96365
61.285961 -61.381683 1.865068
57.153549 -54.726303 5.471597
57.601345 -55.173183 4.020857
57.410141 -56.58469 5.664412
57.917248 -58.595699 5.756165
67.001984 -49.093395 16.656971
65.35051 -50.797783 17.570196
65.381332 -49.607628 15.101945
63.560722 -50.150608 13.652984
61.703026 -50.756477 12.267102
59.98587 -51.450405 10.905992
58.670612 -53.434547 11.75514
58.576492 -52.238113 9.544509
57.603714 -53.096451 8.176566
57.133205 -53.964458 6.814773
57.235069 -52.95525 4.996172
58.287987 -49.1129 3.233012
57.635277 -51.101112 4.197142
58.402161 -55.291794 2.342196
61.832088 -59.279762 0.018824
56.799057 -58.238264 9.402799
56.682807 -57.803914 10.300904
56.682807 -57.803914 10.300904
56.875751 -56.754693 10.068887
65.824181 -41.747143 3.614035
66.56702 -40.785782 3.176446
66.844876 -41.482914 4.274042
65.045944 -42.755983 4.080807
64.76809 -42.058852 2.983212
65.824181 -41.747143 3.614035
60.103836 -60.203323 2.914854
59.697784 -59.149349 2.942654
59.433967 -60.088161 3.874379
65.145954 -59.708377 -4.082174
64.489494 -59.921308 -3.067569
65.812027 -59.392862 -5.093688
65.440258 -58.332926 -4.994366
65.145954 -59.708377 -4.082174
57.958637 -50.032562 1.26593
58.220331 -48.998178 0.72599
58.057798 -49.320764 1.716209
58.214503 -51.538023 0.498157
58.187893 -52.58069 1.17442
57.70117 -59.331692 6.730894
57.529904 -58.280157 6.64557
57.313826 -59.016149 7.620299
58.226396 -59.646124 5.776815
57.70117 -59.331692 6.730894
66.930538 -49.651352 17.926546
67.647621 -48.833597 17.506819
64.488068 -51.089617 16.813591
64.485791 -51.670362 18.037978
63.623348 -51.962196 17.281373
58.144071 -53.848783 11.023173
58.142603 -54.446981 12.120336
57.616062 -54.861217 11.388369
62.630499 -45.698871 5.56879
63.45476 -44.728157 5.063031
63.662045 -45.347096 6.179997
59.970016 -46.993392 3.808142
60.754696 -46.52663 4.385896
60.146007 -47.554371 4.899873
59.261189 -47.528827 3.258983
59.970016 -46.993392 3.808142
58.824658 -48.567017 3.777566
58.724518 -48.074711 2.714429
59.261189 -47.528827 3.258983
60.068203 -56.212883 0.353568
59.406762 -56.216234 1.311823
60.000316 -57.20714 1.174209
60.698349 -56.091522 -0.61887
60.068203 -56.212883 0.353568
62.301184 -60.340372 -0.058827
61.559024 -60.330723 0.941946
62.02812 -61.391333 0.864295
62.713639 -58.033068 -1.863262
63.449784 -57.822677 -2.861547
58.113514 -53.500495 1.774461
58.187893 -52.58069 1.17442
57.812485 -52.68849 2.062091
68.514924 -45.519417 12.052516
69.101845 -44.702934 11.647842
69.120446 -45.371372 12.878691
56.970678 -58.628455 8.548172
56.970937 -57.574425 8.389602
56.799057 -58.238264 9.402799
57.313826 -59.016149 7.620299
56.970678 -58.628455 8.548172
62.759623 -52.288285 16.527449
63.623348 -51.962196 17.281373
62.757345 -52.86903 17.751836
61.860438 -52.596063 15.804534
62.72644 -51.68923 15.33407
62.759623 -52.288285 16.527449
61.019669 -52.941053 15.064136
61.860438 -52.596063 15.804534
60.166256 -53.280585 14.352904
60.973843 -52.33654 13.899923
61.019669 -52.941053 15.064136
57.284859 -55.294085 10.592375
57.616062 -54.861217 11.388369
57.001419 -55.722624 9.843096
57.334091 -54.691559 9.541927
57.284859 -55.294085 10.592375
56.924984 -56.152166 9.018439
57.001419 -55.722624 9.843096
56.875751 -56.754693 10.068887
68.654979 -41.091751 5.684166
68.7948 -41.854348 6.840696
68.432476 -40.353092 4.560472
68.654979 -41.091751 5.684166
67.810219 -41.260212 4.960147
68.216999 -39.56792 3.457344
68.432476 -40.353092 4.560472
67.294883 -39.775411 2.761791
68.216999 -39.56792 3.457344
67.294883 -39.775411 2.761791
66.56702 -40.785782 3.176446
63.699219 -42.425829 2.37125
64.76809 -42.058852 2.983212
62.969375 -43.47649 2.859215
63.699219 -42.425829 2.37125
63.766166 -60.134144 -2.062779
63.048905 -60.237547 -1.054876
64.050858 -58.861277 -2.978064
63.766166 -60.134144 -2.062779
64.489494 -59.921308 -3.067569
64.173111 -57.609842 -3.866336
63.449784 -57.822677 -2.861547
64.050858 -58.861277 -2.978064
64.891639 -57.296886 -4.87132
64.173111 -57.609842 -3.866336
65.557713 -56.981371 -5.882834
64.891639 -57.296886 -4.87132
65.440258 -58.332926 -4.994366
66.229039 -56.575536 -6.891479
65.557713 -56.981371 -5.882834
58.301045 -48.611332 -0.306948
58.220331 -48.998178 0.72599
58.373531 -49.391866 -0.737366
58.301045 -48.611332 -0.306948
58.331655 -50.508669 -0.095012
58.004017 -50.73933 0.868881
58.214503 -51.538023 0.498157
58.373531 -49.391866 -0.737366
58.331655 -50.508669 -0.095012
69.095616 -44.011887 10.410875
69.101845 -44.702934 11.647842
69.014225 -43.310289 9.20874
69.095616 -44.011887 10.410875
68.414932 -44.149382 9.619532
68.94521 -42.578804 8.007475
69.014225 -43.310289 9.20874
68.183132 -42.723327 7.250619
68.7948 -41.854348 6.840696
68.94521 -42.578804 8.007475
60.881456 -62.325422 2.823632
60.56299 -61.26191 2.855824
61.596876 -62.445362 1.809284
60.881456 -62.325422 2.823632
62.02812 -61.391333 0.864295
61.596876 -62.445362 1.809284
69.073182 -46.012072 14.144684
69.120446 -45.371372 12.878691
68.497067 -46.81196 14.539265
69.073182 -46.012072 14.144684
67.757763 -47.655507 14.981144
67.79422 -47.031401 13.725243
68.497067 -46.81196 14.539265
58.78173 -59.865368 4.849823
58.472582 -58.814943 4.829172
58.226396 -59.646124 5.776815
59.433967 -60.088161 3.874379
58.78173 -59.865368 4.849823
67.731296 -48.26473 16.226069
67.647621 -48.833597 17.506819
67.02845 -48.484171 15.412046
67.757763 -47.655507 14.981144
67.731296 -48.26473 16.226069
65.297287 -51.34485 18.829198
64.485791 -51.670362 18.037978
66.104802 -50.503546 18.383159
65.297287 -51.34485 18.829198
66.176247 -49.945589 17.113583
66.930538 -49.651352 17.926546
66.104802 -50.503546 18.383159
59.428696 -53.657229 13.605526
60.166256 -53.280585 14.352904
58.703786 -54.036467 12.888751
58.142603 -54.446981 12.120336
59.395521 -53.055309 12.471916
59.428696 -53.657229 13.605526
58.703786 -54.036467 12.888751
63.206533 -44.073813 3.950904
64.238079 -43.722037 4.562111
63.45476 -44.728157 5.063031
62.969375 -43.47649 2.859215
63.206533 -44.073813 3.950904
61.676951 -46.08377 4.964725
62.630499 -45.698871 5.56879
61.884236 -46.702709 6.081691
61.676951 -46.08377 4.964725
60.754696 -46.52663 4.385896
58.303739 -48.699641 2.20464
58.724518 -48.074711 2.714429
58.042046 -49.734024 2.744581
58.057798 -49.320764 1.716209
58.303739 -48.699641 2.20464
58.445542 -54.342245 1.614493
58.113514 -53.500495 1.774461
58.070133 -54.450045 2.502164
58.938405 -55.256886 1.416689
58.870518 -56.251143 2.23733
59.406762 -56.216234 1.311823
58.445542 -54.342245 1.614493
58.938405 -55.256886 1.416689
60.826807 -60.323097 1.924098
60.103836 -60.203323 2.914854
60.56299 -61.26191 2.855824
62.579809 -59.176937 -0.977225
62.301184 -60.340372 -0.058827
63.048905 -60.237547 -1.054876
61.965918 -58.135892 -0.867213
62.579809 -59.176937 -0.977225
62.713639 -58.033068 -1.863262
61.380752 -57.097906 -0.768648
61.246923 -58.241776 0.117389
61.965918 -58.135892 -0.867213
60.698349 -56.091522 -0.61887
61.380752 -57.097906 -0.768648
66.379944 -59.083057 -6.116048
65.812027 -59.392862 -5.093688
66.689194 -57.6159 -7.023985
66.379944 -59.083057 -6.116048
66.229039 -56.575536 -6.891479
66.689194 -57.6159 -7.023985
3 0 18 16
3 1 21 19
3 1 23 21
3 70 69 24
3 71 24 72
3 3 29 28
3 3 73 75
3 75 74 29
3 73 74 75
3 3 76 78
3 76 30 77
3 76 77 78
3 2 33 31
3 2 35 33
3 79 38 80
3 81 80 36
3 79 80 81
3 82 40 83
3 84 41 85
3 86 85 40
3 84 85 86
3 4 87 89
3 87 42 88
3 87 88 89
3 91 90 17
3 5 43 20
3 5 44 43
3 5 46 44
3 7 47 22
3 7 48 47
3 8 52 50
3 92 53 93
3 94 93 25
3 92 93 94
3 96 95 53
3 97 54 98
3 10 99 101
3 99 55 100
3 99 100 101
3 10 56 55
3 10 57 56
3 11 58 26
3 11 59 58
3 12 102 104
3 102 60 103
3 102 103 104
3 12 61 60
3 12 62 61
3 8 63 27
3 8 50 63
3 6 105 107
3 107 106 45
3 105 106 107
3 14 108 110
3 110 109 32
3 108 109 110
3 14 111 112
3 14 113 115
3 113 65 114
3 113 114 115
3 13 66 34
3 13 64 66
3 9 67 51
3 15 116 118
3 118 117 37
3 116 117 118
3 15 119 120
3 121 68 122
3 123 122 49
3 121 122 123
3 125 124 39
3 16 17 4
3 18 17 16
3 18 126 128
3 128 127 17
3 126 127 128
3 19 129 131
3 129 20 130
3 129 130 131
3 21 20 19
3 21 5 20
3 21 22 5
3 23 22 21
3 23 7 22
3 24 25 8
3 132 25 133
3 134 133 24
3 132 133 134
3 136 135 25
3 137 10 138
3 137 138 139
3 140 26 141
3 142 141 10
3 140 141 142
3 143 26 144
3 145 11 146
3 147 146 26
3 145 146 147
3 148 12 149
3 150 27 151
3 152 151 12
3 150 151 152
3 24 153 155
3 153 27 154
3 153 154 155
3 24 8 27
3 28 156 157
3 29 158 160
3 160 159 28
3 158 159 160
3 29 161 162
3 29 163 164
3 166 165 29
3 30 167 168
3 30 169 170
3 31 32 6
3 33 32 31
3 33 14 32
3 33 34 14
3 35 34 33
3 35 13 34
3 36 37 9
3 38 37 36
3 38 15 37
3 171 39 172
3 40 173 175
3 173 39 174
3 173 174 175
3 40 176 178
3 178 177 39
3 176 177 178
3 40 179 180
3 41 181 183
3 183 182 40
3 181 182 183
3 41 184 185
3 42 186 187
3 42 188 189
3 17 42 4
3 190 42 191
3 192 191 17
3 190 191 192
3 194 193 42
3 20 195 196
3 43 197 199
3 199 198 20
3 197 198 199
3 43 200 201
3 43 202 204
3 202 28 203
3 202 203 204
3 44 28 43
3 44 3 28
3 44 45 3
3 46 45 44
3 46 6 45
3 22 46 5
3 47 46 22
3 47 6 46
3 47 31 6
3 48 31 47
3 48 2 31
3 205 49 206
3 207 49 208
3 210 209 49
3 211 19 212
3 213 19 214
3 215 1 216
3 217 216 19
3 215 216 217
3 50 51 0
3 52 51 50
3 52 9 51
3 25 52 8
3 53 52 25
3 53 9 52
3 53 36 9
3 218 36 219
3 220 219 53
3 218 219 220
3 222 221 36
3 54 223 224
3 54 225 227
3 225 1 226
3 225 226 227
3 55 228 229
3 55 230 231
3 55 232 234
3 232 54 233
3 232 233 234
3 56 54 55
3 56 1 54
3 56 23 1
3 57 23 56
3 57 7 23
3 26 57 10
3 58 57 26
3 58 7 57
3 58 48 7
3 59 48 58
3 59 2 48
3 235 11 236
3 60 237 238
3 60 239 241
3 239 11 240
3 239 240 241
3 60 59 11
3 61 59 60
3 61 2 59
3 61 35 2
3 62 35 61
3 62 13 35
3 27 62 12
3 63 62 27
3 63 13 62
3 63 64 13
3 50 64 63
3 50 0 64
3 45 30 3
3 242 30 243
3 244 243 45
3 242 243 244
3 246 245 30
3 32 247 249
3 249 248 6
3 247 248 249
3 251 250 32
3 65 252 253
3 65 254 256
3 254 4 255
3 254 255 256
3 34 65 14
3 66 65 34
3 66 4 65
3 66 16 4
3 64 16 66
3 64 0 16
3 51 18 0
3 67 18 51
3 67 257 259
3 259 258 18
3 257 258 259
3 37 67 9
3 260 67 261
3 262 261 37
3 260 261 262
3 264 263 67
3 49 265 267
3 265 38 266
3 265 266 267
3 68 38 49
3 68 15 38
3 39 268 270
3 268 68 269
3 268 269 270
3 271 68 272
3 273 272 39
3 271 272 273
3 274 15 275
3 276 275 68
3 274 275 276
3 278 277 15
3 279 41 280
3 281 41 282
3 284 283 41
