ply
format ascii 1.0
element vertex 315
property float x
property float y
property float z
element face 315
property list uchar int vertex_index
end_header
-63.997284 -7.854095 -14.48527
-59.159092 6.019045 -37.769821
-62.006313 -0.024712 -25.732609
-65.449791 -16.288424 -13.854515
-63.519894 -10.819081 -23.42971
-52.978157 14.701408 -40.266769
-65.098427 -11.78661 -14.134365
-64.169724 -13.421401 -18.396557
-63.924774 -8.336883 -19.134686
-60.84034 3.309713 -31.78643
-62.414696 -2.306402 -30.351856
-61.608974 0.122282 -35.935596
-63.043018 -3.777421 -19.855343
-61.482666 -0.122099 -20.802311
-60.378292 4.234814 -26.791424
-58.732956 8.051405 -32.990795
-65.158791 -20.961359 -13.381517
-66.83609 -19.627863 -10.07749
-66.151382 -15.611429 -9.988216
-63.859512 -18.704556 -17.398903
-63.472095 -16.656307 -21.907524
-63.030247 -5.179172 -24.665237
-56.024059 11.427406 -34.122818
-56.262276 11.066013 -39.175217
-64.642044 -9.727495 -14.278168
-64.495361 -10.020497 -16.54393
-64.106644 -7.8087 -16.789417
-60.095428 4.759466 -34.799259
-61.144386 1.947392 -34.033058
-60.439957 3.146149 -36.913288
-59.938717 3.631758 -24.348358
-59.298615 5.892847 -27.368229
-59.639042 6.225399 -29.878307
-58.480156 8.006933 -30.446926
-65.368828 -18.635441 -13.649317
-64.435677 -19.786037 -15.301596
-64.652466 -17.300026 -15.712763
-63.749615 -12.097436 -20.876461
-63.697754 -14.874787 -20.292969
-63.561775 -13.72648 -22.710735
-63.64587 -12.600513 -25.148834
-62.528736 -1.856922 -22.752865
-63.05426 -4.204913 -22.304028
-62.586819 -2.517942 -25.210865
-62.899143 -4.095563 -32.194756
-63.027149 -5.30574 -29.510139
-54.637177 13.208069 -37.214088
-56.187256 11.648243 -36.675358
-54.660225 13.095806 -39.756882
-65.365707 -13.988445 -14.006876
-64.756157 -14.809889 -16.040709
-64.709778 -12.368549 -16.307261
-64.124985 -10.83491 -18.784184
-63.662216 -9.369496 -21.390881
-61.457581 1.704935 -28.754955
-62.146343 -0.916388 -28.157417
-61.687832 0.581476 -31.107479
-62.077484 -1.019938 -33.166878
-63.542088 -5.778037 -17.084343
-62.799671 -3.974585 -17.464874
-62.352333 -1.812502 -20.288361
-61.844105 0.265778 -23.229988
-60.985615 2.110407 -23.756981
-61.275826 2.245157 -26.252125
-60.627342 4.105623 -29.321011
-59.859676 5.820797 -32.406635
-58.922409 7.358265 -35.481331
-64.879158 -23.154484 -13.064585
-66.126045 -20.108778 -11.776525
-66.170334 -17.885715 -11.866533
-67.055847 -19.540937 -8.375101
-66.606796 -17.561737 -10.04479
-66.022713 -15.713946 -11.916056
-65.672501 -13.646954 -11.943205
-64.169083 -22.197065 -14.792124
-63.586151 -21.315094 -16.744171
-63.265343 -20.452486 -18.840298
-64.071518 -16.057928 -17.942776
-63.523945 -17.670467 -19.620445
-63.565071 -5.968853 -19.480698
-63.430752 -6.725113 -21.858566
-63.341797 -7.959531 -24.076767
-62.707607 -3.701573 -27.508804
-63.147549 -6.601707 -26.795532
-63.463181 -9.577789 -26.010067
-57.148098 9.403891 -31.036713
-57.453259 9.938442 -33.559509
-57.619312 9.677475 -36.100399
-57.76545 8.682198 -38.517895
-52.868031 14.242691 -42.759674
-54.642242 12.181087 -42.178974
-56.352531 9.757856 -41.487823
-59.332506 5.080225 -38.751023
-59.972938 3.643777 -38.322756
-59.799525 4.582597 -37.341555
-58.664482 6.537027 -27.679039
-58.997246 5.346524 -26.187632
-58.255253 7.59407 -29.218387
-58.889386 6.94989 -28.907578
-58.664482 6.537027 -27.679039
-63.252306 -5.669802 -31.658194
-63.253077 -5.151718 -32.906624
-53.807667 13.954739 -38.740428
-53.813622 13.760208 -37.459976
-52.984112 14.506878 -38.986317
-62.137686 -1.442251 -35.384902
-62.371941 -2.013361 -34.000543
-61.843229 -0.448828 -34.551237
-61.921543 -0.978972 -36.678693
-62.137686 -1.442251 -35.384902
-62.475718 -4.400601 -16.358525
-62.983164 -5.091398 -16.132123
-61.9175 -0.967301 -20.545336
-62.113518 -2.126713 -19.122576
-61.678684 -1.281511 -19.379551
-66.481067 -19.868321 -10.927007
-66.481113 -20.935998 -10.928586
-66.836136 -20.69554 -10.079068
-66.834198 -19.704062 -7.552774
-67.193527 -20.594713 -7.619366
-66.379089 -16.586583 -10.016503
-66.542065 -17.623578 -9.153307
-66.314357 -16.648424 -9.12502
-63.371814 -18.120775 -21.457365
-63.39774 -18.627855 -20.313826
-63.49802 -17.163387 -20.763984
-63.535004 -17.6794 -22.546841
-63.371814 -18.120775 -21.457365
-63.334616 -7.490371 -27.688639
-63.087349 -5.953724 -28.152836
-63.274416 -6.842387 -29.045942
-63.492432 -8.978411 -27.295906
-63.305365 -8.089748 -26.4028
-63.334616 -7.490371 -27.688639
-63.674707 -10.538352 -26.791187
-63.492432 -8.978411 -27.295906
-55.839247 10.909011 -32.881331
-55.242719 11.955127 -34.397614
-56.586078 10.415648 -32.579766
-56.401266 9.897253 -31.338278
-55.839247 10.909011 -32.881331
-52.816206 13.617787 -43.915323
-51.849173 14.649655 -44.196737
-53.703311 12.586984 -43.624973
-53.755137 13.211889 -42.469324
-52.816206 13.617787 -43.915323
-56.438835 8.796025 -42.492483
-55.512568 10.157291 -42.923889
-57.165454 8.405684 -41.082147
-56.438835 8.796025 -42.492483
-60.68329 2.11395 -37.780073
-61.267799 0.602016 -37.291227
-61.024466 1.634215 -36.424442
-60.68329 2.11395 -37.780073
-59.972938 3.643777 -38.322756
-61.12209 -0.665458 -19.686655
-61.678684 -1.281511 -19.379551
-59.317297 4.21598 -24.677696
-59.552843 2.96505 -23.227089
-59.618666 4.762302 -25.858294
-59.317297 4.21598 -24.677696
-58.997246 5.346524 -26.187632
-67.109916 -20.577871 -9.267204
-66.836136 -20.69554 -10.079068
-65.909935 -15.803527 -9.065103
-66.314357 -16.648424 -9.12502
-65.814613 -14.714928 -9.964593
-65.909935 -15.803527 -9.065103
-63.625452 -14.687264 -23.459938
-63.580612 -16.152178 -23.058332
-63.516935 -15.191394 -22.309129
-63.6675 -14.12428 -24.678987
-63.625452 -14.687264 -23.459938
-63.603822 -13.163497 -23.929785
-63.876005 -13.623293 -25.819069
-63.6675 -14.12428 -24.678987
-63.316309 -6.27489 -30.315886
-62.963146 -4.700652 -30.852447
-63.252306 -5.669802 -31.658194
-63.274416 -6.842387 -29.045942
-63.316309 -6.27489 -30.315886
-54.549278 12.845459 -35.943248
-53.813622 13.760208 -37.459976
-55.330618 12.317737 -35.668453
-55.242719 11.955127 -34.397614
-54.549278 12.845459 -35.943248
-62.78277 -3.551173 -33.514482
-62.488314 -2.557751 -32.680817
-62.371941 -2.013361 -34.000543
-63.253077 -5.151718 -32.906624
-62.78277 -3.551173 -33.514482
-61.580368 -0.499238 -38.034324
-61.921543 -0.978972 -36.678693
-61.267799 0.602016 -37.291227
-52.110019 15.265684 -40.478601
-52.984112 14.506878 -38.986317
-63.354372 -5.993125 -15.941858
-63.769686 -6.816066 -15.784807
-63.58197 -7.031154 -14.642321
-63.170879 -4.876311 -17.274608
-63.354372 -5.993125 -15.941858
-62.983164 -5.091398 -16.132123
-62.337187 -3.207755 -17.710832
-62.475718 -4.400601 -16.358525
-62.576002 -2.893543 -18.876617
-62.337187 -3.207755 -17.710832
-62.113518 -2.126713 -19.122576
-60.952697 0.566511 -21.105643
-61.12209 -0.665458 -19.686655
-60.180723 2.44344 -22.878666
-59.552843 2.96505 -23.227089
-60.704172 1.682764 -22.582977
-60.180723 2.44344 -22.878666
-60.462166 2.871082 -24.05267
-61.234141 0.994154 -22.279646
-60.952697 0.566511 -21.105643
-60.704172 1.682764 -22.582977
-65.212829 -23.7845 -12.316353
-64.754086 -24.046689 -12.911043
-65.395069 -22.734227 -12.36103
-65.212829 -23.7845 -12.316353
-65.534886 -21.637665 -12.519496
-65.018974 -22.057921 -13.223051
-65.395069 -22.734227 -12.36103
-66.018512 -21.211374 -11.717
-66.481113 -20.935998 -10.928586
-65.642418 -20.535069 -12.579021
-65.534886 -21.637665 -12.519496
-66.018512 -21.211374 -11.717
-67.219795 -20.534408 -8.41601
-67.193527 -20.594713 -7.619366
-66.945968 -19.5844 -9.226295
-67.109916 -20.577871 -9.267204
-67.219795 -20.534408 -8.41601
-66.76659 -18.613178 -8.318463
-66.834198 -19.704062 -7.552774
-66.831322 -18.551337 -9.209945
-66.76659 -18.613178 -8.318463
-66.542065 -17.623578 -9.153307
-65.575173 -13.732691 -10.942088
-65.911941 -14.629191 -10.965711
-65.814613 -14.714928 -9.964593
-65.395485 -12.688247 -11.965186
-65.575173 -13.732691 -10.942088
-65.108448 -11.758075 -13.060766
-65.385464 -12.716782 -13.038785
-65.395485 -12.688247 -11.965186
-64.880257 -10.728517 -13.132668
-64.870236 -10.757053 -14.206267
-65.108448 -11.758075 -13.060766
-64.503715 -9.864901 -13.188588
-64.880257 -10.728517 -13.132668
-64.181336 -8.928201 -13.292139
-64.319664 -8.790795 -14.381719
-64.503715 -9.864901 -13.188588
-63.709027 -8.178318 -13.40776
-64.181336 -8.928201 -13.292139
-63.58197 -7.031154 -14.642321
-63.709027 -8.178318 -13.40776
-64.416406 -23.79645 -13.61072
-64.754086 -24.046689 -12.911043
-64.061369 -23.31774 -14.47449
-64.416406 -23.79645 -13.61072
-64.524121 -22.675774 -13.928354
-63.749783 -23.017719 -15.37243
-64.061369 -23.31774 -14.47449
-63.458317 -22.576733 -16.348454
-63.749783 -23.017719 -15.37243
-63.877617 -21.756079 -15.768148
-63.283928 -22.250977 -17.338318
-63.458317 -22.576733 -16.348454
-63.123524 -21.819672 -18.386381
-63.283928 -22.250977 -17.338318
-63.425747 -20.88379 -17.792234
-63.133469 -21.470813 -19.417639
-63.123524 -21.819672 -18.386381
-63.268439 -20.018864 -19.923752
-63.394644 -19.061476 -19.230372
-63.39774 -18.627855 -20.313826
-63.133469 -21.470813 -19.417639
-63.268439 -20.018864 -19.923752
-63.535004 -17.6794 -22.546841
-63.580612 -16.152178 -23.058332
-63.766052 -12.049715 -26.360571
-63.554525 -11.089151 -25.579451
-63.674707 -10.538352 -26.791187
-63.876005 -13.623293 -25.819069
-63.766052 -12.049715 -26.360571
-56.86495 8.744231 -29.841539
-56.401266 9.897253 -31.338278
-57.589224 8.292549 -29.513281
-56.86495 8.744231 -29.841539
-57.814127 8.705412 -30.741819
-58.255253 7.59407 -29.218387
-57.589224 8.292549 -29.513281
-52.017254 15.283445 -41.747704
-52.110019 15.265684 -40.478601
-51.962191 15.054087 -42.994156
-51.849173 14.649655 -44.196737
-52.923094 14.47205 -41.513222
-52.017254 15.283445 -41.747704
-51.962191 15.054087 -42.994156
-54.657423 11.368906 -43.269464
-53.703311 12.586984 -43.624973
-55.497387 10.969472 -41.833399
-54.657423 11.368906 -43.269464
-55.512568 10.157291 -42.923889
-57.871914 7.867855 -39.597183
-57.058991 9.220027 -40.002859
-57.165454 8.405684 -41.082147
-58.568735 6.536279 -39.223146
-58.462271 7.350621 -38.143858
-57.871914 7.867855 -39.597183
-59.332506 5.080225 -38.751023
-58.568735 6.536279 -39.223146
3 0 26 24
3 1 29 27
3 1 92 94
3 94 93 29
3 92 93 94
3 95 31 96
3 97 33 98
3 99 98 31
3 97 98 99
3 3 36 34
3 4 39 37
3 4 40 39
3 2 43 41
3 101 100 44
3 5 102 104
3 102 46 103
3 102 103 104
3 5 48 46
3 6 51 49
3 8 52 25
3 8 53 52
3 9 56 54
3 11 57 28
3 11 105 107
3 107 106 57
3 105 106 107
3 11 108 109
3 110 59 111
3 13 112 114
3 112 60 113
3 112 113 114
3 13 61 60
3 14 62 30
3 14 63 62
3 14 64 63
3 15 65 32
3 15 66 65
3 17 115 117
3 115 68 116
3 115 116 117
3 17 69 68
3 118 70 119
3 18 120 122
3 120 71 121
3 120 121 122
3 18 72 71
3 18 73 72
3 16 74 67
3 19 75 35
3 19 76 75
3 7 77 50
3 20 78 38
3 20 123 125
3 125 124 78
3 123 124 125
3 20 126 127
3 12 79 58
3 21 80 42
3 21 81 80
3 10 82 55
3 128 83 129
3 130 129 45
3 128 129 130
3 131 84 132
3 133 132 83
3 131 132 133
3 135 134 84
3 22 136 137
3 22 138 140
3 138 85 139
3 138 139 140
3 22 86 85
3 23 87 47
3 23 88 87
3 141 89 142
3 143 90 144
3 145 144 89
3 143 144 145
3 146 91 147
3 149 148 91
3 24 25 6
3 26 25 24
3 26 8 25
3 27 28 9
3 29 28 27
3 29 11 28
3 29 150 152
3 152 151 11
3 150 151 152
3 154 153 29
3 155 13 156
3 157 30 158
3 31 159 161
3 159 30 160
3 159 160 161
3 31 14 30
3 31 32 14
3 33 32 31
3 33 15 32
3 162 17 163
3 164 18 165
3 167 166 18
3 34 35 16
3 36 35 34
3 36 19 35
3 37 38 7
3 39 38 37
3 39 20 38
3 39 168 170
3 170 169 20
3 168 169 170
3 40 171 173
3 173 172 39
3 171 172 173
3 40 174 175
3 41 42 12
3 43 42 41
3 43 21 42
3 44 45 10
3 176 45 177
3 178 177 44
3 176 177 178
3 180 179 45
3 46 181 182
3 46 183 185
3 183 22 184
3 183 184 185
3 46 47 22
3 48 47 46
3 48 23 47
3 49 50 3
3 51 50 49
3 51 7 50
3 25 51 6
3 52 51 25
3 52 7 51
3 52 37 7
3 53 37 52
3 53 4 37
3 54 55 2
3 56 55 54
3 56 10 55
3 28 56 9
3 57 56 28
3 57 10 56
3 57 44 10
3 186 44 187
3 188 187 57
3 186 187 188
3 190 189 44
3 193 192 11
3 191 192 193
3 194 5 195
3 196 58 197
3 198 197 0
3 196 197 198
3 59 199 201
3 199 58 200
3 199 200 201
3 59 12 58
3 202 59 203
3 60 204 206
3 204 59 205
3 204 205 206
3 60 12 59
3 60 41 12
3 61 41 60
3 61 2 41
3 207 13 208
3 30 209 210
3 62 211 213
3 213 212 30
3 211 212 213
3 62 214 216
3 214 13 215
3 214 215 216
3 62 61 13
3 63 61 62
3 63 2 61
3 63 54 2
3 64 54 63
3 64 9 54
3 32 64 14
3 65 64 32
3 65 9 64
3 65 27 9
3 66 27 65
3 66 1 27
3 217 67 218
3 219 67 220
3 221 16 222
3 223 222 67
3 221 222 223
3 68 224 225
3 68 226 228
3 226 16 227
3 226 227 228
3 68 34 16
3 69 34 68
3 69 3 34
3 70 229 230
3 70 231 233
3 231 17 232
3 231 232 233
3 234 70 235
3 71 236 238
3 236 70 237
3 236 237 238
3 71 17 70
3 71 69 17
3 72 69 71
3 72 3 69
3 72 49 3
3 73 49 72
3 73 6 49
3 239 73 240
3 241 240 18
3 239 240 241
3 242 73 243
3 244 6 245
3 246 245 73
3 244 245 246
3 247 24 248
3 249 248 6
3 247 248 249
3 250 24 251
3 252 0 253
3 254 253 24
3 252 253 254
3 255 0 256
3 258 257 0
3 67 259 260
3 74 261 263
3 263 262 67
3 261 262 263
3 74 264 265
3 35 74 16
3 75 74 35
3 75 266 268
3 268 267 74
3 266 267 268
3 75 269 270
3 76 271 273
3 273 272 75
3 271 272 273
3 76 274 275
3 50 36 3
3 77 36 50
3 77 19 36
3 38 77 7
3 78 77 38
3 78 19 77
3 78 76 19
3 276 76 277
3 278 277 78
3 276 277 278
3 280 279 76
3 282 281 20
3 58 26 0
3 79 26 58
3 79 8 26
3 42 79 12
3 80 79 42
3 80 8 79
3 80 53 8
3 81 53 80
3 81 4 53
3 55 43 2
3 82 43 55
3 82 21 43
3 45 82 10
3 83 82 45
3 83 21 82
3 83 81 21
3 84 81 83
3 84 4 81
3 84 40 4
3 283 40 284
3 285 284 84
3 283 284 285
3 287 286 40
3 85 288 289
3 85 290 291
3 85 292 294
3 292 33 293
3 292 293 294
3 86 33 85
3 86 15 33
3 47 86 22
3 87 86 47
3 87 15 86
3 87 66 15
3 88 66 87
3 88 1 66
3 295 5 296
3 89 297 298
3 89 299 301
3 299 5 300
3 299 300 301
3 89 48 5
3 90 48 89
3 90 23 48
3 302 90 303
3 91 304 306
3 304 90 305
3 304 305 306
3 91 23 90
3 91 88 23
3 307 88 308
3 309 308 91
3 307 308 309
3 310 1 311
3 312 311 88
3 310 311 312
3 314 313 1
