ply
format ascii 1.0
element vertex 434
property float x
property float y
property float z
element face 477
property list uchar int vertex_index
end_header
-52.850601 -74.458397 43.839745
-63.120995 -61.587036 37.316811
-55.571117 -66.376007 47.787685
-57.831512 -67.949242 39.924309
-60.184853 -60.245617 46.474487
-65.070038 -61.299072 27.080452
-64.490814 -53.032997 44.206909
-65.698174 -55.170097 35.143204
-64.958023 -54.874928 25.195692
-56.130814 -62.121929 49.662472
-57.87841 -63.510235 47.192154
-58.273586 -59.405781 49.493336
-52.998028 -74.415344 39.276321
-60.502502 -64.706207 38.444283
-58.507629 -67.728058 34.881512
-61.55455 -64.704071 33.346054
-62.515511 -64.12191 28.2085
-64.190536 -61.810215 32.215405
-51.902527 -73.262314 47.054054
-62.526024 -52.045017 47.694038
-65.950912 -50.591415 38.000122
-65.038635 -51.634842 33.492805
-65.364182 -55.538822 30.221212
-54.556 -70.593796 45.775803
-55.342194 -71.262466 41.778847
-56.922287 -67.556671 44.449211
-59.308525 -64.307449 43.244682
-61.7976 -60.990402 42.211311
-65.873596 -59.72765 21.981937
-60.385139 -55.912052 48.893517
-62.495579 -56.710407 45.557098
-64.043327 -57.637207 41.189159
-65.840927 -49.287403 42.189034
-65.512276 -54.186073 39.878616
-65.044815 -58.464699 36.322525
-65.613403 -58.809765 31.271404
-65.975426 -58.233406 26.163055
-66.392212 -56.443417 21.081524
-64.8601 -52.978268 20.146708
-56.290867 -60.148129 50.376442
-57.231644 -60.872608 49.626614
-57.262058 -58.956036 50.377106
-51.720222 -76.202194 42.85355
-51.731163 -76.129845 40.536346
-53.005394 -74.577698 41.679478
-61.85284 -63.135822 37.846352
-61.042519 -64.763077 35.90934
-62.434242 -63.255844 35.304932
-62.974991 -63.255051 32.741013
-63.68483 -61.766167 34.776611
-52.492802 -74.026268 45.660149
-51.082893 -75.372604 46.480728
-51.516293 -75.958817 44.866886
-65.189247 -49.326118 34.64336
-64.349754 -49.786697 32.440598
-64.363174 -51.925995 31.16711
-55.135696 -68.512161 46.775528
-55.755054 -69.112747 45.106812
-56.314575 -67.079346 46.309311
-59.022556 -61.921558 46.848824
-58.630196 -63.966194 45.367737
-59.820305 -62.318298 44.911583
-60.552296 -62.652233 42.71172
-61.029655 -60.629913 44.458817
-54.674843 -65.41716 48.829433
-54.341141 -67.642868 48.022064
-53.889805 -69.843071 47.216797
-56.569221 -69.607544 40.811756
-55.526726 -71.231201 39.403114
-56.827232 -69.554962 38.367485
-63.955669 -62.729008 27.604311
-64.412735 -62.124676 25.044468
-64.860855 -61.255527 22.498486
-65.47374 -60.658653 24.522202
-59.141815 -55.602413 50.005325
-63.62516 -52.503944 46.088623
-62.603329 -54.411293 46.819206
-63.557819 -54.884037 44.952911
-63.340778 -57.168144 43.465122
-64.323425 -55.399906 42.853668
-65.780334 -52.973793 36.736626
-65.857132 -52.406948 39.023064
-65.694626 -54.725719 37.543098
-65.303246 -56.427383 38.217175
-65.547974 -56.846283 35.776085
-65.371483 -58.725704 33.809441
-65.666786 -57.127411 33.291569
-65.142014 -55.355576 27.717484
-65.694489 -57.045113 28.245602
-65.696167 -56.585705 25.702656
-66.16375 -57.496689 23.612656
-65.744522 -55.81049 23.160635
-66.069702 -53.333782 18.139055
-55.894836 -64.227859 48.771553
-56.738129 -64.997307 47.507481
-57.044411 -62.910248 48.640263
-58.155602 -61.447586 48.441597
-59.262276 -59.838264 48.176479
-51.596794 -75.78154 38.010818
-59.146561 -66.310852 39.133682
-58.186913 -67.909225 37.433823
-59.603703 -66.310638 36.614548
-60.035789 -66.187866 34.05468
-62.043644 -64.501282 30.776123
-63.479687 -63.093437 30.171515
-64.647675 -61.670269 29.647301
-50.398193 -74.433449 47.621979
-64.533997 -50.582203 45.175392
-65.593262 -51.172291 35.773689
-65.511551 -53.43195 34.390152
-65.569382 -55.460339 32.698902
-65.1129 -53.724125 31.998497
-64.654434 -53.796719 29.568737
-64.206108 -53.605637 27.105366
-53.800045 -72.584854 44.8018
-54.115517 -72.88736 42.798927
-55.03051 -71.059296 43.934654
-56.222733 -69.468765 43.088394
-57.418739 -67.83799 42.290352
-57.467609 -65.558701 45.83535
-58.098267 -65.947754 43.824097
-58.65078 -66.192352 41.561119
-59.927937 -64.552094 40.910156
-61.227203 -62.927521 40.33276
-62.493263 -61.316925 39.809669
-52.540863 -71.061783 47.617874
-53.282803 -71.981026 46.432369
-54.263664 -72.913811 40.517456
-57.028397 -69.332443 35.83017
-58.174026 -57.398384 50.263645
-59.315754 -57.732121 49.255733
-60.38311 -58.10614 47.833801
-61.466644 -54.002399 48.38147
-61.508118 -56.286629 47.391075
-61.354446 -58.502281 46.053055
-62.222015 -58.91161 43.987541
-62.985558 -59.321243 41.716087
-63.648048 -59.708313 39.30941
-65.257355 -51.165092 43.291458
-66.048508 -49.946175 40.150581
-65.693466 -51.787254 41.222103
-65.117599 -53.606079 42.116234
-64.901779 -55.928215 40.589714
-64.60791 -58.084183 38.792618
-64.214447 -60.038105 36.822159
-64.692932 -60.265263 34.291
-65.096863 -60.337288 31.737675
-65.445549 -60.200043 29.174616
-65.70015 -57.211727 30.778238
-65.802917 -58.661163 28.719522
-65.762794 -59.804951 26.610683
-66.07309 -59.116806 24.055218
-66.396606 -58.120522 21.519844
-66.744705 -56.824593 19.018354
-64.855438 -54.080704 22.667042
-65.865791 -54.719177 20.633848
-66.672363 -55.089806 18.584934
-56.817396 -58.750402 50.589066
-56.776463 -59.552082 50.376774
-56.3318 -59.346449 50.588734
-56.3318 -59.346449 50.588734
-55.831858 -59.610889 50.554508
-63.933931 -48.842327 31.840432
-64.490657 -48.614521 32.895866
-63.875706 -49.932289 31.318075
-63.933931 -48.842327 31.840432
-55.530397 -62.665247 49.628601
-55.637932 -61.59637 49.958285
-56.012825 -63.174894 49.217012
-55.412408 -63.718212 49.183141
-55.530397 -62.665247 49.628601
-52.937618 -74.212883 37.997119
-52.237002 -74.895981 37.364368
-52.297411 -75.098442 38.643569
-61.003864 -65.316529 32.41459
-60.244484 -66.058426 32.768903
-60.79517 -65.445968 33.700367
-61.799097 -64.602677 32.061088
-61.248411 -65.215134 31.129624
-61.003864 -65.316529 32.41459
-51.15036 -73.847881 47.338017
-50.732073 -73.298679 47.795231
-51.48424 -72.713112 47.511268
-50.321735 -75.996788 46.85875
-50.588699 -76.376331 46.163337
-64.482735 -49.339655 45.44911
-64.029518 -50.325884 45.993248
-64.151415 -52.897404 29.183986
-64.508804 -52.861357 30.367923
-64.005785 -51.962042 29.983173
-63.927252 -52.801863 27.952301
-64.430271 -53.701178 28.337052
-64.151415 -52.897404 29.183986
-52.77776 -69.928116 47.910296
-52.054046 -70.445263 47.973078
-54.906418 -71.963718 38.726849
-55.574613 -71.112781 38.147922
-61.898102 -64.520389 27.276645
-61.690281 -64.817757 28.560337
-65.590217 -59.921242 20.978982
-65.083847 -60.685181 21.237257
-65.367226 -60.491588 22.240212
-66.076271 -59.117018 20.726808
-65.590217 -59.921242 20.978982
-57.987201 -56.392788 50.479211
-57.58456 -57.280606 50.547382
-61.996334 -53.023708 48.037754
-61.338362 -52.837413 48.671914
-61.868051 -51.858722 48.328198
-65.572151 -48.973417 43.127411
-65.882187 -48.01633 42.473772
-65.549141 -50.226247 42.740246
-65.280365 -49.912261 43.678623
-65.572151 -48.973417 43.127411
-65.99971 -50.268795 39.075351
-66.126312 -49.016407 39.522003
-66.077515 -49.339027 38.446773
-64.213856 -52.656347 21.12699
-64.153 -52.115084 19.872993
-64.857769 -53.529486 21.406875
-64.211525 -53.207566 22.387158
-64.213856 -52.656347 21.12699
-66.836917 -54.281229 17.361913
-66.371033 -54.211794 18.361995
-66.535587 -53.403217 17.138973
-66.894813 -55.174881 17.575216
-66.836917 -54.281229 17.361913
-55.717958 -60.609471 50.315269
-55.831858 -59.610889 50.554508
-56.210841 -61.135029 50.019457
-55.637932 -61.59637 49.958285
-55.717958 -60.609471 50.315269
-51.725693 -76.16602 41.694948
-51.095894 -76.976315 41.164803
-51.090423 -77.012489 42.323404
-50.805399 -76.669438 45.356417
-50.588699 -76.376331 46.163337
-51.299593 -75.66571 45.673807
-50.950468 -76.86633 44.434404
-50.805399 -76.669438 45.356417
-51.052433 -76.988018 43.427736
-50.950468 -76.86633 44.434404
-51.618257 -76.080506 43.860218
-51.090423 -77.012489 42.323404
-51.052433 -76.988018 43.427736
-64.910404 -48.384231 33.997248
-65.37104 -48.09608 35.035055
-64.7695 -49.556407 33.541979
-64.910404 -48.384231 33.997248
-64.490657 -48.614521 32.895866
-63.882416 -51.001938 30.681331
-64.356464 -50.856346 31.803854
-63.875706 -49.932289 31.318075
-64.005785 -51.962042 29.983173
-63.882416 -51.001938 30.681331
-54.017001 -65.953647 48.820854
-54.146393 -64.799453 49.126297
-53.85015 -67.066502 48.417169
-54.017001 -65.953647 48.820854
-54.507992 -66.530014 48.425748
-53.677898 -68.218659 48.112391
-53.85015 -67.066502 48.417169
-54.115473 -68.74297 47.61943
-53.45223 -69.31876 47.709757
-53.677898 -68.218659 48.112391
-56.224867 -70.274662 37.630108
-55.574613 -71.112781 38.147922
-56.176979 -70.393081 38.8853
-57.854827 -68.341724 34.066187
-58.660206 -67.56762 33.593962
-63.466516 -63.131473 26.625384
-62.746437 -63.827924 26.927479
-63.23559 -63.425459 27.906405
-63.695049 -62.829307 25.345463
-63.466516 -63.131473 26.625384
-64.184202 -62.426842 26.324389
-63.924746 -62.418701 24.068912
-63.695049 -62.829307 25.345463
-64.636795 -61.690101 23.771477
-64.148806 -61.984127 22.795921
-63.924746 -62.418701 24.068912
-58.928726 -54.518728 50.189762
-58.471096 -55.494802 50.350051
-59.652446 -54.637197 49.792081
-58.928726 -54.518728 50.189762
-60.274108 -54.792017 49.236177
-59.763477 -55.757233 49.449421
-59.652446 -54.637197 49.792081
-66.043525 -48.346636 41.541761
-65.882187 -48.01633 42.473772
-64.919339 -52.285325 18.899956
-64.153 -52.115084 19.872993
-65.52414 -52.463082 17.89613
-65.464901 -53.156025 19.142882
-64.919339 -52.285325 18.899956
-66.209721 -52.513792 16.916551
-65.52414 -52.463082 17.89613
-66.535587 -53.403217 17.138973
-66.209721 -52.513792 16.916551
-54.802412 -64.312862 49.212081
-54.146393 -64.799453 49.126297
-55.28484 -64.822509 48.800493
-54.802412 -64.312862 49.212081
-55.412408 -63.718212 49.183141
-51.048268 -76.847095 39.927841
-51.095894 -76.976315 41.164803
-50.981083 -76.672943 38.665077
-51.048268 -76.847095 39.927841
-51.663978 -75.955692 39.273582
-50.874695 -76.41484 37.340557
-50.981083 -76.672943 38.665077
-51.485016 -75.49334 36.683525
-50.874695 -76.41484 37.340557
-51.485016 -75.49334 36.683525
-52.237002 -74.895981 37.364368
-59.424285 -66.797523 33.180546
-58.660206 -67.56762 33.593962
-59.271709 -66.957962 34.468096
-59.424285 -66.797523 33.180546
-60.244484 -66.058426 32.768903
-61.454347 -65.007442 29.844148
-61.248411 -65.215134 31.129624
-62.279578 -64.311596 29.492311
-61.690281 -64.817757 28.560337
-61.454347 -65.007442 29.844148
-49.928497 -73.79258 47.943033
-50.732073 -73.298679 47.795231
-49.584041 -74.965343 47.871643
-49.928497 -73.79258 47.943033
-49.979385 -75.52721 47.429375
-50.740543 -74.903026 47.051354
-50.321735 -75.996788 46.85875
-49.584041 -74.965343 47.871643
-49.979385 -75.52721 47.429375
-62.38668 -50.845821 47.916664
-61.868051 -51.858722 48.328198
-63.025532 -51.057291 47.252571
-62.38668 -50.845821 47.916664
-63.5751 -51.286755 46.449863
-63.075592 -52.27448 46.89133
-63.025532 -51.057291 47.252571
-64.079578 -51.543073 45.632008
-63.5751 -51.286755 46.449863
-64.029518 -50.325884 45.993248
-65.891784 -49.667182 37.399856
-66.077515 -49.339027 38.446773
-65.510952 -49.034534 35.721475
-65.37104 -48.09608 35.035055
-65.712959 -49.957621 36.28664
-65.510952 -49.034534 35.721475
-65.391255 -50.249205 35.208524
-65.772087 -50.881853 36.886905
-65.891784 -49.667182 37.399856
-65.712959 -49.957621 36.28664
-51.803408 -71.612847 47.793178
-52.054046 -70.445263 47.973078
-52.221695 -72.162048 47.335964
-51.48424 -72.713112 47.511268
-51.803408 -71.612847 47.793178
-53.215334 -70.452427 47.417336
-52.77776 -69.928116 47.910296
-53.45223 -69.31876 47.709757
-54.274887 -72.805024 39.284019
-54.895195 -72.072506 39.960285
-54.906418 -71.963718 38.726849
-53.642069 -73.55579 38.663452
-53.630846 -73.664578 39.896889
-54.274887 -72.805024 39.284019
-52.937618 -74.212883 37.997119
-53.642069 -73.55579 38.663452
-56.325449 -70.163402 36.361451
-56.224867 -70.274662 37.630108
-56.927814 -69.443703 37.098827
-57.115212 -69.143917 34.540516
-57.768013 -68.53025 35.355841
-57.854827 -68.341724 34.066187
-56.348339 -69.955642 35.070984
-57.115212 -69.143917 34.540516
-56.325449 -70.163402 36.361451
-56.348339 -69.955642 35.070984
-61.898102 -64.520389 27.276645
-62.746437 -63.827924 26.927479
-64.379921 -61.451338 21.527179
-64.148806 -61.984127 22.795921
-64.379921 -61.451338 21.527179
-65.083847 -60.685181 21.237257
-57.128576 -58.059432 50.604113
-56.817396 -58.750402 50.589066
-57.718042 -58.17721 50.320375
-57.128576 -58.059432 50.604113
-57.58456 -57.280606 50.547382
-58.657921 -56.500399 50.134485
-57.987201 -56.392788 50.479211
-58.471096 -55.494802 50.350051
-60.814861 -53.83719 48.980154
-61.338362 -52.837413 48.671914
-60.925892 -54.957225 48.637494
-60.274108 -54.792017 49.236177
-60.814861 -53.83719 48.980154
-64.918686 -49.620817 44.62059
-64.482735 -49.339655 45.44911
-64.895676 -50.873648 44.233425
-64.918686 -49.620817 44.62059
-65.280365 -49.912261 43.678623
-66.147316 -48.676022 40.522535
-66.126312 -49.016407 39.522003
-65.944717 -49.616789 41.169808
-66.043525 -48.346636 41.541761
-66.147316 -48.676022 40.522535
-66.337776 -58.313454 20.495762
-66.076271 -59.117018 20.726808
-66.135101 -58.924086 21.75089
-66.511826 -57.665489 19.245017
-66.337776 -58.313454 20.495762
-66.570656 -57.472558 20.269099
-66.717662 -56.921205 18.011748
-66.511826 -57.665489 19.245017
-63.588932 -52.709627 26.747755
-63.927252 -52.801863 27.952301
-64.01754 -53.363689 25.860003
-63.588932 -52.709627 26.747755
-64.393497 -53.998335 24.905166
-64.582065 -54.240282 26.150529
-64.01754 -53.363689 25.860003
-64.342205 -53.601223 23.64084
-64.211525 -53.207566 22.387158
-64.906731 -54.477816 23.931367
-64.393497 -53.998335 24.905166
-64.342205 -53.601223 23.64084
-66.930984 -56.042275 17.791926
-66.708534 -55.9572 18.801644
-66.894813 -55.174881 17.575216
-66.717662 -56.921205 18.011748
-66.930984 -56.042275 17.791926
3 157 41 158
3 159 158 39
3 157 158 159
3 160 39 161
3 0 44 42
3 1 47 45
3 1 49 47
3 0 52 50
3 0 42 52
3 162 54 163
3 165 164 54
3 2 58 56
3 4 61 59
3 4 63 61
3 2 65 64
3 2 56 65
3 3 69 67
3 5 71 70
3 5 73 71
3 6 77 75
3 6 79 77
3 7 82 80
3 7 84 82
3 7 86 84
3 8 89 87
3 8 91 89
3 9 95 93
3 11 96 40
3 11 97 96
3 9 166 167
3 9 168 170
3 168 93 169
3 168 169 170
3 12 98 43
3 12 171 173
3 173 172 98
3 171 172 173
3 13 101 99
3 15 102 46
3 15 174 176
3 176 175 102
3 174 175 176
3 15 177 179
3 177 103 178
3 177 178 179
3 17 104 48
3 17 105 104
3 18 180 182
3 180 106 181
3 180 181 182
3 184 183 51
3 185 107 186
3 21 108 53
3 21 109 108
3 21 111 109
3 187 112 188
3 189 188 55
3 187 188 189
3 190 113 191
3 192 191 112
3 190 191 192
3 23 116 114
3 25 117 57
3 25 118 117
3 10 119 94
3 26 120 60
3 26 121 120
3 26 122 121
3 27 123 62
3 27 124 123
3 193 125 194
3 23 126 66
3 23 114 126
3 24 127 115
3 196 195 68
3 14 128 100
3 16 197 198
3 28 199 201
3 201 200 72
3 199 200 201
3 28 202 203
3 204 129 205
3 29 130 74
3 29 131 130
3 19 206 208
3 206 132 207
3 206 207 208
3 30 133 76
3 30 134 133
3 30 135 134
3 31 136 78
3 31 137 136
3 32 209 210
3 32 211 213
3 211 138 212
3 211 212 213
3 20 214 216
3 214 139 215
3 214 215 216
3 33 140 81
3 33 141 140
3 33 142 141
3 34 143 83
3 34 144 143
3 34 145 144
3 35 146 85
3 35 147 146
3 22 148 110
3 36 149 88
3 36 150 149
3 36 151 150
3 37 152 90
3 37 153 152
3 38 217 218
3 38 219 221
3 219 154 220
3 219 220 221
3 38 155 154
3 222 156 223
3 224 223 92
3 222 223 224
3 226 225 156
3 39 40 9
3 41 40 39
3 41 11 40
3 39 227 228
3 39 229 231
3 229 9 230
3 229 230 231
3 42 232 234
3 232 43 233
3 232 233 234
3 44 43 42
3 44 12 43
3 45 46 13
3 47 46 45
3 47 15 46
3 47 48 15
3 49 48 47
3 49 17 48
3 50 51 18
3 52 51 50
3 52 235 237
3 237 236 51
3 235 236 237
3 52 238 239
3 42 240 242
3 242 241 52
3 240 241 242
3 42 243 244
3 245 53 246
3 54 247 249
3 247 53 248
3 247 248 249
3 54 21 53
3 54 55 21
3 250 55 251
3 252 251 54
3 250 251 252
3 254 253 55
3 56 57 23
3 58 57 56
3 58 25 57
3 59 60 10
3 61 60 59
3 61 26 60
3 61 62 26
3 63 62 61
3 63 27 62
3 64 255 256
3 65 257 259
3 259 258 64
3 257 258 259
3 65 260 261
3 65 262 264
3 262 66 263
3 262 263 264
3 56 66 65
3 56 23 66
3 67 68 24
3 69 68 67
3 69 265 267
3 267 266 68
3 265 266 267
3 269 268 14
3 70 270 272
3 272 271 16
3 270 271 272
3 71 273 275
3 275 274 70
3 273 274 275
3 71 276 277
3 71 278 280
3 278 72 279
3 278 279 280
3 73 72 71
3 73 28 72
3 281 74 282
3 283 74 284
3 285 29 286
3 287 286 74
3 285 286 287
3 75 76 19
3 77 76 75
3 77 30 76
3 77 78 30
3 79 78 77
3 79 31 78
3 288 32 289
3 80 81 20
3 82 81 80
3 82 33 81
3 82 83 33
3 84 83 82
3 84 34 83
3 84 85 34
3 86 85 84
3 86 35 85
3 87 88 22
3 89 88 87
3 89 36 88
3 89 90 36
3 91 90 89
3 91 37 90
3 290 38 291
3 292 92 293
3 294 293 38
3 292 293 294
3 295 92 296
3 298 297 92
3 93 94 2
3 95 94 93
3 95 10 94
3 40 95 9
3 96 95 40
3 96 10 95
3 96 59 10
3 97 59 96
3 97 4 59
3 299 64 300
3 93 301 303
3 301 64 302
3 301 302 303
3 93 2 64
3 43 304 305
3 98 306 308
3 308 307 43
3 306 307 308
3 98 309 310
3 98 311 312
3 314 313 98
3 99 100 3
3 101 100 99
3 101 14 100
3 46 101 13
3 102 101 46
3 102 14 101
3 102 315 317
3 317 316 14
3 315 316 317
3 319 318 102
3 103 320 321
3 103 322 324
3 322 16 323
3 322 323 324
3 48 103 15
3 104 103 48
3 104 16 103
3 104 70 16
3 105 70 104
3 105 5 70
3 106 325 326
3 106 327 328
3 51 106 18
3 329 106 330
3 331 330 51
3 329 330 331
3 333 332 106
3 334 19 335
3 336 19 337
3 338 75 339
3 340 339 19
3 338 339 340
3 107 341 343
3 341 75 342
3 341 342 343
3 107 6 75
3 344 20 345
3 53 346 347
3 108 348 350
3 350 349 53
3 348 349 350
3 108 351 353
3 351 20 352
3 351 352 353
3 108 80 20
3 109 80 108
3 109 7 80
3 109 110 7
3 111 110 109
3 111 22 110
3 55 111 21
3 112 111 55
3 112 22 111
3 112 87 22
3 113 87 112
3 113 8 87
3 114 115 0
3 116 115 114
3 116 24 115
3 57 116 23
3 117 116 57
3 117 24 116
3 117 67 24
3 118 67 117
3 118 3 67
3 94 58 2
3 119 58 94
3 119 25 58
3 60 119 10
3 120 119 60
3 120 25 119
3 120 118 25
3 121 118 120
3 121 3 118
3 121 99 3
3 122 99 121
3 122 13 99
3 62 122 26
3 123 122 62
3 123 13 122
3 123 45 13
3 124 45 123
3 124 1 45
3 125 354 355
3 125 356 358
3 356 18 357
3 356 357 358
3 66 359 361
3 359 125 360
3 359 360 361
3 126 125 66
3 126 18 125
3 126 50 18
3 114 50 126
3 114 0 50
3 115 44 0
3 127 44 115
3 127 12 44
3 68 127 24
3 362 127 363
3 364 363 68
3 362 363 364
3 365 12 366
3 367 366 127
3 365 366 367
3 369 368 12
3 100 69 3
3 128 69 100
3 128 370 372
3 372 371 69
3 370 371 372
3 373 128 374
3 375 374 14
3 373 374 375
3 376 128 377
3 379 378 128
3 381 380 16
3 72 382 383
3 385 384 72
3 386 41 387
3 129 388 390
3 388 41 389
3 388 389 390
3 129 11 41
3 74 391 393
3 391 129 392
3 391 392 393
3 130 129 74
3 130 11 129
3 130 97 11
3 131 97 130
3 131 4 97
3 132 394 395
3 132 396 398
3 396 29 397
3 396 397 398
3 76 132 19
3 133 132 76
3 133 29 132
3 133 131 29
3 134 131 133
3 134 4 131
3 134 63 4
3 135 63 134
3 135 27 63
3 78 135 30
3 136 135 78
3 136 27 135
3 136 124 27
3 137 124 136
3 137 1 124
3 399 107 400
3 138 401 403
3 401 107 402
3 401 402 403
3 138 6 107
3 139 404 405
3 139 406 408
3 406 32 407
3 406 407 408
3 81 139 20
3 140 139 81
3 140 32 139
3 140 138 32
3 141 138 140
3 141 6 138
3 141 79 6
3 142 79 141
3 142 31 79
3 83 142 33
3 143 142 83
3 143 31 142
3 143 137 31
3 144 137 143
3 144 1 137
3 144 49 1
3 145 49 144
3 145 17 49
3 85 145 34
3 146 145 85
3 146 17 145
3 146 105 17
3 147 105 146
3 147 5 105
3 110 86 7
3 148 86 110
3 148 35 86
3 88 148 22
3 149 148 88
3 149 35 148
3 149 147 35
3 150 147 149
3 150 5 147
3 150 73 5
3 151 73 150
3 151 28 73
3 90 151 36
3 152 151 90
3 152 28 151
3 152 409 411
3 411 410 28
3 409 410 411
3 153 412 414
3 414 413 152
3 412 413 414
3 153 415 416
3 417 113 418
3 419 113 420
3 421 8 422
3 423 422 113
3 421 422 423
3 154 424 425
3 154 426 428
3 426 8 427
3 426 427 428
3 154 91 8
3 155 91 154
3 155 37 91
3 92 155 38
3 156 155 92
3 156 37 155
3 156 153 37
3 429 153 430
3 431 430 156
3 429 430 431
3 433 432 153
