ply
format ascii 1.0
element vertex 332
property float x
property float y
property float z
element face 357
property list uchar int vertex_index
end_header
3.129343 -18.759716 51.199524
4.698549 -34.067749 51.210289
1.590399 -43.936737 47.391239
0.016348 -29.78319 46.657738
1.564367 -2.631432 51.638565
-1.336836 -13.380199 46.330704
4.010357 -26.638889 50.960297
2.487127 -31.955694 48.85424
1.72654 -24.23772 48.742546
-3.112738 -10.650192 43.297478
-2.641584 -19.264673 43.772079
-3.96501 -16.950161 40.509941
5.019217 -40.856728 52.07991
3.409195 -45.444855 50.229843
3.088934 -39.053322 49.341743
0.801565 -37.216389 46.937435
-1.265234 -35.416206 44.301407
2.248291 -10.689334 51.584404
0.923079 -16.126425 48.854965
0.220676 -7.893178 48.879723
-1.804213 -4.948284 45.895012
-3.437815 -2.045382 42.412971
5.396347 -28.944668 53.726494
4.535473 -21.271809 53.87529
3.827644 -15.81496 57.709991
3.608416 -13.305792 54.419708
-0.706306 -21.750168 46.497726
-2.042875 -27.61694 44.070415
3.582405 -22.739752 51.035614
2.937452 -25.450813 49.816277
2.514416 -21.491041 49.88916
-3.808516 -9.358706 41.583546
-3.597582 -13.724793 41.934216
-4.212526 -12.553713 40.189331
4.91507 -37.549416 51.56797
4.135246 -39.962757 50.632713
3.946428 -36.578663 50.236572
1.237356 -30.874313 47.776615
1.604874 -34.591335 47.921722
0.402842 -33.586304 46.778717
-0.290754 -36.306381 45.675285
-0.712286 -32.585197 45.549526
1.87085 -6.651355 51.683167
1.27507 -9.315526 50.242935
0.949034 -5.250346 50.225601
-1.028368 -2.289028 47.157291
-1.949247 -0.766378 45.47168
-2.673037 -3.474983 44.21814
-2.780523 0.741974 43.662102
5.210602 -26.339207 55.352661
4.987148 -25.160757 53.725662
4.773809 -22.495005 55.456253
3.871906 -14.568644 55.99736
3.452755 -10.549077 56.307266
3.182774 -9.289171 54.684654
2.526873 -44.688065 48.786644
1.937712 -47.042244 47.70092
-0.244789 -14.762459 47.643948
0.107683 -18.909472 47.653828
-1.036413 -17.588482 46.428303
-3.100363 -22.370827 42.401672
-2.359831 -23.493073 43.933517
-2.809114 -26.573921 42.563805
4.38982 -30.424147 51.010788
3.671904 -33.021282 49.971573
3.32955 -29.304409 49.835648
2.119722 -28.162817 48.757271
0.859608 -27.001698 47.693657
0.699553 -1.20664 50.04834
0.646948 -43.203247 45.981155
-2.297674 -12.000427 44.88401
-2.045069 -16.267851 45.070618
-2.892809 -14.971167 43.568893
-3.36133 -18.074545 42.197952
4.993906 -43.984337 52.730507
4.190645 -46.19598 51.7827
4.221361 -43.168087 51.152985
3.29261 -42.337105 49.737732
2.265678 -41.499634 48.423782
2.81506 -35.590996 49.047142
1.95224 -38.135201 48.136154
1.203197 -40.665409 47.139412
0.166708 -39.845123 45.816383
-0.788853 -39.049698 44.40345
2.676044 -14.732854 51.402184
2.080996 -17.460001 50.017738
1.65991 -13.391956 50.154243
0.549076 -12.010609 48.903168
-0.562185 -10.594247 47.589325
-0.04327 -3.791995 48.731766
-0.828156 -6.430799 47.442932
-1.596735 -9.15842 46.16724
-2.509756 -7.727944 44.612953
-3.296556 -6.33359 42.924198
-3.530615 2.19829 41.73119
5.681629 -41.729553 53.733421
5.650644 -38.499046 53.100708
5.487234 -35.092785 52.636795
5.736694 -32.596169 53.910118
5.213333 -31.521553 52.35331
4.852972 -27.80299 52.246521
4.430984 -23.961786 52.296486
3.972677 -20.028431 52.467361
4.319586 -18.560846 55.690804
4.067375 -17.309422 54.127022
3.503971 -16.036161 52.708984
3.051132 -12.016472 52.960213
2.639406 -7.9946 53.154366
1.322054 -20.213486 48.786575
0.479919 -23.00164 47.659882
-0.354076 -25.82748 46.567825
-1.758959 -20.497721 45.208038
-1.442705 -24.652151 45.323311
-1.095186 -28.692535 45.433952
-1.681429 -31.600367 44.191689
-4.326483 -10.353312 39.975796
-4.010521 -10.956209 40.886438
-4.124477 -8.755809 40.672903
-1.98763 1.305621 45.166752
-1.55137 0.527737 46.081345
-2.403269 2.059798 44.261963
-2.364885 -0.012202 44.566891
-1.98763 1.305621 45.166752
4.945693 -25.020035 56.286735
5.154438 -26.918527 56.267632
4.727296 -23.097934 56.338532
4.992205 -24.417106 55.404457
4.945693 -25.020035 56.286735
3.266968 -9.147685 57.319744
3.442788 -11.168798 57.173572
3.266868 -8.53817 56.427971
3.266968 -9.147685 57.319744
-3.113187 -26.077557 41.749584
-2.954739 -24.472374 42.482738
-3.258812 -23.976011 41.668518
-2.956024 -28.155744 41.818549
-3.113187 -26.077557 41.749584
0.476328 -44.489919 45.301861
0.194449 -42.851433 45.243455
-3.833 -19.128014 40.630832
-3.531161 -19.690206 41.474838
-3.66317 -17.512353 41.353946
-1.443512 -36.852799 43.588293
-1.205322 -38.669545 43.639314
-1.027043 -37.232952 44.352429
-0.136186 -1.754137 48.571724
0.328141 -2.499318 49.390053
0.235226 -0.46146 49.230011
-3.713528 -3.526348 41.763267
-3.642898 -5.670452 42.018881
-3.367185 -4.189486 42.668584
-3.550714 4.293102 41.293215
-3.179409 3.555624 42.323227
5.882404 -42.153338 54.674499
5.622305 -43.254652 54.12154
5.816126 -37.296577 53.695965
5.877828 -38.961479 53.983597
5.734421 -35.593447 53.464008
5.568939 -36.795915 52.868752
5.816126 -37.296577 53.695965
5.56652 -30.770419 53.818306
5.670637 -31.330279 54.667301
5.500464 -29.504528 54.575489
3.66218 -16.432973 58.634502
3.483801 -14.416702 58.798042
4.038819 -17.805683 57.562412
3.66218 -16.432973 58.634502
4.073615 -17.187903 56.700398
4.28479 -19.178626 56.552819
4.038819 -17.805683 57.562412
2.725465 -6.637322 54.003422
2.91109 -8.641886 53.91951
2.997149 -7.284608 54.768566
2.464994 -5.990606 53.190278
2.725465 -6.637322 54.003422
3.416253 -46.914852 50.519149
3.806978 -47.290415 51.295578
3.79992 -45.820417 51.006271
-1.090931 -0.233588 46.92415
-0.628734 -1.002654 47.784486
-1.488808 -1.527703 46.314486
-1.090931 -0.233588 46.92415
-1.55137 0.527737 46.081345
5.407591 -28.201797 55.388572
5.154438 -26.918527 56.267632
5.303475 -27.641937 54.539578
5.500464 -29.504528 54.575489
5.407591 -28.201797 55.388572
3.630232 -13.80174 57.874935
3.483801 -14.416702 58.798042
3.652363 -13.178581 57.018619
3.849775 -15.191802 56.853676
3.630232 -13.80174 57.874935
3.66233 -12.558861 56.152313
3.652363 -13.178581 57.018619
3.442788 -11.168798 57.173572
3.131877 -7.908216 55.616665
3.317765 -9.919124 55.49596
3.266868 -8.53817 56.427971
2.997149 -7.284608 54.768566
3.131877 -7.908216 55.616665
2.620584 -46.199442 49.005893
3.061745 -46.577837 49.727493
2.968034 -45.06646 49.508244
2.326003 -47.376531 48.463031
2.620584 -46.199442 49.005893
2.232293 -45.865155 48.243782
2.07593 -48.520454 47.888745
2.326003 -47.376531 48.463031
-2.642375 -28.610111 42.629013
-2.259256 -29.131621 43.382318
-2.425994 -27.09543 43.31711
-2.642375 -28.610111 42.629013
-2.956024 -28.155744 41.818549
1.020871 0.079844 50.724602
1.13196 -1.919036 50.843452
1.453279 -0.632553 51.519714
0.618063 0.802892 49.858307
1.020871 0.079844 50.724602
0.235226 -0.46146 49.230011
0.618063 0.802892 49.858307
0.885568 -44.79808 46.081696
1.357294 -45.164825 46.786738
1.118673 -43.569992 46.686197
0.885568 -44.79808 46.081696
0.476328 -44.489919 45.301861
-3.400677 -21.838347 41.576698
-3.230847 -20.222686 42.299812
-3.531161 -19.690206 41.474838
-3.258812 -23.976011 41.668518
-3.400677 -21.838347 41.576698
4.592275 -45.090159 52.256603
4.509308 -46.56447 52.638561
4.910939 -45.458649 53.112465
-0.04567 -41.172371 45.161069
0.194449 -42.851433 45.243455
0.406828 -41.524185 45.898769
-0.523451 -40.774659 44.454603
-0.04567 -41.172371 45.161069
-0.311073 -39.447411 45.109916
-0.936458 -40.442749 43.669349
-0.523451 -40.774659 44.454603
-0.936458 -40.442749 43.669349
-1.205322 -38.669545 43.639314
-0.535819 -3.040512 47.944529
-0.136186 -1.754137 48.571724
-0.628734 -1.002654 47.784486
-3.898878 -7.18301 41.348555
-3.552536 -7.846148 42.253872
-3.642898 -5.670452 42.018881
-4.124477 -8.755809 40.672903
-3.898878 -7.18301 41.348555
-2.804363 2.827466 43.288683
-2.403269 2.059798 44.261963
-3.155569 1.470132 42.696646
-2.804363 2.827466 43.288683
-3.179409 3.555624 42.323227
-3.881943 2.882544 40.710668
-3.550714 4.293102 41.293215
-3.831835 0.752255 41.111365
-3.881943 2.882544 40.710668
-3.785435 -1.369581 41.452255
-3.484215 0.076454 42.07208
-3.831835 0.752255 41.111365
-3.713528 -3.526348 41.763267
-3.785435 -1.369581 41.452255
5.278443 -44.382044 53.620083
4.910939 -45.458649 53.112465
5.337767 -42.856945 53.231964
5.278443 -44.382044 53.620083
5.622305 -43.254652 54.12154
5.89332 -40.576733 54.299954
5.882404 -42.153338 54.674499
5.666137 -40.1143 53.417064
5.89332 -40.576733 54.299954
5.877828 -38.961479 53.983597
5.832901 -33.121567 54.804428
5.670637 -31.330279 54.667301
5.859151 -34.345139 54.10067
5.832901 -33.121567 54.804428
5.611964 -33.844477 53.273456
5.734421 -35.593447 53.464008
5.859151 -34.345139 54.10067
4.511902 -21.145705 56.435543
4.727296 -23.097934 56.338532
4.546698 -20.527926 55.573528
4.511902 -21.145705 56.435543
4.28479 -19.178626 56.552819
2.080716 -5.318983 52.454678
2.255128 -7.322978 52.418767
2.464994 -5.990606 53.190278
1.927474 -3.309022 52.432377
1.717608 -4.641393 51.660866
2.080716 -5.318983 52.454678
1.792212 -1.315335 52.378956
1.927474 -3.309022 52.432377
1.453279 -0.632553 51.519714
1.792212 -1.315335 52.378956
4.112617 -47.62455 52.141751
4.509308 -46.56447 52.638561
4.112617 -47.62455 52.141751
3.806978 -47.290415 51.295578
3.416253 -46.914852 50.519149
3.061745 -46.577837 49.727493
1.530951 -46.717579 46.941578
1.764055 -45.489491 47.54608
1.357294 -45.164825 46.786738
1.749602 -48.23744 47.068112
1.530951 -46.717579 46.941578
2.07593 -48.520454 47.888745
1.749602 -48.23744 47.068112
-2.078533 -31.123334 43.442955
-1.862152 -29.608653 44.131052
-2.259256 -29.131621 43.382318
-1.882895 -33.079053 43.494362
-2.078533 -31.123334 43.442955
-1.674797 -34.986973 43.549221
-1.473332 -33.508286 44.246548
-1.882895 -33.079053 43.494362
-1.443512 -36.852799 43.588293
-1.674797 -34.986973 43.549221
-4.509445 -12.01585 39.272396
-4.326483 -10.353312 39.975796
-4.367874 -14.231897 39.461836
-4.509445 -12.01585 39.272396
-4.244116 -16.430121 39.622141
-4.088768 -14.751937 40.349636
-4.367874 -14.231897 39.461836
-4.097033 -18.632582 39.761957
-4.244116 -16.430121 39.622141
-3.833 -19.128014 40.630832
-4.097033 -18.632582 39.761957
3 0 30 28
3 115 33 116
3 117 116 31
3 115 116 117
3 1 36 34
3 3 39 37
3 3 41 39
3 4 44 42
3 118 46 119
3 120 48 121
3 122 121 46
3 120 121 122
3 123 49 124
3 125 51 126
3 127 126 49
3 125 126 127
3 128 53 129
3 131 130 53
3 2 56 55
3 5 59 57
3 132 62 133
3 134 133 60
3 132 133 134
3 136 135 62
3 6 65 63
3 8 66 29
3 8 67 66
3 138 137 69
3 9 72 70
3 11 73 32
3 11 139 141
3 141 140 73
3 139 140 141
3 12 76 74
3 14 77 35
3 14 78 77
3 7 79 64
3 15 80 38
3 15 81 80
3 15 82 81
3 16 83 40
3 16 142 144
3 144 143 83
3 142 143 144
3 17 86 84
3 19 87 43
3 19 88 87
3 145 89 146
3 147 146 68
3 145 146 147
3 20 90 45
3 20 91 90
3 20 92 91
3 21 93 47
3 21 148 150
3 150 149 93
3 148 149 150
3 151 94 152
3 153 95 154
3 155 96 156
3 157 97 158
3 159 158 96
3 157 158 159
3 22 160 162
3 160 98 161
3 160 161 162
3 22 99 98
3 22 100 99
3 23 101 50
3 23 102 101
3 24 163 164
3 24 165 166
3 24 167 169
3 167 103 168
3 167 168 169
3 25 104 52
3 25 105 104
3 25 106 105
3 170 107 171
3 172 171 54
3 170 171 172
3 174 173 107
3 13 175 177
3 177 176 75
3 175 176 177
3 18 108 85
3 26 109 58
3 26 110 109
3 10 111 71
3 27 112 61
3 27 113 112
3 27 114 113
3 28 29 6
3 30 29 28
3 30 8 29
3 31 32 9
3 33 32 31
3 33 11 32
3 34 35 12
3 36 35 34
3 36 14 35
3 37 38 7
3 39 38 37
3 39 15 38
3 39 40 15
3 41 40 39
3 41 16 40
3 42 43 17
3 44 43 42
3 44 19 43
3 178 45 179
3 46 180 182
3 180 45 181
3 180 181 182
3 46 20 45
3 46 47 20
3 48 47 46
3 48 21 47
3 49 183 184
3 49 185 187
3 185 22 186
3 185 186 187
3 49 50 22
3 51 50 49
3 51 23 50
3 188 24 189
3 190 52 191
3 192 191 24
3 190 191 192
3 53 193 195
3 193 52 194
3 193 194 195
3 53 25 52
3 53 54 25
3 196 54 197
3 198 197 53
3 196 197 198
3 200 199 54
3 55 201 203
3 203 202 13
3 201 202 203
3 56 204 206
3 206 205 55
3 204 205 206
3 56 207 208
3 57 58 18
3 59 58 57
3 59 26 58
3 60 61 10
3 62 61 60
3 62 27 61
3 62 209 211
3 211 210 27
3 209 210 211
3 213 212 62
3 63 64 1
3 65 64 63
3 65 7 64
3 29 65 6
3 66 65 29
3 66 7 65
3 66 37 7
3 67 37 66
3 67 3 37
3 214 68 215
3 216 215 4
3 214 215 216
3 217 68 218
3 220 219 68
3 69 221 223
3 223 222 2
3 221 222 223
3 225 224 69
3 70 71 5
3 72 71 70
3 72 10 71
3 32 72 9
3 73 72 32
3 73 10 72
3 73 60 10
3 226 60 227
3 228 227 73
3 226 227 228
3 230 229 60
3 74 231 233
3 231 75 232
3 231 232 233
3 76 75 74
3 76 13 75
3 35 76 12
3 77 76 35
3 77 13 76
3 77 55 13
3 78 55 77
3 78 2 55
3 64 36 1
3 79 36 64
3 79 14 36
3 38 79 7
3 80 79 38
3 80 14 79
3 80 78 14
3 81 78 80
3 81 2 78
3 81 69 2
3 82 69 81
3 82 234 236
3 236 235 69
3 234 235 236
3 40 82 15
3 83 82 40
3 83 237 239
3 239 238 82
3 237 238 239
3 83 240 241
3 243 242 83
3 84 85 0
3 86 85 84
3 86 18 85
3 43 86 17
3 87 86 43
3 87 18 86
3 87 57 18
3 88 57 87
3 88 5 57
3 68 44 4
3 89 44 68
3 89 19 44
3 45 244 246
3 244 89 245
3 244 245 246
3 90 89 45
3 90 19 89
3 90 88 19
3 91 88 90
3 91 5 88
3 91 70 5
3 92 70 91
3 92 9 70
3 47 92 20
3 93 92 47
3 93 9 92
3 93 31 9
3 247 31 248
3 249 248 93
3 247 248 249
3 251 250 31
3 252 48 253
3 94 254 256
3 254 48 255
3 254 255 256
3 94 21 48
3 257 94 258
3 259 94 260
3 261 21 262
3 263 262 94
3 261 262 263
3 265 264 21
3 266 74 267
3 95 268 270
3 268 74 269
3 268 269 270
3 95 12 74
3 271 95 272
3 96 273 275
3 273 95 274
3 273 274 275
3 96 12 95
3 96 34 12
3 97 34 96
3 97 1 34
3 98 276 277
3 98 278 279
3 98 280 282
3 280 97 281
3 280 281 282
3 99 97 98
3 99 1 97
3 99 63 1
3 100 63 99
3 100 6 63
3 50 100 22
3 101 100 50
3 101 6 100
3 101 28 6
3 102 28 101
3 102 0 28
3 283 51 284
3 103 285 287
3 285 51 286
3 285 286 287
3 103 23 51
3 52 103 24
3 104 103 52
3 104 23 103
3 104 102 23
3 105 102 104
3 105 0 102
3 105 84 0
3 106 84 105
3 106 17 84
3 54 106 25
3 107 106 54
3 107 17 106
3 107 42 17
3 288 42 289
3 290 289 107
3 288 289 290
3 291 4 292
3 293 292 42
3 291 292 293
3 294 4 295
3 297 296 4
3 75 298 299
3 301 300 75
3 303 302 13
3 304 56 305
3 306 305 2
3 304 305 306
3 307 56 308
3 310 309 56
3 85 30 0
3 108 30 85
3 108 8 30
3 58 108 18
3 109 108 58
3 109 8 108
3 109 67 8
3 110 67 109
3 110 3 67
3 71 59 5
3 111 59 71
3 111 26 59
3 61 111 10
3 112 111 61
3 112 26 111
3 112 110 26
3 113 110 112
3 113 3 110
3 113 41 3
3 114 41 113
3 114 16 41
3 311 114 312
3 313 312 27
3 311 312 313
3 314 114 315
3 316 16 317
3 318 317 114
3 316 317 318
3 320 319 16
3 321 33 322
3 323 33 324
3 325 11 326
3 327 326 33
3 325 326 327
3 328 11 329
3 331 330 11
