ply
format ascii 1.0
element vertex 328
property float x
property float y
property float z
element face 349
property list uchar int vertex_index
end_header
19.714016 -99.457817 36.411613
15.413905 -94.26059 50.21991
31.964926 -101.650589 23.236652
28.430477 -84.7173 44.649582
21.589182 -87.750664 45.79546
27.143505 -93.828293 32.426712
22.781719 -105.773209 23.776035
12.382277 -100.22718 47.699196
25.210606 -81.796783 50.504738
17.934649 -96.652657 43.517605
18.388275 -91.030136 47.953091
21.105633 -93.266029 40.674858
24.518368 -90.31485 38.706383
23.351521 -96.228897 33.652622
25.393726 -99.70887 27.541561
21.172241 -102.542801 29.636211
15.005198 -99.258141 46.189568
16.321039 -102.296349 39.722771
17.111412 -105.348724 32.876549
29.72348 -106.458405 18.532627
31.470282 -88.653214 39.686119
18.334007 -86.199425 52.996864
21.734661 -83.400078 51.399315
24.994141 -85.489143 44.550068
28.055502 -88.756668 38.333809
30.862095 -92.892319 33.180683
29.584484 -97.851234 27.321144
27.492861 -103.321075 22.594767
18.896004 -98.011253 39.969994
19.489307 -94.983658 42.048622
20.553833 -96.334084 38.432003
22.273075 -94.665688 37.08469
21.505394 -97.811714 34.892914
22.394405 -99.393707 31.521128
20.45092 -100.973579 32.93819
12.975662 -101.967339 45.200985
13.646273 -99.977425 47.137619
14.321371 -101.598724 44.299141
15.770793 -100.766502 43.046211
14.741806 -103.219528 41.215912
14.995246 -104.815773 37.951633
30.925457 -104.028442 20.747658
28.519403 -83.001091 47.690605
30.092949 -84.782578 45.192245
29.981049 -86.585503 42.044777
15.300529 -91.808144 52.423523
19.958694 -89.322853 46.804642
18.379498 -88.491257 50.419464
19.998898 -86.861282 49.42939
20.01564 -84.68158 52.138245
21.670326 -85.429329 48.5756
23.381929 -84.298317 47.935631
23.273598 -86.442863 45.020302
25.86307 -91.972542 35.431343
26.285748 -89.331841 38.296299
27.68885 -91.164024 35.280602
29.489594 -90.754921 35.615143
29.030418 -93.178589 32.556572
30.322813 -95.287415 30.128166
28.377766 -95.816093 29.724365
24.18169 -102.761597 25.534859
26.42588 -101.530922 24.928257
25.150631 -104.47094 22.969202
26.186476 -106.12014 20.660402
23.727209 -107.372871 21.247553
11.44342 -98.501717 49.896957
11.234041 -99.994675 47.828323
11.761805 -101.846939 45.6744
32.813896 -99.347351 26.009335
26.919514 -81.476028 50.401367
26.832771 -83.111725 47.484089
16.782043 -95.39991 46.961128
16.87513 -92.724541 49.130325
18.270992 -93.778381 45.645721
19.817368 -92.051781 44.330288
21.426094 -90.375778 43.140701
23.095963 -88.900314 42.189312
22.784691 -91.661201 39.524914
24.048321 -93.167145 36.052376
25.239117 -94.862816 32.804176
26.383965 -96.70163 29.836853
24.379112 -97.923737 30.455002
23.27211 -101.054344 28.387703
21.935715 -104.150238 26.570927
14.003334 -95.512787 51.110641
12.663239 -98.381599 49.692123
13.970032 -97.79425 49.08992
15.34709 -96.775604 48.14838
16.4389 -98.119804 44.943214
17.300251 -99.535538 41.557034
17.983555 -101.002831 38.071476
18.561417 -102.50309 34.579926
16.737034 -103.826942 36.301666
16.814388 -90.187286 51.451683
23.474167 -82.429588 50.841713
25.111935 -83.52552 47.563465
26.723194 -84.923775 44.42495
24.814098 -87.745949 41.565228
26.555672 -86.982857 41.326492
28.288019 -86.616814 41.493317
29.79248 -88.562065 38.813629
31.231588 -90.683243 36.400642
31.580267 -97.383263 27.965126
30.778048 -99.832954 25.179884
27.509592 -98.621849 27.174711
28.636835 -100.54612 24.806402
29.776005 -102.382248 22.68737
28.596104 -104.994881 20.48815
27.277836 -107.629967 18.546864
19.11338 -104.025612 31.176834
19.712463 -105.566551 27.945145
13.796975 -102.646114 43.35755
13.648516 -101.783031 44.750063
13.124121 -102.830421 43.808472
14.007193 -103.456516 41.815935
14.531588 -102.409126 42.757526
13.796975 -102.646114 43.35755
14.053468 -104.298786 40.299837
14.007193 -103.456516 41.815935
32.553853 -102.422443 22.324584
32.996417 -101.355358 23.71112
31.445191 -102.839516 21.992155
32.034119 -103.61137 21.080087
32.553853 -102.422443 22.324584
15.357217 -93.034367 51.321717
14.568095 -92.514996 52.828583
14.624783 -93.741219 51.726776
10.723962 -99.647385 47.67796
10.779188 -99.074318 48.758987
11.282817 -102.513004 44.617612
11.232669 -101.547264 45.682514
11.855068 -102.763661 44.446243
11.282817 -102.513004 44.617612
33.139879 -98.240441 27.524731
33.766024 -99.166439 26.609516
26.06506 -81.636405 50.453052
26.12156 -80.849266 51.843464
25.267105 -81.009644 51.89515
13.326536 -95.949845 51.409702
13.213196 -94.916313 52.451629
15.090829 -105.596119 36.270692
14.182194 -105.911407 37.060361
30.290273 -107.040059 17.588532
30.899265 -105.921608 18.718855
29.062378 -107.685623 17.540358
30.290273 -107.040059 17.588532
32.274368 -88.770352 40.274521
31.543512 -87.712559 41.303613
32.182507 -89.739258 38.622341
32.274368 -88.770352 40.274521
17.516119 -87.021313 53.44688
17.538865 -88.167229 52.15818
18.356752 -87.345341 51.708164
17.473059 -85.952076 54.705986
17.516119 -87.021313 53.44688
18.329793 -85.173134 54.308284
17.473059 -85.952076 54.705986
20.90251 -83.076652 53.12658
20.042999 -83.717403 53.496044
20.875151 -84.040829 51.76878
21.78339 -82.505321 52.790261
20.90251 -83.076652 53.12658
22.604414 -82.914833 51.120514
22.653143 -82.020076 52.51146
21.78339 -82.505321 52.790261
31.735847 -92.883892 33.708264
31.920594 -91.779354 35.318243
31.046841 -91.787781 34.790662
31.522768 -93.976117 32.093645
31.735847 -92.883892 33.708264
26.021354 -108.25977 18.745678
26.732156 -106.875054 19.603633
25.475674 -107.504856 19.802447
26.573298 -108.938175 17.672151
26.021354 -108.25977 18.745678
18.891283 -106.974121 27.158878
18.622438 -106.21547 28.742871
20.063019 -106.343708 26.444302
18.891283 -106.974121 27.158878
24.400669 -81.281623 52.077084
25.267105 -81.009644 51.89515
14.180187 -105.096908 38.667698
14.868526 -104.017651 39.583773
14.053468 -104.298786 40.299837
14.182194 -105.911407 37.060361
14.180187 -105.096908 38.667698
31.500253 -104.706626 19.826371
32.034119 -103.61137 21.080087
30.324469 -105.243424 19.640143
30.899265 -105.921608 18.718855
31.500253 -104.706626 19.826371
29.338229 -83.046539 47.91745
28.551075 -82.197884 49.103477
30.125002 -83.937283 46.66827
29.338229 -83.046539 47.91745
29.306176 -83.891835 46.441425
30.897355 -84.88696 45.589891
30.125002 -83.937283 46.66827
30.854846 -85.777241 44.056676
30.897355 -84.88696 45.589891
30.798896 -86.678704 42.482943
30.854846 -85.777241 44.056676
30.036999 -85.684041 43.618511
30.725665 -87.619359 40.865448
31.543512 -87.712559 41.303613
30.798896 -86.678704 42.482943
14.435878 -91.398579 53.945587
14.568095 -92.514996 52.828583
15.205501 -90.645733 53.586937
14.435878 -91.398579 53.945587
24.24604 -108.131222 20.096023
25.475674 -107.504856 19.802447
24.956843 -106.746506 20.953978
17.321912 -106.106556 31.208572
16.264928 -106.627887 32.050488
10.883878 -98.327839 49.793304
10.804238 -97.653618 50.850769
11.338731 -99.248196 48.86264
10.883878 -98.327839 49.793304
10.779188 -99.074318 48.758987
10.968787 -100.621132 46.759475
10.723962 -99.647385 47.67796
11.497923 -100.920807 46.751362
10.968787 -100.621132 46.759475
11.232669 -101.547264 45.682514
12.461996 -102.82386 44.209536
12.368734 -101.907139 45.437692
11.855068 -102.763661 44.446243
13.124121 -102.830421 43.808472
12.461996 -102.82386 44.209536
33.420902 -100.203739 25.097461
33.766024 -99.166439 26.609516
32.389411 -100.49897 24.622993
32.996417 -101.355358 23.71112
33.420902 -100.203739 25.097461
26.9654 -80.705517 51.747257
26.12156 -80.849266 51.843464
27.751131 -81.435352 50.458859
26.9654 -80.705517 51.747257
27.719459 -82.23856 49.045986
28.551075 -82.197884 49.103477
27.751131 -81.435352 50.458859
13.919498 -94.367317 52.172142
13.213196 -94.916313 52.451629
14.70862 -94.886688 50.665275
14.624783 -93.741219 51.726776
13.919498 -94.367317 52.172142
11.404592 -97.663395 50.923157
10.804238 -97.653618 50.850769
12.014502 -97.603336 50.82074
11.404592 -97.663395 50.923157
12.05333 -98.441658 49.79454
12.656489 -97.384251 50.700443
12.014502 -97.603336 50.82074
13.309885 -97.090576 50.399341
12.656489 -97.384251 50.700443
13.316636 -98.087924 49.391022
13.986683 -96.653519 50.10028
13.326536 -95.949845 51.409702
13.309885 -97.090576 50.399341
15.961724 -105.101703 35.445709
15.86614 -104.321358 37.126649
15.090829 -105.596119 36.270692
16.148913 -105.862595 33.73315
16.924223 -104.587833 34.589107
15.961724 -105.101703 35.445709
16.264928 -106.627887 32.050488
16.148913 -105.862595 33.73315
15.96243 -89.835304 53.101017
15.205501 -90.645733 53.586937
16.057458 -90.997715 51.937603
16.75631 -89.015243 52.67429
17.596943 -89.339271 50.935574
17.538865 -88.167229 52.15818
15.96243 -89.835304 53.101017
16.75631 -89.015243 52.67429
19.17061 -84.414211 53.878975
18.329793 -85.173134 54.308284
19.174824 -85.440503 52.567554
19.17061 -84.414211 53.878975
20.042999 -83.717403 53.496044
23.53245 -81.598026 52.245571
22.653143 -82.020076 52.51146
24.342386 -82.113186 50.673226
24.400669 -81.281623 52.077084
23.53245 -81.598026 52.245571
32.063161 -90.754272 36.979602
32.182507 -89.739258 38.622341
31.350935 -89.668228 38.04338
32.063161 -90.754272 36.979602
31.920594 -91.779354 35.318243
31.253127 -95.173665 30.567386
31.522768 -93.976117 32.093645
30.592454 -94.089867 31.654425
31.881854 -96.221588 29.485867
31.253127 -95.173665 30.567386
30.95154 -96.335339 29.046646
32.523065 -97.258397 28.502626
31.881854 -96.221588 29.485867
32.197081 -98.365307 26.987231
33.139879 -98.240441 27.524731
32.523065 -97.258397 28.502626
27.839556 -108.271404 17.547477
29.062378 -107.685623 17.540358
28.500658 -107.044186 18.539746
27.839556 -108.271404 17.547477
26.573298 -108.938175 17.672151
18.322896 -105.445 30.358715
18.112396 -104.687168 32.026691
17.321912 -106.106556 31.208572
19.412921 -104.796081 29.560989
18.322896 -105.445 30.358715
18.622438 -106.21547 28.742871
21.174645 -105.635551 25.757193
20.824089 -104.858395 27.258036
20.063019 -106.343708 26.444302
21.597648 -106.447037 24.359748
22.358717 -104.961724 25.173481
21.174645 -105.635551 25.757193
22.013662 -107.222206 22.98583
21.597648 -106.447037 24.359748
22.486407 -108.022038 21.721589
23.254464 -106.57304 22.511794
22.013662 -107.222206 22.98583
22.967976 -108.775925 20.466857
22.486407 -108.022038 21.721589
24.24604 -108.131222 20.096023
22.967976 -108.775925 20.466857
3 0 30 28
3 0 32 30
3 0 34 32
3 111 37 112
3 113 112 35
3 111 112 113
3 114 39 115
3 116 115 37
3 114 115 116
3 118 117 39
3 2 119 120
3 2 121 123
3 121 41 122
3 121 122 123
3 3 43 42
3 3 44 43
3 1 124 126
3 124 45 125
3 124 125 126
3 4 48 46
3 4 50 48
3 4 52 50
3 5 55 53
3 5 57 55
3 5 59 57
3 6 62 60
3 6 64 62
3 127 66 128
3 129 67 130
3 132 131 67
3 133 68 134
3 8 135 137
3 135 69 136
3 135 136 137
3 8 70 69
3 9 73 71
3 11 74 29
3 11 75 74
3 11 77 75
3 13 78 31
3 13 79 78
3 13 81 79
3 15 82 33
3 15 83 82
3 138 84 139
3 7 85 65
3 16 86 36
3 16 87 86
3 16 88 87
3 17 89 38
3 17 90 89
3 17 92 90
3 141 140 40
3 19 142 143
3 19 144 145
3 20 146 147
3 20 148 149
3 10 93 72
3 21 150 152
3 152 151 47
3 150 151 152
3 21 153 154
3 21 155 156
3 22 157 159
3 159 158 49
3 157 158 159
3 22 160 161
3 22 162 164
3 162 94 163
3 162 163 164
3 23 95 51
3 23 96 95
3 12 97 76
3 24 98 54
3 24 99 98
3 24 100 99
3 25 101 56
3 25 165 167
3 167 166 101
3 165 166 167
3 25 168 169
3 26 102 58
3 26 103 102
3 14 104 80
3 27 105 61
3 27 106 105
3 27 107 106
3 170 108 171
3 172 171 63
3 170 171 172
3 174 173 108
3 18 109 91
3 175 110 176
3 178 177 110
3 179 8 180
3 28 29 9
3 30 29 28
3 30 11 29
3 30 31 11
3 32 31 30
3 32 13 31
3 32 33 13
3 34 33 32
3 34 15 33
3 35 36 7
3 37 36 35
3 37 16 36
3 37 38 16
3 39 38 37
3 39 17 38
3 39 40 17
3 181 40 182
3 183 182 39
3 181 182 183
3 185 184 40
3 41 186 187
3 41 188 190
3 188 19 189
3 188 189 190
3 42 191 192
3 43 193 195
3 195 194 42
3 193 194 195
3 43 196 197
3 43 198 199
3 44 200 202
3 202 201 43
3 200 201 202
3 44 203 205
3 203 20 204
3 203 204 205
3 45 206 207
3 45 208 209
3 46 47 10
3 48 47 46
3 48 21 47
3 48 49 21
3 50 49 48
3 50 22 49
3 50 51 22
3 52 51 50
3 52 23 51
3 53 54 12
3 55 54 53
3 55 24 54
3 55 56 24
3 57 56 55
3 57 25 56
3 57 58 25
3 59 58 57
3 59 26 58
3 60 61 14
3 62 61 60
3 62 27 61
3 62 63 27
3 64 63 62
3 64 210 212
3 212 211 63
3 210 211 212
3 214 213 18
3 215 65 216
3 66 217 219
3 217 65 218
3 217 218 219
3 66 7 65
3 220 66 221
3 67 222 224
3 222 66 223
3 222 223 224
3 67 7 66
3 67 35 7
3 225 35 226
3 227 226 67
3 225 226 227
3 229 228 35
3 68 230 231
3 68 232 234
3 232 2 233
3 232 233 234
3 69 235 236
3 69 237 238
3 69 239 241
3 239 42 240
3 239 240 241
3 70 42 69
3 70 3 42
3 71 72 1
3 73 72 71
3 73 10 72
3 29 73 9
3 74 73 29
3 74 10 73
3 74 46 10
3 75 46 74
3 75 4 46
3 75 76 4
3 77 76 75
3 77 12 76
3 31 77 11
3 78 77 31
3 78 12 77
3 78 53 12
3 79 53 78
3 79 5 53
3 79 80 5
3 81 80 79
3 81 14 80
3 33 81 13
3 82 81 33
3 82 14 81
3 82 60 14
3 83 60 82
3 83 6 60
3 84 242 243
3 84 244 246
3 244 1 245
3 244 245 246
3 65 247 248
3 85 249 251
3 251 250 65
3 249 250 251
3 85 252 253
3 36 85 7
3 86 85 36
3 86 254 256
3 256 255 85
3 254 255 256
3 86 257 259
3 257 84 258
3 257 258 259
3 87 84 86
3 87 1 84
3 87 71 1
3 88 71 87
3 88 9 71
3 38 88 16
3 89 88 38
3 89 9 88
3 89 28 9
3 90 28 89
3 90 0 28
3 90 91 0
3 92 91 90
3 92 18 91
3 40 92 17
3 260 92 261
3 262 261 40
3 260 261 262
3 263 18 264
3 265 264 92
3 263 264 265
3 267 266 18
3 72 45 1
3 93 45 72
3 93 268 270
3 270 269 45
3 268 269 270
3 47 93 10
3 271 93 272
3 273 272 47
3 271 272 273
3 275 274 93
3 49 276 278
3 278 277 21
3 276 277 278
3 280 279 49
3 94 281 282
3 94 283 285
3 283 8 284
3 283 284 285
3 51 94 22
3 95 94 51
3 95 8 94
3 95 70 8
3 96 70 95
3 96 3 70
3 76 52 4
3 97 52 76
3 97 23 52
3 54 97 12
3 98 97 54
3 98 23 97
3 98 96 23
3 99 96 98
3 99 3 96
3 99 44 3
3 100 44 99
3 100 20 44
3 56 100 24
3 101 100 56
3 101 20 100
3 101 286 288
3 288 287 20
3 286 287 288
3 290 289 101
3 58 291 293
3 293 292 25
3 291 292 293
3 102 294 296
3 296 295 58
3 294 295 296
3 102 297 298
3 102 299 301
3 299 68 300
3 299 300 301
3 103 68 102
3 103 2 68
3 80 59 5
3 104 59 80
3 104 26 59
3 61 104 14
3 105 104 61
3 105 26 104
3 105 103 26
3 106 103 105
3 106 2 103
3 106 41 2
3 107 41 106
3 107 19 41
3 63 107 27
3 108 107 63
3 108 19 107
3 108 302 304
3 304 303 19
3 302 303 304
3 306 305 108
3 91 34 0
3 109 34 91
3 109 15 34
3 307 109 308
3 309 308 18
3 307 308 309
3 110 310 312
3 310 109 311
3 310 311 312
3 110 15 109
3 110 83 15
3 313 83 314
3 315 314 110
3 313 314 315
3 316 6 317
3 318 317 83
3 316 317 318
3 319 6 320
3 321 64 322
3 323 322 6
3 321 322 323
3 324 64 325
3 327 326 64
