ply
format ascii 1.0
element vertex 285
property float x
property float y
property float z
element face 249
property list uchar int vertex_index
end_header
-40.566326 -6.157322 12.458018
-37.674934 1.440115 -0.127955
-38.086685 -2.621399 7.181417
-38.302097 5.764004 -8.492546
-38.824093 -12.490334 10.537216
-37.697269 -0.636316 3.71597
-38.813641 -8.892638 2.896078
-39.403046 -6.690345 -1.380789
-40.106728 -4.218551 -5.78743
-40.819466 -1.484697 -10.242615
-37.905315 3.570257 -4.238523
-38.997406 -4.466969 10.144644
-41.981724 -15.196495 15.608088
-42.857075 -7.708975 13.999563
-38.533646 -10.81968 6.927027
-38.733177 8.069372 -12.760927
-40.226463 -10.148171 13.018333
-39.261059 -13.242023 12.113998
-39.463779 -9.395038 11.779927
-37.64859 0.393667 1.834408
-38.356544 -3.883647 1.283623
-38.524326 -2.799486 -0.780077
-39.748833 -5.487418 -3.573498
-38.735764 -1.675419 -2.891964
-38.979027 -0.512676 -5.039742
-37.763874 2.499144 -2.157232
-43.384705 -15.73524 16.316578
-43.789589 -12.162391 15.469388
-42.387436 -11.534317 14.867476
-38.467045 -3.563671 8.734678
-38.522411 -7.75629 8.76993
-38.305096 -6.86333 7.048025
-39.522434 1.935987 -9.394049
-39.797962 3.229654 -11.576494
-40.050434 4.573944 -13.747438
-38.525463 6.899702 -10.632519
-37.836929 -1.643646 5.503116
-38.223106 -5.919063 5.213376
-38.248886 -4.924784 3.286245
-39.084198 -7.825894 0.780001
-40.466557 -2.884411 -8.013256
-39.244675 0.689981 -7.211178
-38.089108 4.656555 -6.35582
-40.896408 -2.016741 11.830538
-39.693607 -5.330829 11.391884
-39.907593 -1.099581 10.951283
-39.074509 -0.149744 9.893829
-38.392174 0.831387 8.66975
-40.828365 -14.596653 14.668823
-41.199547 -10.861373 14.051116
-41.620689 -6.949457 13.329114
-44.780796 -4.587869 13.367848
-43.337811 -3.759384 13.033081
-42.041073 -2.902599 12.524323
-38.901253 -8.599102 10.355654
-38.591045 -11.684723 8.798187
-38.619259 -9.890123 4.95165
-38.89217 9.274378 -14.864838
-44.826214 -10.641335 15.122617
-44.595438 -12.449807 15.671585
-44.031124 -10.298399 14.97238
-44.826214 -10.641335 15.122617
-38.821528 -14.292193 10.616668
-39.040011 -14.668037 11.405058
-39.042576 -12.866179 11.325607
-38.773127 -13.893525 9.687494
-38.821528 -14.292193 10.616668
-39.869129 -8.427605 -1.618853
-39.709705 -8.99538 -0.538458
-39.243622 -7.258119 -0.300394
-40.113144 -7.780839 -2.750841
-39.869129 -8.427605 -1.618853
-40.706196 -5.851786 -6.090847
-40.527248 -6.48622 -4.983881
-39.92778 -4.852984 -4.680464
-40.93841 -5.113193 -7.228491
-40.706196 -5.851786 -6.090847
-40.286642 -3.551481 -6.900343
-41.118324 -4.446124 -8.341404
-40.93841 -5.113193 -7.228491
-40.547922 0.562092 11.051824
-40.402 -1.558161 11.390911
-41.04233 0.103511 11.491452
-39.095494 2.071191 9.744359
-39.578981 1.547071 10.178195
-38.754326 2.561756 9.13232
-38.733341 0.340821 9.28179
-39.095494 2.071191 9.744359
-41.839768 -16.929707 15.903295
-42.541258 -17.19908 16.25754
-42.683214 -15.465867 15.962333
-41.273808 -16.658431 15.385623
-41.839768 -16.929707 15.903295
-41.405045 -14.896574 15.138455
-40.697128 -16.35851 14.91599
-41.273808 -16.658431 15.385623
-45.820493 -3.080106 12.808909
-45.572435 -4.986724 13.459724
-43.564089 -1.74393 12.518988
-44.304413 -2.21153 12.61206
-42.91572 -1.315538 12.264609
-42.689442 -3.330991 12.778702
-43.564089 -1.74393 12.518988
-42.233755 -0.834608 12.09425
-42.91572 -1.315538 12.264609
-38.67533 -12.626093 6.887877
-38.704029 -13.058615 7.823457
-38.562345 -11.252201 7.862607
-41.713966 -2.138784 -11.724341
-41.513503 -2.963627 -10.592
-39.492457 7.018481 -14.328855
-40.151085 5.270767 -14.82211
-39.391806 6.321658 -13.254183
-38.812674 8.671875 -13.812883
-39.571953 7.620984 -15.38081
-39.492457 7.018481 -14.328855
-39.743761 -11.695097 12.566166
-39.592577 -13.592953 12.806639
-40.075279 -12.046027 13.258807
-44.392996 -14.236231 16.09518
-44.207697 -15.968812 16.563536
-43.587147 -13.948815 15.892983
-44.392996 -14.236231 16.09518
-44.595438 -12.449807 15.671585
-43.330047 -9.984362 14.671425
-43.088513 -11.848354 15.168432
-44.031124 -10.298399 14.97238
-43.564867 -8.071691 14.237468
-42.622256 -9.621646 14.433519
-43.330047 -9.984362 14.671425
-39.119677 -10.683062 2.747561
-39.337046 -10.128862 1.641806
-40.338331 0.958572 -10.930997
-40.986847 -0.75177 -11.35528
-40.17095 0.225645 -9.818332
-40.476095 1.605406 -12.02222
-40.338331 0.958572 -10.930997
-39.660198 2.58282 -10.485271
-40.626064 2.370998 -13.129459
-40.476095 1.605406 -12.02222
-39.924198 3.901799 -12.661966
-40.7523 3.043143 -14.214931
-40.626064 2.370998 -13.129459
-39.20126 -15.036066 12.252197
-39.592577 -13.592953 12.806639
-39.20126 -15.036066 12.252197
-39.040011 -14.668037 11.405058
-39.472324 -9.59549 0.583767
-39.337046 -10.128862 1.641806
-38.94892 -8.359266 1.83804
-39.472324 -9.59549 0.583767
-39.709705 -8.99538 -0.538458
-40.286037 -7.179376 -3.847195
-40.113144 -7.780839 -2.750841
-39.57594 -6.088881 -2.477143
-40.286037 -7.179376 -3.847195
-40.527248 -6.48622 -4.983881
-41.337048 -3.663485 -9.477321
-41.118324 -4.446124 -8.341404
-40.643012 -2.184554 -9.127935
-41.513503 -2.963627 -10.592
-41.337048 -3.663485 -9.477321
-39.995524 1.072153 10.706922
-40.547922 0.562092 11.051824
-39.491051 -0.624662 10.422556
-39.995524 1.072153 10.706922
-39.578981 1.547071 10.178195
-38.339947 3.09706 8.611699
-38.754326 2.561756 9.13232
-38.121635 1.335092 7.980896
-38.339947 3.09706 8.611699
-37.968891 -0.391301 7.236729
-38.239429 -0.895006 7.925584
-38.121635 1.335092 7.980896
-37.844013 0.097576 6.397578
-37.961807 -2.132522 6.342267
-37.968891 -0.391301 7.236729
-37.637861 0.610305 5.638286
-37.844013 0.097576 6.397578
-37.568031 1.11397 4.744713
-37.767099 -1.139981 4.609543
-37.637861 0.610305 5.638286
-37.419546 1.63071 3.921082
-37.568031 1.11397 4.744713
-37.395207 2.145701 2.980301
-37.672929 -0.121325 2.775189
-37.419546 1.63071 3.921082
-37.298099 2.661507 2.098511
-37.395207 2.145701 2.980301
-37.311272 3.184731 1.11733
-37.661762 0.916891 0.853226
-37.298099 2.661507 2.098511
-37.260151 3.695693 0.184206
-37.311272 3.184731 1.11733
-43.248917 -17.429053 16.654877
-44.207697 -15.968812 16.563536
-43.248917 -17.429053 16.654877
-42.541258 -17.19908 16.25754
-40.272796 -16.051655 14.278581
-40.697128 -16.35851 14.91599
-40.37623 -14.270268 14.084052
-40.272796 -16.051655 14.278581
-40.561821 -12.402628 13.775199
-40.37623 -14.270268 14.084052
-41.013956 -12.729013 14.35997
-40.713005 -10.504772 13.534724
-40.075279 -12.046027 13.258807
-40.561821 -12.402628 13.775199
-44.526727 -6.511138 13.92161
-45.572435 -4.986724 13.459724
-43.818936 -6.148422 13.683706
-43.564867 -8.071691 14.237468
-44.526727 -6.511138 13.92161
-45.025906 -2.625773 12.779444
-45.820493 -3.080106 12.808909
-44.059303 -4.173627 13.200464
-45.025906 -2.625773 12.779444
-44.304413 -2.21153 12.61206
-41.661423 -0.391679 11.747357
-41.46874 -2.45967 12.17743
-42.233755 -0.834608 12.09425
-41.04233 0.103511 11.491452
-41.661423 -0.391679 11.747357
-38.656603 -13.490719 8.817979
-38.773127 -13.893525 9.687494
-38.707569 -12.087529 9.667701
-38.656603 -13.490719 8.817979
-38.704029 -13.058615 7.823457
-39.022486 -11.181805 3.775346
-38.71645 -9.391381 3.923864
-39.119677 -10.683062 2.747561
-38.842115 -11.692027 4.8559
-39.022486 -11.181805 3.775346
-38.799309 -12.156806 5.843589
-38.576453 -10.354902 5.939338
-38.842115 -11.692027 4.8559
-38.67533 -12.626093 6.887877
-38.799309 -12.156806 5.843589
-41.713966 -2.138784 -11.724341
-40.986847 -0.75177 -11.35528
-40.872988 3.839049 -15.313563
-40.7523 3.043143 -14.214931
-40.872988 3.839049 -15.313563
-40.151085 5.270767 -14.82211
-39.629869 8.338249 -16.43992
-39.571953 7.620984 -15.38081
-38.92832 9.89161 -15.89892
-39.629869 8.338249 -16.43992
-37.30462 4.225207 -0.830432
-37.719404 1.969629 -1.142594
-37.260151 3.695693 0.184206
-37.294792 4.729193 -1.806935
-37.30462 4.225207 -0.830432
-37.365513 5.264749 -2.84758
-37.834595 3.0347 -3.197877
-37.294792 4.729193 -1.806935
-37.392183 5.761796 -3.858244
-37.365513 5.264749 -2.84758
-37.484079 6.304945 -4.916893
-37.997212 4.113406 -5.297171
-37.392183 5.761796 -3.858244
-37.54114 6.797202 -5.951507
-37.484079 6.304945 -4.916893
-37.647635 7.350926 -7.01987
-38.195603 5.21028 -7.424183
-37.54114 6.797202 -5.951507
-37.726402 7.842166 -8.067882
-37.647635 7.350926 -7.01987
-37.838085 8.410015 -9.137868
-38.41378 6.331853 -9.562532
-37.726402 7.842166 -8.067882
-37.926357 8.904688 -10.1892
-37.838085 8.410015 -9.137868
-38.030214 9.489523 -11.253404
-38.62932 7.484537 -11.696723
-37.926357 8.904688 -10.1892
-38.112039 9.991511 -12.299153
-38.030214 9.489523 -11.253404
-38.191536 10.594013 -13.351109
-38.812674 8.671875 -13.812883
-38.112039 9.991511 -12.299153
-38.247909 11.105204 -14.383945
-38.191536 10.594013 -13.351109
-38.92832 9.89161 -15.89892
-38.247909 11.105204 -14.383945
3 0 18 16
3 1 21 19
3 1 23 21
3 1 25 23
3 58 27 59
3 61 60 27
3 2 31 29
3 3 33 32
3 3 35 33
3 4 62 64
3 64 63 17
3 62 63 64
3 4 65 66
3 5 38 36
3 7 39 20
3 7 67 69
3 69 68 39
3 67 68 69
3 7 70 71
3 8 72 74
3 74 73 22
3 72 73 74
3 8 75 76
3 8 77 79
3 77 40 78
3 77 78 79
3 10 41 24
3 10 42 41
3 80 45 81
3 82 81 43
3 80 81 82
3 83 46 84
3 85 47 86
3 87 86 46
3 85 86 87
3 12 88 90
3 90 89 26
3 88 89 90
3 12 91 92
3 12 93 95
3 93 48 94
3 93 94 95
3 13 49 28
3 13 50 49
3 96 51 97
3 98 52 99
3 100 53 101
3 102 101 52
3 100 101 102
3 104 103 53
3 11 54 44
3 14 55 30
3 14 105 107
3 107 106 55
3 105 106 107
3 6 56 37
3 9 108 109
3 15 110 112
3 112 111 34
3 110 111 112
3 15 113 115
3 113 57 114
3 113 114 115
3 16 116 118
3 116 17 117
3 116 117 118
3 18 17 16
3 18 4 17
3 19 20 5
3 21 20 19
3 21 7 20
3 21 22 7
3 23 22 21
3 23 8 22
3 23 24 8
3 25 24 23
3 25 10 24
3 119 26 120
3 27 121 123
3 121 26 122
3 121 122 123
3 27 12 26
3 27 28 12
3 124 28 125
3 126 125 27
3 124 125 126
3 127 13 128
3 129 128 28
3 127 128 129
3 29 30 11
3 31 30 29
3 31 14 30
3 131 130 6
3 32 132 134
3 134 133 9
3 132 133 134
3 33 135 137
3 137 136 32
3 135 136 137
3 33 138 139
3 33 140 142
3 140 34 141
3 140 141 142
3 35 34 33
3 35 15 34
3 17 143 144
3 146 145 17
3 36 37 2
3 38 37 36
3 38 6 37
3 20 38 5
3 39 38 20
3 39 6 38
3 39 147 149
3 149 148 6
3 147 148 149
3 151 150 39
3 22 152 154
3 154 153 7
3 152 153 154
3 156 155 22
3 40 157 158
3 40 159 161
3 159 9 160
3 159 160 161
3 24 40 8
3 41 40 24
3 41 9 40
3 41 32 9
3 42 32 41
3 42 3 32
3 43 44 0
3 45 44 43
3 45 11 44
3 162 45 163
3 46 164 166
3 164 45 165
3 164 165 166
3 46 11 45
3 46 29 11
3 47 29 46
3 47 2 29
3 167 47 168
3 169 47 170
3 171 2 172
3 173 172 47
3 171 172 173
3 174 36 175
3 176 175 2
3 174 175 176
3 177 36 178
3 179 5 180
3 181 180 36
3 179 180 181
3 182 5 183
3 184 19 185
3 186 185 5
3 184 185 186
3 187 19 188
3 189 1 190
3 191 190 19
3 189 190 191
3 193 192 1
3 26 194 195
3 197 196 26
3 48 198 199
3 48 200 201
3 28 48 12
3 49 48 28
3 49 202 204
3 204 203 48
3 202 203 204
3 49 205 207
3 205 16 206
3 205 206 207
3 50 16 49
3 50 0 16
3 51 208 209
3 51 210 212
3 210 13 211
3 210 211 212
3 213 51 214
3 52 215 217
3 215 51 216
3 215 216 217
3 52 13 51
3 52 50 13
3 53 50 52
3 53 0 50
3 53 43 0
3 218 43 219
3 220 219 53
3 218 219 220
3 222 221 43
3 44 18 0
3 54 18 44
3 54 4 18
3 30 54 11
3 55 54 30
3 55 4 54
3 55 223 225
3 225 224 4
3 223 224 225
3 227 226 55
3 37 31 2
3 56 31 37
3 56 14 31
3 228 56 229
3 230 229 6
3 228 229 230
3 231 56 232
3 233 14 234
3 235 234 56
3 233 234 235
3 237 236 14
3 239 238 9
3 34 240 241
3 243 242 34
3 57 244 245
3 57 246 247
3 248 25 249
3 250 249 1
3 248 249 250
3 251 25 252
3 253 10 254
3 255 254 25
3 253 254 255
3 256 10 257
3 258 42 259
3 260 259 10
3 258 259 260
3 261 42 262
3 263 3 264
3 265 264 42
3 263 264 265
3 266 3 267
3 268 35 269
3 270 269 3
3 268 269 270
3 271 35 272
3 273 15 274
3 275 274 35
3 273 274 275
3 276 15 277
3 278 57 279
3 280 279 15
3 278 279 280
3 281 57 282
3 284 283 57
