ply
format ascii 1.0
element vertex 232
property float x
property float y
property float z
element face 220
property list uchar int vertex_index
end_header
-68.232971 -40.90509 -0.132874
-64.020142 -50.350029 0.683265
-63.194962 -53.434086 -5.876457
-63.482162 -42.669312 -7.248564
-66.016922 -53.412476 8.533728
-66.365227 -45.563507 0.203606
-63.969345 -46.635719 -3.34318
-65.803757 -41.584175 -3.626156
-64.877808 -37.447643 -7.307131
-67.593544 -36.688213 -3.758776
-63.562416 -53.941788 4.930567
-66.428078 -49.500683 4.227912
-68.404808 -45.119583 3.705335
-65.222786 -54.880554 -8.848652
-63.985153 -49.209045 -10.096088
-62.634563 -51.786823 -2.71624
-62.962227 -47.993534 -6.808855
-67.405701 -43.210373 0.031425
-66.14254 -43.585415 -1.730598
-67.136047 -41.166885 -1.85487
-66.754402 -39.108292 -3.698912
-67.967911 -38.800186 -1.970167
-67.262405 -51.375427 8.158724
-66.275146 -51.465302 6.341395
-67.471085 -49.34008 6.019982
-67.571732 -47.294106 3.958569
-63.389526 -56.218769 -5.231443
-64.45961 -57.047207 -6.665546
-64.103134 -54.199703 -7.375389
-64.646004 -52.020649 -9.525066
-63.655964 -51.399124 -7.986694
-62.861214 -52.77404 1.042043
-63.110767 -51.013786 -1.042498
-63.767471 -44.694778 -5.307777
-63.21669 -47.306683 -5.094265
-63.10355 -45.320503 -7.086136
-63.154716 -40.538883 -9.160835
-65.208557 -47.946468 0.411654
-64.058685 -48.514252 -1.35009
-65.088348 -46.037811 -1.571356
-64.846542 -44.097122 -3.516249
-64.503342 -42.10495 -5.430664
-64.091324 -40.041447 -7.314442
-65.371078 -39.543018 -5.486494
-66.282066 -37.023254 -5.500645
-63.851601 -52.157101 2.77204
-64.812897 -53.58836 6.716512
-65.063278 -51.71957 4.543263
-65.199203 -49.837997 2.445314
-66.460709 -47.532715 2.185753
-67.551773 -45.250408 1.965954
-68.379288 -43.009865 1.756482
-66.357307 -55.473011 -10.327116
-65.806938 -52.547428 -11.042345
-65.053322 -49.675735 -11.675966
-62.669235 -52.613251 -4.327616
-63.226707 -49.197289 -3.082842
-62.861275 -49.943352 -4.77129
-63.018597 -50.694733 -6.405901
-63.239986 -48.641586 -8.476654
-67.795304 -49.339264 6.91905
-67.366745 -50.357754 7.089353
-67.690964 -50.356938 7.988421
-67.892754 -48.286493 5.871509
-67.795304 -49.339264 6.91905
-63.20322 -42.943062 -8.15365
-63.013914 -44.268658 -8.072436
-63.292856 -43.994907 -7.16735
-63.318439 -41.604097 -8.2047
-63.039497 -41.877848 -9.109785
-63.20322 -42.943062 -8.15365
-67.360394 -35.627043 -4.627909
-66.704655 -35.794563 -5.498843
-66.937805 -36.855733 -4.62971
-63.023401 -54.216122 4.059109
-62.780394 -55.055323 5.169515
-63.707009 -53.049444 3.851304
-63.167994 -53.323779 2.979846
-63.023401 -54.216122 4.059109
-65.414909 -53.500418 7.62512
-64.640068 -54.509224 7.843591
-65.242081 -54.421282 8.752199
-65.407246 -56.334355 -8.473925
-65.025657 -57.417681 -7.382373
-64.841198 -55.963881 -7.757099
-65.790047 -55.176783 -9.587884
-65.974506 -56.630583 -9.213158
-65.407246 -56.334355 -8.473925
-64.10521 -48.030724 -11.146176
-64.639294 -48.264069 -11.936115
-64.519238 -49.44239 -10.886027
-62.402948 -53.099975 -2.47437
-62.451424 -52.664591 -1.67326
-62.651899 -52.200037 -3.521928
-62.420284 -53.513189 -3.280058
-62.402948 -53.099975 -2.47437
-64.265806 -37.669412 -8.232617
-63.872564 -38.966314 -8.236273
-64.484566 -38.744545 -7.310786
-63.366789 -54.821525 6.049629
-62.780394 -55.055323 5.169515
-67.943078 -47.263506 4.840802
-67.521409 -48.317093 4.989275
-67.892754 -48.286493 5.871509
-68.359616 -46.176244 4.714185
-67.98827 -46.206845 3.831952
-67.943078 -47.263506 4.840802
-63.924568 -56.632988 -5.948494
-63.976034 -58.046604 -5.57971
-63.440992 -57.632385 -4.862659
-62.564749 -53.158199 0.205882
-62.313126 -53.999447 1.27323
-62.689526 -52.278072 -0.836389
-62.564749 -53.158199 0.205882
-62.98599 -51.893913 -0.000227
-62.872665 -51.400305 -1.879369
-62.451424 -52.664591 -1.67326
-62.689526 -52.278072 -0.836389
-63.035539 -45.61879 -7.960063
-62.964878 -46.955305 -7.821423
-63.032888 -46.657018 -6.947496
-63.035539 -45.61879 -7.960063
-63.013914 -44.268658 -8.072436
-62.940439 -40.758097 -10.081435
-63.039497 -41.877848 -9.109785
-62.994658 -39.414077 -10.095447
-62.940439 -40.758097 -10.081435
-64.622452 -36.369551 -8.19089
-65.314003 -36.177026 -7.279975
-65.845321 -54.363871 9.670267
-65.242081 -54.421282 8.752199
-66.490425 -53.393259 9.456304
-65.845321 -54.363871 9.670267
-67.113167 -52.374735 9.268802
-66.639663 -52.393952 8.346226
-66.490425 -53.393259 9.456304
-67.549858 -51.393819 9.07728
-67.113167 -52.374735 9.268802
-67.690964 -50.356938 7.988421
-67.549858 -51.393819 9.07728
-62.939172 -57.150549 -4.159019
-63.440992 -57.632385 -4.862659
-62.98191 -55.772053 -4.49687
-62.939172 -57.150549 -4.159019
-62.884628 -54.379711 -4.819377
-63.292244 -54.826428 -5.55395
-62.98191 -55.772053 -4.49687
-66.016132 -35.964832 -6.376732
-65.314003 -36.177026 -7.279975
-65.579937 -37.235449 -6.403888
-66.016132 -35.964832 -6.376732
-66.704655 -35.794563 -5.498843
-62.6728 -53.632248 2.114847
-62.313126 -53.999447 1.27323
-63.356408 -52.46557 1.907042
-62.6728 -53.632248 2.114847
-63.167994 -53.323779 2.979846
-63.99203 -54.644812 6.942602
-64.640068 -54.509224 7.843591
-64.187657 -53.765074 5.823539
-63.366789 -54.821525 6.049629
-63.99203 -54.644812 6.942602
-68.566738 -45.14648 4.562618
-68.359616 -46.176244 4.714185
-68.62476 -44.062154 3.572199
-68.566738 -45.14648 4.562618
-68.611999 -43.007295 2.597773
-68.392048 -44.064724 2.730908
-68.62476 -44.062154 3.572199
-68.61692 -41.923279 1.643585
-68.611999 -43.007295 2.597773
-68.543762 -40.870891 0.698906
-68.306129 -41.957477 0.811804
-68.61692 -41.923279 1.643585
-68.492775 -39.788418 -0.222827
-68.543762 -40.870891 0.698906
-68.360245 -38.735965 -1.141474
-68.100441 -39.852638 -1.051521
-68.492775 -39.788418 -0.222827
-68.253071 -37.654342 -2.033497
-68.360245 -38.735965 -1.141474
-68.065888 -36.598356 -2.927802
-67.780727 -37.744199 -2.864472
-68.253071 -37.654342 -2.033497
-67.904831 -35.517446 -3.791372
-68.065888 -36.598356 -2.927802
-67.360394 -35.627043 -4.627909
-67.904831 -35.517446 -3.791372
-64.535054 -58.489901 -6.277788
-63.976034 -58.046604 -5.57971
-64.535054 -58.489901 -6.277788
-65.025657 -57.417681 -7.382373
-66.476658 -56.95964 -9.947453
-65.974506 -56.630583 -9.213158
-66.839909 -55.735788 -11.083958
-66.476658 -56.95964 -9.947453
-66.649006 -54.233202 -11.446116
-66.839909 -55.735788 -11.083958
-66.373821 -52.77041 -11.80373
-66.649006 -54.233202 -11.446116
-66.082122 -54.010219 -10.684731
-66.030392 -51.297264 -12.138262
-66.373821 -52.77041 -11.80373
-65.653583 -49.861418 -12.455072
-66.030392 -51.297264 -12.138262
-65.43013 -51.111581 -11.359155
-65.212734 -48.41735 -12.744071
-65.653583 -49.861418 -12.455072
-65.212734 -48.41735 -12.744071
-64.639294 -48.264069 -11.936115
-62.621765 -53.969293 -4.044956
-62.420284 -53.513189 -3.280058
-62.932098 -53.023668 -5.102037
-62.884628 -54.379711 -4.819377
-62.621765 -53.969293 -4.044956
-63.103758 -47.279331 -8.655322
-63.101107 -48.31756 -7.642755
-62.964878 -46.955305 -7.821423
-63.305145 -47.539384 -9.507732
-63.103758 -47.279331 -8.655322
-63.677729 -47.823114 -10.31745
-63.612569 -48.925315 -9.286371
-63.305145 -47.539384 -9.507732
-64.10521 -48.030724 -11.146176
-63.677729 -47.823114 -10.31745
-63.40426 -39.215032 -9.15947
-63.62302 -40.290165 -8.237638
-63.872564 -38.966314 -8.236273
-62.994658 -39.414077 -10.095447
-63.40426 -39.215032 -9.15947
-64.265806 -37.669412 -8.232617
-64.622452 -36.369551 -8.19089
3 0 19 17
3 0 21 19
3 60 24 61
3 62 61 22
3 60 61 62
3 64 63 24
3 2 28 26
3 2 30 28
3 1 32 31
3 3 35 33
3 3 65 67
3 67 66 35
3 65 66 67
3 3 68 70
3 68 36 69
3 68 69 70
3 5 39 37
3 7 40 18
3 7 41 40
3 7 43 41
3 9 44 20
3 9 71 73
3 73 72 44
3 71 72 73
3 10 74 75
3 10 76 78
3 76 45 77
3 76 77 78
3 4 79 81
3 79 46 80
3 79 80 81
3 11 47 23
3 11 48 47
3 11 49 48
3 12 50 25
3 12 51 50
3 13 82 84
3 84 83 27
3 82 83 84
3 13 85 87
3 85 52 86
3 85 86 87
3 13 53 52
3 14 54 29
3 14 88 90
3 90 89 54
3 88 89 90
3 15 91 92
3 15 93 95
3 93 55 94
3 93 94 95
3 6 56 38
3 16 57 34
3 16 58 57
3 16 59 58
3 8 96 98
3 98 97 42
3 96 97 98
3 17 18 5
3 19 18 17
3 19 7 18
3 19 20 7
3 21 20 19
3 21 9 20
3 99 10 100
3 22 23 4
3 24 23 22
3 24 11 23
3 24 25 11
3 101 25 102
3 103 102 24
3 101 102 103
3 104 12 105
3 106 105 25
3 104 105 106
3 26 107 109
3 107 27 108
3 107 108 109
3 28 27 26
3 28 13 27
3 28 29 13
3 30 29 28
3 30 14 29
3 31 110 111
3 32 112 114
3 114 113 31
3 112 113 114
3 32 115 117
3 115 15 116
3 115 116 117
3 33 34 6
3 35 34 33
3 35 16 34
3 35 118 120
3 120 119 16
3 118 119 120
3 122 121 35
3 36 123 124
3 36 125 126
3 128 127 8
3 129 4 130
3 131 4 132
3 133 22 134
3 135 134 4
3 133 134 135
3 136 22 137
3 139 138 22
3 140 26 141
3 142 26 143
3 144 2 145
3 146 145 26
3 144 145 146
3 37 38 1
3 39 38 37
3 39 6 38
3 18 39 5
3 40 39 18
3 40 6 39
3 40 33 6
3 41 33 40
3 41 3 33
3 41 42 3
3 43 42 41
3 43 8 42
3 20 43 7
3 44 43 20
3 44 8 43
3 44 147 149
3 149 148 8
3 147 148 149
3 151 150 44
3 152 31 153
3 45 154 156
3 154 31 155
3 154 155 156
3 45 1 31
3 46 157 158
3 46 159 161
3 159 10 160
3 159 160 161
3 23 46 4
3 47 46 23
3 47 10 46
3 47 45 10
3 48 45 47
3 48 1 45
3 48 37 1
3 49 37 48
3 49 5 37
3 25 49 11
3 50 49 25
3 50 5 49
3 50 17 5
3 51 17 50
3 51 0 17
3 162 12 163
3 164 12 165
3 166 51 167
3 168 167 12
3 166 167 168
3 169 51 170
3 171 0 172
3 173 172 51
3 171 172 173
3 174 0 175
3 176 21 177
3 178 177 0
3 176 177 178
3 179 21 180
3 181 9 182
3 183 182 21
3 181 182 183
3 184 9 185
3 187 186 9
3 27 188 189
3 191 190 27
3 52 192 193
3 52 194 195
3 52 196 197
3 53 198 200
3 200 199 52
3 198 199 200
3 53 201 202
3 29 53 13
3 54 53 29
3 54 203 205
3 205 204 53
3 203 204 205
3 54 206 207
3 209 208 54
3 55 210 211
3 55 212 214
3 212 2 213
3 212 213 214
3 38 32 1
3 56 32 38
3 56 15 32
3 34 56 6
3 57 56 34
3 57 15 56
3 57 55 15
3 58 55 57
3 58 2 55
3 58 30 2
3 59 30 58
3 59 14 30
3 215 59 216
3 217 216 16
3 215 216 217
3 218 59 219
3 220 14 221
3 222 221 59
3 220 221 222
3 224 223 14
3 42 36 3
3 225 36 226
3 227 226 42
3 225 226 227
3 229 228 36
3 231 230 8
