ply
format ascii 1.0
element vertex 161
property float x
property float y
property float z
element face 148
property list uchar int vertex_index
end_header
-56.959625 -79.001694 -7.084108
-61.124302 -71.402557 -15.592134
-61.166805 -73.735023 -7.970545
-59.375809 -75.505219 -11.313135
-63.432701 -69.710548 -12.451773
-53.947174 -79.346909 -16.732754
-56.903885 -77.398956 -14.241854
-58.142891 -73.043076 -18.183308
-64.851982 -65.016159 -17.053249
-62.207565 -66.588379 -20.007538
-62.409184 -71.806213 -10.197062
-56.107723 -80.01844 -8.770384
-60.340347 -73.53846 -13.438522
-58.209698 -76.442146 -12.839762
-59.035027 -74.429932 -14.88414
-57.588253 -75.314026 -16.191601
-59.703438 -72.241104 -16.961853
-65.849167 -64.228729 -15.40362
-66.360168 -61.654049 -17.755939
-64.011703 -63.18771 -20.894501
-62.545212 -63.90451 -22.253593
-60.633919 -67.293304 -21.247421
-60.927292 -64.531143 -23.44009
-59.086525 -76.389999 -7.506145
-58.23777 -77.319061 -9.200636
-60.375233 -74.600754 -9.677826
-61.477928 -72.658173 -11.864937
-62.379295 -70.550125 -14.078815
-57.226341 -78.296684 -10.80929
-56.080727 -79.317551 -12.311308
-55.47686 -78.36676 -15.528709
-56.022202 -76.181183 -17.377365
-65.150818 -66.646927 -13.066628
-64.239944 -67.446564 -14.738503
-63.087463 -68.270279 -16.325552
-65.296661 -62.421612 -19.382095
-63.623859 -65.816299 -18.602051
-61.73996 -69.087494 -17.782539
-60.230339 -69.863892 -19.083519
-56.533674 -79.510067 -7.927246
-55.505148 -80.826458 -7.736982
-55.931099 -80.318085 -6.893844
-66.963875 -59.937578 -18.090431
-66.754436 -61.289552 -16.911451
-62.65459 -62.472208 -23.37647
-63.406655 -62.145168 -22.717165
-61.84563 -62.785525 -23.969719
-61.736252 -64.217827 -22.846842
-62.65459 -62.472208 -23.37647
-52.964005 -80.975845 -16.516498
-53.696665 -80.407661 -15.878857
-55.860447 -78.887001 -13.975168
-55.448868 -79.846298 -13.009895
-56.492306 -78.358253 -13.276581
-56.190373 -77.882858 -14.885281
-55.146935 -79.370903 -14.618596
-55.860447 -78.887001 -13.975168
-57.305889 -73.421555 -18.73116
-56.245545 -74.990609 -18.328188
-57.082546 -74.61213 -17.780337
-65.854836 -65.064701 -13.386429
-65.455929 -66.266541 -12.215515
-65.447434 -61.042881 -20.542217
-66.005958 -60.674012 -19.741537
-59.609562 -68.934089 -20.738028
-59.782225 -67.600223 -21.786474
-62.745424 -71.396748 -9.340488
-61.787994 -72.770618 -9.083804
-62.124235 -72.361153 -8.22723
-63.321795 -70.35416 -10.477818
-62.745424 -71.396748 -9.340488
-63.833554 -69.306328 -11.605173
-62.920943 -70.758381 -11.324417
-63.321795 -70.35416 -10.477818
-53.143009 -79.84919 -17.316468
-54.155296 -78.191647 -17.606718
-55.097099 -81.3917 -8.584431
-55.505148 -80.826458 -7.736982
-55.618583 -80.557407 -9.571254
-55.097099 -81.3917 -8.584431
-66.498936 -62.576892 -15.735292
-66.20401 -63.855602 -14.554925
-66.104668 -62.941389 -16.57978
-66.498936 -62.576892 -15.735292
-66.754436 -61.289552 -16.911451
-64.1399 -61.786768 -22.037619
-64.804955 -61.42593 -21.29842
-63.278458 -63.54611 -21.574047
-64.1399 -61.786768 -22.037619
-63.406655 -62.145168 -22.717165
-59.928911 -66.219143 -22.882809
-59.782225 -67.600223 -21.786474
-60.780606 -65.912224 -22.343756
-52.964005 -80.975845 -16.516498
-53.143009 -79.84919 -17.316468
-56.177892 -79.696529 -10.590707
-55.618583 -80.557407 -9.571254
-56.667032 -79.157562 -9.789837
-55.605086 -80.206963 -11.341716
-56.177892 -79.696529 -10.590707
-56.653534 -78.807118 -11.560299
-55.060643 -80.775009 -12.097798
-55.605086 -80.206963 -11.341716
-55.060643 -80.775009 -12.097798
-55.448868 -79.846298 -13.009895
-54.461508 -79.917587 -15.276834
-55.146935 -79.370903 -14.618596
-54.712017 -78.856834 -16.130731
-53.696665 -80.407661 -15.878857
-54.461508 -79.917587 -15.276834
-55.192811 -76.608784 -17.929023
-54.155296 -78.191647 -17.606718
-54.984688 -77.764046 -17.055059
-55.192811 -76.608784 -17.929023
-56.245545 -74.990609 -18.328188
-56.279442 -79.789066 -6.016635
-55.931099 -80.318085 -6.893844
-57.306961 -78.52248 -6.210742
-56.279442 -79.789066 -6.016635
-58.370411 -77.216633 -6.42176
-58.023075 -77.695847 -7.295127
-57.306961 -78.52248 -6.210742
-59.407898 -75.947139 -6.635061
-58.370411 -77.216633 -6.42176
-60.448038 -74.619652 -6.867261
-60.126665 -75.062511 -7.738345
-59.407898 -75.947139 -6.635061
-61.432024 -73.316975 -7.105374
-60.448038 -74.619652 -6.867261
-62.124235 -72.361153 -8.22723
-61.432024 -73.316975 -7.105374
-64.692612 -67.774517 -11.912601
-65.455929 -66.266541 -12.215515
-64.291759 -68.178738 -12.7592
-63.833554 -69.306328 -11.605173
-64.692612 -67.774517 -11.912601
-65.499992 -65.437828 -14.235124
-65.854836 -65.064701 -13.386429
-66.20401 -63.855602 -14.554925
-66.537712 -60.29023 -18.928459
-66.963875 -59.937578 -18.090431
-65.828415 -62.03783 -18.569017
-66.537712 -60.29023 -18.928459
-66.005958 -60.674012 -19.741537
-64.654182 -62.804661 -20.138298
-65.447434 -61.042881 -20.542217
-64.804955 -61.42593 -21.29842
-59.407772 -70.219384 -19.656076
-60.432129 -68.578598 -20.16547
-59.609562 -68.934089 -20.738028
-58.364048 -71.808976 -19.205971
-59.186615 -71.453484 -18.633413
-59.407772 -70.219384 -19.656076
-57.305889 -73.421555 -18.73116
-58.364048 -71.808976 -19.205971
-61.021996 -63.058881 -24.54044
-61.84563 -62.785525 -23.969719
-60.057131 -64.78896 -23.950021
-61.021996 -63.058881 -24.54044
-59.928911 -66.219143 -22.882809
-60.057131 -64.78896 -23.950021
3 0 39 41
3 39 11 40
3 39 40 41
3 1 14 12
3 1 16 14
3 42 18 43
3 44 20 45
3 46 22 47
3 48 47 20
3 46 47 48
3 2 25 23
3 4 26 10
3 4 27 26
3 5 49 50
3 3 28 24
3 6 29 13
3 6 51 53
3 53 52 29
3 51 52 53
3 6 54 56
3 54 30 55
3 54 55 56
3 7 31 15
3 7 57 59
3 59 58 31
3 57 58 59
3 60 32 61
3 8 33 17
3 8 34 33
3 62 35 63
3 9 36 19
3 9 37 36
3 9 38 37
3 65 64 21
3 66 10 67
3 68 67 2
3 66 67 68
3 69 10 70
3 71 4 72
3 73 72 10
3 71 72 73
3 75 74 5
3 11 76 77
3 11 78 79
3 12 13 3
3 14 13 12
3 14 6 13
3 14 15 6
3 16 15 14
3 16 7 15
3 80 17 81
3 18 82 84
3 82 17 83
3 82 83 84
3 18 8 17
3 85 19 86
3 20 87 89
3 87 19 88
3 87 88 89
3 20 9 19
3 20 21 9
3 22 21 20
3 22 90 92
3 92 91 21
3 90 91 92
3 23 24 0
3 25 24 23
3 25 3 24
3 10 25 2
3 26 25 10
3 26 3 25
3 26 12 3
3 27 12 26
3 27 1 12
3 94 93 5
3 24 11 0
3 28 11 24
3 28 95 97
3 97 96 11
3 95 96 97
3 13 28 3
3 29 28 13
3 29 98 100
3 100 99 28
3 98 99 100
3 29 101 102
3 104 103 29
3 30 105 106
3 30 107 109
3 107 5 108
3 107 108 109
3 15 30 6
3 31 30 15
3 31 5 30
3 31 110 112
3 112 111 5
3 110 111 112
3 114 113 31
3 115 0 116
3 117 0 118
3 119 23 120
3 121 120 0
3 119 120 121
3 122 23 123
3 124 2 125
3 126 125 23
3 124 125 126
3 127 2 128
3 130 129 2
3 32 131 132
3 32 133 135
3 133 4 134
3 133 134 135
3 17 136 138
3 136 32 137
3 136 137 138
3 33 32 17
3 33 4 32
3 33 27 4
3 34 27 33
3 34 1 27
3 139 18 140
3 35 141 143
3 141 18 142
3 141 142 143
3 35 8 18
3 19 144 146
3 144 35 145
3 144 145 146
3 36 35 19
3 36 8 35
3 36 34 8
3 37 34 36
3 37 1 34
3 37 16 1
3 38 16 37
3 38 7 16
3 21 38 9
3 147 38 148
3 149 148 21
3 147 148 149
3 150 7 151
3 152 151 38
3 150 151 152
3 154 153 7
3 155 22 156
3 157 22 158
3 160 159 22
