ply
format ascii 1.0
element vertex 619
property float x
property float y
property float z
element face 701
property list uchar int vertex_index
end_header
33.749649 -60.447842 56.332909
51.639511 -32.794903 52.631256
46.346249 -66.273041 50.361885
38.294834 -47.216866 51.11499
54.75531 -52.193531 48.158661
38.095104 -62.993671 51.370918
35.175903 -54.638546 53.348465
41.726608 -56.387402 48.658722
63.288826 -29.135048 46.9468
58.153072 -35.688576 50.810493
44.337627 -39.800705 51.59536
51.873646 -42.390968 50.096649
46.104839 -49.182121 48.015335
50.562378 -59.162273 48.217094
33.640358 -47.715473 59.406143
59.823509 -45.372002 49.84993
35.212448 -61.479546 53.54232
36.149734 -65.676117 53.210159
33.87405 -63.663158 55.898865
34.364853 -57.911449 54.967422
36.515747 -58.615379 51.767296
57.829395 -30.816097 50.561684
54.674362 -34.151932 51.322388
41.009239 -43.448776 51.057022
44.684074 -44.312164 49.278549
41.88311 -47.917534 48.841621
44.157181 -61.324924 49.277763
46.150311 -57.781826 48.247894
48.552753 -62.747417 49.219048
33.739655 -44.72805 63.486992
63.961235 -33.785286 48.053635
65.550179 -30.738344 44.898945
53.136375 -47.339306 49.172897
55.979862 -43.993622 50.356178
57.179321 -48.807957 49.088737
42.041367 -64.681976 50.499405
43.778881 -69.619919 51.440033
39.667984 -67.723099 51.84417
36.378643 -51.007847 51.936028
39.628971 -51.621685 49.196945
37.908073 -55.257996 50.266014
39.91695 -59.853901 49.875992
60.605087 -27.56864 48.737709
60.959946 -32.329895 49.447952
61.687065 -37.118721 50.115494
47.979713 -36.264526 52.291237
51.291225 -37.49733 51.088821
47.888275 -40.857765 50.216095
48.844193 -45.729065 48.883873
50.540039 -50.714321 48.096802
43.738102 -52.770187 47.940857
48.228569 -54.203594 47.750244
52.57843 -55.628113 47.778496
33.260799 -58.097515 58.942284
35.722729 -43.862556 58.707764
35.581139 -47.192764 54.806671
34.178684 -51.015198 55.982506
65.107826 -26.168404 43.607948
55.04586 -39.065025 50.9412
58.921211 -40.578461 50.849731
34.295181 -60.875961 54.987312
34.552719 -62.654972 54.610992
34.022079 -59.330181 55.721321
34.779125 -59.627293 54.087639
54.777729 -31.741796 51.676109
53.088905 -33.424568 51.829567
48.404037 -66.956314 50.23365
47.163193 -68.717926 50.77491
39.559013 -45.32114 50.99292
41.301807 -45.622452 49.787338
39.988129 -47.483738 49.785416
45.321156 -63.805466 49.820595
46.378548 -62.058411 49.245323
47.486954 -64.52523 49.793236
49.545349 -65.167648 49.657608
64.337852 -36.108231 48.366089
53.922066 -49.78743 48.67337
55.211739 -48.10759 49.246437
55.934448 -50.500992 48.593689
39.974842 -63.833359 50.787651
40.888451 -66.249313 51.14991
38.904766 -65.323151 51.535431
35.138096 -66.829407 54.320213
36.630173 -67.965561 53.285065
35.705299 -52.855732 52.58989
37.066505 -53.083542 50.941093
36.390396 -54.872791 51.632515
37.286423 -60.753845 51.429634
38.074684 -59.187366 50.638794
39.018501 -61.474174 50.591461
40.994179 -62.246803 50.095917
57.917015 -33.243496 50.651093
59.370888 -31.577808 49.986839
59.607704 -33.99799 50.284218
61.296928 -34.72448 49.852295
59.947559 -36.423981 50.551392
46.138798 -38.021721 51.95649
47.790955 -38.518555 51.143471
46.043953 -40.245422 50.714996
45.280724 -46.714241 48.518112
46.723885 -44.972473 48.939758
47.4314 -47.436985 48.368492
49.622627 -48.219101 48.426735
48.323853 -49.935974 47.99493
40.605946 -53.971348 48.758949
41.602421 -52.142021 48.396187
42.694454 -54.58569 48.216274
48.394073 -58.489929 48.246361
47.167221 -55.987797 47.907036
49.405876 -56.702778 47.926865
50.450779 -54.933609 47.797604
51.558449 -57.383591 47.901878
52.5952 -59.773174 48.041924
33.602463 -46.184185 61.371056
34.717113 -44.274864 61.088554
34.518818 -45.787945 58.966286
35.526226 -45.466724 56.639824
34.53484 -47.400856 57.035561
34.753937 -49.1171 55.316757
33.840752 -49.325428 57.60659
33.413094 -56.408535 58.319832
63.069893 -26.805841 46.416168
64.078835 -25.311533 44.811859
64.256989 -27.626049 45.359875
51.477592 -39.928246 50.557457
53.128876 -38.267075 50.936188
53.453568 -40.732922 50.609467
57.958336 -44.721378 50.265648
57.452831 -42.297295 50.732689
59.371578 -42.995651 50.508629
60.763687 -41.250813 50.469002
61.167221 -43.622189 49.928734
36.48774 -62.197575 52.297417
37.138149 -64.397385 52.234039
35.670464 -63.501411 53.27494
34.833702 -64.661903 54.405853
34.743084 -56.332558 54.158684
35.807587 -56.579208 52.409424
35.279556 -58.175674 53.234612
35.863033 -60.12376 52.616051
56.38765 -30.072155 51.27697
56.291866 -32.479172 51.077034
56.375801 -34.921726 51.022507
42.614632 -41.608253 51.274734
44.358719 -42.00116 50.301628
42.767616 -43.792946 49.97287
43.221794 -46.096127 48.970459
43.939198 -48.495384 48.269043
42.933212 -58.845947 48.856064
43.901745 -57.069256 48.346336
45.155876 -59.567429 48.722015
47.393654 -60.280792 48.704803
49.568863 -60.954708 48.675804
51.615417 -61.563286 48.512146
50.607384 -63.365509 49.069534
32.836479 -48.103127 61.832458
33.078171 -49.638985 60.013657
63.598045 -31.461334 47.532639
64.521935 -29.929123 45.986389
64.844276 -32.222351 46.590454
52.440201 -44.867565 49.645973
53.935081 -43.206421 50.250465
54.533508 -45.670403 49.802559
56.562561 -46.423313 49.812859
58.482491 -47.101021 49.541428
44.19717 -65.505707 50.402771
45.112392 -67.976288 50.90995
42.990921 -67.144043 50.985703
41.699501 -68.705307 51.579323
37.785973 -66.703705 52.361382
37.234814 -49.119827 51.433556
38.84444 -49.362625 49.984528
37.874863 -51.237816 50.378555
38.71106 -53.461437 49.658623
39.704662 -55.772392 49.279259
37.187897 -56.984585 50.979485
38.871372 -57.519268 49.91684
40.810432 -58.151249 49.224571
41.973179 -60.578484 49.449173
43.12664 -63.035442 49.876274
61.831902 -26.00432 47.470078
61.952911 -28.348249 47.839104
59.27034 -29.17519 49.776901
60.719551 -29.941307 49.041016
62.190289 -30.704201 48.323761
62.520531 -33.063374 48.835526
62.902626 -35.423325 49.24144
63.293785 -37.779999 49.398682
45.812653 -70.438141 51.276794
49.824276 -34.52314 52.535019
51.343433 -35.114586 51.762169
49.567734 -36.811073 51.514862
49.578461 -39.171558 50.699585
49.843597 -41.590797 50.042221
46.247959 -42.567833 49.716431
48.251549 -43.267776 49.47403
50.330429 -44.051373 49.489815
50.997894 -46.533371 49.004936
51.80278 -49.015877 48.572968
52.700104 -51.477966 48.194611
40.683689 -49.76561 48.917221
42.711559 -50.309566 48.226509
44.872944 -50.963184 47.868542
44.90633 -55.270176 47.964722
45.969528 -53.470211 47.758919
47.106323 -51.687908 47.76516
49.349808 -52.443298 47.81192
51.54512 -53.191395 47.888283
53.639587 -53.899273 47.869019
33.50526 -59.385597 57.447891
33.092091 -59.782078 59.333946
46.534397 -35.904987 53.450302
44.633171 -37.721169 53.162148
42.784496 -39.555691 52.871155
41.03466 -41.413216 52.64019
39.430943 -43.296459 52.5261
38.016941 -45.202988 52.573166
36.67905 -45.259804 54.479881
36.826035 -47.123367 52.807236
35.873848 -49.041431 53.231865
35.152508 -50.936211 53.827255
34.629505 -52.785534 54.552544
34.253487 -54.569344 55.350555
33.966671 -56.271023 56.153404
33.722298 -57.877224 56.884674
64.99659 -23.853304 43.065361
65.299164 -28.463554 44.24485
52.998951 -35.825523 51.314453
54.770821 -36.59864 51.10807
56.622467 -37.382118 51.023087
55.462269 -41.535355 50.718193
56.995277 -39.845547 50.962097
58.502113 -38.13784 50.918449
60.346603 -38.845776 50.652306
62.087608 -39.503662 50.103439
61.535828 -45.939812 49.017273
62.796021 -44.179916 48.919113
33.772585 -61.14707 56.225209
34.045351 -61.361129 55.55241
34.022415 -60.661901 55.660111
52.364208 -33.109735 52.230412
53.242611 -32.253069 52.182285
52.517914 -31.938236 52.58313
64.930447 -36.452914 47.773062
64.515998 -37.266346 48.351513
35.295452 -67.965881 54.315208
34.624544 -67.34687 54.940212
33.926494 -64.680009 55.805279
34.40632 -65.179382 55.058773
34.353876 -64.162531 55.152359
55.729134 -29.730518 51.745914
56.51616 -28.898485 51.46516
50.489519 -65.439605 49.476639
49.924087 -66.350433 49.774113
32.446585 -48.318886 63.035988
32.776395 -47.361492 62.803486
32.616598 -49.066374 62.143894
32.446585 -48.318886 63.035988
40.00085 -68.947766 52.02145
41.016609 -69.43887 51.889026
40.683742 -68.214203 51.711747
37.511256 -68.527191 52.94262
36.855862 -69.148529 53.355229
61.218494 -26.78648 48.103893
61.223374 -25.618081 48.025898
60.609966 -26.400241 48.659714
58.549867 -29.995643 50.169292
58.586254 -28.799992 50.199913
57.865781 -29.620445 50.592304
53.570028 -55.944296 47.677639
54.100606 -55.079876 47.722901
53.109009 -54.763693 47.823757
52.547912 -61.825018 48.311131
52.050117 -62.727866 48.599545
45.87961 -35.833631 54.215542
46.864699 -34.90011 54.310825
44.928997 -36.741723 54.071465
45.583784 -36.813078 53.306225
45.87961 -35.833631 54.215542
42.085004 -39.538683 53.693855
43.027898 -38.596514 53.806565
41.210087 -40.467445 53.578373
41.909578 -40.484454 52.755673
42.085004 -39.538683 53.693855
38.73419 -43.314464 53.43272
39.526726 -42.357799 53.445408
38.027189 -44.267729 53.456253
38.723942 -44.249724 52.549633
38.73419 -43.314464 53.43272
34.427727 -43.790108 63.425919
33.889103 -44.033714 64.602733
35.941437 -43.117107 59.84037
35.438629 -43.323261 61.030766
35.219921 -44.06871 59.898159
36.473743 -42.901466 58.662578
35.941437 -43.117107 59.84037
36.267877 -43.698127 57.567978
36.473743 -42.901466 58.662578
33.244788 -50.43334 59.16557
32.930914 -50.594866 60.379978
33.915173 -54.619393 56.455219
34.030985 -53.71974 56.051933
33.771765 -55.470232 56.856644
34.110079 -55.420184 55.75198
33.915173 -54.619393 56.455219
65.486213 -25.455562 42.670506
65.430595 -24.298012 42.399212
65.052208 -25.010854 43.336655
62.276234 -40.684036 49.910847
61.425647 -40.377237 50.28622
61.614273 -41.557612 50.093628
62.873474 -39.812962 49.646084
62.276234 -40.684036 49.910847
62.301438 -46.183649 48.371144
61.695198 -47.061963 48.395138
62.931534 -45.303701 48.322063
62.165925 -45.059864 48.968193
62.301438 -46.183649 48.371144
34.17412 -62.250635 55.36425
34.42395 -61.765467 54.799152
34.045351 -61.361129 55.55241
33.834785 -62.754728 56.008187
34.213385 -63.159065 55.254929
34.17412 -62.250635 55.36425
54.087023 -31.411683 52.105556
54.924174 -30.565339 51.945484
53.933317 -32.583182 51.752838
54.087023 -31.411683 52.105556
53.242611 -32.253069 52.182285
48.737426 -68.150833 50.338676
49.353431 -67.244766 50.062134
48.117005 -69.031639 50.609307
48.737426 -68.150833 50.338676
47.783615 -67.83712 50.50428
47.443653 -69.926368 50.859676
48.117005 -69.031639 50.609307
49.353431 -67.244766 50.062134
49.924087 -66.350433 49.774113
48.974693 -66.061981 49.945629
64.762969 -35.309958 47.700626
64.574661 -34.148485 47.544399
64.149543 -34.946759 48.209862
64.762969 -35.309958 47.700626
64.930447 -36.452914 47.773062
36.04149 -68.533958 53.797635
35.884135 -67.397484 53.802639
35.295452 -67.965881 54.315208
36.855862 -69.148529 53.355229
36.04149 -68.533958 53.797635
59.958458 -27.188904 49.228313
60.609966 -26.400241 48.659714
44.067478 -70.859741 51.59224
43.066175 -70.402985 51.701401
52.564398 -57.693915 47.809011
53.074388 -56.816175 47.747321
52.068439 -56.505852 47.840187
53.082774 -58.888706 47.879035
52.564398 -57.693915 47.809011
52.076825 -58.578383 47.971901
53.519527 -60.037929 47.831356
53.082774 -58.888706 47.879035
33.069173 -58.311182 60.029526
33.12701 -57.41429 59.769581
33.242601 -55.668919 59.108852
33.494976 -55.538988 57.939858
33.203158 -56.5698 59.458355
33.242601 -55.668919 59.108852
33.12701 -57.41429 59.769581
33.336946 -57.253025 58.631058
33.203158 -56.5698 59.458355
63.574364 -26.058687 45.614013
63.517929 -24.897255 45.409341
63.013458 -25.644409 46.211496
65.822849 -30.029566 43.964094
65.914032 -31.15465 44.274382
61.81604 -42.743299 49.823494
61.614273 -41.557612 50.093628
60.965454 -42.436501 50.198868
34.558517 -66.263134 55.015953
34.985899 -65.745655 54.363033
34.40632 -65.179382 55.058773
34.624544 -67.34687 54.940212
34.558517 -66.263134 55.015953
57.144909 -29.248474 50.949948
56.51616 -28.898485 51.46516
57.108522 -30.444126 50.919327
57.865781 -29.620445 50.592304
57.144909 -29.248474 50.949948
55.58269 -30.906976 51.47654
55.729134 -29.730518 51.745914
54.924174 -30.565339 51.945484
51.546101 -63.628977 48.878238
52.050117 -62.727866 48.599545
51.111401 -62.464398 48.79084
51.020537 -64.538536 49.182602
50.076367 -64.266579 49.363571
50.489519 -65.439605 49.476639
51.546101 -63.628977 48.878238
51.020537 -64.538536 49.182602
33.237385 -44.957899 64.660248
33.889103 -44.033714 64.602733
33.227984 -45.673954 63.630752
33.237385 -44.957899 64.660248
33.159388 -46.402022 62.572784
33.671059 -45.456118 62.429024
33.227984 -45.673954 63.630752
33.219471 -47.143656 61.601757
33.159388 -46.402022 62.572784
32.776395 -47.361492 62.803486
32.737444 -49.834303 61.234493
32.957325 -48.871056 60.923057
32.616598 -49.066374 62.143894
32.930914 -50.594866 60.379978
32.737444 -49.834303 61.234493
65.016181 -33.367018 46.812809
64.402755 -33.003819 47.322045
64.574661 -34.148485 47.544399
65.337993 -32.611801 46.018856
65.016181 -33.367018 46.812809
65.690945 -31.869798 45.173102
65.197227 -31.480348 45.744699
65.337993 -32.611801 46.018856
65.914032 -31.15465 44.274382
65.690945 -31.869798 45.173102
42.026485 -69.945678 51.771046
43.066175 -70.402985 51.701401
42.739191 -69.162613 51.509678
42.026485 -69.945678 51.771046
41.016609 -69.43887 51.889026
38.089156 -67.896263 52.480778
37.208073 -67.334633 52.823223
37.511256 -68.527191 52.94262
39.030161 -68.40596 52.222172
38.726979 -67.213402 52.102776
38.089156 -67.896263 52.480778
40.00085 -68.947766 52.02145
39.030161 -68.40596 52.222172
61.824423 -24.849226 47.353428
61.223374 -25.618081 48.025898
62.394463 -25.243648 46.738451
61.824423 -24.849226 47.353428
62.450897 -26.405081 46.943123
63.013458 -25.644409 46.211496
62.394463 -25.243648 46.738451
59.291084 -27.992179 49.74791
58.586254 -28.799992 50.199913
59.937714 -28.371915 49.257305
59.958458 -27.188904 49.228313
59.291084 -27.992179 49.74791
63.993965 -38.10223 48.867809
64.515998 -37.266346 48.351513
63.815818 -36.944115 48.882385
55.709221 -52.513838 48.013925
55.171326 -53.36665 47.897419
46.768383 -70.786476 51.110619
47.443653 -69.926368 50.859676
46.487923 -69.578034 51.025852
45.084364 -71.268853 51.51062
44.795767 -70.02903 51.358413
44.067478 -70.859741 51.59224
46.037168 -71.66185 51.334789
45.084364 -71.268853 51.51062
46.768383 -70.786476 51.110619
46.037168 -71.66185 51.334789
54.613464 -54.219521 47.752598
55.171326 -53.36665 47.897419
54.197449 -53.046402 48.01384
54.613464 -54.219521 47.752598
54.100606 -55.079876 47.722901
53.570028 -55.944296 47.677639
53.074388 -56.816175 47.747321
53.037804 -60.929962 48.07602
52.105308 -60.66823 48.277035
52.547912 -61.825018 48.311131
53.519527 -60.037929 47.831356
53.037804 -60.929962 48.07602
33.428505 -60.152031 57.562812
33.550699 -60.683154 57.005322
33.627454 -59.916719 56.8904
33.22192 -60.350271 58.50584
33.428505 -60.152031 57.562812
33.298676 -59.583838 58.390918
32.995045 -60.66058 59.392925
33.22192 -60.350271 58.50584
32.98482 -59.153464 60.225357
33.176445 -58.939796 59.138115
33.069173 -58.311182 60.029526
32.887904 -60.065075 60.364452
32.98482 -59.153464 60.225357
32.995045 -60.66058 59.392925
32.887904 -60.065075 60.364452
51.893299 -31.674126 53.166534
52.517914 -31.938236 52.58313
50.983372 -32.556607 53.202027
51.893299 -31.674126 53.166534
50.075754 -33.420725 53.153908
50.731893 -33.659021 52.583137
50.983372 -32.556607 53.202027
49.134756 -34.313503 53.103973
50.075754 -33.420725 53.153908
48.212474 -35.184196 52.982083
48.901995 -35.393833 52.413128
49.134756 -34.313503 53.103973
47.489817 -35.004427 53.561615
46.864699 -34.90011 54.310825
47.257055 -36.084756 52.87077
48.212474 -35.184196 52.982083
47.489817 -35.004427 53.561615
43.952236 -37.679253 53.952061
44.928997 -36.741723 54.071465
43.708833 -38.63843 53.016652
43.952236 -37.679253 53.952061
43.027898 -38.596514 53.806565
40.328585 -41.416178 53.502453
41.210087 -40.467445 53.578373
40.232802 -42.354838 52.583145
40.328585 -41.416178 53.502453
39.526726 -42.357799 53.445408
34.916456 -43.563514 62.2267
34.427727 -43.790108 63.425919
34.228384 -44.501457 62.287773
34.916456 -43.563514 62.2267
35.438629 -43.323261 61.030766
36.169626 -44.500211 56.534008
36.267877 -43.698127 57.567978
35.624477 -44.66464 57.673794
36.746038 -44.396752 55.454037
36.169626 -44.500211 56.534008
36.102638 -45.363264 55.559852
37.358244 -44.296137 54.40961
36.746038 -44.396752 55.454037
37.347995 -45.231396 53.526523
38.027189 -44.267729 53.456253
37.358244 -44.296137 54.40961
33.626078 -50.276561 57.962036
33.459462 -49.482207 58.810124
33.244788 -50.43334 59.16557
33.795044 -51.121446 57.149994
34.009718 -50.170313 56.794548
33.626078 -50.276561 57.962036
33.993583 -51.942667 56.367908
33.795044 -51.121446 57.149994
34.218994 -52.827835 55.652927
34.404094 -51.900366 55.267525
33.993583 -51.942667 56.367908
34.441496 -53.677439 54.951549
34.218994 -52.827835 55.652927
34.030985 -53.71974 56.051933
33.689882 -56.339779 57.236618
33.771765 -55.470232 56.856644
33.494976 -55.538988 57.939858
33.772585 -61.14707 56.225209
33.550699 -60.683154 57.005322
33.564245 -63.151872 56.75124
33.834785 -62.754728 56.008187
33.522238 -64.114645 56.655548
33.564245 -63.151872 56.75124
33.926494 -64.680009 55.805279
33.522238 -64.114645 56.655548
64.03635 -24.154626 44.59738
63.517929 -24.897255 45.409341
64.495228 -23.425511 43.724131
64.03635 -24.154626 44.59738
64.537712 -24.582419 43.93861
64.978905 -22.694668 42.84814
64.495228 -23.425511 43.724131
65.421387 -23.133089 42.138188
65.403702 -21.974453 41.920967
64.978905 -22.694668 42.84814
65.421387 -23.133089 42.138188
65.430595 -24.298012 42.399212
65.697342 -28.89217 43.637046
65.424672 -29.600949 44.571897
65.822849 -30.029566 43.964094
65.625054 -27.755432 43.300407
65.697342 -28.89217 43.637046
65.529384 -26.607857 42.981956
65.203495 -27.315979 43.926399
65.625054 -27.755432 43.300407
65.486213 -25.455562 42.670506
65.529384 -26.607857 42.981956
63.476562 -38.95113 49.293705
62.690697 -38.64183 49.751061
62.873474 -39.812962 49.646084
63.993965 -38.10223 48.867809
63.476562 -38.95113 49.293705
56.29879 -51.667569 48.23144
55.344879 -51.347262 48.376175
55.709221 -52.513838 48.013925
56.867267 -50.816324 48.404049
56.29879 -51.667569 48.23144
57.489704 -49.969807 48.651573
56.556885 -49.654474 48.841213
56.867267 -50.816324 48.404049
58.090156 -49.113855 48.836624
57.489704 -49.969807 48.651573
58.741742 -48.260388 49.06297
57.830906 -47.954489 49.315083
58.090156 -49.113855 48.836624
59.368966 -47.395269 49.211838
58.741742 -48.260388 49.06297
60.039474 -46.53076 49.366089
59.153 -46.236512 49.695679
59.368966 -47.395269 49.211838
60.895634 -46.814665 48.94976
61.695198 -47.061963 48.395138
60.679669 -45.655907 49.433602
60.039474 -46.53076 49.366089
60.895634 -46.814665 48.94976
62.63044 -43.022163 49.318684
61.81604 -42.743299 49.823494
61.981621 -43.901052 49.423924
63.511475 -44.428957 48.188852
62.931534 -45.303701 48.322063
63.646988 -45.552742 47.591803
63.385632 -43.30492 48.731544
63.511475 -44.428957 48.188852
62.63044 -43.022163 49.318684
63.385632 -43.30492 48.731544
3 0 237 239
3 239 238 60
3 237 238 239
3 0 60 62
3 1 240 242
3 240 65 241
3 240 241 242
3 2 67 66
3 3 70 68
3 2 73 71
3 2 66 73
3 244 243 75
3 4 78 76
3 5 81 79
3 246 245 82
3 6 86 84
3 5 89 87
3 5 79 89
3 9 93 91
3 9 95 93
3 10 98 96
3 12 101 99
3 12 103 101
3 7 106 104
3 13 109 107
3 13 111 109
3 13 112 111
3 14 115 113
3 14 117 115
3 14 119 117
3 8 123 121
3 11 126 124
3 15 129 127
3 15 131 129
3 16 134 132
3 18 135 61
3 18 247 249
3 249 248 135
3 247 248 249
3 19 138 136
3 16 139 63
3 16 132 139
3 250 140 251
3 22 141 64
3 22 142 141
3 23 145 143
3 25 146 69
3 25 147 146
3 26 150 148
3 28 151 72
3 28 152 151
3 28 154 152
3 253 252 74
3 254 155 255
3 257 256 155
3 30 159 157
3 32 162 160
3 34 163 77
3 34 164 163
3 35 167 165
3 37 168 80
3 37 258 260
3 260 259 168
3 258 259 260
3 17 169 133
3 262 261 83
3 38 172 170
3 40 173 85
3 40 174 173
3 20 175 137
3 41 176 88
3 41 177 176
3 41 178 177
3 35 179 90
3 35 165 179
3 42 263 265
3 263 180 264
3 263 264 265
3 42 181 180
3 21 266 268
3 266 182 267
3 266 267 268
3 43 183 92
3 43 184 183
3 43 185 184
3 44 186 94
3 44 187 186
3 36 188 166
3 45 191 189
3 47 192 97
3 47 193 192
3 24 194 144
3 48 195 100
3 48 196 195
3 48 197 196
3 49 198 102
3 49 199 198
3 39 200 171
3 50 201 105
3 50 202 201
3 27 203 149
3 51 204 108
3 51 205 204
3 51 206 205
3 52 207 110
3 52 208 207
3 52 269 271
3 271 270 208
3 269 270 271
3 273 272 153
3 53 210 209
3 274 211 275
3 276 212 277
3 278 277 211
3 276 277 278
3 279 213 280
3 281 214 282
3 283 282 213
3 281 282 283
3 284 215 285
3 286 216 287
3 288 287 215
3 286 287 288
3 29 289 290
3 54 291 293
3 293 292 114
3 291 292 293
3 54 294 295
3 54 296 297
3 55 217 116
3 55 218 217
3 55 219 218
3 56 220 118
3 56 221 220
3 299 298 156
3 300 222 301
3 302 223 303
3 304 303 222
3 302 303 304
3 53 224 120
3 53 209 224
3 57 225 122
3 57 305 307
3 307 306 225
3 305 306 307
3 31 226 158
3 46 227 190
3 58 228 125
3 58 229 228
3 33 230 161
3 59 231 128
3 59 232 231
3 59 233 232
3 308 234 309
3 310 309 130
3 308 309 310
3 312 311 234
3 313 235 314
3 315 236 316
3 317 316 235
3 315 316 317
3 60 61 16
3 318 61 319
3 320 319 60
3 318 319 320
3 321 18 322
3 323 322 61
3 321 322 323
3 62 63 19
3 60 63 62
3 60 16 63
3 324 64 325
3 65 326 328
3 326 64 327
3 326 327 328
3 65 22 64
3 66 329 330
3 67 331 333
3 333 332 66
3 331 332 333
3 67 334 335
3 68 69 23
3 70 69 68
3 70 25 69
3 71 72 26
3 73 72 71
3 73 28 72
3 73 74 28
3 66 74 73
3 66 336 338
3 338 337 74
3 336 337 338
3 75 339 341
3 341 340 30
3 339 340 341
3 343 342 75
3 76 77 32
3 78 77 76
3 78 34 77
3 79 80 35
3 81 80 79
3 81 37 80
3 82 83 17
3 344 83 345
3 346 345 82
3 344 345 346
3 348 347 83
3 84 85 38
3 86 85 84
3 86 40 85
3 87 88 20
3 89 88 87
3 89 41 88
3 89 90 41
3 79 90 89
3 79 35 90
3 349 42 350
3 91 92 21
3 93 92 91
3 93 43 92
3 93 94 43
3 95 94 93
3 95 44 94
3 352 351 36
3 96 97 45
3 98 97 96
3 98 47 97
3 99 100 24
3 101 100 99
3 101 48 100
3 101 102 48
3 103 102 101
3 103 49 102
3 104 105 39
3 106 105 104
3 106 50 105
3 107 108 27
3 109 108 107
3 109 51 108
3 109 110 51
3 111 110 109
3 111 52 110
3 111 353 355
3 355 354 52
3 353 354 355
3 112 356 358
3 358 357 111
3 356 357 358
3 112 359 360
3 362 361 53
3 113 114 29
3 115 114 113
3 115 54 114
3 115 116 54
3 117 116 115
3 117 55 116
3 117 118 55
3 119 118 117
3 119 56 118
3 363 120 364
3 365 120 366
3 367 53 368
3 369 368 120
3 367 368 369
3 121 370 372
3 370 122 371
3 370 371 372
3 123 122 121
3 123 57 122
3 374 373 31
3 124 125 46
3 126 125 124
3 126 58 125
3 127 128 33
3 129 128 127
3 129 59 128
3 129 130 59
3 131 130 129
3 131 375 377
3 377 376 130
3 375 376 377
3 132 133 5
3 134 133 132
3 134 17 133
3 61 134 16
3 135 134 61
3 135 17 134
3 135 82 17
3 378 82 379
3 380 379 135
3 378 379 380
3 382 381 82
3 136 137 6
3 138 137 136
3 138 20 137
3 63 138 19
3 139 138 63
3 139 20 138
3 139 87 20
3 132 87 139
3 132 5 87
3 140 383 384
3 140 385 387
3 385 21 386
3 385 386 387
3 64 388 390
3 388 140 389
3 388 389 390
3 141 140 64
3 141 21 140
3 141 91 21
3 142 91 141
3 142 9 91
3 143 144 10
3 145 144 143
3 145 24 144
3 69 145 23
3 146 145 69
3 146 24 145
3 146 99 24
3 147 99 146
3 147 12 99
3 148 149 7
3 150 149 148
3 150 27 149
3 72 150 26
3 151 150 72
3 151 27 150
3 151 107 27
3 152 107 151
3 152 13 107
3 152 153 13
3 154 153 152
3 154 391 393
3 393 392 153
3 391 392 393
3 74 154 28
3 394 154 395
3 396 395 74
3 394 395 396
3 398 397 154
3 399 29 400
3 401 29 402
3 403 113 404
3 405 404 29
3 403 404 405
3 155 406 408
3 406 113 407
3 406 407 408
3 155 14 113
3 155 156 14
3 409 156 410
3 411 410 155
3 409 410 411
3 413 412 156
3 157 158 8
3 159 158 157
3 159 31 158
3 414 159 415
3 416 415 30
3 414 415 416
3 417 159 418
3 419 31 420
3 421 420 159
3 419 420 421
3 423 422 31
3 160 161 11
3 162 161 160
3 162 33 161
3 77 162 32
3 163 162 77
3 163 33 162
3 163 127 33
3 164 127 163
3 164 15 127
3 165 166 2
3 167 166 165
3 167 36 166
3 80 167 35
3 168 167 80
3 168 36 167
3 168 424 426
3 426 425 36
3 424 425 426
3 428 427 168
3 133 81 5
3 169 81 133
3 169 37 81
3 83 169 17
3 429 169 430
3 431 430 83
3 429 430 431
3 432 37 433
3 434 433 169
3 432 433 434
3 436 435 37
3 170 171 3
3 172 171 170
3 172 39 171
3 85 172 38
3 173 172 85
3 173 39 172
3 173 104 39
3 174 104 173
3 174 7 104
3 137 86 6
3 175 86 137
3 175 40 86
3 88 175 20
3 176 175 88
3 176 40 175
3 176 174 40
3 177 174 176
3 177 7 174
3 177 148 7
3 178 148 177
3 178 26 148
3 90 178 41
3 179 178 90
3 179 26 178
3 179 71 26
3 165 71 179
3 165 2 71
3 180 437 438
3 180 439 440
3 180 441 443
3 441 121 442
3 441 442 443
3 181 121 180
3 181 8 121
3 182 444 445
3 182 446 448
3 446 42 447
3 446 447 448
3 92 182 21
3 183 182 92
3 183 42 182
3 183 181 42
3 184 181 183
3 184 8 181
3 184 157 8
3 185 157 184
3 185 30 157
3 94 185 43
3 186 185 94
3 186 30 185
3 186 75 30
3 187 75 186
3 187 449 451
3 451 450 75
3 449 450 451
3 453 452 4
3 166 67 2
3 188 67 166
3 188 454 456
3 456 455 67
3 454 455 456
3 457 188 458
3 459 458 36
3 457 458 459
3 460 188 461
3 463 462 188
3 189 190 1
3 191 190 189
3 191 46 190
3 97 191 45
3 192 191 97
3 192 46 191
3 192 124 46
3 193 124 192
3 193 11 124
3 144 98 10
3 194 98 144
3 194 47 98
3 100 194 24
3 195 194 100
3 195 47 194
3 195 193 47
3 196 193 195
3 196 11 193
3 196 160 11
3 197 160 196
3 197 32 160
3 102 197 48
3 198 197 102
3 198 32 197
3 198 76 32
3 199 76 198
3 199 4 76
3 171 70 3
3 200 70 171
3 200 25 70
3 105 200 39
3 201 200 105
3 201 25 200
3 201 147 25
3 202 147 201
3 202 12 147
3 149 106 7
3 203 106 149
3 203 50 106
3 108 203 27
3 204 203 108
3 204 50 203
3 204 202 50
3 205 202 204
3 205 12 202
3 205 103 12
3 206 103 205
3 206 49 103
3 110 206 51
3 207 206 110
3 207 49 206
3 207 199 49
3 208 199 207
3 208 4 199
3 208 464 466
3 466 465 4
3 464 465 466
3 468 467 208
3 470 469 52
3 153 112 13
3 471 112 472
3 473 472 153
3 471 472 473
3 475 474 112
3 209 476 478
3 478 477 0
3 476 477 478
3 210 479 481
3 481 480 209
3 479 480 481
3 210 482 483
3 484 210 485
3 486 485 53
3 484 485 486
3 487 210 488
3 490 489 210
3 491 1 492
3 493 1 494
3 495 189 496
3 497 496 1
3 495 496 497
3 498 189 499
3 500 45 501
3 502 501 189
3 500 501 502
3 211 503 504
3 211 505 507
3 505 45 506
3 505 506 507
3 211 96 45
3 212 96 211
3 212 10 96
3 508 212 509
3 213 510 512
3 510 212 511
3 510 511 512
3 213 10 212
3 213 143 10
3 214 143 213
3 214 23 143
3 513 214 514
3 215 515 517
3 515 214 516
3 515 516 517
3 215 23 214
3 215 68 23
3 216 68 215
3 216 3 68
3 114 518 520
3 520 519 29
3 518 519 520
3 522 521 114
3 116 523 525
3 525 524 54
3 523 524 525
3 217 526 528
3 528 527 116
3 526 527 528
3 217 529 530
3 217 531 533
3 531 216 532
3 531 532 533
3 218 216 217
3 218 3 216
3 218 170 3
3 219 170 218
3 219 38 170
3 118 219 55
3 220 219 118
3 220 38 219
3 220 84 38
3 221 84 220
3 221 6 84
3 156 119 14
3 534 119 535
3 536 535 156
3 534 535 536
3 537 56 538
3 539 538 119
3 537 538 539
3 540 56 541
3 542 221 543
3 544 543 56
3 542 543 544
3 222 545 547
3 545 221 546
3 545 546 547
3 222 6 221
3 222 136 6
3 223 136 222
3 223 19 136
3 120 548 550
3 548 223 549
3 548 549 550
3 224 223 120
3 224 19 223
3 224 62 19
3 209 62 224
3 209 0 62
3 552 551 0
3 553 18 554
3 555 18 556
3 558 557 18
3 122 559 560
3 225 561 563
3 563 562 122
3 561 562 563
3 225 564 565
3 225 566 568
3 566 567 568
3 570 569 225
3 158 123 8
3 226 123 158
3 226 57 123
3 571 226 572
3 573 572 31
3 571 572 573
3 574 226 575
3 576 57 577
3 578 577 226
3 576 577 578
3 580 579 57
3 190 65 1
3 227 65 190
3 227 22 65
3 125 227 46
3 228 227 125
3 228 22 227
3 228 142 22
3 229 142 228
3 229 9 142
3 161 126 11
3 230 126 161
3 230 58 126
3 128 230 33
3 231 230 128
3 231 58 230
3 231 229 58
3 232 229 231
3 232 9 229
3 232 95 9
3 233 95 232
3 233 44 95
3 130 233 59
3 234 233 130
3 234 44 233
3 234 187 44
3 581 187 582
3 583 582 234
3 581 582 583
3 585 584 187
3 586 78 587
3 588 587 4
3 586 587 588
3 589 78 590
3 591 34 592
3 593 592 78
3 591 592 593
3 594 34 595
3 596 164 597
3 598 597 34
3 596 597 598
3 599 164 600
3 601 15 602
3 603 602 164
3 601 602 603
3 235 604 605
3 235 606 608
3 606 15 607
3 606 607 608
3 235 131 15
3 236 131 235
3 236 609 611
3 611 610 131
3 609 610 611
3 612 236 613
3 612 613 614
3 615 236 616
3 618 617 236
