ply
format ascii 1.0
element vertex 350
property float x
property float y
property float z
element face 365
property list uchar int vertex_index
end_header
-64.425568 -44.320827 -14.268452
-65.86235 -19.380661 -28.043343
-62.414448 -33.423592 -14.541996
-65.444244 -32.565613 -21.818504
-63.001595 -22.489141 -19.99498
-68.88221 -44.673256 -20.708767
-63.60701 -6.207873 -33.618492
-62.499809 -28.126354 -17.56715
-66.253845 -50.0471 -13.234179
-66.927498 -44.541172 -17.516312
-65.90892 -26.036663 -25.041111
-67.950989 -31.779915 -25.09071
-67.902664 -24.919945 -28.465
-67.064713 -18.034071 -31.832405
-62.866066 -38.767673 -14.731834
-64.869873 -38.736855 -18.229
-63.105072 -33.22155 -18.300228
-63.630116 -27.215942 -21.419472
-64.094597 -20.965462 -24.115128
-67.514015 -38.400284 -21.491867
-69.238052 -38.167152 -24.669392
-62.920475 -43.69492 -10.841192
-62.834599 -38.289272 -11.030058
-64.10614 -14.646074 -26.489304
-63.521683 -8.379034 -28.581745
-65.077255 -12.743851 -30.927338
-65.375046 -11.243785 -35.23521
-65.372147 -47.158966 -13.812176
-66.612579 -47.378059 -15.401529
-65.650803 -44.467316 -15.909319
-65.970825 -22.713161 -26.559917
-67.032532 -25.445202 -26.765301
-66.920303 -22.048021 -28.358578
-67.592484 -21.470362 -30.140793
-66.607269 -18.653399 -29.944016
-62.470806 -36.059566 -14.718212
-62.939949 -36.064705 -16.567398
-62.489048 -33.391521 -16.440083
-62.72221 -25.343307 -18.853752
-62.849468 -27.719837 -19.511242
-63.127083 -24.759361 -20.850872
-63.898022 -24.108728 -22.813759
-63.395901 -21.746202 -22.071037
-65.148026 -35.711914 -20.074612
-66.217125 -38.583214 -19.883339
-66.512589 -35.426132 -21.727104
-68.786377 -31.471527 -26.694752
-68.733414 -34.896656 -24.921062
-69.277779 -34.75843 -26.518623
-62.967529 -45.917076 -8.83399
-62.924278 -43.216812 -9.058735
-62.726162 -40.97731 -11.002035
-63.689129 -15.648048 -24.209141
-63.605469 -7.24404 -31.121632
-64.183128 -10.44025 -29.960926
-64.417442 -9.458454 -32.307919
-65.367447 -11.920365 -33.091095
-64.471054 -8.59734 -34.616463
-62.38847 -30.823383 -16.127335
-62.64085 -28.413363 -15.634607
-62.749493 -25.844358 -16.871906
-62.981705 -23.186859 -17.932465
-66.940704 -52.993393 -12.565115
-67.869812 -53.393738 -14.118553
-67.388367 -50.352226 -14.793518
-67.748337 -47.550697 -16.984711
-68.0578 -44.591782 -19.109283
-65.715897 -29.329967 -23.468037
-66.780205 -32.162716 -23.475571
-66.971077 -28.825432 -25.146324
-68.010986 -28.364691 -26.790684
-68.68309 -28.000162 -28.433716
-68.386963 -24.511452 -30.172459
-67.87532 -21.028885 -31.936184
-67.140831 -17.569147 -33.73373
-62.666397 -3.006784 -34.834209
-63.420086 -5.313255 -36.070301
-62.234112 -2.080227 -37.421791
-63.549141 -41.52441 -14.579891
-64.630768 -41.612839 -16.287642
-63.686062 -38.810585 -16.512861
-63.887905 -35.93943 -18.356483
-64.149338 -32.934368 -20.096252
-62.621914 -30.604675 -18.041405
-63.347797 -30.262699 -19.917938
-64.439728 -29.825006 -21.729321
-64.709732 -26.642433 -23.264278
-64.90316 -23.415077 -24.717293
-64.970108 -20.166067 -26.105797
-65.926865 -41.604424 -17.940441
-67.226593 -41.543419 -19.55212
-68.333664 -41.484047 -21.143932
-67.768906 -35.135777 -23.333363
-68.568497 -38.244148 -23.078712
-69.095535 -41.480446 -22.738434
-64.225266 -46.852402 -12.196264
-63.370304 -46.437183 -10.538811
-63.457047 -44.06736 -12.580219
-62.870949 -41.313301 -12.814766
-62.559929 -38.591549 -12.896872
-62.572941 -35.915825 -12.833248
-63.653805 -37.891182 -9.158104
-63.271534 -19.585243 -21.007206
-63.597912 -18.702494 -23.186157
-64.173203 -17.806044 -25.337418
-64.877411 -16.912582 -27.4422
-63.886234 -11.498916 -27.572308
-64.61293 -13.667123 -28.729599
-65.564171 -16.054102 -29.500462
-66.086304 -15.274611 -31.525444
-66.320847 -14.622882 -33.537033
-66.188858 -14.142335 -35.555191
-64.247665 -7.901419 -36.895363
-68.990978 -46.317039 -20.457775
-68.748211 -46.200772 -19.645314
-69.090603 -44.753284 -21.519289
-68.990978 -46.317039 -20.457775
-69.227051 -33.02136 -27.418278
-69.032078 -33.114978 -26.606687
-68.98135 -31.377908 -27.506342
-69.31057 -34.757568 -27.333212
-69.227051 -33.02136 -27.418278
-63.20322 -42.943062 -8.15365
-63.013914 -44.268658 -8.072436
-63.039497 -41.877848 -9.109785
-63.20322 -42.943062 -8.15365
-63.60624 -6.725957 -32.370062
-63.252306 -5.669802 -31.658194
-63.253077 -5.151718 -32.906624
-62.945711 -28.484205 -14.701253
-62.667629 -29.657111 -14.925498
-63.039988 -24.841366 -16.412321
-62.971613 -26.043751 -15.923693
-63.156093 -23.512616 -16.942601
-62.865599 -24.515608 -17.402186
-63.039988 -24.841366 -16.412321
-62.137686 -1.442251 -35.384902
-62.371941 -2.013361 -34.000543
-61.921543 -0.978972 -36.678693
-62.450254 -2.543506 -36.128
-62.137686 -1.442251 -35.384902
-68.167351 -53.594344 -14.918991
-68.077877 -52.015018 -15.247129
-69.329643 -39.871891 -24.511215
-69.258385 -41.528538 -23.545737
-69.166793 -39.823799 -23.703913
-64.10521 -48.030724 -11.146176
-64.639294 -48.264069 -11.936115
-64.265806 -37.669412 -8.232617
-63.872564 -38.966314 -8.236273
-63.371814 -18.120775 -21.457365
-63.39774 -18.627855 -20.313826
-63.535004 -17.6794 -22.546841
-63.434723 -19.143868 -22.096682
-63.371814 -18.120775 -21.457365
-63.334616 -7.490371 -27.688639
-63.274416 -6.842387 -29.045942
-63.492432 -8.978411 -27.295906
-63.334616 -7.490371 -27.688639
-63.703958 -9.938975 -28.077027
-63.674707 -10.538352 -26.791187
-63.492432 -8.978411 -27.295906
-63.603611 -6.251311 -37.688006
-63.833875 -6.607337 -36.482832
-63.189821 -4.957229 -37.275475
-69.361843 -36.48377 -26.401257
-69.34198 -38.188131 -25.476641
-69.257915 -36.462791 -25.594008
-69.361843 -36.48377 -26.401257
-69.31057 -34.757568 -27.333212
-63.035539 -45.61879 -7.960063
-62.964878 -46.955305 -7.821423
-62.945904 -44.566944 -8.946362
-63.035539 -45.61879 -7.960063
-63.013914 -44.268658 -8.072436
-62.940439 -40.758097 -10.081435
-62.82522 -42.097061 -10.030385
-63.039497 -41.877848 -9.109785
-62.994658 -39.414077 -10.095447
-62.78038 -39.633291 -11.016046
-62.940439 -40.758097 -10.081435
-63.625452 -14.687264 -23.459938
-63.580612 -16.152178 -23.058332
-63.6675 -14.12428 -24.678987
-63.625452 -14.687264 -23.459938
-63.876005 -13.623293 -25.819069
-63.897634 -15.147061 -25.349222
-63.6675 -14.12428 -24.678987
-63.316309 -6.27489 -30.315886
-63.252306 -5.669802 -31.658194
-63.563576 -7.811537 -29.851689
-63.274416 -6.842387 -29.045942
-63.316309 -6.27489 -30.315886
-62.541439 -30.862122 -15.171862
-62.401459 -32.123487 -15.334665
-62.554428 -32.162226 -14.379192
-62.51466 -29.618373 -15.880971
-62.541439 -30.862122 -15.171862
-62.667629 -29.657111 -14.925498
-62.917292 -27.328254 -15.305044
-62.945711 -28.484205 -14.701253
-62.695172 -27.128861 -16.253256
-62.917292 -27.328254 -15.305044
-62.971613 -26.043751 -15.923693
-67.405258 -53.193565 -13.341834
-67.596161 -54.696152 -12.979676
-67.131607 -54.495979 -12.202957
-67.837154 -50.494263 -15.584612
-68.077877 -52.015018 -15.247129
-67.629089 -51.872982 -14.456036
-68.01714 -49.093498 -16.680208
-67.837154 -50.494263 -15.584612
-67.568352 -48.951462 -15.889115
-68.181275 -47.639492 -17.783285
-68.01714 -49.093498 -16.680208
-68.336006 -46.160035 -18.845571
-68.181275 -47.639492 -17.783285
-67.903069 -46.07124 -18.046997
-68.470005 -44.632519 -19.909025
-68.748211 -46.200772 -19.645314
-68.336006 -46.160035 -18.845571
-68.929707 -29.642226 -28.375824
-68.98135 -31.377908 -27.506342
-68.734734 -29.735844 -27.564234
-68.790642 -27.887923 -29.269611
-68.929707 -29.642226 -28.375824
-68.642578 -26.143568 -30.138983
-68.790642 -27.887923 -29.269611
-68.535027 -26.255807 -29.303088
-68.402153 -24.38599 -31.043957
-68.642578 -26.143568 -30.138983
-68.146332 -22.644707 -31.92582
-68.402153 -24.38599 -31.043957
-68.131141 -22.770168 -31.054322
-67.797432 -20.894865 -32.852358
-68.146332 -22.644707 -31.92582
-67.430187 -19.164996 -33.751131
-67.797432 -20.894865 -32.852358
-67.508076 -19.299016 -32.834957
-66.971028 -17.430307 -34.700337
-67.430187 -19.164996 -33.751131
-62.78277 -3.551173 -33.514482
-62.371941 -2.013361 -34.000543
-63.136704 -4.607329 -34.226351
-63.253077 -5.151718 -32.906624
-62.78277 -3.551173 -33.514482
-62.596834 -3.340715 -37.95122
-63.189821 -4.957229 -37.275475
-62.827099 -3.696741 -36.746046
-61.580368 -0.499238 -38.034324
-61.921543 -0.978972 -36.678693
-61.881455 -1.71659 -38.688869
-61.580368 -0.499238 -38.034324
-62.596834 -3.340715 -37.95122
-61.881455 -1.71659 -38.688869
-67.923576 -54.94508 -13.764696
-67.596161 -54.696152 -12.979676
-67.923576 -54.94508 -13.764696
-68.167351 -53.594344 -14.918991
-69.197266 -43.15688 -22.534123
-69.090603 -44.753284 -21.519289
-68.988872 -43.076851 -21.723601
-69.197266 -43.15688 -22.534123
-69.258385 -41.528538 -23.545737
-69.329643 -39.871891 -24.511215
-69.34198 -38.188131 -25.476641
-66.649006 -54.233202 -11.446116
-67.131607 -54.495979 -12.202957
-66.373821 -52.77041 -11.80373
-66.649006 -54.233202 -11.446116
-66.030392 -51.297264 -12.138262
-66.597274 -51.520246 -12.899647
-66.373821 -52.77041 -11.80373
-65.653583 -49.861418 -12.455072
-66.030392 -51.297264 -12.138262
-65.212734 -48.41735 -12.744071
-65.812996 -48.603033 -13.523177
-65.653583 -49.861418 -12.455072
-64.798707 -47.005684 -13.00422
-65.212734 -48.41735 -12.744071
-64.639294 -48.264069 -11.936115
-63.103758 -47.279331 -8.655322
-62.964878 -46.955305 -7.821423
-63.305145 -47.539384 -9.507732
-63.103758 -47.279331 -8.655322
-63.168916 -46.177129 -9.686401
-63.677729 -47.823114 -10.31745
-63.305145 -47.539384 -9.507732
-63.797785 -46.644792 -11.367538
-64.10521 -48.030724 -11.146176
-63.677729 -47.823114 -10.31745
-63.40426 -39.215032 -9.15947
-63.872564 -38.966314 -8.236273
-63.244202 -38.090227 -10.094081
-62.994658 -39.414077 -10.095447
-63.40426 -39.215032 -9.15947
-64.010451 -36.59132 -9.116376
-64.265806 -37.669412 -8.232617
-63.447512 -36.769323 -10.050383
-64.010451 -36.59132 -9.116376
-63.037909 -36.968368 -10.98636
-63.244202 -38.090227 -10.094081
-63.447512 -36.769323 -10.050383
-62.90708 -35.781645 -11.887956
-62.70377 -37.102548 -11.931653
-63.037909 -36.968368 -10.98636
-62.739315 -34.614907 -12.736795
-62.90708 -35.781645 -11.887956
-62.660069 -33.36879 -13.591169
-62.493695 -34.669708 -13.687622
-62.739315 -34.614907 -12.736795
-62.554428 -32.162226 -14.379192
-62.660069 -33.36879 -13.591169
-63.283928 -22.250977 -17.338318
-63.156093 -23.512616 -16.942601
-63.123524 -21.819672 -18.386381
-63.283928 -22.250977 -17.338318
-63.133469 -21.470813 -19.417639
-62.99165 -22.838 -18.963723
-63.123524 -21.819672 -18.386381
-63.268439 -20.018864 -19.923752
-63.39774 -18.627855 -20.313826
-63.136565 -21.037192 -20.501093
-63.133469 -21.470813 -19.417639
-63.268439 -20.018864 -19.923752
-63.643521 -17.175271 -23.697649
-63.535004 -17.6794 -22.546841
-63.580612 -16.152178 -23.058332
-63.766052 -12.049715 -26.360571
-63.674707 -10.538352 -26.791187
-63.996187 -13.072495 -27.030806
-63.876005 -13.623293 -25.819069
-63.766052 -12.049715 -26.360571
-66.495041 -15.7169 -35.611067
-66.971028 -17.430307 -34.700337
-66.664845 -15.855741 -34.644461
-63.968734 -7.653293 -38.024836
-63.603611 -6.251311 -37.688006
-64.640251 -9.327447 -37.134861
-63.968734 -7.653293 -38.024836
-65.203941 -10.998631 -36.304784
-64.811355 -9.572602 -36.065286
-64.640251 -9.327447 -37.134861
-65.610848 -12.447905 -36.464775
-65.781952 -12.69306 -35.395201
-65.203941 -10.998631 -36.304784
-65.927693 -14.001388 -36.574621
-65.610848 -12.447905 -36.464775
-66.495041 -15.7169 -35.611067
-65.927693 -14.001388 -36.574621
3 0 29 27
3 1 32 30
3 1 34 32
3 2 37 35
3 4 40 38
3 4 42 40
3 5 113 114
3 5 115 116
3 3 45 43
3 117 48 118
3 119 118 46
3 117 118 119
3 121 120 48
3 122 50 123
3 125 124 50
3 6 126 128
3 126 53 127
3 126 127 128
3 6 55 53
3 6 57 55
3 129 59 130
3 131 60 132
3 133 61 134
3 135 134 60
3 133 134 135
3 8 64 62
3 9 65 28
3 9 66 65
3 10 69 67
3 12 70 31
3 12 71 70
3 12 72 71
3 13 73 33
3 13 74 73
3 136 75 137
3 138 77 139
3 140 139 75
3 138 139 140
3 14 80 78
3 16 81 36
3 16 82 81
3 7 83 58
3 17 84 39
3 17 85 84
3 17 86 85
3 18 87 41
3 18 88 87
3 142 141 63
3 15 89 79
3 19 90 44
3 19 91 90
3 11 92 68
3 20 93 47
3 20 94 93
3 20 143 145
3 145 144 94
3 143 144 145
3 146 95 147
3 21 96 49
3 21 97 96
3 21 98 97
3 22 99 51
3 22 100 99
3 148 101 149
3 150 102 151
3 152 103 153
3 154 153 102
3 152 153 154
3 23 104 52
3 23 105 104
3 24 155 156
3 24 157 158
3 24 159 161
3 159 106 160
3 159 160 161
3 25 107 54
3 25 108 107
3 25 109 108
3 26 110 56
3 26 111 110
3 162 112 163
3 164 163 76
3 162 163 164
3 27 28 8
3 29 28 27
3 29 9 28
3 30 31 10
3 32 31 30
3 32 12 31
3 32 33 12
3 34 33 32
3 34 13 33
3 35 36 14
3 37 36 35
3 37 16 36
3 38 39 7
3 40 39 38
3 40 17 39
3 40 41 17
3 42 41 40
3 42 18 41
3 43 44 15
3 45 44 43
3 45 19 44
3 46 47 11
3 48 47 46
3 48 20 47
3 48 165 167
3 167 166 20
3 165 166 167
3 169 168 48
3 170 49 171
3 50 172 174
3 172 49 173
3 172 173 174
3 50 21 49
3 50 51 21
3 175 51 176
3 177 176 50
3 175 176 177
3 178 22 179
3 180 179 51
3 178 179 180
3 181 52 182
3 183 52 184
3 185 23 186
3 187 186 52
3 185 186 187
3 53 188 189
3 53 190 192
3 190 24 191
3 190 191 192
3 53 54 24
3 55 54 53
3 55 25 54
3 55 56 25
3 57 56 55
3 57 26 56
3 193 58 194
3 195 194 2
3 193 194 195
3 59 196 198
3 196 58 197
3 196 197 198
3 59 7 58
3 199 59 200
3 60 201 203
3 201 59 202
3 201 202 203
3 60 7 59
3 60 38 7
3 61 38 60
3 61 4 38
3 62 204 206
3 204 63 205
3 204 205 206
3 64 63 62
3 64 207 209
3 209 208 63
3 207 208 209
3 28 64 8
3 65 64 28
3 65 210 212
3 212 211 64
3 210 211 212
3 65 213 214
3 66 215 217
3 217 216 65
3 215 216 217
3 66 218 220
3 218 5 219
3 218 219 220
3 67 68 3
3 69 68 67
3 69 11 68
3 31 69 10
3 70 69 31
3 70 11 69
3 70 46 11
3 71 46 70
3 71 221 223
3 223 222 46
3 221 222 223
3 71 224 225
3 72 226 228
3 228 227 71
3 226 227 228
3 72 229 230
3 33 72 12
3 73 72 33
3 73 231 233
3 233 232 72
3 231 232 233
3 73 234 235
3 74 236 238
3 238 237 73
3 236 237 238
3 74 239 240
3 75 241 242
3 75 243 245
3 243 6 244
3 243 244 245
3 75 76 6
3 77 76 75
3 77 246 248
3 248 247 76
3 246 247 248
3 249 77 250
3 251 77 252
3 254 253 77
3 78 79 0
3 80 79 78
3 80 15 79
3 36 80 14
3 81 80 36
3 81 15 80
3 81 43 15
3 82 43 81
3 82 3 43
3 58 37 2
3 83 37 58
3 83 16 37
3 39 83 7
3 84 83 39
3 84 16 83
3 84 82 16
3 85 82 84
3 85 3 82
3 85 67 3
3 86 67 85
3 86 10 67
3 41 86 17
3 87 86 41
3 87 10 86
3 87 30 10
3 88 30 87
3 88 1 30
3 63 255 256
3 258 257 63
3 79 29 0
3 89 29 79
3 89 9 29
3 44 89 15
3 90 89 44
3 90 9 89
3 90 66 9
3 91 66 90
3 91 5 66
3 68 45 3
3 92 45 68
3 92 19 45
3 47 92 11
3 93 92 47
3 93 19 92
3 93 91 19
3 94 91 93
3 94 5 91
3 94 259 261
3 261 260 5
3 259 260 261
3 263 262 94
3 265 264 20
3 266 62 267
3 268 62 269
3 270 8 271
3 272 271 62
3 270 271 272
3 273 8 274
3 275 27 276
3 277 276 8
3 275 276 277
3 95 278 280
3 278 27 279
3 278 279 280
3 95 0 27
3 49 281 282
3 96 283 285
3 285 284 49
3 283 284 285
3 96 286 287
3 96 288 290
3 288 95 289
3 288 289 290
3 97 95 96
3 97 0 95
3 97 78 0
3 98 78 97
3 98 14 78
3 51 98 21
3 99 98 51
3 99 14 98
3 99 35 14
3 100 35 99
3 100 2 35
3 101 291 292
3 101 293 295
3 293 22 294
3 293 294 295
3 296 101 297
3 298 101 299
3 300 22 301
3 302 301 101
3 300 301 302
3 303 100 304
3 305 304 22
3 303 304 305
3 306 100 307
3 308 2 309
3 310 309 100
3 308 309 310
3 312 311 2
3 313 61 314
3 315 61 316
3 317 4 318
3 319 318 61
3 317 318 319
3 102 320 321
3 102 322 324
3 322 4 323
3 322 323 324
3 102 42 4
3 103 42 102
3 103 18 42
3 52 325 327
3 325 103 326
3 325 326 327
3 104 103 52
3 104 18 103
3 104 88 18
3 105 88 104
3 105 1 88
3 106 328 329
3 106 330 332
3 330 23 331
3 330 331 332
3 54 106 24
3 107 106 54
3 107 23 106
3 107 105 23
3 108 105 107
3 108 1 105
3 108 34 1
3 109 34 108
3 109 13 34
3 56 109 25
3 110 109 56
3 110 13 109
3 110 74 13
3 111 74 110
3 111 333 335
3 335 334 74
3 333 334 335
3 76 57 6
3 112 57 76
3 112 26 57
3 336 112 337
3 338 112 339
3 340 26 341
3 342 341 112
3 340 341 342
3 343 111 344
3 345 344 26
3 343 344 345
3 346 111 347
3 349 348 111
