ply
format ascii 1.0
element vertex 364
property float x
property float y
property float z
element face 385
property list uchar int vertex_index
end_header
-4.192778 -53.289368 69.938187
-3.323248 -69.764748 75.747986
-3.291842 -47.547077 51.222927
-4.883583 -51.376228 59.39801
-2.49992 -61.900455 74.513718
-1.857832 -61.226097 63.784149
-3.369648 -53.670765 80.621803
-5.248362 -61.158401 82.943802
-5.817709 -47.315758 61.791199
-4.722544 -52.56517 64.485123
-2.47871 -65.872444 75.567108
-1.361021 -65.937981 70.753082
-1.570805 -70.19474 71.620148
-3.752539 -53.187523 84.982323
-4.158871 -57.595825 82.471809
-5.566311 -56.688835 85.8591
-1.910244 -60.505024 58.557682
-5.912357 -45.713638 57.05125
-4.435017 -49.666756 54.949528
-3.224525 -57.754627 72.552567
-3.286337 -57.295639 67.051216
-2.002644 -61.685795 69.208115
-0.824091 -65.781631 65.488159
-3.622637 -53.656361 75.439774
-3.431654 -57.892017 77.850563
-3.537397 -61.78191 79.264694
-4.320095 -65.438721 79.476501
-5.868011 -68.960434 78.765182
-3.377518 -56.497047 61.710987
-3.308002 -55.291439 56.806473
-4.615551 -50.886299 68.507721
-5.025684 -50.507324 65.784927
-4.48456 -52.977886 67.185455
-2.797531 -67.825546 75.751953
-1.986311 -67.981743 73.613312
-2.348194 -70.020393 73.801704
-4.639009 -54.987637 85.61776
-5.37252 -54.380451 87.015785
-5.500021 -49.386475 60.596706
-5.98514 -46.589943 59.333389
-5.478559 -48.617653 58.21217
-5.244751 -47.708332 56.014137
-4.745298 -50.584091 57.082073
-2.798872 -59.85743 73.636047
-2.657309 -59.723724 70.934479
-2.195713 -61.826401 71.900269
-0.901293 -68.082672 68.772781
-1.030903 -65.88121 68.151146
-3.434675 -53.713936 78.098389
-3.518055 -55.825382 76.741241
-3.561237 -55.814949 79.309723
-4.647264 -59.413498 82.895393
-3.949141 -59.71423 80.945282
-4.306007 -61.544014 81.27063
-3.829859 -63.632988 79.514473
-4.823858 -63.313148 81.259224
-2.574348 -59.246704 65.466766
-3.341192 -56.94342 64.34153
-2.58555 -58.897625 62.787029
-2.61488 -57.941509 57.70018
-3.162575 -54.533531 54.567593
-5.741568 -45.138554 63.022297
-5.452232 -47.896492 64.382317
-5.336081 -50.013092 63.134365
-4.867018 -52.035355 61.876583
-2.382107 -63.90081 75.159523
-1.909992 -63.893005 72.674088
-1.836422 -65.940796 73.243782
-1.360632 -68.061363 71.268791
-3.465633 -53.503643 82.941727
-3.745483 -55.687965 81.694038
-4.09878 -55.419506 83.821503
-4.773874 -57.227551 84.353874
-5.516724 -58.95166 84.490189
-1.223299 -63.285007 62.006523
-1.867823 -60.90147 61.131447
-1.25597 -63.004448 59.37326
-4.025097 -71.685547 75.598267
-2.895538 -72.050613 73.837387
-6.142588 -44.468109 60.498272
-5.574871 -44.694992 54.977871
-4.787693 -46.673439 54.020786
-3.947632 -48.644218 53.002892
-3.71097 -55.572273 71.303726
-3.869549 -55.323097 68.539146
-3.237917 -57.563808 69.802383
-2.590958 -59.520111 68.195877
-1.896904 -61.485783 66.488274
-1.579807 -63.817928 70.065163
-1.368706 -63.688808 67.387451
-1.255741 -63.511436 64.688187
-0.721407 -65.643555 62.806843
-1.969179 -72.332489 71.822876
-3.890427 -53.513397 72.703644
-3.580839 -55.740353 74.053848
-3.278023 -57.867405 75.253693
-3.043682 -59.912743 76.246872
-3.716785 -57.809525 80.279938
-3.419405 -59.872658 78.70578
-2.939968 -61.892788 76.990013
-3.01722 -63.821743 77.460823
-3.304375 -65.712006 77.66391
-3.804974 -67.574005 77.631104
-6.529661 -55.976955 86.935173
-6.548841 -58.320827 85.676064
-6.354752 -60.613014 84.230698
-5.99032 -62.847279 82.642738
-5.519796 -65.036377 80.954613
-5.007025 -67.211418 79.20314
-4.499739 -69.414284 77.414215
-5.354059 -71.231361 77.070847
-4.019747 -54.985741 65.803131
-4.128124 -54.547947 63.135635
-4.165279 -53.997395 60.573803
-2.605293 -58.464691 60.189808
-3.373224 -55.947575 59.191486
-4.106195 -53.326691 58.149517
-3.930735 -52.537224 55.885033
-3.624561 -51.641212 53.78804
-3.180647 -50.661751 51.848408
-2.601326 -49.630962 50.038513
-5.168128 -53.211839 87.474129
-4.81101 -53.541739 86.841713
-3.273789 -45.945847 50.913969
-3.703616 -46.543608 51.72533
-2.891488 -46.980112 50.396538
-3.273789 -45.945847 50.913969
-0.74347 -68.071457 67.474625
-0.721566 -69.222485 67.760932
-3.186653 -52.597374 79.980495
-3.113859 -52.562464 81.209976
-3.402162 -53.692351 79.360096
-3.219167 -52.61896 78.718788
-3.186653 -52.597374 79.980495
-5.197223 -48.12228 65.722973
-5.303168 -46.781719 65.018361
-1.273397 -70.249188 70.436451
-1.168311 -69.182499 70.260773
-1.465718 -69.128051 71.444469
-3.327583 -52.221288 84.505795
-3.460111 -52.045166 85.467781
-3.609086 -53.345583 83.962025
-3.18413 -52.379348 83.485497
-3.327583 -52.221288 84.505795
-0.981511 -64.234951 59.757505
-1.239634 -63.144728 60.689892
-0.965175 -64.375231 61.074137
-3.810828 -72.868538 74.673691
-4.445638 -72.627762 75.470139
-6.105161 -44.678421 57.589674
-6.141552 -45.116574 58.730744
-5.948749 -46.151791 58.192319
-6.038339 -44.188978 56.503296
-6.105161 -44.678421 57.589674
-5.743614 -45.204315 56.014561
-5.869595 -43.679655 55.466606
-6.038339 -44.188978 56.503296
-2.249074 -73.392639 71.858692
-2.432359 -72.191551 72.830131
-2.712254 -73.251701 72.865948
-3.66165 -52.512255 74.728425
-3.461228 -52.572763 76.082451
-3.756532 -53.584879 74.071709
-3.795545 -52.440773 73.36036
-3.66165 -52.512255 74.728425
-7.089118 -55.541128 87.244373
-6.41225 -54.78907 87.450791
-7.076825 -59.114667 85.386189
-7.137129 -57.924251 86.048229
-6.979781 -60.260761 84.663505
-6.451797 -59.466921 84.953381
-7.076825 -59.114667 85.386189
-6.437453 -63.672263 82.352337
-6.649407 -62.539168 83.135807
-6.202191 -64.766812 81.508274
-5.755058 -63.941828 81.798676
-6.437453 -63.672263 82.352337
-5.437518 -68.085926 78.984161
-5.697866 -66.969989 79.817684
-6.12836 -67.844498 79.598705
-3.271823 -52.664911 53.130079
-3.393568 -53.087372 54.177817
-3.040831 -54.11107 53.519856
-3.049867 -52.17518 52.160263
-3.402604 -51.151482 52.818224
-3.271823 -52.664911 53.130079
-2.344041 -50.736755 49.334829
-2.582179 -51.205984 50.270683
-2.250977 -49.108739 49.178198
-2.344041 -50.736755 49.334829
-4.820617 -50.696811 67.146324
-4.983949 -49.427696 66.424278
-4.778883 -49.617183 67.785675
-4.001019 -52.945274 85.824982
-3.460111 -52.045166 85.467781
-4.444254 -53.845332 86.142701
-4.195774 -54.08758 85.300041
-4.001019 -52.945274 85.824982
-5.005764 -54.684044 86.316772
-4.444254 -53.845332 86.142701
-4.81101 -53.541739 86.841713
-0.808275 -66.970726 67.163807
-0.966098 -66.981941 68.461963
-0.74347 -68.071457 67.474625
-0.70487 -66.920937 65.832313
-0.927497 -65.831421 66.819652
-0.808275 -66.970726 67.163807
-0.608136 -66.892334 64.506712
-0.70487 -66.920937 65.832313
-3.367247 -52.601551 77.411758
-3.219167 -52.61896 78.718788
-3.528656 -53.685148 76.769081
-3.461228 -52.572763 76.082451
-3.367247 -52.601551 77.411758
-6.637004 -68.680805 79.272583
-6.12836 -67.844498 79.598705
-6.366814 -69.823799 78.498565
-6.637004 -68.680805 79.272583
-2.290591 -58.986681 56.890693
-2.262562 -59.223267 58.128931
-1.938273 -60.268439 57.319445
-2.604417 -57.634248 56.516657
-2.290591 -58.986681 56.890693
-2.950978 -56.309213 56.069803
-2.961441 -56.616474 57.253327
-2.604417 -57.634248 56.516657
-2.878265 -55.93026 54.950364
-3.235289 -54.912485 55.687033
-2.950978 -56.309213 56.069803
-2.840933 -55.580712 53.829779
-2.878265 -55.93026 54.950364
-3.040831 -54.11107 53.519856
-2.840933 -55.580712 53.829779
-5.447836 -45.40275 64.338351
-5.494629 -43.991028 63.673117
-5.5969 -46.517523 63.702307
-5.447836 -45.40275 64.338351
-5.303168 -46.781719 65.018361
-5.238958 -49.201908 65.083622
-5.197223 -48.12228 65.722973
-4.983949 -49.427696 66.424278
-0.938642 -69.193153 69.012767
-1.130963 -68.072018 70.020786
-1.168311 -69.182499 70.260773
-0.721566 -69.222485 67.760932
-0.938642 -69.193153 69.012767
-3.161852 -52.478903 82.369938
-3.18413 -52.379348 83.485497
-3.417641 -53.587204 81.781765
-3.113859 -52.562464 81.209976
-3.161852 -52.478903 82.369938
-1.011282 -64.123287 58.446095
-0.981511 -64.234951 59.757505
-1.296721 -62.833973 58.091852
-1.011282 -64.123287 58.446095
-1.623858 -61.584261 57.684063
-1.583107 -61.754736 58.965471
-1.296721 -62.833973 58.091852
-1.938273 -60.268439 57.319445
-1.623858 -61.584261 57.684063
-3.246049 -73.051071 73.793251
-3.460317 -71.86808 74.717827
-3.810828 -72.868538 74.673691
-2.712254 -73.251701 72.865948
-3.246049 -73.051071 73.793251
-5.814165 -43.686922 62.385046
-5.494629 -43.991028 63.673117
-6.014674 -43.3517 61.123034
-5.814165 -43.686922 62.385046
-5.942078 -44.803331 61.760284
-6.222322 -42.97097 59.898398
-6.014674 -43.3517 61.123034
-6.220276 -44.055656 59.313185
-6.063864 -45.529026 59.91583
-6.141552 -45.116574 58.730744
-6.222322 -42.97097 59.898398
-6.220276 -44.055656 59.313185
-5.6485 -43.120662 54.494406
-5.869595 -43.679655 55.466606
-5.272979 -44.125406 54.052482
-5.6485 -43.120662 54.494406
-4.87939 -45.114629 53.57394
-5.272979 -44.125406 54.052482
-5.181282 -45.684216 54.499329
-4.451541 -46.106789 53.12426
-4.87939 -45.114629 53.57394
-4.031511 -47.092178 52.615313
-4.451541 -46.106789 53.12426
-4.367662 -47.658828 53.511839
-3.619737 -48.095647 52.11291
-3.703616 -46.543608 51.72533
-4.031511 -47.092178 52.615313
-0.71423 -65.554505 61.474297
-0.965175 -64.375231 61.074137
-0.972353 -64.464281 62.406683
-0.556794 -66.823296 63.166054
-0.772749 -65.712593 64.147501
-0.608136 -66.892334 64.506712
-0.512253 -66.778763 61.832026
-0.556794 -66.823296 63.166054
-0.71423 -65.554505 61.474297
-0.512253 -66.778763 61.832026
-1.815454 -73.554108 70.81773
-2.249074 -73.392639 71.858692
-1.603015 -72.436924 70.709873
-1.815454 -73.554108 70.81773
-1.403828 -71.368049 70.608509
-1.769992 -71.263614 71.721512
-1.603015 -72.436924 70.709873
-1.273397 -70.249188 70.436451
-1.403828 -71.368049 70.608509
-4.481075 -49.788922 69.151825
-4.778883 -49.617183 67.785675
-4.386016 -51.027455 69.886013
-4.481075 -49.788922 69.151825
-4.174629 -52.228989 70.601246
-4.404165 -52.087834 69.222954
-4.386016 -51.027455 69.886013
-4.023454 -52.341003 71.983974
-3.795545 -52.440773 73.36036
-4.041602 -53.401382 71.320915
-4.174629 -52.228989 70.601246
-4.023454 -52.341003 71.983974
-5.83368 -53.990818 87.491096
-5.168128 -53.211839 87.474129
-5.95109 -55.178703 86.975479
-5.83368 -53.990818 87.491096
-6.41225 -54.78907 87.450791
-7.127538 -56.752315 86.677784
-7.089118 -55.541128 87.244373
-6.539251 -57.148891 86.305619
-7.127538 -56.752315 86.677784
-7.137129 -57.924251 86.048229
-6.831624 -61.422035 83.929787
-6.979781 -60.260761 84.663505
-6.172536 -61.730147 83.436718
-6.831624 -61.422035 83.929787
-6.649407 -62.539168 83.135807
-5.954252 -65.882469 80.693421
-6.202191 -64.766812 81.508274
-5.26341 -66.123897 80.078877
-5.954252 -65.882469 80.693421
-5.697866 -66.969989 79.817684
-5.110119 -72.400669 76.206429
-4.445638 -72.627762 75.470139
-4.689578 -71.458454 76.334557
-6.109838 -70.959262 77.651398
-5.611035 -70.095898 77.918014
-6.366814 -69.823799 78.498565
-5.840194 -72.121059 76.859074
-6.109838 -70.959262 77.651398
-5.110119 -72.400669 76.206429
-5.840194 -72.121059 76.859074
-2.87184 -51.721379 51.17563
-3.049867 -52.17518 52.160263
-2.890986 -50.146356 50.943461
-2.87184 -51.721379 51.17563
-2.582179 -51.205984 50.270683
-2.546229 -48.022054 49.804331
-2.891488 -46.980112 50.396538
-2.946584 -48.589019 50.63072
-2.19588 -47.499832 48.944016
-2.546229 -48.022054 49.804331
-2.250977 -49.108739 49.178198
3 0 32 30
3 1 35 33
3 121 37 122
3 2 123 124
3 2 125 126
3 3 40 38
3 3 42 40
3 4 45 43
3 128 127 46
3 6 129 130
3 6 131 133
3 131 48 132
3 131 132 133
3 6 50 48
3 7 53 51
3 7 55 53
3 5 58 56
3 134 62 135
3 9 63 31
3 9 64 63
3 10 67 65
3 12 68 34
3 12 136 138
3 138 137 68
3 136 137 138
3 13 139 140
3 13 141 143
3 141 69 142
3 141 142 143
3 13 71 69
3 15 72 36
3 15 73 72
3 144 76 145
3 146 145 74
3 144 145 146
3 148 147 77
3 8 79 61
3 17 149 151
3 151 150 39
3 149 150 151
3 17 152 153
3 17 154 156
3 154 80 155
3 154 155 156
3 18 81 41
3 18 82 81
3 19 85 83
3 21 86 44
3 21 87 86
3 11 88 66
3 22 89 47
3 22 90 89
3 22 91 90
3 157 92 158
3 159 158 78
3 157 158 159
3 23 160 161
3 23 162 164
3 162 93 163
3 162 163 164
3 23 94 93
3 24 95 49
3 24 96 95
3 14 97 70
3 25 98 52
3 25 99 98
3 25 100 99
3 26 101 54
3 26 102 101
3 165 103 166
3 167 104 168
3 169 105 170
3 171 170 104
3 169 170 171
3 172 106 173
3 174 107 175
3 176 175 106
3 174 175 176
3 27 177 179
3 177 108 178
3 177 178 179
3 27 109 108
3 27 110 109
3 20 111 84
3 28 112 57
3 28 113 112
3 16 114 75
3 29 115 59
3 29 116 115
3 29 117 116
3 180 118 181
3 182 181 60
3 180 181 182
3 183 119 184
3 185 184 118
3 183 184 185
3 186 120 187
3 189 188 120
3 30 190 192
3 190 31 191
3 190 191 192
3 32 31 30
3 32 9 31
3 33 34 10
3 35 34 33
3 35 12 34
3 193 13 194
3 195 36 196
3 197 196 13
3 195 196 197
3 37 198 200
3 198 36 199
3 198 199 200
3 37 15 36
3 38 39 8
3 40 39 38
3 40 17 39
3 40 41 17
3 42 41 40
3 42 18 41
3 43 44 19
3 45 44 43
3 45 21 44
3 46 47 11
3 201 47 202
3 203 202 46
3 201 202 203
3 204 22 205
3 206 205 47
3 204 205 206
3 208 207 22
3 48 209 210
3 48 211 213
3 211 23 212
3 211 212 213
3 48 49 23
3 50 49 48
3 50 24 49
3 51 52 14
3 53 52 51
3 53 25 52
3 53 54 25
3 55 54 53
3 55 26 54
3 214 27 215
3 217 216 27
3 56 57 20
3 58 57 56
3 58 28 57
3 218 59 219
3 220 219 16
3 218 219 220
3 221 59 222
3 223 29 224
3 225 224 59
3 223 224 225
3 226 60 227
3 228 227 29
3 226 227 228
3 229 60 230
3 232 231 60
3 233 61 234
3 62 235 237
3 235 61 236
3 235 236 237
3 62 8 61
3 31 238 240
3 238 62 239
3 238 239 240
3 63 62 31
3 63 8 62
3 63 38 8
3 64 38 63
3 64 3 38
3 65 66 4
3 67 66 65
3 67 11 66
3 34 67 10
3 68 67 34
3 68 11 67
3 68 46 11
3 241 46 242
3 243 242 68
3 241 242 243
3 245 244 46
3 69 246 247
3 69 248 250
3 248 6 249
3 248 249 250
3 69 70 6
3 71 70 69
3 71 14 70
3 36 71 13
3 72 71 36
3 72 14 71
3 72 51 14
3 73 51 72
3 73 7 51
3 74 75 5
3 76 75 74
3 76 16 75
3 251 76 252
3 253 76 254
3 255 16 256
3 257 256 76
3 255 256 257
3 259 258 16
3 77 78 1
3 260 78 261
3 262 261 77
3 260 261 262
3 264 263 78
3 61 265 266
3 79 267 269
3 269 268 61
3 267 268 269
3 79 270 271
3 39 79 8
3 272 79 273
3 274 273 39
3 272 273 274
3 276 275 79
3 80 277 278
3 80 279 280
3 41 80 17
3 81 80 41
3 81 281 283
3 283 282 80
3 281 282 283
3 81 284 285
3 82 286 288
3 288 287 81
3 286 287 288
3 82 289 291
3 289 2 290
3 289 290 291
3 83 84 0
3 85 84 83
3 85 20 84
3 44 85 19
3 86 85 44
3 86 20 85
3 86 56 20
3 87 56 86
3 87 5 56
3 66 45 4
3 88 45 66
3 88 21 45
3 47 88 11
3 89 88 47
3 89 21 88
3 89 87 21
3 90 87 89
3 90 5 87
3 90 74 5
3 91 74 90
3 91 292 294
3 294 293 74
3 292 293 294
3 295 91 296
3 297 296 22
3 295 296 297
3 298 91 299
3 301 300 91
3 78 35 1
3 92 35 78
3 92 12 35
3 302 92 303
3 304 92 305
3 306 12 307
3 308 307 92
3 306 307 308
3 310 309 12
3 311 30 312
3 313 30 314
3 315 0 316
3 317 316 30
3 315 316 317
3 93 318 319
3 93 320 322
3 320 0 321
3 320 321 322
3 93 83 0
3 94 83 93
3 94 19 83
3 49 94 23
3 95 94 49
3 95 19 94
3 95 43 19
3 96 43 95
3 96 4 43
3 70 50 6
3 97 50 70
3 97 24 50
3 52 97 14
3 98 97 52
3 98 24 97
3 98 96 24
3 99 96 98
3 99 4 96
3 99 65 4
3 100 65 99
3 100 10 65
3 54 100 25
3 101 100 54
3 101 10 100
3 101 33 10
3 102 33 101
3 102 1 33
3 323 37 324
3 103 325 327
3 325 37 326
3 325 326 327
3 103 15 37
3 328 103 329
3 104 330 332
3 330 103 331
3 330 331 332
3 104 15 103
3 104 73 15
3 105 73 104
3 105 7 73
3 333 105 334
3 106 335 337
3 335 105 336
3 335 336 337
3 106 7 105
3 106 55 7
3 107 55 106
3 107 26 55
3 338 107 339
3 108 340 342
3 340 107 341
3 340 341 342
3 108 26 107
3 108 102 26
3 109 102 108
3 109 1 102
3 109 77 1
3 110 77 109
3 110 343 345
3 345 344 77
3 343 344 345
3 346 110 347
3 348 347 27
3 346 347 348
3 349 110 350
3 352 351 110
3 84 32 0
3 111 32 84
3 111 9 32
3 57 111 20
3 112 111 57
3 112 9 111
3 112 64 9
3 113 64 112
3 113 3 64
3 75 58 5
3 114 58 75
3 114 28 58
3 59 114 16
3 115 114 59
3 115 28 114
3 115 113 28
3 116 113 115
3 116 3 113
3 116 42 3
3 117 42 116
3 117 18 42
3 60 117 29
3 118 117 60
3 118 18 117
3 118 82 18
3 119 82 118
3 119 2 82
3 353 119 354
3 120 355 357
3 355 119 356
3 355 356 357
3 120 2 119
3 120 358 360
3 360 359 2
3 358 359 360
3 363 362 120
3 361 362 363
