ply
format ascii 1.0
element vertex 329
property float x
property float y
property float z
element face 333
property list uchar int vertex_index
end_header
1.928841 -28.353233 65.833199
0.533854 -45.019615 78.97171
3.38047 -41.620026 68.261215
0.579529 -47.316475 87.757957
6.019957 -38.019035 58.297752
4.680784 -23.700863 57.22081
-0.618658 -39.319019 77.148117
0.05167 -46.411976 83.857628
2.645782 -35.345467 66.642044
4.985376 -39.847824 63.055847
4.387995 -33.289349 61.725357
5.478487 -31.161673 57.339058
3.644299 -26.061476 61.259026
2.490606 -48.757187 75.711609
3.816372 -47.249786 70.375893
1.753569 -43.363972 73.650269
0.834612 -37.360783 71.857101
1.570154 -51.24876 85.108192
1.622076 -50.156853 80.764801
5.541294 -48.349174 57.483086
5.172564 -45.732811 65.051636
6.073835 -44.193687 60.022057
6.083179 -42.577122 55.615578
5.981609 -36.094109 54.291222
2.27253 -31.937986 66.130173
3.559628 -34.324211 64.133041
3.192137 -30.854053 63.703255
4.021627 -29.754566 61.384621
2.832621 -27.215454 63.490662
1.570671 -46.89933 77.344696
2.175428 -46.119659 74.687386
1.070763 -44.211399 76.338226
0.043213 -38.351799 74.50959
0.437153 -34.073975 71.21064
0.174103 -45.315269 88.732544
1.275251 -47.533016 89.145103
1.598173 -49.578018 88.123085
1.076515 -49.293091 86.536133
0.181921 -45.76292 81.499596
0.862574 -48.297455 82.356346
1.119276 -47.634338 79.919403
1.975117 -49.481388 78.295975
5.588375 -49.031006 59.747063
3.661053 -44.505241 69.28907
4.520149 -46.491245 67.695763
4.435835 -43.690147 66.613441
5.609753 -38.943581 60.601807
5.734022 -42.040482 61.471085
6.122597 -41.19294 59.080956
6.20978 -43.397915 57.720779
6.258703 -40.321823 56.867203
6.105011 -39.423912 54.866486
6.156466 -37.069767 56.183403
5.098274 -27.497847 57.182602
5.60458 -30.064388 55.424484
-0.501385 -43.094978 80.592255
-0.067806 -42.261711 78.019882
-1.117239 -40.243649 79.727722
-0.410807 -44.978931 87.173195
0.175877 -46.937836 85.97049
-0.70409 -44.482162 85.244743
-0.724707 -43.845081 83.024658
3.026581 -38.57135 67.361961
4.218014 -40.738014 65.620598
3.912252 -37.618752 64.779419
4.719353 -36.655067 62.2873
5.371698 -35.674786 59.918755
5.795219 -34.673012 57.710602
5.052738 -32.236256 59.449631
4.682142 -28.636314 59.201576
4.285175 -24.889889 59.161339
3.188578 -50.605412 74.064911
3.800932 -49.883743 71.439941
3.121357 -48.007835 73.058914
2.888775 -45.316986 71.990646
2.539742 -42.496468 70.947357
0.540657 -41.373436 75.368134
1.28738 -40.453133 72.684631
2.132023 -39.516483 70.006065
1.717724 -36.357262 69.225273
1.334627 -33.010345 68.640633
1.004625 -29.477825 68.264893
0.838026 -48.859406 84.587646
1.474682 -50.755539 83.058968
2.234669 -52.004501 79.096642
2.648886 -51.31868 76.631004
4.430498 -49.164783 68.791939
5.019835 -48.451725 66.155403
5.511156 -47.741318 63.567062
5.14954 -42.870476 63.995468
5.71076 -44.969509 62.480057
5.849798 -47.026375 61.067451
5.989428 -46.298615 58.699409
5.89801 -45.551071 56.503319
5.562981 -44.779751 54.509659
5.929108 -33.646965 55.698738
3.88372 -21.01878 59.296745
4.249994 -19.796406 57.414833
5.513447 -49.367035 60.949997
5.300957 -50.320299 60.274166
4.945693 -25.020035 56.286735
5.154438 -26.918527 56.267632
4.889529 -25.599355 57.201706
4.727296 -23.097934 56.338532
4.945693 -25.020035 56.286735
-1.268193 -40.672058 80.959381
-0.809312 -41.669314 80.159988
-0.960265 -42.097723 81.391648
-0.85554 -43.736483 86.828259
-0.617258 -43.977732 87.665077
-1.002181 -43.488098 85.864033
-0.557449 -44.730547 86.208969
-0.85554 -43.736483 86.828259
-1.071927 -42.472774 82.607849
-1.107676 -42.852722 83.746681
-0.960265 -42.097723 81.391648
-0.613046 -43.470029 81.808457
-1.071927 -42.472774 82.607849
0.726194 -31.801564 69.702228
0.88589 -33.54216 69.925636
0.277456 -32.333379 70.987232
0.561193 -30.035304 69.514359
1.169626 -31.244085 68.452763
0.726194 -31.801564 69.702228
1.88929 -52.439963 85.218753
1.753135 -51.430128 85.972072
1.77248 -52.218908 84.310012
1.88929 -52.439963 85.218753
1.808694 -51.39718 81.087834
1.734997 -51.696523 82.234917
1.548379 -50.456196 81.911884
1.928373 -51.080677 79.930722
2.11499 -52.321005 80.253754
1.808694 -51.39718 81.087834
5.197013 -49.349838 56.911507
5.280082 -49.665401 57.991982
5.41352 -48.000057 56.438118
5.197013 -49.349838 56.911507
5.882404 -42.153338 54.674499
5.622305 -43.254652 54.12154
5.82308 -43.678437 55.062618
5.816126 -37.296577 53.695965
5.877828 -38.961479 53.983597
6.04331 -37.759011 54.578854
5.734421 -35.593447 53.464008
5.816126 -37.296577 53.695965
5.670637 -31.330279 54.667301
5.500464 -29.504528 54.575489
3.406792 -19.648874 60.416225
3.579454 -21.623379 60.310051
4.038819 -17.805683 57.562412
3.873355 -18.423696 58.486923
3.66218 -16.432973 58.634502
4.28479 -19.178626 56.552819
4.038819 -17.805683 57.562412
-0.511945 -37.259239 75.462932
-0.287722 -38.835409 75.828854
-0.84288 -37.742849 76.782196
-0.165888 -36.740001 74.161568
-0.511945 -37.259239 75.462932
0.229811 -36.244493 72.835323
0.438913 -37.856291 73.183346
-0.165888 -36.740001 74.161568
0.031082 -34.60109 72.512092
0.635883 -35.717379 71.533871
0.229811 -36.244493 72.835323
-0.126012 -32.887127 72.257736
0.031082 -34.60109 72.512092
0.277456 -32.333379 70.987232
-0.126012 -32.887127 72.257736
0.614729 -45.398735 89.295727
0.062619 -44.303461 89.07721
1.165303 -46.507609 89.502006
0.614729 -45.398735 89.295727
0.724677 -46.424143 88.938824
1.767557 -47.559057 89.609909
1.165303 -46.507609 89.502006
1.841833 -48.618576 89.212429
2.334139 -48.644617 89.677235
1.767557 -47.559057 89.609909
2.003294 -49.641077 88.70142
1.841833 -48.618576 89.212429
1.436712 -48.555517 88.634094
2.092358 -50.702252 88.146068
2.003294 -49.641077 88.70142
1.767145 -50.594757 87.479519
2.092358 -50.702252 88.146068
1.506316 -50.452293 86.686043
1.767145 -50.594757 87.479519
1.337344 -49.435554 87.329609
1.323335 -50.270925 85.822163
1.753135 -51.430128 85.972072
1.506316 -50.452293 86.686043
5.303623 -50.006317 59.12397
5.300957 -50.320299 60.274166
5.564834 -48.69009 58.615074
5.280082 -49.665401 57.991982
5.303623 -50.006317 59.12397
5.407591 -28.201797 55.388572
5.351427 -28.781118 56.303543
5.154438 -26.918527 56.267632
5.500464 -29.504528 54.575489
5.407591 -28.201797 55.388572
-1.543724 -39.189775 80.582645
-1.268193 -40.672058 80.959381
-1.363123 -38.709857 79.351795
-1.543724 -39.189775 80.582645
-1.113833 -38.247541 78.061993
-0.867949 -39.781334 78.437919
-1.363123 -38.709857 79.351795
-0.84288 -37.742849 76.782196
-1.113833 -38.247541 78.061993
-0.324803 -44.1459 88.444752
0.062619 -44.303461 89.07721
-0.436287 -43.134092 88.789417
-0.118352 -45.1471 87.95287
-0.324803 -44.1459 88.444752
-0.617258 -43.977732 87.665077
-1.097367 -43.171262 84.856724
-1.002181 -43.488098 85.864033
-0.714398 -44.163622 84.134701
-1.097367 -43.171262 84.856724
-1.107676 -42.852722 83.746681
3.494755 -50.244578 72.752426
3.695479 -51.162647 71.918296
3.389302 -51.523482 73.230782
1.724744 -51.972297 83.2854
1.77248 -52.218908 84.310012
1.522418 -51.00215 84.08358
1.724744 -51.972297 83.2854
1.734997 -51.696523 82.234917
2.283056 -53.257378 79.379368
2.11499 -52.321005 80.253754
2.431569 -52.924694 78.227753
2.283056 -53.257378 79.379368
2.638677 -52.581784 76.994934
2.431569 -52.924694 78.227753
2.441777 -51.661591 77.863823
2.857534 -52.233332 75.77658
2.638677 -52.581784 76.994934
3.127381 -51.876698 74.493534
2.857534 -52.233332 75.77658
2.918732 -50.962046 75.347958
3.389302 -51.523482 73.230782
3.127381 -51.876698 74.493534
3.972367 -50.812016 70.630295
3.695479 -51.162647 71.918296
4.287151 -50.452535 69.306294
3.972367 -50.812016 70.630295
4.115715 -49.524263 70.11594
4.551023 -50.107917 68.010921
4.287151 -50.452535 69.306294
4.845691 -49.751389 66.692654
4.551023 -50.107917 68.010921
4.725167 -48.808254 67.473671
5.069636 -49.412729 65.408173
4.845691 -49.751389 66.692654
5.315297 -49.057526 64.114002
5.069636 -49.412729 65.408173
5.265496 -48.096522 64.861232
5.474838 -48.722191 62.859997
5.315297 -49.057526 64.114002
5.644159 -48.364719 61.610191
5.474838 -48.722191 62.859997
5.680477 -47.383847 62.317256
5.719086 -48.02869 60.407257
5.513447 -49.367035 60.949997
5.644159 -48.364719 61.610191
5.591878 -46.601005 55.948234
5.41352 -48.000057 56.438118
5.719652 -46.950122 56.993202
5.424364 -46.215345 54.951404
5.591878 -46.601005 55.948234
5.730495 -45.165411 55.506489
5.195476 -45.856356 54.002041
5.424364 -46.215345 54.951404
5.278443 -44.382044 53.620083
4.910939 -45.458649 53.112465
5.195476 -45.856356 54.002041
5.278443 -44.382044 53.620083
5.622305 -43.254652 54.12154
5.89332 -40.576733 54.299954
5.882404 -42.153338 54.674499
6.094095 -41.000517 55.241032
5.89332 -40.576733 54.299954
5.877828 -38.961479 53.983597
5.832901 -33.121567 54.804428
5.766844 -31.855677 55.561611
5.670637 -31.330279 54.667301
5.859151 -34.345139 54.10067
5.955358 -34.870537 54.99498
5.832901 -33.121567 54.804428
5.734421 -35.593447 53.464008
5.859151 -34.345139 54.10067
0.444 -28.202837 69.389481
0.561193 -30.035304 69.514359
0.870921 -27.624221 68.177861
0.444 -28.202837 69.389481
1.333029 -27.061926 66.962013
1.466733 -28.915529 67.049046
0.870921 -27.624221 68.177861
1.778109 -26.478303 65.785943
1.333029 -27.061926 66.962013
2.229999 -25.909413 64.614674
2.380731 -27.784343 64.66193
1.778109 -26.478303 65.785943
2.664865 -25.319208 63.483742
2.229999 -25.909413 64.614674
3.070704 -24.742219 62.367924
3.23846 -26.638465 62.374844
2.664865 -25.319208 63.483742
3.459744 -24.144727 61.291191
3.070704 -24.742219 62.367924
3.780181 -23.558934 60.242348
3.964737 -25.475682 60.210183
3.459744 -24.144727 61.291191
4.084447 -22.954335 59.229042
3.780181 -23.558934 60.242348
3.579454 -21.623379 60.310051
3.690218 -19.034883 59.427879
3.406792 -19.648874 60.416225
4.066857 -20.407593 58.355789
3.690218 -19.034883 59.427879
3.873355 -18.423696 58.486923
4.511902 -21.145705 56.435543
4.727296 -23.097934 56.338532
4.465389 -21.748635 57.317822
4.511902 -21.145705 56.435543
4.28479 -19.178626 56.552819
3 0 26 24
3 0 28 26
3 1 31 29
3 3 35 34
3 3 36 35
3 3 37 36
3 1 40 38
3 1 29 40
3 98 42 99
3 2 45 43
3 4 48 46
3 4 50 48
3 4 52 50
3 5 100 102
3 102 101 53
3 100 101 102
3 5 103 104
3 105 57 106
3 107 106 55
3 105 106 107
3 108 58 109
3 110 60 111
3 112 111 58
3 110 111 112
3 113 61 114
3 115 55 116
3 117 116 61
3 115 116 117
3 8 64 62
3 10 65 25
3 10 66 65
3 10 68 66
3 12 69 27
3 12 70 69
3 13 73 71
3 15 74 30
3 15 75 74
3 6 76 56
3 16 77 32
3 16 78 77
3 16 79 78
3 118 80 119
3 120 119 33
3 118 119 120
3 121 81 122
3 123 122 80
3 121 122 123
3 17 124 125
3 17 126 127
3 7 82 59
3 18 83 39
3 18 128 130
3 130 129 83
3 128 129 130
3 18 131 133
3 131 84 132
3 131 132 133
3 13 85 41
3 13 71 85
3 19 134 135
3 19 136 137
3 14 86 72
3 20 87 44
3 20 88 87
3 9 89 63
3 21 90 47
3 21 91 90
3 21 92 91
3 22 93 49
3 22 94 93
3 22 138 140
3 140 139 94
3 138 139 140
3 23 141 143
3 143 142 51
3 141 142 143
3 23 144 145
3 11 95 67
3 147 146 54
3 148 96 149
3 150 97 151
3 150 151 152
3 154 153 97
3 24 25 8
3 26 25 24
3 26 10 25
3 26 27 10
3 28 27 26
3 28 12 27
3 29 30 13
3 31 30 29
3 31 15 30
3 155 32 156
3 157 156 6
3 155 156 157
3 158 32 159
3 160 16 161
3 162 161 32
3 160 161 162
3 163 33 164
3 165 164 16
3 163 164 165
3 166 33 167
3 169 168 33
3 34 170 171
3 35 172 174
3 174 173 34
3 172 173 174
3 35 175 176
3 35 177 179
3 177 178 179
3 36 180 182
3 182 181 35
3 180 181 182
3 36 183 184
3 36 185 186
3 37 187 189
3 189 188 36
3 187 188 189
3 37 190 192
3 190 17 191
3 190 191 192
3 38 39 7
3 40 39 38
3 40 18 39
3 40 41 18
3 29 41 40
3 29 13 41
3 42 193 194
3 42 195 197
3 195 19 196
3 195 196 197
3 43 44 14
3 45 44 43
3 45 20 44
3 46 47 9
3 48 47 46
3 48 21 47
3 48 49 21
3 50 49 48
3 50 22 49
3 50 51 22
3 52 51 50
3 52 23 51
3 53 54 11
3 198 54 199
3 200 199 53
3 198 199 200
3 202 201 54
3 55 56 1
3 57 56 55
3 57 6 56
3 203 57 204
3 205 57 206
3 207 6 208
3 209 208 57
3 207 208 209
3 211 210 6
3 212 34 213
3 212 213 214
3 58 215 217
3 215 34 216
3 215 216 217
3 58 3 34
3 58 59 3
3 60 59 58
3 60 7 59
3 218 60 219
3 61 220 222
3 220 60 221
3 220 221 222
3 61 7 60
3 61 38 7
3 55 38 61
3 55 1 38
3 62 63 2
3 64 63 62
3 64 9 63
3 25 64 8
3 65 64 25
3 65 9 64
3 65 46 9
3 66 46 65
3 66 4 46
3 66 67 4
3 68 67 66
3 68 11 67
3 27 68 10
3 69 68 27
3 69 11 68
3 69 53 11
3 70 53 69
3 70 5 53
3 71 223 225
3 223 72 224
3 223 224 225
3 73 72 71
3 73 14 72
3 30 73 13
3 74 73 30
3 74 14 73
3 74 43 14
3 75 43 74
3 75 2 43
3 56 31 1
3 76 31 56
3 76 15 31
3 32 76 6
3 77 76 32
3 77 15 76
3 77 75 15
3 78 75 77
3 78 2 75
3 78 62 2
3 79 62 78
3 79 8 62
3 33 79 16
3 80 79 33
3 80 8 79
3 80 24 8
3 81 24 80
3 81 0 24
3 59 37 3
3 82 37 59
3 82 17 37
3 39 82 7
3 83 82 39
3 83 17 82
3 83 226 228
3 228 227 17
3 226 227 228
3 230 229 83
3 84 231 232
3 84 233 234
3 41 84 18
3 85 84 41
3 85 235 237
3 237 236 84
3 235 236 237
3 85 238 239
3 71 240 242
3 242 241 85
3 240 241 242
3 71 243 244
3 72 245 246
3 86 247 249
3 249 248 72
3 247 248 249
3 86 250 251
3 44 86 14
3 87 86 44
3 87 252 254
3 254 253 86
3 252 253 254
3 87 255 256
3 88 257 259
3 259 258 87
3 257 258 259
3 88 260 261
3 63 45 2
3 89 45 63
3 89 20 45
3 47 89 9
3 90 89 47
3 90 20 89
3 90 88 20
3 91 88 90
3 91 262 264
3 264 263 88
3 262 263 264
3 91 265 267
3 265 42 266
3 265 266 267
3 92 42 91
3 92 19 42
3 49 92 21
3 93 92 49
3 93 19 92
3 93 268 270
3 270 269 19
3 268 269 270
3 94 271 273
3 273 272 93
3 271 272 273
3 94 274 275
3 94 276 278
3 276 277 278
3 280 279 94
3 51 281 283
3 283 282 22
3 281 282 283
3 285 284 51
3 67 52 4
3 95 52 67
3 95 23 52
3 54 95 11
3 286 95 287
3 288 287 54
3 286 287 288
3 289 23 290
3 291 290 95
3 289 290 291
3 293 292 23
3 294 81 295
3 296 81 297
3 298 0 299
3 300 299 81
3 298 299 300
3 301 0 302
3 303 28 304
3 305 304 0
3 303 304 305
3 306 28 307
3 308 12 309
3 310 309 28
3 308 309 310
3 311 12 312
3 313 70 314
3 315 314 12
3 313 314 315
3 96 316 318
3 316 70 317
3 316 317 318
3 96 5 70
3 319 96 320
3 97 321 323
3 321 96 322
3 321 322 323
3 97 5 96
3 97 324 326
3 326 325 5
3 324 325 326
3 328 327 97
