ply
format ascii 1.0
element vertex 182
property float x
property float y
property float z
element face 173
property list uchar int vertex_index
end_header
-52.671986 18.7906 19.331789
-45.883362 27.379391 24.821579
-52.695183 27.580383 16.441805
-47.669502 17.256954 28.682213
-47.101212 32.743702 22.734703
-48.776989 22.648693 22.346451
-52.091297 23.047775 17.849596
-49.269226 27.5868 20.735596
-50.571243 32.511795 18.763145
-49.909851 18.123791 24.063698
-45.876781 22.049164 26.679264
-54.791878 17.120392 17.725037
-55.931351 17.249828 15.226385
-54.042759 18.999424 16.891369
-47.170052 24.905613 23.661045
-48.858284 25.095448 21.554733
-47.49585 27.502716 22.790493
-47.85033 35.326279 21.473024
-48.807007 32.647568 20.765383
-49.525795 35.127991 19.501598
-51.201126 34.891499 17.503056
-48.693436 17.706017 26.373852
-47.72422 19.947319 25.409561
-46.541939 19.557091 27.647196
-52.297344 25.303654 17.165951
-53.584839 23.116196 15.513807
-44.958717 30.03447 25.83564
-46.400921 30.084534 23.834251
-45.599983 32.801086 24.70718
-45.615448 19.156197 29.915371
-50.637775 20.617325 20.891125
-52.190765 20.860348 18.554768
-50.442024 22.88271 20.130978
-50.616806 25.234894 19.395126
-51.057755 27.619617 18.621996
-48.086205 30.097828 21.844994
-49.885597 30.070854 19.825008
-51.634933 29.992615 17.746832
-52.216679 32.325363 16.712307
-51.262207 18.491333 21.723028
-49.115013 20.306595 23.168797
-47.222061 22.365585 24.516792
-45.675499 24.679165 25.752028
-44.80685 21.715889 28.873226
-44.461372 24.428082 27.871262
-44.540298 27.224232 26.873974
-53.654755 21.010342 16.16464
-49.027132 36.474821 19.755964
-48.688063 35.227135 20.487311
-48.1894 36.573965 20.741677
-49.829251 36.330229 18.760193
-49.027132 36.474821 19.755964
-48.877329 16.464155 28.051237
-48.434045 16.215307 29.23505
-48.181469 17.481485 27.528033
-49.389296 16.688686 26.897056
-48.877329 16.464155 28.051237
-53.21962 26.426361 15.665116
-53.020701 25.287996 16.027189
-52.496263 26.442019 16.803878
-45.000263 32.808296 25.715608
-45.27935 31.417778 25.27141
-44.67963 31.424988 26.279837
-56.406444 17.23962 14.0031
-55.599205 18.168753 14.831815
-52.18606 35.905386 15.746793
-51.946371 34.748131 16.490037
-51.440815 36.048754 16.759813
-51.111958 17.332175 23.357385
-50.523554 17.128706 24.556385
-50.586029 18.307562 22.893363
-51.788135 17.515946 22.18705
-51.111958 17.332175 23.357385
-44.424051 21.550856 30.001753
-45.211149 20.436043 29.394298
-44.82835 20.271009 30.522825
-43.99496 25.736704 28.430094
-44.016683 24.297483 28.963527
-44.034424 27.134779 27.93145
-44.500835 25.826157 27.372618
-43.99496 25.736704 28.430094
-44.19 28.586699 27.383077
-44.034424 27.134779 27.93145
-54.244622 22.074821 14.639527
-54.184816 23.083931 14.346575
-55.361615 17.18511 16.475711
-56.418949 16.394363 15.68292
-55.849213 16.329645 16.932246
-54.654909 19.043551 15.664307
-55.599205 18.168753 14.831815
-54.987055 18.124626 16.058877
-50.666916 36.211983 17.760922
-50.363461 35.009745 18.502327
-49.829251 36.330229 18.760193
-51.440815 36.048754 16.759813
-50.666916 36.211983 17.760922
-49.915346 16.919819 25.711462
-49.389296 16.688686 26.897056
-49.301643 17.914904 25.218775
-50.523554 17.128706 24.556385
-49.915346 16.919819 25.711462
-53.664448 24.194267 15.201117
-52.941091 24.209925 16.339879
-53.020701 25.287996 16.027189
-54.184816 23.083931 14.346575
-53.664448 24.194267 15.201117
-45.343931 34.200584 25.075403
-45.000263 32.808296 25.715608
-45.966877 34.143749 24.0746
-45.343931 34.200584 25.075403
-46.717491 34.115057 23.088361
-46.350597 32.772394 23.720942
-45.966877 34.143749 24.0746
-47.09205 35.406346 22.457522
-47.475771 34.03499 22.103863
-46.717491 34.115057 23.088361
-47.44301 36.700395 21.73683
-47.09205 35.406346 22.457522
-48.1894 36.573965 20.741677
-47.44301 36.700395 21.73683
-47.270149 17.028433 29.849362
-48.434045 16.215307 29.23505
-46.243122 17.978054 30.465941
-46.642475 18.206575 29.298792
-47.270149 17.028433 29.849362
-45.28862 18.962578 31.077782
-46.243122 17.978054 30.465941
-44.82835 20.271009 30.522825
-45.28862 18.962578 31.077782
-56.858101 16.398947 14.439392
-57.3457 15.543481 14.895927
-56.418949 16.394363 15.68292
-56.858101 16.398947 14.439392
-56.406444 17.23962 14.0031
-53.355969 27.509521 15.335199
-52.925697 28.711018 16.028219
-52.395573 29.917133 16.680733
-52.925697 28.711018 16.028219
-52.165058 28.786499 17.094318
-52.686445 31.083508 16.16347
-52.395573 29.917133 16.680733
-51.925806 31.158989 17.22957
-52.888546 32.195652 15.672063
-53.358312 30.953797 15.123227
-52.686445 31.083508 16.16347
-52.454148 33.465063 16.094662
-51.708903 33.608431 17.107681
-51.946371 34.748131 16.490037
-52.888546 32.195652 15.672063
-52.454148 33.465063 16.094662
-55.34025 16.25457 18.198021
-55.849213 16.329645 16.932246
-54.174481 16.997991 18.967315
-55.34025 16.25457 18.198021
-53.114534 17.833095 19.770691
-53.731932 17.955496 18.528413
-54.174481 16.997991 18.967315
-52.409645 17.683462 20.96631
-51.788135 17.515946 22.18705
-51.967096 18.640967 20.527408
-53.114534 17.833095 19.770691
-52.409645 17.683462 20.96631
-44.189422 22.941387 29.464509
-44.424051 21.550856 30.001753
-44.634111 23.071986 28.372244
-44.189422 22.941387 29.464509
-44.016683 24.297483 28.963527
-44.39921 29.991817 26.863911
-44.749507 28.629351 26.354807
-44.19 28.586699 27.383077
-44.67963 31.424988 26.279837
-44.39921 29.991817 26.863911
-54.460907 20.04901 15.300942
-54.654909 19.043551 15.664307
-53.848757 20.004883 16.528005
-54.279579 21.021895 14.964944
-53.619797 22.063269 15.839223
-54.244622 22.074821 14.639527
-54.460907 20.04901 15.300942
-54.279579 21.021895 14.964944
-53.21962 26.426361 15.665116
-53.355969 27.509521 15.335199
3 0 13 11
3 1 16 14
3 47 19 48
3 49 48 17
3 47 48 49
3 51 50 19
3 3 52 53
3 3 54 56
3 54 21 55
3 54 55 56
3 3 23 21
3 2 57 59
3 59 58 24
3 57 58 59
3 60 28 61
3 62 61 26
3 60 61 62
3 64 63 12
3 5 32 30
3 7 33 15
3 7 34 33
3 4 35 27
3 8 36 18
3 8 37 36
3 8 38 37
3 67 66 20
3 65 66 67
3 9 68 69
3 9 70 72
3 70 39 71
3 70 71 72
3 9 40 39
3 10 41 22
3 10 42 41
3 73 43 74
3 75 74 29
3 73 74 75
3 76 44 77
3 78 45 79
3 80 79 44
3 78 79 80
3 82 81 45
3 6 46 31
3 84 83 25
3 11 85 87
3 85 12 86
3 85 86 87
3 13 12 11
3 13 88 90
3 90 89 12
3 88 89 90
3 14 15 5
3 16 15 14
3 16 7 15
3 17 18 4
3 19 18 17
3 19 8 18
3 19 20 8
3 91 20 92
3 93 92 19
3 91 92 93
3 95 94 20
3 21 96 97
3 21 98 100
3 98 9 99
3 98 99 100
3 21 22 9
3 23 22 21
3 23 10 22
3 24 25 6
3 101 25 102
3 103 102 24
3 101 102 103
3 105 104 25
3 26 27 1
3 28 27 26
3 28 4 27
3 106 28 107
3 108 28 109
3 110 4 111
3 112 111 28
3 110 111 112
3 113 17 114
3 115 114 4
3 113 114 115
3 116 17 117
3 119 118 17
3 120 3 121
3 122 29 123
3 124 123 3
3 122 123 124
3 125 29 126
3 128 127 29
3 12 129 131
3 129 130 131
3 133 132 12
3 135 134 2
3 30 31 0
3 32 31 30
3 32 6 31
3 15 32 5
3 33 32 15
3 33 6 32
3 33 24 6
3 34 24 33
3 34 2 24
3 27 16 1
3 35 16 27
3 35 7 16
3 18 35 4
3 36 35 18
3 36 7 35
3 36 34 7
3 37 34 36
3 37 2 34
3 37 136 138
3 138 137 2
3 136 137 138
3 38 139 141
3 141 140 37
3 139 140 141
3 38 142 144
3 142 143 144
3 20 38 8
3 145 38 146
3 147 146 20
3 145 146 147
3 149 148 38
3 150 11 151
3 152 11 153
3 154 0 155
3 156 155 11
3 154 155 156
3 39 157 158
3 39 159 161
3 159 0 160
3 159 160 161
3 39 30 0
3 40 30 39
3 40 5 30
3 22 40 9
3 41 40 22
3 41 5 40
3 41 14 5
3 42 14 41
3 42 1 14
3 29 23 3
3 43 23 29
3 43 10 23
3 162 43 163
3 44 164 166
3 164 43 165
3 164 165 166
3 44 10 43
3 44 42 10
3 45 42 44
3 45 1 42
3 45 26 1
3 167 26 168
3 169 168 45
3 167 168 169
3 171 170 26
3 31 13 0
3 46 13 31
3 46 172 174
3 174 173 13
3 172 173 174
3 25 46 6
3 175 46 176
3 177 176 25
3 175 176 177
3 179 178 46
3 181 180 2
