ply
format ascii 1.0
element vertex 176
property float x
property float y
property float z
element face 163
property list uchar int vertex_index
end_header
-48.528469 37.821651 20.01033
-48.354313 55.360508 1.322517
-49.409645 47.099209 11.920856
-50.776611 49.819805 3.034998
-51.680504 37.206009 16.016569
-45.976616 57.108318 5.771371
-46.769764 43.33984 20.593939
-49.362938 42.577019 16.402872
-52.017082 41.657551 12.356216
-48.967476 51.404285 6.790529
-51.607143 45.887249 7.933305
-50.132706 37.532467 18.018789
-48.134834 47.630627 14.096
-48.151932 45.329601 16.395622
-49.47261 44.862797 14.260845
-50.766968 42.137928 14.351104
-50.778351 44.355816 12.18976
-47.203468 56.283733 3.446522
-47.483055 54.237087 6.248605
-48.672924 53.438511 4.079845
-51.224609 47.899799 5.525537
-47.03569 38.074512 22.000637
-47.982002 49.888538 11.613685
-49.260635 54.355213 -0.538904
-49.664848 52.563602 2.140283
-50.286682 51.624004 0.491947
-45.684635 59.161755 2.907829
-46.907845 58.207714 0.615873
-48.005085 57.143452 -1.447851
-46.363071 40.856388 22.404795
-47.605972 40.567741 20.353998
-46.966095 45.751842 18.570513
-47.983536 42.980125 18.486105
-49.047726 40.234367 18.322632
-50.55574 39.865948 16.300865
-51.956085 39.459473 14.296697
-46.269348 54.950336 8.586231
-47.749825 52.096714 8.984447
-49.224644 49.284016 9.417517
-50.036903 50.644154 4.786724
-50.367386 48.621967 7.368483
-50.628868 46.520084 9.849302
-51.886627 43.801987 10.222967
-49.027132 36.474821 19.755964
-48.1894 36.573965 20.741677
-49.330588 37.677059 19.01456
-49.829251 36.330229 18.760193
-49.027132 36.474821 19.755964
-46.406696 38.177703 23.007345
-46.684731 36.780462 22.721328
-47.269745 51.303131 11.46281
-47.394649 50.161357 12.760663
-50.025545 52.456158 -0.792762
-49.773658 52.989609 -0.023479
-49.512522 53.821762 -1.308188
-52.18606 35.905386 15.746793
-51.440815 36.048754 16.759813
-52.332409 37.017372 15.018518
-52.18606 35.905386 15.746793
-45.528919 60.120793 1.470582
-44.913812 60.59676 2.686339
-46.140524 59.643772 0.324604
-46.29624 58.684735 1.761851
-45.528919 60.120793 1.470582
-47.804991 57.952553 -2.823424
-47.289307 58.562149 -1.828151
-48.412019 56.568802 -2.334704
-47.804991 57.952553 -2.823424
-46.566418 42.098114 21.499367
-46.083765 42.247 22.56791
-46.287112 43.488726 21.662482
-46.964855 46.932133 17.453512
-46.483647 47.141644 18.593589
-52.539265 40.328843 12.349995
-52.508766 39.229804 13.320235
-51.986584 40.558512 13.326456
-46.122982 56.029327 7.178801
-45.545742 56.385684 8.412241
-45.399376 57.464675 7.004811
-50.666916 36.211983 17.760922
-49.829251 36.330229 18.760193
-50.906605 37.369238 17.017679
-51.440815 36.048754 16.759813
-50.666916 36.211983 17.760922
-46.388916 44.726437 20.684439
-46.287112 43.488726 21.662482
-48.143383 46.480114 15.245811
-47.557773 46.721012 16.366067
-47.549224 47.871525 15.216256
-51.426746 47.5075 4.739257
-51.00061 48.859802 4.280267
-51.202747 48.467503 3.493988
-51.696388 46.545864 5.88091
-51.426746 47.5075 4.739257
-51.887655 45.539589 7.084794
-51.415876 46.893524 6.729421
-51.696388 46.545864 5.88091
-52.111361 44.537771 8.175931
-51.887655 45.539589 7.084794
-47.44301 36.700395 21.73683
-46.684731 36.780462 22.721328
-47.78208 37.948082 21.005484
-48.1894 36.573965 20.741677
-47.44301 36.700395 21.73683
-47.471065 49.032402 14.00182
-47.549224 47.871525 15.216256
-48.058418 48.759582 12.854843
-47.471065 49.032402 14.00182
-47.394649 50.161357 12.760663
-50.343525 51.128765 -0.15805
-50.025545 52.456158 -0.792762
-50.659347 50.280441 1.044539
-50.343525 51.128765 -0.15805
-50.71619 49.785202 0.394542
-50.904312 49.378342 2.316064
-50.531647 50.721905 1.763472
-50.659347 50.280441 1.044539
-51.202747 48.467503 3.493988
-50.904312 49.378342 2.316064
-45.22937 58.547218 5.569394
-45.399376 57.464675 7.004811
-45.083379 59.573937 4.137622
-44.913812 60.59676 2.686339
-45.830625 58.135036 4.3396
-45.22937 58.547218 5.569394
-45.083379 59.573937 4.137622
-46.740687 59.09428 -0.796289
-46.140524 59.643772 0.324604
-47.456465 57.675583 -0.415989
-46.740687 59.09428 -0.796289
-47.289307 58.562149 -1.828151
-49.039794 55.174683 -1.880231
-48.63286 55.749333 -0.993378
-48.412019 56.568802 -2.334704
-49.512522 53.821762 -1.308188
-49.039794 55.174683 -1.880231
-45.877962 40.96919 23.448859
-46.083765 42.247 22.56791
-46.070386 39.568641 23.209424
-45.877962 40.96919 23.448859
-46.699381 39.46545 22.202716
-46.406696 38.177703 23.007345
-46.070386 39.568641 23.209424
-46.487082 45.932438 19.672726
-46.483647 47.141644 18.593589
-46.86793 44.545841 19.582226
-46.388916 44.726437 20.684439
-46.487082 45.932438 19.672726
-47.559014 45.540722 17.483067
-46.964855 46.932133 17.453512
-47.557773 46.721012 16.366067
-52.470199 38.144104 14.158582
-52.332409 37.017372 15.018518
-51.818295 38.332741 15.156633
-52.470199 38.144104 14.158582
-52.508766 39.229804 13.320235
-45.722303 55.259659 9.811863
-45.545742 56.385684 8.412241
-46.413418 53.83403 9.949083
-45.722303 55.259659 9.811863
-47.153656 52.407219 10.148191
-46.413418 53.83403 9.949083
-47.009586 53.523525 8.785339
-47.865914 50.992626 10.299066
-47.269745 51.303131 11.46281
-47.153656 52.407219 10.148191
-52.251103 43.49514 9.320762
-51.746885 44.844618 9.078136
-52.111361 44.537771 8.175931
-52.407295 42.461492 10.344565
-52.251103 43.49514 9.320762
-52.472522 41.389274 11.41119
-51.951854 42.729769 11.289592
-52.407295 42.461492 10.344565
-52.539265 40.328843 12.349995
-52.472522 41.389274 11.41119
3 0 43 44
3 0 45 47
3 45 11 46
3 45 46 47
3 2 14 12
3 2 16 14
3 1 19 17
3 48 21 49
3 50 22 51
3 52 25 53
3 54 53 23
3 52 53 54
3 4 55 56
3 4 57 58
3 59 26 60
3 61 27 62
3 63 62 26
3 61 62 63
3 64 28 65
3 67 66 28
3 6 68 70
3 68 29 69
3 68 69 70
3 6 30 29
3 71 31 72
3 7 32 13
3 7 33 32
3 7 34 33
3 8 35 15
3 8 73 75
3 75 74 35
3 73 74 75
3 5 76 78
3 76 36 77
3 76 77 78
3 9 37 18
3 9 38 37
3 3 39 24
3 10 40 20
3 10 41 40
3 10 42 41
3 11 79 80
3 11 81 83
3 81 4 82
3 81 82 83
3 84 6 85
3 12 86 88
3 86 13 87
3 86 87 88
3 14 13 12
3 14 7 13
3 14 15 7
3 16 15 14
3 16 8 15
3 17 18 5
3 19 18 17
3 19 9 18
3 89 20 90
3 91 90 3
3 89 90 91
3 92 20 93
3 94 10 95
3 96 95 20
3 94 95 96
3 98 97 10
3 21 99 100
3 21 101 103
3 101 0 102
3 101 102 103
3 104 12 105
3 22 106 108
3 106 12 107
3 106 107 108
3 22 2 12
3 23 24 1
3 25 24 23
3 25 3 24
3 109 25 110
3 111 25 112
3 111 112 113
3 114 3 115
3 116 115 25
3 114 115 116
3 118 117 3
3 119 5 120
3 26 121 122
3 26 123 125
3 123 5 124
3 123 124 125
3 26 17 5
3 27 17 26
3 27 1 17
3 126 27 127
3 28 128 130
3 128 27 129
3 128 129 130
3 28 1 27
3 28 23 1
3 131 23 132
3 133 132 28
3 131 132 133
3 135 134 23
3 29 136 137
3 29 138 139
3 29 140 142
3 140 21 141
3 140 141 142
3 30 21 29
3 30 0 21
3 31 143 144
3 31 145 147
3 145 6 146
3 145 146 147
3 13 148 150
3 148 31 149
3 148 149 150
3 32 31 13
3 32 6 31
3 32 30 6
3 33 30 32
3 33 0 30
3 33 11 0
3 34 11 33
3 34 4 11
3 15 34 7
3 35 34 15
3 35 4 34
3 35 151 153
3 153 152 4
3 151 152 153
3 155 154 35
3 36 156 157
3 36 158 159
3 18 36 5
3 37 36 18
3 37 160 162
3 162 161 36
3 160 161 162
3 37 163 165
3 163 22 164
3 163 164 165
3 38 22 37
3 38 2 22
3 24 19 1
3 39 19 24
3 39 9 19
3 20 39 3
3 40 39 20
3 40 9 39
3 40 38 9
3 41 38 40
3 41 2 38
3 41 16 2
3 42 16 41
3 42 8 16
3 166 42 167
3 168 167 10
3 166 167 168
3 169 42 170
3 171 8 172
3 173 172 42
3 171 172 173
3 175 174 8
