ply
format ascii 1.0
element vertex 352
property float x
property float y
property float z
element face 369
property list uchar int vertex_index
end_header
47.362888 20.020355 28.231661
53.700081 8.191698 44.557236
48.454414 9.121408 53.820717
56.090893 16.77103 18.7694
57.374821 13.136543 26.880898
49.82391 14.198208 36.610695
59.462536 8.458462 34.711159
51.627907 18.565186 23.573189
56.403816 14.884102 22.706341
51.962898 16.098511 27.592045
51.09248 8.523088 49.355904
47.420082 12.917963 50.42662
49.549088 11.872765 45.63213
47.253506 15.022583 41.450905
52.059422 11.319004 40.769127
55.114471 11.235775 35.914516
56.466133 8.276426 39.656025
51.170963 4.804403 52.428291
53.893791 4.679495 47.771675
59.643238 14.261608 14.193982
60.37886 12.883457 17.87055
61.3325 11.685726 21.880909
62.236992 10.235237 25.926136
44.200832 21.528297 32.852707
43.617153 19.879238 42.003551
45.190235 18.185452 37.097775
48.011047 17.02673 32.337894
53.313007 13.763206 31.808084
58.622139 11.110453 30.974552
49.404587 19.310081 25.920404
51.651665 17.298092 25.539959
49.477898 17.904465 27.907692
52.385651 8.304857 46.979923
50.470383 10.236261 47.567471
51.708023 9.951761 45.155411
50.740456 11.522957 43.199059
53.016884 9.796719 42.724068
54.414406 9.765585 40.286648
55.055969 8.190758 42.112007
52.554955 4.716606 50.149139
57.986755 16.572514 14.667928
58.046917 15.626274 16.40387
59.977913 13.530869 15.972904
58.218216 14.777145 18.273645
56.822201 14.01693 24.783215
58.922745 13.282055 22.292553
59.417591 12.547087 24.368576
61.817131 11.023197 23.91824
59.948051 11.741779 26.435162
47.040382 9.397299 55.82254
46.849564 11.494452 54.369156
46.538521 14.70322 48.47187
44.525459 18.159893 44.216599
48.418049 14.537083 39.017555
46.132252 16.590443 39.277794
47.325489 16.031429 36.860027
46.438263 17.550316 34.703964
48.807678 15.604836 34.471245
50.560726 15.26178 32.091419
51.466057 13.963013 34.215347
57.488129 9.883509 35.384319
56.827503 11.222994 33.462395
59.141457 9.87401 32.899769
60.83609 9.696993 30.38866
61.033249 8.387081 32.218483
53.903976 17.735302 21.181456
56.155922 15.789745 20.690254
53.921436 16.612503 23.129665
54.178017 15.560921 25.167294
54.655525 14.544777 27.259621
49.793159 8.812092 51.6502
48.083511 11.062717 52.215988
49.275185 10.623283 49.933594
48.456757 12.352701 48.051544
47.430187 14.024017 46.031944
46.308647 15.665207 43.912109
48.435295 13.458824 43.581261
49.599976 13.042786 41.141945
50.950592 12.778402 38.721008
52.492355 12.632843 36.310867
53.518593 11.241228 38.344437
55.906624 9.817892 37.843136
57.935928 8.392038 37.190369
48.48975 7.090908 55.245544
49.949394 6.905991 53.190529
51.33868 6.714468 50.977112
52.684589 6.562977 48.648308
54.012024 6.488667 46.244659
55.342251 6.508017 43.799603
59.362171 15.091103 12.566467
60.775543 12.648895 12.278263
61.322605 12.020235 13.913683
61.885544 11.477396 15.686755
62.457188 10.989893 17.562124
58.513084 14.007885 20.247999
60.838966 12.285326 19.852179
63.013237 10.510889 19.505102
63.515205 9.981684 21.4809
45.738564 22.44574 28.576756
44.250248 23.296688 30.846075
45.606014 20.745029 30.532978
45.213898 17.303249 41.732243
44.263325 18.961166 39.531525
44.524334 19.826729 34.945381
45.846214 19.115864 32.584061
47.514076 18.491348 30.246822
49.875149 16.564098 29.976181
52.535545 14.934158 29.694618
55.308517 13.516113 29.366337
54.209206 12.54257 33.893112
56.064392 12.423723 31.446346
58.001728 12.185295 28.95764
60.447151 10.807039 28.452972
62.527618 9.269588 27.870754
56.692463 6.609249 41.336273
48.383737 19.665218 27.076033
48.48703 20.467337 26.119329
47.466181 20.822474 27.274957
56.14448 17.308622 17.869967
55.10458 17.85926 19.058789
57.068905 16.198652 17.586635
57.122492 16.736244 16.687202
56.14448 17.308622 17.869967
45.70409 16.003159 48.660083
46.037598 15.572668 47.429646
45.031066 17.301004 45.30201
44.260615 18.640839 45.463154
51.75855 19.24086 22.645105
50.643608 19.680119 23.806537
52.765941 18.150244 22.377322
52.896585 18.825918 21.449239
51.75855 19.24086 22.645105
48.335766 6.036929 55.883541
47.711756 7.157642 56.173416
50.44556 4.855536 53.497196
50.882295 3.803114 53.077873
50.560178 5.855197 52.80941
49.834776 5.90633 53.878315
50.44556 4.855536 53.497196
54.55114 4.697169 46.553737
54.610256 5.601755 45.790229
53.952907 5.584081 47.008167
63.075767 9.787498 24.690447
62.865837 10.181477 23.686499
62.027062 10.629217 24.922188
63.197452 9.382168 25.660125
63.075767 9.787498 24.690447
45.203032 23.787325 28.758858
45.985048 23.330126 27.653184
44.22554 22.412492 31.849391
43.696787 23.753471 31.997779
43.672079 22.869276 33.001095
46.902161 13.21227 51.570839
47.233875 12.284647 52.465523
47.751796 11.99034 51.321304
43.069016 21.288832 42.133241
43.398453 20.396701 43.251115
43.26522 20.748914 40.896482
43.069016 21.288832 42.133241
44.373966 19.421315 37.222162
43.910511 19.809171 38.439037
44.72678 18.573309 38.31465
44.857285 19.00609 36.021578
44.041016 20.241953 36.145966
44.373966 19.421315 37.222162
62.575384 8.681623 28.798656
61.681854 9.483291 29.129707
61.72962 8.895326 30.057609
63.360382 8.389861 27.571506
62.575384 8.681623 28.798656
56.605513 5.715485 42.105137
56.017357 6.558633 42.567938
55.930407 5.664868 43.336802
49.531948 20.052566 24.980145
48.48703 20.467337 26.119329
50.516247 18.937634 24.746797
50.643608 19.680119 23.806537
49.531948 20.052566 24.980145
51.58099 3.78687 51.958656
50.882295 3.803114 53.077873
52.272986 3.742971 50.81908
51.862959 4.760504 51.288715
51.58099 3.78687 51.958656
52.943127 3.741355 49.643695
52.272986 3.742971 50.81908
53.612545 3.722799 48.454964
53.224373 4.69805 48.960407
52.943127 3.741355 49.643695
54.26401 3.747676 47.245109
53.612545 3.722799 48.454964
57.092411 17.209364 15.81923
57.21559 17.793631 14.990022
58.016836 16.099394 15.535899
57.092411 17.209364 15.81923
57.122492 16.736244 16.687202
43.685911 21.96639 34.031464
43.672079 22.869276 33.001095
46.283382 10.629454 56.083076
46.279038 9.495617 56.717277
46.187973 11.678031 55.356384
46.283382 10.629454 56.083076
46.944973 10.445875 55.095848
46.06926 12.773885 54.617485
46.187973 11.678031 55.356384
46.118225 15.070574 49.668392
46.559005 14.177945 50.645767
46.979302 13.810592 49.449245
46.118225 15.070574 49.668392
45.70409 16.003159 48.660083
43.852605 19.537029 44.35764
44.260615 18.640839 45.463154
44.071306 19.019565 43.110075
43.398453 20.396701 43.251115
43.852605 19.537029 44.35764
61.828199 8.240369 30.97252
61.72962 8.895326 30.057609
60.934669 9.042037 31.303572
54.011122 18.341397 20.264817
52.896585 18.825918 21.449239
54.997434 17.253166 19.975428
55.10458 17.85926 19.058789
54.011122 18.341397 20.264817
46.48343 15.233066 46.209682
46.037598 15.572668 47.429646
46.984354 14.363619 47.251907
46.869417 14.844612 44.972026
45.92266 16.053662 45.149765
46.48343 15.233066 46.209682
46.987072 8.310837 56.461914
46.279038 9.495617 56.717277
47.765066 8.244103 55.534042
46.987072 8.310837 56.461914
47.711756 7.157642 56.173416
49.104954 5.998788 54.905822
48.335766 6.036929 55.883541
49.219572 6.998449 54.218036
49.104954 5.998788 54.905822
49.834776 5.90633 53.878315
55.275369 5.611429 44.567701
54.677138 6.498342 45.022131
54.610256 5.601755 45.790229
55.930407 5.664868 43.336802
55.275369 5.611429 44.567701
54.55114 4.697169 46.553737
54.26401 3.747676 47.245109
57.995455 17.093646 13.878868
57.21559 17.793631 14.990022
58.683162 16.35294 12.828138
57.995455 17.093646 13.878868
58.674463 15.831809 13.617197
59.232198 15.554287 11.84339
58.683162 16.35294 12.828138
59.79751 14.233746 11.691477
59.232198 15.554287 11.84339
60.504196 13.012642 11.547375
59.79751 14.233746 11.691477
60.068857 13.869999 12.422365
61.074428 11.712388 11.53954
60.504196 13.012642 11.547375
61.471801 11.44048 12.256525
61.074428 11.712388 11.53954
61.745333 11.12615 13.074234
61.471801 11.44048 12.256525
61.049074 12.334565 13.095973
62.130907 10.897883 13.870997
61.745333 11.12615 13.074234
62.412377 10.626464 14.757533
62.130907 10.897883 13.870997
61.604075 11.748815 14.800219
62.781887 10.428793 15.616314
62.412377 10.626464 14.757533
63.067709 10.185042 16.553998
62.781887 10.428793 15.616314
62.171366 11.233645 16.62444
63.408751 9.997207 17.458697
63.067709 10.185042 16.553998
63.686775 9.757704 18.430186
63.408751 9.997207 17.458697
62.735213 10.750391 18.533613
63.980553 9.552917 19.365739
63.686775 9.757704 18.430186
64.231537 9.288315 20.353638
63.980553 9.552917 19.365739
63.264221 10.246287 20.493001
64.455417 9.036835 21.305218
64.231537 9.288315 20.353638
63.714874 9.660721 22.467829
62.666168 10.50244 22.69957
62.865837 10.181477 23.686499
64.455417 9.036835 21.305218
63.714874 9.660721 22.467829
46.654018 22.035166 27.447505
45.985048 23.330126 27.653184
46.550726 21.233047 28.404208
47.466181 20.822474 27.274957
46.654018 22.035166 27.447505
43.864273 24.685341 31.013739
43.696787 23.753471 31.997779
44.458874 24.212799 29.893518
43.864273 24.685341 31.013739
44.994406 22.871214 29.711416
45.203032 23.787325 28.758858
44.458874 24.212799 29.893518
46.616901 12.500515 53.542107
47.466538 11.278585 53.292572
47.233875 12.284647 52.465523
46.06926 12.773885 54.617485
46.616901 12.500515 53.542107
46.902161 13.21227 51.570839
46.559005 14.177945 50.645767
45.417053 16.91255 44.064354
45.031066 17.301004 45.30201
45.92266 16.053662 45.149765
43.588307 20.289879 39.660469
43.26522 20.748914 40.896482
43.940239 19.420202 40.767538
43.588307 20.289879 39.660469
43.910511 19.809171 38.439037
43.847662 21.115606 35.0778
44.041016 20.241953 36.145966
44.362583 20.677513 33.899044
43.685911 21.96639 34.031464
43.847662 21.115606 35.0778
63.342765 8.899344 26.632435
63.197452 9.382168 25.660125
62.382305 9.752413 26.898445
63.342765 8.899344 26.632435
63.360382 8.389861 27.571506
57.267109 5.791045 40.87278
56.605513 5.715485 42.105137
57.384056 6.680027 40.101699
57.267109 5.791045 40.87278
57.270891 7.513616 39.261575
56.579298 7.442838 40.496149
57.384056 6.680027 40.101699
58.005788 7.571421 38.028747
57.201031 8.334232 38.423197
57.270891 7.513616 39.261575
58.717888 7.629342 36.79377
58.005788 7.571421 38.028747
59.481192 7.662554 35.554165
58.699232 8.42525 35.950764
58.717888 7.629342 36.79377
60.214367 7.667637 34.320875
59.481192 7.662554 35.554165
60.999724 7.631946 33.074537
60.247892 8.422771 33.464821
60.214367 7.667637 34.320875
61.749624 7.54376 31.849016
60.999724 7.631946 33.074537
61.828199 8.240369 30.97252
61.749624 7.54376 31.849016
3 0 115 117
3 115 29 116
3 115 116 117
3 0 31 29
3 1 34 32
3 1 36 34
3 1 38 36
3 3 118 119
3 3 120 122
3 120 41 121
3 120 121 122
3 3 43 41
3 4 46 44
3 4 48 46
3 2 50 49
3 124 123 51
3 125 52 126
3 5 55 53
3 5 57 55
3 5 59 57
3 6 62 60
3 6 64 62
3 7 127 128
3 7 129 131
3 129 65 130
3 129 130 131
3 7 67 65
3 9 68 30
3 9 69 68
3 10 72 70
3 12 73 33
3 12 74 73
3 12 76 74
3 14 77 35
3 14 78 77
3 14 80 78
3 16 81 37
3 16 82 81
3 132 83 133
3 17 134 135
3 17 136 138
3 136 84 137
3 136 137 138
3 17 85 84
3 18 86 39
3 18 87 86
3 18 139 141
3 141 140 87
3 139 140 141
3 19 89 40
3 19 90 89
3 19 91 90
3 20 92 42
3 20 93 92
3 8 94 66
3 21 95 45
3 21 96 95
3 21 97 96
3 22 142 144
3 144 143 47
3 142 143 144
3 22 145 146
3 147 98 148
3 23 149 151
3 149 99 150
3 149 150 151
3 23 100 99
3 11 152 154
3 154 153 71
3 152 153 154
3 24 155 156
3 24 157 158
3 13 101 75
3 25 102 54
3 25 159 161
3 161 160 102
3 159 160 161
3 25 162 164
3 162 103 163
3 162 163 164
3 26 104 56
3 26 105 104
3 26 106 105
3 27 107 58
3 27 108 107
3 15 109 79
3 28 110 61
3 28 111 110
3 28 112 111
3 165 113 166
3 167 166 63
3 165 166 167
3 169 168 113
3 170 114 171
3 172 171 88
3 170 171 172
3 29 173 174
3 29 175 177
3 175 7 176
3 175 176 177
3 29 30 7
3 31 30 29
3 31 9 30
3 32 33 10
3 34 33 32
3 34 12 33
3 34 35 12
3 36 35 34
3 36 14 35
3 36 37 14
3 38 37 36
3 38 16 37
3 178 17 179
3 180 39 181
3 182 181 17
3 180 181 182
3 183 39 184
3 185 18 186
3 187 186 39
3 185 186 187
3 189 188 18
3 190 40 191
3 41 192 194
3 192 40 193
3 192 193 194
3 41 19 40
3 41 42 19
3 43 42 41
3 43 20 42
3 44 45 8
3 46 45 44
3 46 21 45
3 46 47 21
3 48 47 46
3 48 22 47
3 195 23 196
3 49 197 198
3 50 199 201
3 201 200 49
3 199 200 201
3 50 202 203
3 51 204 206
3 206 205 11
3 204 205 206
3 208 207 51
3 52 209 210
3 52 211 213
3 211 24 212
3 211 212 213
3 53 54 13
3 55 54 53
3 55 25 54
3 55 56 25
3 57 56 55
3 57 26 56
3 57 58 26
3 59 58 57
3 59 27 58
3 60 61 15
3 62 61 60
3 62 28 61
3 62 63 28
3 64 63 62
3 64 214 216
3 216 215 63
3 214 215 216
3 65 217 218
3 65 219 221
3 219 3 220
3 219 220 221
3 65 66 3
3 67 66 65
3 67 8 66
3 30 67 7
3 68 67 30
3 68 8 67
3 68 44 8
3 69 44 68
3 69 4 44
3 70 71 2
3 72 71 70
3 72 11 71
3 33 72 10
3 73 72 33
3 73 11 72
3 73 51 11
3 74 51 73
3 74 222 224
3 224 223 51
3 222 223 224
3 74 225 227
3 225 75 226
3 225 226 227
3 76 75 74
3 76 13 75
3 35 76 12
3 77 76 35
3 77 13 76
3 77 53 13
3 78 53 77
3 78 5 53
3 78 79 5
3 80 79 78
3 80 15 79
3 37 80 14
3 81 80 37
3 81 15 80
3 81 60 15
3 82 60 81
3 82 6 60
3 228 49 229
3 83 230 232
3 230 49 231
3 230 231 232
3 83 2 49
3 233 83 234
3 84 235 237
3 235 83 236
3 235 236 237
3 84 2 83
3 84 70 2
3 85 70 84
3 85 10 70
3 39 85 17
3 86 85 39
3 86 10 85
3 86 32 10
3 87 32 86
3 87 1 32
3 87 88 1
3 238 88 239
3 240 239 87
3 238 239 240
3 242 241 88
3 244 243 18
3 40 245 246
3 89 247 249
3 249 248 40
3 247 248 249
3 89 250 251
3 89 252 253
3 90 254 256
3 256 255 89
3 254 255 256
3 90 257 258
3 90 259 260
3 91 261 263
3 263 262 90
3 261 262 263
3 91 264 265
3 42 91 19
3 92 91 42
3 92 266 268
3 268 267 91
3 266 267 268
3 92 269 270
3 93 271 273
3 273 272 92
3 271 272 273
3 93 274 275
3 66 43 3
3 94 43 66
3 94 20 43
3 45 94 8
3 95 94 45
3 95 20 94
3 95 93 20
3 96 93 95
3 96 276 278
3 278 277 93
3 276 277 278
3 96 279 280
3 97 281 283
3 283 282 96
3 281 282 283
3 97 284 285
3 47 97 21
3 286 97 287
3 288 287 47
3 286 287 288
3 290 289 97
3 98 291 292
3 98 293 295
3 293 0 294
3 293 294 295
3 99 296 297
3 99 298 299
3 99 300 302
3 300 98 301
3 300 301 302
3 100 98 99
3 100 0 98
3 71 50 2
3 303 50 304
3 305 304 71
3 303 304 305
3 307 306 50
3 309 308 11
3 75 310 312
3 310 52 311
3 310 311 312
3 101 52 75
3 101 24 52
3 54 101 13
3 102 101 54
3 102 24 101
3 102 313 315
3 315 314 24
3 313 314 315
3 317 316 102
3 103 318 319
3 103 320 322
3 320 23 321
3 320 321 322
3 56 103 25
3 104 103 56
3 104 23 103
3 104 100 23
3 105 100 104
3 105 0 100
3 105 31 0
3 106 31 105
3 106 9 31
3 58 106 26
3 107 106 58
3 107 9 106
3 107 69 9
3 108 69 107
3 108 4 69
3 79 59 5
3 109 59 79
3 109 27 59
3 61 109 15
3 110 109 61
3 110 27 109
3 110 108 27
3 111 108 110
3 111 4 108
3 111 48 4
3 112 48 111
3 112 22 48
3 63 112 28
3 113 112 63
3 113 22 112
3 113 323 325
3 325 324 22
3 323 324 325
3 327 326 113
3 88 38 1
3 114 38 88
3 114 16 38
3 328 114 329
3 330 114 331
3 332 16 333
3 334 333 114
3 332 333 334
3 335 82 336
3 337 336 16
3 335 336 337
3 338 82 339
3 340 6 341
3 342 341 82
3 340 341 342
3 343 6 344
3 345 64 346
3 347 346 6
3 345 346 347
3 348 64 349
3 351 350 64
