ply
format ascii 1.0
element vertex 447
property float x
property float y
property float z
element face 482
property list uchar int vertex_index
end_header
64.633827 -54.137817 35.451302
57.449577 -61.059349 45.779381
61.222321 -54.129566 44.702721
60.393517 -61.075497 38.078217
53.442974 -68.310852 48.220749
65.543945 -47.186951 43.843513
68.462013 -47.725018 33.028332
66.357849 -52.066395 24.44595
57.561653 -64.869949 43.769562
59.417049 -61.338829 42.501183
58.519356 -64.600533 39.451759
58.623817 -63.799622 34.503494
50.302826 -67.533218 49.890617
50.974285 -72.091003 49.34565
52.484818 -63.892445 48.686943
63.243729 -54.38596 40.59687
63.378967 -50.640511 44.443844
65.408424 -50.937737 39.73238
67.288925 -47.655273 38.712418
66.899506 -50.802261 34.203537
68.012352 -50.15097 28.486351
65.62326 -53.37392 29.920244
56.359097 -56.809155 47.093742
58.389584 -53.379238 47.230042
59.282738 -57.588833 45.033058
61.25116 -57.865856 41.456425
62.393387 -57.592003 36.742287
62.997566 -56.770466 31.486479
60.642532 -60.253529 33.045265
55.561111 -68.550735 45.084
54.443855 -60.302685 47.620789
55.550507 -64.621498 46.940472
60.648911 -49.931274 47.655285
63.067047 -46.427486 47.725014
67.107109 -43.927689 42.664188
69.266617 -47.220284 27.287159
68.846275 -48.88987 22.920496
66.859093 -50.209309 19.196121
63.563576 -53.614086 21.004688
57.212036 -66.612251 42.394299
58.164543 -64.801773 41.723602
57.588112 -66.406433 40.123581
57.741177 -66.070923 37.694008
49.070816 -69.345352 50.443703
64.002495 -54.32518 38.110786
64.320404 -52.651073 40.17709
65.117126 -52.608929 37.57122
66.210106 -50.928032 37.025192
65.798538 -52.446804 34.820141
66.387009 -52.157909 32.002335
65.166565 -53.821903 32.699394
57.002655 -58.986401 46.493782
57.939358 -57.256672 46.258018
58.364452 -59.317486 45.344711
60.017193 -61.27758 40.401031
60.32579 -59.601017 41.947498
60.947235 -59.537392 39.784966
61.909531 -57.798618 39.204712
61.367496 -59.331928 37.403419
61.628227 -58.985973 34.877365
60.586018 -60.732597 35.604469
58.47068 -63.211384 31.943775
54.634178 -68.498398 46.828079
53.494987 -70.399879 47.431179
53.570347 -58.004238 47.716145
53.106079 -66.142288 48.621353
54.142277 -64.314148 47.991844
54.531944 -66.451134 47.587002
55.693771 -66.633621 46.183662
59.912148 -53.814159 46.180542
59.488487 -51.662193 47.445724
60.981697 -52.082336 46.23912
64.491226 -48.900688 44.206299
63.26635 -48.586521 46.202217
64.403229 -46.841713 45.982742
65.444351 -45.124802 45.57502
66.447281 -45.521988 43.333298
67.934532 -47.750687 35.901333
67.868835 -46.125244 38.119354
68.340134 -46.287766 35.313377
68.897636 -47.554882 30.145912
67.3442 -51.16555 26.385822
68.460678 -49.600471 25.674812
67.726776 -50.448486 23.648275
68.045197 -49.582375 20.972473
66.640518 -51.204353 21.790859
61.918327 -54.326027 19.431036
63.621071 -52.542942 18.50576
57.644806 -63.020798 44.888416
58.565495 -61.26358 44.311157
58.501373 -63.090733 43.11483
59.095634 -63.028034 41.051704
59.450264 -62.828037 38.764351
59.601501 -62.489796 36.322803
58.657753 -64.265396 37.023575
51.993298 -67.987854 49.237709
52.263283 -70.193848 48.81205
50.782394 -69.840927 49.810532
51.433689 -65.711563 49.29567
62.326378 -54.320686 42.821457
62.276146 -52.387512 44.592609
63.382118 -52.576973 42.547478
64.472374 -50.840462 42.236649
65.540413 -49.128246 41.857506
66.499725 -47.461445 41.389122
66.432076 -49.265511 39.247372
67.187332 -49.30228 36.469528
67.827431 -49.222767 33.606277
68.37233 -49.008438 30.721064
67.495384 -50.547775 31.339905
66.898918 -51.733585 29.177679
66.018326 -52.789726 27.159889
55.587341 -54.539768 47.636177
56.663132 -52.834145 47.86919
57.350712 -55.091084 47.091251
58.902405 -55.53619 46.166252
60.228111 -55.862343 44.831646
59.471039 -59.525528 43.819466
60.383518 -57.79451 43.420292
61.328342 -56.060921 43.098572
62.218437 -56.12714 41.014328
62.925789 -56.059292 38.651222
63.48484 -55.857666 36.092381
63.931145 -55.523312 33.418182
62.742943 -57.248035 34.146881
61.774719 -58.504444 32.273666
60.612404 -59.646751 30.453098
59.596458 -62.017105 33.791615
59.488003 -61.41851 31.222923
59.327988 -60.705807 28.653856
54.561626 -56.260479 47.576782
55.396687 -58.544044 47.270966
56.070808 -60.735508 46.880325
53.480408 -62.08675 48.110115
55.123764 -62.510803 47.394386
56.517426 -62.824959 46.323006
56.692253 -64.808395 45.524944
56.585663 -66.687729 44.436104
57.800087 -51.131657 48.214409
59.000992 -49.419754 48.584511
60.25544 -47.689518 48.882248
62.108406 -50.338043 46.269386
61.854568 -48.184113 47.773003
67.247917 -45.861477 40.818634
68.839859 -48.641777 27.856564
69.244919 -48.10968 25.036854
69.598099 -47.405785 22.271786
69.17038 -48.019562 20.226675
68.293259 -48.573799 18.356667
64.295769 -55.057106 30.696362
64.601471 -54.459419 27.977226
64.860954 -53.730755 25.293322
63.467934 -54.580246 23.557623
65.077011 -52.873119 22.661823
65.244064 -51.891918 20.0882
57.116997 -67.332142 40.442307
57.400074 -66.509342 41.25894
56.928959 -67.435051 41.577665
57.213978 -67.162403 39.221863
57.116997 -67.332142 40.442307
68.579296 -47.022768 32.74465
68.518357 -46.304142 33.887173
68.401073 -47.006392 34.170855
68.679824 -47.63995 31.587122
68.797108 -46.9377 31.30344
68.579296 -47.022768 32.74465
61.096624 -54.687309 18.661541
61.122837 -55.235979 19.872991
61.905974 -53.760573 18.214475
61.096624 -54.687309 18.661541
57.726112 -65.840187 36.43234
57.292731 -66.763759 36.73854
49.263863 -70.517746 50.384678
48.397464 -70.240082 50.694073
50.868257 -66.62239 49.593143
50.489519 -65.439605 49.476639
49.924087 -66.350433 49.774113
58.871342 -61.96571 30.302252
58.979342 -62.314947 31.583349
58.36268 -62.862147 30.662678
58.791334 -61.609358 29.017718
59.407995 -61.062158 29.938389
58.871342 -61.96571 30.302252
58.678059 -61.211986 27.746958
58.791334 -61.609358 29.017718
55.378296 -69.46508 44.362164
55.894249 -68.510238 44.061715
51.61525 -72.211342 48.662233
52.259749 -71.262764 48.395433
51.618784 -71.142426 49.07885
53.570028 -55.944296 47.677639
54.100606 -55.079876 47.722901
52.982613 -62.989598 48.398529
52.547912 -61.825018 48.311131
52.050117 -62.727866 48.599545
55.894249 -68.510238 44.061715
56.406525 -67.578735 43.737766
56.073387 -67.619232 44.760052
62.301438 -46.183649 48.371144
61.695198 -47.061963 48.395138
62.460808 -47.3058 47.749009
62.931534 -45.303701 48.322063
62.301438 -46.183649 48.371144
67.005062 -42.899311 43.399725
66.705624 -43.694062 43.812523
67.276222 -43.173614 42.247535
67.005062 -42.899311 43.399725
67.778271 -45.235239 39.128069
67.973381 -45.405922 37.788438
69.237526 -46.558201 27.025926
69.120582 -46.708588 28.445203
69.428669 -46.963994 25.878235
69.237526 -46.558201 27.025926
66.930538 -49.651352 17.926546
67.647621 -48.833597 17.506819
67.576176 -49.391554 18.776394
63.972409 -54.945763 27.070419
63.895817 -55.311557 28.395363
64.10215 -54.58143 25.728467
64.731212 -54.095087 26.635274
63.972409 -54.945763 27.070419
63.515755 -54.097166 22.281156
62.693139 -54.97608 22.735839
62.74096 -54.493 21.459372
64.485791 -51.670362 18.037978
63.623348 -51.962196 17.281373
57.29051 -66.994648 38.007076
57.664645 -66.238678 38.908794
57.213978 -67.162403 39.221863
57.292731 -66.763759 36.73854
57.29051 -66.994648 38.007076
48.737426 -68.150833 50.338676
49.686821 -68.439285 50.16716
49.353431 -67.244766 50.062134
48.117005 -69.031639 50.609307
48.737426 -68.150833 50.338676
48.397464 -70.240082 50.694073
48.117005 -69.031639 50.609307
49.353431 -67.244766 50.062134
49.924087 -66.350433 49.774113
58.009646 -64.120752 32.275179
58.547249 -63.505503 33.223635
58.086214 -64.414872 33.555039
57.891138 -63.778323 30.991602
58.009646 -64.120752 32.275179
58.36268 -62.862147 30.662678
57.891138 -63.778323 30.991602
54.552807 -69.479347 46.259123
55.016273 -69.505516 45.387083
55.097645 -68.524566 45.95604
53.983211 -70.430088 46.560672
54.552807 -69.479347 46.259123
54.064583 -69.449139 47.129629
53.395406 -71.406609 46.83709
53.983211 -70.430088 46.560672
50.938171 -73.187896 48.90601
50.269598 -73.040783 49.580929
52.564398 -57.693915 47.809011
53.074388 -56.816175 47.747321
53.082774 -58.888706 47.879035
52.564398 -57.693915 47.809011
53.519527 -60.037929 47.831356
54.007101 -59.153461 47.668467
53.082774 -58.888706 47.879035
64.315079 -45.759856 46.720667
63.646988 -45.552742 47.591803
63.735138 -46.6346 46.853878
64.83564 -44.9014 46.516806
64.315079 -45.759856 46.720667
64.92379 -45.983258 45.778881
65.35247 -44.042271 46.259659
64.83564 -44.9014 46.516806
65.874245 -44.292618 45.267938
65.35247 -44.042271 46.259659
66.375709 -44.491211 44.147077
65.874245 -44.292618 45.267938
65.945816 -45.323395 44.454159
66.777195 -44.724839 42.998743
66.705624 -43.694062 43.812523
66.375709 -44.491211 44.147077
68.209031 -45.487183 36.38545
67.973381 -45.405922 37.788438
68.104485 -46.206505 36.716366
68.330044 -45.603722 35.00243
68.209031 -45.487183 36.38545
68.330044 -45.603722 35.00243
68.518357 -46.304142 33.887173
68.936092 -46.875887 29.874579
68.797108 -46.9377 31.30344
69.082127 -47.387583 28.716535
69.120582 -46.708588 28.445203
68.936092 -46.875887 29.874579
63.093864 -56.467081 30.149989
62.423477 -57.332491 30.565835
61.918335 -54.848971 20.672545
61.122837 -55.235979 19.872991
62.740951 -53.970056 20.217862
62.74096 -54.493 21.459372
61.918335 -54.848971 20.672545
62.757345 -52.86903 17.751836
62.769699 -53.434484 18.968398
61.905974 -53.760573 18.214475
63.623348 -51.962196 17.281373
62.757345 -52.86903 17.751836
58.1844 -64.937423 36.097124
58.199465 -65.16816 37.358791
57.726112 -65.840187 36.43234
58.167433 -64.704537 34.837084
58.640785 -64.032509 35.763535
58.1844 -64.937423 36.097124
58.086214 -64.414872 33.555039
58.167433 -64.704537 34.837084
50.119652 -70.765534 50.068093
49.926605 -69.59314 50.127117
49.263863 -70.517746 50.384678
50.215597 -71.890571 49.835651
50.878339 -70.965965 49.578091
50.119652 -70.765534 50.068093
50.269598 -73.040783 49.580929
50.215597 -71.890571 49.835651
51.546101 -63.628977 48.878238
52.050117 -62.727866 48.599545
51.020537 -64.538536 49.182602
50.489519 -65.439605 49.476639
51.959254 -64.802004 48.991307
51.546101 -63.628977 48.878238
51.020537 -64.538536 49.182602
56.125236 -53.686957 47.752684
55.709221 -52.513838 48.013925
55.171326 -53.36665 47.897419
61.812053 -58.19948 30.959429
62.423477 -57.332491 30.565835
62.386142 -57.637455 31.880072
61.230896 -58.770634 30.049145
61.812053 -58.19948 30.959429
61.193562 -59.075598 31.363382
60.576078 -59.284731 29.159193
61.230896 -58.770634 30.049145
59.93387 -59.814259 28.259572
60.576078 -59.284731 29.159193
59.970196 -60.176279 29.553477
59.244152 -60.298716 27.38086
59.93387 -59.814259 28.259572
59.244152 -60.298716 27.38086
58.678059 -61.211986 27.746958
55.378296 -69.46508 44.362164
55.016273 -69.505516 45.387083
52.875601 -71.36578 47.704998
52.879135 -70.296864 48.121614
52.259749 -71.262764 48.395433
53.395406 -71.406609 46.83709
52.875601 -71.36578 47.704998
51.61525 -72.211342 48.662233
50.938171 -73.187896 48.90601
54.613464 -54.219521 47.752598
55.171326 -53.36665 47.897419
55.074483 -55.400123 47.60648
54.613464 -54.219521 47.752598
54.100606 -55.079876 47.722901
54.065986 -57.132358 47.646463
53.570028 -55.944296 47.677639
53.074388 -56.816175 47.747321
53.037804 -60.929962 48.07602
52.547912 -61.825018 48.311131
53.962131 -61.194717 47.865452
53.519527 -60.037929 47.831356
53.037804 -60.929962 48.07602
56.719711 -67.540997 42.716864
56.898849 -66.64999 43.415201
56.406525 -67.578735 43.737766
56.928959 -67.435051 41.577665
56.719711 -67.540997 42.716864
56.29879 -51.667569 48.23144
55.709221 -52.513838 48.013925
56.867267 -50.816324 48.404049
56.29879 -51.667569 48.23144
57.231609 -51.982901 48.0418
57.489704 -49.969807 48.651573
56.867267 -50.816324 48.404049
58.090156 -49.113855 48.836624
57.489704 -49.969807 48.651573
58.400539 -50.275706 48.39946
58.741742 -48.260388 49.06297
58.090156 -49.113855 48.836624
59.368966 -47.395269 49.211838
58.741742 -48.260388 49.06297
59.628216 -48.554636 48.733379
60.039474 -46.53076 49.366089
59.368966 -47.395269 49.211838
60.895634 -46.814665 48.94976
61.055004 -47.936816 48.327625
61.695198 -47.061963 48.395138
60.039474 -46.53076 49.366089
60.895634 -46.814665 48.94976
62.931534 -45.303701 48.322063
63.646988 -45.552742 47.591803
67.467812 -45.103355 40.477709
67.558376 -45.993361 39.468994
67.778271 -45.235239 39.128069
67.397407 -44.136461 41.400486
67.177513 -44.894583 41.741411
67.467812 -45.103355 40.477709
67.276222 -43.173614 42.247535
67.397407 -44.136461 41.400486
69.41782 -47.408692 24.753083
69.428669 -46.963994 25.878235
69.255768 -47.664982 26.162007
69.59441 -47.056744 23.370548
69.41782 -47.408692 24.753083
69.421509 -47.757733 23.65432
69.741867 -46.708619 21.985253
69.59441 -47.056744 23.370548
69.751145 -46.968539 20.917007
69.741867 -46.708619 21.985253
69.537285 -47.275427 19.894452
69.751145 -46.968539 20.917007
69.38424 -47.712674 21.24923
69.299717 -47.50835 18.908335
69.537285 -47.275427 19.894452
68.861156 -47.785469 17.973331
69.299717 -47.50835 18.908335
68.73182 -48.296681 19.291671
68.376934 -48.004932 17.075917
68.861156 -47.785469 17.973331
68.376934 -48.004932 17.075917
67.647621 -48.833597 17.506819
63.742966 -55.610401 29.754931
63.646668 -55.913786 31.09142
63.093864 -56.467081 30.149989
64.44862 -54.758263 29.336794
63.742966 -55.610401 29.754931
63.895817 -55.311557 28.395363
62.68712 -55.450508 24.002828
62.693139 -54.97608 22.735839
63.40564 -55.006176 24.860618
62.68712 -55.450508 24.002828
64.164444 -54.155501 24.425472
64.10215 -54.58143 25.728467
63.40564 -55.006176 24.860618
65.297287 -51.34485 18.829198
64.432568 -52.21743 19.29698
64.485791 -51.670362 18.037978
66.104802 -50.503546 18.383159
66.051579 -51.050613 19.642161
65.297287 -51.34485 18.829198
66.930538 -49.651352 17.926546
66.104802 -50.503546 18.383159
3 155 41 156
3 157 156 39
3 155 156 157
3 159 158 41
3 0 46 44
3 0 48 46
3 0 50 48
3 1 53 51
3 3 56 54
3 3 58 56
3 3 60 58
3 4 63 62
3 4 67 65
3 4 62 67
3 2 71 69
3 5 74 72
3 5 75 74
3 5 76 75
3 6 79 77
3 6 160 162
3 162 161 79
3 160 161 162
3 6 163 165
3 163 80 164
3 163 164 165
3 7 83 81
3 7 85 83
3 166 86 167
3 169 168 86
3 8 90 88
3 10 91 40
3 10 92 91
3 10 94 92
3 171 170 42
3 12 97 95
3 173 172 43
3 12 174 176
3 174 98 175
3 174 175 176
3 12 95 98
3 15 101 99
3 17 102 45
3 17 103 102
3 17 105 103
3 19 106 47
3 19 107 106
3 19 109 107
3 21 110 49
3 21 111 110
3 22 114 112
3 24 115 52
3 24 116 115
3 9 117 89
3 25 118 55
3 25 119 118
3 25 120 119
3 26 121 57
3 26 122 121
3 26 124 122
3 28 125 59
3 28 126 125
3 11 127 93
3 177 128 178
3 179 178 61
3 177 178 179
3 180 129 181
3 182 181 128
3 180 181 182
3 184 183 129
3 29 185 186
3 13 187 189
3 189 188 96
3 187 188 189
3 190 130 191
3 30 131 64
3 30 132 131
3 14 192 194
3 192 133 193
3 192 193 194
3 31 134 66
3 31 135 134
3 31 136 135
3 29 137 68
3 29 195 197
3 197 196 137
3 195 196 197
3 23 138 113
3 32 139 70
3 32 140 139
3 16 141 100
3 33 142 73
3 33 198 200
3 200 199 142
3 198 199 200
3 33 201 202
3 34 203 204
3 34 205 206
3 18 143 104
3 208 207 78
3 35 209 210
3 35 211 212
3 20 144 108
3 36 145 82
3 36 146 145
3 36 147 146
3 37 148 84
3 37 213 215
3 215 214 148
3 213 214 215
3 27 149 123
3 216 150 217
3 218 151 219
3 220 219 150
3 218 219 220
3 38 221 223
3 221 152 222
3 221 222 223
3 38 153 152
3 38 154 153
3 225 224 87
3 39 40 8
3 41 40 39
3 41 10 40
3 41 42 10
3 226 42 227
3 228 227 41
3 226 227 228
3 230 229 42
3 231 43 232
3 233 232 12
3 231 232 233
3 234 43 235
3 237 236 43
3 238 12 239
3 44 45 15
3 46 45 44
3 46 17 45
3 46 47 17
3 48 47 46
3 48 19 47
3 48 49 19
3 50 49 48
3 50 21 49
3 51 52 22
3 53 52 51
3 53 24 52
3 54 55 9
3 56 55 54
3 56 25 55
3 56 57 25
3 58 57 56
3 58 26 57
3 58 59 26
3 60 59 58
3 60 28 59
3 240 61 241
3 242 241 11
3 240 241 242
3 243 61 244
3 246 245 61
3 62 247 249
3 249 248 29
3 247 248 249
3 63 250 252
3 252 251 62
3 250 251 252
3 63 253 254
3 256 255 13
3 257 64 258
3 259 64 260
3 261 30 262
3 263 262 64
3 261 262 263
3 65 66 14
3 67 66 65
3 67 31 66
3 67 68 31
3 62 68 67
3 62 29 68
3 69 70 23
3 71 70 69
3 71 32 70
3 72 73 16
3 74 73 72
3 74 33 73
3 74 264 266
3 266 265 33
3 264 265 266
3 75 267 269
3 269 268 74
3 267 268 269
3 75 270 271
3 75 272 273
3 76 274 276
3 276 275 75
3 274 275 276
3 76 277 279
3 277 34 278
3 277 278 279
3 77 78 18
3 79 78 77
3 79 280 282
3 282 281 78
3 280 281 282
3 79 283 284
3 286 285 79
3 80 287 288
3 80 289 291
3 289 35 290
3 289 290 291
3 81 82 20
3 83 82 81
3 83 36 82
3 83 84 36
3 85 84 83
3 85 37 84
3 293 292 27
3 86 294 295
3 86 296 298
3 296 38 297
3 296 297 298
3 86 87 38
3 299 87 300
3 301 300 86
3 299 300 301
3 303 302 87
3 88 89 1
3 90 89 88
3 90 9 89
3 40 90 8
3 91 90 40
3 91 9 90
3 91 54 9
3 92 54 91
3 92 3 54
3 92 93 3
3 94 93 92
3 94 11 93
3 42 94 10
3 304 94 305
3 306 305 42
3 304 305 306
3 307 11 308
3 309 308 94
3 307 308 309
3 311 310 11
3 95 96 4
3 97 96 95
3 97 13 96
3 43 97 12
3 312 97 313
3 314 313 43
3 312 313 314
3 315 13 316
3 317 316 97
3 315 316 317
3 319 318 13
3 320 14 321
3 98 322 323
3 98 324 326
3 324 14 325
3 324 325 326
3 98 65 14
3 95 65 98
3 95 4 65
3 99 100 2
3 101 100 99
3 101 16 100
3 45 101 15
3 102 101 45
3 102 16 101
3 102 72 16
3 103 72 102
3 103 5 72
3 103 104 5
3 105 104 103
3 105 18 104
3 47 105 17
3 106 105 47
3 106 18 105
3 106 77 18
3 107 77 106
3 107 6 77
3 107 108 6
3 109 108 107
3 109 20 108
3 49 109 19
3 110 109 49
3 110 20 109
3 110 81 20
3 111 81 110
3 111 7 81
3 112 327 329
3 327 113 328
3 327 328 329
3 114 113 112
3 114 23 113
3 52 114 22
3 115 114 52
3 115 23 114
3 115 69 23
3 116 69 115
3 116 2 69
3 89 53 1
3 117 53 89
3 117 24 53
3 55 117 9
3 118 117 55
3 118 24 117
3 118 116 24
3 119 116 118
3 119 2 116
3 119 99 2
3 120 99 119
3 120 15 99
3 57 120 25
3 121 120 57
3 121 15 120
3 121 44 15
3 122 44 121
3 122 0 44
3 122 123 0
3 124 123 122
3 124 27 123
3 59 124 26
3 125 124 59
3 125 27 124
3 125 330 332
3 332 331 27
3 330 331 332
3 126 333 335
3 335 334 125
3 333 334 335
3 126 336 337
3 93 60 3
3 127 60 93
3 127 28 60
3 61 127 11
3 128 127 61
3 128 28 127
3 128 126 28
3 129 126 128
3 129 338 340
3 340 339 126
3 338 339 340
3 129 341 342
3 344 343 129
3 346 345 29
3 96 63 4
3 347 63 348
3 349 348 96
3 347 348 349
3 351 350 63
3 353 352 13
3 354 112 355
3 130 356 358
3 356 112 357
3 356 357 358
3 130 22 112
3 64 359 361
3 359 130 360
3 359 360 361
3 131 130 64
3 131 22 130
3 131 51 22
3 132 51 131
3 132 1 51
3 133 362 363
3 133 364 366
3 364 30 365
3 364 365 366
3 66 133 14
3 134 133 66
3 134 30 133
3 134 132 30
3 135 132 134
3 135 1 132
3 135 88 1
3 136 88 135
3 136 8 88
3 68 136 31
3 137 136 68
3 137 8 136
3 137 39 8
3 367 39 368
3 369 368 137
3 367 368 369
3 371 370 39
3 113 372 373
3 138 374 376
3 376 375 113
3 374 375 376
3 138 377 378
3 70 138 23
3 139 138 70
3 139 379 381
3 381 380 138
3 379 380 381
3 139 382 383
3 140 384 386
3 386 385 139
3 384 385 386
3 140 387 388
3 100 71 2
3 141 71 100
3 141 32 71
3 73 141 16
3 142 141 73
3 142 32 141
3 142 140 32
3 389 140 390
3 391 390 142
3 389 390 391
3 393 392 140
3 395 394 33
3 104 76 5
3 143 76 104
3 143 34 76
3 78 143 18
3 396 143 397
3 398 397 78
3 396 397 398
3 399 34 400
3 401 400 143
3 399 400 401
3 403 402 34
3 108 80 6
3 144 80 108
3 144 35 80
3 82 144 20
3 145 144 82
3 145 35 144
3 145 404 406
3 406 405 35
3 404 405 406
3 146 407 409
3 409 408 145
3 407 408 409
3 146 410 411
3 146 412 413
3 147 414 416
3 416 415 146
3 414 415 416
3 147 417 418
3 84 147 36
3 148 147 84
3 148 419 421
3 421 420 147
3 419 420 421
3 148 422 423
3 425 424 148
3 123 50 0
3 149 50 123
3 149 21 50
3 426 149 427
3 428 427 27
3 426 427 428
3 150 429 431
3 429 149 430
3 429 430 431
3 150 21 149
3 150 111 21
3 151 111 150
3 151 7 111
3 152 432 433
3 152 434 435
3 152 436 438
3 436 151 437
3 436 437 438
3 153 151 152
3 153 7 151
3 153 85 7
3 154 85 153
3 154 37 85
3 87 154 38
3 439 154 440
3 441 440 87
3 439 440 441
3 442 37 443
3 444 443 154
3 442 443 444
3 446 445 37
