ply
format ascii 1.0
element vertex 164
property float x
property float y
property float z
element face 146
property list uchar int vertex_index
end_header
-62.315884 -17.907198 -43.59761
-66.460739 -32.053951 -35.222004
-54.461662 -4.440782 -51.686432
-64.794144 -24.935043 -39.32069
-63.724998 -32.987045 -38.596527
-61.947899 -25.780165 -42.775066
-59.246765 -18.644455 -46.99704
-58.861206 -11.044159 -47.838993
-55.449242 -11.729048 -51.032478
-63.669533 -21.404732 -41.445774
-63.399677 -25.360207 -41.126595
-62.227036 -21.806192 -43.265285
-60.729713 -22.195446 -44.891438
-60.808609 -18.283867 -45.412994
-65.76207 -36.089733 -34.940334
-62.265129 -33.414818 -40.053448
-56.767338 -7.701441 -49.837395
-57.177902 -11.390236 -49.589722
-54.983929 -8.055757 -51.526512
-65.715759 -28.489033 -37.243832
-65.134918 -32.515965 -36.959446
-64.357422 -28.934271 -39.020771
-62.932907 -29.382092 -40.672089
-59.18071 -22.53112 -46.225918
-57.631149 -18.954325 -48.250664
-52.580605 -4.827974 -53.29364
-64.363007 -36.580837 -36.55146
-66.947464 -28.104343 -35.418308
-66.083984 -24.562185 -37.442955
-65.021072 -21.046198 -39.525173
-60.714714 -14.45048 -45.742836
-59.125786 -14.806419 -47.53545
-57.484421 -15.147505 -49.058182
-55.792717 -15.446543 -50.213882
-53.1688 -8.417177 -52.87101
-53.680946 -12.040842 -52.074814
-66.111404 -34.071842 -35.081169
-66.406052 -35.850649 -34.092981
-66.755387 -33.832758 -34.233816
-61.82544 -35.408619 -39.647774
-61.509653 -33.588405 -40.651596
-55.383295 -4.273429 -50.739174
-54.20162 -2.676031 -51.595791
-55.6145 -6.071111 -50.761914
-56.536133 -5.903759 -49.814656
-55.383295 -4.273429 -50.739174
-61.705429 -27.781127 -42.442167
-62.197933 -29.58209 -41.390678
-62.440403 -27.581128 -41.723578
-61.198292 -25.96416 -43.473197
-61.705429 -27.781127 -42.442167
-67.066658 -26.201514 -35.488691
-67.452877 -27.969313 -34.509698
-66.634918 -24.430435 -36.501014
-66.515724 -26.333264 -36.430632
-67.066658 -26.201514 -35.488691
-65.020793 -19.180929 -39.584219
-65.61562 -20.917628 -38.551071
-64.380634 -19.305703 -40.58645
-65.020793 -19.180929 -39.584219
-59.668484 -10.886468 -46.859287
-58.67788 -9.214686 -47.869702
-59.78796 -12.747319 -46.790914
-60.595237 -12.589629 -45.811208
-59.668484 -10.886468 -46.859287
-51.928511 -6.830165 -53.69648
-52.874702 -6.622575 -53.082325
-51.634413 -5.035564 -53.907795
-52.777206 -12.183731 -52.363118
-52.506561 -10.406837 -52.930301
-53.862583 -13.869227 -51.501232
-52.777206 -12.183731 -52.363118
-66.010334 -37.862505 -33.943677
-66.406052 -35.850649 -34.092981
-65.318924 -38.118262 -34.734335
-66.010334 -37.862505 -33.943677
-62.582712 -35.223282 -39.031443
-63.312646 -35.009395 -38.302982
-62.995064 -33.200931 -39.324988
-62.143023 -37.217083 -38.625769
-62.582712 -35.223282 -39.031443
-61.82544 -35.408619 -39.647774
-57.630946 -7.543327 -48.868903
-56.536133 -5.903759 -49.814656
-57.814272 -9.3728 -48.838194
-58.67788 -9.214686 -47.869702
-57.630946 -7.543327 -48.868903
-61.864044 -31.598453 -41.081358
-62.599018 -31.398455 -40.362769
-62.197933 -29.58209 -41.390678
-61.509653 -33.588405 -40.651596
-61.864044 -31.598453 -41.081358
-60.589199 -24.1718 -44.531384
-61.198292 -25.96416 -43.473197
-61.338806 -23.987806 -43.833252
-59.814697 -24.339638 -45.198623
-60.589199 -24.1718 -44.531384
-59.955211 -22.363283 -45.558678
-59.033257 -24.483887 -45.726796
-59.814697 -24.339638 -45.198623
-58.372125 -22.661803 -46.704145
-59.033257 -24.483887 -45.726796
-57.597345 -20.873406 -47.716518
-58.372125 -22.661803 -46.704145
-58.405929 -20.742722 -47.238291
-56.790112 -19.07724 -48.671265
-57.597345 -20.873406 -47.716518
-53.224205 -2.864164 -52.511101
-54.20162 -2.676031 -51.595791
-52.283676 -3.05776 -53.314705
-53.521133 -4.634378 -52.490036
-53.224205 -2.864164 -52.511101
-51.299542 -3.282692 -54.067032
-52.283676 -3.05776 -53.314705
-51.634413 -5.035564 -53.907795
-51.299542 -3.282692 -54.067032
-64.619393 -38.363814 -35.539898
-65.318924 -38.118262 -34.734335
-65.062538 -36.335285 -35.745897
-63.631651 -36.806292 -37.280449
-64.044003 -34.783941 -37.573994
-63.312646 -35.009395 -38.302982
-63.88481 -38.599886 -36.263012
-63.631651 -36.806292 -37.280449
-64.619393 -38.363814 -35.539898
-63.88481 -38.599886 -36.263012
-67.045082 -31.855973 -34.336729
-66.755387 -33.832758 -34.233816
-67.288444 -29.881169 -34.434881
-67.452877 -27.969313 -34.509698
-66.704102 -30.079147 -35.320156
-67.045082 -31.855973 -34.336729
-67.288444 -29.881169 -34.434881
-66.147075 -22.675621 -37.509962
-66.634918 -24.430435 -36.501014
-65.552528 -22.804192 -38.484064
-66.147075 -22.675621 -37.509962
-65.61562 -20.917628 -38.551071
-63.704864 -19.48497 -41.546751
-64.345303 -21.225465 -40.485473
-64.380634 -19.305703 -40.58645
-63.02804 -17.736203 -42.622669
-62.992708 -19.655965 -42.521692
-63.704864 -19.48497 -41.546751
-62.271368 -16.015847 -43.688583
-63.02804 -17.736203 -42.622669
-61.470783 -14.287488 -44.761196
-60.595237 -12.589629 -45.811208
-61.515299 -16.178839 -44.670223
-62.271368 -16.015847 -43.688583
-61.470783 -14.287488 -44.761196
-55.870896 -17.323349 -49.652874
-56.790112 -19.07724 -48.671265
-56.711933 -17.200434 -49.232273
-52.250488 -8.595004 -53.3284
-51.928511 -6.830165 -53.69648
-53.424873 -10.22901 -52.472912
-52.250488 -8.595004 -53.3284
-52.506561 -10.406837 -52.930301
-54.918469 -15.572077 -50.570766
-54.736832 -13.743692 -51.144348
-53.862583 -13.869227 -51.501232
-55.870896 -17.323349 -49.652874
-54.918469 -15.572077 -50.570766
3 0 11 9
3 0 13 11
3 1 36 38
3 36 14 37
3 36 37 38
3 40 39 15
3 2 41 42
3 2 43 45
3 43 16 44
3 43 44 45
3 2 18 16
3 3 21 19
3 5 22 10
3 5 46 48
3 48 47 22
3 46 47 48
3 5 49 50
3 6 23 12
3 6 24 23
3 4 26 20
3 51 27 52
3 53 28 54
3 55 54 27
3 53 54 55
3 56 29 57
3 59 58 29
3 7 60 61
3 7 62 64
3 62 30 63
3 62 63 64
3 7 31 30
3 8 32 17
3 8 33 32
3 65 34 66
3 67 66 25
3 65 66 67
3 68 35 69
3 71 70 35
3 9 10 3
3 11 10 9
3 11 5 10
3 11 12 5
3 13 12 11
3 13 6 12
3 14 72 73
3 14 74 75
3 15 76 78
3 78 77 4
3 76 77 78
3 81 80 15
3 79 80 81
3 16 82 83
3 16 84 86
3 84 7 85
3 84 85 86
3 16 17 7
3 18 17 16
3 18 8 17
3 19 20 1
3 21 20 19
3 21 4 20
3 10 21 3
3 22 21 10
3 22 4 21
3 22 15 4
3 87 15 88
3 89 88 22
3 87 88 89
3 91 90 15
3 12 92 94
3 94 93 5
3 92 93 94
3 23 95 97
3 97 96 12
3 95 96 97
3 23 98 99
3 23 100 101
3 24 102 104
3 104 103 23
3 102 103 104
3 24 105 106
3 107 2 108
3 109 25 110
3 111 110 2
3 109 110 111
3 112 25 113
3 115 114 25
3 20 14 1
3 26 14 20
3 26 116 118
3 118 117 14
3 116 117 118
3 119 26 120
3 121 120 4
3 119 120 121
3 122 26 123
3 125 124 26
3 126 1 127
3 27 128 129
3 27 130 132
3 130 1 131
3 130 131 132
3 27 19 1
3 28 19 27
3 28 3 19
3 133 28 134
3 29 135 137
3 135 28 136
3 135 136 137
3 29 3 28
3 29 9 3
3 138 9 139
3 140 139 29
3 138 139 140
3 141 0 142
3 143 142 9
3 141 142 143
3 144 0 145
3 30 146 147
3 30 148 150
3 148 0 149
3 148 149 150
3 30 13 0
3 31 13 30
3 31 6 13
3 17 31 7
3 32 31 17
3 32 6 31
3 32 24 6
3 33 24 32
3 33 151 153
3 153 152 24
3 151 152 153
3 25 18 2
3 34 18 25
3 34 8 18
3 154 34 155
3 35 156 158
3 156 34 157
3 156 157 158
3 35 8 34
3 35 33 8
3 159 33 160
3 161 160 35
3 159 160 161
3 163 162 33
