ply
format ascii 1.0
element vertex 318
property float x
property float y
property float z
element face 319
property list uchar int vertex_index
end_header
-9.865862 86.692596 14.362285
-9.189144 68.571259 43.400539
-8.868567 79.878815 29.773804
-2.747868 75.387161 38.136295
-4.061335 62.844387 52.278313
-5.999947 86.482391 17.929482
-8.782251 74.703659 36.986538
-5.400738 78.5056 34.013683
-5.623676 72.875931 41.42654
-3.141357 69.493515 45.622978
-6.396465 66.394852 48.010128
-13.534794 82.908524 18.579262
-9.291468 83.924149 22.102465
-12.826008 79.62381 25.789242
-12.398691 75.140686 32.668327
-12.389486 69.593185 38.839821
-5.590485 83.094376 26.056248
-2.801867 80.320435 30.054379
-2.185091 57.832737 55.908173
-12.900764 63.154705 44.149017
-10.173504 61.68713 48.935581
-7.711739 59.284672 53.717983
-5.414122 55.648174 58.076675
-3.319304 50.669048 61.777473
-4.612427 43.10981 66.965187
-1.629337 44.54953 64.761581
-7.829832 86.854935 16.092648
-8.9161 71.745499 40.305943
-7.127401 73.974655 39.212761
-7.358772 70.908585 42.580765
-5.937212 69.728592 44.831066
-7.735647 67.641724 45.723068
-12.056267 86.027695 12.785256
-13.155857 81.422653 22.200096
-12.334942 72.490234 35.859917
-9.049116 82.052979 25.969383
-7.346876 83.750626 24.048838
-7.162306 81.723709 28.004677
-3.960245 77.16861 36.113556
-3.969385 79.69519 32.143295
-2.728794 77.985291 34.148811
-3.537016 66.249771 49.06131
-2.17186 67.194702 47.521778
-2.56016 63.930782 50.960239
-3.063644 60.516178 54.183392
-8.916868 60.622952 51.355907
-6.182093 51.897724 60.694107
-4.330919 53.320644 60.015251
-5.040836 49.571224 62.657589
-2.964787 44.025745 66.066635
-8.77264 77.422012 33.462898
-7.048866 79.404663 31.884129
-7.030077 76.814392 35.63575
-5.449903 75.809799 37.810539
-4.061623 74.391281 39.938644
-2.880291 72.548264 41.97316
-4.292053 71.386841 43.578793
-4.662411 68.18132 47.006561
-5.172398 64.802368 50.210033
-11.70875 84.995117 16.507887
-9.571478 85.474609 18.220791
-11.371223 83.632156 20.264675
-11.064451 81.944199 24.020136
-10.811687 79.944794 27.728388
-12.567406 77.524536 29.296118
-10.635033 77.651886 31.33672
-10.554104 75.085083 34.79274
-10.586403 72.264832 38.053314
-10.747564 69.212982 41.092743
-7.577705 85.466095 20.064943
-5.780571 84.947006 21.992764
-4.225645 83.912903 23.953659
-5.455477 80.940796 30.079191
-4.066172 81.949646 28.074404
-2.942911 82.373322 25.898129
-1.942581 80.351212 27.783993
-1.908613 70.282166 43.875423
-1.436169 54.829037 57.447845
-12.574835 66.472351 41.59832
-11.049761 65.954468 43.907417
-11.497942 62.518772 46.51532
-9.609329 65.208069 46.270706
-8.259144 64.202774 48.642014
-6.994829 62.903728 50.966808
-5.808561 61.278034 53.192764
-6.544964 57.634602 55.970554
-4.69626 59.303059 55.278347
-3.662561 56.973454 57.196777
-2.721752 54.304707 58.935287
-1.894516 51.332058 60.49086
-3.956015 46.935009 64.450058
-2.409365 47.729282 63.3606
-1.202036 48.105274 61.864582
-8.847847 86.773765 15.227467
-7.955342 87.382103 14.12675
-8.973357 87.300933 13.261568
-10.010974 87.134239 12.458225
-11.106177 86.801788 11.669711
-10.961064 86.360145 13.573771
-8.973357 87.300933 13.261568
-10.010974 87.134239 12.458225
-2.244614 75.604004 37.095816
-2.235077 76.903069 35.102074
-2.738331 76.686226 36.142553
-2.258426 74.276688 39.089309
-2.244614 75.604004 37.095816
-6.57455 49.981609 61.922584
-7.178623 50.987572 60.847834
-6.003921 48.818359 62.904325
-5.611465 50.734474 61.675848
-6.57455 49.981609 61.922584
-5.314681 86.694198 16.820955
-6.111912 87.086159 15.913205
-5.210951 86.02562 18.8759
-5.314681 86.694198 16.820955
-12.483048 76.332611 30.982222
-13.418014 76.208969 29.97034
-13.333657 75.017044 31.656444
-13.737531 83.491715 16.774355
-14.639522 82.359352 17.833388
-12.621772 83.95182 17.543574
-12.824509 84.535011 15.738668
-13.737531 83.491715 16.774355
-1.655806 67.403137 46.570944
-1.77543 65.850891 48.386692
-1.618187 58.022251 55.064492
-1.958191 59.536232 54.295324
-1.81063 56.330887 56.678009
-1.243726 56.520401 55.834328
-1.618187 58.022251 55.064492
-12.7378 64.813528 42.873669
-13.477515 65.047395 41.736404
-13.64048 63.388572 43.011753
-10.835723 62.102951 47.725451
-11.791716 60.729614 47.732828
-11.129497 60.313793 48.942959
-5.979543 56.641388 57.023615
-6.945843 55.764763 57.268217
-6.380422 54.771549 58.321278
-5.548369 42.465899 67.221233
-4.942035 41.155608 68.147098
-5.189296 44.42259 66.053097
-5.548369 42.465899 67.221233
-4.284221 45.02241 65.707622
-4.86109 46.33519 64.795532
-5.189296 44.42259 66.053097
-1.144464 44.615383 63.909094
-0.930814 46.393255 62.460594
-1.415687 46.327402 63.313082
-7.026854 87.27243 14.994788
-7.955342 87.382103 14.12675
-6.914889 86.668663 17.011065
-6.111912 87.086159 15.913205
-7.026854 87.27243 14.994788
-12.228391 86.381813 10.953727
-13.2055 85.476295 12.094152
-11.278301 87.155906 9.838181
-12.228391 86.381813 10.953727
-11.106177 86.801788 11.669711
-14.218816 80.975845 21.375591
-13.345325 82.165588 20.389679
-14.408285 81.718781 19.565174
-14.01112 80.184196 23.098381
-14.218816 80.975845 21.375591
-13.846196 79.284775 24.892954
-12.990932 80.523232 23.994669
-14.01112 80.184196 23.098381
-13.258892 73.792625 33.210445
-13.333657 75.017044 31.656444
-13.227018 72.467399 34.80624
-12.366816 73.81546 34.264122
-13.258892 73.792625 33.210445
-13.208519 71.112617 36.263737
-13.227018 72.467399 34.80624
-13.235791 69.664093 37.753689
-12.362214 71.041709 37.349869
-13.208519 71.112617 36.263737
-14.408285 81.718781 19.565174
-14.639522 82.359352 17.833388
-2.267829 78.10392 33.051855
-2.304366 79.271492 31.004639
-2.765331 79.152863 32.101595
-2.267829 78.10392 33.051855
-2.235077 76.903069 35.102074
-1.96958 64.218931 50.105923
-1.77543 65.850891 48.386692
-2.36601 65.562742 49.241008
-2.145726 62.585255 51.821358
-1.96958 64.218931 50.105923
-2.397467 60.877952 53.432934
-2.145726 62.585255 51.821358
-2.811902 62.22348 52.571815
-2.624367 59.174458 55.045783
-1.958191 59.536232 54.295324
-2.397467 60.877952 53.432934
-13.816827 61.714267 44.174533
-13.64048 63.388572 43.011753
-10.518986 59.864937 50.181068
-11.129497 60.313793 48.942959
-9.890668 59.332848 51.391232
-9.545186 61.155041 50.145744
-10.518986 59.864937 50.181068
-9.299535 58.778515 52.624269
-9.890668 59.332848 51.391232
-8.696971 58.109375 53.805307
-8.314303 59.953812 52.536945
-9.299535 58.778515 52.624269
-6.764407 52.896324 59.629993
-7.178623 50.987572 60.847834
-5.798108 53.772949 59.385391
-6.380422 54.771549 58.321278
-6.764407 52.896324 59.629993
-4.079504 41.667982 67.789402
-4.942035 41.155608 68.147098
-3.255684 42.12595 67.340126
-3.788607 43.567778 66.515911
-4.079504 41.667982 67.789402
-2.532071 42.457668 66.781982
-3.255684 42.12595 67.340126
-1.864347 42.719561 66.129456
-2.297062 44.287638 65.414108
-2.532071 42.457668 66.781982
-1.313821 42.866035 65.367088
-1.864347 42.719561 66.129456
-13.674042 78.344162 26.583412
-13.846196 79.284775 24.892954
-14.69423 78.005127 25.687123
-13.544741 77.294525 28.336849
-13.418014 76.208969 29.97034
-12.696707 78.574173 27.54268
-13.674042 78.344162 26.583412
-13.544741 77.294525 28.336849
-12.998267 85.0513 13.877353
-13.2055 85.476295 12.094152
-11.882509 85.511406 14.646572
-12.998267 85.0513 13.877353
-12.824509 84.535011 15.738668
-5.101263 85.257927 20.907541
-5.210951 86.02562 18.8759
-5.890259 85.714698 19.961123
-4.3238 84.740876 21.887988
-5.101263 85.257927 20.907541
-5.003108 84.429955 22.973211
-3.676114 84.020531 22.837463
-4.3238 84.740876 21.887988
-3.034747 83.250741 23.809698
-3.676114 84.020531 22.837463
-3.584278 83.143113 24.925894
-2.533453 82.28196 24.740665
-3.034747 83.250741 23.809698
-2.033288 81.270905 25.683597
-2.533453 82.28196 24.740665
-2.442746 81.362267 26.841061
-1.672464 80.075074 26.580385
-2.033288 81.270905 25.683597
-1.874722 79.28688 29.869446
-2.372224 80.335824 28.919186
-2.304366 79.271492 31.004639
-1.578256 79.1167 28.682688
-1.874722 79.28688 29.869446
-1.308139 78.840561 27.479081
-1.672464 80.075074 26.580385
-1.578256 79.1167 28.682688
-2.324638 72.857239 41.007742
-2.258426 74.276688 39.089309
-2.81408 73.967713 40.054727
-1.838798 71.72419 41.958873
-2.324638 72.857239 41.007742
-2.394452 71.415215 42.924291
-1.462025 70.40458 42.840292
-1.838798 71.72419 41.958873
-1.524182 68.946869 44.747766
-2.040236 68.738434 45.6986
-1.655806 67.403137 46.570944
-1.462025 70.40458 42.840292
-1.524182 68.946869 44.747766
-0.979101 54.863747 56.512733
-1.243726 56.520401 55.834328
-1.132491 53.192493 58.12647
-0.979101 54.863747 56.512733
-13.277707 68.189583 39.1064
-13.235791 69.664093 37.753689
-13.370382 66.629165 40.485649
-13.477515 65.047395 41.736404
-12.48216 68.032768 40.219071
-13.277707 68.189583 39.1064
-13.370382 66.629165 40.485649
-13.13532 61.413738 45.33715
-13.816827 61.714267 44.174533
-12.433909 61.095771 46.520302
-11.791716 60.729614 47.732828
-12.199353 62.836738 45.332169
-13.13532 61.413738 45.33715
-12.433909 61.095771 46.520302
-8.113036 57.425038 55.003193
-8.696971 58.109375 53.805307
-7.529649 56.600003 56.129479
-6.945843 55.764763 57.268217
-7.128351 58.459637 54.844268
-8.113036 57.425038 55.003193
-7.529649 56.600003 56.129479
-1.361665 51.444004 59.647978
-1.132491 53.192493 58.12647
-1.665342 53.080548 58.969352
-5.4035 47.653298 63.899298
-6.003921 48.818359 62.904325
-4.498425 48.253117 63.553824
-5.4035 47.653298 63.899298
-4.86109 46.33519 64.795532
-1.015425 49.830612 60.334839
-1.361665 51.444004 59.647978
-1.548276 49.718666 61.177721
-0.787057 48.089432 60.924837
-1.015425 49.830612 60.334839
-0.787057 48.089432 60.924837
-0.930814 46.393255 62.460594
-1.144464 44.615383 63.909094
-1.313821 42.866035 65.367088
3 0 93 95
3 93 26 94
3 93 94 95
3 1 29 27
3 1 31 29
3 0 96 98
3 98 97 32
3 96 97 98
3 0 99 100
3 2 37 35
3 3 40 38
3 3 101 103
3 103 102 40
3 101 102 103
3 3 104 105
3 4 43 41
3 4 44 43
3 106 46 107
3 108 48 109
3 110 109 46
3 108 109 110
3 5 111 112
3 5 113 114
3 6 52 50
3 8 53 28
3 8 54 53
3 8 56 54
3 10 57 30
3 10 58 57
3 11 61 59
3 13 62 33
3 13 63 62
3 14 115 117
3 115 64 116
3 115 116 117
3 14 65 64
3 14 66 65
3 15 67 34
3 15 68 67
3 11 118 119
3 11 120 122
3 120 59 121
3 120 121 122
3 12 69 60
3 16 70 36
3 16 71 70
3 7 72 51
3 17 73 39
3 17 74 73
3 17 75 74
3 9 76 55
3 124 123 42
3 18 125 126
3 18 127 129
3 127 77 128
3 127 128 129
3 19 130 132
3 130 78 131
3 130 131 132
3 19 79 78
3 20 133 135
3 133 80 134
3 133 134 135
3 20 81 80
3 20 82 81
3 21 83 45
3 21 84 83
3 22 136 138
3 136 85 137
3 136 137 138
3 22 86 85
3 22 87 86
3 23 88 47
3 23 89 88
3 24 139 140
3 24 141 142
3 24 143 145
3 143 90 144
3 143 144 145
3 25 91 49
3 25 92 91
3 25 146 148
3 148 147 92
3 146 147 148
3 26 149 150
3 26 151 153
3 151 5 152
3 151 152 153
3 27 28 6
3 29 28 27
3 29 8 28
3 29 30 8
3 31 30 29
3 31 10 30
3 32 154 155
3 158 157 32
3 156 157 158
3 159 33 160
3 161 160 11
3 159 160 161
3 162 33 163
3 164 13 165
3 166 165 33
3 164 165 166
3 167 14 168
3 169 34 170
3 171 170 14
3 169 170 171
3 172 34 173
3 174 15 175
3 176 175 34
3 174 175 176
3 177 11 178
3 35 36 12
3 37 36 35
3 37 16 36
3 38 39 7
3 40 39 38
3 40 17 39
3 40 179 181
3 181 180 17
3 179 180 181
3 183 182 40
3 41 42 9
3 43 42 41
3 43 184 186
3 186 185 42
3 184 185 186
3 43 187 188
3 44 189 191
3 191 190 43
3 189 190 191
3 44 192 194
3 192 18 193
3 192 193 194
3 195 19 196
3 197 20 198
3 199 45 200
3 201 200 20
3 199 200 201
3 202 45 203
3 204 21 205
3 206 205 45
3 204 205 206
3 46 207 208
3 46 209 211
3 209 22 210
3 209 210 211
3 46 47 22
3 48 47 46
3 48 23 47
3 212 24 213
3 214 49 215
3 216 215 24
3 214 215 216
3 217 49 218
3 219 25 220
3 221 220 49
3 219 220 221
3 223 222 25
3 50 51 2
3 52 51 50
3 52 7 51
3 28 52 6
3 53 52 28
3 53 7 52
3 53 38 7
3 54 38 53
3 54 3 38
3 54 55 3
3 56 55 54
3 56 9 55
3 30 56 8
3 57 56 30
3 57 9 56
3 57 41 9
3 58 41 57
3 58 4 41
3 59 60 0
3 61 60 59
3 61 12 60
3 33 61 11
3 62 61 33
3 62 12 61
3 62 35 12
3 63 35 62
3 63 2 35
3 224 13 225
3 224 225 226
3 64 227 228
3 64 229 231
3 229 13 230
3 229 230 231
3 64 63 13
3 65 63 64
3 65 2 63
3 65 50 2
3 66 50 65
3 66 6 50
3 34 66 14
3 67 66 34
3 67 6 66
3 67 27 6
3 68 27 67
3 68 1 27
3 232 32 233
3 59 234 236
3 234 32 235
3 234 235 236
3 59 0 32
3 60 26 0
3 69 26 60
3 69 5 26
3 36 69 12
3 70 69 36
3 70 5 69
3 70 237 239
3 239 238 5
3 237 238 239
3 71 240 242
3 242 241 70
3 240 241 242
3 71 243 244
3 51 37 2
3 72 37 51
3 72 16 37
3 39 72 7
3 73 72 39
3 73 16 72
3 73 71 16
3 74 71 73
3 74 245 247
3 247 246 71
3 245 246 247
3 74 248 249
3 75 250 252
3 252 251 74
3 250 251 252
3 75 253 254
3 255 75 256
3 257 256 17
3 255 256 257
3 258 75 259
3 262 261 75
3 260 261 262
3 55 263 265
3 265 264 3
3 263 264 265
3 76 266 268
3 268 267 55
3 266 267 268
3 76 269 270
3 42 76 9
3 271 76 272
3 273 272 42
3 271 272 273
3 275 274 76
3 77 276 277
3 77 278 279
3 280 15 281
3 78 282 283
3 78 284 286
3 284 15 285
3 284 285 286
3 78 68 15
3 79 68 78
3 79 1 68
3 287 19 288
3 80 289 290
3 80 291 293
3 291 19 292
3 291 292 293
3 80 79 19
3 81 79 80
3 81 1 79
3 81 31 1
3 82 31 81
3 82 10 31
3 45 82 20
3 83 82 45
3 83 10 82
3 83 58 10
3 84 58 83
3 84 4 58
3 294 21 295
3 85 296 297
3 85 298 300
3 298 21 299
3 298 299 300
3 85 84 21
3 86 84 85
3 86 4 84
3 86 44 4
3 87 44 86
3 87 18 44
3 47 87 22
3 88 87 47
3 88 18 87
3 88 77 18
3 89 77 88
3 89 301 303
3 303 302 77
3 301 302 303
3 304 48 305
3 90 306 308
3 306 48 307
3 306 307 308
3 90 23 48
3 49 90 24
3 91 90 49
3 91 23 90
3 91 89 23
3 92 89 91
3 92 309 311
3 311 310 89
3 309 310 311
3 92 312 313
3 315 314 92
3 317 316 25
