ply
format ascii 1.0
element vertex 396
property float x
property float y
property float z
element face 436
property list uchar int vertex_index
end_header
-17.008429 -44.007549 84.202774
-35.556824 -38.759636 75.874634
-23.696899 -49.973637 77.784416
-10.060095 -39.567963 86.52063
-3.200132 -42.56974 89.053528
-9.794844 -48.088943 88.423378
-19.18128 -37.013397 81.627762
-25.960318 -41.163876 79.772926
-29.485664 -35.211819 77.387123
-16.666155 -48.612663 83.679291
-20.13847 -51.784325 80.233894
-20.386522 -46.759701 81.208702
-13.476032 -41.748566 85.947708
-9.565763 -43.603111 88.088951
-13.153889 -45.917648 86.569077
-13.296375 -50.746254 85.957016
-20.853027 -34.087814 78.934692
-24.248743 -36.083504 79.401054
-16.012535 -34.841484 81.577354
-30.803465 -40.017914 77.869064
-28.737326 -43.821678 76.800179
-3.862688 -47.330971 88.986221
-6.2472 -41.111748 88.424515
-6.296547 -45.573158 89.332222
-7.018343 -50.254704 89.059616
-17.887487 -40.193268 83.57872
-21.30471 -42.441631 81.860886
-22.697405 -38.955868 81.371025
-27.783424 -37.924164 79.404091
-32.942085 -36.86277 77.528885
-34.652061 -34.100609 75.431984
-37.870846 -35.469986 75.488663
-11.46899 -35.750221 84.336189
-14.418142 -38.166809 84.076515
-24.446648 -45.190315 78.892685
-27.385025 -48.340286 75.418732
-16.768513 -46.216278 84.049637
-18.48172 -47.648346 82.440033
-18.716473 -45.314854 82.822556
-15.255059 -42.831268 85.254173
-13.241629 -43.746407 86.428391
-15.022726 -44.920689 85.409821
-14.924827 -47.200771 85.262077
-21.875803 -32.611637 77.633804
-23.360378 -33.757156 77.703293
-19.448671 -32.881126 78.984619
-33.211636 -39.419941 76.903671
-32.017899 -41.213203 76.472031
-4.421097 -49.691353 88.591003
-21.896345 -50.853828 79.004341
-23.624929 -52.555191 77.400681
-8.570438 -38.282654 86.650352
-6.63154 -38.92865 87.67263
-8.073704 -40.333832 87.584671
-9.613234 -45.782875 88.427864
-7.839893 -44.59203 88.870277
-8.027065 -46.846603 89.072281
-6.618134 -47.884407 89.357605
-8.326004 -49.1954 88.936317
-8.64732 -51.624241 88.472641
-10.040382 -50.50922 88.087715
-15.020644 -52.224178 84.318939
-18.489975 -38.545979 82.750107
-20.249043 -39.538963 82.443207
-20.940065 -37.977104 81.621033
-26.858002 -35.656719 78.374619
-26.046955 -36.99276 79.548767
-28.662968 -36.525131 78.584305
-30.370632 -37.416042 78.470215
-31.28208 -36.025337 77.637573
-36.371452 -34.76561 75.677216
-40.144684 -34.579056 74.331955
-17.50877 -35.992867 81.554863
-15.130678 -36.494682 82.847183
-16.755527 -37.55764 82.831779
-16.128294 -39.18602 83.933273
-23.595716 -41.7742 80.783165
-22.908113 -43.752571 80.494003
-25.130329 -43.072536 79.429108
-27.941858 -45.998779 76.074875
-3.289675 -40.153923 88.804787
-16.676395 -51.157883 83.17469
-18.424477 -52.767097 81.447037
-18.395926 -50.149109 81.955475
-20.183512 -49.204559 80.714264
-22.040539 -48.323959 79.489525
-11.720726 -40.691067 86.33242
-9.704342 -41.540459 87.431755
-11.450874 -42.645668 87.083847
-11.356804 -44.737823 87.515038
-11.408323 -46.98307 87.603477
-11.55691 -49.373474 87.365906
-13.186861 -48.259846 86.394363
-14.938492 -49.649475 84.874268
-19.963324 -35.543095 80.312057
-21.683632 -36.527229 80.482918
-22.483364 -35.13649 79.13121
-25.054409 -34.754227 78.013214
-27.655573 -34.366726 76.949921
-18.400082 -34.445427 80.229073
-28.373631 -40.588058 78.812149
-27.410347 -42.438652 78.423424
-29.718353 -41.828194 77.450562
-3.417759 -44.959633 89.129997
-4.859587 -39.562012 88.422188
-4.611212 -41.869041 88.943008
-7.838711 -42.427643 88.354362
-6.149147 -43.320045 89.003769
-4.665119 -44.177944 89.287064
-4.961964 -46.501122 89.390442
-5.408781 -48.847679 89.211121
-5.891212 -51.217957 88.73362
-6.29484 -53.601185 87.966408
-7.392643 -52.670326 88.447815
-11.739376 -51.87904 86.847496
-17.386768 -42.002991 84.062042
-19.105017 -43.182564 83.006897
-19.626989 -41.262135 82.901207
-21.964493 -40.601387 81.799995
-24.384512 -40.00663 80.767036
-23.464863 -37.466545 80.555573
-25.216137 -38.426216 80.362656
-26.866844 -39.456833 79.793556
-29.384558 -38.923759 78.856369
-31.903763 -38.372871 77.922073
-34.384914 -37.766563 76.952637
-30.257355 -33.935181 75.925682
-32.097603 -34.707146 76.415451
-33.866066 -35.451607 76.678909
-35.456581 -36.224976 76.5457
-36.785763 -37.069656 75.911369
-39.065807 -36.255989 74.768494
-10.647165 -37.649525 85.451523
-13.699072 -35.27813 82.95858
-12.839386 -37.049103 84.161499
-12.181364 -38.83987 85.325287
-13.867431 -39.902122 85.143288
-15.625836 -40.928963 84.75956
-20.765507 -44.495964 81.628029
-22.377905 -45.94313 80.020409
-23.962509 -47.502373 78.305054
-26.575205 -44.488808 77.82518
-25.936813 -46.731308 77.169342
-25.531973 -49.138481 76.588577
-23.110092 -32.481571 76.989258
-22.465517 -31.851582 77.080749
-22.465517 -31.851582 77.080749
-21.274287 -31.94598 77.782402
-34.912833 -39.661102 75.659347
-33.740239 -39.991255 76.173866
-34.38423 -39.089788 76.389152
-4.046495 -50.036632 88.042496
-4.692417 -50.86729 88.261738
-24.52456 -50.820181 76.975765
-24.488576 -52.110958 76.783897
-23.660914 -51.264414 77.592548
-15.067515 -53.547663 83.990142
-15.885933 -53.01174 83.462547
-2.579962 -41.622873 88.898517
-2.624734 -40.414964 88.774147
-3.244903 -41.361832 88.929158
-25.480052 -34.092546 77.274048
-24.207394 -34.255691 77.858254
-24.633037 -33.594011 77.119088
-26.780634 -33.898796 76.742401
-26.354991 -34.560477 77.481568
-25.480052 -34.092546 77.274048
-31.458599 -42.19014 76.128525
-32.520439 -41.856094 75.604851
-3.149237 -46.479467 88.738231
-2.926773 -45.293798 88.810119
-3.640224 -46.145302 89.058109
-20.169054 -53.114178 80.026024
-19.312058 -53.605564 80.632595
-19.281474 -52.275711 80.840465
-8.774947 -52.86381 88.094776
-9.459397 -52.318415 87.966656
-30.629376 -33.292145 75.137326
-29.360802 -33.505253 75.673717
-33.736576 -33.758499 75.17524
-34.976521 -33.43562 74.666706
-33.374832 -34.403878 75.923718
-32.459347 -34.061768 75.666973
-33.736576 -33.758499 75.17524
-40.668125 -34.946754 73.91822
-41.195783 -34.065861 73.694962
-10.401912 -35.99857 84.995452
-10.914224 -34.979236 84.516212
-11.058077 -36.699873 84.893856
-9.990999 -36.948222 85.553119
-10.401912 -35.99857 84.995452
-14.855804 -35.059807 82.267967
-14.231859 -34.387888 82.395077
-15.388591 -34.169565 81.704464
-27.230074 -49.574936 75.174733
-26.303548 -49.974034 75.759655
-26.458499 -48.739384 76.003655
-6.41225 -54.78907 87.450791
-6.971707 -54.353243 87.759991
-23.852379 -33.054331 77.024002
-22.618091 -33.184397 77.668548
-23.110092 -32.481571 76.989258
-24.633037 -33.594011 77.119088
-23.852379 -33.054331 77.024002
-20.060721 -32.080725 78.457809
-18.889596 -32.179844 79.184269
-20.662237 -32.746381 78.309212
-20.060721 -32.080725 78.457809
-21.274287 -31.94598 77.782402
-33.14337 -40.887886 75.958046
-32.614767 -40.316572 76.687851
-33.740239 -39.991255 76.173866
-32.520439 -41.856094 75.604851
-33.14337 -40.887886 75.958046
-3.721118 -48.858483 88.344299
-3.441914 -47.678292 88.541908
-4.141892 -48.511162 88.788612
-3.721118 -48.858483 88.344299
-4.046495 -50.036632 88.042496
-21.900946 -52.166956 78.813744
-21.022009 -52.632204 79.42852
-21.017408 -51.319077 79.619118
-22.765239 -53.017637 78.011914
-21.900946 -52.166956 78.813744
-22.760637 -51.70451 78.202511
-23.65249 -53.874199 77.283349
-22.765239 -53.017637 78.011914
-24.483357 -53.409776 76.663647
-23.65249 -53.874199 77.283349
-24.483357 -53.409776 76.663647
-24.488576 -52.110958 76.783897
-7.600989 -38.605652 87.161491
-6.973112 -37.840622 87.255932
-7.942561 -37.517624 86.744792
-10.155928 -51.760904 87.774192
-9.459397 -52.318415 87.966656
-9.343851 -51.06673 88.280178
-14.222711 -52.778078 84.820392
-13.360577 -52.039116 85.639431
-14.15851 -51.485216 85.137978
-14.222711 -52.778078 84.820392
-15.067515 -53.547663 83.990142
-35.877525 -33.729305 74.919624
-34.976521 -33.43562 74.666706
-36.73722 -34.061806 75.04224
-35.511757 -34.43311 75.5546
-35.877525 -33.729305 74.919624
-37.562704 -34.353068 75.140297
-36.73722 -34.061806 75.04224
-38.312401 -34.705255 75.04602
-37.121149 -35.117798 75.58294
-37.562704 -34.353068 75.140297
-39.44932 -34.259791 74.467667
-39.007765 -35.024521 74.910309
-38.312401 -34.705255 75.04602
-40.559689 -33.77354 73.882454
-39.44932 -34.259791 74.467667
-41.195783 -34.065861 73.694962
-40.559689 -33.77354 73.882454
-11.99599 -34.797722 83.809132
-10.914224 -34.979236 84.516212
-28.944918 -45.643765 75.536712
-28.339592 -44.910229 76.437527
-29.342652 -44.555214 75.899364
-28.586662 -46.783329 75.168942
-28.944918 -45.643765 75.536712
-28.308245 -47.954082 74.84087
-27.663441 -47.169533 75.746803
-28.586662 -46.783329 75.168942
-28.079674 -49.15829 74.554375
-28.308245 -47.954082 74.84087
-2.758704 -39.137138 88.738766
-3.507479 -38.932398 88.622307
-2.758704 -39.137138 88.738766
-2.624734 -40.414964 88.774147
-17.550436 -51.96249 82.310863
-17.587849 -53.283199 82.026596
-16.713808 -52.478592 82.890422
-16.713808 -52.478592 82.890422
-15.885933 -53.01174 83.462547
-15.84852 -51.69103 83.746814
-16.544045 -34.008243 80.983406
-15.388591 -34.169565 81.704464
-18.262113 -33.028064 79.687038
-18.889596 -32.179844 79.184269
-17.737819 -33.810215 80.309266
-18.262113 -33.028064 79.687038
-18.924377 -33.663277 79.606846
-17.206308 -34.643456 80.903213
-16.544045 -34.008243 80.983406
-17.737819 -33.810215 80.309266
-30.308826 -42.497635 76.617791
-30.868126 -41.520699 76.961297
-31.458599 -42.19014 76.128525
-29.818312 -43.494377 76.292599
-29.22784 -42.824936 77.125371
-30.308826 -42.497635 76.617791
-29.342652 -44.555214 75.899364
-29.818312 -43.494377 76.292599
-2.733002 -44.069755 88.912391
-2.624188 -42.874809 88.874157
-3.308946 -43.764686 89.091763
-2.733002 -44.069755 88.912391
-2.926773 -45.293798 88.810119
-3.149237 -46.479467 88.738231
-3.441914 -47.678292 88.541908
-18.466145 -54.106685 81.204273
-17.587849 -53.283199 82.026596
-18.466145 -54.106685 81.204273
-19.312058 -53.605564 80.632595
-20.169054 -53.114178 80.026024
-21.022009 -52.632204 79.42852
-35.994191 -39.30278 75.100258
-36.677784 -38.383316 75.310562
-6.032697 -38.08823 87.73608
-6.973112 -37.840622 87.255932
-5.14672 -38.404911 88.110859
-6.032697 -38.08823 87.73608
-5.745564 -39.245331 88.047409
-4.292435 -38.636443 88.431007
-5.14672 -38.404911 88.110859
-4.074631 -39.857968 88.613488
-3.507479 -38.932398 88.622307
-4.292435 -38.636443 88.431007
-5.427475 -51.630592 88.333046
-4.692417 -50.86729 88.261738
-5.156154 -50.454655 88.662312
-6.093026 -52.409571 88.350014
-5.629288 -52.822207 87.94944
-5.427475 -51.630592 88.333046
-7.520609 -53.887814 88.000695
-6.971707 -54.353243 87.759991
-6.843742 -53.135756 88.207111
-8.147609 -53.386852 88.082363
-8.019982 -52.147284 88.460228
-8.774947 -52.86381 88.094776
-7.520609 -53.887814 88.000695
-8.147609 -53.386852 88.082363
-11.005425 -52.445814 87.154083
-10.155928 -51.760904 87.774192
-10.889879 -51.19413 87.467606
-12.582077 -52.605509 86.084671
-12.517875 -51.312647 86.402256
-13.360577 -52.039116 85.639431
-11.813859 -53.166855 86.477394
-12.582077 -52.605509 86.084671
-11.005425 -52.445814 87.154083
-11.813859 -53.166855 86.477394
-28.059911 -33.721025 76.185837
-26.780634 -33.898796 76.742401
-28.956464 -34.150953 76.437802
-28.059911 -33.721025 76.185837
-29.360802 -33.505253 75.673717
-31.539223 -33.675785 75.422089
-30.629376 -33.292145 75.137326
-31.177479 -34.321163 76.170567
-31.539223 -33.675785 75.422089
-32.459347 -34.061768 75.666973
-37.292254 -37.538326 75.328929
-36.677784 -38.383316 75.310562
-36.171294 -37.914646 75.893001
-38.432276 -37.131493 74.757492
-37.292254 -37.538326 75.328929
-37.925785 -36.662823 75.339932
-39.484426 -36.699206 74.131821
-38.432276 -37.131493 74.757492
-40.128687 -35.785221 74.13649
-39.605245 -35.417523 74.550224
-40.668125 -34.946754 73.91822
-39.484426 -36.699206 74.131821
-40.128687 -35.785221 74.13649
-8.952635 -37.264786 86.152534
-7.942561 -37.517624 86.744792
-9.608801 -37.966089 86.050938
-8.952635 -37.264786 86.152534
-9.990999 -36.948222 85.553119
-13.111031 -34.561676 83.120327
-14.231859 -34.387888 82.395077
-12.584031 -35.514176 83.647385
-11.99599 -34.797722 83.809132
-13.111031 -34.561676 83.120327
-25.442098 -50.402603 76.377846
-24.52456 -50.820181 76.975765
-24.614436 -49.556059 77.186497
-25.442098 -50.402603 76.377846
-26.303548 -49.974034 75.759655
-27.230074 -49.574936 75.174733
-28.079674 -49.15829 74.554375
-34.912833 -39.661102 75.659347
-35.994191 -39.30278 75.100258
-2.579962 -41.622873 88.898517
-2.624188 -42.874809 88.874157
-5.83368 -53.990818 87.491096
-5.629288 -52.822207 87.94944
-5.83368 -53.990818 87.491096
-6.41225 -54.78907 87.450791
3 0 38 36
3 0 41 39
3 0 36 41
3 145 144 43
3 146 43 147
3 1 148 150
3 150 149 46
3 148 149 150
3 152 151 48
3 2 50 49
3 2 153 155
3 155 154 50
3 153 154 155
3 3 53 51
3 5 56 54
3 5 58 56
3 5 60 58
3 157 156 61
3 6 64 62
3 8 67 65
3 8 69 67
3 6 74 72
3 6 62 74
3 7 78 76
3 4 158 160
3 160 159 80
3 158 159 160
3 9 83 81
3 11 84 37
3 11 85 84
3 12 88 86
3 14 89 40
3 14 90 89
3 14 92 90
3 9 93 42
3 9 81 93
3 16 96 94
3 161 97 162
3 163 162 44
3 161 162 163
3 164 98 165
3 166 165 97
3 164 165 166
3 16 99 45
3 16 94 99
3 19 102 100
3 168 167 47
3 21 169 171
3 171 170 103
3 169 170 171
3 10 172 174
3 174 173 82
3 172 173 174
3 22 104 52
3 22 105 104
3 13 106 87
3 23 107 55
3 23 108 107
3 23 109 108
3 24 110 57
3 24 111 110
3 24 113 111
3 176 175 59
3 15 114 91
3 25 117 115
3 27 118 63
3 27 119 118
3 17 120 95
3 28 121 66
3 28 122 121
3 28 123 122
3 29 124 68
3 29 125 124
3 177 126 178
3 30 179 180
3 30 181 183
3 181 127 182
3 181 182 183
3 30 128 127
3 31 129 70
3 31 130 129
3 31 131 130
3 185 184 71
3 32 186 187
3 32 188 190
3 188 132 189
3 188 189 190
3 18 191 193
3 191 133 192
3 191 192 193
3 33 134 73
3 33 135 134
3 33 136 135
3 25 137 75
3 25 115 137
3 26 138 116
3 34 139 77
3 34 140 139
3 20 141 101
3 35 142 79
3 35 143 142
3 35 194 196
3 196 195 143
3 194 195 196
3 198 197 112
3 36 37 9
3 38 37 36
3 38 11 37
3 39 40 12
3 41 40 39
3 41 14 40
3 41 42 14
3 36 42 41
3 36 9 42
3 43 44 16
3 199 44 200
3 201 200 43
3 199 200 201
3 203 202 44
3 204 45 205
3 43 206 208
3 206 45 207
3 206 207 208
3 43 16 45
3 46 47 19
3 209 47 210
3 211 210 46
3 209 210 211
3 213 212 47
3 48 214 216
3 216 215 21
3 214 215 216
3 218 217 48
3 49 219 221
3 221 220 10
3 219 220 221
3 50 222 224
3 224 223 49
3 222 223 224
3 50 225 226
3 50 227 228
3 230 229 50
3 51 231 233
3 231 52 232
3 231 232 233
3 53 52 51
3 53 22 52
3 54 55 13
3 56 55 54
3 56 23 55
3 56 57 23
3 58 57 56
3 58 24 57
3 58 59 24
3 60 59 58
3 60 234 236
3 236 235 59
3 234 235 236
3 61 237 239
3 239 238 15
3 237 238 239
3 241 240 61
3 62 63 25
3 64 63 62
3 64 27 63
3 65 66 17
3 67 66 65
3 67 28 66
3 67 68 28
3 69 68 67
3 69 29 68
3 242 30 243
3 244 70 245
3 246 245 30
3 244 245 246
3 247 70 248
3 249 31 250
3 251 250 70
3 249 250 251
3 252 71 253
3 254 253 31
3 252 253 254
3 255 71 256
3 258 257 71
3 259 32 260
3 72 73 18
3 74 73 72
3 74 33 73
3 74 75 33
3 62 75 74
3 62 25 75
3 76 77 26
3 78 77 76
3 78 34 77
3 261 79 262
3 263 262 20
3 261 262 263
3 264 79 265
3 266 35 267
3 268 267 79
3 266 267 268
3 270 269 35
3 80 271 272
3 274 273 80
3 81 275 277
3 275 82 276
3 275 276 277
3 83 82 81
3 83 10 82
3 37 83 9
3 84 83 37
3 84 10 83
3 84 49 10
3 85 49 84
3 85 2 49
3 86 87 3
3 88 87 86
3 88 13 87
3 40 88 12
3 89 88 40
3 89 13 88
3 89 54 13
3 90 54 89
3 90 5 54
3 90 91 5
3 92 91 90
3 92 15 91
3 42 92 14
3 93 92 42
3 93 15 92
3 93 61 15
3 81 61 93
3 81 278 280
3 280 279 61
3 278 279 280
3 94 95 6
3 96 95 94
3 96 17 95
3 44 96 16
3 97 96 44
3 97 17 96
3 97 65 17
3 98 65 97
3 98 8 65
3 281 18 282
3 45 283 284
3 99 285 287
3 287 286 45
3 285 286 287
3 99 288 290
3 288 18 289
3 288 289 290
3 99 72 18
3 94 72 99
3 94 6 72
3 100 101 7
3 102 101 100
3 102 20 101
3 47 102 19
3 291 102 292
3 293 292 47
3 291 292 293
3 294 20 295
3 296 295 102
3 294 295 296
3 298 297 20
3 103 299 301
3 301 300 4
3 299 300 301
3 303 302 103
3 305 304 21
3 82 306 307
3 309 308 82
3 311 310 10
3 313 312 1
3 52 314 315
3 104 316 318
3 318 317 52
3 316 317 318
3 104 319 320
3 104 321 323
3 321 80 322
3 321 322 323
3 105 80 104
3 105 4 80
3 87 53 3
3 106 53 87
3 106 22 53
3 55 106 13
3 107 106 55
3 107 22 106
3 107 105 22
3 108 105 107
3 108 4 105
3 108 103 4
3 109 103 108
3 109 21 103
3 57 109 23
3 110 109 57
3 110 21 109
3 110 48 21
3 111 48 110
3 111 324 326
3 326 325 48
3 324 325 326
3 111 327 329
3 327 112 328
3 327 328 329
3 113 112 111
3 113 330 332
3 332 331 112
3 330 331 332
3 59 113 24
3 333 113 334
3 335 334 59
3 333 334 335
3 337 336 113
3 91 60 5
3 114 60 91
3 114 338 340
3 340 339 60
3 338 339 340
3 341 114 342
3 343 342 15
3 341 342 343
3 344 114 345
3 347 346 114
3 115 116 0
3 117 116 115
3 117 26 116
3 63 117 25
3 118 117 63
3 118 26 117
3 118 76 26
3 119 76 118
3 119 7 76
3 95 64 6
3 120 64 95
3 120 27 64
3 66 120 17
3 121 120 66
3 121 27 120
3 121 119 27
3 122 119 121
3 122 7 119
3 122 100 7
3 123 100 122
3 123 19 100
3 68 123 28
3 124 123 68
3 124 19 123
3 124 46 19
3 125 46 124
3 125 1 46
3 348 98 349
3 126 350 352
3 350 98 351
3 350 351 352
3 126 8 98
3 353 126 354
3 127 355 357
3 355 126 356
3 355 356 357
3 127 8 126
3 127 69 8
3 128 69 127
3 128 29 69
3 70 128 30
3 129 128 70
3 129 29 128
3 129 125 29
3 130 125 129
3 130 1 125
3 130 358 360
3 360 359 1
3 358 359 360
3 131 361 363
3 363 362 130
3 361 362 363
3 131 364 365
3 71 131 31
3 366 131 367
3 368 367 71
3 366 367 368
3 370 369 131
3 371 51 372
3 132 373 375
3 373 51 374
3 373 374 375
3 132 3 51
3 133 376 377
3 133 378 380
3 378 32 379
3 378 379 380
3 73 133 18
3 134 133 73
3 134 32 133
3 134 132 32
3 135 132 134
3 135 3 132
3 135 86 3
3 136 86 135
3 136 12 86
3 75 136 33
3 137 136 75
3 137 12 136
3 137 39 12
3 115 39 137
3 115 0 39
3 116 38 0
3 138 38 116
3 138 11 38
3 77 138 26
3 139 138 77
3 139 11 138
3 139 85 11
3 140 85 139
3 140 2 85
3 101 78 7
3 141 78 101
3 141 34 78
3 79 141 20
3 142 141 79
3 142 34 141
3 142 140 34
3 143 140 142
3 143 2 140
3 143 381 383
3 383 382 2
3 381 382 383
3 385 384 143
3 387 386 35
3 389 388 1
3 391 390 4
3 112 392 393
3 395 394 112
