ply
format ascii 1.0
element vertex 353
property float x
property float y
property float z
element face 374
property list uchar int vertex_index
end_header
51.511284 17.427155 7.569449
40.666019 45.65435 -10.237114
44.387497 35.317173 4.070744
43.972466 20.809525 8.364885
51.978668 31.279736 6.164499
46.326263 46.416252 -4.081184
38.21384 36.627705 -0.42765
48.848511 39.67392 2.597615
48.258934 33.439392 5.249997
52.334118 37.569599 4.579227
49.964645 50.027313 -5.5121
49.53849 45.153931 -1.149675
45.197739 41.351707 0.482942
47.73888 19.175411 8.167545
44.469658 50.284889 -12.244444
37.409538 40.105328 -8.43996
37.87495 30.183357 3.217834
40.529278 29.737328 5.437211
40.636677 22.113564 7.698039
44.021858 28.385693 6.568343
47.904968 26.536652 6.902242
51.693432 24.513195 6.878565
47.265182 50.726288 -9.000563
43.308098 46.664734 -7.123913
39.2514 41.787048 -5.059521
41.88026 42.174446 -2.042601
40.888275 36.515949 2.247145
54.897209 22.433052 6.948667
50.893784 41.542385 2.075253
50.645348 38.652325 3.584949
52.556923 45.955856 0.040083
51.235985 46.863358 -1.648607
51.105911 44.271839 0.306839
49.198128 42.50515 0.841825
49.651768 18.308979 7.885608
47.673733 15.393154 8.875329
49.565636 14.609943 8.53363
42.603634 48.036148 -11.284437
43.049595 49.595665 -13.746052
41.26543 47.211983 -12.789064
39.487564 44.687225 -11.789904
37.922569 41.921745 -10.886477
38.87109 43.039871 -9.24328
37.94025 26.563145 4.650766
42.315304 32.70253 4.823069
42.197281 29.149708 6.126059
44.153069 31.950272 5.440697
50.171326 32.376564 5.715784
48.051796 30.059696 6.170893
49.985218 29.015495 6.39004
49.842209 25.53447 6.906108
51.821152 27.946323 6.583191
48.345703 48.2575 -4.929871
48.633774 50.501419 -7.280508
46.865776 48.640694 -6.548836
45.405853 48.749802 -8.154474
44.776409 46.689201 -5.588024
42.571983 44.555401 -4.52323
44.100632 44.4193 -3.07531
44.736992 38.457039 2.419588
42.946419 39.100285 1.408722
42.56004 36.029572 3.258709
40.634415 33.252743 3.978616
42.225594 21.522961 8.163486
42.300621 17.533833 9.02692
54.94352 25.76659 7.075564
56.222366 18.055904 6.997033
38.652527 39.377411 -2.637449
37.683041 38.826424 -4.301439
37.272606 36.202106 -2.069788
46.618999 37.621227 3.293017
46.308849 34.435253 4.718769
48.527782 36.650112 4.069952
50.396217 35.594662 4.797118
52.156197 34.493114 5.518784
51.230717 49.353737 -3.700119
49.816032 47.647354 -3.299397
47.927841 45.887032 -2.605169
45.744511 43.999031 -1.706253
47.461498 43.342373 -0.407927
47.010834 40.59161 1.577129
45.827618 20.015995 8.347946
43.991768 16.874969 9.179853
45.798904 16.153137 9.111584
37.957024 33.552315 1.528563
39.114792 26.409325 5.809049
39.252293 22.53389 6.934885
40.542702 26.009583 6.659462
42.178757 25.409229 7.21805
43.97142 24.659275 7.517926
46.086327 31.051891 5.872793
45.944412 27.498875 6.809005
45.866295 23.808922 7.605517
47.807259 22.898998 7.536097
49.73629 21.957848 7.370046
51.5942 21.000549 7.170314
45.874989 50.661659 -10.659872
43.983135 48.552231 -9.736996
41.937088 46.320045 -8.678194
39.953663 43.866688 -7.624088
41.185925 44.375103 -6.044538
40.466827 42.144897 -3.49416
39.864265 39.597546 -1.118652
43.470146 41.896835 -0.717514
41.306171 39.495571 0.232679
39.426121 36.72702 1.017891
39.1665 33.549305 2.882276
39.072872 30.096317 4.471662
53.613377 30.165581 6.636653
53.494179 26.863705 6.797951
53.39682 23.480061 6.875297
53.323997 20.031551 7.000626
56.154526 21.367271 7.146785
54.877365 19.049984 6.923466
53.266235 16.533577 7.289663
38.237041 41.100727 -6.716383
36.946754 37.956253 -6.080111
51.689112 41.021457 2.701248
51.732979 42.416077 1.933612
51.839042 43.780804 1.049405
51.831417 45.113847 0.173461
52.564549 44.622812 0.916027
51.732979 42.416077 1.933612
50.999848 42.907112 1.191046
51.839042 43.780804 1.049405
51.467854 15.619148 7.863198
50.49503 14.210542 8.345289
50.53846 16.018549 8.05154
37.683295 22.714918 5.157029
37.596567 24.627226 4.55469
38.026978 24.650837 5.253105
51.813118 48.942402 -2.769843
51.638489 50.20546 -3.725847
46.711384 13.822473 9.411416
47.628614 13.485758 9.291635
44.552592 51.109867 -13.388856
45.265711 51.388722 -12.617247
43.094389 50.334542 -14.850825
42.331684 49.105476 -14.456851
37.076187 39.469784 -9.325024
37.332702 40.377993 -10.548283
37.666054 41.013537 -9.663218
36.91316 38.450114 -8.191821
36.579809 37.81457 -9.076885
37.076187 39.469784 -9.325024
37.421787 30.077005 2.451409
37.462824 31.761485 1.606774
37.915987 31.867836 2.373198
49.938468 51.186107 -6.599634
50.499511 50.908196 -5.631566
47.983738 51.700856 -9.27574
48.668033 51.588421 -8.415712
47.949478 50.613853 -8.140536
47.341244 51.730851 -10.162771
47.983738 51.700856 -9.27574
46.570086 50.693973 -9.830217
46.646147 51.698536 -10.992426
47.341244 51.730851 -10.162771
40.039423 20.315472 7.797342
39.347231 20.525635 7.415765
39.944485 22.323727 7.316462
43.181236 13.188551 9.937741
43.179406 15.179626 9.520091
43.993599 14.883895 9.597504
54.312144 29.600725 6.8999
54.34664 31.194748 6.855211
54.252544 27.949787 6.980549
53.553778 28.514643 6.717302
54.312144 29.600725 6.8999
56.652974 20.824335 7.329477
56.577919 22.432598 7.551766
54.876457 17.340262 7.019979
55.549865 18.552944 6.960249
55.548958 16.843222 7.056763
54.070892 16.082058 7.203078
54.0718 17.791781 7.106565
54.876457 17.340262 7.019979
53.235674 14.767575 7.555122
54.070892 16.082058 7.203078
36.773502 36.705585 -4.977912
37.314898 38.391339 -5.190775
37.141646 37.140671 -4.088576
36.55981 36.182268 -5.944573
36.773502 36.705585 -4.977912
51.564894 39.576427 3.456095
50.769566 40.097355 2.830101
51.689112 41.021457 2.701248
52.409279 39.035064 3.953235
51.489733 38.110962 4.082088
51.564894 39.576427 3.456095
51.896454 46.409607 -0.804262
51.815752 47.697212 -1.744087
52.476221 47.243461 -0.899742
48.574566 13.094152 9.120786
47.628614 13.485758 9.291635
48.619684 15.001548 8.70448
49.509018 12.746356 8.946101
48.574566 13.094152 9.120786
49.509018 12.746356 8.946101
50.49503 14.210542 8.345289
41.439602 47.913635 -13.978357
42.331684 49.105476 -14.456851
42.157512 48.403824 -13.267558
40.61426 46.660274 -13.520353
41.439602 47.913635 -13.978357
39.725326 45.397896 -13.020773
40.61426 46.660274 -13.520353
40.376497 45.949604 -12.289484
38.938482 44.069973 -12.561322
39.725326 45.397896 -13.020773
38.705067 43.304485 -11.33819
38.155985 42.687233 -12.109608
38.938482 44.069973 -12.561322
37.496652 26.500822 3.919385
37.464002 28.310928 3.202919
37.9076 28.373251 3.9343
37.496652 26.500822 3.919385
37.596567 24.627226 4.55469
41.498007 19.80904 8.386616
40.703548 20.104342 8.153892
41.431135 21.818262 7.930763
41.535521 17.814476 8.818333
41.498007 19.80904 8.386616
42.263108 19.528397 8.595203
41.602443 15.767161 9.235522
41.535521 17.814476 8.818333
55.530236 26.824402 7.420951
54.977215 27.40123 7.119356
55.532377 25.206915 7.263557
55.530236 26.824402 7.420951
55.509222 23.540146 7.200109
54.920364 24.099821 7.012116
55.532377 25.206915 7.263557
56.785905 17.555757 7.134104
56.686893 19.168652 7.254601
56.268517 16.390076 7.055708
56.785905 17.555757 7.134104
56.832056 15.889929 7.192779
55.548958 16.843222 7.056763
56.268517 16.390076 7.055708
36.936428 35.828512 -2.972751
37.141646 37.140671 -4.088576
37.477823 37.514265 -3.185614
51.132548 50.571408 -4.725575
51.638489 50.20546 -3.725847
50.597681 49.690525 -4.60611
50.499511 50.908196 -5.631566
51.132548 50.571408 -4.725575
51.233351 48.108548 -2.674363
51.813118 48.942402 -2.769843
51.815752 47.697212 -1.744087
44.897167 14.522979 9.563369
43.993599 14.883895 9.597504
44.895336 16.514053 9.145719
45.773969 14.202465 9.529543
46.736318 15.773146 8.993457
46.711384 13.822473 9.411416
44.897167 14.522979 9.563369
45.773969 14.202465 9.529543
43.84256 50.765255 -14.13966
44.552592 51.109867 -13.388856
43.759626 49.940277 -12.995248
43.84256 50.765255 -14.13966
43.094389 50.334542 -14.850825
37.504809 41.235943 -11.715782
38.155985 42.687233 -12.109608
37.504809 41.235943 -11.715782
37.332702 40.377993 -10.548283
37.49581 33.395967 0.730606
37.624218 34.933662 -0.2475
38.085432 35.09001 0.550456
37.49581 33.395967 0.730606
37.462824 31.761485 1.606774
37.421787 30.077005 2.451409
37.464002 28.310928 3.202919
39.183543 24.471607 6.371967
38.682999 22.636209 6.395164
38.614249 24.573927 5.832247
49.273033 51.42316 -7.483838
49.938468 51.186107 -6.599634
49.29921 50.264366 -6.396304
49.273033 51.42316 -7.483838
48.668033 51.588421 -8.415712
45.968376 51.577106 -11.824962
46.646147 51.698536 -10.992426
45.172324 50.473274 -11.452158
45.265711 51.388722 -12.617247
45.968376 51.577106 -11.824962
38.614249 24.573927 5.832247
38.026978 24.650837 5.253105
38.527521 26.486235 5.229907
52.987049 46.779297 0.060828
52.476221 47.243461 -0.899742
53.141859 45.460695 0.91354
52.987049 46.779297 0.060828
52.564549 44.622812 0.916027
53.141859 45.460695 0.91354
38.801989 20.645767 6.901943
38.682999 22.636209 6.395164
38.801989 20.645767 6.901943
39.347231 20.525635 7.415765
40.039423 20.315472 7.797342
40.703548 20.104342 8.153892
42.333832 15.509058 9.443624
43.146195 17.204401 9.103386
43.179406 15.179626 9.520091
41.602443 15.767161 9.235522
42.333832 15.509058 9.443624
53.119835 38.490799 4.60293
52.409279 39.035064 3.953235
53.090795 37.011379 5.095612
53.119835 38.490799 4.60293
53.001835 35.473136 5.565391
52.245157 36.031357 5.049005
53.090795 37.011379 5.095612
52.947824 33.930338 5.894439
53.001835 35.473136 5.565391
52.85906 32.323649 6.217296
52.067432 32.886425 5.841641
52.947824 33.930338 5.894439
53.676414 31.766571 6.453373
54.34664 31.194748 6.855211
52.796022 30.722659 6.400576
52.85906 32.323649 6.217296
53.676414 31.766571 6.453373
54.21885 26.315148 6.936758
54.252544 27.949787 6.980549
54.977215 27.40123 7.119356
56.13788 23.007255 7.299168
56.577919 22.432598 7.551766
55.525867 21.900161 7.047726
55.509222 23.540146 7.200109
56.13788 23.007255 7.299168
56.188446 19.711588 7.071909
56.652974 20.824335 7.329477
56.686893 19.168652 7.254601
52.345329 15.17236 7.723306
51.467854 15.619148 7.863198
52.38876 16.980366 7.429556
52.345329 15.17236 7.723306
53.235674 14.767575 7.555122
36.681768 37.375576 -7.011896
36.91316 38.450114 -8.191821
37.178146 39.03079 -7.260035
36.681768 37.375576 -7.011896
36.55981 36.182268 -5.944573
37.153601 34.720863 -1.068569
37.743223 36.414906 -1.248719
37.624218 34.933662 -0.2475
36.838421 34.405752 -1.971626
37.153601 34.720863 -1.068569
36.936428 35.828512 -2.972751
36.838421 34.405752 -1.971626
3 118 117 28
3 119 32 120
3 121 120 30
3 119 120 121
3 122 28 123
3 124 123 32
3 122 123 124
3 0 36 34
3 0 125 127
3 127 126 36
3 125 126 127
3 1 39 37
3 1 40 39
3 1 42 40
3 130 129 43
3 128 129 130
3 2 46 44
3 4 49 47
3 4 51 49
3 5 54 52
3 5 56 54
3 5 58 56
3 2 61 59
3 2 44 61
3 3 64 63
3 6 69 67
3 7 72 70
3 9 73 29
3 9 74 73
3 131 75 132
3 11 76 31
3 11 77 76
3 11 79 77
3 7 80 33
3 7 70 80
3 13 83 81
3 134 133 35
3 14 135 136
3 138 137 38
3 15 139 141
3 141 140 41
3 139 140 141
3 15 142 144
3 142 143 144
3 16 145 147
3 147 146 84
3 145 146 147
3 17 87 85
3 19 88 45
3 19 89 88
3 8 90 71
3 20 91 48
3 20 92 91
3 20 93 92
3 21 94 50
3 21 95 94
3 10 148 149
3 22 150 152
3 152 151 53
3 150 151 152
3 22 153 154
3 22 155 157
3 155 96 156
3 155 156 157
3 23 97 55
3 23 98 97
3 23 100 98
3 25 101 57
3 25 102 101
3 12 103 78
3 26 104 60
3 26 105 104
3 26 106 105
3 17 107 62
3 17 85 107
3 18 158 160
3 160 159 86
3 158 159 160
3 163 162 82
3 161 162 163
3 164 108 165
3 166 109 167
3 168 167 108
3 166 167 168
3 27 110 65
3 27 111 110
3 169 112 170
3 171 113 172
3 173 172 66
3 171 172 173
3 174 114 175
3 176 175 113
3 174 175 176
3 178 177 114
3 24 115 99
3 179 116 180
3 181 180 68
3 179 180 181
3 183 182 116
3 28 29 7
3 184 29 185
3 186 185 28
3 184 185 186
3 187 9 188
3 189 188 29
3 187 188 189
3 30 190 192
3 190 31 191
3 190 191 192
3 32 31 30
3 32 11 31
3 32 33 11
3 28 33 32
3 28 7 33
3 34 35 13
3 36 35 34
3 36 193 195
3 195 194 35
3 193 194 195
3 36 196 197
3 199 198 36
3 37 38 14
3 39 38 37
3 39 200 202
3 202 201 38
3 200 201 202
3 39 203 204
3 40 205 207
3 207 206 39
3 205 206 207
3 40 208 209
3 40 210 212
3 210 41 211
3 210 211 212
3 42 41 40
3 42 15 41
3 43 213 215
3 215 214 16
3 213 214 215
3 217 216 43
3 44 45 17
3 46 45 44
3 46 19 45
3 47 48 8
3 49 48 47
3 49 20 48
3 49 50 20
3 51 50 49
3 51 21 50
3 52 53 10
3 54 53 52
3 54 22 53
3 54 55 22
3 56 55 54
3 56 23 55
3 56 57 23
3 58 57 56
3 58 25 57
3 59 60 12
3 61 60 59
3 61 26 60
3 61 62 26
3 44 62 61
3 44 17 62
3 63 218 220
3 220 219 18
3 218 219 220
3 64 221 223
3 223 222 63
3 221 222 223
3 64 224 225
3 226 65 227
3 228 65 229
3 230 27 231
3 232 231 65
3 230 231 232
3 233 66 234
3 235 66 236
3 235 236 237
3 239 238 66
3 67 68 24
3 69 68 67
3 69 240 242
3 242 241 68
3 240 241 242
3 70 71 2
3 72 71 70
3 72 8 71
3 29 72 7
3 73 72 29
3 73 8 72
3 73 47 8
3 74 47 73
3 74 4 47
3 75 243 244
3 75 245 247
3 245 10 246
3 245 246 247
3 31 248 250
3 248 75 249
3 248 249 250
3 76 75 31
3 76 10 75
3 76 52 10
3 77 52 76
3 77 5 52
3 77 78 5
3 79 78 77
3 79 12 78
3 33 79 11
3 80 79 33
3 80 12 79
3 80 59 12
3 70 59 80
3 70 2 59
3 81 82 3
3 83 82 81
3 83 251 253
3 253 252 82
3 251 252 253
3 35 83 13
3 254 83 255
3 256 255 35
3 254 255 256
3 258 257 83
3 38 259 261
3 261 260 14
3 259 260 261
3 263 262 38
3 41 264 265
3 267 266 41
3 84 268 270
3 270 269 6
3 268 269 270
3 272 271 84
3 274 273 16
3 85 275 277
3 275 86 276
3 275 276 277
3 87 86 85
3 87 18 86
3 45 87 17
3 88 87 45
3 88 18 87
3 88 63 18
3 89 63 88
3 89 3 63
3 71 46 2
3 90 46 71
3 90 19 46
3 48 90 8
3 91 90 48
3 91 19 90
3 91 89 19
3 92 89 91
3 92 3 89
3 92 81 3
3 93 81 92
3 93 13 81
3 50 93 20
3 94 93 50
3 94 13 93
3 94 34 13
3 95 34 94
3 95 0 34
3 53 278 280
3 280 279 10
3 278 279 280
3 282 281 53
3 96 283 284
3 96 285 287
3 285 14 286
3 285 286 287
3 55 96 22
3 97 96 55
3 97 14 96
3 97 37 14
3 98 37 97
3 98 1 37
3 98 99 1
3 100 99 98
3 100 24 99
3 57 100 23
3 101 100 57
3 101 24 100
3 101 67 24
3 102 67 101
3 102 6 67
3 78 58 5
3 103 58 78
3 103 25 58
3 60 103 12
3 104 103 60
3 104 25 103
3 104 102 25
3 105 102 104
3 105 6 102
3 105 84 6
3 106 84 105
3 106 16 84
3 62 106 26
3 107 106 62
3 107 16 106
3 107 43 16
3 85 43 107
3 85 288 290
3 290 289 43
3 288 289 290
3 291 30 292
3 293 30 294
3 296 295 30
3 86 297 298
3 300 299 86
3 302 301 18
3 82 64 3
3 303 64 304
3 305 304 82
3 303 304 305
3 307 306 64
3 308 9 309
3 310 9 311
3 312 74 313
3 314 313 9
3 312 313 314
3 315 74 316
3 317 4 318
3 319 318 74
3 317 318 319
3 108 320 321
3 108 322 324
3 322 4 323
3 322 323 324
3 108 51 4
3 109 51 108
3 109 21 51
3 65 325 327
3 325 109 326
3 325 326 327
3 110 109 65
3 110 21 109
3 110 95 21
3 111 95 110
3 111 0 95
3 112 328 329
3 112 330 332
3 330 27 331
3 330 331 332
3 66 333 335
3 333 112 334
3 333 334 335
3 113 112 66
3 113 27 112
3 113 111 27
3 114 111 113
3 114 0 111
3 114 336 338
3 338 337 0
3 336 337 338
3 340 339 114
3 99 42 1
3 115 42 99
3 115 15 42
3 68 115 24
3 116 115 68
3 116 15 115
3 116 341 343
3 343 342 15
3 341 342 343
3 345 344 116
3 346 69 347
3 348 347 6
3 346 347 348
3 349 69 350
3 352 351 69
