ply
format ascii 1.0
element vertex 298
property float x
property float y
property float z
element face 308
property list uchar int vertex_index
end_header
-0.828814 51.55595 58.805096
-1.320612 43.338524 39.24865
-0.107111 64.158707 44.861046
-0.841522 59.09737 34.456722
-0.05378 48.812092 49.262585
-0.293903 58.124332 52.176723
0.154806 56.73666 47.317196
0.174728 50.795872 54.427067
-1.142218 51.175541 36.977783
-1.321043 55.638798 29.641382
-0.801781 40.420868 35.141296
-0.10317 32.921547 37.545689
-1.215002 35.725754 41.263435
-0.271091 69.474213 36.961067
-0.601698 66.801682 31.706646
-0.133617 62.141613 39.700516
-0.396723 54.21735 42.039337
-0.839918 46.178028 44.034668
-1.234495 38.341412 45.719856
-0.531939 40.862518 50.782471
-1.07128 75.685623 33.747368
-1.015438 70.526993 41.805161
-1.379 64.50708 49.251606
-0.522032 54.898457 55.577621
0.013277 54.544575 53.381039
-0.14472 51.36211 56.760437
0.083525 47.668758 57.778152
-1.257505 47.23341 38.145744
-1.302853 49.592693 34.653896
-1.292267 45.723866 35.909454
-1.038538 44.19519 33.852306
-1.21015 41.896347 37.10321
-1.045319 38.113129 38.235741
-1.311373 39.502815 40.286903
-0.149803 66.919693 40.971992
-0.137121 65.915192 38.385651
0.013361 63.322193 42.332413
0.098154 52.803707 48.347733
-0.04031 55.578014 44.685501
-0.206072 51.566982 45.69976
-0.609404 50.187504 43.077534
-0.429873 47.542667 46.617935
-0.682035 43.55048 47.446785
-0.274372 44.817616 50.071697
-1.806864 78.222549 31.954899
-1.74136 75.820847 36.055336
-0.998003 73.226669 37.835369
-1.768984 73.166214 40.042324
-1.731291 61.239727 52.682476
-0.700806 63.000851 33.110077
-1.056078 61.268665 30.563475
-0.462465 30.636669 40.331696
-1.140291 35.770844 48.855972
-1.341909 34.538498 46.455017
-0.154129 61.218296 48.601871
0.093485 60.545231 46.159126
0.094063 57.611439 49.845924
0.199713 53.822437 50.93951
0.179657 49.921192 51.895493
0.054972 45.971241 52.725636
0.203566 46.945423 55.326229
-0.996347 55.141407 35.746914
-1.168486 57.391674 31.973608
-1.256418 53.489468 33.339748
-0.487944 36.667427 36.371284
-0.793823 34.366085 39.310425
-1.026831 31.994434 42.18277
-0.453016 71.796707 32.860344
-0.578642 70.443451 30.241203
-0.34164 68.297119 34.345184
-0.35478 64.578369 35.738972
-0.455973 60.70483 37.051048
0.041145 59.51836 43.566498
-0.229372 58.220997 40.915676
-0.614372 56.737247 38.287701
-0.803341 52.729877 39.451927
-0.99765 48.728268 40.544643
-1.171267 44.767246 41.566345
-1.297503 40.869263 42.518349
-1.058416 42.222801 44.914303
-0.929707 39.621407 48.191463
-0.146948 42.024723 53.439133
-1.21393 77.882187 29.581383
-0.729855 75.012299 31.27446
-0.570412 72.751709 35.416946
-0.476921 70.242126 39.474991
-0.469023 67.507111 43.411903
-1.139751 67.611572 45.62011
-0.560198 64.572937 47.195721
-0.755552 61.466328 50.802895
-1.051283 58.211765 54.22081
-1.297894 59.451359 28.148096
-1.352205 37.043194 43.403374
-1.318937 33.284061 44.225471
-0.600446 49.814769 59.395094
-0.258399 49.717849 58.372765
-0.486767 51.45903 57.782767
-2.244614 75.604004 37.095816
-2.235077 76.903069 35.102074
-2.258426 74.276688 39.089309
-1.755172 74.49353 38.04883
-2.244614 75.604004 37.095816
-0.266201 28.767618 40.817307
-0.608997 29.461075 41.690636
-1.213829 33.884846 49.149946
-1.080105 34.465952 50.391697
0.128384 45.774962 58.208179
0.007982 46.056293 59.384974
-1.297101 50.702953 32.875402
-1.2513 48.793518 33.578531
-0.639785 41.519506 33.561565
-0.758163 43.406667 32.91707
-0.92016 42.308029 34.496801
-0.452519 39.645523 34.253677
-0.639785 41.519506 33.561565
-0.644863 38.544148 35.75629
-0.295601 37.768803 34.868671
-0.452519 39.645523 34.253677
-0.661733 38.917976 51.091193
-0.860617 38.297421 49.795688
-0.730823 40.241962 49.486967
-0.013429 42.538656 54.763508
-0.045988 43.997982 53.082385
0.08753 44.511915 54.406759
-1.259375 66.059326 47.435858
-1.655806 67.403137 46.570944
-1.77543 65.850891 48.386692
-1.618187 58.022251 55.064492
-1.391287 59.725746 53.451643
-1.958191 59.536232 54.295324
-1.243726 56.520401 55.834328
-1.618187 58.022251 55.064492
-0.726126 67.794899 29.668906
-0.714598 69.615783 28.936184
-0.59017 68.622567 30.973924
0.35094 32.128565 36.754093
0.56696 33.225073 35.327309
0.11285 34.018055 36.118904
-1.341737 32.044283 45.674728
-1.330423 33.911279 45.340244
-1.353222 32.671501 46.789501
-1.256465 31.429172 44.607442
-1.341737 32.044283 45.674728
-0.144277 47.871173 58.881622
-0.030597 49.515434 57.269295
-0.258399 49.717849 58.372765
0.007982 46.056293 59.384974
-0.144277 47.871173 58.881622
-1.246007 46.859105 34.20631
-1.2513 48.793518 33.578531
-1.29756 47.658279 35.281675
-1.165402 44.959528 34.88088
-1.119142 46.094766 33.177736
-1.246007 46.859105 34.20631
-2.267829 78.10392 33.051855
-2.304366 79.271492 31.004639
-1.774112 77.021698 34.005117
-2.267829 78.10392 33.051855
-2.235077 76.903069 35.102074
-1.96958 64.218931 50.105923
-1.77543 65.850891 48.386692
-2.145726 62.585255 51.821358
-1.555146 62.873404 50.967041
-1.96958 64.218931 50.105923
-2.397467 60.877952 53.432934
-2.145726 62.585255 51.821358
-1.958191 59.536232 54.295324
-2.397467 60.877952 53.432934
-0.820646 64.041663 31.112825
-0.771092 65.942078 30.41111
-0.651252 64.901266 32.408361
-0.998282 63.17557 29.839524
-0.820646 64.041663 31.112825
-0.878442 62.134758 31.836776
-1.145343 62.246772 28.596288
-0.998282 63.17557 29.839524
-1.319656 56.616387 27.769816
-1.264599 54.750923 28.563578
-0.06283 29.899269 39.499716
0.116818 31.041708 38.106713
-0.282817 31.779108 38.938693
-0.06283 29.899269 39.499716
-0.266201 28.767618 40.817307
-1.314638 33.268673 47.949468
-1.2411 35.154671 47.655495
-1.213829 33.884846 49.149946
-1.353222 32.671501 46.789501
-1.314638 33.268673 47.949468
0.161828 44.999006 55.707056
0.08753 44.511915 54.406759
0.129269 46.458332 54.025932
0.188405 45.413294 56.982217
0.143545 47.307091 56.55219
0.128384 45.774962 58.208179
0.161828 44.999006 55.707056
0.188405 45.413294 56.982217
-1.273884 52.651341 32.218328
-1.279635 51.54108 33.996822
-1.297101 50.702953 32.875402
-1.306196 53.726005 30.369146
-1.288731 54.564133 31.490565
-1.273884 52.651341 32.218328
-1.264599 54.750923 28.563578
-1.306196 53.726005 30.369146
-0.913258 45.281003 32.195144
-1.119142 46.094766 33.177736
-0.913258 45.281003 32.195144
-0.758163 43.406667 32.91707
-0.079537 35.890995 35.531702
-0.295601 37.768803 34.868671
-0.295557 34.794487 36.958487
0.11285 34.018055 36.118904
-0.079537 35.890995 35.531702
-0.89118 30.139957 42.616173
-0.608997 29.461075 41.690636
-0.744648 31.315551 41.257233
-0.515829 71.120079 31.550773
-0.626006 72.154404 29.472696
-0.563193 72.831031 30.782266
-0.965909 36.372139 50.127943
-1.034999 37.696125 48.523718
-0.860617 38.297421 49.795688
-1.080105 34.465952 50.391697
-0.965909 36.372139 50.127943
-0.097043 40.594492 55.078615
-0.013429 42.538656 54.763508
-0.26979 40.071932 53.740574
-0.097043 40.594492 55.078615
-0.462286 39.49083 52.412243
-0.339444 41.443621 52.110802
-0.26979 40.071932 53.740574
-0.661733 38.917976 51.091193
-0.462286 39.49083 52.412243
-1.874722 79.28688 29.869446
-2.304366 79.271492 31.004639
-1.578256 79.1167 28.682688
-1.874722 79.28688 29.869446
-1.510397 78.052368 30.768141
-1.308139 78.840561 27.479081
-1.578256 79.1167 28.682688
-1.073173 77.443352 28.333135
-1.308139 78.840561 27.479081
-0.831135 76.008408 29.179674
-1.073173 77.443352 28.333135
-0.971893 76.447243 30.427922
-0.701612 74.438828 29.989325
-0.831135 76.008408 29.179674
-0.591436 73.404503 32.067402
-0.563193 72.831031 30.782266
-0.701612 74.438828 29.989325
-2.324638 72.857239 41.007742
-2.258426 74.276688 39.089309
-1.838798 71.72419 41.958873
-2.324638 72.857239 41.007742
-1.462025 70.40458 42.840292
-1.392211 71.846604 40.923743
-1.838798 71.72419 41.958873
-1.524182 68.946869 44.747766
-1.655806 67.403137 46.570944
-1.077595 69.069282 43.712635
-1.462025 70.40458 42.840292
-1.524182 68.946869 44.747766
-0.979101 54.863747 56.512733
-0.786658 56.555111 54.899215
-1.243726 56.520401 55.834328
-1.132491 53.192493 58.12647
-0.675423 53.227204 57.191358
-0.979101 54.863747 56.512733
-1.361665 51.444004 59.647978
-1.132491 53.192493 58.12647
-1.015425 49.830612 60.334839
-1.361665 51.444004 59.647978
-0.600446 49.814769 59.395094
-1.015425 49.830612 60.334839
-0.701562 71.388756 28.17305
-0.626006 72.154404 29.472696
-0.701562 71.388756 28.17305
-0.714598 69.615783 28.936184
-0.726126 67.794899 29.668906
-0.771092 65.942078 30.41111
-1.266251 61.338119 27.388599
-1.145343 62.246772 28.596288
-1.176986 60.360012 29.355785
-1.308081 58.522667 27.023173
-1.309468 57.545079 28.894739
-1.319656 56.616387 27.769816
-1.331342 60.372829 26.219248
-1.308081 58.522667 27.023173
-1.299699 62.25959 25.45975
-1.266251 61.338119 27.388599
-1.331342 60.372829 26.219248
0.35094 32.128565 36.754093
0.116818 31.041708 38.106713
-1.110412 30.784359 43.586092
-1.172884 32.639247 43.204121
-1.256465 31.429172 44.607442
-0.89118 30.139957 42.616173
-1.110412 30.784359 43.586092
3 0 25 23
3 0 94 96
3 96 95 25
3 94 95 96
3 1 29 27
3 1 31 29
3 1 33 31
3 2 36 34
3 4 39 37
3 4 41 39
3 4 43 41
3 97 45 98
3 99 47 100
3 101 100 45
3 99 100 101
3 3 50 49
3 103 102 51
3 105 104 52
3 5 56 54
3 7 57 24
3 7 58 57
3 7 60 58
3 107 106 26
3 8 63 61
3 109 108 28
3 10 110 112
3 112 111 30
3 110 111 112
3 10 113 114
3 10 115 117
3 115 64 116
3 115 116 117
3 12 65 32
3 12 66 65
3 13 69 67
3 15 70 35
3 15 71 70
3 6 72 55
3 16 73 38
3 16 74 73
3 16 75 74
3 17 76 40
3 17 77 76
3 17 79 77
3 19 80 42
3 19 118 120
3 120 119 80
3 118 119 120
3 121 81 122
3 123 122 59
3 121 122 123
3 20 82 44
3 20 83 82
3 20 84 83
3 21 85 46
3 21 86 85
3 22 124 126
3 124 87 125
3 124 125 126
3 22 88 87
3 22 89 88
3 127 90 128
3 129 128 48
3 127 128 129
3 131 130 90
3 14 132 134
3 134 133 68
3 132 133 134
3 9 91 62
3 11 135 137
3 135 136 137
3 18 92 78
3 138 93 139
3 140 139 53
3 138 139 140
3 142 141 93
3 23 24 5
3 25 24 23
3 25 7 24
3 25 26 7
3 143 26 144
3 145 144 25
3 143 144 145
3 147 146 26
3 27 28 8
3 29 28 27
3 29 148 150
3 150 149 28
3 148 149 150
3 29 151 153
3 151 30 152
3 151 152 153
3 31 30 29
3 31 10 30
3 31 32 10
3 33 32 31
3 33 12 32
3 34 35 13
3 36 35 34
3 36 15 35
3 37 38 6
3 39 38 37
3 39 16 38
3 39 40 16
3 41 40 39
3 41 17 40
3 41 42 17
3 43 42 41
3 43 19 42
3 154 44 155
3 45 156 158
3 156 44 157
3 156 157 158
3 45 20 44
3 45 46 20
3 47 46 45
3 47 21 46
3 159 22 160
3 161 48 162
3 163 162 22
3 161 162 163
3 164 48 165
3 167 166 48
3 49 168 170
3 170 169 14
3 168 169 170
3 50 171 173
3 173 172 49
3 171 172 173
3 50 174 175
3 177 176 9
3 51 178 180
3 180 179 11
3 178 179 180
3 182 181 51
3 52 53 18
3 183 53 184
3 185 184 52
3 183 184 185
3 187 186 53
3 54 55 2
3 56 55 54
3 56 6 55
3 24 56 5
3 57 56 24
3 57 6 56
3 57 37 6
3 58 37 57
3 58 4 37
3 58 59 4
3 60 59 58
3 60 188 190
3 190 189 59
3 188 189 190
3 26 60 7
3 191 60 192
3 193 192 26
3 191 192 193
3 195 194 60
3 61 62 3
3 63 62 61
3 63 9 62
3 28 63 8
3 196 63 197
3 198 197 28
3 196 197 198
3 199 9 200
3 201 200 63
3 199 200 201
3 203 202 9
3 30 204 205
3 207 206 30
3 64 208 209
3 64 210 212
3 210 11 211
3 210 211 212
3 32 64 10
3 65 64 32
3 65 11 64
3 65 51 11
3 66 51 65
3 66 213 215
3 215 214 51
3 213 214 215
3 67 216 218
3 216 68 217
3 216 217 218
3 69 68 67
3 69 14 68
3 35 69 13
3 70 69 35
3 70 14 69
3 70 49 14
3 71 49 70
3 71 3 49
3 55 36 2
3 72 36 55
3 72 15 36
3 38 72 6
3 73 72 38
3 73 15 72
3 73 71 15
3 74 71 73
3 74 3 71
3 74 61 3
3 75 61 74
3 75 8 61
3 40 75 16
3 76 75 40
3 76 8 75
3 76 27 8
3 77 27 76
3 77 1 27
3 77 78 1
3 79 78 77
3 79 18 78
3 42 79 17
3 80 79 42
3 80 18 79
3 80 52 18
3 219 52 220
3 221 220 80
3 219 220 221
3 223 222 52
3 59 43 4
3 81 43 59
3 81 19 43
3 224 81 225
3 226 81 227
3 228 19 229
3 230 229 81
3 228 229 230
3 232 231 19
3 44 233 234
3 82 235 237
3 237 236 44
3 235 236 237
3 82 238 239
3 82 240 241
3 83 242 244
3 244 243 82
3 242 243 244
3 83 245 246
3 83 247 249
3 247 67 248
3 247 248 249
3 84 67 83
3 84 13 67
3 46 84 20
3 85 84 46
3 85 13 84
3 85 34 13
3 86 34 85
3 86 2 34
3 250 47 251
3 252 47 253
3 254 21 255
3 256 255 47
3 254 255 256
3 87 257 258
3 87 259 261
3 259 21 260
3 259 260 261
3 87 86 21
3 88 86 87
3 88 2 86
3 88 54 2
3 89 54 88
3 89 5 54
3 48 89 22
3 90 89 48
3 90 5 89
3 90 23 5
3 262 23 263
3 264 263 90
3 262 263 264
3 265 0 266
3 267 266 23
3 265 266 267
3 268 0 269
3 270 0 271
3 273 272 0
3 68 274 275
3 277 276 68
3 279 278 14
3 62 50 3
3 91 50 62
3 91 280 282
3 282 281 50
3 280 281 282
3 283 91 284
3 285 284 9
3 283 284 285
3 286 91 287
3 290 289 91
3 288 289 290
3 292 291 11
3 78 33 1
3 92 33 78
3 92 12 33
3 53 92 18
3 93 92 53
3 93 12 92
3 93 66 12
3 293 66 294
3 295 294 93
3 293 294 295
3 297 296 66
