ply
format ascii 1.0
element vertex 311
property float x
property float y
property float z
element face 325
property list uchar int vertex_index
end_header
7.417719 79.815605 31.18121
4.48394 56.391495 58.548798
10.408382 86.19754 16.409613
5.32987 69.680275 45.587452
11.559464 57.976219 52.291214
13.273457 68.848518 40.224213
3.988741 78.552467 33.009834
5.138762 82.71965 25.419914
1.943775 53.061653 60.15921
2.081549 60.551697 54.199158
2.451483 67.417542 47.580414
4.758841 63.371872 52.339233
12.236877 63.711327 46.323647
4.429745 48.94046 64.077377
11.655838 79.130829 29.269833
8.844297 83.519165 23.793076
3.084658 73.449783 40.455139
6.224211 75.184128 38.480881
7.658613 51.11702 61.498322
7.829826 57.990852 55.773315
8.288065 64.341766 49.52597
9.101221 70.044647 42.943485
10.252825 75.005882 36.175659
6.455675 85.944633 17.824297
5.562454 79.441841 32.13105
4.536432 80.752289 29.223448
6.185541 81.532997 28.378626
3.089418 54.934952 59.515739
1.986582 56.86834 57.268776
3.1605 58.632256 56.549538
3.290291 62.193184 53.412384
4.588055 59.954422 55.522461
15.774173 59.476181 46.111557
3.080988 47.257599 64.896461
12.421621 80.843376 25.767639
3.753357 68.794189 46.696068
2.734077 70.546715 44.069736
4.094982 71.791504 43.161224
4.511806 74.568703 39.540691
5.73698 72.538101 42.067032
9.51367 54.942726 57.014328
9.670889 58.162933 54.080193
8.017097 61.240608 52.703758
9.90855 61.25222 51.043831
12.713675 66.360771 43.28627
10.657347 66.987709 44.763134
11.168444 69.611061 41.557682
9.639132 72.623512 39.577545
11.759247 72.055405 38.320633
12.414909 74.307068 35.049664
9.61599 84.994453 20.093561
7.578024 85.000557 20.851347
8.318127 86.356422 17.103746
2.746731 77.1483 33.768036
3.219259 79.445755 29.980709
1.075321 50.814468 60.47287
1.093756 54.70211 57.670006
1.159807 58.481178 54.682663
1.278566 62.115013 51.522934
1.453241 65.569328 48.206039
2.23502 64.078056 50.963875
3.486149 65.5886 50.120918
5.004417 66.620178 49.019653
13.464886 57.499702 50.502754
11.851873 60.912766 49.330734
13.813232 60.294563 47.657761
14.25176 62.955437 44.789757
14.774542 65.470032 41.904686
9.064478 87.441376 13.387027
1.944269 49.165863 62.861267
3.067148 51.133034 62.299896
4.435669 52.71051 61.403206
9.478746 79.697662 30.21278
8.107254 81.788177 27.492956
10.217451 81.543205 26.611383
10.99551 83.139061 22.993919
11.802896 84.467331 19.373482
1.6861 68.81559 44.750183
1.978855 71.833466 41.176384
2.332449 74.611931 37.507706
3.50342 76.118874 36.76075
5.002302 77.119713 35.857311
6.786898 77.611862 34.847549
5.974955 50.231033 62.933182
6.003792 53.871338 60.193588
7.715212 54.609543 58.711006
6.082407 57.409424 57.285454
6.225077 60.820129 54.221771
6.443184 64.081299 51.022308
6.744596 67.174599 47.710915
10.23621 64.197639 47.930511
8.649172 67.280411 46.265045
7.133026 70.08548 44.31234
7.607536 72.80246 40.848877
8.162836 75.316193 37.337715
8.790159 77.617882 33.790085
10.929375 77.179619 32.739887
13.119814 76.351044 31.738008
6.86178 83.388702 24.614273
5.783968 84.45253 21.615334
11.456226 56.444336 53.736488
12.381805 56.2789 52.79945
10.615177 58.069576 53.185704
10.511938 56.537693 54.630978
11.456226 56.444336 53.736488
13.587167 70.004421 38.678162
12.830062 71.607865 37.726372
12.516352 70.451961 39.272423
4.441422 82.114902 25.793623
4.140257 81.131222 27.69539
4.837597 81.73597 27.321681
4.724771 83.032803 23.883435
4.441422 82.114902 25.793623
14.419093 57.15652 49.657726
14.260868 55.763981 50.999142
14.593266 58.553951 48.23523
13.639059 58.897132 49.080258
14.419093 57.15652 49.657726
15.254535 62.480133 44.094509
15.012967 61.215809 45.450657
16.015741 60.740505 44.755409
15.515925 63.737431 42.651973
14.513151 64.212735 43.347222
15.254535 62.480133 44.094509
15.793204 64.927933 41.287109
15.515925 63.737431 42.651973
1.960105 47.189152 64.115578
1.520268 48.009655 62.971718
12.1075 82.718972 22.618061
11.708565 81.991219 24.380779
12.820556 81.571129 24.004921
12.511193 83.383106 20.807842
11.399203 83.803196 21.183701
12.1075 82.718972 22.618061
6.816784 50.674026 62.215752
6.808867 48.883609 63.52892
7.650697 49.326603 62.81149
13.848871 74.815976 32.867718
12.767361 75.329056 33.393836
13.496418 73.793988 34.523546
14.204552 75.772819 31.272773
13.848871 74.815976 32.867718
5.679854 85.44907 18.180156
5.344 84.703018 20.075674
6.119822 85.198581 19.719816
8.099445 87.313553 13.723851
8.432678 87.801807 11.862969
16.529339 57.737438 46.709614
15.573737 58.14476 47.462127
16.751794 59.005108 45.436051
16.529339 57.737438 46.709614
16.015741 60.740505 44.755409
16.751794 59.005108 45.436051
3.098143 45.297013 66.100395
2.528465 46.235019 65.133174
3.765512 46.183433 65.732887
3.098143 45.297013 66.100395
4.439891 47.024864 65.323345
3.755367 48.09903 64.486919
3.765512 46.183433 65.732887
13.141565 79.507263 27.074133
12.038729 79.987103 27.518736
12.758674 78.65099 28.82523
13.527594 80.296627 25.373884
13.141565 79.507263 27.074133
12.820556 81.571129 24.004921
13.527594 80.296627 25.373884
8.519699 49.646137 61.994465
7.650697 49.326603 62.81149
10.433329 54.927589 56.098045
10.366796 53.338165 57.495891
9.59228 56.55283 55.547261
10.433329 54.927589 56.098045
10.511938 56.537693 54.630978
13.157893 72.733696 36.090888
12.087078 73.181236 36.685148
12.830062 71.607865 37.726372
13.496418 73.793988 34.523546
13.157893 72.733696 36.090888
2.504049 77.395676 32.191288
2.058988 76.451344 32.493096
2.30167 76.203968 34.069844
2.740314 78.544403 30.297625
2.504049 77.395676 32.191288
2.982995 78.297028 31.874372
2.966227 79.618153 28.40065
2.740314 78.544403 30.297625
3.481671 80.477955 28.07402
3.877845 80.099022 29.602079
4.140257 81.131222 27.69539
2.966227 79.618153 28.40065
3.481671 80.477955 28.07402
0.781415 51.503399 59.119049
0.782955 49.533451 60.471306
0.790632 53.44722 57.717617
0.781415 51.503399 59.119049
1.084538 52.758289 59.071438
0.811584 55.37033 56.270764
0.790632 53.44722 57.717617
0.84461 57.259864 54.777092
0.811584 55.37033 56.270764
1.126781 56.591644 56.176334
0.890213 59.117115 53.241825
0.84461 57.259864 54.777092
0.949593 60.934033 51.66196
0.890213 59.117115 53.241825
1.219187 60.298096 53.102798
1.020741 62.70668 50.045437
0.949593 60.934033 51.66196
1.365903 63.84217 49.864486
1.108079 64.433837 48.386989
1.020741 62.70668 50.045437
13.334516 56.040641 51.90522
14.260868 55.763981 50.999142
12.512175 57.73796 51.396984
12.381805 56.2789 52.79945
13.334516 56.040641 51.90522
14.793702 59.885372 46.884659
14.593266 58.553951 48.23523
15.573737 58.14476 47.462127
15.071079 66.647164 40.450249
14.320536 68.336407 39.610012
14.024 67.159275 41.064449
15.071079 66.647164 40.450249
15.793204 64.927933 41.287109
10.136207 87.276817 13.073623
9.73643 86.819458 14.89832
10.808159 86.654899 14.584916
9.432874 87.84111 11.552961
10.136207 87.276817 13.073623
10.504603 87.676552 11.239556
8.432678 87.801807 11.862969
9.432874 87.84111 11.552961
1.085793 48.833957 61.777519
0.782955 49.533451 60.471306
1.509795 49.990166 61.667068
1.085793 48.833957 61.777519
1.520268 48.009655 62.971718
2.512628 48.211731 63.878864
1.960105 47.189152 64.115578
2.528465 46.235019 65.133174
12.924266 83.973236 19.042111
12.511193 83.383106 20.807842
12.216798 84.988838 17.571202
12.924266 83.973236 19.042111
13.338169 84.494743 17.239832
11.519541 85.853943 16.089268
11.105639 85.332436 17.891548
12.216798 84.988838 17.571202
10.808159 86.654899 14.584916
11.519541 85.853943 16.089268
1.20516 66.105469 46.697397
1.108079 64.433837 48.386989
1.321589 67.7286 44.969469
1.20516 66.105469 46.697397
1.56967 67.192459 46.478111
1.444934 69.286763 43.216103
1.321589 67.7286 44.969469
1.591311 70.795701 41.429203
1.444934 69.286763 43.216103
1.832477 70.324528 42.963284
1.741221 72.232883 39.622551
1.591311 70.795701 41.429203
1.918017 73.622116 37.788212
1.741221 72.232883 39.622551
2.155652 73.222699 39.342045
2.094529 74.935783 35.939678
1.918017 73.622116 37.788212
2.53959 75.880116 35.637871
2.30167 76.203968 34.069844
2.094529 74.935783 35.939678
5.204429 47.727585 64.788117
4.439891 47.024864 65.323345
5.977034 48.372871 64.216019
6.808867 48.883609 63.52892
5.20235 49.585746 63.50528
5.204429 47.727585 64.788117
5.977034 48.372871 64.216019
8.540681 51.362125 60.660816
8.519699 49.646137 61.994465
9.46821 53.274979 58.418819
10.366796 53.338165 57.495891
8.568981 53.108387 59.267158
9.46821 53.274979 58.418819
8.614441 54.776134 57.862667
7.686913 52.863281 60.104664
8.540681 51.362125 60.660816
8.568981 53.108387 59.267158
13.490661 77.261097 30.059317
12.758674 78.65099 28.82523
12.387826 77.740937 30.50392
13.490661 77.261097 30.059317
14.204552 75.772819 31.272773
14.634246 69.49231 38.063961
13.587167 70.004421 38.678162
14.320536 68.336407 39.610012
5.047374 83.899242 21.981145
4.724771 83.032803 23.883435
5.461365 83.58609 23.517624
5.047374 83.899242 21.981145
5.344 84.703018 20.075674
7.72627 86.771076 15.582211
8.691302 86.898899 15.245387
8.099445 87.313553 13.723851
6.795044 86.565181 15.942486
7.386901 86.150527 17.464022
7.72627 86.771076 15.582211
5.979971 86.136482 16.286411
6.795044 86.565181 15.942486
5.679854 85.44907 18.180156
5.979971 86.136482 16.286411
3 0 26 24
3 1 29 27
3 1 31 29
3 3 37 35
3 3 39 37
3 4 100 101
3 4 102 104
3 102 41 103
3 102 103 104
3 4 43 41
3 5 46 44
3 5 48 46
3 5 105 107
3 107 106 48
3 105 106 107
3 2 52 50
3 6 54 53
3 7 108 110
3 110 109 25
3 108 109 110
3 7 111 112
3 8 56 55
3 9 57 28
3 9 58 57
3 9 60 58
3 11 61 30
3 11 62 61
3 113 63 114
3 115 65 116
3 117 116 63
3 115 116 117
3 118 66 119
3 120 119 32
3 118 119 120
3 121 67 122
3 123 122 66
3 121 122 123
3 125 124 67
3 126 69 127
3 13 70 33
3 13 71 70
3 14 74 72
3 128 75 129
3 130 129 34
3 128 129 130
3 131 76 132
3 133 132 75
3 131 132 133
3 10 77 59
3 16 78 36
3 16 79 78
3 16 80 79
3 17 81 38
3 17 82 81
3 18 134 136
3 134 83 135
3 134 135 136
3 18 84 83
3 19 85 40
3 19 86 85
3 19 87 86
3 20 88 42
3 20 89 88
3 12 90 64
3 21 91 45
3 21 92 91
3 21 93 92
3 22 94 47
3 22 95 94
3 22 96 95
3 137 97 138
3 139 138 49
3 137 138 139
3 141 140 97
3 15 98 73
3 23 99 51
3 23 142 144
3 144 143 99
3 142 143 144
3 146 145 68
3 24 25 6
3 26 25 24
3 26 7 25
3 27 28 8
3 29 28 27
3 29 9 28
3 29 30 9
3 31 30 29
3 31 11 30
3 147 32 148
3 149 32 150
3 152 151 32
3 153 33 154
3 155 33 156
3 157 13 158
3 159 158 33
3 157 158 159
3 160 34 161
3 162 161 14
3 160 161 162
3 163 34 164
3 166 165 34
3 35 36 10
3 37 36 35
3 37 16 36
3 37 38 16
3 39 38 37
3 39 17 38
3 167 18 168
3 169 40 170
3 41 171 173
3 171 40 172
3 171 172 173
3 41 19 40
3 41 42 19
3 43 42 41
3 43 20 42
3 44 45 12
3 46 45 44
3 46 21 45
3 46 47 21
3 48 47 46
3 48 22 47
3 48 49 22
3 174 49 175
3 176 175 48
3 174 175 176
3 178 177 49
3 50 51 15
3 52 51 50
3 52 23 51
3 53 179 181
3 179 180 181
3 54 182 184
3 184 183 53
3 182 183 184
3 54 185 186
3 25 54 6
3 187 54 188
3 189 188 25
3 187 188 189
3 191 190 54
3 55 192 193
3 56 194 196
3 196 195 55
3 194 195 196
3 56 197 198
3 28 56 8
3 57 56 28
3 57 199 201
3 201 200 56
3 199 200 201
3 57 202 203
3 58 204 206
3 206 205 57
3 204 205 206
3 58 207 208
3 58 209 211
3 209 59 210
3 209 210 211
3 60 59 58
3 60 10 59
3 30 60 9
3 61 60 30
3 61 10 60
3 61 35 10
3 62 35 61
3 62 3 35
3 63 212 213
3 63 214 216
3 214 4 215
3 214 215 216
3 63 64 4
3 65 64 63
3 65 12 64
3 32 217 219
3 217 65 218
3 217 218 219
3 66 65 32
3 66 12 65
3 66 44 12
3 67 44 66
3 67 5 44
3 67 220 222
3 222 221 5
3 220 221 222
3 224 223 67
3 225 68 226
3 227 226 2
3 225 226 227
3 228 68 229
3 228 229 230
3 232 231 68
3 233 55 234
3 69 235 237
3 235 55 236
3 235 236 237
3 69 8 55
3 33 238 240
3 238 69 239
3 238 239 240
3 70 69 33
3 70 8 69
3 70 27 8
3 71 27 70
3 71 1 27
3 72 73 0
3 74 73 72
3 74 15 73
3 34 74 14
3 75 74 34
3 75 15 74
3 75 50 15
3 76 50 75
3 76 2 50
3 241 76 242
3 243 76 244
3 243 244 245
3 246 2 247
3 248 247 76
3 246 247 248
3 250 249 2
3 59 251 252
3 77 253 255
3 255 254 59
3 253 254 255
3 77 256 257
3 36 77 10
3 78 77 36
3 78 258 260
3 260 259 77
3 258 259 260
3 78 261 262
3 79 263 265
3 265 264 78
3 263 264 265
3 79 266 267
3 79 268 270
3 268 53 269
3 268 269 270
3 80 53 79
3 80 6 53
3 38 80 16
3 81 80 38
3 81 6 80
3 81 24 6
3 82 24 81
3 82 0 24
3 271 13 272
3 83 273 274
3 83 275 277
3 275 13 276
3 275 276 277
3 83 71 13
3 84 71 83
3 84 1 71
3 278 18 279
3 40 280 281
3 85 282 284
3 284 283 40
3 282 283 284
3 85 285 287
3 285 18 286
3 285 286 287
3 85 84 18
3 86 84 85
3 86 1 84
3 86 31 1
3 87 31 86
3 87 11 31
3 42 87 19
3 88 87 42
3 88 11 87
3 88 62 11
3 89 62 88
3 89 3 62
3 64 43 4
3 90 43 64
3 90 20 43
3 45 90 12
3 91 90 45
3 91 20 90
3 91 89 20
3 92 89 91
3 92 3 89
3 92 39 3
3 93 39 92
3 93 17 39
3 47 93 21
3 94 93 47
3 94 17 93
3 94 82 17
3 95 82 94
3 95 0 82
3 95 72 0
3 96 72 95
3 96 14 72
3 49 96 22
3 97 96 49
3 97 14 96
3 97 288 290
3 290 289 14
3 288 289 290
3 292 291 97
3 295 294 5
3 293 294 295
3 73 26 0
3 98 26 73
3 98 7 26
3 51 98 15
3 99 98 51
3 99 7 98
3 99 296 298
3 298 297 7
3 296 297 298
3 300 299 99
3 68 52 2
3 301 52 302
3 303 302 68
3 301 302 303
3 304 23 305
3 306 305 52
3 304 305 306
3 307 23 308
3 310 309 23
