ply
format ascii 1.0
element vertex 436
property float x
property float y
property float z
element face 456
property list uchar int vertex_index
end_header
-3.30929 -89.332047 39.680367
-7.012196 -82.973381 20.524376
-5.059523 -86.424789 29.708662
-2.147373 -77.115189 28.699833
-2.636934 -90.613846 49.752094
-5.793194 -98.949203 40.993088
-2.750475 -74.149933 20.030643
-4.517588 -71.774597 11.751742
-10.239424 -75.039536 5.499653
-4.091846 -88.044296 34.619877
-5.333174 -91.203537 30.17598
-4.811018 -92.920624 35.313354
-1.268017 -85.322357 43.870934
-1.981215 -84.504852 38.810139
-2.896481 -83.331879 33.906906
-4.972383 -94.861435 50.042152
-4.609783 -80.214409 24.703579
-2.440306 -75.610703 24.346163
-5.284277 -78.648438 20.319653
-6.052387 -77.329361 16.070841
-6.059046 -84.645294 25.009418
-7.095104 -87.457977 20.564932
-6.121305 -89.273407 25.223454
-1.676306 -78.472351 33.18808
-3.821381 -81.851456 29.212795
-2.81909 -90.208206 44.769264
-4.617689 -94.199997 40.457996
-4.710571 -94.892456 45.417953
-6.777948 -99.024216 45.512135
-4.988951 -97.965622 36.005394
-3.372252 -72.864807 15.780493
-7.148821 -76.267342 12.099067
-8.605165 -75.423981 8.595432
-6.169491 -70.868896 8.05946
-3.668541 -88.736023 37.138145
-4.528849 -90.4534 34.963966
-4.218355 -91.162079 37.522018
-2.264269 -87.397751 41.792667
-1.589149 -84.958221 41.326401
-2.625132 -86.917908 39.254997
-3.052805 -86.344315 36.743172
-7.490238 -82.255569 18.362106
-7.814356 -84.443375 18.37953
-5.90172 -81.590637 22.639942
-4.95163 -79.408401 22.498245
-6.311924 -80.809776 20.445192
-6.729755 -80.104393 18.292196
-5.563433 -85.539673 27.331499
-6.285263 -86.917786 25.117659
-5.800114 -87.851288 27.496227
-5.071142 -93.718582 30.449881
-1.367268 -79.046913 35.515526
-4.030437 -84.938461 31.844267
-3.369612 -82.623322 31.533464
-4.533892 -84.131271 29.470724
-5.019342 -83.283508 27.148577
-2.690859 -90.474548 47.281937
-3.737942 -92.589981 45.137295
-3.714357 -92.793701 47.591465
-6.008638 -96.957962 47.791943
-1.672222 -88.249069 49.413933
-1.784491 -88.066818 46.887047
-9.823429 -80.131233 10.515786
-5.212233 -96.613525 40.777935
-5.037436 -96.104767 38.251751
-5.349787 -98.557831 38.547241
-2.57518 -74.863945 22.185844
-1.330568 -73.125824 24.234488
-1.370018 -72.416016 22.092556
-1.482496 -71.733276 19.945148
-1.702353 -71.086998 17.803169
-3.005045 -73.481979 17.889343
-7.70142 -78.931221 14.164153
-6.550791 -76.771194 14.037382
-8.293793 -78.432648 12.234839
-8.952969 -77.963326 10.434298
-3.200033 -69.362534 11.613988
-3.977255 -68.843826 9.68573
-5.292229 -71.298187 9.863708
-7.432306 -73.227585 8.329041
-6.595566 -73.611145 10.076262
-4.562325 -87.268082 32.139931
-5.335358 -88.774078 29.936138
-4.905991 -89.650681 32.429626
-5.03311 -92.105347 32.731487
-4.957949 -94.630112 33.05764
-0.721607 -82.823143 43.371117
-1.051258 -82.48455 40.84156
-1.434681 -82.05954 38.353905
-1.846888 -81.546265 35.917576
-2.42506 -83.961807 36.333977
-3.528858 -85.681442 34.269875
-2.656284 -90.612961 52.16489
-3.746492 -92.838043 49.975765
-3.832481 -92.706268 52.277142
-5.672529 -100.924072 38.715672
-3.302698 -78.752365 26.716671
-2.308006 -76.369392 26.513813
-3.563377 -77.959976 24.516346
-3.80335 -77.18222 22.334908
-4.054247 -76.44339 20.169189
-4.353689 -75.759766 18.025833
-5.639685 -77.953278 18.172453
-7.184326 -79.481339 16.192024
-2.554333 -69.906021 13.617093
-6.540287 -83.778305 22.740818
-7.288706 -85.179306 20.557373
-6.781679 -86.014023 22.804144
-6.587639 -88.329025 22.853567
-5.700003 -90.246506 27.667908
-1.93882 -77.823265 30.919638
-2.260706 -80.947083 33.538239
-2.651312 -80.27037 31.216211
-3.000906 -79.531448 28.945847
-4.236174 -81.038979 26.939068
-5.475224 -82.425476 24.873444
-3.024818 -89.82489 42.229828
-3.983177 -91.762146 40.083855
-3.824722 -92.241882 42.628834
-4.635307 -94.627914 42.971832
-5.450071 -96.939194 43.222191
-4.826958 -94.976273 47.779144
-5.723959 -97.060638 45.564846
-6.282404 -99.112549 43.319771
-1.03021 -85.598831 46.430626
-1.982204 -87.78154 44.341671
-7.645945 -86.695755 18.361713
-4.673058 -93.625275 37.897255
-4.948086 -95.435318 35.668606
-1.325333 -73.846161 26.371546
-2.05509 -70.47908 15.686292
-3.874166 -72.296738 13.727604
-4.738047 -75.137413 15.921577
-5.234676 -74.573929 13.880189
-5.855732 -74.06456 11.926208
-7.840992 -75.812424 10.280883
-9.646317 -77.519623 8.793617
-10.329185 -77.153549 7.335767
-8.326427 -72.927032 6.66153
-9.417482 -75.156067 7.020934
-4.847817 -94.518379 29.291432
-4.843171 -95.01284 30.605588
-1.198832 -79.2924 36.710707
-1.075333 -77.970967 36.506062
-2.154578 -89.431457 49.583013
-1.658839 -88.284774 50.6607
-2.141195 -89.467163 50.82978
-10.076142 -81.244419 10.524085
-9.493324 -80.369243 11.414671
-1.731841 -75.835587 28.607368
-1.709532 -76.174233 29.691073
-8.728506 -79.519951 12.274197
-7.997606 -78.681934 13.199496
-8.43232 -79.769238 13.238855
-9.493324 -80.369243 11.414671
-9.058611 -79.28194 11.375312
-8.728506 -79.519951 12.274197
-10.612181 -75.026112 4.742071
-10.098901 -73.853527 4.513095
-9.726144 -73.866951 5.270677
-0.994812 -84.07275 43.621026
-0.59336 -82.951275 44.65111
-0.866565 -84.200882 44.901018
-3.293123 -91.581322 53.391888
-3.244382 -91.659615 52.221016
-2.705024 -90.534668 53.335762
-2.705024 -90.534668 53.335762
-2.181671 -89.44133 53.258673
-7.590242 -80.557266 16.226916
-6.95704 -79.792866 17.24211
-7.362956 -80.868794 17.277002
-7.86743 -80.287701 15.21518
-7.590242 -80.557266 16.226916
-1.698291 -68.934967 14.64272
-1.935256 -68.64616 13.596688
-6.049888 -90.008057 24.073245
-6.283055 -89.535865 22.888301
-6.354472 -88.801216 24.038511
-1.423391 -77.165283 33.040394
-1.340833 -77.443894 34.174698
-1.807563 -78.147808 32.053859
-1.554647 -76.84074 31.906173
-1.423391 -77.165283 33.040394
-6.967996 -100.048386 44.348726
-6.720225 -100.092553 43.252544
-6.530176 -99.068382 44.415953
-0.955995 -85.693497 47.711256
-0.662116 -84.428276 47.4699
-4.863786 -97.584572 34.701746
-4.843354 -96.31942 34.533352
-4.968519 -96.70047 35.837
-5.060977 -101.661667 36.317583
-5.342373 -100.693023 37.491358
-5.391133 -101.892715 37.541897
-0.867192 -72.141953 25.28048
-0.814685 -71.804699 24.225617
-10.068832 -78.573822 8.837362
-9.299643 -77.741474 9.613957
-9.722158 -78.795673 9.657702
-10.368539 -78.302147 8.12924
-10.068832 -78.573822 8.837362
-5.512249 -69.606632 7.944827
-4.416131 -68.594097 8.757962
-5.073373 -69.856361 8.872595
-6.635009 -70.674835 7.191249
-5.512249 -69.606632 7.944827
-7.247959 -71.897964 7.360495
-7.713477 -71.703903 6.492284
-6.635009 -70.674835 7.191249
-10.978777 -76.14053 5.045454
-10.634778 -76.051285 5.739636
-7.931356 -83.036613 17.318891
-7.743197 -81.944381 17.311957
-8.093415 -84.130516 17.327604
-7.931356 -83.036613 17.318891
-7.652297 -83.349472 18.370818
-8.030471 -85.251053 17.313549
-8.093415 -84.130516 17.327604
-7.743197 -81.944381 17.311957
-7.362956 -80.868794 17.277002
-7.109996 -81.179981 18.327151
-5.177604 -93.227661 29.162538
-5.308619 -91.970138 29.025588
-5.202158 -92.46106 30.312931
-5.177604 -93.227661 29.162538
-4.847817 -94.518379 29.291432
-1.186314 -77.731175 35.338421
-1.075333 -77.970967 36.506062
-1.521787 -78.759632 34.351803
-1.340833 -77.443894 34.174698
-1.186314 -77.731175 35.338421
-6.148041 -96.785897 48.843897
-5.490511 -95.909698 48.917048
-5.629913 -95.737633 49.969002
-6.627264 -97.811622 47.67759
-6.148041 -96.785897 48.843897
-7.011919 -98.84475 46.537686
-6.393293 -97.991089 46.652039
-6.627264 -97.811622 47.67759
-7.328861 -99.865273 45.34738
-7.011919 -98.84475 46.537686
-1.248508 -87.068688 50.477293
-1.658839 -88.284774 50.6607
-1.277002 -87.018616 49.20291
-1.248508 -87.068688 50.477293
-1.728357 -88.157944 48.15049
-1.333136 -86.92749 47.939467
-1.277002 -87.018616 49.20291
-10.42467 -80.981701 9.697274
-10.157388 -79.879627 9.698446
-10.42467 -80.981701 9.697274
-10.076142 -81.244419 10.524085
-7.044166 -88.245689 19.451685
-6.771109 -88.64421 20.572373
-0.83441 -71.449795 23.15465
-0.814685 -71.804699 24.225617
-1.350293 -72.77092 23.163522
-0.815736 -71.117501 22.090952
-0.83441 -71.449795 23.15465
-0.871975 -70.77613 21.017248
-0.815736 -71.117501 22.090952
-1.426257 -72.074646 21.018852
-0.903696 -70.454472 19.945446
-0.871975 -70.77613 21.017248
-1.592424 -71.410137 18.874159
-1.013624 -70.131332 18.874457
-0.903696 -70.454472 19.945446
-10.157388 -79.879627 9.698446
-9.722158 -78.795673 9.657702
-9.388199 -79.04728 10.475042
-3.588644 -69.10318 10.649859
-2.954248 -67.830437 10.612695
-2.565637 -68.08979 11.576824
-10.612181 -75.026112 4.742071
-10.978777 -76.14053 5.045454
-4.786575 -95.468605 31.909467
-4.843171 -95.01284 30.605588
-5.014546 -94.174347 31.75376
-0.42064 -81.662205 44.389612
-0.59336 -82.951275 44.65111
-0.550554 -81.542423 43.11596
-0.42064 -81.662205 44.389612
-0.71538 -81.373126 41.851181
-0.550554 -81.542423 43.11596
-0.886432 -82.653847 42.106338
-0.871471 -81.213386 40.59914
-0.71538 -81.373126 41.851181
-1.063183 -81.000881 39.355312
-0.871471 -81.213386 40.59914
-1.24297 -82.272045 39.597732
-1.232538 -80.798714 38.129897
-1.063183 -81.000881 39.355312
-1.640785 -81.802903 37.13574
-1.438642 -80.542077 36.911732
-1.232538 -80.798714 38.129897
-3.906017 -92.544151 53.381594
-3.293123 -91.581322 53.391888
-4.488401 -93.61869 52.237875
-3.906017 -92.544151 53.381594
-5.058352 -94.696274 51.12038
-4.402432 -93.783851 51.159647
-4.488401 -93.61869 52.237875
-5.629913 -95.737633 49.969002
-5.058352 -94.696274 51.12038
-2.15087 -89.466721 52.036178
-2.181671 -89.44133 53.258673
-2.646609 -90.613404 50.958492
-2.141195 -89.467163 50.82978
-2.15087 -89.466721 52.036178
-6.038809 -101.030822 39.871601
-5.732862 -99.936637 39.85438
-6.099141 -100.043388 41.01031
-5.874843 -102.027809 38.69118
-6.038809 -101.030822 39.871601
-6.241123 -102.134559 39.847109
-5.391133 -101.892715 37.541897
-5.874843 -102.027809 38.69118
-8.125977 -80.012642 14.201245
-7.442873 -79.20628 15.178089
-7.86743 -80.287701 15.21518
-8.43232 -79.769238 13.238855
-8.125977 -80.012642 14.201245
-2.258106 -68.374416 12.595135
-2.565637 -68.08979 11.576824
-2.877183 -69.634277 12.615541
-2.258106 -68.374416 12.595135
-1.935256 -68.64616 13.596688
-6.517377 -89.079735 21.716691
-6.771109 -88.64421 20.572373
-6.841372 -87.893501 21.709249
-6.517377 -89.079735 21.716691
-6.283055 -89.535865 22.888301
-5.492034 -91.491623 27.771552
-5.516588 -90.725021 28.921944
-5.308619 -91.970138 29.025588
-5.644545 -90.987373 26.51371
-5.492034 -91.491623 27.771552
-5.855196 -90.500824 25.291483
-5.910654 -89.759957 26.445681
-5.644545 -90.987373 26.51371
-6.049888 -90.008057 24.073245
-5.855196 -90.500824 25.291483
-1.605256 -76.528271 30.800975
-1.554647 -76.84074 31.906173
-2.043096 -77.469227 29.809736
-1.709532 -76.174233 29.691073
-1.605256 -76.528271 30.800975
-1.607078 -80.296589 35.716551
-1.198832 -79.2924 36.710707
-1.438642 -80.542077 36.911732
-6.343746 -100.125061 42.173651
-6.099141 -100.043388 41.01031
-6.037799 -99.030876 42.15643
-6.343746 -100.125061 42.173651
-6.720225 -100.092553 43.252544
-6.967996 -100.048386 44.348726
-7.328861 -99.865273 45.34738
-0.747661 -84.339119 46.180864
-0.662116 -84.428276 47.4699
-1.149113 -85.460594 45.15078
-0.866565 -84.200882 44.901018
-0.747661 -84.339119 46.180864
-1.407351 -86.832825 46.658836
-0.955995 -85.693497 47.711256
-1.333136 -86.92749 47.939467
-7.946266 -86.377243 17.304641
-8.030471 -85.251053 17.313549
-7.730151 -85.569565 18.370621
-7.319586 -87.864578 18.350076
-7.370525 -87.076866 19.463323
-7.044166 -88.245689 19.451685
-7.631382 -87.535111 17.282528
-7.319586 -87.864578 18.350076
-7.946266 -86.377243 17.304641
-7.631382 -87.535111 17.282528
-4.848285 -95.916817 33.227869
-4.953017 -95.032715 34.363123
-4.843354 -96.31942 34.533352
-4.786575 -95.468605 31.909467
-4.848285 -95.916817 33.227869
-5.181002 -99.509903 37.407142
-5.511158 -99.740951 38.631456
-5.342373 -100.693023 37.491358
-5.000585 -99.213798 36.136219
-5.169369 -98.261726 37.276318
-5.181002 -99.509903 37.407142
-4.728344 -98.87645 34.85764
-5.000585 -99.213798 36.136219
-4.863786 -97.584572 34.701746
-4.728344 -98.87645 34.85764
-1.812157 -75.462688 27.514359
-1.731841 -75.835587 28.607368
-2.227689 -76.74229 27.606823
-1.320821 -74.201072 27.443225
-1.812157 -75.462688 27.514359
-1.816669 -75.107776 26.442679
-0.931452 -72.836178 27.400181
-1.320821 -74.201072 27.443225
-0.864575 -72.502121 26.34901
-1.327951 -73.485992 25.303017
-0.867192 -72.141953 25.28048
-0.931452 -72.836178 27.400181
-0.864575 -72.502121 26.34901
-1.107962 -69.822536 17.80093
-1.013624 -70.131332 18.874457
-1.28433 -69.518577 16.742491
-1.107962 -69.822536 17.80093
-1.878721 -70.783039 16.74473
-1.448669 -69.221497 15.677319
-0.67791 -68.260994 16.733519
-1.28433 -69.518577 16.742491
-2.304711 -70.19255 14.651692
-1.698291 -68.934967 14.64272
-1.448669 -69.221497 15.677319
-10.709973 -78.11911 7.400315
-9.987751 -77.336586 8.064692
-10.368539 -78.302147 8.12924
-10.908735 -77.860161 6.872631
-10.709973 -78.11911 7.400315
-3.325264 -67.546307 9.626788
-2.954248 -67.830437 10.612695
-3.325264 -67.546307 9.626788
-4.416131 -68.594097 8.757962
-8.769645 -72.810699 5.851616
-7.713477 -71.703903 6.492284
-9.282926 -73.983284 6.080592
-9.726144 -73.866951 5.270677
-8.769645 -72.810699 5.851616
-10.223807 -76.10955 6.500277
-10.634778 -76.051285 5.739636
-9.828453 -75.097802 6.260293
-10.679659 -77.108292 6.657693
-10.223807 -76.10955 6.500277
-9.873334 -76.154808 7.17835
-10.908735 -77.860161 6.872631
-10.679659 -77.108292 6.657693
3 0 36 34
3 0 39 37
3 0 34 39
3 1 42 41
3 1 45 43
3 1 41 45
3 2 49 47
3 141 140 50
3 142 51 143
3 2 54 52
3 2 47 54
3 4 58 56
3 4 144 146
3 144 60 145
3 144 145 146
3 4 56 60
3 148 147 62
3 5 65 63
3 3 149 150
3 6 68 66
3 6 69 68
3 6 71 69
3 151 74 152
3 153 152 72
3 151 152 153
3 154 62 155
3 156 155 74
3 154 155 156
3 7 78 76
3 7 80 78
3 8 157 159
3 157 158 159
3 9 83 81
3 11 84 35
3 11 85 84
3 12 160 162
3 160 86 161
3 160 161 162
3 13 87 38
3 13 88 87
3 13 90 88
3 9 91 40
3 9 81 91
3 163 94 164
3 165 164 92
3 163 164 165
3 166 92 167
3 16 98 96
3 18 99 44
3 18 100 99
3 18 102 100
3 168 103 169
3 170 169 46
3 168 169 170
3 172 171 103
3 173 104 174
3 20 107 105
3 22 108 48
3 22 175 177
3 177 176 108
3 175 176 177
3 10 109 82
3 23 178 179
3 23 180 182
3 180 110 181
3 180 181 182
3 14 111 89
3 24 112 53
3 24 113 112
3 24 114 113
3 20 115 55
3 20 105 115
3 25 118 116
3 27 119 57
3 27 120 119
3 15 121 93
3 28 122 59
3 28 123 122
3 28 183 185
3 185 184 123
3 183 184 185
3 186 124 187
3 25 125 61
3 25 116 125
3 21 126 106
3 26 127 117
3 29 128 64
3 29 188 190
3 190 189 128
3 188 189 190
3 193 192 95
3 191 192 193
3 17 129 97
3 195 194 67
3 30 130 70
3 30 131 130
3 19 132 101
3 31 133 73
3 31 134 133
3 31 135 134
3 196 136 197
3 198 197 75
3 196 197 198
3 200 199 136
3 33 201 203
3 203 202 77
3 201 202 203
3 33 204 205
3 33 206 208
3 206 138 207
3 206 207 208
3 32 139 79
3 32 137 139
3 210 209 8
3 34 35 9
3 36 35 34
3 36 11 35
3 37 38 12
3 39 38 37
3 39 13 38
3 39 40 13
3 34 40 39
3 34 9 40
3 41 211 212
3 42 213 215
3 215 214 41
3 213 214 215
3 42 216 217
3 43 44 16
3 45 44 43
3 45 18 44
3 45 46 18
3 41 46 45
3 41 218 220
3 220 219 46
3 218 219 220
3 47 48 20
3 49 48 47
3 49 22 48
3 50 221 223
3 223 222 10
3 221 222 223
3 225 224 50
3 51 226 227
3 51 228 230
3 228 23 229
3 228 229 230
3 52 53 14
3 54 53 52
3 54 24 53
3 54 55 24
3 47 55 54
3 47 20 55
3 56 57 25
3 58 57 56
3 58 27 57
3 231 59 232
3 233 232 15
3 231 232 233
3 234 59 235
3 236 28 237
3 238 237 59
3 236 237 238
3 240 239 28
3 60 241 242
3 60 243 244
3 60 245 247
3 245 61 246
3 245 246 247
3 56 61 60
3 56 25 61
3 62 248 249
3 251 250 62
3 253 252 21
3 63 64 26
3 65 64 63
3 65 29 64
3 66 67 17
3 68 67 66
3 68 254 256
3 256 255 67
3 254 255 256
3 68 257 258
3 69 259 261
3 261 260 68
3 259 260 261
3 69 262 263
3 69 264 266
3 264 70 265
3 264 265 266
3 71 70 69
3 71 30 70
3 72 73 19
3 74 73 72
3 74 31 73
3 74 75 31
3 62 75 74
3 62 267 269
3 269 268 75
3 267 268 269
3 76 270 272
3 270 77 271
3 270 271 272
3 78 77 76
3 78 33 77
3 78 79 33
3 80 79 78
3 80 32 79
3 274 273 8
3 81 82 2
3 83 82 81
3 83 10 82
3 35 83 9
3 84 83 35
3 84 10 83
3 84 50 10
3 85 50 84
3 85 275 277
3 277 276 50
3 275 276 277
3 86 278 279
3 86 280 281
3 38 86 12
3 87 86 38
3 87 282 284
3 284 283 86
3 282 283 284
3 87 285 286
3 88 287 289
3 289 288 87
3 287 288 289
3 88 290 291
3 88 292 294
3 292 89 293
3 292 293 294
3 90 89 88
3 90 14 89
3 40 90 13
3 91 90 40
3 91 14 90
3 91 52 14
3 81 52 91
3 81 2 52
3 92 93 4
3 94 93 92
3 94 15 93
3 295 94 296
3 297 94 298
3 299 15 300
3 301 300 94
3 299 300 301
3 303 302 15
3 92 304 305
3 92 306 308
3 306 4 307
3 306 307 308
3 309 95 310
3 311 310 5
3 309 310 311
3 312 95 313
3 312 313 314
3 316 315 95
3 96 97 3
3 98 97 96
3 98 17 97
3 44 98 16
3 99 98 44
3 99 17 98
3 99 66 17
3 100 66 99
3 100 6 66
3 100 101 6
3 102 101 100
3 102 19 101
3 46 102 18
3 103 102 46
3 103 19 102
3 103 72 19
3 317 72 318
3 319 318 103
3 317 318 319
3 321 320 72
3 322 76 323
3 104 324 326
3 324 76 325
3 324 325 326
3 104 7 76
3 105 106 1
3 107 106 105
3 107 21 106
3 48 107 20
3 108 107 48
3 108 21 107
3 108 327 329
3 329 328 21
3 327 328 329
3 331 330 108
3 82 49 2
3 109 49 82
3 109 22 49
3 332 109 333
3 334 333 10
3 332 333 334
3 335 109 336
3 337 22 338
3 339 338 109
3 337 338 339
3 341 340 22
3 110 342 343
3 110 344 346
3 344 3 345
3 344 345 346
3 89 347 349
3 347 51 348
3 347 348 349
3 111 51 89
3 111 23 51
3 53 111 14
3 112 111 53
3 112 23 111
3 112 110 23
3 113 110 112
3 113 3 110
3 113 96 3
3 114 96 113
3 114 16 96
3 55 114 24
3 115 114 55
3 115 16 114
3 115 43 16
3 105 43 115
3 105 1 43
3 116 117 0
3 118 117 116
3 118 26 117
3 57 118 25
3 119 118 57
3 119 26 118
3 119 63 26
3 120 63 119
3 120 5 63
3 93 58 4
3 121 58 93
3 121 27 58
3 59 121 15
3 122 121 59
3 122 27 121
3 122 120 27
3 123 120 122
3 123 5 120
3 123 350 352
3 352 351 5
3 350 351 352
3 354 353 123
3 356 355 28
3 124 357 358
3 124 359 361
3 359 12 360
3 359 360 361
3 61 362 364
3 362 124 363
3 362 363 364
3 125 124 61
3 125 12 124
3 125 37 12
3 116 37 125
3 116 0 37
3 106 42 1
3 126 42 106
3 126 365 367
3 367 366 42
3 365 366 367
3 368 126 369
3 370 369 21
3 368 369 370
3 371 126 372
3 374 373 126
3 117 36 0
3 127 36 117
3 127 11 36
3 64 127 26
3 128 127 64
3 128 11 127
3 128 85 11
3 375 85 376
3 377 376 128
3 375 376 377
3 379 378 85
3 95 65 5
3 380 65 381
3 382 381 95
3 380 381 382
3 383 29 384
3 385 384 65
3 383 384 385
3 386 29 387
3 389 388 29
3 97 390 392
3 392 391 3
3 390 391 392
3 129 393 395
3 395 394 97
3 393 394 395
3 129 396 397
3 67 129 17
3 398 129 399
3 400 399 67
3 398 399 400
3 402 401 129
3 70 403 404
3 130 405 407
3 407 406 70
3 405 406 407
3 130 408 410
3 408 409 410
3 130 411 413
3 411 104 412
3 411 412 413
3 131 104 130
3 131 7 104
3 101 71 6
3 132 71 101
3 132 30 71
3 73 132 19
3 133 132 73
3 133 30 132
3 133 131 30
3 134 131 133
3 134 7 131
3 134 80 7
3 135 80 134
3 135 32 80
3 75 135 31
3 136 135 75
3 136 32 135
3 136 137 32
3 414 137 415
3 416 415 136
3 414 415 416
3 418 417 137
3 77 419 420
3 422 421 77
3 138 423 424
3 138 425 427
3 425 8 426
3 425 426 427
3 79 138 33
3 139 138 79
3 139 8 138
3 139 428 430
3 430 429 8
3 428 429 430
3 137 431 433
3 433 432 139
3 431 432 433
3 137 434 435
