ply
format ascii 1.0
element vertex 430
property float x
property float y
property float z
element face 471
property list uchar int vertex_index
end_header
22.46456 -10.954228 78.462555
36.689293 -9.648259 70.498962
42.060555 9.645266 60.409027
17.470814 -4.064771 77.721771
23.701481 -3.23505 70.670784
29.370289 -11.074526 74.989655
31.367792 -2.311983 66.746124
46.669403 0.63056 58.843559
39.580925 -0.440496 64.105003
20.006313 -8.217003 77.943748
20.512779 -3.456611 73.94754
23.145744 -7.671978 75.008606
19.745098 -12.545425 81.100433
16.653173 -9.50004 81.221397
23.222149 -14.185778 80.293137
25.543148 -11.206358 76.913864
27.072344 -14.725813 78.554253
26.681236 -7.446504 72.63253
22.080605 7.553295 66.530991
34.53867 -6.096042 69.031242
35.535427 -1.385334 65.560989
38.236053 -5.110843 67.107323
41.517921 -4.283329 64.555595
21.168505 1.843386 69.932968
24.363693 1.906326 66.81102
14.120764 -5.329515 81.365822
33.222256 -10.494011 72.91507
28.126638 2.212547 64.94043
27.339264 -2.948631 68.287453
30.586868 -6.950748 70.722847
44.778606 4.925016 59.755508
45.517693 9.593935 57.612015
48.181782 4.98295 56.521538
32.325089 2.873922 64.008904
36.683426 3.726633 63.261955
40.911575 4.48584 61.977333
43.31918 0.265823 61.925606
44.395504 -3.767977 61.207466
21.346966 -9.818089 78.218468
21.55529 -7.857153 76.401833
22.813011 -9.534188 76.978462
21.314213 -11.656565 79.681465
19.838974 -10.407176 79.667885
22.857235 -12.414726 79.385178
21.433544 -13.541163 80.827202
23.824293 -11.110392 77.784103
24.5707 -12.779553 78.728569
24.426926 -9.476697 75.895348
23.68034 7.539545 65.129448
38.20293 -9.215829 69.075188
35.794418 -7.864812 69.955078
36.433331 -5.600223 68.127335
37.513924 -7.388912 68.806541
39.103241 -6.938961 67.500786
42.462978 12.246794 59.563087
16.411934 -1.626471 77.851181
17.910294 -1.234228 75.842178
22.061199 -3.324909 72.213226
20.818056 -0.867424 71.894249
22.350086 -0.802347 70.13723
22.697758 1.863094 68.222855
23.996571 -0.742001 68.623497
17.050991 -6.819653 79.538528
15.306439 -7.530945 81.264481
15.855063 -4.608092 79.597672
14.811732 -2.195559 79.768883
31.322508 -10.833401 73.977875
32.244202 -12.59058 74.696312
30.342169 -12.829842 75.842339
25.776344 -0.635202 67.390816
25.460556 -3.125712 69.358932
28.117023 -9.301407 73.850906
28.606642 -7.248248 71.628059
30.077127 -9.074579 72.890137
32.041054 -8.744011 71.948288
45.89003 2.744413 59.36924
46.538326 4.997442 58.259827
47.556931 2.820717 57.700775
29.702856 -0.161407 65.727661
30.187294 2.503899 64.399666
31.797033 0.212317 65.185928
37.587307 -0.89649 64.901535
36.075478 1.11665 64.246246
38.191406 1.573816 63.671021
38.830437 4.135094 62.720467
40.251476 1.986738 62.931618
42.231609 2.328522 61.982651
41.496048 -0.046785 63.123062
41.902702 -6.22199 64.330017
43.000832 -3.984468 62.98201
18.680569 -6.279963 77.757385
19.004143 -3.688964 75.810501
20.240646 -5.908705 76.000938
21.801567 -5.684435 74.346352
23.432657 -5.553678 72.846085
18.144735 -11.18627 81.193871
18.394188 -8.77141 79.5811
27.421778 -11.199527 75.969597
28.387278 -12.955164 76.90284
26.440247 -12.94502 77.875275
25.113789 -14.555941 79.514755
25.173748 -5.442193 71.526268
24.85145 -7.568508 73.757202
26.214388 -9.425505 74.852097
48.201889 0.701931 56.972801
33.021229 -4.270168 67.899437
33.451725 -1.8701 66.149445
35.03989 -3.785485 67.183044
37.012146 -3.282798 66.407906
38.91291 -2.801016 65.511185
40.725513 -2.372656 64.445068
39.932011 -4.663313 65.926414
40.561768 -6.544082 66.011993
19.357977 -0.994179 73.825447
19.741777 1.794979 71.874954
20.163029 4.662743 70.015076
21.583275 4.657106 68.13147
23.134104 4.650988 66.541885
24.839842 4.690107 65.300438
13.432512 -8.411742 82.871552
12.259552 -6.232339 82.971428
35.022724 -10.086648 71.767967
34.04147 -12.265952 73.448921
29.041487 -14.735909 77.455772
26.701042 4.806356 64.411964
26.176851 2.014698 65.72345
27.685543 -0.446409 66.438713
29.318565 -2.677896 67.434052
27.029095 -5.284417 70.395149
28.978376 -5.040495 69.441315
30.98839 -4.698362 68.6287
32.578079 -6.558441 69.875908
33.960335 -8.329572 70.986176
43.45863 7.213995 60.084526
43.861469 9.680798 59.150558
45.260551 7.271933 58.722862
46.933762 7.224375 57.101288
49.120857 2.830334 55.810562
49.720158 4.906668 54.566101
40.120163 9.492043 61.373039
28.698774 5.013664 63.830154
30.801939 5.30711 63.467056
32.972836 5.665373 63.210632
33.932991 0.650066 64.723274
34.502979 3.293695 63.6633
37.354927 6.440212 62.564438
39.485764 6.781269 61.99115
41.528957 7.046841 61.172867
42.900333 4.753893 60.994682
44.114368 2.582708 60.798241
45.043682 0.490168 60.498932
42.441826 -2.019705 63.178833
44.061508 -1.752045 61.69796
45.590508 -1.567739 60.00235
24.011343 9.023332 64.555237
24.562863 7.563508 64.620991
36.932892 -10.573008 70.525311
37.689711 -10.356793 69.813423
37.446112 -9.432044 69.787075
42.261767 10.94603 59.986057
41.575115 12.24099 60.146481
41.373903 10.940226 60.569451
42.526497 -6.100007 63.394936
41.901241 -7.217982 64.031185
18.944916 -11.865848 81.147152
18.024377 -12.371198 81.851746
18.824558 -13.050776 81.805027
22.362879 -14.852256 80.974152
22.466237 -15.796599 81.27372
23.325507 -15.130121 80.592705
19.700939 -13.617693 81.64389
20.545162 -14.115561 81.507274
20.589321 -13.043294 80.963818
18.824558 -13.050776 81.805027
19.700939 -13.617693 81.64389
23.325507 -15.130121 80.592705
24.271327 -15.315202 80.203514
24.167969 -14.37086 79.903946
21.623019 9.057182 66.617531
21.357216 7.572059 67.407795
40.062 -7.682257 66.743476
39.832504 -6.741522 66.75639
39.332737 -7.879696 67.487873
40.672894 -7.513613 65.851719
40.062 -7.682257 66.743476
15.7105 -9.944433 82.003777
16.459214 -10.807737 81.953079
13.601435 -4.142036 81.447803
12.670829 -4.593447 82.250607
13.190158 -5.780927 82.168625
14.350767 -0.920895 79.896473
15.150831 -0.611021 78.943406
32.514533 -13.492283 74.80212
31.603802 -13.60308 75.468109
48.335766 6.036929 55.883541
47.711756 7.157642 56.173416
47.557772 6.103663 56.811413
49.386042 1.779168 55.360992
48.661373 1.766133 56.391681
48.926558 0.714966 55.942112
50.44556 4.855536 53.497196
50.156893 3.854246 54.146778
49.834776 5.90633 53.878315
50.44556 4.855536 53.497196
39.090807 9.366278 61.711479
39.439056 10.795407 61.474746
35.927145 4.891191 63.103153
34.836922 4.674722 63.303826
35.593203 3.510164 63.462627
37.019177 5.083423 62.913196
36.262895 6.247981 62.754395
35.927145 4.891191 63.103153
45.05844 -3.695995 60.227054
45.655941 -2.595876 59.624496
44.993006 -2.667858 60.604908
44.795468 10.857285 57.850929
43.967355 10.900717 58.620201
44.689581 9.637366 58.381287
23.175511 9.025634 65.136593
22.375644 9.032509 65.837365
22.880472 7.54642 65.830219
23.175511 9.025634 65.136593
24.011343 9.023332 64.555237
38.343748 -10.167824 68.968254
38.882582 -9.01813 68.275074
38.343748 -10.167824 68.968254
37.689711 -10.356793 69.813423
38.882582 -9.01813 68.275074
39.332737 -7.879696 67.487873
38.653086 -8.077395 68.287987
41.802726 13.609022 59.746769
41.575115 12.24099 60.146481
42.583089 13.530362 59.045368
41.802726 13.609022 59.746769
16.689064 -0.112147 76.959774
15.950933 -0.326477 77.984555
17.438244 0.083974 75.955273
16.689064 -0.112147 76.959774
17.161114 -1.43035 76.846679
18.136561 0.214801 74.898506
17.438244 0.083974 75.955273
15.950933 -0.326477 77.984555
15.150831 -0.611021 78.943406
15.611833 -1.911015 78.810032
30.652786 -13.722711 76.041123
31.603802 -13.60308 75.468109
31.293185 -12.710211 75.269326
27.234178 -15.642004 78.667687
26.239472 -15.565985 79.237893
43.075562 -4.981246 62.720932
42.451767 -5.103229 63.656014
42.526497 -6.100007 63.394936
43.772897 -4.873 61.83366
43.698168 -3.876222 62.094738
43.075562 -4.981246 62.720932
44.365229 -4.787109 60.813499
43.772897 -4.873 61.83366
45.522037 10.727772 56.977814
46.279038 9.495617 56.717277
17.204995 -11.650852 81.939316
18.024377 -12.371198 81.851746
17.398954 -10.343155 81.207634
16.459214 -10.807737 81.953079
17.204995 -11.650852 81.939316
21.468577 -14.529949 81.241185
22.362879 -14.852256 80.974152
22.327846 -13.863471 80.56017
21.468577 -14.529949 81.241185
20.545162 -14.115561 81.507274
25.260195 -15.481049 79.718143
26.239472 -15.565985 79.237893
26.093066 -14.640877 79.034504
25.260195 -15.481049 79.718143
24.271327 -15.315202 80.203514
47.620552 -0.376233 57.538635
47.435646 0.666246 57.90818
46.854309 -0.411918 58.474014
48.311318 -0.344546 56.500488
47.620552 -0.376233 57.538635
48.926558 0.714966 55.942112
48.311318 -0.344546 56.500488
21.623019 9.057182 66.617531
22.375644 9.032509 65.837365
41.343361 -7.352567 65.01073
41.232235 -6.383036 65.171005
40.672894 -7.513613 65.851719
41.901241 -7.217982 64.031185
41.343361 -7.352567 65.01073
18.860402 0.334825 73.890141
18.136561 0.214801 74.898506
18.634135 -1.114204 74.833812
19.052302 1.729405 72.914894
18.860402 0.334825 73.890141
19.549877 0.4004 72.8502
19.283659 3.205087 71.987735
19.052302 1.729405 72.914894
19.494286 4.638968 71.057796
19.283659 3.205087 71.987735
19.952403 3.228861 70.945015
19.732631 6.133005 70.161999
19.494286 4.638968 71.057796
20.398428 6.126784 69.149837
19.732631 6.133005 70.161999
21.108551 6.123965 68.208034
20.398428 6.126784 69.149837
20.873152 4.659924 69.073273
21.83194 6.105201 67.331231
21.357216 7.572059 67.407795
21.108551 6.123965 68.208034
25.142614 6.138789 64.706486
24.562863 7.563508 64.620991
24.260091 6.114826 65.214943
15.037133 -8.959886 82.025318
15.7105 -9.944433 82.003777
15.979806 -8.515493 81.242939
14.10017 -9.400284 82.828854
15.037133 -8.959886 82.025318
14.369476 -7.971343 82.068016
13.092275 -9.920827 83.547177
14.10017 -9.400284 82.828854
12.43746 -8.935593 83.592873
13.092275 -9.920827 83.547177
11.85098 -7.845891 83.642811
12.43746 -8.935593 83.592873
12.846032 -7.32204 82.92149
11.27517 -6.774884 83.672283
11.85098 -7.845891 83.642811
11.742034 -5.070785 83.028477
11.27517 -6.774884 83.672283
11.742034 -5.070785 83.028477
12.670829 -4.593447 82.250607
13.946919 -2.575057 80.649334
13.601435 -4.142036 81.447803
14.466248 -3.762537 80.567352
13.946919 -2.575057 80.649334
14.350767 -0.920895 79.896473
35.358246 -10.988329 71.921741
36.19153 -10.769134 71.287239
35.856009 -9.867453 71.133465
34.867619 -12.077981 72.762218
35.358246 -10.988329 71.921741
34.532097 -11.1763 72.608444
34.251478 -13.184216 73.448959
34.867619 -12.077981 72.762218
33.413167 -13.329969 74.178425
33.142836 -12.428266 74.072617
32.514533 -13.492283 74.80212
34.251478 -13.184216 73.448959
33.413167 -13.329969 74.178425
30.002444 -14.675745 76.847839
30.652786 -13.722711 76.041123
29.691828 -13.782875 76.649056
28.218749 -15.647052 78.118446
28.056916 -14.730861 78.005012
27.234178 -15.642004 78.667687
29.194758 -15.650612 77.478405
28.218749 -15.647052 78.118446
30.002444 -14.675745 76.847839
29.194758 -15.650612 77.478405
25.770442 4.748232 64.856201
26.073214 6.196913 64.262249
25.142614 6.138789 64.706486
46.987072 8.310837 56.461914
46.279038 9.495617 56.717277
46.225728 8.409155 57.356651
46.987072 8.310837 56.461914
47.711756 7.157642 56.173416
49.857242 2.816079 54.769008
49.386042 1.779168 55.360992
49.420507 3.868501 55.188332
49.857242 2.816079 54.769008
50.156893 3.854246 54.146778
49.104954 5.998788 54.905822
48.335766 6.036929 55.883541
48.95097 4.944809 55.543819
49.104954 5.998788 54.905822
49.834776 5.90633 53.878315
36.932892 -10.573008 70.525311
36.19153 -10.769134 71.287239
40.403707 10.863615 61.051457
39.439056 10.795407 61.474746
41.090359 9.568655 60.891033
41.373903 10.940226 60.569451
40.403707 10.863615 61.051457
27.03295 6.26274 63.933933
26.073214 6.196913 64.262249
28.031816 6.366394 63.643028
27.03295 6.26274 63.933933
27.699908 4.91001 64.121059
29.055166 6.476062 63.456539
28.031816 6.366394 63.643028
30.106749 6.622784 63.27499
29.055166 6.476062 63.456539
29.750357 5.160387 63.648605
31.175067 6.769498 63.173648
30.106749 6.622784 63.27499
32.260515 6.948629 63.045436
31.175067 6.769498 63.173648
31.887388 5.486242 63.338844
33.352473 7.118535 62.964733
32.260515 6.948629 63.045436
34.07185 5.860561 63.077491
33.737908 4.479534 63.436966
34.836922 4.674722 63.303826
33.352473 7.118535 62.964733
34.07185 5.860561 63.077491
36.636568 7.680707 62.520001
36.262895 6.247981 62.754395
37.708189 7.840362 62.307179
36.636568 7.680707 62.520001
38.773607 8.010891 62.020534
37.708189 7.840362 62.307179
38.420346 6.610741 62.277794
39.802964 8.136656 61.682094
39.090807 9.366278 61.711479
38.773607 8.010891 62.020534
46.314861 -1.511068 59.05341
46.854309 -0.411918 58.474014
46.129956 -0.468589 59.422955
46.314861 -1.511068 59.05341
45.655941 -2.595876 59.624496
45.05844 -3.695995 60.227054
44.365229 -4.787109 60.813499
43.26811 12.183715 58.826465
43.162223 10.963796 59.356822
43.967355 10.900717 58.620201
42.583089 13.530362 59.045368
43.26811 12.183715 58.826465
44.795468 10.857285 57.850929
45.522037 10.727772 56.977814
3 0 40 38
3 0 38 41
3 0 41 43
3 0 43 45
3 0 45 40
3 155 154 48
3 1 156 158
3 158 157 49
3 156 157 158
3 1 52 50
3 1 49 52
3 2 159 161
3 159 54 160
3 159 160 161
3 3 56 55
3 4 59 57
3 4 61 59
3 3 64 62
3 3 55 64
3 5 68 66
3 4 70 61
3 5 73 71
3 5 66 73
3 7 77 75
3 6 80 78
3 8 83 81
3 8 85 83
3 8 87 85
3 163 162 88
3 9 92 90
3 11 93 39
3 11 94 93
3 12 164 166
3 164 95 165
3 164 165 166
3 9 96 42
3 9 90 96
3 14 167 169
3 167 168 169
3 12 170 172
3 172 171 44
3 170 171 172
3 12 173 174
3 15 99 97
3 14 100 46
3 14 175 177
3 177 176 100
3 175 176 177
3 11 102 94
3 15 103 47
3 15 97 103
3 18 178 179
3 19 107 105
3 21 108 51
3 21 109 108
3 21 111 109
3 180 112 181
3 182 181 53
3 180 181 182
3 184 183 112
3 10 113 91
3 23 114 58
3 23 115 114
3 23 116 115
3 24 117 60
3 24 118 117
3 13 185 186
3 25 119 63
3 25 120 119
3 25 187 189
3 189 188 120
3 187 188 189
3 191 190 65
3 26 122 121
3 193 192 67
3 16 123 98
3 24 125 118
3 28 126 69
3 28 127 126
3 17 128 101
3 29 129 72
3 29 130 129
3 29 131 130
3 26 132 74
3 26 121 132
3 30 135 133
3 32 136 76
3 32 194 196
3 196 195 136
3 194 195 196
3 197 137 198
3 199 198 104
3 197 198 199
3 200 138 201
3 203 202 138
3 204 139 205
3 27 140 124
3 33 141 79
3 33 142 141
3 20 143 106
3 34 144 82
3 34 206 208
3 208 207 144
3 206 207 208
3 34 209 211
3 209 145 210
3 209 210 211
3 35 146 84
3 35 147 146
3 35 148 147
3 36 149 86
3 36 150 149
3 22 151 110
3 37 152 89
3 37 153 152
3 37 212 214
3 214 213 153
3 212 213 214
3 31 215 217
3 217 216 134
3 215 216 217
3 38 39 9
3 40 39 38
3 40 11 39
3 41 42 12
3 38 42 41
3 38 9 42
3 43 44 14
3 41 44 43
3 41 12 44
3 45 46 15
3 43 46 45
3 43 14 46
3 40 47 11
3 45 47 40
3 45 15 47
3 48 218 220
3 220 219 18
3 218 219 220
3 222 221 48
3 49 223 224
3 226 225 49
3 50 51 19
3 52 51 50
3 52 21 51
3 52 53 21
3 49 53 52
3 49 227 229
3 229 228 53
3 227 228 229
3 54 230 231
3 54 232 233
3 55 234 235
3 56 236 238
3 238 237 55
3 236 237 238
3 56 239 240
3 57 58 10
3 59 58 57
3 59 23 58
3 59 60 23
3 61 60 59
3 61 24 60
3 62 63 13
3 64 63 62
3 64 25 63
3 64 65 25
3 55 65 64
3 55 241 243
3 243 242 65
3 241 242 243
3 66 67 26
3 68 67 66
3 68 244 246
3 246 245 67
3 244 245 246
3 248 247 16
3 61 69 24
3 70 69 61
3 70 28 69
3 71 72 17
3 73 72 71
3 73 29 72
3 73 74 29
3 66 74 73
3 66 26 74
3 75 76 30
3 77 76 75
3 77 32 76
3 78 79 27
3 80 79 78
3 80 33 79
3 81 82 20
3 83 82 81
3 83 34 82
3 83 84 34
3 85 84 83
3 85 35 84
3 85 86 35
3 87 86 85
3 87 36 86
3 88 89 22
3 249 89 250
3 251 250 88
3 249 250 251
3 252 37 253
3 254 253 89
3 252 253 254
3 256 255 37
3 258 257 31
3 90 91 3
3 92 91 90
3 92 10 91
3 39 92 9
3 93 92 39
3 93 10 92
3 93 57 10
3 94 57 93
3 94 4 57
3 95 259 260
3 95 261 263
3 261 13 262
3 261 262 263
3 42 95 12
3 96 95 42
3 96 13 95
3 96 62 13
3 90 62 96
3 90 3 62
3 44 264 266
3 266 265 14
3 264 265 266
3 268 267 44
3 97 98 5
3 99 98 97
3 99 16 98
3 46 99 15
3 100 99 46
3 100 16 99
3 100 269 271
3 271 270 16
3 269 270 271
3 273 272 100
3 94 101 4
3 102 101 94
3 102 17 101
3 47 102 11
3 103 102 47
3 103 17 102
3 103 71 17
3 97 71 103
3 97 5 71
3 274 104 275
3 276 275 7
3 274 275 276
3 277 104 278
3 280 279 104
3 282 281 18
3 105 106 6
3 107 106 105
3 107 20 106
3 51 107 19
3 108 107 51
3 108 20 107
3 108 81 20
3 109 81 108
3 109 8 81
3 109 110 8
3 111 110 109
3 111 22 110
3 53 111 21
3 112 111 53
3 112 22 111
3 112 88 22
3 283 88 284
3 285 284 112
3 283 284 285
3 287 286 88
3 91 56 3
3 113 56 91
3 113 288 290
3 290 289 56
3 288 289 290
3 58 113 10
3 114 113 58
3 114 291 293
3 293 292 113
3 291 292 293
3 114 294 295
3 115 296 298
3 298 297 114
3 296 297 298
3 115 299 300
3 115 301 302
3 116 303 305
3 305 304 115
3 303 304 305
3 116 306 308
3 306 18 307
3 306 307 308
3 60 116 23
3 117 116 60
3 117 18 116
3 117 48 18
3 118 48 117
3 118 309 311
3 311 310 48
3 309 310 311
3 63 312 314
3 314 313 13
3 312 313 314
3 119 315 317
3 317 316 63
3 315 316 317
3 119 318 319
3 119 320 321
3 120 322 324
3 324 323 119
3 322 323 324
3 120 325 326
3 120 327 328
3 330 329 120
3 65 331 333
3 333 332 25
3 331 332 333
3 335 334 65
3 121 336 338
3 338 337 1
3 336 337 338
3 122 339 341
3 341 340 121
3 339 340 341
3 122 342 343
3 67 122 26
3 344 122 345
3 346 345 67
3 344 345 346
3 348 347 122
3 98 68 5
3 123 68 98
3 123 349 351
3 351 350 68
3 349 350 351
3 352 123 353
3 354 353 16
3 352 353 354
3 355 123 356
3 358 357 123
3 118 359 361
3 359 124 360
3 359 360 361
3 125 124 118
3 125 27 124
3 69 125 24
3 126 125 69
3 126 27 125
3 126 78 27
3 127 78 126
3 127 6 78
3 101 70 4
3 128 70 101
3 128 28 70
3 72 128 17
3 129 128 72
3 129 28 128
3 129 127 28
3 130 127 129
3 130 6 127
3 130 105 6
3 131 105 130
3 131 19 105
3 74 131 29
3 132 131 74
3 132 19 131
3 132 50 19
3 121 50 132
3 121 1 50
3 133 134 2
3 135 134 133
3 135 31 134
3 76 135 30
3 136 135 76
3 136 31 135
3 136 362 364
3 364 363 31
3 362 363 364
3 366 365 136
3 104 77 7
3 137 77 104
3 137 32 77
3 367 137 368
3 138 369 371
3 369 137 370
3 369 370 371
3 138 32 137
3 138 372 374
3 374 373 32
3 372 373 374
3 376 375 138
3 378 377 1
3 139 379 380
3 139 381 383
3 381 2 382
3 381 382 383
3 124 384 385
3 140 386 388
3 388 387 124
3 386 387 388
3 140 389 390
3 79 140 27
3 141 140 79
3 141 391 393
3 393 392 140
3 391 392 393
3 141 394 395
3 142 396 398
3 398 397 141
3 396 397 398
3 142 399 400
3 106 80 6
3 143 80 106
3 143 33 80
3 82 143 20
3 144 143 82
3 144 33 143
3 144 142 33
3 401 142 402
3 403 402 144
3 401 402 403
3 405 404 142
3 145 406 407
3 145 408 409
3 84 145 34
3 146 145 84
3 146 410 412
3 412 411 145
3 410 411 412
3 146 413 415
3 413 139 414
3 413 414 415
3 147 139 146
3 147 2 139
3 147 133 2
3 148 133 147
3 148 30 133
3 86 148 35
3 149 148 86
3 149 30 148
3 149 75 30
3 150 75 149
3 150 7 75
3 110 87 8
3 151 87 110
3 151 36 87
3 89 151 22
3 152 151 89
3 152 36 151
3 152 150 36
3 153 150 152
3 153 7 150
3 153 416 418
3 418 417 7
3 416 417 418
3 420 419 153
3 422 421 37
3 134 54 2
3 423 54 424
3 425 424 134
3 423 424 425
3 427 426 54
3 429 428 31
