ply
format ascii 1.0
element vertex 500
property float x
property float y
property float z
element face 550
property list uchar int vertex_index
end_header
5.677126 -83.504761 33.015877
11.692596 -80.275421 13.229957
2.860577 -74.592484 28.458313
8.735958 -81.36293 23.037193
5.815357 -72.919754 19.305347
9.198866 -71.454178 10.394329
0.771454 -63.285309 16.900967
6.190922 -92.704819 48.064735
7.471224 -92.748863 38.200718
3.032101 -84.853073 42.467358
7.34086 -90.860718 27.094389
11.892181 -68.605652 2.658763
4.21475 -73.775299 23.895916
2.111483 -69.250732 22.185593
3.319933 -68.425476 17.775221
3.16246 -88.664345 49.882263
4.515465 -89.032967 45.267212
1.846968 -84.883926 47.040146
4.84799 -91.639473 52.649277
6.714296 -88.088348 35.528355
7.459536 -91.969917 32.741745
7.616501 -87.080727 30.301346
10.255133 -80.572342 18.037167
12.929182 -80.21273 8.780594
6.218931 -66.373032 9.390229
10.738132 -70.414017 6.338008
7.68952 -64.808426 5.612819
4.366623 -79.048988 30.649662
7.18257 -82.447838 28.067638
6.010986 -78.074486 25.932846
7.786041 -77.110931 21.148092
9.545931 -76.408653 16.37076
11.210724 -76.004349 11.750689
7.51008 -72.170807 14.760096
4.721724 -67.500122 13.476692
1.722212 -62.116783 12.799814
8.522881 -96.725136 45.851013
8.140327 -97.17942 40.841885
7.101486 -93.031792 43.308334
5.706755 -88.778198 40.523071
4.295427 -84.340294 37.818447
1.926651 -80.36705 39.848572
2.998631 -79.839142 35.284271
1.892233 -75.220306 32.986343
7.110027 -96.877975 35.336426
8.493141 -85.9263 24.966795
12.661724 -75.525307 7.450027
1.625931 -69.612495 24.408205
1.059992 -66.80217 21.56201
1.82214 -86.506676 50.766937
2.450966 -86.855667 48.449501
2.479578 -88.178055 52.206627
6.233511 -85.778282 34.251381
7.173073 -87.617065 32.937969
6.858175 -85.277519 31.72691
10.988001 -80.365158 15.598252
12.349901 -80.252419 10.952389
4.566645 -63.583813 9.083595
6.968016 -65.661247 7.457677
3.632927 -76.832939 29.524067
5.16156 -78.57592 28.30155
4.369364 -76.397163 27.216486
4.995184 -73.340508 21.601402
6.025917 -75.466576 22.555475
6.901375 -75.029121 20.209646
8.673855 -76.716248 18.750525
7.783739 -74.644501 17.867266
8.661585 -74.321655 15.545259
6.657803 -72.529419 17.019527
2.033276 -65.952461 17.241131
4.003477 -67.977356 15.606018
2.606108 -65.457458 15.125646
3.223114 -64.908615 13.05318
1.218895 -62.737129 14.829077
7.529099 -94.698624 47.03157
7.796413 -94.981133 44.643402
6.71456 -92.952507 45.722855
3.739765 -86.989021 43.85186
5.136475 -88.969788 42.922112
4.373508 -86.834389 41.523739
4.996691 -86.569115 39.152061
3.65202 -84.644409 40.159576
1.208994 -78.163231 40.897305
1.555893 -78.026382 38.634735
2.430239 -80.139229 37.573631
1.954155 -77.820358 36.369644
2.424517 -77.551155 34.098076
5.554428 -92.271866 50.362343
6.496201 -93.566727 51.60788
7.084715 -94.229172 49.341896
7.794975 -95.021973 39.551689
7.67944 -97.115387 38.146988
7.578369 -94.803078 36.840881
7.395464 -91.44001 29.926849
7.959454 -81.89019 25.556923
8.12248 -84.153305 26.579914
8.756145 -83.596909 23.988197
10.365566 -73.781815 11.044214
11.975588 -75.811897 9.552557
11.160528 -73.466599 8.903913
11.378366 -69.628883 4.449506
12.496719 -72.398895 4.905633
12.971453 -71.514709 3.054538
12.263201 -67.321304 0.968516
2.060974 -72.299393 27.4827
3.495916 -74.20034 26.182232
2.570362 -71.95089 25.232277
3.177452 -71.561989 22.978251
3.860821 -71.150742 20.724167
4.59869 -70.734322 18.477625
2.683474 -68.851318 19.971926
1.51298 -66.400902 19.389507
4.673748 -90.711403 48.997932
5.336012 -90.953468 46.68605
3.851027 -88.940804 47.578438
3.095972 -87.006439 46.152885
2.430456 -84.942802 44.754673
3.249022 -89.623207 53.621727
3.963737 -90.274033 51.299774
7.121656 -90.421913 36.848602
7.496826 -92.413979 35.508057
7.376453 -90.00457 34.199245
7.592466 -89.502556 31.49177
7.792007 -88.939346 28.748539
9.502956 -80.910912 20.524166
9.388737 -83.106056 21.409657
10.021233 -82.72757 18.866278
7.789425 -68.992004 9.833341
10.000668 -71.003769 8.321571
8.57395 -68.405632 7.832114
9.308315 -67.673454 5.918331
9.963511 -66.756058 4.098805
10.515583 -65.627777 2.379565
5.051495 -81.266029 31.815998
6.417688 -82.995758 30.55706
5.849586 -80.767258 29.417103
6.687803 -80.236717 26.992928
7.5474 -79.704712 24.548801
5.174555 -75.932617 24.893108
6.892941 -77.574409 23.546156
8.409924 -79.209854 22.093418
9.261288 -78.791458 19.639898
10.092686 -78.477974 17.206129
10.897852 -78.274887 14.813752
11.667635 -78.156342 12.485521
10.394873 -76.182777 14.030046
9.526091 -74.046936 13.263981
8.361666 -71.825272 12.54561
5.373304 -70.322235 16.250191
6.171488 -69.910477 14.056471
6.981686 -69.47876 11.912421
5.464357 -66.974915 11.400454
3.878906 -64.290794 11.035105
8.435499 -97.052574 43.409096
7.8794 -95.085442 42.153618
7.348665 -92.959129 40.802914
5.91964 -91.023575 44.33411
6.409452 -90.945534 41.91814
6.805901 -90.739799 39.423996
6.229452 -88.479393 38.059006
5.614471 -86.212662 36.728249
4.969105 -83.956734 35.437492
1.374441 -82.775406 45.679703
1.881891 -82.772797 43.404556
1.472715 -80.510193 42.115391
2.420465 -82.643158 41.129501
2.997723 -82.412209 38.840321
3.623901 -82.098465 36.527596
4.307615 -81.713531 34.186558
3.643108 -79.473701 32.976921
2.98237 -77.220879 31.817116
2.324539 -74.935066 30.725403
7.275431 -94.445335 34.036995
7.488762 -84.726822 29.165119
8.053608 -86.504288 27.636936
7.997351 -88.352051 25.99651
8.944983 -85.397148 22.315462
12.384439 -78.063843 10.242024
13.020103 -77.913193 8.098582
11.882341 -73.029541 6.85565
1.555189 -85.575809 50.056244
1.294674 -85.352646 51.229198
1.294674 -85.352646 51.229198
1.527876 -86.221493 51.94725
11.483885 -81.337608 13.603237
11.131587 -81.382477 14.787384
11.340298 -80.32029 14.414105
11.779784 -81.34375 12.450603
11.483885 -81.337608 13.603237
12.021248 -80.26392 12.091173
12.108436 -81.332249 11.311819
11.779784 -81.34375 12.450603
4.920931 -63.175469 8.147274
3.737425 -62.102312 9.00039
1.423168 -76.823204 38.068344
1.314326 -76.881858 39.19833
1.622299 -76.720192 36.935799
1.755024 -77.92337 37.50219
1.423168 -76.823204 38.068344
1.754322 -76.634063 35.806956
1.622299 -76.720192 36.935799
6.975475 -92.142803 27.678038
7.002777 -92.432449 29.094268
7.368162 -91.150364 28.510619
6.843294 -91.855835 26.228571
6.975475 -92.142803 27.678038
12.589187 -69.471695 1.979473
13.128823 -70.926223 2.17736
12.431817 -70.060181 2.85665
12.077691 -67.963478 1.81364
12.774697 -68.829521 1.13435
12.589187 -69.471695 1.979473
1.909627 -70.937485 25.933407
2.315668 -72.125141 26.357489
1.654933 -71.111737 27.058619
0.782345 -65.292439 20.264145
1.286486 -66.601536 20.475758
0.555851 -65.493073 21.350397
0.215742 -63.975586 20.072648
0.946377 -65.08405 19.198009
0.782345 -65.292439 20.264145
2.543993 -88.544094 54.098252
2.913957 -89.186401 54.80442
12.868427 -81.313198 8.094127
12.660896 -81.332195 9.129893
13.161009 -80.133075 7.751637
12.868427 -81.313198 8.094127
8.025046 -64.300215 4.73877
9.162041 -65.274031 3.981763
8.826515 -65.782242 4.855812
2.003497 -61.765768 11.812231
3.081844 -62.852773 10.929876
2.800559 -63.203789 11.917459
8.47919 -96.888855 44.630054
8.749498 -97.91909 43.945099
8.793188 -97.755371 45.166058
1.214368 -81.662064 45.031815
1.018239 -81.615898 46.173401
1.468093 -81.660759 43.894241
1.628166 -82.774102 44.54213
1.214368 -81.662064 45.031815
5.333157 -92.174366 53.257924
4.487882 -91.219314 53.803306
7.003286 -94.05188 52.134766
7.264667 -94.51429 51.02512
8.920137 -97.457146 46.346927
8.45379 -96.459538 47.018093
8.793188 -97.755371 45.166058
8.920137 -97.457146 46.346927
8.003807 -98.231548 40.09477
8.352284 -98.164237 41.414154
7.075164 -98.042233 35.953101
7.359871 -98.160939 37.358382
7.394733 -96.996681 36.741707
6.634793 -97.91278 34.504555
7.075164 -98.042233 35.953101
9.182059 -85.183757 21.012089
9.16686 -84.251602 21.862559
9.403935 -84.038211 20.559186
13.100869 -76.566605 6.756554
13.280058 -77.760548 7.080832
12.840913 -76.71925 7.774305
12.865808 -73.728904 5.177935
13.079308 -73.367462 4.229421
10.734468 -64.954384 1.574284
9.739541 -64.115364 2.301432
1.034345 -68.524795 25.179611
1.437412 -69.768287 25.521371
1.160708 -68.381302 24.079694
1.034345 -68.524795 25.179611
1.403484 -68.20042 22.968388
1.868707 -69.431613 23.296899
1.160708 -68.381302 24.079694
0.877738 -66.976139 22.656597
1.585738 -68.026451 21.873801
1.403484 -68.20042 22.968388
0.432311 -65.667667 22.426986
0.877738 -66.976139 22.656597
0.555851 -65.493073 21.350397
0.432311 -65.667667 22.426986
1.869602 -85.750305 48.897526
2.136553 -86.681172 49.608219
1.555189 -85.575809 50.056244
1.567603 -84.764434 48.192848
2.148967 -85.869797 47.744823
1.869602 -85.750305 48.897526
1.856595 -87.057183 52.667095
2.159271 -87.821518 53.390701
2.150859 -87.342365 51.486782
1.856595 -87.057183 52.667095
1.527876 -86.221493 51.94725
10.820412 -81.428608 15.989709
10.453979 -81.5322 17.209167
10.621567 -80.46875 16.817709
10.820412 -81.428608 15.989709
11.131587 -81.382477 14.787384
12.371255 -81.35204 10.21579
12.108436 -81.332249 11.311819
12.639541 -80.232574 9.866492
12.660896 -81.332195 9.129893
12.371255 -81.35204 10.21579
6.121617 -64.214185 7.334316
5.76733 -64.62253 8.270636
4.920931 -63.175469 8.147274
6.482368 -63.787775 6.411886
7.328768 -65.234837 6.535248
6.121617 -64.214185 7.334316
6.839495 -63.316807 5.520962
6.482368 -63.787775 6.411886
1.140876 -76.950283 40.329615
1.041596 -76.978329 41.462231
1.382443 -78.094807 39.76602
1.140876 -76.950283 40.329615
1.314326 -76.881858 39.19833
1.989503 -76.499462 34.671171
2.189336 -77.685756 35.23386
1.754322 -76.634063 35.806956
1.723361 -75.334037 34.115305
2.158375 -76.38573 33.542209
1.989503 -76.499462 34.671171
7.558924 -94.845513 49.892128
7.264667 -94.51429 51.02512
6.790458 -93.89795 50.474888
7.734707 -95.211556 48.763534
7.558924 -94.845513 49.892128
7.956899 -95.446281 47.608372
7.734707 -95.211556 48.763534
7.306907 -94.463898 48.186733
8.02599 -95.71188 46.441292
8.45379 -96.459538 47.018093
7.956899 -95.446281 47.608372
7.165744 -92.706768 30.546438
7.19778 -92.971722 31.953886
7.4275 -91.704963 31.334297
7.165744 -92.706768 30.546438
7.002777 -92.432449 29.094268
13.316676 -72.925369 3.303873
13.079308 -73.367462 4.229421
12.734086 -71.956802 3.980085
13.445999 -72.407638 2.403907
13.316676 -72.925369 3.303873
13.445999 -72.407638 2.403907
13.128823 -70.926223 2.17736
12.852211 -68.087753 0.305088
12.774697 -68.829521 1.13435
12.379305 -66.548339 0.177009
12.852211 -68.087753 0.305088
2.098146 -70.781692 24.820241
1.909627 -70.937485 25.933407
1.437412 -69.768287 25.521371
1.206525 -64.859829 18.123821
1.773128 -66.176682 18.315319
0.946377 -65.08405 19.198009
0.575614 -63.526253 17.95374
1.402365 -64.618885 17.071049
1.206525 -64.859829 18.123821
3.688398 -90.211181 54.289531
2.913957 -89.186401 54.80442
4.048506 -90.63134 53.135502
4.487882 -91.219314 53.803306
3.688398 -90.211181 54.289531
2.8643 -88.900631 52.914177
2.543993 -88.544094 54.098252
2.159271 -87.821518 53.390701
9.720184 -83.848968 19.287497
9.403935 -84.038211 20.559186
9.704985 -82.916813 20.137968
10.337029 -82.609814 17.623722
10.138183 -81.649956 18.451723
10.453979 -81.5322 17.209167
9.971164 -83.707989 18.019047
10.337029 -82.609814 17.623722
9.720184 -83.848968 19.287497
9.971164 -83.707989 18.019047
9.438077 -64.709891 3.122143
10.239547 -66.191917 3.239185
9.162041 -65.274031 3.981763
9.739541 -64.115364 2.301432
9.438077 -64.709891 3.122143
8.025046 -64.300215 4.73877
6.839495 -63.316807 5.520962
3.425713 -62.499283 9.954121
4.222776 -63.937303 10.05935
3.081844 -62.852773 10.929876
3.737425 -62.102312 9.00039
3.425713 -62.499283 9.954121
8.49987 -98.100815 42.69776
8.749498 -97.91909 43.945099
8.287913 -97.115997 42.12549
8.352284 -98.164237 41.414154
8.49987 -98.100815 42.69776
1.371412 -83.752441 47.506342
1.567603 -84.764434 48.192848
1.135148 -82.698181 46.826121
1.018239 -81.615898 46.173401
1.610704 -83.829666 46.359925
1.371412 -83.752441 47.506342
1.135148 -82.698181 46.826121
1.051035 -78.190441 42.030287
1.041596 -76.978329 41.462231
1.182895 -79.363922 42.63933
1.051035 -78.190441 42.030287
1.340854 -79.336712 41.506348
1.263505 -80.529457 43.249659
1.182895 -79.363922 42.63933
1.677303 -81.641495 42.759974
1.468093 -81.660759 43.894241
1.263505 -80.529457 43.249659
1.545546 -74.116626 33.603122
1.723361 -75.334037 34.115305
1.63663 -74.025886 32.480207
1.545546 -74.116626 33.603122
1.852783 -73.883267 31.349737
2.108386 -75.077686 31.855873
1.63663 -74.025886 32.480207
1.994226 -73.764804 30.227353
1.852783 -73.883267 31.349737
2.262246 -73.593514 29.093808
2.592558 -74.763775 29.591858
1.994226 -73.764804 30.227353
1.862444 -72.446968 28.606002
2.460776 -73.445938 27.970506
2.262246 -73.593514 29.093808
1.52814 -71.238068 28.172443
1.862444 -72.446968 28.606002
1.654933 -71.111737 27.058619
1.52814 -71.238068 28.172443
6.157262 -93.137993 52.737225
5.333157 -92.174366 53.257924
5.672096 -92.6031 52.128579
6.157262 -93.137993 52.737225
7.003286 -94.05188 52.134766
0.031656 -62.10753 17.864682
0.575614 -63.526253 17.95374
0.158901 -61.846203 16.828062
0.031656 -62.10753 17.864682
0.382621 -61.572113 15.792116
0.995175 -63.011219 15.865022
0.158901 -61.846203 16.828062
0.540987 -61.270632 14.770433
0.382621 -61.572113 15.792116
0.792646 -60.960459 13.755801
1.470554 -62.426956 13.814445
0.540987 -61.270632 14.770433
0.988445 -60.617452 12.753984
0.792646 -60.960459 13.755801
2.003497 -61.765768 11.812231
0.988445 -60.617452 12.753984
7.773364 -98.199532 38.747322
8.003807 -98.231548 40.09477
7.909883 -97.147403 39.494436
7.453794 -99.245083 37.958715
7.773364 -98.199532 38.747322
7.359871 -98.160939 37.358382
7.105728 -94.20943 32.601511
7.367484 -93.207626 33.38937
7.19778 -92.971722 31.953886
6.885409 -95.469929 33.235861
7.105728 -94.20943 32.601511
6.802706 -96.686249 33.885576
7.192729 -95.661655 34.686711
6.885409 -95.469929 33.235861
6.634793 -97.91278 34.504555
6.802706 -96.686249 33.885576
8.729491 -86.356823 21.450567
9.182059 -85.183757 21.012089
8.587991 -86.59441 22.790434
8.729491 -86.356823 21.450567
8.36207 -86.858986 24.116101
8.719062 -85.661724 23.641129
8.587991 -86.59441 22.790434
8.114175 -88.071862 24.630958
8.245246 -87.139175 25.481653
8.36207 -86.858986 24.116101
7.664334 -89.317616 25.13776
8.114175 -88.071862 24.630958
7.336089 -90.571949 25.686699
7.669106 -89.606385 26.54545
7.664334 -89.317616 25.13776
6.843294 -91.855835 26.228571
7.336089 -90.571949 25.686699
13.20647 -78.983307 7.410631
13.161009 -80.133075 7.751637
12.974643 -79.062962 8.439588
13.20647 -78.983307 7.410631
13.280058 -77.760548 7.080832
12.558619 -74.044228 6.152943
12.18953 -72.714218 5.880641
12.865808 -73.728904 5.177935
12.94831 -75.292111 6.450132
12.272032 -74.277424 7.152838
12.558619 -74.044228 6.152943
13.100869 -76.566605 6.756554
12.94831 -75.292111 6.450132
11.608277 -65.801147 0.86876
11.389392 -66.47454 1.674041
10.734468 -64.954384 1.574284
11.724381 -65.028183 0.077253
12.379305 -66.548339 0.177009
11.608277 -65.801147 0.86876
3 181 180 49
3 182 49 183
3 0 54 52
3 1 184 186
3 186 185 55
3 184 185 186
3 1 187 188
3 1 189 191
3 189 56 190
3 189 190 191
3 193 192 57
3 2 61 59
3 4 64 62
3 4 66 64
3 4 68 66
3 6 71 69
3 6 73 71
3 7 76 74
3 9 79 77
3 9 81 79
3 194 83 195
3 196 85 197
3 198 197 83
3 196 197 198
3 200 199 85
3 7 89 87
3 7 74 89
3 8 92 90
3 10 201 203
3 203 202 93
3 201 202 203
3 10 204 205
3 3 96 94
3 5 99 97
3 11 102 100
3 11 206 208
3 208 207 102
3 206 207 208
3 11 209 211
3 209 103 210
3 209 210 211
3 212 106 213
3 214 213 104
3 212 213 214
3 13 107 47
3 13 108 107
3 13 110 108
3 215 111 216
3 217 216 48
3 215 216 217
3 220 219 111
3 218 219 220
3 15 114 112
3 17 115 50
3 17 116 115
3 221 117 222
3 15 118 51
3 15 112 118
3 19 121 119
3 21 122 53
3 21 123 122
3 22 126 124
3 23 223 224
3 23 225 226
3 24 129 127
3 26 130 58
3 26 131 130
3 26 227 229
3 229 228 131
3 227 228 229
3 27 135 133
3 29 136 60
3 29 137 136
3 12 138 105
3 30 139 63
3 30 140 139
3 30 141 140
3 31 142 65
3 31 143 142
3 31 145 143
3 33 146 67
3 33 147 146
3 14 148 109
3 34 149 70
3 34 150 149
3 34 151 150
3 35 152 72
3 35 230 232
3 232 231 152
3 230 231 232
3 36 233 235
3 233 153 234
3 233 234 235
3 38 154 75
3 38 155 154
3 16 156 113
3 39 157 78
3 39 158 157
3 39 159 158
3 40 160 80
3 40 161 160
3 236 162 237
3 238 163 239
3 240 239 162
3 238 239 240
3 41 164 82
3 41 165 164
3 41 166 165
3 42 167 84
3 42 168 167
3 42 169 168
3 43 170 86
3 43 171 170
3 18 241 242
3 244 243 88
3 36 245 246
3 36 247 248
3 37 249 250
3 44 251 253
3 253 252 91
3 251 252 253
3 44 254 255
3 20 172 120
3 28 173 134
3 45 174 95
3 45 175 174
3 256 176 257
3 258 257 125
3 256 257 258
3 32 177 144
3 46 178 98
3 46 259 261
3 261 260 178
3 259 260 261
3 25 179 128
3 263 262 101
3 265 264 132
3 266 47 267
3 268 47 269
3 270 13 271
3 272 271 47
3 270 271 272
3 273 48 274
3 275 274 13
3 273 274 275
3 276 48 277
3 279 278 48
3 49 50 15
3 280 50 281
3 282 281 49
3 280 281 282
3 283 17 284
3 285 284 50
3 283 284 285
3 286 51 287
3 49 288 290
3 288 51 289
3 288 289 290
3 49 15 51
3 52 53 19
3 54 53 52
3 54 21 53
3 55 291 293
3 293 292 22
3 291 292 293
3 295 294 55
3 56 296 297
3 56 298 300
3 298 23 299
3 298 299 300
3 57 58 24
3 301 58 302
3 303 302 57
3 301 302 303
3 304 26 305
3 306 305 58
3 304 305 306
3 308 307 26
3 59 60 27
3 61 60 59
3 61 29 60
3 62 63 12
3 64 63 62
3 64 30 63
3 64 65 30
3 66 65 64
3 66 31 65
3 66 67 31
3 68 67 66
3 68 33 67
3 69 70 14
3 71 70 69
3 71 34 70
3 71 72 34
3 73 72 71
3 73 35 72
3 74 75 36
3 76 75 74
3 76 38 75
3 77 78 16
3 79 78 77
3 79 39 78
3 79 80 39
3 81 80 79
3 81 40 80
3 309 82 310
3 83 311 313
3 311 82 312
3 311 312 313
3 83 41 82
3 83 84 41
3 85 84 83
3 85 42 84
3 85 86 42
3 314 86 315
3 316 315 85
3 314 315 316
3 317 43 318
3 319 318 86
3 317 318 319
3 87 88 18
3 89 88 87
3 89 320 322
3 322 321 88
3 320 321 322
3 89 323 324
3 74 325 327
3 327 326 89
3 325 326 327
3 74 328 330
3 328 36 329
3 328 329 330
3 90 91 37
3 92 91 90
3 92 44 91
3 93 331 333
3 333 332 20
3 331 332 333
3 335 334 93
3 94 95 28
3 96 95 94
3 96 45 95
3 97 98 32
3 99 98 97
3 99 46 98
3 100 101 25
3 102 101 100
3 102 336 338
3 338 337 101
3 336 337 338
3 102 339 340
3 342 341 102
3 103 343 344
3 103 345 346
3 104 105 2
3 106 105 104
3 106 12 105
3 47 347 349
3 347 106 348
3 347 348 349
3 107 106 47
3 107 12 106
3 107 62 12
3 108 62 107
3 108 4 62
3 108 109 4
3 110 109 108
3 110 14 109
3 48 110 13
3 111 110 48
3 111 14 110
3 111 69 14
3 350 69 351
3 352 351 111
3 350 351 352
3 353 6 354
3 355 354 69
3 353 354 355
3 112 113 7
3 114 113 112
3 114 16 113
3 50 114 15
3 115 114 50
3 115 16 114
3 115 77 16
3 116 77 115
3 116 9 77
3 117 356 357
3 117 358 360
3 358 18 359
3 358 359 360
3 51 361 363
3 361 117 362
3 361 362 363
3 118 117 51
3 118 18 117
3 118 87 18
3 112 87 118
3 112 7 87
3 119 120 8
3 121 120 119
3 121 20 120
3 53 121 19
3 122 121 53
3 122 20 121
3 122 93 20
3 123 93 122
3 123 10 93
3 124 125 3
3 126 125 124
3 126 364 366
3 366 365 125
3 364 365 366
3 367 126 368
3 369 368 22
3 367 368 369
3 370 126 371
3 373 372 126
3 127 128 5
3 129 128 127
3 129 25 128
3 58 129 24
3 130 129 58
3 130 25 129
3 130 100 25
3 131 100 130
3 131 11 100
3 131 132 11
3 374 132 375
3 376 375 131
3 374 375 376
3 378 377 132
3 380 379 26
3 133 134 0
3 135 134 133
3 135 28 134
3 60 135 27
3 136 135 60
3 136 28 135
3 136 94 28
3 137 94 136
3 137 3 94
3 105 61 2
3 138 61 105
3 138 29 61
3 63 138 12
3 139 138 63
3 139 29 138
3 139 137 29
3 140 137 139
3 140 3 137
3 140 124 3
3 141 124 140
3 141 22 124
3 65 141 30
3 142 141 65
3 142 22 141
3 142 55 22
3 143 55 142
3 143 1 55
3 143 144 1
3 145 144 143
3 145 32 144
3 67 145 31
3 146 145 67
3 146 32 145
3 146 97 32
3 147 97 146
3 147 5 97
3 109 68 4
3 148 68 109
3 148 33 68
3 70 148 14
3 149 148 70
3 149 33 148
3 149 147 33
3 150 147 149
3 150 5 147
3 150 127 5
3 151 127 150
3 151 24 127
3 72 151 34
3 152 151 72
3 152 24 151
3 152 57 24
3 381 57 382
3 383 382 152
3 381 382 383
3 385 384 57
3 153 386 387
3 153 388 390
3 388 37 389
3 388 389 390
3 75 153 36
3 154 153 75
3 154 37 153
3 154 90 37
3 155 90 154
3 155 8 90
3 113 76 7
3 156 76 113
3 156 38 76
3 78 156 16
3 157 156 78
3 157 38 156
3 157 155 38
3 158 155 157
3 158 8 155
3 158 119 8
3 159 119 158
3 159 19 119
3 80 159 39
3 160 159 80
3 160 19 159
3 160 52 19
3 161 52 160
3 161 0 52
3 391 17 392
3 162 393 394
3 162 395 397
3 395 17 396
3 395 396 397
3 162 116 17
3 163 116 162
3 163 9 116
3 82 398 399
3 164 400 402
3 402 401 82
3 400 401 402
3 164 403 404
3 164 405 407
3 405 163 406
3 405 406 407
3 165 163 164
3 165 9 163
3 165 81 9
3 166 81 165
3 166 40 81
3 84 166 41
3 167 166 84
3 167 40 166
3 167 161 40
3 168 161 167
3 168 0 161
3 168 133 0
3 169 133 168
3 169 27 133
3 86 169 42
3 170 169 86
3 170 27 169
3 170 59 27
3 171 59 170
3 171 2 59
3 408 43 409
3 410 43 411
3 412 171 413
3 414 413 43
3 412 413 414
3 415 171 416
3 417 2 418
3 419 418 171
3 417 418 419
3 420 104 421
3 422 421 2
3 420 421 422
3 423 104 424
3 426 425 104
3 88 427 429
3 429 428 18
3 427 428 429
3 431 430 88
3 432 6 433
3 434 6 435
3 436 73 437
3 438 437 6
3 436 437 438
3 439 73 440
3 441 35 442
3 443 442 73
3 441 442 443
3 444 35 445
3 447 446 35
3 91 448 450
3 450 449 37
3 448 449 450
3 453 452 91
3 451 452 453
3 120 92 8
3 172 92 120
3 172 44 92
3 454 172 455
3 456 455 20
3 454 455 456
3 457 172 458
3 459 44 460
3 461 460 172
3 459 460 461
3 463 462 44
3 134 54 0
3 173 54 134
3 173 21 54
3 95 173 28
3 174 173 95
3 174 21 173
3 174 123 21
3 175 123 174
3 175 10 123
3 125 96 3
3 176 96 125
3 176 45 96
3 464 176 465
3 466 176 467
3 468 45 469
3 470 469 176
3 468 469 470
3 471 175 472
3 473 472 45
3 471 472 473
3 474 175 475
3 476 10 477
3 478 477 175
3 476 477 478
3 480 479 10
3 144 56 1
3 177 56 144
3 177 23 56
3 98 177 32
3 178 177 98
3 178 23 177
3 178 481 483
3 483 482 23
3 481 482 483
3 485 484 178
3 128 99 5
3 179 99 128
3 179 46 99
3 101 179 25
3 486 179 487
3 488 487 101
3 486 487 488
3 489 46 490
3 491 490 179
3 489 490 491
3 493 492 46
3 132 103 11
3 494 103 495
3 496 495 132
3 494 495 496
3 499 498 103
3 497 498 499
