ply
format ascii 1.0
element vertex 232
property float x
property float y
property float z
element face 220
property list uchar int vertex_index
end_header
0.599932 13.100513 45.993095
0.914143 -3.13341 47.662567
2.835175 21.626522 37.068356
4.003414 4.672237 40.996742
1.716337 17.547356 41.703934
3.591499 13.324459 39.260078
2.38842 9.366972 43.354736
-0.554199 8.468779 49.897785
0.972567 5.078697 47.032784
2.672729 0.894779 44.572884
3.142323 33.162323 29.083796
1.856918 29.546383 34.546524
0.807287 25.362377 39.738136
-0.062035 20.814526 44.634251
-0.803869 16.057957 49.213287
1.165018 15.357613 43.894577
2.094152 13.502743 42.576569
1.484751 11.344597 44.619293
-0.544468 4.597364 50.126881
3.44083 23.466412 34.632549
3.844372 9.033394 40.192451
1.000771 0.984112 47.40078
1.838131 3.090988 45.772263
1.849623 -1.104189 46.180962
2.613262 37.04208 27.457111
1.945951 35.304108 30.352482
2.470272 31.438431 31.84705
0.336805 29.161869 38.667736
-0.069937 26.898567 41.302917
0.355087 23.122383 42.22435
-1.114904 13.624199 51.371067
2.266537 19.645378 39.426765
3.2509 17.525284 38.213104
2.674927 15.571857 40.438728
3.005215 11.401533 41.355064
3.243172 7.146835 42.159645
0.0215 10.798018 47.995064
0.834517 9.124304 46.560074
0.149456 6.867369 48.395451
0.177458 2.883316 48.703724
0.095549 -1.133984 48.914165
1.714149 7.249504 45.249672
2.58387 5.155781 44.023293
3.381535 2.830967 42.840836
2.653809 -3.384295 45.004051
3.419182 -1.515099 43.395607
4.068424 0.269915 41.666943
3.641075 29.198284 30.640593
2.975143 27.496716 33.276001
2.362926 25.62991 35.841988
0.80505 31.335583 35.962498
1.304501 27.512188 37.177979
1.801029 23.621822 38.335472
1.277754 21.497452 40.753204
0.778301 19.28149 43.091507
0.290974 16.996628 45.346451
-0.729023 22.190594 46.358528
-0.44924 18.4561 46.965229
-0.187393 14.661858 47.514107
-0.648453 12.2913 49.59021
3.341591 20.482367 36.486616
3.644419 21.402311 35.268713
3.138002 22.546467 35.850453
4.293352 5.530798 40.02511
4.213831 7.711377 39.622964
3.923893 6.852816 40.594596
4.326437 3.306408 40.415191
4.293352 5.530798 40.02511
1.391574 36.245184 31.063004
1.682902 37.205002 29.573631
1.643509 34.348326 31.770972
1.391574 36.245184 31.063004
-0.412733 27.592023 42.176247
-0.266201 28.767618 40.817307
-0.246561 25.733811 42.584896
-0.412733 27.592023 42.176247
-0.227917 1.787223 49.487451
-0.183505 3.74034 49.415302
-0.58888 2.644247 50.19903
-0.268872 -0.221427 49.592672
0.136503 0.874666 48.808944
-0.227917 1.787223 49.487451
3.885992 14.217079 38.168575
3.715693 16.317491 37.645088
3.4212 15.424871 38.736591
2.592545 -5.515902 45.166717
2.201207 -4.34478 45.742466
3.731476 -2.827046 42.801529
3.389506 -3.685701 43.613872
4.056097 -1.934538 41.937197
3.743803 -0.622592 42.531275
3.731476 -2.827046 42.801529
4.349817 -1.127908 41.069968
4.056097 -1.934538 41.937197
3.50183 33.928045 27.673018
3.237299 35.867924 26.859676
2.877792 35.102201 28.270454
3.747714 31.937452 28.51162
3.50183 33.928045 27.673018
3.391699 31.180304 29.862195
3.997089 29.955433 29.290019
3.747714 31.937452 28.51162
0.35094 32.128565 36.754093
0.56696 33.225073 35.327309
-0.947714 22.820726 47.319729
-0.858947 24.038739 46.029064
-0.626554 17.257028 48.089258
-0.718984 19.114336 47.870233
-0.896298 17.915264 48.994263
-1.093857 11.759294 51.469873
-1.240139 12.388874 52.398123
-0.820869 5.363188 50.91306
-0.549333 6.533072 50.012333
-0.825734 7.298895 50.798512
-0.874656 3.467521 50.943388
-0.820869 5.363188 50.91306
-0.58888 2.644247 50.19903
-0.874656 3.467521 50.943388
3.962757 22.227579 34.074316
3.767342 24.304466 33.377081
3.962757 22.227579 34.074316
3.644419 21.402311 35.268713
4.135803 9.910575 39.162064
4.009367 12.056107 38.695877
3.717936 11.178926 39.726264
4.135803 9.910575 39.162064
4.213831 7.711377 39.622964
2.016558 38.073988 28.125946
2.340485 38.942751 26.610042
2.279606 36.173094 28.904796
2.016558 38.073988 28.125946
1.682902 37.205002 29.573631
1.90567 32.415487 32.518256
2.208112 33.371269 31.099766
1.643509 34.348326 31.770972
1.598993 31.469463 33.867992
2.163595 30.492407 33.196787
1.90567 32.415487 32.518256
-0.06283 29.899269 39.499716
0.116818 31.041708 38.106713
0.133434 28.030218 39.985326
-0.06283 29.899269 39.499716
-0.266201 28.767618 40.817307
-0.034049 23.845719 43.045613
0.142575 25.010475 41.763633
-0.246561 25.733811 42.584896
-0.24261 22.69179 44.250563
0.146526 21.968454 43.4293
-0.034049 23.845719 43.045613
-1.000743 16.68689 50.161808
-0.896298 17.915264 48.994263
-1.15626 15.470011 51.240698
-0.959386 14.841078 50.292177
-1.000743 16.68689 50.161808
-1.230509 14.218851 52.360611
-1.15626 15.470011 51.240698
-1.240139 12.388874 52.398123
-1.230509 14.218851 52.360611
1.331375 -4.219338 47.071724
0.814588 -5.189783 47.74577
-0.365308 -2.183584 49.622753
-0.268872 -0.221427 49.592672
-0.001266 -3.147844 48.972681
-0.365308 -2.183584 49.622753
0.408031 -4.147557 48.346882
0.504846 -2.133697 48.288366
-0.001266 -3.147844 48.972681
0.814588 -5.189783 47.74577
0.408031 -4.147557 48.346882
3.549454 18.431748 37.058991
3.341591 20.482367 36.486616
3.043038 19.575903 37.64073
3.549454 18.431748 37.058991
3.715693 16.317491 37.645088
3.885992 14.217079 38.168575
4.009367 12.056107 38.695877
1.799114 -3.204727 46.330922
1.381883 -2.1188 46.921765
1.331375 -4.219338 47.071724
2.251716 -2.244242 45.592506
1.799114 -3.204727 46.330922
2.201207 -4.34478 45.742466
3.006819 -4.620299 44.418094
2.592545 -5.515902 45.166717
3.036496 -2.449697 44.199829
3.006819 -4.620299 44.418094
3.389506 -3.685701 43.613872
4.358942 1.105247 40.750292
4.326437 3.306408 40.415191
4.035919 2.471076 41.331843
4.358942 1.105247 40.750292
4.349817 -1.127908 41.069968
2.970749 37.811054 25.983804
2.340485 38.942751 26.610042
2.970749 37.811054 25.983804
3.237299 35.867924 26.859676
4.216484 27.916548 30.088929
3.997089 29.955433 29.290019
3.867464 27.170403 31.381103
4.216484 27.916548 30.088929
3.534498 26.319618 32.698807
3.867464 27.170403 31.381103
3.308109 28.3475 31.958297
3.207987 25.481564 33.954275
3.767342 24.304466 33.377081
3.534498 26.319618 32.698807
1.073059 32.364064 34.57598
0.56696 33.225073 35.327309
1.330984 30.440983 35.254511
1.598993 31.469463 33.867992
1.073059 32.364064 34.57598
0.570928 30.248726 37.315117
0.35094 32.128565 36.754093
0.116818 31.041708 38.106713
-0.576104 23.379824 45.112702
-0.858947 24.038739 46.029064
-0.395529 21.50256 45.496389
-0.24261 22.69179 44.250563
-0.576104 23.379824 45.112702
-0.858876 20.981583 47.566883
-0.947714 22.820726 47.319729
-0.589131 20.323347 46.661879
-0.858876 20.981583 47.566883
-0.718984 19.114336 47.870233
-0.860632 11.092844 50.579445
-0.881678 12.95775 50.480638
-1.093857 11.759294 51.469873
-0.813505 9.181583 50.733232
-0.601326 10.380039 49.743997
-0.860632 11.092844 50.579445
-0.825734 7.298895 50.798512
-0.813505 9.181583 50.733232
3 0 17 15
3 2 60 62
3 62 61 19
3 60 61 62
3 3 63 65
3 65 64 20
3 63 64 65
3 3 66 67
3 1 23 21
3 68 25 69
3 71 70 25
3 72 28 73
3 75 74 28
3 4 33 31
3 6 34 16
3 6 35 34
3 7 38 36
3 76 39 77
3 78 77 18
3 76 77 78
3 79 40 80
3 81 80 39
3 79 80 81
3 5 82 84
3 84 83 32
3 82 83 84
3 8 41 37
3 9 42 22
3 9 43 42
3 85 44 86
3 87 45 88
3 89 46 90
3 91 90 45
3 89 90 91
3 93 92 46
3 10 94 96
3 96 95 24
3 94 95 96
3 10 97 98
3 10 99 101
3 99 47 100
3 99 100 101
3 11 48 26
3 11 49 48
3 102 50 103
3 12 51 27
3 12 52 51
3 12 53 52
3 13 54 29
3 13 55 54
3 104 56 105
3 14 106 108
3 106 57 107
3 106 107 108
3 14 58 57
3 14 59 58
3 110 109 30
3 15 16 4
3 17 16 15
3 17 6 16
3 111 18 112
3 113 112 7
3 111 112 113
3 114 18 115
3 117 116 18
3 19 118 119
3 121 120 19
3 20 122 124
3 124 123 5
3 122 123 124
3 126 125 20
3 21 22 8
3 23 22 21
3 23 9 22
3 127 24 128
3 25 129 131
3 129 24 130
3 129 130 131
3 25 10 24
3 25 26 10
3 132 26 133
3 134 133 25
3 132 133 134
3 135 11 136
3 137 136 26
3 135 136 137
3 138 27 139
3 28 140 142
3 140 27 141
3 140 141 142
3 28 12 27
3 28 29 12
3 143 29 144
3 145 144 28
3 143 144 145
3 146 13 147
3 148 147 29
3 146 147 148
3 149 14 150
3 151 30 152
3 153 152 14
3 151 152 153
3 154 30 155
3 157 156 30
3 31 32 2
3 33 32 31
3 33 5 32
3 16 33 4
3 34 33 16
3 34 5 33
3 34 20 5
3 35 20 34
3 35 3 20
3 159 158 1
3 36 37 0
3 38 37 36
3 38 8 37
3 18 38 7
3 39 38 18
3 39 8 38
3 39 21 8
3 40 21 39
3 40 1 21
3 160 40 161
3 162 40 163
3 164 1 165
3 166 165 40
3 164 165 166
3 168 167 1
3 32 169 171
3 171 170 2
3 169 170 171
3 173 172 32
3 175 174 5
3 37 17 0
3 41 17 37
3 41 6 17
3 22 41 8
3 42 41 22
3 42 6 41
3 42 35 6
3 43 35 42
3 43 3 35
3 176 23 177
3 178 177 1
3 176 177 178
3 44 179 181
3 179 23 180
3 179 180 181
3 44 9 23
3 182 44 183
3 45 184 186
3 184 44 185
3 184 185 186
3 45 9 44
3 45 43 9
3 46 43 45
3 46 3 43
3 46 187 189
3 189 188 3
3 187 188 189
3 191 190 46
3 24 192 193
3 195 194 24
3 47 196 197
3 47 198 199
3 26 47 10
3 48 47 26
3 48 200 202
3 202 201 47
3 200 201 202
3 48 203 205
3 203 19 204
3 203 204 205
3 49 19 48
3 49 2 19
3 50 206 207
3 50 208 210
3 208 11 209
3 208 209 210
3 27 211 213
3 211 50 212
3 211 212 213
3 51 50 27
3 51 11 50
3 51 49 11
3 52 49 51
3 52 2 49
3 52 31 2
3 53 31 52
3 53 4 31
3 29 53 12
3 54 53 29
3 54 4 53
3 54 15 4
3 55 15 54
3 55 0 15
3 56 214 215
3 56 216 218
3 216 13 217
3 216 217 218
3 219 56 220
3 57 221 223
3 221 56 222
3 221 222 223
3 57 13 56
3 57 55 13
3 58 55 57
3 58 0 55
3 58 36 0
3 59 36 58
3 59 7 36
3 30 59 14
3 224 59 225
3 226 225 30
3 224 225 226
3 227 7 228
3 229 228 59
3 227 228 229
3 231 230 7
