ply
format ascii 1.0
element vertex 244
property float x
property float y
property float z
element face 225
property list uchar int vertex_index
end_header
30.329344 -49.452221 68.779091
32.650673 -55.325191 62.293198
31.816669 -62.977169 63.453949
30.159941 -57.704418 71.2435
31.633566 -52.431484 65.5868
31.706411 -56.403355 67.002663
30.149702 -53.497471 70.039055
32.05669 -48.534645 64.239517
32.783657 -51.550747 60.7463
28.109283 -50.392769 72.757088
32.897999 -61.539082 59.451904
32.482662 -59.088509 63.358231
31.363764 -60.449474 67.75621
29.445997 -61.977966 71.623039
33.576859 -54.669441 57.559883
33.795521 -61.846298 56.117508
30.99173 -50.950066 67.178574
30.962727 -52.948273 67.882385
30.147018 -51.449802 69.367432
31.238251 -48.988602 66.568695
31.723553 -50.472786 64.861664
32.993221 -56.731064 60.596878
32.877548 -58.524849 61.116768
32.612476 -57.199928 62.927483
31.035063 -57.03437 69.205132
31.6294 -58.417435 67.501953
30.891319 -59.11108 69.626442
30.523512 -61.198318 69.782059
29.927296 -59.840675 71.575035
27.255238 -61.386597 74.808746
32.674736 -53.445652 61.535263
33.183029 -53.09705 59.10788
33.072109 -54.929302 59.897873
32.398983 -62.235748 61.418472
32.037598 -64.199837 61.219009
32.197861 -53.890915 63.963837
32.22263 -55.826206 64.68116
31.6703 -54.408386 66.332825
31.021803 -54.978058 68.591774
30.199106 -55.585835 70.699471
32.396717 -50.029621 62.45533
32.217239 -51.959602 63.191063
29.293242 -49.920238 70.845833
33.351749 -60.918465 57.677734
32.683716 -60.348072 61.394958
32.218517 -61.01075 63.536781
32.18309 -57.772972 65.249985
31.999834 -59.7402 65.594681
31.636574 -61.732567 65.6707
30.884058 -62.492622 67.722137
29.151587 -51.966194 71.402733
29.157372 -54.071812 72.02829
28.715872 -60.599888 73.310226
28.117615 -62.78611 73.243652
33.411404 -51.227695 58.317482
33.808483 -52.870136 56.753311
33.25444 -62.640587 57.603615
33.772585 -61.14707 56.225209
34.045351 -61.361129 55.55241
30.783797 -49.220411 67.673893
31.024167 -48.250332 67.454357
30.569713 -48.482141 68.559555
32.386501 -47.577252 64.007015
31.92926 -47.801302 65.17606
32.446585 -48.318886 63.035988
32.776395 -47.361492 62.803486
32.386501 -47.577252 64.007015
32.226703 -49.282133 63.347424
32.616598 -49.066374 62.143894
32.446585 -48.318886 63.035988
29.682817 -62.629435 70.62685
30.221575 -62.23961 69.70636
29.984755 -61.588142 70.702549
29.082358 -63.03675 71.486717
29.682817 -62.629435 70.62685
28.562089 -54.369944 72.929592
28.570994 -53.284752 72.648891
29.162791 -55.14752 72.325806
28.562089 -54.369944 72.929592
28.209916 -59.866274 74.002644
28.884196 -59.502502 73.195942
27.330588 -63.204864 73.934318
27.686426 -62.086354 74.026199
26.899399 -62.505108 74.716865
27.696314 -63.862988 73.047439
27.330588 -63.204864 73.934318
33.09753 -51.389221 59.531891
33.244788 -50.43334 59.16557
32.930914 -50.594866 60.379978
33.915173 -54.619393 56.455219
34.030985 -53.71974 56.051933
33.692671 -53.769789 57.156597
33.771765 -55.470232 56.856644
33.915173 -54.619393 56.455219
34.17412 -62.250635 55.36425
34.045351 -61.361129 55.55241
33.834785 -62.754728 56.008187
34.17412 -62.250635 55.36425
31.520041 -48.028281 66.340649
31.024167 -48.250332 67.454357
31.647471 -48.761623 65.404106
31.92926 -47.801302 65.17606
31.520041 -48.028281 66.340649
32.935384 -57.627957 60.856823
33.069173 -58.311182 60.029526
33.12701 -57.41429 59.769581
28.04695 -51.445231 73.01329
27.440288 -50.632858 73.634231
26.689138 -60.635942 75.4417
27.479599 -60.259629 74.751903
26.408165 -61.793173 75.437115
26.689138 -60.635942 75.4417
26.052326 -62.911684 75.345234
26.899399 -62.505108 74.716865
26.408165 -61.793173 75.437115
33.242601 -55.668919 59.108852
33.494976 -55.538988 57.939858
33.324484 -54.799371 58.728878
33.203158 -56.5698 59.458355
33.242601 -55.668919 59.108852
33.032665 -55.830183 60.247375
33.12701 -57.41429 59.769581
33.203158 -56.5698 59.458355
32.536637 -62.827137 60.38131
32.786144 -62.478804 59.398026
32.648491 -61.887415 60.435188
32.355944 -63.809182 60.281578
32.536637 -62.827137 60.38131
32.218291 -63.217793 61.318741
32.234801 -64.807323 60.153118
32.355944 -63.809182 60.281578
32.737444 -49.834303 61.234493
32.616598 -49.066374 62.143894
32.590187 -50.790184 61.600815
32.930914 -50.594866 60.379978
32.737444 -49.834303 61.234493
31.56286 -63.979998 63.292564
31.459988 -63.361456 64.46093
29.499795 -48.932907 70.637856
29.811293 -49.686229 69.812462
30.017845 -48.698898 69.604484
28.882335 -49.144777 71.608486
29.499795 -48.932907 70.637856
28.290356 -49.381042 72.564114
28.701262 -50.156503 71.80146
28.882335 -49.144777 71.608486
27.604723 -49.590653 73.461113
28.290356 -49.381042 72.564114
27.785795 -48.578926 73.268139
26.935727 -49.830742 74.338256
27.440288 -50.632858 73.634231
27.604723 -49.590653 73.461113
30.017845 -48.698898 69.604484
30.569713 -48.482141 68.559555
33.428505 -60.152031 57.562812
33.550699 -60.683154 57.005322
33.22192 -60.350271 58.50584
33.428505 -60.152031 57.562812
32.995045 -60.66058 59.392925
33.124874 -61.228774 58.564819
33.22192 -60.350271 58.50584
32.98482 -59.153464 60.225357
33.069173 -58.311182 60.029526
32.887904 -60.065075 60.364452
32.98482 -59.153464 60.225357
32.780632 -59.436461 61.255863
32.790858 -60.943577 60.423431
32.995045 -60.66058 59.392925
32.887904 -60.065075 60.364452
31.36994 -62.739155 65.569305
31.459988 -63.361456 64.46093
31.726622 -62.354868 64.562325
30.993682 -63.119182 66.595024
31.36994 -62.739155 65.569305
31.260316 -62.112595 66.696418
30.549474 -63.512898 67.555736
30.993682 -63.119182 66.595024
30.401848 -62.886763 68.676399
30.703785 -61.84547 68.752098
30.221575 -62.23961 69.70636
30.549474 -63.512898 67.555736
30.401848 -62.886763 68.676399
28.568102 -52.231943 72.336113
28.630435 -51.179482 72.07991
28.04695 -51.445231 73.01329
29.15448 -53.019003 71.715511
28.568102 -52.231943 72.336113
28.570994 -53.284752 72.648891
29.683658 -55.904532 71.661396
29.678239 -54.828823 71.36388
29.162791 -55.14752 72.325806
29.664076 -56.963823 71.933411
30.179524 -56.645127 70.971486
29.683658 -55.904532 71.661396
29.60623 -58.054767 72.162578
29.664076 -56.963823 71.933411
29.489908 -59.122896 72.328346
30.043619 -58.772546 71.409267
29.60623 -58.054767 72.162578
29.321584 -60.220281 72.442631
29.489908 -59.122896 72.328346
28.884196 -59.502502 73.195942
27.985555 -60.993243 74.059486
28.209916 -59.866274 74.002644
27.479599 -60.259629 74.751903
28.418166 -63.440822 72.297023
29.082358 -63.03675 71.486717
28.781806 -62.382038 72.433346
28.418166 -63.440822 72.297023
27.696314 -63.862988 73.047439
33.626078 -50.276561 57.962036
33.244788 -50.43334 59.16557
33.795044 -51.121446 57.149994
33.626078 -50.276561 57.962036
33.993583 -51.942667 56.367908
33.795044 -51.121446 57.149994
33.609943 -52.048915 57.535396
34.218994 -52.827835 55.652927
33.993583 -51.942667 56.367908
34.218994 -52.827835 55.652927
34.030985 -53.71974 56.051933
33.771765 -55.470232 56.856644
33.494976 -55.538988 57.939858
33.573635 -61.382381 56.897621
33.772585 -61.14707 56.225209
33.550699 -60.683154 57.005322
33.564245 -63.151872 56.75124
33.834785 -62.754728 56.008187
33.52498 -62.243443 56.860562
32.964365 -63.029556 58.473881
33.07622 -62.089834 58.52776
32.786144 -62.478804 59.398026
33.212433 -63.603359 57.507923
32.964365 -63.029556 58.473881
33.522238 -64.114645 56.655548
33.564245 -63.151872 56.75124
33.212433 -63.603359 57.507923
31.673325 -64.591331 62.175095
31.927134 -63.588503 62.336479
31.56286 -63.979998 63.292564
31.836913 -65.213299 61.030704
31.673325 -64.591331 62.175095
32.234801 -64.807323 60.153118
31.836913 -65.213299 61.030704
3 57 15 58
3 0 18 16
3 0 59 61
3 59 19 60
3 59 60 61
3 0 16 19
3 1 23 21
3 3 26 24
3 3 28 26
3 1 32 30
3 1 21 32
3 2 34 33
3 4 37 35
3 6 38 17
3 6 39 38
3 7 62 63
3 7 64 66
3 64 65 66
3 7 67 69
3 67 40 68
3 67 68 69
3 4 41 20
3 4 35 41
3 11 44 22
3 11 45 44
3 5 46 36
3 12 47 25
3 12 48 47
3 12 49 48
3 13 70 72
3 72 71 27
3 70 71 72
3 13 73 74
3 9 50 42
3 75 51 76
3 78 77 51
3 79 52 80
3 81 53 82
3 83 82 29
3 81 82 83
3 85 84 53
3 8 86 88
3 86 54 87
3 86 87 88
3 14 55 31
3 14 89 91
3 91 90 55
3 89 90 91
3 14 92 93
3 10 56 43
3 15 94 95
3 15 96 97
3 16 17 4
3 18 17 16
3 18 6 17
3 19 98 99
3 19 100 102
3 100 7 101
3 100 101 102
3 19 20 7
3 16 20 19
3 16 4 20
3 21 103 105
3 103 22 104
3 103 104 105
3 23 22 21
3 23 11 22
3 24 25 5
3 26 25 24
3 26 12 25
3 26 27 12
3 28 27 26
3 28 13 27
3 107 106 9
3 108 29 109
3 110 29 111
3 114 113 29
3 112 113 114
3 30 31 8
3 32 31 30
3 32 14 31
3 32 115 117
3 117 116 14
3 115 116 117
3 21 118 120
3 120 119 32
3 118 119 120
3 21 121 122
3 33 123 125
3 125 124 10
3 123 124 125
3 34 126 128
3 128 127 33
3 126 127 128
3 34 129 130
3 35 36 1
3 37 36 35
3 37 5 36
3 17 37 4
3 38 37 17
3 38 5 37
3 38 24 5
3 39 24 38
3 39 3 24
3 40 131 132
3 40 133 135
3 133 8 134
3 133 134 135
3 20 40 7
3 41 40 20
3 41 8 40
3 41 30 8
3 35 30 41
3 35 1 30
3 137 136 2
3 138 42 139
3 140 139 0
3 138 139 140
3 141 42 142
3 143 9 144
3 145 144 42
3 143 144 145
3 146 9 147
3 146 147 148
3 151 150 9
3 149 150 151
3 152 0 153
3 154 43 155
3 156 43 157
3 158 10 159
3 160 159 43
3 158 159 160
3 22 161 162
3 44 163 165
3 165 164 22
3 163 164 165
3 44 166 168
3 166 10 167
3 166 167 168
3 44 33 10
3 45 33 44
3 45 2 33
3 36 23 1
3 46 23 36
3 46 11 23
3 25 46 5
3 47 46 25
3 47 11 46
3 47 45 11
3 48 45 47
3 48 2 45
3 48 169 171
3 171 170 2
3 169 170 171
3 49 172 174
3 174 173 48
3 172 173 174
3 49 175 176
3 27 49 12
3 177 49 178
3 179 178 27
3 177 178 179
3 181 180 49
3 42 18 0
3 50 18 42
3 50 6 18
3 182 50 183
3 184 183 9
3 182 183 184
3 51 185 187
3 185 50 186
3 185 186 187
3 51 6 50
3 51 39 6
3 188 39 189
3 190 189 51
3 188 189 190
3 191 3 192
3 193 192 39
3 191 192 193
3 194 3 195
3 196 28 197
3 198 197 3
3 196 197 198
3 52 199 201
3 199 28 200
3 199 200 201
3 52 13 28
3 29 202 204
3 202 52 203
3 202 203 204
3 53 52 29
3 53 13 52
3 53 205 207
3 207 206 13
3 205 206 207
3 209 208 53
3 54 210 211
3 54 212 213
3 31 54 8
3 55 54 31
3 55 214 216
3 216 215 54
3 214 215 216
3 55 217 218
3 220 219 55
3 222 221 14
3 43 223 225
3 223 15 224
3 223 224 225
3 56 15 43
3 56 226 228
3 228 227 15
3 226 227 228
3 229 56 230
3 231 230 10
3 229 230 231
3 232 56 233
3 236 235 56
3 234 235 236
3 237 34 238
3 239 238 2
3 237 238 239
3 240 34 241
3 243 242 34
