ply
format ascii 1.0
element vertex 396
property float x
property float y
property float z
element face 380
property list uchar int vertex_index
end_header
-2.725733 -58.574894 3.758702
-12.098032 -52.460793 -8.529631
1.566952 -63.66124 20.244999
-8.017303 -70.113129 4.636198
4.971291 -38.953972 30.500929
4.542828 -51.595329 21.361744
-7.204556 -55.622253 -2.746944
0.476433 -61.371796 11.594064
3.978996 -46.022102 30.342216
-4.916077 -57.096714 0.354098
3.069283 -57.761196 20.812439
3.171631 -56.794361 16.305086
1.264042 -62.566383 15.88572
-1.931242 -66.817047 11.53966
-0.842249 -67.963913 15.668346
-5.352266 -64.487366 4.040823
-7.077211 -63.194149 0.656917
-9.504717 -69.308578 1.373949
4.983414 -45.614967 26.210052
3.799015 -52.224201 25.787231
-9.547672 -54.106873 -5.662798
-8.438137 -61.728798 -2.493168
-9.516666 -60.040028 -5.445175
-0.862133 -60.026714 7.517542
-3.516859 -65.675293 7.662637
-2.804085 -54.867855 1.987303
-3.79657 -57.835354 2.013212
2.343479 -60.747829 20.512161
2.330906 -60.249744 18.306818
1.472868 -63.120159 18.067322
0.255922 -65.32119 15.737931
0.538998 -65.897003 17.889341
-6.711256 -67.359131 4.299847
-7.567223 -66.839043 2.609109
-8.842218 -69.73381 2.987334
4.912598 -35.471199 32.419441
5.512562 -35.219231 30.469389
5.007366 -42.352409 28.433537
3.514465 -49.426018 30.147629
3.927025 -49.192596 28.134949
3.42997 -52.50161 27.873001
3.252007 -55.431549 25.479147
-8.362408 -54.874657 -4.219353
-8.875345 -65.649101 -0.630276
-7.80743 -62.486889 -0.946453
-9.29026 -64.949226 -2.175304
-10.071135 -59.104622 -6.872854
2.00246 -59.142323 13.872629
3.058254 -56.22044 14.038893
1.640368 -58.511406 11.691381
1.109482 -57.828251 9.566748
-0.121536 -60.717319 9.521282
-2.177269 -62.89238 7.560797
-1.386892 -63.531651 9.516066
-9.212864 -72.694366 5.041702
-10.003799 -72.481842 3.448187
4.427391 -35.774033 34.29216
4.445866 -39.176422 32.444042
4.460293 -42.543579 30.459442
3.998901 -42.75679 32.401527
-4.117855 -54.1549 0.343363
-6.056721 -56.360298 -1.227999
3.792229 -54.712078 21.106747
4.003418 -54.287991 18.826141
3.162205 -57.303654 18.571945
2.223469 -59.71925 16.085974
0.935099 -61.9869 13.721338
-0.710564 -64.146988 11.53642
-0.161079 -64.741196 13.614451
-1.316179 -67.386299 13.576282
-4.001715 -61.545902 3.861216
-4.967661 -60.842754 2.121093
-6.25021 -63.85812 2.319322
-8.299751 -66.27475 0.965056
-9.958176 -68.808228 -0.200268
-10.610655 -72.233032 1.876822
5.561108 -45.374054 23.990576
4.848518 -48.703125 23.841537
4.448448 -45.820713 28.323843
4.370682 -48.960953 26.036129
4.173054 -51.930664 23.615986
3.535835 -55.085796 23.32888
2.914124 -58.185394 23.00584
2.267159 -61.229507 22.68239
-12.416754 -54.148079 -9.886328
-10.785254 -53.306652 -7.094368
-5.922642 -60.120296 0.454003
-6.842569 -59.376099 -1.143776
-7.720751 -58.605671 -2.679832
-8.992508 -60.914261 -3.989407
-8.570892 -57.803337 -4.165442
-9.424667 -56.963039 -5.614506
-10.324188 -56.07851 -7.041925
-11.311312 -55.142891 -8.461853
-0.513987 -56.356312 5.571238
4.125084 -53.794914 16.510841
0.391745 -57.103966 7.520981
-1.737247 -59.308796 5.594224
-3.059376 -62.229729 5.674938
-4.425089 -65.090454 5.821389
-5.786175 -67.854553 6.038215
-2.673273 -66.248787 9.567846
-4.855007 -68.344368 7.830195
-7.100527 -70.480774 6.323037
-3.261151 -58.205124 2.885957
-2.693303 -56.720286 2.869992
-2.157884 -57.090056 3.742737
-12.565774 -51.253052 -8.543579
-11.762379 -51.623524 -7.811459
5.286341 -38.852711 29.482042
5.556976 -36.98534 29.466273
5.241926 -37.086602 30.485159
4.989329 -40.653191 29.467233
5.304379 -40.551929 28.448346
5.286341 -38.852711 29.482042
3.238291 -52.643788 28.876976
3.472218 -50.963814 29.010315
3.280539 -51.105992 30.01429
3.181465 -54.136028 27.713564
3.238291 -52.643788 28.876976
-7.062137 -54.212688 -2.737099
-6.350856 -54.545443 -1.984196
-7.783482 -55.248455 -3.483148
-7.641063 -53.83889 -3.473303
-7.062137 -54.212688 -2.737099
-9.741159 -66.580558 -1.952811
-9.082802 -65.299163 -1.40279
-9.533701 -66.930496 -1.180297
4.704201 -51.394829 20.200749
4.934036 -49.99319 21.457991
-10.098901 -73.853527 4.513095
-9.726144 -73.866951 5.270677
4.219597 -37.611717 34.306792
4.224979 -35.964371 35.204724
4.228834 -39.312912 33.382733
4.436628 -37.475228 33.368101
4.219597 -37.611717 34.306792
4.005352 -41.103096 33.361475
4.222383 -40.966606 32.422785
4.228834 -39.312912 33.382733
-1.698291 -68.934967 14.64272
-1.935256 -68.64616 13.596688
-1.079214 -67.675106 14.622314
-11.077414 -73.604675 2.1725
-10.307227 -72.357437 2.662504
-10.773986 -73.72908 2.958183
5.272261 -45.494511 25.100314
5.597507 -43.762787 25.14628
5.308661 -43.883243 26.256018
2.805988 -58.390183 24.072367
3.083066 -56.808471 24.242494
2.97493 -57.01326 25.30902
2.482506 -59.912239 23.910642
2.590642 -59.707451 22.844115
2.805988 -58.390183 24.072367
-13.034385 -53.616289 -10.605507
-12.447943 -55.030045 -10.493019
-9.712402 -52.793395 -5.653571
-8.962895 -53.126358 -4.928876
-10.166463 -53.706762 -6.378583
-10.331193 -52.393284 -6.369356
-9.712402 -52.793395 -5.653571
-9.254587 -60.477145 -4.717291
-9.388797 -62.108387 -4.558169
-9.650876 -61.67127 -5.286053
-10.521405 -57.09272 -7.663395
-10.197661 -57.591566 -6.957389
-10.394879 -58.605776 -7.578859
-11.014967 -56.62491 -8.373359
-10.81775 -55.610701 -7.751889
-10.521405 -57.09272 -7.663395
-11.411184 -56.093663 -9.076667
-11.014967 -56.62491 -8.373359
0.511282 -55.248778 6.565076
0.02018 -54.873946 5.583508
3.576588 -54.721987 14.116454
2.916174 -55.89972 12.921833
-5.512249 -69.606632 7.944827
-4.416131 -68.594097 8.757962
-6.635009 -70.674835 7.191249
-5.977767 -69.412571 7.076616
-5.512249 -69.606632 7.944827
-7.713477 -71.703903 6.492284
-6.635009 -70.674835 7.191249
-2.197061 -55.236536 2.857038
-1.726479 -53.762609 2.870131
-3.300327 -56.351605 2.000258
-2.197061 -55.236536 2.857038
-2.693303 -56.720286 2.869992
5.157892 -33.541665 32.375393
4.882393 -33.716688 33.313148
5.457874 -33.415681 31.400367
5.157892 -33.541665 32.375393
5.21258 -35.345215 31.444415
5.79224 -33.267134 30.416674
5.457874 -33.415681 31.400367
5.863018 -35.10326 29.440736
5.79224 -33.267134 30.416674
5.863018 -35.10326 29.440736
5.556976 -36.98534 29.466273
5.320636 -42.251964 27.367761
5.304379 -40.551929 28.448346
4.99539 -43.983688 27.321795
5.308661 -43.883243 26.256018
5.320636 -42.251964 27.367761
3.092484 -55.600998 26.516637
3.340988 -53.966579 26.676074
3.181465 -54.136028 27.713564
2.97493 -57.01326 25.30902
3.092484 -55.600998 26.516637
-8.370262 -53.51025 -4.207154
-7.641063 -53.83889 -3.473303
-8.95504 -54.490765 -4.941076
-8.962895 -53.126358 -4.928876
-8.370262 -53.51025 -4.207154
-9.759785 -61.197978 -5.997952
-9.650876 -61.67127 -5.286053
-10.037019 -60.730275 -6.711791
-9.7939 -59.572325 -6.159014
-9.759785 -61.197978 -5.997952
-10.19147 -60.21826 -7.413811
-10.037019 -60.730275 -6.711791
-10.394879 -58.605776 -7.578859
-10.19147 -60.21826 -7.413811
2.207231 -57.045203 11.748077
2.916174 -55.89972 12.921833
2.349311 -57.365923 12.865137
1.374925 -58.169829 10.629065
1.941788 -56.703625 10.685761
2.207231 -57.045203 11.748077
-2.954248 -67.830437 10.612695
-2.565637 -68.08979 11.576824
-10.494369 -73.747265 3.716337
-9.608332 -72.588104 4.244944
-10.098901 -73.853527 4.513095
-10.773986 -73.72908 2.958183
-10.494369 -73.747265 3.716337
4.417982 -34.08294 35.157427
4.224979 -35.964371 35.204724
4.63979 -33.868105 34.249508
4.417982 -34.08294 35.157427
4.669994 -35.622616 33.355801
4.882393 -33.716688 33.313148
4.63979 -33.868105 34.249508
3.793667 -42.888661 33.34372
4.005352 -41.103096 33.361475
3.777923 -44.502472 32.343381
3.793667 -42.888661 33.34372
3.767971 -46.135128 31.313726
3.988949 -44.389446 31.371872
3.777923 -44.502472 32.343381
3.535705 -47.837086 31.216432
3.74673 -47.72406 30.244923
3.767971 -46.135128 31.313726
3.307631 -49.555843 31.119515
3.535705 -47.837086 31.216432
3.280539 -51.105992 30.01429
3.307631 -49.555843 31.119515
-2.418849 -53.41403 2.005745
-1.726479 -53.762609 2.870131
-3.075734 -53.057552 1.183775
-2.418849 -53.41403 2.005745
-3.46097 -54.511377 1.165333
-3.835877 -52.733378 0.367843
-3.075734 -53.057552 1.183775
-4.807505 -53.811766 -0.439043
-3.835877 -52.733378 0.367843
-5.776938 -54.914465 -1.224724
-4.807505 -53.811766 -0.439043
-5.087288 -55.257599 -0.442318
-6.630638 -55.991276 -1.987472
-6.350856 -54.545443 -1.984196
-5.776938 -54.914465 -1.224724
-2.258106 -68.374416 12.595135
-2.565637 -68.08979 11.576824
-1.623711 -67.101673 12.557971
-2.258106 -68.374416 12.595135
-1.935256 -68.64616 13.596688
-10.075117 -68.510059 -0.965293
-9.533701 -66.930496 -1.180297
-9.41676 -67.228665 -0.415272
-11.220832 -73.544494 1.421
-11.077414 -73.604675 2.1725
-10.789919 -72.067001 1.10553
-11.220832 -73.544494 1.421
-10.23695 -70.604774 0.854093
-10.057686 -70.770805 1.625386
-10.789919 -72.067001 1.10553
-10.463679 -70.354599 0.066985
-9.731447 -69.058403 0.586841
-10.23695 -70.604774 0.854093
-10.507286 -70.130639 -0.685283
-10.463679 -70.354599 0.066985
-10.075117 -68.510059 -0.965293
-10.507286 -70.130639 -0.685283
5.924275 -43.64189 24.023349
5.597507 -43.762787 25.14628
5.839104 -45.222081 22.830936
5.924275 -43.64189 24.023349
5.443176 -46.882553 22.772407
5.839104 -45.222081 22.830936
5.086882 -48.547089 22.697887
5.443176 -46.882553 22.772407
5.204813 -47.03859 23.916056
4.695673 -50.149227 22.601641
4.934036 -49.99319 21.457991
5.086882 -48.547089 22.697887
-12.95732 -52.851816 -9.934121
-12.797959 -52.008173 -9.255773
-12.257393 -53.304436 -9.20798
-12.95732 -52.851816 -9.934121
-13.034385 -53.616289 -10.605507
-11.105991 -52.046453 -7.093828
-10.331193 -52.393284 -6.369356
-11.441643 -52.883723 -7.812
-11.762379 -51.623524 -7.811459
-11.105991 -52.046453 -7.093828
-9.763632 -66.228794 -2.694877
-9.741159 -66.580558 -1.952811
-9.432047 -64.55846 -2.923628
-9.763632 -66.228794 -2.694877
-9.005985 -62.948246 -3.082559
-8.864199 -63.339012 -2.334236
-9.432047 -64.55846 -2.923628
-9.283171 -62.540977 -3.830679
-9.388797 -62.108387 -4.558169
-8.715322 -61.321529 -3.241287
-9.005985 -62.948246 -3.082559
-9.283171 -62.540977 -3.830679
-11.963905 -55.596257 -9.788905
-11.864033 -54.645485 -9.174091
-11.411184 -56.093663 -9.076667
-12.447943 -55.030045 -10.493019
-11.963905 -55.596257 -9.788905
2.182362 -61.468894 23.743003
2.482506 -59.912239 23.910642
1.907167 -62.715576 22.54073
2.182362 -61.468894 23.743003
1.557064 -63.931443 21.322034
1.917056 -62.445374 21.463695
1.907167 -62.715576 22.54073
1.128197 -65.070115 20.146387
1.557064 -63.931443 21.322034
0.61422 -66.187996 18.968558
1.052975 -64.779122 19.06717
1.128197 -65.070115 20.146387
0.012713 -67.227539 17.844016
0.61422 -66.187996 18.968558
-0.67791 -68.260994 16.733519
-0.151626 -66.930458 16.778844
0.012713 -67.227539 17.844016
-1.448669 -69.221497 15.677319
-0.67791 -68.260994 16.733519
-1.698291 -68.934967 14.64272
-1.448669 -69.221497 15.677319
-1.052011 -55.980765 4.649005
0.02018 -54.873946 5.583508
-1.61986 -57.465603 4.66497
-2.157884 -57.090056 3.742737
-1.052011 -55.980765 4.649005
4.434496 -52.741159 18.932947
4.704201 -51.394829 20.200749
4.273123 -52.94166 20.093943
4.495329 -52.494621 17.775297
4.434496 -52.741159 18.932947
4.064251 -54.041452 17.668491
4.598289 -52.253137 16.594904
4.495329 -52.494621 17.775297
4.110003 -53.509224 15.352428
3.591669 -55.007677 15.274867
3.576588 -54.721987 14.116454
4.598289 -52.253137 16.594904
4.110003 -53.509224 15.352428
1.692592 -56.353752 9.600971
1.941788 -56.703625 10.685761
1.333724 -55.991609 8.578088
1.692592 -56.353752 9.600971
0.750614 -57.466109 8.543864
0.964148 -55.622605 7.539947
1.333724 -55.991609 8.578088
-0.061121 -56.730139 6.54611
0.511282 -55.248778 6.565076
0.964148 -55.622605 7.539947
-3.325264 -67.546307 9.626788
-2.302258 -66.532917 10.553753
-2.954248 -67.830437 10.612695
-3.76414 -67.296577 8.69902
-3.325264 -67.546307 9.626788
-4.416131 -68.594097 8.757962
-8.769645 -72.810699 5.851616
-8.156695 -71.58757 5.68237
-7.713477 -71.703903 6.492284
-9.726144 -73.866951 5.270677
-8.769645 -72.810699 5.851616
-12.565774 -51.253052 -8.543579
-12.797959 -52.008173 -9.255773
3 0 104 106
3 104 26 105
3 104 105 106
3 2 29 27
3 2 31 29
3 1 107 108
3 3 34 32
3 4 36 35
3 4 109 111
3 111 110 36
3 109 110 111
3 4 112 114
3 112 37 113
3 112 113 114
3 115 40 116
3 117 116 38
3 115 116 117
3 119 118 40
3 6 120 121
3 6 122 124
3 122 42 123
3 122 123 124
3 125 45 126
3 127 126 43
3 125 126 127
3 5 128 129
3 7 49 47
3 7 51 49
3 7 53 51
3 131 130 54
3 132 56 133
3 134 57 135
3 136 135 56
3 134 135 136
3 137 59 138
3 139 138 57
3 137 138 139
3 9 60 25
3 9 61 60
3 10 64 62
3 12 65 28
3 12 66 65
3 12 68 66
3 14 69 30
3 14 140 142
3 142 141 69
3 140 141 142
3 15 72 70
3 17 73 33
3 17 74 73
3 143 75 144
3 145 144 55
3 143 144 145
3 18 146 148
3 146 76 147
3 146 147 148
3 18 77 76
3 8 78 58
3 19 79 39
3 19 80 79
3 19 81 80
3 149 82 150
3 151 150 41
3 149 150 151
3 152 83 153
3 154 153 82
3 152 153 154
3 156 155 84
3 20 157 158
3 20 159 161
3 159 85 160
3 159 160 161
3 16 86 71
3 21 87 44
3 21 88 87
3 22 162 164
3 162 89 163
3 162 163 164
3 22 90 89
3 22 91 90
3 165 92 166
3 167 166 46
3 165 166 167
3 168 93 169
3 170 169 92
3 168 169 170
3 172 171 93
3 173 94 174
3 11 95 63
3 176 175 48
3 23 96 50
3 23 97 96
3 23 98 97
3 24 99 52
3 24 100 99
3 13 101 67
3 177 102 178
3 179 103 180
3 181 180 102
3 179 180 181
3 183 182 103
3 184 25 185
3 26 186 188
3 186 25 187
3 186 187 188
3 26 9 25
3 27 28 10
3 29 28 27
3 29 12 28
3 29 30 12
3 31 30 29
3 31 14 30
3 32 33 15
3 34 33 32
3 34 17 33
3 35 189 190
3 36 191 193
3 193 192 35
3 191 192 193
3 36 194 195
3 36 196 197
3 199 198 36
3 37 200 201
3 37 202 204
3 202 18 203
3 202 203 204
3 38 39 8
3 40 39 38
3 40 19 39
3 40 41 19
3 205 41 206
3 207 206 40
3 205 206 207
3 209 208 41
3 42 210 211
3 42 212 214
3 212 20 213
3 212 213 214
3 43 44 16
3 45 44 43
3 45 21 44
3 215 22 216
3 217 46 218
3 219 218 22
3 217 218 219
3 220 46 221
3 223 222 46
3 47 48 11
3 49 48 47
3 49 224 226
3 226 225 48
3 224 225 226
3 49 227 229
3 227 50 228
3 227 228 229
3 51 50 49
3 51 23 50
3 51 52 23
3 53 52 51
3 53 24 52
3 231 230 13
3 54 55 3
3 232 55 233
3 234 233 54
3 232 233 234
3 236 235 55
3 56 237 238
3 56 239 240
3 56 241 243
3 241 35 242
3 241 242 243
3 57 35 56
3 57 4 35
3 57 58 4
3 59 58 57
3 59 8 58
3 244 59 245
3 246 59 247
3 248 8 249
3 250 249 59
3 248 249 250
3 251 38 252
3 253 252 8
3 251 252 253
3 254 38 255
3 257 256 38
3 25 258 259
3 60 260 262
3 262 261 25
3 260 261 262
3 60 263 264
3 60 265 266
3 61 267 269
3 269 268 60
3 267 268 269
3 61 270 272
3 270 6 271
3 270 271 272
3 62 63 5
3 64 63 62
3 64 11 63
3 28 64 10
3 65 64 28
3 65 11 64
3 65 47 11
3 66 47 65
3 66 7 47
3 66 67 7
3 68 67 66
3 68 13 67
3 30 68 12
3 69 68 30
3 69 13 68
3 69 273 275
3 275 274 13
3 273 274 275
3 277 276 69
3 70 71 0
3 72 71 70
3 72 16 71
3 33 72 15
3 73 72 33
3 73 16 72
3 73 43 16
3 74 43 73
3 74 278 280
3 280 279 43
3 278 279 280
3 55 34 3
3 75 34 55
3 75 17 34
3 281 75 282
3 283 75 284
3 285 17 286
3 287 286 75
3 285 286 287
3 288 74 289
3 290 289 17
3 288 289 290
3 291 74 292
3 294 293 74
3 76 295 296
3 76 297 298
3 76 299 300
3 77 301 303
3 303 302 76
3 301 302 303
3 77 304 306
3 304 5 305
3 304 305 306
3 58 37 4
3 78 37 58
3 78 18 37
3 39 78 8
3 79 78 39
3 79 18 78
3 79 77 18
3 80 77 79
3 80 5 77
3 80 62 5
3 81 62 80
3 81 10 62
3 41 81 19
3 82 81 41
3 82 10 81
3 82 27 10
3 83 27 82
3 83 2 27
3 84 307 309
3 309 308 1
3 307 308 309
3 311 310 84
3 85 312 313
3 85 314 316
3 314 1 315
3 314 315 316
3 71 26 0
3 86 26 71
3 86 9 26
3 44 86 16
3 87 86 44
3 87 9 86
3 87 61 9
3 88 61 87
3 88 6 61
3 317 45 318
3 319 45 320
3 321 21 322
3 323 322 45
3 321 322 323
3 89 324 325
3 89 326 328
3 326 21 327
3 326 327 328
3 89 88 21
3 90 88 89
3 90 6 88
3 90 42 6
3 91 42 90
3 91 20 42
3 46 91 22
3 92 91 46
3 92 20 91
3 92 85 20
3 93 85 92
3 93 1 85
3 93 84 1
3 329 84 330
3 331 330 93
3 329 330 331
3 333 332 84
3 334 83 335
3 336 83 337
3 338 2 339
3 340 339 83
3 338 339 340
3 341 2 342
3 343 31 344
3 345 344 2
3 343 344 345
3 346 31 347
3 348 14 349
3 350 349 31
3 348 349 350
3 351 14 352
3 354 353 14
3 94 355 356
3 94 357 359
3 357 0 358
3 357 358 359
3 63 360 362
3 362 361 5
3 360 361 362
3 95 363 365
3 365 364 63
3 363 364 365
3 95 366 367
3 48 95 11
3 368 95 369
3 370 369 48
3 368 369 370
3 372 371 95
3 50 373 374
3 96 375 377
3 377 376 50
3 375 376 377
3 96 378 379
3 96 380 382
3 380 94 381
3 380 381 382
3 97 94 96
3 97 0 94
3 97 70 0
3 98 70 97
3 98 15 70
3 52 98 23
3 99 98 52
3 99 15 98
3 99 32 15
3 100 32 99
3 100 3 32
3 67 53 7
3 101 53 67
3 101 24 53
3 383 101 384
3 385 384 13
3 383 384 385
3 102 386 388
3 386 101 387
3 386 387 388
3 102 24 101
3 102 100 24
3 103 100 102
3 103 3 100
3 103 54 3
3 389 54 390
3 391 390 103
3 389 390 391
3 393 392 54
3 395 394 1
