ply
format ascii 1.0
element vertex 405
property float x
property float y
property float z
element face 443
property list uchar int vertex_index
end_header
49.892799 -87.475082 2.170938
43.424194 -97.9105 19.90414
44.652813 -92.258408 32.793617
39.299358 -98.953766 28.362278
36.562416 -105.41407 15.936792
54.57621 -77.284828 2.948848
49.175743 -82.48053 12.098986
47.101246 -87.881676 22.355679
46.625519 -93.094917 10.802382
41.213184 -103.326988 7.766876
35.942253 -100.499229 25.438274
51.810539 -81.98848 2.691777
51.23568 -77.991814 12.161824
49.649017 -80.319 17.242012
44.023514 -95.244881 26.387505
46.127903 -90.439171 27.620203
45.473339 -93.068855 21.490376
46.624477 -90.38623 16.559496
45.088451 -95.648613 15.338788
44.619171 -98.38826 9.376499
42.553886 -100.504829 13.651274
42.120026 -96.233826 31.035772
41.512005 -99.252899 24.314169
40.467678 -102.025345 17.869013
38.285667 -102.192688 21.814672
34.304031 -104.369843 19.627928
57.697136 -73.235329 3.177364
53.976295 -75.784882 7.454169
51.334396 -79.970055 7.332267
49.423531 -84.910576 7.063951
47.150208 -87.551834 33.477703
48.852165 -82.870628 22.554554
47.930756 -85.122513 17.149899
47.809769 -87.639832 11.718025
48.1563 -90.436378 6.392812
46.580063 -96.073509 5.201783
38.812634 -104.848732 11.938157
50.754669 -84.645645 2.480586
52.035942 -82.965668 0.422511
43.738506 -96.604042 23.133514
44.800964 -94.260376 23.954224
44.540195 -95.56385 20.778116
45.265755 -94.351807 18.40136
44.279858 -96.847099 17.627197
43.976376 -98.142105 14.531085
43.040241 -99.198128 16.735254
41.014179 -96.090431 33.186188
40.76384 -97.764153 29.782906
41.849583 -97.790039 27.664953
40.441002 -99.342072 26.391958
39.997017 -100.851067 23.076841
38.873936 -100.590263 25.021294
34.027908 -101.060127 24.185587
35.219418 -102.415504 22.415213
33.14278 -103.194298 21.412516
32.07505 -105.384811 18.905083
56.155907 -75.203514 3.056856
55.337814 -73.897591 7.524544
53.747963 -74.972801 9.787196
50.124344 -80.143166 12.152063
51.214493 -78.965668 9.724075
50.119942 -81.221054 9.671535
50.267555 -82.345322 7.233222
49.231392 -83.668053 9.562346
45.043179 -90.590988 35.853149
45.896645 -89.953186 33.260342
46.662121 -89.215523 24.987068
47.15332 -87.919228 27.902706
47.584541 -86.659821 25.206295
48.549 -84.168533 25.264198
47.942204 -85.325653 22.523811
48.295307 -83.972092 19.86554
47.500999 -86.500984 19.739792
46.59359 -91.709175 13.665131
47.188454 -89.007645 14.121764
47.256927 -90.362144 11.332678
47.964867 -89.008232 9.038002
47.382225 -91.78511 8.577653
47.479733 -93.270798 5.859294
46.644581 -94.549263 7.981595
43.092697 -100.900238 8.564299
44.237656 -99.877304 6.489752
42.470467 -102.419975 5.693609
40.364281 -104.901131 4.950818
38.619785 -103.79425 16.848749
39.715157 -103.410713 14.835273
37.677807 -105.299889 13.973609
37.698009 -99.837135 26.873627
53.095795 -79.535339 2.836582
54.86866 -77.939781 0.765172
53.347019 -80.347221 0.619023
50.310085 -79.12468 14.66401
49.310532 -81.363533 14.664213
44.31831 -93.804115 29.622938
45.462666 -91.479271 30.233273
45.100189 -92.907562 27.118862
45.753029 -91.773445 24.574509
46.299812 -90.485077 22.017031
46.781654 -89.115837 19.46501
46.068161 -91.754929 19.019842
45.940422 -93.048286 16.025173
45.865734 -94.385002 13.059244
45.780643 -95.782356 10.139459
44.889687 -96.985649 12.326362
43.590107 -99.482498 11.508229
41.94606 -101.869553 10.662745
43.705074 -92.703606 35.25885
42.370537 -94.561012 34.364464
43.40398 -94.379341 32.05127
43.128639 -95.930908 28.759403
42.843468 -97.377594 25.439426
42.505444 -98.745949 22.14296
42.073086 -100.068901 18.91329
41.062248 -100.652672 21.035913
39.395294 -102.323311 19.885946
37.513924 -103.790817 18.781422
37.133663 -101.584656 23.656759
36.382378 -103.336845 20.629721
35.442867 -105.115242 17.816792
49.126953 -90.419571 1.739603
57.135117 -72.704742 5.370707
55.747185 -74.591072 5.264881
54.263489 -76.56192 5.175166
52.45882 -76.895248 9.754154
52.599564 -77.791824 7.396065
52.827484 -78.678757 5.091443
51.554218 -80.984924 4.990171
50.504971 -83.494141 4.838979
49.672092 -86.186508 4.603586
46.599201 -89.039909 30.596596
49.190025 -81.574821 19.877119
48.724331 -82.642311 17.241249
48.465332 -83.778183 14.597812
47.253311 -87.722702 16.931297
47.777172 -86.342911 14.427164
48.416969 -84.992798 11.965643
48.538788 -86.280975 9.360888
48.755901 -87.627518 6.79162
48.979023 -89.013359 4.255242
48.297089 -91.909508 3.777258
45.623264 -97.254219 7.271729
41.515678 -101.384789 15.781417
40.819458 -102.734955 12.763008
39.988655 -104.159271 9.85811
50.418951 -86.629493 1.156375
50.849886 -85.214775 1.311199
50.323734 -86.060363 2.325762
40.031599 -98.358959 29.072592
40.183129 -97.509816 30.780482
39.450888 -98.104622 30.070168
32.553853 -102.422443 22.324584
33.585344 -102.127212 22.799052
32.996417 -101.355358 23.71112
32.034119 -103.61137 21.080087
32.553853 -102.422443 22.324584
55.55156 -76.503051 1.920899
56.341408 -75.462395 1.974903
55.366059 -76.244171 3.002852
53.670891 -74.55637 10.976889
54.351856 -74.05677 9.811025
52.782789 -82.039066 -0.578434
52.106567 -83.438507 -0.707235
49.979551 -79.72184 15.953011
50.488752 -78.643497 15.927801
50.158218 -79.240657 17.216801
43.172682 -92.73008 36.420822
43.879514 -91.798286 36.791359
33.758747 -105.369843 18.354454
34.328165 -105.742542 17.448886
34.873449 -104.742542 18.72236
30.290273 -107.040059 17.588532
31.466058 -106.503262 17.77476
30.899265 -105.921608 18.718855
58.712405 -72.43993 2.175006
58.372107 -72.275623 3.245205
55.844929 -77.042026 -0.237782
54.981916 -78.233158 -0.313464
49.135238 -91.123654 0.483525
48.722837 -91.915199 1.45875
56.840855 -72.385128 6.490673
57.710121 -71.771492 5.429761
51.84725 -77.443531 10.957989
52.443843 -76.450672 10.957095
51.832273 -76.998955 12.16093
47.452414 -86.754551 34.859312
47.075156 -87.135106 36.203277
46.772949 -87.932389 34.821669
47.778618 -86.34214 33.485126
47.452414 -86.754551 34.859312
47.450508 -87.243199 29.322799
47.677341 -86.669327 27.950197
49.200539 -82.327259 23.879141
49.048956 -82.976212 25.233963
48.700582 -83.51958 23.909376
49.335628 -81.709575 22.52217
49.200539 -82.327259 23.879141
49.021095 -82.222724 21.215837
49.504559 -81.061672 21.183453
49.335628 -81.709575 22.52217
47.028008 -95.441479 4.185832
47.477843 -94.040123 4.514588
47.029898 -94.672154 5.530539
46.479882 -96.867897 3.827418
47.028008 -95.441479 4.185832
44.791462 -99.342724 5.470506
43.979893 -100.670688 5.073551
51.490522 -84.374786 0.282161
51.395305 -83.805656 1.451549
50.849886 -85.214775 1.311199
52.106567 -83.438507 -0.707235
51.490522 -84.374786 0.282161
49.906023 -79.824852 18.528745
50.158218 -79.240657 17.216801
40.308298 -96.672955 32.482123
40.423837 -95.781093 34.18956
40.88901 -96.927292 31.484547
40.308298 -96.672955 32.482123
40.183129 -97.509816 30.780482
31.500253 -104.706626 19.826371
32.608915 -104.289555 20.1588
32.034119 -103.61137 21.080087
30.899265 -105.921608 18.718855
31.500253 -104.706626 19.826371
57.176666 -74.423423 2.041182
57.947281 -73.439331 2.101436
56.926521 -74.219421 3.11711
57.176666 -74.423423 2.041182
56.341408 -75.462395 1.974903
55.146782 -73.519165 8.679699
55.942204 -72.981552 7.567591
54.542889 -74.435196 8.65587
55.146782 -73.519165 8.679699
54.351856 -74.05677 9.811025
45.719435 -89.451966 36.009391
45.267226 -89.69231 37.304354
46.146168 -89.133065 34.712988
45.719435 -89.451966 36.009391
45.469912 -90.272087 34.556746
46.523426 -88.75251 33.369022
46.772949 -87.932389 34.821669
46.146168 -89.133065 34.712988
47.892952 -86.039624 26.601992
47.677341 -86.669327 27.950197
47.368931 -87.289524 26.5545
48.066771 -85.414177 25.235247
48.375181 -84.79398 26.630943
47.892952 -86.039624 26.601992
43.096299 -101.942024 4.67548
43.979893 -100.670688 5.073551
43.354062 -101.14864 6.091681
42.096749 -103.236518 4.288374
42.72258 -102.758567 3.270245
43.096299 -101.942024 4.67548
41.043655 -104.477097 3.916979
42.096749 -103.236518 4.288374
41.417374 -103.660553 5.322214
39.8895 -105.750157 3.57393
41.043655 -104.477097 3.916979
38.699955 -98.512287 29.296242
39.450888 -98.104622 30.070168
37.899281 -98.953971 28.551916
38.498683 -99.395451 27.617953
38.699955 -98.512287 29.296242
37.088445 -99.22258 27.76787
37.899281 -98.953971 28.551916
36.210567 -99.553627 27.050193
36.820131 -100.168182 26.15595
37.088445 -99.22258 27.76787
35.330202 -99.742378 26.323985
36.210567 -99.553627 27.050193
34.37303 -100.022827 25.697642
34.98508 -100.779678 24.811931
35.330202 -99.742378 26.323985
33.420902 -100.203739 25.097461
34.37303 -100.022827 25.697642
33.766024 -99.166439 26.609516
32.996417 -101.355358 23.71112
33.420902 -100.203739 25.097461
54.221096 -79.436878 -0.386538
54.981916 -78.233158 -0.313464
54.107839 -79.143501 0.692098
53.438327 -80.729843 -0.480179
52.69148 -81.656444 0.520767
52.782789 -82.039066 -0.578434
54.221096 -79.436878 -0.386538
53.438327 -80.729843 -0.480179
51.321087 -77.524563 13.397746
51.832273 -76.998955 12.16093
50.858289 -78.090996 14.648839
50.488752 -78.643497 15.927801
50.772883 -78.558247 13.412917
51.321087 -77.524563 13.397746
50.858289 -78.090996 14.648839
36.00967 -106.251415 14.604257
35.449821 -106.175754 15.575616
44.548567 -90.741977 37.088509
45.267226 -89.69231 37.304354
44.374127 -91.647297 35.555999
44.548567 -90.741977 37.088509
43.879514 -91.798286 36.791359
41.127752 -95.195648 34.856832
40.423837 -95.781093 34.18956
41.805931 -94.430938 35.445971
41.127752 -95.195648 34.856832
41.692358 -95.325722 33.775326
42.505413 -93.658783 35.973629
41.805931 -94.430938 35.445971
43.037806 -93.632309 34.811657
43.172682 -92.73008 36.420822
42.505413 -93.658783 35.973629
34.890047 -106.026341 16.515615
35.449821 -106.175754 15.575616
36.002641 -105.264656 16.876792
34.890047 -106.026341 16.515615
34.328165 -105.742542 17.448886
32.644256 -105.877327 17.993032
33.758747 -105.369843 18.354454
33.18954 -104.877327 19.266506
32.644256 -105.877327 17.993032
31.466058 -106.503262 17.77476
58.712405 -72.43993 2.175006
57.947281 -73.439331 2.101436
55.697784 -76.830528 0.829062
55.55156 -76.503051 1.920899
54.722435 -77.612304 1.85701
55.697784 -76.830528 0.829062
55.844929 -77.042026 -0.237782
49.572426 -89.589402 0.744193
49.955349 -88.117157 0.959861
49.509876 -88.947327 1.955271
49.572426 -89.589402 0.744193
49.135238 -91.123654 0.483525
58.091097 -72.01033 4.341877
57.710121 -71.771492 5.429761
57.416127 -72.970035 4.274036
58.372107 -72.275623 3.245205
58.091097 -72.01033 4.341877
56.236466 -73.301166 6.447626
56.840855 -72.385128 6.490673
55.942204 -72.981552 7.567591
53.088415 -75.489449 10.973616
53.670891 -74.55637 10.976889
53.103392 -75.934024 9.770675
53.088415 -75.489449 10.973616
52.443843 -76.450672 10.957095
47.173448 -87.803539 30.669745
46.876261 -88.479568 29.249651
47.450508 -87.243199 29.322799
47.448952 -87.059502 32.110298
46.874704 -88.295872 32.037149
47.173448 -87.803539 30.669745
47.778618 -86.34214 33.485126
47.448952 -87.059502 32.110298
48.908175 -83.580914 26.606939
48.375181 -84.79398 26.630943
48.908175 -83.580914 26.606939
49.048956 -82.976212 25.233963
49.676527 -80.452763 19.846299
49.504559 -81.061672 21.183453
49.419521 -80.946911 18.559565
49.906023 -79.824852 18.528745
49.676527 -80.452763 19.846299
48.307906 -92.660168 2.477577
48.722837 -91.915199 1.45875
48.712021 -91.16454 2.75843
47.886521 -93.359478 3.473569
47.888411 -92.590153 4.818276
47.477843 -94.040123 4.514588
48.307906 -92.660168 2.477577
47.886521 -93.359478 3.473569
45.484266 -98.031182 5.861495
44.93046 -98.565762 6.88074
44.791462 -99.342724 5.470506
45.962665 -97.440827 4.826522
46.101664 -96.663864 6.236756
45.484266 -98.031182 5.861495
46.479882 -96.867897 3.827418
45.962665 -97.440827 4.826522
36.567366 -106.194324 13.622666
37.120112 -105.356979 14.955201
36.00967 -106.251415 14.604257
37.137156 -106.086391 12.611071
36.567366 -106.194324 13.622666
37.704569 -105.860813 11.593345
38.245221 -105.07431 12.955883
37.137156 -106.086391 12.611071
38.298712 -105.611606 10.551443
37.704569 -105.860813 11.593345
38.886723 -105.266876 9.511419
39.400644 -104.504002 10.898134
38.298712 -105.611606 10.551443
39.515079 -104.924641 8.455948
38.886723 -105.266876 9.511419
40.127344 -104.508499 7.410331
40.60092 -103.74313 8.812493
39.515079 -104.924641 8.455948
39.702893 -105.29557 6.002302
40.788732 -104.114059 6.358847
40.127344 -104.508499 7.410331
39.18348 -106.123356 4.640076
39.702893 -105.29557 6.002302
39.8895 -105.750157 3.57393
39.18348 -106.123356 4.640076
50.418951 -86.629493 1.156375
49.955349 -88.117157 0.959861
3 0 144 146
3 146 145 37
3 144 145 146
3 1 41 39
3 1 43 41
3 1 45 43
3 3 147 149
3 147 47 148
3 147 148 149
3 3 49 47
3 3 51 49
3 150 54 151
3 152 151 52
3 150 151 152
3 154 153 54
3 5 155 157
3 157 156 56
3 155 156 157
3 158 58 159
3 6 61 59
3 6 63 61
3 2 65 64
3 7 68 66
3 7 70 68
3 7 72 70
3 8 75 73
3 8 77 75
3 8 79 77
3 9 82 80
3 9 83 82
3 4 86 84
3 11 90 88
3 161 160 38
3 13 162 164
3 162 91 163
3 162 163 164
3 13 92 91
3 14 95 93
3 16 96 40
3 16 97 96
3 16 99 97
3 18 100 42
3 18 101 100
3 18 103 101
3 20 104 44
3 20 105 104
3 165 106 166
3 21 107 46
3 21 108 107
3 21 109 108
3 22 110 48
3 22 111 110
3 22 113 111
3 24 114 50
3 24 115 114
3 10 116 87
3 25 117 53
3 25 118 117
3 25 167 169
3 169 168 118
3 167 168 169
3 172 171 55
3 170 171 172
3 26 173 174
3 176 175 89
3 178 177 119
3 179 120 180
3 27 121 57
3 27 122 121
3 12 181 183
3 181 123 182
3 181 182 183
3 28 124 60
3 28 125 124
3 28 126 125
3 29 127 62
3 29 128 127
3 30 184 186
3 184 185 186
3 30 187 188
3 15 129 94
3 190 189 67
3 31 191 193
3 193 192 69
3 191 192 193
3 31 194 195
3 31 196 198
3 196 130 197
3 196 197 198
3 32 131 71
3 32 132 131
3 17 133 98
3 33 134 74
3 33 135 134
3 33 136 135
3 34 137 76
3 34 138 137
3 34 139 138
3 35 199 201
3 201 200 78
3 199 200 201
3 35 202 203
3 19 140 102
3 205 204 81
3 23 141 112
3 36 142 85
3 36 143 142
3 37 38 11
3 206 38 207
3 208 207 37
3 206 207 208
3 210 209 38
3 211 13 212
3 39 40 14
3 41 40 39
3 41 16 40
3 41 42 16
3 43 42 41
3 43 18 42
3 43 44 18
3 45 44 43
3 45 20 44
3 213 46 214
3 47 215 217
3 215 46 216
3 215 216 217
3 47 21 46
3 47 48 21
3 49 48 47
3 49 22 48
3 49 50 22
3 51 50 49
3 51 24 50
3 52 53 10
3 54 53 52
3 54 25 53
3 54 55 25
3 218 55 219
3 220 219 54
3 218 219 220
3 222 221 55
3 56 223 225
3 225 224 26
3 223 224 225
3 227 226 56
3 228 57 229
3 58 230 232
3 230 57 231
3 230 231 232
3 58 27 57
3 59 60 12
3 61 60 59
3 61 28 60
3 61 62 28
3 63 62 61
3 63 29 62
3 64 233 234
3 65 235 237
3 237 236 64
3 235 236 237
3 65 238 240
3 238 30 239
3 238 239 240
3 66 67 15
3 68 67 66
3 68 241 243
3 243 242 67
3 241 242 243
3 68 244 246
3 244 69 245
3 244 245 246
3 70 69 68
3 70 31 69
3 70 71 31
3 72 71 70
3 72 32 71
3 73 74 17
3 75 74 73
3 75 33 74
3 75 76 33
3 77 76 75
3 77 34 76
3 77 78 34
3 79 78 77
3 79 35 78
3 80 81 19
3 82 81 80
3 82 247 249
3 249 248 81
3 247 248 249
3 82 250 252
3 250 251 252
3 83 253 255
3 255 254 82
3 253 254 255
3 83 256 257
3 84 85 23
3 86 85 84
3 86 36 85
3 258 3 259
3 260 87 261
3 262 261 3
3 260 261 262
3 263 87 264
3 265 10 266
3 267 266 87
3 265 266 267
3 268 10 269
3 270 52 271
3 272 271 10
3 270 271 272
3 273 52 274
3 273 274 275
3 277 276 52
3 88 89 5
3 90 89 88
3 90 278 280
3 280 279 89
3 278 279 280
3 38 90 11
3 281 90 282
3 283 282 38
3 281 282 283
3 285 284 90
3 286 12 287
3 91 288 289
3 91 290 292
3 290 12 291
3 290 291 292
3 91 59 12
3 92 59 91
3 92 6 59
3 93 94 2
3 95 94 93
3 95 15 94
3 40 95 14
3 96 95 40
3 96 15 95
3 96 66 15
3 97 66 96
3 97 7 66
3 97 98 7
3 99 98 97
3 99 17 98
3 42 99 16
3 100 99 42
3 100 17 99
3 100 73 17
3 101 73 100
3 101 8 73
3 101 102 8
3 103 102 101
3 103 19 102
3 44 103 18
3 104 103 44
3 104 19 103
3 104 80 19
3 105 80 104
3 105 9 80
3 294 293 4
3 295 64 296
3 106 297 299
3 297 64 298
3 297 298 299
3 106 2 64
3 46 300 301
3 107 302 304
3 304 303 46
3 302 303 304
3 107 305 306
3 107 307 309
3 307 106 308
3 307 308 309
3 108 106 107
3 108 2 106
3 108 93 2
3 109 93 108
3 109 14 93
3 48 109 21
3 110 109 48
3 110 14 109
3 110 39 14
3 111 39 110
3 111 1 39
3 111 112 1
3 113 112 111
3 113 23 112
3 50 113 22
3 114 113 50
3 114 23 113
3 114 84 23
3 115 84 114
3 115 4 84
3 87 51 3
3 116 51 87
3 116 24 51
3 53 116 10
3 117 116 53
3 117 24 116
3 117 115 24
3 118 115 117
3 118 4 115
3 118 310 312
3 312 311 4
3 310 311 312
3 314 313 118
3 55 315 317
3 317 316 25
3 315 316 317
3 319 318 55
3 321 320 26
3 89 322 324
3 324 323 5
3 322 323 324
3 326 325 89
3 119 327 329
3 329 328 0
3 327 328 329
3 331 330 119
3 120 332 333
3 120 334 336
3 334 26 335
3 334 335 336
3 57 337 339
3 337 120 338
3 337 338 339
3 121 120 57
3 121 26 120
3 121 56 26
3 122 56 121
3 122 5 56
3 340 58 341
3 123 342 344
3 342 58 343
3 342 343 344
3 123 27 58
3 60 123 12
3 124 123 60
3 124 27 123
3 124 122 27
3 125 122 124
3 125 5 122
3 125 88 5
3 126 88 125
3 126 11 88
3 62 126 28
3 127 126 62
3 127 11 126
3 127 37 11
3 128 37 127
3 128 0 37
3 94 65 2
3 129 65 94
3 129 30 65
3 67 129 15
3 345 129 346
3 347 346 67
3 345 346 347
3 348 30 349
3 350 349 129
3 348 349 350
3 352 351 30
3 69 353 354
3 356 355 69
3 130 357 358
3 130 359 361
3 359 13 360
3 359 360 361
3 71 130 31
3 131 130 71
3 131 13 130
3 131 92 13
3 132 92 131
3 132 6 92
3 98 72 7
3 133 72 98
3 133 32 72
3 74 133 17
3 134 133 74
3 134 32 133
3 134 132 32
3 135 132 134
3 135 6 132
3 135 63 6
3 136 63 135
3 136 29 63
3 76 136 33
3 137 136 76
3 137 29 136
3 137 128 29
3 138 128 137
3 138 0 128
3 138 119 0
3 139 119 138
3 139 362 364
3 364 363 119
3 362 363 364
3 78 139 34
3 365 139 366
3 367 366 78
3 365 366 367
3 369 368 139
3 102 79 8
3 140 79 102
3 140 35 79
3 81 140 19
3 370 140 371
3 372 371 81
3 370 371 372
3 373 35 374
3 375 374 140
3 373 374 375
3 377 376 35
3 112 45 1
3 141 45 112
3 141 20 45
3 85 141 23
3 142 141 85
3 142 20 141
3 142 105 20
3 143 105 142
3 143 9 105
3 378 86 379
3 380 379 4
3 378 379 380
3 381 86 382
3 383 36 384
3 385 384 86
3 383 384 385
3 386 36 387
3 388 143 389
3 390 389 36
3 388 389 390
3 391 143 392
3 393 9 394
3 395 394 143
3 393 394 395
3 396 83 397
3 398 397 9
3 396 397 398
3 399 83 400
3 402 401 83
3 404 403 0
