ply
format ascii 1.0
element vertex 373
property float x
property float y
property float z
element face 369
property list uchar int vertex_index
end_header
-21.638996 -104.221436 24.208786
-15.531427 -89.399826 50.344109
-27.519571 -84.422577 45.103256
-14.256497 -107.14679 31.642313
-7.665945 -98.023895 49.475182
-13.397329 -99.353348 44.368782
-19.252331 -95.323669 36.48357
-21.650375 -84.9104 45.583496
-17.722828 -105.799225 27.33717
-22.765997 -108.977631 19.365032
-14.551246 -94.416702 47.005424
-16.272814 -97.649872 40.310184
-17.517391 -91.955933 43.412331
-24.645496 -84.140076 44.789719
-23.645123 -88.286606 39.168137
-26.737583 -88.310913 39.441677
-7.097744 -103.101166 40.791138
-9.037951 -102.034332 44.504036
-10.521318 -99.588745 47.61282
-11.539417 -103.423752 41.951065
-14.278686 -103.085556 38.02713
-17.269833 -101.473816 33.626919
-20.574678 -99.498322 29.95853
-18.601566 -86.834641 47.534763
-20.534122 -89.611893 40.568939
-22.437347 -93.439713 33.943855
-24.180958 -98.139542 28.030033
-19.630177 -104.982773 25.563988
-17.899279 -108.081558 24.437405
-19.989899 -107.340622 22.839212
-22.177822 -106.637161 21.679955
-13.491507 -93.008743 50.265507
-15.02381 -91.870071 48.569256
-16.036079 -93.23822 45.171001
-16.535793 -90.58606 46.899124
-26.552221 -82.337814 47.318264
-25.161026 -82.309311 47.396553
-26.098387 -84.179718 44.824593
-25.656727 -86.086609 42.041069
-27.132235 -86.330795 42.406837
-12.706097 -107.456345 33.877777
-7.24589 -98.665283 47.563236
-7.879774 -100.706329 45.182625
-8.529045 -100.02565 47.023865
-12.559528 -97.622086 47.44429
-11.961603 -99.688919 46.143768
-11.201159 -101.485291 44.826294
-12.575977 -101.540527 43.169197
-12.879963 -103.45546 40.118271
-13.973102 -101.175385 41.22131
-17.740904 -96.49791 38.296413
-16.861559 -99.490555 36.943687
-18.379108 -98.398666 34.910385
-18.879982 -100.465576 31.62842
-19.962708 -97.320312 33.144241
-22.26775 -82.937752 48.184299
-20.128201 -85.747391 46.425385
-19.55658 -88.095444 44.034004
-21.083593 -87.123779 43.004715
-23.09338 -90.727921 36.440063
-24.095097 -92.931778 33.382942
-23.328394 -95.706589 30.878735
-25.076303 -95.341446 30.523958
-15.929918 -106.559402 29.41058
-13.045954 -95.3647 48.796658
-14.035182 -96.945694 45.623894
-14.830657 -98.642227 42.382042
-15.495035 -95.959152 43.677605
-16.95462 -94.777115 41.733185
-18.433212 -93.5327 39.924149
-23.15999 -84.372238 45.036682
-22.618683 -86.448868 42.319145
-24.148512 -86.106995 42.000137
-25.203945 -88.140579 39.102676
-6.405088 -101.137573 41.027531
-27.920752 -82.509949 47.410439
-7.158045 -101.072556 43.185318
-8.105288 -102.741135 42.73465
-9.146513 -104.04834 41.899094
-9.084137 -99.029572 48.72501
-9.850048 -100.978378 46.11908
-10.25783 -102.950821 43.428673
-10.293362 -104.942245 40.645782
-11.546213 -105.398758 38.992592
-12.899862 -105.428558 37.011848
-14.349496 -105.078125 34.821251
-15.397791 -100.458206 39.098358
-15.739241 -102.389557 35.811897
-15.894108 -104.427612 32.56794
-17.536484 -103.584641 30.41016
-19.279331 -102.673172 28.500217
-21.11903 -101.817566 26.970524
-17.071404 -88.088409 48.863087
-18.042414 -89.285843 45.356773
-19.012875 -90.704514 41.844856
-19.94693 -92.363876 38.374954
-22.081898 -88.783371 39.661129
-21.502432 -91.396713 37.189041
-20.818108 -94.264572 34.999184
-21.615801 -96.38739 31.769613
-22.34827 -98.693222 28.732674
-23.040075 -101.123657 25.922813
-28.922256 -84.778046 45.572357
-23.723759 -103.602539 23.356108
-24.428219 -106.038818 21.025089
-25.168327 -108.331818 18.897081
-15.277618 -90.634949 49.456682
-14.497732 -91.258522 50.234017
-14.751541 -90.0234 51.121443
-13.326933 -108.342041 31.193897
-12.551733 -108.496818 32.311628
-13.481297 -107.301568 32.760045
-7.455917 -98.344589 48.519209
-6.766666 -97.639557 48.729544
-6.976694 -97.318863 49.685516
-21.209648 -84.283386 47.252127
-21.518335 -83.297062 48.552528
-21.959063 -83.924076 46.883898
-20.889288 -85.328895 46.004441
-20.448561 -84.701881 47.673071
-21.209648 -84.283386 47.252127
-24.929707 -92.851967 33.361723
-24.398013 -91.670654 34.774379
-25.42031 -94.056801 31.932231
-24.5857 -94.136612 31.95345
-24.929707 -92.851967 33.361723
-16.825697 -107.281693 26.856062
-15.929242 -107.661781 27.892767
-16.826373 -106.179314 28.373875
-16.934265 -109.544792 23.958971
-18.014401 -109.230782 23.078592
-21.834683 -110.442147 18.672839
-21.585838 -109.327179 19.843204
-23.089599 -110.061951 18.29272
-21.834683 -110.442147 18.672839
-24.189563 -83.316891 46.233963
-24.447328 -82.401509 47.53738
-24.903261 -83.224694 46.093136
-23.902743 -84.256157 44.913201
-23.44681 -83.432972 46.357444
-24.189563 -83.316891 46.233963
-26.518141 -89.374679 37.90278
-25.751322 -89.289513 37.73328
-25.970764 -88.225746 39.272177
-6.587451 -103.116356 39.728912
-6.241123 -102.134559 39.847109
-6.751416 -102.11937 40.909334
-28.132976 -81.520756 48.336178
-27.474978 -81.496392 48.420313
-6.967996 -100.048386 44.348726
-6.720225 -100.092553 43.252544
-10.034748 -98.660835 48.963926
-10.791574 -98.745339 48.322504
-9.802727 -99.309158 48.168915
-9.316157 -98.381248 49.520021
-10.034748 -98.660835 48.963926
-18.151302 -86.31569 49.279913
-18.923255 -85.731423 48.705768
-17.836485 -87.461525 48.198925
-17.386221 -86.942574 49.944075
-18.151302 -86.31569 49.279913
-29.626335 -84.96302 45.870705
-29.106599 -83.761773 46.602495
-24.784853 -103.387306 23.202949
-24.36831 -102.13118 24.387887
-25.137083 -104.605446 22.03744
-24.075989 -104.820678 22.190599
-24.784853 -103.387306 23.202949
-26.366083 -108.039497 18.9112
-25.932046 -106.951165 19.898259
-25.554333 -109.355339 17.90755
-26.366083 -108.039497 18.9112
-19.059711 -108.860313 22.279496
-18.014401 -109.230782 23.078592
-18.944589 -107.71109 23.638309
-20.197789 -108.508674 21.580295
-19.059711 -108.860313 22.279496
-21.29175 -108.156944 21.000666
-20.197789 -108.508674 21.580295
-21.083861 -106.988891 22.259583
-22.471909 -107.807396 20.522493
-21.585838 -109.327179 19.843204
-21.29175 -108.156944 21.000666
-13.731581 -91.827858 51.082142
-12.937904 -92.357795 51.853739
-14.257658 -92.439407 49.417382
-13.731581 -91.827858 51.082142
-14.497732 -91.258522 50.234017
-25.856623 -82.323562 47.357408
-25.433538 -81.419056 48.553293
-26.129136 -81.433307 48.514149
-6.86301 -104.102722 39.54837
-7.505768 -103.932564 40.495251
-11.782987 -108.452927 33.381161
-11.995862 -107.431542 34.921066
-11.782987 -108.452927 33.381161
-12.551733 -108.496818 32.311628
-6.627264 -97.811622 47.67759
-6.766666 -97.639557 48.729544
-7.011919 -98.84475 46.537686
-6.627264 -97.811622 47.67759
-7.562832 -99.685806 46.372931
-7.328861 -99.865273 45.34738
-7.011919 -98.84475 46.537686
-11.810678 -97.762009 48.238239
-12.035218 -96.79863 48.940012
-11.511716 -98.795425 47.587978
-11.810678 -97.762009 48.238239
-12.260566 -98.655502 46.794029
-11.241461 -99.638832 46.878294
-10.791574 -98.745339 48.322504
-11.511716 -98.795425 47.587978
-21.881592 -82.357232 49.795896
-22.607951 -82.037537 49.434956
-21.881592 -82.357232 49.795896
-21.518335 -83.297062 48.552528
-19.686573 -85.187797 48.151079
-20.448561 -84.701881 47.673071
-19.364883 -86.291016 46.980074
-18.923255 -85.731423 48.705768
-19.686573 -85.187797 48.151079
-23.897154 -90.568726 36.30294
-23.369252 -89.507263 37.8041
-24.173026 -89.348069 37.666977
-23.594238 -91.829849 34.911502
-23.897154 -90.568726 36.30294
-24.398013 -91.670654 34.774379
-15.010555 -107.920921 28.9681
-14.173844 -108.214615 30.083967
-15.093208 -106.853096 30.526446
-15.010555 -107.920921 28.9681
-15.929242 -107.661781 27.892767
-16.913922 -108.422859 25.40618
-16.825697 -107.281693 26.856062
-17.811053 -106.940392 25.887287
-16.913922 -108.422859 25.40618
-16.934265 -109.544792 23.958971
-7.111911 -97.020088 50.675976
-6.976694 -97.318863 49.685516
-12.710187 -93.44561 51.076088
-12.937904 -92.357795 51.853739
-12.48741 -94.623588 50.341663
-12.710187 -93.44561 51.076088
-13.268731 -94.186722 49.531082
-12.278431 -95.669937 49.616196
-12.48741 -94.623588 50.341663
-12.802741 -96.493393 48.120474
-12.035218 -96.79863 48.940012
-12.278431 -95.669937 49.616196
-24.755748 -81.519959 48.759709
-25.433538 -81.419056 48.553293
-24.755748 -81.519959 48.759709
-24.447328 -82.401509 47.53738
-23.00069 -82.715729 47.931253
-22.607951 -82.037537 49.434956
-22.71387 -83.654995 46.61049
-23.00069 -82.715729 47.931253
-23.44681 -83.432972 46.357444
-24.952437 -89.275055 37.634247
-24.173026 -89.348069 37.666977
-24.424534 -88.213593 39.135407
-24.952437 -89.275055 37.634247
-25.751322 -89.289513 37.73328
-6.038809 -101.030822 39.871601
-6.099141 -100.043388 41.01031
-6.038809 -101.030822 39.871601
-6.241123 -102.134559 39.847109
-6.587451 -103.116356 39.728912
-6.86301 -104.102722 39.54837
-15.041495 -88.879448 52.030165
-14.751541 -90.0234 51.121443
-26.790712 -81.410324 48.374225
-26.129136 -81.433307 48.514149
-27.236486 -82.423881 47.364351
-26.790712 -81.410324 48.374225
-27.474978 -81.496392 48.420313
-13.326933 -108.342041 31.193897
-14.173844 -108.214615 30.083967
-6.343746 -100.125061 42.173651
-6.099141 -100.043388 41.01031
-6.781567 -101.105064 42.106425
-6.343746 -100.125061 42.173651
-6.720225 -100.092553 43.252544
-7.51891 -100.889443 44.183971
-6.967996 -100.048386 44.348726
-7.328861 -99.865273 45.34738
-8.00954 -103.752549 41.467007
-7.505768 -103.932564 40.495251
-7.601516 -102.921151 41.762894
-8.530152 -104.406151 41.049229
-8.00954 -103.752549 41.467007
-8.625901 -103.394737 42.316872
-9.013461 -105.054695 40.547297
-8.530152 -104.406151 41.049229
-7.851608 -97.561226 50.368031
-7.111911 -97.020088 50.675976
-8.560704 -98.064065 49.992945
-9.316157 -98.381248 49.520021
-8.375041 -98.526734 49.100096
-7.851608 -97.561226 50.368031
-8.560704 -98.064065 49.992945
-9.586886 -105.501647 39.92064
-9.013461 -105.054695 40.547297
-9.719938 -104.495293 41.272438
-10.14986 -105.944801 39.207342
-9.586886 -105.501647 39.92064
-10.776286 -106.173057 38.380747
-10.14986 -105.944801 39.207342
-10.919787 -105.170502 39.819187
-11.41592 -106.402748 37.478473
-10.776286 -106.173057 38.380747
-12.092745 -106.417648 36.488101
-11.41592 -106.402748 37.478473
-12.223038 -105.413658 38.00222
-12.802979 -106.442452 35.444812
-11.995862 -107.431542 34.921066
-12.092745 -106.417648 36.488101
-15.834535 -88.237885 51.333664
-15.041495 -88.879448 52.030165
-16.604523 -87.582176 50.593153
-17.386221 -86.942574 49.944075
-16.301416 -88.744118 49.603598
-15.834535 -88.237885 51.333664
-16.604523 -87.582176 50.593153
-28.605846 -82.627724 47.521536
-28.132976 -81.520756 48.336178
-28.421504 -83.643998 46.491398
-28.605846 -82.627724 47.521536
-29.106599 -83.761773 46.602495
-29.461456 -86.00267 44.71584
-29.626335 -84.96302 45.870705
-28.748911 -85.762978 44.30538
-29.461456 -86.00267 44.71584
-28.047568 -85.585244 44.07083
-28.220914 -84.600312 45.337806
-28.748911 -85.762978 44.30538
-27.8539 -86.539353 42.72262
-27.325903 -85.376686 43.755047
-28.047568 -85.585244 44.07083
-27.682996 -87.523544 41.268044
-27.8539 -86.539353 42.72262
-27.48567 -88.513603 39.785463
-26.934909 -87.320854 40.924257
-27.682996 -87.523544 41.268044
-27.300315 -89.532974 38.216368
-27.48567 -88.513603 39.785463
-26.518141 -89.374679 37.90278
-27.300315 -89.532974 38.216368
-25.950633 -95.320167 30.617812
-25.42031 -94.056801 31.932231
-25.557925 -96.609688 29.205103
-25.950633 -95.320167 30.617812
-25.110253 -98.008736 27.95814
-24.62863 -96.740494 29.276995
-25.557925 -96.609688 29.205103
-24.59691 -99.399681 26.724849
-25.110253 -98.008736 27.95814
-24.026468 -100.891739 25.671239
-23.610517 -99.631599 26.976423
-24.59691 -99.399681 26.724849
-23.381917 -102.363098 24.63946
-24.026468 -100.891739 25.671239
-24.36831 -102.13118 24.387887
-25.561992 -105.804665 20.962263
-25.137083 -104.605446 22.03744
-24.798273 -107.185318 19.961085
-25.561992 -105.804665 20.962263
-25.932046 -106.951165 19.898259
-24.290764 -109.739045 18.058744
-23.089599 -110.061951 18.29272
-23.967162 -108.654725 19.131056
-24.290764 -109.739045 18.058744
-25.554333 -109.355339 17.90755
3 0 29 27
3 0 30 29
3 1 106 108
3 106 32 107
3 106 107 108
3 1 34 32
3 2 37 35
3 2 39 37
3 3 109 111
3 111 110 40
3 109 110 111
3 4 112 114
3 112 41 113
3 112 113 114
3 4 43 41
3 5 45 44
3 5 47 45
3 5 49 47
3 6 52 50
3 6 54 52
3 7 115 117
3 117 116 55
3 115 116 117
3 7 118 120
3 118 56 119
3 118 119 120
3 7 58 56
3 121 60 122
3 123 62 124
3 125 124 60
3 123 124 125
3 8 126 128
3 128 127 63
3 126 127 128
3 130 129 28
3 9 131 132
3 9 133 134
3 10 64 31
3 10 65 64
3 10 67 65
3 12 68 33
3 12 69 68
3 13 135 137
3 137 136 36
3 135 136 137
3 13 138 140
3 138 70 139
3 138 139 140
3 13 72 70
3 15 73 38
3 15 141 143
3 143 142 73
3 141 142 143
3 16 144 146
3 146 145 74
3 144 145 146
3 147 75 148
3 149 76 150
3 17 77 42
3 17 78 77
3 18 151 152
3 18 153 155
3 153 79 154
3 153 154 155
3 18 80 79
3 19 81 46
3 19 82 81
3 19 83 82
3 20 84 48
3 20 85 84
3 11 86 66
3 21 87 51
3 21 88 87
3 21 89 88
3 22 90 53
3 22 91 90
3 23 156 157
3 23 158 160
3 158 92 159
3 158 159 160
3 23 93 92
3 24 94 57
3 24 95 94
3 14 96 71
3 25 97 59
3 25 98 97
3 25 99 98
3 26 100 61
3 26 101 100
3 161 102 162
3 163 103 164
3 165 104 166
3 167 166 103
3 165 166 167
3 168 105 169
3 171 170 105
3 27 28 8
3 29 28 27
3 29 172 174
3 174 173 28
3 172 173 174
3 29 175 176
3 30 177 179
3 179 178 29
3 177 178 179
3 30 180 182
3 180 9 181
3 180 181 182
3 183 31 184
3 32 185 187
3 185 31 186
3 185 186 187
3 32 10 31
3 32 33 10
3 34 33 32
3 34 12 33
3 35 188 190
3 188 36 189
3 188 189 190
3 37 36 35
3 37 13 36
3 37 38 13
3 39 38 37
3 39 15 38
3 192 191 16
3 40 193 194
3 196 195 40
3 41 197 198
3 41 199 200
3 41 201 203
3 201 42 202
3 201 202 203
3 43 42 41
3 43 17 42
3 44 204 205
3 45 206 208
3 208 207 44
3 206 207 208
3 45 209 211
3 209 18 210
3 209 210 211
3 45 46 18
3 47 46 45
3 47 19 46
3 47 48 19
3 49 48 47
3 49 20 48
3 50 51 11
3 52 51 50
3 52 21 51
3 52 53 21
3 54 53 52
3 54 22 53
3 55 212 213
3 215 214 55
3 56 216 217
3 56 218 220
3 218 23 219
3 218 219 220
3 56 57 23
3 58 57 56
3 58 24 57
3 221 59 222
3 223 222 14
3 221 222 223
3 60 224 226
3 224 59 225
3 224 225 226
3 60 25 59
3 60 61 25
3 62 61 60
3 62 26 61
3 63 227 229
3 229 228 3
3 227 228 229
3 231 230 63
3 28 232 234
3 234 233 8
3 232 233 234
3 236 235 28
3 237 4 238
3 31 239 240
3 64 241 243
3 243 242 31
3 241 242 243
3 64 244 245
3 64 246 248
3 246 44 247
3 246 247 248
3 65 44 64
3 65 5 44
3 65 66 5
3 67 66 65
3 67 11 66
3 33 67 10
3 68 67 33
3 68 11 67
3 68 50 11
3 69 50 68
3 69 6 50
3 36 249 250
3 252 251 36
3 253 55 254
3 70 255 257
3 255 55 256
3 255 256 257
3 70 7 55
3 70 71 7
3 72 71 70
3 72 14 71
3 38 72 13
3 73 72 38
3 73 14 72
3 73 258 260
3 260 259 14
3 258 259 260
3 262 261 73
3 74 263 264
3 266 265 74
3 268 267 16
3 269 1 270
3 271 35 272
3 75 273 275
3 273 35 274
3 273 274 275
3 75 2 35
3 277 276 3
3 278 74 279
3 76 280 282
3 280 74 281
3 280 281 282
3 76 16 74
3 42 283 285
3 283 76 284
3 283 284 285
3 77 76 42
3 77 16 76
3 77 286 288
3 288 287 16
3 286 287 288
3 78 289 291
3 291 290 77
3 289 290 291
3 78 292 293
3 294 4 295
3 79 296 297
3 79 298 300
3 298 4 299
3 298 299 300
3 79 43 4
3 80 43 79
3 80 17 43
3 46 80 18
3 81 80 46
3 81 17 80
3 81 78 17
3 82 78 81
3 82 301 303
3 303 302 78
3 301 302 303
3 82 304 305
3 83 306 308
3 308 307 82
3 306 307 308
3 83 309 310
3 48 83 19
3 84 83 48
3 84 311 313
3 313 312 83
3 311 312 313
3 84 314 316
3 314 40 315
3 314 315 316
3 85 40 84
3 85 3 40
3 66 49 5
3 86 49 66
3 86 20 49
3 51 86 11
3 87 86 51
3 87 20 86
3 87 85 20
3 88 85 87
3 88 3 85
3 88 63 3
3 89 63 88
3 89 8 63
3 53 89 21
3 90 89 53
3 90 8 89
3 90 27 8
3 91 27 90
3 91 0 27
3 317 1 318
3 92 319 320
3 92 321 323
3 321 1 322
3 321 322 323
3 92 34 1
3 93 34 92
3 93 12 34
3 57 93 23
3 94 93 57
3 94 12 93
3 94 69 12
3 95 69 94
3 95 6 69
3 71 58 7
3 96 58 71
3 96 24 58
3 59 96 14
3 97 96 59
3 97 24 96
3 97 95 24
3 98 95 97
3 98 6 95
3 98 54 6
3 99 54 98
3 99 22 54
3 61 99 25
3 100 99 61
3 100 22 99
3 100 91 22
3 101 91 100
3 101 0 91
3 324 75 325
3 102 326 328
3 326 75 327
3 326 327 328
3 102 2 75
3 329 102 330
3 331 102 332
3 333 2 334
3 335 334 102
3 333 334 335
3 336 39 337
3 338 337 2
3 336 337 338
3 339 39 340
3 341 15 342
3 343 342 39
3 341 342 343
3 344 15 345
3 347 346 15
3 348 62 349
3 350 62 351
3 352 26 353
3 354 353 62
3 352 353 354
3 355 26 356
3 357 101 358
3 359 358 26
3 357 358 359
3 103 360 362
3 360 101 361
3 360 361 362
3 103 0 101
3 103 30 0
3 104 30 103
3 104 9 30
3 363 104 364
3 105 365 367
3 365 104 366
3 365 366 367
3 105 9 104
3 105 368 370
3 370 369 9
3 368 369 370
3 372 371 105
