ply
format ascii 1.0
element vertex 313
property float x
property float y
property float z
element face 331
property list uchar int vertex_index
end_header
4.267363 25.649288 76.407906
13.843479 6.40329 78.819069
19.302233 7.603266 70.308922
9.709633 16.84161 79.149872
10.917162 31.189419 72.118217
16.067013 19.669823 71.992294
21.490425 19.652138 64.015129
3.741726 17.777973 79.093872
12.024403 11.779989 79.287735
13.149437 18.766926 76.050735
15.159091 13.141968 75.577225
20.332695 13.62775 66.986198
12.149246 -0.470617 81.728188
10.368538 4.574377 82.022865
8.373051 9.406078 81.836754
15.489931 0.973516 78.117928
16.733574 7.342327 74.707787
18.362827 1.66383 73.954834
6.984262 21.486843 78.240837
7.471426 29.023182 74.92997
10.520714 24.085377 75.881096
13.80698 25.541355 72.366737
17.774721 13.645672 71.190445
18.673702 19.818108 67.642906
6.069262 13.828461 80.908386
4.406029 29.558472 74.784904
4.048298 21.725075 77.847656
2.713236 19.560364 77.807137
12.984291 9.119518 79.112228
13.670097 12.582254 77.554756
14.555752 9.796743 77.244164
22.670683 10.511723 65.143738
13.033079 2.974533 80.309166
11.264606 2.058037 81.911484
12.175854 5.606663 80.559631
11.258648 8.201044 80.714943
16.966194 1.402176 76.068367
8.377481 19.219791 78.7994
8.755178 22.930168 77.227242
10.176163 20.485134 77.583374
14.672411 19.334606 74.109657
13.526888 22.17709 74.257065
15.018457 22.628967 72.246696
16.406435 22.8587 70.1036
18.026043 7.537392 72.490936
17.278084 10.508259 72.958694
18.528955 10.612295 70.728043
20.898006 16.642239 65.463287
19.521126 16.719772 67.314713
20.024363 19.744282 65.673103
19.095724 22.85799 65.87812
20.529556 22.752079 64.064568
22.093029 22.658199 62.612
9.109274 13.149036 80.56897
7.249327 11.673868 81.475113
7.877481 15.469208 80.218018
6.584539 17.676311 79.660164
9.198818 30.260571 73.669716
7.587233 32.763653 73.057899
3.344814 13.800827 80.139244
2.416553 15.547928 78.855377
10.933588 14.358925 79.307739
11.486448 17.940186 77.746994
12.653589 15.302578 77.73188
14.229349 15.987453 75.884239
15.657749 16.432846 73.822227
20.633827 7.590824 68.284599
19.801693 10.611893 68.600655
21.165434 10.561068 66.704071
21.762115 13.558022 65.273872
22.416473 16.57095 63.973175
9.381319 0.915182 83.231247
8.469183 3.302456 83.170258
7.511648 5.616776 82.961105
9.413227 7.033798 82.010841
10.241085 10.722414 80.728264
14.656071 3.670572 78.464417
15.356103 6.974993 76.847015
16.135708 4.158913 76.42907
17.506115 4.462317 74.275795
18.825542 4.615194 72.100517
13.889803 0.353769 80.024063
5.591736 23.634079 77.452858
5.802938 27.481503 75.856758
7.27578 25.266537 76.660332
9.023312 26.607719 75.513756
10.761009 27.650688 74.05619
11.908432 21.468868 76.054703
12.216898 24.952026 74.24501
12.432884 28.398884 72.331329
15.974702 10.249981 75.166367
16.510166 13.483963 73.423676
16.972679 16.671535 71.628555
19.024078 13.675346 68.999794
18.235764 16.74894 69.415001
17.378489 19.813347 69.795357
17.743103 22.915058 67.936752
18.07683 25.985226 66.058571
6.49678 7.833532 82.572311
5.437876 9.939871 81.982643
4.370401 11.930094 81.176521
4.88039 15.864918 80.120773
5.286676 19.764374 78.877655
5.932035 31.314053 74.099373
4.336696 27.60388 75.596405
3.740445 28.538254 74.930973
3.671111 26.583662 75.742474
3.599544 24.598467 76.476414
3.490012 22.636361 77.196289
4.15783 23.687182 77.127781
3.671111 26.583662 75.742474
3.599544 24.598467 76.476414
10.108973 32.542187 71.909477
9.249802 32.077763 72.685226
10.05799 30.724995 72.893967
2.174588 18.363144 77.559082
2.279785 20.382055 77.024803
21.623019 9.057182 66.617531
20.899631 9.075946 67.494335
21.357216 7.572059 67.407795
22.556128 13.536467 64.612804
22.216399 12.034872 65.208805
23.010412 12.013317 64.547737
22.883306 15.042931 63.962455
22.089294 15.064486 64.623524
22.556128 13.536467 64.612804
23.258131 16.560434 63.441139
22.883306 15.042931 63.962455
11.216136 -0.988404 82.457501
11.686881 -2.189925 82.406857
14.689867 0.663643 79.070996
14.350767 -0.920895 79.896473
15.150831 -0.611021 78.943406
13.909206 27.205404 71.379452
13.222158 28.634169 71.361748
13.119932 26.970119 72.349033
18.789363 25.930535 65.086972
18.586277 24.421608 65.968345
19.29881 24.366917 64.996746
18.230586 27.50866 65.10817
18.789363 25.930535 65.086972
6.790967 33.950247 72.622292
7.614491 34.627518 72.052238
3.778012 30.518944 74.09914
3.740445 28.538254 74.930973
4.441054 31.508839 73.886146
3.778012 30.518944 74.09914
2.822481 21.554005 77.176029
3.380767 20.642719 77.827396
3.490012 22.636361 77.196289
2.279785 20.382055 77.024803
2.822481 21.554005 77.176029
23.175511 9.025634 65.136593
22.375644 9.032509 65.837365
23.506515 10.509421 64.562382
23.175511 9.025634 65.136593
24.011343 9.023332 64.555237
23.010412 12.013317 64.547737
23.506515 10.509421 64.562382
16.689064 -0.112147 76.959774
16.228063 1.187846 77.093148
15.950933 -0.326477 77.984555
17.438244 0.083974 75.955273
16.689064 -0.112147 76.959774
18.136561 0.214801 74.898506
17.66451 1.533003 75.011601
17.438244 0.083974 75.955273
15.950933 -0.326477 77.984555
15.150831 -0.611021 78.943406
15.153655 24.254224 71.278835
14.547917 25.710418 71.338855
14.412719 24.085161 72.306716
15.847644 24.369091 70.207287
15.153655 24.254224 71.278835
15.712446 22.743834 71.175148
16.550103 24.433615 69.136181
15.847644 24.369091 70.207287
20.015726 24.313961 64.08997
19.29881 24.366917 64.996746
19.81264 22.805034 64.971344
20.777468 24.25011 63.266697
20.015726 24.313961 64.08997
21.559204 24.20317 62.540413
20.777468 24.25011 63.266697
21.311293 22.705139 63.338284
22.388345 24.159959 61.914208
21.559204 24.20317 62.540413
8.444009 33.329304 72.379318
8.393026 31.512112 73.363808
9.249802 32.077763 72.685226
7.614491 34.627518 72.052238
8.444009 33.329304 72.379318
2.693669 12.652211 79.913524
3.101855 11.794835 80.561909
2.229538 13.525762 79.271591
2.693669 12.652211 79.913524
2.880683 14.674378 79.49731
1.887463 14.323546 78.502647
2.229538 13.525762 79.271591
2.026246 16.356926 78.083202
2.564895 17.554146 78.331257
2.174588 18.363144 77.559082
1.887463 14.323546 78.502647
2.026246 16.356926 78.083202
21.918059 10.536396 65.923904
21.623019 9.057182 66.617531
22.375644 9.032509 65.837365
22.762467 18.082554 63.367748
22.299443 19.623148 63.388725
21.953449 18.111544 63.994152
22.762467 18.082554 63.367748
23.258131 16.560434 63.441139
10.773816 0.275923 82.549149
11.216136 -0.988404 82.457501
11.706926 0.79371 81.819836
9.832172 -0.295505 83.20903
10.773816 0.275923 82.549149
10.322962 1.48661 82.571365
8.857974 -0.920514 83.796467
9.832172 -0.295505 83.20903
8.411205 0.229413 83.7305
8.857974 -0.920514 83.796467
7.955137 1.42305 83.700005
8.411205 0.229413 83.7305
8.925251 2.108819 83.200752
7.509029 2.54659 83.565945
7.955137 1.42305 83.700005
7.990415 4.459616 83.065682
7.030262 3.70375 83.461368
7.509029 2.54659 83.565945
10.963383 32.948193 71.094093
11.747355 31.503613 71.219787
18.860402 0.334825 73.890141
18.136561 0.214801 74.898506
19.052302 1.729405 72.914894
18.860402 0.334825 73.890141
19.283659 3.205087 71.987735
18.594184 3.139512 73.027676
19.052302 1.729405 72.914894
19.494286 4.638968 71.057796
19.283659 3.205087 71.987735
19.732631 6.133005 70.161999
19.063887 6.10923 71.204719
19.494286 4.638968 71.057796
20.398428 6.126784 69.149837
19.96803 7.597045 69.296761
19.732631 6.133005 70.161999
21.108551 6.123965 68.208034
20.398428 6.126784 69.149837
21.357216 7.572059 67.407795
21.108551 6.123965 68.208034
12.615676 -1.712587 81.628986
11.686881 -2.189925 82.406857
13.485955 -1.300394 80.776924
13.946919 -2.575057 80.649334
14.350767 -0.920895 79.896473
13.019524 -0.058424 80.876126
12.615676 -1.712587 81.628986
13.485955 -1.300394 80.776924
12.505215 30.108345 71.326344
11.747355 31.503613 71.219787
11.675023 29.794151 72.224773
12.505215 30.108345 71.326344
13.222158 28.634169 71.361748
13.909206 27.205404 71.379452
14.547917 25.710418 71.338855
17.218437 24.461794 68.052757
16.550103 24.433615 69.136181
17.074769 22.886879 69.020176
17.3853 25.996878 67.113666
17.218437 24.461794 68.052757
17.909967 24.450142 66.997661
17.509427 27.556952 66.125591
17.3853 25.996878 67.113666
17.509427 27.556952 66.125591
18.230586 27.50866 65.10817
22.600745 21.126179 62.687161
21.791727 21.155169 63.313564
22.299443 19.623148 63.388725
22.95104 22.641489 62.100655
22.600745 21.126179 62.687161
22.388345 24.159959 61.914208
22.95104 22.641489 62.100655
6.573314 4.784778 83.242347
7.030262 3.70375 83.461368
6.06588 5.893156 83.04795
6.573314 4.784778 83.242347
7.004214 6.725154 82.766708
5.597575 6.922342 82.731857
6.06588 5.893156 83.04795
5.068123 7.975511 82.437023
5.597575 6.922342 82.731857
5.967328 8.886702 82.277477
4.599007 8.948671 82.015819
5.068123 7.975511 82.437023
4.06527 9.943782 81.612758
4.599007 8.948671 82.015819
4.904139 10.934983 81.579582
3.614649 10.859469 81.080547
4.06527 9.943782 81.612758
3.857608 12.865461 80.657882
3.101855 11.794835 80.561909
3.614649 10.859469 81.080547
5.204057 32.386629 73.543381
4.441054 31.508839 73.886146
5.169032 30.436262 74.442138
5.963368 33.225447 73.143028
6.759634 32.038853 73.578636
6.790967 33.950247 72.622292
5.204057 32.386629 73.543381
5.963368 33.225447 73.143028
10.108973 32.542187 71.909477
10.963383 32.948193 71.094093
3 0 104 106
3 104 25 105
3 104 105 106
3 0 107 109
3 109 108 26
3 107 108 109
3 0 110 111
3 1 30 28
3 1 34 32
3 1 28 34
3 3 39 37
3 5 42 40
3 5 43 42
3 2 46 44
3 6 49 47
3 6 51 49
3 6 52 51
3 3 55 53
3 3 37 55
3 4 112 114
3 114 113 57
3 112 113 114
3 7 60 59
3 116 115 27
3 8 63 61
3 10 64 29
3 10 65 64
3 117 68 118
3 119 118 66
3 117 118 119
3 120 69 121
3 122 121 31
3 120 121 122
3 123 70 124
3 125 124 69
3 123 124 125
3 127 126 70
3 12 128 129
3 13 71 33
3 13 72 71
3 13 74 72
3 8 75 35
3 8 61 75
3 15 78 76
3 17 79 36
3 17 80 79
3 15 130 132
3 130 81 131
3 130 131 132
3 15 76 81
3 18 84 82
3 20 85 38
3 20 86 85
3 9 87 62
3 21 88 41
3 21 89 88
3 21 133 135
3 135 134 89
3 133 134 135
3 16 90 77
3 22 91 45
3 22 92 91
3 11 93 67
3 23 94 48
3 23 95 94
3 23 96 95
3 136 97 137
3 138 137 50
3 136 137 138
3 140 139 97
3 14 98 73
3 24 99 54
3 24 100 99
3 24 101 100
3 18 102 56
3 18 82 102
3 19 103 83
3 142 141 58
3 25 143 144
3 25 145 146
3 26 27 7
3 147 27 148
3 149 148 26
3 147 148 149
3 151 150 27
3 28 29 8
3 30 29 28
3 30 10 29
3 152 31 153
3 154 31 155
3 154 155 156
3 158 157 31
3 32 33 12
3 34 33 32
3 34 13 33
3 34 35 13
3 28 35 34
3 28 8 35
3 159 36 160
3 161 160 15
3 159 160 161
3 162 36 163
3 164 17 165
3 166 165 36
3 164 165 166
3 167 15 168
3 37 38 18
3 39 38 37
3 39 20 38
3 40 41 9
3 42 41 40
3 42 21 41
3 42 169 171
3 171 170 21
3 169 170 171
3 43 172 174
3 174 173 42
3 172 173 174
3 43 175 176
3 44 45 16
3 46 45 44
3 46 22 45
3 47 48 11
3 49 48 47
3 49 23 48
3 49 50 23
3 51 50 49
3 51 177 179
3 179 178 50
3 177 178 179
3 51 180 181
3 52 182 184
3 184 183 51
3 182 183 184
3 52 185 186
3 53 54 14
3 55 54 53
3 55 24 54
3 55 56 24
3 37 56 55
3 37 18 56
3 57 58 19
3 187 58 188
3 189 188 57
3 187 188 189
3 191 190 58
3 59 192 193
3 60 194 196
3 196 195 59
3 194 195 196
3 60 197 198
3 27 60 7
3 199 60 200
3 201 200 27
3 199 200 201
3 203 202 60
3 61 62 3
3 63 62 61
3 63 9 62
3 29 63 8
3 64 63 29
3 64 9 63
3 64 40 9
3 65 40 64
3 65 5 40
3 66 67 2
3 68 67 66
3 68 11 67
3 31 204 206
3 204 68 205
3 204 205 206
3 69 68 31
3 69 11 68
3 69 47 11
3 70 47 69
3 70 6 47
3 70 207 209
3 209 208 6
3 207 208 209
3 211 210 70
3 33 212 214
3 214 213 12
3 212 213 214
3 71 215 217
3 217 216 33
3 215 216 217
3 71 218 219
3 71 220 221
3 72 222 224
3 224 223 71
3 222 223 224
3 72 225 226
3 72 227 229
3 227 73 228
3 227 228 229
3 74 73 72
3 74 14 73
3 35 74 13
3 75 74 35
3 75 14 74
3 75 53 14
3 61 53 75
3 61 3 53
3 231 230 4
3 76 77 1
3 78 77 76
3 78 16 77
3 36 78 15
3 79 78 36
3 79 16 78
3 79 44 16
3 80 44 79
3 80 2 44
3 232 17 233
3 234 17 235
3 236 80 237
3 238 237 17
3 236 237 238
3 239 80 240
3 241 2 242
3 243 242 80
3 241 242 243
3 244 66 245
3 246 245 2
3 244 245 246
3 247 66 248
3 250 249 66
3 251 12 252
3 81 253 255
3 253 254 255
3 81 256 258
3 256 12 257
3 256 257 258
3 81 32 12
3 76 32 81
3 76 1 32
3 82 83 0
3 84 83 82
3 84 19 83
3 38 84 18
3 85 84 38
3 85 19 84
3 85 57 19
3 86 57 85
3 86 4 57
3 62 39 3
3 87 39 62
3 87 20 39
3 41 87 9
3 88 87 41
3 88 20 87
3 88 86 20
3 89 86 88
3 89 4 86
3 89 259 261
3 261 260 4
3 259 260 261
3 263 262 89
3 265 264 21
3 77 30 1
3 90 30 77
3 90 10 30
3 45 90 16
3 91 90 45
3 91 10 90
3 91 65 10
3 92 65 91
3 92 5 65
3 67 46 2
3 93 46 67
3 93 22 46
3 48 93 11
3 94 93 48
3 94 22 93
3 94 92 22
3 95 92 94
3 95 5 92
3 95 43 5
3 96 43 95
3 96 266 268
3 268 267 43
3 266 267 268
3 50 96 23
3 97 96 50
3 97 269 271
3 271 270 96
3 269 270 271
3 97 272 273
3 275 274 97
3 276 52 277
3 278 277 6
3 276 277 278
3 279 52 280
3 282 281 52
3 73 283 284
3 98 285 287
3 287 286 73
3 285 286 287
3 98 288 289
3 54 98 14
3 99 98 54
3 99 290 292
3 292 291 98
3 290 291 292
3 99 293 294
3 100 295 297
3 297 296 99
3 295 296 297
3 100 298 299
3 100 300 302
3 300 59 301
3 300 301 302
3 101 59 100
3 101 7 59
3 56 101 24
3 102 101 56
3 102 7 101
3 102 26 7
3 82 26 102
3 82 0 26
3 83 25 0
3 103 25 83
3 103 303 305
3 305 304 25
3 303 304 305
3 58 103 19
3 306 103 307
3 308 307 58
3 306 307 308
3 310 309 103
3 312 311 4
