ply
format ascii 1.0
element vertex 404
property float x
property float y
property float z
element face 409
property list uchar int vertex_index
end_header
49.896248 -10.885262 16.426113
66.836197 -10.679463 18.143646
70.800636 -9.901105 23.503925
69.154465 -17.279436 31.488972
42.8857 -10.122377 15.434201
58.69133 -11.097974 16.332146
58.359665 1.020283 10.80404
69.465187 -0.40209 18.239395
70.742874 -9.539621 27.122898
70.250702 -13.832081 27.35297
69.943283 -12.74904 30.803173
46.040352 -10.541408 16.278091
63.053459 -10.950062 16.854584
58.821213 -16.59837 18.902336
63.230438 -16.123981 19.75316
47.239311 3.955757 11.766649
69.526329 -10.31741 20.376677
66.877167 -15.534645 21.439915
69.283974 -14.779074 24.047085
54.199905 -11.082246 16.302776
49.692501 -17.132931 18.41165
54.167183 -16.954111 18.592485
43.418877 -2.822905 13.727684
46.658417 -3.481256 14.10829
50.403538 -4.162932 13.902319
54.428219 -4.766189 13.588854
58.553806 -5.184176 13.588564
62.597244 -5.37534 14.140505
66.250595 -5.390535 15.376004
67.788933 -0.088816 15.370736
69.049889 -5.34484 17.418634
70.563538 -5.376248 20.321432
70.451607 -11.21174 28.909546
47.89624 -10.727566 16.414452
45.829197 -13.883318 17.171631
47.70385 -14.001108 17.40057
65.05024 -10.827762 17.388725
63.174942 -13.595743 18.272356
65.16523 -13.397348 18.884125
70.345871 -10.111694 21.844437
69.484314 -12.617367 22.140612
70.229095 -12.290451 23.677349
69.748169 -15.604473 29.401747
69.531914 -16.232151 27.689577
56.439461 -11.112702 16.275143
54.150932 -14.080045 17.499733
56.449596 -14.013468 17.52368
66.742729 -17.765224 23.274471
65.126884 -18.163898 22.188084
43.662373 1.009085 12.781269
46.971619 0.201145 12.929161
48.793678 -0.227777 12.772629
48.482849 -3.824559 14.049955
50.684425 -0.660236 12.545163
56.543308 1.424438 10.683702
54.567902 -1.474163 12.146109
56.522934 -1.821543 12.088439
56.488388 -5.003106 13.530422
58.468452 -2.110189 12.175824
62.267624 -2.490189 12.844227
64.068886 -2.590544 13.433582
64.499123 -5.398694 14.665077
65.749184 -2.649416 14.197234
68.517654 -2.728945 16.276741
69.488815 -2.798965 17.605907
69.984703 -5.341905 18.766384
70.124695 -2.922951 19.12496
70.916115 -9.702675 25.292957
70.61409 -11.937985 25.373434
70.671356 -11.574017 27.152294
70.236176 -13.304281 29.105782
69.646507 -14.933146 31.125359
44.360462 -10.336722 15.964984
44.15094 -13.728689 16.757463
60.913284 -11.041954 16.513327
58.754631 -13.906996 17.630476
61.016018 -13.76627 17.86623
61.087227 -16.374071 19.238014
61.14003 -18.852852 20.663364
60.139053 0.686695 11.116209
68.345947 -10.508337 19.138161
66.918671 -13.17007 19.727526
68.373558 -12.910926 20.814909
68.257065 -15.18115 22.634268
68.033043 -17.315002 24.573696
69.944359 -14.327277 25.639986
68.965424 -16.804514 26.060112
52.008072 -11.005565 16.370161
49.740108 -14.075184 17.494057
51.90152 -14.101604 17.50808
56.495834 -16.793972 18.703644
65.182686 -15.846216 20.480564
63.237808 -18.52294 21.321348
43.144447 -6.541468 14.625254
45.250076 0.615723 12.949995
44.960304 -3.144783 14.0173
44.648323 -6.802745 15.038434
46.333199 -7.068583 15.243042
48.170151 -7.330386 15.28384
50.129051 -7.57661 15.216358
52.616371 -1.081436 12.315205
52.393158 -4.481827 13.728924
52.18084 -7.794716 15.100161
54.298431 -7.973455 14.991878
56.455948 -8.104837 14.94019
58.625839 -8.185379 14.984212
60.39024 -2.332895 12.425665
60.600815 -5.30697 13.786505
60.774895 -8.216352 15.155202
62.860313 -8.20313 15.480062
64.827957 -8.153894 15.984282
66.614365 -8.078172 16.692268
67.252403 -2.687534 15.142174
67.788292 -5.366869 16.289616
68.153252 -7.985741 17.62446
69.385269 -7.886375 18.792042
70.268654 -7.790622 20.191257
70.787323 -7.711588 21.799143
70.78627 -5.46803 22.055101
70.955254 -7.667588 23.571524
68.953735 -16.49855 33.181553
69.097626 -17.649284 30.640897
69.394478 -16.811802 29.597285
69.451317 -16.441955 30.44536
68.836701 -18.490645 31.706546
69.097626 -17.649284 30.640897
42.192669 -11.731566 15.335229
42.262664 -10.013338 15.047252
65.88964 -19.054944 23.643282
66.651505 -18.81201 24.247746
43.753399 2.967805 12.303778
42.951237 1.19292 12.582719
49.86729 1.342081 11.996582
48.931663 1.605474 12.147005
50.812664 1.125852 11.882849
49.739052 -0.444007 12.658896
49.86729 1.342081 11.996582
57.451487 1.222361 10.743871
57.380036 2.807974 10.117869
58.288214 2.605896 10.178038
64.592243 -1.241645 13.29703
63.805271 -1.175301 12.868763
65.432392 -1.271081 13.678856
64.909035 -2.61998 13.815408
64.592243 -1.241645 13.29703
69.121242 -0.308049 17.481656
69.019284 0.857748 17.950339
69.477001 -1.600527 17.922651
69.133057 -1.506487 17.164912
69.121242 -0.308049 17.481656
44.952354 -15.423185 17.281362
45.788828 -15.481355 17.536738
68.772167 -17.752443 27.104417
69.248669 -16.518332 26.874845
69.055413 -17.466261 27.919149
68.358017 -18.05906 26.335102
68.772167 -17.752443 27.104417
53.025845 -17.01204 18.55343
53.017719 -15.575007 18.007054
54.159058 -15.517078 18.046109
53.072447 -18.425272 19.005391
53.025845 -17.01204 18.55343
63.233219 -19.653956 22.159737
64.182346 -18.343419 21.754716
64.177757 -19.474435 22.593105
62.21853 -19.858171 21.749389
63.233219 -19.653956 22.159737
42.63271 -4.556151 13.85086
42.740387 -2.67124 13.466503
43.281662 -4.682187 14.176469
42.495494 -6.415432 14.299646
42.63271 -4.556151 13.85086
46.244693 2.28574 12.358322
45.367593 2.534798 12.418761
46.362211 4.204815 11.827088
53.655897 0.402539 11.527589
52.719896 0.653661 11.626224
61.131342 -0.95233 12.022455
60.264646 -0.8231 11.770937
61.005748 0.557466 11.367728
67.326214 1.215211 15.030169
67.816589 1.12981 15.740125
67.169235 -0.040731 14.77691
67.326214 1.215211 15.030169
67.520668 -1.388175 15.256455
66.90097 -1.340089 14.662629
67.169235 -0.040731 14.77691
70.733982 -5.554062 22.989325
70.572025 -4.44797 22.352111
70.818474 -6.653841 23.747537
70.870762 -6.567809 22.813313
70.733982 -5.554062 22.989325
70.884724 -7.675604 24.507945
70.818474 -6.653841 23.747537
68.715812 -16.09936 34.002371
69.108692 -15.364092 32.985892
48.663019 -17.134868 18.318807
48.686822 -15.605994 17.860011
49.716304 -15.604057 17.952854
70.403119 -10.324899 28.887404
70.59724 -10.375681 28.016222
70.548752 -9.48884 27.99408
70.232079 -11.025427 29.708402
70.403119 -10.324899 28.887404
69.977916 -11.794076 30.655216
70.197445 -11.98039 29.856359
70.232079 -11.025427 29.708402
46.726154 -15.54025 17.651208
45.788828 -15.481355 17.536738
46.766524 -13.942213 17.2861
69.28635 -17.125641 28.7412
69.640041 -15.918312 28.545662
69.394478 -16.811802 29.597285
69.055413 -17.466261 27.919149
69.28635 -17.125641 28.7412
57.705532 -18.019687 19.378825
58.861622 -17.878792 19.545032
65.081718 -19.254281 23.100088
65.934807 -17.964561 22.731277
65.88964 -19.054944 23.643282
64.177757 -19.474435 22.593105
65.081718 -19.254281 23.100088
42.862135 -0.755245 12.993296
42.150999 -0.57141 12.794746
42.951237 1.19292 12.582719
43.540625 -0.90691 13.254476
42.740387 -2.67124 13.466503
42.862135 -0.755245 12.993296
48.020634 1.819935 12.225271
47.105465 2.078451 12.347905
48.15448 3.697241 11.644015
47.882649 -0.013316 12.850895
48.020634 1.819935 12.225271
48.931663 1.605474 12.147005
56.539023 3.07133 10.043363
57.380036 2.807974 10.117869
55.619366 1.655477 10.711838
56.539023 3.07133 10.043363
55.555605 -0.024862 11.414905
54.631662 0.206176 11.443041
55.619366 1.655477 10.711838
62.90464 -1.125123 12.574085
62.070034 -1.030976 12.231737
63.168255 -2.540367 13.138904
62.90464 -1.125123 12.574085
63.805271 -1.175301 12.868763
68.283116 -0.151412 16.047327
67.816589 1.12981 15.740125
68.647476 -1.471477 16.500329
68.153293 -1.40888 15.823739
68.283116 -0.151412 16.047327
69.003234 -2.763955 16.941324
68.647476 -1.471477 16.500329
69.133057 -1.506487 17.164912
48.706804 -18.626188 18.656799
49.736874 -18.588323 18.80554
43.53015 -11.941065 16.042417
42.792769 -11.833893 15.777026
43.623081 -10.22955 15.699592
43.425388 -13.637048 16.438657
43.53015 -11.941065 16.042417
44.255701 -12.032705 16.361224
43.399456 -15.261366 16.707352
43.425388 -13.637048 16.438657
44.113226 -15.345871 17.074278
44.990068 -13.806003 16.964547
44.952354 -15.423185 17.281362
43.399456 -15.261366 16.707352
44.113226 -15.345871 17.074278
59.994629 -17.766642 19.712871
58.861622 -17.878792 19.545032
59.95422 -16.486221 19.070175
60.021031 -19.006033 20.425547
59.994629 -17.766642 19.712871
61.113629 -17.613461 19.950689
60.078407 -20.215838 21.09779
60.021031 -19.006033 20.425547
47.341415 5.856404 11.222466
46.362211 4.204815 11.827088
48.264986 5.553247 11.065711
47.341415 5.856404 11.222466
48.15448 3.697241 11.644015
48.264986 5.553247 11.065711
59.100352 2.37761 10.363763
58.288214 2.605896 10.178038
59.990045 2.210815 10.519848
59.249359 0.853489 10.960124
59.100352 2.37761 10.363763
60.774437 2.023007 10.814889
59.990045 2.210815 10.519848
61.005748 0.557466 11.367728
60.774437 2.023007 10.814889
69.23706 0.69231 18.7859
69.019284 0.857748 17.950339
69.643997 -0.543024 19.071781
69.23706 0.69231 18.7859
67.296661 -18.5869 24.897358
66.651505 -18.81201 24.247746
67.387886 -17.540113 23.924084
67.891827 -18.314304 25.591894
68.499234 -17.059758 25.316904
68.358017 -18.05906 26.335102
67.296661 -18.5869 24.897358
67.891827 -18.314304 25.591894
42.192669 -11.731566 15.335229
42.792769 -11.833893 15.777026
51.893013 -15.585787 18.011228
53.026226 -14.090825 17.503906
53.017719 -15.575007 18.007054
50.788504 -17.10145 18.463013
50.79701 -15.617268 17.959865
51.893013 -15.585787 18.011228
49.736874 -18.588323 18.80554
50.788504 -17.10145 18.463013
56.542843 -18.117488 19.279479
57.658524 -16.696171 18.80299
57.705532 -18.019687 19.378825
55.379784 -18.242383 19.160477
56.542843 -18.117488 19.279479
54.215458 -18.322453 19.104897
55.331508 -16.874042 18.648065
55.379784 -18.242383 19.160477
53.072447 -18.425272 19.005391
54.215458 -18.322453 19.104897
61.169641 -20.023128 21.420397
62.188919 -18.687896 20.992356
62.21853 -19.858171 21.749389
60.078407 -20.215838 21.09779
61.169641 -20.023128 21.420397
42.392038 -8.222884 14.642779
42.495494 -6.415432 14.299646
43.015073 -8.331923 15.029727
42.262664 -10.013338 15.047252
42.392038 -8.222884 14.642779
44.573742 2.731479 12.334398
43.753399 2.967805 12.303778
44.456225 0.812404 12.865632
44.573742 2.731479 12.334398
45.367593 2.534798 12.418761
51.753923 0.864261 11.741203
50.812664 1.125852 11.882849
51.650398 -0.870836 12.430184
51.753923 0.864261 11.741203
52.719896 0.653661 11.626224
53.592136 -1.277799 12.230657
53.655897 0.402539 11.527589
54.631662 0.206176 11.443041
61.328932 -2.411542 12.634946
61.131342 -0.95233 12.022455
62.070034 -1.030976 12.231737
66.149361 -1.32103 14.190159
65.432392 -1.271081 13.678856
66.500794 -2.668475 14.669704
66.149361 -1.32103 14.190159
66.90097 -1.340089 14.662629
69.973751 -1.803454 19.514564
69.794941 -1.66252 18.682178
69.643997 -0.543024 19.071781
70.267434 -3.024032 19.970374
69.973751 -1.803454 19.514564
70.486855 -4.25068 20.56861
70.344116 -4.149599 19.723196
70.267434 -3.024032 19.970374
70.598221 -4.296571 21.435445
70.572025 -4.44797 22.352111
70.674904 -5.422139 21.188267
70.486855 -4.25068 20.56861
70.598221 -4.296571 21.435445
70.865155 -8.693147 25.368662
70.935685 -8.685132 24.43224
70.884724 -7.675604 24.507945
70.778534 -8.61162 26.283632
70.829495 -9.621148 26.207928
70.865155 -8.693147 25.368662
70.585273 -8.667509 27.229973
70.778534 -8.61162 26.283632
70.548752 -9.48884 27.99408
70.585273 -8.667509 27.229973
69.673355 -12.448761 31.580015
69.977916 -11.794076 30.655216
69.603466 -13.489337 31.796702
69.673355 -12.448761 31.580015
69.455078 -14.58139 31.957794
69.794895 -13.841093 30.964266
69.603466 -13.489337 31.796702
69.300121 -15.715848 32.153456
69.455078 -14.58139 31.957794
69.108692 -15.364092 32.985892
68.580177 -17.260066 34.211911
68.715812 -16.09936 34.002371
68.735035 -17.687482 33.385289
68.580177 -17.260066 34.211911
68.8354 -18.077925 32.538998
69.0541 -16.888993 32.335262
68.735035 -17.687482 33.385289
68.836701 -18.490645 31.706546
68.8354 -18.077925 32.538998
47.668694 -15.568956 17.813267
48.721979 -14.038146 17.447313
48.686822 -15.605994 17.860011
46.726154 -15.54025 17.651208
47.668694 -15.568956 17.813267
48.663019 -17.134868 18.318807
48.706804 -18.626188 18.656799
3 0 35 33
3 1 38 36
3 2 41 39
3 3 121 123
3 123 122 42
3 121 122 123
3 3 124 125
3 4 126 127
3 5 46 44
3 129 128 47
3 130 49 131
3 132 51 133
3 134 53 135
3 136 135 51
3 134 135 136
3 6 137 139
3 137 54 138
3 137 138 139
3 6 56 54
3 6 58 56
3 140 60 141
3 142 62 143
3 144 143 60
3 142 143 144
3 7 145 146
3 7 147 149
3 147 64 148
3 147 148 149
3 7 66 64
3 8 69 67
3 10 70 32
3 10 71 70
3 11 73 72
3 151 150 34
3 12 76 74
3 14 77 37
3 14 78 77
3 16 82 80
3 18 83 40
3 18 84 83
3 9 85 68
3 152 86 153
3 154 153 43
3 152 153 154
3 156 155 86
3 19 89 87
3 21 157 159
3 159 158 45
3 157 158 159
3 21 160 161
3 13 90 75
3 17 91 81
3 162 92 163
3 164 163 48
3 162 163 164
3 166 165 92
3 22 167 168
3 22 169 171
3 169 93 170
3 169 170 171
3 15 172 174
3 172 94 173
3 172 173 174
3 23 95 50
3 23 96 95
3 23 97 96
3 24 98 52
3 24 99 98
3 175 100 176
3 25 101 55
3 25 102 101
3 25 103 102
3 26 104 57
3 26 105 104
3 177 106 178
3 179 178 79
3 177 178 179
3 27 107 59
3 27 108 107
3 27 109 108
3 28 110 61
3 28 111 110
3 29 180 181
3 29 182 183
3 29 184 186
3 184 112 185
3 184 185 186
3 30 113 63
3 30 114 113
3 30 115 114
3 31 116 65
3 31 117 116
3 187 118 188
3 189 119 190
3 191 190 118
3 189 190 191
3 193 192 119
3 194 120 195
3 20 196 198
3 198 197 88
3 196 197 198
3 199 32 200
3 201 200 8
3 199 200 201
3 202 32 203
3 204 10 205
3 206 205 32
3 204 205 206
3 33 34 11
3 35 34 33
3 35 207 209
3 209 208 34
3 207 208 209
3 36 37 12
3 38 37 36
3 38 14 37
3 39 40 16
3 41 40 39
3 41 18 40
3 42 43 9
3 210 43 211
3 212 211 42
3 210 211 212
3 214 213 43
3 44 45 19
3 46 45 44
3 46 21 45
3 216 215 13
3 47 48 17
3 217 48 218
3 219 218 47
3 217 218 219
3 221 220 48
3 49 222 224
3 222 223 224
3 49 225 227
3 225 22 226
3 225 226 227
3 228 50 229
3 230 229 15
3 228 229 230
3 51 231 233
3 231 50 232
3 231 232 233
3 51 23 50
3 51 52 23
3 53 52 51
3 53 24 52
3 54 234 235
3 54 236 237
3 54 238 240
3 238 55 239
3 238 239 240
3 56 55 54
3 56 25 55
3 56 57 25
3 58 57 56
3 58 26 57
3 241 59 242
3 60 243 245
3 243 59 244
3 243 244 245
3 60 27 59
3 60 61 27
3 62 61 60
3 62 28 61
3 246 29 247
3 248 63 249
3 250 249 29
3 248 249 250
3 64 251 253
3 251 63 252
3 251 252 253
3 64 30 63
3 64 65 30
3 66 65 64
3 66 31 65
3 255 254 20
3 67 68 2
3 69 68 67
3 69 9 68
3 32 69 8
3 70 69 32
3 70 9 69
3 70 42 9
3 71 42 70
3 71 3 42
3 72 256 258
3 258 257 4
3 256 257 258
3 73 259 261
3 261 260 72
3 259 260 261
3 73 262 263
3 34 73 11
3 264 73 265
3 266 265 34
3 264 265 266
3 268 267 73
3 74 75 5
3 76 75 74
3 76 13 75
3 37 76 12
3 77 76 37
3 77 13 76
3 77 269 271
3 271 270 13
3 269 270 271
3 78 272 274
3 274 273 77
3 272 273 274
3 78 275 276
3 277 15 278
3 279 15 280
3 282 281 15
3 283 6 284
3 285 79 286
3 287 286 6
3 285 286 287
3 288 79 289
3 291 290 79
3 292 7 293
3 295 294 7
3 80 81 1
3 82 81 80
3 82 17 81
3 40 82 16
3 83 82 40
3 83 17 82
3 83 47 17
3 84 47 83
3 84 296 298
3 298 297 47
3 296 297 298
3 68 41 2
3 85 41 68
3 85 18 41
3 43 85 9
3 86 85 43
3 86 18 85
3 86 84 18
3 299 84 300
3 301 300 86
3 299 300 301
3 303 302 84
3 305 304 4
3 87 88 0
3 89 88 87
3 89 20 88
3 45 89 19
3 306 89 307
3 308 307 45
3 306 307 308
3 309 20 310
3 311 310 89
3 309 310 311
3 313 312 20
3 75 46 5
3 90 46 75
3 90 21 46
3 314 90 315
3 316 315 13
3 314 315 316
3 317 90 318
3 319 21 320
3 321 320 90
3 319 320 321
3 323 322 21
3 81 38 1
3 91 38 81
3 91 14 38
3 48 91 17
3 92 91 48
3 92 14 91
3 92 78 14
3 324 78 325
3 326 325 92
3 324 325 326
3 328 327 78
3 93 329 330
3 93 331 333
3 331 4 332
3 331 332 333
3 334 49 335
3 94 336 338
3 336 49 337
3 336 337 338
3 94 22 49
3 50 94 15
3 95 94 50
3 95 22 94
3 95 93 22
3 96 93 95
3 96 4 93
3 96 72 4
3 97 72 96
3 97 11 72
3 52 97 23
3 98 97 52
3 98 11 97
3 98 33 11
3 99 33 98
3 99 0 33
3 339 53 340
3 100 341 343
3 341 53 342
3 341 342 343
3 100 24 53
3 55 344 346
3 344 100 345
3 344 345 346
3 101 100 55
3 101 24 100
3 101 99 24
3 102 99 101
3 102 0 99
3 102 87 0
3 103 87 102
3 103 19 87
3 57 103 25
3 104 103 57
3 104 19 103
3 104 44 19
3 105 44 104
3 105 5 44
3 79 58 6
3 106 58 79
3 106 26 58
3 59 347 349
3 347 106 348
3 347 348 349
3 107 106 59
3 107 26 106
3 107 105 26
3 108 105 107
3 108 5 105
3 108 74 5
3 109 74 108
3 109 12 74
3 61 109 27
3 110 109 61
3 110 12 109
3 110 36 12
3 111 36 110
3 111 1 36
3 350 62 351
3 112 352 354
3 352 62 353
3 352 353 354
3 112 28 62
3 63 112 29
3 113 112 63
3 113 28 112
3 113 111 28
3 114 111 113
3 114 1 111
3 114 80 1
3 115 80 114
3 115 16 80
3 65 115 30
3 116 115 65
3 116 16 115
3 116 39 16
3 117 39 116
3 117 2 39
3 355 66 356
3 357 356 7
3 355 356 357
3 358 66 359
3 360 31 361
3 362 361 66
3 360 361 362
3 118 363 364
3 118 365 367
3 365 31 366
3 365 366 367
3 118 117 31
3 119 117 118
3 119 2 117
3 119 67 2
3 368 67 369
3 370 369 119
3 368 369 370
3 371 8 372
3 373 372 67
3 371 372 373
3 374 8 375
3 377 376 8
3 378 10 379
3 380 10 381
3 382 71 383
3 384 383 10
3 382 383 384
3 120 385 387
3 385 71 386
3 385 386 387
3 120 3 71
3 388 120 389
3 390 120 391
3 392 3 393
3 394 393 120
3 392 393 394
3 396 395 3
3 88 35 0
3 397 35 398
3 399 398 88
3 397 398 399
3 401 400 35
3 403 402 20
