ply
format ascii 1.0
element vertex 284
property float x
property float y
property float z
element face 282
property list uchar int vertex_index
end_header
47.168373 -95.936012 -17.028105
55.240547 -79.566299 -5.69832
51.582611 -82.377319 -21.657412
46.015797 -99.300568 -0.278154
49.567024 -92.42482 -7.603529
54.375294 -81.548691 -14.390783
52.177193 -83.911346 -1.836981
48.63343 -94.477119 -12.514507
51.63961 -87.362144 -11.018845
50.763596 -88.671799 -15.501421
49.298115 -89.407669 -19.402502
47.025299 -89.449944 -22.287771
48.318722 -93.410828 1.177897
50.008488 -90.02417 -2.681318
47.876305 -96.410896 -4.031988
46.800507 -99.202751 -9.266108
45.153889 -101.485725 -14.275841
43.72213 -101.464073 3.657351
52.118458 -85.714287 -6.394754
54.975708 -80.574326 -10.058662
53.330784 -82.240067 -18.390947
50.945103 -85.783905 0.141811
47.979042 -95.294312 -14.855526
49.641323 -91.681885 -14.033165
49.009537 -92.307976 -16.236483
47.321697 -96.385818 0.495493
48.181889 -94.91996 -1.42135
46.996002 -97.976929 -2.177553
45.848064 -101.068634 -7.528372
45.048767 -102.486107 -10.166935
46.050831 -100.426605 -11.828239
49.85495 -91.253365 -5.132071
50.980904 -87.984596 -4.552181
50.809254 -89.028427 -6.931192
52.928925 -84.525276 -12.700314
53.23262 -83.901627 -10.469025
54.718044 -81.077332 -12.242447
56.647728 -77.763428 -11.914331
50.428452 -85.930969 -20.525583
51.312984 -85.799965 -18.844992
52.55785 -82.388969 -20.137403
53.529636 -81.112465 -1.57938
53.611202 -81.840637 -3.777777
44.33371 -102.136719 -1.095409
45.483139 -100.961685 -3.002159
49.158516 -93.510147 -10.077465
50.525715 -90.011536 -9.3258
50.138718 -90.90654 -11.708748
51.258469 -88.075165 -13.301624
52.528503 -85.072433 -14.876753
48.209614 -92.762466 -18.249041
47.211124 -93.032822 -20.006117
48.266838 -89.517029 -20.989542
49.334213 -85.892593 -21.950502
45.596558 -89.209785 -23.296049
48.040771 -85.685257 -23.108782
50.404377 -82.198334 -22.932196
50.017899 -88.759232 -0.251217
49.143524 -91.827736 -0.772554
49.003777 -93.217461 -3.296988
48.708778 -94.563713 -5.840544
46.500595 -99.550995 -4.855221
47.411102 -97.851067 -6.653364
48.2724 -95.83577 -8.394207
47.706116 -96.99894 -10.928122
47.008125 -98.018387 -13.39023
46.160824 -98.863533 -15.710047
47.475952 -94.809448 3.169881
46.3797 -97.662285 2.453052
45.345268 -98.808144 4.45126
44.918316 -100.441223 1.666405
43.065605 -103.145302 0.866116
51.02726 -86.899345 -2.196898
52.205917 -84.827209 -4.105391
53.582561 -82.545403 -5.990969
51.925919 -86.565559 -8.704834
53.451996 -83.234428 -8.224236
55.153198 -80.067535 -7.871649
56.879448 -77.412552 -9.764666
50.122078 -89.122726 -17.555983
52.002277 -85.50737 -16.944502
53.924629 -81.949478 -16.458067
50.418951 -86.629493 1.156375
50.849886 -85.214775 1.311199
56.158085 -78.180225 -5.590711
55.231884 -79.31335 -4.619827
56.133896 -78.329159 -6.657812
56.158085 -78.180225 -5.590711
44.003647 -104.076565 -10.601278
44.498234 -103.339527 -9.288434
44.575269 -103.122822 -11.442214
44.003647 -104.076565 -10.601278
55.355471 -79.838371 -14.216213
55.526846 -79.602692 -13.142045
54.546669 -81.313012 -13.316615
52.853414 -82.511905 -1.708181
52.782789 -82.039066 -0.578434
52.106567 -83.438507 -0.707235
43.96496 -102.999848 -2.468058
43.302941 -103.518467 -1.495332
46.087957 -94.833523 -20.293936
46.69086 -94.709038 -19.481943
47.646068 -89.483486 -21.638656
47.133516 -91.316299 -21.225128
46.512747 -91.282757 -21.874243
44.811142 -89.004635 -23.668272
44.303574 -90.969139 -23.356006
48.544193 -83.769226 -23.538775
47.311872 -85.498848 -23.562489
49.725996 -82.025765 -23.450482
49.222574 -83.941795 -23.020489
48.544193 -83.769226 -23.538775
50.936922 -80.325913 -23.452455
49.725996 -82.025765 -23.450482
48.731123 -92.619282 0.202672
49.135238 -91.123654 0.483525
48.722837 -91.915199 1.45875
45.645409 -101.079414 -5.286959
45.991867 -100.25634 -3.92869
45.13668 -101.78476 -4.360428
47.028008 -95.441479 4.185832
47.477843 -94.040123 4.514588
46.479882 -96.867897 3.827418
46.927826 -96.235867 2.811466
47.028008 -95.441479 4.185832
44.533699 -100.136109 4.054305
44.791462 -99.342724 5.470506
43.979893 -100.670688 5.073551
57.671948 -76.181557 -11.797821
57.524079 -76.294376 -12.857491
51.490522 -84.374786 0.282161
50.849886 -85.214775 1.311199
51.561148 -84.847625 -0.847585
52.106567 -83.438507 -0.707235
51.490522 -84.374786 0.282161
45.806596 -91.231434 -22.440599
46.512747 -91.282757 -21.874243
44.897883 -102.630791 -7.969152
45.319143 -101.838234 -6.623534
45.448415 -101.777371 -8.847653
44.897883 -102.630791 -7.969152
44.498234 -103.339527 -9.288434
45.076301 -102.093071 -12.272866
45.549799 -101.456356 -10.997587
44.575269 -103.122822 -11.442214
44.627831 -102.622631 -13.496667
45.60236 -100.956165 -13.05204
45.076301 -102.093071 -12.272866
43.096299 -101.942024 4.67548
43.979893 -100.670688 5.073551
42.72258 -102.758567 3.270245
43.096299 -101.942024 4.67548
56.491688 -77.94574 -12.977987
55.682886 -79.42038 -12.078389
55.526846 -79.602692 -13.142045
57.524079 -76.294376 -12.857491
56.491688 -77.94574 -12.977987
53.438327 -80.729843 -0.480179
52.782789 -82.039066 -0.578434
54.312404 -79.8195 -1.485739
53.438327 -80.729843 -0.480179
54.376429 -80.086433 -2.560357
54.312404 -79.8195 -1.485739
54.417212 -80.450519 -3.659555
54.376429 -80.086433 -2.560357
53.570419 -81.476551 -2.678578
54.425874 -80.703468 -4.738048
55.231884 -79.31335 -4.619827
54.417212 -80.450519 -3.659555
44.539675 -102.41233 -3.421434
44.908425 -101.549202 -2.048784
43.96496 -102.999848 -2.468058
45.13668 -101.78476 -4.360428
44.539675 -102.41233 -3.421434
52.702293 -80.648735 -21.560442
52.160736 -80.574532 -22.24509
47.190106 -94.57386 -18.603405
47.688994 -94.349239 -17.638573
46.669485 -96.160633 -17.992937
47.710369 -92.897644 -19.127579
47.190106 -94.57386 -18.603405
46.69086 -94.709038 -19.481943
46.60566 -93.074196 -20.733415
46.087957 -94.833523 -20.293936
47.738981 -91.274925 -20.49783
46.60566 -93.074196 -20.733415
47.133516 -91.316299 -21.225128
45.092226 -91.111355 -22.944738
44.303574 -90.969139 -23.356006
46.310929 -89.329864 -22.79191
45.806596 -91.231434 -22.440599
45.092226 -91.111355 -22.944738
46.089765 -87.261112 -23.656122
44.811142 -89.004635 -23.668272
46.818664 -87.447521 -23.202416
46.089765 -87.261112 -23.656122
47.311872 -85.498848 -23.562489
51.571619 -80.485039 -22.882483
52.160736 -80.574532 -22.24509
50.993494 -82.287826 -22.294804
51.571619 -80.485039 -22.882483
50.936922 -80.325913 -23.452455
49.572426 -89.589402 0.744193
49.955349 -88.117157 0.959861
49.580711 -90.293484 -0.511885
49.572426 -89.589402 0.744193
49.135238 -91.123654 0.483525
46.174329 -100.309815 -6.191797
45.645409 -101.079414 -5.286959
45.319143 -101.838234 -6.623534
44.07358 -103.167378 -14.691144
44.627831 -102.622631 -13.496667
44.621588 -101.917518 -15.40269
44.07358 -103.167378 -14.691144
45.125056 -100.606423 -16.119793
45.657356 -100.174629 -14.992944
44.621588 -101.917518 -15.40269
45.64908 -99.187428 -16.758992
45.125056 -100.606423 -16.119793
46.152855 -97.723667 -17.418021
46.664598 -97.399773 -16.369076
45.64908 -99.187428 -16.758992
46.669485 -96.160633 -17.992937
46.152855 -97.723667 -17.418021
48.307906 -92.660168 2.477577
48.722837 -91.915199 1.45875
47.886521 -93.359478 3.473569
47.477843 -94.040123 4.514588
47.897337 -94.110138 2.173889
48.307906 -92.660168 2.477577
47.886521 -93.359478 3.473569
45.484266 -98.031182 5.861495
44.791462 -99.342724 5.470506
45.962665 -97.440827 4.826522
45.484266 -98.031182 5.861495
45.862484 -98.235214 3.452156
46.479882 -96.867897 3.827418
45.962665 -97.440827 4.826522
42.668888 -104.022759 -0.514569
43.302941 -103.518467 -1.495332
43.699658 -102.64101 -0.114647
42.394317 -103.599182 1.874628
43.393867 -102.304688 2.261734
42.72258 -102.758567 3.270245
41.961893 -104.468933 0.492177
42.394317 -103.599182 1.874628
42.668888 -104.022759 -0.514569
41.961893 -104.468933 0.492177
50.481501 -87.271569 -0.054703
50.418951 -86.629493 1.156375
49.955349 -88.117157 0.959861
56.090221 -78.579777 -7.744476
56.133896 -78.329159 -6.657812
55.196872 -79.816917 -6.784985
56.953346 -77.252285 -8.690985
56.090221 -78.579777 -7.744476
56.016323 -78.740044 -8.818157
57.893456 -75.9202 -9.656844
56.953346 -77.252285 -8.690985
57.787807 -76.006119 -10.722988
56.763588 -77.58799 -10.839499
57.671948 -76.181557 -11.797821
57.893456 -75.9202 -9.656844
57.787807 -76.006119 -10.722988
53.189913 -80.65456 -20.800438
52.070231 -82.383144 -20.897407
52.702293 -80.648735 -21.560442
53.631247 -80.646732 -20.001831
53.189913 -80.65456 -20.800438
54.017713 -80.572281 -19.128603
52.944317 -82.314518 -19.264175
53.631247 -80.646732 -20.001831
54.364004 -80.49176 -18.228907
54.017713 -80.572281 -19.128603
54.660927 -80.346466 -17.262467
53.627707 -82.094773 -17.424507
54.364004 -80.49176 -18.228907
54.926731 -80.209751 -16.283272
54.660927 -80.346466 -17.262467
55.152063 -80.009357 -15.24963
54.149962 -81.749085 -15.424425
54.926731 -80.209751 -16.283272
55.355471 -79.838371 -14.216213
55.152063 -80.009357 -15.24963
3 82 21 83
3 0 24 22
3 1 84 85
3 1 86 87
3 3 27 25
3 88 29 89
3 91 90 29
3 4 33 31
3 5 36 34
3 5 92 94
3 94 93 36
3 92 93 94
3 2 40 38
3 6 95 97
3 95 41 96
3 95 96 97
3 6 42 41
3 99 98 43
3 7 47 45
3 9 48 23
3 9 49 48
3 100 51 101
3 11 102 104
3 102 52 103
3 102 103 104
3 11 53 52
3 105 54 106
3 107 55 108
3 109 56 110
3 111 110 55
3 109 110 111
3 113 112 56
3 12 114 116
3 114 58 115
3 114 115 116
3 14 59 26
3 14 60 59
3 117 61 118
3 119 118 44
3 117 118 119
3 15 62 28
3 15 63 62
3 15 64 63
3 16 65 30
3 16 66 65
3 120 67 121
3 122 68 123
3 124 123 67
3 122 123 124
3 17 125 127
3 125 69 126
3 125 126 127
3 17 70 69
3 17 71 70
3 13 72 57
3 18 73 32
3 18 74 73
3 8 75 46
3 19 76 35
3 19 77 76
3 19 78 77
3 129 128 37
3 10 79 50
3 20 80 39
3 20 81 80
3 21 130 131
3 21 132 134
3 132 6 133
3 132 133 134
3 22 23 7
3 24 23 22
3 24 9 23
3 135 11 136
3 25 26 12
3 27 26 25
3 27 14 26
3 137 28 138
3 29 139 141
3 139 28 140
3 139 140 141
3 29 15 28
3 29 30 15
3 142 30 143
3 144 143 29
3 142 143 144
3 145 16 146
3 147 146 30
3 145 146 147
3 148 17 149
3 151 150 17
3 31 32 13
3 33 32 31
3 33 18 32
3 34 35 8
3 36 35 34
3 36 19 35
3 36 37 19
3 152 37 153
3 154 153 36
3 152 153 154
3 156 155 37
3 38 39 10
3 40 39 38
3 40 20 39
3 41 157 158
3 41 159 160
3 41 161 162
3 42 163 165
3 165 164 41
3 163 164 165
3 42 166 168
3 166 1 167
3 166 167 168
3 43 44 3
3 169 44 170
3 171 170 43
3 169 170 171
3 173 172 44
3 45 46 4
3 47 46 45
3 47 8 46
3 23 47 7
3 48 47 23
3 48 8 47
3 48 34 8
3 49 34 48
3 49 5 34
3 175 174 2
3 176 50 177
3 178 177 0
3 176 177 178
3 51 179 181
3 179 50 180
3 179 180 181
3 51 10 50
3 182 51 183
3 52 184 186
3 184 51 185
3 184 185 186
3 52 10 51
3 52 38 10
3 53 38 52
3 53 2 38
3 54 187 188
3 54 189 191
3 189 11 190
3 189 190 191
3 192 54 193
3 55 194 196
3 194 54 195
3 194 195 196
3 55 11 54
3 55 53 11
3 56 53 55
3 56 2 53
3 56 197 199
3 199 198 2
3 197 198 199
3 201 200 56
3 202 57 203
3 58 204 206
3 204 57 205
3 204 205 206
3 58 13 57
3 26 58 12
3 59 58 26
3 59 13 58
3 59 31 13
3 60 31 59
3 60 4 31
3 44 27 3
3 61 27 44
3 61 14 27
3 28 207 209
3 207 61 208
3 207 208 209
3 62 61 28
3 62 14 61
3 62 60 14
3 63 60 62
3 63 4 60
3 63 45 4
3 64 45 63
3 64 7 45
3 30 64 15
3 65 64 30
3 65 7 64
3 65 22 7
3 66 22 65
3 66 0 22
3 210 16 211
3 212 16 213
3 214 66 215
3 216 215 16
3 214 215 216
3 217 66 218
3 219 0 220
3 221 220 66
3 219 220 221
3 223 222 0
3 224 12 225
3 67 226 227
3 67 228 230
3 228 12 229
3 228 229 230
3 67 25 12
3 68 25 67
3 68 3 25
3 69 231 232
3 69 233 234
3 69 235 237
3 235 68 236
3 235 236 237
3 70 68 69
3 70 3 68
3 70 43 3
3 71 43 70
3 71 238 240
3 240 239 43
3 238 239 240
3 241 71 242
3 243 242 17
3 241 242 243
3 244 71 245
3 247 246 71
3 57 248 250
3 248 21 249
3 248 249 250
3 72 21 57
3 72 6 21
3 32 72 13
3 73 72 32
3 73 6 72
3 73 42 6
3 74 42 73
3 74 1 42
3 46 33 4
3 75 33 46
3 75 18 33
3 35 75 8
3 76 75 35
3 76 18 75
3 76 74 18
3 77 74 76
3 77 1 74
3 77 251 253
3 253 252 1
3 251 252 253
3 78 254 256
3 256 255 77
3 254 255 256
3 78 257 258
3 37 78 19
3 259 78 260
3 261 260 37
3 259 260 261
3 263 262 78
3 50 24 0
3 79 24 50
3 79 9 24
3 39 79 10
3 80 79 39
3 80 9 79
3 80 49 9
3 81 49 80
3 81 5 49
3 264 40 265
3 266 265 2
3 264 265 266
3 267 40 268
3 269 20 270
3 271 270 40
3 269 270 271
3 272 20 273
3 274 81 275
3 276 275 20
3 274 275 276
3 277 81 278
3 279 5 280
3 281 280 81
3 279 280 281
3 283 282 5
