ply
format ascii 1.0
element vertex 320
property float x
property float y
property float z
element face 331
property list uchar int vertex_index
end_header
-16.5016 -64.347809 80.235466
-16.751221 -53.799301 82.606155
-23.78581 -60.448612 76.954498
-10.426653 -58.095222 85.552353
-9.082834 -67.741211 80.455086
-15.527536 -69.265091 78.82254
-19.506256 -67.425308 78.045982
-27.004532 -58.502384 74.521362
-26.650095 -63.460209 74.378769
-13.376789 -61.17989 82.78376
-9.989557 -63.031414 83.120438
-12.713953 -66.164581 80.858719
-11.593611 -70.930046 78.763428
-16.844551 -59.154491 81.434952
-20.243156 -62.4123 78.878151
-20.291437 -57.129787 79.475235
-23.68005 -55.193207 77.166016
-26.969761 -53.358971 74.646027
-7.648575 -55.105301 87.553574
-10.271473 -53.012589 87.46067
-13.511723 -55.964096 84.550926
-23.289494 -65.469757 76.561493
-30.060335 -51.597496 71.977028
-7.604809 -59.908508 85.096313
-6.884586 -64.497246 82.061935
-16.093958 -66.841049 79.57122
-17.526461 -68.363831 78.527397
-18.049829 -65.913818 79.130676
-28.457687 -57.537983 73.12896
-28.368305 -60.025875 73.115982
-14.927683 -62.760818 81.446457
-13.110926 -63.70496 81.837608
-14.602324 -65.278183 80.655396
-14.1351 -67.72937 79.817772
-16.828419 -56.481182 82.019897
-18.573709 -58.134502 80.511368
-18.507814 -55.446274 80.96151
-21.905548 -53.480083 78.623146
-25.341785 -54.264362 75.926613
-25.352222 -51.666725 76.167114
-13.424778 -53.331978 85.321846
-15.114386 -54.871147 83.661346
-15.160473 -57.536587 82.949074
-22.047607 -61.430012 77.982262
-21.849884 -63.983391 77.747162
-23.646093 -62.998119 76.820641
-27.62793 -64.786942 72.759621
-26.135031 -65.819138 74.070259
-28.774323 -49.976295 73.690018
-30.425205 -49.156769 72.432404
-9.022665 -56.594433 86.718559
-7.725416 -57.527676 86.420395
-8.971495 -59.05994 85.530785
-9.578749 -65.408279 81.805969
-8.385715 -63.824314 82.781837
-7.923708 -66.124763 81.299446
-6.388708 -66.728561 80.432228
-7.405998 -68.401176 79.779984
-14.820003 -71.622849 77.960052
-16.829063 -70.738495 77.788925
-18.833351 -69.811386 77.41748
-20.799286 -68.847557 76.858658
-25.442818 -59.47229 75.799179
-25.343601 -62.008255 75.738892
-26.92304 -61.017197 74.502441
-28.112642 -62.446808 73.022171
-11.874857 -59.622433 84.191658
-10.281364 -60.593624 84.379601
-11.662857 -62.140888 83.105957
-11.318718 -64.594833 81.972931
-10.863661 -66.990936 80.804855
-10.322767 -69.347443 79.601677
-12.201214 -68.568298 79.839432
-13.539669 -70.122238 78.910538
-16.747042 -61.783443 80.846977
-18.388565 -63.388275 79.634407
-18.552261 -60.790756 80.080505
-20.330627 -59.796577 79.178162
-22.072067 -58.810398 78.160721
-20.199638 -54.444031 79.818153
-21.994656 -56.14827 78.353668
-23.767675 -57.837708 77.041428
-25.408258 -56.880539 75.830002
-26.983097 -55.93819 74.535461
-28.479351 -55.007927 73.166489
-8.902575 -54.103378 87.716911
-10.416771 -55.556141 86.596573
-11.888342 -54.45467 86.107292
-11.945906 -57.050472 85.204941
-13.506493 -58.592693 83.693863
-15.109123 -60.176155 82.20845
-19.976681 -64.958046 78.518532
-21.437054 -66.457764 77.389755
-22.693064 -67.855377 76.116432
-25.035568 -64.468796 75.558815
-24.481735 -66.843521 75.188469
-27.075123 -50.809586 74.930733
-28.548935 -52.472233 73.329941
-8.749437 -61.472973 84.203911
-7.308495 -62.231056 83.628876
-9.721022 -71.684181 78.351616
-29.0627 -58.285761 72.359287
-29.124065 -57.057354 72.380619
-24.52456 -50.820181 76.975765
-24.488576 -52.110958 76.783897
-15.932804 -54.335224 83.13375
-15.067515 -53.547663 83.990142
-15.885933 -53.01174 83.462547
-27.261676 -65.913593 72.51474
-27.934561 -65.387108 71.788246
-30.733148 -47.98167 72.764466
-29.828336 -48.362324 73.347706
-8.80781 -68.899002 79.764092
-7.969392 -69.228984 79.426541
-8.244416 -68.071194 80.117535
-28.761104 -61.938124 72.259277
-28.240474 -61.236341 73.069076
-28.888935 -60.727657 72.306183
-28.528114 -63.098102 72.14125
-28.761104 -61.938124 72.259277
-20.169054 -53.114178 80.026024
-19.312058 -53.605564 80.632595
-9.587024 -53.557983 87.58879
-8.774947 -52.86381 88.094776
-9.459397 -52.318415 87.966656
-24.925674 -67.465984 74.357029
-25.308383 -66.331329 74.629364
-25.752322 -66.953793 73.797924
-24.082883 -67.985641 74.885959
-24.925674 -67.465984 74.357029
-27.230074 -49.574936 75.174733
-26.303548 -49.974034 75.759655
-29.971474 -52.841511 71.85339
-29.215775 -53.27888 72.529847
-29.304635 -52.034864 72.653485
-7.089118 -55.541128 87.244373
-6.41225 -54.78907 87.450791
-6.971707 -54.353243 87.759991
-7.076825 -59.114667 85.386189
-7.137129 -57.924251 86.048229
-7.665113 -58.718092 85.758354
-6.979781 -60.260761 84.663505
-7.076825 -59.114667 85.386189
-6.437453 -63.672263 82.352337
-6.649407 -62.539168 83.135807
-7.09654 -63.364151 82.845405
-6.202191 -64.766812 81.508274
-6.437453 -63.672263 82.352337
-5.697866 -66.969989 79.817684
-6.12836 -67.844498 79.598705
-29.018009 -59.529707 72.352799
-28.412996 -58.781929 73.122471
-29.0627 -58.285761 72.359287
-28.888935 -60.727657 72.306183
-29.018009 -59.529707 72.352799
-21.900946 -52.166956 78.813744
-21.022009 -52.632204 79.42852
-22.765239 -53.017637 78.011914
-21.900946 -52.166956 78.813744
-23.65249 -53.874199 77.283349
-22.792799 -54.336645 77.894581
-22.765239 -53.017637 78.011914
-24.483357 -53.409776 76.663647
-24.510918 -54.728785 76.546314
-23.65249 -53.874199 77.283349
-25.347003 -52.965543 76.046864
-24.483357 -53.409776 76.663647
-24.488576 -52.110958 76.783897
-10.155928 -51.760904 87.774192
-9.459397 -52.318415 87.966656
-14.222711 -52.778078 84.820392
-13.360577 -52.039116 85.639431
-14.269582 -54.101562 84.491596
-14.222711 -52.778078 84.820392
-15.067515 -53.547663 83.990142
-26.515227 -66.429691 73.170059
-26.881481 -65.30304 73.41494
-27.261676 -65.913593 72.51474
-25.752322 -66.953793 73.797924
-26.515227 -66.429691 73.170059
-29.002895 -48.772087 73.976513
-28.079674 -49.15829 74.554375
-28.308245 -47.954082 74.84087
-29.599764 -49.566532 73.061211
-29.002895 -48.772087 73.976513
-29.828336 -48.362324 73.347706
-6.637004 -68.680805 79.272583
-6.12836 -67.844498 79.598705
-6.897353 -67.564869 80.106106
-7.135807 -69.54417 79.005966
-6.637004 -68.680805 79.272583
-7.135807 -69.54417 79.005966
-7.969392 -69.228984 79.426541
-11.255506 -72.093846 78.18591
-12.216275 -71.696102 78.336205
-17.587849 -53.283199 82.026596
-16.713808 -52.478592 82.890422
-16.713808 -52.478592 82.890422
-15.885933 -53.01174 83.462547
-15.401981 -72.32898 77.424995
-14.410581 -72.766297 77.460655
-16.40651 -71.886803 77.339432
-15.401981 -72.32898 77.424995
-15.824533 -71.180672 77.874489
-17.404795 -71.42635 77.196434
-16.40651 -71.886803 77.339432
-18.406939 -70.962795 77.010711
-17.404795 -71.42635 77.196434
-17.831207 -70.27494 77.603203
-19.393757 -70.480812 76.769004
-18.406939 -70.962795 77.010711
-20.376725 -69.998897 76.489594
-19.393757 -70.480812 76.769004
-19.816319 -69.329471 77.138069
-21.333406 -69.499485 76.152871
-20.376725 -69.998897 76.489594
-28.285758 -64.268169 72.009975
-27.870286 -63.616875 72.890896
-28.528114 -63.098102 72.14125
-27.934561 -65.387108 71.788246
-28.285758 -64.268169 72.009975
-13.189304 -71.292198 78.40976
-12.216275 -71.696102 78.336205
-12.56664 -70.526142 78.836983
-13.82947 -72.042504 77.934517
-13.189304 -71.292198 78.40976
-14.179836 -70.872544 78.435295
-14.410581 -72.766297 77.460655
-13.82947 -72.042504 77.934517
-18.466145 -54.106685 81.204273
-17.629517 -54.622788 81.783833
-17.587849 -53.283199 82.026596
-19.353726 -54.945153 80.389831
-18.466145 -54.106685 81.204273
-19.312058 -53.605564 80.632595
-21.052593 -53.962057 79.22065
-20.169054 -53.114178 80.026024
-21.022009 -52.632204 79.42852
-29.134897 -55.792326 72.399383
-29.124065 -57.057354 72.380619
-28.468519 -56.272955 73.147725
-7.520609 -53.887814 88.000695
-6.971707 -54.353243 87.759991
-8.147609 -53.386852 88.082363
-8.774947 -52.86381 88.094776
-8.275575 -54.604339 87.635243
-7.520609 -53.887814 88.000695
-8.147609 -53.386852 88.082363
-11.005425 -52.445814 87.154083
-10.155928 -51.760904 87.774192
-12.582077 -52.605509 86.084671
-13.360577 -52.039116 85.639431
-11.813859 -53.166855 86.477394
-12.582077 -52.605509 86.084671
-12.65656 -53.893324 85.714569
-11.079908 -53.733629 86.783981
-11.005425 -52.445814 87.154083
-11.813859 -53.166855 86.477394
-22.280296 -69.003395 75.781757
-21.333406 -69.499485 76.152871
-21.746175 -68.351467 76.487545
-23.188547 -68.491569 75.349941
-23.5874 -67.349449 75.652451
-24.082883 -67.985641 74.885959
-22.280296 -69.003395 75.781757
-23.188547 -68.491569 75.349941
-25.442098 -50.402603 76.377846
-24.52456 -50.820181 76.975765
-26.213673 -51.238156 75.548924
-25.442098 -50.402603 76.377846
-26.303548 -49.974034 75.759655
-27.924723 -50.392941 74.310375
-27.230074 -49.574936 75.174733
-28.079674 -49.15829 74.554375
-29.180982 -54.546727 72.448121
-28.514143 -53.74008 73.248215
-29.215775 -53.27888 72.529847
-29.134897 -55.792326 72.399383
-29.180982 -54.546727 72.448121
-31.213361 -48.747476 71.783959
-30.733148 -47.98167 72.764466
-30.954552 -49.941498 71.505192
-31.213361 -48.747476 71.783959
-30.772118 -51.161862 71.277504
-30.24277 -50.377133 72.204716
-30.954552 -49.941498 71.505192
-30.61963 -52.381588 71.102352
-30.772118 -51.161862 71.277504
-29.971474 -52.841511 71.85339
-30.61963 -52.381588 71.102352
-7.127538 -56.752315 86.677784
-7.089118 -55.541128 87.244373
-7.686996 -56.316488 86.986985
-7.127538 -56.752315 86.677784
-7.137129 -57.924251 86.048229
-6.831624 -61.422035 83.929787
-6.979781 -60.260761 84.663505
-7.456652 -61.069782 84.362595
-6.831624 -61.422035 83.929787
-6.649407 -62.539168 83.135807
-5.954252 -65.882469 80.693421
-6.202191 -64.766812 81.508274
-6.636647 -65.612904 81.247082
-5.954252 -65.882469 80.693421
-5.697866 -66.969989 79.817684
-9.427776 -69.702118 79.337387
-8.80781 -68.899002 79.764092
-9.702801 -68.544327 80.028381
-9.126904 -70.870487 78.712356
-9.427776 -69.702118 79.337387
-10.021895 -70.515812 78.976647
-8.837742 -72.032002 78.001156
-9.126904 -70.870487 78.712356
-10.319212 -72.470913 77.980004
-10.657317 -71.307113 78.557522
-11.255506 -72.093846 78.18591
-9.403374 -72.847752 77.692066
-10.319212 -72.470913 77.980004
-8.837742 -72.032002 78.001156
-9.403374 -72.847752 77.692066
3 0 27 25
3 102 101 28
3 0 32 30
3 0 25 32
3 1 36 34
3 103 39 104
3 1 105 107
3 105 41 106
3 105 106 107
3 1 34 41
3 2 45 43
3 109 108 46
3 110 49 111
3 3 52 50
3 4 55 53
3 4 57 55
3 4 112 114
3 114 113 57
3 112 113 114
3 5 59 58
3 6 60 26
3 6 61 60
3 7 64 62
3 115 65 116
3 117 116 29
3 115 116 117
3 119 118 65
3 9 68 66
3 11 69 31
3 11 70 69
3 11 72 70
3 5 73 33
3 5 58 73
3 13 76 74
3 15 77 35
3 15 78 77
3 120 79 121
3 16 80 37
3 16 81 80
3 16 82 81
3 17 83 38
3 17 84 83
3 19 122 124
3 122 85 123
3 122 123 124
3 19 86 85
3 20 87 40
3 20 88 87
3 20 89 88
3 13 90 42
3 13 74 90
3 14 91 75
3 21 92 44
3 21 93 92
3 8 94 63
3 125 95 126
3 127 126 47
3 125 126 127
3 129 128 95
3 130 96 131
3 22 97 48
3 22 132 134
3 134 133 97
3 132 133 134
3 18 135 137
3 135 136 137
3 23 138 140
3 140 139 51
3 138 139 140
3 23 141 142
3 10 98 67
3 24 99 54
3 24 143 145
3 145 144 99
3 143 144 145
3 24 146 147
3 149 148 56
3 12 100 71
3 25 26 5
3 27 26 25
3 27 6 26
3 28 29 7
3 150 29 151
3 152 151 28
3 150 151 152
3 154 153 29
3 30 31 9
3 32 31 30
3 32 11 31
3 32 33 11
3 25 33 32
3 25 5 33
3 34 35 13
3 36 35 34
3 36 15 35
3 155 37 156
3 157 37 158
3 159 16 160
3 161 160 37
3 159 160 161
3 162 38 163
3 164 163 16
3 162 163 164
3 39 165 167
3 165 38 166
3 165 166 167
3 39 17 38
3 168 19 169
3 170 40 171
3 41 172 174
3 172 40 173
3 172 173 174
3 41 20 40
3 41 42 20
3 34 42 41
3 34 13 42
3 43 44 14
3 45 44 43
3 45 21 44
3 46 47 8
3 175 47 176
3 177 176 46
3 175 176 177
3 179 178 47
3 180 48 181
3 180 181 182
3 49 183 185
3 183 48 184
3 183 184 185
3 49 22 48
3 50 51 18
3 52 51 50
3 52 23 51
3 53 54 10
3 55 54 53
3 55 24 54
3 55 56 24
3 57 56 55
3 57 186 188
3 188 187 56
3 186 187 188
3 57 189 190
3 192 191 57
3 194 193 12
3 196 195 1
3 197 1 198
3 58 199 200
3 59 201 203
3 203 202 58
3 201 202 203
3 59 204 205
3 26 59 5
3 60 59 26
3 60 206 208
3 208 207 59
3 206 207 208
3 60 209 210
3 61 211 213
3 213 212 60
3 211 212 213
3 61 214 215
3 62 63 2
3 64 63 62
3 64 8 63
3 29 64 7
3 65 64 29
3 65 8 64
3 65 46 8
3 216 46 217
3 218 217 65
3 216 217 218
3 220 219 46
3 66 67 3
3 68 67 66
3 68 10 67
3 31 68 9
3 69 68 31
3 69 10 68
3 69 53 10
3 70 53 69
3 70 4 53
3 70 71 4
3 72 71 70
3 72 12 71
3 33 72 11
3 73 72 33
3 73 12 72
3 73 221 223
3 223 222 12
3 221 222 223
3 58 224 226
3 226 225 73
3 224 225 226
3 58 227 228
3 74 75 0
3 76 75 74
3 76 14 75
3 35 76 13
3 77 76 35
3 77 14 76
3 77 43 14
3 78 43 77
3 78 2 43
3 229 36 230
3 231 230 1
3 229 230 231
3 79 232 234
3 232 36 233
3 232 233 234
3 79 15 36
3 37 235 237
3 235 79 236
3 235 236 237
3 80 79 37
3 80 15 79
3 80 78 15
3 81 78 80
3 81 2 78
3 81 62 2
3 82 62 81
3 82 7 62
3 38 82 16
3 83 82 38
3 83 7 82
3 83 28 7
3 84 28 83
3 84 238 240
3 240 239 28
3 238 239 240
3 241 18 242
3 85 243 244
3 85 245 247
3 245 18 246
3 245 246 247
3 85 50 18
3 86 50 85
3 86 3 50
3 248 19 249
3 40 250 251
3 87 252 254
3 254 253 40
3 252 253 254
3 87 255 257
3 255 19 256
3 255 256 257
3 87 86 19
3 88 86 87
3 88 3 86
3 88 66 3
3 89 66 88
3 89 9 66
3 42 89 20
3 90 89 42
3 90 9 89
3 90 30 9
3 74 30 90
3 74 0 30
3 75 27 0
3 91 27 75
3 91 6 27
3 44 91 14
3 92 91 44
3 92 6 91
3 92 61 6
3 93 61 92
3 93 258 260
3 260 259 61
3 258 259 260
3 63 45 2
3 94 45 63
3 94 21 45
3 47 94 8
3 95 94 47
3 95 21 94
3 95 93 21
3 261 93 262
3 263 262 95
3 261 262 263
3 265 264 93
3 266 39 267
3 96 268 270
3 268 39 269
3 268 269 270
3 96 17 39
3 48 271 273
3 271 96 272
3 271 272 273
3 97 96 48
3 97 17 96
3 97 84 17
3 274 84 275
3 276 275 97
3 274 275 276
3 278 277 84
3 279 49 280
3 281 49 282
3 283 22 284
3 285 284 49
3 283 284 285
3 286 22 287
3 289 288 22
3 51 290 292
3 292 291 18
3 290 291 292
3 294 293 51
3 67 52 3
3 98 52 67
3 98 23 52
3 54 98 10
3 99 98 54
3 99 23 98
3 99 295 297
3 297 296 23
3 295 296 297
3 299 298 99
3 56 300 302
3 302 301 24
3 300 301 302
3 304 303 56
3 71 305 307
3 307 306 4
3 305 306 307
3 100 308 310
3 310 309 71
3 308 309 310
3 100 311 312
3 313 100 314
3 315 314 12
3 313 314 315
3 316 100 317
3 319 318 100
