ply
format ascii 1.0
element vertex 286
property float x
property float y
property float z
element face 281
property list uchar int vertex_index
end_header
8.339899 -90.192535 60.570877
21.999413 -79.984756 56.846832
10.165056 -96.805519 51.804581
8.325954 -82.544289 69.672279
14.860081 -85.293579 59.619392
25.479105 -78.718681 55.841446
7.902992 -86.490738 65.214279
11.414122 -84.324768 65.226585
11.466595 -88.20575 60.556984
18.984585 -78.90831 63.108101
9.307777 -93.672493 56.07502
12.084143 -92.243988 55.966751
12.649738 -96.386902 51.708763
4.858795 -87.474762 64.170059
5.62924 -90.735085 59.442818
6.882465 -93.431633 54.882858
8.033134 -95.461853 50.44236
15.174329 -81.556099 64.410378
18.40839 -82.290245 58.218048
15.110473 -89.483322 54.750351
22.265553 -78.441734 59.342369
24.019512 -77.724899 58.710739
23.76322 -79.22493 56.287666
25.323605 -80.222504 53.285561
23.590733 -80.766464 53.649429
8.026276 -88.368629 62.891197
9.641577 -87.448837 63.027061
9.861151 -89.35743 60.700836
9.797464 -95.297775 53.920029
11.072569 -95.025665 54.03344
11.365765 -96.825073 51.949356
4.775484 -85.656624 66.530731
4.47142 -90.423904 58.480247
6.228678 -92.159668 57.137794
5.119492 -91.65934 56.150566
10.222719 -81.57357 69.733376
13.113491 -84.8675 62.565155
13.275961 -82.970078 64.901924
14.927731 -83.389458 62.052315
16.769228 -81.92395 61.422356
16.620983 -83.747711 58.94413
13.835661 -93.221848 53.233643
13.571228 -90.989014 55.467651
4.127775 -90.799156 54.957336
7.999649 -84.552109 67.491615
9.805258 -83.57357 67.593979
9.61412 -85.526245 65.341881
11.344799 -86.253876 62.906258
13.137867 -86.817261 60.178253
20.458755 -79.391357 60.023628
8.791756 -91.963509 58.291779
10.224131 -91.261551 58.408752
10.658447 -93.157944 56.182526
12.423058 -94.319839 53.792618
6.312788 -85.261551 67.139008
6.308826 -87.153656 64.824287
6.522993 -88.953278 62.479759
5.154688 -89.170181 61.794601
6.923077 -90.659256 60.149437
7.455261 -92.266212 57.863953
8.046055 -93.762207 55.634689
8.608877 -95.128029 53.45179
5.818323 -92.709259 53.86657
7.510372 -94.537033 52.661652
9.055279 -96.338867 51.286652
11.697626 -82.391907 67.466125
13.645191 -81.087494 67.138756
15.617564 -79.745834 66.64827
17.085121 -80.175583 63.797791
18.619555 -80.566498 60.72982
20.207432 -81.014771 57.502098
11.735554 -90.200577 58.229782
13.310713 -88.85186 57.79538
14.938558 -87.314087 57.16613
16.698231 -87.843201 53.896896
16.61211 -85.704727 56.415108
18.325579 -84.146843 55.619705
20.070358 -82.753227 54.853844
21.832119 -81.610565 54.181206
3.963233 -90.086853 57.894641
3.6797 -89.460887 59.095901
4.287269 -90.704571 56.729801
4.795456 -91.041622 57.315406
3.963233 -90.086853 57.894641
9.274337 -82.05893 69.702828
9.549017 -81.016842 70.721425
8.600634 -81.502202 70.690876
14.568095 -92.514996 52.828583
14.624783 -93.741219 51.726776
25.591857 -77.965778 56.989364
24.86206 -77.468887 58.424011
24.749308 -78.22179 57.276092
26.306304 -78.565502 55.673099
26.419056 -77.812599 56.821018
25.591857 -77.965778 56.989364
26.245196 -79.326843 54.467297
26.306304 -78.565502 55.673099
26.12156 -80.849266 51.843464
25.267105 -81.009644 51.89515
19.916829 -78.359634 62.743409
19.252871 -78.082172 64.21508
19.72167 -79.149833 61.565865
20.653914 -78.601158 61.201172
19.916829 -78.359634 62.743409
13.326536 -95.949845 51.409702
13.213196 -94.916313 52.451629
12.536398 -95.353371 52.75069
5.615945 -84.491897 67.984318
6.429785 -84.268997 68.256554
5.391964 -89.952633 60.61871
4.547092 -89.091693 61.326508
4.784369 -89.874145 60.150616
5.333157 -92.174366 53.257924
4.973049 -91.754208 54.411953
4.487882 -91.219314 53.803306
7.771753 -94.999443 51.552006
7.003286 -94.05188 52.134766
7.264667 -94.51429 51.02512
8.670894 -96.414704 49.77039
9.181966 -96.85321 50.192535
8.544207 -95.90036 50.864506
17.516119 -87.021313 53.44688
17.538865 -88.167229 52.15818
17.473059 -85.952076 54.705986
16.655171 -86.773964 55.156002
17.516119 -87.021313 53.44688
18.329793 -85.173134 54.308284
17.468845 -84.925785 56.017406
17.473059 -85.952076 54.705986
20.90251 -83.076652 53.12658
20.042999 -83.717403 53.496044
21.78339 -82.505321 52.790261
20.951238 -82.181896 54.517525
20.90251 -83.076652 53.12658
22.653143 -82.020076 52.51146
21.78339 -82.505321 52.790261
23.142533 -78.083316 59.026554
23.337802 -77.317726 60.173954
22.460822 -77.676143 60.489769
24.400669 -81.281623 52.077084
25.267105 -81.009644 51.89515
24.457169 -80.494484 53.467495
18.28507 -78.677693 64.569874
19.252871 -78.082172 64.21508
4.124371 -84.755806 67.287514
4.847293 -84.689434 67.68018
4.095111 -85.686295 66.104542
4.124371 -84.755806 67.287514
4.136767 -86.595363 64.924205
4.817139 -86.565693 65.350395
4.095111 -85.686295 66.104542
4.205458 -89.718555 59.669331
3.6797 -89.460887 59.095901
5.05033 -90.579494 58.961533
4.784369 -89.874145 60.150616
4.205458 -89.718555 59.669331
7.558924 -94.845513 49.892128
7.264667 -94.51429 51.02512
7.734707 -95.211556 48.763534
8.208917 -95.827896 49.313766
7.558924 -94.845513 49.892128
10.540809 -80.542465 70.724926
9.549017 -81.016842 70.721425
11.212104 -81.001202 69.655712
10.540809 -80.542465 70.724926
14.435878 -91.398579 53.945587
13.703444 -92.105431 54.350647
14.568095 -92.514996 52.828583
15.205501 -90.645733 53.586937
14.340851 -90.236168 55.109001
14.435878 -91.398579 53.945587
10.883878 -98.327839 49.793304
10.804238 -97.653618 50.850769
10.244695 -97.47974 50.747116
3.353333 -89.774376 55.472225
3.79141 -90.274479 56.133186
3.688398 -90.211181 54.289531
3.353333 -89.774376 55.472225
2.913957 -89.186401 54.80442
4.487882 -91.219314 53.803306
3.688398 -90.211181 54.289531
24.203078 -76.96365 59.804726
23.337802 -77.317726 60.173954
24.203078 -76.96365 59.804726
24.86206 -77.468887 58.424011
26.167445 -80.078755 53.189354
26.245196 -79.326843 54.467297
25.401355 -79.470593 54.563503
26.9654 -80.705517 51.747257
26.167445 -80.078755 53.189354
26.12156 -80.849266 51.843464
21.557313 -78.126346 60.860542
22.460822 -77.676143 60.489769
21.362154 -78.916545 59.682998
21.557313 -78.126346 60.860542
20.653914 -78.601158 61.201172
13.919498 -94.367317 52.172142
13.129359 -93.770843 53.513131
13.213196 -94.916313 52.451629
14.624783 -93.741219 51.726776
13.919498 -94.367317 52.172142
11.404592 -97.663395 50.923157
10.76541 -96.815296 51.876969
10.804238 -97.653618 50.850769
12.014502 -97.603336 50.82074
11.404592 -97.663395 50.923157
12.656489 -97.384251 50.700443
12.007751 -96.605987 51.829059
12.014502 -97.603336 50.82074
13.309885 -97.090576 50.399341
12.656489 -97.384251 50.700443
13.326536 -95.949845 51.409702
13.309885 -97.090576 50.399341
7.665838 -81.871338 70.576851
8.600634 -81.502202 70.690876
7.436368 -82.910366 69.52319
7.665838 -81.871338 70.576851
7.273216 -83.914276 68.432857
8.162802 -83.548199 68.581947
7.436368 -82.910366 69.52319
7.156218 -84.90683 67.315312
7.273216 -83.914276 68.432857
6.429785 -84.268997 68.256554
5.544136 -85.459087 66.834869
5.615945 -84.491897 67.984318
4.847293 -84.689434 67.68018
4.217267 -87.457165 63.719368
4.136767 -86.595363 64.924205
4.365214 -88.304874 62.531639
4.547092 -89.091693 61.326508
5.006742 -88.322472 62.98233
4.217267 -87.457165 63.719368
4.365214 -88.304874 62.531639
4.623634 -91.229248 55.553951
4.287269 -90.704571 56.729801
3.79141 -90.274479 56.133186
6.157262 -93.137993 52.737225
5.333157 -92.174366 53.257924
6.664347 -93.623146 53.264111
6.157262 -93.137993 52.737225
7.003286 -94.05188 52.134766
9.689807 -97.246414 50.488152
10.244695 -97.47974 50.747116
9.610167 -96.572193 51.545616
9.689807 -97.246414 50.488152
9.181966 -96.85321 50.192535
8.670894 -96.414704 49.77039
8.208917 -95.827896 49.313766
11.949558 -81.41037 68.522087
11.212104 -81.001202 69.655712
10.960172 -81.982739 68.59975
12.923341 -80.758163 68.358402
11.949558 -81.41037 68.522087
12.671409 -81.7397 67.302441
13.935882 -80.136059 68.186406
12.923341 -80.758163 68.358402
14.922069 -79.465229 67.941162
13.935882 -80.136059 68.186406
14.631377 -80.416664 66.893513
15.940333 -78.831207 67.689705
14.922069 -79.465229 67.941162
16.60156 -79.096454 66.339958
15.940333 -78.831207 67.689705
17.335338 -79.311329 64.914719
16.60156 -79.096454 66.339958
16.351343 -79.960709 65.22303
18.034853 -79.541946 63.452946
18.28507 -78.677693 64.569874
17.335338 -79.311329 64.914719
15.96243 -89.835304 53.101017
15.205501 -90.645733 53.586937
16.75631 -89.015243 52.67429
17.538865 -88.167229 52.15818
15.904352 -88.663262 54.323623
15.96243 -89.835304 53.101017
16.75631 -89.015243 52.67429
19.17061 -84.414211 53.878975
18.329793 -85.173134 54.308284
19.197969 -83.450035 55.236775
19.17061 -84.414211 53.878975
20.042999 -83.717403 53.496044
23.53245 -81.598026 52.245571
22.711426 -81.188514 53.915318
22.653143 -82.020076 52.51146
24.400669 -81.281623 52.077084
23.53245 -81.598026 52.245571
3 1 22 20
3 1 24 22
3 0 27 25
3 2 30 28
3 79 32 80
3 81 34 82
3 83 82 32
3 81 82 83
3 3 84 86
3 84 35 85
3 84 85 86
3 4 38 36
3 4 40 38
3 88 87 41
3 5 89 91
3 91 90 21
3 89 90 91
3 5 92 94
3 92 93 94
3 5 95 96
3 98 97 23
3 6 46 44
3 8 47 26
3 8 48 47
3 9 99 100
3 9 101 103
3 101 49 102
3 101 102 103
3 10 52 50
3 12 53 29
3 12 104 106
3 106 105 53
3 104 105 106
3 107 54 108
3 13 55 31
3 13 56 55
3 14 109 111
3 109 57 110
3 109 110 111
3 14 58 57
3 14 59 58
3 15 60 33
3 15 61 60
3 112 62 113
3 114 113 43
3 112 113 114
3 16 115 117
3 115 63 116
3 115 116 117
3 16 64 63
3 16 118 120
3 120 119 64
3 118 119 120
3 7 65 45
3 17 66 37
3 17 67 66
3 17 68 67
3 18 69 39
3 18 70 69
3 11 71 51
3 19 72 42
3 19 73 72
3 121 74 122
3 123 75 124
3 125 124 74
3 123 124 125
3 126 76 127
3 128 127 75
3 126 127 128
3 129 77 130
3 131 78 132
3 133 132 77
3 131 132 133
3 135 134 78
3 20 136 138
3 136 21 137
3 136 137 138
3 22 21 20
3 22 5 21
3 22 23 5
3 24 23 22
3 24 139 141
3 141 140 23
3 139 140 141
3 25 26 6
3 27 26 25
3 27 8 26
3 142 9 143
3 28 29 10
3 30 29 28
3 30 12 29
3 144 31 145
3 146 31 147
3 148 13 149
3 150 149 31
3 148 149 150
3 32 151 152
3 32 153 155
3 153 14 154
3 153 154 155
3 32 33 14
3 34 33 32
3 34 15 33
3 156 16 157
3 160 159 16
3 158 159 160
3 35 161 162
3 35 163 164
3 36 37 7
3 38 37 36
3 38 17 37
3 38 39 17
3 40 39 38
3 40 18 39
3 41 42 11
3 165 42 166
3 167 166 41
3 165 166 167
3 168 19 169
3 170 169 42
3 168 169 170
3 173 172 2
3 171 172 173
3 174 43 175
3 176 43 177
3 176 177 178
3 180 179 43
3 21 181 182
3 184 183 21
3 23 185 187
3 187 186 5
3 185 186 187
3 190 189 23
3 188 189 190
3 44 45 3
3 46 45 44
3 46 7 45
3 26 46 6
3 47 46 26
3 47 7 46
3 47 36 7
3 48 36 47
3 48 4 36
3 191 20 192
3 49 193 195
3 193 20 194
3 193 194 195
3 49 1 20
3 50 51 0
3 52 51 50
3 52 11 51
3 29 52 10
3 53 52 29
3 53 11 52
3 53 41 11
3 196 41 197
3 198 197 53
3 196 197 198
3 200 199 41
3 201 30 202
3 203 202 2
3 201 202 203
3 204 30 205
3 206 12 207
3 208 207 30
3 206 207 208
3 209 12 210
3 212 211 12
3 213 3 214
3 215 3 216
3 217 44 218
3 219 218 3
3 217 218 219
3 54 220 222
3 220 44 221
3 220 221 222
3 54 6 44
3 31 223 225
3 223 54 224
3 223 224 225
3 55 54 31
3 55 6 54
3 55 25 6
3 56 25 55
3 56 0 25
3 226 13 227
3 57 228 229
3 57 230 232
3 230 13 231
3 230 231 232
3 57 56 13
3 58 56 57
3 58 0 56
3 58 50 0
3 59 50 58
3 59 10 50
3 33 59 14
3 60 59 33
3 60 10 59
3 60 28 10
3 61 28 60
3 61 2 28
3 43 233 235
3 233 34 234
3 233 234 235
3 62 34 43
3 62 15 34
3 236 62 237
3 63 238 240
3 238 62 239
3 238 239 240
3 63 15 62
3 63 61 15
3 64 61 63
3 64 2 61
3 64 241 243
3 243 242 2
3 241 242 243
3 245 244 64
3 247 246 16
3 45 35 3
3 65 35 45
3 65 248 250
3 250 249 35
3 248 249 250
3 37 65 7
3 66 65 37
3 66 251 253
3 253 252 65
3 251 252 253
3 66 254 255
3 67 256 258
3 258 257 66
3 256 257 258
3 67 259 260
3 67 261 262
3 68 263 265
3 265 264 67
3 263 264 265
3 68 266 268
3 266 9 267
3 266 267 268
3 39 68 17
3 69 68 39
3 69 9 68
3 69 49 9
3 70 49 69
3 70 1 49
3 51 27 0
3 71 27 51
3 71 8 27
3 42 71 11
3 72 71 42
3 72 8 71
3 72 48 8
3 73 48 72
3 73 4 48
3 269 19 270
3 74 271 272
3 74 273 275
3 273 19 274
3 273 274 275
3 74 73 19
3 75 73 74
3 75 4 73
3 75 40 4
3 76 40 75
3 76 18 40
3 276 76 277
3 77 278 280
3 278 76 279
3 278 279 280
3 77 18 76
3 77 70 18
3 78 70 77
3 78 1 70
3 78 24 1
3 281 24 282
3 283 282 78
3 281 282 283
3 285 284 24
