ply
format ascii 1.0
element vertex 153
property float x
property float y
property float z
element face 125
property list uchar int vertex_index
end_header
65.052704 -54.293442 -28.189619
63.12397 -61.810841 -24.985243
64.816742 -35.748047 -37.003578
64.789909 -61.978943 -21.417982
67.000923 -54.854828 -24.833937
66.365471 -46.151718 -31.010485
63.98642 -44.625038 -33.868416
64.168228 -58.130463 -26.639151
65.158241 -58.346684 -25.001184
66.100693 -54.620705 -26.595404
67.813217 -51.090981 -26.343775
66.865967 -50.742538 -28.06418
67.462082 -46.716431 -29.424639
65.782677 -50.296879 -29.638582
62.05571 -61.564983 -26.481108
63.036331 -57.77187 -28.082567
63.883568 -53.818871 -29.608541
63.648621 -34.723534 -38.569984
66.67186 -58.609974 -21.231489
64.035088 -61.926979 -23.287924
65.993378 -58.481934 -23.187197
66.805634 -41.883316 -32.347275
64.60173 -49.708981 -31.067732
65.193459 -45.460167 -32.487915
65.65451 -41.10405 -33.909019
64.481468 -40.208782 -35.40464
61.450241 -61.353879 -27.124168
60.925972 -63.235506 -26.324585
61.940551 -59.457323 -27.924898
62.54602 -59.668426 -27.281838
61.450241 -61.353879 -27.124168
62.412414 -57.501429 -28.708078
61.940551 -59.457323 -27.924898
64.882263 -33.516556 -37.843494
65.46172 -33.993389 -36.95776
64.232681 -35.235791 -37.786781
64.298203 -33.0043 -38.626697
64.882263 -33.516556 -37.843494
65.094341 -62.009863 -20.417484
64.094322 -63.666931 -20.487665
65.730885 -60.294459 -21.324735
66.035316 -60.325378 -20.324238
65.094341 -62.009863 -20.417484
63.579529 -61.86891 -24.136584
62.977704 -63.637726 -23.267411
62.522144 -63.579657 -24.11607
67.369182 -54.960064 -23.881861
66.86541 -56.773617 -23.058491
66.497151 -56.668381 -24.010567
67.797268 -53.129385 -24.662575
67.369182 -54.960064 -23.881861
68.528931 -49.357586 -26.129052
68.124843 -49.140482 -27.034132
67.131695 -44.355759 -30.862848
67.680001 -44.638115 -30.069926
66.913776 -46.434075 -30.217562
66.585553 -44.017517 -31.67888
67.351776 -42.221558 -31.531244
67.131695 -44.355759 -30.862848
63.614908 -51.437197 -30.964996
64.242649 -51.763926 -30.338136
63.255827 -53.492142 -30.235401
64.589939 -45.042603 -33.178166
64.27818 -47.207852 -32.426548
63.67466 -46.790287 -33.116799
65.392819 -36.214969 -36.188182
65.46172 -33.993389 -36.95776
63.762636 -63.676972 -21.449844
64.094322 -63.666931 -20.487665
67.651218 -48.966261 -27.894334
68.124843 -49.140482 -27.034132
67.339592 -50.916759 -27.203978
67.164024 -48.729484 -28.744409
67.949276 -46.953207 -28.574564
67.651218 -48.966261 -27.894334
63.042611 -46.329666 -33.709786
63.67466 -46.790287 -33.116799
63.377961 -44.135821 -34.515263
63.042611 -46.329666 -33.709786
62.032018 -63.509935 -24.900371
62.522144 -63.579657 -24.11607
61.497889 -63.387006 -25.648304
60.925972 -63.235506 -26.324585
62.58984 -61.687912 -25.733176
62.032018 -63.509935 -24.900371
61.497889 -63.387006 -25.648304
62.836033 -55.524929 -29.471066
63.459949 -55.795371 -28.845554
62.412414 -57.501429 -28.708078
63.255827 -53.492142 -30.235401
62.836033 -55.524929 -29.471066
63.70102 -32.493926 -39.478122
64.298203 -33.0043 -38.626697
63.047491 -34.167383 -39.303051
63.70102 -32.493926 -39.478122
66.934299 -58.706621 -20.203629
66.035316 -60.325378 -20.324238
67.487229 -56.967381 -21.074833
66.934299 -58.706621 -20.203629
63.385226 -63.65099 -22.384816
62.977704 -63.637726 -23.267411
64.412498 -61.952961 -22.352953
63.762636 -63.676972 -21.449844
63.385226 -63.65099 -22.384816
67.204651 -56.837637 -22.080637
66.332619 -58.545954 -22.209343
66.86541 -56.773617 -23.058491
67.487229 -56.967381 -21.074833
67.204651 -56.837637 -22.080637
68.203415 -51.247462 -25.417494
67.797268 -53.129385 -24.662575
67.40707 -52.972904 -25.588856
68.203415 -51.247462 -25.417494
68.528931 -49.357586 -26.129052
68.171265 -44.938935 -29.215635
67.949276 -46.953207 -28.574564
68.171265 -44.938935 -29.215635
67.680001 -44.638115 -30.069926
67.492069 -40.093266 -32.167318
67.351776 -42.221558 -31.531244
66.952686 -39.70628 -33.022824
67.492069 -40.093266 -32.167318
63.982315 -49.332259 -31.716456
63.614908 -51.437197 -30.964996
64.897594 -47.584574 -31.777824
63.982315 -49.332259 -31.716456
64.27818 -47.207852 -32.426548
66.377125 -39.316647 -33.803696
66.952686 -39.70628 -33.022824
66.230072 -41.493683 -33.128147
65.811702 -38.892971 -34.640903
66.377125 -39.316647 -33.803696
65.225182 -38.445337 -35.388714
65.811702 -38.892971 -34.640903
65.067989 -40.656416 -34.65683
64.649105 -37.978414 -36.204109
65.392819 -36.214969 -36.188182
65.225182 -38.445337 -35.388714
63.625484 -41.927692 -35.283375
64.233944 -42.41691 -34.636528
63.377961 -44.135821 -34.515263
63.891621 -39.702849 -36.117233
63.625484 -41.927692 -35.283375
64.059258 -37.472481 -36.916702
64.649105 -37.978414 -36.204109
63.891621 -39.702849 -36.117233
63.475197 -36.960224 -37.699905
64.232681 -35.235791 -37.786781
64.059258 -37.472481 -36.916702
62.878017 -36.400074 -38.368698
63.475197 -36.960224 -37.699905
63.047491 -34.167383 -39.303051
62.878017 -36.400074 -38.368698
3 0 9 7
3 0 11 9
3 0 13 11
3 26 14 27
3 28 15 29
3 30 29 14
3 28 29 30
3 32 31 15
3 2 33 34
3 2 35 37
3 35 17 36
3 35 36 37
3 3 38 39
3 3 40 42
3 40 18 41
3 40 41 42
3 1 43 45
3 43 19 44
3 43 44 45
3 4 20 8
3 4 46 48
3 48 47 20
3 46 47 48
3 4 49 50
3 52 51 10
3 5 53 55
3 55 54 12
3 53 54 55
3 5 56 58
3 56 21 57
3 56 57 58
3 59 22 60
3 61 60 16
3 59 60 61
3 6 62 64
3 62 23 63
3 62 63 64
3 6 24 23
3 6 25 24
3 65 2 66
3 67 3 68
3 7 8 1
3 9 8 7
3 9 4 8
3 9 10 4
3 11 10 9
3 11 69 71
3 71 70 10
3 69 70 71
3 11 72 74
3 72 12 73
3 72 73 74
3 13 12 11
3 13 5 12
3 75 6 76
3 78 77 6
3 79 1 80
3 14 81 82
3 14 83 85
3 83 1 84
3 83 84 85
3 14 7 1
3 15 7 14
3 15 0 7
3 15 16 0
3 86 16 87
3 88 87 15
3 86 87 88
3 90 89 16
3 17 91 92
3 17 93 94
3 18 95 96
3 18 97 98
3 19 99 100
3 19 101 103
3 101 3 102
3 101 102 103
3 8 19 1
3 20 19 8
3 20 3 19
3 20 18 3
3 104 18 105
3 106 105 20
3 104 105 106
3 108 107 18
3 10 109 111
3 111 110 4
3 109 110 111
3 113 112 10
3 12 114 115
3 117 116 12
3 21 118 119
3 21 120 121
3 16 13 0
3 22 13 16
3 22 5 13
3 122 22 123
3 23 124 126
3 124 22 125
3 124 125 126
3 23 5 22
3 23 21 5
3 24 21 23
3 24 127 129
3 129 128 21
3 127 128 129
3 24 130 131
3 25 132 134
3 134 133 24
3 132 133 134
3 25 135 137
3 135 2 136
3 135 136 137
3 138 25 139
3 140 139 6
3 138 139 140
3 141 25 142
3 143 2 144
3 145 144 25
3 143 144 145
3 146 17 147
3 148 147 2
3 146 147 148
3 149 17 150
3 152 151 17
