ply
format ascii 1.0
element vertex 113
property float x
property float y
property float z
element face 100
property list uchar int vertex_index
end_header
60.567055 -68.763847 -21.456987
56.074715 -75.514832 -21.386412
58.644745 -68.538559 -24.554976
58.400429 -74.825325 -13.80065
57.522411 -75.311523 -17.863333
61.841198 -68.618355 -17.644152
56.278458 -71.827309 -24.284231
56.335648 -78.128052 -14.041643
58.333023 -72.138443 -21.402662
56.885788 -75.473045 -19.715509
59.087608 -72.078911 -19.652208
59.685066 -71.937973 -17.740858
61.274803 -68.706985 -19.619856
63.398735 -65.354919 -19.557348
62.735363 -65.375 -21.481707
53.821976 -78.920151 -21.463472
55.071068 -75.40274 -22.84355
57.39827 -72.066002 -22.953463
59.694149 -68.72496 -23.111994
61.920319 -65.348473 -23.246897
54.704643 -78.904495 -19.866259
55.397224 -78.743454 -18.066866
55.928833 -78.470024 -16.108477
58.01638 -75.077957 -15.87554
60.155888 -71.774895 -15.715754
55.355471 -79.838371 -14.216213
55.526846 -79.602692 -13.142045
54.475014 -75.26075 -23.459955
53.904964 -77.087242 -22.838159
59.792406 -66.873795 -24.685238
60.317108 -66.966995 -23.963747
59.169447 -68.63176 -23.833485
58.548298 -74.712506 -12.74098
57.524079 -76.294376 -12.857491
59.462845 -73.235348 -13.711624
58.548298 -74.712506 -12.74098
62.065928 -68.59026 -16.610475
61.223273 -70.16853 -15.646276
60.998543 -70.196625 -16.679953
62.885489 -66.988602 -17.581856
62.065928 -68.59026 -16.610475
64.398754 -63.697851 -19.487167
64.094322 -63.666931 -20.487665
62.977704 -63.637726 -23.267411
62.522144 -63.579657 -24.11607
55.634985 -71.616803 -24.84189
55.078709 -73.473034 -24.180296
56.852929 -69.999661 -25.031326
55.634985 -71.616803 -24.84189
58.036072 -68.355286 -25.166699
57.461602 -70.182934 -24.419604
56.852929 -69.999661 -25.031326
59.220489 -66.722294 -25.361519
58.036072 -68.355286 -25.166699
56.491688 -77.94574 -12.977987
55.526846 -79.602692 -13.142045
57.368038 -76.476688 -13.921146
57.524079 -76.294376 -12.857491
56.491688 -77.94574 -12.977987
63.762636 -63.676972 -21.449844
64.094322 -63.666931 -20.487665
63.067049 -65.364959 -20.519528
53.280418 -78.845947 -22.14812
52.702293 -80.648735 -21.560442
52.160736 -80.574532 -22.24509
54.446522 -77.161445 -22.153511
53.280418 -78.845947 -22.14812
53.904964 -77.087242 -22.838159
55.674763 -73.615025 -23.56389
54.475014 -75.26075 -23.459955
55.078709 -73.473034 -24.180296
61.430193 -65.278751 -24.031199
60.807234 -67.036716 -23.179445
60.317108 -66.966995 -23.963747
62.522144 -63.579657 -24.11607
61.430193 -65.278751 -24.031199
59.792406 -66.873795 -24.685238
59.220489 -66.722294 -25.361519
53.189913 -80.65456 -20.800438
52.702293 -80.648735 -21.560442
53.631247 -80.646732 -20.001831
53.189913 -80.65456 -20.800438
54.263309 -78.912323 -20.664865
54.017713 -80.572281 -19.128603
53.631247 -80.646732 -20.001831
54.364004 -80.49176 -18.228907
54.017713 -80.572281 -19.128603
55.050933 -78.823974 -18.966563
54.660927 -80.346466 -17.262467
54.364004 -80.49176 -18.228907
54.926731 -80.209751 -16.283272
54.660927 -80.346466 -17.262467
55.663028 -78.606739 -17.087671
55.152063 -80.009357 -15.24963
54.926731 -80.209751 -16.283272
56.13224 -78.299038 -15.07506
55.355471 -79.838371 -14.216213
55.152063 -80.009357 -15.24963
60.340575 -71.710133 -14.669176
59.462845 -73.235348 -13.711624
59.278159 -73.30011 -14.758202
60.340575 -71.710133 -14.669176
61.223273 -70.16853 -15.646276
63.664257 -65.356884 -18.538454
62.885489 -66.988602 -17.581856
62.619967 -66.986637 -18.60075
63.664257 -65.356884 -18.538454
64.398754 -63.697851 -19.487167
63.385226 -63.65099 -22.384816
62.327841 -65.361737 -22.364302
62.977704 -63.637726 -23.267411
63.762636 -63.676972 -21.449844
63.385226 -63.65099 -22.384816
3 25 7 26
3 0 10 8
3 0 12 10
3 0 14 12
3 27 16 28
3 2 17 6
3 2 18 17
3 2 29 31
3 31 30 18
3 29 30 31
3 3 32 33
3 3 34 35
3 1 20 15
3 4 21 9
3 4 22 21
3 4 23 22
3 5 24 11
3 5 36 38
3 38 37 24
3 36 37 38
3 5 39 40
3 42 41 13
3 44 43 19
3 45 6 46
3 47 6 48
3 49 2 50
3 51 50 6
3 49 50 51
3 53 52 2
3 7 54 55
3 7 56 58
3 56 3 57
3 56 57 58
3 8 9 1
3 10 9 8
3 10 4 9
3 10 11 4
3 12 11 10
3 12 5 11
3 12 13 5
3 14 13 12
3 14 59 61
3 61 60 13
3 59 60 61
3 62 15 63
3 62 63 64
3 16 65 67
3 65 15 66
3 65 66 67
3 16 1 15
3 6 68 70
3 68 16 69
3 68 69 70
3 17 16 6
3 17 1 16
3 17 8 1
3 18 8 17
3 18 0 8
3 18 19 0
3 71 19 72
3 73 72 18
3 71 72 73
3 75 74 19
3 77 76 2
3 15 78 79
3 20 80 82
3 82 81 15
3 80 81 82
3 20 83 84
3 9 20 1
3 21 20 9
3 21 85 87
3 87 86 20
3 85 86 87
3 21 88 89
3 22 90 92
3 92 91 21
3 90 91 92
3 22 93 94
3 22 95 97
3 95 7 96
3 95 96 97
3 23 7 22
3 23 3 7
3 11 23 4
3 24 23 11
3 24 3 23
3 24 98 100
3 100 99 3
3 98 99 100
3 102 101 24
3 13 103 105
3 105 104 5
3 103 104 105
3 107 106 13
3 19 14 0
3 108 14 109
3 110 109 19
3 108 109 110
3 112 111 14
