ply
format ascii 1.0
element vertex 342
property float x
property float y
property float z
element face 354
property list uchar int vertex_index
end_header
-0.572479 -67.975571 36.834274
-0.578346 -69.528137 46.014252
-1.030396 -79.537888 37.905888
-2.012274 -59.482075 53.710415
-1.474325 -56.770485 45.156799
0.844347 -65.863525 28.624966
-0.379501 -80.261703 42.860802
-0.883165 -64.967422 54.956005
-0.782005 -68.847092 41.275337
-1.330219 -63.333359 45.421791
-1.010855 -62.306473 41.082718
-0.470379 -55.426956 41.251221
-0.141935 -61.278954 37.007317
0.062551 -66.961578 32.666206
-0.220692 -69.993576 51.008854
0.097118 -75.282196 46.924355
-0.326096 -74.833389 41.916553
-0.669146 -74.095467 37.161804
-0.736547 -73.071297 32.690662
-2.919086 -53.68861 52.472118
-1.185314 -64.250427 50.043114
-1.951212 -58.189365 49.272476
-2.086756 -51.842548 48.631145
-0.803057 -50.015263 45.044632
1.413921 -64.748886 24.515202
-0.537571 -71.826195 28.428816
-0.298803 -70.483574 24.216745
-0.324896 -69.175667 19.945744
-0.766594 -65.242126 57.518929
-0.737398 -68.432426 39.016525
-0.97164 -65.6362 41.122154
-0.765709 -65.167908 38.957695
-0.635967 -61.787304 39.014999
-0.428419 -64.682266 36.864799
0.011786 -64.186279 34.832977
-0.296015 -67.482994 34.722488
0.260818 -75.410263 49.500378
0.194643 -78.013138 47.450207
-0.691685 -79.942223 40.35672
-0.25495 -77.608246 42.365662
-0.524048 -77.292511 39.899681
-0.523201 -74.501709 39.503815
-0.783398 -76.89502 37.496597
-1.00536 -76.415436 35.161316
-1.966303 -60.031853 56.081207
-2.593954 -57.326988 55.333134
-2.519291 -56.627892 53.091965
-0.399 -69.787865 48.482765
-0.68981 -67.159653 50.502331
-0.861824 -66.847504 48.054539
-1.506714 -60.087708 45.255581
-1.624712 -60.687084 47.409222
-1.777813 -57.483231 47.181866
-2.108521 -55.046669 48.943626
-1.730797 -54.218178 46.99474
-1.493866 -50.908955 46.822727
-1.228197 -53.406227 45.097424
1.007267 -63.183342 30.870594
1.458838 -62.684608 28.887499
1.17354 -65.304276 26.588335
-1.271692 -75.233276 30.682312
-0.660135 -72.469696 30.542765
-1.316309 -74.555984 28.514904
-0.261454 -69.818985 22.089348
-1.337473 -62.663498 56.810444
-1.446901 -62.257851 54.33115
-0.71904 -69.213806 43.609634
-0.993189 -66.485092 45.673096
-1.04142 -66.078438 43.361183
-1.242037 -62.826347 43.217468
-1.248846 -59.482521 43.166939
-1.033518 -56.077511 43.183594
-0.845577 -58.891407 41.137268
-0.316149 -58.330116 39.159927
0.508387 -63.685219 32.843334
0.459118 -66.418922 30.642609
0.148615 -72.763855 51.551044
0.000744 -72.638428 48.970886
-0.184019 -72.45842 46.437401
-0.006302 -77.846291 44.885933
-0.108313 -75.092072 44.393127
-0.373875 -72.218521 43.959167
-0.532307 -71.915634 41.54467
-0.624739 -71.549187 39.2015
-0.626295 -71.121185 36.934101
-0.528158 -70.636154 34.740776
-0.742622 -73.616653 34.892513
-1.170475 -75.858215 32.892708
-0.518402 -67.419258 53.013359
-1.033453 -64.636978 52.462852
-1.555933 -61.787796 51.940002
-1.298637 -63.812584 47.696606
-1.628611 -61.259861 49.634811
-2.018482 -58.862911 51.443947
-2.36554 -55.859829 50.96817
-2.563032 -52.781006 50.502853
-1.900627 -48.586517 48.317883
-0.615067 -52.640282 43.231274
1.547176 -64.201645 22.399069
-0.340473 -70.101189 32.611435
-0.090834 -69.525894 30.527546
0.181128 -68.922318 28.464989
-0.403816 -71.158081 26.326473
0.431393 -68.304047 26.399267
0.61915 -67.68454 24.311506
0.712271 -67.074402 22.193157
0.689442 -66.478989 20.047775
-0.513571 -68.558075 17.798691
0.131391 -79.340256 47.718789
0.261053 -78.064751 48.748876
-1.198832 -79.2924 36.710707
-1.075333 -77.970967 36.506062
-0.906897 -78.216454 37.701242
-1.731841 -75.835587 28.607368
-1.294001 -74.89463 29.598608
-1.709532 -76.174233 29.691073
0.077717 -59.543604 37.116276
-0.00939 -58.069185 38.192581
-0.229042 -59.804535 38.083622
0.141774 -61.033136 36.026623
0.077717 -59.543604 37.116276
0.254803 -74.123848 51.830963
0.192375 -72.802696 52.859725
-0.192901 -79.053997 43.873368
-0.062988 -79.173778 45.14702
-0.249587 -80.381484 44.134455
-1.423391 -77.165283 33.040394
-1.087918 -76.136826 34.027012
-1.340833 -77.443894 34.174698
-1.554647 -76.84074 31.906173
-1.423391 -77.165283 33.040394
-3.271823 -52.664911 53.130079
-3.040831 -54.11107 53.519856
-3.049867 -52.17518 52.160263
-3.271823 -52.664911 53.130079
-0.369547 -68.706417 52.011106
-0.297747 -68.784012 53.299602
-0.148892 -70.071171 52.29735
-2.344041 -50.736755 49.334829
-2.582179 -51.205984 50.270683
-2.324894 -52.311777 49.566999
-1.993691 -50.214533 48.474514
-2.250977 -49.108739 49.178198
-2.344041 -50.736755 49.334829
-0.954554 -48.791251 45.842979
-1.299958 -49.238096 46.732027
-1.148462 -50.462109 45.933679
-0.530767 -48.311839 45.006466
-0.954554 -48.791251 45.842979
1.755743 -63.228584 24.659409
1.620882 -63.470663 25.692774
1.480549 -64.475266 23.457135
1.82237 -62.954963 23.601343
1.755743 -63.228584 24.659409
-0.351309 -70.820828 25.271609
-0.867192 -72.141953 25.28048
-0.814685 -71.804699 24.225617
-0.535347 -66.51646 57.86067
-0.736823 -65.35379 58.83034
-0.574092 -66.435066 56.550925
-0.535347 -66.51646 57.86067
-0.632378 -66.297714 55.269463
-0.824879 -65.104774 56.237467
-0.574092 -66.435066 56.550925
0.294141 -76.763314 49.773962
0.310905 -75.447052 50.80563
0.227731 -76.711701 48.475292
0.294141 -76.763314 49.773962
0.261053 -78.064751 48.748876
-1.186314 -77.731175 35.338421
-0.894379 -76.655228 36.328957
-1.075333 -77.970967 36.506062
-1.340833 -77.443894 34.174698
-1.186314 -77.731175 35.338421
-2.290591 -58.986681 56.890693
-1.938273 -60.268439 57.319445
-2.604417 -57.634248 56.516657
-2.290591 -58.986681 56.890693
-2.280129 -58.67942 55.707171
-2.950978 -56.309213 56.069803
-2.604417 -57.634248 56.516657
-2.878265 -55.93026 54.950364
-2.950978 -56.309213 56.069803
-2.840933 -55.580712 53.829779
-2.878265 -55.93026 54.950364
-2.556623 -56.97744 54.21255
-2.719189 -55.158251 52.782042
-3.040831 -54.11107 53.519856
-2.840933 -55.580712 53.829779
-0.197921 -53.685133 41.316448
-0.146276 -55.13076 40.300781
1.2821 -61.522179 31.022703
1.008488 -61.748998 31.990385
1.507886 -61.272812 30.031155
1.2821 -61.522179 31.022703
1.233052 -62.933975 29.879047
1.743665 -61.054941 29.050845
1.507886 -61.272812 30.031155
1.643341 -62.438524 27.878923
1.743665 -61.054941 29.050845
1.500692 -63.748358 26.72934
1.643341 -62.438524 27.878923
1.316189 -63.994442 27.737917
1.293731 -65.026581 25.551769
1.620882 -63.470663 25.692774
1.500692 -63.748358 26.72934
-0.83441 -71.449795 23.15465
-0.814685 -71.804699 24.225617
-0.815736 -71.117501 22.090952
-0.280129 -70.15128 23.153047
-0.83441 -71.449795 23.15465
-0.871975 -70.77613 21.017248
-0.815736 -71.117501 22.090952
-0.903696 -70.454472 19.945446
-0.293175 -69.497326 21.017546
-0.871975 -70.77613 21.017248
-1.013624 -70.131332 18.874457
-0.903696 -70.454472 19.945446
-0.550554 -81.542423 43.11596
-0.249587 -80.381484 44.134455
-0.71538 -81.373126 41.851181
-0.550554 -81.542423 43.11596
-0.871471 -81.213386 40.59914
-0.535593 -80.101963 41.608761
-0.71538 -81.373126 41.851181
-1.063183 -81.000881 39.355312
-0.871471 -81.213386 40.59914
-1.232538 -80.798714 38.129897
-0.861041 -79.740055 39.131304
-1.063183 -81.000881 39.355312
-1.438642 -80.542077 36.911732
-1.232538 -80.798714 38.129897
-1.011282 -64.123287 58.446095
-0.736823 -65.35379 58.83034
-1.296721 -62.833973 58.091852
-1.011282 -64.123287 58.446095
-1.052033 -63.952812 57.164687
-1.623858 -61.584261 57.684063
-1.296721 -62.833973 58.091852
-1.651888 -61.347675 56.445825
-1.938273 -60.268439 57.319445
-1.623858 -61.584261 57.684063
-0.069162 -56.58234 39.255134
-0.146276 -55.13076 40.300781
-0.393264 -56.878536 40.205574
-0.069162 -56.58234 39.255134
-0.00939 -58.069185 38.192581
0.218635 -62.486799 34.939453
0.141774 -61.033136 36.026623
-0.065075 -62.732616 35.920147
0.466936 -62.236269 33.944631
0.218635 -62.486799 34.939453
0.260086 -63.935749 33.838155
0.759049 -61.999937 32.976755
0.466936 -62.236269 33.944631
0.757827 -63.43428 31.856964
1.008488 -61.748998 31.990385
0.759049 -61.999937 32.976755
0.035762 -71.456311 52.568445
0.192375 -72.802696 52.859725
-0.036039 -71.378715 51.279949
-0.148892 -70.071171 52.29735
0.035762 -71.456311 52.568445
0.204716 -74.087059 50.525711
0.254803 -74.123848 51.830963
0.310905 -75.447052 50.80563
0.037485 -79.257202 46.429158
0.131391 -79.340256 47.718789
0.094171 -77.929714 46.16807
0.037485 -79.257202 46.429158
-0.062988 -79.173778 45.14702
-1.605256 -76.528271 30.800975
-1.221083 -75.545746 31.78751
-1.554647 -76.84074 31.906173
-1.709532 -76.174233 29.691073
-1.605256 -76.528271 30.800975
-1.198832 -79.2924 36.710707
-1.438642 -80.542077 36.911732
-0.449996 -67.523632 54.29814
-0.297747 -68.784012 53.299602
-0.700784 -66.19334 53.984682
-0.632378 -66.297714 55.269463
-0.449996 -67.523632 54.29814
-2.87184 -51.721379 51.17563
-3.049867 -52.17518 52.160263
-2.741059 -53.234808 51.487486
-2.87184 -51.721379 51.17563
-2.582179 -51.205984 50.270683
-2.19588 -47.499832 48.944016
-2.250977 -49.108739 49.178198
-1.74213 -46.934799 48.154856
-2.19588 -47.499832 48.944016
-1.503338 -48.076878 47.479605
-1.697246 -49.747736 47.570305
-1.299958 -49.238096 46.732027
-1.344842 -46.42516 47.316578
-1.74213 -46.934799 48.154856
-1.503338 -48.076878 47.479605
-0.270265 -52.291796 42.306475
-0.542723 -54.033619 42.241248
-0.197921 -53.685133 41.316448
-0.332159 -50.915802 43.251204
-0.270265 -52.291796 42.306475
-0.426154 -49.603292 44.157882
-0.709062 -51.327772 44.137953
-0.332159 -50.915802 43.251204
-0.530767 -48.311839 45.006466
-0.426154 -49.603292 44.157882
1.907167 -62.715576 22.54073
2.182362 -61.468894 23.743003
1.82237 -62.954963 23.601343
1.557064 -63.931443 21.322034
1.907167 -62.715576 22.54073
-1.812157 -75.462688 27.514359
-1.731841 -75.835587 28.607368
-1.320821 -74.201072 27.443225
-1.812157 -75.462688 27.514359
-0.931452 -72.836178 27.400181
-0.92694 -73.19109 28.47186
-1.320821 -74.201072 27.443225
-0.864575 -72.502121 26.34901
-0.867192 -72.141953 25.28048
-0.470693 -71.492138 27.377645
-0.931452 -72.836178 27.400181
-0.864575 -72.502121 26.34901
1.128197 -65.070115 20.146387
1.557064 -63.931443 21.322034
1.118309 -65.340317 21.223422
0.61422 -66.187996 18.968558
1.128197 -65.070115 20.146387
0.012713 -67.227539 17.844016
0.61422 -66.187996 18.968558
0.087935 -67.518532 18.923233
-0.67791 -68.260994 16.733519
0.012713 -67.227539 17.844016
-1.107962 -69.822536 17.80093
-0.419234 -68.866871 18.872218
-1.013624 -70.131332 18.874457
-1.28433 -69.518577 16.742491
-1.107962 -69.822536 17.80093
-0.67791 -68.260994 16.733519
-1.28433 -69.518577 16.742491
3 0 31 29
3 0 33 31
3 0 35 33
3 108 37 109
3 2 40 38
3 2 42 40
3 2 110 112
3 112 111 42
3 110 111 112
3 3 45 44
3 3 46 45
3 1 49 47
3 4 52 50
3 4 54 52
3 4 56 54
3 5 58 57
3 5 59 58
3 113 62 114
3 115 114 60
3 113 114 115
3 7 64 28
3 7 65 64
3 8 68 66
3 10 69 30
3 10 70 69
3 10 72 70
3 12 73 32
3 12 116 118
3 118 117 73
3 116 117 118
3 12 119 120
3 13 74 34
3 13 75 74
3 121 76 122
3 15 77 36
3 15 78 77
3 6 123 125
3 123 79 124
3 123 124 125
3 16 80 39
3 16 81 80
3 16 82 81
3 17 83 41
3 17 84 83
3 17 86 84
3 126 87 127
3 128 127 43
3 126 127 128
3 130 129 87
3 19 131 132
3 19 133 134
3 14 135 137
3 135 88 136
3 135 136 137
3 20 89 48
3 20 90 89
3 9 91 67
3 21 92 51
3 21 93 92
3 21 94 93
3 22 95 53
3 22 138 140
3 140 139 95
3 138 139 140
3 22 141 143
3 141 96 142
3 141 142 143
3 23 144 146
3 146 145 55
3 144 145 146
3 23 147 148
3 11 97 71
3 24 149 150
3 24 151 153
3 151 98 152
3 151 152 153
3 18 99 85
3 25 100 61
3 25 101 100
3 26 154 156
3 154 102 155
3 154 155 156
3 26 103 102
3 26 104 103
3 27 105 63
3 27 106 105
3 27 107 106
3 157 28 158
3 159 28 160
3 161 7 162
3 163 162 28
3 161 162 163
3 29 30 8
3 31 30 29
3 31 10 30
3 31 32 10
3 33 32 31
3 33 12 32
3 33 34 12
3 35 34 33
3 35 13 34
3 164 36 165
3 37 166 168
3 166 36 167
3 166 167 168
3 37 15 36
3 38 39 6
3 40 39 38
3 40 16 39
3 40 41 16
3 42 41 40
3 42 17 41
3 42 43 17
3 169 43 170
3 171 170 42
3 169 170 171
3 173 172 43
3 44 174 175
3 45 176 178
3 178 177 44
3 176 177 178
3 45 179 180
3 45 181 182
3 46 183 185
3 185 184 45
3 183 184 185
3 46 186 188
3 186 19 187
3 186 187 188
3 47 48 14
3 49 48 47
3 49 20 48
3 50 51 9
3 52 51 50
3 52 21 51
3 52 53 21
3 54 53 52
3 54 22 53
3 54 55 22
3 56 55 54
3 56 23 55
3 190 189 11
3 57 191 192
3 58 193 195
3 195 194 57
3 193 194 195
3 58 196 197
3 58 198 199
3 59 200 202
3 202 201 58
3 200 201 202
3 59 203 205
3 203 24 204
3 203 204 205
3 60 61 18
3 62 61 60
3 62 25 61
3 206 26 207
3 208 63 209
3 210 209 26
3 208 209 210
3 211 63 212
3 213 27 214
3 215 214 63
3 213 214 215
3 217 216 27
3 218 6 219
3 220 6 221
3 222 38 223
3 224 223 6
3 222 223 224
3 225 38 226
3 227 2 228
3 229 228 38
3 227 228 229
3 231 230 2
3 28 232 233
3 64 234 236
3 236 235 28
3 234 235 236
3 64 237 238
3 64 239 241
3 239 44 240
3 239 240 241
3 65 44 64
3 65 3 44
3 66 67 1
3 68 67 66
3 68 9 67
3 30 68 8
3 69 68 30
3 69 9 68
3 69 50 9
3 70 50 69
3 70 4 50
3 70 71 4
3 72 71 70
3 72 11 71
3 32 72 10
3 73 72 32
3 73 11 72
3 73 242 244
3 244 243 11
3 242 243 244
3 246 245 73
3 34 247 249
3 249 248 12
3 247 248 249
3 74 250 252
3 252 251 34
3 250 251 252
3 74 253 254
3 74 255 257
3 255 57 256
3 255 256 257
3 75 57 74
3 75 5 57
3 76 258 259
3 76 260 262
3 260 14 261
3 260 261 262
3 36 263 265
3 263 76 264
3 263 264 265
3 77 76 36
3 77 14 76
3 77 47 14
3 78 47 77
3 78 1 47
3 266 37 267
3 79 268 270
3 268 37 269
3 268 269 270
3 79 15 37
3 39 79 6
3 80 79 39
3 80 15 79
3 80 78 15
3 81 78 80
3 81 1 78
3 81 66 1
3 82 66 81
3 82 8 66
3 41 82 16
3 83 82 41
3 83 8 82
3 83 29 8
3 84 29 83
3 84 0 29
3 84 85 0
3 86 85 84
3 86 18 85
3 43 86 17
3 87 86 43
3 87 18 86
3 87 60 18
3 271 60 272
3 273 272 87
3 271 272 273
3 275 274 60
3 277 276 2
3 88 278 279
3 88 280 282
3 280 7 281
3 280 281 282
3 48 88 14
3 89 88 48
3 89 7 88
3 89 65 7
3 90 65 89
3 90 3 65
3 67 49 1
3 91 49 67
3 91 20 49
3 51 91 9
3 92 91 51
3 92 20 91
3 92 90 20
3 93 90 92
3 93 3 90
3 93 46 3
3 94 46 93
3 94 19 46
3 53 94 21
3 95 94 53
3 95 19 94
3 95 283 285
3 285 284 19
3 283 284 285
3 287 286 95
3 96 288 289
3 96 290 291
3 55 96 22
3 292 96 293
3 294 293 55
3 292 293 294
3 297 296 96
3 295 296 297
3 71 56 4
3 97 56 71
3 97 23 56
3 298 97 299
3 300 299 11
3 298 299 300
3 301 97 302
3 303 23 304
3 305 304 97
3 303 304 305
3 307 306 23
3 98 308 310
3 308 309 310
3 98 311 312
3 85 35 0
3 99 35 85
3 99 13 35
3 61 99 18
3 100 99 61
3 100 13 99
3 100 75 13
3 101 75 100
3 101 5 75
3 313 62 314
3 315 62 316
3 317 25 318
3 319 318 62
3 317 318 319
3 102 320 321
3 102 322 324
3 322 25 323
3 322 323 324
3 102 101 25
3 103 101 102
3 103 5 101
3 103 59 5
3 104 59 103
3 104 24 59
3 63 104 26
3 105 104 63
3 105 24 104
3 105 98 24
3 106 98 105
3 106 325 327
3 327 326 98
3 325 326 327
3 106 328 329
3 107 330 332
3 332 331 106
3 330 331 332
3 107 333 334
3 335 107 336
3 337 336 27
3 335 336 337
3 338 107 339
3 341 340 107
