ply
format ascii 1.0
element vertex 276
property float x
property float y
property float z
element face 273
property list uchar int vertex_index
end_header
-59.763653 -60.233524 2.75519
-55.146751 -65.406128 12.439248
-62.703194 -57.422855 9.48945
-55.746391 -70.417358 6.047113
-63.033287 -64.740814 -2.882072
-64.36425 -60.343681 18.044706
-61.655403 -60.658489 14.354416
-65.268852 -57.135265 13.156497
-57.4058 -62.97015 7.425006
-54.636269 -67.641525 9.122419
-57.845207 -65.35498 4.348722
-59.583824 -67.957321 1.521924
-60.956787 -62.531532 -0.140606
-63.492458 -59.046001 -4.493874
-61.785309 -57.082909 -1.631521
-58.879417 -61.374638 10.802597
-60.42762 -58.409515 5.986139
-61.765038 -55.224854 1.504417
-65.649857 -60.727791 -7.315315
-64.825638 -58.826801 15.573444
-66.186523 -57.095181 15.052882
-66.597641 -55.296871 12.67911
-58.601761 -61.647137 5.048193
-57.397583 -64.093231 5.845468
-58.81176 -62.787861 3.521657
-59.447296 -64.021271 2.077032
-60.16626 -61.359676 1.270284
-61.405998 -59.794201 -0.925827
-60.838959 -58.715836 0.534358
-62.187878 -59.084755 11.888387
-60.183712 -60.926041 12.563566
-60.813377 -59.398655 10.100142
-59.659378 -59.92017 8.352586
-61.43029 -57.807846 7.712549
-61.998371 -56.168858 5.408463
-63.171162 -55.701263 7.168692
-55.044937 -69.003448 7.557925
-53.875179 -71.424278 8.41255
-56.576202 -71.797699 4.560619
-61.391144 -66.450104 -0.684446
-60.526272 -69.153564 0.112303
-62.336491 -67.531746 -2.089077
-64.461731 -62.830357 -5.08832
-62.268284 -53.542358 -0.63028
-61.133259 -62.113297 16.871899
-63.105804 -60.494694 16.176878
-63.588177 -58.920475 13.710917
-64.050308 -57.219097 11.304655
-64.467239 -55.430088 8.97067
-65.673721 -55.315266 10.806807
-66.963928 -53.374043 10.37888
-56.234276 -64.21788 9.88992
-54.648994 -66.419495 10.752056
-55.987473 -65.295761 8.253811
-56.217155 -66.552551 6.692543
-56.83033 -67.907745 5.202038
-57.676689 -69.272491 3.758038
-58.629753 -66.670509 2.919054
-60.367126 -65.265366 0.688745
-61.975315 -63.676357 -1.510025
-63.401192 -61.897854 -3.697321
-62.31834 -60.874416 -2.324324
-62.488819 -58.082329 -3.086594
-62.574295 -55.325336 -3.762297
-59.576347 -62.370483 15.088678
-58.13102 -62.766594 13.326048
-56.971657 -63.37125 11.587613
-57.913734 -62.052963 9.083189
-58.889153 -60.674362 6.662245
-59.846519 -59.22937 4.328435
-60.737831 -57.710304 2.07709
-61.141911 -56.845085 3.705462
-62.484386 -54.490456 3.187652
-58.581093 -70.570312 2.321259
-66.596008 -58.44627 -9.567789
-64.610497 -59.932594 -5.89003
-65.591705 -57.788155 -8.099199
-61.522564 -56.108246 -0.104029
-62.171333 -54.413128 -2.2325
-66.438571 -57.0565 16.029012
-65.968868 -57.906015 16.271225
-66.64318 -56.199436 14.824491
-66.438571 -57.0565 16.029012
-54.297207 -66.448021 12.888575
-54.672337 -65.977753 13.750539
-55.170292 -71.639946 6.45182
-54.234686 -72.143406 7.634538
-54.810785 -70.920818 7.229831
-56.161297 -71.107529 5.303866
-55.585197 -72.330117 5.708572
-55.170292 -71.639946 6.45182
-63.491703 -65.220844 -3.591619
-63.143305 -66.61631 -3.195121
-62.684889 -66.13628 -2.485575
-63.747509 -63.785585 -3.985196
-64.205925 -64.265615 -4.694743
-63.491703 -65.220844 -3.591619
-63.735027 -60.419187 17.110792
-62.86484 -61.199385 17.432032
-63.494062 -61.123879 18.365946
-67.226715 -53.395457 11.317781
-66.780784 -54.335457 11.528995
-67.043571 -54.35687 12.467896
-67.40062 -52.393127 10.187358
-67.226715 -53.395457 11.317781
-63.023401 -54.216122 4.059109
-62.241378 -55.329657 4.298058
-62.780394 -55.055323 5.169515
-63.167994 -53.323779 2.979846
-63.023401 -54.216122 4.059109
-64.640068 -54.509224 7.843591
-65.242081 -54.421282 8.752199
-53.90641 -68.147979 10.384279
-53.912773 -67.536964 11.199098
-54.642632 -67.03051 9.937238
-59.952151 -70.453384 0.480442
-60.911196 -69.691524 -0.620175
-66.047619 -61.086231 -8.059259
-65.48764 -62.197544 -6.926153
-66.122932 -59.58703 -8.441552
-66.520694 -59.945471 -9.185496
-66.047619 -61.086231 -8.059259
-65.407246 -56.334355 -8.473925
-65.025657 -57.417681 -7.382373
-65.974506 -56.630583 -9.213158
-65.407246 -56.334355 -8.473925
-62.402948 -53.099975 -2.47437
-62.219808 -53.977743 -1.43139
-62.451424 -52.664591 -1.67326
-62.420284 -53.513189 -3.280058
-62.402948 -53.099975 -2.47437
-65.288426 -58.771826 16.531506
-64.594944 -59.585241 16.809075
-65.057732 -59.530265 17.767136
-65.50608 -57.960991 15.313163
-65.288426 -58.771826 16.531506
-65.968868 -57.906015 16.271225
-66.848739 -55.300281 13.637605
-66.392082 -56.196026 13.865996
-66.64318 -56.199436 14.824491
-67.043571 -54.35687 12.467896
-66.848739 -55.300281 13.637605
-63.366789 -54.821525 6.049629
-62.780394 -55.055323 5.169515
-62.584767 -55.93506 6.288578
-54.199032 -69.497898 8.780796
-53.994698 -68.816936 9.563043
-54.840603 -68.322486 8.340172
-53.614153 -70.708313 9.208109
-54.199032 -69.497898 8.780796
-54.460058 -70.213863 7.985238
-53.009951 -71.878738 9.643635
-53.614153 -70.708313 9.208109
-53.296959 -72.612598 8.824136
-53.009951 -71.878738 9.643635
-53.296959 -72.612598 8.824136
-54.234686 -72.143406 7.634538
-55.962133 -73.014946 4.933042
-55.585197 -72.330117 5.708572
-56.972225 -72.439178 3.810073
-55.962133 -73.014946 4.933042
-61.816305 -68.880616 -1.720865
-60.911196 -69.691524 -0.620175
-61.431382 -68.342655 -0.988387
-62.693297 -68.015552 -2.826564
-61.816305 -68.880616 -1.720865
-62.693297 -68.015552 -2.826564
-63.143305 -66.61631 -3.195121
-64.893577 -63.248827 -5.812655
-64.205925 -64.265615 -4.694743
-65.055794 -61.779074 -6.201818
-65.48764 -62.197544 -6.926153
-64.893577 -63.248827 -5.812655
-63.976034 -58.046604 -5.57971
-63.440992 -57.632385 -4.862659
-62.564749 -53.158199 0.205882
-62.016661 -54.383606 0.437068
-62.313126 -53.999447 1.27323
-62.689526 -52.278072 -0.836389
-62.564749 -53.158199 0.205882
-62.451424 -52.664591 -1.67326
-62.689526 -52.278072 -0.836389
-61.878567 -62.008687 17.779542
-60.888024 -62.76738 18.147713
-62.119532 -61.303995 16.524389
-61.878567 -62.008687 17.779542
-62.86484 -61.199385 17.432032
-65.845321 -54.363871 9.670267
-65.242081 -54.421282 8.752199
-65.07048 -55.372677 9.888738
-66.490425 -53.393259 9.456304
-65.845321 -54.363871 9.670267
-66.318825 -54.344655 10.592844
-67.113167 -52.374735 9.268802
-66.490425 -53.393259 9.456304
-67.113167 -52.374735 9.268802
-67.40062 -52.393127 10.187358
-62.939172 -57.150549 -4.159019
-63.440992 -57.632385 -4.862659
-62.990639 -58.564165 -3.790234
-62.98191 -55.772053 -4.49687
-62.939172 -57.150549 -4.159019
-62.531557 -56.703833 -3.424446
-62.884628 -54.379711 -4.819377
-62.98191 -55.772053 -4.49687
-55.629778 -65.01968 13.301718
-54.672337 -65.977753 13.750539
-60.077244 -62.912436 17.264696
-60.888024 -62.76738 18.147713
-59.298788 -63.041029 16.373085
-60.077244 -62.912436 17.264696
-60.354803 -62.24189 15.980289
-58.515091 -63.228759 15.497705
-59.298788 -63.041029 16.373085
-57.792428 -63.426815 14.61639
-58.515091 -63.228759 15.497705
-58.853684 -62.568539 14.207363
-57.121912 -63.699913 13.745118
-57.792428 -63.426815 14.61639
-56.542231 -64.002241 12.875901
-57.121912 -63.699913 13.745118
-57.551338 -63.068922 12.45683
-56.059204 -64.388689 12.01343
-55.629778 -65.01968 13.301718
-56.542231 -64.002241 12.875901
-62.6728 -53.632248 2.114847
-62.313126 -53.999447 1.27323
-62.124712 -54.857655 2.346035
-62.6728 -53.632248 2.114847
-63.167994 -53.323779 2.979846
-63.99203 -54.644812 6.942602
-63.819201 -55.565675 8.069681
-64.640068 -54.509224 7.843591
-63.366789 -54.821525 6.049629
-63.99203 -54.644812 6.942602
-64.131619 -60.995414 19.300289
-63.494062 -61.123879 18.365946
-64.835544 -60.229258 19.010366
-64.131619 -60.995414 19.300289
-65.057732 -59.530265 17.767136
-64.835544 -60.229258 19.010366
-54.048328 -66.954704 12.044979
-54.297207 -66.448021 12.888575
-54.897873 -65.912812 11.595652
-54.048328 -66.954704 12.044979
-53.912773 -67.536964 11.199098
-53.90641 -68.147979 10.384279
-53.994698 -68.816936 9.563043
-57.974671 -71.825485 2.690393
-56.972225 -72.439178 3.810073
-57.578648 -71.184005 3.440939
-58.979561 -71.161758 1.58492
-59.553683 -69.861938 1.216781
-59.952151 -70.453384 0.480442
-57.974671 -71.825485 2.690393
-58.979561 -71.161758 1.58492
-66.957489 -58.747889 -10.333033
-66.520694 -59.945471 -9.185496
-66.959259 -57.222418 -10.704294
-66.957489 -58.747889 -10.333033
-64.535054 -58.489901 -6.277788
-64.051478 -59.489297 -5.191952
-63.976034 -58.046604 -5.57971
-65.101101 -58.860375 -6.994615
-64.535054 -58.489901 -6.277788
-65.025657 -57.417681 -7.382373
-66.476658 -56.95964 -9.947453
-66.093857 -58.117213 -8.833494
-65.974506 -56.630583 -9.213158
-66.959259 -57.222418 -10.704294
-66.476658 -56.95964 -9.947453
-62.621765 -53.969293 -4.044956
-62.372814 -54.869232 -2.997399
-62.420284 -53.513189 -3.280058
-62.884628 -54.379711 -4.819377
-62.621765 -53.969293 -4.044956
3 79 20 80
3 82 81 20
3 0 24 22
3 0 26 24
3 0 28 26
3 2 31 29
3 2 33 31
3 2 35 33
3 1 83 84
3 3 37 36
3 3 85 87
3 87 86 37
3 85 86 87
3 3 88 90
3 88 38 89
3 88 89 90
3 4 41 39
3 4 91 93
3 93 92 41
3 91 92 93
3 4 94 96
3 94 42 95
3 94 95 96
3 5 97 99
3 97 45 98
3 97 98 99
3 7 46 19
3 7 47 46
3 7 49 47
3 100 50 101
3 102 101 21
3 100 101 102
3 104 103 50
3 8 53 51
3 10 54 23
3 10 55 54
3 10 57 55
3 12 58 25
3 12 59 58
3 12 61 59
3 14 62 27
3 14 63 62
3 6 64 44
3 15 65 30
3 15 66 65
3 15 67 66
3 16 68 32
3 16 69 68
3 16 71 69
3 105 72 106
3 107 106 34
3 105 106 107
3 109 108 72
3 111 110 48
3 9 112 114
3 114 113 52
3 112 113 114
3 11 73 56
3 116 115 40
3 18 117 118
3 18 119 121
3 119 74 120
3 119 120 121
3 13 75 60
3 122 76 123
3 125 124 76
3 17 77 70
3 126 78 127
3 128 127 43
3 126 127 128
3 130 129 78
3 131 19 132
3 133 132 5
3 131 132 133
3 20 134 136
3 134 19 135
3 134 135 136
3 20 7 19
3 20 21 7
3 137 21 138
3 139 138 20
3 137 138 139
3 141 140 21
3 22 23 8
3 24 23 22
3 24 10 23
3 24 25 10
3 26 25 24
3 26 12 25
3 26 27 12
3 28 27 26
3 28 14 27
3 29 30 6
3 31 30 29
3 31 15 30
3 31 32 15
3 33 32 31
3 33 16 32
3 33 34 16
3 35 34 33
3 35 142 144
3 144 143 34
3 142 143 144
3 36 145 147
3 147 146 9
3 145 146 147
3 37 148 150
3 150 149 36
3 148 149 150
3 37 151 152
3 37 153 154
3 156 155 37
3 38 157 158
3 38 159 160
3 39 40 11
3 41 40 39
3 41 161 163
3 163 162 40
3 161 162 163
3 41 164 165
3 167 166 41
3 42 168 169
3 42 170 172
3 170 18 171
3 170 171 172
3 174 173 13
3 175 43 176
3 177 176 17
3 175 176 177
3 178 43 179
3 181 180 43
3 182 44 183
3 45 184 186
3 184 44 185
3 184 185 186
3 45 6 44
3 19 45 5
3 46 45 19
3 46 6 45
3 46 29 6
3 47 29 46
3 47 2 29
3 47 48 2
3 49 48 47
3 49 187 189
3 189 188 48
3 187 188 189
3 21 49 7
3 50 49 21
3 50 190 192
3 192 191 49
3 190 191 192
3 50 193 194
3 196 195 50
3 51 52 1
3 53 52 51
3 53 9 52
3 23 53 8
3 54 53 23
3 54 9 53
3 54 36 9
3 55 36 54
3 55 3 36
3 55 56 3
3 57 56 55
3 57 11 56
3 25 57 10
3 58 57 25
3 58 11 57
3 58 39 11
3 59 39 58
3 59 4 39
3 59 60 4
3 61 60 59
3 61 13 60
3 27 61 12
3 62 61 27
3 62 13 61
3 62 197 199
3 199 198 13
3 197 198 199
3 63 200 202
3 202 201 62
3 200 201 202
3 63 203 204
3 205 1 206
3 44 207 208
3 64 209 211
3 211 210 44
3 209 210 211
3 64 212 213
3 30 64 6
3 65 64 30
3 65 214 216
3 216 215 64
3 214 215 216
3 65 217 218
3 66 219 221
3 221 220 65
3 219 220 221
3 66 222 224
3 222 1 223
3 222 223 224
3 66 51 1
3 67 51 66
3 67 8 51
3 32 67 15
3 68 67 32
3 68 8 67
3 68 22 8
3 69 22 68
3 69 0 22
3 69 70 0
3 71 70 69
3 71 17 70
3 34 71 16
3 72 71 34
3 72 17 71
3 72 225 227
3 227 226 17
3 225 226 227
3 229 228 72
3 48 35 2
3 230 35 231
3 232 231 48
3 230 231 232
3 234 233 35
3 235 5 236
3 237 5 238
3 240 239 5
3 52 241 243
3 243 242 1
3 241 242 243
3 245 244 52
3 247 246 9
3 56 38 3
3 73 38 56
3 73 248 250
3 250 249 38
3 248 249 250
3 40 73 11
3 251 73 252
3 253 252 40
3 251 252 253
3 255 254 73
3 74 256 257
3 74 258 259
3 60 42 4
3 75 42 60
3 75 18 42
3 260 75 261
3 262 261 13
3 260 261 262
3 76 263 265
3 263 75 264
3 263 264 265
3 76 18 75
3 76 74 18
3 266 74 267
3 268 267 76
3 266 267 268
3 270 269 74
3 70 28 0
3 77 28 70
3 77 14 28
3 43 77 17
3 78 77 43
3 78 14 77
3 78 63 14
3 271 63 272
3 273 272 78
3 271 272 273
3 275 274 63
