ply
format ascii 1.0
element vertex 554
property float x
property float y
property float z
element face 601
property list uchar int vertex_index
end_header
-11.488285 -78.566772 6.409495
-9.238657 -79.194824 -4.195185
-10.192057 -68.211891 -1.730318
-12.717447 -80.313629 1.102376
-5.421814 -92.310623 20.632877
-4.6152 -96.307098 30.761295
-10.043928 -64.76712 -7.456696
-9.163219 -80.607254 12.313556
-11.5261 -87.532394 5.66717
-8.081692 -89.805389 12.202354
-7.868162 -91.44458 -0.020724
-3.603846 -90.380127 -5.833607
-11.544174 -74.976318 2.468179
-12.637691 -79.588593 3.928304
-10.937693 -73.606667 -3.327477
-10.161718 -66.695679 -4.656778
-9.676271 -71.988258 -6.017265
-9.130522 -69.88604 -8.691778
-7.67094 -77.496826 -6.786545
-7.996157 -81.633194 16.261808
-9.615503 -85.089508 12.309174
-8.246586 -86.058731 16.247568
-2.775496 -97.619965 20.883301
-3.610941 -95.929871 16.180063
-8.859602 -92.719269 5.470083
-10.330582 -90.133606 2.756076
-6.844727 -95.51944 2.372836
-11.805273 -74.602173 -0.507802
-11.360451 -80.205429 -1.616863
-4.7651 -94.285706 25.549335
-2.749964 -99.668945 26.049568
-10.718622 -58.10693 -8.284864
-10.623219 -62.484917 -10.207546
-10.491348 -79.628021 8.881107
-12.390921 -82.558456 5.977412
-11.128906 -84.14241 8.831125
-9.853828 -88.981537 8.70483
-7.0007 -94.016159 8.554932
-6.548208 -90.780945 16.169851
-5.11812 -94.828644 12.084479
-3.559452 -101.58287 31.34782
-1.219172 -105.234726 26.316374
-12.614647 -84.733017 3.132225
-11.184721 -85.894073 0.401966
-8.634447 -85.854462 -2.186581
-5.13043 -91.427078 -2.828154
-6.265274 -84.812012 -4.788145
-11.030132 -77.063034 5.979619
-11.71813 -77.241524 4.591256
-12.124548 -79.056213 5.282143
-10.343712 -76.389252 -3.834414
-10.287394 -72.867233 -4.681444
-9.478024 -75.627609 -5.138252
-8.782232 -74.724205 -6.444357
-8.298828 -78.416031 -5.478315
-8.372475 -83.817657 16.275677
-1.474777 -100.442917 21.023912
-1.654079 -99.509872 18.539019
-7.158703 -95.339478 5.324802
-7.961416 -94.278381 3.921852
-6.189056 -96.938705 3.679315
-12.478638 -77.594452 1.68996
-11.831009 -74.855957 0.965178
-12.375004 -77.582596 0.249649
-11.931114 -77.382721 -1.153193
-12.198822 -80.377754 -0.278955
-5.284065 -92.73674 27.875195
-4.624491 -95.318176 28.132982
-3.769922 -96.938477 25.791348
-3.834888 -97.974045 28.427231
-10.061941 -65.779037 -6.066914
-9.785086 -63.302513 -5.126932
-10.002903 -62.355927 -6.550728
-10.311804 -61.331898 -7.954767
-10.786535 -60.233177 -9.348146
-10.20615 -63.667908 -8.835659
-8.450939 -72.567429 -9.10828
-9.402119 -68.681213 -10.036152
-11.025911 -81.832169 8.878763
-10.328856 -82.357605 10.532385
-9.0842 -87.415573 12.259197
-9.901754 -87.007721 10.45429
-8.954758 -89.418671 10.396812
-8.565636 -91.474319 8.640226
-7.62048 -91.887527 10.335251
-6.447115 -89.830444 20.579815
-6.993227 -89.033401 18.338438
-5.928801 -91.472702 18.339657
-2.681099 -98.029099 14.009546
-4.295322 -95.310394 14.055351
-4.207834 -104.767715 33.920929
-4.255182 -102.329483 33.916737
-3.209227 -104.178207 31.46735
-2.416157 -103.383102 28.893291
-2.046143 -106.044098 28.885849
-12.218239 -84.994217 5.80012
-12.713305 -83.749237 4.548402
-12.174841 -86.332794 4.334029
-9.213541 -90.964828 1.359988
-10.842375 -88.219604 1.534545
-9.655745 -88.681824 0.193423
-9.982601 -86.019516 -0.903833
-8.274466 -88.815475 -1.126863
-3.5819 -94.187027 -3.409451
-4.124714 -91.012726 -4.300085
-5.653818 -88.232971 -3.803995
-4.810621 -87.606384 -5.210869
-5.625217 -84.01683 -6.155489
-4.500536 -86.800018 -6.677965
-10.984938 -75.012688 3.984488
-12.239697 -77.457481 3.147725
-12.860209 -80.033974 2.51501
-10.898516 -70.871796 -2.630997
-10.237005 -67.508362 -3.214449
-10.569216 -70.153831 -4.049448
-10.178032 -69.306732 -5.435066
-9.851589 -68.344055 -6.801517
-9.712223 -67.279358 -8.160822
-9.249607 -70.989754 -7.351095
-8.404085 -73.700882 -7.767357
-7.487898 -76.454964 -8.127377
-8.550533 -81.094063 14.238337
-9.633005 -82.821671 12.333979
-8.976858 -83.289551 14.255445
-8.903231 -85.536621 14.227452
-8.316349 -87.848053 14.176484
-4.145756 -94.906586 20.7384
-4.577662 -94.026993 18.382238
-3.097246 -96.705597 18.459837
-2.064713 -98.696625 16.193884
-10.367071 -90.116104 5.567616
-11.119108 -88.971329 4.186588
-9.661772 -91.624374 4.068057
-8.649261 -92.831741 2.601554
-7.398623 -93.689133 1.142519
-10.969183 -71.90097 0.334237
-11.056395 -71.453049 -1.170298
-11.48317 -74.188019 -1.939278
-11.21357 -76.981949 -2.512024
-10.319681 -79.80262 -2.916212
-5.978472 -90.742706 22.923035
-5.589088 -91.728241 25.359512
-5.032478 -93.264511 23.041372
-3.874643 -95.895447 23.216656
-2.657841 -98.628067 23.425648
-1.540434 -101.444382 23.612253
-9.573833 -64.167694 -3.671951
-11.511057 -57.044434 -9.691481
-11.478996 -59.059006 -10.735607
-11.335144 -61.215698 -11.569656
-9.858406 -66.120987 -9.517986
-10.350811 -64.869225 -10.868694
-11.090761 -79.084671 7.464862
-12.084583 -80.329857 6.191787
-11.651083 -81.180885 7.412093
-11.833109 -83.474045 7.312115
-11.530851 -85.894379 7.211553
-10.369137 -84.651947 10.504663
-10.734884 -86.533737 8.768047
-10.730612 -88.38707 7.126633
-9.498491 -90.920212 7.052423
-7.958229 -93.484329 6.96358
-6.263706 -96.087296 6.817883
-7.616819 -88.374466 16.203342
-7.271097 -90.236542 14.125078
-5.161077 -93.294403 16.163227
-5.88039 -92.717972 14.086064
-6.711386 -92.270523 12.146683
-6.036572 -94.427414 10.256434
-5.314222 -96.622238 8.414206
-4.738621 -97.203522 33.398098
-5.012218 -100.461975 36.267044
-4.467737 -99.787277 33.709885
-4.069624 -98.94191 31.081944
-3.052441 -100.675766 28.707878
-1.855446 -102.448288 26.254719
-12.687611 -81.291512 4.853419
-12.940348 -82.099777 3.459045
-12.800976 -82.717468 2.058775
-11.706718 -87.426529 2.912445
-12.092916 -85.461151 1.746517
-12.257557 -83.094368 0.685246
-11.355379 -83.201004 -0.646494
-10.201727 -83.036636 -1.938755
-8.956104 -82.625443 -3.208572
-5.585934 -96.399139 0.795162
-6.025534 -94.184525 -0.332607
-4.690624 -94.337738 -1.84457
-6.444536 -91.586182 -1.408676
-6.873495 -88.650742 -2.450186
-7.328424 -85.436951 -3.471916
-7.808277 -82.005859 -4.482141
-6.947771 -81.217026 -5.785442
-6.532743 -80.286407 -7.133081
-0.938275 -101.43547 19.793501
-0.933804 -101.898445 21.057886
-5.807856 -97.463516 4.375689
-6.673879 -96.139092 4.502059
-6.292679 -96.663903 5.198433
-4.619846 -95.812637 29.447139
-4.847817 -94.518379 29.291432
-4.843171 -95.01284 30.605588
-9.741159 -66.580558 -1.952811
-9.533701 -66.930496 -1.180297
-8.71384 -71.943528 -9.780303
-8.138853 -73.929283 -9.298837
-9.746037 -81.482429 11.42297
-10.076142 -81.244419 10.524085
-9.493324 -80.369243 11.414671
-3.072496 -97.763787 13.000543
-2.292797 -99.160447 12.920286
-3.166244 -105.422455 31.403703
-3.708531 -104.472961 32.694139
-3.665547 -105.717208 32.630493
-2.584701 -106.3554 30.112953
-2.627685 -105.111153 30.1766
-3.166244 -105.422455 31.403703
-8.728506 -79.519951 12.274197
-8.43232 -79.769238 13.238855
-9.493324 -80.369243 11.414671
-8.728506 -79.519951 12.274197
-3.86428 -90.696427 -5.066846
-3.504699 -92.392273 -4.666958
-3.244265 -92.075974 -5.433719
-10.612181 -75.026112 4.742071
-10.098901 -73.853527 4.513095
-1.371495 -100.144287 16.175932
-1.859396 -99.103249 17.366452
-1.166179 -100.550911 17.348499
-1.629429 -99.788025 15.051367
-1.371495 -100.144287 16.175932
-7.590242 -80.557266 16.226916
-7.362956 -80.868794 17.277002
-8.273345 -81.363629 15.250072
-7.86743 -80.287701 15.21518
-7.590242 -80.557266 16.226916
-11.077414 -73.604675 2.1725
-10.773986 -73.72908 2.958183
-6.049888 -90.008057 24.073245
-6.283055 -89.535865 22.888301
-9.388797 -62.108387 -4.558169
-9.650876 -61.67127 -5.286053
-10.521405 -57.09272 -7.663395
-10.394879 -58.605776 -7.578859
-11.014967 -56.62491 -8.373359
-10.521405 -57.09272 -7.663395
-11.114839 -57.575682 -8.988173
-11.411184 -56.093663 -9.076667
-11.014967 -56.62491 -8.373359
-10.224612 -66.118961 -11.119089
-9.876465 -66.775219 -10.452423
-9.750266 -68.024956 -10.702818
-10.778511 -64.192999 -11.535057
-10.224612 -66.118961 -11.119089
-4.487617 -97.966149 8.29462
-4.837765 -96.839691 9.273121
-4.943048 -97.683616 7.489427
-4.487617 -97.966149 8.29462
-4.863786 -97.584572 34.701746
-4.843354 -96.31942 34.533352
-5.060977 -101.661667 36.317583
-5.342373 -100.693023 37.491358
-0.942009 -104.773826 25.006338
-1.260146 -103.380607 24.97551
-1.537309 -103.841507 26.285547
-10.068832 -78.573822 8.837362
-9.722158 -78.795673 9.657702
-10.791055 -79.356346 8.172985
-10.368539 -78.302147 8.12924
-10.068832 -78.573822 8.837362
-4.946432 -96.655014 -0.017551
-4.760122 -97.752365 0.51779
-5.166232 -95.547707 -0.581436
-5.805734 -95.291832 0.231278
-4.946432 -96.655014 -0.017551
-6.035863 -81.678196 -7.354332
-6.07898 -82.151618 -6.644285
-5.582099 -83.543407 -6.865536
-6.599549 -79.754456 -7.826396
-6.035863 -81.678196 -7.354332
-11.374131 -77.152279 5.285437
-10.978777 -76.14053 5.045454
-10.634778 -76.051285 5.739636
-7.931356 -83.036613 17.318891
-8.184316 -82.725426 16.268743
-7.743197 -81.944381 17.311957
-8.093415 -84.130516 17.327604
-7.931356 -83.036613 17.318891
-8.030471 -85.251053 17.313549
-8.309531 -84.938194 16.261623
-8.093415 -84.130516 17.327604
-1.027926 -100.968948 18.551055
-1.564428 -99.976394 19.781465
-0.938275 -101.43547 19.793501
-1.166179 -100.550911 17.348499
-1.027926 -100.968948 18.551055
-7.743197 -81.944381 17.311957
-7.362956 -80.868794 17.277002
-5.177604 -93.227661 29.162538
-5.308619 -91.970138 29.025588
-4.954278 -94.027458 28.004089
-5.177604 -93.227661 29.162538
-4.847817 -94.518379 29.291432
-9.759785 -61.197978 -5.997952
-9.650876 -61.67127 -5.286053
-9.893994 -62.82922 -5.83883
-10.037019 -60.730275 -6.711791
-9.759785 -61.197978 -5.997952
-10.19147 -60.21826 -7.413811
-10.037019 -60.730275 -6.711791
-10.157353 -61.843913 -7.252747
-10.515213 -59.719414 -8.119816
-10.394879 -58.605776 -7.578859
-10.19147 -60.21826 -7.413811
-9.189431 -70.000419 -10.244239
-8.926529 -70.624321 -9.572216
-8.71384 -71.943528 -9.780303
-9.750266 -68.024956 -10.702818
-9.189431 -70.000419 -10.244239
-10.42467 -80.981701 9.697274
-10.75863 -80.730095 8.879935
-10.157388 -79.879627 9.698446
-10.677384 -82.094887 9.705574
-10.42467 -80.981701 9.697274
-10.076142 -81.244419 10.524085
-6.720171 -89.431922 19.459126
-7.044166 -88.245689 19.451685
-6.771109 -88.64421 20.572373
-3.879607 -96.404434 13.023446
-3.488211 -96.669747 14.032449
-3.072496 -97.763787 13.000543
-4.291006 -96.163559 12.03801
-4.706721 -95.069519 13.069915
-3.879607 -96.404434 13.023446
-4.739714 -95.942894 11.108258
-4.291006 -96.163559 12.03801
-4.231508 -103.548599 33.918833
-4.68246 -102.595421 35.142429
-4.658786 -103.814537 35.144526
-10.157388 -79.879627 9.698446
-9.722158 -78.795673 9.657702
-3.233292 -93.979423 -4.221641
-2.96696 -95.557678 -3.832327
-3.853307 -92.599876 -3.854768
-3.233292 -93.979423 -4.221641
-3.504699 -92.392273 -4.666958
-5.019759 -84.935001 -7.126774
-5.582099 -83.543407 -6.865536
-5.062876 -85.408424 -6.416727
-10.494369 -73.747265 3.716337
-10.098901 -73.853527 4.513095
-11.264556 -74.994503 3.226333
-10.773986 -73.72908 2.958183
-10.494369 -73.747265 3.716337
-11.351534 -76.127106 4.287872
-10.612181 -75.026112 4.742071
-10.978777 -76.14053 5.045454
-4.786575 -95.468605 31.909467
-4.843171 -95.01284 30.605588
-7.657333 -75.873051 -8.808385
-8.138853 -73.929283 -9.298837
-7.969418 -74.511197 -8.617828
-1.937622 -99.454262 13.959198
-2.372906 -98.362862 15.101715
-1.629429 -99.788025 15.051367
-2.292797 -99.160447 12.920286
-1.937622 -99.454262 13.959198
-4.787943 -104.930306 35.065281
-4.658786 -103.814537 35.144526
-4.309703 -105.900566 33.772661
-4.787943 -104.930306 35.065281
-3.665547 -105.717208 32.630493
-4.309703 -105.900566 33.772661
-8.125977 -80.012642 14.201245
-7.86743 -80.287701 15.21518
-8.856876 -80.850659 13.275946
-8.43232 -79.769238 13.238855
-8.125977 -80.012642 14.201245
-3.176149 -91.749161 -6.27053
-3.244265 -92.075974 -5.433719
-3.647768 -89.963409 -6.625324
-3.176149 -91.749161 -6.27053
-10.075117 -68.510059 -0.965293
-9.533701 -66.930496 -1.180297
-11.220832 -73.544494 1.421
-11.077414 -73.604675 2.1725
-11.687591 -74.916138 1.716678
-10.789919 -72.067001 1.10553
-11.220832 -73.544494 1.421
-11.400096 -73.378464 0.649707
-10.23695 -70.604774 0.854093
-10.789919 -72.067001 1.10553
-10.463679 -70.354599 0.066985
-10.23695 -70.604774 0.854093
-10.507286 -70.130639 -0.685283
-10.463679 -70.354599 0.066985
-11.012789 -71.677009 -0.418031
-10.624226 -69.83247 -1.450308
-10.075117 -68.510059 -0.965293
-10.507286 -70.130639 -0.685283
-6.517377 -89.079735 21.716691
-6.771109 -88.64421 20.572373
-6.212794 -90.286575 21.751425
-6.517377 -89.079735 21.716691
-6.283055 -89.535865 22.888301
-5.492034 -91.491623 27.771552
-5.308619 -91.970138 29.025588
-5.644545 -90.987373 26.51371
-5.492034 -91.491623 27.771552
-5.436577 -92.23249 26.617354
-5.855196 -90.500824 25.291483
-5.644545 -90.987373 26.51371
-5.78378 -91.235473 24.141273
-6.049888 -90.008057 24.073245
-5.855196 -90.500824 25.291483
-0.966632 -102.399178 22.352056
-0.933804 -101.898445 21.057886
-1.507605 -100.943649 22.318082
-9.763632 -66.228794 -2.694877
-9.741159 -66.580558 -1.952811
-10.214531 -67.860127 -2.472384
-9.432047 -64.55846 -2.923628
-9.763632 -66.228794 -2.694877
-9.905419 -65.838028 -3.4432
-9.005985 -62.948246 -3.082559
-9.432047 -64.55846 -2.923628
-9.283171 -62.540977 -3.830679
-9.67946 -63.735103 -4.399442
-9.388797 -62.108387 -4.558169
-9.005985 -62.948246 -3.082559
-9.283171 -62.540977 -3.830679
-11.963905 -55.596257 -9.788905
-11.411184 -56.093663 -9.076667
-11.995095 -56.478222 -10.395595
-11.963905 -55.596257 -9.788905
-11.979064 -57.485508 -10.917658
-11.995095 -56.478222 -10.395595
-11.495026 -58.05172 -10.213544
-11.944589 -58.431709 -11.426686
-11.979064 -57.485508 -10.917658
-11.872663 -59.510055 -11.843711
-11.944589 -58.431709 -11.426686
-11.40707 -60.137352 -11.152632
-11.839342 -60.534235 -12.242636
-11.872663 -59.510055 -11.843711
-11.270677 -62.366236 -11.885538
-10.842977 -63.042462 -11.219175
-10.778511 -64.192999 -11.535057
-11.839342 -60.534235 -12.242636
-11.270677 -62.366236 -11.885538
-5.84518 -97.037812 5.944973
-6.292679 -96.663903 5.198433
-6.711205 -95.713387 6.071343
-7.946266 -86.377243 17.304641
-8.030471 -85.251053 17.313549
-7.319586 -87.864578 18.350076
-7.044166 -88.245689 19.451685
-7.631382 -87.535111 17.282528
-7.319586 -87.864578 18.350076
-7.305023 -88.703934 17.27089
-7.931703 -87.216599 16.225455
-7.946266 -86.377243 17.304641
-7.631382 -87.535111 17.282528
-5.19894 -95.742279 10.194235
-5.577346 -94.628029 11.170457
-4.739714 -95.942894 11.108258
-5.675397 -95.524826 9.33532
-5.19894 -95.742279 10.194235
-4.837765 -96.839691 9.273121
-5.417791 -97.416145 6.691266
-5.788964 -96.354767 7.616045
-4.943048 -97.683616 7.489427
-5.84518 -97.037812 5.944973
-5.417791 -97.416145 6.691266
-4.848285 -95.916817 33.227869
-4.843354 -96.31942 34.533352
-4.67691 -96.75531 32.079696
-4.786575 -95.468605 31.909467
-4.848285 -95.916817 33.227869
-5.181002 -99.509903 37.407142
-5.342373 -100.693023 37.491358
-5.000585 -99.213798 36.136219
-5.181002 -99.509903 37.407142
-4.6337 -101.395729 35.09189
-5.060977 -101.661667 36.317583
-4.68246 -102.595421 35.142429
-4.728344 -98.87645 34.85764
-5.000585 -99.213798 36.136219
-4.739978 -100.124626 34.988464
-4.603179 -98.4954 33.553991
-4.863786 -97.584572 34.701746
-4.728344 -98.87645 34.85764
-1.10264 -102.878655 23.654277
-1.69794 -101.946335 24.933486
-1.260146 -103.380607 24.97551
-0.966632 -102.399178 22.352056
-1.10264 -102.878655 23.654277
-2.037245 -107.320122 28.740028
-2.584701 -106.3554 30.112953
-1.493264 -107.008477 27.514372
-2.037245 -107.320122 28.740028
-1.079779 -106.603791 26.229634
-1.632657 -105.639412 27.601112
-1.493264 -107.008477 27.514372
-0.680076 -106.210624 24.953449
-1.079779 -106.603791 26.229634
-0.942009 -104.773826 25.006338
-0.680076 -106.210624 24.953449
-10.709973 -78.11911 7.400315
-10.368539 -78.302147 8.12924
-11.289523 -78.825722 6.937178
-10.908735 -77.860161 6.872631
-10.709973 -78.11911 7.400315
-10.223807 -76.10955 6.500277
-10.634778 -76.051285 5.739636
-10.679659 -77.108292 6.657693
-10.223807 -76.10955 6.500277
-10.908735 -77.860161 6.872631
-11.259208 -77.814903 6.194557
-10.679659 -77.108292 6.657693
-5.345318 -98.278557 3.475974
-5.807856 -97.463516 4.375689
-5.638861 -97.572883 2.835424
-5.345318 -98.278557 3.475974
-5.966697 -96.863251 2.182184
-6.516891 -96.229073 3.026076
-5.638861 -97.572883 2.835424
-5.3373 -97.3031 1.393347
-4.760122 -97.752365 0.51779
-6.215331 -95.95929 1.583999
-5.966697 -96.863251 2.182184
-5.3373 -97.3031 1.393347
-3.375571 -95.631539 -2.961544
-2.96696 -95.557678 -3.832327
-3.929932 -95.706894 -2.179104
-3.375571 -95.631539 -2.961544
-4.136262 -94.262383 -2.62701
-4.498776 -95.624313 -1.337417
-3.929932 -95.706894 -2.179104
-5.358079 -94.261132 -1.088588
-5.166232 -95.547707 -0.581436
-4.498776 -95.624313 -1.337417
-7.077127 -77.838734 -8.323544
-7.010321 -78.370686 -7.630229
-6.599549 -79.754456 -7.826396
-7.657333 -75.873051 -8.808385
-7.077127 -77.838734 -8.323544
-4.096113 -88.173355 -7.047504
-4.052191 -88.590072 -6.255786
-3.647768 -89.963409 -6.625324
-4.658835 -86.310264 -7.433359
-4.096113 -88.173355 -7.047504
-5.019759 -84.935001 -7.126774
-4.658835 -86.310264 -7.433359
3 0 49 47
3 1 52 50
3 1 54 52
3 195 194 56
3 196 60 197
3 198 197 58
3 196 197 198
3 3 63 61
3 3 65 63
3 5 199 201
3 199 67 200
3 199 200 201
3 5 69 67
3 2 202 203
3 6 72 70
3 6 73 72
3 6 75 73
3 205 204 76
3 7 206 208
3 206 79 207
3 206 207 208
3 9 82 80
3 9 84 82
3 4 87 85
3 210 209 88
3 211 92 212
3 213 212 90
3 211 212 213
3 214 94 215
3 216 215 92
3 214 215 216
3 7 217 218
3 7 219 220
3 8 97 95
3 10 100 98
3 10 102 100
3 11 221 223
3 221 104 222
3 221 222 223
3 11 106 104
3 11 108 106
3 224 109 225
3 13 110 48
3 13 111 110
3 14 114 112
3 16 115 51
3 16 116 115
3 16 118 116
3 18 119 53
3 18 120 119
3 19 123 121
3 21 124 55
3 21 125 124
3 22 128 126
3 226 129 227
3 228 227 57
3 226 227 228
3 230 229 129
3 19 231 232
3 19 233 235
3 233 121 234
3 233 234 235
3 24 132 130
3 26 133 59
3 26 134 133
3 12 236 237
3 27 135 62
3 27 136 135
3 27 137 136
3 28 138 64
3 28 139 138
3 238 140 239
3 29 141 66
3 29 142 141
3 29 143 142
3 30 144 68
3 30 145 144
3 15 146 113
3 241 240 71
3 31 242 243
3 31 244 245
3 31 246 248
3 246 147 247
3 246 247 248
3 32 148 74
3 32 149 148
3 17 150 117
3 249 151 250
3 251 250 77
3 249 250 251
3 253 252 151
3 33 154 152
3 35 155 78
3 35 156 155
3 20 157 122
3 36 158 81
3 36 159 158
3 36 160 159
3 37 161 83
3 37 162 161
3 38 163 86
3 38 164 163
3 23 165 127
3 39 166 89
3 39 167 166
3 39 168 167
3 254 169 255
3 257 256 169
3 258 170 259
3 260 171 261
3 40 172 91
3 40 173 172
3 40 174 173
3 41 175 93
3 41 262 264
3 264 263 175
3 262 263 264
3 33 265 266
3 33 267 269
3 267 152 268
3 267 268 269
3 34 176 153
3 42 177 96
3 42 178 177
3 25 179 131
3 43 180 99
3 43 181 180
3 43 182 181
3 44 183 101
3 44 184 183
3 270 185 271
3 272 186 273
3 274 273 185
3 272 273 274
3 45 187 103
3 45 188 187
3 45 189 188
3 46 190 105
3 46 191 190
3 46 192 191
3 275 193 276
3 277 276 107
3 275 276 277
3 279 278 193
3 47 280 282
3 280 48 281
3 280 281 282
3 49 48 47
3 49 13 48
3 50 51 14
3 52 51 50
3 52 16 51
3 52 53 16
3 54 53 52
3 54 18 53
3 283 55 284
3 285 284 19
3 283 284 285
3 286 55 287
3 288 21 289
3 290 289 55
3 288 289 290
3 56 57 22
3 291 57 292
3 293 292 56
3 291 292 293
3 295 294 57
3 296 19 297
3 58 59 24
3 60 59 58
3 60 26 59
3 61 62 12
3 63 62 61
3 63 27 62
3 63 64 27
3 65 64 63
3 65 28 64
3 298 66 299
3 67 300 302
3 300 66 301
3 300 301 302
3 67 29 66
3 67 68 29
3 69 68 67
3 69 30 68
3 70 71 15
3 72 71 70
3 72 303 305
3 305 304 71
3 303 304 305
3 72 306 307
3 73 308 310
3 310 309 72
3 308 309 310
3 73 311 313
3 311 31 312
3 311 312 313
3 73 74 31
3 75 74 73
3 75 32 74
3 76 77 17
3 314 77 315
3 316 315 76
3 314 315 316
3 318 317 77
3 319 78 320
3 321 320 33
3 319 320 321
3 79 322 324
3 322 78 323
3 322 323 324
3 79 35 78
3 80 81 20
3 82 81 80
3 82 36 81
3 82 83 36
3 84 83 82
3 84 37 83
3 85 325 327
3 325 86 326
3 325 326 327
3 87 86 85
3 87 38 86
3 88 89 23
3 328 89 329
3 330 329 88
3 328 329 330
3 331 39 332
3 333 332 89
3 331 332 333
3 335 334 39
3 90 336 338
3 336 91 337
3 336 337 338
3 92 91 90
3 92 40 91
3 92 93 40
3 94 93 92
3 94 41 93
3 339 33 340
3 95 96 34
3 97 96 95
3 97 42 96
3 98 99 25
3 100 99 98
3 100 43 99
3 100 101 43
3 102 101 100
3 102 44 101
3 341 103 342
3 104 343 345
3 343 103 344
3 343 344 345
3 104 45 103
3 104 105 45
3 106 105 104
3 106 46 105
3 106 107 46
3 108 107 106
3 108 346 348
3 348 347 107
3 346 347 348
3 109 349 350
3 109 351 353
3 351 12 352
3 351 352 353
3 48 354 356
3 354 109 355
3 354 355 356
3 110 109 48
3 110 12 109
3 110 61 12
3 111 61 110
3 111 3 61
3 357 5 358
3 112 113 2
3 114 113 112
3 114 15 113
3 51 114 14
3 115 114 51
3 115 15 114
3 115 70 15
3 116 70 115
3 116 6 70
3 116 117 6
3 118 117 116
3 118 17 117
3 53 118 16
3 119 118 53
3 119 17 118
3 119 76 17
3 120 76 119
3 120 359 361
3 361 360 76
3 359 360 361
3 121 122 7
3 123 122 121
3 123 20 122
3 55 123 19
3 124 123 55
3 124 20 123
3 124 80 20
3 125 80 124
3 125 9 80
3 126 127 4
3 128 127 126
3 128 23 127
3 57 128 22
3 129 128 57
3 129 23 128
3 129 88 23
3 362 88 363
3 364 363 129
3 362 363 364
3 366 365 88
3 367 90 368
3 369 90 370
3 372 371 90
3 121 373 374
3 121 375 377
3 375 7 376
3 375 376 377
3 130 131 8
3 132 131 130
3 132 25 131
3 59 132 24
3 133 132 59
3 133 25 132
3 133 98 25
3 134 98 133
3 134 10 98
3 378 11 379
3 381 380 11
3 382 2 383
3 62 384 386
3 386 385 12
3 384 385 386
3 135 387 389
3 389 388 62
3 387 388 389
3 135 390 391
3 135 392 393
3 136 394 396
3 396 395 135
3 394 395 396
3 136 397 399
3 397 2 398
3 397 398 399
3 136 112 2
3 137 112 136
3 137 14 112
3 64 137 27
3 138 137 64
3 138 14 137
3 138 50 14
3 139 50 138
3 139 1 50
3 400 85 401
3 140 402 404
3 402 85 403
3 402 403 404
3 140 4 85
3 66 405 406
3 141 407 409
3 409 408 66
3 407 408 409
3 141 410 411
3 141 412 414
3 412 140 413
3 412 413 414
3 142 140 141
3 142 4 140
3 142 126 4
3 143 126 142
3 143 22 126
3 68 143 29
3 144 143 68
3 144 22 143
3 144 56 22
3 145 56 144
3 145 415 417
3 417 416 56
3 415 416 417
3 113 418 420
3 420 419 2
3 418 419 420
3 146 421 423
3 423 422 113
3 421 422 423
3 146 424 425
3 71 146 15
3 426 146 427
3 428 427 71
3 426 427 428
3 430 429 146
3 147 431 432
3 147 433 434
3 74 147 31
3 148 147 74
3 148 435 437
3 437 436 147
3 435 436 437
3 148 438 439
3 149 440 442
3 442 441 148
3 440 441 442
3 149 443 444
3 117 75 6
3 150 75 117
3 150 32 75
3 77 150 17
3 151 150 77
3 151 32 150
3 151 149 32
3 445 149 446
3 447 446 151
3 445 446 447
3 449 448 149
3 152 153 0
3 154 153 152
3 154 34 153
3 78 154 33
3 155 154 78
3 155 34 154
3 155 95 34
3 156 95 155
3 156 8 95
3 122 79 7
3 157 79 122
3 157 35 79
3 81 157 20
3 158 157 81
3 158 35 157
3 158 156 35
3 159 156 158
3 159 8 156
3 159 130 8
3 160 130 159
3 160 24 130
3 83 160 36
3 161 160 83
3 161 24 160
3 161 58 24
3 162 58 161
3 162 450 452
3 452 451 58
3 450 451 452
3 453 21 454
3 86 455 456
3 163 457 459
3 459 458 86
3 457 458 459
3 163 460 462
3 460 21 461
3 460 461 462
3 163 125 21
3 164 125 163
3 164 9 125
3 127 87 4
3 165 87 127
3 165 38 87
3 89 165 23
3 166 165 89
3 166 38 165
3 166 164 38
3 167 164 166
3 167 9 164
3 167 84 9
3 168 84 167
3 168 37 84
3 463 168 464
3 465 464 39
3 463 464 465
3 169 466 468
3 466 168 467
3 466 467 468
3 169 37 168
3 169 162 37
3 469 162 470
3 471 470 169
3 469 470 471
3 473 472 162
3 170 474 475
3 170 476 478
3 476 5 477
3 476 477 478
3 171 479 480
3 171 481 482
3 91 483 485
3 483 171 484
3 483 484 485
3 172 171 91
3 172 486 488
3 488 487 171
3 486 487 488
3 172 489 491
3 489 170 490
3 489 490 491
3 173 170 172
3 173 5 170
3 173 69 5
3 174 69 173
3 174 30 69
3 93 174 40
3 175 174 93
3 175 30 174
3 175 145 30
3 492 145 493
3 494 493 175
3 492 493 494
3 496 495 145
3 497 94 498
3 499 94 500
3 501 41 502
3 503 502 94
3 501 502 503
3 504 41 505
3 507 506 41
3 152 508 509
3 152 510 512
3 510 0 511
3 510 511 512
3 513 47 514
3 515 47 516
3 517 0 518
3 519 518 47
3 517 518 519
3 153 49 0
3 176 49 153
3 176 13 49
3 96 176 34
3 177 176 96
3 177 13 176
3 177 111 13
3 178 111 177
3 178 3 111
3 131 97 8
3 179 97 131
3 179 42 97
3 99 179 25
3 180 179 99
3 180 42 179
3 180 178 42
3 181 178 180
3 181 3 178
3 181 65 3
3 182 65 181
3 182 28 65
3 101 182 43
3 183 182 101
3 183 28 182
3 183 139 28
3 184 139 183
3 184 1 139
3 520 60 521
3 522 60 523
3 524 26 525
3 526 525 60
3 524 525 526
3 185 527 528
3 185 529 531
3 529 26 530
3 529 530 531
3 185 134 26
3 186 134 185
3 186 10 134
3 103 532 533
3 187 534 536
3 536 535 103
3 534 535 536
3 187 537 538
3 187 539 541
3 539 186 540
3 539 540 541
3 188 186 187
3 188 10 186
3 188 102 10
3 189 102 188
3 189 44 102
3 105 189 45
3 190 189 105
3 190 44 189
3 190 184 44
3 191 184 190
3 191 1 184
3 191 54 1
3 192 54 191
3 192 18 54
3 107 192 46
3 193 192 107
3 193 18 192
3 193 120 18
3 542 120 543
3 544 543 193
3 542 543 544
3 546 545 120
3 547 108 548
3 549 548 11
3 547 548 549
3 550 108 551
3 553 552 108
