ply
format ascii 1.0
element vertex 457
property float x
property float y
property float z
element face 493
property list uchar int vertex_index
end_header
-43.988167 -62.895863 47.434593
-40.016655 -84.073975 48.984306
-51.03627 -60.906868 49.464764
-49.987972 -70.74791 48.404732
-29.282623 -76.265884 51.632893
-37.957424 -93.676849 42.487
-47.93259 -80.802078 39.245567
-35.113655 -75.167343 49.291267
-42.62093 -73.464813 48.518192
-46.980003 -79.979408 47.526886
-33.277184 -85.583252 47.480282
-53.617943 -64.181747 49.423161
-50.460625 -77.822784 41.793259
-39.630035 -69.003937 47.795219
-43.464146 -68.145523 47.707409
-48.76989 -75.497238 48.121307
-50.094505 -77.380058 45.845947
-47.835995 -81.10379 44.137321
-25.706051 -80.528801 49.710033
-37.659943 -79.893646 49.350964
-34.170563 -80.515259 49.257622
-36.519485 -85.251129 48.541912
-47.628677 -61.975304 48.293869
-47.220993 -67.129433 48.161678
-50.646568 -65.835022 48.842075
-53.014656 -68.794449 48.202717
-28.345201 -80.531563 49.261917
-41.969482 -86.960114 46.952003
-38.756397 -89.100464 46.812317
-36.028374 -69.822289 48.653988
-38.740082 -74.412628 48.738979
-41.419792 -78.805901 49.26865
-46.46447 -72.273636 48.463253
-45.207745 -77.331078 48.873398
-43.571938 -82.244049 48.634125
-45.020126 -84.194366 45.971603
-45.80864 -84.558624 41.485371
-31.952684 -75.76078 50.268879
-31.088272 -80.663597 49.169453
-30.330414 -85.147995 46.169052
-35.576607 -90.22641 45.515491
-55.14505 -61.070812 50.254097
-41.868462 -65.940659 47.378128
-43.758259 -65.51078 47.489895
-50.384644 -77.773842 44.001923
-38.882671 -82.103943 49.317379
-37.082733 -82.603783 49.187782
-38.246681 -84.759613 48.856476
-49.370682 -61.46233 48.870979
-49.198463 -63.989853 48.650394
-50.851898 -63.364426 49.145012
-53.359158 -66.490135 48.812275
-28.075191 -76.530907 52.419556
-27.534794 -78.556747 51.124092
-28.797377 -78.452148 50.652523
-42.788349 -87.779678 45.197884
-41.333878 -89.212784 45.425751
-36.471416 -67.21315 48.394547
-41.13839 -71.262955 48.097183
-39.211128 -71.691284 48.245743
-40.666191 -73.964996 48.596828
-40.122791 -76.683205 49.055943
-42.06073 -76.137222 48.958206
-48.692448 -69.051254 48.427872
-46.900631 -69.707512 48.26561
-48.281097 -71.559143 48.444229
-47.93079 -77.774017 47.904022
-47.031845 -76.460632 48.540962
-46.208954 -78.835938 48.460945
-44.416756 -79.808167 48.889561
-45.305 -81.156639 48.166069
-44.384945 -83.422714 47.565117
-45.98262 -82.117332 46.905846
-47.961578 -81.111008 41.829571
-46.74506 -82.854599 42.947678
-46.875908 -82.686752 40.429222
-33.928806 -72.854858 49.602261
-32.420883 -73.226692 50.372414
-33.467915 -75.481323 49.726082
-33.708439 -83.101776 48.641911
-32.577461 -80.642166 49.20163
-32.158649 -83.100769 48.291557
-30.693533 -82.965225 47.941017
-31.77322 -85.440887 46.82679
-38.289448 -91.455414 44.906006
-37.148991 -89.810745 46.297565
-36.754951 -92.150116 44.157791
-52.610275 -60.311886 50.012794
-52.40139 -62.668964 49.607189
-53.8377 -61.904087 49.989906
-54.929981 -63.208565 49.59473
-49.1609 -79.344391 40.605721
-49.014355 -78.918419 37.979088
-50.365372 -77.564346 39.319336
-38.186874 -66.777176 47.807732
-39.998283 -66.357651 47.474449
-41.537521 -68.586563 47.666386
-43.08847 -70.798477 48.069576
-51.065952 -72.16391 47.968483
-49.458801 -73.151711 48.264088
-49.560577 -76.620972 47.236771
-48.580551 -78.720062 46.743385
-47.517784 -80.735077 46.066963
-48.985424 -79.285866 45.086037
-49.167027 -79.483101 43.007378
-36.383862 -77.546188 49.272465
-34.643471 -77.857727 49.429268
-35.868954 -80.266663 49.315147
-35.351784 -82.939011 48.952541
-34.858685 -85.526947 48.069359
-45.827072 -62.450043 47.795418
-45.630295 -65.052063 47.770889
-47.452118 -64.549377 48.174759
-48.986404 -66.523438 48.494766
-50.372894 -68.302521 48.591393
-52.191055 -65.055923 49.163265
-51.928726 -67.450897 48.727451
-51.56723 -69.828743 48.328281
-26.284569 -78.722725 51.666203
-27.029203 -80.482834 49.430187
-41.046577 -85.714386 48.216984
-39.344307 -86.630981 48.168331
-40.372772 -88.133331 47.031799
-39.825584 -90.458252 45.332649
-39.428974 -92.668091 43.140331
-35.57552 -72.479561 48.988255
-37.781429 -69.411812 48.119289
-37.345306 -72.094032 48.537724
-36.878769 -74.812363 48.965107
-38.219505 -77.15387 49.154167
-39.520134 -79.402985 49.34219
-40.724895 -81.457588 49.318432
-45.370537 -67.665154 47.885315
-45.021767 -70.284897 48.135719
-44.566235 -72.904579 48.480965
-47.729065 -74.032791 48.505054
-45.898788 -74.817612 48.695545
-43.997963 -75.516525 48.84296
-43.326546 -78.113083 49.115253
-42.579479 -80.686104 49.177147
-41.801033 -83.225021 48.910557
-42.734352 -84.631851 48.010971
-43.523197 -85.632477 46.588596
-44.173782 -86.214752 44.679813
-46.456463 -82.678017 45.140083
-45.488914 -84.562561 43.913853
-44.695091 -86.398422 42.36499
-30.564119 -76.016747 50.909882
-33.016716 -78.090179 49.639072
-31.509012 -78.252594 49.910843
-30.110617 -78.363602 50.248383
-29.686871 -80.611206 49.182423
-29.290941 -82.745499 47.632633
-37.655235 -87.338974 47.86578
-36.006763 -87.80159 47.328552
-34.418724 -87.998917 46.595352
-34.053825 -90.335526 44.519135
-32.897068 -87.937561 45.723034
-43.873213 -64.203322 47.462244
-42.949515 -64.418057 47.377168
-43.064469 -63.110598 47.349518
-28.678907 -76.398395 52.026224
-28.367484 -75.4687 52.899912
-28.9712 -75.336189 52.50658
-42.508073 -88.816513 44.293312
-43.147398 -87.978447 44.107092
-47.865022 -80.51923 37.861536
-47.408931 -81.517028 38.464782
-36.685712 -65.935936 48.336194
-35.920299 -66.188252 48.788528
-47.408931 -81.517028 38.464782
-46.88059 -82.459365 39.05661
-47.404249 -81.744415 39.837395
-53.954453 -60.797331 50.222097
-53.223987 -61.107986 50.00135
-53.34074 -60.001231 50.233541
-55.530397 -62.665247 49.628601
-55.037515 -62.139688 49.924413
-55.637932 -61.59637 49.958285
-55.412408 -63.718212 49.183141
-55.530397 -62.665247 49.628601
-40.158712 -65.055174 47.401741
-39.279255 -65.275101 47.567597
-50.732073 -73.298679 47.795231
-51.48424 -72.713112 47.511268
-49.827541 -77.000515 46.541359
-50.321735 -75.996788 46.85875
-50.588699 -76.376331 46.163337
-25.028261 -80.629704 49.916449
-25.358891 -79.763188 50.997408
-52.77776 -69.928116 47.910296
-52.054046 -70.445263 47.973078
-52.290943 -69.311596 48.265499
-26.592652 -77.781391 52.459953
-26.000894 -77.974037 52.89522
-28.132976 -81.520756 48.336178
-27.474978 -81.496392 48.420313
-27.687202 -80.507199 49.346052
-40.343864 -90.915039 44.38599
-40.579731 -89.835518 45.3792
-41.098011 -90.292305 44.432541
-40.145559 -92.019959 43.289831
-39.627279 -91.563172 44.23649
-40.343864 -90.915039 44.38599
-48.899676 -78.591381 36.594225
-49.583476 -77.98328 37.324692
-35.214523 -70.033817 49.028073
-35.455702 -68.749859 48.945463
-35.801947 -71.150925 48.821122
-34.988096 -71.362454 49.195206
-35.214523 -70.033817 49.028073
-45.453035 -85.394272 40.614267
-44.896261 -86.31417 41.054077
-45.251865 -85.478523 41.92518
-31.502749 -74.681713 50.773992
-31.736848 -73.414669 50.82576
-32.186784 -74.493736 50.320646
-31.258402 -75.888763 50.589381
-30.808466 -74.809697 51.094494
-31.502749 -74.681713 50.773992
-29.626335 -84.96302 45.870705
-29.106599 -83.761773 46.602495
-29.810678 -83.946747 46.900842
-33.316249 -90.248353 43.951645
-33.910854 -91.435669 43.20542
-32.737871 -89.04937 44.553595
-33.475447 -89.136544 45.121084
-33.316249 -90.248353 43.951645
-32.164479 -87.797027 45.253256
-32.737871 -89.04937 44.553595
-55.258949 -60.072231 50.493336
-54.608127 -60.380693 50.354192
-55.717958 -60.609471 50.315269
-55.258949 -60.072231 50.493336
-55.831858 -59.610889 50.554508
-55.637932 -61.59637 49.958285
-55.717958 -60.609471 50.315269
-51.095894 -76.976315 41.164803
-51.090423 -77.012489 42.323404
-42.004616 -64.632996 47.321285
-41.093801 -64.846678 47.35358
-42.813361 -65.725719 47.434011
-42.004616 -64.632996 47.321285
-42.949515 -64.418057 47.377168
-50.805399 -76.669438 45.356417
-50.588699 -76.376331 46.163337
-50.950468 -76.86633 44.434404
-50.239575 -77.57695 44.923935
-50.805399 -76.669438 45.356417
-51.052433 -76.988018 43.427736
-50.950468 -76.86633 44.434404
-51.090423 -77.012489 42.323404
-50.422635 -77.798313 42.897591
-51.052433 -76.988018 43.427736
-25.433538 -81.419056 48.553293
-26.129136 -81.433307 48.514149
-54.017001 -65.953647 48.820854
-53.488551 -65.335941 49.117718
-54.146393 -64.799453 49.126297
-53.85015 -67.066502 48.417169
-54.017001 -65.953647 48.820854
-53.677898 -68.218659 48.112391
-53.186907 -67.642292 48.507496
-53.85015 -67.066502 48.417169
-53.45223 -69.31876 47.709757
-53.677898 -68.218659 48.112391
-27.818742 -75.695851 53.463505
-28.367484 -75.4687 52.899912
-27.487963 -76.685482 52.83663
-27.818742 -75.695851 53.463505
-27.804993 -77.543827 51.771824
-27.217765 -77.698402 52.188898
-27.487963 -76.685482 52.83663
-41.780838 -89.533066 44.407246
-42.061113 -88.496231 45.311818
-42.508073 -88.816513 44.293312
-41.098011 -90.292305 44.432541
-41.780838 -89.533066 44.407246
-35.677223 -67.44529 48.815742
-35.920299 -66.188252 48.788528
-36.249895 -68.517719 48.524268
-35.455702 -68.749859 48.945463
-35.677223 -67.44529 48.815742
-46.439049 -83.461342 39.608637
-45.905415 -84.397278 40.136712
-46.342274 -83.622688 40.957296
-46.439049 -83.461342 39.608637
-46.88059 -82.459365 39.05661
-33.174845 -73.040775 49.987337
-32.669121 -71.957927 50.362293
-33.423082 -71.77201 49.977217
-54.491375 -61.487449 50.122001
-53.954453 -60.797331 50.222097
-54.608127 -60.380693 50.354192
-54.802412 -64.312862 49.212081
-54.146393 -64.799453 49.126297
-54.273962 -63.695156 49.508945
-54.802412 -64.312862 49.212081
-55.412408 -63.718212 49.183141
-29.545972 -75.128944 51.962988
-28.9712 -75.336189 52.50658
-50.258984 -77.306243 37.994816
-49.583476 -77.98328 37.324692
-49.689864 -78.241383 38.649212
-51.048268 -76.847095 39.927841
-50.412999 -77.693565 40.556297
-51.095894 -76.976315 41.164803
-50.981083 -76.672943 38.665077
-51.048268 -76.847095 39.927841
-50.874695 -76.41484 37.340557
-50.258984 -77.306243 37.994816
-50.981083 -76.672943 38.665077
-38.37355 -65.484863 47.734238
-37.543442 -65.717949 48.042786
-39.092579 -66.567414 47.641091
-38.37355 -65.484863 47.734238
-39.279255 -65.275101 47.567597
-40.933373 -66.149155 47.426288
-40.158712 -65.055174 47.401741
-41.093801 -64.846678 47.35358
-49.928497 -73.79258 47.943033
-50.262377 -72.657811 48.116286
-50.732073 -73.298679 47.795231
-49.584041 -74.965343 47.871643
-49.114345 -74.324475 48.192698
-49.928497 -73.79258 47.943033
-49.979385 -75.52721 47.429375
-50.321735 -75.996788 46.85875
-49.165233 -76.059105 47.679039
-49.584041 -74.965343 47.871643
-49.979385 -75.52721 47.429375
-25.028261 -80.629704 49.916449
-25.433538 -81.419056 48.553293
-37.216871 -94.011444 41.995666
-37.851235 -94.718254 41.060082
-51.803408 -71.612847 47.793178
-51.316591 -70.996327 48.148382
-52.054046 -70.445263 47.973078
-51.48424 -72.713112 47.511268
-51.803408 -71.612847 47.793178
-52.77776 -69.928116 47.910296
-53.45223 -69.31876 47.709757
-25.64815 -78.86015 51.975493
-26.000894 -77.974037 52.89522
-25.99531 -79.625763 50.688118
-25.358891 -79.763188 50.997408
-25.64815 -78.86015 51.975493
-26.909682 -78.639736 51.395148
-26.592652 -77.781391 52.459953
-27.217765 -77.698402 52.188898
-26.790712 -81.410324 48.374225
-26.129136 -81.433307 48.514149
-26.367627 -80.505818 49.57011
-26.790712 -81.410324 48.374225
-27.474978 -81.496392 48.420313
-39.993688 -93.045379 42.087339
-40.145559 -92.019959 43.289831
-39.303213 -93.709328 41.826712
-39.993688 -93.045379 42.087339
-38.567438 -94.213707 41.500046
-38.693199 -93.17247 42.813665
-39.303213 -93.709328 41.826712
-37.851235 -94.718254 41.060082
-38.567438 -94.213707 41.500046
-48.405905 -79.577401 37.228296
-47.865022 -80.51923 37.861536
-48.473472 -79.860248 38.612327
-48.405905 -79.577401 37.228296
-48.899676 -78.591381 36.594225
-34.164739 -71.550102 49.502209
-33.423082 -71.77201 49.977217
-34.752163 -72.667209 49.295258
-34.164739 -71.550102 49.502209
-34.988096 -71.362454 49.195206
-37.329145 -66.995163 48.10114
-36.685712 -65.935936 48.336194
-37.543442 -65.717949 48.042786
-43.840114 -87.195984 43.848056
-43.147398 -87.978447 44.107092
-43.481065 -86.997215 44.938849
-44.100769 -87.287819 42.690645
-43.840114 -87.195984 43.848056
-44.434437 -86.306587 43.522402
-44.409555 -87.293518 41.431212
-44.100769 -87.287819 42.690645
-44.409555 -87.293518 41.431212
-44.896261 -86.31417 41.054077
-45.453035 -85.394272 40.614267
-45.905415 -84.397278 40.136712
-43.178633 -61.815973 47.376156
-43.064469 -63.110598 47.349518
-44.082847 -61.597441 47.478638
-43.178633 -61.815973 47.376156
-45.0023 -61.374531 47.65905
-44.907619 -62.672953 47.615005
-44.082847 -61.597441 47.478638
-45.910103 -61.155413 47.862726
-45.0023 -61.374531 47.65905
-46.810906 -60.918043 48.111952
-46.727874 -62.212674 48.044643
-45.910103 -61.155413 47.862726
-47.709435 -60.69393 48.387833
-46.810906 -60.918043 48.111952
-48.580437 -60.437443 48.676388
-48.499679 -61.718817 48.582424
-47.709435 -60.69393 48.387833
-49.459343 -60.205933 48.991846
-48.580437 -60.437443 48.676388
-50.292137 -59.928202 49.288739
-50.203476 -61.184599 49.167872
-49.459343 -60.205933 48.991846
-51.142426 -59.690182 49.608643
-50.292137 -59.928202 49.288739
-51.929428 -59.392691 49.882658
-51.823273 -60.609377 49.738779
-51.142426 -59.690182 49.608643
-52.74106 -59.154425 50.170094
-51.929428 -59.392691 49.882658
-53.34074 -60.001231 50.233541
-52.74106 -59.154425 50.170094
-32.002023 -72.193554 50.925095
-32.669121 -71.957927 50.362293
-32.002023 -72.193554 50.925095
-31.736848 -73.414669 50.82576
-30.18672 -75.004375 51.601483
-30.808466 -74.809697 51.094494
-29.923371 -76.141315 51.271388
-29.545972 -75.128944 51.962988
-30.18672 -75.004375 51.601483
-28.605846 -82.627724 47.521536
-28.132976 -81.520756 48.336178
-28.818071 -81.638531 48.447275
-28.605846 -82.627724 47.521536
-29.106599 -83.761773 46.602495
-36.615634 -93.248077 42.831062
-37.356188 -92.913483 43.322395
-37.216871 -94.011444 41.995666
-36.00007 -92.329857 43.643568
-36.615634 -93.248077 42.831062
-35.410899 -91.368004 44.322418
-36.165779 -91.188263 44.836641
-36.00007 -92.329857 43.643568
-34.649507 -91.422562 43.82424
-33.910854 -91.435669 43.20542
-34.815216 -90.280968 45.017313
-35.410899 -91.368004 44.322418
-34.649507 -91.422562 43.82424
-31.602555 -86.54869 45.805134
-32.335144 -86.689224 46.274912
-32.164479 -87.797027 45.253256
-30.881152 -86.402244 45.476265
-31.051817 -85.294441 46.497921
-31.602555 -86.54869 45.805134
-30.165535 -86.187645 45.014187
-30.881152 -86.402244 45.476265
-29.626335 -84.96302 45.870705
-30.165535 -86.187645 45.014187
3 0 158 160
3 158 43 159
3 158 159 160
3 1 47 45
3 2 50 48
3 4 161 163
3 161 52 162
3 161 162 163
3 4 54 52
3 165 164 55
3 6 166 167
3 168 57 169
3 8 60 58
3 8 62 60
3 3 65 63
3 9 68 66
3 9 70 68
3 9 72 70
3 6 75 73
3 6 170 172
3 172 171 75
3 170 171 172
3 7 78 76
3 10 81 79
3 10 83 81
3 5 86 84
3 173 89 174
3 175 174 87
3 173 174 175
3 176 90 177
3 178 177 41
3 176 177 178
3 180 179 90
3 12 93 91
3 181 95 182
3 14 96 42
3 14 97 96
3 184 183 98
3 16 185 187
3 185 100 186
3 185 186 187
3 16 101 100
3 16 103 101
3 12 104 44
3 12 91 104
3 18 188 189
3 19 107 105
3 21 108 46
3 21 109 108
3 22 112 110
3 24 113 49
3 24 114 113
3 11 115 88
3 25 116 51
3 25 117 116
3 25 190 192
3 192 191 117
3 190 191 192
3 193 118 194
3 26 119 53
3 26 195 197
3 197 196 119
3 195 196 197
3 27 122 120
3 198 123 199
3 200 199 56
3 198 199 200
3 201 124 202
3 203 202 123
3 201 202 203
3 205 204 92
3 29 206 207
3 29 208 210
3 208 125 209
3 208 209 210
3 13 126 94
3 30 127 59
3 30 128 127
3 30 129 128
3 31 130 61
3 31 131 130
3 23 132 111
3 32 133 64
3 32 134 133
3 15 135 99
3 33 136 67
3 33 137 136
3 33 138 137
3 34 139 69
3 34 140 139
3 34 141 140
3 35 142 71
3 35 143 142
3 17 144 102
3 36 145 74
3 36 146 145
3 36 211 213
3 213 212 146
3 211 212 213
3 37 214 216
3 216 215 77
3 214 215 216
3 37 217 219
3 217 147 218
3 217 218 219
3 20 148 106
3 38 149 80
3 38 150 149
3 38 151 150
3 39 152 82
3 39 220 222
3 222 221 152
3 220 221 222
3 28 153 121
3 40 154 85
3 40 155 154
3 223 156 224
3 225 157 226
3 227 226 156
3 225 226 227
3 229 228 157
3 230 41 231
3 232 41 233
3 232 233 234
3 236 235 41
3 238 237 12
3 239 42 240
3 43 241 243
3 241 42 242
3 241 242 243
3 43 14 42
3 244 16 245
3 246 44 247
3 248 247 16
3 246 247 248
3 249 44 250
3 251 12 252
3 253 252 44
3 251 252 253
3 255 254 18
3 45 46 19
3 47 46 45
3 47 21 46
3 48 49 22
3 50 49 48
3 50 24 49
3 256 51 257
3 258 257 11
3 256 257 258
3 259 51 260
3 261 25 262
3 263 262 51
3 261 262 263
3 265 264 25
3 52 266 267
3 52 268 269
3 52 270 272
3 270 53 271
3 270 271 272
3 54 53 52
3 54 26 53
3 55 56 27
3 273 56 274
3 275 274 55
3 273 274 275
3 277 276 56
3 57 278 279
3 57 280 282
3 280 29 281
3 280 281 282
3 58 59 13
3 60 59 58
3 60 30 59
3 60 61 30
3 62 61 60
3 62 31 61
3 63 64 23
3 65 64 63
3 65 32 64
3 66 67 15
3 68 67 66
3 68 33 67
3 68 69 33
3 70 69 68
3 70 34 69
3 70 71 34
3 72 71 70
3 72 35 71
3 73 74 17
3 75 74 73
3 75 36 74
3 75 283 285
3 285 284 36
3 283 284 285
3 287 286 75
3 76 288 290
3 288 77 289
3 288 289 290
3 78 77 76
3 78 37 77
3 79 80 20
3 81 80 79
3 81 38 80
3 81 82 38
3 83 82 81
3 83 39 82
3 84 85 28
3 86 85 84
3 86 40 85
3 87 88 2
3 89 88 87
3 89 11 88
3 41 291 293
3 291 89 292
3 291 292 293
3 90 89 41
3 90 11 89
3 90 294 296
3 296 295 11
3 294 295 296
3 298 297 90
3 299 4 300
3 91 92 6
3 93 92 91
3 93 301 303
3 303 302 92
3 301 302 303
3 304 93 305
3 306 305 12
3 304 305 306
3 307 93 308
3 311 310 93
3 309 310 311
3 312 94 313
3 95 314 316
3 314 94 315
3 314 315 316
3 95 13 94
3 42 317 319
3 317 95 318
3 317 318 319
3 96 95 42
3 96 13 95
3 96 58 13
3 97 58 96
3 97 8 58
3 98 99 3
3 320 99 321
3 322 321 98
3 320 321 322
3 323 15 324
3 325 324 99
3 323 324 325
3 100 326 327
3 100 328 330
3 328 15 329
3 328 329 330
3 100 66 15
3 101 66 100
3 101 9 66
3 101 102 9
3 103 102 101
3 103 17 102
3 44 103 16
3 104 103 44
3 104 17 103
3 104 73 17
3 91 73 104
3 91 6 73
3 332 331 18
3 105 106 7
3 107 106 105
3 107 20 106
3 46 107 19
3 108 107 46
3 108 20 107
3 108 79 20
3 109 79 108
3 109 10 79
3 334 333 5
3 110 111 0
3 112 111 110
3 112 23 111
3 49 112 22
3 113 112 49
3 113 23 112
3 113 63 23
3 114 63 113
3 114 3 63
3 88 50 2
3 115 50 88
3 115 24 50
3 51 115 11
3 116 115 51
3 116 24 115
3 116 114 24
3 117 114 116
3 117 3 114
3 117 98 3
3 335 98 336
3 337 336 117
3 335 336 337
3 339 338 98
3 341 340 25
3 118 342 343
3 118 344 346
3 344 18 345
3 344 345 346
3 53 347 349
3 347 118 348
3 347 348 349
3 119 118 53
3 119 18 118
3 119 350 352
3 352 351 18
3 350 351 352
3 354 353 119
3 120 121 1
3 122 121 120
3 122 28 121
3 56 122 27
3 123 122 56
3 123 28 122
3 123 84 28
3 124 84 123
3 124 5 84
3 355 124 356
3 357 124 358
3 359 5 360
3 361 360 124
3 359 360 361
3 363 362 5
3 92 364 366
3 366 365 6
3 364 365 366
3 368 367 92
3 369 76 370
3 125 371 373
3 371 76 372
3 371 372 373
3 125 7 76
3 94 374 376
3 374 57 375
3 374 375 376
3 126 57 94
3 126 29 57
3 59 126 13
3 127 126 59
3 127 29 126
3 127 125 29
3 128 125 127
3 128 7 125
3 128 105 7
3 129 105 128
3 129 19 105
3 61 129 30
3 130 129 61
3 130 19 129
3 130 45 19
3 131 45 130
3 131 1 45
3 111 43 0
3 132 43 111
3 132 14 43
3 64 132 23
3 133 132 64
3 133 14 132
3 133 97 14
3 134 97 133
3 134 8 97
3 99 65 3
3 135 65 99
3 135 32 65
3 67 135 15
3 136 135 67
3 136 32 135
3 136 134 32
3 137 134 136
3 137 8 134
3 137 62 8
3 138 62 137
3 138 31 62
3 69 138 33
3 139 138 69
3 139 31 138
3 139 131 31
3 140 131 139
3 140 1 131
3 140 120 1
3 141 120 140
3 141 27 120
3 71 141 34
3 142 141 71
3 142 27 141
3 142 55 27
3 143 55 142
3 143 377 379
3 379 378 55
3 377 378 379
3 102 72 9
3 144 72 102
3 144 35 72
3 74 144 17
3 145 144 74
3 145 35 144
3 145 143 35
3 146 143 145
3 146 380 382
3 382 381 143
3 380 381 382
3 146 383 384
3 386 385 146
3 388 387 36
3 389 0 390
3 391 0 392
3 393 110 394
3 395 394 0
3 393 394 395
3 396 110 397
3 398 22 399
3 400 399 110
3 398 399 400
3 401 22 402
3 403 48 404
3 405 404 22
3 403 404 405
3 406 48 407
3 408 2 409
3 410 409 48
3 408 409 410
3 411 2 412
3 413 87 414
3 415 414 2
3 413 414 415
3 416 87 417
3 419 418 87
3 77 420 421
3 423 422 77
3 147 424 425
3 147 426 428
3 426 4 427
3 426 427 428
3 106 78 7
3 148 78 106
3 148 37 78
3 80 148 20
3 149 148 80
3 149 37 148
3 149 147 37
3 150 147 149
3 150 4 147
3 150 54 4
3 151 54 150
3 151 26 54
3 82 151 38
3 152 151 82
3 152 26 151
3 152 429 431
3 431 430 26
3 429 430 431
3 433 432 152
3 121 47 1
3 153 47 121
3 153 21 47
3 85 153 28
3 154 153 85
3 154 21 153
3 154 109 21
3 155 109 154
3 155 10 109
3 434 86 435
3 436 435 5
3 434 435 436
3 437 86 438
3 439 40 440
3 441 440 86
3 439 440 441
3 156 442 443
3 156 444 446
3 444 40 445
3 444 445 446
3 156 155 40
3 157 155 156
3 157 10 155
3 157 83 10
3 447 83 448
3 449 448 157
3 447 448 449
3 450 39 451
3 452 451 83
3 450 451 452
3 453 39 454
3 456 455 39
