ply
format ascii 1.0
element vertex 347
property float x
property float y
property float z
element face 376
property list uchar int vertex_index
end_header
-14.840504 39.044949 62.182808
-4.675161 21.324471 78.425797
-19.240301 43.12989 52.385033
-21.739716 29.059074 60.244938
-16.564098 57.416904 44.157555
-11.650793 54.309956 53.778416
-6.967007 48.065495 63.151062
-16.339737 23.700584 68.508224
-9.753672 32.125088 71.574371
-20.36413 52.171185 44.212738
-17.052246 41.170166 57.145611
-15.469443 48.636868 53.042202
-13.332783 46.703075 58.169682
-9.361767 51.769917 58.703606
-11.020981 44.021069 63.139236
-19.069199 19.265789 66.411346
-10.700993 23.948143 74.913849
-7.111702 27.108299 75.484428
-5.918295 35.220776 71.541183
-3.656832 29.337387 74.657967
-21.684612 45.413319 48.316948
-20.715305 36.001476 56.505543
-18.313547 33.818649 60.953278
-17.729748 50.364147 48.27256
-13.97278 56.064701 48.771648
-18.979015 26.553875 64.127762
-15.874088 31.387791 65.689285
-13.801874 20.117889 73.150116
-13.327515 28.149254 70.435669
-12.397173 36.132339 67.072052
-8.473114 40.197601 67.637665
-15.966969 40.170383 59.660179
-15.219249 43.943062 57.666035
-14.130853 42.874306 60.22797
-12.210562 45.488239 60.700447
-12.980932 41.610218 62.743214
-7.623854 23.018639 77.194977
-5.857664 24.297901 77.107025
-5.314407 28.352776 75.257645
-4.18063 25.345512 76.650787
-21.304262 32.511078 58.457813
-19.510475 34.89674 58.674236
-20.009991 31.342178 60.491917
-14.732889 60.27383 44.20005
-20.41683 44.219082 50.250393
-19.666733 47.752224 48.181389
-18.462198 46.748142 50.318314
-13.580517 51.508564 53.459827
-14.685382 52.372295 50.932686
-12.791397 55.257572 51.25293
-12.085489 58.940456 48.950336
-10.864468 58.042744 51.426556
-9.682203 56.934078 53.892632
-8.175152 50.077419 61.00156
-7.346722 53.894924 58.56588
-17.708683 21.45089 67.437187
-19.081619 22.91803 65.385223
-17.643545 25.204079 66.264946
-17.450085 28.94339 64.883789
-16.173943 27.550526 67.192566
-10.273539 28.042198 73.323662
-12.020723 26.163353 72.729568
-11.607494 30.224201 71.132721
-12.922161 32.150352 68.830841
-11.089653 34.267361 69.382034
-10.472343 38.282745 67.487244
-9.149731 36.181381 69.676315
-4.141563 36.338036 70.999817
-5.271643 39.201405 69.32901
-3.546581 40.226154 68.613617
-18.428881 54.686268 44.128777
-18.130398 42.130783 54.699787
-17.343182 45.807606 52.644558
-16.276241 44.894199 55.115429
-14.406911 47.728062 55.595318
-12.489809 50.521183 56.020428
-10.516706 53.16608 56.28167
-11.375002 49.344379 58.546688
-10.210815 47.917217 60.983646
-8.99283 46.19614 63.2953
-16.397552 19.838318 69.636436
-8.93956 25.630093 75.362572
-8.418335 29.728127 73.621964
-7.825897 33.804474 71.721626
-6.537117 31.183224 73.596085
-4.736071 32.374043 73.218033
-3.124985 33.272285 72.458405
-22.452724 41.983284 50.447624
-21.196209 40.695854 52.360172
-21.949106 37.209682 54.481735
-20.010223 39.54174 54.460712
-18.870214 38.491096 56.724365
-17.745728 37.478085 59.105507
-16.606293 36.416103 61.551064
-20.976265 48.822857 46.244591
-18.993053 51.256138 46.150719
-17.087086 53.935635 46.231789
-16.563972 49.498753 50.581085
-15.844123 53.16901 48.506454
-15.224787 56.77557 46.394001
-13.369875 59.672771 46.525284
-8.514334 55.565403 56.288403
-20.548042 20.750362 64.629562
-20.516953 24.286842 63.505241
-20.345577 27.812 62.118172
-18.727467 30.182343 62.641491
-17.105663 32.676941 63.303822
-15.428228 35.217247 64.011841
-15.062918 22.008125 70.8209
-12.329811 22.097076 74.163445
-13.616894 24.135193 71.876984
-14.896956 25.954521 69.536682
-14.614008 29.889355 68.077042
-14.199728 33.810005 66.448448
-13.651785 37.716816 64.664703
-11.758228 40.09074 65.171082
-9.767183 42.261703 65.456726
-7.738974 44.162281 65.462891
-7.176311 37.840908 69.671295
-6.48431 41.821987 67.47728
-5.766165 45.735371 65.141006
-5.266412 22.811186 77.766411
-6.100528 22.26699 77.931492
-5.509276 20.780276 78.590878
-3.912699 21.756304 78.070031
-3.665433 23.766824 77.182525
-4.427895 23.334992 77.538292
-21.521989 30.785076 59.351376
-22.230621 31.444744 58.482079
-22.448349 29.718742 59.375641
-16.369511 59.090839 43.078377
-17.277585 57.708286 43.11307
-15.648494 58.845367 44.178803
-15.453906 60.519302 43.099624
-16.369511 59.090839 43.078377
-6.57455 49.981609 61.922584
-7.178623 50.987572 60.847834
-7.571079 49.071457 62.076311
-6.003921 48.818359 62.904325
-6.57455 49.981609 61.922584
-3.07406 38.677063 69.340142
-3.844072 38.282095 69.806717
-3.37155 36.733004 70.533242
-2.822968 40.557873 68.055474
-3.07406 38.677063 69.340142
-20.116166 53.794556 43.19709
-20.853962 54.253605 42.300245
-21.101926 52.630234 43.315893
-19.396505 53.428726 44.170758
-19.148542 55.052098 43.155109
-20.116166 53.794556 43.19709
-16.390689 17.905704 70.115566
-17.040565 18.761158 69.02412
-2.94818 29.68943 74.159775
-2.682256 31.656879 73.059994
-3.390909 31.304836 73.558186
-22.841825 40.274742 51.535434
-23.513927 41.028013 50.687233
-22.213568 39.631027 52.491709
-21.824466 41.339569 51.403898
-22.841825 40.274742 51.535434
-21.332206 36.605579 55.493639
-22.283982 35.4908 55.519262
-21.667082 34.886697 56.531166
-21.330438 47.118088 47.280769
-22.016213 47.756862 46.406734
-22.370386 46.052093 47.442913
-11.791716 60.729614 47.732828
-11.129497 60.313793 48.942959
-6.945843 55.764763 57.268217
-6.380422 54.771549 58.321278
-19.80862 20.008076 65.520454
-20.516042 18.973119 65.065628
-19.776621 18.230833 65.95652
-14.468846 19.088296 72.541912
-13.851012 18.115225 73.704319
-14.432396 21.063007 71.985508
-15.099367 20.033414 71.377304
-14.468846 19.088296 72.541912
-11.515402 23.02261 74.538647
-11.680089 20.978668 75.248906
-10.86568 21.904201 75.624108
-5.548369 42.465899 67.221233
-5.877976 40.511696 68.403145
-4.942035 41.155608 68.147098
-5.189296 44.42259 66.053097
-6.125237 43.778679 66.309143
-5.548369 42.465899 67.221233
-4.86109 46.33519 64.795532
-5.189296 44.42259 66.053097
-21.380266 51.053158 44.346237
-21.101926 52.630234 43.315893
-6.983622 21.62736 77.975468
-7.838885 20.978417 77.955856
-6.740759 23.65827 77.151001
-6.983622 21.62736 77.975468
-6.100528 22.26699 77.931492
-3.43845 25.74415 76.228832
-3.176551 27.740088 75.232422
-3.918731 27.341449 75.654377
-3.43845 25.74415 76.228832
-3.665433 23.766824 77.182525
-21.96156 33.141498 57.507301
-22.230621 31.444744 58.482079
-21.009784 34.256277 57.481678
-21.667082 34.886697 56.531166
-21.96156 33.141498 57.507301
-14.556542 61.948135 43.037269
-15.453906 60.519302 43.099624
-13.816827 61.714267 44.174533
-13.64048 63.388572 43.011753
-14.556542 61.948135 43.037269
-10.518986 59.864937 50.181068
-11.129497 60.313793 48.942959
-11.474979 58.4916 50.188446
-9.890668 59.332848 51.391232
-10.518986 59.864937 50.181068
-9.299535 58.778515 52.624269
-9.890668 59.332848 51.391232
-10.273335 57.488411 52.659594
-8.696971 58.109375 53.805307
-9.299535 58.778515 52.624269
-6.764407 52.896324 59.629993
-7.760937 51.986171 59.78372
-7.178623 50.987572 60.847834
-6.380422 54.771549 58.321278
-6.764407 52.896324 59.629993
-13.170921 19.079359 74.289261
-13.851012 18.115225 73.704319
-4.079504 41.667982 67.789402
-4.942035 41.155608 68.147098
-4.409112 39.71378 68.971314
-3.255684 42.12595 67.340126
-4.079504 41.667982 67.789402
-3.255684 42.12595 67.340126
-2.822968 40.557873 68.055474
-22.635963 28.036386 60.244947
-22.448349 29.718742 59.375641
-18.209976 56.342968 43.098681
-19.148542 55.052098 43.155109
-17.49649 56.051586 44.143166
-17.277585 57.708286 43.11307
-18.209976 56.342968 43.098681
-19.030276 17.43282 66.822525
-19.776621 18.230833 65.95652
-19.737699 16.397863 66.367699
-18.376389 18.474894 67.411575
-19.030276 17.43282 66.822525
-17.696131 19.567444 67.924496
-18.388941 20.358339 66.924266
-18.376389 18.474894 67.411575
-17.053117 20.644604 68.536811
-17.696131 19.567444 67.924496
-17.040565 18.761158 69.02412
-10.038419 22.739302 75.922818
-10.86568 21.904201 75.624108
-8.499849 22.274549 77.063381
-7.838885 20.978417 77.955856
-9.157702 23.580277 76.147179
-8.499849 22.274549 77.063381
-8.281707 24.324366 76.278774
-9.820277 24.789118 75.13821
-10.038419 22.739302 75.922818
-9.157702 23.580277 76.147179
-2.863262 35.200128 71.262535
-3.37155 36.733004 70.533242
-3.633274 34.80516 71.729111
-2.460884 33.565117 71.876046
-2.863262 35.200128 71.262535
-2.460884 33.565117 71.876046
-2.682256 31.656879 73.059994
-2.94818 29.68943 74.159775
-3.176551 27.740088 75.232422
-22.740087 44.402647 48.516825
-22.370386 46.052093 47.442913
-23.124142 42.687629 49.582163
-23.513927 41.028013 50.687233
-22.068668 43.698301 49.382286
-22.740087 44.402647 48.516825
-23.124142 42.687629 49.582163
-22.955902 36.195966 54.639133
-22.283982 35.4908 55.519262
-22.590017 37.887941 53.55249
-22.955902 36.195966 54.639133
-21.572657 38.952768 53.420953
-22.213568 39.631027 52.491709
-22.590017 37.887941 53.55249
-4.89478 19.314532 79.202141
-5.509276 20.780276 78.590878
-4.126855 19.766976 78.901932
-4.89478 19.314532 79.202141
-21.686333 49.378994 45.362164
-22.016213 47.756862 46.406734
-20.670198 50.497021 45.228665
-21.380266 51.053158 44.346237
-21.686333 49.378994 45.362164
-13.13532 61.413738 45.33715
-13.816827 61.714267 44.174533
-14.051382 59.9733 45.362667
-12.433909 61.095771 46.520302
-12.727682 59.306613 47.73781
-11.791716 60.729614 47.732828
-13.13532 61.413738 45.33715
-12.433909 61.095771 46.520302
-8.113036 57.425038 55.003193
-8.696971 58.109375 53.805307
-9.098268 56.249741 55.090518
-7.529649 56.600003 56.129479
-7.930528 54.730164 57.427142
-6.945843 55.764763 57.268217
-8.113036 57.425038 55.003193
-7.529649 56.600003 56.129479
-21.872635 27.342548 61.021527
-22.635963 28.036386 60.244947
-21.319954 19.746315 64.335613
-20.516042 18.973119 65.065628
-21.329656 21.471002 63.849007
-22.101568 20.466955 63.555058
-21.319954 19.746315 64.335613
-21.314111 23.239242 63.286846
-21.329656 21.471002 63.849007
-20.532497 22.518602 64.067402
-21.261254 24.956432 62.651678
-21.314111 23.239242 63.286846
-21.175565 26.719011 61.958144
-21.261254 24.956432 62.651678
-20.431265 26.049421 62.811706
-21.042647 28.435537 61.181555
-21.872635 27.342548 61.021527
-21.175565 26.719011 61.958144
-15.766685 18.948511 70.785072
-16.390689 17.905704 70.115566
-15.730235 20.923222 70.228668
-15.766685 18.948511 70.785072
-15.099367 20.033414 71.377304
-12.434889 20.068953 74.795925
-11.680089 20.978668 75.248906
-13.065842 21.107483 73.65678
-13.170921 19.079359 74.289261
-12.434889 20.068953 74.795925
-5.4035 47.653298 63.899298
-6.003921 48.818359 62.904325
-6.366586 46.900433 64.146034
-5.4035 47.653298 63.899298
-4.86109 46.33519 64.795532
-3.912699 21.756304 78.070031
-4.126855 19.766976 78.901932
3 0 33 31
3 0 35 33
3 1 121 123
3 121 37 122
3 121 122 123
3 1 39 37
3 1 124 126
3 126 125 39
3 124 125 126
3 3 127 129
3 127 40 128
3 127 128 129
3 3 42 40
3 4 130 131
3 4 132 134
3 132 43 133
3 132 133 134
3 2 46 44
3 5 49 47
3 5 51 49
3 5 52 51
3 6 135 137
3 137 136 53
3 135 136 137
3 6 138 139
3 7 57 55
3 7 59 57
3 8 62 60
3 8 64 62
3 8 66 64
3 140 69 141
3 142 141 67
3 140 141 142
3 144 143 69
3 9 145 147
3 145 146 147
3 9 148 150
3 148 70 149
3 148 149 150
3 10 73 71
3 12 74 32
3 12 75 74
3 12 77 75
3 14 78 34
3 14 79 78
3 151 80 152
3 17 81 36
3 17 82 81
3 17 84 82
3 19 85 38
3 19 86 85
3 19 153 155
3 155 154 86
3 153 154 155
3 156 87 157
3 158 88 159
3 160 159 87
3 158 159 160
3 21 161 163
3 161 89 162
3 161 162 163
3 21 90 89
3 21 91 90
3 22 92 41
3 22 93 92
3 20 164 166
3 164 94 165
3 164 165 166
3 23 95 45
3 23 96 95
3 11 97 72
3 24 98 48
3 24 99 98
3 24 100 99
3 168 167 50
3 13 101 76
3 170 169 54
3 15 171 173
3 171 102 172
3 171 172 173
3 25 103 56
3 25 104 103
3 25 105 104
3 26 106 58
3 26 107 106
3 27 174 175
3 27 176 178
3 176 108 177
3 176 177 178
3 16 179 181
3 179 109 180
3 179 180 181
3 28 110 61
3 28 111 110
3 28 112 111
3 29 113 63
3 29 114 113
3 29 115 114
3 30 116 65
3 30 117 116
3 18 118 83
3 182 119 183
3 184 183 68
3 182 183 184
3 185 120 186
3 187 186 119
3 185 186 187
3 189 188 120
3 190 9 191
3 31 32 10
3 33 32 31
3 33 12 32
3 33 34 12
3 35 34 33
3 35 14 34
3 192 36 193
3 37 194 196
3 194 36 195
3 194 195 196
3 37 17 36
3 37 38 17
3 39 38 37
3 39 19 38
3 39 197 199
3 199 198 19
3 197 198 199
3 201 200 39
3 40 202 203
3 40 204 206
3 204 21 205
3 204 205 206
3 40 41 21
3 42 41 40
3 42 22 41
3 43 207 208
3 43 209 211
3 209 210 211
3 44 45 20
3 46 45 44
3 46 23 45
3 47 48 11
3 49 48 47
3 49 24 48
3 49 50 24
3 51 50 49
3 51 212 214
3 214 213 50
3 212 213 214
3 51 215 216
3 52 217 219
3 219 218 51
3 217 218 219
3 52 220 221
3 53 54 13
3 222 54 223
3 224 223 53
3 222 223 224
3 226 225 54
3 55 56 15
3 57 56 55
3 57 25 56
3 57 58 25
3 59 58 57
3 59 26 58
3 227 27 228
3 60 61 16
3 62 61 60
3 62 28 61
3 62 63 28
3 64 63 62
3 64 29 63
3 64 65 29
3 66 65 64
3 66 30 65
3 67 68 18
3 69 68 67
3 69 229 231
3 231 230 68
3 229 230 231
3 69 232 233
3 235 234 69
3 236 3 237
3 70 238 239
3 70 240 242
3 240 4 241
3 240 241 242
3 71 72 2
3 73 72 71
3 73 11 72
3 32 73 10
3 74 73 32
3 74 11 73
3 74 47 11
3 75 47 74
3 75 5 47
3 75 76 5
3 77 76 75
3 77 13 76
3 34 77 12
3 78 77 34
3 78 13 77
3 78 53 13
3 79 53 78
3 79 6 53
3 243 15 244
3 243 244 245
3 246 15 247
3 248 55 249
3 250 249 15
3 248 249 250
3 80 251 253
3 251 55 252
3 251 252 253
3 80 7 55
3 254 16 255
3 36 256 257
3 81 258 260
3 260 259 36
3 258 259 260
3 81 261 263
3 261 16 262
3 261 262 263
3 81 60 16
3 82 60 81
3 82 8 60
3 82 83 8
3 84 83 82
3 84 18 83
3 38 84 17
3 85 84 38
3 85 18 84
3 85 67 18
3 86 67 85
3 86 264 266
3 266 265 67
3 264 265 266
3 86 267 268
3 270 269 86
3 272 271 19
3 273 20 274
3 87 275 276
3 87 277 279
3 277 20 278
3 277 278 279
3 87 44 20
3 88 44 87
3 88 2 44
3 89 280 281
3 89 282 283
3 89 284 286
3 284 88 285
3 284 285 286
3 90 88 89
3 90 2 88
3 90 71 2
3 91 71 90
3 91 10 71
3 41 91 21
3 92 91 41
3 92 10 91
3 92 31 10
3 93 31 92
3 93 0 31
3 287 1 288
3 290 289 1
3 94 291 292
3 94 293 295
3 293 9 294
3 293 294 295
3 45 94 20
3 95 94 45
3 95 9 94
3 95 70 9
3 96 70 95
3 96 4 70
3 72 46 2
3 97 46 72
3 97 23 46
3 48 97 11
3 98 97 48
3 98 23 97
3 98 96 23
3 99 96 98
3 99 4 96
3 99 43 4
3 100 43 99
3 100 296 298
3 298 297 43
3 296 297 298
3 50 100 24
3 299 100 300
3 301 300 50
3 299 300 301
3 303 302 100
3 76 52 5
3 101 52 76
3 101 304 306
3 306 305 52
3 304 305 306
3 54 101 13
3 307 101 308
3 309 308 54
3 307 308 309
3 311 310 101
3 312 3 313
3 102 314 315
3 102 316 318
3 316 317 318
3 56 102 15
3 103 102 56
3 103 319 321
3 321 320 102
3 319 320 321
3 103 322 323
3 104 324 326
3 326 325 103
3 324 325 326
3 104 327 329
3 327 3 328
3 327 328 329
3 104 42 3
3 105 42 104
3 105 22 42
3 58 105 25
3 106 105 58
3 106 22 105
3 106 93 22
3 107 93 106
3 107 0 93
3 330 80 331
3 108 332 334
3 332 80 333
3 332 333 334
3 108 7 80
3 109 335 336
3 109 337 339
3 337 27 338
3 337 338 339
3 61 109 16
3 110 109 61
3 110 27 109
3 110 108 27
3 111 108 110
3 111 7 108
3 111 59 7
3 112 59 111
3 112 26 59
3 63 112 28
3 113 112 63
3 113 26 112
3 113 107 26
3 114 107 113
3 114 0 107
3 114 35 0
3 115 35 114
3 115 14 35
3 65 115 29
3 116 115 65
3 116 14 115
3 116 79 14
3 117 79 116
3 117 6 79
3 83 66 8
3 118 66 83
3 118 30 66
3 68 118 18
3 119 118 68
3 119 30 118
3 119 117 30
3 120 117 119
3 120 6 117
3 120 340 342
3 342 341 6
3 340 341 342
3 344 343 120
3 346 345 1
