ply
format ascii 1.0
element vertex 409
property float x
property float y
property float z
element face 422
property list uchar int vertex_index
end_header
0.559498 -64.855553 59.418449
0.14839 -73.429382 71.459534
3.590025 -52.441551 72.396652
4.827971 -46.932961 53.494423
2.225525 -55.116833 81.77832
2.373075 -59.354347 65.54631
2.890562 -57.12809 56.97525
5.43852 -49.703064 62.152931
2.510397 -65.320007 80.110329
1.401295 -62.576756 73.905052
0.045771 -66.785233 61.981812
3.435705 -56.015579 68.990715
4.102388 -54.675198 64.167747
4.671547 -51.051052 67.229904
3.638142 -60.953739 83.892036
2.628468 -53.844887 77.358864
2.148922 -58.917778 77.994225
2.645437 -57.468365 73.69693
1.822781 -60.910549 69.847527
4.07704 -52.323246 55.226311
3.324001 -51.169178 51.459854
2.586542 -51.826485 88.169052
2.746439 -56.038506 85.196663
1.204517 -62.399117 62.200035
2.763222 -58.081535 61.21627
4.353294 -53.465591 59.499626
1.23963 -69.491241 75.95414
2.378674 -60.158184 81.528778
1.509579 -64.132065 77.43425
0.44371 -67.91069 73.053398
0.396608 -66.0103 69.610519
0.753708 -64.067505 65.909721
0.311926 -65.710007 60.552818
3.665129 -54.251228 70.703911
4.132284 -53.560764 68.198181
4.143803 -51.740288 69.820648
3.066183 -53.147984 74.922157
2.765162 -55.671124 75.556633
3.190886 -54.958607 73.168961
3.03182 -56.732815 71.375824
4.519255 -49.708843 54.338844
3.752943 -51.750427 53.281464
4.03459 -49.05312 52.500801
2.408415 -49.704136 89.279755
1.936117 -51.611496 86.835953
1.752264 -60.917419 63.847572
1.951067 -60.26403 61.827591
2.599062 -58.674911 63.375656
4.846445 -52.2435 63.209259
4.29122 -54.056526 61.797897
5.01354 -51.609592 60.80127
5.018871 -50.981628 58.500877
1.872709 -67.431679 78.074425
2.353502 -55.635353 83.64534
2.635567 -58.113197 83.42981
2.33609 -57.620319 81.819916
1.838675 -60.770794 75.980438
1.812103 -61.503452 77.854935
1.363657 -63.38385 75.755394
0.976833 -66.048599 75.275391
0.856268 -65.2127 73.595291
0.347313 -66.982994 71.381683
0.898426 -64.326096 71.779068
2.10388 -60.106518 67.711723
1.275745 -62.530449 67.883102
1.519657 -61.684414 65.869545
0.982584 -63.17382 64.04509
2.222443 -59.343414 57.764793
2.714294 -47.710819 49.225143
-0.193827 -67.94561 63.542397
2.971148 -57.719265 67.266884
3.256433 -57.032352 64.964951
3.806637 -55.327969 66.576622
4.540941 -52.891945 65.687622
5.119438 -50.373734 64.660942
4.082895 -63.437992 82.841583
3.11137 -63.159725 82.055092
2.331444 -54.510254 79.662094
2.285547 -57.029243 79.932434
2.444996 -56.36977 77.82666
2.332167 -58.204601 75.916862
2.02232 -60.000088 73.944969
1.571974 -61.742653 71.923355
2.308157 -59.219604 71.789818
2.641182 -58.453033 69.552353
3.523022 -54.791183 56.117722
2.862955 -56.721291 54.916389
3.355558 -54.30175 54.096169
3.107674 -53.812035 52.166939
3.518936 -51.887482 89.050156
3.51236 -54.103119 87.835838
3.420059 -56.304947 86.37001
2.71875 -53.940693 86.791451
2.208426 -53.631165 85.329315
1.974806 -53.189056 83.511833
1.995312 -52.637508 81.410866
0.794321 -63.761192 60.663834
0.984879 -63.334152 59.024414
1.400322 -61.810005 60.355026
2.106785 -59.744236 59.80307
2.859396 -57.572304 59.079185
3.466658 -56.400501 62.675102
3.583834 -55.823765 60.422775
3.601694 -55.292759 58.230637
4.28087 -52.891792 57.301971
4.852732 -50.350502 56.339928
5.285746 -47.65094 55.39315
1.342493 -72.179115 75.005913
0.652292 -71.493301 73.749695
3.208527 -58.481487 84.703552
2.869457 -60.624641 82.881027
2.416986 -62.728413 80.937904
2.149315 -59.579292 79.882156
1.991968 -62.166645 79.52317
1.881735 -64.788101 78.89949
1.304214 -66.799576 76.781105
0.729065 -68.758514 74.589622
0.200256 -70.658997 72.326416
-0.041401 -69.711441 70.770844
-0.109055 -68.68631 69.118523
-0.043491 -67.6185 67.405067
1.054369 -63.421558 69.863457
0.546272 -65.026688 67.775154
0.11458 -66.543167 65.666512
0.328075 -65.499855 63.940186
0.564749 -64.542206 62.264061
3.423311 -48.38485 50.808456
2.806231 -50.582161 49.737244
0.609789 -64.934952 58.667915
0.409201 -65.688252 59.118454
0.409201 -65.688252 59.118454
0.285415 -66.115478 59.685638
0.435712 -65.28278 59.985634
0.226955 -74.803192 70.973209
0.457407 -73.823216 72.128376
5.513447 -49.367035 60.949997
5.300957 -50.320299 60.274166
5.22603 -50.656328 61.477101
2.606911 -66.617058 79.615857
2.960573 -65.510311 80.571629
2.191553 -66.375843 79.092377
2.288067 -67.672894 78.597904
2.606911 -66.617058 79.615857
2.598088 -58.073458 56.346046
2.264028 -59.18112 56.740818
2.556503 -58.235752 57.370022
-0.155458 -67.991669 61.690594
-0.275257 -68.571857 62.470886
-0.074028 -67.365421 62.762104
3.860518 -62.195865 83.36681
4.383509 -62.283346 83.686088
4.161133 -61.041219 84.211315
3.054417 -52.243545 50.88874
2.946253 -53.564974 51.242283
3.215838 -52.490606 51.813396
1.88929 -52.439963 85.218753
2.072271 -52.62133 86.082634
1.753135 -51.430128 85.972072
1.77248 -52.218908 84.310012
2.091616 -53.410111 84.420574
1.88929 -52.439963 85.218753
1.808694 -51.39718 81.087834
1.734997 -51.696523 82.234917
2.11499 -52.321005 80.253754
1.808694 -51.39718 81.087834
5.197013 -49.349838 56.911507
4.935802 -50.666065 57.420403
5.280082 -49.665401 57.991982
5.41352 -48.000057 56.438118
5.069239 -49.000721 55.866539
5.197013 -49.349838 56.911507
1.291062 -70.835178 75.480027
1.671583 -71.127243 76.059376
1.620151 -69.783306 76.53349
1.071223 -63.273678 58.113167
1.276544 -62.381683 58.740723
2.610806 -57.72434 54.295006
2.821633 -56.5245 53.913597
3.416253 -46.914852 50.519149
3.806978 -47.290415 51.295578
2.51019 -50.290413 48.906906
2.760263 -49.14649 49.481194
2.464221 -48.854742 48.650856
2.597167 -51.703195 49.13073
2.51019 -50.290413 48.906906
0.120004 -66.785496 60.282948
-0.013073 -67.323109 60.997445
0.178848 -66.24762 61.267315
0.120004 -66.785496 60.282948
0.285415 -66.115478 59.685638
3.85038 -59.829802 84.742519
4.161133 -61.041219 84.211315
1.841833 -48.618576 89.212429
2.334139 -48.644617 89.677235
2.003294 -49.641077 88.70142
1.841833 -48.618576 89.212429
2.092358 -50.702252 88.146068
2.497479 -50.76531 88.724403
2.003294 -49.641077 88.70142
1.767145 -50.594757 87.479519
2.261329 -51.718991 87.502502
2.092358 -50.702252 88.146068
1.506316 -50.452293 86.686043
1.767145 -50.594757 87.479519
1.753135 -51.430128 85.972072
1.506316 -50.452293 86.686043
5.303623 -50.006317 59.12397
5.016205 -51.29561 59.651074
5.300957 -50.320299 60.274166
5.280082 -49.665401 57.991982
5.303623 -50.006317 59.12397
1.936691 -68.753525 77.593632
2.288067 -67.672894 78.597904
1.556169 -68.46146 77.014283
1.620151 -69.783306 76.53349
1.936691 -68.753525 77.593632
1.972328 -60.267622 57.122261
1.895326 -60.386314 58.110912
1.972328 -60.267622 57.122261
2.264028 -59.18112 56.740818
2.620584 -46.199442 49.005893
3.061745 -46.577837 49.727493
2.326003 -47.376531 48.463031
2.620584 -46.199442 49.005893
2.07593 -48.520454 47.888745
2.464221 -48.854742 48.650856
2.326003 -47.376531 48.463031
-0.385589 -69.237949 63.220512
-0.2851 -68.539555 64.354634
-0.385589 -69.237949 63.220512
-0.275257 -68.571857 62.470886
-0.155458 -67.991669 61.690594
-0.013073 -67.323109 60.997445
4.703151 -63.49395 83.062691
4.383509 -62.283346 83.686088
4.33266 -64.674364 82.244747
4.703151 -63.49395 83.062691
3.746822 -64.569304 81.937255
4.33266 -64.674364 82.244747
3.261059 -64.43017 81.54401
3.746822 -64.569304 81.937255
3.597132 -63.298859 82.448338
2.810884 -64.239866 81.08271
2.960573 -65.510311 80.571629
3.261059 -64.43017 81.54401
3.067935 -55.314729 53.503487
2.821633 -56.5245 53.913597
3.109256 -55.511521 54.506279
2.943993 -55.069872 52.538872
3.067935 -55.314729 53.503487
3.231616 -54.056893 53.131554
2.873984 -54.872712 51.562317
2.943993 -55.069872 52.538872
2.873984 -54.872712 51.562317
2.946253 -53.564974 51.242283
-0.046216 -74.358059 70.272472
-0.047484 -72.96064 70.725583
3.695479 -51.162647 71.918296
3.389302 -51.523482 73.230782
2.952168 -49.689165 89.620041
2.334139 -48.644617 89.677235
3.507429 -50.780838 89.505242
2.952168 -49.689165 89.620041
2.963675 -50.795809 89.164955
4.116553 -51.844091 89.25021
3.507429 -50.780838 89.505242
4.048794 -53.001264 88.736126
4.116553 -51.844091 89.25021
4.045507 -54.109083 88.128967
4.048794 -53.001264 88.736126
3.515648 -52.9953 88.442997
3.942589 -55.262852 87.477379
4.045507 -54.109083 88.128967
3.46621 -55.204033 87.102924
3.896438 -56.363766 86.744464
3.942589 -55.262852 87.477379
1.724744 -51.972297 83.2854
1.77248 -52.218908 84.310012
1.985059 -52.913282 82.461349
1.724744 -51.972297 83.2854
1.734997 -51.696523 82.234917
2.283056 -53.257378 79.379368
2.163378 -53.573881 80.53648
2.11499 -52.321005 80.253754
2.431569 -52.924694 78.227753
2.479956 -54.177571 78.510479
2.283056 -53.257378 79.379368
2.638677 -52.581784 76.994934
2.431569 -52.924694 78.227753
2.857534 -52.233332 75.77658
2.847326 -53.496436 76.140511
2.638677 -52.581784 76.994934
3.127381 -51.876698 74.493534
2.857534 -52.233332 75.77658
3.389302 -51.523482 73.230782
3.328104 -52.794767 73.659404
3.127381 -51.876698 74.493534
4.509308 -46.56447 52.638561
4.910939 -45.458649 53.112465
0.226955 -74.803192 70.973209
-0.046216 -74.358059 70.272472
1.484266 -61.619609 59.406029
1.276544 -62.381683 58.740723
1.1926 -62.572079 59.68972
1.837497 -60.586725 59.13005
1.484266 -61.619609 59.406029
1.753553 -60.77712 60.079048
2.164614 -59.543825 58.783931
1.895326 -60.386314 58.110912
1.837497 -60.586725 59.13005
3.972367 -50.812016 70.630295
3.866914 -52.090919 71.10865
3.695479 -51.162647 71.918296
4.287151 -50.452535 69.306294
3.972367 -50.812016 70.630295
4.551023 -50.107917 68.010921
4.407675 -51.39567 68.525276
4.287151 -50.452535 69.306294
4.845691 -49.751389 66.692654
4.551023 -50.107917 68.010921
5.069636 -49.412729 65.408173
4.895492 -50.712393 65.945423
4.845691 -49.751389 66.692654
5.315297 -49.057526 64.114002
5.069636 -49.412729 65.408173
5.474838 -48.722191 62.859997
5.278979 -50.038399 63.406937
5.315297 -49.057526 64.114002
5.644159 -48.364719 61.610191
5.474838 -48.722191 62.859997
5.513447 -49.367035 60.949997
5.644159 -48.364719 61.610191
5.591878 -46.601005 55.948234
5.41352 -48.000057 56.438118
5.424364 -46.215345 54.951404
5.591878 -46.601005 55.948234
5.195476 -45.856356 54.002041
5.056858 -47.29195 54.443787
5.424364 -46.215345 54.951404
4.910939 -45.458649 53.112465
5.195476 -45.856356 54.002041
1.81478 -72.431835 75.534871
1.671583 -71.127243 76.059376
1.486185 -73.499863 74.488121
1.81478 -72.431835 75.534871
1.054458 -73.198082 73.901566
1.486185 -73.499863 74.488121
0.709358 -72.855175 73.273457
1.054458 -73.198082 73.901566
0.997392 -71.836208 74.377804
0.400341 -72.461342 72.604614
0.457407 -73.823216 72.128376
0.709358 -72.855175 73.273457
3.741338 -57.505405 85.981506
3.896438 -56.363766 86.744464
3.635572 -58.593676 85.148277
3.741338 -57.505405 85.981506
3.314293 -57.393217 85.536781
3.423335 -59.717613 84.297794
3.85038 -59.829802 84.742519
3.635572 -58.593676 85.148277
-0.021552 -71.575447 71.159023
-0.047484 -72.96064 70.725583
0.174323 -72.04419 71.892975
-0.14238 -71.101669 70.381237
-0.021552 -71.575447 71.159023
0.079427 -70.185219 71.54863
-0.239527 -70.575908 69.600136
-0.14238 -71.101669 70.381237
-0.273354 -70.063343 68.773976
-0.239527 -70.575908 69.600136
-0.075228 -69.198875 69.944683
-0.289314 -69.498024 67.963738
-0.273354 -70.063343 68.773976
-0.256532 -68.964119 67.10701
-0.289314 -69.498024 67.963738
-0.076273 -68.152405 68.261795
-0.209932 -68.376 66.285968
-0.256532 -68.964119 67.10701
-0.130896 -67.838333 65.416691
-0.209932 -68.376 66.285968
0.035544 -67.080833 66.535789
-0.039623 -67.244388 64.604455
-0.2851 -68.539555 64.354634
-0.130896 -67.838333 65.416691
0.82248 -64.174251 58.470897
0.609789 -64.934952 58.667915
0.772188 -64.094853 59.221432
0.82248 -64.174251 58.470897
1.071223 -63.273678 58.113167
2.584284 -57.870058 55.316616
2.598088 -58.073458 56.346046
2.876759 -56.92469 55.945819
2.584284 -57.870058 55.316616
2.610806 -57.72434 54.295006
4.112617 -47.62455 52.141751
4.43128 -47.99304 52.997612
4.509308 -46.56447 52.638561
3.72895 -48.718985 51.654629
4.112617 -47.62455 52.141751
3.806978 -47.290415 51.295578
3.068803 -48.047835 50.0168
3.416253 -46.914852 50.519149
3.061745 -46.577837 49.727493
2.795532 -51.950037 50.027435
3.054417 -52.243545 50.88874
3.065116 -50.87567 50.598549
2.795532 -51.950037 50.027435
2.597167 -51.703195 49.13073
3 0 128 129
3 0 130 132
3 132 131 32
3 130 131 132
3 1 133 134
3 2 35 33
3 2 38 36
3 2 33 38
3 3 42 40
3 5 47 45
3 7 50 48
3 7 135 137
3 137 136 50
3 135 136 137
3 8 138 139
3 8 140 142
3 140 52 141
3 140 141 142
3 4 55 53
3 9 58 56
3 9 60 58
3 9 62 60
3 5 65 63
3 5 45 65
3 6 143 145
3 145 144 67
3 143 144 145
3 10 146 148
3 148 147 69
3 146 147 148
3 11 72 70
3 13 73 34
3 13 74 73
3 14 149 151
3 149 75 150
3 149 150 151
3 14 76 75
3 15 79 77
3 17 80 37
3 17 81 80
3 17 83 81
3 11 84 39
3 11 70 84
3 19 87 85
3 20 88 41
3 20 152 154
3 154 153 88
3 152 153 154
3 21 89 43
3 21 90 89
3 21 92 90
3 155 93 156
3 157 156 44
3 155 156 157
3 158 94 159
3 160 159 93
3 158 159 160
3 161 95 162
3 164 163 95
3 23 98 96
3 24 99 46
3 24 100 99
3 12 101 71
3 25 102 49
3 25 103 102
3 25 104 103
3 165 105 166
3 167 166 51
3 165 166 167
3 168 106 169
3 170 169 105
3 168 169 170
3 26 171 173
3 171 107 172
3 171 172 173
3 26 108 107
3 22 109 91
3 27 110 54
3 27 111 110
3 16 112 78
3 28 113 57
3 28 114 113
3 28 115 114
3 29 116 59
3 29 117 116
3 29 118 117
3 30 119 61
3 30 120 119
3 18 121 82
3 31 122 64
3 31 123 122
3 31 124 123
3 23 125 66
3 23 96 125
3 175 174 97
3 177 176 86
3 178 126 179
3 180 127 181
3 182 181 68
3 180 181 182
3 184 183 127
3 32 185 187
3 187 186 10
3 185 186 187
3 189 188 32
3 33 34 11
3 35 34 33
3 35 13 34
3 190 14 191
3 36 37 15
3 38 37 36
3 38 17 37
3 38 39 17
3 33 39 38
3 33 11 39
3 40 41 19
3 42 41 40
3 42 20 41
3 192 43 193
3 194 43 195
3 196 21 197
3 198 197 43
3 196 197 198
3 199 44 200
3 201 200 21
3 199 200 201
3 202 44 203
3 205 204 44
3 45 46 23
3 47 46 45
3 47 24 46
3 48 49 12
3 50 49 48
3 50 25 49
3 50 51 25
3 206 51 207
3 208 207 50
3 206 207 208
3 210 209 51
3 52 211 212
3 52 213 215
3 213 26 214
3 213 214 215
3 53 54 22
3 55 54 53
3 55 27 54
3 56 57 16
3 58 57 56
3 58 28 57
3 58 59 28
3 60 59 58
3 60 29 59
3 60 61 29
3 62 61 60
3 62 30 61
3 63 64 18
3 65 64 63
3 65 31 64
3 65 66 31
3 45 66 65
3 45 23 66
3 67 216 217
3 219 218 67
3 220 68 221
3 222 68 223
3 226 225 68
3 224 225 226
3 69 227 228
3 230 229 69
3 232 231 10
3 70 71 5
3 72 71 70
3 72 12 71
3 34 72 11
3 73 72 34
3 73 12 72
3 73 48 12
3 74 48 73
3 74 7 48
3 75 233 234
3 75 235 236
3 75 237 238
3 76 239 241
3 241 240 75
3 239 240 241
3 76 242 244
3 242 8 243
3 242 243 244
3 77 78 4
3 79 78 77
3 79 16 78
3 37 79 15
3 80 79 37
3 80 16 79
3 80 56 16
3 81 56 80
3 81 9 56
3 81 82 9
3 83 82 81
3 83 18 82
3 39 83 17
3 84 83 39
3 84 18 83
3 84 63 18
3 70 63 84
3 70 5 63
3 85 86 6
3 87 86 85
3 87 245 247
3 247 246 86
3 245 246 247
3 41 87 19
3 88 87 41
3 88 248 250
3 250 249 87
3 248 249 250
3 88 251 252
3 254 253 88
3 256 255 1
3 258 257 2
3 43 259 260
3 89 261 263
3 263 262 43
3 261 262 263
3 89 264 265
3 89 266 267
3 90 268 270
3 270 269 89
3 268 269 270
3 90 271 272
3 90 273 275
3 273 91 274
3 273 274 275
3 92 91 90
3 92 22 91
3 44 92 21
3 93 92 44
3 93 22 92
3 93 53 22
3 94 53 93
3 94 4 53
3 276 94 277
3 95 278 280
3 278 94 279
3 278 279 280
3 95 4 94
3 95 77 4
3 281 77 282
3 283 282 95
3 281 282 283
3 284 15 285
3 286 285 77
3 284 285 286
3 287 15 288
3 289 36 290
3 291 290 15
3 289 290 291
3 292 36 293
3 294 2 295
3 296 295 36
3 294 295 296
3 298 297 3
3 300 299 1
3 96 97 0
3 98 97 96
3 98 301 303
3 303 302 97
3 301 302 303
3 46 98 23
3 99 98 46
3 99 304 306
3 306 305 98
3 304 305 306
3 99 307 309
3 307 67 308
3 307 308 309
3 100 67 99
3 100 6 67
3 71 47 5
3 101 47 71
3 101 24 47
3 49 101 12
3 102 101 49
3 102 24 101
3 102 100 24
3 103 100 102
3 103 6 100
3 103 85 6
3 104 85 103
3 104 19 85
3 51 104 25
3 105 104 51
3 105 19 104
3 105 40 19
3 106 40 105
3 106 3 40
3 310 35 311
3 312 311 2
3 310 311 312
3 313 35 314
3 315 13 316
3 317 316 35
3 315 316 317
3 318 13 319
3 320 74 321
3 322 321 13
3 320 321 322
3 323 74 324
3 325 7 326
3 327 326 74
3 325 326 327
3 328 7 329
3 331 330 7
3 332 106 333
3 334 106 335
3 336 3 337
3 338 337 106
3 336 337 338
3 340 339 3
3 107 341 342
3 107 343 344
3 107 345 346
3 108 347 349
3 349 348 107
3 347 348 349
3 108 350 352
3 350 1 351
3 350 351 352
3 91 353 354
3 109 355 357
3 357 356 91
3 355 356 357
3 109 358 360
3 358 14 359
3 358 359 360
3 54 109 22
3 110 109 54
3 110 14 109
3 110 76 14
3 111 76 110
3 111 8 76
3 78 55 4
3 112 55 78
3 112 27 55
3 57 112 16
3 113 112 57
3 113 27 112
3 113 111 27
3 114 111 113
3 114 8 111
3 114 52 8
3 115 52 114
3 115 26 52
3 59 115 28
3 116 115 59
3 116 26 115
3 116 108 26
3 117 108 116
3 117 1 108
3 117 361 363
3 363 362 1
3 361 362 363
3 118 364 366
3 366 365 117
3 364 365 366
3 118 367 368
3 61 118 29
3 119 118 61
3 119 369 371
3 371 370 118
3 369 370 371
3 119 372 373
3 120 374 376
3 376 375 119
3 374 375 376
3 120 377 378
3 82 62 9
3 121 62 82
3 121 30 62
3 64 121 18
3 122 121 64
3 122 30 121
3 122 120 30
3 123 120 122
3 123 379 381
3 381 380 120
3 379 380 381
3 123 382 384
3 382 69 383
3 382 383 384
3 124 69 123
3 124 10 69
3 66 124 31
3 125 124 66
3 125 10 124
3 125 32 10
3 96 32 125
3 96 0 32
3 97 385 387
3 387 386 0
3 385 386 387
3 389 388 97
3 86 390 392
3 392 391 6
3 390 391 392
3 394 393 86
3 395 42 396
3 397 396 3
3 395 396 397
3 126 398 400
3 398 42 399
3 398 399 400
3 126 20 42
3 68 401 403
3 401 126 402
3 401 402 403
3 127 126 68
3 127 20 126
3 127 404 406
3 406 405 20
3 404 405 406
3 408 407 127
