ply
format ascii 1.0
element vertex 362
property float x
property float y
property float z
element face 377
property list uchar int vertex_index
end_header
46.127853 -7.662731 54.712303
58.054901 -6.176364 38.924961
65.689178 6.592344 24.91814
51.377678 -7.044213 45.806515
52.356445 0.762735 50.362938
57.494011 1.25563 40.735809
63.198608 1.128195 31.983908
48.566063 -7.428116 50.080666
48.481895 -11.004391 48.84996
45.492466 -11.511497 52.760834
46.999191 -3.534005 57.125214
49.651226 0.728001 54.911423
49.488037 -3.415765 52.546547
51.998051 -3.222055 47.808472
57.533897 -2.531191 39.055077
60.229912 1.456619 36.172394
60.712139 -2.455576 35.372002
68.176796 3.710842 20.856949
67.758705 2.193176 24.562481
54.560383 -6.558615 42.07605
51.972431 -10.378533 45.560928
56.518562 4.82172 42.874001
54.919083 0.93594 45.534302
54.64558 -2.88179 43.236679
62.62315 8.093658 29.726557
59.193283 5.116793 37.95623
62.01738 5.106325 33.128986
64.963394 4.245872 28.544853
66.266815 -0.075745 28.353424
47.302757 -7.559752 52.369331
46.939869 -9.489521 51.350861
45.67646 -9.648007 53.583115
46.63937 -5.610596 55.953056
48.248795 -3.473438 54.878021
47.811737 -5.539137 53.607773
49.023438 -5.452621 51.247673
57.667648 -4.396601 38.752075
59.088177 -2.43931 37.147926
59.367825 -4.316869 37.113777
65.656677 7.439072 23.035566
66.945152 5.991402 20.893122
67.043129 5.323008 22.748264
68.115379 3.04682 22.693609
66.865837 4.455215 24.604469
52.924873 -6.803998 43.867783
53.184967 -8.507596 43.74263
51.465488 -8.791595 45.416981
47.346199 -12.87257 50.635643
51.030739 0.738285 52.694176
50.593628 2.801825 53.727455
51.991016 2.769337 51.489021
53.331299 2.766104 49.138252
54.634228 2.815857 46.718544
53.646179 0.825056 47.962166
51.614296 -5.172217 46.652603
53.297688 -3.066645 45.484856
53.011154 -4.975589 44.486687
54.484238 -4.760957 42.440529
57.208527 3.077631 41.820549
57.841755 4.972841 40.409286
58.518921 3.23629 39.396488
61.686966 1.383793 34.022079
61.265465 3.34454 34.686169
62.713634 3.169043 32.433395
63.485168 4.810801 30.789845
64.19873 2.767113 30.282345
65.68837 2.100618 28.271671
64.740402 0.650681 30.083345
49.923992 -7.256316 47.883606
49.842266 -9.06006 47.24752
48.330086 -9.295003 49.23037
46.914597 -11.275493 50.731842
45.729675 -13.199556 52.406624
47.039215 -1.454397 58.104469
48.420746 -1.391022 56.028175
49.749725 -1.351158 53.807213
51.041611 -1.307083 51.482567
52.312637 -1.235317 49.098732
50.732887 -3.337238 50.175446
50.287659 -5.332918 48.916481
57.536469 -0.628527 39.761299
58.834263 1.395824 38.415665
58.961136 -0.515026 37.616875
60.455078 -0.499884 35.582905
62.014076 -0.627287 33.671547
63.618393 -0.934984 31.896507
56.275215 -6.338317 40.431076
54.982666 -8.234541 42.218739
50.17598 -10.70103 47.12645
55.208488 4.714842 45.3358
55.919975 2.924932 44.268875
56.195053 1.088215 43.115902
53.579857 -1.122412 46.699387
54.861069 -0.969513 44.323441
56.17429 -0.794136 42.002701
56.054398 -2.691833 41.087978
56.036865 -4.556543 40.527237
63.914543 9.339758 23.454758
64.157913 8.5291 25.394115
45.721375 -3.624012 59.246643
45.488346 -5.691167 58.238075
44.224136 -11.718797 54.913696
44.274315 -13.501163 54.323387
64.193146 7.510134 27.272259
58.075649 6.750805 38.867126
59.499847 6.866646 36.397171
59.867607 3.346291 37.013397
60.584023 5.185743 35.525208
60.966198 6.876812 33.930592
62.466 6.700438 31.479548
63.977478 6.267616 29.072262
65.462631 5.528027 26.757671
66.408905 3.377712 26.447235
67.128746 1.147825 26.450563
65.228981 -1.452036 30.275421
58.387901 -7.011691 39.241785
58.966049 -6.140761 38.234171
58.966049 -6.140761 38.234171
59.622511 -5.211013 37.328579
58.711363 -5.246617 38.019369
47.799286 -13.565754 50.86385
46.899111 -13.774381 51.619312
61.549883 -2.535493 34.551266
62.200851 -1.621348 33.701038
61.363107 -1.541432 34.521774
68.059646 3.957558 19.964061
67.443825 5.097837 19.982148
67.560974 4.851122 20.875036
68.592865 2.748775 20.094677
68.059646 3.957558 19.964061
68.652839 2.516325 20.98117
69.068908 1.554258 20.218899
68.592865 2.748775 20.094677
68.345997 1.445628 23.76094
68.524334 1.87245 22.826504
67.937042 2.619998 23.628045
68.102291 1.04783 24.718198
68.345997 1.445628 23.76094
52.907938 -10.21895 44.851768
53.514206 -9.283482 43.942619
52.578699 -9.443064 44.651779
52.429962 -11.086581 45.889553
52.907938 -10.21895 44.851768
49.386042 1.779168 55.360992
48.926558 0.714966 55.942112
50.44556 4.855536 53.497196
50.156893 3.854246 54.146778
50.882295 3.803114 53.077873
54.55114 4.697169 46.553737
54.610256 5.601755 45.790229
63.075767 9.787498 24.690447
62.865837 10.181477 23.686499
63.197452 9.382168 25.660125
64.036228 8.934429 24.424436
63.075767 9.787498 24.690447
45.05844 -3.695995 60.227054
45.655941 -2.595876 59.624496
44.733923 -6.778317 58.810608
44.911649 -5.748704 59.328804
45.258051 -6.723974 57.651936
44.733923 -6.778317 58.810608
43.664165 -11.814509 56.035019
44.379789 -10.751455 55.402405
43.785733 -14.487908 55.176941
43.631822 -13.641708 55.344597
43.14324 -14.628453 56.198151
44.533123 -14.291963 54.286934
43.785733 -14.487908 55.176941
62.575384 8.681623 28.798656
61.72962 8.895326 30.057609
63.408148 7.801896 28.499408
63.360382 8.389861 27.571506
62.575384 8.681623 28.798656
56.605513 5.715485 42.105137
55.930407 5.664868 43.336802
66.988746 -0.570972 27.593494
67.419712 0.040813 26.642063
66.69778 0.53604 27.401993
64.654476 -2.200006 31.251236
64.423687 -1.19351 31.085964
63.849182 -1.94148 32.061779
60.243027 -4.333833 36.360022
60.915184 -3.403187 35.489134
60.039982 -3.386222 36.24289
60.243027 -4.333833 36.360022
59.622511 -5.211013 37.328579
66.300915 6.715237 21.964344
66.170391 7.041694 21.011329
65.526153 7.765529 22.082551
48.22327 -12.697009 49.826988
48.791118 -11.762919 48.934146
47.914047 -11.938481 49.742801
48.22327 -12.697009 49.826988
47.799286 -13.565754 50.86385
51.58099 3.78687 51.958656
50.882295 3.803114 53.077873
51.292322 2.785581 52.608238
52.272986 3.742971 50.81908
51.58099 3.78687 51.958656
52.943127 3.741355 49.643695
52.272986 3.742971 50.81908
52.661158 2.767721 50.313637
53.612545 3.722799 48.454964
52.943127 3.741355 49.643695
53.982764 2.79098 47.928398
54.26401 3.747676 47.245109
53.612545 3.722799 48.454964
61.828199 8.240369 30.97252
61.72962 8.895326 30.057609
46.090849 -13.937874 52.504803
46.899111 -13.774381 51.619312
46.537937 -13.036063 51.521134
47.620552 -0.376233 57.538635
46.854309 -0.411918 58.474014
48.311318 -0.344546 56.500488
47.620552 -0.376233 57.538635
47.72998 -1.422709 57.066322
49.035986 -0.33151 55.469799
48.926558 0.714966 55.942112
48.311318 -0.344546 56.500488
63.00301 -1.775197 32.813519
62.816235 -0.781135 32.784027
62.200851 -1.621348 33.701038
63.849182 -1.94148 32.061779
63.00301 -1.775197 32.813519
61.549883 -2.535493 34.551266
60.915184 -3.403187 35.489134
66.769851 6.241073 19.976571
66.170391 7.041694 21.011329
66.769851 6.241073 19.976571
67.443825 5.097837 19.982148
68.622131 2.184314 21.8995
68.652839 2.516325 20.98117
68.146087 3.378831 21.775279
68.622131 2.184314 21.8995
68.524334 1.87245 22.826504
56.556007 -7.170966 40.631088
57.44585 -7.08999 39.878031
57.165058 -6.25734 39.678019
55.909733 -8.119079 41.524919
56.556007 -7.170966 40.631088
55.62894 -7.286429 41.324907
55.37104 -9.003513 42.535479
55.909733 -8.119079 41.524919
54.413055 -9.146954 43.180674
54.083816 -8.371068 42.980684
53.514206 -9.283482 43.942619
55.37104 -9.003513 42.535479
54.413055 -9.146954 43.180674
49.638161 -11.611239 48.072391
49.328938 -10.852711 47.988205
48.791118 -11.762919 48.934146
50.56779 -11.428486 47.338533
49.638161 -11.611239 48.072391
51.466015 -11.267238 46.555773
51.074206 -10.539782 46.343689
50.56779 -11.428486 47.338533
52.429962 -11.086581 45.889553
51.466015 -11.267238 46.555773
49.857242 2.816079 54.769008
49.386042 1.779168 55.360992
50.122427 1.764913 54.319439
49.857242 2.816079 54.769008
50.156893 3.854246 54.146778
55.275369 5.611429 44.567701
54.610256 5.601755 45.790229
55.863525 4.768281 44.1049
55.930407 5.664868 43.336802
55.275369 5.611429 44.567701
54.921358 3.76535 46.027172
54.55114 4.697169 46.553737
54.26401 3.747676 47.245109
63.714874 9.660721 22.467829
62.865837 10.181477 23.686499
64.655086 8.715872 22.292147
64.455417 9.036835 21.305218
63.714874 9.660721 22.467829
64.78561 8.389415 23.245162
65.526153 7.765529 22.082551
64.655086 8.715872 22.292147
45.331648 -8.723422 55.301708
45.577804 -7.709756 55.889049
46.314861 -1.511068 59.05341
46.854309 -0.411918 58.474014
46.380295 -2.539204 58.675556
46.314861 -1.511068 59.05341
45.655941 -2.595876 59.624496
45.028164 -4.715127 59.833088
45.05844 -3.695995 60.227054
44.365229 -4.787109 60.813499
45.604861 -4.65759 58.742359
45.028164 -4.715127 59.833088
44.911649 -5.748704 59.328804
45.833563 -6.683689 56.509426
46.063858 -5.650882 57.095565
45.258051 -6.723974 57.651936
45.577804 -7.709756 55.889049
46.383612 -6.636664 55.332679
45.833563 -6.683689 56.509426
58.387901 -7.011691 39.241785
57.44585 -7.08999 39.878031
45.105951 -9.71606 54.737114
45.902157 -8.655369 54.147709
45.331648 -8.723422 55.301708
44.950298 -10.683402 54.248406
45.105951 -9.71606 54.737114
44.379789 -10.751455 55.402405
43.606733 -12.750525 55.639752
43.664165 -11.814509 56.035019
44.249226 -12.60998 54.618541
43.606733 -12.750525 55.639752
43.631822 -13.641708 55.344597
45.260803 -14.14116 53.328553
45.001995 -13.350359 53.365005
44.533123 -14.291963 54.286934
46.090849 -13.937874 52.504803
45.260803 -14.14116 53.328553
63.342765 8.899344 26.632435
63.197452 9.382168 25.660125
64.175529 8.019617 26.333187
63.342765 8.899344 26.632435
63.360382 8.389861 27.571506
57.267109 5.791045 40.87278
56.605513 5.715485 42.105137
57.180159 4.89728 41.641644
57.384056 6.680027 40.101699
57.267109 5.791045 40.87278
57.958702 5.861823 39.638206
57.270891 7.513616 39.261575
57.384056 6.680027 40.101699
58.005788 7.571421 38.028747
57.270891 7.513616 39.261575
58.717888 7.629342 36.79377
58.005788 7.571421 38.028747
58.787748 6.808725 37.632148
59.481192 7.662554 35.554165
58.717888 7.629342 36.79377
60.214367 7.667637 34.320875
59.481192 7.662554 35.554165
60.233023 6.871729 35.163882
60.999724 7.631946 33.074537
60.214367 7.667637 34.320875
61.749624 7.54376 31.849016
60.999724 7.631946 33.074537
61.716099 6.788625 32.70507
62.544575 7.397048 30.603053
61.828199 8.240369 30.97252
61.749624 7.54376 31.849016
67.787312 0.525155 25.662239
68.102291 1.04783 24.718198
67.443725 1.6705 25.506522
67.787312 0.525155 25.662239
67.419712 0.040813 26.642063
65.48246 -2.463704 30.571861
64.654476 -2.200006 31.251236
66.007396 -1.825279 29.553384
65.48246 -2.463704 30.571861
66.526314 -1.137134 28.592386
65.747898 -0.763891 29.314422
66.007396 -1.825279 29.553384
66.988746 -0.570972 27.593494
66.526314 -1.137134 28.592386
3 0 31 29
3 0 34 32
3 0 29 34
3 1 115 116
3 1 38 36
3 1 117 119
3 119 118 38
3 117 118 119
3 2 41 39
3 2 43 41
3 3 46 44
3 121 120 47
3 4 50 48
3 4 51 50
3 4 53 51
3 3 56 54
3 3 44 56
3 5 60 58
3 6 63 61
3 6 65 63
3 6 67 65
3 7 70 68
3 9 71 30
3 9 72 71
3 10 74 73
3 12 75 33
3 12 76 75
3 12 78 76
3 7 79 35
3 7 68 79
3 14 82 80
3 16 83 37
3 16 84 83
3 16 122 124
3 124 123 84
3 122 123 124
3 17 125 127
3 127 126 40
3 125 126 127
3 17 128 129
3 17 130 132
3 130 131 132
3 18 133 135
3 135 134 42
3 133 134 135
3 18 136 137
3 19 87 86
3 20 138 140
3 140 139 45
3 138 139 140
3 20 141 142
3 8 88 69
3 11 143 144
3 147 146 49
3 145 146 147
3 148 89 149
3 22 90 52
3 22 91 90
3 13 92 77
3 23 93 55
3 23 94 93
3 23 95 94
3 19 96 57
3 19 86 96
3 150 97 151
3 152 98 153
3 154 153 97
3 152 153 154
3 155 99 156
3 157 100 158
3 160 159 100
3 161 101 162
3 163 102 164
3 163 164 165
3 167 166 102
3 24 168 169
3 24 170 172
3 170 103 171
3 170 171 172
3 21 173 174
3 25 104 59
3 25 105 104
3 15 106 81
3 26 107 62
3 26 108 107
3 26 109 108
3 27 110 64
3 27 111 110
3 27 112 111
3 28 113 66
3 28 175 177
3 177 176 113
3 175 176 177
3 178 114 179
3 180 179 85
3 178 179 180
3 29 30 7
3 31 30 29
3 31 9 30
3 32 33 10
3 34 33 32
3 34 12 33
3 34 35 12
3 29 35 34
3 29 7 35
3 36 37 14
3 38 37 36
3 38 16 37
3 38 181 183
3 183 182 16
3 181 182 183
3 185 184 38
3 39 186 188
3 186 40 187
3 186 187 188
3 41 40 39
3 41 17 40
3 41 42 17
3 43 42 41
3 43 18 42
3 44 45 19
3 46 45 44
3 46 20 45
3 47 189 191
3 191 190 8
3 189 190 191
3 193 192 47
3 48 49 11
3 50 49 48
3 50 194 196
3 196 195 49
3 194 195 196
3 50 197 198
3 51 199 201
3 201 200 50
3 199 200 201
3 51 202 203
3 51 204 206
3 204 52 205
3 204 205 206
3 53 52 51
3 53 22 52
3 54 55 13
3 56 55 54
3 56 23 55
3 56 57 23
3 44 57 56
3 44 19 57
3 207 24 208
3 58 59 21
3 60 59 58
3 60 25 59
3 61 62 15
3 63 62 61
3 63 26 62
3 63 64 26
3 65 64 63
3 65 27 64
3 65 66 27
3 67 66 65
3 67 28 66
3 68 69 3
3 70 69 68
3 70 8 69
3 30 70 7
3 71 70 30
3 71 8 70
3 71 47 8
3 72 47 71
3 72 209 211
3 211 210 47
3 209 210 211
3 73 212 213
3 74 214 216
3 216 215 73
3 214 215 216
3 74 217 219
3 217 11 218
3 217 218 219
3 33 74 10
3 75 74 33
3 75 11 74
3 75 48 11
3 76 48 75
3 76 4 48
3 76 77 4
3 78 77 76
3 78 13 77
3 35 78 12
3 79 78 35
3 79 13 78
3 79 54 13
3 68 54 79
3 68 3 54
3 80 81 5
3 82 81 80
3 82 15 81
3 37 82 14
3 83 82 37
3 83 15 82
3 83 61 15
3 84 61 83
3 84 6 61
3 84 85 6
3 220 85 221
3 222 221 84
3 220 221 222
3 224 223 85
3 226 225 16
3 40 227 228
3 230 229 40
3 42 231 233
3 233 232 17
3 231 232 233
3 235 234 42
3 86 236 238
3 238 237 1
3 236 237 238
3 87 239 241
3 241 240 86
3 239 240 241
3 87 242 243
3 45 87 19
3 244 87 245
3 246 245 45
3 244 245 246
3 248 247 87
3 69 46 3
3 88 46 69
3 88 20 46
3 249 88 250
3 251 250 8
3 249 250 251
3 252 88 253
3 254 20 255
3 256 255 88
3 254 255 256
3 258 257 20
3 49 259 261
3 261 260 11
3 259 260 261
3 263 262 49
3 89 264 265
3 89 266 268
3 266 21 267
3 266 267 268
3 52 269 271
3 269 89 270
3 269 270 271
3 90 89 52
3 90 21 89
3 90 58 21
3 91 58 90
3 91 5 58
3 77 53 4
3 92 53 77
3 92 22 53
3 55 92 13
3 93 92 55
3 93 22 92
3 93 91 22
3 94 91 93
3 94 5 91
3 94 80 5
3 95 80 94
3 95 14 80
3 57 95 23
3 96 95 57
3 96 14 95
3 96 36 14
3 86 36 96
3 86 1 36
3 97 272 273
3 97 274 276
3 274 275 276
3 97 277 279
3 277 39 278
3 277 278 279
3 98 39 97
3 98 2 39
3 281 280 0
3 282 73 283
3 99 284 286
3 284 73 285
3 284 285 286
3 99 10 73
3 287 99 288
3 287 288 289
3 100 290 292
3 290 99 291
3 290 291 292
3 100 10 99
3 100 32 10
3 293 32 294
3 295 294 100
3 293 294 295
3 296 0 297
3 298 297 32
3 296 297 298
3 300 299 1
3 301 31 302
3 303 302 0
3 301 302 303
3 101 304 306
3 304 31 305
3 304 305 306
3 101 9 31
3 307 101 308
3 102 309 311
3 309 101 310
3 309 310 311
3 102 9 101
3 102 72 9
3 312 72 313
3 314 313 102
3 312 313 314
3 316 315 72
3 317 98 318
3 103 319 321
3 319 98 320
3 319 320 321
3 103 2 98
3 59 322 324
3 324 323 21
3 322 323 324
3 104 325 327
3 327 326 59
3 325 326 327
3 104 328 329
3 104 330 331
3 105 332 334
3 334 333 104
3 332 333 334
3 105 335 336
3 81 60 5
3 106 60 81
3 106 25 60
3 62 106 15
3 107 106 62
3 107 25 106
3 107 105 25
3 108 105 107
3 108 337 339
3 339 338 105
3 337 338 339
3 108 340 341
3 109 342 344
3 344 343 108
3 342 343 344
3 109 345 347
3 345 24 346
3 345 346 347
3 64 109 26
3 110 109 64
3 110 24 109
3 110 103 24
3 111 103 110
3 111 2 103
3 111 43 2
3 112 43 111
3 112 18 43
3 66 112 27
3 113 112 66
3 113 18 112
3 113 348 350
3 350 349 18
3 348 349 350
3 352 351 113
3 85 67 6
3 114 67 85
3 114 28 67
3 353 114 354
3 355 114 356
3 357 28 358
3 359 358 114
3 357 358 359
3 361 360 28
