ply
format ascii 1.0
element vertex 254
property float x
property float y
property float z
element face 249
property list uchar int vertex_index
end_header
27.797848 -66.170944 70.752403
34.110992 -67.864334 55.560211
23.890114 -73.690582 65.587814
29.718771 -71.019493 61.017181
30.21489 -64.533173 67.389336
30.750826 -67.009285 62.602043
28.577517 -68.52755 65.900208
22.656092 -76.910553 61.637169
26.028225 -75.65303 60.165718
24.495461 -67.948227 73.299484
25.721542 -70.113159 68.667404
26.54356 -63.623619 74.624985
32.432003 -65.41481 59.087227
32.004269 -69.615845 58.286377
31.785057 -73.83989 57.035683
27.057814 -72.270531 63.477654
29.041399 -74.799522 58.672462
29.118774 -65.339386 69.163696
29.418915 -66.551941 66.772881
28.195768 -67.352432 68.397484
22.556807 -68.904907 74.259911
23.323984 -69.99427 72.184006
19.521156 -77.256035 65.32206
24.745426 -64.490723 75.76722
32.67429 -63.418526 59.344147
30.203472 -69.030762 61.894325
31.241707 -68.288574 60.323471
30.895906 -70.352631 59.673294
31.865314 -71.742737 57.739067
30.625134 -72.386803 58.873413
24.742823 -71.950562 67.240349
26.334272 -71.165375 66.080986
25.539715 -72.937996 64.576408
27.312916 -76.848801 57.614258
27.577469 -75.207489 59.429115
33.978939 -65.696861 55.711693
31.103306 -63.745743 65.467911
31.309052 -64.982826 63.13118
30.448204 -65.76561 65.002708
29.741198 -67.771194 64.303604
29.054605 -69.738861 63.395889
23.193165 -75.33812 63.719521
24.888702 -74.614471 62.851097
24.386644 -76.2024 60.898712
25.704609 -77.212875 58.137283
26.251722 -67.037697 72.133095
26.767551 -68.182693 69.847984
25.137928 -69.059296 71.110527
24.028244 -70.990158 69.814377
23.003052 -72.823334 68.274582
22.117306 -74.560715 66.513763
21.398067 -76.214699 64.545647
20.849072 -77.810959 62.378716
29.919638 -63.280903 69.630661
28.718718 -64.095535 71.350395
27.275013 -64.939865 72.851227
25.599607 -65.818573 74.120445
23.71822 -66.733154 75.163292
33.170425 -64.566132 57.412231
33.104359 -66.633972 57.170822
31.636227 -66.226761 60.8424
32.19912 -67.493774 58.729378
33.069492 -68.790215 56.898438
33.07288 -70.988892 56.575546
27.239977 -69.299896 67.360611
27.770117 -70.439461 64.797195
28.446579 -71.645782 62.290001
26.474796 -74.009262 61.93911
27.951336 -73.472786 60.976517
29.328478 -72.949432 59.955467
30.436432 -74.362648 57.878296
34.7819 -68.483345 54.935208
35.295452 -67.965881 54.315208
34.624544 -67.34687 54.940212
34.18849 -68.987366 55.489502
34.7819 -68.483345 54.935208
21.955187 -69.947441 73.668476
21.51484 -69.402458 74.646683
28.079977 -76.703194 57.367275
28.017988 -77.537079 56.434613
33.926494 -64.680009 55.805279
34.40632 -65.179382 55.058773
25.591857 -77.965778 56.989364
24.86206 -77.468887 58.424011
26.419056 -77.812599 56.821018
25.591857 -77.965778 56.989364
23.102947 -71.467834 70.308781
23.676114 -70.492214 70.999191
22.750817 -70.96989 71.493595
22.590351 -72.384422 69.538883
23.515648 -71.906746 69.044479
23.102947 -71.467834 70.308781
21.177898 -75.062153 66.933186
21.624794 -74.180127 67.84948
20.818279 -75.889145 65.949128
21.757686 -75.387707 65.529705
21.177898 -75.062153 66.933186
19.916829 -78.359634 62.743409
20.185114 -77.533497 63.850388
19.252871 -78.082172 64.21508
20.653914 -78.601158 61.201172
19.916829 -78.359634 62.743409
29.682817 -62.629435 70.62685
30.221575 -62.23961 69.70636
29.082358 -63.03675 71.486717
29.319178 -63.688219 70.490528
29.682817 -62.629435 70.62685
27.330588 -63.204864 73.934318
26.899399 -62.505108 74.716865
26.909287 -64.281742 73.738106
27.696314 -63.862988 73.047439
27.330588 -63.204864 73.934318
23.237923 -66.058166 75.926441
24.231823 -65.611939 75.465256
23.751526 -64.936951 76.228405
22.692917 -67.205551 75.581879
23.237923 -66.058166 75.926441
32.447845 -73.515091 56.591099
32.487974 -72.466515 56.942791
31.825185 -72.791314 57.387375
32.477281 -74.600304 56.281883
32.447845 -73.515091 56.591099
23.337802 -77.317726 60.173954
22.460822 -77.676143 60.489769
22.338776 -70.492122 72.630524
22.940396 -69.449589 73.221958
21.955187 -69.947441 73.668476
22.750817 -70.96989 71.493595
22.338776 -70.492122 72.630524
18.899368 -76.974186 66.709373
19.879824 -76.409813 66.337334
18.553356 -77.851555 65.676853
18.899368 -76.974186 66.709373
19.252871 -78.082172 64.21508
18.553356 -77.851555 65.676853
26.052326 -62.911684 75.345234
26.899399 -62.505108 74.716865
25.153259 -63.345236 75.916351
25.644493 -64.057171 75.196102
26.052326 -62.911684 75.345234
24.204322 -63.763316 76.431469
25.153259 -63.345236 75.916351
23.751526 -64.936951 76.228405
24.204322 -63.763316 76.431469
32.536637 -62.827137 60.38131
32.786144 -62.478804 59.398026
32.355944 -63.809182 60.281578
32.536637 -62.827137 60.38131
32.234801 -64.807323 60.153118
32.553146 -64.416668 59.215687
32.355944 -63.809182 60.281578
28.212254 -75.882538 58.274704
27.445193 -76.028145 58.521687
28.079977 -76.703194 57.367275
28.944218 -75.678554 57.896377
28.309434 -75.003505 59.050789
28.212254 -75.882538 58.274704
29.680757 -75.529117 57.649231
28.944218 -75.678554 57.896377
34.558517 -66.263134 55.015953
34.40632 -65.179382 55.058773
34.044966 -66.780597 55.635952
34.624544 -67.34687 54.940212
34.558517 -66.263134 55.015953
31.206179 -64.364284 64.299545
31.56286 -63.979998 63.292564
31.459988 -63.361456 64.46093
24.203078 -76.96365 59.804726
23.521368 -76.556477 61.267941
23.337802 -77.317726 60.173954
25.045627 -76.707638 59.517997
24.203078 -76.96365 59.804726
24.86206 -77.468887 58.424011
27.22321 -77.630562 56.559506
26.508763 -77.030838 57.875771
26.419056 -77.812599 56.821018
28.017988 -77.537079 56.434613
27.22321 -77.630562 56.559506
22.067667 -73.311436 68.729889
22.590351 -72.384422 69.538883
22.560179 -73.692025 67.394172
22.067667 -73.311436 68.729889
21.624794 -74.180127 67.84948
20.459612 -76.735367 64.933853
20.818279 -75.889145 65.949128
19.879824 -76.409813 66.337334
21.557313 -78.126346 60.860542
22.460822 -77.676143 60.489769
21.752582 -77.360756 62.007942
21.557313 -78.126346 60.860542
20.653914 -78.601158 61.201172
31.36994 -62.739155 65.569305
31.459988 -63.361456 64.46093
30.993682 -63.119182 66.595024
31.36994 -62.739155 65.569305
30.549474 -63.512898 67.555736
30.659098 -64.139458 66.428624
30.993682 -63.119182 66.595024
30.401848 -62.886763 68.676399
30.221575 -62.23961 69.70636
30.067264 -63.907038 68.509998
30.549474 -63.512898 67.555736
30.401848 -62.886763 68.676399
28.418166 -63.440822 72.297023
29.082358 -63.03675 71.486717
27.996865 -64.5177 72.100811
28.418166 -63.440822 72.297023
27.696314 -63.862988 73.047439
22.11221 -68.291427 75.130188
23.137513 -67.81903 74.711602
22.692917 -67.205551 75.581879
21.51484 -69.402458 74.646683
22.11221 -68.291427 75.130188
32.964365 -63.029556 58.473881
32.786144 -62.478804 59.398026
33.212433 -63.603359 57.507923
32.964365 -63.029556 58.473881
32.922358 -63.992329 58.378189
33.522238 -64.114645 56.655548
33.212433 -63.603359 57.507923
33.574682 -65.131496 56.561962
33.926494 -64.680009 55.805279
33.522238 -64.114645 56.655548
31.673325 -64.591331 62.175095
31.56286 -63.979998 63.292564
31.836913 -65.213299 61.030704
31.673325 -64.591331 62.175095
31.472639 -65.604793 61.98679
32.034115 -65.820785 59.964813
32.234801 -64.807323 60.153118
31.836913 -65.213299 61.030704
33.667739 -69.450306 56.158615
34.18849 -68.987366 55.489502
33.590242 -68.327275 56.229325
33.669433 -70.549644 55.997169
33.667739 -69.450306 56.158615
33.071186 -69.889554 56.736992
33.75223 -71.690041 55.901817
33.669433 -70.549644 55.997169
33.091757 -72.089592 56.36103
32.469097 -71.365814 57.157307
32.487974 -72.466515 56.942791
33.75223 -71.690041 55.901817
33.091757 -72.089592 56.36103
30.378274 -75.31068 57.252147
29.738915 -74.581085 58.275379
29.680757 -75.529117 57.649231
31.09475 -75.120659 56.990192
30.378274 -75.31068 57.252147
31.769063 -74.85928 56.568886
31.110744 -74.101269 57.456989
31.09475 -75.120659 56.990192
32.477281 -74.600304 56.281883
31.769063 -74.85928 56.568886
3 0 19 17
3 1 71 73
3 71 72 73
3 1 74 75
3 77 76 20
3 3 27 25
3 3 29 27
3 2 32 30
3 79 78 33
3 80 35 81
3 4 38 36
3 6 39 18
3 6 40 39
3 7 43 41
3 82 44 83
3 85 84 44
3 9 47 45
3 86 48 87
3 88 87 21
3 86 87 88
3 89 49 90
3 91 90 48
3 89 90 91
3 92 50 93
3 94 51 95
3 96 95 50
3 94 95 96
3 97 52 98
3 99 98 22
3 97 98 99
3 101 100 52
3 102 53 103
3 104 54 105
3 106 105 53
3 104 105 106
3 11 107 108
3 11 109 111
3 109 55 110
3 109 110 111
3 11 56 55
3 112 57 113
3 114 113 23
3 112 113 114
3 116 115 57
3 12 58 24
3 12 59 58
3 5 60 37
3 13 61 26
3 13 62 61
3 13 63 62
3 14 117 119
3 119 118 28
3 117 118 119
3 14 120 121
3 10 64 46
3 15 65 31
3 15 66 65
3 8 67 42
3 16 68 34
3 16 69 68
3 16 70 69
3 17 18 4
3 19 18 17
3 19 6 18
3 123 122 7
3 20 21 9
3 124 21 125
3 126 125 20
3 124 125 126
3 128 127 21
3 129 22 130
3 131 22 132
3 134 133 22
3 135 11 136
3 137 23 138
3 139 138 11
3 137 138 139
3 140 23 141
3 143 142 23
3 144 24 145
3 146 24 147
3 148 12 149
3 150 149 24
3 148 149 150
3 25 26 5
3 27 26 25
3 27 13 26
3 27 28 13
3 29 28 27
3 29 14 28
3 30 31 10
3 32 31 30
3 32 15 31
3 33 34 8
3 151 34 152
3 153 152 33
3 151 152 153
3 154 16 155
3 156 155 34
3 154 155 156
3 158 157 16
3 35 159 160
3 35 161 163
3 161 1 162
3 161 162 163
3 36 164 166
3 164 37 165
3 164 165 166
3 38 37 36
3 38 5 37
3 18 38 4
3 39 38 18
3 39 5 38
3 39 25 5
3 40 25 39
3 40 3 25
3 41 42 2
3 43 42 41
3 43 8 42
3 167 43 168
3 169 168 7
3 167 168 169
3 44 170 172
3 170 43 171
3 170 171 172
3 44 8 43
3 44 33 8
3 173 33 174
3 175 174 44
3 173 174 175
3 177 176 33
3 45 46 0
3 47 46 45
3 47 10 46
3 21 47 9
3 48 47 21
3 48 10 47
3 48 30 10
3 49 30 48
3 49 2 30
3 178 49 179
3 50 180 182
3 180 49 181
3 180 181 182
3 50 2 49
3 50 41 2
3 51 41 50
3 51 7 41
3 22 183 185
3 183 51 184
3 183 184 185
3 52 51 22
3 52 7 51
3 52 186 188
3 188 187 7
3 186 187 188
3 190 189 52
3 191 36 192
3 193 36 194
3 195 4 196
3 197 196 36
3 195 196 197
3 53 198 199
3 53 200 202
3 200 4 201
3 200 201 202
3 53 17 4
3 54 17 53
3 54 0 17
3 203 54 204
3 55 205 207
3 205 54 206
3 205 206 207
3 55 0 54
3 55 45 0
3 56 45 55
3 56 9 45
3 23 56 11
3 57 56 23
3 57 9 56
3 57 20 9
3 208 20 209
3 210 209 57
3 208 209 210
3 212 211 20
3 24 213 214
3 58 215 217
3 217 216 24
3 215 216 217
3 58 218 219
3 58 220 222
3 220 35 221
3 220 221 222
3 59 35 58
3 59 1 35
3 37 223 224
3 60 225 227
3 227 226 37
3 225 226 227
3 60 228 230
3 228 12 229
3 228 229 230
3 26 60 5
3 61 60 26
3 61 12 60
3 61 59 12
3 62 59 61
3 62 1 59
3 62 231 233
3 233 232 1
3 231 232 233
3 63 234 236
3 236 235 62
3 234 235 236
3 63 237 238
3 28 63 13
3 239 63 240
3 241 240 28
3 239 240 241
3 243 242 63
3 46 19 0
3 64 19 46
3 64 6 19
3 31 64 10
3 65 64 31
3 65 6 64
3 65 40 6
3 66 40 65
3 66 3 40
3 42 32 2
3 67 32 42
3 67 15 32
3 34 67 8
3 68 67 34
3 68 15 67
3 68 66 15
3 69 66 68
3 69 3 66
3 69 29 3
3 70 29 69
3 70 14 29
3 244 70 245
3 246 245 16
3 244 245 246
3 247 70 248
3 249 14 250
3 251 250 70
3 249 250 251
3 253 252 14
