ply
format ascii 1.0
element vertex 324
property float x
property float y
property float z
element face 338
property list uchar int vertex_index
end_header
-16.312473 8.330641 72.170395
-11.335747 0.28924 81.109413
-11.259075 15.798031 77.578339
-5.829069 5.527889 83.413544
-22.2929 1.823748 66.9049
-17.073544 -5.428226 75.861572
-8.387661 -4.113801 84.390198
-8.66024 3.16618 82.957695
-5.683649 -1.897072 85.004021
-18.906376 11.938345 67.911285
-16.383825 15.973091 70.594696
-8.053917 18.938194 78.716736
-13.919956 4.42948 76.845886
-13.934153 12.141594 75.218506
-11.430294 7.842094 79.56498
-8.594629 10.898981 81.176552
-5.469549 13.315411 81.313812
-2.578178 14.970043 79.915504
-3.083195 7.193428 82.28566
-18.946552 4.77984 69.194092
-23.465971 -3.984233 69.236633
-19.555632 -1.814131 71.043045
-16.461922 1.07551 73.743713
-14.011209 -2.723215 78.476654
-11.239496 -6.651168 82.634766
-6.816225 -6.453111 85.569412
-7.021244 -2.941393 84.877045
-5.475531 -5.455757 85.717674
-17.559351 10.173845 69.936249
-17.616402 13.915955 69.22467
-16.340836 12.126022 71.420242
-6.343391 20.23608 78.755959
-12.670467 2.38784 79.073128
-12.70085 6.156097 78.304825
-11.402225 4.001196 80.366676
-7.257893 4.428093 83.381409
-8.684259 6.984232 82.135994
-7.215523 8.269896 82.488281
-7.043369 12.198225 81.437607
-5.713772 9.382927 82.448769
-4.241467 10.31221 82.016167
-4.417728 6.450333 83.044891
-23.876354 3.657688 65.350433
-22.003502 5.033394 66.206696
-20.342003 6.592152 67.272636
-20.513561 3.212639 67.939285
-18.311321 -3.622501 73.426964
-17.915266 -0.448088 72.302773
-16.70261 -2.288969 74.713364
-15.260074 -0.812164 76.142372
-15.470058 -4.138949 77.120422
-12.774101 -7.902446 81.556717
-9.70425 -8.705027 84.354759
-12.660854 14.014408 76.526474
-13.90015 16.11256 74.258522
-12.539967 18.040829 75.428406
-1.422209 15.506302 78.651962
-9.904367 -1.873108 82.894936
-10.016659 1.772041 82.178505
-8.548197 -0.537775 83.691811
-7.182919 0.687534 84.161209
-5.813229 1.765034 84.249718
-4.465733 2.672709 83.934738
-24.291046 0.626822 66.107346
-15.789714 -7.23925 78.238266
-18.991354 15.59985 67.233704
-17.683578 17.683998 68.411804
-9.714399 17.450382 78.318909
-11.030367 19.86026 76.334366
-9.375845 21.53046 76.931786
-15.117566 6.412867 74.510727
-15.12801 10.229177 73.734238
-13.930521 8.235058 76.06366
-12.707314 10.042795 77.473663
-11.389194 11.783592 78.648705
-10.081921 5.549236 81.412865
-10.065334 9.436874 80.541748
-9.945345 13.411674 79.519417
-8.382582 14.890739 80.042938
-6.746677 16.194401 80.198616
-5.114399 17.304592 79.978485
-3.578548 18.20948 79.378067
-3.952642 14.240437 80.805138
-2.872986 11.056519 81.20015
-3.183174 3.404594 83.220734
-20.316463 10.082972 66.723785
-18.873642 8.315676 68.530426
-17.56292 6.498526 70.627182
-22.782707 -1.194508 67.900604
-21.406116 -2.99649 70.013924
-20.865023 0.000662 68.830818
-19.166206 1.385843 70.004921
-17.670864 2.940413 71.388077
-16.340691 4.630802 72.918518
-15.150681 2.717678 75.290146
-13.936005 0.764378 77.629501
-12.650866 -1.228537 79.840782
-14.170252 -6.005366 79.426041
-12.676769 -4.66463 80.661224
-11.269005 -3.267949 81.851746
-9.787153 -5.368866 83.612427
-8.223606 -7.55323 85.088661
-15.1461 14.123352 72.893074
-15.135817 18.058704 71.933708
-5.354813 -7.18463 86.065579
-6.145878 -5.954434 85.643543
-6.02516 -7.683307 85.991447
-4.717745 -6.776744 85.960872
-5.354813 -7.18463 86.065579
-6.100528 22.26699 77.931492
-5.509276 20.780276 78.590878
-17.692432 -4.525364 74.644268
-18.581817 -5.089423 74.096699
-17.962929 -5.992286 75.314003
-5.035762 -1.454089 84.868359
-5.100552 0.376965 84.491208
-5.748439 -0.066019 84.626869
-25.39148 0.123402 65.823716
-25.12458 1.548439 65.403717
-18.948865 13.769098 67.572495
-19.688104 14.615702 66.702382
-19.645615 12.784949 67.041172
-16.390689 17.905704 70.115566
-17.040565 18.761158 69.02412
-17.033701 16.828544 69.50325
-2.485933 7.479476 81.721512
-2.380828 9.411022 81.178757
-2.97809 9.124973 81.742905
-3.172226 1.554194 83.638596
-3.824454 3.038651 83.577736
-3.813505 1.188251 83.995598
-21.10438 9.232267 66.213982
-21.114773 10.947623 65.993675
-24.188415 -3.089322 68.229484
-25.310533 -3.489191 67.963508
-24.588088 -4.384103 68.970657
-23.124339 -2.589371 68.568618
-23.846784 -1.694459 67.56147
-24.188415 -3.089322 68.229484
-20.480874 -2.405311 70.528485
-20.760396 -3.889294 71.178357
-19.835155 -3.298115 71.692917
-14.296043 -7.53733 79.948696
-14.979983 -6.622308 78.832154
-15.105774 -8.154272 79.354809
-8.159327 -9.203559 85.439087
-8.963928 -8.129129 84.72171
-8.899649 -9.779457 85.072136
-7.418596 -8.700164 85.671428
-8.159327 -9.203559 85.439087
-14.468846 19.088296 72.541912
-14.517983 17.085632 73.096115
-13.851012 18.115225 73.704319
-15.099367 20.033414 71.377304
-14.468846 19.088296 72.541912
-11.680089 20.978668 75.248906
-10.86568 21.904201 75.624108
-2.404268 16.936094 79.154331
-2.904453 18.555813 78.885613
-3.078363 16.589762 79.646785
-1.282755 17.443554 77.83823
-0.980514 15.681074 77.840896
-4.841043 -5.027651 85.599044
-4.945102 -3.248308 85.242218
-5.57959 -3.676414 85.360848
-4.841043 -5.027651 85.599044
-4.717745 -6.776744 85.960872
-6.983622 21.62736 77.975468
-7.838885 20.978417 77.955856
-7.198654 19.587137 78.736347
-6.983622 21.62736 77.975468
-6.100528 22.26699 77.931492
-23.768276 5.255833 65.108406
-24.752026 4.582852 64.776199
-22.83185 5.943687 65.536537
-23.768276 5.255833 65.108406
-22.939928 4.345541 65.778564
-21.947899 6.707479 65.955437
-22.83185 5.943687 65.536537
-21.172753 5.812773 66.739666
-21.11715 7.486857 66.488407
-21.947899 6.707479 65.955437
-23.885566 -5.259587 70.057586
-24.588088 -4.384103 68.970657
-19.212999 -4.2023 72.884876
-18.581817 -5.089423 74.096699
-18.933476 -2.718316 72.235005
-19.835155 -3.298115 71.692917
-19.212999 -4.2023 72.884876
-12.862637 -9.420493 82.02821
-13.597967 -8.485869 81.014035
-12.02391 -8.877052 82.508884
-12.862637 -9.420493 82.02821
-12.112447 -10.395098 82.980377
-11.256608 -8.251413 83.047909
-12.006799 -7.276807 82.095742
-12.02391 -8.877052 82.508884
-10.488985 -9.278342 83.907905
-10.471873 -7.678097 83.494763
-11.256608 -8.251413 83.047909
-9.692768 -10.292802 84.728656
-10.488985 -9.278342 83.907905
-8.899649 -9.779457 85.072136
-9.692768 -10.292802 84.728656
-13.170921 19.079359 74.289261
-13.851012 18.115225 73.704319
-13.220059 17.076694 74.843464
-1.551474 13.564083 79.333881
-2.000193 15.238173 79.283733
-2.129458 13.295953 79.965652
-1.072653 13.762729 78.567867
-1.551474 13.564083 79.333881
-0.980514 15.681074 77.840896
-1.072653 13.762729 78.567867
-4.426804 0.830802 84.333718
-5.139481 2.218871 84.092228
-5.100552 0.376965 84.491208
-3.813505 1.188251 83.995598
-4.426804 0.830802 84.333718
-5.035762 -1.454089 84.868359
-4.945102 -3.248308 85.242218
-24.917234 3.063871 65.025261
-24.752026 4.582852 64.776199
-24.0837 2.142255 65.72889
-24.917234 3.063871 65.025261
-25.12458 1.548439 65.403717
-17.318954 -6.878007 76.515175
-17.962929 -5.992286 75.314003
-16.677039 -7.783519 77.703521
-16.431629 -6.333738 77.049919
-17.318954 -6.878007 76.515175
-15.998326 -8.674475 78.845688
-16.677039 -7.783519 77.703521
-15.105774 -8.154272 79.354809
-15.998326 -8.674475 78.845688
-19.737699 16.397863 66.367699
-19.688104 14.615702 66.702382
-19.030276 17.43282 66.822525
-19.737699 16.397863 66.367699
-18.376389 18.474894 67.411575
-19.030276 17.43282 66.822525
-18.337466 16.641924 67.822754
-17.696131 19.567444 67.924496
-18.376389 18.474894 67.411575
-17.696131 19.567444 67.924496
-17.040565 18.761158 69.02412
-10.038419 22.739302 75.922818
-10.86568 21.904201 75.624108
-10.203106 20.69536 76.633076
-8.499849 22.274549 77.063381
-8.714881 20.234327 77.824261
-7.838885 20.978417 77.955856
-9.157702 23.580277 76.147179
-8.499849 22.274549 77.063381
-10.038419 22.739302 75.922818
-9.157702 23.580277 76.147179
-4.89478 19.314532 79.202141
-5.509276 20.780276 78.590878
-5.728895 18.770336 79.367222
-4.346474 17.757036 79.678276
-4.126855 19.766976 78.901932
-4.89478 19.314532 79.202141
-2.276862 11.339192 80.607975
-2.129458 13.295953 79.965652
-2.725582 13.013281 80.557827
-2.276862 11.339192 80.607975
-2.380828 9.411022 81.178757
-2.611334 1.828173 83.107933
-3.172226 1.554194 83.638596
-2.599417 3.686578 82.675945
-2.611334 1.828173 83.107933
-2.549427 5.580996 82.208408
-3.133185 5.299011 82.753197
-2.599417 3.686578 82.675945
-2.485933 7.479476 81.721512
-2.549427 5.580996 82.208408
-20.350658 11.857263 66.447422
-21.114773 10.947623 65.993675
-19.61142 11.010658 67.317535
-19.645615 12.784949 67.041172
-20.350658 11.857263 66.447422
-20.329233 8.337562 66.99821
-21.10438 9.232267 66.213982
-21.11715 7.486857 66.488407
-24.600953 -0.783794 66.664841
-25.39148 0.123402 65.823716
-23.536876 -0.283843 67.003975
-24.600953 -0.783794 66.664841
-23.846784 -1.694459 67.56147
-22.792253 -4.868292 70.364472
-23.885566 -5.259587 70.057586
-21.762325 -4.374421 70.753117
-20.760396 -3.889294 71.178357
-22.436044 -3.490362 69.625279
-22.792253 -4.868292 70.364472
-21.762325 -4.374421 70.753117
-13.472176 -6.953906 80.491379
-14.296043 -7.53733 79.948696
-13.597967 -8.485869 81.014035
-6.714906 -8.150105 85.911804
-7.519915 -7.00317 85.329037
-7.418596 -8.700164 85.671428
-5.92384 -9.380301 86.333839
-6.02516 -7.683307 85.991447
-6.714906 -8.150105 85.911804
-15.766685 18.948511 70.785072
-16.390689 17.905704 70.115566
-15.759821 17.015898 71.264202
-15.766685 18.948511 70.785072
-15.099367 20.033414 71.377304
-12.434889 20.068953 74.795925
-11.785167 18.950544 75.881386
-11.680089 20.978668 75.248906
-13.170921 19.079359 74.289261
-12.434889 20.068953 74.795925
-3.364392 20.198808 78.546166
-4.126855 19.766976 78.901932
-3.364392 20.198808 78.546166
-2.904453 18.555813 78.885613
-1.826283 17.204224 78.52256
-2.404268 16.936094 79.154331
-2.000193 15.238173 79.283733
-1.826283 17.204224 78.52256
-1.282755 17.443554 77.83823
3 104 27 105
3 106 105 25
3 104 105 106
3 108 107 27
3 0 30 28
3 110 109 31
3 1 34 32
3 3 37 35
3 3 39 37
3 3 41 39
3 4 43 42
3 4 45 43
3 5 111 113
3 111 46 112
3 111 112 113
3 5 48 46
3 5 50 48
3 2 55 53
3 6 59 57
3 8 60 26
3 8 61 60
3 8 114 116
3 116 115 61
3 114 115 116
3 117 63 118
3 9 119 121
3 119 65 120
3 119 120 121
3 10 66 29
3 10 122 124
3 124 123 66
3 122 123 124
3 11 69 67
3 12 72 70
3 14 73 33
3 14 74 73
3 7 75 58
3 15 76 36
3 15 77 76
3 15 78 77
3 16 79 38
3 16 80 79
3 16 82 80
3 18 83 40
3 18 125 127
3 127 126 83
3 125 126 127
3 128 84 129
3 130 129 62
3 128 129 130
3 131 85 132
3 19 86 44
3 19 87 86
3 20 133 135
3 133 134 135
3 20 136 138
3 136 88 137
3 136 137 138
3 21 139 141
3 139 89 140
3 139 140 141
3 21 90 89
3 21 91 90
3 22 92 47
3 22 93 92
3 22 94 93
3 23 95 49
3 23 96 95
3 142 97 143
3 144 143 64
3 142 143 144
3 24 98 51
3 24 99 98
3 24 100 99
3 145 101 146
3 147 146 52
3 145 146 147
3 149 148 101
3 13 102 71
3 150 103 151
3 152 151 54
3 150 151 152
3 154 153 103
3 156 155 68
3 17 157 159
3 159 158 81
3 157 158 159
3 161 160 56
3 25 26 6
3 27 26 25
3 27 8 26
3 27 162 164
3 164 163 8
3 162 163 164
3 166 165 27
3 28 29 9
3 30 29 28
3 30 10 29
3 31 167 169
3 169 168 11
3 167 168 169
3 171 170 31
3 32 33 12
3 34 33 32
3 34 14 33
3 35 36 7
3 37 36 35
3 37 15 36
3 37 38 15
3 39 38 37
3 39 16 38
3 39 40 16
3 41 40 39
3 41 18 40
3 42 172 173
3 43 174 176
3 176 175 42
3 174 175 176
3 43 177 178
3 43 179 181
3 179 44 180
3 179 180 181
3 45 44 43
3 45 19 44
3 182 20 183
3 46 184 185
3 46 186 188
3 186 21 187
3 186 187 188
3 46 47 21
3 48 47 46
3 48 22 47
3 48 49 22
3 50 49 48
3 50 23 49
3 189 51 190
3 191 51 192
3 191 192 193
3 194 24 195
3 196 195 51
3 194 195 196
3 197 52 198
3 199 198 24
3 197 198 199
3 200 52 201
3 203 202 52
3 53 54 13
3 55 54 53
3 55 204 206
3 206 205 54
3 204 205 206
3 207 56 208
3 209 208 17
3 207 208 209
3 210 56 211
3 213 212 56
3 57 58 1
3 59 58 57
3 59 7 58
3 26 59 6
3 60 59 26
3 60 7 59
3 60 35 7
3 61 35 60
3 61 3 35
3 61 62 3
3 214 62 215
3 216 215 61
3 214 215 216
3 218 217 62
3 220 219 8
3 221 42 222
3 63 223 225
3 223 42 224
3 223 224 225
3 63 4 42
3 226 5 227
3 228 64 229
3 230 229 5
3 228 229 230
3 231 64 232
3 234 233 64
3 65 235 236
3 65 237 238
3 29 65 9
3 66 65 29
3 66 239 241
3 241 240 65
3 239 240 241
3 66 242 243
3 245 244 66
3 67 68 2
3 69 68 67
3 69 246 248
3 248 247 68
3 246 247 248
3 249 69 250
3 251 250 11
3 249 250 251
3 252 69 253
3 255 254 69
3 70 71 0
3 72 71 70
3 72 13 71
3 33 72 12
3 73 72 33
3 73 13 72
3 73 53 13
3 74 53 73
3 74 2 53
3 58 34 1
3 75 34 58
3 75 14 34
3 36 75 7
3 76 75 36
3 76 14 75
3 76 74 14
3 77 74 76
3 77 2 74
3 77 67 2
3 78 67 77
3 78 11 67
3 38 78 15
3 79 78 38
3 79 11 78
3 79 31 11
3 80 31 79
3 80 256 258
3 258 257 31
3 256 257 258
3 80 259 261
3 259 81 260
3 259 260 261
3 82 81 80
3 82 17 81
3 40 82 16
3 83 82 40
3 83 17 82
3 83 262 264
3 264 263 17
3 262 263 264
3 266 265 83
3 62 41 3
3 84 41 62
3 84 18 41
3 267 84 268
3 269 84 270
3 271 18 272
3 273 272 84
3 271 272 273
3 275 274 18
3 85 276 277
3 85 278 280
3 278 9 279
3 278 279 280
3 44 281 283
3 281 85 282
3 281 282 283
3 86 85 44
3 86 9 85
3 86 28 9
3 87 28 86
3 87 0 28
3 284 63 285
3 88 286 288
3 286 63 287
3 286 287 288
3 88 4 63
3 289 20 290
3 89 291 292
3 89 293 295
3 293 20 294
3 293 294 295
3 89 88 20
3 90 88 89
3 90 4 88
3 90 45 4
3 91 45 90
3 91 19 45
3 47 91 21
3 92 91 47
3 92 19 91
3 92 87 19
3 93 87 92
3 93 0 87
3 93 70 0
3 94 70 93
3 94 12 70
3 49 94 22
3 95 94 49
3 95 12 94
3 95 32 12
3 96 32 95
3 96 1 32
3 64 50 5
3 97 50 64
3 97 23 50
3 51 296 298
3 296 97 297
3 296 297 298
3 98 97 51
3 98 23 97
3 98 96 23
3 99 96 98
3 99 1 96
3 99 57 1
3 100 57 99
3 100 6 57
3 52 100 24
3 101 100 52
3 101 6 100
3 101 25 6
3 299 25 300
3 301 300 101
3 299 300 301
3 304 303 25
3 302 303 304
3 71 30 0
3 102 30 71
3 102 10 30
3 54 102 13
3 103 102 54
3 103 10 102
3 103 305 307
3 307 306 10
3 305 306 307
3 309 308 103
3 68 55 2
3 310 55 311
3 312 311 68
3 310 311 312
3 314 313 55
3 81 315 316
3 318 317 81
3 56 319 321
3 321 320 17
3 319 320 321
3 323 322 56
