ply
format ascii 1.0
element vertex 368
property float x
property float y
property float z
element face 391
property list uchar int vertex_index
end_header
19.206142 55.129341 46.049522
32.650387 64.993118 24.216349
25.424402 42.94194 51.497658
27.156483 51.93084 43.421219
21.382917 63.843437 36.157383
29.436125 58.668625 34.006535
38.331142 55.429962 32.294575
36.926064 63.156677 24.361565
24.640656 37.479931 55.0756
28.694269 37.593384 54.605713
29.512821 42.715096 51.05159
15.373301 56.813339 48.812698
16.257309 62.004829 43.399261
17.420364 66.605354 37.904076
20.214161 59.79319 41.211418
31.327078 50.547386 42.663307
28.219009 55.453293 38.878441
32.515892 53.679108 38.006416
33.885742 56.832291 33.241474
36.937847 52.14917 36.853752
28.213837 67.244583 24.343405
22.23782 48.719284 48.641853
23.117477 53.434311 44.337093
26.23373 47.795509 47.611588
30.344126 47.009094 47.043175
22.635059 67.293526 30.726513
24.154634 57.521973 39.807472
25.299618 61.062325 34.911507
26.591434 64.260071 29.666729
30.879385 61.868912 29.01733
35.372398 60.145729 28.61327
28.23245 34.775703 56.179558
30.295855 34.952873 56.150902
30.748058 37.697689 54.529388
18.794022 52.588135 48.439941
17.284506 55.998695 47.307671
17.729416 58.534035 44.760544
18.244041 60.930153 42.199909
19.682682 57.534859 43.644901
33.44347 49.849304 42.152721
31.895838 52.135307 40.361191
34.062077 51.37043 39.828461
34.731503 52.891167 37.482212
30.411552 66.037971 24.222446
25.037167 40.273857 53.328003
23.07901 40.403919 53.895996
23.438305 43.142735 51.990799
21.863033 46.14344 50.740791
23.812321 45.756546 50.028641
24.213163 48.222679 48.014214
25.818819 45.455894 49.591103
31.546913 42.573914 50.827576
29.916473 44.968311 49.098503
31.950953 44.673164 48.789467
32.391605 46.558701 46.652176
19.421953 65.257095 36.959793
18.063755 68.651024 35.078896
20.052036 67.17231 34.229591
20.699081 68.919571 31.404003
21.997629 65.638954 33.491749
25.119699 52.658585 43.815674
23.619793 55.555527 42.110085
25.625507 54.628075 41.608501
28.80549 57.076805 36.475025
26.72736 58.163994 36.914124
27.326855 59.799202 34.42733
25.918205 62.690849 32.320541
27.973896 61.394241 31.874409
28.68924 62.971497 29.294024
30.122581 60.262627 31.506844
36.146278 56.092651 32.81749
34.61882 58.481857 30.894043
36.846092 57.77607 30.54962
37.513268 59.448112 28.362274
38.938114 57.144608 30.086016
34.85564 64.053177 24.281525
33.669502 66.369598 21.942146
35.805019 65.329666 22.160667
26.19149 34.63855 56.325211
26.643709 37.500629 54.737572
27.059843 40.237968 53.035583
27.459707 42.816418 51.228195
29.113129 40.250542 52.891663
31.155365 40.246456 52.747688
15.367616 67.824295 38.995811
16.811867 64.385834 40.669533
18.814209 63.174522 39.608253
20.785828 61.896606 38.724472
29.227196 51.234344 43.064697
27.670059 53.752861 41.196117
29.760414 52.925285 40.801224
30.337673 54.529587 38.459114
30.960291 56.100433 36.056694
31.630676 57.682549 33.622734
33.181812 55.232872 35.623219
35.433701 54.458588 35.137016
37.652382 53.752701 34.556641
20.704464 51.846451 47.326485
21.147865 54.26255 45.064259
22.655441 51.153809 46.50927
24.648222 50.525391 45.946152
26.678106 49.952019 45.557137
27.862377 45.210106 49.323715
28.283936 47.40596 47.327316
28.73634 49.407097 45.24086
30.811104 48.856178 44.894859
32.886242 48.266335 44.4338
21.642584 56.530495 42.770668
22.178688 58.644348 40.424919
22.744028 60.605972 38.001839
26.161884 56.452888 39.310287
24.714911 59.349205 37.410515
23.330132 62.42617 35.481232
23.938379 64.123039 32.857475
24.583601 65.71682 30.145172
25.292715 67.222412 27.378067
27.347429 65.781349 26.992592
29.495825 64.529633 26.730484
31.719633 63.464844 26.577734
32.352486 59.298859 31.19363
33.129448 60.938927 28.807482
33.963741 62.552795 26.496824
36.140465 61.74411 26.42823
31.063299 33.610264 56.874962
30.034253 33.501533 56.871285
32.079771 33.684429 56.837601
31.312328 35.027039 56.113541
31.063299 33.610264 56.874962
34.806365 50.247459 40.660316
33.752774 50.609867 40.990591
34.497061 49.486897 41.822446
35.143919 50.994084 39.499588
34.806365 50.247459 40.660316
32.046582 66.215885 23.004611
30.927164 66.738312 23.00766
31.53097 65.515545 24.219397
32.736464 43.501628 49.611317
31.748933 43.623539 49.808521
32.534444 42.452004 50.630371
32.941854 44.473444 48.542431
32.736464 43.501628 49.611317
39.338302 55.120106 31.952005
39.641789 55.977429 30.847726
38.634628 56.287285 31.190296
26.949125 33.237864 56.963311
25.938802 33.163708 57.059216
31.954895 38.993769 53.550647
30.951712 38.972072 53.638538
31.751241 37.719385 54.441497
32.147841 40.20089 52.604984
31.954895 38.993769 53.550647
15.215076 55.420799 50.154113
16.144592 55.075203 49.329178
14.419093 57.15652 49.657726
15.215076 55.420799 50.154113
14.593266 58.553951 48.23523
14.419093 57.15652 49.657726
15.254535 62.480133 44.094509
16.015741 60.740505 44.755409
15.515925 63.737431 42.651973
15.254535 62.480133 44.094509
16.534588 63.195332 42.034397
15.793204 64.927933 41.287109
15.515925 63.737431 42.651973
38.001202 51.791412 36.472101
38.358469 52.593178 35.323545
37.295114 52.950935 35.705196
27.621039 68.602314 23.101298
27.155992 67.943218 24.472299
33.125067 67.513378 20.692914
34.216772 66.935581 20.84145
23.679939 37.523516 55.406341
24.429163 36.036208 55.90498
22.14307 40.523838 54.358211
22.301291 41.924141 53.349548
21.277138 49.006443 49.104869
21.089745 47.718521 50.154339
22.050427 47.431362 49.691322
21.471142 50.282868 47.984169
20.51046 50.570026 48.447186
21.277138 49.006443 49.104869
33.642796 47.141994 45.254975
32.638924 47.412518 45.542988
33.395477 46.288178 46.364162
33.912028 47.939781 44.117264
33.642796 47.141994 45.254975
16.716271 68.304355 36.975307
15.689896 68.913826 37.521175
16.39399 67.214825 38.449944
17.377016 70.321945 34.058217
18.396065 69.582226 33.626404
22.003594 68.897511 29.607343
21.035604 69.710533 29.946089
21.66707 68.106549 31.065258
22.975028 68.055782 29.304104
22.003594 68.897511 29.607343
37.825178 60.224602 27.327869
38.478583 59.134346 28.161364
37.340429 63.698422 23.386858
37.829523 62.714084 24.381504
29.002551 33.412948 56.885613
27.969605 33.30644 56.890484
29.264153 34.864288 56.16523
29.002551 33.412948 56.885613
30.034253 33.501533 56.871285
31.538429 36.399446 55.302784
30.521957 36.325281 55.340145
31.312328 35.027039 56.113541
31.751241 37.719385 54.441497
31.538429 36.399446 55.302784
17.854952 52.962601 49.142799
18.621091 51.256291 49.628902
17.100194 54.667881 48.576664
17.854952 52.962601 49.142799
18.039264 54.293415 47.873806
16.328903 56.406017 48.060184
16.144592 55.075203 49.329178
17.100194 54.667881 48.576664
16.529339 57.737438 46.709614
15.573737 58.14476 47.462127
16.328903 56.406017 48.060184
16.751794 59.005108 45.436051
16.529339 57.737438 46.709614
17.506961 57.266365 46.034108
16.993362 60.269432 44.079903
16.015741 60.740505 44.755409
16.751794 59.005108 45.436051
35.478632 51.754452 38.326464
34.39679 52.130798 38.655336
35.143919 50.994084 39.499588
36.581804 51.383454 38.012234
35.834675 52.520168 37.167982
35.478632 51.754452 38.326464
37.634707 51.007294 37.610241
36.581804 51.383454 38.012234
29.810231 67.327019 22.988918
28.711374 67.930325 23.049397
29.312694 66.641277 24.282926
29.810231 67.327019 22.988918
30.927164 66.738312 23.00766
22.480938 43.293549 52.39695
22.301291 41.924141 53.349548
23.258657 41.773327 52.943398
22.650669 44.643088 51.365795
21.693302 44.793902 51.771946
22.480938 43.293549 52.39695
33.16218 45.416213 47.473785
32.171279 45.615932 47.720821
32.941854 44.473444 48.542431
33.395477 46.288178 46.364162
33.16218 45.416213 47.473785
19.390205 68.842869 33.201752
18.396065 69.582226 33.626404
19.057896 67.911667 34.654243
20.375559 68.045941 32.816797
19.713727 69.716499 31.788958
19.390205 68.842869 33.201752
39.191006 57.982594 29.023235
38.478583 59.134346 28.161364
38.225691 58.29636 29.224145
39.868074 56.851768 29.752212
39.191006 57.982594 29.023235
40.571749 55.684589 30.513921
39.868074 56.851768 29.752212
39.641789 55.977429 30.847726
35.284531 66.415615 20.95071
34.216772 66.935581 20.84145
34.737261 65.849632 22.051406
36.779907 64.784916 22.286409
36.365541 64.243172 23.261116
37.340429 63.698422 23.386858
36.306072 65.804749 21.13196
36.779907 64.784916 22.286409
35.785584 66.890698 19.922004
35.284531 66.415615 20.95071
36.306072 65.804749 21.13196
25.20458 34.615517 56.529786
25.938802 33.163708 57.059216
25.416073 36.059241 55.700406
24.429163 36.036208 55.90498
25.20458 34.615517 56.529786
27.21197 34.707127 56.252385
26.949125 33.237864 56.963311
27.969605 33.30644 56.890484
32.343615 41.364619 51.644928
31.351139 41.410185 51.787632
32.147841 40.20089 52.604984
32.534444 42.452004 50.630371
32.343615 41.364619 51.644928
14.593266 58.553951 48.23523
15.573737 58.14476 47.462127
15.071079 66.647164 40.450249
14.320536 68.336407 39.610012
16.089741 66.105064 39.832672
15.071079 66.647164 40.450249
15.793204 64.927933 41.287109
38.702669 53.419701 34.196675
39.042049 54.258331 33.065641
37.991762 54.591332 33.425608
38.702669 53.419701 34.196675
38.358469 52.593178 35.323545
38.001202 51.791412 36.472101
37.634707 51.007294 37.610241
27.621039 68.602314 23.101298
28.711374 67.930325 23.049397
32.556139 66.904125 21.86751
32.046582 66.215885 23.004611
33.159945 65.681358 23.079248
32.556139 66.904125 21.86751
33.125067 67.513378 20.692914
22.899116 38.98551 54.816539
23.679939 37.523516 55.406341
23.859833 38.941925 54.485798
22.899116 38.98551 54.816539
22.14307 40.523838 54.358211
20.921997 46.381134 51.26419
21.693302 44.793902 51.771946
20.921997 46.381134 51.26419
21.089745 47.718521 50.154339
19.555239 50.940869 49.003913
18.621091 51.256291 49.628902
19.749243 52.217293 47.883213
19.555239 50.940869 49.003913
20.51046 50.570026 48.447186
34.190641 48.731266 42.976725
33.164856 49.057819 43.293261
33.912028 47.939781 44.117264
34.497061 49.486897 41.822446
34.190641 48.731266 42.976725
14.634246 69.49231 38.063961
14.320536 68.336407 39.610012
14.634246 69.49231 38.063961
15.689896 68.913826 37.521175
17.037966 69.327191 35.562718
16.716271 68.304355 36.975307
17.742059 67.628189 36.491486
17.037966 69.327191 35.562718
17.377016 70.321945 34.058217
20.055591 70.552948 30.29315
19.713727 69.716499 31.788958
20.055591 70.552948 30.29315
21.035604 69.710533 29.946089
23.949299 67.267429 29.013433
22.975028 68.055782 29.304104
23.60933 66.505173 30.435842
24.303856 68.020226 27.629881
23.949299 67.267429 29.013433
24.938158 66.469616 28.76162
24.680388 68.72023 26.186512
24.303856 68.020226 27.629881
25.695431 67.932132 25.989629
24.680388 68.72023 26.186512
26.722789 67.211601 25.796892
25.695431 67.932132 25.989629
26.320072 66.50188 27.18533
27.780633 66.512966 25.667998
27.155992 67.943218 24.472299
26.722789 67.211601 25.796892
37.138777 61.372601 26.360847
36.826866 60.596111 27.395252
37.825178 60.224602 27.327869
37.531576 62.078884 25.327515
36.533265 62.450394 25.394897
37.138777 61.372601 26.360847
37.829523 62.714084 24.381504
37.531576 62.078884 25.327515
39.338302 55.120106 31.952005
39.042049 54.258331 33.065641
3 123 32 124
3 127 126 32
3 125 126 127
3 0 35 34
3 0 36 35
3 0 38 36
3 128 41 129
3 130 129 39
3 128 129 130
3 132 131 41
3 1 133 135
3 135 134 43
3 133 134 135
3 2 46 44
3 2 48 46
3 2 50 48
3 136 53 137
3 138 137 51
3 136 137 138
3 140 139 53
3 4 57 55
3 4 59 57
3 3 62 60
3 5 65 63
3 5 67 65
3 5 69 67
3 6 72 70
3 6 74 72
3 6 141 143
3 143 142 74
3 141 142 143
3 7 77 75
3 144 78 145
3 9 79 31
3 9 80 79
3 9 82 80
3 146 83 147
3 148 147 33
3 146 147 148
3 150 149 83
3 11 151 152
3 11 153 154
3 11 155 156
3 12 157 158
3 12 159 160
3 12 161 163
3 161 85 162
3 161 162 163
3 14 86 37
3 14 87 86
3 15 90 88
3 17 91 40
3 17 92 91
3 17 94 92
3 19 95 42
3 19 96 95
3 19 164 166
3 166 165 96
3 164 165 166
3 20 167 168
3 170 169 76
3 8 171 172
3 174 173 45
3 21 175 177
3 177 176 47
3 175 176 177
3 21 178 180
3 178 97 179
3 178 179 180
3 21 99 97
3 23 100 49
3 23 101 100
3 10 102 81
3 24 103 52
3 24 104 103
3 24 105 104
3 181 106 182
3 183 182 54
3 181 182 183
3 185 184 106
3 13 186 188
3 188 187 84
3 186 187 188
3 190 189 56
3 25 191 193
3 193 192 58
3 191 192 193
3 25 194 195
3 22 107 98
3 26 108 61
3 26 109 108
3 16 110 89
3 27 111 64
3 27 112 111
3 27 113 112
3 28 114 66
3 28 115 114
3 28 116 115
3 29 117 68
3 29 118 117
3 18 119 93
3 30 120 71
3 30 121 120
3 30 122 121
3 197 196 73
3 199 198 7
3 200 31 201
3 32 202 204
3 202 31 203
3 202 203 204
3 32 9 31
3 32 33 9
3 205 33 206
3 207 206 32
3 205 206 207
3 209 208 33
3 34 210 211
3 35 212 214
3 214 213 34
3 212 213 214
3 35 215 217
3 215 11 216
3 215 216 217
3 35 218 220
3 220 219 11
3 218 219 220
3 36 221 223
3 223 222 35
3 221 222 223
3 36 224 226
3 224 12 225
3 224 225 226
3 36 37 12
3 38 37 36
3 38 14 37
3 39 40 15
3 41 40 39
3 41 17 40
3 41 42 17
3 227 42 228
3 229 228 41
3 227 228 229
3 230 19 231
3 232 231 42
3 230 231 232
3 234 233 19
3 43 235 237
3 237 236 20
3 235 236 237
3 239 238 43
3 44 45 8
3 46 45 44
3 46 240 242
3 242 241 45
3 240 241 242
3 46 243 245
3 243 47 244
3 243 244 245
3 48 47 46
3 48 21 47
3 48 49 21
3 50 49 48
3 50 23 49
3 51 52 10
3 53 52 51
3 53 24 52
3 53 54 24
3 246 54 247
3 248 247 53
3 246 247 248
3 250 249 54
3 55 56 13
3 57 56 55
3 57 251 253
3 253 252 56
3 251 252 253
3 57 254 256
3 254 58 255
3 254 255 256
3 59 58 57
3 59 25 58
3 60 61 22
3 62 61 60
3 62 26 61
3 63 64 16
3 65 64 63
3 65 27 64
3 65 66 27
3 67 66 65
3 67 28 66
3 67 68 28
3 69 68 67
3 69 29 68
3 70 71 18
3 72 71 70
3 72 30 71
3 72 73 30
3 74 73 72
3 74 257 259
3 259 258 73
3 257 258 259
3 74 260 261
3 264 263 74
3 262 263 264
3 75 76 1
3 77 76 75
3 77 265 267
3 267 266 76
3 265 266 267
3 268 77 269
3 270 269 7
3 268 269 270
3 271 77 272
3 275 274 77
3 273 274 275
3 78 276 277
3 78 278 280
3 278 8 279
3 278 279 280
3 31 281 283
3 281 78 282
3 281 282 283
3 79 78 31
3 79 8 78
3 79 44 8
3 80 44 79
3 80 2 44
3 80 81 2
3 82 81 80
3 82 10 81
3 33 82 9
3 83 82 33
3 83 10 82
3 83 51 10
3 284 51 285
3 286 285 83
3 284 285 286
3 288 287 51
3 290 289 11
3 291 84 292
3 85 293 295
3 293 84 294
3 293 294 295
3 85 13 84
3 37 85 12
3 86 85 37
3 86 13 85
3 86 55 13
3 87 55 86
3 87 4 55
3 88 89 3
3 90 89 88
3 90 16 89
3 40 90 15
3 91 90 40
3 91 16 90
3 91 63 16
3 92 63 91
3 92 5 63
3 92 93 5
3 94 93 92
3 94 18 93
3 42 94 17
3 95 94 42
3 95 18 94
3 95 70 18
3 96 70 95
3 96 6 70
3 96 296 298
3 298 297 6
3 296 297 298
3 300 299 96
3 302 301 19
3 304 303 20
3 76 305 307
3 307 306 1
3 305 306 307
3 309 308 76
3 45 310 312
3 312 311 8
3 310 311 312
3 314 313 45
3 47 315 316
3 318 317 47
3 319 34 320
3 97 321 323
3 321 34 322
3 321 322 323
3 97 0 34
3 97 98 0
3 99 98 97
3 99 22 98
3 49 99 21
3 100 99 49
3 100 22 99
3 100 60 22
3 101 60 100
3 101 3 60
3 81 50 2
3 102 50 81
3 102 23 50
3 52 102 10
3 103 102 52
3 103 23 102
3 103 101 23
3 104 101 103
3 104 3 101
3 104 88 3
3 105 88 104
3 105 15 88
3 54 105 24
3 106 105 54
3 106 15 105
3 106 39 15
3 324 39 325
3 326 325 106
3 324 325 326
3 328 327 39
3 84 329 330
3 332 331 84
3 56 333 335
3 335 334 13
3 333 334 335
3 337 336 56
3 58 338 339
3 341 340 58
3 98 38 0
3 107 38 98
3 107 14 38
3 61 107 22
3 108 107 61
3 108 14 107
3 108 87 14
3 109 87 108
3 109 4 87
3 89 62 3
3 110 62 89
3 110 26 62
3 64 110 16
3 111 110 64
3 111 26 110
3 111 109 26
3 112 109 111
3 112 4 109
3 112 59 4
3 113 59 112
3 113 25 59
3 66 113 27
3 114 113 66
3 114 25 113
3 114 342 344
3 344 343 25
3 342 343 344
3 115 345 347
3 347 346 114
3 345 346 347
3 115 348 349
3 115 350 351
3 116 352 354
3 354 353 115
3 352 353 354
3 116 355 357
3 355 20 356
3 355 356 357
3 68 116 28
3 117 116 68
3 117 20 116
3 117 43 20
3 118 43 117
3 118 1 43
3 93 69 5
3 119 69 93
3 119 29 69
3 71 119 18
3 120 119 71
3 120 29 119
3 120 118 29
3 121 118 120
3 121 1 118
3 121 75 1
3 122 75 121
3 122 7 75
3 73 122 30
3 358 122 359
3 360 359 73
3 358 359 360
3 361 7 362
3 363 362 122
3 361 362 363
3 365 364 7
3 367 366 6
