ply
format ascii 1.0
element vertex 260
property float x
property float y
property float z
element face 257
property list uchar int vertex_index
end_header
11.599033 -73.720734 76.648445
20.472874 -69.900009 75.033455
16.263102 -77.91658 68.73114
4.110527 -75.368088 75.712944
16.046864 -71.915878 76.11129
18.118122 -74.079468 72.32991
13.824551 -76.328262 73.273376
1.629877 -74.82061 73.970329
2.819147 -79.730438 71.650192
22.17765 -71.945511 70.803185
20.238491 -75.563591 67.352608
7.510494 -74.966309 76.57608
9.627493 -78.295105 73.565613
5.861504 -79.531509 73.057007
4.919102 -83.722244 68.829628
9.542223 -70.103668 79.324707
5.840673 -70.695549 79.137756
3.02424 -70.482414 78.037827
12.20149 -80.428833 69.578049
13.801189 -72.866295 76.447113
14.885235 -74.163788 74.806717
12.689457 -75.161591 75.090073
21.353567 -70.989975 73.077042
17.104164 -76.035416 70.632332
19.155704 -74.877441 69.972412
18.27758 -76.692337 68.096687
17.585556 -78.447075 66.031647
5.707117 -75.284378 76.253304
6.61512 -77.291077 74.914299
4.897984 -77.571091 74.448685
3.751343 -81.868965 70.32058
7.595821 -70.494759 79.330696
3.410749 -65.700615 81.032928
3.802834 -68.222656 79.897942
2.703424 -67.914108 79.121384
2.000673 -70.075371 77.112839
8.875315 -80.460114 71.709473
10.858898 -79.51136 71.716476
18.287117 -70.91394 75.643707
19.26239 -72.035583 73.803596
17.091507 -73.10611 74.377449
15.980522 -75.210815 72.875999
15.012408 -77.232704 71.154953
2.746149 -75.21096 74.949188
3.390989 -77.594505 73.76062
2.11676 -77.35939 72.856529
20.196484 -72.980392 71.639694
21.132282 -73.799538 69.185196
9.487524 -74.434319 76.699471
10.550068 -76.047974 75.215714
8.511478 -76.772476 75.164291
7.670746 -79.029114 73.420685
7.005722 -81.198387 71.481422
4.234728 -79.770134 72.465622
5.286783 -81.67807 71.018906
6.546782 -83.276443 69.3741
21.667614 -67.677948 76.000465
19.492363 -68.637802 76.662537
17.241642 -69.58757 77.181152
14.966892 -70.493996 77.579407
12.719639 -71.318825 77.864975
11.641239 -69.545593 79.160423
10.549585 -72.022354 78.027634
8.503023 -72.567215 78.042503
6.621531 -72.922012 77.877571
4.940842 -73.064621 77.503143
5.163429 -68.342529 80.396179
4.30884 -70.692253 78.712799
3.489475 -72.984657 76.899956
2.287067 -72.684555 76.063828
11.692638 -77.376114 73.509499
12.917717 -78.413162 71.523651
14.226574 -79.184624 69.234055
20.913221 -70.444992 74.055249
21.955187 -69.947441 73.668476
21.51484 -69.402458 74.646683
2.606911 -66.617058 79.615857
3.057087 -66.807361 80.077156
2.960573 -65.510311 80.571629
2.288067 -67.672894 78.597904
2.606911 -66.617058 79.615857
9.549017 -81.016842 70.721425
8.600634 -81.502202 70.690876
23.102947 -71.467834 70.308781
22.750817 -70.96989 71.493595
22.590351 -72.384422 69.538883
23.102947 -71.467834 70.308781
21.177898 -75.062153 66.933186
21.624794 -74.180127 67.84948
20.685386 -74.681565 68.268902
20.818279 -75.889145 65.949128
21.177898 -75.062153 66.933186
5.615945 -84.491897 67.984318
6.429785 -84.268997 68.256554
5.732942 -83.499344 69.101864
22.21262 -66.530563 76.345028
22.692917 -67.205551 75.581879
23.237923 -66.058166 75.926441
18.942337 -67.913185 77.339131
20.057944 -67.463516 77.044266
17.816976 -68.388069 77.598438
18.367002 -69.112686 76.921844
18.942337 -67.913185 77.339131
14.407841 -69.672375 78.227314
15.541632 -69.273685 78.036045
13.284215 -70.084789 78.370098
13.843266 -70.90641 77.722191
14.407841 -69.672375 78.227314
10.591731 -69.82463 79.242565
11.107711 -68.565445 79.79979
10.058203 -68.844482 79.881932
4.872927 -67.126632 81.022045
5.587269 -67.141956 81.176518
1.671583 -71.127243 76.059376
1.620151 -69.783306 76.53349
1.358879 -75.849628 72.862957
1.198151 -74.51883 73.383774
22.338776 -70.492122 72.630524
21.955187 -69.947441 73.668476
21.765608 -71.467743 71.940113
22.750817 -70.96989 71.493595
22.338776 -70.492122 72.630524
18.899368 -76.974186 66.709373
19.879824 -76.409813 66.337334
19.258035 -76.127964 67.724648
18.553356 -77.851555 65.676853
18.899368 -76.974186 66.709373
17.931568 -77.569706 67.064167
18.28507 -78.677693 64.569874
19.252871 -78.082172 64.21508
18.553356 -77.851555 65.676853
3.088513 -81.814949 69.859955
3.285245 -80.799701 70.985386
2.622415 -80.745686 70.524761
3.612301 -82.861976 69.182438
3.088513 -81.814949 69.859955
4.19618 -83.788616 68.436962
4.335222 -82.795604 69.575104
3.612301 -82.861976 69.182438
4.124371 -84.755806 67.287514
4.847293 -84.689434 67.68018
4.19618 -83.788616 68.436962
9.061809 -69.057778 79.975964
10.058203 -68.844482 79.881932
8.088608 -69.253323 79.978958
8.569022 -70.299214 79.327702
9.061809 -69.057778 79.975964
7.180839 -69.38232 79.979576
8.088608 -69.253323 79.978958
6.303265 -69.482715 79.883106
6.718247 -70.595154 79.234226
7.180839 -69.38232 79.979576
3.606791 -66.961635 80.465435
4.192629 -67.066696 80.772926
3.996586 -65.805676 81.340419
1.936691 -68.753525 77.593632
2.352048 -68.99474 78.117111
2.288067 -67.672894 78.597904
1.620151 -69.783306 76.53349
1.936691 -68.753525 77.593632
10.540809 -80.542465 70.724926
9.867107 -79.985737 71.712975
9.549017 -81.016842 70.721425
11.212104 -81.001202 69.655712
11.530194 -79.970096 70.647262
10.540809 -80.542465 70.724926
1.602321 -77.119019 72.306057
1.873319 -76.09 73.413429
1.358879 -75.849628 72.862957
1.875752 -78.387439 71.742153
1.602321 -77.119019 72.306057
2.226945 -79.572964 71.138984
2.467954 -78.544914 72.25336
1.875752 -78.387439 71.742153
2.622415 -80.745686 70.524761
2.226945 -79.572964 71.138984
3.746822 -64.569304 81.937255
3.996586 -65.805676 81.340419
4.33266 -64.674364 82.244747
3.261059 -64.43017 81.54401
3.746822 -64.569304 81.937255
2.960573 -65.510311 80.571629
3.261059 -64.43017 81.54401
22.067667 -73.311436 68.729889
22.590351 -72.384422 69.538883
21.654966 -72.872524 69.994191
22.067667 -73.311436 68.729889
21.624794 -74.180127 67.84948
20.818279 -75.889145 65.949128
19.879824 -76.409813 66.337334
7.665838 -81.871338 70.576851
8.600634 -81.502202 70.690876
7.940518 -80.829251 71.595448
7.436368 -82.910366 69.52319
7.665838 -81.871338 70.576851
6.776252 -82.237415 70.427761
7.273216 -83.914276 68.432857
7.436368 -82.910366 69.52319
7.273216 -83.914276 68.432857
6.429785 -84.268997 68.256554
5.615945 -84.491897 67.984318
4.847293 -84.689434 67.68018
22.11221 -68.291427 75.130188
22.692917 -67.205551 75.581879
21.070244 -68.788978 75.51696
21.51484 -69.402458 74.646683
22.11221 -68.291427 75.130188
21.145569 -66.983589 76.71323
22.21262 -66.530563 76.345028
20.579988 -68.157875 76.331501
21.145569 -66.983589 76.71323
20.057944 -67.463516 77.044266
16.679007 -68.820472 77.836917
17.816976 -68.388069 77.598438
16.104267 -70.040783 77.38028
16.679007 -68.820472 77.836917
15.541632 -69.273685 78.036045
12.171957 -68.279968 79.637378
11.107711 -68.565445 79.79979
12.745015 -69.198173 79.017822
12.171957 -68.279968 79.637378
12.180439 -70.432209 78.512699
13.284215 -70.084789 78.370098
12.745015 -69.198173 79.017822
5.964643 -68.306206 80.512317
5.587269 -67.141956 81.176518
5.502051 -69.519039 79.766967
6.303265 -69.482715 79.883106
5.964643 -68.306206 80.512317
4.483131 -68.282592 80.147061
4.872927 -67.126632 81.022045
4.192629 -67.066696 80.772926
1.81478 -72.431835 75.534871
2.14387 -71.379963 76.588334
1.671583 -71.127243 76.059376
1.486185 -73.499863 74.488121
1.958472 -73.752583 75.017078
1.81478 -72.431835 75.534871
1.054458 -73.198082 73.901566
1.198151 -74.51883 73.383774
1.486185 -73.499863 74.488121
11.949558 -81.41037 68.522087
11.212104 -81.001202 69.655712
12.923341 -80.758163 68.358402
11.949558 -81.41037 68.522087
13.935882 -80.136059 68.186406
13.214032 -79.806728 69.406052
12.923341 -80.758163 68.358402
14.922069 -79.465229 67.941162
13.935882 -80.136059 68.186406
15.940333 -78.831207 67.689705
15.244838 -78.550602 68.982597
14.922069 -79.465229 67.941162
16.60156 -79.096454 66.339958
16.924329 -78.181827 67.381394
15.940333 -78.831207 67.689705
17.335338 -79.311329 64.914719
16.60156 -79.096454 66.339958
18.28507 -78.677693 64.569874
17.335338 -79.311329 64.914719
3 0 21 19
3 1 73 75
3 73 22 74
3 73 74 75
3 2 25 23
3 2 26 25
3 3 29 27
3 76 34 77
3 78 77 32
3 76 77 78
3 80 79 34
3 82 81 36
3 4 40 38
3 6 41 20
3 6 42 41
3 7 45 43
3 9 83 84
3 9 85 86
3 5 46 39
3 10 47 24
3 10 87 89
3 89 88 47
3 87 88 89
3 10 90 91
3 11 50 48
3 13 51 28
3 13 52 51
3 8 53 44
3 14 54 30
3 14 55 54
3 14 92 94
3 94 93 55
3 92 93 94
3 95 56 96
3 95 96 97
3 98 57 99
3 100 58 101
3 102 101 57
3 100 101 102
3 103 59 104
3 105 60 106
3 107 106 59
3 105 106 107
3 15 108 110
3 108 61 109
3 108 109 110
3 15 62 61
3 15 63 62
3 16 64 31
3 16 65 64
3 111 66 112
3 17 67 33
3 17 68 67
3 17 69 68
3 114 113 35
3 12 70 49
3 18 71 37
3 18 72 71
3 19 20 4
3 21 20 19
3 21 6 20
3 116 115 7
3 22 117 118
3 22 119 121
3 119 9 120
3 119 120 121
3 23 24 5
3 25 24 23
3 25 10 24
3 25 122 124
3 124 123 10
3 122 123 124
3 26 125 127
3 127 126 25
3 125 126 127
3 26 128 130
3 128 129 130
3 27 28 11
3 29 28 27
3 29 13 28
3 131 30 132
3 133 132 8
3 131 132 133
3 134 30 135
3 136 14 137
3 138 137 30
3 136 137 138
3 141 140 14
3 139 140 141
3 142 15 143
3 144 31 145
3 146 145 15
3 144 145 146
3 147 31 148
3 149 16 150
3 151 150 31
3 149 150 151
3 32 152 154
3 152 33 153
3 152 153 154
3 34 33 32
3 34 17 33
3 34 35 17
3 155 35 156
3 157 156 34
3 155 156 157
3 159 158 35
3 36 37 12
3 160 37 161
3 162 161 36
3 160 161 162
3 163 18 164
3 165 164 37
3 163 164 165
3 38 39 1
3 40 39 38
3 40 5 39
3 20 40 4
3 41 40 20
3 41 5 40
3 41 23 5
3 42 23 41
3 42 2 23
3 43 44 3
3 45 44 43
3 45 8 44
3 166 45 167
3 168 167 7
3 166 167 168
3 169 45 170
3 171 8 172
3 173 172 45
3 171 172 173
3 175 174 8
3 176 32 177
3 176 177 178
3 179 32 180
3 182 181 32
3 39 22 1
3 46 22 39
3 46 9 22
3 24 46 5
3 47 46 24
3 47 9 46
3 47 183 185
3 185 184 9
3 183 184 185
3 187 186 47
3 189 188 10
3 48 49 0
3 50 49 48
3 50 12 49
3 28 50 11
3 51 50 28
3 51 12 50
3 51 36 12
3 52 36 51
3 52 190 192
3 192 191 36
3 190 191 192
3 44 29 3
3 53 29 44
3 53 13 29
3 30 53 8
3 54 53 30
3 54 13 53
3 54 52 13
3 55 52 54
3 55 193 195
3 195 194 52
3 193 194 195
3 55 196 197
3 199 198 55
3 201 200 14
3 56 202 203
3 56 204 206
3 204 1 205
3 204 205 206
3 207 56 208
3 57 209 211
3 209 56 210
3 209 210 211
3 57 1 56
3 57 38 1
3 58 38 57
3 58 4 38
3 212 58 213
3 59 214 216
3 214 58 215
3 214 215 216
3 59 4 58
3 59 19 4
3 60 19 59
3 60 0 19
3 61 217 218
3 61 219 220
3 61 221 223
3 221 60 222
3 221 222 223
3 62 60 61
3 62 0 60
3 62 48 0
3 63 48 62
3 63 11 48
3 31 63 15
3 64 63 31
3 64 11 63
3 64 27 11
3 65 27 64
3 65 3 27
3 66 224 225
3 66 226 228
3 226 16 227
3 226 227 228
3 33 229 231
3 229 66 230
3 229 230 231
3 67 66 33
3 67 16 66
3 67 65 16
3 68 65 67
3 68 3 65
3 68 43 3
3 69 43 68
3 69 7 43
3 35 69 17
3 232 69 233
3 234 233 35
3 232 233 234
3 235 7 236
3 237 236 69
3 235 236 237
3 240 239 7
3 238 239 240
3 49 21 0
3 70 21 49
3 70 6 21
3 37 70 12
3 71 70 37
3 71 6 70
3 71 42 6
3 72 42 71
3 72 2 42
3 241 18 242
3 243 18 244
3 245 72 246
3 247 246 18
3 245 246 247
3 248 72 249
3 250 2 251
3 252 251 72
3 250 251 252
3 253 26 254
3 255 254 2
3 253 254 255
3 256 26 257
3 259 258 26
