ply
format ascii 1.0
element vertex 216
property float x
property float y
property float z
element face 209
property list uchar int vertex_index
end_header
0.917259 57.477436 11.303925
3.484844 43.662945 19.576954
-0.780308 52.059643 25.521458
0.837196 37.18626 31.773525
3.424545 52.315868 8.836615
2.215927 50.828671 15.497937
-1.199747 47.994343 32.503166
-0.070536 44.671894 28.762617
-0.216171 63.662457 7.234134
-0.831696 62.048771 14.602974
-1.235807 59.328579 22.129601
-0.036783 55.287884 18.406719
0.974173 48.21944 22.182144
2.067709 40.843422 25.762974
1.4002 58.135227 7.806239
2.634575 55.482166 6.584925
2.118738 55.002224 9.971655
2.841679 51.721615 12.155491
1.559473 54.216724 13.401024
-0.656658 66.621307 5.304435
-1.110214 65.32048 12.752983
-1.268358 64.24498 16.569708
-1.208155 53.863049 27.485775
-1.318268 57.593975 25.898251
-1.043083 55.712376 23.835779
-0.794136 57.334377 20.165419
-0.445686 53.792248 21.972271
0.450701 51.79269 20.310604
-0.037642 50.196339 23.754223
0.362598 40.942715 30.298248
0.906322 42.852737 27.174282
1.419853 39.105896 28.794781
1.341068 33.392544 33.189461
3.542217 48.28632 14.323052
2.863472 47.309925 17.564339
-1.291349 51.813213 31.096909
-1.031555 50.117016 29.03673
-0.453808 48.37788 27.168121
-0.787977 46.366817 30.537983
-0.477789 42.618145 31.981834
-0.103258 38.870178 33.366058
0.328869 35.114563 34.69212
0.718157 61.136326 5.692205
0.31629 60.620785 9.23913
-0.899036 66.114624 8.992825
-0.538034 63.000111 10.889021
-0.09041 59.806545 12.846262
-1.36479 61.2943 24.2904
-1.355967 62.89822 20.423088
-1.070753 60.819843 18.357029
-0.469999 58.7057 16.495188
0.427004 56.522953 14.843978
0.992252 53.140476 16.853611
1.582621 49.654194 18.845686
2.178293 46.06348 20.795679
0.416931 46.54929 25.492264
1.51754 44.569206 24.003128
2.763981 42.370853 22.686956
3.328236 38.580029 24.510496
-0.823109 68.0681 4.37701
-0.529775 66.729836 3.500672
4.14546 42.31303 19.037872
3.842905 44.180262 18.010755
3.776685 41.778496 20.549041
4.14546 42.31303 19.037872
-1.338844 65.326416 17.651222
-1.328881 65.924324 15.694468
1.391574 36.245184 31.063004
1.682902 37.205002 29.573631
1.128525 38.146078 30.284153
1.089132 35.289402 32.481493
1.643509 34.348326 31.770972
1.391574 36.245184 31.063004
3.677602 52.457527 7.198912
3.282617 54.040676 6.073067
3.02956 53.899017 7.71077
4.084352 50.837741 8.356801
3.677602 52.457527 7.198912
3.802488 50.645042 9.962193
4.084352 50.837741 8.356801
-1.245548 49.903778 31.800038
-1.297101 50.702953 32.875402
-1.2513 48.793518 33.578531
-0.639785 41.519506 33.561565
-0.758163 43.406667 32.91707
-0.452519 39.645523 34.253677
-0.290523 40.744162 32.673946
-0.639785 41.519506 33.561565
-0.295601 37.768803 34.868671
-0.452519 39.645523 34.253677
0.250993 62.399392 6.46317
0.41237 62.582392 4.672627
-0.054794 63.845458 5.443592
-1.101363 67.318557 9.975318
-1.03228 67.6372 8.078755
0.56696 33.225073 35.327309
0.11285 34.018055 36.118904
2.017387 56.808696 7.195582
2.238383 56.983455 5.477173
1.621196 58.309986 6.08783
-1.246007 46.859105 34.20631
-1.2513 48.793518 33.578531
-1.119142 46.094766 33.177736
-1.246007 46.859105 34.20631
-0.275037 65.324883 4.478743
-0.529775 66.729836 3.500672
-0.436414 65.141882 6.269284
-0.054794 63.845458 5.443592
-0.275037 65.324883 4.478743
-1.249809 66.462074 13.786106
-1.206952 66.921486 11.855397
-1.189286 64.78273 14.661345
-1.249809 66.462074 13.786106
-1.328881 65.924324 15.694468
-1.263212 55.728512 26.692013
-1.319656 56.616387 27.769816
-1.264599 54.750923 28.563578
2.016558 38.073988 28.125946
2.340485 38.942751 26.610042
1.743781 39.974659 27.278878
2.016558 38.073988 28.125946
1.682902 37.205002 29.573631
1.90567 32.415487 32.518256
1.643509 34.348326 31.770972
1.598993 31.469463 33.867992
1.90567 32.415487 32.518256
2.854851 55.564537 4.92256
2.238383 56.983455 5.477173
2.854851 55.564537 4.92256
3.282617 54.040676 6.073067
3.511055 50.347915 11.621631
3.802488 50.645042 9.962193
3.133112 52.018742 10.496053
3.861324 48.630268 12.705412
3.511055 50.347915 11.621631
3.191948 50.003968 13.239272
4.210997 46.871197 13.813125
3.861324 48.630268 12.705412
3.871592 46.491949 15.383804
4.210997 46.871197 13.813125
3.532219 46.003751 17.004447
3.871592 46.491949 15.383804
3.202844 47.798123 15.943696
3.174158 45.486435 18.570647
3.842905 44.180262 18.010755
3.532219 46.003751 17.004447
-1.273884 52.651341 32.218328
-1.297101 50.702953 32.875402
-1.306196 53.726005 30.369146
-1.273884 52.651341 32.218328
-1.249752 52.838131 29.291342
-1.264599 54.750923 28.563578
-1.306196 53.726005 30.369146
-0.913258 45.281003 32.195144
-0.993862 47.18058 31.520575
-1.119142 46.094766 33.177736
-0.632883 44.492481 31.259909
-0.913258 45.281003 32.195144
-0.758163 43.406667 32.91707
-0.079537 35.890995 35.531702
0.112806 36.99237 34.029089
-0.295601 37.768803 34.868671
0.11285 34.018055 36.118904
-0.079537 35.890995 35.531702
0.902155 61.240994 3.956368
0.41237 62.582392 4.672627
1.280174 59.810536 5.030813
0.902155 61.240994 3.956368
1.059179 59.635776 6.749222
1.621196 58.309986 6.08783
1.280174 59.810536 5.030813
-0.911091 67.890541 6.234559
-0.823109 68.0681 4.37701
-0.777847 66.367965 7.14863
-0.911091 67.890541 6.234559
-1.03228 67.6372 8.078755
-1.004625 65.717552 10.872904
-1.101363 67.318557 9.975318
-1.206952 66.921486 11.855397
-1.308081 58.522667 27.023173
-1.319656 56.616387 27.769816
-1.331342 60.372829 26.219248
-1.308081 58.522667 27.023173
-1.341529 59.444137 25.094326
-1.299699 62.25959 25.45975
-1.331342 60.372829 26.219248
-1.360751 63.119074 23.483852
-1.299699 62.25959 25.45975
-1.356339 63.921034 21.550196
-1.360751 63.119074 23.483852
-1.360378 62.09626 22.356744
-1.382648 64.653036 19.577913
-1.356339 63.921034 21.550196
-1.312162 63.5716 18.496398
-1.338844 65.326416 17.651222
-1.382648 64.653036 19.577913
3.416254 41.13245 22.104042
3.776685 41.778496 20.549041
3.124413 43.016899 21.131955
3.698381 39.237038 23.015812
3.416254 41.13245 22.104042
3.046108 40.475441 23.598726
3.967485 37.295441 23.949894
3.698381 39.237038 23.015812
2.970749 37.811054 25.983804
2.697972 39.711726 25.136735
2.340485 38.942751 26.610042
3.594786 36.636899 25.386368
2.970749 37.811054 25.983804
3.967485 37.295441 23.949894
3.594786 36.636899 25.386368
1.073059 32.364064 34.57598
0.834969 34.253553 33.940791
0.56696 33.225073 35.327309
1.598993 31.469463 33.867992
1.073059 32.364064 34.57598
3 0 16 14
3 0 18 16
3 59 19 60
3 1 61 62
3 1 63 64
3 65 21 66
3 2 24 22
3 2 26 24
3 2 28 26
3 3 31 29
3 3 67 69
3 69 68 31
3 67 68 69
3 3 70 72
3 70 32 71
3 70 71 72
3 4 73 75
3 75 74 15
3 73 74 75
3 4 76 77
3 4 78 79
3 5 33 17
3 5 34 33
3 6 80 82
3 80 35 81
3 80 81 82
3 6 36 35
3 6 38 36
3 83 39 84
3 85 40 86
3 87 86 39
3 85 86 87
3 89 88 40
3 8 90 92
3 90 42 91
3 90 91 92
3 8 43 42
3 93 44 94
3 9 45 20
3 9 46 45
3 10 47 23
3 10 48 47
3 10 49 48
3 11 50 25
3 11 51 50
3 11 52 51
3 12 53 27
3 12 54 53
3 7 55 37
3 13 56 30
3 13 57 56
3 13 58 57
3 96 95 41
3 14 97 99
3 97 15 98
3 97 98 99
3 16 15 14
3 16 4 15
3 16 17 4
3 18 17 16
3 18 5 17
3 100 6 101
3 103 102 6
3 19 104 105
3 19 106 108
3 106 8 107
3 106 107 108
3 109 20 110
3 21 111 113
3 111 20 112
3 111 112 113
3 21 9 20
3 22 114 116
3 114 23 115
3 114 115 116
3 24 23 22
3 24 10 23
3 24 25 10
3 26 25 24
3 26 11 25
3 26 27 11
3 28 27 26
3 28 12 27
3 29 30 7
3 31 30 29
3 31 13 30
3 31 117 119
3 119 118 13
3 117 118 119
3 121 120 31
3 32 122 123
3 32 124 125
3 15 126 127
3 129 128 15
3 17 130 132
3 132 131 4
3 130 131 132
3 33 133 135
3 135 134 17
3 133 134 135
3 33 136 137
3 33 138 139
3 34 140 142
3 142 141 33
3 140 141 142
3 34 143 145
3 143 1 144
3 143 144 145
3 35 146 147
3 35 148 149
3 35 150 152
3 150 22 151
3 150 151 152
3 36 22 35
3 36 2 22
3 36 37 2
3 38 37 36
3 38 7 37
3 153 38 154
3 155 154 6
3 153 154 155
3 39 156 158
3 156 38 157
3 156 157 158
3 39 7 38
3 39 29 7
3 40 29 39
3 40 3 29
3 40 41 3
3 159 41 160
3 161 160 40
3 159 160 161
3 163 162 41
3 42 164 165
3 42 166 167
3 42 168 170
3 168 14 169
3 168 169 170
3 43 14 42
3 43 0 14
3 171 19 172
3 44 173 175
3 173 19 174
3 173 174 175
3 44 8 19
3 20 176 178
3 176 44 177
3 176 177 178
3 45 44 20
3 45 8 44
3 45 43 8
3 46 43 45
3 46 0 43
3 23 179 180
3 47 181 183
3 183 182 23
3 181 182 183
3 47 184 185
3 47 186 187
3 48 188 190
3 190 189 47
3 188 189 190
3 48 191 192
3 48 193 195
3 193 21 194
3 193 194 195
3 49 21 48
3 49 9 21
3 25 49 10
3 50 49 25
3 50 9 49
3 50 46 9
3 51 46 50
3 51 0 46
3 51 18 0
3 52 18 51
3 52 5 18
3 27 52 11
3 53 52 27
3 53 5 52
3 53 34 5
3 54 34 53
3 54 1 34
3 37 28 2
3 55 28 37
3 55 12 28
3 30 55 7
3 56 55 30
3 56 12 55
3 56 54 12
3 57 54 56
3 57 1 54
3 57 196 198
3 198 197 1
3 196 197 198
3 58 199 201
3 201 200 57
3 199 200 201
3 58 202 203
3 204 58 205
3 206 205 13
3 204 205 206
3 207 58 208
3 210 209 58
3 41 32 3
3 211 32 212
3 213 212 41
3 211 212 213
3 215 214 32
