ply
format ascii 1.0
element vertex 152
property float x
property float y
property float z
element face 121
property list uchar int vertex_index
end_header
-29.491798 -25.088177 -40.247883
-27.84709 -19.727957 -43.046257
-26.832462 -25.024038 -39.1106
-24.766016 -39.499645 -26.851711
-25.756668 -35.029621 -30.813423
-26.293842 -30.178829 -34.965237
-26.41423 -22.5457 -40.294254
-28.607048 -22.362553 -41.68874
-29.415129 -19.774143 -43.501144
-30.301018 -22.507118 -42.030163
-26.0567 -32.648663 -32.876522
-27.250198 -17.177774 -44.284927
-26.735998 -19.86842 -42.319267
-27.256617 -22.379337 -41.114128
-27.963383 -24.994308 -39.780502
-28.62752 -17.106941 -44.902119
-24.893261 -39.181442 -25.976849
-25.439568 -37.102962 -27.902828
-25.339823 -37.314499 -28.799118
-25.801058 -34.916367 -29.892227
-26.008743 -32.624413 -31.935707
-26.530899 -27.631655 -37.052624
-27.454502 -27.630867 -37.787476
-30.363811 -25.193699 -40.393526
-30.768421 -23.903169 -41.284666
-29.896408 -23.797648 -41.139023
-26.474158 -20.018546 -41.820892
-26.576398 -18.657098 -42.846882
-29.906859 -18.521887 -44.361963
-30.339441 -19.904394 -43.597179
-24.829639 -39.340543 -26.41428
-24.452303 -40.382835 -25.480227
-24.38868 -40.541937 -25.917658
-25.548246 -36.17206 -29.806271
-25.538753 -37.491638 -29.161302
-25.747175 -36.349199 -30.168455
-26.201847 -30.205412 -34.492012
-26.083276 -31.440329 -33.447654
-26.175271 -31.413746 -33.920879
-26.229519 -28.962722 -35.543574
-26.201847 -30.205412 -34.492012
-26.412371 -28.905242 -36.008931
-26.348047 -27.689135 -36.587267
-26.229519 -28.962722 -35.543574
-27.845356 -29.012989 -37.069502
-27.244748 -28.93494 -36.760447
-28.134678 -27.681807 -38.067903
-27.845356 -29.012989 -37.069502
-26.298235 -22.695223 -39.761612
-26.313274 -21.357185 -40.808385
-26.32897 -23.862473 -39.257998
-26.298235 -22.695223 -39.761612
-26.538086 -25.101641 -38.66617
-26.623346 -23.784869 -39.702427
-26.32897 -23.862473 -39.257998
-30.782385 -21.270882 -42.861688
-30.339441 -19.904394 -43.597179
-29.858073 -21.140631 -42.765653
-31.224922 -22.667626 -42.095223
-30.782385 -21.270882 -42.861688
-31.224922 -22.667626 -42.095223
-30.768421 -23.903169 -41.284666
-24.54021 -40.840283 -26.248632
-24.38868 -40.541937 -25.917658
-25.995975 -35.151533 -31.191085
-25.747175 -36.349199 -30.168455
-26.14599 -33.961054 -32.222635
-25.906684 -33.839142 -31.844973
-25.995975 -35.151533 -31.191085
-26.352691 -32.720716 -33.262954
-26.14599 -33.961054 -32.222635
-26.471262 -31.485799 -34.307312
-26.175271 -31.413746 -33.920879
-26.352691 -32.720716 -33.262954
-26.664418 -30.208922 -35.349328
-26.471262 -31.485799 -34.307312
-26.833498 -17.311775 -43.829712
-27.042099 -15.942718 -44.830484
-26.993098 -18.523097 -43.302097
-26.833498 -17.311775 -43.829712
-26.576398 -18.657098 -42.846882
-26.575114 -21.20706 -41.306761
-26.474158 -20.018546 -41.820892
-26.313274 -21.357185 -40.808385
-27.61236 -15.845038 -45.237347
-27.042099 -15.942718 -44.830484
-28.301021 -15.809621 -45.545942
-27.61236 -15.845038 -45.237347
-27.938859 -17.142357 -44.593523
-29.113467 -15.832832 -45.795777
-28.301021 -15.809621 -45.545942
-29.513055 -17.188285 -45.06245
-29.021324 -18.440542 -44.201631
-29.906859 -18.521887 -44.361963
-29.113467 -15.832832 -45.795777
-29.513055 -17.188285 -45.06245
-24.520466 -40.166141 -25.047981
-24.079508 -41.367535 -24.551359
-24.452303 -40.382835 -25.480227
-25.144685 -39.08926 -25.439351
-24.77189 -40.07396 -24.510483
-24.520466 -40.166141 -25.047981
-25.428261 -38.100994 -26.396653
-25.144685 -39.08926 -25.439351
-25.701414 -37.061754 -27.359642
-25.428261 -38.100994 -26.396653
-25.166415 -38.142202 -26.939839
-25.878456 -36.014348 -28.344938
-25.701414 -37.061754 -27.359642
-24.937224 -39.735841 -27.19669
-24.54021 -40.840283 -26.248632
-25.224128 -38.643268 -28.170393
-25.538753 -37.491638 -29.161302
-25.05292 -38.407072 -27.825415
-24.937224 -39.735841 -27.19669
-25.224128 -38.643268 -28.170393
-26.059202 -34.921051 -29.339637
-25.878456 -36.014348 -28.344938
-25.620313 -36.009664 -28.897527
-26.140048 -33.816187 -30.351711
-26.059202 -34.921051 -29.339637
-26.24389 -32.67021 -31.373451
-26.140048 -33.816187 -30.351711
-25.904901 -33.77039 -30.913967
-26.247379 -31.510226 -32.408945
-26.24389 -32.67021 -31.373451
-26.059297 -31.428204 -32.977247
-26.032722 -32.636538 -32.406115
-26.083276 -31.440329 -33.447654
-26.247379 -31.510226 -32.408945
-26.059297 -31.428204 -32.977247
-26.387304 -26.40545 -37.637183
-26.348047 -27.689135 -36.587267
-26.68168 -26.327846 -38.081612
-26.538086 -25.101641 -38.66617
-26.387304 -26.40545 -37.637183
-26.782947 -28.935334 -36.393021
-26.412371 -28.905242 -36.008931
-26.664418 -30.208922 -35.349328
-26.992701 -27.631261 -37.42005
-26.782947 -28.935334 -36.393021
-27.244748 -28.93494 -36.760447
-28.389119 -26.363528 -39.064417
-27.708942 -26.312587 -38.783989
-28.134678 -27.681807 -38.067903
-29.153326 -26.410463 -39.298107
-28.72759 -25.041243 -40.014193
-28.389119 -26.363528 -39.064417
-29.967666 -26.502411 -39.507157
-29.153326 -26.410463 -39.298107
-30.363811 -25.193699 -40.393526
-29.967666 -26.502411 -39.507157
3 0 9 7
3 0 23 25
3 25 24 9
3 23 24 25
3 26 12 27
3 2 13 6
3 2 14 13
3 1 15 11
3 29 28 8
3 3 30 32
3 30 16 31
3 30 31 32
3 3 17 16
3 4 33 35
3 33 18 34
3 33 34 35
3 4 19 18
3 4 20 19
3 5 36 38
3 38 37 10
3 36 37 38
3 5 39 40
3 5 41 43
3 41 21 42
3 41 42 43
3 44 22 45
3 47 46 22
3 48 6 49
3 50 6 51
3 52 2 53
3 54 53 6
3 52 53 54
3 7 8 1
3 9 8 7
3 9 55 57
3 57 56 8
3 55 56 57
3 9 58 59
3 61 60 9
3 62 3 63
3 64 4 65
3 66 10 67
3 68 67 4
3 66 67 68
3 69 10 70
3 71 5 72
3 73 72 10
3 71 72 73
3 75 74 5
3 76 11 77
3 12 78 80
3 78 11 79
3 78 79 80
3 12 1 11
3 6 81 83
3 81 12 82
3 81 82 83
3 13 12 6
3 13 1 12
3 13 7 1
3 14 7 13
3 14 0 7
3 11 84 85
3 15 86 88
3 88 87 11
3 86 87 88
3 15 89 90
3 8 15 1
3 91 15 92
3 93 92 8
3 91 92 93
3 95 94 15
3 16 96 98
3 96 97 98
3 16 99 101
3 99 100 101
3 16 102 103
3 17 104 106
3 106 105 16
3 104 105 106
3 17 107 108
3 109 3 110
3 18 111 112
3 18 113 115
3 113 3 114
3 113 114 115
3 18 17 3
3 19 17 18
3 19 116 118
3 118 117 17
3 116 117 118
3 19 119 120
3 20 121 123
3 123 122 19
3 121 122 123
3 20 124 125
3 10 20 4
3 126 20 127
3 128 127 10
3 126 127 128
3 130 129 20
3 21 131 132
3 21 133 135
3 133 2 134
3 133 134 135
3 136 21 137
3 138 137 5
3 136 137 138
3 22 139 141
3 139 21 140
3 139 140 141
3 22 2 21
3 22 14 2
3 142 14 143
3 144 143 22
3 142 143 144
3 145 0 146
3 147 146 14
3 145 146 147
3 148 0 149
3 151 150 0
