ply
format ascii 1.0
element vertex 220
property float x
property float y
property float z
element face 215
property list uchar int vertex_index
end_header
-0.003195 68.215622 -10.65538
-0.322243 77.399918 -18.274979
1.607151 62.96619 -23.496674
-1.675959 83.206863 -14.422186
-0.992111 79.376511 -11.099203
-0.209791 73.008392 -14.596758
1.943552 58.668644 -19.034969
2.570744 54.929028 -24.480408
-3.967037 85.235214 -16.929722
-1.470705 80.622925 -21.207863
0.193396 74.315903 -24.726212
1.359312 66.940216 -27.287415
0.662479 70.498993 -21.359909
0.740891 66.059937 -17.304745
2.259064 58.887943 -28.698536
2.588493 54.773716 -19.47905
-3.860714 86.388306 -13.561659
-0.924189 80.48024 -16.433283
-1.529362 82.066147 -17.925919
-0.694715 79.210892 -19.873196
-0.555134 77.639404 -23.075428
-0.017948 76.006241 -21.627735
0.553257 72.533264 -23.167122
0.189655 74.049744 -19.924294
-0.174744 70.628525 -12.641994
0.230726 69.589966 -16.060778
0.343882 67.255737 -14.017904
0.959192 63.783344 -15.165951
1.537577 65.024475 -25.511883
1.835812 62.987431 -28.150108
1.990614 61.055721 -26.266418
2.820805 52.702526 -26.812389
-0.521723 71.430054 -9.156481
-1.860052 84.068558 -10.762533
-1.19026 81.470215 -12.827696
-0.663225 78.517258 -14.745581
-0.212112 75.29599 -16.492111
-0.602009 76.287918 -12.935596
-0.595274 73.898102 -11.061159
1.706623 60.834721 -21.317112
2.091309 59.014515 -24.14489
2.261387 56.914043 -21.861206
2.816257 52.847416 -22.099442
-2.572451 84.485382 -15.811928
-2.597355 83.181793 -19.149155
-0.55839 75.744156 -25.957634
0.254669 72.311401 -27.483719
0.927254 68.624237 -28.745403
0.819496 70.72937 -26.137718
1.06238 68.857758 -24.46978
1.130173 66.795944 -22.559242
0.221403 71.878235 -18.045509
0.677296 68.314316 -19.383877
1.173218 64.63121 -20.483128
1.318369 62.423382 -18.304142
1.648808 60.197186 -16.063597
1.488888 64.735046 -29.718849
1.958498 60.674709 -30.37833
2.345711 56.452869 -30.698826
2.420643 56.95332 -26.706356
2.630482 54.638821 -28.908733
0.178414 67.003662 -9.647612
0.319032 66.562698 -11.297219
-3.850091 86.821442 -11.781934
-4.633369 87.050964 -12.385047
0.319032 66.562698 -11.297219
0.49257 66.082756 -12.978481
0.170344 67.73568 -12.336642
-0.664237 71.709992 -7.385424
-0.71834 72.990265 -8.310256
-1.948135 84.368484 -8.878844
-2.29737 85.145454 -9.670096
-1.091185 80.423363 -11.963449
-1.317964 81.834976 -10.969096
-1.218889 80.788124 -10.10485
-0.755116 74.224289 -9.262595
-0.769336 75.46743 -10.179428
-0.71834 72.990265 -8.310256
-0.558499 72.664078 -10.10882
-0.755116 74.224289 -9.262595
3.020916 51.779877 -20.86553
2.702375 53.810566 -20.789246
2.907033 52.743026 -19.555334
3.08439 50.727642 -22.066483
3.020916 51.779877 -20.86553
-4.930238 85.334243 -17.327923
-4.777864 85.9776 -15.757047
-4.0837 84.502381 -18.485518
-4.930238 85.334243 -17.327923
-2.124205 83.846123 -15.117057
-2.60329 84.98854 -14.040157
-2.155044 84.349281 -13.345287
-2.112444 81.08844 -21.708008
-2.675769 82.367874 -20.678654
-2.03403 81.902359 -20.178509
-1.509845 79.737472 -22.699182
-2.112444 81.08844 -21.708008
1.518098 60.846165 -14.525171
1.304 61.990265 -15.614774
1.17329 62.639244 -14.076348
1.922341 59.070225 -14.922346
1.518098 60.846165 -14.525171
2.789689 52.430233 -28.839359
2.725644 53.670673 -27.860561
2.88485 51.462086 -27.791187
2.642809 53.349926 -29.786219
2.789689 52.430233 -28.839359
-1.132033 79.683365 -9.236745
-1.218889 80.788124 -10.10485
-0.967754 78.206635 -10.19845
-1.132033 79.683365 -9.236745
2.483621 55.623287 -18.085764
2.266023 56.72118 -19.25701
2.161151 57.570751 -17.863723
2.850746 53.678241 -18.261814
2.483621 55.623287 -18.085764
2.907033 52.743026 -19.555334
2.850746 53.678241 -18.261814
-4.724703 86.554146 -14.073016
-4.633369 87.050964 -12.385047
-3.913876 85.81176 -15.245691
-4.777864 85.9776 -15.757047
-4.724703 86.554146 -14.073016
0.800225 64.346559 -13.552504
0.651537 65.519541 -14.591928
0.49257 66.082756 -12.978481
1.17329 62.639244 -14.076348
0.800225 64.346559 -13.552504
2.926186 51.69442 -25.652523
2.695774 53.815777 -25.646399
2.801156 52.807671 -24.486533
3.002915 50.489967 -26.698092
2.926186 51.69442 -25.652523
2.88485 51.462086 -27.791187
3.002915 50.489967 -26.698092
-0.41134 70.180855 -8.193378
-0.152076 68.573639 -8.942827
-0.262459 69.822838 -9.905931
-0.41134 70.180855 -8.193378
-0.664237 71.709992 -7.385424
-2.247091 84.780128 -11.51546
-2.29737 85.145454 -9.670096
-1.768006 83.63771 -12.59236
-2.155044 84.349281 -13.345287
-2.247091 84.780128 -11.51546
-1.652859 83.134148 -9.936515
-1.948135 84.368484 -8.878844
-1.525156 82.769386 -11.795115
-1.652859 83.134148 -9.936515
-1.317964 81.834976 -10.969096
-0.772703 76.662338 -11.116646
-0.79706 77.832214 -12.017399
-0.967754 78.206635 -10.19845
-0.598642 75.09301 -11.998378
-0.772703 76.662338 -11.116646
-0.769336 75.46743 -10.179428
2.923912 51.766865 -23.29605
2.801156 52.807671 -24.486533
2.6935 53.888222 -23.289925
3.192045 49.647091 -23.263091
2.923912 51.766865 -23.29605
3.08439 50.727642 -22.066483
0.178414 67.003662 -9.647612
-0.152076 68.573639 -8.942827
-3.247422 85.940002 -12.915023
-3.850091 86.821442 -11.781934
-3.216583 85.436844 -14.686794
-3.247422 85.940002 -12.915023
-2.60329 84.98854 -14.040157
-3.398859 83.47567 -19.595234
-4.0837 84.502381 -18.485518
-3.282196 84.208504 -18.039439
-3.398859 83.47567 -19.595234
-2.675769 82.367874 -20.678654
-1.052059 78.245712 -23.632965
-1.509845 79.737472 -22.699182
-1.012919 79.131164 -22.141645
-1.053688 77.298088 -25.074068
-1.052059 78.245712 -23.632965
-0.556762 76.69178 -24.516531
-1.181636 76.238663 -26.376556
-1.053688 77.298088 -25.074068
-0.654186 74.627594 -27.198501
-1.181636 76.238663 -26.376556
-0.247656 72.911216 -27.961544
-0.654186 74.627594 -27.198501
-0.151861 74.027779 -26.720676
0.185223 71.147568 -28.650799
-0.247656 72.911216 -27.961544
0.590962 70.467819 -28.114561
0.521516 69.303985 -29.281641
0.185223 71.147568 -28.650799
2.013779 58.335022 -16.378038
2.161151 57.570751 -17.863723
1.79618 59.432915 -17.549283
2.013779 58.335022 -16.378038
1.922341 59.070225 -14.922346
0.874877 67.418251 -29.825813
0.521516 69.303985 -29.281641
1.155694 65.473656 -30.312536
0.874877 67.418251 -29.825813
1.208071 66.679642 -29.232126
1.441638 63.486681 -30.699303
1.155694 65.473656 -30.312536
1.676443 61.456513 -31.029043
1.441638 63.486681 -30.699303
1.723693 62.704877 -30.048589
1.903185 59.378681 -31.24636
1.676443 61.456513 -31.029043
2.096792 57.267761 -31.406608
1.903185 59.378681 -31.24636
2.152105 58.563789 -30.538578
2.269559 55.099815 -31.445101
2.096792 57.267761 -31.406608
2.500424 54.25695 -30.681265
2.488097 55.545845 -29.80378
2.642809 53.349926 -29.786219
2.424272 52.903896 -31.42754
2.269559 55.099815 -31.445101
2.500424 54.25695 -30.681265
3 0 61 62
3 63 16 64
3 1 19 17
3 1 21 19
3 1 23 21
3 0 26 24
3 0 65 67
3 67 66 26
3 65 66 67
3 2 30 28
3 69 68 32
3 70 33 71
3 4 72 74
3 72 34 73
3 72 73 74
3 4 35 34
3 4 37 35
3 75 38 76
3 77 32 78
3 79 78 38
3 77 78 79
3 6 41 39
3 80 42 81
3 82 81 15
3 80 81 82
3 84 83 42
3 8 85 86
3 8 87 88
3 3 89 91
3 89 43 90
3 89 90 91
3 9 44 18
3 9 92 94
3 94 93 44
3 92 93 94
3 9 95 96
3 10 45 20
3 10 46 45
3 10 48 46
3 12 49 22
3 12 50 49
3 5 51 36
3 13 52 25
3 13 53 52
3 13 54 53
3 97 55 98
3 99 98 27
3 97 98 99
3 101 100 55
3 11 56 47
3 14 57 29
3 14 58 57
3 7 59 40
3 102 60 103
3 104 103 31
3 102 103 104
3 106 105 60
3 107 4 108
3 110 109 4
3 111 15 112
3 113 112 6
3 111 112 113
3 114 15 115
3 117 116 15
3 16 118 119
3 16 120 122
3 120 8 121
3 120 121 122
3 17 18 3
3 19 18 17
3 19 9 18
3 19 20 9
3 21 20 19
3 21 10 20
3 21 22 10
3 23 22 21
3 23 12 22
3 24 25 5
3 26 25 24
3 26 13 25
3 26 27 13
3 123 27 124
3 125 124 26
3 123 124 125
3 127 126 27
3 28 29 11
3 30 29 28
3 30 14 29
3 128 31 129
3 130 129 7
3 128 129 130
3 131 31 132
3 134 133 31
3 32 135 137
3 137 136 0
3 135 136 137
3 139 138 32
3 33 140 141
3 33 142 144
3 142 3 143
3 142 143 144
3 145 33 146
3 34 147 149
3 147 33 148
3 147 148 149
3 34 3 33
3 34 17 3
3 35 17 34
3 35 1 17
3 35 36 1
3 37 36 35
3 37 5 36
3 150 37 151
3 152 151 4
3 150 151 152
3 38 153 155
3 153 37 154
3 153 154 155
3 38 5 37
3 38 24 5
3 32 24 38
3 32 0 24
3 39 40 2
3 41 40 39
3 41 7 40
3 15 41 6
3 42 41 15
3 42 7 41
3 42 156 158
3 158 157 7
3 156 157 158
3 161 160 42
3 159 160 161
3 163 162 0
3 164 16 165
3 43 166 168
3 166 16 167
3 166 167 168
3 43 8 16
3 18 43 3
3 44 43 18
3 44 8 43
3 44 169 171
3 171 170 8
3 169 170 171
3 173 172 44
3 20 174 176
3 176 175 9
3 174 175 176
3 45 177 179
3 179 178 20
3 177 178 179
3 45 180 181
3 45 182 183
3 46 184 186
3 186 185 45
3 184 185 186
3 46 187 188
3 46 189 191
3 189 47 190
3 189 190 191
3 48 47 46
3 48 11 47
3 22 48 10
3 49 48 22
3 49 11 48
3 49 28 11
3 50 28 49
3 50 2 28
3 36 23 1
3 51 23 36
3 51 12 23
3 25 51 5
3 52 51 25
3 52 12 51
3 52 50 12
3 53 50 52
3 53 2 50
3 53 39 2
3 54 39 53
3 54 6 39
3 27 54 13
3 55 54 27
3 55 6 54
3 55 192 194
3 194 193 6
3 192 193 194
3 196 195 55
3 47 197 198
3 56 199 201
3 201 200 47
3 199 200 201
3 56 202 203
3 29 56 11
3 57 56 29
3 57 204 206
3 206 205 56
3 204 205 206
3 57 207 208
3 58 209 211
3 211 210 57
3 209 210 211
3 58 212 213
3 40 30 2
3 59 30 40
3 59 14 30
3 31 59 7
3 60 59 31
3 60 14 59
3 60 58 14
3 214 58 215
3 216 215 60
3 214 215 216
3 219 218 58
3 217 218 219
