ply
format ascii 1.0
element vertex 228
property float x
property float y
property float z
element face 218
property list uchar int vertex_index
end_header
-66.801224 -17.291466 -35.666943
-61.070885 -3.822349 -43.191689
-52.854301 8.579321 -48.775024
-62.959557 -4.601203 -38.480648
-59.970253 1.82518 -41.293442
-48.391716 13.639507 -50.336632
-53.474503 2.486261 -50.97081
-65.020515 -17.31566 -39.643265
-64.324509 -10.470867 -39.518181
-61.973091 -10.494195 -43.799828
-52.764381 12.992882 -45.070972
-56.525139 7.834194 -43.497143
-57.178104 2.599318 -46.35743
-58.065136 -3.861901 -47.699554
-60.926624 1.081751 -38.646858
-59.50592 4.141405 -39.732224
-67.719543 -20.760845 -33.768532
-67.141609 -20.683388 -35.649982
-66.210167 -20.789057 -37.576969
-66.071091 -17.211832 -37.639633
-62.177464 -4.100964 -40.854282
-63.689804 -7.405167 -39.154308
-62.787544 -7.123878 -41.398598
-63.282421 -10.393317 -41.665871
-61.575668 -7.049277 -43.623123
-50.61919 11.265163 -49.666008
-50.661724 13.481548 -47.806446
-52.745361 11.06085 -47.099369
-54.672604 10.556725 -44.359955
-54.804417 8.343845 -46.206898
-56.804321 5.412336 -45.128674
-55.053722 5.667601 -47.669212
-53.941578 -0.91128 -51.50515
-55.837685 -0.640787 -49.43515
-56.304928 -4.106077 -49.791916
-58.494553 -7.385213 -47.90041
-61.528797 -1.352953 -39.955948
-60.513317 -0.84934 -42.435905
-43.784794 15.33971 -52.934303
-46.217255 15.608425 -50.778305
-46.027615 13.471779 -52.608444
-48.3624 11.177307 -52.013084
-50.73748 8.551167 -51.16201
-53.101982 5.681635 -50.06588
-63.740196 -17.565208 -41.647728
-65.032837 -10.753476 -37.374359
-65.666527 -13.860441 -37.594051
-64.783669 -13.781185 -39.656872
-63.60891 -13.883307 -41.730518
-62.226852 -14.124495 -43.779556
-48.591644 15.515179 -48.325459
-57.978378 7.053513 -40.676472
-58.297386 4.902822 -42.475887
-58.715458 2.332071 -43.867886
-59.193329 -0.575005 -44.856247
-55.408005 2.641378 -48.738358
-57.612419 -0.515625 -47.200558
-59.678253 -3.753078 -45.482681
-60.119507 -7.151313 -45.80555
-60.475761 -10.728778 -45.879581
-59.332506 5.080225 -38.751023
-59.972938 3.643777 -38.322756
-55.383295 -4.273429 -50.739174
-55.123253 -2.508678 -50.648533
-54.20162 -2.676031 -51.595791
-56.536133 -5.903759 -49.814656
-55.383295 -4.273429 -50.739174
-44.837561 13.23303 -53.586551
-44.906205 14.405745 -52.771373
-43.71615 14.166996 -53.749481
-48.445193 9.728904 -52.665134
-47.206762 10.996279 -53.049545
-49.632733 8.415833 -52.239597
-49.54994 9.864237 -51.587547
-48.445193 9.728904 -52.665134
-50.87917 7.015147 -51.717499
-49.632733 8.415833 -52.239597
-65.020793 -19.180929 -39.584219
-65.61562 -20.917628 -38.551071
-65.615341 -19.052359 -38.610117
-64.380356 -17.440434 -40.645497
-64.380634 -19.305703 -40.58645
-65.020793 -19.180929 -39.584219
-63.603611 -6.251311 -37.688006
-63.189821 -4.957229 -37.275475
-51.797348 14.02475 -45.352386
-50.74602 14.269083 -46.720123
-51.713053 13.237215 -46.438709
-52.816206 13.617787 -43.915323
-51.797348 14.02475 -45.352386
-53.703311 12.586984 -43.624973
-52.816206 13.617787 -43.915323
-56.438835 8.796025 -42.492483
-55.512568 10.157291 -42.923889
-55.598872 9.19546 -43.928549
-57.251759 7.443853 -42.086807
-57.165454 8.405684 -41.082147
-56.438835 8.796025 -42.492483
-59.668484 -10.886468 -46.859287
-59.485157 -9.056995 -46.889995
-58.67788 -9.214686 -47.869702
-60.595237 -12.589629 -45.811208
-59.668484 -10.886468 -46.859287
-60.68329 2.11395 -37.780073
-61.267799 0.602016 -37.291227
-60.216272 2.611578 -39.189541
-60.68329 2.11395 -37.780073
-59.972938 3.643777 -38.322756
-67.857861 -22.475334 -33.739529
-68.068443 -22.510687 -32.841994
-67.568894 -22.436605 -34.680254
-67.857861 -22.475334 -33.739529
-67.430576 -20.722116 -34.709257
-67.16373 -22.491036 -35.604528
-67.568894 -22.436605 -34.680254
-66.675888 -20.736223 -36.613475
-66.698009 -22.543871 -36.568022
-67.16373 -22.491036 -35.604528
-57.630946 -7.543327 -48.868903
-57.399741 -5.745645 -48.846163
-56.536133 -5.903759 -49.814656
-58.67788 -9.214686 -47.869702
-57.630946 -7.543327 -48.868903
-67.797432 -20.894865 -32.852358
-68.068443 -22.510687 -32.841994
-67.430187 -19.164996 -33.751131
-67.797432 -20.894865 -32.852358
-66.971028 -17.430307 -34.700337
-67.260384 -19.026156 -34.717737
-67.430187 -19.164996 -33.751131
-62.596834 -3.340715 -37.95122
-63.189821 -4.957229 -37.275475
-61.580368 -0.499238 -38.034324
-61.267799 0.602016 -37.291227
-61.881455 -1.71659 -38.688869
-61.580368 -0.499238 -38.034324
-61.227711 -0.135601 -39.301403
-62.244177 -2.977078 -39.218298
-62.596834 -3.340715 -37.95122
-61.881455 -1.71659 -38.688869
-45.001024 15.474068 -51.856304
-45.178967 16.346001 -50.875622
-43.962736 16.211643 -51.953621
-46.03937 12.143515 -53.347225
-44.837561 13.23303 -53.586551
-47.195008 12.324543 -52.310764
-46.03937 12.143515 -53.347225
-47.206762 10.996279 -53.049545
-52.06142 5.580381 -51.169433
-51.919731 7.116401 -50.613945
-50.87917 7.015147 -51.717499
-52.247681 3.982693 -51.621899
-53.288242 4.083948 -50.518345
-52.06142 5.580381 -51.169433
-52.46212 2.327576 -51.983566
-52.247681 3.982693 -51.621899
-52.695658 0.628805 -52.250737
-53.70804 0.78749 -51.23798
-52.46212 2.327576 -51.983566
-52.964163 -1.099413 -52.42046
-52.695658 0.628805 -52.250737
-53.224205 -2.864164 -52.511101
-54.20162 -2.676031 -51.595791
-52.964163 -1.099413 -52.42046
-42.734293 16.017204 -52.951065
-43.962736 16.211643 -51.953621
-42.579521 15.032159 -53.834648
-42.734293 16.017204 -52.951065
-43.71615 14.166996 -53.749481
-42.579521 15.032159 -53.834648
-66.147075 -22.675621 -37.509962
-66.698009 -22.543871 -36.568022
-66.147075 -22.675621 -37.509962
-65.61562 -20.917628 -38.551071
-63.704864 -19.48497 -41.546751
-64.380634 -19.305703 -40.58645
-63.02804 -17.736203 -42.622669
-63.704864 -19.48497 -41.546751
-66.495041 -15.7169 -35.611067
-66.971028 -17.430307 -34.700337
-63.968734 -7.653293 -38.024836
-63.603611 -6.251311 -37.688006
-63.32468 -6.003185 -38.817478
-64.640251 -9.327447 -37.134861
-63.968734 -7.653293 -38.024836
-64.361321 -9.079321 -38.264333
-65.203941 -10.998631 -36.304784
-64.640251 -9.327447 -37.134861
-65.610848 -12.447905 -36.464775
-65.203941 -10.998631 -36.304784
-65.927693 -14.001388 -36.574621
-65.610848 -12.447905 -36.464775
-65.349682 -12.306959 -37.484205
-66.233876 -15.575954 -36.630497
-66.495041 -15.7169 -35.611067
-65.927693 -14.001388 -36.574621
-62.271368 -16.015847 -43.688583
-63.02804 -17.736203 -42.622669
-62.983524 -15.844851 -42.713642
-46.395886 16.341593 -49.711003
-45.178967 16.346001 -50.875622
-47.58308 16.29497 -48.48458
-46.395886 16.341593 -49.711003
-47.404449 15.561802 -49.551882
-48.747679 16.090042 -47.183459
-47.58308 16.29497 -48.48458
-49.71098 15.285899 -46.97963
-49.626684 14.498363 -48.065953
-50.74602 14.269083 -46.720123
-48.747679 16.090042 -47.183459
-49.71098 15.285899 -46.97963
-54.657423 11.368906 -43.269464
-53.703311 12.586984 -43.624973
-53.718492 11.774804 -44.715463
-54.657423 11.368906 -43.269464
-55.512568 10.157291 -42.923889
-57.871914 7.867855 -39.597183
-57.165454 8.405684 -41.082147
-58.568735 6.536279 -39.223146
-57.871914 7.867855 -39.597183
-58.742149 5.597459 -40.204348
-59.332506 5.080225 -38.751023
-58.568735 6.536279 -39.223146
-61.470783 -14.287488 -44.761196
-61.351306 -12.426637 -44.829569
-60.595237 -12.589629 -45.811208
-62.271368 -16.015847 -43.688583
-61.470783 -14.287488 -44.761196
3 60 15 61
3 0 17 16
3 0 19 17
3 1 22 20
3 1 24 22
3 2 27 25
3 2 29 27
3 2 31 29
3 62 34 63
3 64 63 32
3 62 63 64
3 66 65 34
3 4 36 14
3 4 37 36
3 67 40 68
3 69 68 38
3 67 68 69
3 70 41 71
3 72 42 73
3 74 73 41
3 72 73 74
3 76 75 42
3 7 77 79
3 79 78 18
3 77 78 79
3 7 80 82
3 80 44 81
3 80 81 82
3 3 83 84
3 8 45 21
3 8 46 45
3 8 47 46
3 9 48 23
3 9 49 48
3 5 50 39
3 10 85 87
3 87 86 26
3 85 86 87
3 10 88 89
3 10 90 91
3 11 92 94
3 94 93 28
3 92 93 94
3 11 95 97
3 95 51 96
3 95 96 97
3 11 52 51
3 12 53 30
3 12 54 53
3 6 55 43
3 13 56 33
3 13 57 56
3 13 58 57
3 98 59 99
3 100 99 35
3 98 99 100
3 102 101 59
3 103 14 104
3 15 105 107
3 105 14 106
3 105 106 107
3 15 4 14
3 16 108 109
3 17 110 112
3 112 111 16
3 110 111 112
3 17 113 114
3 17 115 117
3 115 18 116
3 115 116 117
3 19 18 17
3 19 7 18
3 20 21 3
3 22 21 20
3 22 8 21
3 22 23 8
3 24 23 22
3 24 9 23
3 25 26 5
3 27 26 25
3 27 10 26
3 27 28 10
3 29 28 27
3 29 11 28
3 29 30 11
3 31 30 29
3 31 12 30
3 32 33 6
3 34 33 32
3 34 13 33
3 34 35 13
3 118 35 119
3 120 119 34
3 118 119 120
3 122 121 35
3 123 16 124
3 125 16 126
3 127 0 128
3 129 128 16
3 127 128 129
3 130 3 131
3 14 132 133
3 36 134 136
3 136 135 14
3 134 135 136
3 36 137 139
3 137 3 138
3 137 138 139
3 36 20 3
3 37 20 36
3 37 1 20
3 38 140 142
3 140 39 141
3 140 141 142
3 40 39 38
3 40 5 39
3 143 40 144
3 41 145 147
3 145 40 146
3 145 146 147
3 41 5 40
3 41 25 5
3 42 25 41
3 42 2 25
3 42 43 2
3 148 43 149
3 150 149 42
3 148 149 150
3 151 6 152
3 153 152 43
3 151 152 153
3 154 6 155
3 156 32 157
3 158 157 6
3 156 157 158
3 159 32 160
3 163 162 32
3 161 162 163
3 164 38 165
3 166 38 167
3 169 168 38
3 18 170 171
3 173 172 18
3 44 174 175
3 44 176 177
3 178 0 179
3 21 180 182
3 182 181 3
3 180 181 182
3 45 183 185
3 185 184 21
3 183 184 185
3 45 186 187
3 45 188 189
3 46 190 192
3 192 191 45
3 190 191 192
3 46 193 195
3 193 0 194
3 193 194 195
3 46 19 0
3 47 19 46
3 47 7 19
3 23 47 8
3 48 47 23
3 48 7 47
3 48 44 7
3 49 44 48
3 49 196 198
3 198 197 44
3 196 197 198
3 39 199 200
3 50 201 203
3 203 202 39
3 201 202 203
3 50 204 205
3 26 50 5
3 206 50 207
3 208 207 26
3 206 207 208
3 210 209 50
3 28 211 213
3 213 212 10
3 211 212 213
3 215 214 28
3 51 216 217
3 51 218 219
3 51 220 222
3 220 15 221
3 220 221 222
3 52 15 51
3 52 4 15
3 30 52 11
3 53 52 30
3 53 4 52
3 53 37 4
3 54 37 53
3 54 1 37
3 43 31 2
3 55 31 43
3 55 12 31
3 33 55 6
3 56 55 33
3 56 12 55
3 56 54 12
3 57 54 56
3 57 1 54
3 57 24 1
3 58 24 57
3 58 9 24
3 35 58 13
3 59 58 35
3 59 9 58
3 59 49 9
3 223 49 224
3 225 224 59
3 223 224 225
3 227 226 49
