ply
format ascii 1.0
element vertex 330
property float x
property float y
property float z
element face 346
property list uchar int vertex_index
end_header
-29.321566 22.250866 61.233482
-40.735886 36.092079 47.85704
-24.534115 48.004314 44.954773
-35.969055 30.431618 56.545963
-33.646557 42.445 47.799778
-27.514675 35.245281 53.928715
-39.898808 46.834438 39.573532
-32.860847 26.33979 59.376591
-31.88426 32.792587 55.597324
-28.711063 28.771687 58.154007
-24.593311 31.836151 56.890957
-25.398594 25.21637 60.467705
-42.395859 42.874851 38.968651
-40.36261 41.678013 43.842533
-29.061016 44.949375 46.373817
-32.439713 47.787487 43.128723
-27.790401 50.532063 41.825935
-38.599331 33.82336 52.612328
-37.757141 39.69265 48.43119
-34.891243 36.659576 52.40229
-30.516312 39.011921 51.037827
-25.991259 41.688114 49.360577
-23.230927 38.5662 52.623245
-39.196114 51.763477 35.073055
-36.869461 45.047024 43.954002
-35.962631 50.007061 39.331505
-22.111269 22.191643 63.068451
-31.33914 20.975025 61.538815
-33.162079 23.053028 60.72876
-31.135815 24.256042 60.398788
-30.799919 27.519089 58.840645
-29.092922 25.518604 59.883163
-27.064882 26.916313 59.309376
-27.333807 23.644558 60.835228
-41.534687 39.643547 43.403191
-40.551506 38.946415 45.890015
-26.765606 46.361721 45.610672
-28.392807 47.789616 44.090096
-26.114897 49.298977 43.399956
-23.922943 51.05077 42.826218
-21.839722 53.089283 42.419048
-22.396402 49.935131 44.479736
-36.394814 27.182709 58.238445
-38.154091 25.791367 57.998787
-37.773003 29.060085 56.503418
-38.988663 30.702538 54.466888
-37.343315 32.253811 54.70668
-36.8634 35.342144 52.683201
-35.463631 33.597157 54.570705
-29.709476 33.955494 54.786083
-31.232452 35.934303 53.364609
-29.002588 37.124165 52.500683
-28.245138 40.255928 50.172966
-26.768944 38.472775 51.643921
-24.57513 40.072742 50.926842
-25.34374 36.758926 53.168625
-23.156981 30.37841 58.506344
-22.618858 33.771919 56.556789
-41.366905 44.964817 39.374168
-42.3806 45.503544 36.984482
-41.190857 47.50983 37.26799
-39.586899 49.31216 37.356575
-35.80233 41.145813 48.253143
-37.31559 42.429707 46.21315
-35.257385 43.860229 45.956062
-34.204048 48.968739 41.300655
-34.854805 25.14994 59.64447
-34.474846 28.429298 58.102753
-33.988728 31.650486 56.221523
-32.434544 29.591599 57.636509
-30.31991 30.753471 56.935623
-28.176508 32.012226 56.133369
-26.045979 33.463245 55.376587
-26.631508 30.18541 57.458237
-25.079533 28.519463 58.812557
-23.532209 27.013699 60.244957
-41.471992 42.351147 41.419849
-40.151085 44.299572 41.734459
-31.374733 43.678513 47.140656
-33.028664 45.168789 45.465004
-30.716278 46.445164 44.811722
-30.105677 49.11208 42.495102
-40.043236 32.059143 52.181385
-39.734055 35.102425 50.309902
-39.424923 38.020638 48.299404
-38.187569 36.824196 50.580021
-36.343853 38.307854 50.510246
-34.276031 39.609505 50.12421
-33.40593 34.79425 54.095306
-32.752411 37.85001 51.822315
-32.063313 40.812542 49.485558
-29.779018 42.019867 48.693089
-27.485455 43.34074 47.866856
-25.232464 44.873943 47.126823
-23.05616 46.690868 46.568878
-23.795561 43.391975 48.716702
-23.962698 35.182251 54.796532
-27.453655 20.363205 61.973797
-39.109127 40.807144 46.194794
-38.781815 43.469391 44.027916
-38.436874 46.025928 41.814873
-34.722916 46.462223 43.638969
-36.420383 47.564297 41.662331
-38.064693 48.503048 39.556999
-37.651146 50.931126 37.245193
-25.55426 21.910995 61.784245
-23.73756 23.65778 61.69873
-22.005554 25.626022 61.798115
-41.197457 34.99452 47.493778
-40.835555 34.604232 48.785036
-41.160939 36.45915 46.585093
-41.197457 34.99452 47.493778
-40.643696 37.519247 46.873527
-41.068748 37.886318 45.60158
-41.160939 36.45915 46.585093
-22.230621 31.444744 58.482079
-22.448349 29.718742 59.375641
-28.668273 51.108437 40.99782
-29.825912 50.398446 41.332403
-28.948039 49.822071 42.160519
-27.522183 51.85389 40.689243
-28.668273 51.108437 40.99782
-20.853962 54.253605 42.300245
-21.101926 52.630234 43.315893
-38.941189 25.006573 57.695366
-38.757038 26.640062 57.038681
-22.841825 40.274742 51.535434
-23.513927 41.028013 50.687233
-23.903029 39.319471 51.775043
-22.213568 39.631027 52.491709
-22.841825 40.274742 51.535434
-22.283982 35.4908 55.519262
-21.667082 34.886697 56.531166
-42.753922 43.080444 37.745476
-42.67853 41.717493 38.672613
-42.773802 45.720627 35.789062
-42.32066 46.789738 35.957507
-39.862595 52.13644 33.957651
-40.05728 50.889504 35.083894
-38.952382 52.989185 33.891752
-39.862595 52.13644 33.957651
-22.016213 47.756862 46.406734
-22.370386 46.052093 47.442913
-25.566243 20.252708 62.258069
-26.503957 21.1371 61.879021
-26.51594 19.478813 62.352845
-22.924414 22.924712 62.38359
-23.765504 21.975778 62.261415
-22.952358 21.24271 62.946275
-32.250609 22.014026 61.133787
-33.26149 21.404478 61.187044
-32.35002 20.365476 61.592072
-41.560339 38.234884 44.358168
-41.900114 38.500841 43.067635
-41.043097 39.294981 44.646603
-41.560339 38.234884 44.358168
-41.068748 37.886318 45.60158
-25.830669 50.717491 42.303814
-26.668422 51.334034 41.516804
-26.952649 49.91552 42.612946
-24.734693 51.593387 42.016945
-25.830669 50.717491 42.303814
-25.01892 50.174874 43.113087
-23.66585 52.520168 41.765583
-24.734693 51.593387 42.016945
-22.881332 52.070026 42.622633
-22.624239 53.539425 41.561998
-23.66585 52.520168 41.765583
-21.380266 51.053158 44.346237
-21.101926 52.630234 43.315893
-22.118062 51.512207 43.449392
-37.274452 26.487038 58.118616
-37.449463 24.836491 58.785152
-36.569824 25.532162 58.904981
-38.566494 28.274422 56.290997
-38.757038 26.640062 57.038681
-37.963547 27.425726 57.251103
-38.380833 29.881312 55.485153
-39.174324 29.095648 55.272731
-38.566494 28.274422 56.290997
-21.96156 33.141498 57.507301
-22.887919 32.075164 57.531566
-22.230621 31.444744 58.482079
-21.667082 34.886697 56.531166
-21.96156 33.141498 57.507301
-41.725788 47.792881 36.09926
-42.32066 46.789738 35.957507
-41.785729 46.506687 37.126236
-41.054652 48.76268 36.181362
-41.725788 47.792881 36.09926
-40.252673 49.663845 36.225655
-41.054652 48.76268 36.181362
-40.388878 48.410995 37.312282
-39.391507 50.537819 36.214815
-40.05728 50.889504 35.083894
-40.252673 49.663845 36.225655
-33.044497 49.640828 41.039999
-33.32188 48.378113 42.214689
-32.162329 49.050202 41.954033
-33.949638 50.185574 40.113669
-33.044497 49.640828 41.039999
-34.82893 50.704735 39.129093
-35.08334 49.4879 40.31608
-33.949638 50.185574 40.113669
-35.722664 51.205822 38.139433
-34.82893 50.704735 39.129093
-22.101568 20.466955 63.555058
-22.952358 21.24271 62.946275
-34.150953 22.447229 60.753698
-33.26149 21.404478 61.187044
-34.997316 23.495686 60.211554
-34.150953 22.447229 60.753698
-34.008442 24.101484 60.186615
-35.79982 24.515777 59.607994
-34.997316 23.495686 60.211554
-35.624809 26.166325 58.941457
-36.569824 25.532162 58.904981
-35.79982 24.515777 59.607994
-22.635963 28.036386 60.244947
-22.448349 29.718742 59.375641
-23.344595 28.696054 59.37565
-42.369582 41.520038 39.927323
-42.67853 41.717493 38.672613
-41.938996 39.904387 42.144593
-41.900114 38.500841 43.067635
-41.907648 41.258186 41.152921
-41.938996 39.904387 42.144593
-41.503339 40.997347 42.41152
-41.933926 42.612999 40.19425
-42.369582 41.520038 39.927323
-41.907648 41.258186 41.152921
-30.995311 49.712498 41.637223
-32.162329 49.050202 41.954033
-31.272695 48.449783 42.811913
-30.995311 49.712498 41.637223
-29.825912 50.398446 41.332403
-27.522183 51.85389 40.689243
-26.668422 51.334034 41.516804
-21.616263 54.606385 41.381237
-22.624239 53.539425 41.561998
-21.616263 54.606385 41.381237
-20.853962 54.253605 42.300245
-38.328335 24.140163 58.568676
-37.449463 24.836491 58.785152
-38.328335 24.140163 58.568676
-38.941189 25.006573 57.695366
-39.676401 29.80774 54.164526
-39.174324 29.095648 55.272731
-40.203688 30.486042 53.021774
-39.676401 29.80774 54.164526
-39.51595 31.38084 53.324136
-40.607533 31.047846 51.800916
-40.203688 30.486042 53.021774
-40.48923 32.587764 50.947209
-40.607533 31.047846 51.800916
-40.334639 34.109405 50.011467
-40.48923 32.587764 50.947209
-39.888645 33.580784 51.245643
-40.234971 35.597252 49.083471
-40.835555 34.604232 48.785036
-40.334639 34.109405 50.011467
-22.740087 44.402647 48.516825
-22.370386 46.052093 47.442913
-23.42586 45.041421 47.64279
-23.124142 42.687629 49.582163
-24.185346 41.732359 49.821772
-23.513927 41.028013 50.687233
-22.740087 44.402647 48.516825
-23.124142 42.687629 49.582163
-22.955902 36.195966 54.639133
-23.290778 34.477085 55.67666
-22.283982 35.4908 55.519262
-22.590017 37.887941 53.55249
-23.596812 36.874226 53.709888
-22.955902 36.195966 54.639133
-22.213568 39.631027 52.491709
-22.590017 37.887941 53.55249
-31.392795 19.335325 61.891253
-32.35002 20.365476 61.592072
-30.381431 19.974567 61.850296
-31.392795 19.335325 61.891253
-29.372644 20.612488 61.69763
-30.330353 21.612945 61.386149
-30.381431 19.974567 61.850296
-28.438689 19.668658 62.067787
-28.387611 21.307035 61.603639
-29.372644 20.612488 61.69763
-27.460155 18.719078 62.345068
-28.438689 19.668658 62.067787
-26.51594 19.478813 62.352845
-27.460155 18.719078 62.345068
-42.746292 44.39479 36.753391
-42.753922 43.080444 37.745476
-42.38823 44.189197 37.976567
-42.746292 44.39479 36.753391
-42.773802 45.720627 35.789062
-36.566921 51.667855 37.096277
-36.806888 50.469093 38.288349
-35.722664 51.205822 38.139433
-37.414802 52.135815 36.055822
-36.566921 51.667855 37.096277
-38.187286 52.551991 34.969753
-38.42363 51.347302 36.159124
-37.414802 52.135815 36.055822
-38.952382 52.989185 33.891752
-38.187286 52.551991 34.969753
-21.686333 49.378994 45.362164
-22.726281 48.313 45.524307
-22.016213 47.756862 46.406734
-21.380266 51.053158 44.346237
-21.686333 49.378994 45.362164
-24.673853 21.102386 62.304172
-25.566243 20.252708 62.258069
-24.64591 22.784388 61.741487
-24.673853 21.102386 62.304172
-23.765504 21.975778 62.261415
-21.872635 27.342548 61.021527
-22.635963 28.036386 60.244947
-22.768881 26.31986 61.021536
-21.329656 21.471002 63.849007
-22.101568 20.466955 63.555058
-21.314111 23.239242 63.286846
-21.329656 21.471002 63.849007
-21.261254 24.956432 62.651678
-22.058411 23.908832 62.433283
-21.314111 23.239242 63.286846
-21.175565 26.719011 61.958144
-21.261254 24.956432 62.651678
-21.872635 27.342548 61.021527
-21.175565 26.719011 61.958144
3 0 29 27
3 0 31 29
3 0 33 31
3 1 108 109
3 1 110 111
3 1 112 114
3 112 35 113
3 112 113 114
3 2 38 36
3 2 39 38
3 2 41 39
3 3 44 42
3 3 46 44
3 3 48 46
3 5 51 49
3 5 53 51
3 5 55 53
3 116 115 56
3 6 60 58
3 6 61 60
3 4 64 62
3 7 66 28
3 7 67 66
3 7 69 67
3 9 70 30
3 9 71 70
3 9 73 71
3 11 74 32
3 11 75 74
3 13 76 34
3 13 77 76
3 14 80 78
3 16 81 37
3 16 117 119
3 119 118 81
3 117 118 119
3 16 120 121
3 123 122 40
3 125 124 43
3 17 82 45
3 17 83 82
3 17 85 83
3 19 86 47
3 19 87 86
3 8 88 68
3 20 89 50
3 20 90 89
3 20 91 90
3 21 92 52
3 21 93 92
3 21 95 93
3 22 126 128
3 128 127 54
3 126 127 128
3 22 129 130
3 10 96 72
3 132 131 57
3 12 133 134
3 136 135 59
3 23 137 138
3 23 139 140
3 18 98 84
3 24 99 63
3 24 100 99
3 15 101 79
3 25 102 65
3 25 103 102
3 25 104 103
3 142 141 94
3 143 105 144
3 145 144 97
3 143 144 145
3 26 146 148
3 146 106 147
3 146 147 148
3 26 107 106
3 27 149 151
3 149 28 150
3 149 150 151
3 29 28 27
3 29 7 28
3 29 30 7
3 31 30 29
3 31 9 30
3 31 32 9
3 33 32 31
3 33 11 32
3 152 34 153
3 35 154 156
3 154 34 155
3 154 155 156
3 35 13 34
3 36 37 14
3 38 37 36
3 38 16 37
3 38 157 159
3 159 158 16
3 157 158 159
3 39 160 162
3 162 161 38
3 160 161 162
3 39 163 164
3 39 165 167
3 165 40 166
3 165 166 167
3 41 40 39
3 41 168 170
3 170 169 40
3 168 169 170
3 42 171 173
3 171 43 172
3 171 172 173
3 44 43 42
3 44 174 176
3 176 175 43
3 174 175 176
3 44 177 179
3 177 45 178
3 177 178 179
3 46 45 44
3 46 17 45
3 46 47 17
3 48 47 46
3 48 19 47
3 49 50 8
3 51 50 49
3 51 20 50
3 51 52 20
3 53 52 51
3 53 21 52
3 53 54 21
3 55 54 53
3 55 22 54
3 56 57 10
3 180 57 181
3 182 181 56
3 180 181 182
3 184 183 57
3 58 59 12
3 60 59 58
3 60 185 187
3 187 186 59
3 185 186 187
3 60 188 189
3 61 190 192
3 192 191 60
3 190 191 192
3 61 193 195
3 193 23 194
3 193 194 195
3 62 63 18
3 64 63 62
3 64 24 63
3 196 65 197
3 198 197 15
3 196 197 198
3 199 65 200
3 201 25 202
3 203 202 65
3 201 202 203
3 205 204 25
3 206 26 207
3 28 208 209
3 66 210 212
3 212 211 28
3 210 211 212
3 66 213 214
3 66 215 217
3 215 42 216
3 215 216 217
3 67 42 66
3 67 3 42
3 67 68 3
3 69 68 67
3 69 8 68
3 30 69 7
3 70 69 30
3 70 8 69
3 70 49 8
3 71 49 70
3 71 5 49
3 71 72 5
3 73 72 71
3 73 10 72
3 32 73 9
3 74 73 32
3 74 10 73
3 74 56 10
3 75 56 74
3 75 218 220
3 220 219 56
3 218 219 220
3 221 12 222
3 34 223 224
3 76 225 227
3 227 226 34
3 225 226 227
3 76 228 230
3 228 12 229
3 228 229 230
3 76 58 12
3 77 58 76
3 77 6 58
3 78 79 4
3 80 79 78
3 80 15 79
3 37 80 14
3 81 80 37
3 81 15 80
3 81 231 233
3 233 232 15
3 231 232 233
3 235 234 81
3 237 236 16
3 40 238 239
3 241 240 40
3 43 242 243
3 245 244 43
3 45 246 247
3 82 248 250
3 250 249 45
3 248 249 250
3 82 251 252
3 82 253 254
3 83 255 257
3 257 256 82
3 255 256 257
3 83 258 260
3 258 1 259
3 258 259 260
3 83 84 1
3 85 84 83
3 85 18 84
3 47 85 17
3 86 85 47
3 86 18 85
3 86 62 18
3 87 62 86
3 87 4 62
3 68 48 3
3 88 48 68
3 88 19 48
3 50 88 8
3 89 88 50
3 89 19 88
3 89 87 19
3 90 87 89
3 90 4 87
3 90 78 4
3 91 78 90
3 91 14 78
3 52 91 20
3 92 91 52
3 92 14 91
3 92 36 14
3 93 36 92
3 93 2 36
3 93 94 2
3 95 94 93
3 95 261 263
3 263 262 94
3 261 262 263
3 54 95 21
3 264 95 265
3 266 265 54
3 264 265 266
3 268 267 95
3 72 55 5
3 96 55 72
3 96 22 55
3 57 96 10
3 269 96 270
3 271 270 57
3 269 270 271
3 272 22 273
3 274 273 96
3 272 273 274
3 276 275 22
3 277 27 278
3 279 27 280
3 281 0 282
3 283 282 27
3 281 282 283
3 284 97 285
3 286 285 0
3 284 285 286
3 287 97 288
3 290 289 97
3 59 291 293
3 293 292 12
3 291 292 293
3 295 294 59
3 84 35 1
3 98 35 84
3 98 13 35
3 63 98 18
3 99 98 63
3 99 13 98
3 99 77 13
3 100 77 99
3 100 6 77
3 79 64 4
3 101 64 79
3 101 24 64
3 65 101 15
3 102 101 65
3 102 24 101
3 102 100 24
3 103 100 102
3 103 6 100
3 103 61 6
3 104 61 103
3 104 23 61
3 296 104 297
3 298 297 25
3 296 297 298
3 299 104 300
3 301 23 302
3 303 302 104
3 301 302 303
3 305 304 23
3 94 41 2
3 306 41 307
3 308 307 94
3 306 307 308
3 310 309 41
3 97 33 0
3 105 33 97
3 105 11 33
3 311 105 312
3 106 313 315
3 313 105 314
3 313 314 315
3 106 11 105
3 106 75 11
3 107 75 106
3 107 316 318
3 318 317 75
3 316 317 318
3 319 26 320
3 321 26 322
3 323 107 324
3 325 324 26
3 323 324 325
3 326 107 327
3 329 328 107
