ply
format ascii 1.0
element vertex 378
property float x
property float y
property float z
element face 399
property list uchar int vertex_index
end_header
40.055321 61.472893 24.367535
43.255672 60.191452 17.780977
47.382755 49.420944 20.558455
44.648949 52.900566 28.089344
37.077663 68.749542 15.412534
41.869514 66.840141 6.497102
40.755836 71.730392 -4.651949
41.702991 61.308571 21.643847
44.220554 56.571342 23.120121
42.382607 57.76255 26.239641
38.646358 64.899513 20.517519
40.493336 64.984352 16.528133
47.012798 45.967979 25.613358
48.406494 44.047676 21.701973
46.884094 40.516239 26.13467
37.493473 73.980278 -0.463465
44.720909 61.353134 7.80862
44.720406 64.184715 2.237878
44.979881 58.199158 13.505424
47.392868 52.646004 15.071603
45.585632 54.836746 19.165779
46.113552 51.32003 24.539944
35.686287 72.221146 9.826101
38.517868 71.498489 5.273478
39.413681 68.479042 10.984397
42.386566 63.672859 12.174652
39.425827 73.270241 -9.917042
43.937813 68.348541 -8.37896
41.460205 69.547951 0.870136
44.584251 66.566444 -3.174877
39.443897 58.82058 27.960453
40.852142 61.492821 23.218401
42.158302 59.519547 23.985432
41.133919 59.871887 25.243652
39.431385 63.026962 22.705627
40.263897 63.26564 21.018003
38.732983 62.271492 24.401443
37.754795 64.240166 22.412151
46.563881 44.16798 27.93615
47.054077 43.264755 25.951427
46.344368 41.441864 28.136124
46.10173 58.496719 8.569998
46.156059 59.948723 5.767693
44.051758 59.285179 15.655032
45.254967 56.539124 16.355444
44.472519 57.545998 18.461472
44.539112 54.739525 25.651318
45.269714 53.973038 23.857384
45.474571 52.15197 26.406628
36.364742 70.554695 12.657304
37.658752 70.482674 10.401423
38.245476 68.80204 13.216505
41.937489 62.696487 17.135395
41.416176 64.481979 14.381429
42.779198 61.959511 14.998921
43.708401 60.979111 12.813101
35.909973 68.310822 17.577768
47.400711 51.061012 17.853722
48.479141 49.934349 15.912949
48.273987 48.370178 18.598305
48.634762 41.317398 22.081242
38.515862 73.969048 -5.37463
40.186836 72.595657 -7.333649
41.80806 70.911186 -9.163982
42.375633 70.173134 -6.588022
40.288101 69.30368 5.886543
39.966209 70.666252 3.042406
41.67717 68.25676 3.674017
46.293045 62.59259 0.3042
44.695259 65.439583 -0.488325
46.27409 63.750809 -2.357887
40.798035 56.558929 29.418407
42.497871 60.875114 19.803398
43.763401 58.390656 20.494297
43.019272 59.047432 22.365921
43.408558 57.225021 24.826912
43.593399 55.401848 27.208395
37.842567 66.842842 18.05257
38.883751 67.004135 15.955522
39.571781 65.135139 18.575466
41.110725 63.143288 19.157965
36.807125 66.279831 20.103254
47.273506 47.722595 23.152279
47.998009 46.738068 21.181267
47.602875 45.034821 23.635769
47.712021 42.319275 23.984358
47.664051 39.548065 24.175926
36.828007 75.03653 -3.307901
39.121368 73.000427 -2.602858
43.325466 64.162605 7.12748
43.236031 65.61544 4.317026
44.710564 62.817429 5.003382
46.237007 61.319458 3.012003
46.115215 56.978485 11.408318
47.411415 54.179344 12.251036
46.213799 55.405891 14.260533
46.381416 53.785728 17.094807
46.568295 52.119667 19.874372
44.907078 55.773071 21.203627
45.900391 53.096077 21.903383
46.701454 50.406883 22.563757
46.703236 48.648895 25.135014
37.09663 72.022316 7.539865
38.958893 70.057175 8.138597
40.607986 67.810783 8.733498
39.920174 66.778 13.790841
40.973419 66.196777 11.571612
42.090843 65.306976 9.334266
43.469826 62.611221 9.963493
44.800854 59.808296 10.647892
48.971504 45.693344 19.28285
45.373108 66.295563 -9.982391
38.044209 72.803375 2.402258
39.592216 71.897942 0.209101
41.167694 70.708458 -1.909262
43.147884 66.955276 1.536165
43.006256 68.170631 -1.213892
42.762627 69.24942 -3.927542
44.344269 67.545631 -5.812847
45.848022 65.634361 -7.523504
38.137089 61.001091 26.293465
39.825981 60.337204 25.982677
41.07505 58.265701 27.285423
42.356575 55.991905 28.470741
46.134966 41.8921 29.134839
46.454125 42.804922 28.036137
46.244723 43.255157 29.034852
45.922365 40.515028 29.175781
46.134966 41.8921 29.134839
46.850594 57.790283 7.603371
46.791847 57.078666 8.99974
45.053051 51.611065 28.466999
45.465862 51.236767 27.625641
45.06176 52.526268 27.247986
36.075478 69.506268 15.158347
35.491633 69.286907 16.240964
36.493818 68.530182 16.495151
36.721203 69.652119 14.034919
35.719017 70.408844 13.780732
36.075478 69.506268 15.158347
49.297398 39.381496 21.275799
49.241957 40.780683 21.172873
48.690203 39.918211 22.184169
47.073874 62.315468 -1.898775
46.283568 63.1717 -1.026844
47.083351 61.736359 -0.567731
47.034239 62.841114 -3.192569
47.073874 62.315468 -1.898775
46.74337 39.108807 26.147284
47.133348 38.624719 25.167912
47.274073 40.032152 25.155298
37.16074 74.508404 -1.885683
35.986322 75.428879 -2.226998
36.319056 74.900753 -0.80478
46.9853 59.878784 3.451563
46.196533 60.63409 4.389848
46.944826 59.193416 4.829409
47.038631 60.514274 2.105657
46.9853 59.878784 3.451563
36.391458 72.121731 8.682983
36.051712 72.879307 7.24247
35.346541 72.978722 8.385589
34.598564 72.990818 9.552366
34.985153 72.154431 10.976883
35.346541 72.978722 8.385589
34.598564 72.990818 9.552366
48.025984 52.041405 14.116704
48.035258 52.808075 12.706421
47.402141 53.412674 13.661319
49.145574 49.340061 15.008225
48.954624 48.595772 16.326694
38.098453 74.337913 -10.291837
38.584213 74.027141 -8.996528
38.932932 73.486709 -11.136579
38.098453 74.337913 -10.291837
40.225001 72.344326 -10.764147
38.932932 73.486709 -11.136579
43.633591 68.641559 -9.606764
42.568714 69.922882 -9.999275
42.872936 69.629863 -8.771471
44.655461 67.322052 -9.180675
44.351239 67.615071 -10.40848
43.633591 68.641559 -9.606764
38.281039 72.150932 3.837868
37.281159 73.110325 3.526905
37.517988 72.457882 4.962516
46.709598 64.235996 -7.040343
45.992795 65.204063 -6.247704
46.512821 64.599655 -8.266312
46.709598 64.235996 -7.040343
38.790493 59.910836 27.126959
37.825178 60.224602 27.327869
38.478583 59.134346 28.161364
42.228773 55.097202 29.586254
41.577305 56.275417 28.944574
41.449503 55.380714 30.060087
42.947861 54.784016 29.000746
42.228773 55.097202 29.586254
38.243889 63.255829 23.406797
37.340429 63.698422 23.386858
37.829523 62.714084 24.381504
46.145037 40.049084 28.155717
46.414899 39.586271 27.15499
46.614231 40.979051 27.135397
46.145037 40.049084 28.155717
45.922365 40.515028 29.175781
36.686789 74.329277 0.643873
36.319056 74.900753 -0.80478
46.877758 58.516285 6.202218
46.128895 59.222721 7.168845
46.850594 57.790283 7.603371
46.944826 59.193416 4.829409
46.877758 58.516285 6.202218
45.810863 50.833805 26.731572
46.130354 50.417835 25.79823
45.794061 51.736 25.473286
45.810863 50.833805 26.731572
45.465862 51.236767 27.625641
34.855801 68.964684 17.367436
35.337007 67.906193 18.659261
34.855801 68.964684 17.367436
35.491633 69.286907 16.240964
35.324381 71.321205 12.392485
35.719017 70.408844 13.780732
36.025514 71.387921 11.241702
34.985153 72.154431 10.976883
35.324381 71.321205 12.392485
48.852047 47.813687 17.669373
48.954624 48.595772 16.326694
48.376564 49.152264 17.255627
49.061189 42.156892 20.968265
48.947056 43.522031 20.77863
48.520628 42.682537 21.891607
49.061189 42.156892 20.968265
49.241957 40.780683 21.172873
38.12923 74.376545 -6.725322
37.266148 74.968441 -5.740715
38.964717 73.68985 -7.704832
38.12923 74.376545 -6.725322
39.351349 73.282353 -6.35414
39.806331 72.932949 -8.625345
38.584213 74.027141 -8.996528
38.964717 73.68985 -7.704832
46.20583 64.262287 -3.664896
45.36091 65.670105 -4.073391
45.42917 65.158626 -2.766382
46.20583 64.262287 -3.664896
47.034239 62.841114 -3.192569
39.191006 57.982594 29.023235
38.478583 59.134346 28.161364
39.868074 56.851768 29.752212
40.120966 57.689754 28.68943
39.191006 57.982594 29.023235
40.571749 55.684589 30.513921
39.868074 56.851768 29.752212
41.449503 55.380714 30.060087
40.571749 55.684589 30.513921
36.779907 64.784916 22.286409
37.340429 63.698422 23.386858
36.306072 65.804749 21.13196
36.779907 64.784916 22.286409
37.28096 65.259998 21.257703
35.785584 66.890698 19.922004
36.306072 65.804749 21.13196
36.358549 67.295327 18.840511
35.337007 67.906193 18.659261
35.785584 66.890698 19.922004
48.204847 39.033545 23.231511
48.690203 39.918211 22.184169
48.149406 40.432732 23.128584
47.61099 38.125368 24.187669
48.204847 39.033545 23.231511
47.61099 38.125368 24.187669
47.133348 38.624719 25.167912
46.74337 39.108807 26.147284
46.414899 39.586271 27.15499
35.554411 75.946014 -3.664042
35.986322 75.428879 -2.226998
36.42222 75.502182 -4.707351
35.554411 75.946014 -3.664042
37.671934 74.502789 -4.341266
37.266148 74.968441 -5.740715
36.42222 75.502182 -4.707351
47.06665 61.150841 0.751756
46.265026 61.956024 1.658101
47.038631 60.514274 2.105657
47.856956 60.294609 -0.120175
47.083351 61.736359 -0.567731
47.06665 61.150841 0.751756
46.763315 55.578914 11.829677
47.446689 54.919979 10.840259
46.798589 56.31955 10.4189
46.425196 49.082268 26.095765
46.408394 49.984463 24.837479
46.130354 50.417835 25.79823
46.607756 47.751571 26.354019
46.425196 49.082268 26.095765
46.762537 46.411113 26.59319
46.858017 47.308437 25.374186
46.607756 47.751571 26.354019
46.538078 45.511114 27.754587
46.788339 45.067979 26.774754
46.762537 46.411113 26.59319
46.332123 44.604219 28.907696
46.538078 45.511114 27.754587
46.244723 43.255157 29.034852
46.332123 44.604219 28.907696
36.807369 72.719795 6.095709
36.051712 72.879307 7.24247
37.807249 71.760402 6.406671
37.517988 72.457882 4.962516
36.807369 72.719795 6.095709
46.798589 56.31955 10.4189
46.791847 57.078666 8.99974
46.108473 57.737602 9.989158
48.126999 53.530796 11.318122
47.446689 54.919979 10.840259
48.126999 53.530796 11.318122
48.035258 52.808075 12.706421
48.56912 50.685577 14.537377
48.025984 52.041405 14.116704
47.936004 51.290177 15.492276
48.56912 50.685577 14.537377
49.145574 49.340061 15.008225
49.200806 46.47527 18.011645
48.852047 47.813687 17.669373
48.622746 47.031761 18.940577
49.229561 44.344865 19.569069
48.688999 44.87051 20.492411
48.947056 43.522031 20.77863
49.59358 45.137528 18.389183
49.229561 44.344865 19.569069
49.200806 46.47527 18.011645
49.59358 45.137528 18.389183
41.416117 71.164799 -10.387617
40.225001 72.344326 -10.764147
40.616943 72.090713 -9.540512
42.176772 70.176495 -11.22291
41.416117 71.164799 -10.387617
42.568714 69.922882 -9.999275
45.026831 66.502941 -11.143282
44.351239 67.615071 -10.40848
45.980355 65.182857 -10.664703
45.026831 66.502941 -11.143282
36.962157 73.740825 2.076734
37.281159 73.110325 3.526905
37.768841 73.391827 0.969396
36.686789 74.329277 0.643873
36.962157 73.740825 2.076734
45.240919 66.159698 -5.392376
44.46426 67.056038 -4.493862
45.36091 65.670105 -4.073391
45.096145 66.589996 -6.668176
45.240919 66.159698 -5.392376
45.992795 65.204063 -6.247704
46.275364 64.930256 -9.495756
45.610565 65.964962 -8.752947
46.512821 64.599655 -8.266312
46.88261 63.81755 -10.178068
45.980355 65.182857 -10.664703
46.275364 64.930256 -9.495756
37.138777 61.372601 26.360847
37.825178 60.224602 27.327869
37.531576 62.078884 25.327515
37.138777 61.372601 26.360847
38.435036 61.636291 25.347454
37.829523 62.714084 24.381504
37.531576 62.078884 25.327515
43.566272 54.488987 28.369573
42.974987 55.696877 27.839568
42.947861 54.784016 29.000746
44.094048 53.238346 28.810047
44.121174 54.151207 27.648869
43.566272 54.488987 28.369573
44.580674 51.984821 29.264646
44.094048 53.238346 28.810047
45.053051 51.611065 28.466999
44.580674 51.984821 29.264646
3 0 33 31
3 0 31 34
3 0 34 36
3 124 40 125
3 126 125 38
3 124 125 126
3 128 127 40
3 130 129 41
3 1 45 43
3 3 48 46
3 3 131 133
3 133 132 48
3 131 132 133
3 4 51 49
3 1 54 52
3 1 43 54
3 4 134 136
3 136 135 56
3 134 135 136
3 4 137 139
3 137 49 138
3 137 138 139
3 2 59 57
3 142 141 60
3 140 141 142
3 6 62 61
3 6 64 62
3 5 67 65
3 143 70 144
3 145 144 68
3 143 144 145
3 147 146 70
3 7 74 72
3 9 75 32
3 9 76 75
3 10 79 77
3 7 80 35
3 7 72 80
3 10 81 37
3 10 77 81
3 12 84 82
3 14 85 39
3 14 86 85
3 14 148 150
3 150 149 86
3 148 149 150
3 15 151 153
3 151 87 152
3 151 152 153
3 15 88 87
3 16 91 89
3 154 92 155
3 156 155 42
3 154 155 156
3 158 157 92
3 18 95 93
3 20 96 44
3 20 97 96
3 8 98 73
3 21 99 47
3 21 100 99
3 21 101 100
3 22 159 161
3 159 102 160
3 159 160 161
3 24 103 50
3 24 104 103
3 11 105 78
3 25 106 53
3 25 107 106
3 25 108 107
3 18 109 55
3 18 93 109
3 22 162 163
3 22 164 165
3 19 166 168
3 168 167 94
3 166 167 168
3 170 169 58
3 13 110 83
3 26 171 172
3 26 173 174
3 26 175 176
3 27 177 179
3 179 178 63
3 177 178 179
3 27 180 182
3 180 111 181
3 180 181 182
3 23 183 185
3 183 112 184
3 183 184 185
3 28 113 66
3 28 114 113
3 17 115 90
3 29 116 69
3 29 117 116
3 29 118 117
3 186 119 187
3 189 188 119
3 30 190 192
3 190 120 191
3 190 191 192
3 30 121 120
3 30 122 121
3 193 123 194
3 195 194 71
3 193 194 195
3 197 196 123
3 31 32 7
3 33 32 31
3 33 9 32
3 34 35 10
3 31 35 34
3 31 7 35
3 36 198 200
3 198 37 199
3 198 199 200
3 34 37 36
3 34 10 37
3 38 39 12
3 40 39 38
3 40 14 39
3 40 201 203
3 203 202 14
3 201 202 203
3 205 204 40
3 206 15 207
3 41 42 16
3 208 42 209
3 210 209 41
3 208 209 210
3 212 211 42
3 43 44 18
3 45 44 43
3 45 20 44
3 46 47 8
3 48 47 46
3 48 21 47
3 48 213 215
3 215 214 21
3 213 214 215
3 217 216 48
3 49 50 22
3 51 50 49
3 51 24 50
3 52 53 11
3 54 53 52
3 54 25 53
3 54 55 25
3 43 55 54
3 43 18 55
3 56 218 219
3 221 220 56
3 49 222 223
3 49 224 226
3 224 22 225
3 224 225 226
3 57 58 19
3 59 58 57
3 59 227 229
3 229 228 58
3 227 228 229
3 60 230 232
3 232 231 13
3 230 231 232
3 234 233 60
3 61 235 236
3 62 237 239
3 239 238 61
3 237 238 239
3 62 240 242
3 240 26 241
3 240 241 242
3 62 63 26
3 64 63 62
3 64 27 63
3 65 66 23
3 67 66 65
3 67 28 66
3 68 69 17
3 70 69 68
3 70 29 69
3 70 243 245
3 245 244 29
3 243 244 245
3 247 246 70
3 248 30 249
3 250 71 251
3 252 251 30
3 250 251 252
3 253 71 254
3 256 255 71
3 72 73 1
3 74 73 72
3 74 8 73
3 32 74 7
3 75 74 32
3 75 8 74
3 75 46 8
3 76 46 75
3 76 3 46
3 77 78 4
3 79 78 77
3 79 11 78
3 35 79 10
3 80 79 35
3 80 11 79
3 80 52 11
3 72 52 80
3 72 1 52
3 37 257 258
3 81 259 261
3 261 260 37
3 259 260 261
3 81 262 263
3 81 264 266
3 264 56 265
3 264 265 266
3 77 56 81
3 77 4 56
3 82 83 2
3 84 83 82
3 84 13 83
3 39 84 12
3 85 84 39
3 85 13 84
3 85 60 13
3 86 60 85
3 86 267 269
3 269 268 60
3 267 268 269
3 86 270 271
3 273 272 86
3 275 274 14
3 87 276 277
3 87 278 279
3 87 280 282
3 280 61 281
3 280 281 282
3 88 61 87
3 88 6 61
3 89 90 5
3 91 90 89
3 91 17 90
3 42 91 16
3 92 91 42
3 92 17 91
3 92 68 17
3 283 68 284
3 285 284 92
3 283 284 285
3 288 287 68
3 286 287 288
3 93 289 291
3 289 94 290
3 289 290 291
3 95 94 93
3 95 19 94
3 44 95 18
3 96 95 44
3 96 19 95
3 96 57 19
3 97 57 96
3 97 2 57
3 73 45 1
3 98 45 73
3 98 20 45
3 47 98 8
3 99 98 47
3 99 20 98
3 99 97 20
3 100 97 99
3 100 2 97
3 100 82 2
3 101 82 100
3 101 12 82
3 292 101 293
3 294 293 21
3 292 293 294
3 295 101 296
3 297 12 298
3 299 298 101
3 297 298 299
3 300 38 301
3 302 301 12
3 300 301 302
3 303 38 304
3 306 305 38
3 102 307 308
3 102 309 311
3 309 23 310
3 309 310 311
3 50 102 22
3 103 102 50
3 103 23 102
3 103 65 23
3 104 65 103
3 104 5 65
3 78 51 4
3 105 51 78
3 105 24 51
3 53 105 11
3 106 105 53
3 106 24 105
3 106 104 24
3 107 104 106
3 107 5 104
3 107 89 5
3 108 89 107
3 108 16 89
3 55 108 25
3 109 108 55
3 109 16 108
3 109 41 16
3 93 41 109
3 93 312 314
3 314 313 41
3 312 313 314
3 94 315 316
3 318 317 94
3 58 319 321
3 321 320 19
3 319 320 321
3 323 322 58
3 83 59 2
3 110 59 83
3 110 324 326
3 326 325 59
3 324 325 326
3 327 110 328
3 329 328 13
3 327 328 329
3 330 110 331
3 333 332 110
3 63 334 336
3 336 335 26
3 334 335 336
3 339 338 63
3 337 338 339
3 111 340 341
3 111 342 343
3 112 344 345
3 112 346 348
3 346 15 347
3 346 347 348
3 66 112 23
3 113 112 66
3 113 15 112
3 113 88 15
3 114 88 113
3 114 6 88
3 90 67 5
3 115 67 90
3 115 28 67
3 69 115 17
3 116 115 69
3 116 28 115
3 116 114 28
3 117 114 116
3 117 6 114
3 117 64 6
3 118 64 117
3 118 27 64
3 349 118 350
3 351 350 29
3 349 350 351
3 119 352 354
3 352 118 353
3 352 353 354
3 119 27 118
3 119 111 27
3 355 111 356
3 357 356 119
3 355 356 357
3 360 359 111
3 358 359 360
3 120 361 362
3 120 363 364
3 120 365 367
3 365 36 366
3 365 366 367
3 121 36 120
3 121 0 36
3 121 33 0
3 122 33 121
3 122 9 33
3 71 122 30
3 123 122 71
3 123 9 122
3 123 76 9
3 368 76 369
3 370 369 123
3 368 369 370
3 371 3 372
3 373 372 76
3 371 372 373
3 374 3 375
3 377 376 3
