ply
format ascii 1.0
element vertex 351
property float x
property float y
property float z
element face 369
property list uchar int vertex_index
end_header
-45.184036 -98.729141 11.842463
-37.25843 -101.365616 29.58073
-41.905926 -101.659866 21.040045
-25.764318 -92.772156 33.340504
-32.068024 -94.31073 37.324112
-30.017879 -102.797394 24.016659
-34.128521 -108.646484 16.748699
-37.606953 -97.715546 36.450439
-35.003574 -94.653625 40.251244
-34.612648 -98.629761 33.536285
-31.397564 -98.38327 30.432529
-33.853561 -102.490463 26.544121
-32.149452 -106.588074 20.298494
-36.25523 -104.9263 22.797335
-43.660095 -100.285309 16.486593
-40.240597 -104.782043 14.953961
-41.97155 -103.409164 10.78643
-40.237991 -98.930817 32.045212
-39.769516 -102.254395 25.416622
-42.584373 -98.549118 27.245358
-32.578674 -90.161179 43.384155
-29.694 -89.24324 41.083267
-29.017675 -93.327957 34.681599
-27.883621 -97.889725 28.287685
-25.845947 -103.172073 23.049791
-27.563839 -107.747177 18.92532
-38.396584 -105.54007 18.970121
-44.535366 -100.335312 9.203323
-37.473003 -99.571671 33.059036
-36.131634 -98.353088 35.083794
-35.934193 -100.228149 31.583273
-34.319878 -100.549667 30.001638
-35.608749 -102.07634 28.071447
-35.074883 -103.942001 24.668268
-36.877052 -103.138229 26.128387
-44.443558 -99.507904 14.169056
-42.931744 -101.834396 13.622867
-43.747299 -101.080994 11.416284
-42.837425 -102.686417 8.678363
-40.312824 -97.18959 35.252674
-41.537983 -97.25116 32.826096
-41.465897 -98.90303 29.682407
-24.700928 -90.409531 36.165817
-33.539322 -94.61972 38.818901
-33.767883 -92.535812 41.891705
-32.313343 -92.272629 40.541183
-31.133974 -89.764938 42.203979
-30.85968 -91.805832 39.192432
-29.382141 -91.254623 37.968903
-30.567116 -93.834824 35.899651
-30.828121 -100.527359 27.09527
-29.677097 -98.09816 29.171328
-28.946684 -100.429199 26.063141
-26.996378 -100.442322 25.47765
-27.95899 -102.923569 23.287027
-26.695765 -105.570511 20.899437
-28.931341 -105.207809 21.282932
-33.168495 -107.852005 18.526405
-30.857635 -108.77919 17.629169
-40.891636 -102.101547 23.253872
-39.222717 -103.890991 22.141602
-40.259579 -103.688019 20.078257
-39.015316 -106.376053 12.025162
-38.152935 -106.910187 14.004572
-26.298698 -90.438446 36.363884
-37.745045 -95.759659 39.633163
-36.476318 -94.346039 41.504333
-36.286861 -96.40538 38.437176
-34.813934 -96.68071 37.004272
-33.319748 -96.625854 35.445866
-31.786509 -96.328384 33.896431
-33.039711 -98.605087 31.937052
-32.620438 -100.611572 28.455582
-31.988752 -102.692947 25.14448
-31.091286 -104.881638 22.111246
-33.144577 -104.494278 23.282438
-34.271709 -105.860275 21.467161
-35.344215 -106.757324 19.657846
-42.821594 -101.025009 18.781101
-41.208359 -103.213745 17.965801
-42.090679 -102.566452 15.810397
-41.107559 -104.127029 12.882888
-39.89473 -105.717468 10.015421
-40.807983 -105.018478 7.992207
-41.745289 -104.329315 5.969726
-39.177452 -94.750565 40.513092
-39.034538 -96.706787 37.536316
-38.937145 -98.552643 34.310501
-38.80442 -100.315948 30.940235
-38.549294 -102.030792 27.525642
-40.084549 -100.609604 28.740517
-41.274937 -100.512634 26.472202
-42.350601 -100.109131 24.145823
-43.306198 -99.492966 21.771116
-35.24519 -92.509598 43.129345
-31.431889 -87.656494 44.783478
-30.000656 -87.227295 43.859322
-28.575565 -86.74791 43.038403
-28.233757 -88.716293 40.12925
-27.863047 -90.755035 36.991058
-27.413378 -92.932312 33.795052
-30.19591 -95.913513 32.500893
-28.539501 -95.524719 31.399372
-26.824963 -95.298889 30.711666
-26.039547 -97.87793 27.886248
-25.012861 -100.659821 25.419666
-29.904264 -107.188843 19.416513
-28.436531 -109.601974 17.068075
-38.091026 -103.730988 24.156006
-37.367413 -105.445053 20.904303
-36.344872 -107.193253 17.82173
-39.346966 -105.286804 16.986155
-37.274197 -107.216705 15.93907
-35.024746 -108.987015 14.932673
-45.531706 -98.340584 10.681321
-45.207371 -99.143669 9.361751
-44.859701 -99.532227 10.522893
-42.106928 -96.295257 33.038525
-41.555868 -96.392914 34.332313
-42.103018 -97.108025 31.561093
-42.106928 -96.295257 33.038525
-24.929707 -92.851967 33.361723
-24.398013 -91.670654 34.774379
-25.232623 -91.590844 34.75316
-25.42031 -94.056801 31.932231
-24.929707 -92.851967 33.361723
-32.949024 -109.283798 16.306016
-32.469011 -108.886559 17.194869
-33.648508 -108.249245 17.637552
-33.378584 -109.621223 15.410926
-32.949024 -109.283798 16.306016
-37.862983 -107.472145 11.584238
-38.296284 -107.191025 10.606211
-26.518141 -89.374679 37.90278
-25.751322 -89.289513 37.73328
-42.716223 -103.154228 6.269599
-42.291357 -103.507866 7.324044
-43.262291 -102.332779 7.623918
-43.179242 -102.819985 5.262738
-42.208308 -103.995071 4.962864
-42.716223 -103.154228 6.269599
-39.785827 -95.05513 39.395588
-39.867928 -94.086616 40.77372
-39.714371 -96.033241 37.9072
-39.105995 -95.728676 39.024704
-39.785827 -95.05513 39.395588
-43.871285 -98.361221 21.994588
-43.440071 -98.727142 23.261672
-43.730522 -99.122902 20.564912
-43.871285 -98.361221 21.994588
-33.316249 -90.248353 43.951645
-33.910854 -91.435669 43.20542
-33.173278 -91.348496 42.63793
-32.737871 -89.04937 44.553595
-33.316249 -90.248353 43.951645
-32.005282 -88.908837 44.083816
-32.164479 -87.797027 45.253256
-32.737871 -89.04937 44.553595
-24.784853 -103.387306 23.202949
-24.36831 -102.13118 24.387887
-25.429404 -101.915947 24.234728
-25.137083 -104.605446 22.03744
-24.784853 -103.387306 23.202949
-26.366083 -108.039497 18.9112
-25.932046 -106.951165 19.898259
-27.129802 -106.658844 19.912378
-26.75209 -109.063018 17.92167
-25.554333 -109.355339 17.90755
-26.366083 -108.039497 18.9112
-28.864238 -110.328125 16.165604
-29.647083 -109.190582 17.348622
-30.07479 -109.916733 16.446151
-27.581165 -110.844086 16.045049
-28.864238 -110.328125 16.165604
-36.573957 -108.073761 14.501254
-37.713566 -107.063446 14.971821
-37.013326 -107.920502 13.534005
-35.449232 -108.958916 13.998056
-36.149472 -108.10186 15.435871
-36.573957 -108.073761 14.501254
-34.234457 -109.907967 13.582317
-35.449232 -108.958916 13.998056
-44.906513 -99.96328 8.098695
-44.111261 -101.157227 7.886398
-45.578518 -98.771637 8.257123
-44.906513 -99.96328 8.098695
-45.207371 -99.143669 9.361751
-44.111261 -101.157227 7.886398
-43.262291 -102.332779 7.623918
-43.686396 -101.510864 8.940843
-40.943289 -96.362129 35.545603
-40.353513 -96.274642 36.765379
-40.925404 -97.220375 34.039385
-40.943289 -96.362129 35.545603
-41.555868 -96.392914 34.332313
-42.066975 -97.93396 29.989248
-41.50194 -98.077095 31.254252
-42.103018 -97.108025 31.561093
-42.626213 -97.757004 28.770723
-42.025135 -98.726074 28.463883
-42.066975 -97.93396 29.989248
-23.897154 -90.568726 36.30294
-24.173026 -89.348069 37.666977
-23.897154 -90.568726 36.30294
-24.398013 -91.670654 34.774379
-31.313581 -109.350151 16.746251
-32.013065 -108.315597 18.077787
-32.469011 -108.886559 17.194869
-30.07479 -109.916733 16.446151
-31.313581 -109.350151 16.746251
-37.431793 -107.739212 12.573943
-38.584125 -106.64312 13.014867
-37.862983 -107.472145 11.584238
-37.013326 -107.920502 13.534005
-37.431793 -107.739212 12.573943
-24.952437 -89.275055 37.634247
-24.173026 -89.348069 37.666977
-25.499813 -90.423989 36.26485
-24.952437 -89.275055 37.634247
-25.751322 -89.289513 37.73328
-37.110681 -95.052849 40.568748
-37.216871 -94.011444 41.995666
-37.851235 -94.718254 41.060082
-38.73599 -106.861732 9.60134
-38.296284 -107.191025 10.606211
-39.455023 -106.046761 11.020291
-39.199549 -106.531768 8.61588
-38.73599 -106.861732 9.60134
-39.656176 -106.182274 7.604273
-39.199549 -106.531768 8.61588
-40.351357 -105.367973 9.003814
-40.152353 -105.842186 6.621607
-39.656176 -106.182274 7.604273
-40.621006 -105.497604 5.610366
-40.152353 -105.842186 6.621607
-41.276636 -104.673896 6.980966
-41.135907 -105.16774 4.637564
-40.621006 -105.497604 5.610366
-41.135907 -105.16774 4.637564
-42.208308 -103.995071 4.962864
-45.732678 -97.540306 11.937743
-45.404148 -97.942054 13.158301
-39.303213 -93.709328 41.826712
-39.993688 -93.045379 42.087339
-39.867928 -94.086616 40.77372
-38.567438 -94.213707 41.500046
-39.303213 -93.709328 41.826712
-38.461248 -95.255112 40.073127
-37.851235 -94.718254 41.060082
-38.567438 -94.213707 41.500046
-39.673681 -96.948189 36.394495
-39.714371 -96.033241 37.9072
-40.353513 -96.274642 36.765379
-43.128538 -97.484749 27.469599
-42.626213 -97.757004 28.770723
-43.079158 -98.255219 25.998793
-43.128538 -97.484749 27.469599
-42.962272 -99.035225 24.449025
-42.467487 -99.329125 25.695591
-43.079158 -98.255219 25.998793
-42.8284 -99.801049 22.958469
-42.962272 -99.035225 24.449025
-43.440071 -98.727142 23.261672
-43.48822 -99.888924 19.069904
-43.063896 -100.258987 20.276108
-43.730522 -99.122902 20.564912
-43.907471 -99.519073 17.92265
-43.240844 -100.655159 17.633847
-43.48822 -99.888924 19.069904
-44.290039 -99.122284 16.703983
-43.907471 -99.519073 17.92265
-44.68177 -98.733581 15.545215
-44.051827 -99.896606 15.327824
-44.290039 -99.122284 16.703983
-45.033909 -98.331436 14.321597
-44.68177 -98.733581 15.545215
-45.404148 -97.942054 13.158301
-44.813797 -99.118522 13.005759
-45.033909 -98.331436 14.321597
-45.531706 -98.340584 10.681321
-45.732678 -97.540306 11.937743
-36.615634 -93.248077 42.831062
-37.216871 -94.011444 41.995666
-36.00007 -92.329857 43.643568
-36.615634 -93.248077 42.831062
-35.860754 -93.427819 42.316839
-35.410899 -91.368004 44.322418
-36.00007 -92.329857 43.643568
-34.649507 -91.422562 43.82424
-34.506536 -92.522705 42.510525
-33.910854 -91.435669 43.20542
-35.410899 -91.368004 44.322418
-34.649507 -91.422562 43.82424
-31.602555 -86.54869 45.805134
-32.164479 -87.797027 45.253256
-30.881152 -86.402244 45.476265
-31.602555 -86.54869 45.805134
-30.165535 -86.187645 45.014187
-30.881152 -86.402244 45.476265
-30.716273 -87.441894 44.3214
-29.461456 -86.00267 44.71584
-29.626335 -84.96302 45.870705
-30.165535 -86.187645 45.014187
-28.748911 -85.762978 44.30538
-29.461456 -86.00267 44.71584
-29.288111 -86.987603 43.448863
-28.047568 -85.585244 44.07083
-28.748911 -85.762978 44.30538
-27.8539 -86.539353 42.72262
-28.047568 -85.585244 44.07083
-27.682996 -87.523544 41.268044
-27.8539 -86.539353 42.72262
-28.404661 -87.732101 41.583827
-27.48567 -88.513603 39.785463
-27.682996 -87.523544 41.268044
-27.300315 -89.532974 38.216368
-27.48567 -88.513603 39.785463
-28.048402 -89.735664 38.560154
-27.080873 -90.596741 36.677471
-26.518141 -89.374679 37.90278
-27.300315 -89.532974 38.216368
-25.950633 -95.320167 30.617812
-25.42031 -94.056801 31.932231
-26.29464 -94.035522 32.026085
-25.557925 -96.609688 29.205103
-25.950633 -95.320167 30.617812
-26.432255 -96.58841 29.298957
-25.110253 -98.008736 27.95814
-25.557925 -96.609688 29.205103
-24.59691 -99.399681 26.724849
-25.110253 -98.008736 27.95814
-25.526204 -99.268876 26.652957
-24.026468 -100.891739 25.671239
-24.59691 -99.399681 26.724849
-24.026468 -100.891739 25.671239
-24.36831 -102.13118 24.387887
-25.561992 -105.804665 20.962263
-25.137083 -104.605446 22.03744
-26.270856 -104.371292 21.974614
-25.561992 -105.804665 20.962263
-25.932046 -106.951165 19.898259
-27.188435 -109.990417 16.993047
-26.75209 -109.063018 17.92167
-28.000185 -108.674576 17.996697
-27.188435 -109.990417 16.993047
-27.581165 -110.844086 16.045049
-33.826696 -109.791489 14.502913
-33.378584 -109.621223 15.410926
-34.576633 -108.81675 15.840686
-33.826696 -109.791489 14.502913
-34.234457 -109.907967 13.582317
3 0 114 116
3 116 115 27
3 114 115 116
3 1 30 28
3 1 32 30
3 1 34 32
3 0 37 35
3 0 27 37
3 117 40 118
3 120 119 40
3 3 121 123
3 123 122 42
3 121 122 123
3 3 124 125
3 4 45 43
3 4 47 45
3 4 49 47
3 5 52 50
3 5 54 52
3 5 56 54
3 6 126 128
3 128 127 57
3 126 127 128
3 6 129 130
3 2 61 59
3 132 131 62
3 133 64 134
3 7 67 65
3 9 68 29
3 9 69 68
3 9 71 69
3 11 72 31
3 11 73 72
3 11 75 73
3 13 76 33
3 13 77 76
3 14 80 78
3 16 81 36
3 16 82 81
3 16 83 82
3 135 84 136
3 137 136 38
3 135 136 137
3 140 139 84
3 138 139 140
3 141 85 142
3 143 86 144
3 145 144 85
3 143 144 145
3 17 87 39
3 17 88 87
3 17 90 88
3 19 91 41
3 19 92 91
3 146 93 147
3 149 148 93
3 8 94 66
3 20 150 152
3 152 151 44
3 150 151 152
3 20 153 154
3 20 155 157
3 155 95 156
3 155 156 157
3 21 96 46
3 21 97 96
3 21 98 97
3 22 99 48
3 22 100 99
3 10 101 70
3 23 102 51
3 23 103 102
3 23 104 103
3 24 105 53
3 24 158 160
3 160 159 105
3 158 159 160
3 24 161 162
3 25 163 165
3 165 164 55
3 163 164 165
3 25 166 168
3 166 167 168
3 12 106 74
3 169 107 170
3 171 170 58
3 169 170 171
3 173 172 107
3 18 108 89
3 26 109 60
3 26 110 109
3 15 111 79
3 174 112 175
3 176 175 63
3 174 175 176
3 177 113 178
3 179 178 112
3 177 178 179
3 181 180 113
3 27 182 183
3 186 185 27
3 184 185 186
3 28 29 7
3 30 29 28
3 30 9 29
3 30 31 9
3 32 31 30
3 32 11 31
3 32 33 11
3 34 33 32
3 34 13 33
3 35 36 14
3 37 36 35
3 37 16 36
3 37 38 16
3 27 38 37
3 27 187 189
3 189 188 38
3 187 188 189
3 190 39 191
3 40 192 194
3 192 39 193
3 192 193 194
3 40 17 39
3 40 41 17
3 195 41 196
3 197 196 40
3 195 196 197
3 198 19 199
3 200 199 41
3 198 199 200
3 42 201 202
3 204 203 42
3 43 44 8
3 45 44 43
3 45 20 44
3 45 46 20
3 47 46 45
3 47 21 46
3 47 48 21
3 49 48 47
3 49 22 48
3 50 51 10
3 52 51 50
3 52 23 51
3 52 53 23
3 54 53 52
3 54 24 53
3 54 55 24
3 56 55 54
3 56 25 55
3 57 58 12
3 205 58 206
3 207 206 57
3 205 206 207
3 209 208 58
3 59 60 18
3 61 60 59
3 61 26 60
3 62 63 15
3 210 63 211
3 212 211 62
3 210 211 212
3 214 213 63
3 215 42 216
3 64 217 219
3 217 42 218
3 217 218 219
3 64 3 42
3 65 220 222
3 220 66 221
3 220 221 222
3 67 66 65
3 67 8 66
3 29 67 7
3 68 67 29
3 68 8 67
3 68 43 8
3 69 43 68
3 69 4 43
3 69 70 4
3 71 70 69
3 71 10 70
3 31 71 9
3 72 71 31
3 72 10 71
3 72 50 10
3 73 50 72
3 73 5 50
3 73 74 5
3 75 74 73
3 75 12 74
3 33 75 11
3 76 75 33
3 76 12 75
3 76 57 12
3 77 57 76
3 77 6 57
3 78 79 2
3 80 79 78
3 80 15 79
3 36 80 14
3 81 80 36
3 81 15 80
3 81 62 15
3 82 62 81
3 82 223 225
3 225 224 62
3 223 224 225
3 82 226 227
3 83 228 230
3 230 229 82
3 228 229 230
3 83 231 232
3 38 83 16
3 84 83 38
3 84 233 235
3 235 234 83
3 233 234 235
3 84 236 237
3 239 238 84
3 241 240 0
3 85 242 244
3 242 243 244
3 85 245 246
3 85 247 249
3 247 65 248
3 247 248 249
3 86 65 85
3 86 7 65
3 39 250 252
3 250 86 251
3 250 251 252
3 87 86 39
3 87 7 86
3 87 28 7
3 88 28 87
3 88 1 28
3 88 89 1
3 90 89 88
3 90 18 89
3 41 90 17
3 91 90 41
3 91 18 90
3 91 59 18
3 92 59 91
3 92 2 59
3 253 19 254
3 255 19 256
3 257 92 258
3 259 258 19
3 257 258 259
3 93 260 262
3 260 92 261
3 260 261 262
3 93 2 92
3 93 78 2
3 263 78 264
3 265 264 93
3 263 264 265
3 266 14 267
3 268 267 78
3 266 267 268
3 269 14 270
3 271 35 272
3 273 272 14
3 271 272 273
3 274 35 275
3 276 0 277
3 278 277 35
3 276 277 278
3 280 279 0
3 66 281 282
3 94 283 285
3 285 284 66
3 283 284 285
3 94 286 287
3 44 94 8
3 288 94 289
3 290 289 44
3 288 289 290
3 292 291 94
3 95 293 294
3 95 295 296
3 46 95 20
3 96 95 46
3 96 297 299
3 299 298 95
3 297 298 299
3 96 300 302
3 300 301 302
3 97 303 305
3 305 304 96
3 303 304 305
3 97 306 307
3 97 308 309
3 98 310 312
3 312 311 97
3 310 311 312
3 98 313 314
3 48 98 21
3 99 98 48
3 99 315 317
3 317 316 98
3 315 316 317
3 99 318 320
3 318 64 319
3 318 319 320
3 100 64 99
3 100 3 64
3 70 49 4
3 101 49 70
3 101 22 49
3 51 101 10
3 102 101 51
3 102 22 101
3 102 100 22
3 103 100 102
3 103 3 100
3 103 321 323
3 323 322 3
3 321 322 323
3 104 324 326
3 326 325 103
3 324 325 326
3 104 327 328
3 53 104 23
3 105 104 53
3 105 329 331
3 331 330 104
3 329 330 331
3 105 332 333
3 335 334 105
3 55 336 338
3 338 337 24
3 336 337 338
3 340 339 55
3 74 56 5
3 106 56 74
3 106 25 56
3 58 106 12
3 107 106 58
3 107 25 106
3 107 341 343
3 343 342 25
3 341 342 343
3 345 344 107
3 89 34 1
3 108 34 89
3 108 13 34
3 60 108 18
3 109 108 60
3 109 13 108
3 109 77 13
3 110 77 109
3 110 6 77
3 79 61 2
3 111 61 79
3 111 26 61
3 63 111 15
3 112 111 63
3 112 26 111
3 112 110 26
3 113 110 112
3 113 6 110
3 113 346 348
3 348 347 6
3 346 347 348
3 350 349 113
