ply
format ascii 1.0
element vertex 159
property float x
property float y
property float z
element face 143
property list uchar int vertex_index
end_header
47.481964 55.660614 9.429482
52.351662 44.822216 13.438243
50.653206 52.823265 6.016113
53.223366 47.438492 8.465079
50.140705 50.16684 11.410587
47.733593 58.43811 3.891124
53.86644 39.33181 14.882379
49.430107 47.257195 16.74044
50.830978 41.86845 18.112537
49.033916 54.270821 7.620022
50.424339 51.525711 8.702747
48.842583 52.882248 10.385209
47.599457 57.083847 6.636743
49.21418 55.597275 4.893744
52.872086 46.16761 10.96876
54.264511 44.76202 9.6443
53.843422 43.479877 11.991651
53.197411 42.113209 14.27739
49.487617 42.996387 19.855288
49.849152 40.243969 20.264503
51.302597 39.084446 18.528675
52.167847 51.325691 4.642399
53.396786 48.642746 5.969716
52.006054 50.112526 7.22681
51.72039 48.835655 9.842256
51.324974 47.492798 12.453185
47.840256 59.709091 1.199312
49.349297 56.851738 2.221659
50.803993 54.055511 3.376315
48.6591 51.436806 13.161805
49.812008 48.745773 14.103502
50.824913 46.077713 15.017756
50.215656 44.581711 17.495516
51.668999 43.392387 15.830882
52.342152 40.65073 16.463953
52.872635 37.826492 16.846054
47.540711 56.372231 8.033112
46.850594 57.790283 7.603371
46.791847 57.078666 8.99974
49.297398 39.381496 21.275799
49.241957 40.780683 21.172873
49.982395 38.828153 20.366481
49.297398 39.381496 21.275799
46.9853 59.878784 3.451563
46.944826 59.193416 4.829409
47.786924 59.0736 2.545218
47.038631 60.514274 2.105657
46.9853 59.878784 3.451563
53.837639 46.704979 7.872421
53.924349 47.307106 6.62474
53.310076 48.040619 7.217397
54.786758 44.016728 9.058571
54.685941 43.402311 10.153164
54.543447 38.617869 14.111293
54.243983 40.032844 13.847176
54.129078 37.896527 15.032201
54.543447 38.617869 14.111293
48.025984 52.041405 14.116704
48.035258 52.808075 12.706421
49.621057 48.001484 15.421971
49.145574 49.340061 15.008225
48.954624 48.595772 16.326694
52.279858 37.020367 17.77055
52.087616 38.455469 17.687365
51.494839 37.649344 18.61186
53.094471 36.370576 16.887463
52.279858 37.020367 17.77055
46.877758 58.516285 6.202218
46.850594 57.790283 7.603371
47.666525 57.760979 5.263934
46.944826 59.193416 4.829409
46.877758 58.516285 6.202218
54.475397 42.76124 11.326839
54.685941 43.402311 10.153164
54.053967 44.120948 10.817975
54.232473 42.106878 12.401812
54.475397 42.76124 11.326839
53.909468 41.423544 13.544681
54.232473 42.106878 12.401812
53.520416 42.796543 13.134521
53.531925 40.72251 14.579885
54.243983 40.032844 13.847176
53.909468 41.423544 13.544681
48.852047 47.813687 17.669373
48.954624 48.595772 16.326694
49.061189 42.156892 20.968265
48.947056 43.522031 20.77863
49.668385 41.620178 20.059896
49.061189 42.156892 20.968265
49.241957 40.780683 21.172873
50.709118 38.248392 19.498568
50.575874 39.664208 19.396589
49.982395 38.828153 20.366481
51.494839 37.649344 18.61186
50.709118 38.248392 19.498568
52.782317 49.984218 5.306057
53.390147 49.213616 4.74342
52.775677 50.555088 4.079762
47.06665 61.150841 0.751756
47.038631 60.514274 2.105657
47.856956 60.294609 -0.120175
47.06665 61.150841 0.751756
48.620621 58.864826 0.403699
47.856956 60.294609 -0.120175
49.375141 57.436149 0.914872
48.620621 58.864826 0.403699
48.594776 58.280414 1.710485
50.098731 56.032772 1.509078
49.375141 57.436149 0.914872
50.826078 54.634659 2.086406
50.098731 56.032772 1.509078
50.076645 55.453625 2.798987
51.49583 53.264126 2.744651
50.826078 54.634659 2.086406
52.177757 51.899215 3.377694
51.49583 53.264126 2.744651
51.48592 52.690601 4.009357
52.775677 50.555088 4.079762
52.177757 51.899215 3.377694
47.446689 54.919979 10.840259
46.798589 56.31955 10.4189
46.798589 56.31955 10.4189
46.791847 57.078666 8.99974
53.899855 47.880417 5.454846
53.390147 49.213616 4.74342
54.427418 46.544777 6.10987
53.899855 47.880417 5.454846
53.924349 47.307106 6.62474
54.358211 45.366743 8.462032
53.837639 46.704979 7.872421
53.743938 46.100256 9.054689
54.358211 45.366743 8.462032
54.786758 44.016728 9.058571
48.126999 53.530796 11.318122
48.162273 54.271431 9.907345
47.446689 54.919979 10.840259
48.750841 52.159527 11.773507
48.126999 53.530796 11.318122
48.035258 52.808075 12.706421
48.56912 50.685577 14.537377
48.025984 52.041405 14.116704
49.235554 50.09129 13.632653
48.56912 50.685577 14.537377
49.145574 49.340061 15.008225
49.200806 46.47527 18.011645
48.852047 47.813687 17.669373
49.229561 44.344865 19.569069
48.947056 43.522031 20.77863
49.59358 45.137528 18.389183
49.229561 44.344865 19.569069
49.851636 43.789049 18.675402
49.822882 45.919453 17.117978
49.200806 46.47527 18.011645
49.59358 45.137528 18.389183
53.632176 37.143867 16.014038
54.129078 37.896527 15.032201
53.369537 38.579151 15.864216
53.632176 37.143867 16.014038
53.094471 36.370576 16.887463
3 0 11 9
3 0 36 38
3 36 12 37
3 36 37 38
3 0 9 12
3 1 16 14
3 1 17 16
3 39 19 40
3 42 41 19
3 2 23 21
3 4 24 10
3 4 25 24
3 5 43 44
3 5 45 47
3 45 26 46
3 45 46 47
3 5 27 26
3 2 28 13
3 2 21 28
3 3 48 50
3 50 49 22
3 48 49 50
3 52 51 15
3 6 53 54
3 6 55 56
3 57 29 58
3 7 59 61
3 59 30 60
3 59 60 61
3 7 31 30
3 8 32 18
3 8 33 32
3 8 34 33
3 62 35 63
3 64 63 20
3 62 63 64
3 66 65 35
3 9 10 2
3 11 10 9
3 11 4 10
3 12 67 68
3 12 69 71
3 69 5 70
3 69 70 71
3 12 13 5
3 9 13 12
3 9 2 13
3 14 15 3
3 16 15 14
3 16 72 74
3 74 73 15
3 72 73 74
3 16 75 76
3 17 77 79
3 79 78 16
3 77 78 79
3 17 80 82
3 80 6 81
3 80 81 82
3 83 7 84
3 85 18 86
3 19 87 89
3 87 18 88
3 87 88 89
3 19 8 18
3 19 20 8
3 90 20 91
3 92 91 19
3 90 91 92
3 94 93 20
3 21 95 97
3 95 22 96
3 95 96 97
3 23 22 21
3 23 3 22
3 10 23 2
3 24 23 10
3 24 3 23
3 24 14 3
3 25 14 24
3 25 1 14
3 26 98 99
3 26 100 101
3 26 102 103
3 27 104 106
3 106 105 26
3 104 105 106
3 27 107 108
3 13 27 5
3 28 27 13
3 28 109 111
3 111 110 27
3 109 110 111
3 28 112 113
3 21 114 116
3 116 115 28
3 114 115 116
3 21 117 118
3 120 119 0
3 121 0 122
3 22 123 124
3 127 126 22
3 125 126 127
3 15 128 130
3 130 129 3
3 128 129 130
3 132 131 15
3 133 11 134
3 135 134 0
3 133 134 135
3 29 136 138
3 136 11 137
3 136 137 138
3 29 4 11
3 139 29 140
3 30 141 143
3 141 29 142
3 141 142 143
3 30 4 29
3 30 25 4
3 31 25 30
3 31 1 25
3 144 7 145
3 18 146 147
3 32 148 150
3 150 149 18
3 148 149 150
3 32 151 153
3 151 7 152
3 151 152 153
3 32 31 7
3 33 31 32
3 33 1 31
3 33 17 1
3 34 17 33
3 34 6 17
3 20 34 8
3 35 34 20
3 35 6 34
3 35 154 156
3 156 155 6
3 154 155 156
3 158 157 35
