ply
format ascii 1.0
element vertex 58
property float x
property float y
property float z
element face 40
property list uchar int vertex_index
end_header
-28.657169 7.135633 -47.76437
-27.80097 3.901894 -50.332184
-28.175949 5.610525 -49.223091
-27.768871 3.013121 -47.814533
-29.211161 8.487459 -46.01429
-27.428381 1.210726 -48.778114
-27.848202 2.587795 -46.446995
-27.966901 3.847907 -47.159626
-28.934165 7.811546 -46.88933
-28.901971 7.359371 -45.458701
-28.624975 6.683458 -46.333741
-29.04409 8.306508 -48.283034
-29.321086 8.982421 -47.407994
-28.934165 7.811546 -46.88933
-28.757936 7.622478 -49.090173
-29.04409 8.306508 -48.283034
-28.117813 5.200761 -51.007424
-28.305302 6.055077 -50.452877
-27.988459 4.756209 -49.777637
-27.992166 4.282709 -51.44574
-28.117813 5.200761 -51.007424
-27.364705 -0.16365 -47.926401
-27.521117 0.783494 -47.511921
-28.411051 5.909163 -47.134545
-28.624975 6.683458 -46.333741
-28.17044 5.146609 -47.863905
-28.416559 6.373079 -48.49373
-28.411051 5.909163 -47.134545
-27.97241 4.311823 -48.518812
-28.17044 5.146609 -47.863905
-27.966901 3.847907 -47.159626
-29.115866 8.087896 -44.550131
-28.901971 7.359371 -45.458701
-29.500375 9.09368 -45.03089
-29.115866 8.087896 -44.550131
-29.657763 9.550535 -46.456755
-29.500375 9.09368 -45.03089
-29.657763 9.550535 -46.456755
-29.321086 8.982421 -47.407994
-28.517325 6.859924 -49.819534
-28.757936 7.622478 -49.090173
-28.416559 6.373079 -48.49373
-28.517325 6.859924 -49.819534
-28.305302 6.055077 -50.452877
-27.691362 1.684692 -47.03013
-27.848202 2.587795 -46.446995
-27.598626 2.111924 -48.296323
-27.691362 1.684692 -47.03013
-27.521117 0.783494 -47.511921
-27.294714 0.243969 -49.073017
-27.364705 -0.16365 -47.926401
-27.489598 1.614327 -49.916954
-27.294714 0.243969 -49.073017
-27.675893 2.959912 -50.693989
-27.614676 2.55631 -49.555149
-27.489598 1.614327 -49.916954
-27.992166 4.282709 -51.44574
-27.675893 2.959912 -50.693989
3 6 3 7
3 0 8 10
3 8 4 9
3 8 9 10
3 0 11 13
3 13 12 4
3 11 12 13
3 0 14 15
3 1 16 18
3 18 17 2
3 16 17 18
3 1 19 20
3 21 5 22
3 23 0 24
3 25 2 26
3 27 26 0
3 25 26 27
3 3 28 30
3 28 2 29
3 28 29 30
3 3 1 2
3 4 31 32
3 4 33 34
3 4 35 36
3 38 37 4
3 2 39 41
3 41 40 0
3 39 40 41
3 43 42 2
3 44 3 45
3 5 46 48
3 46 3 47
3 46 47 48
3 5 1 3
3 49 5 50
3 51 5 52
3 53 1 54
3 55 54 5
3 53 54 55
3 57 56 1
