ply
format ascii 1.0
element vertex 284
property float x
property float y
property float z
element face 274
property list uchar int vertex_index
end_header
-41.798634 -31.329998 13.8415
-42.659241 -26.720022 6.90132
-44.756683 -22.579742 18.124792
-39.664848 -20.809399 14.168738
-39.208244 -17.659943 6.829954
-41.352806 -13.170429 -2.149315
-41.584366 -29.303324 10.569099
-45.030689 -16.202385 16.810495
-39.924095 -13.943883 13.499281
-38.944008 -19.37776 10.828504
-42.597069 -10.266764 -6.787601
-42.06226 -27.699593 16.923021
-40.213482 -26.59182 14.318583
-41.590038 -21.90959 16.620552
-39.782921 -24.946905 10.924019
-40.50581 -22.907892 6.925001
-41.975414 -20.513515 2.532507
-40.12888 -15.616653 2.434668
-43.765949 -17.685381 -2.076567
-45.524006 -14.31044 -6.770746
-41.507191 -30.400955 12.262399
-43.155708 -25.266495 17.785664
-41.702026 -24.922798 16.862364
-43.024281 -22.30377 17.484381
-44.926704 -25.467014 18.495619
-39.817978 -23.83798 14.319148
-39.832504 -25.826151 12.710169
-39.381557 -23.12796 12.713543
-38.971882 -18.555414 8.894548
-39.392601 -21.444553 8.955249
-39.758186 -20.482676 6.865612
-41.17466 -21.757935 4.765804
-40.299843 -19.43639 4.677371
-39.860451 -11.365086 0.387534
-39.425713 -12.473486 2.599043
-40.723278 -14.448427 0.156204
-41.711281 -17.046587 0.111597
-42.488029 -15.677099 -2.22296
-44.666466 -16.07163 -4.419439
-43.260292 -14.176809 -4.570131
-41.987095 -28.067646 8.777747
-44.801491 -19.489067 17.564081
-39.717228 -17.506657 13.888338
-39.16412 -20.130053 12.597511
-39.14146 -16.830109 12.390396
-38.818962 -16.094051 10.696119
-38.72216 -15.296715 8.837772
-40.335213 -10.164865 -1.856916
-41.985279 -11.777136 -4.467405
-40.823242 -8.871334 -4.120893
-41.305664 -7.485022 -6.394264
-41.770092 -6.007836 -8.669552
-41.584404 -29.757563 15.579191
-40.871815 -29.082378 14.156003
-40.953476 -27.22286 15.727286
-40.587627 -24.441957 15.70703
-40.469601 -21.406923 15.515164
-43.113129 -19.122866 16.993176
-41.697811 -18.66292 16.198502
-40.565891 -18.120367 15.163157
-40.538868 -28.241394 12.562476
-40.558388 -27.260359 10.817497
-40.887318 -26.163616 8.942005
-39.252159 -22.327009 10.91534
-40.023869 -23.971035 8.986475
-41.472046 -24.968927 6.956485
-42.253613 -23.684444 4.879459
-43.172272 -22.308083 2.727071
-44.171066 -20.829063 0.513537
-38.817013 -14.432506 6.848727
-39.064972 -13.493931 4.760151
-39.609135 -16.68372 4.667158
-40.967144 -18.29538 2.418175
-42.855213 -19.16124 0.245776
-45.198421 -19.231279 -1.748085
-43.999619 -12.540364 -6.918528
-41.652912 -30.865476 13.051949
-42.120379 -31.369242 12.046425
-42.2661 -31.833763 12.835975
-42.393908 -32.345061 13.627751
-42.140923 -31.69598 14.565331
-42.2661 -31.833763 12.835975
-42.393908 -32.345061 13.627751
-43.835898 -26.667093 5.904919
-43.357857 -27.47348 6.807506
-43.098383 -25.99877 5.925116
-43.835898 -26.667093 5.904919
-44.841694 -24.023378 18.310206
-45.842598 -24.101256 18.536933
-45.757587 -22.65762 18.35152
-42.449951 -29.520131 9.519613
-42.220085 -30.210772 10.373545
-41.78573 -28.685485 9.673423
-42.651315 -28.902292 8.623937
-42.449951 -29.520131 9.519613
-38.821528 -14.292193 10.616668
-39.040011 -14.668037 11.405058
-38.773127 -13.893525 9.687494
-38.770561 -15.695383 9.766945
-38.821528 -14.292193 10.616668
-39.869129 -8.427605 -1.618853
-39.709705 -8.99538 -0.538458
-40.113144 -7.780839 -2.750841
-40.579228 -9.518099 -2.988904
-39.869129 -8.427605 -1.618853
-40.706196 -5.851786 -6.090847
-40.527248 -6.48622 -4.983881
-40.93841 -5.113193 -7.228491
-41.537878 -6.746429 -7.531908
-40.706196 -5.851786 -6.090847
-41.118324 -4.446124 -8.341404
-40.93841 -5.113193 -7.228491
-41.839768 -16.929707 15.903295
-42.541258 -17.19908 16.25754
-41.273808 -16.658431 15.385623
-41.131851 -18.391644 15.68083
-41.839768 -16.929707 15.903295
-40.697128 -16.35851 14.91599
-41.273808 -16.658431 15.385623
-42.372664 -28.973118 16.871139
-42.795901 -27.854689 17.414733
-41.823332 -28.728578 16.251106
-42.133736 -30.002103 16.199223
-42.372664 -28.973118 16.871139
-38.67533 -12.626093 6.887877
-38.704029 -13.058615 7.823457
-44.987928 -17.591543 -3.061011
-45.704165 -18.364492 -2.89677
-44.482185 -18.45833 -1.912326
-46.346685 -14.962687 -6.568976
-45.917915 -15.843281 -5.393322
-45.095236 -15.191035 -5.595092
-46.786574 -13.943638 -7.737362
-46.346685 -14.962687 -6.568976
-42.181497 -30.759588 11.220195
-42.120379 -31.369242 12.046425
-41.545778 -29.852139 11.415749
-42.220085 -30.210772 10.373545
-42.181497 -30.759588 11.220195
-39.592577 -13.592953 12.806639
-40.075279 -12.046027 13.258807
-44.207697 -15.968812 16.563536
-45.215988 -14.469804 16.342139
-45.952531 -25.498115 18.761991
-45.842598 -24.101256 18.536933
-45.126759 -26.810035 18.595289
-45.952531 -25.498115 18.761991
-44.228122 -26.738399 18.201033
-45.126759 -26.810035 18.595289
-43.342624 -26.63814 17.846055
-44.228122 -26.738399 18.201033
-44.041206 -25.366754 18.140642
-42.608984 -26.483044 17.354343
-42.795901 -27.854689 17.414733
-43.342624 -26.63814 17.846055
-39.643082 -11.919286 1.493289
-39.119677 -10.683062 2.747561
-39.337046 -10.128862 1.641806
-43.641569 -10.517437 -8.024214
-42.884732 -9.453984 -7.94533
-43.021784 -28.147292 7.745719
-42.651315 -28.902292 8.623937
-42.323168 -27.393834 7.839533
-43.357857 -27.47348 6.807506
-43.021784 -28.147292 7.745719
-45.771732 -19.621813 17.75517
-44.779087 -21.034405 17.844437
-45.749329 -21.16715 18.035525
-45.853531 -18.038697 17.343515
-45.771732 -19.621813 17.75517
-45.96813 -16.395356 16.966721
-44.91609 -17.845726 17.187288
-45.853531 -18.038697 17.343515
-46.122107 -14.725579 16.461531
-45.96813 -16.395356 16.966721
-45.215988 -14.469804 16.342139
-46.122107 -14.725579 16.461531
-45.749329 -21.16715 18.035525
-45.757587 -22.65762 18.35152
-39.20126 -15.036066 12.252197
-39.532778 -15.386996 12.944838
-39.592577 -13.592953 12.806639
-38.980211 -16.46208 11.543257
-39.20126 -15.036066 12.252197
-39.040011 -14.668037 11.405058
-39.472324 -9.59549 0.583767
-39.337046 -10.128862 1.641806
-40.097832 -10.764976 -0.734691
-39.472324 -9.59549 0.583767
-39.709705 -8.99538 -0.538458
-40.286037 -7.179376 -3.847195
-40.113144 -7.780839 -2.750841
-41.064453 -8.178178 -5.257578
-40.286037 -7.179376 -3.847195
-40.527248 -6.48622 -4.983881
-42.239029 -8.063113 -7.748661
-42.884732 -9.453984 -7.94533
-41.951366 -8.875893 -6.590933
-42.471243 -7.32452 -8.886305
-42.239029 -8.063113 -7.748661
-41.537878 -6.746429 -7.531908
-42.735365 -6.456679 -10.039876
-42.471243 -7.32452 -8.886305
-41.988816 -5.225197 -9.805468
-42.735365 -6.456679 -10.039876
-41.337048 -3.663485 -9.477321
-41.988816 -5.225197 -9.805468
-41.118324 -4.446124 -8.341404
-43.248917 -17.429053 16.654877
-44.071909 -17.662625 16.901835
-44.207697 -15.968812 16.563536
-42.40547 -18.892893 16.595839
-43.248917 -17.429053 16.654877
-42.541258 -17.19908 16.25754
-40.272796 -16.051655 14.278581
-40.141559 -17.813512 14.525747
-40.697128 -16.35851 14.91599
-40.37623 -14.270268 14.084052
-39.820661 -15.72527 13.69381
-40.272796 -16.051655 14.278581
-40.561821 -12.402628 13.775199
-40.37623 -14.270268 14.084052
-40.075279 -12.046027 13.258807
-40.561821 -12.402628 13.775199
-42.033808 -30.909762 15.434177
-42.133736 -30.002103 16.199223
-41.691519 -30.543781 14.710345
-42.140923 -31.69598 14.565331
-42.033808 -30.909762 15.434177
-42.504785 -25.123223 5.952699
-43.098383 -25.99877 5.925116
-42.065644 -25.844475 6.928902
-42.895569 -24.480981 4.914186
-42.504785 -25.123223 5.952699
-41.86283 -24.326685 5.917972
-43.405447 -23.715173 3.902906
-42.895569 -24.480981 4.914186
-43.864777 -23.026992 2.826712
-43.405447 -23.715173 3.902906
-42.712942 -22.996263 3.803265
-44.414631 -22.214009 1.782451
-43.864777 -23.026992 2.826712
-44.914028 -21.4745 0.675684
-44.414631 -22.214009 1.782451
-43.671669 -21.568573 1.620304
-45.476202 -20.607568 -0.399346
-44.914028 -21.4745 0.675684
-38.656603 -13.490719 8.817979
-38.773127 -13.893525 9.687494
-38.769587 -14.864611 7.843249
-38.656603 -13.490719 8.817979
-38.704029 -13.058615 7.823457
-39.022486 -11.181805 3.775346
-39.119677 -10.683062 2.747561
-38.842115 -11.692027 4.8559
-39.022486 -11.181805 3.775346
-39.245342 -12.983708 3.679597
-38.799309 -12.156806 5.843589
-38.842115 -11.692027 4.8559
-38.940993 -13.963218 5.804439
-38.67533 -12.626093 6.887877
-38.799309 -12.156806 5.843589
-45.98988 -19.808677 -1.530157
-45.476202 -20.607568 -0.399346
-44.684744 -20.030171 -0.617274
-46.540665 -18.87912 -2.632956
-45.98988 -19.808677 -1.530157
-46.540665 -18.87912 -2.632956
-45.704165 -18.364492 -2.89677
-45.438187 -16.784667 -4.232447
-44.987928 -17.591543 -3.061011
-44.216207 -16.878505 -3.248003
-45.438187 -16.784667 -4.232447
-45.917915 -15.843281 -5.393322
-44.342844 -11.654237 -8.089677
-43.298344 -11.403564 -6.853065
-43.641569 -10.517437 -8.024214
-45.157032 -12.469813 -8.020266
-44.342844 -11.654237 -8.089677
-45.919225 -13.354851 -7.946375
-44.761813 -13.425402 -6.844637
-45.157032 -12.469813 -8.020266
-46.786574 -13.943638 -7.737362
-45.919225 -13.354851 -7.946375
3 0 76 78
3 76 20 77
3 76 77 78
3 0 79 80
3 0 81 82
3 1 83 84
3 1 85 86
3 2 23 21
3 2 87 89
3 87 24 88
3 87 88 89
3 2 21 24
3 3 27 25
3 4 30 28
3 4 32 30
3 5 35 33
3 5 37 35
3 5 39 37
3 6 90 91
3 6 92 94
3 92 40 93
3 92 93 94
3 8 44 42
3 95 45 96
3 97 46 98
3 99 98 45
3 97 98 99
3 100 47 101
3 102 49 103
3 104 103 47
3 102 103 104
3 105 50 106
3 107 51 108
3 109 108 50
3 107 108 109
3 111 110 51
3 11 54 52
3 13 55 22
3 13 56 55
3 7 57 41
3 112 58 113
3 114 59 115
3 116 115 58
3 114 115 116
3 118 117 59
3 11 119 120
3 11 121 123
3 121 52 122
3 121 122 123
3 12 60 53
3 14 61 26
3 14 62 61
3 9 63 43
3 15 64 29
3 15 65 64
3 15 66 65
3 16 67 31
3 16 68 67
3 124 69 125
3 17 70 34
3 17 71 70
3 17 72 71
3 18 73 36
3 18 74 73
3 18 126 128
3 128 127 74
3 126 127 128
3 19 129 131
3 131 130 38
3 129 130 131
3 19 132 133
3 10 75 48
3 20 134 135
3 20 136 138
3 136 6 137
3 136 137 138
3 140 139 8
3 21 22 11
3 23 22 21
3 23 13 22
3 142 141 7
3 24 143 144
3 24 145 146
3 24 147 148
3 21 149 151
3 151 150 24
3 149 150 151
3 21 152 154
3 152 11 153
3 152 153 154
3 25 26 12
3 27 26 25
3 27 14 26
3 28 29 9
3 30 29 28
3 30 15 29
3 30 31 15
3 32 31 30
3 32 16 31
3 33 155 157
3 155 34 156
3 155 156 157
3 35 34 33
3 35 17 34
3 35 36 17
3 37 36 35
3 37 18 36
3 37 38 18
3 39 38 37
3 39 19 38
3 159 158 10
3 40 160 161
3 40 162 164
3 162 1 163
3 162 163 164
3 165 41 166
3 167 166 2
3 165 166 167
3 168 41 169
3 170 7 171
3 172 171 41
3 170 171 172
3 173 7 174
3 176 175 7
3 177 2 178
3 42 43 3
3 44 43 42
3 44 9 43
3 179 44 180
3 181 180 8
3 179 180 181
3 45 182 184
3 182 44 183
3 182 183 184
3 45 9 44
3 45 28 9
3 46 28 45
3 46 4 28
3 185 33 186
3 47 187 189
3 187 33 188
3 187 188 189
3 47 5 33
3 47 48 5
3 49 48 47
3 49 10 48
3 190 49 191
3 50 192 194
3 192 49 193
3 192 193 194
3 50 10 49
3 50 195 197
3 197 196 10
3 195 196 197
3 51 198 200
3 200 199 50
3 198 199 200
3 51 201 202
3 51 203 204
3 207 206 51
3 205 206 207
3 52 53 0
3 54 53 52
3 54 12 53
3 22 54 11
3 55 54 22
3 55 12 54
3 55 25 12
3 56 25 55
3 56 3 25
3 41 23 2
3 57 23 41
3 57 13 23
3 208 57 209
3 210 209 7
3 208 209 210
3 58 211 213
3 211 57 212
3 211 212 213
3 58 13 57
3 58 56 13
3 59 56 58
3 59 3 56
3 59 42 3
3 214 42 215
3 216 215 59
3 214 215 216
3 217 8 218
3 219 218 42
3 217 218 219
3 220 8 221
3 223 222 8
3 52 224 225
3 52 226 228
3 226 0 227
3 226 227 228
3 53 20 0
3 60 20 53
3 60 6 20
3 26 60 12
3 61 60 26
3 61 6 60
3 61 40 6
3 62 40 61
3 62 1 40
3 43 27 3
3 63 27 43
3 63 14 27
3 29 63 9
3 64 63 29
3 64 14 63
3 64 62 14
3 65 62 64
3 65 1 62
3 65 229 231
3 231 230 1
3 229 230 231
3 66 232 234
3 234 233 65
3 232 233 234
3 66 235 236
3 31 66 15
3 67 66 31
3 67 237 239
3 239 238 66
3 237 238 239
3 67 240 241
3 68 242 244
3 244 243 67
3 242 243 244
3 68 245 246
3 247 46 248
3 69 249 251
3 249 46 250
3 249 250 251
3 69 4 46
3 34 252 253
3 70 254 256
3 256 255 34
3 254 255 256
3 70 257 258
3 70 259 261
3 259 69 260
3 259 260 261
3 71 69 70
3 71 4 69
3 71 32 4
3 72 32 71
3 72 16 32
3 36 72 17
3 73 72 36
3 73 16 72
3 73 68 16
3 74 68 73
3 74 262 264
3 264 263 68
3 262 263 264
3 74 265 266
3 268 267 74
3 38 269 271
3 271 270 18
3 269 270 271
3 273 272 38
3 48 39 5
3 75 39 48
3 75 19 39
3 274 75 275
3 276 275 10
3 274 275 276
3 277 75 278
3 279 19 280
3 281 280 75
3 279 280 281
3 283 282 19
