ply
format ascii 1.0
element vertex 176
property float x
property float y
property float z
element face 156
property list uchar int vertex_index
end_header
-24.0476 -45.186226 -24.320877
-27.184557 -35.627064 -32.199673
-26.461775 -47.283997 -25.052055
-25.909779 -40.582932 -28.095852
-28.442459 -42.042072 -29.083435
-29.955265 -36.499519 -33.30394
-23.712944 -52.167694 -21.566341
-28.23621 -30.395111 -36.351528
-31.388723 -30.86953 -37.289059
-27.878237 -48.374573 -25.49157
-27.534513 -44.70689 -27.017998
-31.235825 -25.299221 -40.539169
-23.339371 -44.296188 -23.849865
-24.011345 -41.584229 -24.983604
-24.314404 -42.18092 -25.645554
-26.601688 -38.146751 -30.122448
-25.737682 -37.668777 -29.523487
-26.235281 -35.273445 -31.568748
-26.648682 -32.79277 -33.649387
-27.034994 -30.239014 -35.733418
-27.710625 -33.036381 -34.289303
-30.661238 -33.673691 -35.350605
-25.131758 -46.200996 -24.690945
-25.06715 -42.929733 -26.153412
-26.188074 -43.790321 -26.582561
-27.071383 -41.290943 -28.584663
-27.818356 -38.707375 -30.658855
-28.477577 -36.051445 -32.760136
-29.232002 -39.299644 -31.197086
-22.843277 -47.354095 -22.612976
-23.883179 -48.523224 -22.936771
-25.191936 -49.770599 -23.226711
-25.108433 -39.972038 -27.541668
-28.814854 -27.732748 -38.348331
-29.102396 -33.344173 -34.841316
-29.743519 -30.617588 -36.856846
-30.443535 -27.916645 -38.76643
-32.164188 -28.154472 -39.07869
-28.412005 -46.997765 -26.513634
-28.557184 -48.895983 -25.782839
-30.363811 -25.193699 -40.393526
-30.768421 -23.903169 -41.284666
-22.154499 -48.394426 -21.821951
-22.514048 -46.836906 -22.386563
-23.078319 -51.463144 -21.448715
-22.240036 -52.617117 -20.702341
-22.874661 -53.321666 -20.819967
-23.798061 -50.345459 -22.251556
-23.163437 -49.640909 -22.13393
-23.078319 -51.463144 -21.448715
-24.452303 -40.382835 -25.480227
-24.38868 -40.541937 -25.917658
-25.538753 -37.491638 -29.161302
-25.747175 -36.349199 -30.168455
-27.845356 -29.012989 -37.069502
-27.244748 -28.93494 -36.760447
-27.635602 -30.317062 -36.042473
-28.525532 -29.06393 -37.34993
-28.134678 -27.681807 -38.067903
-27.845356 -29.012989 -37.069502
-28.240143 -45.163923 -27.276848
-27.706375 -46.540731 -26.254784
-28.412005 -46.997765 -26.513634
-28.694116 -43.831514 -28.309567
-27.988486 -43.374481 -28.050717
-28.240143 -45.163923 -27.276848
-29.154018 -42.411497 -29.369453
-28.694116 -43.831514 -28.309567
-23.570168 -54.118717 -20.925114
-22.874661 -53.321666 -20.819967
-24.424076 -52.883281 -21.701759
-23.570168 -54.118717 -20.925114
-31.692326 -24.063678 -41.349726
-30.768421 -23.903169 -41.284666
-32.122507 -25.458822 -40.61354
-31.692326 -24.063678 -41.349726
-23.675358 -42.940208 -24.416735
-23.540003 -42.576702 -24.092367
-23.204016 -43.932682 -23.525498
-24.54021 -40.840283 -26.248632
-24.38868 -40.541937 -25.917658
-24.162875 -41.882575 -25.314579
-25.995975 -35.151533 -31.191085
-25.747175 -36.349199 -30.168455
-25.986482 -36.471111 -30.546118
-26.14599 -33.961054 -32.222635
-25.995975 -35.151533 -31.191085
-26.352691 -32.720716 -33.262954
-26.14599 -33.961054 -32.222635
-26.441982 -34.033107 -32.609067
-26.471262 -31.485799 -34.307312
-26.352691 -32.720716 -33.262954
-26.841838 -31.515892 -34.691402
-26.664418 -30.208922 -35.349328
-26.471262 -31.485799 -34.307312
-31.066248 -35.298226 -34.611818
-30.308252 -35.086605 -34.327272
-30.713262 -36.71114 -33.588486
-31.452604 -33.825966 -35.602505
-31.066248 -35.298226 -34.611818
-31.816346 -32.423885 -36.571731
-31.02498 -32.271611 -36.319832
-31.452604 -33.825966 -35.602505
-32.207976 -30.986832 -37.487746
-31.816346 -32.423885 -36.571731
-29.54879 -41.040283 -30.426279
-28.837231 -40.670858 -30.140261
-29.154018 -42.411497 -29.369453
-29.961393 -39.585708 -31.492754
-29.54879 -41.040283 -30.426279
-30.323025 -38.185646 -32.546181
-29.593634 -37.899581 -32.250513
-29.961393 -39.585708 -31.492754
-30.713262 -36.71114 -33.588486
-30.323025 -38.185646 -32.546181
-22.762094 -45.307952 -23.005007
-23.204016 -43.932682 -23.525498
-23.091324 -45.825142 -23.23142
-22.762094 -45.307952 -23.005007
-22.514048 -46.836906 -22.386563
-22.643486 -49.056345 -21.972032
-22.154499 -48.394426 -21.821951
-23.363228 -47.938659 -22.774873
-22.643486 -49.056345 -21.972032
-23.163437 -49.640909 -22.13393
-25.163572 -51.684734 -22.531944
-24.45244 -50.969146 -22.396526
-24.424076 -52.883281 -21.701759
-25.904691 -50.402395 -23.402706
-25.163572 -51.684734 -22.531944
-26.539611 -49.159094 -24.315378
-25.826856 -48.527298 -24.139383
-25.904691 -50.402395 -23.402706
-27.247842 -49.704382 -24.535135
-27.170006 -47.829285 -25.271812
-26.539611 -49.159094 -24.315378
-27.943753 -50.315964 -24.78076
-27.247842 -49.704382 -24.535135
-28.557184 -48.895983 -25.782839
-27.943753 -50.315964 -24.78076
-24.079508 -41.367535 -24.551359
-23.540003 -42.576702 -24.092367
-24.079508 -41.367535 -24.551359
-24.452303 -40.382835 -25.480227
-24.937224 -39.735841 -27.19669
-24.54021 -40.840283 -26.248632
-24.711419 -41.076479 -26.593611
-25.224128 -38.643268 -28.170393
-25.423057 -38.820408 -28.532578
-25.538753 -37.491638 -29.161302
-24.937224 -39.735841 -27.19669
-25.224128 -38.643268 -28.170393
-26.782947 -28.935334 -36.393021
-26.664418 -30.208922 -35.349328
-26.782947 -28.935334 -36.393021
-27.244748 -28.93494 -36.760447
-28.389119 -26.363528 -39.064417
-28.134678 -27.681807 -38.067903
-29.153326 -26.410463 -39.298107
-28.389119 -26.363528 -39.064417
-29.967666 -26.502411 -39.507157
-29.153326 -26.410463 -39.298107
-29.629195 -27.824697 -38.557381
-30.83968 -26.607933 -39.6528
-30.363811 -25.193699 -40.393526
-29.967666 -26.502411 -39.507157
-32.586689 -26.886447 -39.883301
-32.122507 -25.458822 -40.61354
-31.700007 -26.726847 -39.80893
-32.595709 -29.629303 -38.382561
-31.776456 -29.512001 -38.183875
-32.207976 -30.986832 -37.487746
-32.993097 -28.277765 -39.203404
-32.595709 -29.629303 -38.382561
-32.586689 -26.886447 -39.883301
-32.993097 -28.277765 -39.203404
3 39 38 9
3 40 11 41
3 0 14 12
3 1 17 15
3 1 18 17
3 1 20 18
3 2 24 22
3 4 25 10
3 4 26 25
3 4 28 26
3 42 29 43
3 6 44 46
3 44 45 46
3 6 47 49
3 47 30 48
3 47 48 49
3 6 31 30
3 51 50 13
3 3 32 23
3 53 52 16
3 7 54 56
3 56 55 19
3 54 55 56
3 7 57 59
3 57 33 58
3 57 58 59
3 5 34 27
3 8 35 21
3 8 36 35
3 8 37 36
3 9 10 2
3 60 10 61
3 62 61 9
3 60 61 62
3 63 4 64
3 65 64 10
3 63 64 65
3 67 66 4
3 68 6 69
3 71 70 6
3 11 72 73
3 11 74 75
3 12 76 78
3 76 13 77
3 76 77 78
3 14 13 12
3 14 79 81
3 81 80 13
3 79 80 81
3 15 16 3
3 17 16 15
3 17 82 84
3 84 83 16
3 82 83 84
3 17 85 86
3 18 87 89
3 89 88 17
3 87 88 89
3 18 90 91
3 18 92 94
3 92 19 93
3 92 93 94
3 20 19 18
3 20 7 19
3 95 21 96
3 97 96 5
3 95 96 97
3 98 21 99
3 100 8 101
3 102 101 21
3 100 101 102
3 104 103 8
3 22 23 0
3 24 23 22
3 24 3 23
3 10 24 2
3 25 24 10
3 25 3 24
3 25 15 3
3 26 15 25
3 26 1 15
3 26 27 1
3 28 27 26
3 28 5 27
3 105 28 106
3 107 106 4
3 105 106 107
3 108 28 109
3 110 5 111
3 112 111 28
3 110 111 112
3 114 113 5
3 115 12 116
3 29 117 119
3 117 12 118
3 117 118 119
3 29 0 12
3 120 29 121
3 30 122 124
3 122 29 123
3 122 123 124
3 30 0 29
3 30 22 0
3 31 22 30
3 31 2 22
3 125 31 126
3 127 126 6
3 125 126 127
3 128 31 129
3 130 2 131
3 132 131 31
3 130 131 132
3 133 9 134
3 135 134 2
3 133 134 135
3 136 9 137
3 139 138 9
3 13 140 141
3 143 142 13
3 23 14 0
3 32 14 23
3 32 144 146
3 146 145 14
3 144 145 146
3 16 32 3
3 147 32 148
3 149 148 16
3 147 148 149
3 151 150 32
3 19 152 153
3 155 154 19
3 33 156 157
3 33 158 159
3 27 20 1
3 34 20 27
3 34 7 20
3 21 34 5
3 35 34 21
3 35 7 34
3 35 33 7
3 36 33 35
3 36 160 162
3 162 161 33
3 160 161 162
3 36 163 165
3 163 11 164
3 163 164 165
3 37 11 36
3 37 166 168
3 168 167 11
3 166 167 168
3 169 37 170
3 171 170 8
3 169 170 171
3 172 37 173
3 175 174 37
