ply
format ascii 1.0
element vertex 178
property float x
property float y
property float z
element face 166
property list uchar int vertex_index
end_header
-56.853912 18.741833 9.837709
-54.936447 26.020901 8.384621
-52.175598 17.73745 5.964091
-58.443008 15.377499 11.301992
-55.267059 19.087677 14.437245
-54.883076 27.157082 12.063441
-58.805042 14.319645 7.512985
-56.779884 17.411667 6.540452
-54.784794 23.051666 13.179343
-55.869778 22.354137 8.960024
-54.90184 20.642029 6.29235
-53.559418 16.287224 5.689037
-57.550476 17.016747 10.49003
-58.804131 14.982391 9.210113
-57.859337 16.56675 8.491041
-57.753845 15.838924 6.926077
-57.047409 18.219254 7.953798
-53.744057 25.272339 14.888427
-55.200989 26.696438 10.068111
-55.398018 24.755703 10.506989
-55.435226 24.189079 8.659721
-55.640358 21.64032 7.364129
-54.921177 23.370232 7.234078
-53.904297 22.275066 6.344393
-54.116394 25.101604 7.145392
-57.784851 15.548065 13.652399
-56.881538 17.229412 12.779814
-56.236404 19.016609 12.046827
-53.156212 29.841652 15.614634
-54.016754 27.43866 14.228592
-54.283527 29.587036 13.475876
-54.888741 29.192688 11.422833
-57.212135 14.803829 5.920475
-56.053551 16.293781 5.714664
-54.904404 21.033447 13.765247
-55.822624 20.888298 11.446453
-54.814117 25.103493 12.630903
-55.573463 22.811958 10.948626
-56.315956 20.530361 9.337609
-56.327736 19.917999 7.588624
-55.845253 19.018158 6.341092
-54.899483 17.810009 5.697114
-53.715851 19.342609 5.824941
-52.474686 20.889778 6.043376
-54.234703 15.57151 5.612409
-53.48974 14.694904 5.834754
-53.21962 26.426361 15.665116
-53.020701 25.287996 16.027189
-51.281374 16.783794 6.295429
-51.151209 15.142588 6.444885
-52.045433 16.096243 6.113547
-51.46039 18.473233 6.133421
-51.281374 16.783794 6.295429
-57.3457 15.543481 14.895927
-58.355438 14.759525 14.149427
-56.074298 18.158544 13.608529
-56.406444 17.23962 14.0031
-55.599205 18.168753 14.831815
-53.92197 30.826489 14.053847
-53.71987 29.714344 14.545255
-53.358312 30.953797 15.123227
-54.820395 30.197553 11.044332
-54.665635 30.447775 12.002887
-54.894936 28.907702 10.501814
-54.820395 30.197553 11.044332
-59.167182 14.427343 10.69884
-58.986145 14.603316 11.779001
-59.376995 13.594372 7.902224
-59.376539 13.925745 8.750788
-58.804586 14.651018 8.361549
-59.228363 13.143398 7.240032
-59.800316 12.418126 7.629272
-59.376995 13.594372 7.902224
-58.605499 13.837833 6.92553
-59.228363 13.143398 7.240032
-54.844599 22.042556 13.472295
-54.244622 22.074821 14.639527
-54.184816 23.083931 14.346575
-52.647288 22.403835 6.242164
-53.189492 21.582422 6.193885
-53.362093 23.096479 6.392672
-51.817582 21.673116 6.168473
-52.647288 22.403835 6.242164
-52.737343 15.37113 5.97602
-53.48974 14.694904 5.834754
-52.867508 17.012337 5.826564
-52.045433 16.096243 6.113547
-52.737343 15.37113 5.97602
-54.654909 19.043551 15.664307
-55.599205 18.168753 14.831815
-53.664448 24.194267 15.201117
-53.020701 25.287996 16.027189
-54.264426 24.162002 14.033885
-54.184816 23.083931 14.346575
-53.664448 24.194267 15.201117
-53.468142 24.509748 6.793172
-53.362093 23.096479 6.392672
-54.010345 23.688335 6.744893
-58.657066 14.688598 12.954204
-58.355438 14.759525 14.149427
-58.113929 15.462782 12.477196
-58.986145 14.603316 11.779001
-58.657066 14.688598 12.954204
-56.858101 16.398947 14.439392
-57.3457 15.543481 14.895927
-57.333195 16.388738 13.216107
-56.858101 16.398947 14.439392
-56.406444 17.23962 14.0031
-53.586483 28.640156 14.921613
-53.355969 27.509521 15.335199
-52.925697 28.711018 16.028219
-54.363028 30.644949 13.029408
-53.92197 30.826489 14.053847
-54.586134 29.389862 12.449355
-54.363028 30.644949 13.029408
-54.665635 30.447775 12.002887
-55.05106 27.659577 9.824453
-55.044865 27.944563 10.745472
-54.894936 28.907702 10.501814
-54.918789 27.321808 8.982708
-55.068718 26.358669 9.226366
-55.05106 27.659577 9.824453
-54.626352 26.933336 8.234362
-54.918789 27.321808 8.982708
-52.395573 29.917133 16.680733
-52.925697 28.711018 16.028219
-52.686445 31.083508 16.16347
-52.395573 29.917133 16.680733
-53.358312 30.953797 15.123227
-52.686445 31.083508 16.16347
-59.347744 14.229789 9.652901
-59.167182 14.427343 10.69884
-58.62357 15.179945 10.256052
-59.347744 14.229789 9.652901
-59.376539 13.925745 8.750788
-58.079901 14.597473 6.632076
-58.605499 13.837833 6.92553
-58.279443 15.079284 7.219531
-57.809046 14.079925 6.129275
-58.079901 14.597473 6.632076
-57.48299 15.321376 6.423276
-57.404739 13.438874 5.849646
-57.809046 14.079925 6.129275
-56.730323 14.125708 5.737372
-57.404739 13.438874 5.849646
-56.151032 14.870683 5.634467
-56.730323 14.125708 5.737372
-56.632843 15.548805 5.817569
-55.481769 15.574789 5.625222
-56.151032 14.870683 5.634467
-54.460907 20.04901 15.300942
-54.654909 19.043551 15.664307
-54.279579 21.021895 14.964944
-54.244622 22.074821 14.639527
-55.085732 20.060562 14.101246
-54.460907 20.04901 15.300942
-54.279579 21.021895 14.964944
-53.880405 26.3555 14.558509
-53.21962 26.426361 15.665116
-53.355969 27.509521 15.335199
-54.904736 16.332903 5.616447
-55.481769 15.574789 5.625222
-55.476517 17.051895 5.705889
-54.22945 17.048617 5.693075
-54.234703 15.57151 5.612409
-54.904736 16.332903 5.616447
-51.609934 20.049397 6.173063
-51.46039 18.473233 6.133421
-52.325142 19.313614 6.003734
-51.609934 20.049397 6.173063
-51.817582 21.673116 6.168473
-54.216325 26.473688 7.614748
-54.526421 25.561252 7.765007
-54.626352 26.933336 8.234362
-53.654184 25.96924 7.095446
-54.216325 26.473688 7.614748
-53.468142 24.509748 6.793172
-53.654184 25.96924 7.095446
3 44 11 45
3 0 14 12
3 0 16 14
3 46 17 47
3 1 20 18
3 1 22 20
3 1 24 22
3 2 48 50
3 48 49 50
3 2 51 52
3 53 25 54
3 4 55 57
3 55 26 56
3 55 56 57
3 4 27 26
3 58 30 59
3 60 59 28
3 58 59 60
3 61 31 62
3 64 63 31
3 3 65 66
3 6 67 69
3 69 68 13
3 67 68 69
3 6 70 72
3 70 71 72
3 6 73 74
3 7 32 15
3 7 33 32
3 8 75 77
3 75 34 76
3 75 76 77
3 8 35 34
3 5 36 29
3 9 37 19
3 9 38 37
3 9 39 38
3 10 40 21
3 10 41 40
3 10 42 41
3 78 43 79
3 80 79 23
3 78 79 80
3 82 81 43
3 11 83 84
3 11 85 87
3 85 2 86
3 85 86 87
3 88 4 89
3 12 13 3
3 14 13 12
3 14 6 13
3 14 15 6
3 16 15 14
3 16 7 15
3 17 90 91
3 17 92 94
3 92 8 93
3 92 93 94
3 18 19 5
3 20 19 18
3 20 9 19
3 20 21 9
3 22 21 20
3 22 10 21
3 22 23 10
3 24 23 22
3 24 95 97
3 97 96 23
3 95 96 97
3 25 98 99
3 25 100 102
3 100 3 101
3 100 101 102
3 103 25 104
3 26 105 107
3 105 25 106
3 105 106 107
3 26 3 25
3 26 12 3
3 27 12 26
3 27 0 12
3 28 108 110
3 108 29 109
3 108 109 110
3 30 29 28
3 30 5 29
3 111 30 112
3 31 113 115
3 113 30 114
3 113 114 115
3 31 5 30
3 31 18 5
3 116 18 117
3 118 117 31
3 116 117 118
3 119 1 120
3 121 120 18
3 119 120 121
3 123 122 1
3 124 28 125
3 126 28 127
3 129 128 28
3 13 130 132
3 132 131 3
3 130 131 132
3 134 133 13
3 15 135 137
3 137 136 6
3 135 136 137
3 32 138 140
3 140 139 15
3 138 139 140
3 32 141 142
3 32 143 144
3 33 145 147
3 147 146 32
3 145 146 147
3 33 148 149
3 150 4 151
3 34 152 153
3 34 154 156
3 154 4 155
3 154 155 156
3 34 27 4
3 35 27 34
3 35 0 27
3 29 157 159
3 157 17 158
3 157 158 159
3 36 17 29
3 36 8 17
3 19 36 5
3 37 36 19
3 37 8 36
3 37 35 8
3 38 35 37
3 38 0 35
3 38 16 0
3 39 16 38
3 39 7 16
3 21 39 9
3 40 39 21
3 40 7 39
3 40 33 7
3 41 33 40
3 41 160 162
3 162 161 33
3 160 161 162
3 41 163 165
3 163 11 164
3 163 164 165
3 42 11 41
3 42 2 11
3 23 42 10
3 43 42 23
3 43 2 42
3 43 166 168
3 168 167 2
3 166 167 168
3 170 169 43
3 171 24 172
3 173 172 1
3 171 172 173
3 174 24 175
3 177 176 24
