ply
format ascii 1.0
element vertex 117
property float x
property float y
property float z
element face 98
property list uchar int vertex_index
end_header
-48.552551 -19.99122 -48.145432
-49.697868 -34.712936 -41.538445
-47.688335 -27.493074 -43.838459
-44.770164 -20.881886 -46.095596
-44.483948 -13.864915 -50.607262
-50.246964 -23.428169 -46.812263
-49.691849 -27.205971 -44.705845
-48.288452 -23.68681 -45.946701
-46.3451 -24.069004 -44.972786
-46.642258 -20.35981 -47.164421
-43.9613 -10.547112 -52.778183
-50.849144 -30.83778 -43.444073
-48.801743 -31.06735 -42.697952
-45.713089 -27.899298 -42.932152
-44.452431 -24.594147 -43.981968
-42.964691 -21.574583 -45.025536
-48.500641 -16.407707 -50.32975
-46.315353 -13.32501 -51.628304
-46.6203 -16.78072 -49.422516
-44.769661 -17.304596 -48.337414
-42.973614 -18.013918 -47.180149
-51.266138 -28.927692 -44.443049
-51.852631 -30.763442 -43.740433
-47.222054 -29.445813 -42.862905
-47.778757 -31.232951 -42.292652
-48.245039 -29.280212 -43.268206
-46.700712 -27.696186 -43.385306
-46.234431 -29.648925 -42.409752
-47.222054 -29.445813 -42.862905
-48.336644 -14.665768 -51.352325
-49.441479 -16.272424 -50.637031
-49.277482 -14.530486 -51.659607
-41.975937 -16.772263 -47.679907
-42.836433 -16.301969 -48.302549
-42.113401 -18.468046 -46.604506
-41.975937 -16.772263 -47.679907
-50.047831 -36.540768 -40.936991
-51.083922 -36.440939 -41.24171
-50.733959 -34.613107 -41.843165
-49.969406 -25.31707 -45.759054
-50.68749 -27.111788 -45.073935
-50.965048 -25.222887 -46.127144
-42.72801 -9.332135 -53.251781
-43.610529 -8.933622 -53.748466
-42.377239 -7.718645 -54.222065
-43.074585 -10.922838 -52.213741
-42.72801 -9.332135 -53.251781
-43.335909 -12.58174 -51.128281
-44.222624 -12.206014 -51.692723
-43.074585 -10.922838 -52.213741
-43.5916 -14.227467 -50.016106
-43.335909 -12.58174 -51.128281
-48.983265 -36.679108 -40.65062
-48.648574 -34.858696 -41.188488
-51.309597 -32.675529 -42.795979
-51.852631 -30.763442 -43.740433
-50.273506 -32.775358 -42.491259
-50.733959 -34.613107 -41.843165
-51.309597 -32.675529 -42.795979
-50.270497 -29.021876 -44.074959
-51.266138 -28.927692 -44.443049
-50.68749 -27.111788 -45.073935
-48.200512 -33.035903 -41.768242
-48.648574 -34.858696 -41.188488
-49.249806 -32.890143 -42.118199
-48.200512 -33.035903 -41.768242
-47.778757 -31.232951 -42.292652
-45.234327 -29.865422 -42.005177
-46.234431 -29.648925 -42.409752
-44.75917 -28.161441 -42.491831
-44.280409 -30.127564 -41.564856
-45.234327 -29.865422 -42.005177
-44.128842 -26.508865 -43.016739
-44.75917 -28.161441 -42.491831
-45.08276 -26.246723 -43.45706
-43.547298 -24.926385 -43.508095
-44.128842 -26.508865 -43.016739
-42.803429 -23.416603 -44.029879
-43.547298 -24.926385 -43.508095
-43.708561 -23.084365 -44.503752
-42.107492 -22.002713 -44.516075
-42.803429 -23.416603 -44.029879
-51.215165 -23.342058 -47.136297
-50.965048 -25.222887 -46.127144
-50.357895 -21.583806 -47.870666
-51.215165 -23.342058 -47.136297
-49.510689 -19.865331 -48.537251
-49.399757 -21.709694 -47.478848
-50.357895 -21.583806 -47.870666
-49.484734 -18.073575 -49.62941
-49.441479 -16.272424 -50.637031
-48.526596 -18.199464 -49.237591
-49.510689 -19.865331 -48.537251
-49.484734 -18.073575 -49.62941
-44.870037 -10.258409 -53.214119
-43.610529 -8.933622 -53.748466
-46.047064 -11.647358 -52.639179
-44.870037 -10.258409 -53.214119
-45.138327 -11.936061 -52.203243
-47.244 -13.12442 -52.001603
-46.047064 -11.647358 -52.639179
-47.407997 -14.866359 -50.979027
-48.336644 -14.665768 -51.352325
-47.244 -13.12442 -52.001603
-43.734457 -15.947308 -48.881182
-44.626804 -15.584755 -49.472338
-43.5916 -14.227467 -50.016106
-43.871637 -17.659257 -47.758781
-43.734457 -15.947308 -48.881182
-42.836433 -16.301969 -48.302549
-42.10894 -20.248379 -45.527199
-42.969152 -19.794251 -46.102843
-42.113401 -18.468046 -46.604506
-42.107492 -22.002713 -44.516075
-42.10894 -20.248379 -45.527199
-50.047831 -36.540768 -40.936991
-48.983265 -36.679108 -40.65062
3 0 7 5
3 0 9 7
3 21 11 22
3 2 12 6
3 2 23 25
3 25 24 12
3 23 24 25
3 2 26 28
3 26 13 27
3 26 27 28
3 3 14 8
3 3 15 14
3 29 16 30
3 29 30 31
3 4 17 10
3 4 18 17
3 4 19 18
3 32 20 33
3 35 34 20
3 1 36 38
3 36 37 38
3 5 39 41
3 39 6 40
3 39 40 41
3 7 6 5
3 7 2 6
3 7 8 2
3 9 8 7
3 9 3 8
3 42 10 43
3 42 43 44
3 45 10 46
3 47 4 48
3 49 48 10
3 47 48 49
3 51 50 4
3 53 52 1
3 11 54 55
3 11 56 58
3 56 1 57
3 56 57 58
3 6 59 61
3 59 11 60
3 59 60 61
3 12 11 6
3 12 1 11
3 12 62 64
3 64 63 1
3 62 63 64
3 66 65 12
3 13 67 68
3 13 69 71
3 69 70 71
3 8 13 2
3 14 13 8
3 14 72 74
3 74 73 13
3 72 73 74
3 14 75 76
3 15 77 79
3 79 78 14
3 77 78 79
3 15 80 81
3 82 5 83
3 84 5 85
3 86 0 87
3 88 87 5
3 86 87 88
3 16 89 90
3 16 91 93
3 91 0 92
3 91 92 93
3 10 94 95
3 17 96 98
3 98 97 10
3 96 97 98
3 17 99 100
3 17 101 103
3 101 16 102
3 101 102 103
3 18 16 17
3 18 0 16
3 18 9 0
3 19 9 18
3 19 3 9
3 104 19 105
3 106 105 4
3 104 105 106
3 20 107 109
3 107 19 108
3 107 108 109
3 20 3 19
3 20 15 3
3 110 15 111
3 112 111 20
3 110 111 112
3 114 113 15
3 116 115 1
