ply
format ascii 1.0
element vertex 290
property float x
property float y
property float z
element face 245
property list uchar int vertex_index
end_header
39.37521 -9.229338 10.868705
39.837685 3.617794 -7.63932
39.291565 -8.137798 3.237873
40.294441 -2.235928 -5.890385
42.647972 -16.794044 16.657242
39.007126 -8.723466 7.312295
41.981277 2.739061 -13.180706
40.637611 -9.684425 13.634786
40.618076 -16.329836 14.45454
39.057888 -1.493828 -1.25633
39.918991 -7.438541 -0.967287
38.499386 -1.253809 3.045521
40.911655 -2.236435 12.432501
40.458908 -4.73409 -5.098663
39.09166 -8.98491 9.173973
39.324909 -12.011314 7.404475
39.302402 -12.333635 9.3453
40.517616 6.023624 -11.374712
40.822994 3.043713 -10.391378
41.639629 -9.9043 14.660304
40.564079 -13.118967 14.101423
41.499638 -13.340754 15.236257
38.710777 -1.318478 0.928539
42.061897 -2.519575 13.205323
39.581272 -7.80614 1.11879
40.08828 0.595949 -6.744665
41.07365 0.139156 -9.403404
41.262978 -2.610895 -8.400562
42.699837 -13.545408 16.11985
44.075512 -16.963053 17.391092
39.086857 -8.442027 5.319667
39.509041 -11.644907 5.344604
41.634109 5.57263 -14.215467
39.884815 -9.460874 12.36461
39.481663 -12.620571 11.13028
39.89489 -12.880161 12.725495
40.028709 -16.045881 12.994076
41.491016 -16.580536 15.679523
39.841488 -4.511615 -3.026295
40.271172 -7.024467 -2.909723
39.427025 -4.537348 -0.990417
39.104042 -4.643161 1.105501
38.868301 -4.788852 3.201833
38.429092 -1.279158 5.061444
38.741646 -4.962764 5.238165
38.754917 -5.157948 7.165195
38.940247 -5.367955 8.942896
39.325935 -5.587573 10.537855
39.932995 -5.814058 11.921797
40.772903 -6.047418 13.072029
41.846542 -6.289396 13.974037
39.313812 1.165739 -4.184519
39.568886 -1.810074 -3.514181
40.93305 -5.941769 -5.684217
40.524193 -5.656923 -4.776455
40.33034 3.330754 -9.015349
40.184275 4.890441 -9.480431
39.69162 5.177481 -8.104401
42.192669 -11.731566 15.335229
41.569633 -11.622527 14.94828
42.262664 -10.013338 15.047252
39.736084 -9.437861 2.137932
39.880938 -9.272032 1.078391
39.436419 -7.971969 2.178332
44.911986 -17.021222 17.646469
44.952354 -15.423185 17.281362
44.130694 -18.494065 17.625892
44.911986 -17.021222 17.646469
39.692558 -13.259044 6.376238
39.545175 -13.489905 7.43372
42.632753 2.780984 -14.57505
42.459169 4.197769 -15.09243
41.807693 4.155845 -13.698087
41.667725 0.044569 -10.75818
41.77154 -1.29647 -10.200195
40.485533 -17.636347 13.806883
40.190849 -17.49437 13.076652
40.323392 -16.187859 13.724308
38.474624 -1.328831 5.999436
38.34888 0.634651 5.832897
38.630902 -3.170634 6.087797
38.585369 -3.120961 5.149805
38.474624 -1.328831 5.999436
38.637537 -3.268226 7.051312
38.748282 -5.060356 6.20168
38.630902 -3.170634 6.087797
39.109734 -3.55362 9.539503
38.86838 -3.452282 8.790778
39.302578 -3.663429 10.336983
39.133091 -5.477764 9.740375
39.109734 -3.55362 9.539503
40.447086 -2.105753 11.919474
40.960847 -0.261141 12.084094
40.422325 -4.025246 12.177149
39.957756 -3.894564 11.664122
40.447086 -2.105753 11.919474
42.63271 -4.556151 13.85086
41.95422 -4.404485 13.58968
42.740387 -2.67124 13.466503
42.495494 -6.415432 14.299646
42.63271 -4.556151 13.85086
38.873335 3.104826 -3.298106
39.176518 2.746549 -4.575699
39.313387 -1.651951 -2.385255
39.156239 -0.052099 -2.631856
38.90074 0.106024 -1.50293
40.436985 -8.453202 -2.042093
40.613076 -8.246164 -3.013311
40.095081 -7.231504 -1.938505
39.557631 -13.996239 10.298136
39.59543 -14.174386 11.22569
40.919964 -4.914953 -6.233869
40.83773 -3.665872 -6.62973
40.376675 -3.485009 -5.494524
40.919964 -4.914953 -6.233869
40.93305 -5.941769 -5.684217
39.533922 -13.651065 8.404133
39.545175 -13.489905 7.43372
39.313655 -12.172474 8.374887
40.031585 6.380396 -9.972098
39.866745 7.953735 -10.456346
40.670305 4.533669 -10.883045
40.031585 6.380396 -9.972098
40.184275 4.890441 -9.480431
42.162329 -18.20228 16.316952
42.718155 -18.324241 16.846521
38.535769 0.404769 0.742536
38.884332 -1.406153 -0.163895
38.709324 0.317094 -0.349898
38.431198 0.543096 1.829785
38.535769 0.404769 0.742536
38.325502 0.575431 2.888276
38.605081 -1.286144 1.98703
38.431198 0.543096 1.829785
41.575878 -0.42984 12.408335
40.960847 -0.261141 12.084094
42.150999 -0.57141 12.794746
41.486776 -2.378005 12.818912
41.575878 -0.42984 12.408335
42.862135 -0.755245 12.993296
42.150999 -0.57141 12.794746
42.740387 -2.67124 13.466503
42.862135 -0.755245 12.993296
38.709324 0.317094 -0.349898
38.90074 0.106024 -1.50293
40.07902 -8.985364 0.010139
40.247879 -8.801564 -1.032899
39.750131 -7.62234 0.075751
40.07902 -8.985364 0.010139
39.880938 -9.272032 1.078391
41.866203 -2.671495 -9.698774
41.77154 -1.29647 -10.200195
41.168314 -1.23587 -8.901983
41.321999 -3.853356 -7.884819
40.778709 -2.423412 -7.145474
40.83773 -3.665872 -6.62973
41.927712 -3.918967 -9.106299
41.321999 -3.853356 -7.884819
41.866203 -2.671495 -9.698774
41.927712 -3.918967 -9.106299
43.53015 -11.941065 16.042417
42.792769 -11.833893 15.777026
43.425388 -13.637048 16.438657
43.53015 -11.941065 16.042417
43.399456 -15.261366 16.707352
42.673905 -15.169726 16.388546
43.425388 -13.637048 16.438657
44.113226 -15.345871 17.074278
44.952354 -15.423185 17.281362
43.361742 -16.878549 17.024167
43.399456 -15.261366 16.707352
44.113226 -15.345871 17.074278
43.431925 -18.408745 17.213445
42.718155 -18.324241 16.846521
43.361742 -16.878549 17.024167
43.431925 -18.408745 17.213445
44.130694 -18.494065 17.625892
39.448301 -9.833357 4.26302
39.550655 -9.681242 3.222123
39.189211 -8.289912 4.27877
39.659394 -11.434797 4.275489
39.448301 -9.833357 4.26302
39.297949 -10.043467 5.332135
39.988726 -12.809061 4.251819
39.659394 -11.434797 4.275489
39.784624 -13.075841 5.346303
39.416975 -11.828111 6.37454
39.692558 -13.259044 6.376238
39.988726 -12.809061 4.251819
39.784624 -13.075841 5.346303
40.338814 7.520131 -11.869174
39.866745 7.953735 -10.456346
40.89706 7.294634 -13.289551
40.338814 7.520131 -11.869174
41.075862 5.798127 -12.795089
41.427162 6.985971 -14.722668
40.89706 7.294634 -13.289551
42.248594 5.534077 -15.639479
41.427162 6.985971 -14.722668
42.248594 5.534077 -15.639479
42.459169 4.197769 -15.09243
41.542397 1.496847 -11.252167
40.948322 1.591434 -9.897391
41.667725 0.044569 -10.75818
42.121538 1.344521 -12.646832
41.402135 2.891387 -11.786042
41.542397 1.496847 -11.252167
42.804333 1.450085 -14.001918
42.121538 1.344521 -12.646832
42.632753 2.780984 -14.57505
42.804333 1.450085 -14.001918
39.802044 -14.304181 12.023297
39.59543 -14.174386 11.22569
39.688277 -12.750366 11.927888
39.868954 -15.887041 12.157588
39.802044 -14.304181 12.023297
39.961799 -14.463021 12.859786
40.076237 -17.289489 12.214645
39.868954 -15.887041 12.157588
40.076237 -17.289489 12.214645
40.190849 -17.49437 13.076652
42.099738 -13.443081 15.678054
42.192669 -11.731566 15.335229
42.792769 -11.833893 15.777026
41.58385 -18.095526 15.828093
42.069494 -16.68729 16.168382
42.162329 -18.20228 16.316952
41.178167 -17.942102 15.180013
41.58385 -18.095526 15.828093
40.741697 -17.816752 14.567521
41.054546 -16.455186 15.067031
41.178167 -17.942102 15.180013
40.485533 -17.636347 13.806883
40.741697 -17.816752 14.567521
40.05633 -5.768041 -2.968009
40.430325 -6.802111 -3.681985
40.215483 -5.545685 -3.740271
38.30805 0.643079 3.900899
38.325502 0.575431 2.888276
38.272903 0.630404 4.908861
38.34888 0.634651 5.832897
38.464239 -1.266484 4.053482
38.30805 0.643079 3.900899
38.272903 0.630404 4.908861
38.775715 -3.347279 7.901927
38.637537 -3.268226 7.051312
38.847582 -5.262951 8.054045
38.775715 -3.347279 7.901927
38.86838 -3.452282 8.790778
39.654226 -3.781322 10.972151
39.302578 -3.663429 10.336983
39.629465 -5.700816 11.229826
39.654226 -3.781322 10.972151
39.957756 -3.894564 11.664122
42.392038 -8.222884 14.642779
41.743085 -8.096848 14.31717
42.495494 -6.415432 14.299646
42.262664 -10.013338 15.047252
42.392038 -8.222884 14.642779
39.287764 5.604197 -6.73692
39.69162 5.177481 -8.104401
39.438454 3.972576 -6.3031
39.287764 5.604197 -6.73692
39.563751 2.461654 -5.855772
39.962982 2.106872 -7.191992
39.438454 3.972576 -6.3031
39.701046 0.880844 -5.464592
39.563751 2.461654 -5.855772
39.176518 2.746549 -4.575699
39.028701 1.435807 -2.967025
38.873335 3.104826 -3.298106
39.441349 -0.322167 -3.84935
39.028701 1.435807 -2.967025
39.156239 -0.052099 -2.631856
40.215483 -5.545685 -3.740271
40.524193 -5.656923 -4.776455
40.150198 -4.622853 -4.062479
40.767546 -7.793696 -3.899705
40.430325 -6.802111 -3.681985
40.767546 -7.793696 -3.899705
40.613076 -8.246164 -3.013311
40.436985 -8.453202 -2.042093
40.247879 -8.801564 -1.032899
39.736084 -9.437861 2.137932
39.550655 -9.681242 3.222123
39.468 -13.852771 9.405646
39.392032 -12.477103 10.23779
39.557631 -13.996239 10.298136
39.533922 -13.651065 8.404133
39.468 -13.852771 9.405646
3 54 53 13
3 0 16 14
3 1 55 57
3 55 18 56
3 55 56 57
3 58 21 59
3 60 59 19
3 58 59 60
3 2 61 63
3 63 62 24
3 61 62 63
3 3 27 25
3 64 29 65
3 67 66 29
3 5 31 30
3 69 68 15
3 6 32 17
3 6 70 72
3 72 71 32
3 70 71 72
3 74 73 26
3 7 35 33
3 8 36 20
3 8 75 77
3 77 76 36
3 75 76 77
3 4 37 28
3 9 40 38
3 11 41 22
3 11 42 41
3 78 43 79
3 80 44 81
3 82 81 43
3 80 81 82
3 83 45 84
3 85 84 44
3 83 84 85
3 86 46 87
3 88 47 89
3 90 89 46
3 88 89 90
3 12 91 92
3 12 93 95
3 93 48 94
3 93 94 95
3 12 49 48
3 96 50 97
3 98 97 23
3 96 97 98
3 100 99 50
3 101 51 102
3 9 103 105
3 103 52 104
3 103 104 105
3 9 38 52
3 10 106 108
3 108 107 39
3 106 107 108
3 110 109 34
3 13 111 113
3 113 112 3
3 111 112 113
3 115 114 13
3 14 15 5
3 16 15 14
3 16 116 118
3 118 117 15
3 116 117 118
3 119 17 120
3 18 121 123
3 121 17 122
3 121 122 123
3 18 6 17
3 19 20 7
3 21 20 19
3 21 8 20
3 125 124 4
3 126 22 127
3 128 127 9
3 126 127 128
3 129 22 130
3 131 11 132
3 133 132 22
3 131 132 133
3 134 12 135
3 136 23 137
3 138 137 12
3 136 137 138
3 139 23 140
3 142 141 23
3 143 9 144
3 24 145 147
3 147 146 10
3 145 146 147
3 149 148 24
3 25 26 1
3 27 26 25
3 27 150 152
3 152 151 26
3 150 151 152
3 153 27 154
3 155 154 3
3 153 154 155
3 156 27 157
3 159 158 27
3 160 28 161
3 162 28 163
3 164 4 165
3 166 165 28
3 164 165 166
3 29 167 168
3 29 169 171
3 169 4 170
3 169 170 171
3 29 172 174
3 174 173 4
3 172 173 174
3 176 175 29
3 30 177 179
3 179 178 2
3 177 178 179
3 31 180 182
3 182 181 30
3 180 181 182
3 31 183 184
3 15 31 5
3 185 31 186
3 187 186 15
3 185 186 187
3 189 188 31
3 17 190 191
3 32 192 194
3 194 193 17
3 192 193 194
3 32 195 196
3 32 197 198
3 200 199 32
3 26 18 1
3 201 18 202
3 203 202 26
3 201 202 203
3 204 6 205
3 206 205 18
3 204 205 206
3 207 6 208
3 210 209 6
3 33 34 0
3 35 34 33
3 35 211 213
3 213 212 34
3 211 212 213
3 20 35 7
3 36 35 20
3 36 214 216
3 216 215 35
3 214 215 216
3 36 217 218
3 220 219 36
3 28 221 223
3 221 21 222
3 221 222 223
3 37 21 28
3 37 8 21
3 224 37 225
3 226 225 4
3 224 225 226
3 227 37 228
3 229 8 230
3 231 230 37
3 229 230 231
3 233 232 8
3 38 234 236
3 234 39 235
3 234 235 236
3 40 39 38
3 40 10 39
3 22 40 9
3 41 40 22
3 41 10 40
3 41 24 10
3 42 24 41
3 42 2 24
3 237 11 238
3 43 239 240
3 43 241 243
3 241 11 242
3 241 242 243
3 43 42 11
3 44 42 43
3 44 2 42
3 44 30 2
3 45 30 44
3 45 5 30
3 244 45 245
3 46 246 248
3 246 45 247
3 246 247 248
3 46 5 45
3 46 14 5
3 47 14 46
3 47 0 14
3 249 47 250
3 48 251 253
3 251 47 252
3 251 252 253
3 48 0 47
3 48 33 0
3 49 33 48
3 49 7 33
3 23 49 12
3 50 49 23
3 50 7 49
3 50 19 7
3 254 19 255
3 256 255 50
3 254 255 256
3 258 257 19
3 259 1 260
3 261 1 262
3 263 25 264
3 265 264 1
3 263 264 265
3 51 266 268
3 266 25 267
3 266 267 268
3 51 3 25
3 269 51 270
3 52 271 273
3 271 51 272
3 271 272 273
3 52 3 51
3 52 13 3
3 38 13 52
3 38 274 276
3 276 275 13
3 274 275 276
3 39 277 278
3 280 279 39
3 282 281 10
3 284 283 2
3 34 16 0
3 285 16 286
3 287 286 34
3 285 286 287
3 289 288 16
