ply
format ascii 1.0
element vertex 323
property float x
property float y
property float z
element face 302
property list uchar int vertex_index
end_header
61.373314 10.775881 10.800816
64.360313 9.00452 17.35527
43.844425 4.926525 11.826288
50.940903 2.91194 11.220535
57.57933 13.828037 7.335328
65.115601 0.107254 13.160477
43.99543 12.89282 10.015154
47.583496 11.578362 9.707941
51.310772 10.171793 8.971285
59.661469 12.151119 8.559456
58.034004 7.389765 8.507599
60.879627 6.290035 9.590255
61.872444 0.428236 11.619246
63.466705 5.534107 11.566449
65.39563 8.091986 21.129536
67.432335 4.561174 17.356499
62.939209 9.775532 13.828311
41.042648 5.765482 10.999386
54.875549 15.630539 7.116493
54.850883 8.73764 8.390144
54.695423 1.886515 10.739973
65.740944 5.045973 14.214615
49.4524 10.882769 9.358572
51.424423 13.811142 8.156948
60.232849 13.376389 10.816487
59.665089 14.199757 9.562768
60.545948 11.417034 9.563999
60.289871 9.217936 8.918695
61.405067 8.648443 9.881994
62.203789 5.869175 10.480048
62.465233 8.173056 11.061829
43.953304 8.898647 10.897243
42.392361 9.415472 10.695009
42.353149 5.367002 11.539721
49.069649 3.438725 11.521382
56.314667 14.724247 7.114382
54.873562 12.188038 7.599166
56.41106 11.382809 7.559142
58.216763 4.191509 9.552036
56.534737 4.718222 9.403024
63.541656 0.239943 12.303944
63.67823 9.38019 15.545873
64.426186 7.46339 13.929968
65.289848 7.17293 15.55494
68.57338 2.117586 17.661283
67.844246 2.348436 16.109514
68.777298 -0.214008 16.723917
45.749035 12.251793 9.947502
45.650436 8.34219 10.875944
45.485111 4.453873 11.887527
47.44352 7.757051 10.678284
49.290661 7.150736 10.364773
51.152042 6.530769 10.006739
58.684982 12.962315 7.81319
57.815964 10.604387 7.750852
59.101498 9.875347 8.202601
59.49316 6.799688 8.926099
59.841038 3.734936 9.923486
61.409821 3.359318 10.513569
62.919273 3.065536 11.305058
64.35363 2.84343 12.276407
64.947868 8.594946 19.226376
66.02784 6.86669 17.272696
66.594551 6.490744 19.060019
67.942497 4.204273 19.071173
69.008934 1.786709 19.332405
62.16806 10.232065 12.234786
53.205112 13.001572 7.820581
53.119698 9.452902 8.623346
52.994072 5.907806 9.680573
56.489471 8.042934 8.336325
54.792694 5.297176 9.459251
52.823421 2.388758 10.937243
63.4758 7.785063 12.422529
64.655289 5.269108 12.819647
65.68277 2.671635 13.409039
66.682617 4.825512 15.732211
66.863495 2.519239 14.689602
66.549538 0.007355 14.183084
51.467854 15.619148 7.863198
50.49503 14.210542 8.345289
43.042263 3.15164 12.105228
42.296625 3.371879 11.961945
43.098787 5.146764 11.683004
43.753399 2.967805 12.303778
42.951237 1.19292 12.582719
43.042263 3.15164 12.105228
49.86729 1.342081 11.996582
48.931663 1.605474 12.147005
50.005276 3.175332 11.370959
50.812664 1.125852 11.882849
49.86729 1.342081 11.996582
57.464388 15.441824 7.303252
57.926097 14.946006 7.558408
56.946998 14.276142 7.224855
56.832056 15.889929 7.192779
57.464388 15.441824 7.303252
57.380036 2.807974 10.117869
58.288214 2.605896 10.178038
64.592243 -1.241645 13.29703
63.805271 -1.175301 12.868763
64.328629 0.173598 12.732211
65.432392 -1.271081 13.678856
64.592243 -1.241645 13.29703
69.121242 -0.308049 17.481656
68.675339 0.951789 17.1926
69.019284 0.857748 17.950339
69.133057 -1.506487 17.164912
69.121242 -0.308049 17.481656
46.666265 11.915077 9.827721
46.711384 13.822473 9.411416
47.628614 13.485758 9.291635
59.345061 13.627275 8.552473
59.346871 14.651594 9.054129
59.663279 13.175438 9.061112
59.173226 12.556717 8.186323
58.856817 14.032874 8.179339
59.345061 13.627275 8.552473
68.059646 3.957558 19.964061
67.443825 5.097837 19.982148
68.592865 2.748775 20.094677
68.475716 2.995491 19.201789
68.059646 3.957558 19.964061
69.068908 1.554258 20.218899
68.592865 2.748775 20.094677
43.181236 13.188551 9.937741
43.993599 14.883895 9.597504
41.023075 7.820527 10.617384
41.697931 9.645522 10.465196
41.717505 7.590477 10.847198
40.490158 5.936179 10.594637
41.023075 7.820527 10.617384
40.517181 3.889757 10.913185
40.490158 5.936179 10.594637
45.367593 2.534798 12.418761
46.362211 4.204815 11.827088
54.876457 17.340262 7.019979
55.548958 16.843222 7.056763
54.070892 16.082058 7.203078
54.876457 17.340262 7.019979
54.04033 14.316056 7.468537
53.235674 14.767575 7.555122
54.070892 16.082058 7.203078
53.655897 0.402539 11.527589
52.719896 0.653661 11.626224
53.759422 2.137637 10.838608
61.131342 -0.95233 12.022455
61.005748 0.557466 11.367728
67.326214 1.215211 15.030169
67.35387 2.433838 15.399558
67.816589 1.12981 15.740125
67.169235 -0.040731 14.77691
66.706516 1.263297 14.436343
67.326214 1.215211 15.030169
66.90097 -1.340089 14.662629
67.169235 -0.040731 14.77691
48.574566 13.094152 9.120786
47.628614 13.485758 9.291635
49.509018 12.746356 8.946101
48.517948 11.230566 9.533257
48.574566 13.094152 9.120786
50.438412 12.346955 8.75776
49.509018 12.746356 8.946101
50.49503 14.210542 8.345289
59.948969 13.788073 10.189628
59.383657 15.108614 10.34154
59.667538 14.69693 10.9684
66.170391 7.041694 21.011329
65.526153 7.765529 22.082551
41.681595 3.540578 11.637704
41.026344 3.739818 11.367537
41.697899 5.566242 11.269554
41.681595 3.540578 11.637704
42.296625 3.371879 11.961945
48.020634 1.819935 12.225271
48.15448 3.697241 11.644015
48.020634 1.819935 12.225271
48.931663 1.605474 12.147005
56.268517 16.390076 7.055708
56.832056 15.889929 7.192779
55.595108 15.177393 7.115438
55.548958 16.843222 7.056763
56.268517 16.390076 7.055708
56.539023 3.07133 10.043363
57.37575 4.454866 9.47753
57.380036 2.807974 10.117869
55.619366 1.655477 10.711838
55.61508 3.302369 10.071499
56.539023 3.07133 10.043363
54.631662 0.206176 11.443041
55.619366 1.655477 10.711838
62.90464 -1.125123 12.574085
62.070034 -1.030976 12.231737
62.70705 0.334089 11.961595
62.90464 -1.125123 12.574085
63.805271 -1.175301 12.868763
68.283116 -0.151412 16.047327
67.816589 1.12981 15.740125
68.310772 1.067214 16.416716
68.647476 -1.471477 16.500329
68.283116 -0.151412 16.047327
68.647476 -1.471477 16.500329
69.133057 -1.506487 17.164912
44.897167 14.522979 9.563369
43.993599 14.883895 9.597504
45.773969 14.202465 9.529543
46.711384 13.822473 9.411416
44.872232 12.572306 9.981328
44.897167 14.522979 9.563369
45.773969 14.202465 9.529543
47.341415 5.856404 11.222466
46.362211 4.204815 11.827088
46.464315 6.105462 11.282906
48.264986 5.553247 11.065711
47.341415 5.856404 11.222466
48.367091 7.453893 10.521528
49.180155 5.294731 10.943077
48.15448 3.697241 11.644015
48.264986 5.553247 11.065711
59.239258 15.612417 9.721711
59.383657 15.108614 10.34154
59.239258 15.612417 9.721711
59.346871 14.651594 9.054129
58.478924 14.513146 7.797339
58.856817 14.032874 8.179339
58.132156 13.395176 7.574259
57.926097 14.946006 7.558408
58.478924 14.513146 7.797339
59.100352 2.37761 10.363763
58.288214 2.605896 10.178038
59.0289 3.963222 9.737761
59.990045 2.210815 10.519848
59.100352 2.37761 10.363763
60.774437 2.023007 10.814889
59.990045 2.210815 10.519848
60.625429 3.547127 10.218528
61.641132 1.893777 11.066408
61.005748 0.557466 11.367728
60.774437 2.023007 10.814889
66.769851 6.241073 19.976571
65.995091 7.291365 20.094777
66.170391 7.041694 21.011329
67.268524 5.347508 19.065596
66.769851 6.241073 19.976571
67.443825 5.097837 19.982148
69.23706 0.69231 18.7859
69.019284 0.857748 17.950339
68.791157 1.952148 18.496844
69.41587 0.551376 19.618286
69.643997 -0.543024 19.071781
69.23706 0.69231 18.7859
69.41587 0.551376 19.618286
69.068908 1.554258 20.218899
59.79751 14.233746 11.691477
59.667538 14.69693 10.9684
60.504196 13.012642 11.547375
59.79751 14.233746 11.691477
61.074428 11.712388 11.53954
60.803082 12.076135 10.808651
60.504196 13.012642 11.547375
61.471801 11.44048 12.256525
61.770687 10.503973 11.517801
61.074428 11.712388 11.53954
61.745333 11.12615 13.074234
61.471801 11.44048 12.256525
62.130907 10.897883 13.870997
62.553635 10.003799 13.031548
61.745333 11.12615 13.074234
62.412377 10.626464 14.757533
62.130907 10.897883 13.870997
62.781887 10.428793 15.616314
63.308719 9.577861 14.687092
62.412377 10.626464 14.757533
63.067709 10.185042 16.553998
62.781887 10.428793 15.616314
63.408751 9.997207 17.458697
64.019272 9.192355 16.450572
63.067709 10.185042 16.553998
63.686775 9.757704 18.430186
63.408751 9.997207 17.458697
63.980553 9.552917 19.365739
64.65409 8.799733 18.290823
63.686775 9.757704 18.430186
64.231537 9.288315 20.353638
63.980553 9.552917 19.365739
64.455417 9.036835 21.305218
65.171749 8.343466 20.177956
64.231537 9.288315 20.353638
64.655086 8.715872 22.292147
64.455417 9.036835 21.305218
65.526153 7.765529 22.082551
64.655086 8.715872 22.292147
42.379702 11.449877 10.277669
43.181236 13.188551 9.937741
43.193895 11.154146 10.355082
42.379702 11.449877 10.277669
41.697931 9.645522 10.465196
40.517181 3.889757 10.913185
41.026344 3.739818 11.367537
44.573742 2.731479 12.334398
43.753399 2.967805 12.303778
44.664768 4.690199 11.856908
44.573742 2.731479 12.334398
45.367593 2.534798 12.418761
52.345329 15.17236 7.723306
51.467854 15.619148 7.863198
52.314768 13.406357 7.988765
52.345329 15.17236 7.723306
53.235674 14.767575 7.555122
51.753923 0.864261 11.741203
50.812664 1.125852 11.882849
51.882162 2.650349 11.078889
51.753923 0.864261 11.741203
52.719896 0.653661 11.626224
53.655897 0.402539 11.527589
54.631662 0.206176 11.443041
61.131342 -0.95233 12.022455
62.070034 -1.030976 12.231737
66.149361 -1.32103 14.190159
65.432392 -1.271081 13.678856
65.83257 0.057305 13.671781
66.149361 -1.32103 14.190159
66.90097 -1.340089 14.662629
3 79 23 80
3 0 26 24
3 0 28 26
3 0 30 28
3 2 33 31
3 2 81 83
3 83 82 33
3 81 82 83
3 2 84 86
3 84 85 86
3 3 87 89
3 89 88 34
3 87 88 89
3 3 90 91
3 4 92 93
3 4 94 96
3 94 35 95
3 94 95 96
3 4 37 35
3 98 97 38
3 5 99 101
3 101 100 40
3 99 100 101
3 5 102 103
3 1 43 41
3 104 46 105
3 106 105 44
3 104 105 106
3 108 107 46
3 7 109 111
3 109 47 110
3 109 110 111
3 7 48 47
3 7 50 48
3 8 51 22
3 8 52 51
3 9 112 114
3 114 113 25
3 112 113 114
3 9 115 117
3 115 53 116
3 115 116 117
3 9 55 53
3 11 56 27
3 11 57 56
3 11 58 57
3 13 59 29
3 13 60 59
3 14 63 61
3 118 64 119
3 120 65 121
3 122 121 64
3 120 121 122
3 124 123 65
3 6 125 126
3 17 127 129
3 129 128 32
3 127 128 129
3 17 130 131
3 17 132 133
3 135 134 49
3 18 136 137
3 18 138 139
3 18 140 142
3 140 67 141
3 140 141 142
3 19 68 36
3 19 69 68
3 10 70 54
3 20 71 39
3 20 72 71
3 20 143 145
3 145 144 72
3 143 144 145
3 12 146 147
3 16 73 66
3 21 74 42
3 21 75 74
3 15 76 62
3 148 77 149
3 150 149 45
3 148 149 150
3 151 78 152
3 153 152 77
3 151 152 153
3 155 154 78
3 156 7 157
3 158 22 159
3 160 159 7
3 158 159 160
3 23 161 163
3 161 22 162
3 161 162 163
3 23 8 22
3 24 164 166
3 164 25 165
3 164 165 166
3 26 25 24
3 26 9 25
3 26 27 9
3 28 27 26
3 28 11 27
3 28 29 11
3 30 29 28
3 30 13 29
3 168 167 14
3 31 32 6
3 33 32 31
3 33 17 32
3 33 169 171
3 171 170 17
3 169 170 171
3 173 172 33
3 34 174 175
3 177 176 34
3 35 178 179
3 35 180 182
3 180 18 181
3 180 181 182
3 35 36 18
3 37 36 35
3 37 19 36
3 38 39 10
3 183 39 184
3 185 184 38
3 183 184 185
3 186 20 187
3 188 187 39
3 186 187 188
3 190 189 20
3 40 191 193
3 193 192 12
3 191 192 193
3 195 194 40
3 41 42 16
3 43 42 41
3 43 21 42
3 44 45 15
3 46 45 44
3 46 196 198
3 198 197 45
3 196 197 198
3 46 199 200
3 202 201 46
3 203 6 204
3 47 205 206
3 47 207 209
3 207 6 208
3 207 208 209
3 47 31 6
3 48 31 47
3 48 2 31
3 48 49 2
3 50 49 48
3 50 210 212
3 212 211 49
3 210 211 212
3 22 50 7
3 51 50 22
3 51 213 215
3 215 214 50
3 213 214 215
3 51 216 218
3 216 34 217
3 216 217 218
3 52 34 51
3 52 3 34
3 25 219 220
3 222 221 25
3 53 223 224
3 53 225 227
3 225 4 226
3 225 226 227
3 53 54 4
3 55 54 53
3 55 10 54
3 27 55 9
3 56 55 27
3 56 10 55
3 56 38 10
3 57 38 56
3 57 228 230
3 230 229 38
3 228 229 230
3 57 231 232
3 58 233 235
3 235 234 57
3 233 234 235
3 58 236 238
3 236 12 237
3 236 237 238
3 29 58 11
3 59 58 29
3 59 12 58
3 59 40 12
3 60 40 59
3 60 5 40
3 61 62 1
3 63 62 61
3 63 15 62
3 239 63 240
3 241 240 14
3 239 240 241
3 64 242 244
3 242 63 243
3 242 243 244
3 64 15 63
3 64 44 15
3 65 44 64
3 65 245 247
3 247 246 44
3 245 246 247
3 65 248 250
3 248 249 250
3 252 251 65
3 253 24 254
3 255 24 256
3 257 0 258
3 259 258 24
3 257 258 259
3 260 66 261
3 262 261 0
3 260 261 262
3 263 66 264
3 265 16 266
3 267 266 66
3 265 266 267
3 268 16 269
3 270 41 271
3 272 271 16
3 270 271 272
3 273 41 274
3 275 1 276
3 277 276 41
3 275 276 277
3 278 1 279
3 280 61 281
3 282 281 1
3 280 281 282
3 283 61 284
3 285 14 286
3 287 286 61
3 285 286 287
3 288 14 289
3 291 290 14
3 32 292 294
3 294 293 6
3 292 293 294
3 296 295 32
3 298 297 17
3 49 299 301
3 301 300 2
3 299 300 301
3 303 302 49
3 304 23 305
3 67 306 308
3 306 23 307
3 306 307 308
3 67 8 23
3 36 67 18
3 68 67 36
3 68 8 67
3 68 52 8
3 69 52 68
3 69 3 52
3 54 37 4
3 70 37 54
3 70 19 37
3 39 70 10
3 71 70 39
3 71 19 70
3 71 69 19
3 72 69 71
3 72 3 69
3 72 309 311
3 311 310 3
3 309 310 311
3 313 312 72
3 315 314 20
3 317 316 12
3 66 30 0
3 73 30 66
3 73 13 30
3 42 73 16
3 74 73 42
3 74 13 73
3 74 60 13
3 75 60 74
3 75 5 60
3 62 43 1
3 76 43 62
3 76 21 43
3 45 76 15
3 77 76 45
3 77 21 76
3 77 75 21
3 78 75 77
3 78 5 75
3 78 318 320
3 320 319 5
3 318 319 320
3 322 321 78
