ply
format ascii 1.0
element vertex 344
property float x
property float y
property float z
element face 355
property list uchar int vertex_index
end_header
6.655773 38.4352 -33.075203
5.171001 26.621136 -30.179827
12.213037 23.880409 -29.976263
-3.30654 35.183372 -24.032366
6.982426 51.358734 -35.054306
1.679049 45.329498 -34.090981
-0.623058 30.795406 -29.865072
19.201355 22.955685 -31.11706
5.803764 33.672356 -31.806059
8.688526 25.002655 -29.800325
8.796366 31.982243 -31.630175
-2.560465 43.371758 -27.925692
-2.309774 32.997036 -27.667566
-1.617521 41.246269 -30.976141
0.207943 38.801868 -32.374084
6.518005 44.444134 -34.396523
9.027424 38.302338 -33.35778
3.940144 49.594948 -34.981316
4.307619 41.744358 -33.690582
-3.007002 24.313438 -24.119432
-1.179867 22.074032 -26.988348
1.463388 20.089172 -28.380007
1.934399 28.621113 -30.515451
2.826559 36.159054 -32.36145
11.956772 30.949566 -31.949911
15.703634 23.198959 -30.574759
6.233368 36.456371 -32.526421
7.29686 32.700203 -31.635664
7.534086 35.618519 -32.440895
-2.195841 47.287926 -29.646574
-2.187613 42.34906 -29.644011
-1.778677 46.225136 -31.198076
-1.13386 45.0373 -32.333244
4.99799 22.607006 -29.340994
10.456635 24.381584 -29.81143
10.628805 20.576302 -28.91482
14.334654 19.782803 -29.311563
6.664667 47.884926 -34.875374
7.945538 44.801136 -34.501457
8.280073 48.133125 -34.794266
5.365828 50.768097 -35.127563
5.240414 47.108398 -34.752869
-3.766729 31.001934 -22.0208
-3.694494 25.526493 -22.210989
-3.252947 29.825275 -24.085249
-1.572245 31.898277 -28.967123
-1.87068 27.569611 -27.344027
-0.910376 26.485435 -28.432474
0.032307 21.047626 -27.86989
0.267511 25.435139 -29.128588
1.663643 24.42902 -29.458555
0.550409 29.697701 -30.364332
0.848274 42.304291 -33.340302
1.440336 37.490082 -32.49984
2.117462 40.801373 -33.32283
3.489079 39.262829 -33.09684
2.972023 43.566246 -33.971123
10.569931 37.984512 -33.451691
10.402294 34.736195 -32.682198
12.028358 34.299438 -32.804504
17.240803 26.508259 -31.600164
15.459693 26.7374 -31.449488
17.450806 23.020195 -30.879213
17.876926 19.440636 -30.106688
19.591047 19.445946 -30.511503
5.441093 30.348251 -31.010496
6.917891 25.751896 -29.941626
7.075672 29.403954 -30.789343
8.715685 28.623184 -30.70503
10.36167 27.99696 -30.778658
-2.913393 39.319237 -26.027655
-2.871218 34.090191 -26.002825
-2.531061 38.281796 -27.88542
-1.988356 37.206242 -29.396574
-1.241529 36.087681 -30.508471
-0.268059 34.930893 -31.202185
-0.820126 40.060825 -31.884516
-0.25148 43.725578 -33.036842
0.50679 46.981033 -33.939865
8.732624 21.143394 -28.954485
6.528809 41.16338 -33.729805
7.677013 38.461861 -33.210693
7.762884 41.540043 -33.933533
9.229492 41.500618 -34.023712
0.384417 51.499557 -34.240616
1.477219 49.730164 -34.596352
2.665207 51.897682 -35.019661
2.709816 47.780502 -34.634789
4.01066 45.683868 -34.448151
5.306242 43.476582 -34.126823
5.592566 39.955971 -33.357826
-2.637571 28.682667 -25.879496
-2.183035 23.163105 -25.728605
3.254593 23.481022 -29.493666
3.491817 27.58696 -30.41308
0.927361 33.750301 -31.505449
2.312859 32.569187 -31.495176
3.837015 31.420506 -31.286291
4.30208 34.860321 -32.086075
4.886131 37.766064 -32.78933
8.901052 35.158146 -32.532127
10.341623 31.429508 -31.760435
12.026258 27.486858 -30.973623
13.650898 30.522949 -32.118233
13.722416 27.067181 -31.221453
13.959747 23.487309 -30.252279
16.125835 19.5541 -29.687994
20.946251 23.001575 -31.261377
-1.765726 48.611172 -31.162216
-1.987259 46.756531 -30.422325
-1.974308 49.142567 -30.386465
-1.508406 48.026413 -31.844521
-1.765726 48.611172 -31.162216
6.00619 24.222134 -29.651629
5.919684 22.215069 -29.232212
5.084496 24.614071 -29.76041
12.357045 22.001926 -29.507241
11.478844 22.252514 -29.424824
11.334836 24.130997 -29.893847
13.273846 21.831606 -29.643913
13.417853 19.953124 -29.174891
12.357045 22.001926 -29.507241
6.174127 51.063415 -35.090935
5.518404 52.582355 -35.151275
6.326703 52.877674 -35.114647
12.149695 35.935057 -33.116917
11.299145 36.141975 -33.128097
11.420482 37.777594 -33.44051
-0.365882 46.106289 -33.23114
-0.69267 44.381439 -32.685043
-0.807072 46.76215 -32.879341
0.013253 47.734016 -33.682651
0.127655 45.353305 -33.488354
-0.365882 46.106289 -33.23114
10.753256 18.598499 -28.520399
11.753433 18.40898 -28.564392
9.399717 43.121865 -34.225174
8.587515 43.150877 -34.262585
8.757739 44.772123 -34.464047
10.05703 41.355806 -33.995777
9.399717 43.121865 -34.225174
0.932126 52.744907 -34.514057
0.41749 53.673023 -34.224488
1.478527 51.860211 -34.691925
0.930818 50.614861 -34.418484
0.932126 52.744907 -34.514057
3.302676 50.746315 -35.000489
3.365482 52.672855 -35.117866
4.00295 51.521489 -35.098694
-3.216234 22.122494 -23.285017
-3.55998 22.729021 -22.330796
-3.350748 24.919965 -23.165211
-2.769532 21.521103 -24.156292
-3.216234 22.122494 -23.285017
-1.322326 19.846773 -26.298345
-1.82391 20.391309 -25.668474
-1.681451 22.618569 -26.358477
-0.686381 19.338282 -26.824312
-1.322326 19.846773 -26.298345
1.380537 17.883747 -27.860948
0.664996 18.362974 -27.60589
0.747847 20.568399 -28.124949
2.231984 17.469476 -28.032457
1.380537 17.883747 -27.860948
2.282031 19.648077 -28.474087
2.231984 17.469476 -28.032457
14.539256 30.343887 -32.159
13.712857 32.196676 -32.473514
18.178659 17.615763 -29.744999
19.031873 17.660351 -30.016859
21.807312 23.071112 -31.282531
20.916488 24.684143 -31.410089
-1.185997 47.432495 -32.412105
-1.456269 45.631218 -31.76566
-1.508406 48.026413 -31.844521
-0.807072 46.76215 -32.879341
-1.185997 47.432495 -32.412105
5.922097 20.158163 -28.850277
4.954426 20.508806 -28.93215
5.922097 20.158163 -28.850277
5.919684 22.215069 -29.232212
11.564929 20.349873 -28.976519
10.54272 22.478943 -29.363125
11.478844 22.252514 -29.424824
11.753433 18.40898 -28.564392
11.564929 20.349873 -28.976519
14.578496 17.879059 -28.892539
13.417853 19.953124 -29.174891
15.51344 17.80332 -29.095735
14.578496 17.879059 -28.892539
8.925007 46.438118 -34.610451
8.757739 44.772123 -34.464047
8.112806 46.46713 -34.647862
4.715792 52.108063 -35.171818
5.518404 52.582355 -35.151275
4.652986 50.181522 -35.05444
4.00295 51.521489 -35.098694
4.715792 52.108063 -35.171818
-3.730612 28.264213 -22.115895
-3.993029 26.164952 -21.135002
-4.029146 28.902672 -21.039907
16.350248 26.62283 -31.524826
15.443653 28.451113 -31.824628
16.334208 28.336542 -31.899966
19.888934 17.663006 -30.219267
19.031873 17.660351 -30.016859
18.733987 19.443291 -30.309095
7.885009 51.414936 -34.894188
7.228617 53.082954 -34.963848
7.228617 53.082954 -34.963848
6.326703 52.877674 -35.114647
17.260638 28.202082 -31.877745
16.334208 28.336542 -31.899966
18.14891 26.447531 -31.620174
17.260638 28.202082 -31.877745
19.129186 24.671244 -31.378622
18.221079 24.731972 -31.358612
18.14891 26.447531 -31.620174
6.879635 23.787514 -29.532528
6.00619 24.222134 -29.651629
6.044446 26.186516 -30.060727
7.787001 21.483263 -29.038957
6.879635 23.787514 -29.532528
7.825257 23.447645 -29.448055
8.792586 19.12714 -28.574501
7.787001 21.483263 -29.038957
9.805165 18.882046 -28.540231
9.680715 20.859848 -28.934652
10.753256 18.598499 -28.520399
8.792586 19.12714 -28.574501
9.805165 18.882046 -28.540231
-3.996269 31.609335 -20.881895
-4.029146 28.902672 -21.039907
-4.258686 29.510073 -19.901002
-3.717653 33.644077 -21.920649
-3.996269 31.609335 -20.881895
-3.487559 35.734797 -22.926432
-3.536634 33.092653 -23.026583
-3.717653 33.644077 -21.920649
-3.248118 37.75728 -23.961714
-3.487559 35.734797 -22.926432
-3.051544 39.825212 -24.959359
-3.109967 37.251305 -25.03001
-3.248118 37.75728 -23.961714
-2.849188 41.823395 -25.956482
-3.051544 39.825212 -24.959359
-2.672724 43.849655 -26.905501
-2.736929 41.345498 -26.976674
-2.849188 41.823395 -25.956482
-2.490607 45.804485 -27.828083
-2.672724 43.849655 -26.905501
-2.308295 47.762569 -28.688524
-2.378153 45.329842 -28.786133
-2.490607 45.804485 -27.828083
-2.117491 49.645684 -29.504818
-2.308295 47.762569 -28.688524
-1.974308 49.142567 -30.386465
-2.117491 49.645684 -29.504818
10.727249 39.597753 -33.709767
9.899712 39.742565 -33.737702
10.05703 41.355806 -33.995777
11.420482 37.777594 -33.44051
10.727249 39.597753 -33.709767
8.533832 49.802132 -34.764168
7.63125 49.74593 -34.924286
7.885009 51.414936 -34.894188
9.181462 48.064159 -34.638279
8.533832 49.802132 -34.764168
8.925007 46.438118 -34.610451
9.181462 48.064159 -34.638279
-0.062152 52.282246 -33.868172
0.41749 53.673023 -34.224488
-0.047933 49.993279 -33.833027
-0.062152 52.282246 -33.868172
0.445603 49.240295 -34.090241
0.013253 47.734016 -33.682651
-0.047933 49.993279 -33.833027
2.737542 53.89949 -35.048046
3.365482 52.672855 -35.117866
2.072522 52.94397 -34.903579
2.737542 53.89949 -35.048046
2.071213 50.813923 -34.808007
1.478527 51.860211 -34.691925
2.072522 52.94397 -34.903579
-3.939913 23.377386 -21.321095
-3.993029 26.164952 -21.135002
-3.939913 23.377386 -21.321095
-3.55998 22.729021 -22.330796
-2.357548 20.945936 -24.960878
-2.769532 21.521103 -24.156292
-2.595019 23.738272 -24.924019
-2.357548 20.945936 -24.960878
-1.82391 20.391309 -25.668474
-0.080294 18.825079 -27.265083
-0.686381 19.338282 -26.824312
-0.57378 21.560829 -27.429119
-0.080294 18.825079 -27.265083
0.664996 18.362974 -27.60589
2.382159 21.818001 -29.013361
2.282031 19.648077 -28.474087
1.563515 22.259096 -28.919281
3.177633 21.344002 -29.030917
2.382159 21.818001 -29.013361
2.459118 23.955021 -29.476111
4.082727 20.945814 -29.008486
3.177633 21.344002 -29.030917
4.126291 23.044014 -29.41733
4.954426 20.508806 -28.93215
4.082727 20.945814 -29.008486
12.901587 34.084921 -32.81665
12.149695 35.935057 -33.116917
12.839628 32.411194 -32.461368
12.901587 34.084921 -32.81665
13.712857 32.196676 -32.473514
14.555295 28.630175 -31.78386
14.539256 30.343887 -32.159
15.443653 28.451113 -31.824628
16.409031 17.688968 -29.283951
15.51344 17.80332 -29.095735
15.230244 19.668451 -29.499778
17.303113 17.672495 -29.535652
17.00138 19.497368 -29.897341
18.178659 17.615763 -29.744999
16.409031 17.688968 -29.283951
17.303113 17.672495 -29.535652
20.001635 24.694189 -31.450781
20.916488 24.684143 -31.410089
20.073803 22.97863 -31.189218
19.129186 24.671244 -31.378622
20.001635 24.694189 -31.450781
21.924391 21.398573 -31.200705
21.807312 23.071112 -31.282531
21.107081 21.284879 -31.062059
21.924391 21.398573 -31.200705
20.234634 21.261934 -30.9899
20.073803 22.97863 -31.189218
21.107081 21.284879 -31.062059
20.429479 19.507065 -30.687122
19.396201 21.200815 -30.814281
20.234634 21.261934 -30.9899
20.702914 17.768684 -30.487198
20.429479 19.507065 -30.687122
19.888934 17.663006 -30.219267
20.702914 17.768684 -30.487198
3 0 28 26
3 108 31 109
3 110 109 29
3 108 109 110
3 112 111 31
3 1 113 115
3 115 114 33
3 113 114 115
3 2 116 118
3 118 117 34
3 116 117 118
3 2 119 121
3 119 36 120
3 119 120 121
3 4 39 37
3 4 122 124
3 122 40 123
3 122 123 124
3 4 37 40
3 3 44 42
3 6 47 45
3 6 49 47
3 6 51 49
3 5 54 52
3 5 56 54
3 125 59 126
3 127 126 57
3 125 126 127
3 7 62 60
3 7 64 62
3 8 67 65
3 10 68 27
3 10 69 68
3 11 72 70
3 13 73 30
3 13 74 73
3 13 76 74
3 128 77 129
3 130 129 32
3 128 129 130
3 131 78 132
3 133 132 77
3 131 132 133
3 9 79 66
3 135 134 35
3 15 82 80
3 136 83 137
3 138 137 38
3 136 137 138
3 140 139 83
3 141 84 142
3 143 85 144
3 145 144 84
3 143 144 145
3 17 146 148
3 146 86 147
3 146 147 148
3 17 87 86
3 17 88 87
3 15 89 41
3 15 80 89
3 19 149 151
3 151 150 43
3 149 150 151
3 19 152 153
3 12 91 71
3 20 92 46
3 20 154 156
3 156 155 92
3 154 155 156
3 20 157 158
3 21 159 161
3 161 160 48
3 159 160 161
3 21 162 163
3 21 164 165
3 22 93 50
3 22 94 93
3 14 95 75
3 23 96 53
3 23 97 96
3 23 98 97
3 18 99 55
3 18 90 99
3 16 100 81
3 24 101 58
3 24 102 101
3 166 103 167
3 25 104 61
3 25 105 104
3 25 106 105
3 169 168 63
3 170 107 171
3 26 27 8
3 28 27 26
3 28 10 27
3 29 30 11
3 31 30 29
3 31 13 30
3 31 32 13
3 172 32 173
3 174 173 31
3 172 173 174
3 176 175 32
3 33 177 178
3 180 179 33
3 34 35 9
3 181 35 182
3 183 182 34
3 181 182 183
3 185 184 35
3 36 186 187
3 36 188 189
3 37 38 15
3 39 38 37
3 39 190 192
3 192 191 38
3 190 191 192
3 40 193 194
3 40 195 197
3 195 17 196
3 195 196 197
3 40 41 17
3 37 41 40
3 37 15 41
3 42 198 200
3 198 43 199
3 198 199 200
3 44 43 42
3 44 19 43
3 45 46 12
3 47 46 45
3 47 20 46
3 47 48 20
3 49 48 47
3 49 21 48
3 49 50 21
3 51 50 49
3 51 22 50
3 52 53 14
3 54 53 52
3 54 23 53
3 54 55 23
3 56 55 54
3 56 18 55
3 57 58 16
3 59 58 57
3 59 24 58
3 60 201 203
3 201 61 202
3 201 202 203
3 62 61 60
3 62 25 61
3 62 63 25
3 64 63 62
3 64 204 206
3 206 205 63
3 204 205 206
3 65 66 1
3 67 66 65
3 67 9 66
3 27 67 8
3 68 67 27
3 68 9 67
3 68 34 9
3 69 34 68
3 69 2 34
3 208 207 4
3 209 4 210
3 70 71 3
3 72 71 70
3 72 12 71
3 30 72 11
3 73 72 30
3 73 12 72
3 73 45 12
3 74 45 73
3 74 6 45
3 74 75 6
3 76 75 74
3 76 14 75
3 32 76 13
3 77 76 32
3 77 14 76
3 77 52 14
3 78 52 77
3 78 5 52
3 211 60 212
3 213 60 214
3 215 7 216
3 217 216 60
3 215 216 217
3 66 218 220
3 220 219 1
3 218 219 220
3 79 221 223
3 223 222 66
3 221 222 223
3 79 224 225
3 35 79 9
3 226 79 227
3 228 227 35
3 226 227 228
3 230 229 79
3 231 42 232
3 231 232 233
3 234 42 235
3 236 3 237
3 238 237 42
3 236 237 238
3 239 3 240
3 241 70 242
3 243 242 3
3 241 242 243
3 244 70 245
3 246 11 247
3 248 247 70
3 246 247 248
3 249 11 250
3 251 29 252
3 253 252 11
3 251 252 253
3 254 29 255
3 257 256 29
3 80 81 0
3 82 81 80
3 82 16 81
3 38 82 15
3 83 82 38
3 83 16 82
3 83 57 16
3 258 57 259
3 260 259 83
3 258 259 260
3 262 261 57
3 263 39 264
3 265 264 4
3 263 264 265
3 266 39 267
3 269 268 39
3 84 270 271
3 84 272 273
3 84 274 276
3 274 78 275
3 274 275 276
3 85 78 84
3 85 5 78
3 86 277 278
3 86 279 280
3 86 281 283
3 281 85 282
3 281 282 283
3 87 85 86
3 87 5 85
3 87 56 5
3 88 56 87
3 88 18 56
3 41 88 17
3 89 88 41
3 89 18 88
3 89 90 18
3 80 90 89
3 80 0 90
3 43 284 285
3 287 286 43
3 71 44 3
3 91 44 71
3 91 19 44
3 46 91 12
3 92 91 46
3 92 19 91
3 92 288 290
3 290 289 19
3 288 289 290
3 292 291 92
3 48 293 295
3 295 294 20
3 293 294 295
3 297 296 48
3 50 298 300
3 300 299 21
3 298 299 300
3 93 301 303
3 303 302 50
3 301 302 303
3 93 304 305
3 93 306 308
3 306 33 307
3 306 307 308
3 94 33 93
3 94 1 33
3 75 51 6
3 95 51 75
3 95 22 51
3 53 95 14
3 96 95 53
3 96 22 95
3 96 94 22
3 97 94 96
3 97 1 94
3 97 65 1
3 98 65 97
3 98 8 65
3 55 98 23
3 99 98 55
3 99 8 98
3 99 26 8
3 90 26 99
3 90 0 26
3 81 28 0
3 100 28 81
3 100 10 28
3 58 100 16
3 101 100 58
3 101 10 100
3 101 69 10
3 102 69 101
3 102 2 69
3 309 59 310
3 103 311 313
3 311 59 312
3 311 312 313
3 103 24 59
3 61 314 316
3 314 103 315
3 314 315 316
3 104 103 61
3 104 24 103
3 104 102 24
3 105 102 104
3 105 2 102
3 105 36 2
3 106 36 105
3 106 317 319
3 319 318 36
3 317 318 319
3 63 106 25
3 320 106 321
3 322 321 63
3 320 321 322
3 324 323 106
3 107 325 326
3 107 327 329
3 327 7 328
3 327 328 329
3 330 107 331
3 332 107 333
3 334 7 335
3 336 335 107
3 334 335 336
3 337 64 338
3 339 338 7
3 337 338 339
3 340 64 341
3 343 342 64
