ply
format ascii 1.0
element vertex 324
property float x
property float y
property float z
element face 285
property list uchar int vertex_index
end_header
-41.660862 10.799957 9.738235
-37.113029 15.812687 7.141715
-34.674217 20.235401 1.408885
-42.191345 19.181519 8.387702
-39.1507 13.304451 8.832346
-48.456524 13.629211 7.655419
-36.348984 17.669495 -15.128487
-35.859253 19.319298 -18.98877
-39.116478 4.292126 9.594889
-37.593884 6.445887 7.345142
-36.587303 8.59824 4.457108
-36.045307 10.649652 1.012584
-35.609276 18.171307 4.642209
-45.26125 16.334393 8.261321
-35.909824 12.545357 -2.853071
-36.07354 14.302223 -6.951347
-36.32341 15.989819 -11.089964
-36.181351 18.504318 -17.084316
-41.43692 6.512836 10.446233
-40.083454 3.243887 10.462561
-40.223137 7.643358 9.934931
-38.068508 14.567142 8.088476
-38.167961 9.963318 8.366894
-37.334507 11.127693 7.306958
-37.029278 7.528912 5.976725
-36.632206 12.273441 6.065618
-36.060909 13.383873 4.649148
-36.291351 17.02066 5.991165
-48.833637 17.232632 7.01281
-46.851566 14.963802 7.997645
-47.261375 18.66909 7.364175
-35.305168 15.443947 1.341872
-35.931526 11.617601 -0.878531
-35.111435 16.376347 -0.508573
-35.029755 18.040455 -4.46665
-36.205688 15.149727 -9.026024
-41.896904 15.037357 9.049876
-40.351402 12.0436 9.379045
-40.509941 16.392044 8.79937
-50.38715 15.830139 6.626767
-50.745182 19.209015 6.302751
-37.624866 13.973915 -15.931187
-37.516411 15.015736 -17.911957
-37.248257 16.040462 -19.835583
-39.131718 8.797026 9.242826
-38.28772 5.362732 8.553648
-37.851097 1.838797 7.292041
-37.438793 2.864256 5.773457
-37.141823 3.897736 4.126195
-36.947609 4.929348 2.362615
-36.845367 5.951271 0.496368
-36.261448 9.641565 2.797462
-35.619526 14.444366 3.068824
-35.070358 19.24736 3.107795
-43.067299 9.583597 9.923892
-44.89946 12.409481 9.042009
-43.365417 13.707058 9.122323
-43.701824 17.742081 8.403239
-36.82571 6.959242 -1.456638
-36.879051 7.953335 -3.477966
-36.993172 8.937849 -5.547194
-35.964703 13.437485 -4.885841
-37.150707 9.920328 -7.643217
-37.327251 10.909674 -9.74588
-37.490902 11.913649 -11.837379
-37.603649 12.936031 -13.903051
-36.384861 16.8293 -13.127789
-48.263592 19.688932 7.004854
-48.047506 17.950861 7.188493
-49.049723 18.970703 6.829172
-47.50354 20.456335 7.150517
-48.263592 19.688932 7.004854
-51.281374 16.783794 6.295429
-51.151209 15.142588 6.444885
-51.46039 18.473233 6.133421
-50.566166 17.519577 6.464759
-51.281374 16.783794 6.295429
-36.331246 18.168819 -20.339363
-37.025748 16.529401 -20.76277
-36.553755 17.67988 -19.412177
-39.095494 2.071191 9.744359
-39.578981 1.547071 10.178195
-39.599966 3.768006 10.028725
-38.754326 2.561756 9.13232
-39.095494 2.071191 9.744359
-43.81217 8.991223 9.939858
-42.916002 7.497319 10.353877
-47.469663 12.387921 8.248349
-48.27866 11.772589 8.107986
-41.469778 19.91073 8.286676
-42.390266 21.187925 8.061359
-35.670627 19.973208 -15.853952
-36.265168 18.086907 -16.106402
-35.754444 19.555796 -14.876037
-35.559727 20.286977 -16.825637
-35.670627 19.973208 -15.853952
-35.398678 20.694468 -17.777864
-36.020302 18.911808 -18.036543
-35.559727 20.286977 -16.825637
-40.760187 4.878362 10.454397
-40.635852 2.733826 10.807463
-41.312585 4.3683 10.799299
-46.472732 19.406471 7.496937
-45.47267 18.239123 7.94551
-46.261313 17.501742 7.812748
-46.472732 19.406471 7.496937
-47.50354 20.456335 7.150517
-34.631386 20.328178 -4.419774
-34.652602 19.97987 -3.41594
-35.061621 18.412645 -5.490709
-34.631386 20.328178 -4.419774
-35.583514 16.543529 -6.733057
-35.551648 16.171339 -5.708998
-35.061621 18.412645 -5.490709
-35.649588 16.967281 -7.770395
-36.139614 14.725975 -7.988685
-35.583514 16.543529 -6.733057
-35.693153 17.317533 -8.799413
-35.649588 16.967281 -7.770395
-35.752014 17.73758 -9.831383
-36.264549 15.569773 -10.057994
-35.693153 17.317533 -8.799413
-35.786055 18.072277 -10.854741
-35.752014 17.73758 -9.831383
-40.629076 18.515993 8.49251
-41.350643 17.786782 8.593536
-41.469778 19.91073 8.286676
-39.864711 17.074185 8.575267
-40.629076 18.515993 8.49251
-39.185091 15.530388 8.591755
-39.83032 14.848247 8.815858
-39.864711 17.074185 8.575267
-38.643995 16.161734 8.21982
-38.609604 13.935797 8.460411
-39.185091 15.530388 8.591755
-38.054011 16.838663 7.88949
-38.643995 16.161734 8.21982
-37.576271 17.461436 7.416109
-37.590768 15.189915 7.615095
-38.054011 16.838663 7.88949
-37.048233 18.121582 6.974823
-37.576271 17.461436 7.416109
-49.260264 12.977494 7.470305
-48.27866 11.772589 8.107986
-50.225577 14.077958 6.955979
-51.151209 15.142588 6.444885
-49.421837 14.729675 7.141093
-49.260264 12.977494 7.470305
-50.225577 14.077958 6.955979
-50.005495 19.958895 6.474142
-49.049723 18.970703 6.829172
-49.78941 18.220824 6.65778
-34.544233 20.681177 0.491225
-34.444868 22.577009 1.276869
-38.268079 12.865672 -17.442978
-38.294668 12.241378 -16.432094
-38.213852 13.386582 -18.433363
-38.268079 12.865672 -17.442978
-37.570639 14.494826 -16.921572
-38.107389 14.005064 -19.415165
-38.213852 13.386582 -18.433363
-37.973313 14.517427 -20.376978
-38.107389 14.005064 -19.415165
-37.382334 15.528099 -18.87377
-37.774845 15.112383 -21.322222
-37.973313 14.517427 -20.376978
-37.774845 15.112383 -21.322222
-37.025748 16.529401 -20.76277
-35.217714 21.00029 -18.728331
-35.398678 20.694468 -17.777864
-35.616777 19.705473 -19.911194
-35.217714 21.00029 -18.728331
-36.331246 18.168819 -20.339363
-35.616777 19.705473 -19.911194
-39.995524 1.072153 10.706922
-40.635852 2.733826 10.807463
-39.995524 1.072153 10.706922
-39.578981 1.547071 10.178195
-38.339947 3.09706 8.611699
-38.754326 2.561756 9.13232
-38.702099 4.827429 9.074269
-38.121635 1.335092 7.980896
-38.339947 3.09706 8.611699
-38.069409 3.600765 7.922845
-37.968891 -0.391301 7.236729
-38.121635 1.335092 7.980896
-37.844013 0.097576 6.397578
-37.968891 -0.391301 7.236729
-37.637861 0.610305 5.638286
-37.844013 0.097576 6.397578
-37.644945 2.351527 6.532749
-37.568031 1.11397 4.744713
-37.637861 0.610305 5.638286
-37.419546 1.63071 3.921082
-37.568031 1.11397 4.744713
-37.290308 3.380996 4.949826
-37.395207 2.145701 2.980301
-37.419546 1.63071 3.921082
-37.298099 2.661507 2.098511
-37.395207 2.145701 2.980301
-37.044716 4.413542 3.244405
-37.311272 3.184731 1.11733
-37.298099 2.661507 2.098511
-36.896488 5.440309 1.429491
-37.260151 3.695693 0.184206
-37.311272 3.184731 1.11733
-36.637394 18.725569 6.399547
-36.70219 16.416674 6.56644
-37.048233 18.121582 6.974823
-36.177712 19.356899 5.846022
-36.637394 18.725569 6.399547
-35.836674 19.932223 5.171544
-35.950314 17.595983 5.316687
-36.177712 19.356899 5.846022
-35.450901 20.523199 4.508916
-35.836674 19.932223 5.171544
-35.181442 21.061226 3.741709
-35.339817 18.709333 3.875002
-35.450901 20.523199 4.508916
-34.873207 21.601574 2.978075
-35.181442 21.061226 3.741709
-34.675137 22.095594 2.12862
-34.872287 19.74138 2.25834
-34.873207 21.601574 2.978075
-34.444868 22.577009 1.276869
-34.675137 22.095594 2.12862
-42.100813 5.961939 10.615048
-41.312585 4.3683 10.799299
-42.25211 8.048216 10.185063
-42.100813 5.961939 10.615048
-42.916002 7.497319 10.353877
-46.667184 13.055217 8.419462
-47.469663 12.387921 8.248349
-47.654045 14.296506 7.826532
-45.691131 11.778056 8.941644
-46.667184 13.055217 8.419462
-45.875513 13.686642 8.519827
-44.728251 10.404165 9.498917
-45.691131 11.778056 8.941644
-43.983379 10.996539 9.482951
-43.81217 8.991223 9.939858
-44.728251 10.404165 9.498917
-44.692957 18.942966 8.016469
-44.481537 17.038237 8.33228
-45.47267 18.239123 7.94551
-43.910879 19.698736 8.084388
-44.692957 18.942966 8.016469
-43.155639 20.418456 8.076619
-42.946585 18.4618 8.395471
-43.910879 19.698736 8.084388
-42.390266 21.187925 8.061359
-43.155639 20.418456 8.076619
-51.609934 20.049397 6.173063
-51.46039 18.473233 6.133421
-50.952829 20.832735 6.29816
-51.609934 20.049397 6.173063
-50.005495 19.958895 6.474142
-50.952829 20.832735 6.29816
-37.30462 4.225207 -0.830432
-37.260151 3.695693 0.184206
-37.294792 4.729193 -1.806935
-37.30462 4.225207 -0.830432
-36.835538 6.455256 -0.480135
-37.365513 5.264749 -2.84758
-37.294792 4.729193 -1.806935
-37.392183 5.761796 -3.858244
-37.365513 5.264749 -2.84758
-36.85238 7.456288 -2.467302
-37.484079 6.304945 -4.916893
-37.392183 5.761796 -3.858244
-37.54114 6.797202 -5.951507
-37.484079 6.304945 -4.916893
-36.936111 8.445592 -4.51258
-37.647635 7.350926 -7.01987
-37.54114 6.797202 -5.951507
-34.762842 18.75165 -0.467504
-34.892826 18.305874 0.450156
-34.544233 20.681177 0.491225
-35.068828 16.808416 -1.481666
-34.762842 18.75165 -0.467504
-35.468023 14.892921 -2.653914
-35.51063 14.460852 -1.680822
-35.068828 16.808416 -1.481666
-35.027988 17.64047 -3.460704
-34.652602 19.97987 -3.41594
-35.495463 15.338985 -3.6703
-35.027988 17.64047 -3.460704
-35.497229 15.73897 -4.676246
-35.937264 12.991421 -3.869456
-35.468023 14.892921 -2.653914
-35.495463 15.338985 -3.6703
-37.726402 7.842166 -8.067882
-37.647635 7.350926 -7.01987
-37.071939 9.429088 -6.595206
-37.838085 8.410015 -9.137868
-37.726402 7.842166 -8.067882
-37.926357 8.904688 -10.1892
-37.838085 8.410015 -9.137868
-37.238979 10.415001 -8.694548
-38.030214 9.489523 -11.253404
-37.926357 8.904688 -10.1892
-38.112039 9.991511 -12.299153
-38.030214 9.489523 -11.253404
-37.409076 11.411662 -10.791629
-38.191536 10.594013 -13.351109
-38.112039 9.991511 -12.299153
-38.247909 11.105204 -14.383945
-38.191536 10.594013 -13.351109
-37.547275 12.42484 -12.870215
-38.284059 11.722437 -15.418026
-38.247909 11.105204 -14.383945
-37.614257 13.454973 -14.917119
-38.294668 12.241378 -16.432094
-38.284059 11.722437 -15.418026
-35.81678 18.492018 -11.873653
-36.354135 16.40956 -12.108877
-35.786055 18.072277 -10.854741
-35.819659 18.816866 -12.883692
-35.81678 18.492018 -11.873653
-35.80172 19.236964 -13.884041
-36.366923 17.249398 -14.128138
-35.819659 18.816866 -12.883692
-35.754444 19.555796 -14.876037
-35.80172 19.236964 -13.884041
3 0 20 18
3 1 23 21
3 1 25 23
3 1 27 25
3 67 30 68
3 69 68 28
3 67 68 69
3 71 70 30
3 2 33 31
3 3 38 36
3 72 39 73
3 74 40 75
3 76 75 39
3 74 75 76
3 6 42 41
3 7 43 17
3 7 77 79
3 79 78 43
3 77 78 79
3 8 80 82
3 82 81 19
3 80 81 82
3 8 83 84
3 4 44 37
3 9 45 22
3 9 46 45
3 9 47 46
3 10 48 24
3 10 49 48
3 10 51 49
3 12 52 26
3 12 53 52
3 85 54 86
3 5 87 88
3 13 55 29
3 13 56 55
3 13 57 56
3 11 58 50
3 14 59 32
3 14 60 59
3 15 61 34
3 15 62 61
3 15 63 62
3 16 64 35
3 16 65 64
3 16 66 65
3 90 89 3
3 91 17 92
3 93 92 6
3 91 92 93
3 94 17 95
3 96 7 97
3 98 97 17
3 96 97 98
3 18 99 101
3 99 19 100
3 99 100 101
3 20 19 18
3 20 8 19
3 21 22 4
3 23 22 21
3 23 9 22
3 23 24 9
3 25 24 23
3 25 10 24
3 25 26 10
3 27 26 25
3 27 12 26
3 28 29 5
3 30 29 28
3 30 13 29
3 30 102 104
3 104 103 13
3 102 103 104
3 106 105 30
3 31 32 11
3 33 32 31
3 33 14 32
3 107 34 108
3 109 34 110
3 111 15 112
3 113 112 34
3 111 112 113
3 114 35 115
3 116 115 15
3 114 115 116
3 117 35 118
3 119 16 120
3 121 120 35
3 119 120 121
3 123 122 16
3 36 37 0
3 38 37 36
3 38 4 37
3 124 38 125
3 126 125 3
3 124 125 126
3 127 38 128
3 129 4 130
3 131 130 38
3 129 130 131
3 132 21 133
3 134 133 4
3 132 133 134
3 135 21 136
3 137 1 138
3 139 138 21
3 137 138 139
3 141 140 1
3 142 5 143
3 39 144 145
3 39 146 148
3 146 5 147
3 146 147 148
3 39 28 5
3 40 28 39
3 40 149 151
3 151 150 28
3 149 150 151
3 153 152 2
3 41 154 155
3 42 156 158
3 158 157 41
3 156 157 158
3 42 159 160
3 17 42 6
3 43 42 17
3 43 161 163
3 163 162 42
3 161 162 163
3 43 164 165
3 167 166 43
3 168 7 169
3 170 7 171
3 173 172 7
3 19 174 175
3 177 176 19
3 37 20 0
3 44 20 37
3 44 8 20
3 22 44 4
3 45 44 22
3 45 8 44
3 45 178 180
3 180 179 8
3 178 179 180
3 46 181 183
3 183 182 45
3 181 182 183
3 46 184 185
3 46 186 187
3 47 188 190
3 190 189 46
3 188 189 190
3 47 191 192
3 24 47 9
3 48 47 24
3 48 193 195
3 195 194 47
3 193 194 195
3 48 196 197
3 49 198 200
3 200 199 48
3 198 199 200
3 49 201 202
3 49 203 205
3 203 50 204
3 203 204 205
3 51 50 49
3 51 11 50
3 26 51 10
3 52 51 26
3 52 11 51
3 52 31 11
3 53 31 52
3 53 2 31
3 206 27 207
3 208 207 1
3 206 207 208
3 209 27 210
3 211 12 212
3 213 212 27
3 211 212 213
3 214 12 215
3 216 53 217
3 218 217 12
3 216 217 218
3 219 53 220
3 221 2 222
3 223 222 53
3 221 222 223
3 225 224 2
3 226 18 227
3 54 228 230
3 228 18 229
3 228 229 230
3 54 0 18
3 29 231 233
3 233 232 5
3 231 232 233
3 55 234 236
3 236 235 29
3 234 235 236
3 55 237 238
3 55 239 241
3 239 54 240
3 239 240 241
3 56 54 55
3 56 0 54
3 56 36 0
3 57 36 56
3 57 3 36
3 242 57 243
3 244 243 13
3 242 243 244
3 245 57 246
3 247 3 248
3 249 248 57
3 247 248 249
3 251 250 3
3 252 40 253
3 254 40 255
3 257 256 40
3 50 258 259
3 58 260 262
3 262 261 50
3 260 261 262
3 58 263 264
3 32 58 11
3 59 58 32
3 59 265 267
3 267 266 58
3 265 266 267
3 59 268 269
3 60 270 272
3 272 271 59
3 270 271 272
3 60 273 274
3 275 33 276
3 277 276 2
3 275 276 277
3 278 33 279
3 280 14 281
3 282 281 33
3 280 281 282
3 34 283 284
3 61 285 287
3 287 286 34
3 285 286 287
3 61 288 290
3 288 14 289
3 288 289 290
3 61 60 14
3 62 60 61
3 62 291 293
3 293 292 60
3 291 292 293
3 62 294 295
3 63 296 298
3 298 297 62
3 296 297 298
3 63 299 300
3 35 63 15
3 64 63 35
3 64 301 303
3 303 302 63
3 301 302 303
3 64 304 305
3 65 306 308
3 308 307 64
3 306 307 308
3 65 309 310
3 65 311 313
3 311 41 312
3 311 312 313
3 66 41 65
3 66 6 41
3 314 66 315
3 316 315 16
3 314 315 316
3 317 66 318
3 319 6 320
3 321 320 66
3 319 320 321
3 323 322 6
