ply
format ascii 1.0
element vertex 306
property float x
property float y
property float z
element face 348
property list uchar int vertex_index
end_header
-21.744354 68.285019 27.943163
-38.110943 56.683262 30.259901
-15.785893 69.663742 34.590538
-25.331202 72.247284 18.817657
-29.067476 62.339397 28.429033
-34.579445 66.566422 19.66963
-31.356678 52.763752 38.396225
-22.639645 59.493732 36.346397
-19.703953 72.649857 25.604919
-16.122744 74.371918 28.755516
-19.066563 69.044998 30.794716
-23.315058 70.143051 23.836004
-21.004274 75.286636 19.966938
-24.844154 65.368927 27.902725
-27.465372 67.245529 23.512409
-26.769913 55.729771 37.244133
-23.408756 53.989567 40.704948
-19.492626 58.52869 40.102226
-33.70863 59.594883 29.397369
-36.56522 61.667294 25.099186
-32.070053 64.498016 24.139626
-29.976942 69.368607 18.880859
-34.961147 54.786503 34.497219
-30.299015 57.546192 33.476051
-25.863949 60.637424 32.515602
-22.105007 64.434341 31.834614
-19.070847 64.235077 35.652496
-15.920295 63.942089 39.706654
-20.853355 70.205612 26.92576
-19.284784 71.001465 28.251692
-20.548176 68.630341 29.174171
-22.425907 69.118286 26.122498
-21.469631 71.489746 24.51614
-23.079737 66.942795 27.872478
-24.174849 67.719162 25.798626
-25.546442 52.136005 41.207672
-15.895461 72.155136 31.754795
-14.268623 74.893402 30.644562
-14.119094 72.444565 33.752563
-14.082095 69.735001 36.667557
-31.375015 60.952053 28.888458
-32.943108 62.038876 26.776779
-30.612122 63.390308 26.303965
-26.472084 69.740295 21.146454
-28.749203 68.319687 21.215023
-27.626791 70.775192 18.719967
-35.623951 64.143738 22.410408
-37.677357 62.558559 22.855669
-36.682796 65.015045 20.126301
-31.884945 50.312916 40.779343
-33.695229 51.402409 38.926682
-35.482697 52.404583 36.947361
-33.180939 53.790646 36.500114
-32.63884 56.16267 34.011902
-30.836382 55.165363 35.96257
-24.632099 57.488674 36.750088
-26.315517 58.211079 34.892265
-24.248632 60.013645 34.458241
-23.882959 62.441822 32.156773
-22.350763 62.044567 34.09127
-20.618031 64.303238 33.725929
-20.794317 61.750652 36.003693
-17.991072 57.999668 42.068584
-17.681862 61.159443 39.919113
-16.174923 60.764774 41.999199
-14.380195 63.62244 41.874489
-18.383429 75.28775 24.086143
-16.464556 76.304749 25.622822
-17.935154 73.612503 27.050503
-17.626793 71.659119 29.900364
-17.460646 69.415482 32.622963
-24.301916 71.210968 21.365644
-23.123926 73.771088 19.225431
-22.252705 72.678162 21.9203
-20.297348 74.060989 22.833214
-26.866173 63.809856 28.087357
-28.324154 64.776947 25.93996
-26.1567 66.23053 25.754986
-25.310226 68.692993 23.52409
-33.435131 68.901505 16.890661
-35.601608 67.383621 17.329647
-29.546146 51.684811 40.169704
-29.026934 54.1777 37.811058
-27.253965 53.175716 39.552551
-25.057308 54.865147 38.999435
-22.986153 56.806164 38.552826
-21.048853 59.016285 38.212349
-21.392805 56.123486 40.343426
-19.868202 55.417927 42.181442
-14.522076 77.064514 27.377581
-35.982822 58.194897 29.877556
-37.396233 59.171627 27.720287
-35.23262 60.656612 27.275333
-34.372349 63.127956 24.62104
-33.401363 65.582932 21.933214
-29.740894 65.85144 23.741581
-31.083149 66.949951 21.504948
-32.319748 67.990112 19.226282
-31.125147 70.321335 16.507805
-38.573563 60.051495 25.501616
-38.708649 54.214893 32.710449
-37.178459 53.340504 34.866451
-36.627789 55.756634 32.410969
-34.376347 57.178074 31.977503
-32.044392 58.544247 31.467709
-29.717842 59.931789 30.953764
-28.526819 56.613102 35.40538
-28.019081 59.01659 32.959621
-27.47542 61.410267 30.504398
-25.386045 63.020535 30.162306
-23.508905 64.759369 29.920403
-21.897568 66.591904 29.688126
-20.522825 66.627243 31.424725
-19.010986 66.773468 33.264668
-17.420666 66.897095 35.206757
-19.230293 61.476147 37.93325
-17.494347 64.134796 37.638988
-15.793173 66.917618 37.242657
-14.165929 66.78598 39.372978
-38.733211 57.10561 29.155497
-39.060161 55.847217 30.378662
-24.682783 73.494827 17.655233
-25.847859 72.72245 17.528552
-25.847859 72.72245 17.528552
-26.995654 71.986404 17.479707
-26.478997 71.511238 18.768812
-16.369511 59.090839 43.078377
-17.082997 59.382221 42.033891
-17.277585 57.708286 43.11307
-15.453906 60.519302 43.099624
-16.369511 59.090839 43.078377
-33.935831 69.267212 15.686501
-32.811584 70.013192 15.487526
-28.668273 51.108437 40.99782
-29.825912 50.398446 41.332403
-27.522183 51.85389 40.689243
-28.400056 52.430264 39.861128
-28.668273 51.108437 40.99782
-20.116166 53.794556 43.19709
-20.853962 54.253605 42.300245
-19.148542 55.052098 43.155109
-20.116166 53.794556 43.19709
-13.418014 76.208969 29.97034
-13.333657 75.017044 31.656444
-21.389685 75.809837 18.512475
-22.449511 75.052063 18.141722
-22.0641 74.528862 19.596184
-38.590713 61.667633 23.032623
-38.125073 62.914658 21.691879
-36.583347 66.535553 17.54061
-36.047277 67.687187 16.114616
-38.952382 52.989185 33.891752
-39.618863 53.362148 32.776348
-39.862595 52.13644 33.957651
-13.477515 65.047395 41.736404
-13.64048 63.388572 43.011753
-25.830669 50.717491 42.303814
-26.668422 51.334034 41.516804
-24.734693 51.593387 42.016945
-25.830669 50.717491 42.303814
-23.66585 52.520168 41.765583
-24.477599 53.062786 40.95631
-24.734693 51.593387 42.016945
-22.624239 53.539425 41.561998
-23.66585 52.520168 41.765583
-13.258892 73.792625 33.210445
-13.333657 75.017044 31.656444
-14.193859 73.668983 32.198563
-13.227018 72.467399 34.80624
-13.258892 73.792625 33.210445
-13.208519 71.112617 36.263737
-13.227018 72.467399 34.80624
-14.100594 71.089783 35.21006
-13.235791 69.664093 37.753689
-13.208519 71.112617 36.263737
-20.291531 76.589996 18.953202
-19.974101 75.998131 20.501031
-28.185848 71.253159 17.492243
-29.360923 70.549866 17.572689
-28.801867 70.0719 18.800413
-28.185848 71.253159 17.492243
-26.995654 71.986404 17.479707
-37.627792 64.1429 20.327195
-38.125073 62.914658 21.691879
-37.180076 63.786802 21.490985
-33.044497 49.640828 41.039999
-32.162329 49.050202 41.954033
-33.949638 50.185574 40.113669
-33.044497 49.640828 41.039999
-32.790087 50.857663 39.853012
-34.82893 50.704735 39.129093
-33.949638 50.185574 40.113669
-34.588963 51.903496 37.937022
-35.722664 51.205822 38.139433
-34.82893 50.704735 39.129093
-14.556542 61.948135 43.037269
-15.277559 62.193607 41.936844
-15.453906 60.519302 43.099624
-13.64048 63.388572 43.011753
-14.556542 61.948135 43.037269
-17.423993 75.79625 24.854482
-16.685283 77.129539 24.008953
-17.64472 76.62104 23.240614
-19.620638 75.385307 21.934169
-19.974101 75.998131 20.501031
-20.650811 74.673812 21.400076
-18.663678 75.998688 22.560634
-19.620638 75.385307 21.934169
-19.340388 74.67437 23.459679
-17.64472 76.62104 23.240614
-18.663678 75.998688 22.560634
-35.01907 68.50827 15.905994
-34.518369 68.142563 17.110154
-33.935831 69.267212 15.686501
-35.464739 68.811836 14.690963
-36.047277 67.687187 16.114616
-35.01907 68.50827 15.905994
-30.995311 49.712498 41.637223
-32.162329 49.050202 41.954033
-30.715545 50.998863 40.474524
-30.995311 49.712498 41.637223
-29.825912 50.398446 41.332403
-26.400203 52.655861 40.380111
-27.522183 51.85389 40.689243
-26.668422 51.334034 41.516804
-21.616263 54.606385 41.381237
-22.40078 55.056527 40.524187
-22.624239 53.539425 41.561998
-20.630503 55.770707 41.262434
-21.616263 54.606385 41.381237
-20.853962 54.253605 42.300245
-18.209976 56.342968 43.098681
-18.929637 56.708798 42.125013
-19.148542 55.052098 43.155109
-17.277585 57.708286 43.11307
-18.209976 56.342968 43.098681
-15.66547 77.625245 24.809744
-16.685283 77.129539 24.008953
-14.69423 78.005127 25.687123
-15.66547 77.625245 24.809744
-15.493316 76.684631 26.500201
-13.674042 78.344162 26.583412
-14.69423 78.005127 25.687123
-13.544741 77.294525 28.336849
-14.39535 75.978958 29.011071
-13.418014 76.208969 29.97034
-13.674042 78.344162 26.583412
-13.544741 77.294525 28.336849
-23.579146 74.25673 17.85912
-24.682783 73.494827 17.655233
-24.227564 73.009186 19.021544
-23.579146 74.25673 17.85912
-22.449511 75.052063 18.141722
-21.389685 75.809837 18.512475
-20.291531 76.589996 18.953202
-31.656592 70.723107 15.296098
-32.811584 70.013192 15.487526
-32.280139 69.61142 16.699233
-29.935026 71.02623 16.386162
-30.551044 69.844971 17.694332
-29.360923 70.549866 17.572689
-30.468212 71.440216 15.143977
-29.935026 71.02623 16.386162
-31.656592 70.723107 15.296098
-30.468212 71.440216 15.143977
-38.375856 58.349792 27.88569
-38.733211 57.10561 29.155497
-37.753588 57.927445 28.990094
-38.964522 58.789727 26.776355
-38.375856 58.349792 27.88569
-37.984898 59.611561 26.610951
-39.454834 59.146778 25.64121
-38.964522 58.789727 26.776355
-39.038816 60.414101 24.355597
-38.12546 61.305027 24.178642
-38.590713 61.667633 23.032623
-39.454834 59.146778 25.64121
-39.038816 60.414101 24.355597
-37.123941 65.351265 18.938937
-36.142202 66.199333 18.727974
-36.583347 66.535553 17.54061
-37.627792 64.1429 20.327195
-37.123941 65.351265 18.938937
-39.359015 54.613033 31.603936
-39.618863 53.362148 32.776348
-38.409796 55.449078 31.485175
-39.060161 55.847217 30.378662
-39.359015 54.613033 31.603936
-36.566921 51.667855 37.096277
-35.722664 51.205822 38.139433
-37.414802 52.135815 36.055822
-36.566921 51.667855 37.096277
-36.330578 52.872544 35.906906
-38.187286 52.551991 34.969753
-37.414802 52.135815 36.055822
-37.943554 53.777698 33.78845
-38.952382 52.989185 33.891752
-38.187286 52.551991 34.969753
-13.277707 68.189583 39.1064
-13.235791 69.664093 37.753689
-14.124012 68.260491 38.020268
-13.370382 66.629165 40.485649
-14.273062 65.20421 40.623734
-13.477515 65.047395 41.736404
-13.277707 68.189583 39.1064
-13.370382 66.629165 40.485649
3 0 30 28
3 0 28 31
3 0 31 33
3 1 119 120
3 2 38 36
3 2 39 38
3 3 121 122
3 4 42 40
3 3 45 43
3 3 123 125
3 125 124 45
3 123 124 125
3 5 48 46
3 6 50 49
3 6 52 50
3 6 54 52
3 7 57 55
3 7 59 57
3 7 61 59
3 126 64 127
3 128 127 62
3 126 127 128
3 130 129 64
3 8 68 66
3 10 69 29
3 10 70 69
3 11 73 71
3 8 74 32
3 8 66 74
3 13 77 75
3 11 78 34
3 11 71 78
3 132 131 79
3 133 81 134
3 135 83 136
3 137 136 81
3 135 136 137
3 16 84 35
3 16 85 84
3 16 87 85
3 138 88 139
3 141 140 88
3 9 89 67
3 143 142 37
3 12 144 146
3 146 145 72
3 144 145 146
3 18 92 90
3 20 93 41
3 20 94 93
3 14 95 76
3 21 96 44
3 21 97 96
3 21 98 97
3 19 99 91
3 148 147 47
3 150 149 80
3 151 100 152
3 151 152 153
3 22 101 51
3 22 102 101
3 22 103 102
3 23 104 53
3 23 105 104
3 15 106 82
3 24 107 56
3 24 108 107
3 24 109 108
3 25 110 58
3 25 111 110
3 25 112 111
3 26 113 60
3 26 114 113
3 17 115 86
3 27 116 63
3 27 117 116
3 27 118 117
3 155 154 65
3 28 29 8
3 30 29 28
3 30 10 29
3 31 32 11
3 28 32 31
3 28 8 32
3 33 34 13
3 31 34 33
3 31 11 34
3 156 35 157
3 158 35 159
3 160 16 161
3 162 161 35
3 160 161 162
3 164 163 16
3 36 37 9
3 38 37 36
3 38 165 167
3 167 166 37
3 165 166 167
3 38 168 169
3 39 170 172
3 172 171 38
3 170 171 172
3 39 173 174
3 176 175 12
3 40 41 18
3 42 41 40
3 42 20 41
3 43 44 14
3 45 44 43
3 45 21 44
3 45 177 179
3 179 178 21
3 177 178 179
3 181 180 45
3 46 47 19
3 48 47 46
3 48 182 184
3 184 183 47
3 182 183 184
3 49 185 186
3 50 187 189
3 189 188 49
3 187 188 189
3 50 190 191
3 50 192 194
3 192 51 193
3 192 193 194
3 52 51 50
3 52 22 51
3 52 53 22
3 54 53 52
3 54 23 53
3 55 56 15
3 57 56 55
3 57 24 56
3 57 58 24
3 59 58 57
3 59 25 58
3 59 60 25
3 61 60 59
3 61 26 60
3 62 63 17
3 64 63 62
3 64 27 63
3 64 65 27
3 195 65 196
3 197 196 64
3 195 196 197
3 199 198 65
3 66 200 202
3 200 67 201
3 200 201 202
3 68 67 66
3 68 9 67
3 29 68 8
3 69 68 29
3 69 9 68
3 69 36 9
3 70 36 69
3 70 2 36
3 71 72 3
3 73 72 71
3 73 12 72
3 32 73 11
3 74 73 32
3 74 12 73
3 74 203 205
3 205 204 12
3 203 204 205
3 66 206 208
3 208 207 74
3 206 207 208
3 66 209 210
3 75 76 4
3 77 76 75
3 77 14 76
3 34 77 13
3 78 77 34
3 78 14 77
3 78 43 14
3 71 43 78
3 71 3 43
3 79 80 5
3 211 80 212
3 213 212 79
3 211 212 213
3 216 215 80
3 214 215 216
3 217 49 218
3 81 219 221
3 219 49 220
3 219 220 221
3 81 6 49
3 81 82 6
3 83 82 81
3 83 15 82
3 35 222 224
3 222 83 223
3 222 223 224
3 84 83 35
3 84 15 83
3 84 55 15
3 85 55 84
3 85 7 55
3 85 86 7
3 87 86 85
3 87 17 86
3 225 87 226
3 227 226 16
3 225 226 227
3 88 228 230
3 228 87 229
3 228 229 230
3 88 17 87
3 88 62 17
3 231 62 232
3 233 232 88
3 231 232 233
3 235 234 62
3 67 236 237
3 89 238 240
3 240 239 67
3 238 239 240
3 89 241 242
3 37 89 9
3 243 89 244
3 245 244 37
3 243 244 245
3 247 246 89
3 72 248 250
3 250 249 3
3 248 249 250
3 252 251 72
3 254 253 12
3 90 91 1
3 92 91 90
3 92 19 91
3 41 92 18
3 93 92 41
3 93 19 92
3 93 46 19
3 94 46 93
3 94 5 46
3 76 42 4
3 95 42 76
3 95 20 42
3 44 95 14
3 96 95 44
3 96 20 95
3 96 94 20
3 97 94 96
3 97 5 94
3 97 79 5
3 98 79 97
3 98 255 257
3 257 256 79
3 255 256 257
3 258 98 259
3 260 259 21
3 258 259 260
3 261 98 262
3 264 263 98
3 91 265 267
3 267 266 1
3 265 266 267
3 99 268 270
3 270 269 91
3 268 269 270
3 99 271 272
3 47 99 19
3 273 99 274
3 275 274 47
3 273 274 275
3 277 276 99
3 80 48 5
3 278 48 279
3 280 279 80
3 278 279 280
3 282 281 48
3 100 283 284
3 100 285 287
3 285 1 286
3 285 286 287
3 51 288 289
3 101 290 292
3 292 291 51
3 290 291 292
3 101 293 294
3 101 295 297
3 295 100 296
3 295 296 297
3 102 100 101
3 102 1 100
3 102 90 1
3 103 90 102
3 103 18 90
3 53 103 22
3 104 103 53
3 104 18 103
3 104 40 18
3 105 40 104
3 105 4 40
3 82 54 6
3 106 54 82
3 106 23 54
3 56 106 15
3 107 106 56
3 107 23 106
3 107 105 23
3 108 105 107
3 108 4 105
3 108 75 4
3 109 75 108
3 109 13 75
3 58 109 24
3 110 109 58
3 110 13 109
3 110 33 13
3 111 33 110
3 111 0 33
3 111 30 0
3 112 30 111
3 112 10 30
3 60 112 25
3 113 112 60
3 113 10 112
3 113 70 10
3 114 70 113
3 114 2 70
3 86 61 7
3 115 61 86
3 115 26 61
3 63 115 17
3 116 115 63
3 116 26 115
3 116 114 26
3 117 114 116
3 117 2 114
3 117 39 2
3 118 39 117
3 118 298 300
3 300 299 39
3 298 299 300
3 65 118 27
3 301 118 302
3 303 302 65
3 301 302 303
3 305 304 118
