ply
format ascii 1.0
element vertex 305
property float x
property float y
property float z
element face 303
property list uchar int vertex_index
end_header
-23.713602 -74.101181 66.603302
-28.197975 -70.202805 60.565228
-24.488567 -77.719177 55.02573
-21.867527 -70.151413 75.447083
-29.880175 -68.496178 56.952164
-28.278509 -72.792755 55.492668
-30.386305 -71.66468 52.740482
-20.613438 -76.255783 68.795746
-17.944809 -79.88208 65.137459
-21.149843 -77.675522 63.121788
-26.232882 -72.074753 63.845905
-23.928047 -75.731308 60.830986
-26.244179 -74.123367 58.26289
-26.900736 -76.840057 53.253704
-33.988754 -65.716232 50.359692
-32.917358 -70.689163 50.352173
-23.221758 -72.352196 71.656052
-25.369614 -68.088448 73.525589
-26.2146 -70.213242 69.197464
-28.511967 -68.107788 66.011642
-21.807528 -79.133057 56.918789
-30.744452 -67.715706 55.134109
-29.996126 -69.966164 54.653362
-31.016977 -69.320969 53.078068
-22.228695 -75.167297 67.769402
-20.89794 -76.99025 66.060532
-22.419983 -75.920929 64.966232
-27.273075 -71.119339 62.2635
-26.18844 -73.043823 61.028118
-27.200544 -72.198959 59.511192
-28.659777 -74.406494 53.380268
-27.562292 -74.860794 54.507454
-35.369183 -65.163353 49.18251
-34.88303 -67.677429 49.236938
-21.504883 -73.418678 72.610497
-22.675045 -71.319702 73.724182
-26.895422 -67.040245 72.269859
-25.93663 -69.205002 71.524689
-27.316536 -68.141922 70.132278
-27.451443 -69.154526 67.692139
-28.510393 -67.080704 68.548592
-24.136002 -76.649261 57.893909
-22.837105 -77.44931 58.985149
-23.189564 -78.349365 55.957024
-29.049683 -69.327042 58.78059
-28.139593 -71.405472 57.919109
-29.05378 -70.661255 56.284897
-29.298599 -72.207001 54.094429
-29.80932 -73.992004 52.293083
-18.896582 -77.345657 69.685608
-17.553795 -79.193329 67.934158
-19.265945 -78.091942 67.048767
-19.591526 -78.759361 64.162842
-19.932718 -79.398819 61.095821
-25.011732 -78.997574 52.284782
-23.690304 -79.4245 52.987217
-25.049988 -73.068901 65.295082
-23.812166 -74.902939 63.762722
-25.066296 -73.943924 62.448891
-25.137966 -74.887497 59.579659
-25.339762 -75.96225 56.779591
-27.276857 -73.428619 56.893135
-26.470261 -75.372711 55.647034
-25.717218 -77.225349 54.124237
-32.766235 -66.324188 51.77726
-32.157063 -68.725922 51.615974
-33.442596 -68.179428 50.320839
-34.400673 -70.245346 49.402157
-20.228378 -75.425537 71.256081
-21.947525 -74.347061 70.340775
-23.545252 -73.267426 69.262276
-23.684031 -69.127762 74.58345
-24.381741 -70.266281 72.721512
-24.800138 -71.280777 70.519211
-24.99436 -72.200012 68.017639
-26.278786 -71.151993 66.605995
-27.396782 -70.126602 65.031754
-28.363218 -69.126091 63.30777
-29.5222 -66.02446 66.786575
-29.414295 -67.076691 64.174347
-29.209673 -68.153999 61.458202
-29.98164 -67.216316 59.520233
-16.239054 -80.99527 66.047287
-22.599026 -76.661278 62.011822
-21.434814 -78.368576 60.052299
-20.341019 -80.070839 57.91114
-31.583164 -71.160416 51.477776
-31.052813 -73.602646 51.279106
-31.355065 -68.155823 53.233076
-30.880714 -68.518338 54.106088
-31.218802 -67.353192 54.261097
-28.367484 -75.4687 52.899912
-28.9712 -75.336189 52.50658
-35.920299 -66.188252 48.788528
-36.134596 -64.911037 48.730175
-21.357855 -71.253647 74.991749
-20.910845 -70.650825 75.783806
-22.271286 -70.735557 74.585633
-21.761614 -71.837792 74.130299
-21.357855 -71.253647 74.991749
-27.568307 -66.513759 71.543365
-27.261676 -65.913593 72.51474
-27.778864 -67.064598 70.474575
-27.105979 -67.591083 71.201068
-27.568307 -66.513759 71.543365
-28.375793 -66.533989 69.682732
-27.913464 -67.611313 69.340435
-27.778864 -67.064598 70.474575
-24.681101 -79.86409 51.203823
-25.358891 -79.763188 50.997408
-26.592652 -77.781391 52.459953
-26.000894 -77.974037 52.89522
-26.308977 -77.032703 53.68897
-35.214523 -70.033817 49.028073
-34.641852 -68.961388 49.319547
-35.455702 -68.749859 48.945463
-34.988096 -71.362454 49.195206
-35.214523 -70.033817 49.028073
-19.955818 -74.946121 72.320755
-19.326021 -75.953987 71.633172
-24.925674 -67.465984 74.357029
-25.752322 -66.953793 73.797924
-24.526823 -68.608105 74.054519
-24.082883 -67.985641 74.885959
-24.925674 -67.465984 74.357029
-29.947895 -64.951027 67.073623
-29.460401 -65.478302 67.980629
-29.803502 -66.571869 63.192518
-29.893249 -66.027161 64.522091
-29.701191 -67.110523 61.834446
-29.311984 -67.615345 62.816274
-29.803502 -66.571869 63.192518
-30.087174 -66.641682 60.865461
-29.595656 -67.685158 60.489217
-29.701191 -67.110523 61.834446
-22.998076 -79.729717 53.383498
-23.319228 -80.280911 51.836415
-31.502749 -74.681713 50.773992
-31.736848 -73.414669 50.82576
-30.808466 -74.809697 51.094494
-31.502749 -74.681713 50.773992
-27.818742 -75.695851 53.463505
-28.111034 -74.633644 53.943861
-28.367484 -75.4687 52.899912
-27.487963 -76.685482 52.83663
-27.231514 -75.850426 53.880579
-27.818742 -75.695851 53.463505
-27.217765 -77.698402 52.188898
-27.487963 -76.685482 52.83663
-35.677223 -67.44529 48.815742
-35.126106 -66.420391 49.209724
-35.920299 -66.188252 48.788528
-35.455702 -68.749859 48.945463
-35.677223 -67.44529 48.815742
-21.176533 -72.88728 73.573456
-20.594071 -73.942691 72.997963
-22.089964 -72.36919 73.167339
-21.176533 -72.88728 73.573456
-21.761614 -71.837792 74.130299
-26.515227 -66.429691 73.170059
-27.261676 -65.913593 72.51474
-26.132518 -67.564346 72.897724
-25.752322 -66.953793 73.797924
-26.515227 -66.429691 73.170059
-17.31591 -80.774048 64.1246
-18.144163 -80.197819 63.626732
-32.669121 -71.957927 50.362293
-33.423082 -71.77201 49.977217
-29.545972 -75.128944 51.962988
-28.9712 -75.336189 52.50658
-29.234548 -74.199249 52.836675
-21.333406 -69.499485 76.152871
-20.910845 -70.650825 75.783806
-18.225189 -78.269493 68.809883
-17.335051 -78.799378 69.187409
-18.006444 -77.875541 70.063133
-18.967522 -79.636459 63.139423
-18.144163 -80.197819 63.626732
-18.768168 -79.32072 64.65015
-19.138117 -79.956188 61.605913
-18.967522 -79.636459 63.139423
-19.762122 -79.07909 62.629331
-19.364806 -80.270607 60.013887
-19.138117 -79.956188 61.605913
-24.020387 -80.077553 51.555041
-24.351018 -79.211037 52.635999
-24.681101 -79.86409 51.203823
-23.319228 -80.280911 51.836415
-24.020387 -80.077553 51.555041
-25.64815 -78.86015 51.975493
-25.364475 -78.111461 53.20451
-26.000894 -77.974037 52.89522
-25.358891 -79.763188 50.997408
-25.64815 -78.86015 51.975493
-26.592652 -77.781391 52.459953
-27.217765 -77.698402 52.188898
-32.461649 -67.525055 51.696617
-31.925108 -67.8583 52.502029
-32.229694 -66.657432 52.582672
-34.164739 -71.550102 49.502209
-33.423082 -71.77201 49.977217
-33.659015 -70.467254 49.877165
-34.164739 -71.550102 49.502209
-34.988096 -71.362454 49.195206
-18.660123 -76.914047 70.847935
-18.006444 -77.875541 70.063133
-19.56248 -76.385597 70.470844
-18.660123 -76.914047 70.847935
-19.326021 -75.953987 71.633172
-20.86663 -74.422108 71.933289
-19.955818 -74.946121 72.320755
-20.594071 -73.942691 72.997963
-22.280296 -69.003395 75.781757
-21.333406 -69.499485 76.152871
-23.188547 -68.491569 75.349941
-24.082883 -67.985641 74.885959
-22.775779 -69.639588 75.015266
-22.280296 -69.003395 75.781757
-23.188547 -68.491569 75.349941
-28.954498 -66.006424 68.861638
-28.375793 -66.533989 69.682732
-29.016297 -66.552582 67.667584
-28.954498 -66.006424 68.861638
-29.460401 -65.478302 67.980629
-29.947202 -65.501046 65.828205
-29.947895 -64.951027 67.073623
-29.468248 -66.550576 65.480461
-29.947202 -65.501046 65.828205
-29.893249 -66.027161 64.522091
-30.437984 -66.151734 59.842033
-30.087174 -66.641682 60.865461
-30.357399 -66.768669 58.532082
-30.437984 -66.151734 59.842033
-30.306666 -67.4086 57.248047
-29.930907 -67.856247 58.236199
-30.357399 -66.768669 58.532082
-30.738805 -67.018364 56.33902
-30.312314 -68.105942 56.043137
-30.306666 -67.4086 57.248047
-31.132199 -66.596142 55.361921
-30.738805 -67.018364 56.33902
-31.218802 -67.353192 54.261097
-31.132199 -66.596142 55.361921
-32.579359 -65.507118 52.750513
-32.229694 -66.657432 52.582672
-33.078271 -65.144953 51.89453
-32.579359 -65.507118 52.750513
-33.689531 -64.840975 51.185746
-33.377494 -66.02021 51.068476
-33.078271 -65.144953 51.89453
-34.263572 -64.510255 50.436388
-33.689531 -64.840975 51.185746
-34.953787 -64.233816 49.847797
-34.678968 -65.439793 49.771101
-34.263572 -64.510255 50.436388
-35.607453 -63.933077 49.228865
-34.953787 -64.233816 49.847797
-36.134596 -64.911037 48.730175
-35.607453 -63.933077 49.228865
-16.677523 -79.720246 68.326233
-17.335051 -78.799378 69.187409
-16.020152 -80.621216 67.382797
-16.677523 -79.720246 68.326233
-16.896425 -80.0943 66.990723
-15.375985 -81.513958 66.469909
-16.020152 -80.621216 67.382797
-16.463032 -81.330643 64.579513
-17.091932 -80.438675 65.592373
-17.31591 -80.774048 64.1246
-15.61435 -81.892311 65.063492
-16.463032 -81.330643 64.579513
-15.375985 -81.513958 66.469909
-15.61435 -81.892311 65.063492
-19.568956 -80.606617 58.421547
-19.364806 -80.270607 60.013887
-20.136868 -79.734829 59.503481
-22.747706 -79.19215 54.868401
-23.439934 -78.886933 54.472121
-22.998076 -79.729717 53.383498
-22.056688 -79.583996 55.349283
-22.498546 -78.741211 56.437906
-22.747706 -79.19215 54.868401
-21.331092 -79.98719 55.791889
-22.056688 -79.583996 55.349283
-20.597837 -80.456082 56.288065
-21.074274 -79.601948 57.414964
-21.331092 -79.98719 55.791889
-19.840781 -80.951329 56.775452
-20.597837 -80.456082 56.288065
-19.568956 -80.606617 58.421547
-19.840781 -80.951329 56.775452
-31.58702 -69.023446 52.347021
-31.355065 -68.155823 53.233076
-31.925108 -67.8583 52.502029
-32.002023 -72.193554 50.925095
-32.250261 -70.92479 50.914974
-32.669121 -71.957927 50.362293
-31.317988 -72.381531 51.378441
-32.002023 -72.193554 50.925095
-31.736848 -73.414669 50.82576
-30.18672 -75.004375 51.601483
-30.431067 -73.797325 51.786095
-30.808466 -74.809697 51.094494
-29.545972 -75.128944 51.962988
-30.18672 -75.004375 51.601483
3 88 23 89
3 90 89 21
3 88 89 90
3 0 26 24
3 1 29 27
3 92 91 30
3 94 93 32
3 3 95 96
3 3 97 99
3 97 35 98
3 97 98 99
3 100 36 101
3 102 38 103
3 104 103 36
3 102 103 104
3 105 40 106
3 107 106 38
3 105 106 107
3 2 43 41
3 4 46 44
3 6 47 22
3 6 48 47
3 7 51 49
3 9 52 25
3 9 53 52
3 109 108 54
3 10 58 56
3 12 59 28
3 12 60 59
3 5 61 45
3 13 62 31
3 13 63 62
3 13 110 112
3 112 111 63
3 110 111 112
3 14 66 64
3 113 67 114
3 115 114 33
3 113 114 115
3 117 116 67
3 118 68 119
3 16 69 34
3 16 70 69
3 17 120 121
3 17 122 124
3 122 71 123
3 122 123 124
3 17 72 71
3 18 73 37
3 18 74 73
3 18 75 74
3 19 76 39
3 19 77 76
3 125 78 126
3 127 79 128
3 129 80 130
3 131 130 79
3 129 130 131
3 132 81 133
3 134 133 80
3 132 133 134
3 8 82 50
3 11 83 57
3 20 84 42
3 20 85 84
3 136 135 55
3 15 86 65
3 137 87 138
3 140 139 87
3 21 22 4
3 23 22 21
3 23 6 22
3 24 25 7
3 26 25 24
3 26 9 25
3 27 28 10
3 29 28 27
3 29 12 28
3 30 31 5
3 141 31 142
3 143 142 30
3 141 142 143
3 144 13 145
3 146 145 31
3 144 145 146
3 148 147 13
3 32 33 14
3 149 33 150
3 151 150 32
3 149 150 151
3 153 152 33
3 154 34 155
3 35 156 158
3 156 34 157
3 156 157 158
3 35 16 34
3 36 159 160
3 36 161 163
3 161 17 162
3 161 162 163
3 36 37 17
3 38 37 36
3 38 18 37
3 38 39 18
3 40 39 38
3 40 19 39
3 165 164 8
3 41 42 11
3 43 42 41
3 43 20 42
3 167 166 15
3 44 45 1
3 46 45 44
3 46 5 45
3 22 46 4
3 47 46 22
3 47 5 46
3 47 30 5
3 48 30 47
3 48 168 170
3 170 169 30
3 168 169 170
3 171 3 172
3 49 173 175
3 173 50 174
3 173 174 175
3 51 50 49
3 51 8 50
3 25 51 7
3 52 51 25
3 52 8 51
3 52 176 178
3 178 177 8
3 176 177 178
3 53 179 181
3 181 180 52
3 179 180 181
3 53 182 183
3 54 55 2
3 184 55 185
3 186 185 54
3 184 185 186
3 188 187 55
3 56 57 0
3 58 57 56
3 58 11 57
3 28 58 10
3 59 58 28
3 59 11 58
3 59 41 11
3 60 41 59
3 60 2 41
3 45 29 1
3 61 29 45
3 61 12 29
3 31 61 5
3 62 61 31
3 62 12 61
3 62 60 12
3 63 60 62
3 63 2 60
3 63 54 2
3 189 54 190
3 191 190 63
3 189 190 191
3 193 192 54
3 195 194 13
3 64 196 198
3 196 65 197
3 196 197 198
3 66 65 64
3 66 15 65
3 33 66 14
3 67 66 33
3 67 15 66
3 67 199 201
3 201 200 15
3 199 200 201
3 203 202 67
3 204 49 205
3 68 206 208
3 206 49 207
3 206 207 208
3 68 7 49
3 34 209 211
3 209 68 210
3 209 210 211
3 69 68 34
3 69 7 68
3 69 24 7
3 70 24 69
3 70 0 24
3 212 3 213
3 71 214 215
3 71 216 218
3 216 3 217
3 216 217 218
3 71 35 3
3 72 35 71
3 72 16 35
3 37 72 17
3 73 72 37
3 73 16 72
3 73 70 16
3 74 70 73
3 74 0 70
3 74 56 0
3 75 56 74
3 75 10 56
3 39 75 18
3 76 75 39
3 76 10 75
3 76 27 10
3 77 27 76
3 77 1 27
3 219 40 220
3 78 221 223
3 221 40 222
3 221 222 223
3 78 19 40
3 224 78 225
3 79 226 228
3 226 78 227
3 226 227 228
3 79 19 78
3 79 77 19
3 80 77 79
3 80 1 77
3 80 44 1
3 81 44 80
3 81 4 44
3 229 81 230
3 231 81 232
3 233 4 234
3 235 234 81
3 233 234 235
3 236 21 237
3 238 237 4
3 236 237 238
3 239 21 240
3 242 241 21
3 243 64 244
3 245 64 246
3 247 14 248
3 249 248 64
3 247 248 249
3 250 14 251
3 252 32 253
3 254 253 14
3 252 253 254
3 255 32 256
3 258 257 32
3 50 259 260
3 82 261 263
3 263 262 50
3 261 262 263
3 82 264 265
3 266 82 267
3 268 267 8
3 266 267 268
3 269 82 270
3 272 271 82
3 57 26 0
3 83 26 57
3 83 9 26
3 42 83 11
3 84 83 42
3 84 9 83
3 84 53 9
3 85 53 84
3 85 273 275
3 275 274 53
3 273 274 275
3 55 43 2
3 276 43 277
3 278 277 55
3 276 277 278
3 279 20 280
3 281 280 43
3 279 280 281
3 282 20 283
3 284 85 285
3 286 285 20
3 284 285 286
3 287 85 288
3 290 289 85
3 65 291 293
3 291 23 292
3 291 292 293
3 86 23 65
3 86 6 23
3 294 86 295
3 296 295 15
3 294 295 296
3 87 297 299
3 297 86 298
3 297 298 299
3 87 6 86
3 87 48 6
3 300 48 301
3 302 301 87
3 300 301 302
3 304 303 48
