ply
format ascii 1.0
element vertex 262
property float x
property float y
property float z
element face 270
property list uchar int vertex_index
end_header
-1.974077 54.290039 -22.332415
0.62604 69.647438 -16.600058
-0.354288 67.907143 -27.704775
-3.091448 46.993805 -18.492838
-1.650404 55.495735 -16.803247
2.389862 81.784668 -13.838078
1.777695 76.087173 -12.251261
1.061155 75.97847 -18.566946
-0.13155 69.136848 -22.504393
0.823519 75.040977 -24.304525
-4.001661 37.406876 -19.421984
-2.917078 45.236748 -23.594309
-2.136072 52.867111 -27.261957
0.693953 63.343933 -7.872835
1.521601 69.690842 -10.332071
0.027876 63.014549 -14.09413
-0.693697 62.391083 -20.006182
-1.246965 61.434555 -25.449194
-1.256853 59.885239 -30.029173
-2.391176 52.086098 -14.934671
-1.494223 56.043968 -13.887289
3.155724 84.03569 -14.500984
2.285103 81.573143 -17.010775
1.696384 79.030411 -16.287409
1.528246 78.754982 -19.364958
0.854513 75.633018 -21.536043
-2.466597 50.643791 -20.489424
-3.007318 46.120621 -21.115263
-2.504343 49.888649 -23.087442
-2.505037 49.094978 -25.520399
-2.096254 53.618279 -24.895773
1.863707 66.217049 -2.711138
0.976227 63.343643 -4.665852
1.569513 66.418785 -5.97578
1.226915 72.97419 -14.530783
1.671864 72.916611 -11.342014
1.077841 69.719994 -13.499788
0.822411 66.45089 -12.339199
0.400034 66.326859 -15.424587
-0.335938 62.735641 -17.094378
-0.021202 66.119713 -18.432318
-0.336006 68.633591 -25.222879
-0.704277 65.390457 -24.111429
-0.868271 64.800583 -26.690733
-1.345919 60.754333 -27.880297
-0.844582 64.003342 -29.012159
-3.185743 47.857452 -15.752819
-2.424189 51.376274 -17.76491
-1.815226 54.910583 -19.623938
3.17457 84.188927 -11.24696
2.583572 81.767929 -10.548693
2.293577 78.95871 -9.791134
1.971336 79.08873 -13.082232
1.388035 76.118813 -15.456974
0.804859 72.900452 -17.643469
0.206802 69.461914 -19.613131
0.4569 72.671066 -20.648245
0.238018 72.249535 -23.497057
0.201633 71.591705 -26.128099
-3.668577 36.286221 -21.820498
-3.622164 42.337559 -19.027052
-3.412584 41.333309 -21.540731
-3.189695 40.331188 -23.891062
-2.784983 44.327553 -25.885309
-2.420748 48.237213 -27.730474
-2.039141 52.003441 -29.363062
-0.072615 60.2584 -6.362234
-0.30279 60.057213 -9.509426
2.176672 75.905258 -8.978754
2.095911 72.737968 -8.094917
1.925476 69.556152 -7.107002
1.218561 66.48764 -9.187387
0.375572 63.223938 -11.017952
-0.550261 59.749519 -12.585344
-0.814926 59.368828 -15.583076
-1.089947 58.935516 -18.495291
-1.357798 58.45253 -21.307726
-0.404577 65.816994 -21.340498
-1.012171 61.967117 -22.804972
-1.587427 57.904907 -23.992167
-1.734461 57.263351 -26.502241
-1.745813 56.490891 -28.774614
-1.42108 56.289692 -12.385681
-1.929816 54.399437 -12.947759
2.307441 81.337845 -18.512117
2.775772 82.596714 -17.304364
1.929012 79.928764 -19.689209
1.906674 80.164062 -18.187866
2.307441 81.337845 -18.512117
1.526579 78.490212 -20.811396
1.929012 79.928764 -19.689209
2.065211 67.758556 -3.270843
2.197794 67.558403 -1.609909
1.918114 67.859425 -4.903164
1.71661 66.317917 -4.343459
2.065211 67.758556 -3.270843
-3.236713 48.276329 -14.330104
-3.625389 46.099598 -14.686856
-3.676359 46.518474 -13.26414
-4.113735 34.811806 -19.582487
-4.333049 35.437309 -18.358871
-3.835119 36.846548 -20.621241
-3.947193 34.251478 -20.781744
-4.113735 34.811806 -19.582487
-3.356806 44.665682 -18.759945
-3.730803 42.841383 -17.704384
-3.465445 45.169506 -17.437277
-1.412878 57.718102 -30.383392
-1.657358 56.020927 -29.756113
-1.501333 58.188065 -29.401893
-2.378292 52.420502 -13.47145
-2.83943 50.390652 -13.92103
-1.9427 54.065033 -14.41098
-2.378292 52.420502 -13.47145
-1.929816 54.399437 -12.947759
3.211082 83.827988 -16.049468
3.757547 84.879776 -14.769249
2.720414 82.804417 -15.755879
3.211082 83.827988 -16.049468
2.775772 82.596714 -17.304364
1.189712 76.92923 -21.896938
1.19138 77.194 -20.450501
1.526579 78.490212 -20.811396
1.174216 76.633209 -23.281179
0.839016 75.336997 -22.920284
1.189712 76.92923 -21.896938
-4.167461 37.97617 -18.148394
-4.333049 35.437309 -18.358871
1.980055 66.034843 -1.05693
2.197794 67.558403 -1.609909
1.541926 64.702496 -2.059157
1.980055 66.034843 -1.05693
1.419967 64.780346 -3.688495
1.098186 63.265793 -3.036515
1.541926 64.702496 -2.059157
-3.512592 45.60133 -16.067267
-3.625389 46.099598 -14.686856
-3.138596 47.425629 -17.122829
-3.465445 45.169506 -17.437277
-3.512592 45.60133 -16.067267
-2.78846 49.971775 -15.343745
-3.236713 48.276329 -14.330104
-2.83943 50.390652 -13.92103
3.661403 85.061599 -13.181306
3.757547 84.879776 -14.769249
3.670826 85.138218 -11.554294
3.661403 85.061599 -13.181306
3.165147 84.112309 -12.873972
3.627689 85.187973 -9.893165
3.670826 85.138218 -11.554294
3.217809 84.146214 -9.565622
3.627689 85.187973 -9.893165
2.922311 82.935714 -9.216489
3.217809 84.146214 -9.565622
2.879071 82.978428 -10.897827
2.69484 81.65731 -8.864455
2.922311 82.935714 -9.216489
2.438575 80.363319 -10.169913
2.549843 80.252701 -8.485675
2.69484 81.65731 -8.864455
-3.717653 33.644077 -21.920649
-3.996269 31.609335 -20.881895
-3.947193 34.251478 -20.781744
-3.487559 35.734797 -22.926432
-3.717653 33.644077 -21.920649
-3.977712 40.441512 -17.950928
-3.730803 42.841383 -17.704384
-3.811913 39.872217 -19.224518
-4.167461 37.97617 -18.148394
-3.977712 40.441512 -17.950928
-3.248118 37.75728 -23.961714
-3.487559 35.734797 -22.926432
-3.429136 38.308704 -22.85578
-3.051544 39.825212 -24.959359
-3.248118 37.75728 -23.961714
-2.849188 41.823395 -25.956482
-3.051544 39.825212 -24.959359
-2.987339 42.32937 -24.888185
-2.672724 43.849655 -26.905501
-2.849188 41.823395 -25.956482
-2.490607 45.804485 -27.828083
-2.672724 43.849655 -26.905501
-2.602866 46.282383 -26.807892
-2.308295 47.762569 -28.688524
-2.490607 45.804485 -27.828083
-2.117491 49.645684 -29.504818
-2.308295 47.762569 -28.688524
-2.229945 50.120327 -28.546768
-1.895958 51.500325 -30.244709
-1.974308 49.142567 -30.386465
-2.117491 49.645684 -29.504818
0.559777 61.82853 -3.910035
1.098186 63.265793 -3.036515
0.035356 60.285908 -4.758225
0.559777 61.82853 -3.910035
0.451806 61.801022 -5.514043
-0.563176 58.729336 -5.503865
0.035356 60.285908 -4.758225
-0.638556 58.596824 -7.081174
-0.563176 58.729336 -5.503865
-0.753643 58.496231 -8.65477
-0.638556 58.596824 -7.081174
-0.187702 60.157806 -7.93583
-0.825363 58.296314 -10.196749
-0.753643 58.496231 -8.65477
2.45131 78.808998 -8.115566
2.549843 80.252701 -8.485675
2.392857 77.282272 -7.709377
2.45131 78.808998 -8.115566
2.235124 77.431984 -9.384944
2.358245 75.743927 -7.316965
2.392857 77.282272 -7.709377
2.317864 74.160282 -6.875046
2.358245 75.743927 -7.316965
2.136292 74.321613 -8.536836
2.280305 72.586704 -6.446632
2.317864 74.160282 -6.875046
2.195088 70.995796 -5.952674
2.280305 72.586704 -6.446632
2.010693 71.14706 -7.60096
2.096095 69.428108 -5.468775
2.195088 70.995796 -5.952674
1.747494 67.987469 -6.541391
1.918114 67.859425 -4.903164
2.096095 69.428108 -5.468775
-0.949099 58.142467 -11.734708
-0.825363 58.296314 -10.196749
-0.426526 59.903366 -11.047385
-1.022242 57.896743 -13.236317
-1.42108 56.289692 -12.385681
-0.949099 58.142467 -11.734708
-1.804022 53.777203 -30.050337
-1.892477 54.247166 -29.068838
-1.657358 56.020927 -29.756113
-1.895958 51.500325 -30.244709
-1.804022 53.777203 -30.050337
1.279378 76.220531 -24.601803
1.174216 76.633209 -23.281179
0.918921 74.599331 -25.554747
1.279378 76.220531 -24.601803
0.607977 72.874695 -26.466533
0.512576 73.316341 -25.216312
0.918921 74.599331 -25.554747
0.296855 71.121994 -27.30109
0.607977 72.874695 -26.466533
0.018895 69.279713 -28.089428
-0.076327 69.749424 -26.916437
0.296855 71.121994 -27.30109
-0.248697 67.410355 -28.793816
0.018895 69.279713 -28.089428
-0.493844 65.458455 -29.447508
-0.599435 65.955242 -28.358467
-0.248697 67.410355 -28.793816
-0.717572 63.480652 -30.010236
-0.493844 65.458455 -29.447508
-0.923707 61.4216 -30.518743
-1.050717 61.944291 -29.520666
-0.717572 63.480652 -30.010236
-1.097294 59.33836 -30.928869
-0.923707 61.4216 -30.518743
-1.412878 57.718102 -30.383392
-1.097294 59.33836 -30.928869
3 82 20 83
3 84 22 85
3 86 24 87
3 88 87 22
3 86 87 88
3 90 89 24
3 0 28 26
3 0 30 28
3 91 31 92
3 93 33 94
3 95 94 31
3 93 94 95
3 1 36 34
3 1 38 36
3 1 40 38
3 2 43 41
3 2 45 43
3 96 46 97
3 96 97 98
3 4 47 19
3 4 48 47
3 5 49 21
3 5 50 49
3 5 52 50
3 7 53 23
3 7 54 53
3 7 56 54
3 9 57 25
3 9 58 57
3 10 99 100
3 10 101 103
3 101 59 102
3 101 102 103
3 3 104 106
3 104 60 105
3 104 105 106
3 11 61 27
3 11 62 61
3 11 63 62
3 12 64 29
3 12 65 64
3 13 66 32
3 13 67 66
3 6 68 51
3 14 69 35
3 14 70 69
3 14 71 70
3 15 72 37
3 15 73 72
3 15 74 73
3 16 75 39
3 16 76 75
3 8 77 55
3 17 78 42
3 17 79 78
3 17 80 79
3 18 81 44
3 18 107 109
3 109 108 81
3 107 108 109
3 110 19 111
3 20 112 114
3 112 19 113
3 112 113 114
3 20 4 19
3 115 21 116
3 22 117 119
3 117 21 118
3 117 118 119
3 22 5 21
3 22 23 5
3 24 23 22
3 24 7 23
3 24 25 7
3 120 25 121
3 122 121 24
3 120 121 122
3 123 9 124
3 125 124 25
3 123 124 125
3 126 10 127
3 26 27 3
3 28 27 26
3 28 11 27
3 28 29 11
3 30 29 28
3 30 12 29
3 31 128 129
3 31 130 131
3 31 132 134
3 132 32 133
3 132 133 134
3 33 32 31
3 33 13 32
3 34 35 6
3 36 35 34
3 36 14 35
3 36 37 14
3 38 37 36
3 38 15 37
3 38 39 15
3 40 39 38
3 40 16 39
3 41 42 8
3 43 42 41
3 43 17 42
3 43 44 17
3 45 44 43
3 45 18 44
3 46 135 136
3 46 137 139
3 137 3 138
3 137 138 139
3 19 140 142
3 140 46 141
3 140 141 142
3 47 46 19
3 47 3 46
3 47 26 3
3 48 26 47
3 48 0 26
3 21 143 144
3 49 145 147
3 147 146 21
3 145 146 147
3 49 148 149
3 49 150 151
3 50 152 154
3 154 153 49
3 152 153 154
3 50 155 156
3 50 157 159
3 157 51 158
3 157 158 159
3 52 51 50
3 52 6 51
3 23 52 5
3 53 52 23
3 53 6 52
3 53 34 6
3 54 34 53
3 54 1 34
3 54 55 1
3 56 55 54
3 56 8 55
3 25 56 7
3 57 56 25
3 57 8 56
3 57 41 8
3 58 41 57
3 58 2 41
3 59 160 162
3 160 161 162
3 59 163 164
3 60 165 166
3 60 167 169
3 167 10 168
3 167 168 169
3 27 60 3
3 61 60 27
3 61 10 60
3 61 59 10
3 62 59 61
3 62 170 172
3 172 171 59
3 170 171 172
3 62 173 174
3 63 175 177
3 177 176 62
3 175 176 177
3 63 178 179
3 29 63 11
3 64 63 29
3 64 180 182
3 182 181 63
3 180 181 182
3 64 183 184
3 65 185 187
3 187 186 64
3 185 186 187
3 65 188 190
3 188 189 190
3 32 191 192
3 66 193 195
3 195 194 32
3 193 194 195
3 66 196 197
3 66 198 199
3 67 200 202
3 202 201 66
3 200 201 202
3 67 203 204
3 51 205 206
3 68 207 209
3 209 208 51
3 207 208 209
3 68 210 211
3 35 68 6
3 69 68 35
3 69 212 214
3 214 213 68
3 212 213 214
3 69 215 216
3 70 217 219
3 219 218 69
3 217 218 219
3 70 220 221
3 70 222 224
3 222 33 223
3 222 223 224
3 71 33 70
3 71 13 33
3 37 71 14
3 72 71 37
3 72 13 71
3 72 67 13
3 73 67 72
3 73 225 227
3 227 226 67
3 225 226 227
3 73 228 230
3 228 20 229
3 228 229 230
3 74 20 73
3 74 4 20
3 39 74 15
3 75 74 39
3 75 4 74
3 75 48 4
3 76 48 75
3 76 0 48
3 55 40 1
3 77 40 55
3 77 16 40
3 42 77 8
3 78 77 42
3 78 16 77
3 78 76 16
3 79 76 78
3 79 0 76
3 79 30 0
3 80 30 79
3 80 12 30
3 44 80 17
3 81 80 44
3 81 12 80
3 81 65 12
3 231 65 232
3 233 232 81
3 231 232 233
3 235 234 65
3 236 9 237
3 238 9 239
3 240 58 241
3 242 241 9
3 240 241 242
3 243 58 244
3 245 2 246
3 247 246 58
3 245 246 247
3 248 2 249
3 250 45 251
3 252 251 2
3 250 251 252
3 253 45 254
3 255 18 256
3 257 256 45
3 255 256 257
3 258 18 259
3 261 260 18
